<?xml version="1.0" encoding="utf-8"?>
<svg version="1.1" xmlns:xlink="http://www.w3.org/1999/xlink" width="330px" height="330px" xmlns="http://www.w3.org/2000/svg">
  <defs>
    <pattern id="BGPattern" patternUnits="userSpaceOnUse" alignment="0 0" imageRepeat="None" />
    <mask fill="white" id="Clip6260">
      <path d="M 165 0  C 256.1269837220809 0  330 73.87301627791908  330 165  C 330 256.1269837220809  256.1269837220809 330  165 330  L 165 165  L 165 330  C 73.87301627791908 330  0 256.1269837220809  0 165  C 0 73.87301627791908  73.87301627791908 0  165 0  Z " fill-rule="evenodd" />
    </mask>
  </defs>
  <g transform="matrix(1 0 0 1 -395 -225 )">
    <path d="M 165 0  C 256.1269837220809 0  330 73.87301627791908  330 165  C 330 256.1269837220809  256.1269837220809 330  165 330  L 165 165  L 165 330  C 73.87301627791908 330  0 256.1269837220809  0 165  C 0 73.87301627791908  73.87301627791908 0  165 0  Z " fill-rule="nonzero" fill="rgba(163, 103, 23, 1)" stroke="none" transform="matrix(1 0 0 1 395 225 )" class="fill" />
    <path d="M 165 0  C 256.1269837220809 0  330 73.87301627791908  330 165  C 330 256.1269837220809  256.1269837220809 330  165 330  L 165 165  L 165 330  C 73.87301627791908 330  0 256.1269837220809  0 165  C 0 73.87301627791908  73.87301627791908 0  165 0  Z " stroke-width="2" stroke-dasharray="0" stroke="rgba(255, 255, 255, 1)" fill="none" transform="matrix(1 0 0 1 395 225 )" class="stroke" mask="url(#Clip6260)" />
  </g>
</svg>