<?xml version="1.0" encoding="utf-8"?>
<svg version="1.1" xmlns:xlink="http://www.w3.org/1999/xlink" width="500px" height="519px" xmlns="http://www.w3.org/2000/svg">
  <defs>
    <pattern id="BGPattern" patternUnits="userSpaceOnUse" alignment="0 0" imageRepeat="None" />
    <mask fill="white" id="Clip9885">
      <path d="M 372.01381744167503 462.4812394586881  C 373.08661509563086 462.60563250033965  374.1778416556438 462.66957622928356  375.28400224388236 462.66957622928356  C 375.28400224388236 462.66957622928356  408.83327556515053 462.66957622928356  408.83327556515053 462.66957622928356  C 458.8179811295579 462.66957622928356  499.3383741543147 422.14815935761425  499.3383741543147 372.16276274589654  C 499.3383741543147 372.16276274589654  499.3383741543147 241.26299581110368  499.3383741543147 241.26299581110368  C 499.3383741543147 217.30539815325096  495.6108475030722 193.49352845690453  488.289332170075 170.68249944981022  C 488.289332170075 170.68249944981022  448.141118032331 45.59379429625079  448.141118032331 45.59379429625079  C 430.16614264029727 -10.409838591611525  353.23109949341506 -16.21935570418433  327.05109710813406 36.45018655467379  C 327.05109710813406 36.45018655467379  300.3851452839431 90.09619603279447  300.3851452839431 90.09619603279447  C 298.80292929214295 93.2789649889298  295.555243627881 95.29129960494197  292.00136355941896 95.29129960494197  C 292.00136355941896 95.29129960494197  207.3371128818077 95.29129960494197  207.3371128818077 95.29129960494197  C 203.78324804639294 95.29129960494197  200.53556238213093 93.2789649889298  198.9533565456956 90.09619603279447  C 198.9533565456956 90.09619603279447  172.28790233437996 36.45018655467379  172.28790233437996 36.45018655467379  C 146.1073718701292 -16.219255163620623  69.1724099661654 -10.409889369674005  51.197566593874114 45.59379429625079  C 51.197566593874114 45.59379429625079  11.049195047975758 170.68249944981022  11.049195047975758 170.68249944981022  C 11.049195047975758 170.68249944981022  37.79314565931077 179.26653091175461  37.79314565931077 179.26653091175461  C 37.79314565931077 179.26653091175461  11.049195047975758 170.68249944981022  11.049195047975758 170.68249944981022  C 3.7276847926609413 193.49352845690453  0 217.30539815325096  0 241.26299581110368  C 0 241.26299581110368  0 372.16276274589654  0 372.16276274589654  C 0 422.14815935761425  40.520470938793196 462.66957622928356  90.50522626448816 462.66957622928356  C 90.50522626448816 462.66957622928356  147.2168391625771 462.66957622928356  196.34338025175617 460.08890495485304  C 204.43088838596432 461.583782999673  209.2860695167326 462.48120449904815  209.2860695167326 462.48120449904815  C 209.2860695167326 462.48120449904815  227.99999356822494 462.48120449904815  253.33533332234438 462.4812361311691  C 253.36193094197645 462.539230499809  253.39393949361207 462.6019193307985  253.43155148968594 462.6695762292075  C 260.0419667457453 474.56349814934833  276.6129545052361 504.3791794517184  276.6129545052361 504.3791794517184  C 276.6129545052361 504.3791794517184  325.7141484093935 477.0910537537251  325.7141484093935 477.0910537537251  C 325.7141484093935 477.0910537537251  322.11108707310626 470.6078228770527  317.5949351651917 462.48120449904815  C 338.9155508882406 462.48120449904815  358.7614954406989 462.48120449904815  372.01381744167503 462.4812394586881  Z M 325.7141484093935 477.0910537537251  C 325.7141484093935 477.0910537537251  276.6129545052361 504.3791794517184  276.6129545052361 504.3791794517184  C 284.14874295791157 517.9369119777929  301.24987967467086 522.8217615881985  314.80881499249256 515.2862971164293  C 328.3677198442199 507.7508478780792  333.2504344749443 490.6487710463807  325.7141484093935 477.0910537537251  Z M 147.13611032475626 48.95276211362432  C 143.30533901450391 50.85709720191653  139.4745551999585 52.76141483053971  135.99919038970356 54.48898260049985  C 141.77261870614572 51.61898153095879  147.13611032475626 48.95276211362432  147.13611032475626 48.95276211362432  Z M 37.79314650487943 179.26652827500243  C 37.85091629478915 179.2850706935605  37.9086860848484 179.30361311216654  37.96645479682961 179.32215518474098  C 37.908686084848384 179.30361311216654  37.850916294789144 179.2850706935605  37.79314650487943 179.26652827500243  Z M 37.79314650487946 179.26652827500243  C 24.42116677058656 174.97451257664812  11.049195047975758 170.68249944981022  11.049195047975758 170.68249944981022  C 11.049195047975758 170.68249944981022  24.421166770586545 174.97451257664812  37.79314650487946 179.26652827500243  Z M 147.1362120290416 48.95296670928765  C 159.71207370919794 42.701568416249074  172.28790233437996 36.45018655467379  172.28790233437996 36.45018655467379  C 172.28790233437996 36.45018655467379  159.7120737091979 42.701568416249074  147.1362120290416 48.95296670928765  Z M 51.197566593874114 45.59379429625079  C 51.197566593874114 45.59379429625079  76.07033088035476 53.577199126501284  91.88248350786697 58.65242173582553  C 76.05890564490406 53.57353197158304  51.197566593874114 45.59379429625079  51.197566593874114 45.59379429625079  Z M 352.20278791652953 48.95296569731457  C 355.1301356933802 50.40813557064362  358.0574852980588 51.86330635257676  360.79860187169686 53.22590163038565  C 358.038021130868 51.85363081285118  355.1204036158514 50.403297803796505  352.2027879165295 48.95296569731454  C 339.6269256455509 42.70156774160213  327.05109710813406 36.45018655467379  327.05109710813406 36.45018655467379  C 327.05109710813406 36.45018655467379  339.6269256455509 42.70156774160213  352.20278791652953 48.95296569731457  Z M 300.3851452839431 90.09619603279447  C 300.3851452839431 90.09619603279447  313.8915524316893 96.81002356168517  321.12277517492 100.4045574992837  C 310.17840116328694 94.96427507889712  300.3851452839431 90.09619603279447  300.3851452839431 90.09619603279447  Z M 488.289332170075 170.68249944981022  C 488.289332170075 170.68249944981022  475.13033364218376 174.90616681907122  461.84679877883224 179.16980683938584  C 475.11754181156755 174.910272635897  488.289332170075 170.68249944981022  488.289332170075 170.68249944981022  Z M 448.141118032331 45.59379429625079  C 448.141118032331 45.59379429625079  422.5490733106097 53.808037532843244  406.76045869450724 58.87568735276591  C 422.53934404273525 53.81116032251103  448.141118032331 45.59379429625079  448.141118032331 45.59379429625079  Z M 90.50522626448816 462.66957622928356  C 90.50522626448816 462.66957622928356  90.50522626448816 452.33196729389675  90.50522626448816 440.513885740102  C 90.50522626448816 452.3249575199088  90.50522626448816 462.66957622928356  90.50522626448816 462.66957622928356  Z M 292.00136355941896 95.29129960494197  C 292.00136355941896 95.29129960494197  292.00136355941896 109.22589144873876  292.00136355941896 123.20441955920518  C 292.00136355941896 109.21889019338181  292.00136355941896 95.29129960494197  292.00136355941896 95.29129960494197  Z M 499.3383741543147 372.16276274589654  C 499.3383741543147 372.16276274589654  474.72138042542883 372.16276274589654  458.0716623002157 372.16276274589654  C 474.71388025640863 372.16276274589654  499.3383741543147 372.16276274589654  499.3383741543147 372.16276274589654  Z M 499.3383741543147 241.26299581110368  C 499.3383741543147 241.26299581110368  485.35736363937434 241.26299581110368  471.3395236006306 241.26299581110368  C 485.3536969062655 241.26299581110368  499.3383741543147 241.26299581110368  499.3383741543147 241.26299581110368  Z M 207.3371128818077 95.29129960494197  C 207.3371128818077 95.29129960494197  207.3371128818077 109.22589144873876  207.3371128818077 123.20441955920518  C 207.3371128818077 109.21889019338181  207.3371128818077 95.29129960494197  207.3371128818077 95.29129960494197  Z M 198.9533565456956 90.09619603279447  C 198.9533565456956 90.09619603279447  186.4497908687975 96.31152774014507  173.90880085958594 102.54546251203462  C 186.44885084988425 96.3119950092032  198.9533565456956 90.09619603279447  198.9533565456956 90.09619603279447  Z M 375.28400224388236 462.66957622928356  C 375.28400224388236 462.66957622928356  375.28400224388236 462.60540460396794  375.28400224388236 462.5006822055667  C 375.28400224388236 462.6120510149386  375.28400224388236 462.66957622928356  375.28400224388236 462.66957622928356  Z M 408.83327556515053 462.66957622928356  C 408.83327556515053 462.66957622928356  408.83327556515053 455.9722751709334  408.83327556515053 447.2009096440506  C 408.83327556515053 455.97143425188995  408.83327556515053 462.66957622928356  408.83327556515053 462.66957622928356  Z M 256.89364159847946 462.48120449904815  C 257.57137623401417 462.48120449904815  258.25325450222647 462.48120449904815  258.93906029122365 462.48119496031063  C 258.93906029122365 462.6053341699318  258.93906029122365 462.66957622928356  258.93906029122365 462.66957622928356  C 258.23421554352973 462.66957622928356  257.5408526742342 462.5903589188545  256.89364159847946 462.48120449904815  Z M 0 241.26299581110368  C 0 241.26299581110368  0 372.16276274589654  0 372.16276274589654  C 0 372.16276274589654  0 241.26299581110368  0 241.26299581110368  Z M 147.13611032475626 48.95276211362432  C 147.13611032475626 48.95276211362432  141.77261870614572 51.61898153095879  135.99922232200362 54.48902310287136  C 139.47455519995847 52.76141483053971  143.3053390145039 50.85709720191653  147.13611032475626 48.95276211362432  Z " fill-rule="evenodd" />
    </mask>
  </defs>
  <g transform="matrix(1 0 0 1 0 -41 )">
    <path d="M 372.01381744167503 462.4812394586881  C 373.08661509563086 462.60563250033965  374.1778416556438 462.66957622928356  375.28400224388236 462.66957622928356  C 375.28400224388236 462.66957622928356  408.83327556515053 462.66957622928356  408.83327556515053 462.66957622928356  C 458.8179811295579 462.66957622928356  499.3383741543147 422.14815935761425  499.3383741543147 372.16276274589654  C 499.3383741543147 372.16276274589654  499.3383741543147 241.26299581110368  499.3383741543147 241.26299581110368  C 499.3383741543147 217.30539815325096  495.6108475030722 193.49352845690453  488.289332170075 170.68249944981022  C 488.289332170075 170.68249944981022  448.141118032331 45.59379429625079  448.141118032331 45.59379429625079  C 430.16614264029727 -10.409838591611525  353.23109949341506 -16.21935570418433  327.05109710813406 36.45018655467379  C 327.05109710813406 36.45018655467379  300.3851452839431 90.09619603279447  300.3851452839431 90.09619603279447  C 298.80292929214295 93.2789649889298  295.555243627881 95.29129960494197  292.00136355941896 95.29129960494197  C 292.00136355941896 95.29129960494197  207.3371128818077 95.29129960494197  207.3371128818077 95.29129960494197  C 203.78324804639294 95.29129960494197  200.53556238213093 93.2789649889298  198.9533565456956 90.09619603279447  C 198.9533565456956 90.09619603279447  172.28790233437996 36.45018655467379  172.28790233437996 36.45018655467379  C 146.1073718701292 -16.219255163620623  69.1724099661654 -10.409889369674005  51.197566593874114 45.59379429625079  C 51.197566593874114 45.59379429625079  11.049195047975758 170.68249944981022  11.049195047975758 170.68249944981022  C 11.049195047975758 170.68249944981022  37.79314565931077 179.26653091175461  37.79314565931077 179.26653091175461  C 37.79314565931077 179.26653091175461  11.049195047975758 170.68249944981022  11.049195047975758 170.68249944981022  C 3.7276847926609413 193.49352845690453  0 217.30539815325096  0 241.26299581110368  C 0 241.26299581110368  0 372.16276274589654  0 372.16276274589654  C 0 422.14815935761425  40.520470938793196 462.66957622928356  90.50522626448816 462.66957622928356  C 90.50522626448816 462.66957622928356  147.2168391625771 462.66957622928356  196.34338025175617 460.08890495485304  C 204.43088838596432 461.583782999673  209.2860695167326 462.48120449904815  209.2860695167326 462.48120449904815  C 209.2860695167326 462.48120449904815  227.99999356822494 462.48120449904815  253.33533332234438 462.4812361311691  C 253.36193094197645 462.539230499809  253.39393949361207 462.6019193307985  253.43155148968594 462.6695762292075  C 260.0419667457453 474.56349814934833  276.6129545052361 504.3791794517184  276.6129545052361 504.3791794517184  C 276.6129545052361 504.3791794517184  325.7141484093935 477.0910537537251  325.7141484093935 477.0910537537251  C 325.7141484093935 477.0910537537251  322.11108707310626 470.6078228770527  317.5949351651917 462.48120449904815  C 338.9155508882406 462.48120449904815  358.7614954406989 462.48120449904815  372.01381744167503 462.4812394586881  Z M 325.7141484093935 477.0910537537251  C 325.7141484093935 477.0910537537251  276.6129545052361 504.3791794517184  276.6129545052361 504.3791794517184  C 284.14874295791157 517.9369119777929  301.24987967467086 522.8217615881985  314.80881499249256 515.2862971164293  C 328.3677198442199 507.7508478780792  333.2504344749443 490.6487710463807  325.7141484093935 477.0910537537251  Z M 147.13611032475626 48.95276211362432  C 143.30533901450391 50.85709720191653  139.4745551999585 52.76141483053971  135.99919038970356 54.48898260049985  C 141.77261870614572 51.61898153095879  147.13611032475626 48.95276211362432  147.13611032475626 48.95276211362432  Z M 37.79314650487943 179.26652827500243  C 37.85091629478915 179.2850706935605  37.9086860848484 179.30361311216654  37.96645479682961 179.32215518474098  C 37.908686084848384 179.30361311216654  37.850916294789144 179.2850706935605  37.79314650487943 179.26652827500243  Z M 37.79314650487946 179.26652827500243  C 24.42116677058656 174.97451257664812  11.049195047975758 170.68249944981022  11.049195047975758 170.68249944981022  C 11.049195047975758 170.68249944981022  24.421166770586545 174.97451257664812  37.79314650487946 179.26652827500243  Z M 147.1362120290416 48.95296670928765  C 159.71207370919794 42.701568416249074  172.28790233437996 36.45018655467379  172.28790233437996 36.45018655467379  C 172.28790233437996 36.45018655467379  159.7120737091979 42.701568416249074  147.1362120290416 48.95296670928765  Z M 51.197566593874114 45.59379429625079  C 51.197566593874114 45.59379429625079  76.07033088035476 53.577199126501284  91.88248350786697 58.65242173582553  C 76.05890564490406 53.57353197158304  51.197566593874114 45.59379429625079  51.197566593874114 45.59379429625079  Z M 352.20278791652953 48.95296569731457  C 355.1301356933802 50.40813557064362  358.0574852980588 51.86330635257676  360.79860187169686 53.22590163038565  C 358.038021130868 51.85363081285118  355.1204036158514 50.403297803796505  352.2027879165295 48.95296569731454  C 339.6269256455509 42.70156774160213  327.05109710813406 36.45018655467379  327.05109710813406 36.45018655467379  C 327.05109710813406 36.45018655467379  339.6269256455509 42.70156774160213  352.20278791652953 48.95296569731457  Z M 300.3851452839431 90.09619603279447  C 300.3851452839431 90.09619603279447  313.8915524316893 96.81002356168517  321.12277517492 100.4045574992837  C 310.17840116328694 94.96427507889712  300.3851452839431 90.09619603279447  300.3851452839431 90.09619603279447  Z M 488.289332170075 170.68249944981022  C 488.289332170075 170.68249944981022  475.13033364218376 174.90616681907122  461.84679877883224 179.16980683938584  C 475.11754181156755 174.910272635897  488.289332170075 170.68249944981022  488.289332170075 170.68249944981022  Z M 448.141118032331 45.59379429625079  C 448.141118032331 45.59379429625079  422.5490733106097 53.808037532843244  406.76045869450724 58.87568735276591  C 422.53934404273525 53.81116032251103  448.141118032331 45.59379429625079  448.141118032331 45.59379429625079  Z M 90.50522626448816 462.66957622928356  C 90.50522626448816 462.66957622928356  90.50522626448816 452.33196729389675  90.50522626448816 440.513885740102  C 90.50522626448816 452.3249575199088  90.50522626448816 462.66957622928356  90.50522626448816 462.66957622928356  Z M 292.00136355941896 95.29129960494197  C 292.00136355941896 95.29129960494197  292.00136355941896 109.22589144873876  292.00136355941896 123.20441955920518  C 292.00136355941896 109.21889019338181  292.00136355941896 95.29129960494197  292.00136355941896 95.29129960494197  Z M 499.3383741543147 372.16276274589654  C 499.3383741543147 372.16276274589654  474.72138042542883 372.16276274589654  458.0716623002157 372.16276274589654  C 474.71388025640863 372.16276274589654  499.3383741543147 372.16276274589654  499.3383741543147 372.16276274589654  Z M 499.3383741543147 241.26299581110368  C 499.3383741543147 241.26299581110368  485.35736363937434 241.26299581110368  471.3395236006306 241.26299581110368  C 485.3536969062655 241.26299581110368  499.3383741543147 241.26299581110368  499.3383741543147 241.26299581110368  Z M 207.3371128818077 95.29129960494197  C 207.3371128818077 95.29129960494197  207.3371128818077 109.22589144873876  207.3371128818077 123.20441955920518  C 207.3371128818077 109.21889019338181  207.3371128818077 95.29129960494197  207.3371128818077 95.29129960494197  Z M 198.9533565456956 90.09619603279447  C 198.9533565456956 90.09619603279447  186.4497908687975 96.31152774014507  173.90880085958594 102.54546251203462  C 186.44885084988425 96.3119950092032  198.9533565456956 90.09619603279447  198.9533565456956 90.09619603279447  Z M 375.28400224388236 462.66957622928356  C 375.28400224388236 462.66957622928356  375.28400224388236 462.60540460396794  375.28400224388236 462.5006822055667  C 375.28400224388236 462.6120510149386  375.28400224388236 462.66957622928356  375.28400224388236 462.66957622928356  Z M 408.83327556515053 462.66957622928356  C 408.83327556515053 462.66957622928356  408.83327556515053 455.9722751709334  408.83327556515053 447.2009096440506  C 408.83327556515053 455.97143425188995  408.83327556515053 462.66957622928356  408.83327556515053 462.66957622928356  Z M 256.89364159847946 462.48120449904815  C 257.57137623401417 462.48120449904815  258.25325450222647 462.48120449904815  258.93906029122365 462.48119496031063  C 258.93906029122365 462.6053341699318  258.93906029122365 462.66957622928356  258.93906029122365 462.66957622928356  C 258.23421554352973 462.66957622928356  257.5408526742342 462.5903589188545  256.89364159847946 462.48120449904815  Z M 0 241.26299581110368  C 0 241.26299581110368  0 372.16276274589654  0 372.16276274589654  C 0 372.16276274589654  0 241.26299581110368  0 241.26299581110368  Z M 147.13611032475626 48.95276211362432  C 147.13611032475626 48.95276211362432  141.77261870614572 51.61898153095879  135.99922232200362 54.48902310287136  C 139.47455519995847 52.76141483053971  143.3053390145039 50.85709720191653  147.13611032475626 48.95276211362432  Z " fill-rule="nonzero" fill="rgba(255, 255, 255, 1)" stroke="none" transform="matrix(1 0 0 1 0 41 )" class="fill" />
    <path d="M 372.01381744167503 462.4812394586881  C 373.08661509563086 462.60563250033965  374.1778416556438 462.66957622928356  375.28400224388236 462.66957622928356  C 375.28400224388236 462.66957622928356  408.83327556515053 462.66957622928356  408.83327556515053 462.66957622928356  C 458.8179811295579 462.66957622928356  499.3383741543147 422.14815935761425  499.3383741543147 372.16276274589654  C 499.3383741543147 372.16276274589654  499.3383741543147 241.26299581110368  499.3383741543147 241.26299581110368  C 499.3383741543147 217.30539815325096  495.6108475030722 193.49352845690453  488.289332170075 170.68249944981022  C 488.289332170075 170.68249944981022  448.141118032331 45.59379429625079  448.141118032331 45.59379429625079  C 430.16614264029727 -10.409838591611525  353.23109949341506 -16.21935570418433  327.05109710813406 36.45018655467379  C 327.05109710813406 36.45018655467379  300.3851452839431 90.09619603279447  300.3851452839431 90.09619603279447  C 298.80292929214295 93.2789649889298  295.555243627881 95.29129960494197  292.00136355941896 95.29129960494197  C 292.00136355941896 95.29129960494197  207.3371128818077 95.29129960494197  207.3371128818077 95.29129960494197  C 203.78324804639294 95.29129960494197  200.53556238213093 93.2789649889298  198.9533565456956 90.09619603279447  C 198.9533565456956 90.09619603279447  172.28790233437996 36.45018655467379  172.28790233437996 36.45018655467379  C 146.1073718701292 -16.219255163620623  69.1724099661654 -10.409889369674005  51.197566593874114 45.59379429625079  C 51.197566593874114 45.59379429625079  11.049195047975758 170.68249944981022  11.049195047975758 170.68249944981022  C 11.049195047975758 170.68249944981022  37.79314565931077 179.26653091175461  37.79314565931077 179.26653091175461  C 37.79314565931077 179.26653091175461  11.049195047975758 170.68249944981022  11.049195047975758 170.68249944981022  C 3.7276847926609413 193.49352845690453  0 217.30539815325096  0 241.26299581110368  C 0 241.26299581110368  0 372.16276274589654  0 372.16276274589654  C 0 422.14815935761425  40.520470938793196 462.66957622928356  90.50522626448816 462.66957622928356  C 90.50522626448816 462.66957622928356  147.2168391625771 462.66957622928356  196.34338025175617 460.08890495485304  C 204.43088838596432 461.583782999673  209.2860695167326 462.48120449904815  209.2860695167326 462.48120449904815  C 209.2860695167326 462.48120449904815  227.99999356822494 462.48120449904815  253.33533332234438 462.4812361311691  C 253.36193094197645 462.539230499809  253.39393949361207 462.6019193307985  253.43155148968594 462.6695762292075  C 260.0419667457453 474.56349814934833  276.6129545052361 504.3791794517184  276.6129545052361 504.3791794517184  C 276.6129545052361 504.3791794517184  325.7141484093935 477.0910537537251  325.7141484093935 477.0910537537251  C 325.7141484093935 477.0910537537251  322.11108707310626 470.6078228770527  317.5949351651917 462.48120449904815  C 338.9155508882406 462.48120449904815  358.7614954406989 462.48120449904815  372.01381744167503 462.4812394586881  Z " stroke-width="0" stroke-dasharray="0" stroke="rgba(255, 255, 255, 0)" fill="none" transform="matrix(1 0 0 1 0 41 )" class="stroke" mask="url(#Clip9885)" />
    <path d="M 325.7141484093935 477.0910537537251  C 325.7141484093935 477.0910537537251  276.6129545052361 504.3791794517184  276.6129545052361 504.3791794517184  C 284.14874295791157 517.9369119777929  301.24987967467086 522.8217615881985  314.80881499249256 515.2862971164293  C 328.3677198442199 507.7508478780792  333.2504344749443 490.6487710463807  325.7141484093935 477.0910537537251  Z " stroke-width="0" stroke-dasharray="0" stroke="rgba(255, 255, 255, 0)" fill="none" transform="matrix(1 0 0 1 0 41 )" class="stroke" mask="url(#Clip9885)" />
    <path d="M 147.13611032475626 48.95276211362432  C 143.30533901450391 50.85709720191653  139.4745551999585 52.76141483053971  135.99919038970356 54.48898260049985  C 141.77261870614572 51.61898153095879  147.13611032475626 48.95276211362432  147.13611032475626 48.95276211362432  Z " stroke-width="0" stroke-dasharray="0" stroke="rgba(255, 255, 255, 0)" fill="none" transform="matrix(1 0 0 1 0 41 )" class="stroke" mask="url(#Clip9885)" />
    <path d="M 37.79314650487943 179.26652827500243  C 37.85091629478915 179.2850706935605  37.9086860848484 179.30361311216654  37.96645479682961 179.32215518474098  C 37.908686084848384 179.30361311216654  37.850916294789144 179.2850706935605  37.79314650487943 179.26652827500243  Z " stroke-width="0" stroke-dasharray="0" stroke="rgba(255, 255, 255, 0)" fill="none" transform="matrix(1 0 0 1 0 41 )" class="stroke" mask="url(#Clip9885)" />
    <path d="M 37.79314650487946 179.26652827500243  C 24.42116677058656 174.97451257664812  11.049195047975758 170.68249944981022  11.049195047975758 170.68249944981022  C 11.049195047975758 170.68249944981022  24.421166770586545 174.97451257664812  37.79314650487946 179.26652827500243  Z " stroke-width="0" stroke-dasharray="0" stroke="rgba(255, 255, 255, 0)" fill="none" transform="matrix(1 0 0 1 0 41 )" class="stroke" mask="url(#Clip9885)" />
    <path d="M 147.1362120290416 48.95296670928765  C 159.71207370919794 42.701568416249074  172.28790233437996 36.45018655467379  172.28790233437996 36.45018655467379  C 172.28790233437996 36.45018655467379  159.7120737091979 42.701568416249074  147.1362120290416 48.95296670928765  Z " stroke-width="0" stroke-dasharray="0" stroke="rgba(255, 255, 255, 0)" fill="none" transform="matrix(1 0 0 1 0 41 )" class="stroke" mask="url(#Clip9885)" />
    <path d="M 51.197566593874114 45.59379429625079  C 51.197566593874114 45.59379429625079  76.07033088035476 53.577199126501284  91.88248350786697 58.65242173582553  C 76.05890564490406 53.57353197158304  51.197566593874114 45.59379429625079  51.197566593874114 45.59379429625079  Z " stroke-width="0" stroke-dasharray="0" stroke="rgba(255, 255, 255, 0)" fill="none" transform="matrix(1 0 0 1 0 41 )" class="stroke" mask="url(#Clip9885)" />
    <path d="M 352.20278791652953 48.95296569731457  C 355.1301356933802 50.40813557064362  358.0574852980588 51.86330635257676  360.79860187169686 53.22590163038565  C 358.038021130868 51.85363081285118  355.1204036158514 50.403297803796505  352.2027879165295 48.95296569731454  C 339.6269256455509 42.70156774160213  327.05109710813406 36.45018655467379  327.05109710813406 36.45018655467379  C 327.05109710813406 36.45018655467379  339.6269256455509 42.70156774160213  352.20278791652953 48.95296569731457  Z " stroke-width="0" stroke-dasharray="0" stroke="rgba(255, 255, 255, 0)" fill="none" transform="matrix(1 0 0 1 0 41 )" class="stroke" mask="url(#Clip9885)" />
    <path d="M 300.3851452839431 90.09619603279447  C 300.3851452839431 90.09619603279447  313.8915524316893 96.81002356168517  321.12277517492 100.4045574992837  C 310.17840116328694 94.96427507889712  300.3851452839431 90.09619603279447  300.3851452839431 90.09619603279447  Z " stroke-width="0" stroke-dasharray="0" stroke="rgba(255, 255, 255, 0)" fill="none" transform="matrix(1 0 0 1 0 41 )" class="stroke" mask="url(#Clip9885)" />
    <path d="M 488.289332170075 170.68249944981022  C 488.289332170075 170.68249944981022  475.13033364218376 174.90616681907122  461.84679877883224 179.16980683938584  C 475.11754181156755 174.910272635897  488.289332170075 170.68249944981022  488.289332170075 170.68249944981022  Z " stroke-width="0" stroke-dasharray="0" stroke="rgba(255, 255, 255, 0)" fill="none" transform="matrix(1 0 0 1 0 41 )" class="stroke" mask="url(#Clip9885)" />
    <path d="M 448.141118032331 45.59379429625079  C 448.141118032331 45.59379429625079  422.5490733106097 53.808037532843244  406.76045869450724 58.87568735276591  C 422.53934404273525 53.81116032251103  448.141118032331 45.59379429625079  448.141118032331 45.59379429625079  Z " stroke-width="0" stroke-dasharray="0" stroke="rgba(255, 255, 255, 0)" fill="none" transform="matrix(1 0 0 1 0 41 )" class="stroke" mask="url(#Clip9885)" />
    <path d="M 90.50522626448816 462.66957622928356  C 90.50522626448816 462.66957622928356  90.50522626448816 452.33196729389675  90.50522626448816 440.513885740102  C 90.50522626448816 452.3249575199088  90.50522626448816 462.66957622928356  90.50522626448816 462.66957622928356  Z " stroke-width="0" stroke-dasharray="0" stroke="rgba(255, 255, 255, 0)" fill="none" transform="matrix(1 0 0 1 0 41 )" class="stroke" mask="url(#Clip9885)" />
    <path d="M 292.00136355941896 95.29129960494197  C 292.00136355941896 95.29129960494197  292.00136355941896 109.22589144873876  292.00136355941896 123.20441955920518  C 292.00136355941896 109.21889019338181  292.00136355941896 95.29129960494197  292.00136355941896 95.29129960494197  Z " stroke-width="0" stroke-dasharray="0" stroke="rgba(255, 255, 255, 0)" fill="none" transform="matrix(1 0 0 1 0 41 )" class="stroke" mask="url(#Clip9885)" />
    <path d="M 499.3383741543147 372.16276274589654  C 499.3383741543147 372.16276274589654  474.72138042542883 372.16276274589654  458.0716623002157 372.16276274589654  C 474.71388025640863 372.16276274589654  499.3383741543147 372.16276274589654  499.3383741543147 372.16276274589654  Z " stroke-width="0" stroke-dasharray="0" stroke="rgba(255, 255, 255, 0)" fill="none" transform="matrix(1 0 0 1 0 41 )" class="stroke" mask="url(#Clip9885)" />
    <path d="M 499.3383741543147 241.26299581110368  C 499.3383741543147 241.26299581110368  485.35736363937434 241.26299581110368  471.3395236006306 241.26299581110368  C 485.3536969062655 241.26299581110368  499.3383741543147 241.26299581110368  499.3383741543147 241.26299581110368  Z " stroke-width="0" stroke-dasharray="0" stroke="rgba(255, 255, 255, 0)" fill="none" transform="matrix(1 0 0 1 0 41 )" class="stroke" mask="url(#Clip9885)" />
    <path d="M 207.3371128818077 95.29129960494197  C 207.3371128818077 95.29129960494197  207.3371128818077 109.22589144873876  207.3371128818077 123.20441955920518  C 207.3371128818077 109.21889019338181  207.3371128818077 95.29129960494197  207.3371128818077 95.29129960494197  Z " stroke-width="0" stroke-dasharray="0" stroke="rgba(255, 255, 255, 0)" fill="none" transform="matrix(1 0 0 1 0 41 )" class="stroke" mask="url(#Clip9885)" />
    <path d="M 198.9533565456956 90.09619603279447  C 198.9533565456956 90.09619603279447  186.4497908687975 96.31152774014507  173.90880085958594 102.54546251203462  C 186.44885084988425 96.3119950092032  198.9533565456956 90.09619603279447  198.9533565456956 90.09619603279447  Z " stroke-width="0" stroke-dasharray="0" stroke="rgba(255, 255, 255, 0)" fill="none" transform="matrix(1 0 0 1 0 41 )" class="stroke" mask="url(#Clip9885)" />
    <path d="M 375.28400224388236 462.66957622928356  C 375.28400224388236 462.66957622928356  375.28400224388236 462.60540460396794  375.28400224388236 462.5006822055667  C 375.28400224388236 462.6120510149386  375.28400224388236 462.66957622928356  375.28400224388236 462.66957622928356  Z " stroke-width="0" stroke-dasharray="0" stroke="rgba(255, 255, 255, 0)" fill="none" transform="matrix(1 0 0 1 0 41 )" class="stroke" mask="url(#Clip9885)" />
    <path d="M 408.83327556515053 462.66957622928356  C 408.83327556515053 462.66957622928356  408.83327556515053 455.9722751709334  408.83327556515053 447.2009096440506  C 408.83327556515053 455.97143425188995  408.83327556515053 462.66957622928356  408.83327556515053 462.66957622928356  Z " stroke-width="0" stroke-dasharray="0" stroke="rgba(255, 255, 255, 0)" fill="none" transform="matrix(1 0 0 1 0 41 )" class="stroke" mask="url(#Clip9885)" />
    <path d="M 256.89364159847946 462.48120449904815  C 257.57137623401417 462.48120449904815  258.25325450222647 462.48120449904815  258.93906029122365 462.48119496031063  C 258.93906029122365 462.6053341699318  258.93906029122365 462.66957622928356  258.93906029122365 462.66957622928356  C 258.23421554352973 462.66957622928356  257.5408526742342 462.5903589188545  256.89364159847946 462.48120449904815  Z " stroke-width="0" stroke-dasharray="0" stroke="rgba(255, 255, 255, 0)" fill="none" transform="matrix(1 0 0 1 0 41 )" class="stroke" mask="url(#Clip9885)" />
    <path d="M 0 241.26299581110368  C 0 241.26299581110368  0 372.16276274589654  0 372.16276274589654  C 0 372.16276274589654  0 241.26299581110368  0 241.26299581110368  Z " stroke-width="0" stroke-dasharray="0" stroke="rgba(255, 255, 255, 0)" fill="none" transform="matrix(1 0 0 1 0 41 )" class="stroke" mask="url(#Clip9885)" />
    <path d="M 147.13611032475626 48.95276211362432  C 147.13611032475626 48.95276211362432  141.77261870614572 51.61898153095879  135.99922232200362 54.48902310287136  C 139.47455519995847 52.76141483053971  143.3053390145039 50.85709720191653  147.13611032475626 48.95276211362432  Z " stroke-width="0" stroke-dasharray="0" stroke="rgba(255, 255, 255, 0)" fill="none" transform="matrix(1 0 0 1 0 41 )" class="stroke" mask="url(#Clip9885)" />
  </g>
</svg>