<?xml version="1.0" encoding="utf-8"?>
<svg version="1.1" xmlns:xlink="http://www.w3.org/1999/xlink" width="236px" height="130px" xmlns="http://www.w3.org/2000/svg">
  <defs>
    <pattern id="BGPattern" patternUnits="userSpaceOnUse" alignment="0 0" imageRepeat="None" />
    <mask fill="white" id="Clip5191">
      <path d="M 113.49999999999999 120  C 63.29342057288318 120  20.8342612889044 91.60546893843275  1 49.687235495512596  L 1 23.027834132100907  C 12.9688700856791 74.07673433826403  58.16842920380455 111.11111111111131  113.49999999999999 111.11111111111131  C 167.38989848505196 111.11111111111131  211.66732126929224 75.98146497828384  225 26.989149201470354  L 225 51.75060649552006  C 204.76280046249752 92.5345460883891  162.8783614051076 120  113.49999999999999 120  Z M 225.00143893225538 0  L 0.9977404839628862 0  L 225.00143893225538 0  Z " fill-rule="evenodd" />
    </mask>
  </defs>
  <g transform="matrix(1 0 0 1 -66 -4040 )">
    <path d="M 113.49999999999999 120  C 63.29342057288318 120  20.8342612889044 91.60546893843275  1 49.687235495512596  L 1 23.027834132100907  C 12.9688700856791 74.07673433826403  58.16842920380455 111.11111111111131  113.49999999999999 111.11111111111131  C 167.38989848505196 111.11111111111131  211.66732126929224 75.98146497828384  225 26.989149201470354  L 225 51.75060649552006  C 204.76280046249752 92.5345460883891  162.8783614051076 120  113.49999999999999 120  Z M 225.00143893225538 0  L 0.9977404839628862 0  L 225.00143893225538 0  Z " fill-rule="nonzero" fill="rgba(255, 255, 255, 1)" stroke="none" transform="matrix(1 0 0 1 71 4040 )" class="fill" />
    <path d="M 113.49999999999999 120  C 63.29342057288318 120  20.8342612889044 91.60546893843275  1 49.687235495512596  L 1 23.027834132100907  C 12.9688700856791 74.07673433826403  58.16842920380455 111.11111111111131  113.49999999999999 111.11111111111131  C 167.38989848505196 111.11111111111131  211.66732126929224 75.98146497828384  225 26.989149201470354  L 225 51.75060649552006  C 204.76280046249752 92.5345460883891  162.8783614051076 120  113.49999999999999 120  Z " stroke-width="0" stroke-dasharray="0" stroke="rgba(121, 121, 121, 1)" fill="none" transform="matrix(1 0 0 1 71 4040 )" class="stroke" mask="url(#Clip5191)" />
    <path d="M 225.00143893225538 0  L 0.9977404839628862 0  L 225.00143893225538 0  Z " stroke-width="0" stroke-dasharray="0" stroke="rgba(121, 121, 121, 1)" fill="none" transform="matrix(1 0 0 1 71 4040 )" class="stroke" mask="url(#Clip5191)" />
  </g>
  <style>svg { filter: drop-shadow(0px 5px 2.5px rgba(0, 0, 0, 0.34901960784313724)); }</style>
</svg>