<?xml version="1.0" encoding="utf-8"?>
<svg version="1.1" xmlns:xlink="http://www.w3.org/1999/xlink" width="99px" height="130px" xmlns="http://www.w3.org/2000/svg">
  <defs>
    <linearGradient gradientUnits="userSpaceOnUse" x1="49.5" y1="0" x2="49.5" y2="130" id="LinearGradient18902">
      <stop id="Stop18903" stop-color="#000000" offset="0" />
      <stop id="Stop18904" stop-color="#333333" stop-opacity="0" offset="1" />
    </linearGradient>
    <pattern id="BGPattern" patternUnits="userSpaceOnUse" alignment="0 0" imageRepeat="None" />
    <mask fill="white" id="Clip18905">
      <path d="M 0 125  L 0 5  C 0 2.1999999999999997  2.1999999999999997 0  5 0  L 94 0  C 96.8 0  99 2.1999999999999997  99 5  L 99 125  C 99 127.8  96.8 130  94 130  L 5 130  C 2.1999999999999997 130  0 127.8  0 125  Z " fill-rule="evenodd" />
    </mask>
  </defs>
  <g transform="matrix(1 0 0 1 -129 -270 )">
    <path d="M 0 125  L 0 5  C 0 2.1999999999999997  2.1999999999999997 0  5 0  L 94 0  C 96.8 0  99 2.1999999999999997  99 5  L 99 125  C 99 127.8  96.8 130  94 130  L 5 130  C 2.1999999999999997 130  0 127.8  0 125  Z " fill-rule="nonzero" fill="url(#LinearGradient18902)" stroke="none" transform="matrix(1 0 0 1 129 270 )" class="fill" />
    <path d="M 0 125  L 0 5  C 0 2.1999999999999997  2.1999999999999997 0  5 0  L 94 0  C 96.8 0  99 2.1999999999999997  99 5  L 99 125  C 99 127.8  96.8 130  94 130  L 5 130  C 2.1999999999999997 130  0 127.8  0 125  Z " stroke-width="0" stroke-dasharray="0" stroke="rgba(121, 121, 121, 1)" fill="none" transform="matrix(1 0 0 1 129 270 )" class="stroke" mask="url(#Clip18905)" />
  </g>
</svg>