<?xml version="1.0" encoding="utf-8"?>
<svg version="1.1" xmlns:xlink="http://www.w3.org/1999/xlink" width="330px" height="51px" xmlns="http://www.w3.org/2000/svg">
  <defs>
    <linearGradient gradientUnits="userSpaceOnUse" x1="165" y1="0" x2="165" y2="51" id="LinearGradient6559">
      <stop id="Stop6560" stop-color="#333333" offset="0" />
      <stop id="Stop6561" stop-color="#333333" stop-opacity="0.8" offset="1" />
    </linearGradient>
    <pattern id="BGPattern" patternUnits="userSpaceOnUse" alignment="0 0" imageRepeat="None" />
    <mask fill="white" id="Clip6562">
      <path d="M 0 46  L 0 5  C 0 2.1999999999999997  2.1999999999999997 0  5 0  L 325 0  C 327.8 0  330 2.1999999999999997  330 5  L 330 46  C 330 48.800000000000004  327.8 51  325 51  L 5 51  C 2.1999999999999997 51  0 48.800000000000004  0 46  Z " fill-rule="evenodd" />
    </mask>
  </defs>
  <g transform="matrix(1 0 0 1 -17 -590 )">
    <path d="M 0 46  L 0 5  C 0 2.1999999999999997  2.1999999999999997 0  5 0  L 325 0  C 327.8 0  330 2.1999999999999997  330 5  L 330 46  C 330 48.800000000000004  327.8 51  325 51  L 5 51  C 2.1999999999999997 51  0 48.800000000000004  0 46  Z " fill-rule="nonzero" fill="url(#LinearGradient6559)" stroke="none" transform="matrix(1 0 0 1 17 590 )" class="fill" />
    <path d="M 0 46  L 0 5  C 0 2.1999999999999997  2.1999999999999997 0  5 0  L 325 0  C 327.8 0  330 2.1999999999999997  330 5  L 330 46  C 330 48.800000000000004  327.8 51  325 51  L 5 51  C 2.1999999999999997 51  0 48.800000000000004  0 46  Z " stroke-width="0" stroke-dasharray="0" stroke="rgba(121, 121, 121, 1)" fill="none" transform="matrix(1 0 0 1 17 590 )" class="stroke" mask="url(#Clip6562)" />
  </g>
</svg>