<?xml version="1.0" encoding="utf-8"?>
<svg version="1.1" xmlns:xlink="http://www.w3.org/1999/xlink" width="330px" height="68px" xmlns="http://www.w3.org/2000/svg">
  <defs>
    <linearGradient gradientUnits="userSpaceOnUse" x1="165" y1="0" x2="165" y2="68" id="LinearGradient20282">
      <stop id="Stop20283" stop-color="#000000" offset="0" />
      <stop id="Stop20284" stop-color="#333333" stop-opacity="0" offset="1" />
    </linearGradient>
    <pattern id="BGPattern" patternUnits="userSpaceOnUse" alignment="0 0" imageRepeat="None" />
    <mask fill="white" id="Clip20285">
      <path d="M 0 63  L 0 5  C 0 2.1999999999999997  2.1999999999999997 0  5 0  L 325 0  C 327.8 0  330 2.1999999999999997  330 5  L 330 63  C 330 65.8  327.8 68  325 68  L 5 68  C 2.1999999999999997 68  0 65.8  0 63  Z " fill-rule="evenodd" />
    </mask>
  </defs>
  <g transform="matrix(1 0 0 1 -17 -246 )">
    <path d="M 0 63  L 0 5  C 0 2.1999999999999997  2.1999999999999997 0  5 0  L 325 0  C 327.8 0  330 2.1999999999999997  330 5  L 330 63  C 330 65.8  327.8 68  325 68  L 5 68  C 2.1999999999999997 68  0 65.8  0 63  Z " fill-rule="nonzero" fill="url(#LinearGradient20282)" stroke="none" transform="matrix(1 0 0 1 17 246 )" class="fill" />
    <path d="M 0 63  L 0 5  C 0 2.1999999999999997  2.1999999999999997 0  5 0  L 325 0  C 327.8 0  330 2.1999999999999997  330 5  L 330 63  C 330 65.8  327.8 68  325 68  L 5 68  C 2.1999999999999997 68  0 65.8  0 63  Z " stroke-width="0" stroke-dasharray="0" stroke="rgba(121, 121, 121, 1)" fill="none" transform="matrix(1 0 0 1 17 246 )" class="stroke" mask="url(#Clip20285)" />
  </g>
</svg>