<?xml version="1.0" encoding="utf-8"?>
<svg version="1.1" xmlns:xlink="http://www.w3.org/1999/xlink" width="165px" height="65px" xmlns="http://www.w3.org/2000/svg">
  <defs>
    <linearGradient gradientUnits="userSpaceOnUse" x1="82.5" y1="0" x2="82.5" y2="65" id="LinearGradient11611">
      <stop id="Stop11612" stop-color="#000000" stop-opacity="0.8980392156862745" offset="0" />
      <stop id="Stop11613" stop-color="#333333" stop-opacity="0.8" offset="1" />
    </linearGradient>
    <pattern id="BGPattern" patternUnits="userSpaceOnUse" alignment="0 0" imageRepeat="None" />
    <mask fill="white" id="Clip11614">
      <path d="M 0 60  L 0 0  L 165 0  L 165 65  L 5 65  C 2.1999999999999997 65  0 62.8  0 60  Z " fill-rule="evenodd" />
    </mask>
  </defs>
  <g transform="matrix(1 0 0 1 -17 -545 )">
    <path d="M 0 60  L 0 0  L 165 0  L 165 65  L 5 65  C 2.1999999999999997 65  0 62.8  0 60  Z " fill-rule="nonzero" fill="url(#LinearGradient11611)" stroke="none" transform="matrix(1 0 0 1 17 545 )" class="fill" />
    <path d="M 0 60  L 0 0  L 165 0  L 165 65  L 5 65  C 2.1999999999999997 65  0 62.8  0 60  Z " stroke-width="0" stroke-dasharray="0" stroke="rgba(121, 121, 121, 1)" fill="none" transform="matrix(1 0 0 1 17 545 )" class="stroke" mask="url(#Clip11614)" />
  </g>
</svg>