<?xml version="1.0" encoding="utf-8"?>
<svg version="1.1" xmlns:xlink="http://www.w3.org/1999/xlink" width="100px" height="68px" xmlns="http://www.w3.org/2000/svg">
  <defs>
    <linearGradient gradientUnits="userSpaceOnUse" x1="50" y1="68" x2="50" y2="0" id="LinearGradient6521">
      <stop id="Stop6522" stop-color="#555555" offset="0" />
      <stop id="Stop6523" stop-color="#555555" stop-opacity="0" offset="1" />
    </linearGradient>
    <pattern id="BGPattern" patternUnits="userSpaceOnUse" alignment="0 0" imageRepeat="None" />
    <mask fill="white" id="Clip6524">
      <path d="M 0 63  L 0 5  C 0 2.1999999999999997  2.1999999999999997 0  5 0  L 95 0  C 97.8 0  100 2.1999999999999997  100 5  L 100 63  C 100 65.8  97.8 68  95 68  L 5 68  C 2.1999999999999997 68  0 65.8  0 63  Z " fill-rule="evenodd" />
    </mask>
  </defs>
  <g transform="matrix(1 0 0 1 -22 -485 )">
    <path d="M 0 63  L 0 5  C 0 2.1999999999999997  2.1999999999999997 0  5 0  L 95 0  C 97.8 0  100 2.1999999999999997  100 5  L 100 63  C 100 65.8  97.8 68  95 68  L 5 68  C 2.1999999999999997 68  0 65.8  0 63  Z " fill-rule="nonzero" fill="url(#LinearGradient6521)" stroke="none" transform="matrix(1 0 0 1 22 485 )" class="fill" />
    <path d="M 0 63  L 0 5  C 0 2.1999999999999997  2.1999999999999997 0  5 0  L 95 0  C 97.8 0  100 2.1999999999999997  100 5  L 100 63  C 100 65.8  97.8 68  95 68  L 5 68  C 2.1999999999999997 68  0 65.8  0 63  Z " stroke-width="0" stroke-dasharray="0" stroke="rgba(121, 121, 121, 1)" fill="none" transform="matrix(1 0 0 1 22 485 )" class="stroke" mask="url(#Clip6524)" />
  </g>
</svg>