<?xml version="1.0" encoding="utf-8"?>
<svg version="1.1" xmlns:xlink="http://www.w3.org/1999/xlink" width="330px" height="85px" xmlns="http://www.w3.org/2000/svg">
  <defs>
    <linearGradient gradientUnits="userSpaceOnUse" x1="165" y1="0" x2="165" y2="85" id="LinearGradient4196">
      <stop id="Stop4197" stop-color="#000000" offset="0" />
      <stop id="Stop4198" stop-color="#333333" stop-opacity="0" offset="1" />
    </linearGradient>
    <pattern id="BGPattern" patternUnits="userSpaceOnUse" alignment="0 0" imageRepeat="None" />
    <mask fill="white" id="Clip4199">
      <path d="M 0 80  L 0 5  C 0 2.1999999999999997  2.1999999999999997 0  5 0  L 325 0  C 327.8 0  330 2.1999999999999997  330 5  L 330 80  C 330 82.8  327.8 85  325 85  L 5 85  C 2.1999999999999997 85  0 82.8  0 80  Z " fill-rule="evenodd" />
    </mask>
  </defs>
  <g transform="matrix(1 0 0 1 -17 -10 )">
    <path d="M 0 80  L 0 5  C 0 2.1999999999999997  2.1999999999999997 0  5 0  L 325 0  C 327.8 0  330 2.1999999999999997  330 5  L 330 80  C 330 82.8  327.8 85  325 85  L 5 85  C 2.1999999999999997 85  0 82.8  0 80  Z " fill-rule="nonzero" fill="url(#LinearGradient4196)" stroke="none" transform="matrix(1 0 0 1 17 10 )" class="fill" />
    <path d="M 0 80  L 0 5  C 0 2.1999999999999997  2.1999999999999997 0  5 0  L 325 0  C 327.8 0  330 2.1999999999999997  330 5  L 330 80  C 330 82.8  327.8 85  325 85  L 5 85  C 2.1999999999999997 85  0 82.8  0 80  Z " stroke-width="0" stroke-dasharray="0" stroke="rgba(121, 121, 121, 1)" fill="none" transform="matrix(1 0 0 1 17 10 )" class="stroke" mask="url(#Clip4199)" />
  </g>
</svg>