<?xml version="1.0" encoding="utf-8"?>
<svg version="1.1" xmlns:xlink="http://www.w3.org/1999/xlink" width="12px" height="12px" xmlns="http://www.w3.org/2000/svg">
  <defs>
    <pattern id="BGPattern" patternUnits="userSpaceOnUse" alignment="0 0" imageRepeat="None" />
    <mask fill="white" id="Clip10465">
      <path d="M 0.6789550782552084 11.3173828125  C 0.48486328125 11.123291015494791  0.48486328125 10.8095703125  0.6789550779947918 10.615478515755209  L 5.296875 5.99755859375  L 0.6789550779947918 1.37841796875  C 0.4848632809895834 1.1843261717447906  0.4848632809895834 0.8693847654947906  0.6789550782552084 0.67529296875  C 0.8730468752604168 0.48120117174479066  1.1879882815104168 0.48120117174479066  1.3820800782552085 0.67529296875  L 6 5.293212890494791  L 10.619140625 0.67529296875  C 10.813232422005209 0.48120117174479066  11.128173828255209 0.48120117174479066  11.322265625 0.67529296875  C 11.516357422005209 0.8693847657552094  11.516357422005209 1.1843261720052094  11.322265625 1.37841796875  L 6.703125 5.996337890494791  L 11.322265625 10.615478515755209  C 11.516357422005209 10.80957031276042  11.516357422005209 11.12451171901042  11.322265625 11.31860351549479  C 11.224609374869791 11.4150390625  11.09765625 11.4638671875  10.970703125 11.4638671875  C 10.84375 11.4638671875  10.716796874869791 11.4150390625  10.619140625 11.31860351549479  L 6.001220703255209 6.699462890755209  L 1.3820800779947915 11.3173828125  C 1.2844238278645832 11.413818359505209  1.1574707029947917 11.46264648450521  1.0305175782552085 11.46264648450521  C 0.9035644532552084 11.46264648450521  0.776611328125 11.413818359505209  0.6789550782552084 11.3173828125  Z " fill-rule="evenodd" />
    </mask>
  </defs>
  <g transform="matrix(1 0 0 1 -754 -1730 )">
    <path d="M 0.6789550782552084 11.3173828125  C 0.48486328125 11.123291015494791  0.48486328125 10.8095703125  0.6789550779947918 10.615478515755209  L 5.296875 5.99755859375  L 0.6789550779947918 1.37841796875  C 0.4848632809895834 1.1843261717447906  0.4848632809895834 0.8693847654947906  0.6789550782552084 0.67529296875  C 0.8730468752604168 0.48120117174479066  1.1879882815104168 0.48120117174479066  1.3820800782552085 0.67529296875  L 6 5.293212890494791  L 10.619140625 0.67529296875  C 10.813232422005209 0.48120117174479066  11.128173828255209 0.48120117174479066  11.322265625 0.67529296875  C 11.516357422005209 0.8693847657552094  11.516357422005209 1.1843261720052094  11.322265625 1.37841796875  L 6.703125 5.996337890494791  L 11.322265625 10.615478515755209  C 11.516357422005209 10.80957031276042  11.516357422005209 11.12451171901042  11.322265625 11.31860351549479  C 11.224609374869791 11.4150390625  11.09765625 11.4638671875  10.970703125 11.4638671875  C 10.84375 11.4638671875  10.716796874869791 11.4150390625  10.619140625 11.31860351549479  L 6.001220703255209 6.699462890755209  L 1.3820800779947915 11.3173828125  C 1.2844238278645832 11.413818359505209  1.1574707029947917 11.46264648450521  1.0305175782552085 11.46264648450521  C 0.9035644532552084 11.46264648450521  0.776611328125 11.413818359505209  0.6789550782552084 11.3173828125  Z " fill-rule="nonzero" fill="rgba(51, 51, 3, 1)" stroke="none" transform="matrix(1 0 0 1 754 1730 )" class="fill" />
    <path d="M 0.6789550782552084 11.3173828125  C 0.48486328125 11.123291015494791  0.48486328125 10.8095703125  0.6789550779947918 10.615478515755209  L 5.296875 5.99755859375  L 0.6789550779947918 1.37841796875  C 0.4848632809895834 1.1843261717447906  0.4848632809895834 0.8693847654947906  0.6789550782552084 0.67529296875  C 0.8730468752604168 0.48120117174479066  1.1879882815104168 0.48120117174479066  1.3820800782552085 0.67529296875  L 6 5.293212890494791  L 10.619140625 0.67529296875  C 10.813232422005209 0.48120117174479066  11.128173828255209 0.48120117174479066  11.322265625 0.67529296875  C 11.516357422005209 0.8693847657552094  11.516357422005209 1.1843261720052094  11.322265625 1.37841796875  L 6.703125 5.996337890494791  L 11.322265625 10.615478515755209  C 11.516357422005209 10.80957031276042  11.516357422005209 11.12451171901042  11.322265625 11.31860351549479  C 11.224609374869791 11.4150390625  11.09765625 11.4638671875  10.970703125 11.4638671875  C 10.84375 11.4638671875  10.716796874869791 11.4150390625  10.619140625 11.31860351549479  L 6.001220703255209 6.699462890755209  L 1.3820800779947915 11.3173828125  C 1.2844238278645832 11.413818359505209  1.1574707029947917 11.46264648450521  1.0305175782552085 11.46264648450521  C 0.9035644532552084 11.46264648450521  0.776611328125 11.413818359505209  0.6789550782552084 11.3173828125  Z " stroke-width="0" stroke-dasharray="0" stroke="rgba(255, 255, 255, 0)" fill="none" transform="matrix(1 0 0 1 754 1730 )" class="stroke" mask="url(#Clip10465)" />
  </g>
</svg>