<?xml version="1.0" encoding="utf-8"?>
<svg version="1.1" xmlns:xlink="http://www.w3.org/1999/xlink" width="330px" height="85px" xmlns="http://www.w3.org/2000/svg">
  <defs>
    <linearGradient gradientUnits="userSpaceOnUse" x1="0" y1="3.774758283725532E-14" x2="330" y2="85.00000000000004" id="LinearGradient4877">
      <stop id="Stop4878" stop-color="#8800f2" offset="0" />
      <stop id="Stop4879" stop-color="#5800aa" offset="1" />
    </linearGradient>
    <pattern id="BGPattern" patternUnits="userSpaceOnUse" alignment="0 0" imageRepeat="None" />
    <mask fill="white" id="Clip4880">
      <path d="M 0 75  L 0 10  C 0 4.3999999999999995  4.3999999999999995 0  10 0  L 320 0  C 325.6 0  330 4.3999999999999995  330 10  L 330 75  C 330 80.6  325.6 85  320 85  L 10 85  C 4.3999999999999995 85  0 80.6  0 75  Z " fill-rule="evenodd" />
    </mask>
  </defs>
  <g transform="matrix(1 0 0 1 -15 -94 )">
    <path d="M 0 75  L 0 10  C 0 4.3999999999999995  4.3999999999999995 0  10 0  L 320 0  C 325.6 0  330 4.3999999999999995  330 10  L 330 75  C 330 80.6  325.6 85  320 85  L 10 85  C 4.3999999999999995 85  0 80.6  0 75  Z " fill-rule="nonzero" fill="url(#LinearGradient4877)" stroke="none" transform="matrix(1 0 0 1 15 94 )" class="fill" />
    <path d="M 0 75  L 0 10  C 0 4.3999999999999995  4.3999999999999995 0  10 0  L 320 0  C 325.6 0  330 4.3999999999999995  330 10  L 330 75  C 330 80.6  325.6 85  320 85  L 10 85  C 4.3999999999999995 85  0 80.6  0 75  Z " stroke-width="0" stroke-dasharray="0" stroke="rgba(121, 121, 121, 1)" fill="none" transform="matrix(1 0 0 1 15 94 )" class="stroke" mask="url(#Clip4880)" />
  </g>
</svg>