<?xml version="1.0" encoding="utf-8"?>
<svg version="1.1" xmlns:xlink="http://www.w3.org/1999/xlink" width="15px" height="9px" xmlns="http://www.w3.org/2000/svg">
  <defs>
    <pattern id="BGPattern" patternUnits="userSpaceOnUse" alignment="0 0" imageRepeat="None" />
    <mask fill="white" id="Clip2147">
      <path d="M 1.5978000000000012 1.4022000000000001  L 7.5 7.3044  L 13.4022 1.4022000000000001  C 13.50770311965817 1.29669688034183  13.650796057306746 1.2374258448879827  13.800000000000002 1.2374258448879827  C 14.110701126517313 1.2374258448879827  14.362574155112018 1.4892988734826904  14.362574155112018 1.8000000000000003  C 14.362574155112018 1.949203942693257  14.303303119658173 2.0922968803418303  14.197800000000003 2.1978000000000004  L 7.960800000000001 8.434800000000001  C 7.7060143120884685 8.689434255097021  7.293085687911534 8.689434255097021  7.038300000000001 8.434800000000001  L 0.8022000000000012 2.1978000000000004  C 0.6966968803418307 2.0922968803418303  0.6374258448879841 1.949203942693257  0.6374258448879841 1.8000000000000003  C 0.6374258448879841 1.4892988734826904  0.8892988734826909 1.2374258448879827  1.2000000000000015 1.2374258448879827  C 1.3492039426932578 1.2374258448879827  1.4922968803418304 1.29669688034183  1.5978000000000012 1.4022000000000001  Z " fill-rule="evenodd" />
    </mask>
  </defs>
  <g transform="matrix(1 0 0 1 -72 -71 )">
    <path d="M 1.5978000000000012 1.4022000000000001  L 7.5 7.3044  L 13.4022 1.4022000000000001  C 13.50770311965817 1.29669688034183  13.650796057306746 1.2374258448879827  13.800000000000002 1.2374258448879827  C 14.110701126517313 1.2374258448879827  14.362574155112018 1.4892988734826904  14.362574155112018 1.8000000000000003  C 14.362574155112018 1.949203942693257  14.303303119658173 2.0922968803418303  14.197800000000003 2.1978000000000004  L 7.960800000000001 8.434800000000001  C 7.7060143120884685 8.689434255097021  7.293085687911534 8.689434255097021  7.038300000000001 8.434800000000001  L 0.8022000000000012 2.1978000000000004  C 0.6966968803418307 2.0922968803418303  0.6374258448879841 1.949203942693257  0.6374258448879841 1.8000000000000003  C 0.6374258448879841 1.4892988734826904  0.8892988734826909 1.2374258448879827  1.2000000000000015 1.2374258448879827  C 1.3492039426932578 1.2374258448879827  1.4922968803418304 1.29669688034183  1.5978000000000012 1.4022000000000001  Z " fill-rule="nonzero" fill="rgba(85, 85, 85, 1)" stroke="none" transform="matrix(1 0 0 1 72 71 )" class="fill" />
    <path d="M 1.5978000000000012 1.4022000000000001  L 7.5 7.3044  L 13.4022 1.4022000000000001  C 13.50770311965817 1.29669688034183  13.650796057306746 1.2374258448879827  13.800000000000002 1.2374258448879827  C 14.110701126517313 1.2374258448879827  14.362574155112018 1.4892988734826904  14.362574155112018 1.8000000000000003  C 14.362574155112018 1.949203942693257  14.303303119658173 2.0922968803418303  14.197800000000003 2.1978000000000004  L 7.960800000000001 8.434800000000001  C 7.7060143120884685 8.689434255097021  7.293085687911534 8.689434255097021  7.038300000000001 8.434800000000001  L 0.8022000000000012 2.1978000000000004  C 0.6966968803418307 2.0922968803418303  0.6374258448879841 1.949203942693257  0.6374258448879841 1.8000000000000003  C 0.6374258448879841 1.4892988734826904  0.8892988734826909 1.2374258448879827  1.2000000000000015 1.2374258448879827  C 1.3492039426932578 1.2374258448879827  1.4922968803418304 1.29669688034183  1.5978000000000012 1.4022000000000001  Z " stroke-width="0" stroke-dasharray="0" stroke="rgba(255, 255, 255, 0)" fill="none" transform="matrix(1 0 0 1 72 71 )" class="stroke" mask="url(#Clip2147)" />
  </g>
</svg>