<?xml version="1.0" encoding="utf-8"?>
<svg version="1.1" xmlns:xlink="http://www.w3.org/1999/xlink" width="18px" height="18px" xmlns="http://www.w3.org/2000/svg">
  <defs>
    <pattern id="BGPattern" patternUnits="userSpaceOnUse" alignment="0 0" imageRepeat="None" />
    <mask fill="white" id="Clip14994">
      <path d="M 0.5625 9  C 0.5625 4.340078125000001  4.340078125 0.5625  9 0.5625  C 13.659921874999998 0.5625  17.4375 4.340078125000001  17.4375 9  C 17.4375 13.659921874999998  13.659921874999998 17.4375  9 17.4375  C 4.340078125000001 17.4375  0.5625 13.659921874999998  0.5625 9  Z M 16.1875 9  C 16.1875 5.03046875  12.96953125 1.8125  9 1.8125  C 5.03046875 1.8125  1.8125 5.03046875  1.8125 9  C 1.8125 12.96953125  5.03046875 16.1875  9 16.1875  C 12.96953125 16.1875  16.1875 12.96953125  16.1875 9  Z " fill-rule="evenodd" />
    </mask>
  </defs>
  <g transform="matrix(1 0 0 1 351 -67 )">
    <path d="M 0.5625 9  C 0.5625 4.340078125000001  4.340078125 0.5625  9 0.5625  C 13.659921874999998 0.5625  17.4375 4.340078125000001  17.4375 9  C 17.4375 13.659921874999998  13.659921874999998 17.4375  9 17.4375  C 4.340078125000001 17.4375  0.5625 13.659921874999998  0.5625 9  Z M 16.1875 9  C 16.1875 5.03046875  12.96953125 1.8125  9 1.8125  C 5.03046875 1.8125  1.8125 5.03046875  1.8125 9  C 1.8125 12.96953125  5.03046875 16.1875  9 16.1875  C 12.96953125 16.1875  16.1875 12.96953125  16.1875 9  Z " fill-rule="nonzero" fill="rgba(255, 255, 255, 1)" stroke="none" transform="matrix(1 0 0 1 -351 67 )" class="fill" />
    <path d="M 0.5625 9  C 0.5625 4.340078125000001  4.340078125 0.5625  9 0.5625  C 13.659921874999998 0.5625  17.4375 4.340078125000001  17.4375 9  C 17.4375 13.659921874999998  13.659921874999998 17.4375  9 17.4375  C 4.340078125000001 17.4375  0.5625 13.659921874999998  0.5625 9  Z " stroke-width="0" stroke-dasharray="0" stroke="rgba(255, 255, 255, 0)" fill="none" transform="matrix(1 0 0 1 -351 67 )" class="stroke" mask="url(#Clip14994)" />
    <path d="M 16.1875 9  C 16.1875 5.03046875  12.96953125 1.8125  9 1.8125  C 5.03046875 1.8125  1.8125 5.03046875  1.8125 9  C 1.8125 12.96953125  5.03046875 16.1875  9 16.1875  C 12.96953125 16.1875  16.1875 12.96953125  16.1875 9  Z " stroke-width="0" stroke-dasharray="0" stroke="rgba(255, 255, 255, 0)" fill="none" transform="matrix(1 0 0 1 -351 67 )" class="stroke" mask="url(#Clip14994)" />
  </g>
</svg>