<?xml version="1.0" encoding="utf-8"?>
<svg version="1.1" xmlns:xlink="http://www.w3.org/1999/xlink" width="8px" height="12px" xmlns="http://www.w3.org/2000/svg">
  <defs>
    <pattern id="BGPattern" patternUnits="userSpaceOnUse" alignment="0 0" imageRepeat="None" />
    <mask fill="white" id="Clip10905">
      <path d="M 3.2343750000000036 8.307812500000004  L 4.739062500000001 8.307812499999999  L 4.739062500000001 8.06875  C 4.739062500000001 7.731249999999999  4.809375000000001 7.421875  4.964062500000001 7.140625  C 5.090625000000001 6.887499999999999  5.2875 6.634375  5.5546875 6.409375000000001  C 6.215625000000001 5.832812500000001  6.609375 5.467187500000001  6.7359375 5.312500000000002  C 7.0875 4.862500000000001  7.270312500000001 4.285937500000001  7.270312500000001 3.5968750000000007  C 7.270312500000001 2.7531250000000007  6.989062500000001 2.078125000000001  6.426562499999999 1.5859375000000009  C 5.864062500000001 1.0796875000000004  5.1328125 0.8406250000000011  4.232812500000001 0.8406250000000011  C 3.192187500000003 0.8406250000000011  2.3765625000000004 1.1359375000000007  1.785937500000002 1.7406250000000014  C 1.1953125000000018 2.3312500000000016  0.9000000000000021 3.132812500000001  0.9000000000000021 4.1593750000000025  L 2.376562500000002 4.1593750000000025  C 2.376562500000002 3.540625000000002  2.5031250000000025 3.0625000000000027  2.7562500000000014 2.7250000000000023  C 3.0375000000000014 2.317187500000002  3.501562500000002 2.1203125000000025  4.134375000000002 2.1203125000000025  C 4.640625000000002 2.1203125000000025  5.048437500000002 2.2609375000000025  5.329687500000002 2.5421875000000025  C 5.5968750000000025 2.8234375000000025  5.7375000000000025 3.2031250000000036  5.7375000000000025 3.6953125000000036  C 5.7375000000000025 4.060937500000003  5.5968750000000025 4.3984375000000036  5.3437500000000036 4.721875000000004  L 5.104687500000004 4.989062500000003  C 4.232812500000003 5.762500000000005  3.6984375000000043 6.3390625000000025  3.5156250000000036 6.732812500000005  C 3.318750000000003 7.098437500000005  3.2343750000000036 7.548437500000004  3.2343750000000036 8.068750000000003  L 3.2343750000000036 8.307812500000004  Z M 3.2484375000000014 10.782812500000002  C 3.4453125 10.979687500000002  3.6984375000000007 11.078125000000002  3.979687499999999 11.078125  C 4.260937500000001 11.078125  4.514062499999998 10.9796875  4.7109375 10.796875  C 4.9078125 10.6  5.020312499999999 10.360937499999999  5.020312499999999 10.065625  C 5.020312499999999 9.770312500000001  4.921875 9.531250000000002  4.725 9.348437500000001  C 4.528124999999999 9.1515625  4.275 9.067187500000001  3.9796875000000007 9.067187500000001  C 3.6984375000000007 9.067187500000001  3.4453125 9.151562500000002  3.2484375000000014 9.348437500000001  C 3.051562500000001 9.531250000000002  2.953125 9.770312500000001  2.953125 10.065625  C 2.953125 10.346875  3.051562500000001 10.585937500000002  3.2484375000000014 10.782812500000002  Z " fill-rule="evenodd" />
    </mask>
  </defs>
  <g transform="matrix(1 0 0 1 346 -70 )">
    <path d="M 3.2343750000000036 8.307812500000004  L 4.739062500000001 8.307812499999999  L 4.739062500000001 8.06875  C 4.739062500000001 7.731249999999999  4.809375000000001 7.421875  4.964062500000001 7.140625  C 5.090625000000001 6.887499999999999  5.2875 6.634375  5.5546875 6.409375000000001  C 6.215625000000001 5.832812500000001  6.609375 5.467187500000001  6.7359375 5.312500000000002  C 7.0875 4.862500000000001  7.270312500000001 4.285937500000001  7.270312500000001 3.5968750000000007  C 7.270312500000001 2.7531250000000007  6.989062500000001 2.078125000000001  6.426562499999999 1.5859375000000009  C 5.864062500000001 1.0796875000000004  5.1328125 0.8406250000000011  4.232812500000001 0.8406250000000011  C 3.192187500000003 0.8406250000000011  2.3765625000000004 1.1359375000000007  1.785937500000002 1.7406250000000014  C 1.1953125000000018 2.3312500000000016  0.9000000000000021 3.132812500000001  0.9000000000000021 4.1593750000000025  L 2.376562500000002 4.1593750000000025  C 2.376562500000002 3.540625000000002  2.5031250000000025 3.0625000000000027  2.7562500000000014 2.7250000000000023  C 3.0375000000000014 2.317187500000002  3.501562500000002 2.1203125000000025  4.134375000000002 2.1203125000000025  C 4.640625000000002 2.1203125000000025  5.048437500000002 2.2609375000000025  5.329687500000002 2.5421875000000025  C 5.5968750000000025 2.8234375000000025  5.7375000000000025 3.2031250000000036  5.7375000000000025 3.6953125000000036  C 5.7375000000000025 4.060937500000003  5.5968750000000025 4.3984375000000036  5.3437500000000036 4.721875000000004  L 5.104687500000004 4.989062500000003  C 4.232812500000003 5.762500000000005  3.6984375000000043 6.3390625000000025  3.5156250000000036 6.732812500000005  C 3.318750000000003 7.098437500000005  3.2343750000000036 7.548437500000004  3.2343750000000036 8.068750000000003  L 3.2343750000000036 8.307812500000004  Z M 3.2484375000000014 10.782812500000002  C 3.4453125 10.979687500000002  3.6984375000000007 11.078125000000002  3.979687499999999 11.078125  C 4.260937500000001 11.078125  4.514062499999998 10.9796875  4.7109375 10.796875  C 4.9078125 10.6  5.020312499999999 10.360937499999999  5.020312499999999 10.065625  C 5.020312499999999 9.770312500000001  4.921875 9.531250000000002  4.725 9.348437500000001  C 4.528124999999999 9.1515625  4.275 9.067187500000001  3.9796875000000007 9.067187500000001  C 3.6984375000000007 9.067187500000001  3.4453125 9.151562500000002  3.2484375000000014 9.348437500000001  C 3.051562500000001 9.531250000000002  2.953125 9.770312500000001  2.953125 10.065625  C 2.953125 10.346875  3.051562500000001 10.585937500000002  3.2484375000000014 10.782812500000002  Z " fill-rule="nonzero" fill="rgba(255, 255, 255, 1)" stroke="none" transform="matrix(1 0 0 1 -346 70 )" class="fill" />
    <path d="M 3.2343750000000036 8.307812500000004  L 4.739062500000001 8.307812499999999  L 4.739062500000001 8.06875  C 4.739062500000001 7.731249999999999  4.809375000000001 7.421875  4.964062500000001 7.140625  C 5.090625000000001 6.887499999999999  5.2875 6.634375  5.5546875 6.409375000000001  C 6.215625000000001 5.832812500000001  6.609375 5.467187500000001  6.7359375 5.312500000000002  C 7.0875 4.862500000000001  7.270312500000001 4.285937500000001  7.270312500000001 3.5968750000000007  C 7.270312500000001 2.7531250000000007  6.989062500000001 2.078125000000001  6.426562499999999 1.5859375000000009  C 5.864062500000001 1.0796875000000004  5.1328125 0.8406250000000011  4.232812500000001 0.8406250000000011  C 3.192187500000003 0.8406250000000011  2.3765625000000004 1.1359375000000007  1.785937500000002 1.7406250000000014  C 1.1953125000000018 2.3312500000000016  0.9000000000000021 3.132812500000001  0.9000000000000021 4.1593750000000025  L 2.376562500000002 4.1593750000000025  C 2.376562500000002 3.540625000000002  2.5031250000000025 3.0625000000000027  2.7562500000000014 2.7250000000000023  C 3.0375000000000014 2.317187500000002  3.501562500000002 2.1203125000000025  4.134375000000002 2.1203125000000025  C 4.640625000000002 2.1203125000000025  5.048437500000002 2.2609375000000025  5.329687500000002 2.5421875000000025  C 5.5968750000000025 2.8234375000000025  5.7375000000000025 3.2031250000000036  5.7375000000000025 3.6953125000000036  C 5.7375000000000025 4.060937500000003  5.5968750000000025 4.3984375000000036  5.3437500000000036 4.721875000000004  L 5.104687500000004 4.989062500000003  C 4.232812500000003 5.762500000000005  3.6984375000000043 6.3390625000000025  3.5156250000000036 6.732812500000005  C 3.318750000000003 7.098437500000005  3.2343750000000036 7.548437500000004  3.2343750000000036 8.068750000000003  L 3.2343750000000036 8.307812500000004  Z " stroke-width="0" stroke-dasharray="0" stroke="rgba(255, 255, 255, 0)" fill="none" transform="matrix(1 0 0 1 -346 70 )" class="stroke" mask="url(#Clip10905)" />
    <path d="M 3.2484375000000014 10.782812500000002  C 3.4453125 10.979687500000002  3.6984375000000007 11.078125000000002  3.979687499999999 11.078125  C 4.260937500000001 11.078125  4.514062499999998 10.9796875  4.7109375 10.796875  C 4.9078125 10.6  5.020312499999999 10.360937499999999  5.020312499999999 10.065625  C 5.020312499999999 9.770312500000001  4.921875 9.531250000000002  4.725 9.348437500000001  C 4.528124999999999 9.1515625  4.275 9.067187500000001  3.9796875000000007 9.067187500000001  C 3.6984375000000007 9.067187500000001  3.4453125 9.151562500000002  3.2484375000000014 9.348437500000001  C 3.051562500000001 9.531250000000002  2.953125 9.770312500000001  2.953125 10.065625  C 2.953125 10.346875  3.051562500000001 10.585937500000002  3.2484375000000014 10.782812500000002  Z " stroke-width="0" stroke-dasharray="0" stroke="rgba(255, 255, 255, 0)" fill="none" transform="matrix(1 0 0 1 -346 70 )" class="stroke" mask="url(#Clip10905)" />
  </g>
</svg>