<?xml version="1.0" encoding="utf-8"?>
<svg version="1.1" xmlns:xlink="http://www.w3.org/1999/xlink" width="6px" height="10px" xmlns="http://www.w3.org/2000/svg">
  <defs>
    <pattern id="BGPattern" patternUnits="userSpaceOnUse" alignment="0 0" imageRepeat="None" />
    <mask fill="white" id="Clip2159">
      <path d="M 5.4 4.58  C 5.66 4.800000000000001  5.66 5.2  5.42 5.42  C 5.4 5.44  5.4 5.44  5.42 5.42  L 1.38 9.82  C 1.1399999999999997 10.06  0.7399999999999998 10.06  0.49999999999999956 9.82  C 0.2599999999999998 9.58  0.2599999999999998 9.2  0.49999999999999956 8.98  L 4.14 5  L 0.48 1.04  C 0.2400000000000002 0.8  0.2400000000000002 0.42000000000000004  0.48 0.18  C 0.7200000000000002 -0.06  1.12 -0.06  1.3600000000000003 0.18  L 5.4 4.58  Z " fill-rule="evenodd" />
    </mask>
  </defs>
  <g transform="matrix(1 0 0 1 -769 -335 )">
    <path d="M 5.4 4.58  C 5.66 4.800000000000001  5.66 5.2  5.42 5.42  C 5.4 5.44  5.4 5.44  5.42 5.42  L 1.38 9.82  C 1.1399999999999997 10.06  0.7399999999999998 10.06  0.49999999999999956 9.82  C 0.2599999999999998 9.58  0.2599999999999998 9.2  0.49999999999999956 8.98  L 4.14 5  L 0.48 1.04  C 0.2400000000000002 0.8  0.2400000000000002 0.42000000000000004  0.48 0.18  C 0.7200000000000002 -0.06  1.12 -0.06  1.3600000000000003 0.18  L 5.4 4.58  Z " fill-rule="nonzero" fill="rgba(51, 51, 51, 1)" stroke="none" transform="matrix(1 0 0 1 769 335 )" class="fill" />
    <path d="M 5.4 4.58  C 5.66 4.800000000000001  5.66 5.2  5.42 5.42  C 5.4 5.44  5.4 5.44  5.42 5.42  L 1.38 9.82  C 1.1399999999999997 10.06  0.7399999999999998 10.06  0.49999999999999956 9.82  C 0.2599999999999998 9.58  0.2599999999999998 9.2  0.49999999999999956 8.98  L 4.14 5  L 0.48 1.04  C 0.2400000000000002 0.8  0.2400000000000002 0.42000000000000004  0.48 0.18  C 0.7200000000000002 -0.06  1.12 -0.06  1.3600000000000003 0.18  L 5.4 4.58  Z " stroke-width="0" stroke-dasharray="0" stroke="rgba(255, 255, 255, 0)" fill="none" transform="matrix(1 0 0 1 769 335 )" class="stroke" mask="url(#Clip2159)" />
  </g>
</svg>