<?xml version="1.0" encoding="utf-8"?>
<svg version="1.1" xmlns:xlink="http://www.w3.org/1999/xlink" width="15px" height="13px" xmlns="http://www.w3.org/2000/svg">
  <defs>
    <pattern id="BGPattern" patternUnits="userSpaceOnUse" alignment="0 0" imageRepeat="None" />
    <mask fill="white" id="Clip5720">
      <path d="M 2.2687500097656255 8.231250009765624  C 2.2687500097656255 8.749016962731993  1.8490169627319943 9.168750009765624  1.3312500097656255 9.168750009765624  C 0.8134830567992566 9.168750009765624  0.39375000976562546 8.749016962731993  0.39375000976562546 8.231250009765624  L 0.39375000976562546 0.9499999902343754  C 0.39375000976562546 0.43223303726800655  0.8134830567992566 0.012499990234375424  1.3312500097656255 0.012499990234375424  C 1.8490169627319943 0.012499990234375424  2.2687500097656255 0.43223303726800655  2.2687500097656255 0.9499999902343754  L 2.2687500097656255 8.231250009765624  Z M 13.525000000000002 12.818749990234377  L 13.518750009765625 12.79375  C 13.008217872112201 12.793852116437964  12.591460642510299 12.385430031428104  12.581250009765625 11.875  L 12.53125 3.8812500097656244  L 8.156250009765621 3.8812500097656244  L 8.156250009765621 10.568749990234373  C 8.156250009765621 11.086516943200742  7.736516962731991 11.506249990234373  7.218750009765623 11.506249990234373  C 6.700983056799254 11.506249990234373  6.281250009765623 11.086516943200742  6.281250009765623 10.568749990234373  L 6.281250009765623 2.9250000097656246  C 6.281250009765623 2.4072330567992566  6.700983056799254 1.9875000097656246  7.218750009765623 1.9875000097656246  L 13.46875 1.9875000097656246  C 13.98408595690152 1.9874885576574954  14.402814416344224 2.403425485313738  14.40625 2.9187499902343754  L 14.456250009765625 11.875  C 14.456263990853493 11.877090198827581  14.456270981456065 11.879180438568557  14.456270981456065 11.881270684154515  C 14.456270981456065 12.39660670651708  14.040324647085235 12.815325950085413  13.525000000000002 12.818749990234377  Z " fill-rule="evenodd" />
    </mask>
  </defs>
  <g transform="matrix(1 0 0 1 -96 -1067 )">
    <path d="M 2.2687500097656255 8.231250009765624  C 2.2687500097656255 8.749016962731993  1.8490169627319943 9.168750009765624  1.3312500097656255 9.168750009765624  C 0.8134830567992566 9.168750009765624  0.39375000976562546 8.749016962731993  0.39375000976562546 8.231250009765624  L 0.39375000976562546 0.9499999902343754  C 0.39375000976562546 0.43223303726800655  0.8134830567992566 0.012499990234375424  1.3312500097656255 0.012499990234375424  C 1.8490169627319943 0.012499990234375424  2.2687500097656255 0.43223303726800655  2.2687500097656255 0.9499999902343754  L 2.2687500097656255 8.231250009765624  Z M 13.525000000000002 12.818749990234377  L 13.518750009765625 12.79375  C 13.008217872112201 12.793852116437964  12.591460642510299 12.385430031428104  12.581250009765625 11.875  L 12.53125 3.8812500097656244  L 8.156250009765621 3.8812500097656244  L 8.156250009765621 10.568749990234373  C 8.156250009765621 11.086516943200742  7.736516962731991 11.506249990234373  7.218750009765623 11.506249990234373  C 6.700983056799254 11.506249990234373  6.281250009765623 11.086516943200742  6.281250009765623 10.568749990234373  L 6.281250009765623 2.9250000097656246  C 6.281250009765623 2.4072330567992566  6.700983056799254 1.9875000097656246  7.218750009765623 1.9875000097656246  L 13.46875 1.9875000097656246  C 13.98408595690152 1.9874885576574954  14.402814416344224 2.403425485313738  14.40625 2.9187499902343754  L 14.456250009765625 11.875  C 14.456263990853493 11.877090198827581  14.456270981456065 11.879180438568557  14.456270981456065 11.881270684154515  C 14.456270981456065 12.39660670651708  14.040324647085235 12.815325950085413  13.525000000000002 12.818749990234377  Z " fill-rule="nonzero" fill="rgba(252, 69, 93, 1)" stroke="none" transform="matrix(1 0 0 1 96 1067 )" class="fill" />
    <path d="M 2.2687500097656255 8.231250009765624  C 2.2687500097656255 8.749016962731993  1.8490169627319943 9.168750009765624  1.3312500097656255 9.168750009765624  C 0.8134830567992566 9.168750009765624  0.39375000976562546 8.749016962731993  0.39375000976562546 8.231250009765624  L 0.39375000976562546 0.9499999902343754  C 0.39375000976562546 0.43223303726800655  0.8134830567992566 0.012499990234375424  1.3312500097656255 0.012499990234375424  C 1.8490169627319943 0.012499990234375424  2.2687500097656255 0.43223303726800655  2.2687500097656255 0.9499999902343754  L 2.2687500097656255 8.231250009765624  Z " stroke-width="0" stroke-dasharray="0" stroke="rgba(255, 255, 255, 0)" fill="none" transform="matrix(1 0 0 1 96 1067 )" class="stroke" mask="url(#Clip5720)" />
    <path d="M 13.525000000000002 12.818749990234377  L 13.518750009765625 12.79375  C 13.008217872112201 12.793852116437964  12.591460642510299 12.385430031428104  12.581250009765625 11.875  L 12.53125 3.8812500097656244  L 8.156250009765621 3.8812500097656244  L 8.156250009765621 10.568749990234373  C 8.156250009765621 11.086516943200742  7.736516962731991 11.506249990234373  7.218750009765623 11.506249990234373  C 6.700983056799254 11.506249990234373  6.281250009765623 11.086516943200742  6.281250009765623 10.568749990234373  L 6.281250009765623 2.9250000097656246  C 6.281250009765623 2.4072330567992566  6.700983056799254 1.9875000097656246  7.218750009765623 1.9875000097656246  L 13.46875 1.9875000097656246  C 13.98408595690152 1.9874885576574954  14.402814416344224 2.403425485313738  14.40625 2.9187499902343754  L 14.456250009765625 11.875  C 14.456263990853493 11.877090198827581  14.456270981456065 11.879180438568557  14.456270981456065 11.881270684154515  C 14.456270981456065 12.39660670651708  14.040324647085235 12.815325950085413  13.525000000000002 12.818749990234377  Z " stroke-width="0" stroke-dasharray="0" stroke="rgba(255, 255, 255, 0)" fill="none" transform="matrix(1 0 0 1 96 1067 )" class="stroke" mask="url(#Clip5720)" />
  </g>
</svg>