<?xml version="1.0" encoding="utf-8"?>
<svg version="1.1" xmlns:xlink="http://www.w3.org/1999/xlink" width="24px" height="19px" xmlns="http://www.w3.org/2000/svg">
  <defs>
    <pattern id="BGPattern" patternUnits="userSpaceOnUse" alignment="0 0" imageRepeat="None" />
    <mask fill="white" id="Clip6858">
      <path d="M 2.7990234375 0.6570117187499998  L 2.7 0.6570117187499998  C 1.5564893237723636 0.6603103819584604  0.6303103819584615 1.586489323772362  0.6270117187500004 2.7299999999999986  L 0.6270117187499995 2.822988281249998  C 0.6303382738315424 1.6257883166836251  1.6017895545188638 0.6570232454806497  2.798994140625 0.6570117187499971  Z M 16.817988281250003 3.02701171875  C 16.813050966598873 1.8846682082465174  15.88734944431873 0.9603011153633645  14.744999999999997 0.9570117187500005  L 10.530000000000001 0.9570117187500005  L 10.530000000000001 1.1550000000000002  C 10.501061154634327 3.7852074942450393  8.360657194568313 5.902191219259823  5.730290505387153 5.902191219259823  C 4.1835382365202305 5.902191219259823  2.731566058222014 5.1568298309266005  2 3.9000000000000004  L 2 16.817988281250003  C 1.8283260942287098 17.96385896359711  2.7541388128449844 18.89504395370672  3.9000000000000012 19  L 14.745000000000001 19  C 15.88851067622764 18.89670133679154  16.81468961804154 17.97052239497764  16.817988281250003 16.82701171875  L 16.817988281250003 3.02701171875  Z M 11.316005859374998 11.400000000000002  L 11.307011718749997 13.028994140625002  C 11.30701436621897 13.029655069279269  11.307015689957439 13.030316002572583  11.307015689957439 13.030976936529285  C 11.307015689957439 13.304357887695527  11.085396641123682 13.525976936529286  10.81201568995744 13.525976936529286  C 10.68024664429225 13.525976936529286  10.553915831069293 13.473438849282722  10.461005859374996 13.379999999999999  L 9.327011718749997 12.246005859375002  L 8.189999999999996 13.37701171875  C 8.14504599050678 13.421489149419521  8.092122985722352 13.45710906475237  8.033994140624998 13.482011718749998  C 7.973283369467763 13.507816655472318  7.907979010659517 13.521070859228608  7.842011718749998 13.5209765625  C 7.713653038300583 13.51915182612581  7.591023317770155 13.46753263418761  7.499999999999998 13.37701171875  C 7.455632466266426 13.33196780253969  7.4200273186223935 13.279066739145584  7.394999999999998 13.221005859375001  C 7.369338225720716 13.160239413525542  7.356080511074429 13.094956872735331  7.3560058593749975 13.028994140625002  L 7.3560058593749975 11.400000000000002  C 8.54514894132917 12.231218700031445  10.126862777420826 12.231218700031445  11.316005859374998 11.400000000000002  Z M 9.327011718749999 11.543994140625003  L 9.327011718749999 11.528994140624999  C 7.686726011752542 11.528994140624999  6.357011718749998 10.199279847622456  6.357011718749998 8.558994140624998  C 6.357011718749998 6.918708433627543  7.686726011752542 5.588994140624999  9.327011718749999 5.588994140624999  C 10.967297425747454 5.588994140624999  12.297011718749998 6.918708433627543  12.297011718749998 8.558994140624998  C 12.297036971396839 8.56399410084937  12.29704959778065 8.568994116872462  12.29704959778065 8.57399414086655  C 12.29704959778065 10.21427984786401  10.967335304778105 11.543994140866552  9.327049597780649 11.543994140866552  Z M 19.163994140625 3.3000000000000007  L 18 3  C 17.972489259395246 2.993398998558156  17.944296292766214 2.990063979910733  17.916004702696778 2.990063979910733  C 17.71718219275769 2.990063979910733  17.556004702696775 3.151241469971648  17.556004702696775 3.3500639799107343  L 17.556005859375 18.008994140625003  L 17.58298828125 18.008994140625003  C 17.67298828125 17.985000000000003  17.82298828125 17.903994140625002  18.038994140625004 17.36701171875  C 18.081005859375 17.262011718750003  18.13201171875 17.121005859375  18.18298828125 16.952988281250004  L 20.787011718749994 5.8860351562499975  C 21.045285740105296 4.725052595192624  20.321781291476853 3.5722697981027096  19.163994140624997 3.300029296874998  Z M 23.4209765625 9.323994140624999  C 23.833024436404365 8.519353605499743  23.518097537505923 7.532993606232001  22.716005859375 7.116005859374999  L 22.002011718749998 6.747011718749999  C 21.950668991135274 6.720277991392057  21.89363674415265 6.70631932755485  21.835750926741394 6.70631932755485  C 21.669790414869247 6.70631932755485  21.525335489510322 6.81977288602809  21.486005859375 6.981005859374999  L 18.82798828125 17.63701171875  L 18.861005859375 17.63701171875  C 19.04282471887829 17.561214004761666  19.19609536550291 17.429985625042935  19.298994140625002 17.26201171875  C 19.366517154504287 17.172401505729795  19.427673018561755 17.078166457319803  19.482011718749998 16.98  L 23.4209765625 9.323994140624999  Z " fill-rule="evenodd" />
    </mask>
  </defs>
  <g transform="matrix(1 0 0 1 -91 -1484 )">
    <path d="M 2.7990234375 0.6570117187499998  L 2.7 0.6570117187499998  C 1.5564893237723636 0.6603103819584604  0.6303103819584615 1.586489323772362  0.6270117187500004 2.7299999999999986  L 0.6270117187499995 2.822988281249998  C 0.6303382738315424 1.6257883166836251  1.6017895545188638 0.6570232454806497  2.798994140625 0.6570117187499971  Z M 16.817988281250003 3.02701171875  C 16.813050966598873 1.8846682082465174  15.88734944431873 0.9603011153633645  14.744999999999997 0.9570117187500005  L 10.530000000000001 0.9570117187500005  L 10.530000000000001 1.1550000000000002  C 10.501061154634327 3.7852074942450393  8.360657194568313 5.902191219259823  5.730290505387153 5.902191219259823  C 4.1835382365202305 5.902191219259823  2.731566058222014 5.1568298309266005  2 3.9000000000000004  L 2 16.817988281250003  C 1.8283260942287098 17.96385896359711  2.7541388128449844 18.89504395370672  3.9000000000000012 19  L 14.745000000000001 19  C 15.88851067622764 18.89670133679154  16.81468961804154 17.97052239497764  16.817988281250003 16.82701171875  L 16.817988281250003 3.02701171875  Z M 11.316005859374998 11.400000000000002  L 11.307011718749997 13.028994140625002  C 11.30701436621897 13.029655069279269  11.307015689957439 13.030316002572583  11.307015689957439 13.030976936529285  C 11.307015689957439 13.304357887695527  11.085396641123682 13.525976936529286  10.81201568995744 13.525976936529286  C 10.68024664429225 13.525976936529286  10.553915831069293 13.473438849282722  10.461005859374996 13.379999999999999  L 9.327011718749997 12.246005859375002  L 8.189999999999996 13.37701171875  C 8.14504599050678 13.421489149419521  8.092122985722352 13.45710906475237  8.033994140624998 13.482011718749998  C 7.973283369467763 13.507816655472318  7.907979010659517 13.521070859228608  7.842011718749998 13.5209765625  C 7.713653038300583 13.51915182612581  7.591023317770155 13.46753263418761  7.499999999999998 13.37701171875  C 7.455632466266426 13.33196780253969  7.4200273186223935 13.279066739145584  7.394999999999998 13.221005859375001  C 7.369338225720716 13.160239413525542  7.356080511074429 13.094956872735331  7.3560058593749975 13.028994140625002  L 7.3560058593749975 11.400000000000002  C 8.54514894132917 12.231218700031445  10.126862777420826 12.231218700031445  11.316005859374998 11.400000000000002  Z M 9.327011718749999 11.543994140625003  L 9.327011718749999 11.528994140624999  C 7.686726011752542 11.528994140624999  6.357011718749998 10.199279847622456  6.357011718749998 8.558994140624998  C 6.357011718749998 6.918708433627543  7.686726011752542 5.588994140624999  9.327011718749999 5.588994140624999  C 10.967297425747454 5.588994140624999  12.297011718749998 6.918708433627543  12.297011718749998 8.558994140624998  C 12.297036971396839 8.56399410084937  12.29704959778065 8.568994116872462  12.29704959778065 8.57399414086655  C 12.29704959778065 10.21427984786401  10.967335304778105 11.543994140866552  9.327049597780649 11.543994140866552  Z M 19.163994140625 3.3000000000000007  L 18 3  C 17.972489259395246 2.993398998558156  17.944296292766214 2.990063979910733  17.916004702696778 2.990063979910733  C 17.71718219275769 2.990063979910733  17.556004702696775 3.151241469971648  17.556004702696775 3.3500639799107343  L 17.556005859375 18.008994140625003  L 17.58298828125 18.008994140625003  C 17.67298828125 17.985000000000003  17.82298828125 17.903994140625002  18.038994140625004 17.36701171875  C 18.081005859375 17.262011718750003  18.13201171875 17.121005859375  18.18298828125 16.952988281250004  L 20.787011718749994 5.8860351562499975  C 21.045285740105296 4.725052595192624  20.321781291476853 3.5722697981027096  19.163994140624997 3.300029296874998  Z M 23.4209765625 9.323994140624999  C 23.833024436404365 8.519353605499743  23.518097537505923 7.532993606232001  22.716005859375 7.116005859374999  L 22.002011718749998 6.747011718749999  C 21.950668991135274 6.720277991392057  21.89363674415265 6.70631932755485  21.835750926741394 6.70631932755485  C 21.669790414869247 6.70631932755485  21.525335489510322 6.81977288602809  21.486005859375 6.981005859374999  L 18.82798828125 17.63701171875  L 18.861005859375 17.63701171875  C 19.04282471887829 17.561214004761666  19.19609536550291 17.429985625042935  19.298994140625002 17.26201171875  C 19.366517154504287 17.172401505729795  19.427673018561755 17.078166457319803  19.482011718749998 16.98  L 23.4209765625 9.323994140624999  Z " fill-rule="nonzero" fill="rgba(255, 126, 0, 1)" stroke="none" transform="matrix(1 0 0 1 91 1484 )" class="fill" />
    <path d="M 2.7990234375 0.6570117187499998  L 2.7 0.6570117187499998  C 1.5564893237723636 0.6603103819584604  0.6303103819584615 1.586489323772362  0.6270117187500004 2.7299999999999986  L 0.6270117187499995 2.822988281249998  C 0.6303382738315424 1.6257883166836251  1.6017895545188638 0.6570232454806497  2.798994140625 0.6570117187499971  Z " stroke-width="0" stroke-dasharray="0" stroke="rgba(255, 255, 255, 0)" fill="none" transform="matrix(1 0 0 1 91 1484 )" class="stroke" mask="url(#Clip6858)" />
    <path d="M 16.817988281250003 3.02701171875  C 16.813050966598873 1.8846682082465174  15.88734944431873 0.9603011153633645  14.744999999999997 0.9570117187500005  L 10.530000000000001 0.9570117187500005  L 10.530000000000001 1.1550000000000002  C 10.501061154634327 3.7852074942450393  8.360657194568313 5.902191219259823  5.730290505387153 5.902191219259823  C 4.1835382365202305 5.902191219259823  2.731566058222014 5.1568298309266005  2 3.9000000000000004  L 2 16.817988281250003  C 1.8283260942287098 17.96385896359711  2.7541388128449844 18.89504395370672  3.9000000000000012 19  L 14.745000000000001 19  C 15.88851067622764 18.89670133679154  16.81468961804154 17.97052239497764  16.817988281250003 16.82701171875  L 16.817988281250003 3.02701171875  Z " stroke-width="0" stroke-dasharray="0" stroke="rgba(255, 255, 255, 0)" fill="none" transform="matrix(1 0 0 1 91 1484 )" class="stroke" mask="url(#Clip6858)" />
    <path d="M 11.316005859374998 11.400000000000002  L 11.307011718749997 13.028994140625002  C 11.30701436621897 13.029655069279269  11.307015689957439 13.030316002572583  11.307015689957439 13.030976936529285  C 11.307015689957439 13.304357887695527  11.085396641123682 13.525976936529286  10.81201568995744 13.525976936529286  C 10.68024664429225 13.525976936529286  10.553915831069293 13.473438849282722  10.461005859374996 13.379999999999999  L 9.327011718749997 12.246005859375002  L 8.189999999999996 13.37701171875  C 8.14504599050678 13.421489149419521  8.092122985722352 13.45710906475237  8.033994140624998 13.482011718749998  C 7.973283369467763 13.507816655472318  7.907979010659517 13.521070859228608  7.842011718749998 13.5209765625  C 7.713653038300583 13.51915182612581  7.591023317770155 13.46753263418761  7.499999999999998 13.37701171875  C 7.455632466266426 13.33196780253969  7.4200273186223935 13.279066739145584  7.394999999999998 13.221005859375001  C 7.369338225720716 13.160239413525542  7.356080511074429 13.094956872735331  7.3560058593749975 13.028994140625002  L 7.3560058593749975 11.400000000000002  C 8.54514894132917 12.231218700031445  10.126862777420826 12.231218700031445  11.316005859374998 11.400000000000002  Z " stroke-width="0" stroke-dasharray="0" stroke="rgba(255, 255, 255, 0)" fill="none" transform="matrix(1 0 0 1 91 1484 )" class="stroke" mask="url(#Clip6858)" />
    <path d="M 9.327011718749999 11.543994140625003  L 9.327011718749999 11.528994140624999  C 7.686726011752542 11.528994140624999  6.357011718749998 10.199279847622456  6.357011718749998 8.558994140624998  C 6.357011718749998 6.918708433627543  7.686726011752542 5.588994140624999  9.327011718749999 5.588994140624999  C 10.967297425747454 5.588994140624999  12.297011718749998 6.918708433627543  12.297011718749998 8.558994140624998  C 12.297036971396839 8.56399410084937  12.29704959778065 8.568994116872462  12.29704959778065 8.57399414086655  C 12.29704959778065 10.21427984786401  10.967335304778105 11.543994140866552  9.327049597780649 11.543994140866552  Z " stroke-width="0" stroke-dasharray="0" stroke="rgba(255, 255, 255, 0)" fill="none" transform="matrix(1 0 0 1 91 1484 )" class="stroke" mask="url(#Clip6858)" />
    <path d="M 19.163994140625 3.3000000000000007  L 18 3  C 17.972489259395246 2.993398998558156  17.944296292766214 2.990063979910733  17.916004702696778 2.990063979910733  C 17.71718219275769 2.990063979910733  17.556004702696775 3.151241469971648  17.556004702696775 3.3500639799107343  L 17.556005859375 18.008994140625003  L 17.58298828125 18.008994140625003  C 17.67298828125 17.985000000000003  17.82298828125 17.903994140625002  18.038994140625004 17.36701171875  C 18.081005859375 17.262011718750003  18.13201171875 17.121005859375  18.18298828125 16.952988281250004  L 20.787011718749994 5.8860351562499975  C 21.045285740105296 4.725052595192624  20.321781291476853 3.5722697981027096  19.163994140624997 3.300029296874998  Z " stroke-width="0" stroke-dasharray="0" stroke="rgba(255, 255, 255, 0)" fill="none" transform="matrix(1 0 0 1 91 1484 )" class="stroke" mask="url(#Clip6858)" />
    <path d="M 23.4209765625 9.323994140624999  C 23.833024436404365 8.519353605499743  23.518097537505923 7.532993606232001  22.716005859375 7.116005859374999  L 22.002011718749998 6.747011718749999  C 21.950668991135274 6.720277991392057  21.89363674415265 6.70631932755485  21.835750926741394 6.70631932755485  C 21.669790414869247 6.70631932755485  21.525335489510322 6.81977288602809  21.486005859375 6.981005859374999  L 18.82798828125 17.63701171875  L 18.861005859375 17.63701171875  C 19.04282471887829 17.561214004761666  19.19609536550291 17.429985625042935  19.298994140625002 17.26201171875  C 19.366517154504287 17.172401505729795  19.427673018561755 17.078166457319803  19.482011718749998 16.98  L 23.4209765625 9.323994140624999  Z " stroke-width="0" stroke-dasharray="0" stroke="rgba(255, 255, 255, 0)" fill="none" transform="matrix(1 0 0 1 91 1484 )" class="stroke" mask="url(#Clip6858)" />
  </g>
</svg>