<?xml version="1.0" encoding="utf-8"?>
<svg version="1.1" xmlns:xlink="http://www.w3.org/1999/xlink" width="7px" height="7px" xmlns="http://www.w3.org/2000/svg">
  <defs>
    <pattern id="BGPattern" patternUnits="userSpaceOnUse" alignment="0 0" imageRepeat="None" />
    <mask fill="white" id="Clip6859">
      <path d="M 0.35701171874999993 3.571005859374999  C 0.35701171874999993 5.211291566372456  1.686726011752544 6.541005859374998  3.3270117187500006 6.541005859374998  C 4.967297425747457 6.541005859374998  6.297011718750001 5.211291566372456  6.297011718750001 3.571005859374999  C 6.297011718750001 1.9307201523775426  4.967297425747457 0.6010058593750003  3.3270117187500006 0.6010058593750003  C 1.686726011752544 0.6010058593750003  0.35701171874999993 1.9307201523775426  0.35701171874999993 3.571005859374999  Z " fill-rule="evenodd" />
    </mask>
  </defs>
  <g transform="matrix(1 0 0 1 -97 -1489 )">
    <path d="M 0.35701171874999993 3.571005859374999  C 0.35701171874999993 5.211291566372456  1.686726011752544 6.541005859374998  3.3270117187500006 6.541005859374998  C 4.967297425747457 6.541005859374998  6.297011718750001 5.211291566372456  6.297011718750001 3.571005859374999  C 6.297011718750001 1.9307201523775426  4.967297425747457 0.6010058593750003  3.3270117187500006 0.6010058593750003  C 1.686726011752544 0.6010058593750003  0.35701171874999993 1.9307201523775426  0.35701171874999993 3.571005859374999  Z " fill-rule="nonzero" fill="rgba(255, 255, 255, 1)" stroke="none" transform="matrix(1 0 0 1 97 1489 )" class="fill" />
    <path d="M 0.35701171874999993 3.571005859374999  C 0.35701171874999993 5.211291566372456  1.686726011752544 6.541005859374998  3.3270117187500006 6.541005859374998  C 4.967297425747457 6.541005859374998  6.297011718750001 5.211291566372456  6.297011718750001 3.571005859374999  C 6.297011718750001 1.9307201523775426  4.967297425747457 0.6010058593750003  3.3270117187500006 0.6010058593750003  C 1.686726011752544 0.6010058593750003  0.35701171874999993 1.9307201523775426  0.35701171874999993 3.571005859374999  Z " stroke-width="0" stroke-dasharray="0" stroke="rgba(255, 255, 255, 0)" fill="none" transform="matrix(1 0 0 1 97 1489 )" class="stroke" mask="url(#Clip6859)" />
  </g>
</svg>