<?xml version="1.0" encoding="utf-8"?>
<svg version="1.1" xmlns:xlink="http://www.w3.org/1999/xlink" width="24px" height="24px" xmlns="http://www.w3.org/2000/svg">
  <defs>
    <pattern id="BGPattern" patternUnits="userSpaceOnUse" alignment="0 0" imageRepeat="None" />
    <mask fill="white" id="Clip7902">
      <path d="M 0 12.000267656250001  C 0 18.62753683175445  5.372463168245551 24  11.99973234375 24  C 18.627001519254446 24  23.9994646875 18.62753683175445  23.9994646875 12.000267656250001  C 23.9994646875 5.372998480745552  18.62700151925445 0.0005353125000011596  11.99973234375 0.0005353125000011596  C 5.372463168245551 0.0005353125000011596  0 5.372998480745552  0 12.000267656250001  Z " fill-rule="evenodd" />
    </mask>
  </defs>
  <g transform="matrix(1 0 0 1 -246 -1066 )">
    <path d="M 0 12.000267656250001  C 0 18.62753683175445  5.372463168245551 24  11.99973234375 24  C 18.627001519254446 24  23.9994646875 18.62753683175445  23.9994646875 12.000267656250001  C 23.9994646875 5.372998480745552  18.62700151925445 0.0005353125000011596  11.99973234375 0.0005353125000011596  C 5.372463168245551 0.0005353125000011596  0 5.372998480745552  0 12.000267656250001  Z " fill-rule="nonzero" fill="rgba(110, 94, 68, 1)" stroke="none" transform="matrix(1 0 0 1 246 1066 )" class="fill" />
    <path d="M 0 12.000267656250001  C 0 18.62753683175445  5.372463168245551 24  11.99973234375 24  C 18.627001519254446 24  23.9994646875 18.62753683175445  23.9994646875 12.000267656250001  C 23.9994646875 5.372998480745552  18.62700151925445 0.0005353125000011596  11.99973234375 0.0005353125000011596  C 5.372463168245551 0.0005353125000011596  0 5.372998480745552  0 12.000267656250001  Z " stroke-width="0" stroke-dasharray="0" stroke="rgba(255, 255, 255, 0)" fill="none" transform="matrix(1 0 0 1 246 1066 )" class="stroke" mask="url(#Clip7902)" />
  </g>
</svg>