<?xml version="1.0" encoding="utf-8"?>
<svg version="1.1" xmlns:xlink="http://www.w3.org/1999/xlink" width="11px" height="11px" xmlns="http://www.w3.org/2000/svg">
  <defs>
    <pattern id="BGPattern" patternUnits="userSpaceOnUse" alignment="0 0" imageRepeat="None" />
    <mask fill="white" id="Clip7913">
      <path d="M 0.453125 10.287500000000001  L 10.287500000000001 0.453125  L 5.7265625 0.453125  C 5.2718750000000005 0.453125  4.828906249999999 0.51171875  4.407031249999999 0.6218750000000002  L 0.6218750000000002 4.407031249999999  C 0.51171875 4.828906249999999  0.453125 5.271875  0.453125 5.7265625  L 0.453125 10.287500000000001  Z " fill-rule="evenodd" />
    </mask>
  </defs>
  <g transform="matrix(1 0 0 1 -92 -1343 )">
    <path d="M 0.453125 10.287500000000001  L 10.287500000000001 0.453125  L 5.7265625 0.453125  C 5.2718750000000005 0.453125  4.828906249999999 0.51171875  4.407031249999999 0.6218750000000002  L 0.6218750000000002 4.407031249999999  C 0.51171875 4.828906249999999  0.453125 5.271875  0.453125 5.7265625  L 0.453125 10.287500000000001  Z " fill-rule="nonzero" fill="rgba(255, 103, 100, 1)" stroke="none" transform="matrix(1 0 0 1 92 1343 )" class="fill" />
    <path d="M 0.453125 10.287500000000001  L 10.287500000000001 0.453125  L 5.7265625 0.453125  C 5.2718750000000005 0.453125  4.828906249999999 0.51171875  4.407031249999999 0.6218750000000002  L 0.6218750000000002 4.407031249999999  C 0.51171875 4.828906249999999  0.453125 5.271875  0.453125 5.7265625  L 0.453125 10.287500000000001  Z " stroke-width="0" stroke-dasharray="0" stroke="rgba(255, 255, 255, 0)" fill="none" transform="matrix(1 0 0 1 92 1343 )" class="stroke" mask="url(#Clip7913)" />
  </g>
</svg>