<?xml version="1.0" encoding="utf-8"?>
<svg version="1.1" xmlns:xlink="http://www.w3.org/1999/xlink" width="8px" height="11px" xmlns="http://www.w3.org/2000/svg">
  <defs>
    <pattern id="BGPattern" patternUnits="userSpaceOnUse" alignment="0 0" imageRepeat="None" />
    <mask fill="white" id="Clip8985">
      <path d="M 6.806250009997115 10.818770833696576  C 6.804166652714601 10.818770833696576  6.802083301219254 10.81876388909247  6.799999990234374 10.818749999999998  C 6.282233037268005 10.818749999999998  5.862499990234374 10.399016952966367  5.862499990234374 9.881249999999998  L 5.862499990234374 2.381249999999998  L 2.793750009765624 2.381249999999998  L 2.793750009765624 9.174999990234372  C 2.793750009765624 9.692766943200741  2.374016962731993 10.112499990234372  1.856250009765624 10.112499990234372  C 1.3384830567992552 10.112499990234372  0.918750009765624 9.692766943200741  0.918750009765624 9.174999990234372  L 0.918750009765624 1.418750009765624  C 0.918750009765624 0.9009830567992552  1.3384830567992552 0.48125000976562404  1.856250009765624 0.48125000976562404  L 6.806250009765625 0.48125000976562404  C 7.324016962731994 0.48125000976562404  7.743750009765625 0.9009830567992552  7.743750009765625 1.418750009765624  L 7.743750009765625 9.881249999999998  C 7.743750009997115 10.39903778666294  7.3240169629634835 10.818770833696576  6.806250009997115 10.818770833696576  Z " fill-rule="evenodd" />
    </mask>
  </defs>
  <g transform="matrix(1 0 0 1 -93 -1077 )">
    <path d="M 6.806250009997115 10.818770833696576  C 6.804166652714601 10.818770833696576  6.802083301219254 10.81876388909247  6.799999990234374 10.818749999999998  C 6.282233037268005 10.818749999999998  5.862499990234374 10.399016952966367  5.862499990234374 9.881249999999998  L 5.862499990234374 2.381249999999998  L 2.793750009765624 2.381249999999998  L 2.793750009765624 9.174999990234372  C 2.793750009765624 9.692766943200741  2.374016962731993 10.112499990234372  1.856250009765624 10.112499990234372  C 1.3384830567992552 10.112499990234372  0.918750009765624 9.692766943200741  0.918750009765624 9.174999990234372  L 0.918750009765624 1.418750009765624  C 0.918750009765624 0.9009830567992552  1.3384830567992552 0.48125000976562404  1.856250009765624 0.48125000976562404  L 6.806250009765625 0.48125000976562404  C 7.324016962731994 0.48125000976562404  7.743750009765625 0.9009830567992552  7.743750009765625 1.418750009765624  L 7.743750009765625 9.881249999999998  C 7.743750009997115 10.39903778666294  7.3240169629634835 10.818770833696576  6.806250009997115 10.818770833696576  Z " fill-rule="nonzero" fill="rgba(252, 69, 93, 1)" stroke="none" transform="matrix(1 0 0 1 93 1077 )" class="fill" />
    <path d="M 6.806250009997115 10.818770833696576  C 6.804166652714601 10.818770833696576  6.802083301219254 10.81876388909247  6.799999990234374 10.818749999999998  C 6.282233037268005 10.818749999999998  5.862499990234374 10.399016952966367  5.862499990234374 9.881249999999998  L 5.862499990234374 2.381249999999998  L 2.793750009765624 2.381249999999998  L 2.793750009765624 9.174999990234372  C 2.793750009765624 9.692766943200741  2.374016962731993 10.112499990234372  1.856250009765624 10.112499990234372  C 1.3384830567992552 10.112499990234372  0.918750009765624 9.692766943200741  0.918750009765624 9.174999990234372  L 0.918750009765624 1.418750009765624  C 0.918750009765624 0.9009830567992552  1.3384830567992552 0.48125000976562404  1.856250009765624 0.48125000976562404  L 6.806250009765625 0.48125000976562404  C 7.324016962731994 0.48125000976562404  7.743750009765625 0.9009830567992552  7.743750009765625 1.418750009765624  L 7.743750009765625 9.881249999999998  C 7.743750009997115 10.39903778666294  7.3240169629634835 10.818770833696576  6.806250009997115 10.818770833696576  Z " stroke-width="0" stroke-dasharray="0" stroke="rgba(255, 255, 255, 0)" fill="none" transform="matrix(1 0 0 1 93 1077 )" class="stroke" mask="url(#Clip8985)" />
  </g>
</svg>