<?xml version="1.0" encoding="utf-8"?>
<svg version="1.1" xmlns:xlink="http://www.w3.org/1999/xlink" width="12px" height="10px" xmlns="http://www.w3.org/2000/svg">
  <defs>
    <pattern id="BGPattern" patternUnits="userSpaceOnUse" alignment="0 0" imageRepeat="None" />
    <mask fill="white" id="Clip10081">
      <path d="M 0.35157138281250333 7.449401101562501  C 0.35157138281250333 8.4279659921875  1.2541208437500035 9.221845515624999  2.3686570078124998 9.221845515624999  C 3.0522606093750007 9.221845515624999  3.6544955624999993 8.920995695312499  4.019583796875001 8.463832445312498  C 4.4564048906250004 8.920995695312499  5.1796221562500016 9.221845515624999  6.000267656250001 9.221845515624999  C 6.820913156250002 9.221845515624999  7.5435951093749996 8.920995695312499  7.980416203125003 8.463832445312498  C 8.346575062500003 8.920995695312499  8.948810015625002 9.221845515624999  9.631342992187502 9.221845515624999  C 10.744808531250001 9.221845515624999  11.648428617187502 8.428501328125  11.648428617187502 7.448330476562498  C 11.648428617187502 6.576294249999998  10.930029234375002 5.854682945312497  9.986260125000001 5.706934632812498  C 9.88654779476299 5.6909769538908  9.785838948286923 5.682033005794809  9.684874992187503 5.680168632812498  L 9.684874992187503 4.411995624999998  L 8.070349968750001 4.411995624999998  L 8.070349968750001 5.675350749999996  L 6.807530156250003 5.675350749999996  L 6.807530156250003 4.1004394140625  L 5.193005156250003 4.1004394140625  L 5.193005156250003 5.676421375  L 3.9296500312500022 5.676421375  L 3.9296500312500022 4.4125309375  L 2.3151250078125045 4.4125309375  L 2.3151250078125045 5.6812392578125  C 2.2141481536559464 5.682860118376919  2.113421987246456 5.691805604655414  2.0137398750000024 5.7080052578125  C 1.0694354531250028 5.855218257812499  0.35157138281250333 6.5768295625  0.35157138281250333 7.449401101562501  Z M 5.193005156250001 2.9179176015624995  C 5.193005156250001 3.3531327343750004  5.554346132812501 3.706443906249998  6.000267656250001 3.7064439062499996  C 6.445653867187502 3.7064439062499996  6.807530156250003 3.3531327343750004  6.807530156250003 2.9179176015624995  C 6.807530156250003 2.4827024687499986  6.000267656250001 0.9479401328124997  6.000267656250001 0.9479401328124997  C 6.000267656250001 0.9479401328124997  5.193005156250001 2.48216715625  5.193005156250001 2.9179176015624995  Z " fill-rule="evenodd" />
    </mask>
  </defs>
  <g transform="matrix(1 0 0 1 -252 -1071 )">
    <path d="M 0.35157138281250333 7.449401101562501  C 0.35157138281250333 8.4279659921875  1.2541208437500035 9.221845515624999  2.3686570078124998 9.221845515624999  C 3.0522606093750007 9.221845515624999  3.6544955624999993 8.920995695312499  4.019583796875001 8.463832445312498  C 4.4564048906250004 8.920995695312499  5.1796221562500016 9.221845515624999  6.000267656250001 9.221845515624999  C 6.820913156250002 9.221845515624999  7.5435951093749996 8.920995695312499  7.980416203125003 8.463832445312498  C 8.346575062500003 8.920995695312499  8.948810015625002 9.221845515624999  9.631342992187502 9.221845515624999  C 10.744808531250001 9.221845515624999  11.648428617187502 8.428501328125  11.648428617187502 7.448330476562498  C 11.648428617187502 6.576294249999998  10.930029234375002 5.854682945312497  9.986260125000001 5.706934632812498  C 9.88654779476299 5.6909769538908  9.785838948286923 5.682033005794809  9.684874992187503 5.680168632812498  L 9.684874992187503 4.411995624999998  L 8.070349968750001 4.411995624999998  L 8.070349968750001 5.675350749999996  L 6.807530156250003 5.675350749999996  L 6.807530156250003 4.1004394140625  L 5.193005156250003 4.1004394140625  L 5.193005156250003 5.676421375  L 3.9296500312500022 5.676421375  L 3.9296500312500022 4.4125309375  L 2.3151250078125045 4.4125309375  L 2.3151250078125045 5.6812392578125  C 2.2141481536559464 5.682860118376919  2.113421987246456 5.691805604655414  2.0137398750000024 5.7080052578125  C 1.0694354531250028 5.855218257812499  0.35157138281250333 6.5768295625  0.35157138281250333 7.449401101562501  Z M 5.193005156250001 2.9179176015624995  C 5.193005156250001 3.3531327343750004  5.554346132812501 3.706443906249998  6.000267656250001 3.7064439062499996  C 6.445653867187502 3.7064439062499996  6.807530156250003 3.3531327343750004  6.807530156250003 2.9179176015624995  C 6.807530156250003 2.4827024687499986  6.000267656250001 0.9479401328124997  6.000267656250001 0.9479401328124997  C 6.000267656250001 0.9479401328124997  5.193005156250001 2.48216715625  5.193005156250001 2.9179176015624995  Z " fill-rule="nonzero" fill="rgba(254, 228, 170, 1)" stroke="none" transform="matrix(1 0 0 1 252 1071 )" class="fill" />
    <path d="M 0.35157138281250333 7.449401101562501  C 0.35157138281250333 8.4279659921875  1.2541208437500035 9.221845515624999  2.3686570078124998 9.221845515624999  C 3.0522606093750007 9.221845515624999  3.6544955624999993 8.920995695312499  4.019583796875001 8.463832445312498  C 4.4564048906250004 8.920995695312499  5.1796221562500016 9.221845515624999  6.000267656250001 9.221845515624999  C 6.820913156250002 9.221845515624999  7.5435951093749996 8.920995695312499  7.980416203125003 8.463832445312498  C 8.346575062500003 8.920995695312499  8.948810015625002 9.221845515624999  9.631342992187502 9.221845515624999  C 10.744808531250001 9.221845515624999  11.648428617187502 8.428501328125  11.648428617187502 7.448330476562498  C 11.648428617187502 6.576294249999998  10.930029234375002 5.854682945312497  9.986260125000001 5.706934632812498  C 9.88654779476299 5.6909769538908  9.785838948286923 5.682033005794809  9.684874992187503 5.680168632812498  L 9.684874992187503 4.411995624999998  L 8.070349968750001 4.411995624999998  L 8.070349968750001 5.675350749999996  L 6.807530156250003 5.675350749999996  L 6.807530156250003 4.1004394140625  L 5.193005156250003 4.1004394140625  L 5.193005156250003 5.676421375  L 3.9296500312500022 5.676421375  L 3.9296500312500022 4.4125309375  L 2.3151250078125045 4.4125309375  L 2.3151250078125045 5.6812392578125  C 2.2141481536559464 5.682860118376919  2.113421987246456 5.691805604655414  2.0137398750000024 5.7080052578125  C 1.0694354531250028 5.855218257812499  0.35157138281250333 6.5768295625  0.35157138281250333 7.449401101562501  Z " stroke-width="0" stroke-dasharray="0" stroke="rgba(255, 255, 255, 0)" fill="none" transform="matrix(1 0 0 1 252 1071 )" class="stroke" mask="url(#Clip10081)" />
    <path d="M 5.193005156250001 2.9179176015624995  C 5.193005156250001 3.3531327343750004  5.554346132812501 3.706443906249998  6.000267656250001 3.7064439062499996  C 6.445653867187502 3.7064439062499996  6.807530156250003 3.3531327343750004  6.807530156250003 2.9179176015624995  C 6.807530156250003 2.4827024687499986  6.000267656250001 0.9479401328124997  6.000267656250001 0.9479401328124997  C 6.000267656250001 0.9479401328124997  5.193005156250001 2.48216715625  5.193005156250001 2.9179176015624995  Z " stroke-width="0" stroke-dasharray="0" stroke="rgba(255, 255, 255, 0)" fill="none" transform="matrix(1 0 0 1 252 1071 )" class="stroke" mask="url(#Clip10081)" />
  </g>
</svg>