<?xml version="1.0" encoding="utf-8"?>
<svg version="1.1" xmlns:xlink="http://www.w3.org/1999/xlink" width="21px" height="21px" xmlns="http://www.w3.org/2000/svg">
  <defs>
    <pattern id="BGPattern" patternUnits="userSpaceOnUse" alignment="0 0" imageRepeat="None" />
    <mask fill="white" id="Clip12280">
      <path d="M 18.167968749999996 0.32500000000000195  L 0.3250000000000002 18.16796875  C 1.0984374999999997 19.3375  2.32421875 20.1859375  3.749218750000001 20.45546875  L 20.455468749999998 3.7492187500000016  C 20.185937499999998 2.3242187500000018  19.3375 1.098437500000002  18.167968749999996 0.32500000000000195  Z " fill-rule="evenodd" />
    </mask>
  </defs>
  <g transform="matrix(1 0 0 1 -93 -1344 )">
    <path d="M 18.167968749999996 0.32500000000000195  L 0.3250000000000002 18.16796875  C 1.0984374999999997 19.3375  2.32421875 20.1859375  3.749218750000001 20.45546875  L 20.455468749999998 3.7492187500000016  C 20.185937499999998 2.3242187500000018  19.3375 1.098437500000002  18.167968749999996 0.32500000000000195  Z " fill-rule="nonzero" fill="rgba(255, 99, 90, 1)" stroke="none" transform="matrix(1 0 0 1 93 1344 )" class="fill" />
    <path d="M 18.167968749999996 0.32500000000000195  L 0.3250000000000002 18.16796875  C 1.0984374999999997 19.3375  2.32421875 20.1859375  3.749218750000001 20.45546875  L 20.455468749999998 3.7492187500000016  C 20.185937499999998 2.3242187500000018  19.3375 1.098437500000002  18.167968749999996 0.32500000000000195  Z " stroke-width="0" stroke-dasharray="0" stroke="rgba(255, 255, 255, 0)" fill="none" transform="matrix(1 0 0 1 93 1344 )" class="stroke" mask="url(#Clip12280)" />
  </g>
</svg>