<?xml version="1.0" encoding="utf-8"?>
<svg version="1.1" xmlns:xlink="http://www.w3.org/1999/xlink" width="18px" height="10px" xmlns="http://www.w3.org/2000/svg">
  <defs>
    <pattern id="BGPattern" patternUnits="userSpaceOnUse" alignment="0 0" imageRepeat="None" />
    <mask fill="white" id="Clip11213">
      <path d="M 3.75 9.5  L 3.75 0.5  L 0 0.5  L 0 9.5  L 3.75 9.5  Z M 14.25 0.5  L 14.25 9.5  L 18 9.5  L 18 0.5  L 14.25 0.5  Z " fill-rule="evenodd" />
    </mask>
  </defs>
  <g transform="matrix(1 0 0 1 -249 -1350 )">
    <path d="M 3.75 9.5  L 3.75 0.5  L 0 0.5  L 0 9.5  L 3.75 9.5  Z M 14.25 0.5  L 14.25 9.5  L 18 9.5  L 18 0.5  L 14.25 0.5  Z " fill-rule="nonzero" fill="rgba(255, 204, 210, 1)" stroke="none" transform="matrix(1 0 0 1 249 1350 )" class="fill" />
    <path d="M 3.75 9.5  L 3.75 0.5  L 0 0.5  L 0 9.5  L 3.75 9.5  Z " stroke-width="0" stroke-dasharray="0" stroke="rgba(255, 255, 255, 0)" fill="none" transform="matrix(1 0 0 1 249 1350 )" class="stroke" mask="url(#Clip11213)" />
    <path d="M 14.25 0.5  L 14.25 9.5  L 18 9.5  L 18 0.5  L 14.25 0.5  Z " stroke-width="0" stroke-dasharray="0" stroke="rgba(255, 255, 255, 0)" fill="none" transform="matrix(1 0 0 1 249 1350 )" class="stroke" mask="url(#Clip11213)" />
  </g>
</svg>