<?xml version="1.0" encoding="utf-8"?>
<svg version="1.1" xmlns:xlink="http://www.w3.org/1999/xlink" width="20px" height="20px" xmlns="http://www.w3.org/2000/svg">
  <defs>
    <pattern id="BGPattern" patternUnits="userSpaceOnUse" alignment="0 0" imageRepeat="None" />
    <mask fill="white" id="Clip4661">
      <path d="M 19.54861111111111 5.822546304253472  C 19.54861111111111 5.399861111111111  19.207407415364585 5.058657415364584  18.78472222222222 5.058657415364584  L 12.67361111111111 5.058657415364584  L 12.67361111111111 2.361111111111111  C 12.67361111111111 1.93842591796875  12.332407415364584 1.597222222222222  11.909722222222223 1.597222222222222  L 2.170138888888889 1.597222222222222  L 2.170138888888889 0.642361111111111  C 2.1698590646164284 0.5370061898282024  2.0845215879495753 0.4516687131613494  1.9791666666666665 0.4513888888888889  L 0.642361111111111 0.4513888888888889  C 0.5370061898282029 0.4516687131613494  0.4516687131613494 0.5370061898282029  0.4513888888888889 0.642361111111111  L 0.4513888888888889 19.35763888888889  C 0.4513888888888889 19.462546304253472  0.5374536957465277 19.54861111111111  0.642361111111111 19.54861111111111  L 1.9791666666666665 19.54861111111111  C 2.0845215879495735 19.548331286838653  2.1698590646164284 19.462993810171795  2.170138888888889 19.35763888888889  L 2.170138888888889 13.055555555555555  L 8.090277777777779 13.055555555555555  L 8.090277777777779 15.753101859809027  C 8.090277777777779 16.17578705295139  8.431481473524306 16.516990748697918  8.854166666666666 16.516990748697918  L 18.78472222222222 16.516990748697918  C 19.207407415364585 16.516990748697918  19.54861111111111 16.17578705295139  19.54861111111111 15.753101859809027  L 19.54861111111111 5.822546304253472  Z M 10.95486111111111 11.336805555555555  L 2.170138888888889 11.336805555555555  L 2.170138888888889 3.3159722222222223  L 10.95486111111111 3.3159722222222223  L 10.95486111111111 11.336805555555555  Z M 17.82986111111111 6.777407415364584  L 17.82986111111111 14.798240748697918  L 9.809027777777779 14.798240748697918  L 9.809027777777779 13.055555555555555  L 12.48263888888889 13.055555555555555  C 12.587993810171799 13.055275731283096  12.673331286838653 12.96993825461624  12.67361111111111 12.864583333333332  L 12.67361111111111 6.777407415364584  L 17.82986111111111 6.777407415364584  Z " fill-rule="evenodd" />
    </mask>
  </defs>
  <g transform="matrix(1 0 0 1 -26 -305 )">
    <path d="M 19.54861111111111 5.822546304253472  C 19.54861111111111 5.399861111111111  19.207407415364585 5.058657415364584  18.78472222222222 5.058657415364584  L 12.67361111111111 5.058657415364584  L 12.67361111111111 2.361111111111111  C 12.67361111111111 1.93842591796875  12.332407415364584 1.597222222222222  11.909722222222223 1.597222222222222  L 2.170138888888889 1.597222222222222  L 2.170138888888889 0.642361111111111  C 2.1698590646164284 0.5370061898282024  2.0845215879495753 0.4516687131613494  1.9791666666666665 0.4513888888888889  L 0.642361111111111 0.4513888888888889  C 0.5370061898282029 0.4516687131613494  0.4516687131613494 0.5370061898282029  0.4513888888888889 0.642361111111111  L 0.4513888888888889 19.35763888888889  C 0.4513888888888889 19.462546304253472  0.5374536957465277 19.54861111111111  0.642361111111111 19.54861111111111  L 1.9791666666666665 19.54861111111111  C 2.0845215879495735 19.548331286838653  2.1698590646164284 19.462993810171795  2.170138888888889 19.35763888888889  L 2.170138888888889 13.055555555555555  L 8.090277777777779 13.055555555555555  L 8.090277777777779 15.753101859809027  C 8.090277777777779 16.17578705295139  8.431481473524306 16.516990748697918  8.854166666666666 16.516990748697918  L 18.78472222222222 16.516990748697918  C 19.207407415364585 16.516990748697918  19.54861111111111 16.17578705295139  19.54861111111111 15.753101859809027  L 19.54861111111111 5.822546304253472  Z M 10.95486111111111 11.336805555555555  L 2.170138888888889 11.336805555555555  L 2.170138888888889 3.3159722222222223  L 10.95486111111111 3.3159722222222223  L 10.95486111111111 11.336805555555555  Z M 17.82986111111111 6.777407415364584  L 17.82986111111111 14.798240748697918  L 9.809027777777779 14.798240748697918  L 9.809027777777779 13.055555555555555  L 12.48263888888889 13.055555555555555  C 12.587993810171799 13.055275731283096  12.673331286838653 12.96993825461624  12.67361111111111 12.864583333333332  L 12.67361111111111 6.777407415364584  L 17.82986111111111 6.777407415364584  Z " fill-rule="nonzero" fill="rgba(255, 255, 255, 1)" stroke="none" transform="matrix(1 0 0 1 26 305 )" class="fill" />
    <path d="M 19.54861111111111 5.822546304253472  C 19.54861111111111 5.399861111111111  19.207407415364585 5.058657415364584  18.78472222222222 5.058657415364584  L 12.67361111111111 5.058657415364584  L 12.67361111111111 2.361111111111111  C 12.67361111111111 1.93842591796875  12.332407415364584 1.597222222222222  11.909722222222223 1.597222222222222  L 2.170138888888889 1.597222222222222  L 2.170138888888889 0.642361111111111  C 2.1698590646164284 0.5370061898282024  2.0845215879495753 0.4516687131613494  1.9791666666666665 0.4513888888888889  L 0.642361111111111 0.4513888888888889  C 0.5370061898282029 0.4516687131613494  0.4516687131613494 0.5370061898282029  0.4513888888888889 0.642361111111111  L 0.4513888888888889 19.35763888888889  C 0.4513888888888889 19.462546304253472  0.5374536957465277 19.54861111111111  0.642361111111111 19.54861111111111  L 1.9791666666666665 19.54861111111111  C 2.0845215879495735 19.548331286838653  2.1698590646164284 19.462993810171795  2.170138888888889 19.35763888888889  L 2.170138888888889 13.055555555555555  L 8.090277777777779 13.055555555555555  L 8.090277777777779 15.753101859809027  C 8.090277777777779 16.17578705295139  8.431481473524306 16.516990748697918  8.854166666666666 16.516990748697918  L 18.78472222222222 16.516990748697918  C 19.207407415364585 16.516990748697918  19.54861111111111 16.17578705295139  19.54861111111111 15.753101859809027  L 19.54861111111111 5.822546304253472  Z " stroke-width="0" stroke-dasharray="0" stroke="rgba(255, 255, 255, 0)" fill="none" transform="matrix(1 0 0 1 26 305 )" class="stroke" mask="url(#Clip4661)" />
    <path d="M 10.95486111111111 11.336805555555555  L 2.170138888888889 11.336805555555555  L 2.170138888888889 3.3159722222222223  L 10.95486111111111 3.3159722222222223  L 10.95486111111111 11.336805555555555  Z " stroke-width="0" stroke-dasharray="0" stroke="rgba(255, 255, 255, 0)" fill="none" transform="matrix(1 0 0 1 26 305 )" class="stroke" mask="url(#Clip4661)" />
    <path d="M 17.82986111111111 6.777407415364584  L 17.82986111111111 14.798240748697918  L 9.809027777777779 14.798240748697918  L 9.809027777777779 13.055555555555555  L 12.48263888888889 13.055555555555555  C 12.587993810171799 13.055275731283096  12.673331286838653 12.96993825461624  12.67361111111111 12.864583333333332  L 12.67361111111111 6.777407415364584  L 17.82986111111111 6.777407415364584  Z " stroke-width="0" stroke-dasharray="0" stroke="rgba(255, 255, 255, 0)" fill="none" transform="matrix(1 0 0 1 26 305 )" class="stroke" mask="url(#Clip4661)" />
  </g>
</svg>