<?xml version="1.0" encoding="utf-8"?>
<svg version="1.1" xmlns:xlink="http://www.w3.org/1999/xlink" width="40px" height="40px" xmlns="http://www.w3.org/2000/svg">
  <defs>
    <pattern id="BGPattern" patternUnits="userSpaceOnUse" alignment="0 0" imageRepeat="None" />
    <mask fill="white" id="Clip4698">
      <path d="M 33.17613636363636 1.5269886363636396  L 1.5269886363636365 33.176136363636374  C 2.4815340909090917 35.524147727272734  4.348011363636363 37.42045454545455  6.67471590909091 38.41335227272728  L 38.413352272727266 6.674715909090913  C 37.42045454545454 4.3437500000000036  35.52414772727272 2.4815340909090935  33.17613636363636 1.5269886363636396  Z " fill-rule="evenodd" />
    </mask>
  </defs>
  <g transform="matrix(1 0 0 1 -160 -1240 )">
    <path d="M 33.17613636363636 1.5269886363636396  L 1.5269886363636365 33.176136363636374  C 2.4815340909090917 35.524147727272734  4.348011363636363 37.42045454545455  6.67471590909091 38.41335227272728  L 38.413352272727266 6.674715909090913  C 37.42045454545454 4.3437500000000036  35.52414772727272 2.4815340909090935  33.17613636363636 1.5269886363636396  Z " fill-rule="nonzero" fill="rgba(255, 99, 90, 1)" stroke="none" transform="matrix(1 0 0 1 160 1240 )" class="fill" />
    <path d="M 33.17613636363636 1.5269886363636396  L 1.5269886363636365 33.176136363636374  C 2.4815340909090917 35.524147727272734  4.348011363636363 37.42045454545455  6.67471590909091 38.41335227272728  L 38.413352272727266 6.674715909090913  C 37.42045454545454 4.3437500000000036  35.52414772727272 2.4815340909090935  33.17613636363636 1.5269886363636396  Z " stroke-width="0" stroke-dasharray="0" stroke="rgba(255, 255, 255, 0)" fill="none" transform="matrix(1 0 0 1 160 1240 )" class="stroke" mask="url(#Clip4698)" />
  </g>
</svg>