<?xml version="1.0" encoding="utf-8"?>
<svg version="1.1" xmlns:xlink="http://www.w3.org/1999/xlink" width="38px" height="38px" xmlns="http://www.w3.org/2000/svg">
  <defs>
    <pattern id="BGPattern" patternUnits="userSpaceOnUse" alignment="0 0" imageRepeat="None" />
    <mask fill="white" id="Clip5836">
      <path d="M 32.87537202380952 0.5880952380952416  L 0.5880952380952384 32.875372023809526  C 1.987648809523809 34.99166666666667  4.205729166666666 36.52693452380953  6.784300595238097 37.01465773809524  L 37.01465773809523 6.784300595238098  C 36.52693452380952 4.20572916666667  34.99166666666667 1.987648809523813  32.87537202380952 0.5880952380952416  Z " fill-rule="evenodd" />
    </mask>
  </defs>
  <g transform="matrix(1 0 0 1 -162 -1242 )">
    <path d="M 32.87537202380952 0.5880952380952416  L 0.5880952380952384 32.875372023809526  C 1.987648809523809 34.99166666666667  4.205729166666666 36.52693452380953  6.784300595238097 37.01465773809524  L 37.01465773809523 6.784300595238098  C 36.52693452380952 4.20572916666667  34.99166666666667 1.987648809523813  32.87537202380952 0.5880952380952416  Z " fill-rule="nonzero" fill="rgba(255, 99, 90, 1)" stroke="none" transform="matrix(1 0 0 1 162 1242 )" class="fill" />
    <path d="M 32.87537202380952 0.5880952380952416  L 0.5880952380952384 32.875372023809526  C 1.987648809523809 34.99166666666667  4.205729166666666 36.52693452380953  6.784300595238097 37.01465773809524  L 37.01465773809523 6.784300595238098  C 36.52693452380952 4.20572916666667  34.99166666666667 1.987648809523813  32.87537202380952 0.5880952380952416  Z " stroke-width="0" stroke-dasharray="0" stroke="rgba(255, 255, 255, 0)" fill="none" transform="matrix(1 0 0 1 162 1242 )" class="stroke" mask="url(#Clip5836)" />
  </g>
</svg>