<?xml version="1.0" encoding="utf-8"?>
<svg version="1.1" xmlns:xlink="http://www.w3.org/1999/xlink" width="33px" height="33px" xmlns="http://www.w3.org/2000/svg">
  <defs>
    <pattern id="BGPattern" patternUnits="userSpaceOnUse" alignment="0 0" imageRepeat="None" />
    <mask fill="white" id="Clip6919">
      <path d="M 31.58346354166667 0.9940104166666648  C 31.016276041666668 0.8865885416666663  30.431901041666663 0.8307291666666667  29.834635416666668 0.8307291666666667  L 21.275260416666665 0.8307291666666667  L 0.8307291666666667 21.275260416666665  L 0.8307291666666667 29.834635416666668  C 0.8307291666666667 30.431901041666663  0.8865885416666663 31.016276041666668  0.989713541666667 31.58776041666666  L 31.58346354166667 0.9940104166666648  Z " fill-rule="evenodd" />
    </mask>
  </defs>
  <g transform="matrix(1 0 0 1 -160 -1240 )">
    <path d="M 31.58346354166667 0.9940104166666648  C 31.016276041666668 0.8865885416666663  30.431901041666663 0.8307291666666667  29.834635416666668 0.8307291666666667  L 21.275260416666665 0.8307291666666667  L 0.8307291666666667 21.275260416666665  L 0.8307291666666667 29.834635416666668  C 0.8307291666666667 30.431901041666663  0.8865885416666663 31.016276041666668  0.989713541666667 31.58776041666666  L 31.58346354166667 0.9940104166666648  Z " fill-rule="nonzero" fill="rgba(255, 101, 95, 1)" stroke="none" transform="matrix(1 0 0 1 160 1240 )" class="fill" />
    <path d="M 31.58346354166667 0.9940104166666648  C 31.016276041666668 0.8865885416666663  30.431901041666663 0.8307291666666667  29.834635416666668 0.8307291666666667  L 21.275260416666665 0.8307291666666667  L 0.8307291666666667 21.275260416666665  L 0.8307291666666667 29.834635416666668  C 0.8307291666666667 30.431901041666663  0.8865885416666663 31.016276041666668  0.989713541666667 31.58776041666666  L 31.58346354166667 0.9940104166666648  Z " stroke-width="0" stroke-dasharray="0" stroke="rgba(255, 255, 255, 0)" fill="none" transform="matrix(1 0 0 1 160 1240 )" class="stroke" mask="url(#Clip6919)" />
  </g>
</svg>