<?xml version="1.0" encoding="utf-8"?>
<svg version="1.1" xmlns:xlink="http://www.w3.org/1999/xlink" width="18px" height="18px" xmlns="http://www.w3.org/2000/svg">
  <defs>
    <pattern id="BGPattern" patternUnits="userSpaceOnUse" alignment="0 0" imageRepeat="None" />
    <mask fill="white" id="Clip7968">
      <path d="M 16 2.0000000000000004  L 14 2  L 14 2.5000000000000004  C 14 2.7761423749153966  13.776142374915398 3  13.500000000000002 3  C 13.223857625084603 3  13.000000000000002 2.7761423749153966  13 2.5  L 13 2  L 5 2  L 5.000000000000001 2.5000000000000004  C 5.000000000000001 2.7761423749153966  4.7761423749153975 3  4.5 3  C 4.223857625084603 3  4 2.7761423749153966  4 2.5  L 4 2  L 2.000000000000001 2.0000000000000004  C 1.447715250169207 2.0000000000000004  1 2.447715250169207  1 3  L 1 6  L 17 6  L 17 3  C 17 2.4477152501692068  16.552284749830793 2.0000000000000004  16 2.0000000000000004  Z M 14 0.5000000000000002  L 14 0.9999999999999998  L 16 0.9999999999999998  C 17.104569499661586 0.9999999999999998  18 1.8954305003384135  18 3  L 18 16  C 18 17.104569499661586  17.104569499661586 18  16 18  L 2.000000000000001 18  C 0.8954305003384133 18  0 17.104569499661586  0 16  L 0 3  C 0 1.8954305003384135  0.8954305003384133 1  2 1  L 4 1  L 4 0.5000000000000002  C 4 0.22385762508460338  4.223857625084603 0  4.5 0  C 4.7761423749153975 0  5.000000000000001 0.22385762508460338  5.000000000000001 0.5000000000000002  L 5 1  L 13 1  L 13.000000000000002 0.5000000000000002  C 13.000000000000002 0.22385762508460338  13.223857625084603 0  13.500000000000002 0  C 13.776142374915398 0  14 0.22385762508460338  14 0.5000000000000002  Z M 17 7  L 1.0000000000000002 7  L 1.0000000000000002 16  C 1.0000000000000002 16.552284749830793  1.447715250169207 17  2.000000000000001 17  C -3.333333333333333 17  7.3333333333333535 17  2.000000000000001 17  L 16 17  C 16.552284749830797 17.000000000000004  17 16.552284749830797  17 16  L 17 7  Z " fill-rule="evenodd" />
    </mask>
  </defs>
  <g transform="matrix(1 0 0 1 1187 -68 )">
    <path d="M 16 2.0000000000000004  L 14 2  L 14 2.5000000000000004  C 14 2.7761423749153966  13.776142374915398 3  13.500000000000002 3  C 13.223857625084603 3  13.000000000000002 2.7761423749153966  13 2.5  L 13 2  L 5 2  L 5.000000000000001 2.5000000000000004  C 5.000000000000001 2.7761423749153966  4.7761423749153975 3  4.5 3  C 4.223857625084603 3  4 2.7761423749153966  4 2.5  L 4 2  L 2.000000000000001 2.0000000000000004  C 1.447715250169207 2.0000000000000004  1 2.447715250169207  1 3  L 1 6  L 17 6  L 17 3  C 17 2.4477152501692068  16.552284749830793 2.0000000000000004  16 2.0000000000000004  Z M 14 0.5000000000000002  L 14 0.9999999999999998  L 16 0.9999999999999998  C 17.104569499661586 0.9999999999999998  18 1.8954305003384135  18 3  L 18 16  C 18 17.104569499661586  17.104569499661586 18  16 18  L 2.000000000000001 18  C 0.8954305003384133 18  0 17.104569499661586  0 16  L 0 3  C 0 1.8954305003384135  0.8954305003384133 1  2 1  L 4 1  L 4 0.5000000000000002  C 4 0.22385762508460338  4.223857625084603 0  4.5 0  C 4.7761423749153975 0  5.000000000000001 0.22385762508460338  5.000000000000001 0.5000000000000002  L 5 1  L 13 1  L 13.000000000000002 0.5000000000000002  C 13.000000000000002 0.22385762508460338  13.223857625084603 0  13.500000000000002 0  C 13.776142374915398 0  14 0.22385762508460338  14 0.5000000000000002  Z M 17 7  L 1.0000000000000002 7  L 1.0000000000000002 16  C 1.0000000000000002 16.552284749830793  1.447715250169207 17  2.000000000000001 17  C -3.333333333333333 17  7.3333333333333535 17  2.000000000000001 17  L 16 17  C 16.552284749830797 17.000000000000004  17 16.552284749830797  17 16  L 17 7  Z " fill-rule="nonzero" fill="rgba(255, 255, 255, 1)" stroke="none" transform="matrix(1 0 0 1 -1187 68 )" class="fill" />
    <path d="M 16 2.0000000000000004  L 14 2  L 14 2.5000000000000004  C 14 2.7761423749153966  13.776142374915398 3  13.500000000000002 3  C 13.223857625084603 3  13.000000000000002 2.7761423749153966  13 2.5  L 13 2  L 5 2  L 5.000000000000001 2.5000000000000004  C 5.000000000000001 2.7761423749153966  4.7761423749153975 3  4.5 3  C 4.223857625084603 3  4 2.7761423749153966  4 2.5  L 4 2  L 2.000000000000001 2.0000000000000004  C 1.447715250169207 2.0000000000000004  1 2.447715250169207  1 3  L 1 6  L 17 6  L 17 3  C 17 2.4477152501692068  16.552284749830793 2.0000000000000004  16 2.0000000000000004  Z " stroke-width="0" stroke-dasharray="0" stroke="rgba(255, 255, 255, 0)" fill="none" transform="matrix(1 0 0 1 -1187 68 )" class="stroke" mask="url(#Clip7968)" />
    <path d="M 14 0.5000000000000002  L 14 0.9999999999999998  L 16 0.9999999999999998  C 17.104569499661586 0.9999999999999998  18 1.8954305003384135  18 3  L 18 16  C 18 17.104569499661586  17.104569499661586 18  16 18  L 2.000000000000001 18  C 0.8954305003384133 18  0 17.104569499661586  0 16  L 0 3  C 0 1.8954305003384135  0.8954305003384133 1  2 1  L 4 1  L 4 0.5000000000000002  C 4 0.22385762508460338  4.223857625084603 0  4.5 0  C 4.7761423749153975 0  5.000000000000001 0.22385762508460338  5.000000000000001 0.5000000000000002  L 5 1  L 13 1  L 13.000000000000002 0.5000000000000002  C 13.000000000000002 0.22385762508460338  13.223857625084603 0  13.500000000000002 0  C 13.776142374915398 0  14 0.22385762508460338  14 0.5000000000000002  Z " stroke-width="0" stroke-dasharray="0" stroke="rgba(255, 255, 255, 0)" fill="none" transform="matrix(1 0 0 1 -1187 68 )" class="stroke" mask="url(#Clip7968)" />
    <path d="M 17 7  L 1.0000000000000002 7  L 1.0000000000000002 16  C 1.0000000000000002 16.552284749830793  1.447715250169207 17  2.000000000000001 17  C -3.333333333333333 17  7.3333333333333535 17  2.000000000000001 17  L 16 17  C 16.552284749830797 17.000000000000004  17 16.552284749830797  17 16  L 17 7  Z " stroke-width="0" stroke-dasharray="0" stroke="rgba(255, 255, 255, 0)" fill="none" transform="matrix(1 0 0 1 -1187 68 )" class="stroke" mask="url(#Clip7968)" />
  </g>
</svg>