<?xml version="1.0" encoding="utf-8"?>
<svg version="1.1" xmlns:xlink="http://www.w3.org/1999/xlink" width="17px" height="16px" xmlns="http://www.w3.org/2000/svg">
  <defs>
    <pattern id="BGPattern" patternUnits="userSpaceOnUse" alignment="0 0" imageRepeat="None" />
    <mask fill="white" id="Clip6895">
      <path d="M 8.011250016601563 5  L 3.7612499833984385 5  C 2.8810461633556113 5  2.1674999833984385 4.253807916384655  2.1674999833984385 3.3333333333333335  C 2.1674999833984385 2.4128587502820125  2.8810461633556113 1.6666666666666667  3.7612499833984385 1.6666666666666667  L 8.011250016601563 1.6666666666666667  C 8.89145383664439 1.6666666666666667  9.605000016601563 2.4128587502820125  9.605000016601563 3.3333333333333335  C 9.605000016601563 4.253807916384655  8.89145383664439 5  8.011250016601563 5  Z M 14.386250016601563 10.199999999999998  C 14.386250016601563 10.199999999999998  14.386250016601563 10.199999999999998  14.386250016601563 10  L 3.761249983398437 10  C 3.761249983398437 10.199999999999998  3.761249983398437 10.199999999999998  3.761249983398437 10.199999999999998  C 2.88104616335561 10.199999999999998  2.167499983398437 9.453807916384655  2.167499983398437 8.533333333333331  C 2.167499983398437 7.612858750282012  2.88104616335561 6.8666666666666645  3.761249983398437 6.8666666666666645  C 3.761249983398437 6.8666666666666645  3.761249983398437 6.8666666666666645  3.761249983398437 7  L 14.386250016601563 7  C 14.386250016601563 6.8666666666666645  14.386250016601563 6.8666666666666645  14.386250016601563 6.8666666666666645  C 15.26645383664439 6.8666666666666645  15.980000016601563 7.612858750282012  15.980000016601563 8.533333333333331  C 15.980000016601563 9.453807916384655  15.26645383664439 10.199999999999998  14.386250016601563 10.199999999999998  Z M 14.386250016601563 15.555555572916667  L 1.6362500166015628 15.555555572916667  C 0.7560461965587355 15.555555572916667  0.04250001660156269 14.809363489301322  0.04250001660156269 13.88888890625  C 0.04250001660156269 12.968414323198678  0.7560461965587355 12.222222239583333  1.6362500166015628 12.222222239583333  C 1.6362500166015628 12.222222239583333  1.6362500166015628 12.222222239583333  1.6362500166015628 12  L 14.386250016601563 12  C 14.386250016601563 12.222222239583333  14.386250016601563 12.222222239583333  14.386250016601563 12.222222239583333  C 15.26645383664439 12.222222239583333  15.980000016601563 12.968414323198678  15.980000016601563 13.88888890625  C 15.980000016601563 14.809363489301322  15.26645383664439 15.555555572916667  14.386250016601563 15.555555572916667  Z " fill-rule="evenodd" />
    </mask>
  </defs>
  <g transform="matrix(1 0 0 1 -160 -607 )">
    <path d="M 8.011250016601563 5  L 3.7612499833984385 5  C 2.8810461633556113 5  2.1674999833984385 4.253807916384655  2.1674999833984385 3.3333333333333335  C 2.1674999833984385 2.4128587502820125  2.8810461633556113 1.6666666666666667  3.7612499833984385 1.6666666666666667  L 8.011250016601563 1.6666666666666667  C 8.89145383664439 1.6666666666666667  9.605000016601563 2.4128587502820125  9.605000016601563 3.3333333333333335  C 9.605000016601563 4.253807916384655  8.89145383664439 5  8.011250016601563 5  Z M 14.386250016601563 10.199999999999998  C 14.386250016601563 10.199999999999998  14.386250016601563 10.199999999999998  14.386250016601563 10  L 3.761249983398437 10  C 3.761249983398437 10.199999999999998  3.761249983398437 10.199999999999998  3.761249983398437 10.199999999999998  C 2.88104616335561 10.199999999999998  2.167499983398437 9.453807916384655  2.167499983398437 8.533333333333331  C 2.167499983398437 7.612858750282012  2.88104616335561 6.8666666666666645  3.761249983398437 6.8666666666666645  C 3.761249983398437 6.8666666666666645  3.761249983398437 6.8666666666666645  3.761249983398437 7  L 14.386250016601563 7  C 14.386250016601563 6.8666666666666645  14.386250016601563 6.8666666666666645  14.386250016601563 6.8666666666666645  C 15.26645383664439 6.8666666666666645  15.980000016601563 7.612858750282012  15.980000016601563 8.533333333333331  C 15.980000016601563 9.453807916384655  15.26645383664439 10.199999999999998  14.386250016601563 10.199999999999998  Z M 14.386250016601563 15.555555572916667  L 1.6362500166015628 15.555555572916667  C 0.7560461965587355 15.555555572916667  0.04250001660156269 14.809363489301322  0.04250001660156269 13.88888890625  C 0.04250001660156269 12.968414323198678  0.7560461965587355 12.222222239583333  1.6362500166015628 12.222222239583333  C 1.6362500166015628 12.222222239583333  1.6362500166015628 12.222222239583333  1.6362500166015628 12  L 14.386250016601563 12  C 14.386250016601563 12.222222239583333  14.386250016601563 12.222222239583333  14.386250016601563 12.222222239583333  C 15.26645383664439 12.222222239583333  15.980000016601563 12.968414323198678  15.980000016601563 13.88888890625  C 15.980000016601563 14.809363489301322  15.26645383664439 15.555555572916667  14.386250016601563 15.555555572916667  Z " fill-rule="nonzero" fill="rgba(252, 69, 93, 1)" stroke="none" transform="matrix(1 0 0 1 160 607 )" class="fill" />
    <path d="M 8.011250016601563 5  L 3.7612499833984385 5  C 2.8810461633556113 5  2.1674999833984385 4.253807916384655  2.1674999833984385 3.3333333333333335  C 2.1674999833984385 2.4128587502820125  2.8810461633556113 1.6666666666666667  3.7612499833984385 1.6666666666666667  L 8.011250016601563 1.6666666666666667  C 8.89145383664439 1.6666666666666667  9.605000016601563 2.4128587502820125  9.605000016601563 3.3333333333333335  C 9.605000016601563 4.253807916384655  8.89145383664439 5  8.011250016601563 5  Z " stroke-width="0" stroke-dasharray="0" stroke="rgba(255, 255, 255, 0)" fill="none" transform="matrix(1 0 0 1 160 607 )" class="stroke" mask="url(#Clip6895)" />
    <path d="M 14.386250016601563 10.199999999999998  C 14.386250016601563 10.199999999999998  14.386250016601563 10.199999999999998  14.386250016601563 10  L 3.761249983398437 10  C 3.761249983398437 10.199999999999998  3.761249983398437 10.199999999999998  3.761249983398437 10.199999999999998  C 2.88104616335561 10.199999999999998  2.167499983398437 9.453807916384655  2.167499983398437 8.533333333333331  C 2.167499983398437 7.612858750282012  2.88104616335561 6.8666666666666645  3.761249983398437 6.8666666666666645  C 3.761249983398437 6.8666666666666645  3.761249983398437 6.8666666666666645  3.761249983398437 7  L 14.386250016601563 7  C 14.386250016601563 6.8666666666666645  14.386250016601563 6.8666666666666645  14.386250016601563 6.8666666666666645  C 15.26645383664439 6.8666666666666645  15.980000016601563 7.612858750282012  15.980000016601563 8.533333333333331  C 15.980000016601563 9.453807916384655  15.26645383664439 10.199999999999998  14.386250016601563 10.199999999999998  Z " stroke-width="0" stroke-dasharray="0" stroke="rgba(255, 255, 255, 0)" fill="none" transform="matrix(1 0 0 1 160 607 )" class="stroke" mask="url(#Clip6895)" />
    <path d="M 14.386250016601563 15.555555572916667  L 1.6362500166015628 15.555555572916667  C 0.7560461965587355 15.555555572916667  0.04250001660156269 14.809363489301322  0.04250001660156269 13.88888890625  C 0.04250001660156269 12.968414323198678  0.7560461965587355 12.222222239583333  1.6362500166015628 12.222222239583333  C 1.6362500166015628 12.222222239583333  1.6362500166015628 12.222222239583333  1.6362500166015628 12  L 14.386250016601563 12  C 14.386250016601563 12.222222239583333  14.386250016601563 12.222222239583333  14.386250016601563 12.222222239583333  C 15.26645383664439 12.222222239583333  15.980000016601563 12.968414323198678  15.980000016601563 13.88888890625  C 15.980000016601563 14.809363489301322  15.26645383664439 15.555555572916667  14.386250016601563 15.555555572916667  Z " stroke-width="0" stroke-dasharray="0" stroke="rgba(255, 255, 255, 0)" fill="none" transform="matrix(1 0 0 1 160 607 )" class="stroke" mask="url(#Clip6895)" />
  </g>
</svg>