<?xml version="1.0" encoding="utf-8"?>
<svg version="1.1" xmlns:xlink="http://www.w3.org/1999/xlink" width="18px" height="22px" xmlns="http://www.w3.org/2000/svg">
  <defs>
    <pattern id="BGPattern" patternUnits="userSpaceOnUse" alignment="0 0" imageRepeat="None" />
    <mask fill="white" id="Clip9046">
      <path d="M 0.5231999999999997 16.8704  L 17.476799999999997 16.8704  L 17.476799999999997 19.7504  C 17.476799999999997 20.883200000000002  16.56 21.8  15.4272 21.8  L 2.5728 21.8  C 1.4399999999999995 21.8  0.5231999999999997 20.883200000000002  0.5231999999999997 19.7504  L 0.5231999999999997 16.8704  Z M 10.2744 19.3088  C 10.2744 18.6032  9.703199999999999 18.0344  9 18.0344  C 8.296800000000001 18.0344  7.7256 18.605600000000003  7.7256 19.3088  C 7.7256 20.012  8.296800000000001 20.5832  9 20.5832  C 9.703199999999999 20.5832  10.2744 20.012  10.2744 19.3088  Z M 2.5728 0.20000000000000018  L 15.4272 0.20000000000000018  C 16.560000000000002 0.20000000000000018  17.4768 1.1168  17.4768 2.2496000000000005  L 17.4768 15  L 0.5232000000000001 15  L 0.5232000000000001 2.2496  C 0.5232000000000001 1.1168  1.4399999999999995 0.20000000000000018  2.5728 0.20000000000000018  Z M 12.6144 2.5808  C 12.6144 2.1847999999999996  12.2904 1.8608000000000002  11.892000000000001 1.8608000000000002  L 6.103200000000001 1.8608000000000002  C 5.7125685565573825 1.8709317576496787  5.400907891845181 2.190038240290159  5.4 2.5808  C 5.4 2.9792  5.721600000000002 3.3007999999999997  6.120000000000001 3.3007999999999997  L 11.9112 3.3008000000000006  C 12.301831443442616 3.2906682423503204  12.61349210815482 2.971561759709841  12.6144 2.5808  Z " fill-rule="evenodd" />
    </mask>
  </defs>
  <g transform="matrix(1 0 0 1 -249 -1426 )">
    <path d="M 0.5231999999999997 16.8704  L 17.476799999999997 16.8704  L 17.476799999999997 19.7504  C 17.476799999999997 20.883200000000002  16.56 21.8  15.4272 21.8  L 2.5728 21.8  C 1.4399999999999995 21.8  0.5231999999999997 20.883200000000002  0.5231999999999997 19.7504  L 0.5231999999999997 16.8704  Z M 10.2744 19.3088  C 10.2744 18.6032  9.703199999999999 18.0344  9 18.0344  C 8.296800000000001 18.0344  7.7256 18.605600000000003  7.7256 19.3088  C 7.7256 20.012  8.296800000000001 20.5832  9 20.5832  C 9.703199999999999 20.5832  10.2744 20.012  10.2744 19.3088  Z M 2.5728 0.20000000000000018  L 15.4272 0.20000000000000018  C 16.560000000000002 0.20000000000000018  17.4768 1.1168  17.4768 2.2496000000000005  L 17.4768 15  L 0.5232000000000001 15  L 0.5232000000000001 2.2496  C 0.5232000000000001 1.1168  1.4399999999999995 0.20000000000000018  2.5728 0.20000000000000018  Z M 12.6144 2.5808  C 12.6144 2.1847999999999996  12.2904 1.8608000000000002  11.892000000000001 1.8608000000000002  L 6.103200000000001 1.8608000000000002  C 5.7125685565573825 1.8709317576496787  5.400907891845181 2.190038240290159  5.4 2.5808  C 5.4 2.9792  5.721600000000002 3.3007999999999997  6.120000000000001 3.3007999999999997  L 11.9112 3.3008000000000006  C 12.301831443442616 3.2906682423503204  12.61349210815482 2.971561759709841  12.6144 2.5808  Z " fill-rule="nonzero" fill="rgba(252, 69, 93, 1)" stroke="none" transform="matrix(1 0 0 1 249 1426 )" class="fill" />
    <path d="M 0.5231999999999997 16.8704  L 17.476799999999997 16.8704  L 17.476799999999997 19.7504  C 17.476799999999997 20.883200000000002  16.56 21.8  15.4272 21.8  L 2.5728 21.8  C 1.4399999999999995 21.8  0.5231999999999997 20.883200000000002  0.5231999999999997 19.7504  L 0.5231999999999997 16.8704  Z " stroke-width="0" stroke-dasharray="0" stroke="rgba(255, 255, 255, 0)" fill="none" transform="matrix(1 0 0 1 249 1426 )" class="stroke" mask="url(#Clip9046)" />
    <path d="M 10.2744 19.3088  C 10.2744 18.6032  9.703199999999999 18.0344  9 18.0344  C 8.296800000000001 18.0344  7.7256 18.605600000000003  7.7256 19.3088  C 7.7256 20.012  8.296800000000001 20.5832  9 20.5832  C 9.703199999999999 20.5832  10.2744 20.012  10.2744 19.3088  Z " stroke-width="0" stroke-dasharray="0" stroke="rgba(255, 255, 255, 0)" fill="none" transform="matrix(1 0 0 1 249 1426 )" class="stroke" mask="url(#Clip9046)" />
    <path d="M 2.5728 0.20000000000000018  L 15.4272 0.20000000000000018  C 16.560000000000002 0.20000000000000018  17.4768 1.1168  17.4768 2.2496000000000005  L 17.4768 15  L 0.5232000000000001 15  L 0.5232000000000001 2.2496  C 0.5232000000000001 1.1168  1.4399999999999995 0.20000000000000018  2.5728 0.20000000000000018  Z " stroke-width="0" stroke-dasharray="0" stroke="rgba(255, 255, 255, 0)" fill="none" transform="matrix(1 0 0 1 249 1426 )" class="stroke" mask="url(#Clip9046)" />
    <path d="M 12.6144 2.5808  C 12.6144 2.1847999999999996  12.2904 1.8608000000000002  11.892000000000001 1.8608000000000002  L 6.103200000000001 1.8608000000000002  C 5.7125685565573825 1.8709317576496787  5.400907891845181 2.190038240290159  5.4 2.5808  C 5.4 2.9792  5.721600000000002 3.3007999999999997  6.120000000000001 3.3007999999999997  L 11.9112 3.3008000000000006  C 12.301831443442616 3.2906682423503204  12.61349210815482 2.971561759709841  12.6144 2.5808  Z " stroke-width="0" stroke-dasharray="0" stroke="rgba(255, 255, 255, 0)" fill="none" transform="matrix(1 0 0 1 249 1426 )" class="stroke" mask="url(#Clip9046)" />
  </g>
</svg>