<?xml version="1.0" encoding="utf-8"?>
<svg version="1.1" xmlns:xlink="http://www.w3.org/1999/xlink" width="6px" height="8px" xmlns="http://www.w3.org/2000/svg">
  <defs>
    <pattern id="BGPattern" patternUnits="userSpaceOnUse" alignment="0 0" imageRepeat="None" />
    <mask fill="white" id="Clip12352">
      <path d="M 5.672000000000001 4.304000000000002  C 5.456000000000003 2.432000000000002  4.808 1.3279999999999994  3.103999999999999 1.1120000000000019  C 1.4000000000000021 1.1120000000000019  0.5360000000000014 2.3840000000000003  0.5360000000000014 4.304000000000002  C 0.5360000000000014 6.439999999999998  1.4000000000000021 7.496000000000002  3.103999999999999 7.496000000000002  C 4.808 7.496000000000002  5.672000000000001 6.439999999999998  5.672000000000001 4.304000000000002  Z " fill-rule="evenodd" />
    </mask>
  </defs>
  <g transform="matrix(1 0 0 1 -177 -1104 )">
    <path d="M 5.672000000000001 4.304000000000002  C 5.456000000000003 2.432000000000002  4.808 1.3279999999999994  3.103999999999999 1.1120000000000019  C 1.4000000000000021 1.1120000000000019  0.5360000000000014 2.3840000000000003  0.5360000000000014 4.304000000000002  C 0.5360000000000014 6.439999999999998  1.4000000000000021 7.496000000000002  3.103999999999999 7.496000000000002  C 4.808 7.496000000000002  5.672000000000001 6.439999999999998  5.672000000000001 4.304000000000002  Z " fill-rule="nonzero" fill="rgba(216, 30, 6, 1)" stroke="none" transform="matrix(1 0 0 1 177 1104 )" class="fill" />
    <path d="M 5.672000000000001 4.304000000000002  C 5.456000000000003 2.432000000000002  4.808 1.3279999999999994  3.103999999999999 1.1120000000000019  C 1.4000000000000021 1.1120000000000019  0.5360000000000014 2.3840000000000003  0.5360000000000014 4.304000000000002  C 0.5360000000000014 6.439999999999998  1.4000000000000021 7.496000000000002  3.103999999999999 7.496000000000002  C 4.808 7.496000000000002  5.672000000000001 6.439999999999998  5.672000000000001 4.304000000000002  Z " stroke-width="0" stroke-dasharray="0" stroke="rgba(255, 255, 255, 0)" fill="none" transform="matrix(1 0 0 1 177 1104 )" class="stroke" mask="url(#Clip12352)" />
  </g>
</svg>