<?xml version="1.0" encoding="utf-8"?>
<svg version="1.1" xmlns:xlink="http://www.w3.org/1999/xlink" width="9px" height="7px" xmlns="http://www.w3.org/2000/svg">
  <defs>
    <pattern id="BGPattern" patternUnits="userSpaceOnUse" alignment="0 0" imageRepeat="None" />
    <mask fill="white" id="Clip13475">
      <path d="M 7.900312500000003 5.430468750000001  C 7.782187500000002 5.7052734375000025  7.507968750000001 5.8857421875000036  7.2 5.8857421875  L 1.125 5.8857421875  C 0.7073437500000025 5.8857421875  0.36562500000000003 5.5535156249999975  0.36562500000000003 5.1474609375  C 0.36562500000000003 3.1130859374999993  2.069999999999997 1.4560546875  4.1625000000000005 1.4560546875  C 4.365000000000001 1.4560546875  4.559062499999997 1.533984374999999  4.698281249999998 1.6734375000000012  L 7.735781250000001 4.626562500000001  C 7.955156250000004 4.83984375  8.018437500000003 5.155664062499999  7.900312500000003 5.430468750000001  Z M 3.8671875 2.9490234374999993  C 3.0065625000000025 3.0597656249999994  2.2978125000000014 3.6380859374999988  2.0151562500000026 4.4091796875  L 5.369062500000003 4.4091796875  L 3.8671875 2.9490234374999993  Z " fill-rule="evenodd" />
    </mask>
  </defs>
  <g transform="matrix(1 0 0 1 -173 -1249 )">
    <path d="M 7.900312500000003 5.430468750000001  C 7.782187500000002 5.7052734375000025  7.507968750000001 5.8857421875000036  7.2 5.8857421875  L 1.125 5.8857421875  C 0.7073437500000025 5.8857421875  0.36562500000000003 5.5535156249999975  0.36562500000000003 5.1474609375  C 0.36562500000000003 3.1130859374999993  2.069999999999997 1.4560546875  4.1625000000000005 1.4560546875  C 4.365000000000001 1.4560546875  4.559062499999997 1.533984374999999  4.698281249999998 1.6734375000000012  L 7.735781250000001 4.626562500000001  C 7.955156250000004 4.83984375  8.018437500000003 5.155664062499999  7.900312500000003 5.430468750000001  Z M 3.8671875 2.9490234374999993  C 3.0065625000000025 3.0597656249999994  2.2978125000000014 3.6380859374999988  2.0151562500000026 4.4091796875  L 5.369062500000003 4.4091796875  L 3.8671875 2.9490234374999993  Z " fill-rule="nonzero" fill="rgba(255, 255, 255, 1)" stroke="none" transform="matrix(1 0 0 1 173 1249 )" class="fill" />
    <path d="M 7.900312500000003 5.430468750000001  C 7.782187500000002 5.7052734375000025  7.507968750000001 5.8857421875000036  7.2 5.8857421875  L 1.125 5.8857421875  C 0.7073437500000025 5.8857421875  0.36562500000000003 5.5535156249999975  0.36562500000000003 5.1474609375  C 0.36562500000000003 3.1130859374999993  2.069999999999997 1.4560546875  4.1625000000000005 1.4560546875  C 4.365000000000001 1.4560546875  4.559062499999997 1.533984374999999  4.698281249999998 1.6734375000000012  L 7.735781250000001 4.626562500000001  C 7.955156250000004 4.83984375  8.018437500000003 5.155664062499999  7.900312500000003 5.430468750000001  Z " stroke-width="0" stroke-dasharray="0" stroke="rgba(255, 255, 255, 0)" fill="none" transform="matrix(1 0 0 1 173 1249 )" class="stroke" mask="url(#Clip13475)" />
    <path d="M 3.8671875 2.9490234374999993  C 3.0065625000000025 3.0597656249999994  2.2978125000000014 3.6380859374999988  2.0151562500000026 4.4091796875  L 5.369062500000003 4.4091796875  L 3.8671875 2.9490234374999993  Z " stroke-width="0" stroke-dasharray="0" stroke="rgba(255, 255, 255, 0)" fill="none" transform="matrix(1 0 0 1 173 1249 )" class="stroke" mask="url(#Clip13475)" />
  </g>
</svg>