<?xml version="1.0" encoding="utf-8"?>
<svg version="1.1" xmlns:xlink="http://www.w3.org/1999/xlink" width="92px" height="42px" xmlns="http://www.w3.org/2000/svg">
  <defs>
    <pattern id="BGPattern" patternUnits="userSpaceOnUse" alignment="0 0" imageRepeat="None" />
    <mask fill="white" id="Clip9293">
      <path d="M 0 16  C 0 7.039999999999999  18.04 0  41 0  C 63.96 0  82 7.039999999999999  82 16  C 82 24.96  63.96 32  41 32  C 18.04 32  0 24.96  0 16  Z " fill-rule="evenodd" />
    </mask>
  </defs>
  <g transform="matrix(1 0 0 1 -134 -68 )">
    <path d="M 0 16  C 0 7.039999999999999  18.04 0  41 0  C 63.96 0  82 7.039999999999999  82 16  C 82 24.96  63.96 32  41 32  C 18.04 32  0 24.96  0 16  Z " fill-rule="nonzero" fill="rgba(0, 0, 0, 0)" stroke="none" transform="matrix(1 0 0 1 138 72 )" class="fill" />
    <path d="M 0 16  C 0 7.039999999999999  18.04 0  41 0  C 63.96 0  82 7.039999999999999  82 16  C 82 24.96  63.96 32  41 32  C 18.04 32  0 24.96  0 16  Z " stroke-width="6" stroke-dasharray="0" stroke="rgba(255, 255, 255, 0)" fill="none" transform="matrix(1 0 0 1 138 72 )" class="stroke" mask="url(#Clip9293)" />
  </g>
  <style>svg { filter: drop-shadow(1px 1px 2.5px rgba(0, 0, 0, 0.34901960784313724)); }</style>
</svg>