<?xml version="1.0" encoding="utf-8"?>
<svg version="1.1" xmlns:xlink="http://www.w3.org/1999/xlink" width="10px" height="11px" xmlns="http://www.w3.org/2000/svg">
  <defs>
    <pattern id="BGPattern" patternUnits="userSpaceOnUse" alignment="0 0" imageRepeat="None" />
    <mask fill="white" id="Clip1670">
      <path d="M 9.984897452139641 10.949548341346155  L 3.395664959881758 4.760738439002403  L 8.413196896114865 0.048118075420673166  L 6.504273226351352 0.048118075420673166  L 1.4320986592060816 4.811851006610576  L 1.4320986592060816 2.866640869891826  L 0.08320623944256708 2.866640869891826  L 0.08320623944256708 10.949548341346151  L 1.4320986592060816 10.949548341346151  L 1.4320986592060816 6.604980326021635  L 2.4368540259009004 5.661492659254807  L 8.066829497466214 10.949548341346155  L 9.984897452139641 10.949548341346155  Z " fill-rule="evenodd" />
    </mask>
  </defs>
  <g transform="matrix(1 0 0 1 -163 -35 )">
    <path d="M 9.984897452139641 10.949548341346155  L 3.395664959881758 4.760738439002403  L 8.413196896114865 0.048118075420673166  L 6.504273226351352 0.048118075420673166  L 1.4320986592060816 4.811851006610576  L 1.4320986592060816 2.866640869891826  L 0.08320623944256708 2.866640869891826  L 0.08320623944256708 10.949548341346151  L 1.4320986592060816 10.949548341346151  L 1.4320986592060816 6.604980326021635  L 2.4368540259009004 5.661492659254807  L 8.066829497466214 10.949548341346155  L 9.984897452139641 10.949548341346155  Z " fill-rule="nonzero" fill="rgba(255, 255, 255, 1)" stroke="none" transform="matrix(1 0 0 1 163 35 )" class="fill" />
    <path d="M 9.984897452139641 10.949548341346155  L 3.395664959881758 4.760738439002403  L 8.413196896114865 0.048118075420673166  L 6.504273226351352 0.048118075420673166  L 1.4320986592060816 4.811851006610576  L 1.4320986592060816 2.866640869891826  L 0.08320623944256708 2.866640869891826  L 0.08320623944256708 10.949548341346151  L 1.4320986592060816 10.949548341346151  L 1.4320986592060816 6.604980326021635  L 2.4368540259009004 5.661492659254807  L 8.066829497466214 10.949548341346155  L 9.984897452139641 10.949548341346155  Z " stroke-width="0" stroke-dasharray="0" stroke="rgba(255, 255, 255, 0)" fill="none" transform="matrix(1 0 0 1 163 35 )" class="stroke" mask="url(#Clip1670)" />
  </g>
</svg>