<?xml version="1.0" encoding="utf-8"?>
<svg version="1.1" xmlns:xlink="http://www.w3.org/1999/xlink" width="280px" height="27px" xmlns="http://www.w3.org/2000/svg">
  <defs>
    <linearGradient gradientUnits="userSpaceOnUse" x1="0" y1="0" x2="280" y2="27" id="LinearGradient14208">
      <stop id="Stop14209" stop-color="#c961ff" offset="0" />
      <stop id="Stop14210" stop-color="#8355ff" offset="1" />
    </linearGradient>
    <pattern id="BGPattern" patternUnits="userSpaceOnUse" alignment="0 0" imageRepeat="None" />
    <mask fill="white" id="Clip14211">
      <path d="M 13.5 27  C 5.9399999999999995 27  0 21.060000000000002  0 13.5  C 0 5.9399999999999995  5.9399999999999995 0  13.5 0  L 266.5 0  C 274.06 0  280 5.9399999999999995  280 13.5  C 280 21.060000000000002  274.06 27  266.5 27  L 13.5 27  Z " fill-rule="evenodd" />
    </mask>
  </defs>
  <g transform="matrix(1 0 0 1 -39 -249 )">
    <path d="M 13.5 27  C 5.9399999999999995 27  0 21.060000000000002  0 13.5  C 0 5.9399999999999995  5.9399999999999995 0  13.5 0  L 266.5 0  C 274.06 0  280 5.9399999999999995  280 13.5  C 280 21.060000000000002  274.06 27  266.5 27  L 13.5 27  Z " fill-rule="nonzero" fill="url(#LinearGradient14208)" stroke="none" transform="matrix(1 0 0 1 39 249 )" class="fill" />
    <path d="M 13.5 27  C 5.9399999999999995 27  0 21.060000000000002  0 13.5  C 0 5.9399999999999995  5.9399999999999995 0  13.5 0  L 266.5 0  C 274.06 0  280 5.9399999999999995  280 13.5  C 280 21.060000000000002  274.06 27  266.5 27  L 13.5 27  Z " stroke-width="0" stroke-dasharray="0" stroke="rgba(121, 121, 121, 1)" fill="none" transform="matrix(1 0 0 1 39 249 )" class="stroke" mask="url(#Clip14211)" />
  </g>
</svg>