<?xml version="1.0" encoding="utf-8"?>
<svg version="1.1" xmlns:xlink="http://www.w3.org/1999/xlink" width="20px" height="22px" xmlns="http://www.w3.org/2000/svg">
  <defs>
    <pattern id="BGPattern" patternUnits="userSpaceOnUse" alignment="0 0" imageRepeat="None" />
    <mask fill="white" id="Clip10493">
      <path d="M 19 4.6  C 19.4 2.549999999999999  17.349999999999998 0.75  14.799999999999997 1  L 4.699999999999999 1  C 2.1999999999999993 0.75  0.14999999999999858 2.4499999999999993  0.14999999999999858 4.650000000000002  L 0.14999999999999858 17.8  C 0.14999999999999858 17.9  0.14999999999999858 17.950000000000003  0.1999999999999993 17.950000000000003  C 0.4499999999999975 20.200000000000003  1.8999999999999986 21.250000000000004  4.649999999999999 21  L 14.899999999999999 21  C 17.8 21.250000000000004  19.35 19.9  19 17.150000000000002  L 19 4.6  Z M 13.550000000000004 9.099999999999998  C 13.550000000000004 9.149999999999995  13.500000000000004 9.199999999999996  13.5 9.2  L 11.149999999999999 11.75  L 12.45 11.75  C 12.850000000000001 11.75  13.200000000000003 12.049999999999997  13.200000000000003 12.45  C 13.200000000000003 12.800000000000002  12.900000000000002 13.149999999999999  12.55 13.149999999999999  L 10.599999999999998 13.149999999999999  L 10.599999999999998 14.449999999999996  L 12.349999999999998 14.449999999999996  C 12.649999999999995 14.399999999999997  12.949999999999996 14.549999999999994  13.049999999999997 14.899999999999995  L 13.049999999999997 15.099999999999994  C 12.999999999999996 15.499999999999996  12.699999999999996 15.799999999999994  12.299999999999994 15.849999999999998  L 10.649999999999991 15.849999999999998  L 10.649999999999991 17.549999999999997  C 10.599999999999994 17.9  10.29999999999999 18.199999999999996  9.899999999999991 18.249999999999996  C 9.54999999999999 18.249999999999996  8.899999999999991 17.499999999999993  8.899999999999991 17.499999999999993  L 8.899999999999991 15.799999999999994  L 7.5 15.799999999999994  C 7.099999999999998 15.699999999999996  6.75 15.399999999999995  6.799999999999997 15.049999999999992  C 6.799999999999997 14.749999999999991  7.049999999999997 14.44999999999999  7.349999999999998 14.44999999999999  C 7.399999999999995 14.44999999999999  7.5 14.44999999999999  7.549999999999997 14.499999999999993  L 9.399999999999999 14.499999999999993  L 9.399999999999999 13.199999999999992  L 7.699999999999999 13.199999999999992  C 7.299999999999997 13.199999999999992  6.9999999999999964 12.899999999999993  6.949999999999999 12.549999999999995  C 6.949999999999999 12.199999999999992  7.25 11.84999999999999  7.600000000000001 11.84999999999999  L 8.950000000000003 11.84999999999999  L 6.600000000000005 9.29999999999999  L 6.5000000000000036 9.149999999999991  C 6.2500000000000036 8.899999999999991  6.300000000000004 8.54999999999999  6.550000000000004 8.299999999999994  C 6.600000000000001 8.299999999999994  6.600000000000001 8.249999999999993  6.650000000000002 8.249999999999993  C 6.950000000000003 8.049999999999994  7.400000000000006 8.099999999999994  7.600000000000005 8.349999999999994  L 10 11  L 12.399999999999999 8.349999999999998  C 12.649999999999999 8.099999999999998  13.05 8.049999999999997  13.350000000000001 8.249999999999996  C 13.649999999999999 8.45  13.700000000000003 8.799999999999997  13.550000000000004 9.099999999999998  Z M 14.599999999999998 3.5  C 14.699999999999996 3.849999999999998  14.599999999999998 4.249999999999998  14.3 4.5  C 13.099999999999998 5.4  11.649999999999999 5.900000000000002  10.149999999999999 5.85  C 8.549999999999997 5.800000000000001  6.949999999999999 5.35  5.599999999999998 4.5  C 5.299999999999997 4.25  5.25 3.8500000000000014  5.350000000000001 3.5500000000000007  C 5.5 3.200000000000001  5.799999999999997 3.1000000000000014  6.099999999999998 3.25  C 6.149999999999999 3.2999999999999985  10.2 5.95  13.850000000000001 3.25  C 14.100000000000001 3.1000000000000014  14.400000000000002 3.200000000000001  14.549999999999997 3.3999999999999986  C 14.549999999999997 3.449999999999998  14.599999999999998 3.5  14.599999999999998 3.5  Z " fill-rule="evenodd" />
    </mask>
  </defs>
  <g transform="matrix(1 0 0 1 -303 -516 )">
    <path d="M 19 4.6  C 19.4 2.549999999999999  17.349999999999998 0.75  14.799999999999997 1  L 4.699999999999999 1  C 2.1999999999999993 0.75  0.14999999999999858 2.4499999999999993  0.14999999999999858 4.650000000000002  L 0.14999999999999858 17.8  C 0.14999999999999858 17.9  0.14999999999999858 17.950000000000003  0.1999999999999993 17.950000000000003  C 0.4499999999999975 20.200000000000003  1.8999999999999986 21.250000000000004  4.649999999999999 21  L 14.899999999999999 21  C 17.8 21.250000000000004  19.35 19.9  19 17.150000000000002  L 19 4.6  Z M 13.550000000000004 9.099999999999998  C 13.550000000000004 9.149999999999995  13.500000000000004 9.199999999999996  13.5 9.2  L 11.149999999999999 11.75  L 12.45 11.75  C 12.850000000000001 11.75  13.200000000000003 12.049999999999997  13.200000000000003 12.45  C 13.200000000000003 12.800000000000002  12.900000000000002 13.149999999999999  12.55 13.149999999999999  L 10.599999999999998 13.149999999999999  L 10.599999999999998 14.449999999999996  L 12.349999999999998 14.449999999999996  C 12.649999999999995 14.399999999999997  12.949999999999996 14.549999999999994  13.049999999999997 14.899999999999995  L 13.049999999999997 15.099999999999994  C 12.999999999999996 15.499999999999996  12.699999999999996 15.799999999999994  12.299999999999994 15.849999999999998  L 10.649999999999991 15.849999999999998  L 10.649999999999991 17.549999999999997  C 10.599999999999994 17.9  10.29999999999999 18.199999999999996  9.899999999999991 18.249999999999996  C 9.54999999999999 18.249999999999996  8.899999999999991 17.499999999999993  8.899999999999991 17.499999999999993  L 8.899999999999991 15.799999999999994  L 7.5 15.799999999999994  C 7.099999999999998 15.699999999999996  6.75 15.399999999999995  6.799999999999997 15.049999999999992  C 6.799999999999997 14.749999999999991  7.049999999999997 14.44999999999999  7.349999999999998 14.44999999999999  C 7.399999999999995 14.44999999999999  7.5 14.44999999999999  7.549999999999997 14.499999999999993  L 9.399999999999999 14.499999999999993  L 9.399999999999999 13.199999999999992  L 7.699999999999999 13.199999999999992  C 7.299999999999997 13.199999999999992  6.9999999999999964 12.899999999999993  6.949999999999999 12.549999999999995  C 6.949999999999999 12.199999999999992  7.25 11.84999999999999  7.600000000000001 11.84999999999999  L 8.950000000000003 11.84999999999999  L 6.600000000000005 9.29999999999999  L 6.5000000000000036 9.149999999999991  C 6.2500000000000036 8.899999999999991  6.300000000000004 8.54999999999999  6.550000000000004 8.299999999999994  C 6.600000000000001 8.299999999999994  6.600000000000001 8.249999999999993  6.650000000000002 8.249999999999993  C 6.950000000000003 8.049999999999994  7.400000000000006 8.099999999999994  7.600000000000005 8.349999999999994  L 10 11  L 12.399999999999999 8.349999999999998  C 12.649999999999999 8.099999999999998  13.05 8.049999999999997  13.350000000000001 8.249999999999996  C 13.649999999999999 8.45  13.700000000000003 8.799999999999997  13.550000000000004 9.099999999999998  Z M 14.599999999999998 3.5  C 14.699999999999996 3.849999999999998  14.599999999999998 4.249999999999998  14.3 4.5  C 13.099999999999998 5.4  11.649999999999999 5.900000000000002  10.149999999999999 5.85  C 8.549999999999997 5.800000000000001  6.949999999999999 5.35  5.599999999999998 4.5  C 5.299999999999997 4.25  5.25 3.8500000000000014  5.350000000000001 3.5500000000000007  C 5.5 3.200000000000001  5.799999999999997 3.1000000000000014  6.099999999999998 3.25  C 6.149999999999999 3.2999999999999985  10.2 5.95  13.850000000000001 3.25  C 14.100000000000001 3.1000000000000014  14.400000000000002 3.200000000000001  14.549999999999997 3.3999999999999986  C 14.549999999999997 3.449999999999998  14.599999999999998 3.5  14.599999999999998 3.5  Z " fill-rule="nonzero" fill="rgba(255, 255, 255, 1)" stroke="none" transform="matrix(1 0 0 1 303 516 )" class="fill" />
    <path d="M 19 4.6  C 19.4 2.549999999999999  17.349999999999998 0.75  14.799999999999997 1  L 4.699999999999999 1  C 2.1999999999999993 0.75  0.14999999999999858 2.4499999999999993  0.14999999999999858 4.650000000000002  L 0.14999999999999858 17.8  C 0.14999999999999858 17.9  0.14999999999999858 17.950000000000003  0.1999999999999993 17.950000000000003  C 0.4499999999999975 20.200000000000003  1.8999999999999986 21.250000000000004  4.649999999999999 21  L 14.899999999999999 21  C 17.8 21.250000000000004  19.35 19.9  19 17.150000000000002  L 19 4.6  Z " stroke-width="0" stroke-dasharray="0" stroke="rgba(255, 255, 255, 0)" fill="none" transform="matrix(1 0 0 1 303 516 )" class="stroke" mask="url(#Clip10493)" />
    <path d="M 13.550000000000004 9.099999999999998  C 13.550000000000004 9.149999999999995  13.500000000000004 9.199999999999996  13.5 9.2  L 11.149999999999999 11.75  L 12.45 11.75  C 12.850000000000001 11.75  13.200000000000003 12.049999999999997  13.200000000000003 12.45  C 13.200000000000003 12.800000000000002  12.900000000000002 13.149999999999999  12.55 13.149999999999999  L 10.599999999999998 13.149999999999999  L 10.599999999999998 14.449999999999996  L 12.349999999999998 14.449999999999996  C 12.649999999999995 14.399999999999997  12.949999999999996 14.549999999999994  13.049999999999997 14.899999999999995  L 13.049999999999997 15.099999999999994  C 12.999999999999996 15.499999999999996  12.699999999999996 15.799999999999994  12.299999999999994 15.849999999999998  L 10.649999999999991 15.849999999999998  L 10.649999999999991 17.549999999999997  C 10.599999999999994 17.9  10.29999999999999 18.199999999999996  9.899999999999991 18.249999999999996  C 9.54999999999999 18.249999999999996  8.899999999999991 17.499999999999993  8.899999999999991 17.499999999999993  L 8.899999999999991 15.799999999999994  L 7.5 15.799999999999994  C 7.099999999999998 15.699999999999996  6.75 15.399999999999995  6.799999999999997 15.049999999999992  C 6.799999999999997 14.749999999999991  7.049999999999997 14.44999999999999  7.349999999999998 14.44999999999999  C 7.399999999999995 14.44999999999999  7.5 14.44999999999999  7.549999999999997 14.499999999999993  L 9.399999999999999 14.499999999999993  L 9.399999999999999 13.199999999999992  L 7.699999999999999 13.199999999999992  C 7.299999999999997 13.199999999999992  6.9999999999999964 12.899999999999993  6.949999999999999 12.549999999999995  C 6.949999999999999 12.199999999999992  7.25 11.84999999999999  7.600000000000001 11.84999999999999  L 8.950000000000003 11.84999999999999  L 6.600000000000005 9.29999999999999  L 6.5000000000000036 9.149999999999991  C 6.2500000000000036 8.899999999999991  6.300000000000004 8.54999999999999  6.550000000000004 8.299999999999994  C 6.600000000000001 8.299999999999994  6.600000000000001 8.249999999999993  6.650000000000002 8.249999999999993  C 6.950000000000003 8.049999999999994  7.400000000000006 8.099999999999994  7.600000000000005 8.349999999999994  L 10 11  L 12.399999999999999 8.349999999999998  C 12.649999999999999 8.099999999999998  13.05 8.049999999999997  13.350000000000001 8.249999999999996  C 13.649999999999999 8.45  13.700000000000003 8.799999999999997  13.550000000000004 9.099999999999998  Z " stroke-width="0" stroke-dasharray="0" stroke="rgba(255, 255, 255, 0)" fill="none" transform="matrix(1 0 0 1 303 516 )" class="stroke" mask="url(#Clip10493)" />
    <path d="M 14.599999999999998 3.5  C 14.699999999999996 3.849999999999998  14.599999999999998 4.249999999999998  14.3 4.5  C 13.099999999999998 5.4  11.649999999999999 5.900000000000002  10.149999999999999 5.85  C 8.549999999999997 5.800000000000001  6.949999999999999 5.35  5.599999999999998 4.5  C 5.299999999999997 4.25  5.25 3.8500000000000014  5.350000000000001 3.5500000000000007  C 5.5 3.200000000000001  5.799999999999997 3.1000000000000014  6.099999999999998 3.25  C 6.149999999999999 3.2999999999999985  10.2 5.95  13.850000000000001 3.25  C 14.100000000000001 3.1000000000000014  14.400000000000002 3.200000000000001  14.549999999999997 3.3999999999999986  C 14.549999999999997 3.449999999999998  14.599999999999998 3.5  14.599999999999998 3.5  Z " stroke-width="0" stroke-dasharray="0" stroke="rgba(255, 255, 255, 0)" fill="none" transform="matrix(1 0 0 1 303 516 )" class="stroke" mask="url(#Clip10493)" />
  </g>
</svg>