<svg t="1740643439474" class="icon" viewBox="0 0 1024 1024" version="1.1" xmlns="http://www.w3.org/2000/svg" p-id="22550" width="200" height="200"><path d="M331.093333 0a1253.319111 1253.319111 0 0 1-193.422222 411.591111 894.407111 894.407111 0 0 1 56.092445 209.92H0.227556V0z" fill="#F328B0" p-id="22551"></path><path d="M692.906667 0a1253.319111 1253.319111 0 0 0 193.422222 411.591111 894.464 894.464 0 0 0-56.092445 209.92h193.991112V0z" fill="#F328B0" p-id="22552"></path><path d="M59.676444 840.362667h200.874667a59.676444 59.676444 0 0 1 59.676445 59.676444v121.230222h-320.227556v-121.230222a59.676444 59.676444 0 0 1 59.676444-59.676444z" fill="#F328B0" p-id="22553"></path><path d="M160.142222 753.550222m-65.137778 0a65.137778 65.137778 0 1 0 130.275556 0 65.137778 65.137778 0 1 0-130.275556 0Z" fill="#F328B0" p-id="22554"></path><path d="M411.534222 840.362667h200.874667a59.676444 59.676444 0 0 1 59.676444 59.676444v121.230222h-320.227555v-121.230222a59.676444 59.676444 0 0 1 59.676444-59.676444z" fill="#F328B0" p-id="22555"></path><path d="M512 753.550222m-65.137778 0a65.137778 65.137778 0 1 0 130.275556 0 65.137778 65.137778 0 1 0-130.275556 0Z" fill="#F328B0" p-id="22556"></path><path d="M763.448889 840.362667h200.874667a59.676444 59.676444 0 0 1 59.676444 59.676444v121.230222h-320.227556v-121.230222a59.676444 59.676444 0 0 1 59.676445-59.676444z" fill="#F328B0" p-id="22557"></path><path d="M863.914667 753.550222m-65.137778 0a65.137778 65.137778 0 1 0 130.275555 0 65.137778 65.137778 0 1 0-130.275555 0Z" fill="#F328B0" p-id="22558"></path></svg>