<?xml version="1.0" encoding="utf-8"?>
<svg version="1.1" xmlns:xlink="http://www.w3.org/1999/xlink" width="15px" height="21px" xmlns="http://www.w3.org/2000/svg">
  <defs>
    <pattern id="BGPattern" patternUnits="userSpaceOnUse" alignment="0 0" imageRepeat="None" />
    <mask fill="white" id="Clip16088">
      <path d="M 14.200000000000003 18.250000000000004  C 14.100000000000001 18.1  14.05 17.950000000000003  13.950000000000003 17.799999999999997  C 11.799999999999997 12  8.549999999999999 6.549999999999998  7.900000000000001 0.34999999999999964  L 3.5 2  C 1.3000000000000007 2.8499999999999996  0.15000000000000036 5  0.8500000000000005 6.850000000000001  L 5.199999999999999 18.2  C 5.249999999999998 18.299999999999997  5.249999999999998 18.35  5.300000000000001 18.35  C 6.25 20.200000000000003  7.900000000000001 20.65  10.25 19.75  L 14.200000000000003 18.250000000000004  Z " fill-rule="evenodd" />
    </mask>
  </defs>
  <g transform="matrix(1 0 0 1 -297 -519 )">
    <path d="M 14.200000000000003 18.250000000000004  C 14.100000000000001 18.1  14.05 17.950000000000003  13.950000000000003 17.799999999999997  C 11.799999999999997 12  8.549999999999999 6.549999999999998  7.900000000000001 0.34999999999999964  L 3.5 2  C 1.3000000000000007 2.8499999999999996  0.15000000000000036 5  0.8500000000000005 6.850000000000001  L 5.199999999999999 18.2  C 5.249999999999998 18.299999999999997  5.249999999999998 18.35  5.300000000000001 18.35  C 6.25 20.200000000000003  7.900000000000001 20.65  10.25 19.75  L 14.200000000000003 18.250000000000004  Z " fill-rule="nonzero" fill="rgba(255, 255, 255, 1)" stroke="none" transform="matrix(1 0 0 1 297 519 )" class="fill" />
    <path d="M 14.200000000000003 18.250000000000004  C 14.100000000000001 18.1  14.05 17.950000000000003  13.950000000000003 17.799999999999997  C 11.799999999999997 12  8.549999999999999 6.549999999999998  7.900000000000001 0.34999999999999964  L 3.5 2  C 1.3000000000000007 2.8499999999999996  0.15000000000000036 5  0.8500000000000005 6.850000000000001  L 5.199999999999999 18.2  C 5.249999999999998 18.299999999999997  5.249999999999998 18.35  5.300000000000001 18.35  C 6.25 20.200000000000003  7.900000000000001 20.65  10.25 19.75  L 14.200000000000003 18.250000000000004  Z " stroke-width="0" stroke-dasharray="0" stroke="rgba(255, 255, 255, 0)" fill="none" transform="matrix(1 0 0 1 297 519 )" class="stroke" mask="url(#Clip16088)" />
  </g>
</svg>