<?xml version="1.0" encoding="utf-8"?>
<svg version="1.1" xmlns:xlink="http://www.w3.org/1999/xlink" width="178px" height="22px" xmlns="http://www.w3.org/2000/svg">
  <defs>
    <pattern id="BGPattern" patternUnits="userSpaceOnUse" alignment="0 0" imageRepeat="None" />
    <mask fill="white" id="Clip3002">
      <path d="M 0.7355371900826446 11  L 0 0  L 178 0  L 177.26446280991735 11  C 177.26446280991735 17.159999999999993  174.02809917355373 22  169.9090909090909 22  L 8.090909090909092 22  C 3.97190082644628 22  0.7355371900826446 17.159999999999993  0.7355371900826446 11  Z " fill-rule="evenodd" />
    </mask>
  </defs>
  <g transform="matrix(1 0 0 1 -75 0 )">
    <path d="M 0.7355371900826446 11  L 0 0  L 178 0  L 177.26446280991735 11  C 177.26446280991735 17.159999999999993  174.02809917355373 22  169.9090909090909 22  L 8.090909090909092 22  C 3.97190082644628 22  0.7355371900826446 17.159999999999993  0.7355371900826446 11  Z " fill-rule="nonzero" fill="rgba(0, 0, 0, 0.4980392156862745)" stroke="none" transform="matrix(1 0 0 1 75 0 )" class="fill" />
    <path d="M 0.7355371900826446 11  L 0 0  L 178 0  L 177.26446280991735 11  C 177.26446280991735 17.159999999999993  174.02809917355373 22  169.9090909090909 22  L 8.090909090909092 22  C 3.97190082644628 22  0.7355371900826446 17.159999999999993  0.7355371900826446 11  Z " stroke-width="0" stroke-dasharray="0" stroke="rgba(121, 121, 121, 1)" fill="none" transform="matrix(1 0 0 1 75 0 )" class="stroke" mask="url(#Clip3002)" />
  </g>
</svg>