<?xml version="1.0" encoding="utf-8"?>
<svg version="1.1" xmlns:xlink="http://www.w3.org/1999/xlink" width="9px" height="11px" xmlns="http://www.w3.org/2000/svg">
  <defs>
    <pattern id="BGPattern" patternUnits="userSpaceOnUse" alignment="0 0" imageRepeat="None" />
    <mask fill="white" id="Clip10119">
      <path d="M 4.747936174128606 6.037047133501838  C 6.241179080904447 6.037047133501838  7.375786624849761 5.688035673253676  8.029000043194111 5.0276571533203125  C 8.588376985051081 4.4603883918313425  8.955153436748798 4.017065754250919  8.955153436748798 3.0627406853170953  C 8.955153436748798 2.55313991986443  8.848034151517426 2.121631208352481  8.607444213867188 1.662690156824448  C 8.375638065279446 1.2199682286879592  8.061350063852164 0.8681534682329961  7.672078564453126 0.6160562701056982  C 7.290733886718751 0.37076709127987095  6.817266616586538 0.2025688103170952  6.264745329402044 0.11546613051470556  C 5.881686750676083 0.05018917451746287  5.345447573617789 0.01835163717830858  4.626034412560097 0.01835163717830858  L 1.2085005558894228 0.01835163717830858  C 0.5447894305889425 0.01875209960937502  0.12488181152343741 0.7129705322265624  0.07903474872295686 0.7930649457146138  L 0 0.855338370289522  L 0 10.965056801470588  L 1.3301880671574517 10.965056801470588  L 1.3301880671574517 6.037047133501838  L 4.747936174128606 6.037047133501838  Z M 7.5983805006760825 3.0240951286764712  C 7.599451701472354 3.6268056683708645  7.38714126539964 3.908137334846048  6.940239578951322 4.277172390567555  C 6.492909425706129 4.645806983857996  5.813773123873196 4.817809752699906  4.802567009089542 4.817809752699906  L 1.314762890625 4.817809752699906  L 1.314762890625 1.382960387465533  C 1.3614669039212743 1.3228895694508271  1.4306659649188704 1.2604159136603865  1.4707285907451924 1.2604159136603865  L 4.766574919245794 1.2604159136603865  C 5.72143628117488 1.2604159136603865  6.143914768629808 1.3150803624770226  6.330516571514423 1.3605339384191177  C 6.698792690805289 1.4558463034237132  6.976874368990385 1.6482731617647057  7.232032532677284 1.9842692770565264  C 7.469623118239182 2.2970380026424637  7.5983805006760825 2.5553425264246323  7.5983805006760825 3.0240951286764712  Z " fill-rule="evenodd" />
    </mask>
  </defs>
  <g transform="matrix(1 0 0 1 -143 -111 )">
    <path d="M 4.747936174128606 6.037047133501838  C 6.241179080904447 6.037047133501838  7.375786624849761 5.688035673253676  8.029000043194111 5.0276571533203125  C 8.588376985051081 4.4603883918313425  8.955153436748798 4.017065754250919  8.955153436748798 3.0627406853170953  C 8.955153436748798 2.55313991986443  8.848034151517426 2.121631208352481  8.607444213867188 1.662690156824448  C 8.375638065279446 1.2199682286879592  8.061350063852164 0.8681534682329961  7.672078564453126 0.6160562701056982  C 7.290733886718751 0.37076709127987095  6.817266616586538 0.2025688103170952  6.264745329402044 0.11546613051470556  C 5.881686750676083 0.05018917451746287  5.345447573617789 0.01835163717830858  4.626034412560097 0.01835163717830858  L 1.2085005558894228 0.01835163717830858  C 0.5447894305889425 0.01875209960937502  0.12488181152343741 0.7129705322265624  0.07903474872295686 0.7930649457146138  L 0 0.855338370289522  L 0 10.965056801470588  L 1.3301880671574517 10.965056801470588  L 1.3301880671574517 6.037047133501838  L 4.747936174128606 6.037047133501838  Z M 7.5983805006760825 3.0240951286764712  C 7.599451701472354 3.6268056683708645  7.38714126539964 3.908137334846048  6.940239578951322 4.277172390567555  C 6.492909425706129 4.645806983857996  5.813773123873196 4.817809752699906  4.802567009089542 4.817809752699906  L 1.314762890625 4.817809752699906  L 1.314762890625 1.382960387465533  C 1.3614669039212743 1.3228895694508271  1.4306659649188704 1.2604159136603865  1.4707285907451924 1.2604159136603865  L 4.766574919245794 1.2604159136603865  C 5.72143628117488 1.2604159136603865  6.143914768629808 1.3150803624770226  6.330516571514423 1.3605339384191177  C 6.698792690805289 1.4558463034237132  6.976874368990385 1.6482731617647057  7.232032532677284 1.9842692770565264  C 7.469623118239182 2.2970380026424637  7.5983805006760825 2.5553425264246323  7.5983805006760825 3.0240951286764712  Z " fill-rule="nonzero" fill="rgba(255, 255, 255, 1)" stroke="none" transform="matrix(1 0 0 1 143 111 )" class="fill" />
    <path d="M 4.747936174128606 6.037047133501838  C 6.241179080904447 6.037047133501838  7.375786624849761 5.688035673253676  8.029000043194111 5.0276571533203125  C 8.588376985051081 4.4603883918313425  8.955153436748798 4.017065754250919  8.955153436748798 3.0627406853170953  C 8.955153436748798 2.55313991986443  8.848034151517426 2.121631208352481  8.607444213867188 1.662690156824448  C 8.375638065279446 1.2199682286879592  8.061350063852164 0.8681534682329961  7.672078564453126 0.6160562701056982  C 7.290733886718751 0.37076709127987095  6.817266616586538 0.2025688103170952  6.264745329402044 0.11546613051470556  C 5.881686750676083 0.05018917451746287  5.345447573617789 0.01835163717830858  4.626034412560097 0.01835163717830858  L 1.2085005558894228 0.01835163717830858  C 0.5447894305889425 0.01875209960937502  0.12488181152343741 0.7129705322265624  0.07903474872295686 0.7930649457146138  L 0 0.855338370289522  L 0 10.965056801470588  L 1.3301880671574517 10.965056801470588  L 1.3301880671574517 6.037047133501838  L 4.747936174128606 6.037047133501838  Z " stroke-width="0" stroke-dasharray="0" stroke="rgba(255, 255, 255, 0)" fill="none" transform="matrix(1 0 0 1 143 111 )" class="stroke" mask="url(#Clip10119)" />
    <path d="M 7.5983805006760825 3.0240951286764712  C 7.599451701472354 3.6268056683708645  7.38714126539964 3.908137334846048  6.940239578951322 4.277172390567555  C 6.492909425706129 4.645806983857996  5.813773123873196 4.817809752699906  4.802567009089542 4.817809752699906  L 1.314762890625 4.817809752699906  L 1.314762890625 1.382960387465533  C 1.3614669039212743 1.3228895694508271  1.4306659649188704 1.2604159136603865  1.4707285907451924 1.2604159136603865  L 4.766574919245794 1.2604159136603865  C 5.72143628117488 1.2604159136603865  6.143914768629808 1.3150803624770226  6.330516571514423 1.3605339384191177  C 6.698792690805289 1.4558463034237132  6.976874368990385 1.6482731617647057  7.232032532677284 1.9842692770565264  C 7.469623118239182 2.2970380026424637  7.5983805006760825 2.5553425264246323  7.5983805006760825 3.0240951286764712  Z " stroke-width="0" stroke-dasharray="0" stroke="rgba(255, 255, 255, 0)" fill="none" transform="matrix(1 0 0 1 143 111 )" class="stroke" mask="url(#Clip10119)" />
  </g>
</svg>