<svg t="1725330867317" class="icon" viewBox="0 0 1024 1024" version="1.1" xmlns="http://www.w3.org/2000/svg" p-id="25468" width="200" height="200"><path d="M981.333333 327.36v435.413333L512.469333 1024 42.666667 762.752v-435.413333z" fill="#FFB400" p-id="25469"></path><path d="M960 348.458667H64v401.92l448.448 249.386666L960 750.421333z" fill="#FFD217" p-id="25470"></path><path d="M960 348.458667v359.722666L512.448 957.525333 64 708.16V348.458667z" fill="#FFE20D" p-id="25471"></path><path d="M1024 240.277333v174.165334L512 632.106667 0 414.442667v-174.165334z" fill="#FFB400" p-id="25472"></path><path d="M1002.666667 261.376H21.333333v139.136l490.666667 208.64 490.666667-208.64z" fill="#FFD217" p-id="25473"></path><path d="M1002.666667 261.376v96.917333l-490.666667 208.64-490.666667-208.64v-96.917333z" fill="#FFE20D" p-id="25474"></path><path d="M512 22.570667l512 217.706666-512 217.706667L0 240.277333z" fill="#FFB400" p-id="25475"></path><path d="M512 45.525333L54.016 240.277333 512 434.986667l457.962667-194.730667z" fill="#FFE20D" p-id="25476"></path><path d="M512 436.202667c5.888 0 10.666667 4.736 10.666667 10.56v544.917333a10.602667 10.602667 0 0 1-10.666667 10.56 10.602667 10.602667 0 0 1-10.666667-10.56V446.762667c0-5.824 4.778667-10.56 10.666667-10.56z" fill="#FFB400" p-id="25477"></path><path d="M448 218.496l96.704 46.378667L298.666667 360.874667v542.762666l-128-70.442666V283.818667z" fill="#CF411C" p-id="25478"></path><path d="M445.504 240.768L192 300.501333v520.256l85.333333 46.976V346.496l214.272-83.626667z" fill="#FC5965" p-id="25479"></path><path d="M587.370667 218.496L490.666667 264.874667l246.037333 96v538.304l128-70.442667V283.818667z" fill="#CF411C" p-id="25480"></path><path d="M589.866667 240.768l253.504 59.733333v515.797334l-85.333334 46.976V346.496l-214.272-83.626667z" fill="#FC5965" p-id="25481"></path><path d="M715.114667 0C657.450667 0 580.266667 61.696 531.84 123.050667c-8.32 10.538667-12.181333 20.970667-11.882667 32 0.277333 9.344 3.306667 18.304 9.344 29.973333l16.170667 29.290667 1.002667 1.877333c2.496 4.842667 4.736 9.472 6.826666 14.186667l2.773334 6.336 50.346666 0.128 25.28-0.234667 16.064-0.384 7.765334-0.256 15.082666-0.64 14.421334-0.874667 6.976-0.512 13.461333-1.194666 12.8-1.408c64.490667-7.914667 102.826667-25.450667 114.048-59.328C855.701333 101.418667 788.053333 0 715.114667 0z" fill="#CF411C" p-id="25482"></path><path d="M715.114667 21.12c57.92 0 115.925333 86.954667 96.938666 144.32-8.213333 24.789333-44.8 39.04-105.450666 45.674667l-12.437334 1.216-13.077333 1.045333-13.717333 0.832-14.336 0.64-14.933334 0.469333a1256.533333 1256.533333 0 0 1-7.68 0.170667l-15.850666 0.213333-44.650667-0.106666-3.136-6.442667-2.389333-4.586667-16.106667-29.184c-4.693333-9.109333-6.826667-15.381333-6.997333-20.906666-0.170667-5.866667 1.962667-11.584 7.36-18.432C593.152 79.637333 666.410667 21.12 715.093333 21.12z" fill="#FC5965" p-id="25483"></path><path d="M300.522667 0c57.664 0 134.869333 61.696 183.274666 123.050667 8.32 10.538667 12.181333 20.970667 11.882667 32-0.277333 9.344-3.306667 18.304-9.344 29.973333l-16.170667 29.290667-1.002666 1.877333c-2.496 4.842667-4.736 9.472-6.826667 14.186667l-2.773333 6.336-50.346667 0.128-25.28-0.234667-16.042667-0.384a1153.898667 1153.898667 0 0 1-7.786666-0.256l-15.082667-0.64-14.421333-0.874667-6.976-0.512-13.44-1.194666-12.821334-1.408c-64.490667-7.914667-102.826667-25.450667-114.048-59.328C159.936 101.418667 227.626667 0 300.522667 0z" fill="#CF411C" p-id="25484"></path><path d="M300.522667 21.12c-57.92 0-115.925333 86.954667-96.938667 144.32 8.213333 24.789333 44.8 39.04 105.450667 45.674667l12.437333 1.216 13.077333 1.045333 13.717334 0.832 14.336 0.64 14.933333 0.469333 7.68 0.170667 15.850667 0.213333 44.650666-0.106666 3.157334-6.442667 2.368-4.586667 16.106666-29.184c4.714667-9.109333 6.826667-15.381333 6.997334-20.906666 0.170667-5.866667-1.962667-11.584-7.36-18.432C422.485333 79.637333 349.226667 21.12 300.522667 21.12z" fill="#FC5965" p-id="25485"></path><path d="M512 109.653333c35.349333 0 64 28.373333 64 63.36v47.466667c0 34.986667-28.650667 63.338667-64 63.338667s-64-28.373333-64-63.36V173.013333c0-34.986667 28.650667-63.338667 64-63.338666z" fill="#CF411C" p-id="25486"></path><path d="M512 130.773333a42.496 42.496 0 0 0-42.56 39.061334L469.333333 173.013333v47.488a42.453333 42.453333 0 0 0 42.666667 42.24 42.496 42.496 0 0 0 42.56-39.104l0.106667-3.136V172.992a42.453333 42.453333 0 0 0-42.666667-42.24z" fill="#FC5965" p-id="25487"></path></svg>