<?xml version="1.0" encoding="utf-8"?>
<svg version="1.1" xmlns:xlink="http://www.w3.org/1999/xlink" width="56px" height="49px" xmlns="http://www.w3.org/2000/svg">
  <defs>
    <pattern id="BGPattern" patternUnits="userSpaceOnUse" alignment="0 0" imageRepeat="None" />
    <mask fill="white" id="Clip5014">
      <path d="M 23.158749999999998 21.319999999999993  L 23.158750000000005 21.318749999999994  L 22.60125 24.043750000000003  L 30.07125 24.043750000000003  C 32.0225 24.002499999999998  32.347500000000004 23.20125  32.951249999999995 21.194999999999993  L 35.25625 10.277500000000003  L 17.353749999999998 10.277500000000003  L 14.3125 26.269999999999996  C 14.0375 28.068749999999994  14.8475 28.97  16.735 29  L 31.685000000000002 29  L 35.2 26  L 21.11375 26  C 20.051249999999996 26.745000000000005  19.7 26.118750000000006  20.05375 24.92  L 22.46125 12.752499999999998  L 29.284999999999997 12.752499999999998  L 27.763749999999998 20.069999999999993  C 27.39 21.102500000000006  27.026249999999997 21.26375  25.87625 21.319999999999993  L 23.158749999999998 21.319999999999993  Z M 12.3575 26.417500000000004  L 14.145 12.835000000000008  L 15.48125 12.536249999999995  L 16.347499999999997 8.57875  L 15.013749999999998 8.877499999999998  L 15.544999999999998 5.045000000000002  L 16.7825 5.045000000000002  L 17.195 2.164999999999992  L 15.95625 2.164999999999992  L 16.3675 0.24875000000000116  L 10.19 0.24875000000000116  L 9.7775 2.164999999999992  L 6.0687500000000005 2.164999999999992  L 5.654999999999999 5.045000000000002  L 9.365000000000002 5.045000000000002  L 8.54 10.802499999999995  L 4.64375 11.876249999999999  L 3.7799999999999994 15.833749999999997  L 7.67375 14.784999999999995  L 6.405 24.918750000000003  C 6.393750000000001 26.117500000000007  5.93125 26.618750000000006  5.0175 26.417500000000004  L 2.44125 26.417500000000004  L 0.2549999999999999 28.96875  L 9.52375 28.96875  C 11.29625 29.166250000000005  12.243749999999999 28.317499999999995  12.3575 26.417500000000004  Z M 33.07625 0.24875000000000116  L 21.47 0.24875000000000116  L 17.732499999999998 9.021249999999995  L 22.675 9.021249999999995  L 25.78 3.126249999999999  L 28.13375 3.126249999999999  L 29.55625 9.021249999999995  L 35.1625 9.021249999999995  L 33.07625 0.24875000000000116  Z " fill-rule="evenodd" />
    </mask>
  </defs>
  <g transform="matrix(1 0 0 1 -154 -4128 )">
    <path d="M 23.158749999999998 21.319999999999993  L 23.158750000000005 21.318749999999994  L 22.60125 24.043750000000003  L 30.07125 24.043750000000003  C 32.0225 24.002499999999998  32.347500000000004 23.20125  32.951249999999995 21.194999999999993  L 35.25625 10.277500000000003  L 17.353749999999998 10.277500000000003  L 14.3125 26.269999999999996  C 14.0375 28.068749999999994  14.8475 28.97  16.735 29  L 31.685000000000002 29  L 35.2 26  L 21.11375 26  C 20.051249999999996 26.745000000000005  19.7 26.118750000000006  20.05375 24.92  L 22.46125 12.752499999999998  L 29.284999999999997 12.752499999999998  L 27.763749999999998 20.069999999999993  C 27.39 21.102500000000006  27.026249999999997 21.26375  25.87625 21.319999999999993  L 23.158749999999998 21.319999999999993  Z M 12.3575 26.417500000000004  L 14.145 12.835000000000008  L 15.48125 12.536249999999995  L 16.347499999999997 8.57875  L 15.013749999999998 8.877499999999998  L 15.544999999999998 5.045000000000002  L 16.7825 5.045000000000002  L 17.195 2.164999999999992  L 15.95625 2.164999999999992  L 16.3675 0.24875000000000116  L 10.19 0.24875000000000116  L 9.7775 2.164999999999992  L 6.0687500000000005 2.164999999999992  L 5.654999999999999 5.045000000000002  L 9.365000000000002 5.045000000000002  L 8.54 10.802499999999995  L 4.64375 11.876249999999999  L 3.7799999999999994 15.833749999999997  L 7.67375 14.784999999999995  L 6.405 24.918750000000003  C 6.393750000000001 26.117500000000007  5.93125 26.618750000000006  5.0175 26.417500000000004  L 2.44125 26.417500000000004  L 0.2549999999999999 28.96875  L 9.52375 28.96875  C 11.29625 29.166250000000005  12.243749999999999 28.317499999999995  12.3575 26.417500000000004  Z M 33.07625 0.24875000000000116  L 21.47 0.24875000000000116  L 17.732499999999998 9.021249999999995  L 22.675 9.021249999999995  L 25.78 3.126249999999999  L 28.13375 3.126249999999999  L 29.55625 9.021249999999995  L 35.1625 9.021249999999995  L 33.07625 0.24875000000000116  Z " fill-rule="nonzero" fill="rgba(255, 255, 255, 1)" stroke="none" transform="matrix(1 0 0 1 164 4138 )" class="fill" />
    <path d="M 23.158749999999998 21.319999999999993  L 23.158750000000005 21.318749999999994  L 22.60125 24.043750000000003  L 30.07125 24.043750000000003  C 32.0225 24.002499999999998  32.347500000000004 23.20125  32.951249999999995 21.194999999999993  L 35.25625 10.277500000000003  L 17.353749999999998 10.277500000000003  L 14.3125 26.269999999999996  C 14.0375 28.068749999999994  14.8475 28.97  16.735 29  L 31.685000000000002 29  L 35.2 26  L 21.11375 26  C 20.051249999999996 26.745000000000005  19.7 26.118750000000006  20.05375 24.92  L 22.46125 12.752499999999998  L 29.284999999999997 12.752499999999998  L 27.763749999999998 20.069999999999993  C 27.39 21.102500000000006  27.026249999999997 21.26375  25.87625 21.319999999999993  L 23.158749999999998 21.319999999999993  Z " stroke-width="0" stroke-dasharray="0" stroke="rgba(255, 255, 255, 0)" fill="none" transform="matrix(1 0 0 1 164 4138 )" class="stroke" mask="url(#Clip5014)" />
    <path d="M 12.3575 26.417500000000004  L 14.145 12.835000000000008  L 15.48125 12.536249999999995  L 16.347499999999997 8.57875  L 15.013749999999998 8.877499999999998  L 15.544999999999998 5.045000000000002  L 16.7825 5.045000000000002  L 17.195 2.164999999999992  L 15.95625 2.164999999999992  L 16.3675 0.24875000000000116  L 10.19 0.24875000000000116  L 9.7775 2.164999999999992  L 6.0687500000000005 2.164999999999992  L 5.654999999999999 5.045000000000002  L 9.365000000000002 5.045000000000002  L 8.54 10.802499999999995  L 4.64375 11.876249999999999  L 3.7799999999999994 15.833749999999997  L 7.67375 14.784999999999995  L 6.405 24.918750000000003  C 6.393750000000001 26.117500000000007  5.93125 26.618750000000006  5.0175 26.417500000000004  L 2.44125 26.417500000000004  L 0.2549999999999999 28.96875  L 9.52375 28.96875  C 11.29625 29.166250000000005  12.243749999999999 28.317499999999995  12.3575 26.417500000000004  Z " stroke-width="0" stroke-dasharray="0" stroke="rgba(255, 255, 255, 0)" fill="none" transform="matrix(1 0 0 1 164 4138 )" class="stroke" mask="url(#Clip5014)" />
    <path d="M 33.07625 0.24875000000000116  L 21.47 0.24875000000000116  L 17.732499999999998 9.021249999999995  L 22.675 9.021249999999995  L 25.78 3.126249999999999  L 28.13375 3.126249999999999  L 29.55625 9.021249999999995  L 35.1625 9.021249999999995  L 33.07625 0.24875000000000116  Z " stroke-width="0" stroke-dasharray="0" stroke="rgba(255, 255, 255, 0)" fill="none" transform="matrix(1 0 0 1 164 4138 )" class="stroke" mask="url(#Clip5014)" />
  </g>
  <style>svg { filter: drop-shadow(0px 0px 5px rgba(0, 0, 0, 0.3137254901960784)); }</style>
</svg>