<?xml version="1.0" encoding="utf-8"?>
<svg version="1.1" xmlns:xlink="http://www.w3.org/1999/xlink" width="224px" height="274px" xmlns="http://www.w3.org/2000/svg">
  <defs>
    <linearGradient gradientUnits="userSpaceOnUse" x1="0" y1="0" x2="224" y2="274" id="LinearGradient2054">
      <stop id="Stop2055" stop-color="#d9001b" stop-opacity="0.4980392156862745" offset="0" />
      <stop id="Stop2056" stop-color="#704a10" offset="1" />
    </linearGradient>
    <pattern id="BGPattern" patternUnits="userSpaceOnUse" alignment="0 0" imageRepeat="None" />
    <mask fill="white" id="Clip2057">
      <path d="M 0 269  L 0 5  C 0 2.1999999999999997  2.2 0  5 0  L 219 0  C 221.8 0  224 2.1999999999999997  224 5  L 224 269  C 224 271.8  221.8 274  219 274  L 5 274  C 2.2 274  0 271.8  0 269  Z " fill-rule="evenodd" />
    </mask>
  </defs>
  <g transform="matrix(1 0 0 1 -72 -3990 )">
    <path d="M 0 269  L 0 5  C 0 2.1999999999999997  2.2 0  5 0  L 219 0  C 221.8 0  224 2.1999999999999997  224 5  L 224 269  C 224 271.8  221.8 274  219 274  L 5 274  C 2.2 274  0 271.8  0 269  Z " fill-rule="nonzero" fill="url(#LinearGradient2054)" stroke="none" transform="matrix(1 0 0 1 72 3990 )" class="fill" />
    <path d="M 0 269  L 0 5  C 0 2.1999999999999997  2.2 0  5 0  L 219 0  C 221.8 0  224 2.1999999999999997  224 5  L 224 269  C 224 271.8  221.8 274  219 274  L 5 274  C 2.2 274  0 271.8  0 269  Z " stroke-width="0" stroke-dasharray="0" stroke="rgba(121, 121, 121, 1)" fill="none" transform="matrix(1 0 0 1 72 3990 )" class="stroke" mask="url(#Clip2057)" />
  </g>
</svg>