<?xml version="1.0" encoding="utf-8"?>
<svg version="1.1" xmlns:xlink="http://www.w3.org/1999/xlink" width="60px" height="26px" xmlns="http://www.w3.org/2000/svg">
  <defs>
    <linearGradient gradientUnits="userSpaceOnUse" x1="0" y1="0" x2="60" y2="26" id="LinearGradient13014">
      <stop id="Stop13015" stop-color="#d9001b" stop-opacity="0.4980392156862745" offset="0" />
      <stop id="Stop13016" stop-color="#704a10" stop-opacity="0.4980392156862745" offset="1" />
    </linearGradient>
    <pattern id="BGPattern" patternUnits="userSpaceOnUse" alignment="0 0" imageRepeat="None" />
    <mask fill="white" id="Clip13017">
      <path d="M 13 26  C 5.72 26  0 20.28  0 13  C 0 5.719999999999999  5.72 0  13 0  L 47 0  C 54.28 0  60 5.719999999999999  60 13  C 60 20.28  54.28 26  47 26  L 13 26  Z " fill-rule="evenodd" />
    </mask>
  </defs>
  <g transform="matrix(1 0 0 1 -972 -3954 )">
    <path d="M 13 26  C 5.72 26  0 20.28  0 13  C 0 5.719999999999999  5.72 0  13 0  L 47 0  C 54.28 0  60 5.719999999999999  60 13  C 60 20.28  54.28 26  47 26  L 13 26  Z " fill-rule="nonzero" fill="url(#LinearGradient13014)" stroke="none" transform="matrix(1 0 0 1 972 3954 )" class="fill" />
    <path d="M 13 26  C 5.72 26  0 20.28  0 13  C 0 5.719999999999999  5.72 0  13 0  L 47 0  C 54.28 0  60 5.719999999999999  60 13  C 60 20.28  54.28 26  47 26  L 13 26  Z " stroke-width="0" stroke-dasharray="0" stroke="rgba(255, 255, 255, 1)" fill="none" transform="matrix(1 0 0 1 972 3954 )" class="stroke" mask="url(#Clip13017)" />
  </g>
</svg>