<?xml version="1.0" encoding="utf-8"?>
<svg version="1.1" xmlns:xlink="http://www.w3.org/1999/xlink" width="18px" height="18px" xmlns="http://www.w3.org/2000/svg">
  <defs>
    <pattern id="BGPattern" patternUnits="userSpaceOnUse" alignment="0 0" imageRepeat="None" />
    <mask fill="white" id="Clip4251">
      <path d="M 0.25 9  C 0.25 13.832491561019443  4.167508438980557 17.75  9 17.75  C 13.832491561019443 17.75  17.75 13.832491561019443  17.75 9  C 17.75 4.167508438980557  13.832491561019443 0.24999999999999956  9 0.24999999999999956  C 4.167508438980557 0.24999999999999956  0.24999999999999956 4.167508438980557  0.24999999999999956 9  Z " fill-rule="evenodd" />
    </mask>
  </defs>
  <g transform="matrix(1 0 0 1 -264 -427 )">
    <path d="M 0.25 9  C 0.25 13.832491561019443  4.167508438980557 17.75  9 17.75  C 13.832491561019443 17.75  17.75 13.832491561019443  17.75 9  C 17.75 4.167508438980557  13.832491561019443 0.24999999999999956  9 0.24999999999999956  C 4.167508438980557 0.24999999999999956  0.24999999999999956 4.167508438980557  0.24999999999999956 9  Z " fill-rule="nonzero" fill="rgba(121, 121, 121, 1)" stroke="none" transform="matrix(1 0 0 1 264 427 )" class="fill" />
    <path d="M 0.25 9  C 0.25 13.832491561019443  4.167508438980557 17.75  9 17.75  C 13.832491561019443 17.75  17.75 13.832491561019443  17.75 9  C 17.75 4.167508438980557  13.832491561019443 0.24999999999999956  9 0.24999999999999956  C 4.167508438980557 0.24999999999999956  0.24999999999999956 4.167508438980557  0.24999999999999956 9  Z " stroke-width="0" stroke-dasharray="0" stroke="rgba(255, 255, 255, 0)" fill="none" transform="matrix(1 0 0 1 264 427 )" class="stroke" mask="url(#Clip4251)" />
  </g>
</svg>