<?xml version="1.0" encoding="utf-8"?>
<svg version="1.1" xmlns:xlink="http://www.w3.org/1999/xlink" width="37px" height="35px" xmlns="http://www.w3.org/2000/svg">
  <defs>
    <linearGradient gradientUnits="userSpaceOnUse" x1="23.271052631579057" y1="14.092105263158246" x2="6.572520305780927E-14" y2="35.00000000000025" id="LinearGradient6723">
      <stop id="Stop6724" stop-color="#8400ff" offset="0" />
      <stop id="Stop6725" stop-color="#ff4025" offset="1" />
    </linearGradient>
    <pattern id="BGPattern" patternUnits="userSpaceOnUse" alignment="0 0" imageRepeat="None" />
    <mask fill="white" id="Clip6726">
      <path d="M 28.10374615069615 21.913066502866506  L 35.60567399672399 15.329374610974615  C 35.95567133033589 15.000427211155468  36.154167877810295 14.541463111701635  36.154167877810295 14.061146002508963  C 36.154167877810295 13.164105969968414  35.47237614940266 12.414001216744843  34.57941027846027 12.328603480753483  L 24.61685008190008 11.3923628992629  C 23.98237362616088 11.330612856727518  23.43339184987994 10.924643137300958  23.188483005733 10.336091441441443  L 19.635569983619988 1.693870556920558  C 19.375992624208397 1.0482483750929976  18.75001444666469 0.625249145792564  18.054163595413595 0.625249145792564  C 17.3583127441625 0.625249145792564  16.732334566618796 1.0482483750929994  16.472757207207206 1.693870556920558  L 12.931847256347256 10.336091441441443  C 12.695747222211716 10.928926272783343  12.145257983427566 11.337728414400765  11.509481736281735 11.3923628992629  L 1.552923095823096 12.334605036855038  C 0.6723543898457905 12.418913860277767  7.218930202948575E-05 13.15863710476501  7.218930202948575E-05 14.04323261891454  C 7.218930202948575E-05 14.538396696081534  0.21391332219833523 15.009436966012927  0.5866747747747748 15.335376167076166  L 8.082601105651104 21.937072686322686  C 8.56214385405177 22.355206547353397  8.772134303760295 23.00363860677409  8.628741441441441 23.62350606060606  L 6.372161547911547 32.83587346437346  C 6.341964303030461 32.964711557216646  6.326714794230757 33.09660038742011  6.326714794230757 33.228930005291076  C 6.326714794230757 34.18020880174217  7.097878626772298 34.951372634283715  8.049157423223386 34.951372634283715  C 8.351679677415358 34.951372634283715  8.648866109751395 34.8716953006864  8.910813923013922 34.72035773955774  L 16.712818877968875 30.129177886977885  C 19.629568427518432 27.818584111384112  19.557549918099916 25.003860769860765  19.035415765765762 24.085624815724813  C 18.435261547911548 23.04735798525798  17.63105487305487 22.60324385749385  16.87486052416052 22.993344103194104  C 16.11866617526617 23.383444348894344  16.070653849303845 23.743536895986892  16.070653849303845 23.743536895986892  C 16.29285966014422 23.608971072403335  16.547674728917624 23.537828501426652  16.807450369130382 23.537828501426652  C 17.593001154547714 23.537828501426652  18.2298158891959 24.174643236074836  18.2298158891959 24.96019402149217  C 18.2298158891959 25.486216111820383  17.939503173079707 25.9692923126685  17.47501474201474 26.21617231777232  C 17.47501474201474 26.21617231777232  15.824590622440619 27.24243603603604  14.71430532350532 25.279931736281736  C 13.604020024570021 23.31742743652744  15.476501187551182 21.86505417690418  15.878604504504501 21.64299709254709  C 16.35292862169554 21.40634340879049  16.87575963591877 21.2831564629534  17.405842963504746 21.2831564629534  C 18.734945200198982 21.2831564629534  19.943741979611378 22.052998939237995  20.505793611793607 23.257411957411954  C 21.64608665028664 25.26792862407862  21.177966339066334 27.88460106470106  19.341494389844385 30.075164004914  L 27.251527149877152 34.72035773955774  C 27.51541670247275 34.875702325970664  27.816059713705016 34.95762237928018  28.122277996139147 34.95762237928018  C 29.070242224680086 34.95762237928018  29.838719069030223 34.18914553493005  29.838719069030223 33.24118130638911  C 29.838719069030223 33.104628877463355  29.822424016890146 32.96856430274201  29.790179524979518 32.83587346437346  L 27.563607330057327 23.59949987714988  C 27.41739584435979 22.98070260476952  27.625237302754115 22.331775405681384  28.10374615069615 21.913066502866506  Z " fill-rule="evenodd" />
    </mask>
  </defs>
  <g transform="matrix(1 0 0 1 -938 -228 )">
    <path d="M 28.10374615069615 21.913066502866506  L 35.60567399672399 15.329374610974615  C 35.95567133033589 15.000427211155468  36.154167877810295 14.541463111701635  36.154167877810295 14.061146002508963  C 36.154167877810295 13.164105969968414  35.47237614940266 12.414001216744843  34.57941027846027 12.328603480753483  L 24.61685008190008 11.3923628992629  C 23.98237362616088 11.330612856727518  23.43339184987994 10.924643137300958  23.188483005733 10.336091441441443  L 19.635569983619988 1.693870556920558  C 19.375992624208397 1.0482483750929976  18.75001444666469 0.625249145792564  18.054163595413595 0.625249145792564  C 17.3583127441625 0.625249145792564  16.732334566618796 1.0482483750929994  16.472757207207206 1.693870556920558  L 12.931847256347256 10.336091441441443  C 12.695747222211716 10.928926272783343  12.145257983427566 11.337728414400765  11.509481736281735 11.3923628992629  L 1.552923095823096 12.334605036855038  C 0.6723543898457905 12.418913860277767  7.218930202948575E-05 13.15863710476501  7.218930202948575E-05 14.04323261891454  C 7.218930202948575E-05 14.538396696081534  0.21391332219833523 15.009436966012927  0.5866747747747748 15.335376167076166  L 8.082601105651104 21.937072686322686  C 8.56214385405177 22.355206547353397  8.772134303760295 23.00363860677409  8.628741441441441 23.62350606060606  L 6.372161547911547 32.83587346437346  C 6.341964303030461 32.964711557216646  6.326714794230757 33.09660038742011  6.326714794230757 33.228930005291076  C 6.326714794230757 34.18020880174217  7.097878626772298 34.951372634283715  8.049157423223386 34.951372634283715  C 8.351679677415358 34.951372634283715  8.648866109751395 34.8716953006864  8.910813923013922 34.72035773955774  L 16.712818877968875 30.129177886977885  C 19.629568427518432 27.818584111384112  19.557549918099916 25.003860769860765  19.035415765765762 24.085624815724813  C 18.435261547911548 23.04735798525798  17.63105487305487 22.60324385749385  16.87486052416052 22.993344103194104  C 16.11866617526617 23.383444348894344  16.070653849303845 23.743536895986892  16.070653849303845 23.743536895986892  C 16.29285966014422 23.608971072403335  16.547674728917624 23.537828501426652  16.807450369130382 23.537828501426652  C 17.593001154547714 23.537828501426652  18.2298158891959 24.174643236074836  18.2298158891959 24.96019402149217  C 18.2298158891959 25.486216111820383  17.939503173079707 25.9692923126685  17.47501474201474 26.21617231777232  C 17.47501474201474 26.21617231777232  15.824590622440619 27.24243603603604  14.71430532350532 25.279931736281736  C 13.604020024570021 23.31742743652744  15.476501187551182 21.86505417690418  15.878604504504501 21.64299709254709  C 16.35292862169554 21.40634340879049  16.87575963591877 21.2831564629534  17.405842963504746 21.2831564629534  C 18.734945200198982 21.2831564629534  19.943741979611378 22.052998939237995  20.505793611793607 23.257411957411954  C 21.64608665028664 25.26792862407862  21.177966339066334 27.88460106470106  19.341494389844385 30.075164004914  L 27.251527149877152 34.72035773955774  C 27.51541670247275 34.875702325970664  27.816059713705016 34.95762237928018  28.122277996139147 34.95762237928018  C 29.070242224680086 34.95762237928018  29.838719069030223 34.18914553493005  29.838719069030223 33.24118130638911  C 29.838719069030223 33.104628877463355  29.822424016890146 32.96856430274201  29.790179524979518 32.83587346437346  L 27.563607330057327 23.59949987714988  C 27.41739584435979 22.98070260476952  27.625237302754115 22.331775405681384  28.10374615069615 21.913066502866506  Z " fill-rule="nonzero" fill="url(#LinearGradient6723)" stroke="none" transform="matrix(1 0 0 1 938 228 )" class="fill" />
    <path d="M 28.10374615069615 21.913066502866506  L 35.60567399672399 15.329374610974615  C 35.95567133033589 15.000427211155468  36.154167877810295 14.541463111701635  36.154167877810295 14.061146002508963  C 36.154167877810295 13.164105969968414  35.47237614940266 12.414001216744843  34.57941027846027 12.328603480753483  L 24.61685008190008 11.3923628992629  C 23.98237362616088 11.330612856727518  23.43339184987994 10.924643137300958  23.188483005733 10.336091441441443  L 19.635569983619988 1.693870556920558  C 19.375992624208397 1.0482483750929976  18.75001444666469 0.625249145792564  18.054163595413595 0.625249145792564  C 17.3583127441625 0.625249145792564  16.732334566618796 1.0482483750929994  16.472757207207206 1.693870556920558  L 12.931847256347256 10.336091441441443  C 12.695747222211716 10.928926272783343  12.145257983427566 11.337728414400765  11.509481736281735 11.3923628992629  L 1.552923095823096 12.334605036855038  C 0.6723543898457905 12.418913860277767  7.218930202948575E-05 13.15863710476501  7.218930202948575E-05 14.04323261891454  C 7.218930202948575E-05 14.538396696081534  0.21391332219833523 15.009436966012927  0.5866747747747748 15.335376167076166  L 8.082601105651104 21.937072686322686  C 8.56214385405177 22.355206547353397  8.772134303760295 23.00363860677409  8.628741441441441 23.62350606060606  L 6.372161547911547 32.83587346437346  C 6.341964303030461 32.964711557216646  6.326714794230757 33.09660038742011  6.326714794230757 33.228930005291076  C 6.326714794230757 34.18020880174217  7.097878626772298 34.951372634283715  8.049157423223386 34.951372634283715  C 8.351679677415358 34.951372634283715  8.648866109751395 34.8716953006864  8.910813923013922 34.72035773955774  L 16.712818877968875 30.129177886977885  C 19.629568427518432 27.818584111384112  19.557549918099916 25.003860769860765  19.035415765765762 24.085624815724813  C 18.435261547911548 23.04735798525798  17.63105487305487 22.60324385749385  16.87486052416052 22.993344103194104  C 16.11866617526617 23.383444348894344  16.070653849303845 23.743536895986892  16.070653849303845 23.743536895986892  C 16.29285966014422 23.608971072403335  16.547674728917624 23.537828501426652  16.807450369130382 23.537828501426652  C 17.593001154547714 23.537828501426652  18.2298158891959 24.174643236074836  18.2298158891959 24.96019402149217  C 18.2298158891959 25.486216111820383  17.939503173079707 25.9692923126685  17.47501474201474 26.21617231777232  C 17.47501474201474 26.21617231777232  15.824590622440619 27.24243603603604  14.71430532350532 25.279931736281736  C 13.604020024570021 23.31742743652744  15.476501187551182 21.86505417690418  15.878604504504501 21.64299709254709  C 16.35292862169554 21.40634340879049  16.87575963591877 21.2831564629534  17.405842963504746 21.2831564629534  C 18.734945200198982 21.2831564629534  19.943741979611378 22.052998939237995  20.505793611793607 23.257411957411954  C 21.64608665028664 25.26792862407862  21.177966339066334 27.88460106470106  19.341494389844385 30.075164004914  L 27.251527149877152 34.72035773955774  C 27.51541670247275 34.875702325970664  27.816059713705016 34.95762237928018  28.122277996139147 34.95762237928018  C 29.070242224680086 34.95762237928018  29.838719069030223 34.18914553493005  29.838719069030223 33.24118130638911  C 29.838719069030223 33.104628877463355  29.822424016890146 32.96856430274201  29.790179524979518 32.83587346437346  L 27.563607330057327 23.59949987714988  C 27.41739584435979 22.98070260476952  27.625237302754115 22.331775405681384  28.10374615069615 21.913066502866506  Z " stroke-width="0" stroke-dasharray="0" stroke="rgba(255, 255, 255, 0)" fill="none" transform="matrix(1 0 0 1 938 228 )" class="stroke" mask="url(#Clip6726)" />
  </g>
</svg>