<?xml version="1.0" encoding="utf-8"?>
<svg version="1.1" xmlns:xlink="http://www.w3.org/1999/xlink" width="10px" height="7px" xmlns="http://www.w3.org/2000/svg">
  <defs>
    <pattern id="BGPattern" patternUnits="userSpaceOnUse" alignment="0 0" imageRepeat="None" />
    <mask fill="white" id="Clip1587">
      <path d="M 0.8333333398437492 3.125  C 0.8333333398437492 3.125  0.7916666796874994 2.541666660156249  1.375 2.416666660156249  L 3.5 4.5  C 3.5 4.5  3.625 4.541666660156249  3.75 4.5  L 8.95833333984375 0.5  C 8.95833333984375 0.5  9.70833333984375 0.33333333984374924  9.541666660156249 1.125  C 9.041666660156249 1.625  3.916666660156249 6.208333339843749  3.916666660156249 6.208333339843749  C 3.916666660156249 6.208333339843749  3.5833333203124997 6.4166666796874985  3.25 6.208333339843749  C 2.9583333398437492 5.9166666796875  0.8333333398437492 3.125  0.8333333398437492 3.125  Z " fill-rule="evenodd" />
    </mask>
  </defs>
  <g transform="matrix(1 0 0 1 -268 -433 )">
    <path d="M 0.8333333398437492 3.125  C 0.8333333398437492 3.125  0.7916666796874994 2.541666660156249  1.375 2.416666660156249  L 3.5 4.5  C 3.5 4.5  3.625 4.541666660156249  3.75 4.5  L 8.95833333984375 0.5  C 8.95833333984375 0.5  9.70833333984375 0.33333333984374924  9.541666660156249 1.125  C 9.041666660156249 1.625  3.916666660156249 6.208333339843749  3.916666660156249 6.208333339843749  C 3.916666660156249 6.208333339843749  3.5833333203124997 6.4166666796874985  3.25 6.208333339843749  C 2.9583333398437492 5.9166666796875  0.8333333398437492 3.125  0.8333333398437492 3.125  Z " fill-rule="nonzero" fill="rgba(255, 255, 255, 1)" stroke="none" transform="matrix(1 0 0 1 268 433 )" class="fill" />
    <path d="M 0.8333333398437492 3.125  C 0.8333333398437492 3.125  0.7916666796874994 2.541666660156249  1.375 2.416666660156249  L 3.5 4.5  C 3.5 4.5  3.625 4.541666660156249  3.75 4.5  L 8.95833333984375 0.5  C 8.95833333984375 0.5  9.70833333984375 0.33333333984374924  9.541666660156249 1.125  C 9.041666660156249 1.625  3.916666660156249 6.208333339843749  3.916666660156249 6.208333339843749  C 3.916666660156249 6.208333339843749  3.5833333203124997 6.4166666796874985  3.25 6.208333339843749  C 2.9583333398437492 5.9166666796875  0.8333333398437492 3.125  0.8333333398437492 3.125  Z " stroke-width="0" stroke-dasharray="0" stroke="rgba(255, 255, 255, 0)" fill="none" transform="matrix(1 0 0 1 268 433 )" class="stroke" mask="url(#Clip1587)" />
  </g>
</svg>