<?xml version="1.0" encoding="utf-8"?>
<svg version="1.1" xmlns:xlink="http://www.w3.org/1999/xlink" width="17px" height="10px" xmlns="http://www.w3.org/2000/svg">
  <defs>
    <linearGradient gradientUnits="userSpaceOnUse" x1="10.692105263157945" y1="4.026315789473784" x2="3.019806626980426E-14" y2="10.000000000000071" id="LinearGradient323">
      <stop id="Stop324" stop-color="#8400ff" offset="0" />
      <stop id="Stop325" stop-color="#ff4025" offset="1" />
    </linearGradient>
    <pattern id="BGPattern" patternUnits="userSpaceOnUse" alignment="0 0" imageRepeat="None" />
    <mask fill="white" id="Clip326">
      <path d="M 3.970281654381651 4.155989312039313  C 3.992389344309082 4.180308818871447  4.012461971111414 4.206403250149757  4.030297051597046 4.234009377559378  L 4.20434180999181 3.531828910728912  C 4.255496555918874 3.2746694505657015  4.166403088518592 3.0096735014426805  3.970281654381651 2.835650000000001  L 0.9214981572481591 0.12895446355446438  C 0.6732264866822959 0.2546467903738652  0.5167359648439458 0.5092758114818512  0.5167359648439458 0.7875515442126044  C 0.5167359648439458 0.9932134190631814  0.6025325760487661 1.1895516615194914  0.7534549959049954 1.3292628992629005  L 3.970281654381651 4.155989312039313  Z M 16.030413708065566 0.812979818745605  C 16.030413708065566 0.5230309528261934  15.86332622593649 0.25904140350256455  15.601270597870602 0.1349559787059782  L 12.564490212940214 2.835650000000001  C 12.35772603846106 3.0155020182691743  12.267609696727199 3.2950937504424953  12.330430057330062 3.5618366502866508  L 12.498473218673226 4.270018632268632  L 12.564490212940221 4.198000122850123  L 15.781316871416877 1.3712737100737105  C 15.9398494236397 1.228983023985272  16.030413708065566 1.0260037832702515  16.030413708065566 0.812979818745605  Z M 13.284675266175263 8.8371923013923  L 13.116632063882058 8.153016461916465  C 12.884966259579876 8.419223248763515  12.496374978121878 8.482306256602634  12.192394553644547 8.303055036855039  L 8.621476904176902 6.208516789516789  C 8.390896439450223 6.076805466857174  8.107866132212337 6.076805466857174  7.8772856674856655 6.208516789516789  L 4.318371089271089 8.303055036855035  C 4.014846859100366 8.480022957533045  3.628163353476367 8.414312037826463  3.4001351351351374 8.147014946764948  L 3.220088861588863 8.8371923013923  C 3.2073145132080043 8.892066229033123  3.2008643457213495 8.94822222553164  3.2008643457213495 9.004563435238975  C 3.2008643457213495 9.412254338311119  3.531363123238883 9.742753115828656  3.939054026311034 9.742753115828656  C 4.070289624392856 9.742753115828656  4.199152747466769 9.707767134024849  4.312369574119572 9.641398976248976  L 7.8712841113841066 7.5528622440622435  C 8.100128418582031 7.41476590787509  8.386631081827467 7.41476590787509  8.615475389025384 7.5528622440622435  L 12.222402293202293 9.659403603603607  C 12.328377761171865 9.715150281987441  12.446323789392636 9.744279871951523  12.566067231643977 9.744279871951523  C 12.973758134716121 9.744279871951523  13.304256912233654 9.413781094433986  13.304256912233654 9.006090191361842  C 13.304256912233654 8.949224596695764  13.297686121248837 8.892549446432312  13.284675266175263 8.8371923013923  Z " fill-rule="evenodd" />
    </mask>
  </defs>
  <g transform="matrix(1 0 0 1 -972 -226 )">
    <path d="M 3.970281654381651 4.155989312039313  C 3.992389344309082 4.180308818871447  4.012461971111414 4.206403250149757  4.030297051597046 4.234009377559378  L 4.20434180999181 3.531828910728912  C 4.255496555918874 3.2746694505657015  4.166403088518592 3.0096735014426805  3.970281654381651 2.835650000000001  L 0.9214981572481591 0.12895446355446438  C 0.6732264866822959 0.2546467903738652  0.5167359648439458 0.5092758114818512  0.5167359648439458 0.7875515442126044  C 0.5167359648439458 0.9932134190631814  0.6025325760487661 1.1895516615194914  0.7534549959049954 1.3292628992629005  L 3.970281654381651 4.155989312039313  Z M 16.030413708065566 0.812979818745605  C 16.030413708065566 0.5230309528261934  15.86332622593649 0.25904140350256455  15.601270597870602 0.1349559787059782  L 12.564490212940214 2.835650000000001  C 12.35772603846106 3.0155020182691743  12.267609696727199 3.2950937504424953  12.330430057330062 3.5618366502866508  L 12.498473218673226 4.270018632268632  L 12.564490212940221 4.198000122850123  L 15.781316871416877 1.3712737100737105  C 15.9398494236397 1.228983023985272  16.030413708065566 1.0260037832702515  16.030413708065566 0.812979818745605  Z M 13.284675266175263 8.8371923013923  L 13.116632063882058 8.153016461916465  C 12.884966259579876 8.419223248763515  12.496374978121878 8.482306256602634  12.192394553644547 8.303055036855039  L 8.621476904176902 6.208516789516789  C 8.390896439450223 6.076805466857174  8.107866132212337 6.076805466857174  7.8772856674856655 6.208516789516789  L 4.318371089271089 8.303055036855035  C 4.014846859100366 8.480022957533045  3.628163353476367 8.414312037826463  3.4001351351351374 8.147014946764948  L 3.220088861588863 8.8371923013923  C 3.2073145132080043 8.892066229033123  3.2008643457213495 8.94822222553164  3.2008643457213495 9.004563435238975  C 3.2008643457213495 9.412254338311119  3.531363123238883 9.742753115828656  3.939054026311034 9.742753115828656  C 4.070289624392856 9.742753115828656  4.199152747466769 9.707767134024849  4.312369574119572 9.641398976248976  L 7.8712841113841066 7.5528622440622435  C 8.100128418582031 7.41476590787509  8.386631081827467 7.41476590787509  8.615475389025384 7.5528622440622435  L 12.222402293202293 9.659403603603607  C 12.328377761171865 9.715150281987441  12.446323789392636 9.744279871951523  12.566067231643977 9.744279871951523  C 12.973758134716121 9.744279871951523  13.304256912233654 9.413781094433986  13.304256912233654 9.006090191361842  C 13.304256912233654 8.949224596695764  13.297686121248837 8.892549446432312  13.284675266175263 8.8371923013923  Z " fill-rule="nonzero" fill="url(#LinearGradient323)" stroke="none" transform="matrix(1 0 0 1 972 226 )" class="fill" />
    <path d="M 3.970281654381651 4.155989312039313  C 3.992389344309082 4.180308818871447  4.012461971111414 4.206403250149757  4.030297051597046 4.234009377559378  L 4.20434180999181 3.531828910728912  C 4.255496555918874 3.2746694505657015  4.166403088518592 3.0096735014426805  3.970281654381651 2.835650000000001  L 0.9214981572481591 0.12895446355446438  C 0.6732264866822959 0.2546467903738652  0.5167359648439458 0.5092758114818512  0.5167359648439458 0.7875515442126044  C 0.5167359648439458 0.9932134190631814  0.6025325760487661 1.1895516615194914  0.7534549959049954 1.3292628992629005  L 3.970281654381651 4.155989312039313  Z " stroke-width="0" stroke-dasharray="0" stroke="rgba(255, 255, 255, 0)" fill="none" transform="matrix(1 0 0 1 972 226 )" class="stroke" mask="url(#Clip326)" />
    <path d="M 16.030413708065566 0.812979818745605  C 16.030413708065566 0.5230309528261934  15.86332622593649 0.25904140350256455  15.601270597870602 0.1349559787059782  L 12.564490212940214 2.835650000000001  C 12.35772603846106 3.0155020182691743  12.267609696727199 3.2950937504424953  12.330430057330062 3.5618366502866508  L 12.498473218673226 4.270018632268632  L 12.564490212940221 4.198000122850123  L 15.781316871416877 1.3712737100737105  C 15.9398494236397 1.228983023985272  16.030413708065566 1.0260037832702515  16.030413708065566 0.812979818745605  Z " stroke-width="0" stroke-dasharray="0" stroke="rgba(255, 255, 255, 0)" fill="none" transform="matrix(1 0 0 1 972 226 )" class="stroke" mask="url(#Clip326)" />
    <path d="M 13.284675266175263 8.8371923013923  L 13.116632063882058 8.153016461916465  C 12.884966259579876 8.419223248763515  12.496374978121878 8.482306256602634  12.192394553644547 8.303055036855039  L 8.621476904176902 6.208516789516789  C 8.390896439450223 6.076805466857174  8.107866132212337 6.076805466857174  7.8772856674856655 6.208516789516789  L 4.318371089271089 8.303055036855035  C 4.014846859100366 8.480022957533045  3.628163353476367 8.414312037826463  3.4001351351351374 8.147014946764948  L 3.220088861588863 8.8371923013923  C 3.2073145132080043 8.892066229033123  3.2008643457213495 8.94822222553164  3.2008643457213495 9.004563435238975  C 3.2008643457213495 9.412254338311119  3.531363123238883 9.742753115828656  3.939054026311034 9.742753115828656  C 4.070289624392856 9.742753115828656  4.199152747466769 9.707767134024849  4.312369574119572 9.641398976248976  L 7.8712841113841066 7.5528622440622435  C 8.100128418582031 7.41476590787509  8.386631081827467 7.41476590787509  8.615475389025384 7.5528622440622435  L 12.222402293202293 9.659403603603607  C 12.328377761171865 9.715150281987441  12.446323789392636 9.744279871951523  12.566067231643977 9.744279871951523  C 12.973758134716121 9.744279871951523  13.304256912233654 9.413781094433986  13.304256912233654 9.006090191361842  C 13.304256912233654 8.949224596695764  13.297686121248837 8.892549446432312  13.284675266175263 8.8371923013923  Z " stroke-width="0" stroke-dasharray="0" stroke="rgba(255, 255, 255, 0)" fill="none" transform="matrix(1 0 0 1 972 226 )" class="stroke" mask="url(#Clip326)" />
  </g>
</svg>