<?xml version="1.0" encoding="utf-8"?>
<svg version="1.1" xmlns:xlink="http://www.w3.org/1999/xlink" width="89px" height="35px" xmlns="http://www.w3.org/2000/svg">
  <defs>
    <linearGradient gradientUnits="userSpaceOnUse" x1="0" y1="0" x2="89" y2="35" id="LinearGradient4366">
      <stop id="Stop4367" stop-color="#d9001b" stop-opacity="0.4980392156862745" offset="0" />
      <stop id="Stop4368" stop-color="#704a10" offset="1" />
    </linearGradient>
    <pattern id="BGPattern" patternUnits="userSpaceOnUse" alignment="0 0" imageRepeat="None" />
    <mask fill="white" id="Clip4369">
      <path d="M 0 30.000000000000004  L 0 5  C 0 2.1999999999999997  2.1999999999999997 0  5 0  L 84 0  C 86.8 0  89 2.1999999999999997  89 5  L 89 30.000000000000004  C 89 32.800000000000004  86.8 35  84 35  L 5 35  C 2.1999999999999997 35  0 32.800000000000004  0 30.000000000000004  Z " fill-rule="evenodd" />
    </mask>
  </defs>
  <g transform="matrix(1 0 0 1 -533 -121 )">
    <path d="M 0 30.000000000000004  L 0 5  C 0 2.1999999999999997  2.1999999999999997 0  5 0  L 84 0  C 86.8 0  89 2.1999999999999997  89 5  L 89 30.000000000000004  C 89 32.800000000000004  86.8 35  84 35  L 5 35  C 2.1999999999999997 35  0 32.800000000000004  0 30.000000000000004  Z " fill-rule="nonzero" fill="url(#LinearGradient4366)" stroke="none" transform="matrix(1 0 0 1 533 121 )" class="fill" />
    <path d="M 0 30.000000000000004  L 0 5  C 0 2.1999999999999997  2.1999999999999997 0  5 0  L 84 0  C 86.8 0  89 2.1999999999999997  89 5  L 89 30.000000000000004  C 89 32.800000000000004  86.8 35  84 35  L 5 35  C 2.1999999999999997 35  0 32.800000000000004  0 30.000000000000004  Z " stroke-width="0" stroke-dasharray="0" stroke="rgba(121, 121, 121, 1)" fill="none" transform="matrix(1 0 0 1 533 121 )" class="stroke" mask="url(#Clip4369)" />
  </g>
</svg>