<?xml version="1.0" encoding="utf-8"?>
<svg version="1.1" xmlns:xlink="http://www.w3.org/1999/xlink" width="37px" height="23px" xmlns="http://www.w3.org/2000/svg">
  <defs>
    <linearGradient gradientUnits="userSpaceOnUse" x1="23.271052631579057" y1="9.260526315789704" x2="6.572520305780927E-14" y2="23.000000000000163" id="LinearGradient3208">
      <stop id="Stop3209" stop-color="#8400ff" offset="0" />
      <stop id="Stop3210" stop-color="#ff4025" offset="1" />
    </linearGradient>
    <pattern id="BGPattern" patternUnits="userSpaceOnUse" alignment="0 0" imageRepeat="None" />
    <mask fill="white" id="Clip3211">
      <path d="M 8.106607248157248 9.931071130221142  C 8.221664399400177 10.026002793702261  8.324478445393185 10.134864724753669  8.412685913185912 10.25515442260442  L 8.628741441441441 9.240893775593776  C 8.772516888448674 8.622808529165614  8.562279628191321 7.975924629623919  8.082601105651104 7.5604619164619145  L 0.6106809582309582 0.9767700655200643  C 0.5521543961447107 0.9452551477212374  0.5041603959316472 0.897261133270124  0.4726454954954955 0.8387345618345634  C 0.17565376804560628 1.1593708736190607  0.010657608166995262 1.580309023832282  0.010657608166995262 2.0173579119540044  C 0.010657608166995262 2.521077542238018  0.22964362367301053 2.9999144227781716  0.6106809582309582 3.3293746109746145  L 8.106607248157248 9.931071130221142  Z M 35.605673996724 3.3233730958231007  C 36.29609493305548 2.671163676681992  36.33355002591455 1.584965837731463  35.689695577395575 0.8867469287469305  L 35.60567399672399 0.9767700655200677  L 28.103746150696146 7.578466543816545  C 27.626259439454273 7.995270486659842  27.41840043322675 8.641942939973053  27.563607330057327 9.258898402948404  L 27.80967055692055 10.26715749385749  C 27.89249449078413 10.14089431170909  27.991344121366954 10.02590597126644  28.103746150696146 9.925069574119576  L 35.605673996724 3.3233730958231007  Z M 16.712818877968875 18.129177886977885  C 17.639821640112643 17.43073331528585  18.381623268445942 16.515844651120574  18.87337411957412 15.46449312039313  C 18.35160225860078 15.185201371970733  17.72229940418468 15.19656062429007  17.210946887796887 15.49450081900082  L 8.910813923013924 20.37375470925471  C 8.125113423461075 20.83560809500979  7.115104126576429 20.597647782376995  6.618224774774774 19.83361588861588  L 6.372161547911547 20.835873464373464  C 6.341964303030461 20.964711557216646  6.326714794230757 21.09660038742011  6.326714794230757 21.228930005291076  C 6.326714794230757 22.180208801742168  7.097878626772298 22.951372634283715  8.049157423223386 22.951372634283715  C 8.351679677415358 22.951372634283715  8.648866109751395 22.871695300686397  8.910813923013922 22.72035773955774  L 16.712818877968875 18.129177886977885  Z M 29.838719069030212 21.24118130638911  C 29.838719069030212 21.10462887746337  29.822424016890142 20.96856430274201  29.79017952497952 20.835873464373464  L 29.550117813267818 19.839617444717447  C 29.050980606069995 20.605041787481767  28.037028162889072 20.840659983012344  27.251527149877152 20.37375470925471  L 20.451779729729722 16.376727559377557  C 20.15233112583331 16.986031784593422  19.77946643323523 17.556413974119337  19.34149438984439 18.075164004914  L 27.251527149877155 22.72035773955774  C 27.515416702472752 22.875702325970664  27.816059713705016 22.95762237928018  28.122277996139143 22.95762237928018  C 29.070242224680086 22.95762237928018  29.838719069030212 22.18914553493005  29.838719069030212 21.24118130638911  Z " fill-rule="evenodd" />
    </mask>
  </defs>
  <g transform="matrix(1 0 0 1 -938 -240 )">
    <path d="M 8.106607248157248 9.931071130221142  C 8.221664399400177 10.026002793702261  8.324478445393185 10.134864724753669  8.412685913185912 10.25515442260442  L 8.628741441441441 9.240893775593776  C 8.772516888448674 8.622808529165614  8.562279628191321 7.975924629623919  8.082601105651104 7.5604619164619145  L 0.6106809582309582 0.9767700655200643  C 0.5521543961447107 0.9452551477212374  0.5041603959316472 0.897261133270124  0.4726454954954955 0.8387345618345634  C 0.17565376804560628 1.1593708736190607  0.010657608166995262 1.580309023832282  0.010657608166995262 2.0173579119540044  C 0.010657608166995262 2.521077542238018  0.22964362367301053 2.9999144227781716  0.6106809582309582 3.3293746109746145  L 8.106607248157248 9.931071130221142  Z M 35.605673996724 3.3233730958231007  C 36.29609493305548 2.671163676681992  36.33355002591455 1.584965837731463  35.689695577395575 0.8867469287469305  L 35.60567399672399 0.9767700655200677  L 28.103746150696146 7.578466543816545  C 27.626259439454273 7.995270486659842  27.41840043322675 8.641942939973053  27.563607330057327 9.258898402948404  L 27.80967055692055 10.26715749385749  C 27.89249449078413 10.14089431170909  27.991344121366954 10.02590597126644  28.103746150696146 9.925069574119576  L 35.605673996724 3.3233730958231007  Z M 16.712818877968875 18.129177886977885  C 17.639821640112643 17.43073331528585  18.381623268445942 16.515844651120574  18.87337411957412 15.46449312039313  C 18.35160225860078 15.185201371970733  17.72229940418468 15.19656062429007  17.210946887796887 15.49450081900082  L 8.910813923013924 20.37375470925471  C 8.125113423461075 20.83560809500979  7.115104126576429 20.597647782376995  6.618224774774774 19.83361588861588  L 6.372161547911547 20.835873464373464  C 6.341964303030461 20.964711557216646  6.326714794230757 21.09660038742011  6.326714794230757 21.228930005291076  C 6.326714794230757 22.180208801742168  7.097878626772298 22.951372634283715  8.049157423223386 22.951372634283715  C 8.351679677415358 22.951372634283715  8.648866109751395 22.871695300686397  8.910813923013922 22.72035773955774  L 16.712818877968875 18.129177886977885  Z M 29.838719069030212 21.24118130638911  C 29.838719069030212 21.10462887746337  29.822424016890142 20.96856430274201  29.79017952497952 20.835873464373464  L 29.550117813267818 19.839617444717447  C 29.050980606069995 20.605041787481767  28.037028162889072 20.840659983012344  27.251527149877152 20.37375470925471  L 20.451779729729722 16.376727559377557  C 20.15233112583331 16.986031784593422  19.77946643323523 17.556413974119337  19.34149438984439 18.075164004914  L 27.251527149877155 22.72035773955774  C 27.515416702472752 22.875702325970664  27.816059713705016 22.95762237928018  28.122277996139143 22.95762237928018  C 29.070242224680086 22.95762237928018  29.838719069030212 22.18914553493005  29.838719069030212 21.24118130638911  Z " fill-rule="nonzero" fill="url(#LinearGradient3208)" stroke="none" transform="matrix(1 0 0 1 938 240 )" class="fill" />
    <path d="M 8.106607248157248 9.931071130221142  C 8.221664399400177 10.026002793702261  8.324478445393185 10.134864724753669  8.412685913185912 10.25515442260442  L 8.628741441441441 9.240893775593776  C 8.772516888448674 8.622808529165614  8.562279628191321 7.975924629623919  8.082601105651104 7.5604619164619145  L 0.6106809582309582 0.9767700655200643  C 0.5521543961447107 0.9452551477212374  0.5041603959316472 0.897261133270124  0.4726454954954955 0.8387345618345634  C 0.17565376804560628 1.1593708736190607  0.010657608166995262 1.580309023832282  0.010657608166995262 2.0173579119540044  C 0.010657608166995262 2.521077542238018  0.22964362367301053 2.9999144227781716  0.6106809582309582 3.3293746109746145  L 8.106607248157248 9.931071130221142  Z " stroke-width="0" stroke-dasharray="0" stroke="rgba(255, 255, 255, 0)" fill="none" transform="matrix(1 0 0 1 938 240 )" class="stroke" mask="url(#Clip3211)" />
    <path d="M 35.605673996724 3.3233730958231007  C 36.29609493305548 2.671163676681992  36.33355002591455 1.584965837731463  35.689695577395575 0.8867469287469305  L 35.60567399672399 0.9767700655200677  L 28.103746150696146 7.578466543816545  C 27.626259439454273 7.995270486659842  27.41840043322675 8.641942939973053  27.563607330057327 9.258898402948404  L 27.80967055692055 10.26715749385749  C 27.89249449078413 10.14089431170909  27.991344121366954 10.02590597126644  28.103746150696146 9.925069574119576  L 35.605673996724 3.3233730958231007  Z " stroke-width="0" stroke-dasharray="0" stroke="rgba(255, 255, 255, 0)" fill="none" transform="matrix(1 0 0 1 938 240 )" class="stroke" mask="url(#Clip3211)" />
    <path d="M 16.712818877968875 18.129177886977885  C 17.639821640112643 17.43073331528585  18.381623268445942 16.515844651120574  18.87337411957412 15.46449312039313  C 18.35160225860078 15.185201371970733  17.72229940418468 15.19656062429007  17.210946887796887 15.49450081900082  L 8.910813923013924 20.37375470925471  C 8.125113423461075 20.83560809500979  7.115104126576429 20.597647782376995  6.618224774774774 19.83361588861588  L 6.372161547911547 20.835873464373464  C 6.341964303030461 20.964711557216646  6.326714794230757 21.09660038742011  6.326714794230757 21.228930005291076  C 6.326714794230757 22.180208801742168  7.097878626772298 22.951372634283715  8.049157423223386 22.951372634283715  C 8.351679677415358 22.951372634283715  8.648866109751395 22.871695300686397  8.910813923013922 22.72035773955774  L 16.712818877968875 18.129177886977885  Z " stroke-width="0" stroke-dasharray="0" stroke="rgba(255, 255, 255, 0)" fill="none" transform="matrix(1 0 0 1 938 240 )" class="stroke" mask="url(#Clip3211)" />
    <path d="M 29.838719069030212 21.24118130638911  C 29.838719069030212 21.10462887746337  29.822424016890142 20.96856430274201  29.79017952497952 20.835873464373464  L 29.550117813267818 19.839617444717447  C 29.050980606069995 20.605041787481767  28.037028162889072 20.840659983012344  27.251527149877152 20.37375470925471  L 20.451779729729722 16.376727559377557  C 20.15233112583331 16.986031784593422  19.77946643323523 17.556413974119337  19.34149438984439 18.075164004914  L 27.251527149877155 22.72035773955774  C 27.515416702472752 22.875702325970664  27.816059713705016 22.95762237928018  28.122277996139143 22.95762237928018  C 29.070242224680086 22.95762237928018  29.838719069030212 22.18914553493005  29.838719069030212 21.24118130638911  Z " stroke-width="0" stroke-dasharray="0" stroke="rgba(255, 255, 255, 0)" fill="none" transform="matrix(1 0 0 1 938 240 )" class="stroke" mask="url(#Clip3211)" />
  </g>
</svg>