<?xml version="1.0" encoding="utf-8"?>
<svg version="1.1" xmlns:xlink="http://www.w3.org/1999/xlink" width="14px" height="13px" xmlns="http://www.w3.org/2000/svg">
  <defs>
    <pattern id="BGPattern" patternUnits="userSpaceOnUse" alignment="0 0" imageRepeat="None" />
    <mask fill="white" id="Clip10431">
      <path d="M 4.394444441406252 9.849999999999994  C 5.211111103515627 10.355555558593744  6.144444441406252 10.66666666210937  7.077777779296875 10.627777779296874  L 7.5833333378906245 10.627777779296874  C 7.6611111171875 10.627777779296874  7.7777777792968745 10.588888896484375  7.85555555859375 10.588888882812501  C 7.8944444414062485 10.588888882812501  7.972222220703124 10.55  8.0111111171875 10.55  C 8.088888896484375 10.511111117187502  8.20555555859375 10.511111117187502  8.283333337890625 10.472222220703125  C 8.322222220703125 10.472222220703125  8.3611111171875 10.433333337890627  8.4 10.433333337890627  C 8.516666662109374 10.394444455078126  8.59444444140625 10.355555558593752  8.7111111171875 10.316666662109377  C 8.749999999999998 10.316666662109377  8.749999999999998 10.277777779296878  8.788888882812499 10.277777779296878  C 8.905555544921874 10.238888896484378  9.022222220703124 10.161111117187502  9.1388888828125 10.122222220703128  C 9.527777765625 9.927777779296877  9.838888882812501 9.655555558593752  10.15 9.344444441406253  C 10.227777779296876 9.266666662109378  10.34444444140625 9.150000000000002  10.422222220703125 9.033333337890628  C 10.422222220703125 8.99444445507813  10.461111103515623 8.99444445507813  10.4611111171875 8.955555558593753  C 11.083333337890625 8.177777779296878  11.433333337890623 7.205555558593753  11.433333337890623 6.155555558593754  L 10.383333337890624 6.155555558593754  C 10.344444455078124 6.155555558593754  10.344444455078124 6.155555558593754  10.305555558593749 6.116666662109379  L 10.305555558593749 6.038888882812504  L 12.133333337890624 3.355555558593754  C 12.133333337890624 3.3166666757812537  12.172222220703123 3.3166666757812537  12.2111111171875 3.3166666621093794  C 12.250000013671874 3.316666648437504  12.249999999999998 3.3166666621093794  12.288888882812499 3.355555558593754  L 14 6  L 14 6.077777779296875  C 14 6.116666662109375  13.961111117187501 6.116666662109375  13.922222220703125 6.116666662109375  L 12.872222220703126 6.116666662109375  C 12.872222220703126 7.361111103515625  12.483333337890626 8.527777779296875  11.822222220703125 9.5  C 11.822222220703125 9.5  11.822222220703125 9.538888882812499  11.783333337890626 9.538888882812499  C 11.705555558593751 9.655555544921874  11.627777779296876 9.73333332421875  11.55 9.8111111171875  C 11.511111117187502 9.849999999999998  11.511111117187502 9.888888896484374  11.472222220703125 9.927777779296875  C 11.355555558593752 10.044444441406249  11.2388888828125 10.2  11.122222220703126 10.316666662109373  L 11.083333337890625 10.355555558593748  C 10.694444455078127 10.744444441406248  10.227777779296876 11.094444441406248  9.761111117187502 11.366666662109374  C 9.761111117187502 11.366666662109374  9.722222234375002 11.366666662109374  9.722222220703127 11.405555558593747  C 9.566666662109377 11.483333337890622  9.450000000000003 11.561111117187497  9.294444441406252 11.599999999999998  C 9.255555558593752 11.599999999999998  9.216666662109377 11.638888882812497  9.177777779296877 11.638888882812497  C 9.061111117187503 11.677777765624995  8.944444441406251 11.75555554492187  8.788888882812502 11.794444441406247  C 8.711111103515627 11.833333324218746  8.672222220703128 11.833333324218746  8.594444441406253 11.872222220703122  C 8.477777779296877 11.911111103515621  8.361111103515627 11.949999999999998  8.244444441406252 11.949999999999998  C 8.166666662109376 11.949999999999998  8.088888882812501 11.988888882812496  8.011111117187502 11.988888882812496  C 7.972222234375002 11.988888882812496  7.933333337890627 11.988888882812496  7.933333337890627 12.027777779296871  C 7.816666675781252 12.06666666210937  7.700000000000001 12.06666666210937  7.622222220703127 12.06666666210937  L 7.505555558593752 12.06666666210937  C 7.311111117187503 12.06666666210937  7.116666675781253 12.10555554492187  6.922222220703127 12.105555558593744  C 5.716666662109377 12.105555558593744  4.5500000000000025 11.716666675781244  3.577777779296877 11.016666662109369  C 3.2666666621093765 10.783333324218743  3.188888896484377 10.35555554492187  3.4222222207031265 10.005555558593745  C 3.6555555585937523 9.694444441406246  4.083333337890627 9.616666675781245  4.394444441406252 9.849999999999994  Z M 1.1666666621093749 6.116666662109376  C 1.127777779296875 4.872222220703126  1.5166666621093752 3.7055555449218773  2.1777777792968753 2.7722222207031253  C 2.1777777792968753 2.7722222207031253  2.1777777792968753 2.733333337890625  2.2166666621093754 2.733333337890625  C 2.29444444140625 2.6166666757812496  2.3722222207031254 2.5  2.4888888828125 2.383333337890625  L 2.5277777792968754 2.34444444140625  C 3.1111111171875 1.6055555585937498  3.8888888828124997 1.0611111171875  4.705555558593749 0.672222220703125  C 4.74444444140625 0.672222220703125  4.74444444140625 0.633333337890625  4.783333337890625 0.633333337890625  C 4.9 0.5944444550781252  5.05555555859375 0.5166666757812499  5.2111111171874995 0.4777777792968749  C 5.25 0.4777777792968749  5.327777779296875 0.4388888964843749  5.366666662109375 0.43888888281249994  C 5.48333332421875 0.40000000000000013  5.6 0.3611111035156249  5.716666662109375 0.3611111171874999  C 5.794444441406251 0.3611111171874999  5.872222220703125 0.3222222343750001  5.9111111171875 0.3222222207031251  C 5.95 0.3222222207031251  5.988888896484375 0.3222222207031251  6.027777779296875 0.2833333378906251  C 6.105555558593751 0.2833333378906251  6.222222220703125 0.24444445507812507  6.3 0.24444444140625013  C 6.377777779296875 0.24444444140625013  6.4166666621093755 0.24444444140625013  6.49444444140625 0.2055555585937503  C 6.611111103515626 0.2055555585937503  6.766666662109375 0.16666667578125027  6.922222220703125 0.1666666621093753  L 7 0.1666666621093753  C 8.20555555859375 0.1666666621093753  9.372222220703126 0.5555555449218754  10.383333337890626 1.2555555585937506  C 10.694444455078125 1.4888888964843754  10.772222220703124 1.9166666757812507  10.5388888828125 2.2666666621093756  C 10.305555544921875 2.5777777792968752  9.877777765625002 2.6555555449218753  9.566666662109377 2.4222222207031257  C 8.788888882812502 1.8777777792968755  7.894444441406252 1.6055555585937502  6.961111117187502 1.6055555585937502  C 6.8444444550781265 1.6055555585937502  6.688888896484377 1.6055555585937502  6.572222220703128 1.6444444414062502  L 6.455555558593752 1.6444444414062502  C 6.338888896484377 1.6444444414062502  6.261111117187502 1.6833333242187507  6.144444441406252 1.6833333378906254  C 6.1055555585937515 1.6833333378906254  6.066666662109377 1.7222222207031253  6.027777779296876 1.7222222207031253  C 5.9111111171875015 1.761111103515626  5.833333337890627 1.761111103515626  5.716666662109376 1.8000000000000007  C 5.677777779296877 1.8000000000000007  5.638888882812501 1.8388888828125007  5.638888882812501 1.8388888828125007  L 5.2888888828125005 1.9555555585937507  L 5.250000000000001 1.9555555585937507  C 4.588888882812501 2.2277777792968756  4.005555558593751 2.6944444414062505  3.577777779296876 3.2388888828125006  C 2.955555558593751 4.016666662109376  2.566666662109376 5.027777765625001  2.566666662109376 6.116666662109376  L 3.616666662109376 6.116666662109376  C 3.655555544921876 6.116666662109376  3.655555544921876 6.116666662109376  3.6944444414062514 6.1555555585937505  L 3.6944444414062514 6.233333337890626  L 1.9444444414062498 8.877777779296874  C 1.9444444414062498 8.916666662109375  1.9055555585937496 8.916666662109375  1.866666662109375 8.916666662109375  C 1.8277777656250003 8.916666662109375  1.8277777792968748 8.916666662109375  1.7888888828125 8.877777779296874  L 0.038888882812500004 6.233333337890626  L 0.038888882812500004 6.1555555585937505  C 0.038888882812500004 6.116666675781251  0.07777776562500001 6.116666675781251  0.11666666210937499 6.116666662109376  L 1.1666666621093749 6.116666662109376  Z " fill-rule="evenodd" />
    </mask>
  </defs>
  <g transform="matrix(1 0 0 1 -146 -653 )">
    <path d="M 4.394444441406252 9.849999999999994  C 5.211111103515627 10.355555558593744  6.144444441406252 10.66666666210937  7.077777779296875 10.627777779296874  L 7.5833333378906245 10.627777779296874  C 7.6611111171875 10.627777779296874  7.7777777792968745 10.588888896484375  7.85555555859375 10.588888882812501  C 7.8944444414062485 10.588888882812501  7.972222220703124 10.55  8.0111111171875 10.55  C 8.088888896484375 10.511111117187502  8.20555555859375 10.511111117187502  8.283333337890625 10.472222220703125  C 8.322222220703125 10.472222220703125  8.3611111171875 10.433333337890627  8.4 10.433333337890627  C 8.516666662109374 10.394444455078126  8.59444444140625 10.355555558593752  8.7111111171875 10.316666662109377  C 8.749999999999998 10.316666662109377  8.749999999999998 10.277777779296878  8.788888882812499 10.277777779296878  C 8.905555544921874 10.238888896484378  9.022222220703124 10.161111117187502  9.1388888828125 10.122222220703128  C 9.527777765625 9.927777779296877  9.838888882812501 9.655555558593752  10.15 9.344444441406253  C 10.227777779296876 9.266666662109378  10.34444444140625 9.150000000000002  10.422222220703125 9.033333337890628  C 10.422222220703125 8.99444445507813  10.461111103515623 8.99444445507813  10.4611111171875 8.955555558593753  C 11.083333337890625 8.177777779296878  11.433333337890623 7.205555558593753  11.433333337890623 6.155555558593754  L 10.383333337890624 6.155555558593754  C 10.344444455078124 6.155555558593754  10.344444455078124 6.155555558593754  10.305555558593749 6.116666662109379  L 10.305555558593749 6.038888882812504  L 12.133333337890624 3.355555558593754  C 12.133333337890624 3.3166666757812537  12.172222220703123 3.3166666757812537  12.2111111171875 3.3166666621093794  C 12.250000013671874 3.316666648437504  12.249999999999998 3.3166666621093794  12.288888882812499 3.355555558593754  L 14 6  L 14 6.077777779296875  C 14 6.116666662109375  13.961111117187501 6.116666662109375  13.922222220703125 6.116666662109375  L 12.872222220703126 6.116666662109375  C 12.872222220703126 7.361111103515625  12.483333337890626 8.527777779296875  11.822222220703125 9.5  C 11.822222220703125 9.5  11.822222220703125 9.538888882812499  11.783333337890626 9.538888882812499  C 11.705555558593751 9.655555544921874  11.627777779296876 9.73333332421875  11.55 9.8111111171875  C 11.511111117187502 9.849999999999998  11.511111117187502 9.888888896484374  11.472222220703125 9.927777779296875  C 11.355555558593752 10.044444441406249  11.2388888828125 10.2  11.122222220703126 10.316666662109373  L 11.083333337890625 10.355555558593748  C 10.694444455078127 10.744444441406248  10.227777779296876 11.094444441406248  9.761111117187502 11.366666662109374  C 9.761111117187502 11.366666662109374  9.722222234375002 11.366666662109374  9.722222220703127 11.405555558593747  C 9.566666662109377 11.483333337890622  9.450000000000003 11.561111117187497  9.294444441406252 11.599999999999998  C 9.255555558593752 11.599999999999998  9.216666662109377 11.638888882812497  9.177777779296877 11.638888882812497  C 9.061111117187503 11.677777765624995  8.944444441406251 11.75555554492187  8.788888882812502 11.794444441406247  C 8.711111103515627 11.833333324218746  8.672222220703128 11.833333324218746  8.594444441406253 11.872222220703122  C 8.477777779296877 11.911111103515621  8.361111103515627 11.949999999999998  8.244444441406252 11.949999999999998  C 8.166666662109376 11.949999999999998  8.088888882812501 11.988888882812496  8.011111117187502 11.988888882812496  C 7.972222234375002 11.988888882812496  7.933333337890627 11.988888882812496  7.933333337890627 12.027777779296871  C 7.816666675781252 12.06666666210937  7.700000000000001 12.06666666210937  7.622222220703127 12.06666666210937  L 7.505555558593752 12.06666666210937  C 7.311111117187503 12.06666666210937  7.116666675781253 12.10555554492187  6.922222220703127 12.105555558593744  C 5.716666662109377 12.105555558593744  4.5500000000000025 11.716666675781244  3.577777779296877 11.016666662109369  C 3.2666666621093765 10.783333324218743  3.188888896484377 10.35555554492187  3.4222222207031265 10.005555558593745  C 3.6555555585937523 9.694444441406246  4.083333337890627 9.616666675781245  4.394444441406252 9.849999999999994  Z M 1.1666666621093749 6.116666662109376  C 1.127777779296875 4.872222220703126  1.5166666621093752 3.7055555449218773  2.1777777792968753 2.7722222207031253  C 2.1777777792968753 2.7722222207031253  2.1777777792968753 2.733333337890625  2.2166666621093754 2.733333337890625  C 2.29444444140625 2.6166666757812496  2.3722222207031254 2.5  2.4888888828125 2.383333337890625  L 2.5277777792968754 2.34444444140625  C 3.1111111171875 1.6055555585937498  3.8888888828124997 1.0611111171875  4.705555558593749 0.672222220703125  C 4.74444444140625 0.672222220703125  4.74444444140625 0.633333337890625  4.783333337890625 0.633333337890625  C 4.9 0.5944444550781252  5.05555555859375 0.5166666757812499  5.2111111171874995 0.4777777792968749  C 5.25 0.4777777792968749  5.327777779296875 0.4388888964843749  5.366666662109375 0.43888888281249994  C 5.48333332421875 0.40000000000000013  5.6 0.3611111035156249  5.716666662109375 0.3611111171874999  C 5.794444441406251 0.3611111171874999  5.872222220703125 0.3222222343750001  5.9111111171875 0.3222222207031251  C 5.95 0.3222222207031251  5.988888896484375 0.3222222207031251  6.027777779296875 0.2833333378906251  C 6.105555558593751 0.2833333378906251  6.222222220703125 0.24444445507812507  6.3 0.24444444140625013  C 6.377777779296875 0.24444444140625013  6.4166666621093755 0.24444444140625013  6.49444444140625 0.2055555585937503  C 6.611111103515626 0.2055555585937503  6.766666662109375 0.16666667578125027  6.922222220703125 0.1666666621093753  L 7 0.1666666621093753  C 8.20555555859375 0.1666666621093753  9.372222220703126 0.5555555449218754  10.383333337890626 1.2555555585937506  C 10.694444455078125 1.4888888964843754  10.772222220703124 1.9166666757812507  10.5388888828125 2.2666666621093756  C 10.305555544921875 2.5777777792968752  9.877777765625002 2.6555555449218753  9.566666662109377 2.4222222207031257  C 8.788888882812502 1.8777777792968755  7.894444441406252 1.6055555585937502  6.961111117187502 1.6055555585937502  C 6.8444444550781265 1.6055555585937502  6.688888896484377 1.6055555585937502  6.572222220703128 1.6444444414062502  L 6.455555558593752 1.6444444414062502  C 6.338888896484377 1.6444444414062502  6.261111117187502 1.6833333242187507  6.144444441406252 1.6833333378906254  C 6.1055555585937515 1.6833333378906254  6.066666662109377 1.7222222207031253  6.027777779296876 1.7222222207031253  C 5.9111111171875015 1.761111103515626  5.833333337890627 1.761111103515626  5.716666662109376 1.8000000000000007  C 5.677777779296877 1.8000000000000007  5.638888882812501 1.8388888828125007  5.638888882812501 1.8388888828125007  L 5.2888888828125005 1.9555555585937507  L 5.250000000000001 1.9555555585937507  C 4.588888882812501 2.2277777792968756  4.005555558593751 2.6944444414062505  3.577777779296876 3.2388888828125006  C 2.955555558593751 4.016666662109376  2.566666662109376 5.027777765625001  2.566666662109376 6.116666662109376  L 3.616666662109376 6.116666662109376  C 3.655555544921876 6.116666662109376  3.655555544921876 6.116666662109376  3.6944444414062514 6.1555555585937505  L 3.6944444414062514 6.233333337890626  L 1.9444444414062498 8.877777779296874  C 1.9444444414062498 8.916666662109375  1.9055555585937496 8.916666662109375  1.866666662109375 8.916666662109375  C 1.8277777656250003 8.916666662109375  1.8277777792968748 8.916666662109375  1.7888888828125 8.877777779296874  L 0.038888882812500004 6.233333337890626  L 0.038888882812500004 6.1555555585937505  C 0.038888882812500004 6.116666675781251  0.07777776562500001 6.116666675781251  0.11666666210937499 6.116666662109376  L 1.1666666621093749 6.116666662109376  Z " fill-rule="nonzero" fill="rgba(255, 255, 255, 1)" stroke="none" transform="matrix(1 0 0 1 146 653 )" class="fill" />
    <path d="M 4.394444441406252 9.849999999999994  C 5.211111103515627 10.355555558593744  6.144444441406252 10.66666666210937  7.077777779296875 10.627777779296874  L 7.5833333378906245 10.627777779296874  C 7.6611111171875 10.627777779296874  7.7777777792968745 10.588888896484375  7.85555555859375 10.588888882812501  C 7.8944444414062485 10.588888882812501  7.972222220703124 10.55  8.0111111171875 10.55  C 8.088888896484375 10.511111117187502  8.20555555859375 10.511111117187502  8.283333337890625 10.472222220703125  C 8.322222220703125 10.472222220703125  8.3611111171875 10.433333337890627  8.4 10.433333337890627  C 8.516666662109374 10.394444455078126  8.59444444140625 10.355555558593752  8.7111111171875 10.316666662109377  C 8.749999999999998 10.316666662109377  8.749999999999998 10.277777779296878  8.788888882812499 10.277777779296878  C 8.905555544921874 10.238888896484378  9.022222220703124 10.161111117187502  9.1388888828125 10.122222220703128  C 9.527777765625 9.927777779296877  9.838888882812501 9.655555558593752  10.15 9.344444441406253  C 10.227777779296876 9.266666662109378  10.34444444140625 9.150000000000002  10.422222220703125 9.033333337890628  C 10.422222220703125 8.99444445507813  10.461111103515623 8.99444445507813  10.4611111171875 8.955555558593753  C 11.083333337890625 8.177777779296878  11.433333337890623 7.205555558593753  11.433333337890623 6.155555558593754  L 10.383333337890624 6.155555558593754  C 10.344444455078124 6.155555558593754  10.344444455078124 6.155555558593754  10.305555558593749 6.116666662109379  L 10.305555558593749 6.038888882812504  L 12.133333337890624 3.355555558593754  C 12.133333337890624 3.3166666757812537  12.172222220703123 3.3166666757812537  12.2111111171875 3.3166666621093794  C 12.250000013671874 3.316666648437504  12.249999999999998 3.3166666621093794  12.288888882812499 3.355555558593754  L 14 6  L 14 6.077777779296875  C 14 6.116666662109375  13.961111117187501 6.116666662109375  13.922222220703125 6.116666662109375  L 12.872222220703126 6.116666662109375  C 12.872222220703126 7.361111103515625  12.483333337890626 8.527777779296875  11.822222220703125 9.5  C 11.822222220703125 9.5  11.822222220703125 9.538888882812499  11.783333337890626 9.538888882812499  C 11.705555558593751 9.655555544921874  11.627777779296876 9.73333332421875  11.55 9.8111111171875  C 11.511111117187502 9.849999999999998  11.511111117187502 9.888888896484374  11.472222220703125 9.927777779296875  C 11.355555558593752 10.044444441406249  11.2388888828125 10.2  11.122222220703126 10.316666662109373  L 11.083333337890625 10.355555558593748  C 10.694444455078127 10.744444441406248  10.227777779296876 11.094444441406248  9.761111117187502 11.366666662109374  C 9.761111117187502 11.366666662109374  9.722222234375002 11.366666662109374  9.722222220703127 11.405555558593747  C 9.566666662109377 11.483333337890622  9.450000000000003 11.561111117187497  9.294444441406252 11.599999999999998  C 9.255555558593752 11.599999999999998  9.216666662109377 11.638888882812497  9.177777779296877 11.638888882812497  C 9.061111117187503 11.677777765624995  8.944444441406251 11.75555554492187  8.788888882812502 11.794444441406247  C 8.711111103515627 11.833333324218746  8.672222220703128 11.833333324218746  8.594444441406253 11.872222220703122  C 8.477777779296877 11.911111103515621  8.361111103515627 11.949999999999998  8.244444441406252 11.949999999999998  C 8.166666662109376 11.949999999999998  8.088888882812501 11.988888882812496  8.011111117187502 11.988888882812496  C 7.972222234375002 11.988888882812496  7.933333337890627 11.988888882812496  7.933333337890627 12.027777779296871  C 7.816666675781252 12.06666666210937  7.700000000000001 12.06666666210937  7.622222220703127 12.06666666210937  L 7.505555558593752 12.06666666210937  C 7.311111117187503 12.06666666210937  7.116666675781253 12.10555554492187  6.922222220703127 12.105555558593744  C 5.716666662109377 12.105555558593744  4.5500000000000025 11.716666675781244  3.577777779296877 11.016666662109369  C 3.2666666621093765 10.783333324218743  3.188888896484377 10.35555554492187  3.4222222207031265 10.005555558593745  C 3.6555555585937523 9.694444441406246  4.083333337890627 9.616666675781245  4.394444441406252 9.849999999999994  Z " stroke-width="0" stroke-dasharray="0" stroke="rgba(255, 255, 255, 0)" fill="none" transform="matrix(1 0 0 1 146 653 )" class="stroke" mask="url(#Clip10431)" />
    <path d="M 1.1666666621093749 6.116666662109376  C 1.127777779296875 4.872222220703126  1.5166666621093752 3.7055555449218773  2.1777777792968753 2.7722222207031253  C 2.1777777792968753 2.7722222207031253  2.1777777792968753 2.733333337890625  2.2166666621093754 2.733333337890625  C 2.29444444140625 2.6166666757812496  2.3722222207031254 2.5  2.4888888828125 2.383333337890625  L 2.5277777792968754 2.34444444140625  C 3.1111111171875 1.6055555585937498  3.8888888828124997 1.0611111171875  4.705555558593749 0.672222220703125  C 4.74444444140625 0.672222220703125  4.74444444140625 0.633333337890625  4.783333337890625 0.633333337890625  C 4.9 0.5944444550781252  5.05555555859375 0.5166666757812499  5.2111111171874995 0.4777777792968749  C 5.25 0.4777777792968749  5.327777779296875 0.4388888964843749  5.366666662109375 0.43888888281249994  C 5.48333332421875 0.40000000000000013  5.6 0.3611111035156249  5.716666662109375 0.3611111171874999  C 5.794444441406251 0.3611111171874999  5.872222220703125 0.3222222343750001  5.9111111171875 0.3222222207031251  C 5.95 0.3222222207031251  5.988888896484375 0.3222222207031251  6.027777779296875 0.2833333378906251  C 6.105555558593751 0.2833333378906251  6.222222220703125 0.24444445507812507  6.3 0.24444444140625013  C 6.377777779296875 0.24444444140625013  6.4166666621093755 0.24444444140625013  6.49444444140625 0.2055555585937503  C 6.611111103515626 0.2055555585937503  6.766666662109375 0.16666667578125027  6.922222220703125 0.1666666621093753  L 7 0.1666666621093753  C 8.20555555859375 0.1666666621093753  9.372222220703126 0.5555555449218754  10.383333337890626 1.2555555585937506  C 10.694444455078125 1.4888888964843754  10.772222220703124 1.9166666757812507  10.5388888828125 2.2666666621093756  C 10.305555544921875 2.5777777792968752  9.877777765625002 2.6555555449218753  9.566666662109377 2.4222222207031257  C 8.788888882812502 1.8777777792968755  7.894444441406252 1.6055555585937502  6.961111117187502 1.6055555585937502  C 6.8444444550781265 1.6055555585937502  6.688888896484377 1.6055555585937502  6.572222220703128 1.6444444414062502  L 6.455555558593752 1.6444444414062502  C 6.338888896484377 1.6444444414062502  6.261111117187502 1.6833333242187507  6.144444441406252 1.6833333378906254  C 6.1055555585937515 1.6833333378906254  6.066666662109377 1.7222222207031253  6.027777779296876 1.7222222207031253  C 5.9111111171875015 1.761111103515626  5.833333337890627 1.761111103515626  5.716666662109376 1.8000000000000007  C 5.677777779296877 1.8000000000000007  5.638888882812501 1.8388888828125007  5.638888882812501 1.8388888828125007  L 5.2888888828125005 1.9555555585937507  L 5.250000000000001 1.9555555585937507  C 4.588888882812501 2.2277777792968756  4.005555558593751 2.6944444414062505  3.577777779296876 3.2388888828125006  C 2.955555558593751 4.016666662109376  2.566666662109376 5.027777765625001  2.566666662109376 6.116666662109376  L 3.616666662109376 6.116666662109376  C 3.655555544921876 6.116666662109376  3.655555544921876 6.116666662109376  3.6944444414062514 6.1555555585937505  L 3.6944444414062514 6.233333337890626  L 1.9444444414062498 8.877777779296874  C 1.9444444414062498 8.916666662109375  1.9055555585937496 8.916666662109375  1.866666662109375 8.916666662109375  C 1.8277777656250003 8.916666662109375  1.8277777792968748 8.916666662109375  1.7888888828125 8.877777779296874  L 0.038888882812500004 6.233333337890626  L 0.038888882812500004 6.1555555585937505  C 0.038888882812500004 6.116666675781251  0.07777776562500001 6.116666675781251  0.11666666210937499 6.116666662109376  L 1.1666666621093749 6.116666662109376  Z " stroke-width="0" stroke-dasharray="0" stroke="rgba(255, 255, 255, 0)" fill="none" transform="matrix(1 0 0 1 146 653 )" class="stroke" mask="url(#Clip10431)" />
  </g>
</svg>