<svg xmlns="http://www.w3.org/2000/svg" xmlns:xlink="http://www.w3.org/1999/xlink" fill="none" version="1.1" width="58" height="18" viewBox="0 0 58 18"><defs><clipPath id="master_svg0_1_3886"><rect x="0" y="0" width="58" height="18" rx="0"/></clipPath><linearGradient x1="0.9846153259277344" y1="0.4062500596046448" x2="-7.477972729930116e-8" y2="0.4062500596046448" id="master_svg1_1_2801"><stop offset="0%" stop-color="#45FDC0" stop-opacity="1"/><stop offset="65.33202528953552%" stop-color="#19D0E5" stop-opacity="1"/><stop offset="76.07421278953552%" stop-color="#19D0E5" stop-opacity="1"/></linearGradient><mask id="master_svg2_1_3889" style="mask-type:alpha" maskUnits="objectBoundingBox"><g><rect x="6" y="0.999755859375" width="52" height="16" rx="4" fill="#FFFFFF" fill-opacity="1"/></g></mask><filter id="master_svg3_1_3890" filterUnits="objectBoundingBox" color-interpolation-filters="sRGB" x="-1.4615026712417603" y="-1.4615026712417603" width="3.9230053424835205" height="3.9230053424835205"><feFlood flood-opacity="0" result="BackgroundImageFix"/><feColorMatrix in="SourceAlpha" type="matrix" values="0 0 0 0 0 0 0 0 0 0 0 0 0 0 0 0 0 0 127 0"/><feOffset dy="0" dx="0"/><feGaussianBlur stdDeviation="0.7307513356208801"/><feColorMatrix type="matrix" values="0 0 0 0 1 0 0 0 0 1 0 0 0 0 1 0 0 0 0.7300000190734863 0"/><feBlend mode="normal" in2="BackgroundImageFix" result="effect1_dropShadow"/><feBlend mode="normal" in="SourceGraphic" in2="effect1_dropShadow" result="shape"/></filter><filter id="master_svg4_1_3891" filterUnits="objectBoundingBox" color-interpolation-filters="sRGB" x="-0.4444444444444444" y="-0.4444444444444444" width="1.8888888888888888" height="1.8888888888888888"><feFlood flood-opacity="0" result="BackgroundImageFix"/><feBlend mode="normal" in="SourceGraphic" in2="BackgroundImageFix" result="shape"/><feGaussianBlur stdDeviation="2" result="effect1_foregroundBlur"/></filter><filter id="master_svg5_1_3892" filterUnits="objectBoundingBox" color-interpolation-filters="sRGB" x="-0.5842694214252164" y="-0.6168340004479855" width="2.168538842850433" height="2.233668000895971"><feFlood flood-opacity="0" result="BackgroundImageFix"/><feColorMatrix in="SourceAlpha" type="matrix" values="0 0 0 0 0 0 0 0 0 0 0 0 0 0 0 0 0 0 127 0"/><feOffset dy="0" dx="0"/><feGaussianBlur stdDeviation="0.7307513356208801"/><feColorMatrix type="matrix" values="0 0 0 0 1 0 0 0 0 1 0 0 0 0 1 0 0 0 0.5299999713897705 0"/><feBlend mode="normal" in2="BackgroundImageFix" result="effect1_dropShadow"/><feBlend mode="normal" in="SourceGraphic" in2="effect1_dropShadow" result="shape"/></filter><filter id="master_svg6_1_3895" filterUnits="objectBoundingBox" color-interpolation-filters="sRGB" x="-0.06060606060606061" y="-0.1" width="1.121212121212121" height="1.4"><feFlood flood-opacity="0" result="BackgroundImageFix"/><feColorMatrix in="SourceAlpha" type="matrix" values="0 0 0 0 0 0 0 0 0 0 0 0 0 0 0 0 0 0 127 0"/><feOffset dy="1" dx="0"/><feGaussianBlur stdDeviation="0.5"/><feColorMatrix type="matrix" values="0 0 0 0 0 0 0 0 0 0.6939937472343445 0 0 0 0 0.7541666626930237 0 0 0 1 0"/><feBlend mode="normal" in2="BackgroundImageFix" result="effect1_dropShadow"/><feBlend mode="normal" in="SourceGraphic" in2="effect1_dropShadow" result="shape"/></filter><filter id="master_svg7_1_3900" filterUnits="objectBoundingBox" color-interpolation-filters="sRGB" x="-0.14910131030612522" y="-0.11928105023172167" width="1.2982026206122503" height="1.2982026206122503"><feFlood flood-opacity="0" result="BackgroundImageFix"/><feColorMatrix in="SourceAlpha" type="matrix" values="0 0 0 0 0 0 0 0 0 0 0 0 0 0 0 0 0 0 127 0"/><feOffset dy="0.5367646813392639" dx="0"/><feGaussianBlur stdDeviation="0.6709558963775635"/><feColorMatrix type="matrix" values="0 0 0 0 0.3244837820529938 0 0 0 0 0.9166666865348816 0 0 0 0 0.7883603572845459 0 0 0 0.4699999988079071 0"/><feBlend mode="normal" in2="BackgroundImageFix" result="effect1_dropShadow"/><feBlend mode="normal" in="SourceGraphic" in2="effect1_dropShadow" result="shape"/></filter><filter id="master_svg8_1_3915" filterUnits="objectBoundingBox" color-interpolation-filters="sRGB" x="0" y="0" width="1" height="1"><feFlood flood-opacity="0" result="BackgroundImageFix"/><feBlend mode="normal" in="SourceGraphic" in2="BackgroundImageFix" result="shape"/><feColorMatrix in="SourceAlpha" type="matrix" result="hardAlpha" values="0 0 0 0 0 0 0 0 0 0 0 0 0 0 0 0 0 0 127 0"/><feOffset dy="-0.13419117033481598" dx="0"/><feGaussianBlur stdDeviation="0.06709558516740799"/><feComposite in2="hardAlpha" operator="arithmetic" k2="-1" k3="1"/><feColorMatrix type="matrix" values="0 0 0 0 0.43805310130119324 0 0 0 0 1 0 0 0 0 0.9625369310379028 0 0 0 1 0"/><feBlend mode="normal" in2="shape" result="effect1_innerShadow"/><feColorMatrix in="SourceAlpha" type="matrix" result="hardAlpha" values="0 0 0 0 0 0 0 0 0 0 0 0 0 0 0 0 0 0 127 0"/><feOffset dy="0.13419117033481598" dx="0"/><feGaussianBlur stdDeviation="0.13419117033481598"/><feComposite in2="hardAlpha" operator="arithmetic" k2="-1" k3="1"/><feColorMatrix type="matrix" values="0 0 0 0 1 0 0 0 0 1 0 0 0 0 1 0 0 0 0.4099999964237213 0"/><feBlend mode="normal" in2="effect1_innerShadow" result="effect2_innerShadow"/></filter><linearGradient x1="0.19485294818878174" y1="0.21691176295280457" x2="0.7058823704719542" y2="0.9522058963775635" id="master_svg9_1_0569"><stop offset="5.714285746216774%" stop-color="#D1FFFF" stop-opacity="1"/><stop offset="97.14285731315613%" stop-color="#37E4CD" stop-opacity="1"/></linearGradient><filter id="master_svga_1_3915" filterUnits="objectBoundingBox" color-interpolation-filters="sRGB" x="0" y="0" width="1" height="1"><feFlood flood-opacity="0" result="BackgroundImageFix"/><feBlend mode="normal" in="SourceGraphic" in2="BackgroundImageFix" result="shape"/><feColorMatrix in="SourceAlpha" type="matrix" result="hardAlpha" values="0 0 0 0 0 0 0 0 0 0 0 0 0 0 0 0 0 0 127 0"/><feOffset dy="-0.13419117033481598" dx="0"/><feGaussianBlur stdDeviation="0.06709558516740799"/><feComposite in2="hardAlpha" operator="arithmetic" k2="-1" k3="1"/><feColorMatrix type="matrix" values="0 0 0 0 0.43805310130119324 0 0 0 0 1 0 0 0 0 0.9625369310379028 0 0 0 1 0"/><feBlend mode="normal" in2="shape" result="effect1_innerShadow"/><feColorMatrix in="SourceAlpha" type="matrix" result="hardAlpha" values="0 0 0 0 0 0 0 0 0 0 0 0 0 0 0 0 0 0 127 0"/><feOffset dy="0.13419117033481598" dx="0"/><feGaussianBlur stdDeviation="0.13419117033481598"/><feComposite in2="hardAlpha" operator="arithmetic" k2="-1" k3="1"/><feColorMatrix type="matrix" values="0 0 0 0 1 0 0 0 0 1 0 0 0 0 1 0 0 0 0.4099999964237213 0"/><feBlend mode="normal" in2="effect1_innerShadow" result="effect2_innerShadow"/></filter><mask id="master_svgb_1_3915" style="mask-type:alpha" maskUnits="objectBoundingBox"><g filter="url(#master_svga_1_3915)"><path d="M15.7207,3.8801975Q15.842573,3.9505606,15.954218,4.0362291Q16.065863,4.1218972,16.165371,4.221405Q16.264877,4.3209133,16.350548,4.4325585Q16.436214,4.5442038,16.506578,4.6660757Q16.576942,4.7879477,16.630795,4.9179616Q16.684649,5.0479751,16.721071,5.1839056Q16.757494,5.3198361,16.775862,5.4593582Q16.794231,5.5988798,16.79423,5.7396049L16.79423,12.260396Q16.794231,12.401121,16.775864,12.540644Q16.757494,12.680166,16.721071,12.816097Q16.684649,12.952027,16.630795,13.082041Q16.576942,13.212053,16.506578,13.333925Q16.436214,13.455797,16.350548,13.567443Q16.264877,13.679089,16.165371,13.778597Q16.065863,13.878105,15.954217,13.963773Q15.842571,14.04944,15.720699,14.119803L10.073529,17.380198Q9.9516563,17.450562,9.8216438,17.504416Q9.6916294,17.55827,9.5556993,17.594692Q9.4197693,17.631115,9.2802467,17.649483Q9.1407261,17.66785,9,17.66785Q8.8592749,17.66785,8.7197533,17.649483Q8.5802317,17.631115,8.4443016,17.594692Q8.3083706,17.55827,8.1783571,17.504416Q8.0483437,17.450562,7.9264708,17.380198L2.2793012,14.119803Q2.1574292,14.04944,2.045784,13.963773Q1.9341387,13.878105,1.8346306,13.778597Q1.7351226,13.679089,1.6494541,13.567444Q1.5637858,13.455797,1.493423,13.333925Q1.4230602,13.212053,1.3692068,13.082041Q1.3153534,12.952027,1.2789309,12.816097Q1.2425084,12.680166,1.22414,12.540644Q1.2057717,12.401121,1.2057716,12.260396L1.2057713,5.7396054Q1.2057714,5.5988798,1.2241398,5.4593582Q1.2425082,5.3198366,1.2789307,5.1839061Q1.3153532,5.0479755,1.3692065,4.9179621Q1.4230599,4.7879486,1.4934227,4.6660762Q1.5637856,4.5442047,1.649454,4.432559Q1.7351224,4.3209143,1.8346305,4.221406Q1.9341385,4.1218977,2.0457835,4.0362296Q2.1574287,3.950561,2.2793007,3.880198L7.9264708,0.61980253Q8.0483437,0.54943973,8.1783562,0.49558637Q8.3083706,0.44173294,8.4443007,0.40531045Q8.5802307,0.36888796,8.7197533,0.35051954Q8.8592749,0.33215117,9,0.33215114Q9.1407261,0.33215114,9.2802467,0.35051954Q9.4197693,0.3688879,9.5556993,0.40531039Q9.6916294,0.44173288,9.8216438,0.49558622Q9.9516563,0.54943961,10.073529,0.61980242L15.7207,3.8801975Z" fill="#FFFFFF" fill-opacity="1"/></g></mask><filter id="master_svgc_1_3910" filterUnits="objectBoundingBox" color-interpolation-filters="sRGB" x="-0.025997152633846603" y="-0.07242064174986546" width="1.0519943052676932" height="1.144841283499731"><feFlood flood-opacity="0" result="BackgroundImageFix"/><feColorMatrix in="SourceAlpha" type="matrix" values="0 0 0 0 0 0 0 0 0 0 0 0 0 0 0 0 0 0 127 0"/><feOffset dy="0" dx="0"/><feGaussianBlur stdDeviation="0.033547792583703995"/><feColorMatrix type="matrix" values="0 0 0 0 1 0 0 0 0 1 0 0 0 0 1 0 0 0 1 0"/><feBlend mode="normal" in2="BackgroundImageFix" result="effect1_dropShadow"/><feBlend mode="normal" in="SourceGraphic" in2="effect1_dropShadow" result="shape"/></filter><linearGradient x1="0.9515380859375" y1="-0.18643465638160706" x2="0.9107072130285477" y2="1.013969901981072" id="master_svgd_1_0360"><stop offset="0%" stop-color="#FFFFFF" stop-opacity="1"/><stop offset="100%" stop-color="#FFFFFF" stop-opacity="0"/></linearGradient><linearGradient x1="1.3664065599441528" y1="0.20951926708221436" x2="1.247729487439232" y2="1.0525921433993317" id="master_svge_1_0357"><stop offset="0%" stop-color="#FFFFFF" stop-opacity="1"/><stop offset="48.63271713256836%" stop-color="#FFFFFF" stop-opacity="0"/></linearGradient><filter id="master_svgf_1_3907" filterUnits="objectBoundingBox" color-interpolation-filters="sRGB" x="-0.011265432739690273" y="-0.011265432739690273" width="1.0225308654793805" height="1.0225308654793805"><feFlood flood-opacity="0" result="BackgroundImageFix"/><feColorMatrix in="SourceAlpha" type="matrix" values="0 0 0 0 0 0 0 0 0 0 0 0 0 0 0 0 0 0 127 0"/><feOffset dy="0" dx="0"/><feGaussianBlur stdDeviation="0.04025735333561897"/><feColorMatrix type="matrix" values="0 0 0 0 0.12958280742168427 0 0 0 0 0.7321428656578064 0 0 0 0 0.6568228602409363 0 0 0 1 0"/><feBlend mode="normal" in2="BackgroundImageFix" result="effect1_dropShadow"/><feBlend mode="normal" in="SourceGraphic" in2="effect1_dropShadow" result="shape"/><feColorMatrix in="SourceAlpha" type="matrix" result="hardAlpha" values="0 0 0 0 0 0 0 0 0 0 0 0 0 0 0 0 0 0 127 0"/><feOffset dy="0.20128676295280457" dx="0.20128676295280457"/><feGaussianBlur stdDeviation="0"/><feComposite in2="hardAlpha" operator="arithmetic" k2="-1" k3="1"/><feColorMatrix type="matrix" values="0 0 0 0 0.1692477911710739 0 0 0 0 0.6071428656578064 0 0 0 0 0.5554229617118835 0 0 0 1 0"/><feBlend mode="normal" in2="shape" result="effect2_innerShadow"/></filter><linearGradient x1="0.19485294818878174" y1="0.21691176295280457" x2="0.7058823704719543" y2="0.9522058963775635" id="master_svgg_1_0345"><stop offset="0%" stop-color="#85DCDC" stop-opacity="1"/><stop offset="96.42857313156128%" stop-color="#21C7B1" stop-opacity="1"/></linearGradient><filter id="master_svgh_1_3904" filterUnits="objectBoundingBox" color-interpolation-filters="sRGB" x="-0.011477987901015464" y="-0.011477987901015464" width="1.022955975802031" height="1.022955975802031"><feFlood flood-opacity="0" result="BackgroundImageFix"/><feColorMatrix in="SourceAlpha" type="matrix" values="0 0 0 0 0 0 0 0 0 0 0 0 0 0 0 0 0 0 127 0"/><feOffset dy="0" dx="0"/><feGaussianBlur stdDeviation="0.04025735333561897"/><feColorMatrix type="matrix" values="0 0 0 0 0.12958280742168427 0 0 0 0 0.7321428656578064 0 0 0 0 0.6568228602409363 0 0 0 1 0"/><feBlend mode="normal" in2="BackgroundImageFix" result="effect1_dropShadow"/><feBlend mode="normal" in="SourceGraphic" in2="effect1_dropShadow" result="shape"/><feColorMatrix in="SourceAlpha" type="matrix" result="hardAlpha" values="0 0 0 0 0 0 0 0 0 0 0 0 0 0 0 0 0 0 127 0"/><feOffset dy="0.20128676295280457" dx="0.20128676295280457"/><feGaussianBlur stdDeviation="0"/><feComposite in2="hardAlpha" operator="arithmetic" k2="-1" k3="1"/><feColorMatrix type="matrix" values="0 0 0 0 0.1692477911710739 0 0 0 0 0.6071428656578064 0 0 0 0 0.5554229617118835 0 0 0 1 0"/><feBlend mode="normal" in2="shape" result="effect2_innerShadow"/></filter><linearGradient x1="0.19485294818878174" y1="0.21691176295280457" x2="0.7058823704719543" y2="0.9522058963775635" id="master_svgi_1_0345"><stop offset="0%" stop-color="#FFFFFF" stop-opacity="1"/><stop offset="96.42857313156128%" stop-color="#FFFFFF" stop-opacity="1"/></linearGradient><mask id="master_svgj_1_3904" style="mask-type:alpha" maskUnits="objectBoundingBox"><g filter="url(#master_svgh_1_3904)"><path d="M14.269765984413146,5.027795184413147Q14.361170984413146,5.080567484413146,14.444903984413147,5.144818384413147Q14.528637984413146,5.209069884413147,14.603268984413146,5.283701084413147Q14.677899984413147,5.358332284413147,14.742150984413147,5.442066084413147Q14.806401984413148,5.525799884413146,14.859173984413147,5.617203584413147Q14.911946984413147,5.708607784413147,14.952337984413147,5.806117884413148Q14.992728984413146,5.903627984413147,15.020044984413147,6.005575784413147Q15.047361984413147,6.107523584413147,15.061137984413147,6.212164984413147Q15.074914984413146,6.316806484413147,15.074913984413147,6.422350484413147L15.074913984413147,11.577649684413148Q15.074914984413146,11.683194784413146,15.061137984413147,11.787835684413148Q15.047362984413146,11.892476684413147,15.020045984413146,11.994423984413148Q14.992728984413146,12.096371984413146,14.952338984413148,12.193882984413147Q14.911947984413146,12.291392984413147,14.859174984413148,12.382796984413147Q14.806403984413146,12.474200984413146,14.742151984413146,12.557934984413148Q14.677899984413147,12.641669984413147,14.603268984413146,12.716300984413147Q14.528637984413146,12.790930984413148,14.444904984413148,12.855182984413148Q14.361170984413146,12.919433984413146,14.269765984413146,12.972205984413147L9.805147284413147,15.549853984413147Q9.713743784413147,15.602625984413146,9.616233484413147,15.643015984413147Q9.518723084413146,15.683405984413147,9.416775384413146,15.710723984413146Q9.314827584413148,15.738040984413146,9.210185684413148,15.751815984413147Q9.105544684413147,15.765591984413147,9.000000084413147,15.765591984413147Q8.894455984413147,15.765591984413147,8.789815084413146,15.751815984413147Q8.685173584413146,15.738040984413146,8.583225884413146,15.710723984413146Q8.481277584413146,15.683405984413147,8.383767284413146,15.643015984413147Q8.286256884413147,15.602625984413146,8.194852984413146,15.549853984413147L3.730233584413147,12.972205984413147Q3.638829584413147,12.919433984413146,3.555095784413147,12.855182984413148Q3.471361884413147,12.790930984413148,3.3967307844131467,12.716300984413147Q3.322099684413147,12.641669984413147,3.2578483844131467,12.557934984413148Q3.193597084413147,12.474200984413146,3.140824884413147,12.382796984413147Q3.088052884413147,12.291392984413147,3.047662884413147,12.193882984413147Q3.0072728844131467,12.096371984413146,2.979955974413147,11.994423984413148Q2.952639104413147,11.892476684413147,2.938862744413147,11.787835684413148Q2.925086494413147,11.683194784413146,2.925086434413147,11.577649684413148L2.925086324413147,6.422350984413147Q2.925086374413147,6.316806484413147,2.938862624413147,6.212165484413147Q2.9526389244131472,6.107524084413147,2.979955794413147,6.005576284413147Q3.0072725844131467,5.903628484413147,3.047662584413147,5.806118084413146Q3.088052584413147,5.708608284413147,3.140824784413147,5.617204084413147Q3.193596984413147,5.525800384413147,3.257848184413147,5.442066284413147Q3.322099484413147,5.358332484413147,3.396730584413147,5.283701584413147Q3.471361684413147,5.209070284413147,3.555095584413147,5.144818884413147Q3.638829384413147,5.080567484413146,3.730233284413147,5.027795384413147L8.194852984413146,2.450145874413147Q8.286256884413147,2.397373734413147,8.383767284413146,2.356983724413147Q8.481277084413147,2.316593704413147,8.583225384413147,2.289276804413147Q8.685173184413147,2.261959974413147,8.789814084413148,2.2481836644131468Q8.894455584413148,2.234407364413147,8.999999684413147,2.234407364413147Q9.105544184413148,2.234407364413147,9.210185684413148,2.2481836644131468Q9.314827584413148,2.261959974413147,9.416775384413146,2.289276834413147Q9.518723084413146,2.316593704413147,9.616233484413147,2.356983724413147Q9.713743784413147,2.397373734413147,9.805147284413147,2.450145874413147L14.269765984413146,5.027795184413147Z" fill="url(#master_svgi_1_0345)" fill-opacity="1"/></g></mask><filter id="master_svgk_1_3903" filterUnits="objectBoundingBox" color-interpolation-filters="sRGB" x="-0.09258157630109211" y="-0.0971635499621995" width="1.1851631526021842" height="1.194327099924399"><feFlood flood-opacity="0" result="BackgroundImageFix"/><feColorMatrix in="SourceAlpha" type="matrix" values="0 0 0 0 0 0 0 0 0 0 0 0 0 0 0 0 0 0 127 0"/><feOffset dy="0" dx="0"/><feGaussianBlur stdDeviation="0.40257352590560913"/><feColorMatrix type="matrix" values="0 0 0 0 0.07300885021686554 0 0 0 0 0.7857142686843872 0 0 0 0 0.6942182779312134 0 0 0 1 0"/><feBlend mode="normal" in2="BackgroundImageFix" result="effect1_dropShadow"/><feBlend mode="normal" in="SourceGraphic" in2="effect1_dropShadow" result="shape"/></filter><radialGradient cx="0" cy="0" r="1" gradientUnits="userSpaceOnUse" id="master_svgl_1_0577" gradientTransform="translate(8.961328744888306 8.948277950286865) rotate(90) scale(8.286513328552246 8.696622848510742)"><stop offset="10.000000149011612%" stop-color="#DFFFE9" stop-opacity="0.6499999761581421"/><stop offset="100%" stop-color="#DFFFF8" stop-opacity="0.1899999976158142"/></radialGradient><filter id="master_svgm_1_3916" filterUnits="objectBoundingBox" color-interpolation-filters="sRGB" x="-0.12624492333412088" y="-0.08778071253400802" width="1.2524898466682417" height="1.210673708522012"><feFlood flood-opacity="0" result="BackgroundImageFix"/><feColorMatrix in="SourceAlpha" type="matrix" values="0 0 0 0 0 0 0 0 0 0 0 0 0 0 0 0 0 0 127 0"/><feOffset dy="0.26838234066963196" dx="0"/><feGaussianBlur stdDeviation="0.40257352590560913"/><feColorMatrix type="matrix" values="0 0 0 0 0.10145385563373566 0 0 0 0 0.636904776096344 0 0 0 0 0.4805341362953186 0 0 0 0.6600000262260437 0"/><feBlend mode="normal" in2="BackgroundImageFix" result="effect1_dropShadow"/><feBlend mode="normal" in="SourceGraphic" in2="effect1_dropShadow" result="shape"/></filter><filter id="master_svgn_1_3935" filterUnits="objectBoundingBox" color-interpolation-filters="sRGB" x="0" y="0" width="1" height="1"><feFlood flood-opacity="0" result="BackgroundImageFix"/><feBlend mode="normal" in="SourceGraphic" in2="BackgroundImageFix" result="shape"/><feColorMatrix in="SourceAlpha" type="matrix" result="hardAlpha" values="0 0 0 0 0 0 0 0 0 0 0 0 0 0 0 0 0 0 127 0"/><feOffset dy="-0.13419117033481598" dx="0"/><feGaussianBlur stdDeviation="0.13419117033481598"/><feComposite in2="hardAlpha" operator="arithmetic" k2="-1" k3="1"/><feColorMatrix type="matrix" values="0 0 0 0 1 0 0 0 0 0.5455779433250427 0 0 0 0 0.40265485644340515 0 0 0 1 0"/><feBlend mode="normal" in2="shape" result="effect1_innerShadow"/><feColorMatrix in="SourceAlpha" type="matrix" result="hardAlpha" values="0 0 0 0 0 0 0 0 0 0 0 0 0 0 0 0 0 0 127 0"/><feOffset dy="0.13419117033481598" dx="0"/><feGaussianBlur stdDeviation="0.13419117033481598"/><feComposite in2="hardAlpha" operator="arithmetic" k2="-1" k3="1"/><feColorMatrix type="matrix" values="0 0 0 0 1 0 0 0 0 0.9115044474601746 0 0 0 0 0.8230088353157043 0 0 0 1 0"/><feBlend mode="normal" in2="effect1_innerShadow" result="effect2_innerShadow"/></filter><linearGradient x1="0" y1="0.3888888955116272" x2="1.1500386228183859" y2="0.3838887220960032" id="master_svgo_1_0665"><stop offset="0%" stop-color="#FDAC61" stop-opacity="1"/><stop offset="23.287667334079742%" stop-color="#FEB482" stop-opacity="1"/><stop offset="71.79949879646301%" stop-color="#FF7D57" stop-opacity="1"/><stop offset="98.57141971588135%" stop-color="#FFE479" stop-opacity="1"/></linearGradient><filter id="master_svgp_1_3919" filterUnits="objectBoundingBox" color-interpolation-filters="sRGB" x="0" y="0" width="1" height="1"><feFlood flood-opacity="0" result="BackgroundImageFix"/><feBlend mode="normal" in="SourceGraphic" in2="BackgroundImageFix" result="shape"/><feColorMatrix in="SourceAlpha" type="matrix" result="hardAlpha" values="0 0 0 0 0 0 0 0 0 0 0 0 0 0 0 0 0 0 127 0"/><feOffset dy="0.9393381476402283" dx="0"/><feGaussianBlur stdDeviation="0.26838234066963196"/><feComposite in2="hardAlpha" operator="arithmetic" k2="-1" k3="1"/><feColorMatrix type="matrix" values="0 0 0 0 1 0 0 0 0 0.0752212405204773 0 0 0 0 0.8381635546684265 0 0 0 0.47999998927116394 0"/><feBlend mode="normal" in2="shape" result="effect1_innerShadow"/></filter><filter id="master_svgq_1_3921" filterUnits="objectBoundingBox" color-interpolation-filters="sRGB" x="0" y="0" width="1" height="1"><feFlood flood-opacity="0" result="BackgroundImageFix"/><feBlend mode="normal" in="SourceGraphic" in2="BackgroundImageFix" result="shape"/><feColorMatrix in="SourceAlpha" type="matrix" result="hardAlpha" values="0 0 0 0 0 0 0 0 0 0 0 0 0 0 0 0 0 0 127 0"/><feOffset dy="-0.13419117033481598" dx="0"/><feGaussianBlur stdDeviation="0.06709558516740799"/><feComposite in2="hardAlpha" operator="arithmetic" k2="-1" k3="1"/><feColorMatrix type="matrix" values="0 0 0 0 1 0 0 0 0 0.9983775615692139 0 0 0 0 0.9026548862457275 0 0 0 0.33000001311302185 0"/><feBlend mode="normal" in2="shape" result="effect1_innerShadow"/><feColorMatrix in="SourceAlpha" type="matrix" result="hardAlpha" values="0 0 0 0 0 0 0 0 0 0 0 0 0 0 0 0 0 0 127 0"/><feOffset dy="0" dx="-0.26838234066963196"/><feGaussianBlur stdDeviation="0.26838234066963196"/><feComposite in2="hardAlpha" operator="arithmetic" k2="-1" k3="1"/><feColorMatrix type="matrix" values="0 0 0 0 1 0 0 0 0 0.7676991820335388 0 0 0 0 0.6017699241638184 0 0 0 0.30000001192092896 0"/><feBlend mode="normal" in2="effect1_innerShadow" result="effect2_innerShadow"/><feColorMatrix in="SourceAlpha" type="matrix" result="hardAlpha" values="0 0 0 0 0 0 0 0 0 0 0 0 0 0 0 0 0 0 127 0"/><feOffset dy="0.26838234066963196" dx="0.26838234066963196"/><feGaussianBlur stdDeviation="0.40257352590560913"/><feComposite in2="hardAlpha" operator="arithmetic" k2="-1" k3="1"/><feColorMatrix type="matrix" values="0 0 0 0 0.9247787594795227 0 0 0 0 0.987463116645813 0 0 0 0 1 0 0 0 1 0"/><feBlend mode="normal" in2="effect2_innerShadow" result="effect3_innerShadow"/></filter><filter id="master_svgr_1_3921" filterUnits="objectBoundingBox" color-interpolation-filters="sRGB" x="0" y="0" width="1" height="1"><feFlood flood-opacity="0" result="BackgroundImageFix"/><feBlend mode="normal" in="SourceGraphic" in2="BackgroundImageFix" result="shape"/><feColorMatrix in="SourceAlpha" type="matrix" result="hardAlpha" values="0 0 0 0 0 0 0 0 0 0 0 0 0 0 0 0 0 0 127 0"/><feOffset dy="-0.13419117033481598" dx="0"/><feGaussianBlur stdDeviation="0.06709558516740799"/><feComposite in2="hardAlpha" operator="arithmetic" k2="-1" k3="1"/><feColorMatrix type="matrix" values="0 0 0 0 1 0 0 0 0 0.9983775615692139 0 0 0 0 0.9026548862457275 0 0 0 0.33000001311302185 0"/><feBlend mode="normal" in2="shape" result="effect1_innerShadow"/><feColorMatrix in="SourceAlpha" type="matrix" result="hardAlpha" values="0 0 0 0 0 0 0 0 0 0 0 0 0 0 0 0 0 0 127 0"/><feOffset dy="0" dx="-0.26838234066963196"/><feGaussianBlur stdDeviation="0.26838234066963196"/><feComposite in2="hardAlpha" operator="arithmetic" k2="-1" k3="1"/><feColorMatrix type="matrix" values="0 0 0 0 1 0 0 0 0 0.7676991820335388 0 0 0 0 0.6017699241638184 0 0 0 0.30000001192092896 0"/><feBlend mode="normal" in2="effect1_innerShadow" result="effect2_innerShadow"/><feColorMatrix in="SourceAlpha" type="matrix" result="hardAlpha" values="0 0 0 0 0 0 0 0 0 0 0 0 0 0 0 0 0 0 127 0"/><feOffset dy="0.26838234066963196" dx="0.26838234066963196"/><feGaussianBlur stdDeviation="0.40257352590560913"/><feComposite in2="hardAlpha" operator="arithmetic" k2="-1" k3="1"/><feColorMatrix type="matrix" values="0 0 0 0 0.9247787594795227 0 0 0 0 0.987463116645813 0 0 0 0 1 0 0 0 1 0"/><feBlend mode="normal" in2="effect2_innerShadow" result="effect3_innerShadow"/></filter><mask id="master_svgs_1_3921" style="mask-type:alpha" maskUnits="objectBoundingBox"><g filter="url(#master_svgr_1_3921)"><path d="M9.45186215426117,12.794126941678623L8.79009759426117,8.205892541678622L13.290096594261168,8.205892541678622L12.62833149426117,12.794126941678623L12.62680519426117,12.794126941678623Q12.62843239426117,12.808761141678623,12.62843239426117,12.823410441678622Q12.62843239426117,12.855198841678622,12.62078459426117,12.886833141678622Q12.613136694261168,12.918468441678623,12.59791459426117,12.949645041678622Q12.58269299426117,12.980822541678624,12.56004319426117,13.011241441678623Q12.53739389426117,13.041660241678622,12.50753489426117,13.071028641678623Q12.477676294261169,13.100397041678622,12.440895394261169,13.128431341678622Q12.40411459426117,13.156465941678622,12.36076609426117,13.182896641678623Q12.31741799426117,13.209327641678623,12.26791969426117,13.233899541678621Q12.218421094261169,13.258472441678622,12.16324889426117,13.280949541678623Q12.10807689426117,13.303427241678623,12.04776279426117,13.323593641678622Q11.987448594261169,13.343759541678622,11.92257299426117,13.361419641678623Q11.85769789426117,13.379080241678622,11.78888599426117,13.394064841678622Q11.72007409426117,13.409049441678622,11.64798839426117,13.421214041678622Q11.57590279426117,13.433379141678621,11.501237794261169,13.442606941678623Q11.42657269426117,13.451834641678623,11.35004679426117,13.458035441678621Q11.273521294261169,13.464237241678623,11.19587219426117,13.467353341678622Q11.11822279426117,13.470468941678622,11.04019769426117,13.470468941678622Q10.962172894261169,13.470468941678622,10.88452349426117,13.467353341678622Q10.80687419426117,13.464237241678623,10.730348394261169,13.458035441678621Q10.65382269426117,13.451834641678623,10.57915749426117,13.442606941678623Q10.50449219426117,13.433379141678621,10.43240629426117,13.421214041678622Q10.36032069426117,13.409049441678622,10.29150889426117,13.394064841678622Q10.22269699426117,13.379080241678622,10.157821494261169,13.361419641678623Q10.09294619426117,13.343759541678622,10.032632094261169,13.323593141678622Q9.972318094261169,13.303427241678623,9.917145994261169,13.280949541678623Q9.86197399426117,13.258472441678622,9.81247559426117,13.233899541678621Q9.762976944261169,13.209327641678623,9.719628514261169,13.182896641678623Q9.67628026426117,13.156465941678622,9.639499484261169,13.128431741678622Q9.60271883426117,13.100397041678622,9.57285988426117,13.071028641678623Q9.54300105426117,13.041660241678622,9.520351644261169,13.011241441678623Q9.49770218426117,12.980822541678624,9.48248022426117,12.949645041678622Q9.46725833426117,12.918468441678623,9.459610584261169,12.886833141678622Q9.45196282426117,12.855198841678622,9.45196282426117,12.823410441678622Q9.45196282426117,12.808761141678623,9.45359009426117,12.794126941678623L9.45186215426117,12.794126941678623Z" fill-rule="evenodd" fill="#FFFFFF" fill-opacity="1"/></g></mask><filter id="master_svgt_1_3920" filterUnits="objectBoundingBox" color-interpolation-filters="sRGB" x="-2.027778262525567" y="-0.540740719835781" width="5.055556525051134" height="2.081481439671562"><feFlood flood-opacity="0" result="BackgroundImageFix"/><feBlend mode="normal" in="SourceGraphic" in2="BackgroundImageFix" result="shape"/><feGaussianBlur stdDeviation="0.5367646813392639" result="effect1_foregroundBlur"/></filter><linearGradient x1="0" y1="0.42500001192092896" x2="1" y2="0.42500001192092896" id="master_svgu_1_0642"><stop offset="0%" stop-color="#F7FDFF" stop-opacity="1"/><stop offset="100%" stop-color="#FFF7EC" stop-opacity="1"/></linearGradient><filter id="master_svgv_1_3924" filterUnits="objectBoundingBox" color-interpolation-filters="sRGB" x="-1.5213431483152702" y="-0.37221438378593275" width="4.04268629663054" height="1.7444287675718655"><feFlood flood-opacity="0" result="BackgroundImageFix"/><feBlend mode="normal" in="SourceGraphic" in2="BackgroundImageFix" result="shape"/><feGaussianBlur stdDeviation="0.40257352590560913" result="effect1_foregroundBlur"/></filter><linearGradient x1="0" y1="0.42500001192092896" x2="1" y2="0.42500001192092896" id="master_svgw_1_0662"><stop offset="5.714285746216774%" stop-color="#F7FDFF" stop-opacity="1"/><stop offset="37.793418765068054%" stop-color="#FFF2BC" stop-opacity="1"/></linearGradient><filter id="master_svgx_1_3925" filterUnits="objectBoundingBox" color-interpolation-filters="sRGB" x="-0.14484130213651375" y="-0.07242062777228284" width="1.2896826042730274" height="1.2896825110891315"><feFlood flood-opacity="0" result="BackgroundImageFix"/><feColorMatrix in="SourceAlpha" type="matrix" values="0 0 0 0 0 0 0 0 0 0 0 0 0 0 0 0 0 0 127 0"/><feOffset dy="0.13419117033481598" dx="0"/><feGaussianBlur stdDeviation="0.06709558516740799"/><feColorMatrix type="matrix" values="0 0 0 0 0.7857142686843872 0 0 0 0 0 0 0 0 0 0.6023809313774109 0 0 0 0.44999998807907104 0"/><feBlend mode="normal" in2="BackgroundImageFix" result="effect1_dropShadow"/><feBlend mode="normal" in="SourceGraphic" in2="effect1_dropShadow" result="shape"/><feColorMatrix in="SourceAlpha" type="matrix" result="hardAlpha" values="0 0 0 0 0 0 0 0 0 0 0 0 0 0 0 0 0 0 127 0"/><feOffset dy="0.13419117033481598" dx="0.13419117033481598"/><feGaussianBlur stdDeviation="0.06709558516740799"/><feComposite in2="hardAlpha" operator="arithmetic" k2="-1" k3="1"/><feColorMatrix type="matrix" values="0 0 0 0 1 0 0 0 0 1 0 0 0 0 1 0 0 0 0.30000001192092896 0"/><feBlend mode="normal" in2="shape" result="effect2_innerShadow"/></filter><linearGradient x1="0.3035714328289032" y1="0.232142835855484" x2="1.071428290367554" y2="1.0000002470010425" id="master_svgy_1_0656"><stop offset="23.269131779670715%" stop-color="#FFECD0" stop-opacity="1"/><stop offset="100%" stop-color="#FFA699" stop-opacity="1"/></linearGradient><filter id="master_svgz_1_3931" filterUnits="objectBoundingBox" color-interpolation-filters="sRGB" x="0" y="0" width="1" height="1"><feFlood flood-opacity="0" result="BackgroundImageFix"/><feBlend mode="normal" in="SourceGraphic" in2="BackgroundImageFix" result="shape"/><feColorMatrix in="SourceAlpha" type="matrix" result="hardAlpha" values="0 0 0 0 0 0 0 0 0 0 0 0 0 0 0 0 0 0 127 0"/><feOffset dy="0.13419117033481598" dx="0.13419117033481598"/><feGaussianBlur stdDeviation="0.40257352590560913"/><feComposite in2="hardAlpha" operator="arithmetic" k2="-1" k3="1"/><feColorMatrix type="matrix" values="0 0 0 0 1 0 0 0 0 0.9454277157783508 0 0 0 0 0.8362832069396973 0 0 0 0.6600000262260437 0"/><feBlend mode="normal" in2="shape" result="effect1_innerShadow"/></filter><radialGradient cx="0" cy="0" r="1" gradientUnits="userSpaceOnUse" id="master_svg10_1_0628" gradientTransform="translate(9.795211328466507 4.10274738221915) rotate(76.43930668471869) scale(5.30979056107876 5.399785637383162)"><stop offset="2.142857201397419%" stop-color="#FFFCCA" stop-opacity="1"/><stop offset="39.28571343421936%" stop-color="#FFDCA8" stop-opacity="1"/><stop offset="71.15738987922668%" stop-color="#FF967A" stop-opacity="1"/><stop offset="95.20547986030579%" stop-color="#FF967A" stop-opacity="1"/></radialGradient><filter id="master_svg11_1_3931" filterUnits="objectBoundingBox" color-interpolation-filters="sRGB" x="0" y="0" width="1" height="1"><feFlood flood-opacity="0" result="BackgroundImageFix"/><feBlend mode="normal" in="SourceGraphic" in2="BackgroundImageFix" result="shape"/><feColorMatrix in="SourceAlpha" type="matrix" result="hardAlpha" values="0 0 0 0 0 0 0 0 0 0 0 0 0 0 0 0 0 0 127 0"/><feOffset dy="0.13419117033481598" dx="0.13419117033481598"/><feGaussianBlur stdDeviation="0.40257352590560913"/><feComposite in2="hardAlpha" operator="arithmetic" k2="-1" k3="1"/><feColorMatrix type="matrix" values="0 0 0 0 1 0 0 0 0 0.9454277157783508 0 0 0 0 0.8362832069396973 0 0 0 0.6600000262260437 0"/><feBlend mode="normal" in2="shape" result="effect1_innerShadow"/></filter><mask id="master_svg12_1_3931" style="mask-type:alpha" maskUnits="objectBoundingBox"><g filter="url(#master_svg11_1_3931)"><ellipse cx="11.040225863456726" cy="5.360100269317627" rx="3.9705872535705566" ry="3.904411792755127" fill="#FFFFFF" fill-opacity="1"/></g></mask><filter id="master_svg13_1_3933" filterUnits="objectBoundingBox" color-interpolation-filters="sRGB" x="-0.13139026081560962" y="-0.1371186906549466" width="1.2627805216312193" height="1.2742373813098933"><feFlood flood-opacity="0" result="BackgroundImageFix"/><feBlend mode="normal" in="SourceGraphic" in2="BackgroundImageFix" result="shape"/><feGaussianBlur stdDeviation="0.26838234066963196" result="effect1_foregroundBlur"/></filter><filter id="master_svg14_1_3927" filterUnits="objectBoundingBox" color-interpolation-filters="sRGB" x="-0.32892229001639706" y="-0.34231668520045316" width="1.6578445800327941" height="1.6846333704009064"><feFlood flood-opacity="0" result="BackgroundImageFix"/><feBlend mode="normal" in="SourceGraphic" in2="BackgroundImageFix" result="shape"/><feGaussianBlur stdDeviation="0.6709558963775635" result="effect1_foregroundBlur"/></filter><filter id="master_svg15_1_3932" filterUnits="objectBoundingBox" color-interpolation-filters="sRGB" x="-0.2929844372664746" y="-0.26210210446545795" width="1.5859688745329492" height="1.5242042089309158"><feFlood flood-opacity="0" result="BackgroundImageFix"/><feBlend mode="normal" in="SourceGraphic" in2="BackgroundImageFix" result="shape"/><feGaussianBlur stdDeviation="0.40257352590560913" result="effect1_foregroundBlur"/></filter><filter id="master_svg16_1_3928" filterUnits="objectBoundingBox" color-interpolation-filters="sRGB" x="-0.025034298041098094" y="-0.052442508900235676" width="1.0500685960821963" height="1.1398466904006286"><feFlood flood-opacity="0" result="BackgroundImageFix"/><feColorMatrix in="SourceAlpha" type="matrix" values="0 0 0 0 0 0 0 0 0 0 0 0 0 0 0 0 0 0 127 0"/><feOffset dy="0.06709558516740799" dx="0"/><feGaussianBlur stdDeviation="0.06709558516740799"/><feColorMatrix type="matrix" values="0 0 0 0 1 0 0 0 0 0.502212405204773 0 0 0 0 0.40265485644340515 0 0 0 0.75 0"/><feBlend mode="normal" in2="BackgroundImageFix" result="effect1_dropShadow"/><feBlend mode="normal" in="SourceGraphic" in2="effect1_dropShadow" result="shape"/><feColorMatrix in="SourceAlpha" type="matrix" result="hardAlpha" values="0 0 0 0 0 0 0 0 0 0 0 0 0 0 0 0 0 0 127 0"/><feOffset dy="0.13419117033481598" dx="0"/><feGaussianBlur stdDeviation="0.06709558516740799"/><feComposite in2="hardAlpha" operator="arithmetic" k2="-1" k3="1"/><feColorMatrix type="matrix" values="0 0 0 0 1 0 0 0 0 0.9996312260627747 0 0 0 0 0.9778761267662048 0 0 0 0.5 0"/><feBlend mode="normal" in2="shape" result="effect2_innerShadow"/></filter><linearGradient x1="0.15123456716537476" y1="0.6206896305084229" x2="0.8710388867718439" y2="0.6406842243894602" id="master_svg17_1_0615"><stop offset="0%" stop-color="#F7F9DF" stop-opacity="1"/><stop offset="25.342464447021484%" stop-color="#FFE5D0" stop-opacity="1"/><stop offset="37.02302575111389%" stop-color="#FFF3DE" stop-opacity="1"/><stop offset="66.48799180984497%" stop-color="#FDC3BC" stop-opacity="1"/><stop offset="100%" stop-color="#F4E8F8" stop-opacity="1"/></linearGradient><filter id="master_svg18_1_3937" filterUnits="objectBoundingBox" color-interpolation-filters="sRGB" x="0" y="0" width="1" height="1"><feFlood flood-opacity="0" result="BackgroundImageFix"/><feBlend mode="normal" in="SourceGraphic" in2="BackgroundImageFix" result="shape"/><feColorMatrix in="SourceAlpha" type="matrix" result="hardAlpha" values="0 0 0 0 0 0 0 0 0 0 0 0 0 0 0 0 0 0 127 0"/><feOffset dy="0" dx="0"/><feGaussianBlur stdDeviation="0.2214154601097107"/><feComposite in2="hardAlpha" operator="arithmetic" k2="-1" k3="1"/><feColorMatrix type="matrix" values="0 0 0 0 0.999336302280426 0 0 0 0 0.9601770043373108 0 0 0 0 1 0 0 0 1 0"/><feBlend mode="normal" in2="shape" result="effect1_innerShadow"/></filter><linearGradient x1="0.5755001306533813" y1="0.7306441068649292" x2="0.21149524553494206" y2="0.3857808445723394" id="master_svg19_1_0593"><stop offset="0%" stop-color="#FF52E3" stop-opacity="1"/><stop offset="100%" stop-color="#FF8DC0" stop-opacity="1"/></linearGradient><filter id="master_svg1a_1_3940" filterUnits="objectBoundingBox" color-interpolation-filters="sRGB" x="-0.5084664331751819" y="-1.520833009220631" width="2.0169328663503636" height="4.041666018441262"><feFlood flood-opacity="0" result="BackgroundImageFix"/><feBlend mode="normal" in="SourceGraphic" in2="BackgroundImageFix" result="shape"/><feGaussianBlur stdDeviation="0.11070773005485535" result="effect1_foregroundBlur"/></filter><filter id="master_svg1b_1_3941" filterUnits="objectBoundingBox" color-interpolation-filters="sRGB" x="-0.5841977791176931" y="-0.6167416492964289" width="2.168395558235386" height="2.2334832985928577"><feFlood flood-opacity="0" result="BackgroundImageFix"/><feColorMatrix in="SourceAlpha" type="matrix" values="0 0 0 0 0 0 0 0 0 0 0 0 0 0 0 0 0 0 127 0"/><feOffset dy="0" dx="0"/><feGaussianBlur stdDeviation="0.40257352590560913"/><feColorMatrix type="matrix" values="0 0 0 0 1 0 0 0 0 1 0 0 0 0 1 0 0 0 0.5299999713897705 0"/><feBlend mode="normal" in2="BackgroundImageFix" result="effect1_dropShadow"/><feBlend mode="normal" in="SourceGraphic" in2="effect1_dropShadow" result="shape"/></filter></defs><g clip-path="url(#master_svg0_1_3886)"><g><g mask="url(#master_svg2_1_3889)"><g><rect x="6" y="0.999755859375" width="52" height="16" rx="4" fill="url(#master_svg1_1_2801)" fill-opacity="1"/></g><g filter="url(#master_svg3_1_3890)"><ellipse cx="56" cy="9" rx="1" ry="1" fill="#FFFFFF" fill-opacity="1"/></g><g filter="url(#master_svg4_1_3891)"><path d="M19,9.000506359375C19,13.971249859375,14.969994,17.999755859375,9.9992504,17.999755859375C5.0285072,17.999755859375,1,13.971249859375,1,9.000506359375C1,4.029763659375,5.0285072,-0.000244140625,9.9992504,-0.000244140625C14.969994,-0.000244140625,19,4.029763659375,19,9.000506359375L19,9.000506359375Z" fill-rule="evenodd" fill="#0FA2BF" fill-opacity="0.7400000095367432"/></g></g><g transform="matrix(0.8755818009376526,-0.48306983709335327,0.48306983709335327,0.8755818009376526,-0.0820481266855495,25.919225981182535)" filter="url(#master_svg5_1_3892)"><path d="M53.4649033875,13.272549864375L53.4649071875,13.271615264375C53.4652964875,13.177495062375,53.5467130875,13.106196698375,53.6396145875,13.121299730575L55.1578998875,13.368128214375C55.2613806875,13.384951294375,55.3160137875,13.509924144375,55.2514099875,13.592494014375C55.1146044875,13.767346264375,54.8955673875,13.956625644375,54.422597887500004,13.956625644375C54.2638394875,13.956625644375,54.1283783875,13.907648444375,54.0126852875,13.831335304375L53.9952275875,16.619481584375L53.9950410875,16.619506584375C53.9961742875,16.714636784375,53.9872147875,16.808709384375,53.967480387500004,16.900290284375C53.7946695875,17.702253384375,52.8610481875,18.009471884375,51.8395989875,17.788204684375C50.8181503375,17.566937484375,50.1301933275,16.737444384375,50.3030040865,15.935481584375001C50.4758149375,15.133517984375,51.4439537875,14.662771084375,52.4654023875,14.884038484375C52.8633653875,14.970245584375,53.2054671875,15.173599684375,53.4646074875,15.437160484375L53.4641723875,13.413083494375L53.4648947875,13.274413214375L53.4649033875,13.272549864375Z" fill-rule="evenodd" fill="#FFFFFF" fill-opacity="1"/></g></g><g filter="url(#master_svg6_1_3895)"><path d="M23.0639999,4.3540000899999995Q22.8439999,5.3769998999999995,22.7119999,5.9380002L23.636000199999998,5.9380002Q24.4720001,5.9380002,24.4720001,6.895Q24.4720001,7.302,24.3509998,7.7860002999999995Q24.23,8.27,23.9990001,9.0510001Q23.7020001,10.052,23.1960001,10.9759998Q23.7020001,11.4819999,24.4720001,12.3509998L23.6030002,12.9779997L23.108,12.4060001L22.634999999999998,11.8780003Q21.9200001,12.934,20.897,13.8360004L19.92899999,13.3190002Q21.095,12.2849998,21.9200001,11.097000099999999Q21.7219999,10.888,21.161,10.349L20.9629999,10.161999699999999Q20.798000000000002,10.0190001,20.721,9.8924999Q20.6440001,9.7659998,20.6440001,9.612Q20.6440001,9.4580002,20.732,9.1940002Q21.161,7.8629999,21.392,6.961L20.545,6.961L20.655,5.9380002L21.645,5.9380002Q21.8099999,5.2779999,21.964,4.3540000899999995L23.0639999,4.3540000899999995ZM29.796,9.447L27.651,9.447L27.244,12.9890003Q27.178,13.4510002,26.947,13.6435003Q26.7160001,13.8360004,26.309,13.8029995Q25.5279999,13.7369995,24.6589999,13.3850002L24.8130002,12.3839998Q25.539,12.6370001,26.0450001,12.7030001Q26.0669999,12.7139997,26.0999999,12.7139997Q26.1549997,12.7139997,26.1714997,12.6754999Q26.1879997,12.6370001,26.1989999,12.5489998L26.573,9.447L24.4060001,9.447L24.527,8.4570003L26.6939998,8.4570003L26.8150001,7.434L28.2010002,5.8720002000000004L25.066,5.8720002000000004L25.1760001,4.90400028L28.7950001,4.90400028Q29.0810003,4.90400028,29.2734995,5.0085001Q29.4659996,5.1129999,29.543,5.2779999Q29.587,5.3660002,29.587,5.4980001000000005Q29.587,5.8169999,29.3120003,6.1360002L27.849,7.7639999L27.772000300000002,8.4570003L29.917,8.4570003L29.796,9.447ZM22.448,6.961Q22.03,8.434999900000001,21.6670001,9.5349998L21.8759999,9.722000099999999Q22.2279999,10.029999700000001,22.4259999,10.2279997Q23.108,8.8860002,23.3940001,7.2470002000000004L23.4159999,7.0710001Q23.4159999,7.0050001,23.372,6.9829998Q23.3280001,6.961,23.2179999,6.961L22.448,6.961ZM40.103001,6.763L40.004000000000005,7.7309999000000005L32.469,7.7309999000000005L32.579,6.763L35.769001,6.763L35.867999999999995,5.993L31.963,5.993L32.073,5.0250001L35.989000000000004,5.0250001L36.087998999999996,4.21100044L37.144001,4.21100044L37.045,5.0250001L40.851,5.0250001L40.741001,5.993L36.924,5.993L36.825001,6.763L40.103001,6.763ZM33.217,11.217999899999999Q33.085,11.9990001,32.832,12.6370001Q32.579,13.2749996,32.117000000000004,13.9239998L31.039,13.5500002Q31.567,12.8459997,31.82,12.1970005Q32.04,11.5809999,32.161,10.6459999L32.348,9.2709999Q32.403,8.7870002,32.6065,8.5725002Q32.809999,8.3579998,33.25,8.3579998L39.124001,8.3579998Q39.971001,8.3579998,39.971001,9.1719999Q39.971001,9.315000099999999,39.959998999999996,9.3920002L39.739999999999995,11.217999899999999L33.217,11.217999899999999ZM35.637001,9.2379999L33.47,9.2379999L33.338,10.338000300000001L35.515999,10.338000300000001L35.637001,9.2379999ZM38.716999,10.338000300000001L38.838001,9.2379999L36.66,9.2379999L36.539,10.338000300000001L38.716999,10.338000300000001ZM51.444,5.223L51.312,6.1469998L50.013999999999996,6.1469998L49.475,7.5549998L51.84,7.5549998L51.708,8.5230002L42.566998999999996,8.5230002L42.698999,7.5549998L45.129999,7.5549998L44.822001,6.1469998L43.381001,6.1469998L43.502001,5.223L46.857,5.223L46.614999999999995,4.31000042L47.769999999999996,4.31000042L48.012001,5.223L51.444,5.223ZM48.891999999999996,6.1469998L45.888999999999996,6.1469998L46.186001000000005,7.5549998L48.353001,7.5549998L48.891999999999996,6.1469998ZM50.102001,13.7589998L43.160999000000004,13.7589998L43.601,9.9200001Q43.644999999999996,9.5900002,43.8925,9.3920002Q44.139999,9.1940002,44.492001,9.1940002L49.716999,9.1940002Q50.08,9.1940002,50.289,9.375499699999999Q50.498001,9.557000200000001,50.498001,9.8870001Q50.498001,9.9969997,50.486999999999995,10.052L50.102001,13.7589998ZM49.364999999999995,10.118L44.679001,10.118L44.58,11.0089998L49.265999,11.0089998L49.364999999999995,10.118ZM44.393,12.835L49.09,12.835L49.177999,11.8889999L44.492001,11.8889999L44.393,12.835Z" fill="#FFFFFF" fill-opacity="1"/></g><g><g filter="url(#master_svg7_1_3900)"><g><g mask="url(#master_svgb_1_3915)"><g filter="url(#master_svg8_1_3915)"><path d="M15.7207,3.8801975Q15.842573,3.9505606,15.954218,4.0362291Q16.065863,4.1218972,16.165371,4.221405Q16.264877,4.3209133,16.350548,4.4325585Q16.436214,4.5442038,16.506578,4.6660757Q16.576942,4.7879477,16.630795,4.9179616Q16.684649,5.0479751,16.721071,5.1839056Q16.757494,5.3198361,16.775862,5.4593582Q16.794231,5.5988798,16.79423,5.7396049L16.79423,12.260396Q16.794231,12.401121,16.775864,12.540644Q16.757494,12.680166,16.721071,12.816097Q16.684649,12.952027,16.630795,13.082041Q16.576942,13.212053,16.506578,13.333925Q16.436214,13.455797,16.350548,13.567443Q16.264877,13.679089,16.165371,13.778597Q16.065863,13.878105,15.954217,13.963773Q15.842571,14.04944,15.720699,14.119803L10.073529,17.380198Q9.9516563,17.450562,9.8216438,17.504416Q9.6916294,17.55827,9.5556993,17.594692Q9.4197693,17.631115,9.2802467,17.649483Q9.1407261,17.66785,9,17.66785Q8.8592749,17.66785,8.7197533,17.649483Q8.5802317,17.631115,8.4443016,17.594692Q8.3083706,17.55827,8.1783571,17.504416Q8.0483437,17.450562,7.9264708,17.380198L2.2793012,14.119803Q2.1574292,14.04944,2.045784,13.963773Q1.9341387,13.878105,1.8346306,13.778597Q1.7351226,13.679089,1.6494541,13.567444Q1.5637858,13.455797,1.493423,13.333925Q1.4230602,13.212053,1.3692068,13.082041Q1.3153534,12.952027,1.2789309,12.816097Q1.2425084,12.680166,1.22414,12.540644Q1.2057717,12.401121,1.2057716,12.260396L1.2057713,5.7396054Q1.2057714,5.5988798,1.2241398,5.4593582Q1.2425082,5.3198366,1.2789307,5.1839061Q1.3153532,5.0479755,1.3692065,4.9179621Q1.4230599,4.7879486,1.4934227,4.6660762Q1.5637856,4.5442047,1.649454,4.432559Q1.7351224,4.3209143,1.8346305,4.221406Q1.9341385,4.1218977,2.0457835,4.0362296Q2.1574287,3.950561,2.2793007,3.880198L7.9264708,0.61980253Q8.0483437,0.54943973,8.1783562,0.49558637Q8.3083706,0.44173294,8.4443007,0.40531045Q8.5802307,0.36888796,8.7197533,0.35051954Q8.8592749,0.33215117,9,0.33215114Q9.1407261,0.33215114,9.2802467,0.35051954Q9.4197693,0.3688879,9.5556993,0.40531039Q9.6916294,0.44173288,9.8216438,0.49558622Q9.9516563,0.54943961,10.073529,0.61980242L15.7207,3.8801975Z" fill="url(#master_svg9_1_0569)" fill-opacity="1"/></g><g transform="matrix(0.8666337728500366,-0.4989447593688965,0.4989447593688965,0.8666337728500366,-6.4114482883269375,6.987283417479944)" filter="url(#master_svgc_1_3910)"><path d="M10.580559193583984,15.77977919295166Q10.698559223583985,15.77977919295166,10.744059203583983,15.80827915295166Q10.789559243583984,15.83677917295166,10.789559243583984,15.91277921295166Q10.789559243583984,15.95677918295166,10.772559223583984,16.05177915295166L10.687559183583984,16.53677921295166L10.554559233583984,16.53677921295166L10.631559193583984,16.09077918295166Q10.651559233583985,15.97477919295166,10.651559233583985,15.94577920295166Q10.651559233583985,15.91777920295166,10.639059183583985,15.90477919295166Q10.626559193583985,15.89177918295166,10.601059193583984,15.88927918295166Q10.575559203583984,15.88677919295166,10.543559193583985,15.88677919295166L10.465559183583984,15.88677919295166L10.351559193583984,16.53677921295166L10.217559193583984,16.53677921295166L10.331559183583984,15.88677919295166L10.132559183583984,15.88677919295166L10.018559183583985,16.53677921295166L9.884559174583984,16.53677921295166L10.017559183583984,15.77977919295166L10.580559193583984,15.77977919295166ZM11.347559173583985,15.88777917295166L11.078559173583985,15.88777917295166L11.041559173583984,16.09977919295166L11.302559273583984,16.09977919295166L11.259559273583985,16.20477920295166L11.022559173583984,16.20477920295166L10.984559173583985,16.42577922295166L11.283559173583985,16.42577922295166L11.237559173583984,16.53677921295166L10.830559193583984,16.53677921295166L10.963559273583984,15.77977919295166L11.392559273583984,15.77977919295166L11.347559173583985,15.88777917295166ZM12.334559173583985,15.77977919295166Q12.452559273583985,15.77977919295166,12.498059273583983,15.80827915295166Q12.543559273583984,15.83677917295166,12.543559273583984,15.91277921295166Q12.543559273583984,15.95677918295166,12.526559373583984,16.05177915295166L12.441559273583984,16.53677921295166L12.308559373583984,16.53677921295166L12.385559273583985,16.09077918295166Q12.405559273583984,15.97477919295166,12.405559273583984,15.94577920295166Q12.405559273583984,15.91777920295166,12.393059273583985,15.90477919295166Q12.380559173583984,15.89177918295166,12.355059173583985,15.88927918295166Q12.329559373583985,15.88677919295166,12.297559273583985,15.88677919295166L12.219559173583985,15.88677919295166L12.105559373583985,16.53677921295166L11.971559273583985,16.53677921295166L12.085559373583985,15.88677919295166L11.886559273583984,15.88677919295166L11.772559273583985,16.53677921295166L11.638559173583985,16.53677921295166L11.771559273583984,15.77977919295166L12.334559173583985,15.77977919295166ZM13.101559173583984,15.88777917295166L12.832559073583985,15.88777917295166L12.795559173583985,16.09977919295166L13.056559373583983,16.09977919295166L13.013559373583984,16.20477920295166L12.776559373583984,16.20477920295166L12.738559273583984,16.42577922295166L13.037559273583984,16.42577922295166L12.991559273583984,16.53677921295166L12.584559173583985,16.53677921295166L12.717559373583985,15.77977919295166L13.146559273583984,15.77977919295166L13.101559173583984,15.88777917295166ZM13.546559373583985,16.42577922295166L13.843559273583985,16.42577922295166L13.797559273583985,16.53677921295166L13.392559273583984,16.53677921295166L13.525559473583984,15.77977919295166L13.659559273583984,15.77977919295166L13.546559373583985,16.42577922295166ZM13.919559473583984,16.53677921295166L14.053559273583986,15.77977919295166L14.187559173583985,15.77977919295166L14.054559273583983,16.53677921295166L13.919559473583984,16.53677921295166ZM14.787559073583985,15.77977919295166L14.912559073583985,15.77977919295166L14.522559173583986,16.53677921295166L14.370559173583985,16.53677921295166L14.276559373583984,15.77977919295166L14.409559273583984,15.77977919295166L14.480559373583985,16.38377922295166L14.787559073583985,15.77977919295166ZM15.364559673583983,15.88777917295166L15.095559573583984,15.88777917295166L15.058559373583984,16.09977919295166L15.319559573583984,16.09977919295166L15.276559373583984,16.20477920295166L15.039559373583984,16.20477920295166L15.001559273583984,16.42577922295166L15.300559473583984,16.42577922295166L15.254559473583985,16.53677921295166L14.847559473583985,16.53677921295166L14.980559373583985,15.77977919295166L15.409559273583984,15.77977919295166L15.364559673583983,15.88777917295166Z" fill="#06B8A1" fill-opacity="1"/></g><g transform="matrix(0.7583063244819641,-0.6518983840942383,0.6518983840942383,0.7583063244819641,2.4073741713228003,4.603333365673166)"><rect x="7.411763668060303" y="-0.9449291229248047" width="4.235431671142578" height="14.167474746704102" rx="0" fill="url(#master_svgd_1_0360)" fill-opacity="1"/></g><g transform="matrix(0.7583063244819641,-0.6518983840942383,0.6518983840942383,0.7583063244819641,-0.20158968930412868,-0.8085284183919512)"><path d="M-1.1911799907684326,-0.13239943981170654L2.2958798092315673,15.606612560188294L2.4805796092315675,16.812716560188292L2.834080409231567,0.9717264601882936L-1.1911799907684326,-0.13239943981170654Z" fill="url(#master_svge_1_0357)" fill-opacity="1"/></g></g><g><g filter="url(#master_svgf_1_3907)"><path d="M14.384386917015076,4.961618517015076Q14.475790917015075,5.014390817015076,14.559525917015076,5.078642017015076Q14.643259917015076,5.142893417015076,14.717890917015076,5.2175246170150755Q14.792521917015076,5.292155617015076,14.856772917015075,5.375889417015076Q14.921023917015075,5.459623217015076,14.973794917015075,5.551026917015076Q15.026567917015075,5.642431117015075,15.066958917015075,5.739941517015076Q15.107348917015075,5.837451617015075,15.134665917015075,5.939399617015075Q15.161982917015076,6.041347417015076,15.175758917015076,6.145988817015076Q15.189534917015076,6.250629817015076,15.189534917015076,6.3561739170150755L15.189534917015076,11.643825917015075Q15.189534917015076,11.749370017015076,15.175757917015076,11.854012917015076Q15.161981917015076,11.958653917015075,15.134664917015076,12.060601917015076Q15.107348917015075,12.162548917015076,15.066958917015075,12.260058917015076Q15.026568917015076,12.357568917015076,14.973795917015076,12.448972917015075Q14.921024917015076,12.540376917015076,14.856772917015075,12.624110917015075Q14.792521917015076,12.707844917015075,14.717890917015076,12.782475917015075Q14.643259917015076,12.857106917015075,14.559525917015076,12.921357917015076Q14.475790917015075,12.985608917015076,14.384386917015076,13.038380917015076L9.805147017015075,15.682207917015075Q9.713743617015076,15.734979917015076,9.616233217015075,15.775370917015076Q9.518722917015076,15.815760917015076,9.416775117015074,15.843077917015076Q9.314827317015077,15.870393917015075,9.210185917015075,15.884169917015075Q9.105544417015075,15.897945917015075,8.999999917015074,15.897945917015075Q8.894456317015075,15.897945917015075,8.789814817015076,15.884169917015075Q8.685173417015076,15.870393917015075,8.583225617015076,15.843077917015076Q8.481277817015076,15.815760917015076,8.383767017015074,15.775369917015075Q8.286257117015076,15.734979917015076,8.194852717015076,15.682207917015075L3.6156124170150754,13.038380917015076Q3.5242084170150756,12.985608917015076,3.4404746170150755,12.921357917015076Q3.3567407170150756,12.857106917015075,3.2821096170150756,12.782475917015075Q3.2074785170150757,12.707844917015075,3.1432272170150757,12.624110917015075Q3.0789759170150757,12.540376917015076,3.0262037170150755,12.448972917015075Q2.9734317170150755,12.357568917015076,2.933041717015076,12.260058917015076Q2.8926517170150756,12.162548917015076,2.8653349170150757,12.060601917015076Q2.8380179970150756,11.958653917015075,2.8242416970150757,11.854011917015075Q2.8104653370150756,11.749370017015076,2.8104653370150756,11.643825917015075L2.810465157015076,6.356174317015076Q2.810465157015076,6.250630217015075,2.824241457015076,6.145988817015076Q2.8380177570150757,6.041347817015076,2.8653346170150757,5.939400117015076Q2.8926514170150757,5.837452017015076,2.9330414170150756,5.739941717015076Q2.973431517015076,5.642431417015075,3.0262036170150757,5.551027217015076Q3.078975817015076,5.459623217015076,3.1432272170150757,5.375889417015076Q3.207478417015076,5.292155617015076,3.2821095170150754,5.2175246170150755Q3.3567406170150758,5.142893717015076,3.440474417015076,5.078642217015076Q3.524208217015076,5.014390817015076,3.6156121170150755,4.961618817015076L8.194852717015076,2.3177928070150755Q8.286257117015076,2.265020667015076,8.383767017015074,2.2246306570150756Q8.481277817015076,2.1842406370150758,8.583225617015076,2.1569237370150756Q8.685173417015076,2.129606907015076,8.789814317015075,2.1158305970150755Q8.894455317015076,2.1020542970150755,8.999999417015076,2.1020542970150755Q9.105544017015076,2.1020542970150755,9.210185417015076,2.1158305970150755Q9.314826817015076,2.129606907015076,9.416775117015074,2.156923767015076Q9.518722917015076,2.1842406370150758,9.616233217015075,2.2246306570150756Q9.713743617015076,2.265020667015076,9.805147017015075,2.3177928070150755L14.384386917015076,4.961618517015076Z" fill="url(#master_svgg_1_0345)" fill-opacity="1"/><path d="M15.189534917015076,6.3561739170150755Q15.189534917015076,6.250629817015076,15.175757917015076,6.1459883170150755Q15.161981917015076,6.041346917015075,15.134664917015076,5.939399117015076Q15.107348917015075,5.837451317015075,15.066958917015075,5.739941217015076Q15.026568917015076,5.642431117015075,14.973795917015076,5.551027217015076Q14.921024917015076,5.459623217015076,14.856772917015075,5.375889417015076Q14.792521917015076,5.292155617015076,14.717890917015076,5.2175246170150755Q14.643259917015076,5.142893417015076,14.559525917015076,5.078642017015076Q14.475790917015075,5.014390817015076,14.384386917015076,4.961618517015076L9.805147517015076,2.3177928070150755Q9.713743617015076,2.265020667015076,9.616233217015075,2.2246306570150756Q9.518722917015076,2.1842406370150758,9.416775117015074,2.1569237370150756Q9.314827317015077,2.129606907015076,9.210185917015075,2.1158305970150755Q9.105544917015076,2.1020542970150755,9.000000317015076,2.1020542970150755Q8.894456317015075,2.1020542970150755,8.789814817015076,2.1158305970150755Q8.685173417015076,2.129606907015076,8.583225617015076,2.156923767015076Q8.481277817015076,2.1842406370150758,8.383767017015074,2.2246306570150756Q8.286257117015076,2.265020667015076,8.194852717015076,2.3177928070150755L3.615612317015076,4.961618817015076Q3.5242084170150756,5.014390817015076,3.4404746170150755,5.078642217015076Q3.3567407170150756,5.142893717015076,3.2821096170150756,5.2175246170150755Q3.2074785170150757,5.292155617015076,3.1432272170150757,5.375889417015076Q3.0789759170150757,5.459623217015076,3.0262037170150755,5.551027217015076Q2.9734317170150755,5.642431417015075,2.933041717015076,5.739941717015076Q2.8926517170150756,5.837452017015076,2.8653347170150756,5.939400117015076Q2.838017817015076,6.041347817015076,2.824241517015076,6.145988817015076Q2.810465217015076,6.250630217015075,2.810465217015076,6.356174317015076L2.8104653370150756,11.643825917015075Q2.8104653370150756,11.749370017015076,2.8242416970150757,11.854012917015076Q2.8380179970150756,11.958653917015075,2.8653349170150757,12.060601917015076Q2.8926517170150756,12.162548917015076,2.933041717015076,12.260058917015076Q2.9734317170150755,12.357568917015076,3.0262039170150756,12.448972917015075Q3.0789760170150755,12.540376917015076,3.143227317015076,12.624110917015075Q3.2074786170150755,12.707844917015075,3.2821096170150756,12.782475917015075Q3.3567407170150756,12.857106917015075,3.4404745170150757,12.921357917015076Q3.5242084170150756,12.985608917015076,3.6156124170150754,13.038380917015076L8.194852717015076,15.682208917015076Q8.286257117015076,15.734980917015076,8.383767017015074,15.775371917015075Q8.481277817015076,15.815761917015076,8.583225617015076,15.843078917015076Q8.685173417015076,15.870394917015076,8.789814817015076,15.884170917015076Q8.894456317015075,15.897946917015076,8.999999917015074,15.897946917015076Q9.105544417015075,15.897946917015076,9.210185417015076,15.884169917015075Q9.314827317015077,15.870394917015076,9.416775117015074,15.843077917015076Q9.518722917015076,15.815760917015076,9.616233217015075,15.775370917015076Q9.713743617015076,15.734980917015076,9.805147517015076,15.682208917015076L14.384386917015076,13.038380917015076Q14.475790917015075,12.985608917015076,14.559525917015076,12.921357917015076Q14.643259917015076,12.857106917015075,14.717890917015076,12.782475917015075Q14.792521917015076,12.707844917015075,14.856772917015075,12.624110917015075Q14.921023917015075,12.540376917015076,14.973794917015075,12.448972917015075Q15.026567917015075,12.357568917015076,15.066958917015075,12.260058917015076Q15.107348917015075,12.162548917015076,15.134665917015075,12.060601917015076Q15.161982917015076,11.958653917015075,15.175758917015076,11.854011917015075Q15.189534917015076,11.749370017015076,15.189534917015076,11.643825917015075L15.189534917015076,6.3561739170150755ZM9.771599617015076,2.3758992570150754L14.350839917015076,5.0197252170150755Q14.708939917015076,5.2264741170150755,14.915689917015076,5.584574617015075Q15.122438917015076,5.942675917015076,15.122438917015076,6.3561739170150755L15.122438917015076,11.643825917015075Q15.122438917015076,12.057323917015076,14.915689917015076,12.415424917015075Q14.708939917015076,12.773525917015077,14.350839917015076,12.980274917015075L9.771599617015076,15.624100917015076Q9.413499217015076,15.830849917015076,8.999999917015074,15.830849917015076Q8.586500017015076,15.830849917015076,8.228400617015076,15.624100917015076L3.6491601170150756,12.980274917015075Q3.2910600170150754,12.773524917015076,3.084310317015076,12.415424917015075Q2.8775610170150756,12.057323917015076,2.8775610170150756,11.643825917015075L2.8775607170150757,6.356174317015076Q2.8775607170150757,5.942675917015076,3.0843102170150756,5.584575317015076Q3.2910596170150757,5.226474917015075,3.6491600170150758,5.019725417015076L8.228400617015076,2.3758992570150754Q8.586501017015076,2.1691498770150757,8.999999917015074,2.1691498770150757Q9.413499217015076,2.1691498770150757,9.771599617015076,2.3758992570150754Z" fill-rule="evenodd" fill="#FFFFFF" fill-opacity="1"/></g></g><g mask="url(#master_svgj_1_3904)"><g style="opacity:0.800000011920929;" filter="url(#master_svgk_1_3903)"><path d="M9.937498296377564,0.6617646217346191C9.937498296377564,0.6617646217346191,9.026088996377563,8.78677222173462,9.026088996377563,8.78677222173462C11.057197896377563,3.8205137217346192,12.093429896377563,1.286822731734619,12.134787896377563,1.1856994017346192C12.134787896377563,1.1856994017346192,12.136079896377563,1.182546441734619,12.136079896377563,1.182546441734619C12.136079896377563,1.182546441734619,12.710680896377564,1.4758240017346191,13.859888896377564,2.0623790217346194C13.859888896377564,2.0623790217346194,9.047943396377564,8.872778421734619,9.047943396377564,8.872778421734619C9.047943396377564,8.872778421734619,9.057500096377563,8.870369421734619,9.057500096377563,8.870369421734619C9.053441296377564,8.872404621734619,9.049381496377563,8.874437821734618,9.045326496377564,8.87647012173462C9.045326496377564,8.87647012173462,9.017520196377564,8.915804421734618,9.017520196377564,8.915804421734618C9.017520196377564,8.915804421734618,9.024190196377564,8.93181272173462,9.024190196377564,8.93181272173462C9.024190196377564,8.93181272173462,9.053465096377563,8.938265321734619,9.053465096377563,8.938265321734619C13.305244896377564,5.319041721734619,15.452653896377564,3.4911141217346193,15.495686896377563,3.4544832217346193C15.495686896377563,3.4544832217346193,15.496342896377563,3.453921321734619,15.496342896377563,3.453921321734619C15.496342896377563,3.453921321734619,15.869615896377564,3.965642921734619,16.616159896377564,4.989086621734619C16.616159896377564,4.989086621734619,9.153567596377563,8.935943121734619,9.153567596377563,8.935943121734619C14.664538896377563,7.659504921734619,17.420022896377564,7.021285021734619,17.420022896377564,7.021285021734619C17.420022896377564,7.021285021734619,17.499332896377563,7.641325921734619,17.657953896377563,8.881405321734618C17.657953896377563,8.881405321734618,9.143982196377564,9.003160921734619,9.143982196377564,9.003160921734619C14.637789896377564,10.36058092173462,17.384691896377564,11.03929162173462,17.384691896377564,11.03929162173462C17.384691896377564,11.03929162173462,17.151475896377562,11.622497621734619,16.685037896377562,12.788906621734618C16.685037896377562,12.788906621734618,9.010525896377564,9.011462721734619,9.010525896377564,9.011462721734619C9.010525896377564,9.011462721734619,9.000112796377563,9.017003521734619,9.000112796377563,9.017003521734619C9.000112796377563,9.017003521734619,8.996216996377564,9.05340052173462,8.996216996377564,9.05340052173462C12.728413896377564,12.215737621734618,14.840212896377563,14.005092621734619,15.331617896377564,14.421465621734619C15.331617896377564,14.421465621734619,15.377245896377563,14.46012762173462,15.377245896377563,14.46012762173462C15.421337896377564,14.497487621734619,15.443382896377564,14.516162621734619,15.443382896377564,14.516162621734619C15.443382896377564,14.516162621734619,14.959757896377564,14.93416762173462,13.992511896377563,15.770178621734619C13.992511896377563,15.770178621734619,9.001388796377563,9.14030122173462,9.001388796377563,9.14030122173462C10.992420896377563,14.23437062173462,11.987937896377563,16.78140462173462,11.987937896377563,16.78140462173462C11.987937896377563,16.78140462173462,11.356488896377563,16.93253162173462,10.093593796377563,17.23479162173462C10.093593796377563,17.23479162173462,8.929898496377563,9.13671542173462,8.929898496377563,9.13671542173462C8.196008396377565,14.535428621734619,7.829065096377564,17.23479162173462,7.829065096377564,17.23479162173462C7.829065096377564,17.23479162173462,7.197615896377563,17.083662621734618,5.9347207963775634,16.78140462173462C5.9347207963775634,16.78140462173462,8.865913596377563,9.11172532173462,8.865913596377563,9.11172532173462C5.575401496377563,13.550692621734619,3.9301456963775636,15.770178621734619,3.9301456963775636,15.770178621734619C3.9301456963775636,15.770178621734619,3.4465231963775635,15.35217162173462,2.4792768963775633,14.516162621734619C2.4792768963775633,14.516162621734619,8.886307996377564,9.00685552173462,8.886307996377564,9.00685552173462C8.886307996377564,9.00685552173462,8.844865096377564,9.00744392173462,8.844865096377564,9.00744392173462C8.860996496377563,9.003708321734619,8.877103096377564,8.999977621734619,8.893191596377564,8.996251621734618C8.893191596377564,8.996251621734618,8.869139896377563,8.964758421734619,8.869139896377563,8.964758421734619C3.7814607963775635,11.514190621734619,1.2376205963775635,12.788906621734618,1.2376205963775635,12.788906621734618C1.2376205963775635,12.788906621734618,1.0044021563775636,12.205704621734618,0.5379654463775635,11.03929162173462C0.5379654463775635,11.03929162173462,8.770663496377564,8.943327421734619,8.770663496377564,8.943327421734619C3.2155186963775635,8.902886821734619,0.3813759663775635,8.882257921734618,0.2682342945775635,8.881433021734619C0.2682342945775635,8.881433021734619,0.2647058963775635,8.881405321734618,0.2647058963775635,8.881405321734618C0.2647058963775635,8.881405321734618,0.3440159113775635,8.26136732173462,0.5026359063775635,7.021285021734619C0.5026359063775635,7.021285021734619,8.791386796377564,8.879542821734619,8.791386796377564,8.879542821734619C3.8014611963775633,6.285904421734619,1.3064981963775635,4.989086621734619,1.3064981963775635,4.989086621734619C1.3064981963775635,4.989086621734619,1.6797698963775636,4.477365221734619,2.4263128963775635,3.453921321734619C2.4263128963775635,3.453921321734619,8.892652796377563,8.87762212173462,8.892652796377563,8.87762212173462C8.892652796377563,8.87762212173462,8.889226196377564,8.853333021734619,8.889226196377564,8.853333021734619C8.889226196377564,8.853333021734619,8.901601096377563,8.88519522173462,8.901601096377563,8.88519522173462C8.901601096377563,8.88519522173462,8.924378596377563,8.90424872173462,8.924378596377563,8.90424872173462C8.924378596377563,8.90424872173462,8.947396496377564,8.89839312173462,8.947396496377564,8.89839312173462C8.947396496377564,8.89839312173462,8.955001096377563,8.878624421734619,8.955001096377563,8.878624421734619C5.7265016963775635,4.380422321734619,4.095924096377564,2.108572621734619,4.0632705963775635,2.0630762217346192C4.0632705963775635,2.0630762217346192,4.062769396377563,2.0623790217346194,4.062769396377563,2.0623790217346194C4.062769396377563,2.0623790217346194,4.637373196377563,1.769101421734619,5.786580796377564,1.182546441734619C5.786580796377564,1.182546441734619,8.957592296377564,8.772160021734619,8.957592296377564,8.772160021734619C8.309302596377563,3.365229321734619,7.985160096377563,0.6617646217346191,7.985160096377563,0.6617646217346191C7.985160096377563,0.6617646217346191,9.937498296377564,0.6617646217346191,9.937498296377564,0.6617646217346191Z" fill-rule="evenodd" fill="url(#master_svgl_1_0577)" fill-opacity="1"/></g></g></g><g filter="url(#master_svgm_1_3916)"><g transform="matrix(0.9659258127212524,0.258819043636322,-0.258819043636322,0.9659258127212524,0.6176520893226467,-1.78015570209525)"><g><g filter="url(#master_svgn_1_3935)"><path d="M13.52372630363617,13.589786437175293Q13.73357950363617,13.438225867175293,14.22068940363617,13.438225867175293L14.22068940363617,13.437747927175293Q14.253683903636169,13.437747897175292,14.28604420363617,13.431310947175293Q14.318405003636169,13.424874007175292,14.34888780363617,13.412247507175293Q14.37937100363617,13.399621007175293,14.40680490363617,13.381290197175293Q14.434239003636169,13.362959357175294,14.45756970363617,13.339628667175292Q14.48090040363617,13.316297947175293,14.49923120363617,13.288863917175293Q14.517562003636169,13.261429907175293,14.530188703636169,13.230946857175294Q14.542815103636169,13.200463801175292,14.549252103636169,13.168103166175293Q14.55568920363617,13.135742534175293,14.55568920363617,13.102747917175293Q14.55568920363617,13.069753300175293,14.549252103636169,13.037392668175293Q14.542815103636169,13.005032033175294,14.530188403636169,12.974548977175292Q14.51756180363617,12.944065927175293,14.49923120363617,12.916631917175293Q14.48090040363617,12.889197887175293,14.45756970363617,12.865867167175294Q14.43423880363617,12.842536477175292,14.406804703636169,12.824205637175293Q14.379370803636169,12.805874827175293,14.34888780363617,12.793248297175293Q14.31840480363617,12.780621797175293,14.28604420363617,12.774184857175293Q14.25368370363617,12.767747937175294,14.22068920363617,12.767747907175293L14.22068940363617,12.767269967175293Q13.516622903636168,12.767269967175293,13.13088790363617,13.045856368175293Q12.694034903636169,13.361361297175293,12.694034903636169,13.963041837175293Q12.694034903636169,14.437170217175293,12.523629803636169,14.641656317175293Q12.376060103636169,14.818740017175292,12.03686630363617,14.818740017175292Q11.70461958363617,14.818740017175292,11.57373541363617,14.650460317175293Q11.41923672363617,14.451819217175293,11.445357203636169,13.981650947175293L11.44487995363617,13.981624427175293Q11.44539573363617,13.972340287175292,11.44539573363617,13.963041837175293Q11.44539570363617,13.930047217175293,11.438958763636169,13.897686597175293Q11.43252185363617,13.865325927175293,11.41989535363617,13.834842857175293Q11.40726885363617,13.804359797175293,11.38893804363617,13.776925747175293Q11.37060719363617,13.749491747175293,11.34727649363617,13.726161067175292Q11.32394576363617,13.702830317175293,11.29651174363617,13.684499507175293Q11.26907771363617,13.666168687175293,11.238594663636169,13.653542157175293Q11.20811161363617,13.640915687175292,11.17575097863617,13.634478747175294Q11.143390346636169,13.628041867175293,11.110395729536169,13.628041867175293Q11.07857397763617,13.628041867175293,11.04732135663617,13.634033377175292Q11.01606873463617,13.640024777175293,10.98650315363617,13.651793357175293Q10.95693755363617,13.663561997175293,10.930116563636169,13.680686767175294Q10.903295563636169,13.697811607175293,10.88017854363617,13.719679947175292Q10.857061503636169,13.741548357175294,10.83847534363617,13.767378147175293Q10.81988918363617,13.793207887175292,10.806498763636169,13.822075127175292Q10.793108283636169,13.850942437175293,10.78539246363617,13.881814597175293Q10.77767664363617,13.912686767175293,10.775911513636169,13.944459497175293L10.77543437363617,13.944432977175293Q10.73537832363617,14.665440717175294,11.044114883636169,15.062387617175293Q11.376465763636169,15.489695817175292,12.03686630363617,15.489695817175292Q12.690319103636169,15.489695817175292,13.03907250363617,15.071191717175292Q13.36499080363617,14.680089817175293,13.36499080363617,13.963041837175293Q13.36499080363617,13.704428737175293,13.52372630363617,13.589786437175293Z" fill-rule="evenodd" fill="#FD9E73" fill-opacity="1"/></g><g><path d="M10.04717767238617,13.102747917175293L10.166564392386169,13.604172227175294C10.26284349238617,14.008544567175292,10.62414843238617,14.293924417175294,11.03982448238617,14.293924417175294C11.45550057238617,14.293924417175294,11.81680557238617,14.008544567175292,11.91308467238617,13.604172227175294L12.03247127238617,13.102747917175293L10.04717767238617,13.102747917175293Z" fill="url(#master_svgo_1_0665)" fill-opacity="1"/></g><g filter="url(#master_svgp_1_3919)" mask="url(#master_svgs_1_3921)"><g filter="url(#master_svgq_1_3921)"><path d="M9.45186215426117,12.794126941678623L8.79009759426117,8.205892541678622L13.290096594261168,8.205892541678622L12.62833149426117,12.794126941678623L12.62680519426117,12.794126941678623Q12.62843239426117,12.808761141678623,12.62843239426117,12.823410441678622Q12.62843239426117,12.855198841678622,12.62078459426117,12.886833141678622Q12.613136694261168,12.918468441678623,12.59791459426117,12.949645041678622Q12.58269299426117,12.980822541678624,12.56004319426117,13.011241441678623Q12.53739389426117,13.041660241678622,12.50753489426117,13.071028641678623Q12.477676294261169,13.100397041678622,12.440895394261169,13.128431341678622Q12.40411459426117,13.156465941678622,12.36076609426117,13.182896641678623Q12.31741799426117,13.209327641678623,12.26791969426117,13.233899541678621Q12.218421094261169,13.258472441678622,12.16324889426117,13.280949541678623Q12.10807689426117,13.303427241678623,12.04776279426117,13.323593641678622Q11.987448594261169,13.343759541678622,11.92257299426117,13.361419641678623Q11.85769789426117,13.379080241678622,11.78888599426117,13.394064841678622Q11.72007409426117,13.409049441678622,11.64798839426117,13.421214041678622Q11.57590279426117,13.433379141678621,11.501237794261169,13.442606941678623Q11.42657269426117,13.451834641678623,11.35004679426117,13.458035441678621Q11.273521294261169,13.464237241678623,11.19587219426117,13.467353341678622Q11.11822279426117,13.470468941678622,11.04019769426117,13.470468941678622Q10.962172894261169,13.470468941678622,10.88452349426117,13.467353341678622Q10.80687419426117,13.464237241678623,10.730348394261169,13.458035441678621Q10.65382269426117,13.451834641678623,10.57915749426117,13.442606941678623Q10.50449219426117,13.433379141678621,10.43240629426117,13.421214041678622Q10.36032069426117,13.409049441678622,10.29150889426117,13.394064841678622Q10.22269699426117,13.379080241678622,10.157821494261169,13.361419641678623Q10.09294619426117,13.343759541678622,10.032632094261169,13.323593141678622Q9.972318094261169,13.303427241678623,9.917145994261169,13.280949541678623Q9.86197399426117,13.258472441678622,9.81247559426117,13.233899541678621Q9.762976944261169,13.209327641678623,9.719628514261169,13.182896641678623Q9.67628026426117,13.156465941678622,9.639499484261169,13.128431741678622Q9.60271883426117,13.100397041678622,9.57285988426117,13.071028641678623Q9.54300105426117,13.041660241678622,9.520351644261169,13.011241441678623Q9.49770218426117,12.980822541678624,9.48248022426117,12.949645041678622Q9.46725833426117,12.918468441678623,9.459610584261169,12.886833141678622Q9.45196282426117,12.855198841678622,9.45196282426117,12.823410441678622Q9.45196282426117,12.808761141678623,9.45359009426117,12.794126941678623L9.45186215426117,12.794126941678623Z" fill-rule="evenodd" fill="#FE50E2" fill-opacity="1"/></g><g filter="url(#master_svgt_1_3920)"><rect x="10.24597954750061" y="9.661648154258728" width="1.0588232278823853" height="3.970588207244873" rx="0.5294116139411926" fill="url(#master_svgu_1_0642)" fill-opacity="1"/></g><g transform="matrix(0.996273398399353,0.08625134080648422,-0.08625134080648422,0.996273398399353,0.8362995096952552,-1.0748682194078683)" filter="url(#master_svgv_1_3924)"><rect x="12.856976866722107" y="9.140573024749756" width="1.0584686994552612" height="4.326254367828369" rx="0.5292343497276306" fill="url(#master_svgw_1_0662)" fill-opacity="1"/></g><g filter="url(#master_svgx_1_3925)"><ellipse cx="11.040096938610077" cy="10.720471739768982" rx="0.9264703392982483" ry="0.9264706373214722" fill="url(#master_svgy_1_0656)" fill-opacity="1"/></g></g><g mask="url(#master_svg12_1_3931)"><g filter="url(#master_svgz_1_3931)"><ellipse cx="11.040225863456726" cy="5.360100269317627" rx="3.9705872535705566" ry="3.904411792755127" fill="url(#master_svg10_1_0628)" fill-opacity="1"/></g><g filter="url(#master_svg13_1_3933)"><path d="M6.329356372678925,1.5218559268630982Q6.127462101678924,3.507155526863098,7.406068671678924,8.205692426863099Q6.730698291678925,5.058375026863098,7.989969771678925,3.284311426863098Q9.616782371678925,0.9924553668630981,14.472364171678924,0.9924545268630981Q7.114547431678925,-0.35650432313690184,6.400771260678924,1.2487707168630982Q6.344186067678924,1.3760302068630983,6.329356372678925,1.5218559268630982Z" fill="#EFFFE2" fill-opacity="1"/></g><g transform="matrix(-0.9593693614006042,0.2821531593799591,-0.2909943759441376,-0.9567247629165649,35.39951477744933,12.112981271593146)" filter="url(#master_svg14_1_3927)"><path d="M16.815398857333435,9.758164017944337Q16.613778773333436,11.746247517944337,17.890648843333434,16.451371717944337Q17.214582803333435,13.292103717944336,18.479783143333435,11.514601017944337Q20.107337143333435,9.228021087944336,24.947348043333434,9.228020187944336Q17.603169323333436,7.877840037944336,16.887425661333435,9.483101487944335Q16.830301091333435,9.611219917944336,16.815398857333435,9.758164017944337Z" fill="#FFEBA8" fill-opacity="1"/></g><g transform="matrix(-0.9813414216041565,0.19227327406406403,-0.1985911726951599,-0.9800824522972107,35.51564362266284,15.686582040307139)" filter="url(#master_svg15_1_3932)"><path d="M17.01497734726117,10.70084749123535Q16.81321056426117,12.687443491235351,17.44059002426117,15.713400391235352Q19.04673064426117,11.504555591235352,22.46205504426117,10.216447291235351Q18.04145614426117,8.950439391235351,17.20310455426117,10.162394701235351Q17.04670082026117,10.388498361235351,17.01497734726117,10.70084749123535Z" fill="#92F0FF" fill-opacity="1"/></g><g filter="url(#master_svg16_1_3928)"><path d="M16.26486892238617,3.838025229838916Q16.227049922386172,3.982045937388916,16.16884392238617,4.123452987388916Q16.11063692238617,4.264860037388916,16.03249392238617,4.402555827388916Q15.954350922386169,4.5402516173889165,15.85687792238617,4.673167347388916Q15.759402922386169,4.806083087388916,15.643355922386169,4.933186967388916Q15.527306922386169,5.060290767388916,15.393586522386169,5.180596367388916Q15.25986512238617,5.300901867388916,15.10950882238617,5.413475167388916Q14.95915162238617,5.526048467388916,14.79332772238617,5.6300155673889165Q14.62750372238617,5.733983067388916,14.44749872238617,5.8285373673889165Q14.26749262238617,5.923091367388916,14.074703622386169,6.007498467388916Q13.881913522386169,6.091905567388916,13.677837722386169,6.165510867388916Q13.473761422386168,6.239115967388916,13.25998242238617,6.301347767388917Q13.04620302238617,6.363579267388916,12.824380322386169,6.413954267388916Q12.60255662238617,6.464329267388916,12.37441142238617,6.502456467388916Q12.14626582238617,6.540583867388916,11.913569822386169,6.566167867388916Q11.68087332238617,6.591751567388917,11.44543202238617,6.604593467388916Q11.20999082238617,6.6174354673889155,10.97363272238617,6.6174354673889155Q10.73726212238617,6.6174354673889155,10.50180952238617,6.604592367388916Q10.26635632238617,6.591749167388916,10.03364832238617,6.566162567388917Q9.80094082238617,6.540576467388917,9.572784822386168,6.502445267388916Q9.344628722386169,6.464313967388916,9.122795722386169,6.413933767388916Q8.900962722386168,6.363553967388916,8.68717442238617,6.301316267388916Q8.47338612238617,6.2390785673889155,8.269302722386168,6.165466567388917Q8.06521932238617,6.091854367388915,7.87242492238617,6.007439167388916Q7.67963042238617,5.923023967388916,7.499621522386169,5.828461067388917Q7.3196126223861695,5.733898167388916,7.153786522386169,5.629921467388916Q6.98796042238617,5.525944867388916,6.83760462238617,5.413361667388916Q6.687248822386169,5.300778667388916,6.553530572386169,5.180462967388916Q6.419812262386169,5.060147267388916,6.30376941238617,4.933033067388916Q6.18772661238617,4.805918927388916,6.090260122386169,4.672993007388916Q5.992793622386169,4.540067077388916,5.91466006238617,4.402361337388916Q5.83652654238617,4.264655587388916,5.77833250238617,4.123239007388916Q5.72013846238617,3.981822397388916,5.68233568938617,3.837792736568916Q5.613278746606169,4.100783137388916,5.613278746606169,4.367205857388916Q5.613278746606169,4.448432917388916,5.61973545328617,4.529562117388916Q5.62619216038617,4.610691307388916,5.639090018386169,4.691527247388916Q5.651987876386169,4.772363067388916,5.67129581438617,4.852710967388916Q5.690603748386169,4.933058767388916,5.716275252386169,5.012725067388916Q5.74194675238617,5.092391367388916,5.77392000238617,5.171184167388916Q5.805893212386169,5.249976967388916,5.844091142386169,5.327706467388916Q5.882289052386169,5.405435967388916,5.92661965238617,5.481914767388916Q5.970950242386169,5.558393567388916,6.02130669238617,5.633437667388916Q6.071663172386169,5.7084816673889165,6.127924202386169,5.781909967388916Q6.184185262386169,5.855338367388915,6.246215282386169,5.926974267388916Q6.30824530238617,5.998610067388916,6.37589496238617,6.068280667388915Q6.443544622386169,6.137951567388916,6.51665091238617,6.205489367388916Q6.58975720238617,6.273027167388916,6.668144022386169,6.3382694673889155Q6.7465307223861695,6.403511767388916,6.8300092223861695,6.466301167388917Q6.91348752238617,6.529090367388916,7.00185652238617,6.589275867388916Q7.0902256223861695,6.649461067388916,7.183272122386169,6.706897267388916Q7.276318622386169,6.764333267388916,7.373818922386169,6.818882267388917Q7.47131912238617,6.8734309673889165,7.57303802238617,6.9249610673889155Q7.67475662238617,6.976490967388916,7.78044882238617,7.024877767388916Q7.886141222386169,7.073264567388916,7.99555242238617,7.118391767388916Q8.104963622386169,7.163518867388916,8.21783032238617,7.205278167388916Q8.330696922386169,7.247037167388916,8.446747222386168,7.285327467388916Q8.56279692238617,7.323617467388916,8.681750922386168,7.358346467388916Q8.800704622386169,7.3930754673889165,8.92227592238617,7.424159767388916Q9.04384722238617,7.455244067388916,9.16774312238617,7.4826083673889165Q9.29163892238617,7.509973067388916,9.41756092238617,7.533552167388915Q9.543482622386168,7.557131067388916,9.67112672238617,7.576867567388916Q9.79877082238617,7.596604367388916,9.927830122386169,7.612450867388916Q10.05688992238617,7.628297367388916,10.187053522386169,7.640215867388916Q10.31721722238617,7.652134467388916,10.448171522386168,7.660096167388916Q10.57912572238617,7.668057967388917,10.71055492238617,7.672043367388916Q10.841984122386169,7.676029167388916,10.973571622386169,7.676029167388916Q11.10515962238617,7.676029167388916,11.23658882238617,7.672043367388916Q11.36801852238617,7.668057967388917,11.49897232238617,7.660096167388916Q11.62992652238617,7.652134467388916,11.76009022238617,7.640215867388916Q11.89025342238617,7.628297367388916,12.01931272238617,7.612450867388916Q12.14837202238617,7.596604367388916,12.27601662238617,7.576867567388916Q12.40366062238617,7.557131067388916,12.52958242238617,7.533552167388915Q12.65550362238617,7.509973067388916,12.779399322386169,7.482608567388916Q12.90329492238617,7.455244067388916,13.02486642238617,7.424159767388916Q13.146437522386169,7.3930754673889165,13.26539172238617,7.358346467388916Q13.384345422386168,7.323617467388916,13.500395622386169,7.285327467388916Q13.616444922386169,7.247037167388916,13.72931232238617,7.205278167388916Q13.84217872238617,7.163518867388916,13.95158992238617,7.118391767388916Q14.061002122386169,7.073264567388916,14.166694022386169,7.024877567388916Q14.272385922386169,6.976490767388916,14.374104822386169,6.924960867388916Q14.475823722386169,6.873430767388916,14.57332362238617,6.818882267388917Q14.670823422386169,6.764333267388916,14.76387062238617,6.706897267388916Q14.85691772238617,6.649461067388916,14.94528612238617,6.589275867388916Q15.03365452238617,6.529090367388916,15.117133522386169,6.466301167388917Q15.200611422386169,6.403511767388916,15.27899782238617,6.3382694673889155Q15.35738502238617,6.273027167388916,15.43049182238617,6.205489367388916Q15.50359852238617,6.137951567388916,15.57124742238617,6.068280967388916Q15.63889792238617,5.998610067388916,15.70092792238617,5.926974267388916Q15.76295792238617,5.855338367388915,15.819218922386169,5.781909967388916Q15.87547992238617,5.708481567388916,15.92583592238617,5.633437467388916Q15.97619292238617,5.558393467388916,16.020523922386168,5.481914767388916Q16.064854922386168,5.405435767388916,16.10305292238617,5.327706367388916Q16.14124992238617,5.2499768673889164,16.17322292238617,5.171184167388916Q16.205195922386167,5.092391367388916,16.230867922386167,5.012725067388916Q16.256539922386168,4.933058767388916,16.27584792238617,4.852710967388916Q16.29515592238617,4.772363067388916,16.308052922386167,4.691527247388916Q16.320950922386167,4.610691307388916,16.327407922386172,4.529562117388916Q16.333863922386172,4.448432917388916,16.33386492238617,4.367205857388916Q16.33386492238617,4.100901667388916,16.26486892238617,3.838025229838916Z" fill-rule="evenodd" fill="url(#master_svg17_1_0615)" fill-opacity="1"/></g></g></g></g><g><g filter="url(#master_svg18_1_3937)"><path d="M4.494453501790034,4.091153961900635L4.494456901790033,4.090355201900635C4.494763201790033,4.016279704900635,4.558840601790033,3.960165716900635,4.6319569017900335,3.9720522668006346L5.8268941017900335,4.166313901900635C5.9083367017900335,4.179554151900635,5.9513351017900336,4.277911601900635,5.900489901790033,4.342896671900634C5.7928196017900335,4.480510831900634,5.620430801790033,4.629479471900635,5.248188801790033,4.629479471900635C5.123241301790033,4.629479471900635,5.016629301790033,4.590932901900635,4.925574901790034,4.5308720519006345L4.911835301790033,6.725228791900635L4.911569501790034,6.725264591900634C4.912475701790033,6.800200891900635,4.905425701790033,6.874304491900634,4.889880801790033,6.946443791900634C4.753873501790034,7.577613591900635,4.019084101790034,7.819403691900635,3.215172401790033,7.645259391900635C2.4112605617900336,7.471115091900635,1.8698171817900335,6.818278791900635,2.0058245067900335,6.187109491900635C2.1418319217900335,5.555939891900635,2.9037869417900337,5.185447591900635,3.707698801790033,5.359591791900635C4.020967801790034,5.427452591900635,4.290255601790033,5.587546591900635,4.494221101790034,5.795034791900635L4.493878501790034,4.201695081900635L4.494447301790034,4.0925020619006345L4.494453501790034,4.091153961900635Z" fill-rule="evenodd" fill="url(#master_svg19_1_0593)" fill-opacity="1"/></g><g transform="matrix(0.97850102186203,-0.20624224841594696,0.20624224841594696,0.97850102186203,-1.1465811433793336,0.6513156369046591)" filter="url(#master_svg1a_1_3940)"><ellipse cx="2.9862340916661196" cy="5.970875024795532" rx="0.43545737862586975" ry="0.14558827877044678" fill="#FFFFFF" fill-opacity="1"/></g></g></g></g><g transform="matrix(0.8924986124038696,-0.45105019211769104,0.45105019211769104,0.8924986124038696,-2.944978197882733,6.8517841667884625)" filter="url(#master_svg1b_1_3941)"><path d="M14.658484352111817,9.688466586378906L14.658486852111816,9.687844738378907C14.658701252111817,9.635993603378907,14.703554052111816,9.596715077778907,14.754733652111817,9.605035389768906L15.591162252111816,9.741014078378907C15.648170252111816,9.750281948378905,15.678267952111817,9.819129928378906,15.642677752111815,9.864617978378906C15.567310852111817,9.960944708378907,15.446642652111816,10.065219338378906,15.186081852111815,10.065219338378906C15.098621352111817,10.065219338378906,15.023995352111816,10.038237658378906,14.960259652111816,9.996196448378907L14.950642152111817,11.532195788378907L14.950197452111816,11.532255488378906C14.950847652111817,11.584780888378907,14.945914052111817,11.636722788378906,14.935018552111817,11.687286188378906C14.839816552111817,12.129090288378906,14.325480952111816,12.298337888378907,13.762760992111817,12.176440988378907C13.200041352111816,12.054543988378907,12.821043372111816,11.597573788378906,12.916245401111816,11.155769588378906C13.011447492111817,10.713965188378907,13.544798552111816,10.454629118378906,14.107518152111817,10.576526048378906C14.326930552111817,10.624055388378906,14.515520052111816,10.736223388378907,14.658321852111817,10.881586788378906L14.658082052111816,9.765780088378905L14.658480552111817,9.689274601378907L14.658484352111817,9.688466586378906Z" fill-rule="evenodd" fill="#FFFFFF" fill-opacity="1"/></g></g></g></svg>