<?xml version="1.0" encoding="utf-8"?>
<svg version="1.1" xmlns:xlink="http://www.w3.org/1999/xlink" width="17px" height="15px" xmlns="http://www.w3.org/2000/svg">
  <defs>
    <linearGradient gradientUnits="userSpaceOnUse" x1="10.692105263157945" y1="6.039473684210677" x2="3.019806626980426E-14" y2="15.000000000000107" id="LinearGradient14299">
      <stop id="Stop14300" stop-color="#8400ff" offset="0" />
      <stop id="Stop14301" stop-color="#ff4025" offset="1" />
    </linearGradient>
    <pattern id="BGPattern" patternUnits="userSpaceOnUse" alignment="0 0" imageRepeat="None" />
    <mask fill="white" id="Clip14302">
      <path d="M 15.337202743652739 5.038931326781327  L 15.337202743652746 5.056935954135955  L 11.070106183456183 4.6548325962325965  C 10.801653392299535 4.624092501242433  10.571447509597022 4.449136044839452  10.469951924651923 4.198715397215398  L 8.927555569205573 0.4897622440622449  C 8.815299791483476 0.21393830513524126  8.547173503522068 0.033579786857592  8.249381285831284 0.033579786857592  C 7.951589068140493 0.033579786857592  7.683462780179099 0.21393830513524126  7.571207002457001 0.4897622440622449  L 6.052816830466831 4.198715397215398  C 5.954659782562352 4.451670144363291  5.7226630509158625 4.6279876458512845  5.452662571662579 4.6548325962325965  L 1.179564496314505 5.056935954135955  C 0.8041629762754425 5.096804568107679  0.5193340542290628 5.413484846922861  0.5193340542290628 5.7909975058200995  C 0.5193340542290628 6.001086920148605  0.6088511915660746 6.201223660729934  0.7654580671580717 6.34126597051597  L 3.9822847256347274 9.167992383292384  C 4.189204268590451 9.345154327980431  4.279574640144865 9.623217009686327  4.216344881244879 9.888177477477477  L 3.220088861588863 13.8371923013923  C 3.2073145132080043 13.892066229033123  3.2008643457213495 13.94822222553164  3.2008643457213495 14.004563435238975  C 3.2008643457213495 14.412254338311119  3.531363123238883 14.742753115828656  3.939054026311034 14.742753115828656  C 4.070289624392856 14.742753115828656  4.199152747466769 14.707767134024849  4.312369574119572 14.641398976248976  L 7.8712841113841066 12.552862244062243  C 8.100128418582031 12.41476590787509  8.386631081827467 12.41476590787509  8.615475389025384 12.552862244062243  L 12.222402293202293 14.659403603603607  C 12.328377761171865 14.715150281987441  12.446323789392636 14.744279871951523  12.566067231643977 14.744279871951523  C 12.973758134716121 14.744279871951523  13.304256912233654 14.413781094433986  13.304256912233654 14.006090191361842  C 13.304256912233654 13.949224596695764  13.297686121248837 13.892549446432312  13.284675266175263 13.8371923013923  L 12.330430057330048 9.870172850122849  C 12.267200298430069 9.605212382331699  12.357570669984483 9.327149700625805  12.564490212940207 9.149987755937756  L 15.781316871416848 6.323261343161342  C 15.926829309673565 6.181989058446154  16.008943389217634 5.987820323261413  16.008943389217634 5.785010737402999  C 16.008943389217634 5.4010617358599635  15.719046514390115 5.079083170262683  15.337202743652739 5.038931326781327  Z " fill-rule="evenodd" />
    </mask>
  </defs>
  <g transform="matrix(1 0 0 1 -972 -221 )">
    <path d="M 15.337202743652739 5.038931326781327  L 15.337202743652746 5.056935954135955  L 11.070106183456183 4.6548325962325965  C 10.801653392299535 4.624092501242433  10.571447509597022 4.449136044839452  10.469951924651923 4.198715397215398  L 8.927555569205573 0.4897622440622449  C 8.815299791483476 0.21393830513524126  8.547173503522068 0.033579786857592  8.249381285831284 0.033579786857592  C 7.951589068140493 0.033579786857592  7.683462780179099 0.21393830513524126  7.571207002457001 0.4897622440622449  L 6.052816830466831 4.198715397215398  C 5.954659782562352 4.451670144363291  5.7226630509158625 4.6279876458512845  5.452662571662579 4.6548325962325965  L 1.179564496314505 5.056935954135955  C 0.8041629762754425 5.096804568107679  0.5193340542290628 5.413484846922861  0.5193340542290628 5.7909975058200995  C 0.5193340542290628 6.001086920148605  0.6088511915660746 6.201223660729934  0.7654580671580717 6.34126597051597  L 3.9822847256347274 9.167992383292384  C 4.189204268590451 9.345154327980431  4.279574640144865 9.623217009686327  4.216344881244879 9.888177477477477  L 3.220088861588863 13.8371923013923  C 3.2073145132080043 13.892066229033123  3.2008643457213495 13.94822222553164  3.2008643457213495 14.004563435238975  C 3.2008643457213495 14.412254338311119  3.531363123238883 14.742753115828656  3.939054026311034 14.742753115828656  C 4.070289624392856 14.742753115828656  4.199152747466769 14.707767134024849  4.312369574119572 14.641398976248976  L 7.8712841113841066 12.552862244062243  C 8.100128418582031 12.41476590787509  8.386631081827467 12.41476590787509  8.615475389025384 12.552862244062243  L 12.222402293202293 14.659403603603607  C 12.328377761171865 14.715150281987441  12.446323789392636 14.744279871951523  12.566067231643977 14.744279871951523  C 12.973758134716121 14.744279871951523  13.304256912233654 14.413781094433986  13.304256912233654 14.006090191361842  C 13.304256912233654 13.949224596695764  13.297686121248837 13.892549446432312  13.284675266175263 13.8371923013923  L 12.330430057330048 9.870172850122849  C 12.267200298430069 9.605212382331699  12.357570669984483 9.327149700625805  12.564490212940207 9.149987755937756  L 15.781316871416848 6.323261343161342  C 15.926829309673565 6.181989058446154  16.008943389217634 5.987820323261413  16.008943389217634 5.785010737402999  C 16.008943389217634 5.4010617358599635  15.719046514390115 5.079083170262683  15.337202743652739 5.038931326781327  Z " fill-rule="nonzero" fill="url(#LinearGradient14299)" stroke="none" transform="matrix(1 0 0 1 972 221 )" class="fill" />
    <path d="M 15.337202743652739 5.038931326781327  L 15.337202743652746 5.056935954135955  L 11.070106183456183 4.6548325962325965  C 10.801653392299535 4.624092501242433  10.571447509597022 4.449136044839452  10.469951924651923 4.198715397215398  L 8.927555569205573 0.4897622440622449  C 8.815299791483476 0.21393830513524126  8.547173503522068 0.033579786857592  8.249381285831284 0.033579786857592  C 7.951589068140493 0.033579786857592  7.683462780179099 0.21393830513524126  7.571207002457001 0.4897622440622449  L 6.052816830466831 4.198715397215398  C 5.954659782562352 4.451670144363291  5.7226630509158625 4.6279876458512845  5.452662571662579 4.6548325962325965  L 1.179564496314505 5.056935954135955  C 0.8041629762754425 5.096804568107679  0.5193340542290628 5.413484846922861  0.5193340542290628 5.7909975058200995  C 0.5193340542290628 6.001086920148605  0.6088511915660746 6.201223660729934  0.7654580671580717 6.34126597051597  L 3.9822847256347274 9.167992383292384  C 4.189204268590451 9.345154327980431  4.279574640144865 9.623217009686327  4.216344881244879 9.888177477477477  L 3.220088861588863 13.8371923013923  C 3.2073145132080043 13.892066229033123  3.2008643457213495 13.94822222553164  3.2008643457213495 14.004563435238975  C 3.2008643457213495 14.412254338311119  3.531363123238883 14.742753115828656  3.939054026311034 14.742753115828656  C 4.070289624392856 14.742753115828656  4.199152747466769 14.707767134024849  4.312369574119572 14.641398976248976  L 7.8712841113841066 12.552862244062243  C 8.100128418582031 12.41476590787509  8.386631081827467 12.41476590787509  8.615475389025384 12.552862244062243  L 12.222402293202293 14.659403603603607  C 12.328377761171865 14.715150281987441  12.446323789392636 14.744279871951523  12.566067231643977 14.744279871951523  C 12.973758134716121 14.744279871951523  13.304256912233654 14.413781094433986  13.304256912233654 14.006090191361842  C 13.304256912233654 13.949224596695764  13.297686121248837 13.892549446432312  13.284675266175263 13.8371923013923  L 12.330430057330048 9.870172850122849  C 12.267200298430069 9.605212382331699  12.357570669984483 9.327149700625805  12.564490212940207 9.149987755937756  L 15.781316871416848 6.323261343161342  C 15.926829309673565 6.181989058446154  16.008943389217634 5.987820323261413  16.008943389217634 5.785010737402999  C 16.008943389217634 5.4010617358599635  15.719046514390115 5.079083170262683  15.337202743652739 5.038931326781327  Z " stroke-width="0" stroke-dasharray="0" stroke="rgba(255, 255, 255, 0)" fill="none" transform="matrix(1 0 0 1 972 221 )" class="stroke" mask="url(#Clip14302)" />
  </g>
</svg>