<?xml version="1.0" encoding="utf-8"?>
<svg version="1.1" xmlns:xlink="http://www.w3.org/1999/xlink" width="360px" height="220px" xmlns="http://www.w3.org/2000/svg">
  <defs>
    <linearGradient gradientUnits="userSpaceOnUse" x1="356.1754068716093" y1="109.87341772151896" x2="14.247016274864386" y2="111.69620253164554" id="LinearGradient5862">
      <stop id="Stop5863" stop-color="#d9001b" stop-opacity="0" offset="0" />
      <stop id="Stop5864" stop-color="#d9001b" stop-opacity="0.7058823529411765" offset="0.49" />
      <stop id="Stop5865" stop-color="#d9001b" stop-opacity="0" offset="1" />
    </linearGradient>
    <pattern id="BGPattern" patternUnits="userSpaceOnUse" alignment="0 0" imageRepeat="None" />
    <linearGradient gradientUnits="userSpaceOnUse" x1="360" y1="110" x2="0" y2="110" id="LinearGradient5866">
      <stop id="Stop5867" stop-color="#ffffff" stop-opacity="0" offset="0" />
      <stop id="Stop5868" stop-color="#ffffff" offset="0.5" />
      <stop id="Stop5869" stop-color="#ffffff" stop-opacity="0" offset="1" />
    </linearGradient>
    <mask fill="white" id="Clip5870">
      <path d="M 0 215  L 0 5  C 0 2.1999999999999997  2.1999999999999993 0  5 0  L 355 0  C 357.8 0  360 2.1999999999999997  360 5  L 360 215  C 360 217.8  357.8 220  355 220  L 5 220  C 2.1999999999999993 220  0 217.8  0 215  Z " fill-rule="evenodd" />
    </mask>
  </defs>
  <g transform="matrix(1 0 0 1 0 -180 )">
    <path d="M 0 215  L 0 5  C 0 2.1999999999999997  2.1999999999999993 0  5 0  L 355 0  C 357.8 0  360 2.1999999999999997  360 5  L 360 215  C 360 217.8  357.8 220  355 220  L 5 220  C 2.1999999999999993 220  0 217.8  0 215  Z " fill-rule="nonzero" fill="url(#LinearGradient5862)" stroke="none" transform="matrix(1 0 0 1 0 180 )" class="fill" />
    <path d="M 0 215  L 0 5  C 0 2.1999999999999997  2.1999999999999993 0  5 0  L 355 0  C 357.8 0  360 2.1999999999999997  360 5  L 360 215  C 360 217.8  357.8 220  355 220  L 5 220  C 2.1999999999999993 220  0 217.8  0 215  Z " stroke-width="8" stroke-dasharray="0" stroke="url(#LinearGradient5866)" fill="none" transform="matrix(1 0 0 1 0 180 )" class="stroke" mask="url(#Clip5870)" />
  </g>
</svg>