<?xml version="1.0" encoding="utf-8"?>
<svg version="1.1" xmlns:xlink="http://www.w3.org/1999/xlink" width="40px" height="39px" xmlns="http://www.w3.org/2000/svg">
  <defs>
    <pattern id="BGPattern" patternUnits="userSpaceOnUse" alignment="0 0" imageRepeat="None" />
    <mask fill="white" id="Clip1490">
      <path d="M 19.090909082031253 9.45454544921875  C 19.090909082031253 4.4336363671875  15.02090908203125 0.3636363671874998  10 0.3636363671874998  C 4.97909091796875 0.3636363671874998  0.9090909179687501 4.4336363671875  0.9090909179687501 9.45454544921875  C 0.9090909179687501 14.475454531250001  4.97909091796875 18.54545453125  10 18.54545453125  C 15.02090908203125 18.54545453125  19.090909082031253 14.475454531250001  19.090909082031253 9.45454544921875  Z M 18.181818183593748 9.45454544921875  C 18.181818183593748 13.973636367187499  14.51909091796875 17.6363636328125  10 17.6363636328125  C 5.48090908203125 17.6363636328125  1.8181818164062502 13.973636367187503  1.8181818164062502 9.45454544921875  C 1.8181818164062502 4.93545453125  5.48090908203125 1.2727272656250006  10 1.2727272656250006  C 14.51909091796875 1.2727272656250006  18.181818183593748 4.93545453125  18.181818183593748 9.45454544921875  Z M 14.17818181640625 5.919090898437501  C 14.35545455078125 5.74181818359375  14.35545455078125 5.4536363671874994  14.17818181640625 5.276363632812501  C 14.00090908203125 5.099090898437501  13.712727265625 5.099090898437501  13.53545455078125 5.276363632812501  L 10 8.81181818359375  L 6.46454544921875 5.276363632812501  C 6.28727271484375 5.099090898437501  5.9990908984375 5.099090898437501  5.82181818359375 5.276363632812501  C 5.64454544921875 5.453636367187501  5.64454544921875 5.74181818359375  5.82181818359375 5.919090898437501  L 9.357272734375 9.45454544921875  L 5.82181818359375 12.99  C 5.64454544921875 13.167272734375  5.64454544921875 13.455454550781251  5.82181818359375 13.632727265625  C 5.999090917968751 13.81  6.287272734375 13.81  6.46454544921875 13.632727265625  L 10 10.097272734375  L 13.53545455078125 13.63272728515625  C 13.71272728515625 13.810000019531252  14.000909101562499 13.810000019531252  14.17818181640625 13.63272728515625  C 14.35545455078125 13.455454550781251  14.35545455078125 13.167272734375  14.17818181640625 12.99000001953125  L 10.642727265625 9.45454544921875  L 14.17818181640625 5.919090898437501  Z " fill-rule="evenodd" />
    </mask>
  </defs>
  <g transform="matrix(1 0 0 1 -92 -223 )">
    <path d="M 19.090909082031253 9.45454544921875  C 19.090909082031253 4.4336363671875  15.02090908203125 0.3636363671874998  10 0.3636363671874998  C 4.97909091796875 0.3636363671874998  0.9090909179687501 4.4336363671875  0.9090909179687501 9.45454544921875  C 0.9090909179687501 14.475454531250001  4.97909091796875 18.54545453125  10 18.54545453125  C 15.02090908203125 18.54545453125  19.090909082031253 14.475454531250001  19.090909082031253 9.45454544921875  Z M 18.181818183593748 9.45454544921875  C 18.181818183593748 13.973636367187499  14.51909091796875 17.6363636328125  10 17.6363636328125  C 5.48090908203125 17.6363636328125  1.8181818164062502 13.973636367187503  1.8181818164062502 9.45454544921875  C 1.8181818164062502 4.93545453125  5.48090908203125 1.2727272656250006  10 1.2727272656250006  C 14.51909091796875 1.2727272656250006  18.181818183593748 4.93545453125  18.181818183593748 9.45454544921875  Z M 14.17818181640625 5.919090898437501  C 14.35545455078125 5.74181818359375  14.35545455078125 5.4536363671874994  14.17818181640625 5.276363632812501  C 14.00090908203125 5.099090898437501  13.712727265625 5.099090898437501  13.53545455078125 5.276363632812501  L 10 8.81181818359375  L 6.46454544921875 5.276363632812501  C 6.28727271484375 5.099090898437501  5.9990908984375 5.099090898437501  5.82181818359375 5.276363632812501  C 5.64454544921875 5.453636367187501  5.64454544921875 5.74181818359375  5.82181818359375 5.919090898437501  L 9.357272734375 9.45454544921875  L 5.82181818359375 12.99  C 5.64454544921875 13.167272734375  5.64454544921875 13.455454550781251  5.82181818359375 13.632727265625  C 5.999090917968751 13.81  6.287272734375 13.81  6.46454544921875 13.632727265625  L 10 10.097272734375  L 13.53545455078125 13.63272728515625  C 13.71272728515625 13.810000019531252  14.000909101562499 13.810000019531252  14.17818181640625 13.63272728515625  C 14.35545455078125 13.455454550781251  14.35545455078125 13.167272734375  14.17818181640625 12.99000001953125  L 10.642727265625 9.45454544921875  L 14.17818181640625 5.919090898437501  Z " fill-rule="nonzero" fill="rgba(255, 255, 255, 1)" stroke="none" transform="matrix(1 0 0 1 102 233 )" class="fill" />
    <path d="M 19.090909082031253 9.45454544921875  C 19.090909082031253 4.4336363671875  15.02090908203125 0.3636363671874998  10 0.3636363671874998  C 4.97909091796875 0.3636363671874998  0.9090909179687501 4.4336363671875  0.9090909179687501 9.45454544921875  C 0.9090909179687501 14.475454531250001  4.97909091796875 18.54545453125  10 18.54545453125  C 15.02090908203125 18.54545453125  19.090909082031253 14.475454531250001  19.090909082031253 9.45454544921875  Z " stroke-width="0" stroke-dasharray="0" stroke="rgba(255, 255, 255, 0)" fill="none" transform="matrix(1 0 0 1 102 233 )" class="stroke" mask="url(#Clip1490)" />
    <path d="M 18.181818183593748 9.45454544921875  C 18.181818183593748 13.973636367187499  14.51909091796875 17.6363636328125  10 17.6363636328125  C 5.48090908203125 17.6363636328125  1.8181818164062502 13.973636367187503  1.8181818164062502 9.45454544921875  C 1.8181818164062502 4.93545453125  5.48090908203125 1.2727272656250006  10 1.2727272656250006  C 14.51909091796875 1.2727272656250006  18.181818183593748 4.93545453125  18.181818183593748 9.45454544921875  Z " stroke-width="0" stroke-dasharray="0" stroke="rgba(255, 255, 255, 0)" fill="none" transform="matrix(1 0 0 1 102 233 )" class="stroke" mask="url(#Clip1490)" />
    <path d="M 14.17818181640625 5.919090898437501  C 14.35545455078125 5.74181818359375  14.35545455078125 5.4536363671874994  14.17818181640625 5.276363632812501  C 14.00090908203125 5.099090898437501  13.712727265625 5.099090898437501  13.53545455078125 5.276363632812501  L 10 8.81181818359375  L 6.46454544921875 5.276363632812501  C 6.28727271484375 5.099090898437501  5.9990908984375 5.099090898437501  5.82181818359375 5.276363632812501  C 5.64454544921875 5.453636367187501  5.64454544921875 5.74181818359375  5.82181818359375 5.919090898437501  L 9.357272734375 9.45454544921875  L 5.82181818359375 12.99  C 5.64454544921875 13.167272734375  5.64454544921875 13.455454550781251  5.82181818359375 13.632727265625  C 5.999090917968751 13.81  6.287272734375 13.81  6.46454544921875 13.632727265625  L 10 10.097272734375  L 13.53545455078125 13.63272728515625  C 13.71272728515625 13.810000019531252  14.000909101562499 13.810000019531252  14.17818181640625 13.63272728515625  C 14.35545455078125 13.455454550781251  14.35545455078125 13.167272734375  14.17818181640625 12.99000001953125  L 10.642727265625 9.45454544921875  L 14.17818181640625 5.919090898437501  Z " stroke-width="0" stroke-dasharray="0" stroke="rgba(255, 255, 255, 0)" fill="none" transform="matrix(1 0 0 1 102 233 )" class="stroke" mask="url(#Clip1490)" />
  </g>
  <style>svg { filter: drop-shadow(0px 0px 5px rgba(0, 0, 0, 0.3137254901960784)); }</style>
</svg>