<?xml version="1.0" encoding="utf-8"?>
<svg version="1.1" xmlns:xlink="http://www.w3.org/1999/xlink" width="8px" height="7px" xmlns="http://www.w3.org/2000/svg">
  <defs>
    <pattern id="BGPattern" patternUnits="userSpaceOnUse" alignment="0 0" imageRepeat="None" />
    <mask fill="white" id="Clip7294">
      <path d="M 5.84065934709821 0.12684665368798484  C 5.402469586390107 0.12684665368798484  4.984949754060161 0.3343449214632686  4.692307700892859 0.6975524236505667  L 3.9868131696428577 1.5541958185369318  L 3.2813186941964227 0.6975524236505667  C 2.9835029456744206 0.33281521418907417  2.561358415254728 0.12488366946382323  2.1186813337053536 0.12488366946382323  C 1.6760042521559748 0.12488366946382323  1.2538597217362824 0.33281521418907417  0.9560439732142844 0.6975524236505667  C 0.32933767074168585 1.51155811101669  0.32933767074168585 2.7129174038980777  0.9560439732142844 3.526923091264205  L 3.9340659598214245 6.706293696732953  L 4.013186830357142 6.706293696732953  L 6.989010993303574 3.526923091264205  C 7.6157172957761645 2.7129174038980777  7.6157172957761645 1.51155811101669  6.989010993303566 0.6975524236505621  C 6.696368940136251 0.33434492146326406  6.278849107806309 0.12684665368798484  5.84065934709821 0.12684665368798484  Z " fill-rule="evenodd" />
    </mask>
  </defs>
  <g transform="matrix(1 0 0 1 -107 -93 )">
    <path d="M 5.84065934709821 0.12684665368798484  C 5.402469586390107 0.12684665368798484  4.984949754060161 0.3343449214632686  4.692307700892859 0.6975524236505667  L 3.9868131696428577 1.5541958185369318  L 3.2813186941964227 0.6975524236505667  C 2.9835029456744206 0.33281521418907417  2.561358415254728 0.12488366946382323  2.1186813337053536 0.12488366946382323  C 1.6760042521559748 0.12488366946382323  1.2538597217362824 0.33281521418907417  0.9560439732142844 0.6975524236505667  C 0.32933767074168585 1.51155811101669  0.32933767074168585 2.7129174038980777  0.9560439732142844 3.526923091264205  L 3.9340659598214245 6.706293696732953  L 4.013186830357142 6.706293696732953  L 6.989010993303574 3.526923091264205  C 7.6157172957761645 2.7129174038980777  7.6157172957761645 1.51155811101669  6.989010993303566 0.6975524236505621  C 6.696368940136251 0.33434492146326406  6.278849107806309 0.12684665368798484  5.84065934709821 0.12684665368798484  Z " fill-rule="nonzero" fill="rgba(255, 249, 250, 1)" stroke="none" transform="matrix(1 0 0 1 107 93 )" class="fill" />
    <path d="M 5.84065934709821 0.12684665368798484  C 5.402469586390107 0.12684665368798484  4.984949754060161 0.3343449214632686  4.692307700892859 0.6975524236505667  L 3.9868131696428577 1.5541958185369318  L 3.2813186941964227 0.6975524236505667  C 2.9835029456744206 0.33281521418907417  2.561358415254728 0.12488366946382323  2.1186813337053536 0.12488366946382323  C 1.6760042521559748 0.12488366946382323  1.2538597217362824 0.33281521418907417  0.9560439732142844 0.6975524236505667  C 0.32933767074168585 1.51155811101669  0.32933767074168585 2.7129174038980777  0.9560439732142844 3.526923091264205  L 3.9340659598214245 6.706293696732953  L 4.013186830357142 6.706293696732953  L 6.989010993303574 3.526923091264205  C 7.6157172957761645 2.7129174038980777  7.6157172957761645 1.51155811101669  6.989010993303566 0.6975524236505621  C 6.696368940136251 0.33434492146326406  6.278849107806309 0.12684665368798484  5.84065934709821 0.12684665368798484  Z " stroke-width="0" stroke-dasharray="0" stroke="rgba(255, 255, 255, 0)" fill="none" transform="matrix(1 0 0 1 107 93 )" class="stroke" mask="url(#Clip7294)" />
  </g>
</svg>