<?xml version="1.0" encoding="utf-8"?>
<svg version="1.1" xmlns:xlink="http://www.w3.org/1999/xlink" width="20px" height="20px" xmlns="http://www.w3.org/2000/svg">
  <defs>
    <pattern id="BGPattern" patternUnits="userSpaceOnUse" alignment="0 0" imageRepeat="None" />
    <mask fill="white" id="Clip7728">
      <path d="M 0 10.000000000000002  C 0 15.522847498307936  4.477152501692068 20  10.000000000000002 20  C 15.522847498307936 20  20 15.522847498307936  20 10.000000000000002  C 20 4.477152501692068  15.522847498307936 0  10.000000000000002 0  C 4.477152501692068 0  0 4.477152501692068  0 10.000000000000002  Z " fill-rule="evenodd" />
    </mask>
  </defs>
  <g transform="matrix(1 0 0 1 -75 -423 )">
    <path d="M 0 10.000000000000002  C 0 15.522847498307936  4.477152501692068 20  10.000000000000002 20  C 15.522847498307936 20  20 15.522847498307936  20 10.000000000000002  C 20 4.477152501692068  15.522847498307936 0  10.000000000000002 0  C 4.477152501692068 0  0 4.477152501692068  0 10.000000000000002  Z " fill-rule="nonzero" fill="rgba(7, 211, 121, 1)" stroke="none" transform="matrix(1 0 0 1 75 423 )" class="fill" />
    <path d="M 0 10.000000000000002  C 0 15.522847498307936  4.477152501692068 20  10.000000000000002 20  C 15.522847498307936 20  20 15.522847498307936  20 10.000000000000002  C 20 4.477152501692068  15.522847498307936 0  10.000000000000002 0  C 4.477152501692068 0  0 4.477152501692068  0 10.000000000000002  Z " stroke-width="0" stroke-dasharray="0" stroke="rgba(255, 255, 255, 0)" fill="none" transform="matrix(1 0 0 1 75 423 )" class="stroke" mask="url(#Clip7728)" />
  </g>
</svg>