<?xml version="1.0" encoding="utf-8"?>
<svg version="1.1" xmlns:xlink="http://www.w3.org/1999/xlink" width="224px" height="376px" xmlns="http://www.w3.org/2000/svg">
  <defs>
    <linearGradient gradientUnits="userSpaceOnUse" x1="0" y1="0" x2="224" y2="376" id="LinearGradient5548">
      <stop id="Stop5549" stop-color="#d9001b" stop-opacity="0.4980392156862745" offset="0" />
      <stop id="Stop5550" stop-color="#704a10" offset="1" />
    </linearGradient>
    <pattern id="BGPattern" patternUnits="userSpaceOnUse" alignment="0 0" imageRepeat="None" />
    <mask fill="white" id="Clip5551">
      <path d="M 0 371  L 0 5  C 0 2.1999999999999997  2.2 0  5 0  L 219 0  C 221.8 0  224 2.1999999999999997  224 5  L 224 371  C 224 373.79999999999995  221.8 376  219 376  L 5 376  C 2.2 376  0 373.79999999999995  0 371  Z " fill-rule="evenodd" />
    </mask>
  </defs>
  <g transform="matrix(1 0 0 1 -66 -117 )">
    <path d="M 0 371  L 0 5  C 0 2.1999999999999997  2.2 0  5 0  L 219 0  C 221.8 0  224 2.1999999999999997  224 5  L 224 371  C 224 373.79999999999995  221.8 376  219 376  L 5 376  C 2.2 376  0 373.79999999999995  0 371  Z " fill-rule="nonzero" fill="url(#LinearGradient5548)" stroke="none" transform="matrix(1 0 0 1 66 117 )" class="fill" />
    <path d="M 0 371  L 0 5  C 0 2.1999999999999997  2.2 0  5 0  L 219 0  C 221.8 0  224 2.1999999999999997  224 5  L 224 371  C 224 373.79999999999995  221.8 376  219 376  L 5 376  C 2.2 376  0 373.79999999999995  0 371  Z " stroke-width="0" stroke-dasharray="0" stroke="rgba(121, 121, 121, 1)" fill="none" transform="matrix(1 0 0 1 66 117 )" class="stroke" mask="url(#Clip5551)" />
  </g>
</svg>