<?xml version="1.0" encoding="utf-8"?>
<svg version="1.1" xmlns:xlink="http://www.w3.org/1999/xlink" width="20px" height="20px" xmlns="http://www.w3.org/2000/svg">
  <defs>
    <pattern id="BGPattern" patternUnits="userSpaceOnUse" alignment="0 0" imageRepeat="None" />
    <mask fill="white" id="Clip883">
      <path d="M 0.4166666699218755 3.908333330078124  L 0.4166666699218755 14.2  C 0.4166666699218755 15.900000009765623  1.7666666699218752 17.275000000000002  3.4333333398437507 17.275000000000002  C 3.7749999999999986 17.275000000000002  4.050000009765624 16.999999990234375  4.050000009765624 16.650000009765627  C 4.050000009765624 16.308333349609374  3.7749999999999986 16.025000019531248  3.4333333398437507 16.024999990234374  C 2.4500000195312497 16.024999990234374  1.6416666601562504 15.208333310546877  2 14.2  L 2 3.908333330078124  C 1.6416666601562504 2.899999990234374  2.4499999902343754 2.0833333398437492  3.4333333398437507 2  L 16.566666660156248 2  C 17.549999980468748 2.0833333398437492  18.35833333984375 2.900000019531249  18 3.908333330078124  L 18 14.199999999999996  C 18.35833333984375 15.208333339843747  17.550000009765625 16.02499999023437  16.566666660156248 16.02499999023437  L 7.6999999902343745 16.02499999023437  C 6.89166666015625 16.02499999023437  6.133333310546876 16.34999998046875  5.566666679687501 16.933333339843745  L 4.416666660156251 18.099999999999998  C 4.174999990234376 18.34166666992187  4.174999990234376 18.74166666015625  4.416666660156251 18.98333333007812  C 4.533333320312501 19.108333339843746  4.691666669921876 19.166666669921874  4.849999990234377 19.166666669921874  C 5.008333310546876 19.166666669921874  5.158333310546876 19.108333339843746  5.283333320312501 18.98333333007812  L 6.433333339843751 17.816666669921872  C 6.7666666796875 17.466666660156246  7.216666679687501 17.275  7.6999999902343745 17.275  L 16.566666660156248 17.275  C 18.23333333007812 17.275  19.583333330078123 15.900000009765623  19.583333330078123 14.199999999999996  L 19.583333330078123 3.908333330078124  C 19.583333330078126 2.2083333203124997  18.233333330078125 0.8333333300781245  16.566666660156248 1  L 3.4333333398437507 1  C 1.7666666699218752 0.8333333300781245  0.4166666699218755 2.2083333203124997  0.4166666699218755 3.908333330078124  Z " fill-rule="evenodd" />
    </mask>
  </defs>
  <g transform="matrix(1 0 0 1 -602 -641 )">
    <path d="M 0.4166666699218755 3.908333330078124  L 0.4166666699218755 14.2  C 0.4166666699218755 15.900000009765623  1.7666666699218752 17.275000000000002  3.4333333398437507 17.275000000000002  C 3.7749999999999986 17.275000000000002  4.050000009765624 16.999999990234375  4.050000009765624 16.650000009765627  C 4.050000009765624 16.308333349609374  3.7749999999999986 16.025000019531248  3.4333333398437507 16.024999990234374  C 2.4500000195312497 16.024999990234374  1.6416666601562504 15.208333310546877  2 14.2  L 2 3.908333330078124  C 1.6416666601562504 2.899999990234374  2.4499999902343754 2.0833333398437492  3.4333333398437507 2  L 16.566666660156248 2  C 17.549999980468748 2.0833333398437492  18.35833333984375 2.900000019531249  18 3.908333330078124  L 18 14.199999999999996  C 18.35833333984375 15.208333339843747  17.550000009765625 16.02499999023437  16.566666660156248 16.02499999023437  L 7.6999999902343745 16.02499999023437  C 6.89166666015625 16.02499999023437  6.133333310546876 16.34999998046875  5.566666679687501 16.933333339843745  L 4.416666660156251 18.099999999999998  C 4.174999990234376 18.34166666992187  4.174999990234376 18.74166666015625  4.416666660156251 18.98333333007812  C 4.533333320312501 19.108333339843746  4.691666669921876 19.166666669921874  4.849999990234377 19.166666669921874  C 5.008333310546876 19.166666669921874  5.158333310546876 19.108333339843746  5.283333320312501 18.98333333007812  L 6.433333339843751 17.816666669921872  C 6.7666666796875 17.466666660156246  7.216666679687501 17.275  7.6999999902343745 17.275  L 16.566666660156248 17.275  C 18.23333333007812 17.275  19.583333330078123 15.900000009765623  19.583333330078123 14.199999999999996  L 19.583333330078123 3.908333330078124  C 19.583333330078126 2.2083333203124997  18.233333330078125 0.8333333300781245  16.566666660156248 1  L 3.4333333398437507 1  C 1.7666666699218752 0.8333333300781245  0.4166666699218755 2.2083333203124997  0.4166666699218755 3.908333330078124  Z " fill-rule="nonzero" fill="rgba(255, 87, 51, 1)" stroke="none" transform="matrix(1 0 0 1 602 641 )" class="fill" />
    <path d="M 0.4166666699218755 3.908333330078124  L 0.4166666699218755 14.2  C 0.4166666699218755 15.900000009765623  1.7666666699218752 17.275000000000002  3.4333333398437507 17.275000000000002  C 3.7749999999999986 17.275000000000002  4.050000009765624 16.999999990234375  4.050000009765624 16.650000009765627  C 4.050000009765624 16.308333349609374  3.7749999999999986 16.025000019531248  3.4333333398437507 16.024999990234374  C 2.4500000195312497 16.024999990234374  1.6416666601562504 15.208333310546877  2 14.2  L 2 3.908333330078124  C 1.6416666601562504 2.899999990234374  2.4499999902343754 2.0833333398437492  3.4333333398437507 2  L 16.566666660156248 2  C 17.549999980468748 2.0833333398437492  18.35833333984375 2.900000019531249  18 3.908333330078124  L 18 14.199999999999996  C 18.35833333984375 15.208333339843747  17.550000009765625 16.02499999023437  16.566666660156248 16.02499999023437  L 7.6999999902343745 16.02499999023437  C 6.89166666015625 16.02499999023437  6.133333310546876 16.34999998046875  5.566666679687501 16.933333339843745  L 4.416666660156251 18.099999999999998  C 4.174999990234376 18.34166666992187  4.174999990234376 18.74166666015625  4.416666660156251 18.98333333007812  C 4.533333320312501 19.108333339843746  4.691666669921876 19.166666669921874  4.849999990234377 19.166666669921874  C 5.008333310546876 19.166666669921874  5.158333310546876 19.108333339843746  5.283333320312501 18.98333333007812  L 6.433333339843751 17.816666669921872  C 6.7666666796875 17.466666660156246  7.216666679687501 17.275  7.6999999902343745 17.275  L 16.566666660156248 17.275  C 18.23333333007812 17.275  19.583333330078123 15.900000009765623  19.583333330078123 14.199999999999996  L 19.583333330078123 3.908333330078124  C 19.583333330078126 2.2083333203124997  18.233333330078125 0.8333333300781245  16.566666660156248 1  L 3.4333333398437507 1  C 1.7666666699218752 0.8333333300781245  0.4166666699218755 2.2083333203124997  0.4166666699218755 3.908333330078124  Z " stroke-width="0" stroke-dasharray="0" stroke="rgba(255, 255, 255, 0)" fill="none" transform="matrix(1 0 0 1 602 641 )" class="stroke" mask="url(#Clip883)" />
  </g>
</svg>