<?xml version="1.0" encoding="utf-8"?>
<svg version="1.1" xmlns:xlink="http://www.w3.org/1999/xlink" width="9px" height="8px" xmlns="http://www.w3.org/2000/svg">
  <defs>
    <pattern id="BGPattern" patternUnits="userSpaceOnUse" alignment="0 0" imageRepeat="None" />
    <mask fill="white" id="Clip9941">
      <path d="M 4.428333330078122 0.840833339843746  C 4.028333339843748 0.5658333300781209  3.553333320312497 0.4158333300781223  3.070000009765625 0.41583333007812406  C 1.6783333496093729 0.41583333007812406  0.5533333496093746 1.6075000097656265  0.5533333203124986 3.0658333203124997  C 0.5533333203124986 3.1324999999999985  0.561666640624999 3.1908333300781244  0.5616666699218733 3.1908333300781244  C 0.5616666699218733 3.4658333398437478  0.6199999999999992 3.7658333398437485  0.7533333300781244 4.099166679687498  C 1.3033333203124986 5.465833349609374  3.086666650390626 6.9241666894531235  3.844999999999999 7.499166669921873  C 4.011666669921876 7.624166679687498  4.211666679687497 7.699166679687497  4.4200000097656265 7.699166679687497  C 4.636666689453126 7.699166679687497  4.836666669921875 7.632499999999997  5.0283333300781266 7.482499999999995  C 5.811666669921877 6.882499999999997  7.228333320312501 5.699166669921871  7.878333330078124 4.549166679687497  C 7.911666669921875 4.490833349609373  7.945000009765625 4.432500019531247  8.00333333984375 4.307500009765622  C 8.07000001953125 4.190833349609372  8.111666679687499 4.082500009765621  8.144999990234375 3.9908333398437463  C 8.23666666015625 3.7408333496093693  8.286666669921875 3.5158333496093714  8.294999990234373 3.2158333203124965  L 8.30333333984375 3.065833320312496  C 8.30333333984375 1.607499980468745  7.17833333984375 0.4158333300781223  5.7866666796874995 0.4158333300781223  C 5.303333339843746 0.4158333300781223  4.828333349609373 0.5658333300781209  4.428333330078122 0.840833339843746  Z M 6.828333330078127 3.8824999999999985  C 6.445000009765629 4.5658333203125  5.570000000000004 5.474166669921871  4.4200000097656265 6.374166669921877  C 3.3949999999999996 5.574166660156251  2.228333339843749 4.457500009765624  1.8783333300781244 3.5991666699218747  C 1.8116666503906238 3.4491666699218744  1.78666666015625 3.299166669921874  1.7783333398437495 3.24083333984375  L 1.78666666015625 3.140833320312499  L 1.7783333398437495 3.057499999999999  C 1.7783333398437495 2.290833330078124  2.361666669921874 1.657499990234374  3.070000009765625 1.657499990234374  C 3.403333349609376 1.657499990234374  3.7366666894531235 1.8074999902343727  3.978333330078126 2.0741666796874973  L 4.428333330078125 2.574166660156248  L 4.878333330078124 2.0741666796874973  C 5.120000000000001 1.8075000195312487  5.4449999902343755 1.6575000195312484  5.786666679687503 1.657499990234374  C 6.4950000195312505 1.657499990234374  7.078333349609377 2.2908333300781223  7.0783333203125025 3.057499999999999  L 7.0783333203125025 3.140833320312499  L 7.07 3.1908333300781244  C 7.07 3.282499999999999  7.0450000097656265 3.399166660156249  6.9950000000000045 3.5491666601562493  C 6.970000009765627 3.6074999902343734  6.9449999902343755 3.6658333203124975  6.911666679687503 3.732499999999998  L 6.886666660156255 3.8241666699218726  L 6.828333330078127 3.8824999999999985  Z " fill-rule="evenodd" />
    </mask>
  </defs>
  <g transform="matrix(1 0 0 1 -610 -646 )">
    <path d="M 4.428333330078122 0.840833339843746  C 4.028333339843748 0.5658333300781209  3.553333320312497 0.4158333300781223  3.070000009765625 0.41583333007812406  C 1.6783333496093729 0.41583333007812406  0.5533333496093746 1.6075000097656265  0.5533333203124986 3.0658333203124997  C 0.5533333203124986 3.1324999999999985  0.561666640624999 3.1908333300781244  0.5616666699218733 3.1908333300781244  C 0.5616666699218733 3.4658333398437478  0.6199999999999992 3.7658333398437485  0.7533333300781244 4.099166679687498  C 1.3033333203124986 5.465833349609374  3.086666650390626 6.9241666894531235  3.844999999999999 7.499166669921873  C 4.011666669921876 7.624166679687498  4.211666679687497 7.699166679687497  4.4200000097656265 7.699166679687497  C 4.636666689453126 7.699166679687497  4.836666669921875 7.632499999999997  5.0283333300781266 7.482499999999995  C 5.811666669921877 6.882499999999997  7.228333320312501 5.699166669921871  7.878333330078124 4.549166679687497  C 7.911666669921875 4.490833349609373  7.945000009765625 4.432500019531247  8.00333333984375 4.307500009765622  C 8.07000001953125 4.190833349609372  8.111666679687499 4.082500009765621  8.144999990234375 3.9908333398437463  C 8.23666666015625 3.7408333496093693  8.286666669921875 3.5158333496093714  8.294999990234373 3.2158333203124965  L 8.30333333984375 3.065833320312496  C 8.30333333984375 1.607499980468745  7.17833333984375 0.4158333300781223  5.7866666796874995 0.4158333300781223  C 5.303333339843746 0.4158333300781223  4.828333349609373 0.5658333300781209  4.428333330078122 0.840833339843746  Z M 6.828333330078127 3.8824999999999985  C 6.445000009765629 4.5658333203125  5.570000000000004 5.474166669921871  4.4200000097656265 6.374166669921877  C 3.3949999999999996 5.574166660156251  2.228333339843749 4.457500009765624  1.8783333300781244 3.5991666699218747  C 1.8116666503906238 3.4491666699218744  1.78666666015625 3.299166669921874  1.7783333398437495 3.24083333984375  L 1.78666666015625 3.140833320312499  L 1.7783333398437495 3.057499999999999  C 1.7783333398437495 2.290833330078124  2.361666669921874 1.657499990234374  3.070000009765625 1.657499990234374  C 3.403333349609376 1.657499990234374  3.7366666894531235 1.8074999902343727  3.978333330078126 2.0741666796874973  L 4.428333330078125 2.574166660156248  L 4.878333330078124 2.0741666796874973  C 5.120000000000001 1.8075000195312487  5.4449999902343755 1.6575000195312484  5.786666679687503 1.657499990234374  C 6.4950000195312505 1.657499990234374  7.078333349609377 2.2908333300781223  7.0783333203125025 3.057499999999999  L 7.0783333203125025 3.140833320312499  L 7.07 3.1908333300781244  C 7.07 3.282499999999999  7.0450000097656265 3.399166660156249  6.9950000000000045 3.5491666601562493  C 6.970000009765627 3.6074999902343734  6.9449999902343755 3.6658333203124975  6.911666679687503 3.732499999999998  L 6.886666660156255 3.8241666699218726  L 6.828333330078127 3.8824999999999985  Z " fill-rule="nonzero" fill="rgba(255, 87, 51, 1)" stroke="none" transform="matrix(1 0 0 1 610 646 )" class="fill" />
    <path d="M 4.428333330078122 0.840833339843746  C 4.028333339843748 0.5658333300781209  3.553333320312497 0.4158333300781223  3.070000009765625 0.41583333007812406  C 1.6783333496093729 0.41583333007812406  0.5533333496093746 1.6075000097656265  0.5533333203124986 3.0658333203124997  C 0.5533333203124986 3.1324999999999985  0.561666640624999 3.1908333300781244  0.5616666699218733 3.1908333300781244  C 0.5616666699218733 3.4658333398437478  0.6199999999999992 3.7658333398437485  0.7533333300781244 4.099166679687498  C 1.3033333203124986 5.465833349609374  3.086666650390626 6.9241666894531235  3.844999999999999 7.499166669921873  C 4.011666669921876 7.624166679687498  4.211666679687497 7.699166679687497  4.4200000097656265 7.699166679687497  C 4.636666689453126 7.699166679687497  4.836666669921875 7.632499999999997  5.0283333300781266 7.482499999999995  C 5.811666669921877 6.882499999999997  7.228333320312501 5.699166669921871  7.878333330078124 4.549166679687497  C 7.911666669921875 4.490833349609373  7.945000009765625 4.432500019531247  8.00333333984375 4.307500009765622  C 8.07000001953125 4.190833349609372  8.111666679687499 4.082500009765621  8.144999990234375 3.9908333398437463  C 8.23666666015625 3.7408333496093693  8.286666669921875 3.5158333496093714  8.294999990234373 3.2158333203124965  L 8.30333333984375 3.065833320312496  C 8.30333333984375 1.607499980468745  7.17833333984375 0.4158333300781223  5.7866666796874995 0.4158333300781223  C 5.303333339843746 0.4158333300781223  4.828333349609373 0.5658333300781209  4.428333330078122 0.840833339843746  Z " stroke-width="0" stroke-dasharray="0" stroke="rgba(255, 255, 255, 0)" fill="none" transform="matrix(1 0 0 1 610 646 )" class="stroke" mask="url(#Clip9941)" />
    <path d="M 6.828333330078127 3.8824999999999985  C 6.445000009765629 4.5658333203125  5.570000000000004 5.474166669921871  4.4200000097656265 6.374166669921877  C 3.3949999999999996 5.574166660156251  2.228333339843749 4.457500009765624  1.8783333300781244 3.5991666699218747  C 1.8116666503906238 3.4491666699218744  1.78666666015625 3.299166669921874  1.7783333398437495 3.24083333984375  L 1.78666666015625 3.140833320312499  L 1.7783333398437495 3.057499999999999  C 1.7783333398437495 2.290833330078124  2.361666669921874 1.657499990234374  3.070000009765625 1.657499990234374  C 3.403333349609376 1.657499990234374  3.7366666894531235 1.8074999902343727  3.978333330078126 2.0741666796874973  L 4.428333330078125 2.574166660156248  L 4.878333330078124 2.0741666796874973  C 5.120000000000001 1.8075000195312487  5.4449999902343755 1.6575000195312484  5.786666679687503 1.657499990234374  C 6.4950000195312505 1.657499990234374  7.078333349609377 2.2908333300781223  7.0783333203125025 3.057499999999999  L 7.0783333203125025 3.140833320312499  L 7.07 3.1908333300781244  C 7.07 3.282499999999999  7.0450000097656265 3.399166660156249  6.9950000000000045 3.5491666601562493  C 6.970000009765627 3.6074999902343734  6.9449999902343755 3.6658333203124975  6.911666679687503 3.732499999999998  L 6.886666660156255 3.8241666699218726  L 6.828333330078127 3.8824999999999985  Z " stroke-width="0" stroke-dasharray="0" stroke="rgba(255, 255, 255, 0)" fill="none" transform="matrix(1 0 0 1 610 646 )" class="stroke" mask="url(#Clip9941)" />
  </g>
</svg>