<?xml version="1.0" encoding="utf-8"?>
<svg version="1.1" xmlns:xlink="http://www.w3.org/1999/xlink" width="16px" height="5px" xmlns="http://www.w3.org/2000/svg">
  <defs>
    <pattern id="BGPattern" patternUnits="userSpaceOnUse" alignment="0 0" imageRepeat="None" />
    <mask fill="white" id="Clip4436">
      <path d="M 15.652109374999998 1.7325781250000034  C 15.364999999999998 1.2757812499999943  14.711796874999997 0.9860937500000091  13.534296874999999 0.7927343750000091  C 13.278828125 0.7507812500000028  13.037656249999998 0.9239843750000034  12.995703124999999 1.179453125000009  C 12.95375 1.4349218750000006  13.126953125 1.6760937500000068  13.382421874999999 1.717812500000008  C 14.60609375 1.9186718750000011  14.826406249999998 2.180703125000008  14.858281250000001 2.2310937499999994  C 14.865781250000001 2.2430468750000045  14.874218749999997 2.256640625000003  14.857578125 2.3135937499999955  C 14.8278125 2.415078125000008  14.428671875000003 2.7720312499999977  13.033671875 3.0687499999999943  C 11.781875 3.335234374999999  10.068125 3.481953125000004  8.208124999999999 3.481953125000004  C 6.467187500000001 3.481953125000004  4.801953124999999 3.3385156249999994  3.5192187500000003 3.077890625000009  C 2.109453125 2.791484374999996  1.639765625 2.462890625  1.56828125 2.3501562499999977  C 1.561484375 2.299062500000005  1.5722656249999991 2.2789062500000057  1.58796875 2.256640625000003  C 1.6402343749999995 2.182812499999997  1.9039062499999995 1.9259375000000034  3.099687499999999 1.7260156250000023  C 3.3549218749999987 1.683359375000009  3.527421874999999 1.4417187500000068  3.4847656249999996 1.1864843750000063  C 3.4421093749999994 0.9312500000000057  3.200468749999999 0.7587500000000063  2.945234375 0.8014062499999994  C 1.7876562499999995 0.9950000000000045  1.1330468749999998 1.2767187500000006  0.8227343749999996 1.7152343749999943  C 0.6560937499999993 1.9505468750000006  0.5953906250000003 2.2313281250000045  0.6471874999999994 2.526875000000004  C 0.7099999999999991 2.885000000000005  0.9954687499999997 3.183828125000005  1.5202343749999994 3.4399999999999977  C 1.9212499999999997 3.6357031250000063  2.4664062499999995 3.809609375000008  3.140937499999999 3.956562500000004  C 4.511093749999999 4.255156249999999  6.310624999999998 4.419687500000009  8.208124999999997 4.419687500000009  C 10.159531249999997 4.419687500000009  11.895781249999999 4.269687500000003  13.228906249999998 3.986093750000009  C 14.746484374999998 3.663125000000008  15.573593749999997 3.2025781250000023  15.757109374999999 2.578437500000007  C 15.869374999999998 2.1961718750000045  15.76203125 1.9074218749999972  15.652109374999998 1.7325781250000034  Z " fill-rule="evenodd" />
    </mask>
  </defs>
  <g transform="matrix(1 0 0 1 -1189 -322 )">
    <path d="M 15.652109374999998 1.7325781250000034  C 15.364999999999998 1.2757812499999943  14.711796874999997 0.9860937500000091  13.534296874999999 0.7927343750000091  C 13.278828125 0.7507812500000028  13.037656249999998 0.9239843750000034  12.995703124999999 1.179453125000009  C 12.95375 1.4349218750000006  13.126953125 1.6760937500000068  13.382421874999999 1.717812500000008  C 14.60609375 1.9186718750000011  14.826406249999998 2.180703125000008  14.858281250000001 2.2310937499999994  C 14.865781250000001 2.2430468750000045  14.874218749999997 2.256640625000003  14.857578125 2.3135937499999955  C 14.8278125 2.415078125000008  14.428671875000003 2.7720312499999977  13.033671875 3.0687499999999943  C 11.781875 3.335234374999999  10.068125 3.481953125000004  8.208124999999999 3.481953125000004  C 6.467187500000001 3.481953125000004  4.801953124999999 3.3385156249999994  3.5192187500000003 3.077890625000009  C 2.109453125 2.791484374999996  1.639765625 2.462890625  1.56828125 2.3501562499999977  C 1.561484375 2.299062500000005  1.5722656249999991 2.2789062500000057  1.58796875 2.256640625000003  C 1.6402343749999995 2.182812499999997  1.9039062499999995 1.9259375000000034  3.099687499999999 1.7260156250000023  C 3.3549218749999987 1.683359375000009  3.527421874999999 1.4417187500000068  3.4847656249999996 1.1864843750000063  C 3.4421093749999994 0.9312500000000057  3.200468749999999 0.7587500000000063  2.945234375 0.8014062499999994  C 1.7876562499999995 0.9950000000000045  1.1330468749999998 1.2767187500000006  0.8227343749999996 1.7152343749999943  C 0.6560937499999993 1.9505468750000006  0.5953906250000003 2.2313281250000045  0.6471874999999994 2.526875000000004  C 0.7099999999999991 2.885000000000005  0.9954687499999997 3.183828125000005  1.5202343749999994 3.4399999999999977  C 1.9212499999999997 3.6357031250000063  2.4664062499999995 3.809609375000008  3.140937499999999 3.956562500000004  C 4.511093749999999 4.255156249999999  6.310624999999998 4.419687500000009  8.208124999999997 4.419687500000009  C 10.159531249999997 4.419687500000009  11.895781249999999 4.269687500000003  13.228906249999998 3.986093750000009  C 14.746484374999998 3.663125000000008  15.573593749999997 3.2025781250000023  15.757109374999999 2.578437500000007  C 15.869374999999998 2.1961718750000045  15.76203125 1.9074218749999972  15.652109374999998 1.7325781250000034  Z " fill-rule="nonzero" fill="rgba(255, 255, 255, 1)" stroke="none" transform="matrix(1 0 0 1 1189 322 )" class="fill" />
    <path d="M 15.652109374999998 1.7325781250000034  C 15.364999999999998 1.2757812499999943  14.711796874999997 0.9860937500000091  13.534296874999999 0.7927343750000091  C 13.278828125 0.7507812500000028  13.037656249999998 0.9239843750000034  12.995703124999999 1.179453125000009  C 12.95375 1.4349218750000006  13.126953125 1.6760937500000068  13.382421874999999 1.717812500000008  C 14.60609375 1.9186718750000011  14.826406249999998 2.180703125000008  14.858281250000001 2.2310937499999994  C 14.865781250000001 2.2430468750000045  14.874218749999997 2.256640625000003  14.857578125 2.3135937499999955  C 14.8278125 2.415078125000008  14.428671875000003 2.7720312499999977  13.033671875 3.0687499999999943  C 11.781875 3.335234374999999  10.068125 3.481953125000004  8.208124999999999 3.481953125000004  C 6.467187500000001 3.481953125000004  4.801953124999999 3.3385156249999994  3.5192187500000003 3.077890625000009  C 2.109453125 2.791484374999996  1.639765625 2.462890625  1.56828125 2.3501562499999977  C 1.561484375 2.299062500000005  1.5722656249999991 2.2789062500000057  1.58796875 2.256640625000003  C 1.6402343749999995 2.182812499999997  1.9039062499999995 1.9259375000000034  3.099687499999999 1.7260156250000023  C 3.3549218749999987 1.683359375000009  3.527421874999999 1.4417187500000068  3.4847656249999996 1.1864843750000063  C 3.4421093749999994 0.9312500000000057  3.200468749999999 0.7587500000000063  2.945234375 0.8014062499999994  C 1.7876562499999995 0.9950000000000045  1.1330468749999998 1.2767187500000006  0.8227343749999996 1.7152343749999943  C 0.6560937499999993 1.9505468750000006  0.5953906250000003 2.2313281250000045  0.6471874999999994 2.526875000000004  C 0.7099999999999991 2.885000000000005  0.9954687499999997 3.183828125000005  1.5202343749999994 3.4399999999999977  C 1.9212499999999997 3.6357031250000063  2.4664062499999995 3.809609375000008  3.140937499999999 3.956562500000004  C 4.511093749999999 4.255156249999999  6.310624999999998 4.419687500000009  8.208124999999997 4.419687500000009  C 10.159531249999997 4.419687500000009  11.895781249999999 4.269687500000003  13.228906249999998 3.986093750000009  C 14.746484374999998 3.663125000000008  15.573593749999997 3.2025781250000023  15.757109374999999 2.578437500000007  C 15.869374999999998 2.1961718750000045  15.76203125 1.9074218749999972  15.652109374999998 1.7325781250000034  Z " stroke-width="0" stroke-dasharray="0" stroke="rgba(255, 255, 255, 0)" fill="none" transform="matrix(1 0 0 1 1189 322 )" class="stroke" mask="url(#Clip4436)" />
  </g>
</svg>