<?xml version="1.0" encoding="utf-8"?>
<svg version="1.1" xmlns:xlink="http://www.w3.org/1999/xlink" width="16px" height="17px" xmlns="http://www.w3.org/2000/svg">
  <defs>
    <pattern id="BGPattern" patternUnits="userSpaceOnUse" alignment="0 0" imageRepeat="None" />
    <mask fill="white" id="Clip19133">
      <path d="M 15.7890625 9.376093749999995  C 15.7890625 8.976015625000002  15.662031250000002 8.648359374999998  15.411484375 8.402500000000003  C 14.882265624999999 7.882890625000002  13.978046875 7.8995312499999955  13.103593749999998 7.915703124999993  C 13.099375000000002 7.915703124999993  13.095390625 7.915937499999998  13.091171875 7.915937499999998  C 12.879296875000001 7.026015624999999  12.07796875 6.361796874999996  11.1240625 6.361796874999996  L 2.934531250000001 6.361796874999996  C 1.8193750000000009 6.361796874999996  0.912109375 7.269062500000004  0.912109375 8.384218750000002  L 0.912109375 10.005624999999995  C 0.912109375 11.639687500000008  1.5484374999999995 13.17578125  2.7036718749999995 14.331015624999992  C 3.8589062500000004 15.486249999999998  5.395234374999999 16.122578125000004  7.0290625 16.122578125000004  L 7.752812500000001 16.122578125000004  C 9.193515625 16.122578125000004  10.547968749999999 15.561484374999992  11.5665625 14.542890624999998  C 11.82925975063229 14.280404511677446  12.064392009885694 13.991711731111138  12.268281250000001 13.681328124999993  C 13.609140625000002 13.311484375000006  14.535859375000001 12.747578125000004  15.098359375000001 11.959140625000003  C 15.576249999999998 11.290234374999997  15.7890625 10.493593750000002  15.7890625 9.376093749999995  Z M 12.208750000000002 10.728906249999994  C 12.208984375 13.186328125000003  10.21 15.185078125000004  7.753046874999999 15.185078125000004  L 7.029296875 15.185078125000004  C 5.645781250000001 15.185078125000004  4.345000000000001 14.646250000000009  3.3667187500000004 13.66796875  C 2.3884375 12.689687500000005  1.849609375 11.388906250000005  1.849609375 10.005390625000004  L 1.849609375 8.383984374999997  C 1.849609375 7.785624999999996  2.3364062499999996 7.299062500000005  2.934531250000001 7.299062500000005  L 11.123828125000003 7.299062500000005  C 11.7221875 7.299062500000005  12.208750000000002 7.785859375000001  12.208750000000002 8.383984374999997  L 12.208750000000002 10.728906249999994  Z M 14.851796874999998 9.375859375000005  C 14.8515625 10.285937500000003  14.692421875 10.914531249999996  14.335703125000002 11.414453124999994  C 14.019765624999998 11.857187499999995  13.530390624999999 12.214375000000004  12.851640624999998 12.495859374999995  C 13.045468749999998 11.935000000000002  13.146718749999998 11.339921875000002  13.146718749999998 10.729140625  L 13.146718749999998 8.852265625000001  C 13.759374999999999 8.841015624999997  14.509843749999998 8.830703125  14.754999999999999 9.071171875000005  C 14.796484374999999 9.111953125  14.851796874999998 9.187890624999994  14.851796874999998 9.375859375000005  Z M 3.0636718750000007 5.269843749999993  C 3.1550781249999993 5.361484375000003  3.2750781250000003 5.407421874999997  3.3950781249999995 5.407421874999997  C 3.5150781250000005 5.407421874999997  3.6350781249999997 5.361718749999994  3.726484375 5.270078124999998  L 4.307734374999999 4.688828125000001  C 4.789140625 4.207421874999994  4.808359375 3.4349218750000006  4.351328125 2.9303124999999994  C 4.194987686806879 2.7582981435841845  4.194076611284508 2.4959083931411925  4.34921875 2.3228124999999977  L 4.869062500000002 1.7401562499999983  C 5.0413281250000015 1.5470312500000034  5.024453125000001 1.2507812500000028  4.831328125000001 1.0782812500000034  C 4.638203125 0.9060156249999949  4.341953125 0.9228906249999937  4.169453125 1.1160156250000028  L 3.6496093750000007 1.6986718750000023  C 3.174765625000001 2.230703125000005  3.177578125 3.0308593750000057  3.65640625 3.559375000000003  C 3.7775781250000016 3.6932031249999966  3.772421875000001 3.8980468750000057  3.6449218750000014 4.025781249999994  L 3.0636718750000007 4.607031250000006  C 2.880625 4.790078124999994  2.880625 5.0867968750000045  3.0636718750000007 5.269843749999993  Z M 6.319609374999999 5.269843749999993  C 6.411015624999999 5.361484375000003  6.531015624999998 5.407421874999997  6.651015624999999 5.407421874999997  C 6.771015625 5.407421874999997  6.891015625000001 5.361718749999994  6.982421875 5.270078124999998  L 7.563671874999999 4.688828125000001  C 8.045078124999998 4.207421874999994  8.064296875 3.4349218750000006  7.607265625 2.9303124999999994  C 7.450925186806879 2.7582981435841845  7.450014111284506 2.4959083931411925  7.6051562499999985 2.3228124999999977  L 8.125 1.7401562499999983  C 8.297265625000001 1.5470312500000034  8.280390624999999 1.2507812500000028  8.087265625 1.0782812500000034  C 7.894140624999999 0.9060156249999949  7.597890625 0.9226562500000028  7.425390624999999 1.1160156250000028  L 6.905546874999999 1.6986718750000023  C 6.430703124999999 2.230703125000005  6.433515625 3.0308593750000057  6.91234375 3.559375000000003  C 7.033515625 3.6932031249999966  7.028359375000001 3.8980468750000057  6.900859375 4.025781249999994  L 6.319609374999999 4.607031250000006  C 6.1365625 4.790078124999994  6.1365625 5.0867968750000045  6.319609374999999 5.269843749999993  Z M 9.575546874999997 5.269843749999993  C 9.666953124999996 5.361484375000003  9.786953124999997 5.407421874999997  9.906953125 5.407421874999997  C 10.026953124999999 5.407421874999997  10.146953125 5.361718749999994  10.238359374999998 5.270078124999998  L 10.819609374999999 4.688828125000001  C 11.301015624999998 4.207421874999994  11.320234374999998 3.4349218750000006  10.863203124999998 2.9303124999999994  C 10.706862686806875 2.7582981435841845  10.705951611284506 2.4959083931411925  10.861093749999998 2.3228124999999977  L 11.380937499999995 1.7401562499999983  C 11.553203124999996 1.5470312500000034  11.536328124999997 1.2507812500000028  11.343203124999995 1.0782812500000034  C 11.150078124999997 0.9060156249999949  10.853828124999996 0.9226562500000028  10.681328124999997 1.1160156250000028  L 10.161484374999997 1.6986718750000023  C 9.686640624999997 2.230703125000005  9.689453124999996 3.0308593750000057  10.168281249999996 3.559375000000003  C 10.289453124999994 3.6932031249999966  10.284296874999997 3.8980468750000057  10.156796874999996 4.025781249999994  L 9.575546874999997 4.607031250000006  C 9.392499999999998 4.790078124999994  9.392499999999998 5.0867968750000045  9.575546874999997 5.269843749999993  Z " fill-rule="evenodd" />
    </mask>
  </defs>
  <g transform="matrix(1 0 0 1 -2192 -590 )">
    <path d="M 15.7890625 9.376093749999995  C 15.7890625 8.976015625000002  15.662031250000002 8.648359374999998  15.411484375 8.402500000000003  C 14.882265624999999 7.882890625000002  13.978046875 7.8995312499999955  13.103593749999998 7.915703124999993  C 13.099375000000002 7.915703124999993  13.095390625 7.915937499999998  13.091171875 7.915937499999998  C 12.879296875000001 7.026015624999999  12.07796875 6.361796874999996  11.1240625 6.361796874999996  L 2.934531250000001 6.361796874999996  C 1.8193750000000009 6.361796874999996  0.912109375 7.269062500000004  0.912109375 8.384218750000002  L 0.912109375 10.005624999999995  C 0.912109375 11.639687500000008  1.5484374999999995 13.17578125  2.7036718749999995 14.331015624999992  C 3.8589062500000004 15.486249999999998  5.395234374999999 16.122578125000004  7.0290625 16.122578125000004  L 7.752812500000001 16.122578125000004  C 9.193515625 16.122578125000004  10.547968749999999 15.561484374999992  11.5665625 14.542890624999998  C 11.82925975063229 14.280404511677446  12.064392009885694 13.991711731111138  12.268281250000001 13.681328124999993  C 13.609140625000002 13.311484375000006  14.535859375000001 12.747578125000004  15.098359375000001 11.959140625000003  C 15.576249999999998 11.290234374999997  15.7890625 10.493593750000002  15.7890625 9.376093749999995  Z M 12.208750000000002 10.728906249999994  C 12.208984375 13.186328125000003  10.21 15.185078125000004  7.753046874999999 15.185078125000004  L 7.029296875 15.185078125000004  C 5.645781250000001 15.185078125000004  4.345000000000001 14.646250000000009  3.3667187500000004 13.66796875  C 2.3884375 12.689687500000005  1.849609375 11.388906250000005  1.849609375 10.005390625000004  L 1.849609375 8.383984374999997  C 1.849609375 7.785624999999996  2.3364062499999996 7.299062500000005  2.934531250000001 7.299062500000005  L 11.123828125000003 7.299062500000005  C 11.7221875 7.299062500000005  12.208750000000002 7.785859375000001  12.208750000000002 8.383984374999997  L 12.208750000000002 10.728906249999994  Z M 14.851796874999998 9.375859375000005  C 14.8515625 10.285937500000003  14.692421875 10.914531249999996  14.335703125000002 11.414453124999994  C 14.019765624999998 11.857187499999995  13.530390624999999 12.214375000000004  12.851640624999998 12.495859374999995  C 13.045468749999998 11.935000000000002  13.146718749999998 11.339921875000002  13.146718749999998 10.729140625  L 13.146718749999998 8.852265625000001  C 13.759374999999999 8.841015624999997  14.509843749999998 8.830703125  14.754999999999999 9.071171875000005  C 14.796484374999999 9.111953125  14.851796874999998 9.187890624999994  14.851796874999998 9.375859375000005  Z M 3.0636718750000007 5.269843749999993  C 3.1550781249999993 5.361484375000003  3.2750781250000003 5.407421874999997  3.3950781249999995 5.407421874999997  C 3.5150781250000005 5.407421874999997  3.6350781249999997 5.361718749999994  3.726484375 5.270078124999998  L 4.307734374999999 4.688828125000001  C 4.789140625 4.207421874999994  4.808359375 3.4349218750000006  4.351328125 2.9303124999999994  C 4.194987686806879 2.7582981435841845  4.194076611284508 2.4959083931411925  4.34921875 2.3228124999999977  L 4.869062500000002 1.7401562499999983  C 5.0413281250000015 1.5470312500000034  5.024453125000001 1.2507812500000028  4.831328125000001 1.0782812500000034  C 4.638203125 0.9060156249999949  4.341953125 0.9228906249999937  4.169453125 1.1160156250000028  L 3.6496093750000007 1.6986718750000023  C 3.174765625000001 2.230703125000005  3.177578125 3.0308593750000057  3.65640625 3.559375000000003  C 3.7775781250000016 3.6932031249999966  3.772421875000001 3.8980468750000057  3.6449218750000014 4.025781249999994  L 3.0636718750000007 4.607031250000006  C 2.880625 4.790078124999994  2.880625 5.0867968750000045  3.0636718750000007 5.269843749999993  Z M 6.319609374999999 5.269843749999993  C 6.411015624999999 5.361484375000003  6.531015624999998 5.407421874999997  6.651015624999999 5.407421874999997  C 6.771015625 5.407421874999997  6.891015625000001 5.361718749999994  6.982421875 5.270078124999998  L 7.563671874999999 4.688828125000001  C 8.045078124999998 4.207421874999994  8.064296875 3.4349218750000006  7.607265625 2.9303124999999994  C 7.450925186806879 2.7582981435841845  7.450014111284506 2.4959083931411925  7.6051562499999985 2.3228124999999977  L 8.125 1.7401562499999983  C 8.297265625000001 1.5470312500000034  8.280390624999999 1.2507812500000028  8.087265625 1.0782812500000034  C 7.894140624999999 0.9060156249999949  7.597890625 0.9226562500000028  7.425390624999999 1.1160156250000028  L 6.905546874999999 1.6986718750000023  C 6.430703124999999 2.230703125000005  6.433515625 3.0308593750000057  6.91234375 3.559375000000003  C 7.033515625 3.6932031249999966  7.028359375000001 3.8980468750000057  6.900859375 4.025781249999994  L 6.319609374999999 4.607031250000006  C 6.1365625 4.790078124999994  6.1365625 5.0867968750000045  6.319609374999999 5.269843749999993  Z M 9.575546874999997 5.269843749999993  C 9.666953124999996 5.361484375000003  9.786953124999997 5.407421874999997  9.906953125 5.407421874999997  C 10.026953124999999 5.407421874999997  10.146953125 5.361718749999994  10.238359374999998 5.270078124999998  L 10.819609374999999 4.688828125000001  C 11.301015624999998 4.207421874999994  11.320234374999998 3.4349218750000006  10.863203124999998 2.9303124999999994  C 10.706862686806875 2.7582981435841845  10.705951611284506 2.4959083931411925  10.861093749999998 2.3228124999999977  L 11.380937499999995 1.7401562499999983  C 11.553203124999996 1.5470312500000034  11.536328124999997 1.2507812500000028  11.343203124999995 1.0782812500000034  C 11.150078124999997 0.9060156249999949  10.853828124999996 0.9226562500000028  10.681328124999997 1.1160156250000028  L 10.161484374999997 1.6986718750000023  C 9.686640624999997 2.230703125000005  9.689453124999996 3.0308593750000057  10.168281249999996 3.559375000000003  C 10.289453124999994 3.6932031249999966  10.284296874999997 3.8980468750000057  10.156796874999996 4.025781249999994  L 9.575546874999997 4.607031250000006  C 9.392499999999998 4.790078124999994  9.392499999999998 5.0867968750000045  9.575546874999997 5.269843749999993  Z " fill-rule="nonzero" fill="rgba(255, 255, 255, 1)" stroke="none" transform="matrix(1 0 0 1 2192 590 )" class="fill" />
    <path d="M 15.7890625 9.376093749999995  C 15.7890625 8.976015625000002  15.662031250000002 8.648359374999998  15.411484375 8.402500000000003  C 14.882265624999999 7.882890625000002  13.978046875 7.8995312499999955  13.103593749999998 7.915703124999993  C 13.099375000000002 7.915703124999993  13.095390625 7.915937499999998  13.091171875 7.915937499999998  C 12.879296875000001 7.026015624999999  12.07796875 6.361796874999996  11.1240625 6.361796874999996  L 2.934531250000001 6.361796874999996  C 1.8193750000000009 6.361796874999996  0.912109375 7.269062500000004  0.912109375 8.384218750000002  L 0.912109375 10.005624999999995  C 0.912109375 11.639687500000008  1.5484374999999995 13.17578125  2.7036718749999995 14.331015624999992  C 3.8589062500000004 15.486249999999998  5.395234374999999 16.122578125000004  7.0290625 16.122578125000004  L 7.752812500000001 16.122578125000004  C 9.193515625 16.122578125000004  10.547968749999999 15.561484374999992  11.5665625 14.542890624999998  C 11.82925975063229 14.280404511677446  12.064392009885694 13.991711731111138  12.268281250000001 13.681328124999993  C 13.609140625000002 13.311484375000006  14.535859375000001 12.747578125000004  15.098359375000001 11.959140625000003  C 15.576249999999998 11.290234374999997  15.7890625 10.493593750000002  15.7890625 9.376093749999995  Z " stroke-width="0" stroke-dasharray="0" stroke="rgba(255, 255, 255, 0)" fill="none" transform="matrix(1 0 0 1 2192 590 )" class="stroke" mask="url(#Clip19133)" />
    <path d="M 12.208750000000002 10.728906249999994  C 12.208984375 13.186328125000003  10.21 15.185078125000004  7.753046874999999 15.185078125000004  L 7.029296875 15.185078125000004  C 5.645781250000001 15.185078125000004  4.345000000000001 14.646250000000009  3.3667187500000004 13.66796875  C 2.3884375 12.689687500000005  1.849609375 11.388906250000005  1.849609375 10.005390625000004  L 1.849609375 8.383984374999997  C 1.849609375 7.785624999999996  2.3364062499999996 7.299062500000005  2.934531250000001 7.299062500000005  L 11.123828125000003 7.299062500000005  C 11.7221875 7.299062500000005  12.208750000000002 7.785859375000001  12.208750000000002 8.383984374999997  L 12.208750000000002 10.728906249999994  Z " stroke-width="0" stroke-dasharray="0" stroke="rgba(255, 255, 255, 0)" fill="none" transform="matrix(1 0 0 1 2192 590 )" class="stroke" mask="url(#Clip19133)" />
    <path d="M 14.851796874999998 9.375859375000005  C 14.8515625 10.285937500000003  14.692421875 10.914531249999996  14.335703125000002 11.414453124999994  C 14.019765624999998 11.857187499999995  13.530390624999999 12.214375000000004  12.851640624999998 12.495859374999995  C 13.045468749999998 11.935000000000002  13.146718749999998 11.339921875000002  13.146718749999998 10.729140625  L 13.146718749999998 8.852265625000001  C 13.759374999999999 8.841015624999997  14.509843749999998 8.830703125  14.754999999999999 9.071171875000005  C 14.796484374999999 9.111953125  14.851796874999998 9.187890624999994  14.851796874999998 9.375859375000005  Z " stroke-width="0" stroke-dasharray="0" stroke="rgba(255, 255, 255, 0)" fill="none" transform="matrix(1 0 0 1 2192 590 )" class="stroke" mask="url(#Clip19133)" />
    <path d="M 3.0636718750000007 5.269843749999993  C 3.1550781249999993 5.361484375000003  3.2750781250000003 5.407421874999997  3.3950781249999995 5.407421874999997  C 3.5150781250000005 5.407421874999997  3.6350781249999997 5.361718749999994  3.726484375 5.270078124999998  L 4.307734374999999 4.688828125000001  C 4.789140625 4.207421874999994  4.808359375 3.4349218750000006  4.351328125 2.9303124999999994  C 4.194987686806879 2.7582981435841845  4.194076611284508 2.4959083931411925  4.34921875 2.3228124999999977  L 4.869062500000002 1.7401562499999983  C 5.0413281250000015 1.5470312500000034  5.024453125000001 1.2507812500000028  4.831328125000001 1.0782812500000034  C 4.638203125 0.9060156249999949  4.341953125 0.9228906249999937  4.169453125 1.1160156250000028  L 3.6496093750000007 1.6986718750000023  C 3.174765625000001 2.230703125000005  3.177578125 3.0308593750000057  3.65640625 3.559375000000003  C 3.7775781250000016 3.6932031249999966  3.772421875000001 3.8980468750000057  3.6449218750000014 4.025781249999994  L 3.0636718750000007 4.607031250000006  C 2.880625 4.790078124999994  2.880625 5.0867968750000045  3.0636718750000007 5.269843749999993  Z " stroke-width="0" stroke-dasharray="0" stroke="rgba(255, 255, 255, 0)" fill="none" transform="matrix(1 0 0 1 2192 590 )" class="stroke" mask="url(#Clip19133)" />
    <path d="M 6.319609374999999 5.269843749999993  C 6.411015624999999 5.361484375000003  6.531015624999998 5.407421874999997  6.651015624999999 5.407421874999997  C 6.771015625 5.407421874999997  6.891015625000001 5.361718749999994  6.982421875 5.270078124999998  L 7.563671874999999 4.688828125000001  C 8.045078124999998 4.207421874999994  8.064296875 3.4349218750000006  7.607265625 2.9303124999999994  C 7.450925186806879 2.7582981435841845  7.450014111284506 2.4959083931411925  7.6051562499999985 2.3228124999999977  L 8.125 1.7401562499999983  C 8.297265625000001 1.5470312500000034  8.280390624999999 1.2507812500000028  8.087265625 1.0782812500000034  C 7.894140624999999 0.9060156249999949  7.597890625 0.9226562500000028  7.425390624999999 1.1160156250000028  L 6.905546874999999 1.6986718750000023  C 6.430703124999999 2.230703125000005  6.433515625 3.0308593750000057  6.91234375 3.559375000000003  C 7.033515625 3.6932031249999966  7.028359375000001 3.8980468750000057  6.900859375 4.025781249999994  L 6.319609374999999 4.607031250000006  C 6.1365625 4.790078124999994  6.1365625 5.0867968750000045  6.319609374999999 5.269843749999993  Z " stroke-width="0" stroke-dasharray="0" stroke="rgba(255, 255, 255, 0)" fill="none" transform="matrix(1 0 0 1 2192 590 )" class="stroke" mask="url(#Clip19133)" />
    <path d="M 9.575546874999997 5.269843749999993  C 9.666953124999996 5.361484375000003  9.786953124999997 5.407421874999997  9.906953125 5.407421874999997  C 10.026953124999999 5.407421874999997  10.146953125 5.361718749999994  10.238359374999998 5.270078124999998  L 10.819609374999999 4.688828125000001  C 11.301015624999998 4.207421874999994  11.320234374999998 3.4349218750000006  10.863203124999998 2.9303124999999994  C 10.706862686806875 2.7582981435841845  10.705951611284506 2.4959083931411925  10.861093749999998 2.3228124999999977  L 11.380937499999995 1.7401562499999983  C 11.553203124999996 1.5470312500000034  11.536328124999997 1.2507812500000028  11.343203124999995 1.0782812500000034  C 11.150078124999997 0.9060156249999949  10.853828124999996 0.9226562500000028  10.681328124999997 1.1160156250000028  L 10.161484374999997 1.6986718750000023  C 9.686640624999997 2.230703125000005  9.689453124999996 3.0308593750000057  10.168281249999996 3.559375000000003  C 10.289453124999994 3.6932031249999966  10.284296874999997 3.8980468750000057  10.156796874999996 4.025781249999994  L 9.575546874999997 4.607031250000006  C 9.392499999999998 4.790078124999994  9.392499999999998 5.0867968750000045  9.575546874999997 5.269843749999993  Z " stroke-width="0" stroke-dasharray="0" stroke="rgba(255, 255, 255, 0)" fill="none" transform="matrix(1 0 0 1 2192 590 )" class="stroke" mask="url(#Clip19133)" />
  </g>
</svg>