<?xml version="1.0" encoding="utf-8"?>
<svg version="1.1" xmlns:xlink="http://www.w3.org/1999/xlink" width="3px" height="2px" xmlns="http://www.w3.org/2000/svg">
  <defs>
    <pattern id="BGPattern" patternUnits="userSpaceOnUse" alignment="0 0" imageRepeat="None" />
    <mask fill="white" id="Clip2659">
      <path d="M 2.5833984374999996 1.0361328125  C 2.5833984374999996 0.619140625  2.2451171874999982 0.2810546874999993  1.8283203125000007 0.2810546874999993  L 1.3544921875 0.2810546874999993  C 0.9376953125000007 0.2810546874999993  0.5994140625000011 0.6193359375000007  0.5994140625000011 1.0361328125  C 0.5994140625000011 1.4529296874999993  0.9376953125000025 1.7912109374999972  1.3544921875 1.7912109374999972  L 1.8283203125000007 1.7912109374999972  C 2.2451171875 1.7912109374999972  2.5833984374999996 1.4529296874999957  2.5833984374999996 1.0361328125  Z " fill-rule="evenodd" />
    </mask>
  </defs>
  <g transform="matrix(1 0 0 1 -32 -54 )">
    <path d="M 2.5833984374999996 1.0361328125  C 2.5833984374999996 0.619140625  2.2451171874999982 0.2810546874999993  1.8283203125000007 0.2810546874999993  L 1.3544921875 0.2810546874999993  C 0.9376953125000007 0.2810546874999993  0.5994140625000011 0.6193359375000007  0.5994140625000011 1.0361328125  C 0.5994140625000011 1.4529296874999993  0.9376953125000025 1.7912109374999972  1.3544921875 1.7912109374999972  L 1.8283203125000007 1.7912109374999972  C 2.2451171875 1.7912109374999972  2.5833984374999996 1.4529296874999957  2.5833984374999996 1.0361328125  Z " fill-rule="nonzero" fill="rgba(255, 255, 255, 1)" stroke="none" transform="matrix(1 0 0 1 32 54 )" class="fill" />
    <path d="M 2.5833984374999996 1.0361328125  C 2.5833984374999996 0.619140625  2.2451171874999982 0.2810546874999993  1.8283203125000007 0.2810546874999993  L 1.3544921875 0.2810546874999993  C 0.9376953125000007 0.2810546874999993  0.5994140625000011 0.6193359375000007  0.5994140625000011 1.0361328125  C 0.5994140625000011 1.4529296874999993  0.9376953125000025 1.7912109374999972  1.3544921875 1.7912109374999972  L 1.8283203125000007 1.7912109374999972  C 2.2451171875 1.7912109374999972  2.5833984374999996 1.4529296874999957  2.5833984374999996 1.0361328125  Z " stroke-width="0" stroke-dasharray="0" stroke="rgba(255, 255, 255, 0)" fill="none" transform="matrix(1 0 0 1 32 54 )" class="stroke" mask="url(#Clip2659)" />
  </g>
</svg>