<?xml version="1.0" encoding="utf-8"?>
<svg version="1.1" xmlns:xlink="http://www.w3.org/1999/xlink" width="69px" height="17px" xmlns="http://www.w3.org/2000/svg">
  <defs>
    <pattern id="BGPattern" patternUnits="userSpaceOnUse" alignment="0 0" imageRepeat="None" />
    <mask fill="white" id="Clip4922">
      <path d="M 1.2732799039999918 15.944319040000025  L 2.7939199040000062 15.944319040000025  C 3.9171197119999874 15.944319040000025  4.487359615999993 15.374080000000035  4.487359615999993 14.268159040000029  L 4.487359615999993 9.429760000000044  C 4.919359904000004 9.22240096000003  5.351359712000004 8.997760000000042  5.800639615999984 8.773120000000034  L 5.800639615999984 7.096960000000024  C 5.368639807999983 7.33888096000004  4.936639999999983 7.5635200000000395  4.487359615999993 7.770880000000034  L 4.487359615999993 4.902400480000026  L 6.094399903999999 4.902400480000026  L 6.094399903999999 3.3299200000000297  L 4.487359615999993 3.3299200000000297  L 4.487359615999993 0.20224057600003675  L 2.8284799040000053 0.20224057600003675  L 2.8284799040000053 3.3299200000000297  L 0.8758399423999776 3.3299200000000297  L 0.8758399423999776 4.902400480000026  L 2.8284799040000053 4.902400480000026  L 2.8284799040000053 8.462080960000023  C 2.102719903999997 8.721280000000036  1.3769599999999969 8.94592000000003  0.633919961599986 9.118720960000047  L 1.0313599039999986 10.777600000000035  C 1.6361599039999817 10.570240000000027  2.2409599039999932 10.362880000000033  2.8284799040000053 10.138240000000039  L 2.8284799040000053 13.836160000000035  C 2.8284799040000053 14.233600000000038  2.621119808000003 14.440959040000038  2.2236798079999858 14.440959040000038  C 1.8089599039999769 14.440959040000038  1.3596799039999894 14.406400000000033  0.9103999520000059 14.35455904000004  L 1.2732799039999918 15.944319040000025  Z M 15.045439999999985 0.6860802880000278  L 7.269439807999987 0.6860802880000278  L 7.269439807999987 6.924160000000029  L 15.045439999999985 6.924160000000029  L 15.045439999999985 0.6860802880000278  Z M 13.438399039999979 4.4185607680000345  L 13.438399039999979 5.59360076800003  L 8.859199520000004 5.59360076800003  L 8.859199520000004 4.4185607680000345  L 13.438399039999979 4.4185607680000345  Z M 13.438399039999979 3.1744002880000295  L 8.859199520000004 3.1744002880000295  L 8.859199520000004 2.016640960000032  L 13.438399039999979 2.016640960000032  L 13.438399039999979 3.1744002880000295  Z M 16.08223903999999 7.822720000000032  L 6.14623980799999 7.822720000000032  L 6.14623980799999 9.291520000000034  L 10.36255903999998 9.291520000000034  L 10.36255903999998 13.801599040000028  L 10.207040000000006 13.749760000000038  C 9.53311923199999 13.473280000000031  8.94559971199999 12.816640000000035  8.427199712000004 11.81439904000004  C 8.548159135999981 11.244160000000022  8.634559327999995 10.656640000000039  8.66911952000001 10.034560000000042  L 7.217599519999993 9.861760960000026  C 7.079359904 11.762560000000036  6.388159615999996 13.473280000000031  5.143999616000002 15.028480960000039  L 6.370879519999988 16.08256000000003  C 7.010239904000002 15.270400000000024  7.52863980799998 14.389120960000028  7.926079423999994 13.43872096000004  C 8.40992 14.233600000000038  8.962879327999985 14.786560000000037  9.567679040000002 15.097599040000034  C 10.414399039999978 15.51232096000004  11.986879999999985 15.71968000000004  14.285119039999984 15.736960000000039  C 14.838079039999997 15.75423904000003  15.442878079999986 15.771519040000044  16.116799999999984 15.771519040000044  L 16.56607808000001 14.181760960000034  C 15.909438080000001 14.25087904000003  15.114559039999989 14.285440960000031  14.181439039999987 14.285440960000031  C 13.317439999999976 14.285440960000031  12.574399039999975 14.233600000000038  11.935039039999992 14.164479040000032  L 11.935039039999992 12.332800000000049  L 15.339199039999984 12.332800000000049  L 15.339199039999984 10.881280000000046  L 11.935039039999992 10.881280000000046  L 11.935039039999992 9.291520000000034  L 16.08223903999999 9.291520000000034  L 16.08223903999999 7.822720000000032  Z M 32.56736000000001 10.466560000000044  L 32.56736000000001 0.7379201920000327  L 24.584000000000003 0.7379201920000327  L 24.584000000000003 10.466560000000044  L 26.208319039999992 10.466560000000044  L 26.208319039999992 2.3104006720000285  L 30.908479040000003 2.3104006720000285  L 30.908479040000003 10.466560000000044  L 32.56736000000001 10.466560000000044  Z M 30.251839039999993 15.823360000000037  L 32.04895903999997 15.823360000000037  C 32.636481919999994 15.823360000000037  33.06847904 15.685120960000035  33.36223903999999 15.425920000000033  C 33.65599807999999 15.132160960000036  33.86336191999999 14.25087904000003  33.98432095999999 12.78208096000003  L 32.463678079999994 12.280959040000042  C 32.411840960000006 13.265920000000037  32.32544095999998 13.853440000000035  32.221759039999995 14.060800000000043  C 32.118080959999986 14.233600000000038  31.962559040000002 14.320000000000036  31.755199040000008 14.320000000000036  L 30.73567903999998 14.320000000000036  C 30.424639040000017 14.320000000000036  30.286399999999986 14.147200000000026  30.286399999999986 13.801599040000028  L 30.286399999999986 10.397440000000032  L 28.93856095999999 10.397440000000032  C 29.128639039999996 9.550720000000027  29.24959808 8.600320000000039  29.284159999999986 7.528960960000035  L 29.284159999999986 3.399040480000039  L 27.711680959999995 3.399040480000039  L 27.711680959999995 7.528960960000035  C 27.64255904000001 9.39520096000004  27.279679999999985 10.915840000000046  26.605760959999998 12.090879040000033  C 25.931840959999985 13.162240960000048  24.65312 14.078079040000034  22.75232095999999 14.803840000000037  L 23.650879040000007 16.18624000000004  C 25.586239999999975 15.477759040000024  26.98591999999999 14.47552096000004  27.832639999999998 13.162240960000048  C 28.14367999999999 12.661119040000031  28.42016000000001 12.073600000000027  28.64479903999998 11.416960000000032  L 28.64479903999998 14.147200000000026  C 28.64479903999998 15.253120000000038  29.18047999999999 15.823360000000037  30.251839039999993 15.823360000000037  Z M 20.12576095999998 6.405760960000023  L 18.27679999999998 6.405760960000023  L 18.27679999999998 7.995520960000036  L 20.12576095999998 7.995520960000036  L 20.12576095999998 11.91808096000004  C 19.400000000000006 12.108159040000032  18.674239040000003 12.263680000000036  17.931199039999996 12.40192096000004  L 18.32864096 13.974399040000037  C 20.281279040000015 13.49056000000003  22.130239999999986 12.903040000000033  23.85823904 12.211840960000032  L 23.85823904 10.639360000000039  C 23.18431903999999 10.915840000000046  22.493120000000005 11.175040000000038  21.784639040000002 11.416960000000032  L 21.784639040000002 7.995520960000036  L 23.58175903999998 7.995520960000036  L 23.58175903999998 6.405760960000023  L 21.784639040000002 6.405760960000023  L 21.784639040000002 2.742400480000029  L 23.823679999999996 2.742400480000029  L 23.823679999999996 1.1699209600000273  L 18.052160960000005 1.1699209600000273  L 18.052160960000005 2.742400480000029  L 20.12576095999998 2.742400480000029  L 20.12576095999998 6.405760960000023  Z M 44.02400191999999 0.21952028800002665  L 42.365120959999985 0.21952028800002665  L 42.365120959999985 2.6560003840000377  L 36 2.6560003840000377  L 36 12.678400960000033  L 38.42528096000001 12.678400960000033  L 38.42528096000001 11.641599040000031  L 42.365120959999985 11.641599040000031  L 42.365120959999985 16.01344000000003  L 44.02400191999999 16.01344000000003  L 44.02400191999999 11.641599040000031  L 47.894719039999984 11.641599040000031  L 47.894719039999984 12.557440000000042  L 49.501759039999996 12.557440000000042  L 49.501759039999996 2.6560003840000377  L 44.02400191999999 2.6560003840000377  L 44.02400191999999 0.21952028800002665  Z M 42.365120959999985 10.08640000000004  L 38.42528096000001 10.08640000000004  L 38.42528096000001 7.857280000000031  L 42.365120959999985 7.857280000000031  L 42.365120959999985 10.08640000000004  Z M 47.894719039999984 10.08640000000004  L 44.02400191999999 10.08640000000004  L 44.02400191999999 7.857280000000031  L 47.894719039999984 7.857280000000031  L 47.894719039999984 10.08640000000004  Z M 42.365120959999985 6.38848000000003  L 38.42528096000001 6.38848000000003  L 38.42528096000001 4.193920576000025  L 42.365120959999985 4.193920576000025  L 42.365120959999985 6.38848000000003  Z M 47.894719039999984 6.38848000000003  L 44.02400191999999 6.38848000000003  L 44.02400191999999 4.193920576000025  L 47.894719039999984 4.193920576000025  L 47.894719039999984 6.38848000000003  Z M 63.792317119999986 0.15040067200003193  L 62.21983616 0.15040067200003193  L 62.21983616 1.1526403840000228  L 58.17631807999999 1.1526403840000228  L 58.17631807999999 2.483200096000033  L 62.21983616 2.483200096000033  L 62.21983616 3.3299200000000297  L 58.90207903999999 3.3299200000000297  L 58.90207903999999 4.625920384000025  L 62.21983616 4.625920384000025  L 62.21983616 5.489920000000026  L 57.69247999999999 5.489920000000026  L 57.69247999999999 7  L 68.37152096 7  L 68.37152096 5.489920000000026  L 63.792317119999986 5.489920000000026  L 63.792317119999986 4.625920384000025  L 67.33471904000001 4.625920384000025  L 67.33471904000001 3.3299200000000297  L 63.792317119999986 3.3299200000000297  L 63.792317119999986 2.483200096000033  L 67.93951615999998 2.483200096000033  L 67.93951615999998 1.1526403840000228  L 63.792317119999986 1.1526403840000228  L 63.792317119999986 0.15040067200003193  Z M 60.47455904 12.177280000000039  L 60.47455904 11.209600000000037  L 65.60671616000002 11.209600000000037  L 65.60671616000002 12.177280000000039  L 60.47455904 12.177280000000039  Z M 65.60671616000002 8.980480000000043  L 65.60671616000002 9.965440960000038  L 60.47455904 9.965440960000038  L 60.47455904 8.980480000000043  L 65.60671616000002 8.980480000000043  Z M 60.47455904 16.09984000000003  L 60.47455904 13.421439040000024  L 65.60671616000002 13.421439040000024  L 65.60671616000002 14.060800000000043  C 65.60671616000002 14.440959040000038  65.41663807999998 14.631039040000033  65.07103712 14.631039040000033  L 63.723198079999996 14.544639040000035  L 64.10336192 15.996160000000032  L 65.53759808000001 15.996160000000032  C 66.62624 15.996160000000032  67.17919711999997 15.460480000000032  67.17919711999997 14.389120960000028  L 67.17919711999997 7.649920000000023  L 58.91935999999998 7.649920000000023  L 58.91935999999998 16.09984000000003  L 60.47455904 16.09984000000003  Z M 57.62335808 2.8288006720000283  C 56.863038079999995 1.9820806720000235  55.91263999999998 1.1353606720000329  54.806719999999984 0.288640768000036  L 53.648959039999994 1.4118408640000268  C 54.87583903999999 2.3104006720000285  55.82624000000001 3.1744002880000295  56.500159999999994 3.9692803840000295  L 57.62335808 2.8288006720000283  Z M 56.3792 5.299840096000025  L 52.456638080000005 5.299840096000025  L 52.456638080000005 6.872320960000039  L 54.806719999999984 6.872320960000039  L 54.806719999999984 13.196800000000039  C 54.806719999999984 13.559680000000029  54.65120095999998 13.870720000000034  54.374719039999974 14.112640000000027  L 54.996801919999996 15.598720960000037  C 56.120000000000005 14.803840000000037  57.19136095999997 13.88799904000004  58.19359999999997 12.85119904000004  L 57.76159903999999 11.12320000000004  C 57.277760959999995 11.624319040000032  56.82847903999999 12.090879040000033  56.3792 12.522880000000029  L 56.3792 5.299840096000025  Z " fill-rule="evenodd" />
    </mask>
  </defs>
  <g transform="matrix(1 0 0 1 -1900 -106 )">
    <path d="M 1.2732799039999918 15.944319040000025  L 2.7939199040000062 15.944319040000025  C 3.9171197119999874 15.944319040000025  4.487359615999993 15.374080000000035  4.487359615999993 14.268159040000029  L 4.487359615999993 9.429760000000044  C 4.919359904000004 9.22240096000003  5.351359712000004 8.997760000000042  5.800639615999984 8.773120000000034  L 5.800639615999984 7.096960000000024  C 5.368639807999983 7.33888096000004  4.936639999999983 7.5635200000000395  4.487359615999993 7.770880000000034  L 4.487359615999993 4.902400480000026  L 6.094399903999999 4.902400480000026  L 6.094399903999999 3.3299200000000297  L 4.487359615999993 3.3299200000000297  L 4.487359615999993 0.20224057600003675  L 2.8284799040000053 0.20224057600003675  L 2.8284799040000053 3.3299200000000297  L 0.8758399423999776 3.3299200000000297  L 0.8758399423999776 4.902400480000026  L 2.8284799040000053 4.902400480000026  L 2.8284799040000053 8.462080960000023  C 2.102719903999997 8.721280000000036  1.3769599999999969 8.94592000000003  0.633919961599986 9.118720960000047  L 1.0313599039999986 10.777600000000035  C 1.6361599039999817 10.570240000000027  2.2409599039999932 10.362880000000033  2.8284799040000053 10.138240000000039  L 2.8284799040000053 13.836160000000035  C 2.8284799040000053 14.233600000000038  2.621119808000003 14.440959040000038  2.2236798079999858 14.440959040000038  C 1.8089599039999769 14.440959040000038  1.3596799039999894 14.406400000000033  0.9103999520000059 14.35455904000004  L 1.2732799039999918 15.944319040000025  Z M 15.045439999999985 0.6860802880000278  L 7.269439807999987 0.6860802880000278  L 7.269439807999987 6.924160000000029  L 15.045439999999985 6.924160000000029  L 15.045439999999985 0.6860802880000278  Z M 13.438399039999979 4.4185607680000345  L 13.438399039999979 5.59360076800003  L 8.859199520000004 5.59360076800003  L 8.859199520000004 4.4185607680000345  L 13.438399039999979 4.4185607680000345  Z M 13.438399039999979 3.1744002880000295  L 8.859199520000004 3.1744002880000295  L 8.859199520000004 2.016640960000032  L 13.438399039999979 2.016640960000032  L 13.438399039999979 3.1744002880000295  Z M 16.08223903999999 7.822720000000032  L 6.14623980799999 7.822720000000032  L 6.14623980799999 9.291520000000034  L 10.36255903999998 9.291520000000034  L 10.36255903999998 13.801599040000028  L 10.207040000000006 13.749760000000038  C 9.53311923199999 13.473280000000031  8.94559971199999 12.816640000000035  8.427199712000004 11.81439904000004  C 8.548159135999981 11.244160000000022  8.634559327999995 10.656640000000039  8.66911952000001 10.034560000000042  L 7.217599519999993 9.861760960000026  C 7.079359904 11.762560000000036  6.388159615999996 13.473280000000031  5.143999616000002 15.028480960000039  L 6.370879519999988 16.08256000000003  C 7.010239904000002 15.270400000000024  7.52863980799998 14.389120960000028  7.926079423999994 13.43872096000004  C 8.40992 14.233600000000038  8.962879327999985 14.786560000000037  9.567679040000002 15.097599040000034  C 10.414399039999978 15.51232096000004  11.986879999999985 15.71968000000004  14.285119039999984 15.736960000000039  C 14.838079039999997 15.75423904000003  15.442878079999986 15.771519040000044  16.116799999999984 15.771519040000044  L 16.56607808000001 14.181760960000034  C 15.909438080000001 14.25087904000003  15.114559039999989 14.285440960000031  14.181439039999987 14.285440960000031  C 13.317439999999976 14.285440960000031  12.574399039999975 14.233600000000038  11.935039039999992 14.164479040000032  L 11.935039039999992 12.332800000000049  L 15.339199039999984 12.332800000000049  L 15.339199039999984 10.881280000000046  L 11.935039039999992 10.881280000000046  L 11.935039039999992 9.291520000000034  L 16.08223903999999 9.291520000000034  L 16.08223903999999 7.822720000000032  Z M 32.56736000000001 10.466560000000044  L 32.56736000000001 0.7379201920000327  L 24.584000000000003 0.7379201920000327  L 24.584000000000003 10.466560000000044  L 26.208319039999992 10.466560000000044  L 26.208319039999992 2.3104006720000285  L 30.908479040000003 2.3104006720000285  L 30.908479040000003 10.466560000000044  L 32.56736000000001 10.466560000000044  Z M 30.251839039999993 15.823360000000037  L 32.04895903999997 15.823360000000037  C 32.636481919999994 15.823360000000037  33.06847904 15.685120960000035  33.36223903999999 15.425920000000033  C 33.65599807999999 15.132160960000036  33.86336191999999 14.25087904000003  33.98432095999999 12.78208096000003  L 32.463678079999994 12.280959040000042  C 32.411840960000006 13.265920000000037  32.32544095999998 13.853440000000035  32.221759039999995 14.060800000000043  C 32.118080959999986 14.233600000000038  31.962559040000002 14.320000000000036  31.755199040000008 14.320000000000036  L 30.73567903999998 14.320000000000036  C 30.424639040000017 14.320000000000036  30.286399999999986 14.147200000000026  30.286399999999986 13.801599040000028  L 30.286399999999986 10.397440000000032  L 28.93856095999999 10.397440000000032  C 29.128639039999996 9.550720000000027  29.24959808 8.600320000000039  29.284159999999986 7.528960960000035  L 29.284159999999986 3.399040480000039  L 27.711680959999995 3.399040480000039  L 27.711680959999995 7.528960960000035  C 27.64255904000001 9.39520096000004  27.279679999999985 10.915840000000046  26.605760959999998 12.090879040000033  C 25.931840959999985 13.162240960000048  24.65312 14.078079040000034  22.75232095999999 14.803840000000037  L 23.650879040000007 16.18624000000004  C 25.586239999999975 15.477759040000024  26.98591999999999 14.47552096000004  27.832639999999998 13.162240960000048  C 28.14367999999999 12.661119040000031  28.42016000000001 12.073600000000027  28.64479903999998 11.416960000000032  L 28.64479903999998 14.147200000000026  C 28.64479903999998 15.253120000000038  29.18047999999999 15.823360000000037  30.251839039999993 15.823360000000037  Z M 20.12576095999998 6.405760960000023  L 18.27679999999998 6.405760960000023  L 18.27679999999998 7.995520960000036  L 20.12576095999998 7.995520960000036  L 20.12576095999998 11.91808096000004  C 19.400000000000006 12.108159040000032  18.674239040000003 12.263680000000036  17.931199039999996 12.40192096000004  L 18.32864096 13.974399040000037  C 20.281279040000015 13.49056000000003  22.130239999999986 12.903040000000033  23.85823904 12.211840960000032  L 23.85823904 10.639360000000039  C 23.18431903999999 10.915840000000046  22.493120000000005 11.175040000000038  21.784639040000002 11.416960000000032  L 21.784639040000002 7.995520960000036  L 23.58175903999998 7.995520960000036  L 23.58175903999998 6.405760960000023  L 21.784639040000002 6.405760960000023  L 21.784639040000002 2.742400480000029  L 23.823679999999996 2.742400480000029  L 23.823679999999996 1.1699209600000273  L 18.052160960000005 1.1699209600000273  L 18.052160960000005 2.742400480000029  L 20.12576095999998 2.742400480000029  L 20.12576095999998 6.405760960000023  Z M 44.02400191999999 0.21952028800002665  L 42.365120959999985 0.21952028800002665  L 42.365120959999985 2.6560003840000377  L 36 2.6560003840000377  L 36 12.678400960000033  L 38.42528096000001 12.678400960000033  L 38.42528096000001 11.641599040000031  L 42.365120959999985 11.641599040000031  L 42.365120959999985 16.01344000000003  L 44.02400191999999 16.01344000000003  L 44.02400191999999 11.641599040000031  L 47.894719039999984 11.641599040000031  L 47.894719039999984 12.557440000000042  L 49.501759039999996 12.557440000000042  L 49.501759039999996 2.6560003840000377  L 44.02400191999999 2.6560003840000377  L 44.02400191999999 0.21952028800002665  Z M 42.365120959999985 10.08640000000004  L 38.42528096000001 10.08640000000004  L 38.42528096000001 7.857280000000031  L 42.365120959999985 7.857280000000031  L 42.365120959999985 10.08640000000004  Z M 47.894719039999984 10.08640000000004  L 44.02400191999999 10.08640000000004  L 44.02400191999999 7.857280000000031  L 47.894719039999984 7.857280000000031  L 47.894719039999984 10.08640000000004  Z M 42.365120959999985 6.38848000000003  L 38.42528096000001 6.38848000000003  L 38.42528096000001 4.193920576000025  L 42.365120959999985 4.193920576000025  L 42.365120959999985 6.38848000000003  Z M 47.894719039999984 6.38848000000003  L 44.02400191999999 6.38848000000003  L 44.02400191999999 4.193920576000025  L 47.894719039999984 4.193920576000025  L 47.894719039999984 6.38848000000003  Z M 63.792317119999986 0.15040067200003193  L 62.21983616 0.15040067200003193  L 62.21983616 1.1526403840000228  L 58.17631807999999 1.1526403840000228  L 58.17631807999999 2.483200096000033  L 62.21983616 2.483200096000033  L 62.21983616 3.3299200000000297  L 58.90207903999999 3.3299200000000297  L 58.90207903999999 4.625920384000025  L 62.21983616 4.625920384000025  L 62.21983616 5.489920000000026  L 57.69247999999999 5.489920000000026  L 57.69247999999999 7  L 68.37152096 7  L 68.37152096 5.489920000000026  L 63.792317119999986 5.489920000000026  L 63.792317119999986 4.625920384000025  L 67.33471904000001 4.625920384000025  L 67.33471904000001 3.3299200000000297  L 63.792317119999986 3.3299200000000297  L 63.792317119999986 2.483200096000033  L 67.93951615999998 2.483200096000033  L 67.93951615999998 1.1526403840000228  L 63.792317119999986 1.1526403840000228  L 63.792317119999986 0.15040067200003193  Z M 60.47455904 12.177280000000039  L 60.47455904 11.209600000000037  L 65.60671616000002 11.209600000000037  L 65.60671616000002 12.177280000000039  L 60.47455904 12.177280000000039  Z M 65.60671616000002 8.980480000000043  L 65.60671616000002 9.965440960000038  L 60.47455904 9.965440960000038  L 60.47455904 8.980480000000043  L 65.60671616000002 8.980480000000043  Z M 60.47455904 16.09984000000003  L 60.47455904 13.421439040000024  L 65.60671616000002 13.421439040000024  L 65.60671616000002 14.060800000000043  C 65.60671616000002 14.440959040000038  65.41663807999998 14.631039040000033  65.07103712 14.631039040000033  L 63.723198079999996 14.544639040000035  L 64.10336192 15.996160000000032  L 65.53759808000001 15.996160000000032  C 66.62624 15.996160000000032  67.17919711999997 15.460480000000032  67.17919711999997 14.389120960000028  L 67.17919711999997 7.649920000000023  L 58.91935999999998 7.649920000000023  L 58.91935999999998 16.09984000000003  L 60.47455904 16.09984000000003  Z M 57.62335808 2.8288006720000283  C 56.863038079999995 1.9820806720000235  55.91263999999998 1.1353606720000329  54.806719999999984 0.288640768000036  L 53.648959039999994 1.4118408640000268  C 54.87583903999999 2.3104006720000285  55.82624000000001 3.1744002880000295  56.500159999999994 3.9692803840000295  L 57.62335808 2.8288006720000283  Z M 56.3792 5.299840096000025  L 52.456638080000005 5.299840096000025  L 52.456638080000005 6.872320960000039  L 54.806719999999984 6.872320960000039  L 54.806719999999984 13.196800000000039  C 54.806719999999984 13.559680000000029  54.65120095999998 13.870720000000034  54.374719039999974 14.112640000000027  L 54.996801919999996 15.598720960000037  C 56.120000000000005 14.803840000000037  57.19136095999997 13.88799904000004  58.19359999999997 12.85119904000004  L 57.76159903999999 11.12320000000004  C 57.277760959999995 11.624319040000032  56.82847903999999 12.090879040000033  56.3792 12.522880000000029  L 56.3792 5.299840096000025  Z " fill-rule="nonzero" fill="rgba(51, 51, 51, 1)" stroke="none" transform="matrix(1 0 0 1 1900 106 )" class="fill" />
    <path d="M 1.2732799039999918 15.944319040000025  L 2.7939199040000062 15.944319040000025  C 3.9171197119999874 15.944319040000025  4.487359615999993 15.374080000000035  4.487359615999993 14.268159040000029  L 4.487359615999993 9.429760000000044  C 4.919359904000004 9.22240096000003  5.351359712000004 8.997760000000042  5.800639615999984 8.773120000000034  L 5.800639615999984 7.096960000000024  C 5.368639807999983 7.33888096000004  4.936639999999983 7.5635200000000395  4.487359615999993 7.770880000000034  L 4.487359615999993 4.902400480000026  L 6.094399903999999 4.902400480000026  L 6.094399903999999 3.3299200000000297  L 4.487359615999993 3.3299200000000297  L 4.487359615999993 0.20224057600003675  L 2.8284799040000053 0.20224057600003675  L 2.8284799040000053 3.3299200000000297  L 0.8758399423999776 3.3299200000000297  L 0.8758399423999776 4.902400480000026  L 2.8284799040000053 4.902400480000026  L 2.8284799040000053 8.462080960000023  C 2.102719903999997 8.721280000000036  1.3769599999999969 8.94592000000003  0.633919961599986 9.118720960000047  L 1.0313599039999986 10.777600000000035  C 1.6361599039999817 10.570240000000027  2.2409599039999932 10.362880000000033  2.8284799040000053 10.138240000000039  L 2.8284799040000053 13.836160000000035  C 2.8284799040000053 14.233600000000038  2.621119808000003 14.440959040000038  2.2236798079999858 14.440959040000038  C 1.8089599039999769 14.440959040000038  1.3596799039999894 14.406400000000033  0.9103999520000059 14.35455904000004  L 1.2732799039999918 15.944319040000025  Z " stroke-width="0" stroke-dasharray="0" stroke="rgba(255, 255, 255, 0)" fill="none" transform="matrix(1 0 0 1 1900 106 )" class="stroke" mask="url(#Clip4922)" />
    <path d="M 15.045439999999985 0.6860802880000278  L 7.269439807999987 0.6860802880000278  L 7.269439807999987 6.924160000000029  L 15.045439999999985 6.924160000000029  L 15.045439999999985 0.6860802880000278  Z " stroke-width="0" stroke-dasharray="0" stroke="rgba(255, 255, 255, 0)" fill="none" transform="matrix(1 0 0 1 1900 106 )" class="stroke" mask="url(#Clip4922)" />
    <path d="M 13.438399039999979 4.4185607680000345  L 13.438399039999979 5.59360076800003  L 8.859199520000004 5.59360076800003  L 8.859199520000004 4.4185607680000345  L 13.438399039999979 4.4185607680000345  Z " stroke-width="0" stroke-dasharray="0" stroke="rgba(255, 255, 255, 0)" fill="none" transform="matrix(1 0 0 1 1900 106 )" class="stroke" mask="url(#Clip4922)" />
    <path d="M 13.438399039999979 3.1744002880000295  L 8.859199520000004 3.1744002880000295  L 8.859199520000004 2.016640960000032  L 13.438399039999979 2.016640960000032  L 13.438399039999979 3.1744002880000295  Z " stroke-width="0" stroke-dasharray="0" stroke="rgba(255, 255, 255, 0)" fill="none" transform="matrix(1 0 0 1 1900 106 )" class="stroke" mask="url(#Clip4922)" />
    <path d="M 16.08223903999999 7.822720000000032  L 6.14623980799999 7.822720000000032  L 6.14623980799999 9.291520000000034  L 10.36255903999998 9.291520000000034  L 10.36255903999998 13.801599040000028  L 10.207040000000006 13.749760000000038  C 9.53311923199999 13.473280000000031  8.94559971199999 12.816640000000035  8.427199712000004 11.81439904000004  C 8.548159135999981 11.244160000000022  8.634559327999995 10.656640000000039  8.66911952000001 10.034560000000042  L 7.217599519999993 9.861760960000026  C 7.079359904 11.762560000000036  6.388159615999996 13.473280000000031  5.143999616000002 15.028480960000039  L 6.370879519999988 16.08256000000003  C 7.010239904000002 15.270400000000024  7.52863980799998 14.389120960000028  7.926079423999994 13.43872096000004  C 8.40992 14.233600000000038  8.962879327999985 14.786560000000037  9.567679040000002 15.097599040000034  C 10.414399039999978 15.51232096000004  11.986879999999985 15.71968000000004  14.285119039999984 15.736960000000039  C 14.838079039999997 15.75423904000003  15.442878079999986 15.771519040000044  16.116799999999984 15.771519040000044  L 16.56607808000001 14.181760960000034  C 15.909438080000001 14.25087904000003  15.114559039999989 14.285440960000031  14.181439039999987 14.285440960000031  C 13.317439999999976 14.285440960000031  12.574399039999975 14.233600000000038  11.935039039999992 14.164479040000032  L 11.935039039999992 12.332800000000049  L 15.339199039999984 12.332800000000049  L 15.339199039999984 10.881280000000046  L 11.935039039999992 10.881280000000046  L 11.935039039999992 9.291520000000034  L 16.08223903999999 9.291520000000034  L 16.08223903999999 7.822720000000032  Z " stroke-width="0" stroke-dasharray="0" stroke="rgba(255, 255, 255, 0)" fill="none" transform="matrix(1 0 0 1 1900 106 )" class="stroke" mask="url(#Clip4922)" />
    <path d="M 32.56736000000001 10.466560000000044  L 32.56736000000001 0.7379201920000327  L 24.584000000000003 0.7379201920000327  L 24.584000000000003 10.466560000000044  L 26.208319039999992 10.466560000000044  L 26.208319039999992 2.3104006720000285  L 30.908479040000003 2.3104006720000285  L 30.908479040000003 10.466560000000044  L 32.56736000000001 10.466560000000044  Z " stroke-width="0" stroke-dasharray="0" stroke="rgba(255, 255, 255, 0)" fill="none" transform="matrix(1 0 0 1 1900 106 )" class="stroke" mask="url(#Clip4922)" />
    <path d="M 30.251839039999993 15.823360000000037  L 32.04895903999997 15.823360000000037  C 32.636481919999994 15.823360000000037  33.06847904 15.685120960000035  33.36223903999999 15.425920000000033  C 33.65599807999999 15.132160960000036  33.86336191999999 14.25087904000003  33.98432095999999 12.78208096000003  L 32.463678079999994 12.280959040000042  C 32.411840960000006 13.265920000000037  32.32544095999998 13.853440000000035  32.221759039999995 14.060800000000043  C 32.118080959999986 14.233600000000038  31.962559040000002 14.320000000000036  31.755199040000008 14.320000000000036  L 30.73567903999998 14.320000000000036  C 30.424639040000017 14.320000000000036  30.286399999999986 14.147200000000026  30.286399999999986 13.801599040000028  L 30.286399999999986 10.397440000000032  L 28.93856095999999 10.397440000000032  C 29.128639039999996 9.550720000000027  29.24959808 8.600320000000039  29.284159999999986 7.528960960000035  L 29.284159999999986 3.399040480000039  L 27.711680959999995 3.399040480000039  L 27.711680959999995 7.528960960000035  C 27.64255904000001 9.39520096000004  27.279679999999985 10.915840000000046  26.605760959999998 12.090879040000033  C 25.931840959999985 13.162240960000048  24.65312 14.078079040000034  22.75232095999999 14.803840000000037  L 23.650879040000007 16.18624000000004  C 25.586239999999975 15.477759040000024  26.98591999999999 14.47552096000004  27.832639999999998 13.162240960000048  C 28.14367999999999 12.661119040000031  28.42016000000001 12.073600000000027  28.64479903999998 11.416960000000032  L 28.64479903999998 14.147200000000026  C 28.64479903999998 15.253120000000038  29.18047999999999 15.823360000000037  30.251839039999993 15.823360000000037  Z " stroke-width="0" stroke-dasharray="0" stroke="rgba(255, 255, 255, 0)" fill="none" transform="matrix(1 0 0 1 1900 106 )" class="stroke" mask="url(#Clip4922)" />
    <path d="M 20.12576095999998 6.405760960000023  L 18.27679999999998 6.405760960000023  L 18.27679999999998 7.995520960000036  L 20.12576095999998 7.995520960000036  L 20.12576095999998 11.91808096000004  C 19.400000000000006 12.108159040000032  18.674239040000003 12.263680000000036  17.931199039999996 12.40192096000004  L 18.32864096 13.974399040000037  C 20.281279040000015 13.49056000000003  22.130239999999986 12.903040000000033  23.85823904 12.211840960000032  L 23.85823904 10.639360000000039  C 23.18431903999999 10.915840000000046  22.493120000000005 11.175040000000038  21.784639040000002 11.416960000000032  L 21.784639040000002 7.995520960000036  L 23.58175903999998 7.995520960000036  L 23.58175903999998 6.405760960000023  L 21.784639040000002 6.405760960000023  L 21.784639040000002 2.742400480000029  L 23.823679999999996 2.742400480000029  L 23.823679999999996 1.1699209600000273  L 18.052160960000005 1.1699209600000273  L 18.052160960000005 2.742400480000029  L 20.12576095999998 2.742400480000029  L 20.12576095999998 6.405760960000023  Z " stroke-width="0" stroke-dasharray="0" stroke="rgba(255, 255, 255, 0)" fill="none" transform="matrix(1 0 0 1 1900 106 )" class="stroke" mask="url(#Clip4922)" />
    <path d="M 44.02400191999999 0.21952028800002665  L 42.365120959999985 0.21952028800002665  L 42.365120959999985 2.6560003840000377  L 36 2.6560003840000377  L 36 12.678400960000033  L 38.42528096000001 12.678400960000033  L 38.42528096000001 11.641599040000031  L 42.365120959999985 11.641599040000031  L 42.365120959999985 16.01344000000003  L 44.02400191999999 16.01344000000003  L 44.02400191999999 11.641599040000031  L 47.894719039999984 11.641599040000031  L 47.894719039999984 12.557440000000042  L 49.501759039999996 12.557440000000042  L 49.501759039999996 2.6560003840000377  L 44.02400191999999 2.6560003840000377  L 44.02400191999999 0.21952028800002665  Z " stroke-width="0" stroke-dasharray="0" stroke="rgba(255, 255, 255, 0)" fill="none" transform="matrix(1 0 0 1 1900 106 )" class="stroke" mask="url(#Clip4922)" />
    <path d="M 42.365120959999985 10.08640000000004  L 38.42528096000001 10.08640000000004  L 38.42528096000001 7.857280000000031  L 42.365120959999985 7.857280000000031  L 42.365120959999985 10.08640000000004  Z " stroke-width="0" stroke-dasharray="0" stroke="rgba(255, 255, 255, 0)" fill="none" transform="matrix(1 0 0 1 1900 106 )" class="stroke" mask="url(#Clip4922)" />
    <path d="M 47.894719039999984 10.08640000000004  L 44.02400191999999 10.08640000000004  L 44.02400191999999 7.857280000000031  L 47.894719039999984 7.857280000000031  L 47.894719039999984 10.08640000000004  Z " stroke-width="0" stroke-dasharray="0" stroke="rgba(255, 255, 255, 0)" fill="none" transform="matrix(1 0 0 1 1900 106 )" class="stroke" mask="url(#Clip4922)" />
    <path d="M 42.365120959999985 6.38848000000003  L 38.42528096000001 6.38848000000003  L 38.42528096000001 4.193920576000025  L 42.365120959999985 4.193920576000025  L 42.365120959999985 6.38848000000003  Z " stroke-width="0" stroke-dasharray="0" stroke="rgba(255, 255, 255, 0)" fill="none" transform="matrix(1 0 0 1 1900 106 )" class="stroke" mask="url(#Clip4922)" />
    <path d="M 47.894719039999984 6.38848000000003  L 44.02400191999999 6.38848000000003  L 44.02400191999999 4.193920576000025  L 47.894719039999984 4.193920576000025  L 47.894719039999984 6.38848000000003  Z " stroke-width="0" stroke-dasharray="0" stroke="rgba(255, 255, 255, 0)" fill="none" transform="matrix(1 0 0 1 1900 106 )" class="stroke" mask="url(#Clip4922)" />
    <path d="M 63.792317119999986 0.15040067200003193  L 62.21983616 0.15040067200003193  L 62.21983616 1.1526403840000228  L 58.17631807999999 1.1526403840000228  L 58.17631807999999 2.483200096000033  L 62.21983616 2.483200096000033  L 62.21983616 3.3299200000000297  L 58.90207903999999 3.3299200000000297  L 58.90207903999999 4.625920384000025  L 62.21983616 4.625920384000025  L 62.21983616 5.489920000000026  L 57.69247999999999 5.489920000000026  L 57.69247999999999 7  L 68.37152096 7  L 68.37152096 5.489920000000026  L 63.792317119999986 5.489920000000026  L 63.792317119999986 4.625920384000025  L 67.33471904000001 4.625920384000025  L 67.33471904000001 3.3299200000000297  L 63.792317119999986 3.3299200000000297  L 63.792317119999986 2.483200096000033  L 67.93951615999998 2.483200096000033  L 67.93951615999998 1.1526403840000228  L 63.792317119999986 1.1526403840000228  L 63.792317119999986 0.15040067200003193  Z " stroke-width="0" stroke-dasharray="0" stroke="rgba(255, 255, 255, 0)" fill="none" transform="matrix(1 0 0 1 1900 106 )" class="stroke" mask="url(#Clip4922)" />
    <path d="M 60.47455904 12.177280000000039  L 60.47455904 11.209600000000037  L 65.60671616000002 11.209600000000037  L 65.60671616000002 12.177280000000039  L 60.47455904 12.177280000000039  Z " stroke-width="0" stroke-dasharray="0" stroke="rgba(255, 255, 255, 0)" fill="none" transform="matrix(1 0 0 1 1900 106 )" class="stroke" mask="url(#Clip4922)" />
    <path d="M 65.60671616000002 8.980480000000043  L 65.60671616000002 9.965440960000038  L 60.47455904 9.965440960000038  L 60.47455904 8.980480000000043  L 65.60671616000002 8.980480000000043  Z " stroke-width="0" stroke-dasharray="0" stroke="rgba(255, 255, 255, 0)" fill="none" transform="matrix(1 0 0 1 1900 106 )" class="stroke" mask="url(#Clip4922)" />
    <path d="M 60.47455904 16.09984000000003  L 60.47455904 13.421439040000024  L 65.60671616000002 13.421439040000024  L 65.60671616000002 14.060800000000043  C 65.60671616000002 14.440959040000038  65.41663807999998 14.631039040000033  65.07103712 14.631039040000033  L 63.723198079999996 14.544639040000035  L 64.10336192 15.996160000000032  L 65.53759808000001 15.996160000000032  C 66.62624 15.996160000000032  67.17919711999997 15.460480000000032  67.17919711999997 14.389120960000028  L 67.17919711999997 7.649920000000023  L 58.91935999999998 7.649920000000023  L 58.91935999999998 16.09984000000003  L 60.47455904 16.09984000000003  Z " stroke-width="0" stroke-dasharray="0" stroke="rgba(255, 255, 255, 0)" fill="none" transform="matrix(1 0 0 1 1900 106 )" class="stroke" mask="url(#Clip4922)" />
    <path d="M 57.62335808 2.8288006720000283  C 56.863038079999995 1.9820806720000235  55.91263999999998 1.1353606720000329  54.806719999999984 0.288640768000036  L 53.648959039999994 1.4118408640000268  C 54.87583903999999 2.3104006720000285  55.82624000000001 3.1744002880000295  56.500159999999994 3.9692803840000295  L 57.62335808 2.8288006720000283  Z " stroke-width="0" stroke-dasharray="0" stroke="rgba(255, 255, 255, 0)" fill="none" transform="matrix(1 0 0 1 1900 106 )" class="stroke" mask="url(#Clip4922)" />
    <path d="M 56.3792 5.299840096000025  L 52.456638080000005 5.299840096000025  L 52.456638080000005 6.872320960000039  L 54.806719999999984 6.872320960000039  L 54.806719999999984 13.196800000000039  C 54.806719999999984 13.559680000000029  54.65120095999998 13.870720000000034  54.374719039999974 14.112640000000027  L 54.996801919999996 15.598720960000037  C 56.120000000000005 14.803840000000037  57.19136095999997 13.88799904000004  58.19359999999997 12.85119904000004  L 57.76159903999999 11.12320000000004  C 57.277760959999995 11.624319040000032  56.82847903999999 12.090879040000033  56.3792 12.522880000000029  L 56.3792 5.299840096000025  Z " stroke-width="0" stroke-dasharray="0" stroke="rgba(255, 255, 255, 0)" fill="none" transform="matrix(1 0 0 1 1900 106 )" class="stroke" mask="url(#Clip4922)" />
  </g>
</svg>