<?xml version="1.0" encoding="utf-8"?>
<svg version="1.1" xmlns:xlink="http://www.w3.org/1999/xlink" width="54px" height="14px" xmlns="http://www.w3.org/2000/svg">
  <defs>
    <pattern id="BGPattern" patternUnits="userSpaceOnUse" alignment="0 0" imageRepeat="None" />
    <mask fill="white" id="Clip3819">
      <path d="M 1.048000095999999 13.103040000000021  L 2.2576001920000017 13.103040000000021  C 3.023679999999999 13.103040000000021  3.4134401919999955 12.713279999999997  3.4134401919999955 11.960640000000012  L 3.4134401919999955 7.995839999999987  C 3.8032000959999976 7.807679903999998  4.1929601919999975 7.619519808000007  4.569279903999998 7.417919807999965  L 4.569279903999998 6.436799903999997  C 4.1929601919999975 6.651839903999985  3.8032000959999976 6.839999999999975  3.4134401919999955 7.028159615999983  L 3.4134401919999955 4.407359615999951  L 4.770879999999998 4.407359615999951  L 4.770879999999998 3.480000000000018  L 3.4134401919999955 3.480000000000018  L 3.4134401919999955 0.9398400864000108  L 2.4188801919999996 0.9398400864000108  L 2.4188801919999996 3.480000000000018  L 0.7926400383999983 3.480000000000018  L 0.7926400383999983 4.407359615999951  L 2.4188801919999996 4.407359615999951  L 2.4188801919999996 7.444799616000011  C 1.827520095999997 7.673279999999977  1.236160095999999 7.861439711999992  0.6313599999999973 8.009279903999982  L 0.8598400288000008 8.976959808000004  C 1.3840000959999976 8.815679616000011  1.9081600959999996 8.627519520000021  2.4188801919999996 8.425920383999994  L 2.4188801919999996 11.70527999999996  C 2.4188801919999996 12.041280000000029  2.2441599999999973 12.216000000000008  1.9216000000000015 12.216000000000008  C 1.572160096000001 12.216000000000008  1.222719999999999 12.189120000000003  0.846400028799998 12.162239999999997  L 1.048000095999999 13.103040000000021  Z M 11.679040960000002 1.369920000000036  L 5.819199999999999 1.369920000000036  L 5.819199999999999 6.033599807999963  L 11.679040960000002 6.033599807999963  L 11.679040960000002 1.369920000000036  Z M 10.738239999999998 4.084800096000038  L 10.738239999999998 5.24063961600001  L 6.759999999999998 5.24063961600001  L 6.759999999999998 4.084800096000038  L 10.738239999999998 4.084800096000038  Z M 10.738239999999998 3.3321597119999637  L 6.759999999999998 3.3321597119999637  L 6.759999999999998 2.162879327999974  L 10.738239999999998 2.162879327999974  L 10.738239999999998 3.3321597119999637  Z M 12.56608 6.974399903999995  L 4.878399999999999 6.974399903999995  L 4.878399999999999 7.8345598079999945  L 8.278720672000002 7.8345598079999945  L 8.278720672000002 11.759040000000027  C 8.157760287999999 11.718719999999962  8.050239903999998 11.67840000000001  7.956160287999995 11.638080000000002  C 7.391680479999997 11.38271999999995  6.894400288 10.8048  6.4643203840000005 9.904319423999993  C 6.571840383999998 9.447359615999972  6.639040095999999 8.990399808000006  6.665920383999996 8.506560095999987  L 5.805759999999999 8.412479519999977  C 5.698240095999999 9.944640192000008  5.133760192 11.342399999999998  4.112320095999998 12.578880000000026  L 4.824640192 13.197119999999984  C 5.402559999999998 12.49824000000001  5.846080287999996 11.732160000000022  6.168640287999999 10.89888000000002  C 6.571840383999998 11.651520000000005  7.042240095999997 12.162239999999997  7.552960191999998 12.431039999999996  C 8.198080095999998 12.753600000000006  9.407680384000003 12.928319999999985  11.181759999999997 12.941759999999988  C 11.61184 12.941759999999988  12.109120959999998 12.95519999999999  12.646719999999995 12.95519999999999  L 12.915520960000002 12.014399999999966  C 12.418239999999997 12.054720000000032  11.813439999999993 12.08159999999998  11.114559999999997 12.08159999999998  C 10.375360960000002 12.08159999999998  9.743680959999999 12.041280000000029  9.206080287999995 11.960640000000012  L 9.206080287999995 10.226879999999994  L 12.015039999999999 10.226879999999994  L 12.015039999999999 9.353279999999984  L 9.206080287999995 9.353279999999984  L 9.206080287999995 7.8345598079999945  L 12.56608 7.8345598079999945  L 12.56608 6.974399903999995  Z M 25.280320000000003 8.869440287999964  L 25.280320000000003 1.437119712000026  L 19.312959999999997 1.437119712000026  L 19.312959999999997 8.869440287999964  L 20.267199999999995 8.869440287999964  L 20.267199999999995 2.364479327999959  L 24.299199999999992 2.364479327999959  L 24.299199999999992 8.869440287999964  L 25.280320000000003 8.869440287999964  Z M 23.586879999999994 13.008960000000002  L 24.98464096 13.008960000000002  C 25.41471904 13.008960000000002  25.737281919999994 12.901440000000036  25.95232096 12.699839999999995  C 26.180800000000005 12.457919999999945  26.342080959999997 11.772479999999973  26.422719999999998 10.67040000000003  L 25.522240959999998 10.388160000000028  C 25.46847904 11.22144000000003  25.387839039999996 11.732160000000022  25.280320000000003 11.906880000000001  C 25.186239999999998 12.041280000000029  25.02496096 12.121919999999989  24.809919999999998 12.121919999999989  L 23.869120959999997 12.121919999999989  C 23.586879999999994 12.121919999999989  23.45248 11.974080000000015  23.45248 11.691839999999956  L 23.45248 8.815679616000011  L 22.48480096 8.815679616000011  L 22.48480096 11.893439999999998  C 22.48480096 12.63263999999998  22.847679039999996 13.008960000000002  23.586879999999994 13.008960000000002  Z M 22.699839999999995 3.3187198080000258  L 21.77248 3.3187198080000258  L 21.77248 6.598079711999958  C 21.745600959999997 8.103359999999952  21.44992 9.326400191999994  20.912320960000002 10.267200000000003  C 20.33439904 11.154239039999993  19.312959999999997 11.879999999999995  17.861439039999993 12.444479999999999  L 18.385600959999998 13.264319999999998  C 19.89087904 12.699839999999995  20.966079999999998 11.906880000000001  21.611200959999998 10.912320000000022  C 22.2832 9.837119712000003  22.646079999999998 8.399039615999982  22.699839999999995 6.598079711999958  L 22.699839999999995 3.3187198080000258  Z M 15.872320960000003 5.87231961599997  L 14.326719999999993 5.87231961599997  L 14.326719999999993 6.8131196159999945  L 15.872320960000003 6.8131196159999945  L 15.872320960000003 10.159680000000037  C 15.280959999999991 10.320959039999991  14.689599999999999 10.455360000000042  14.0848 10.562880000000007  L 14.313279999999999 11.490239999999972  C 15.832000960000004 11.12736000000001  17.256639999999997 10.683840000000032  18.587199999999996 10.146240000000034  L 18.587199999999996 9.218879711999989  C 18.02272 9.447359615999972  17.458240960000005 9.662399616000016  16.866879999999995 9.863999616000001  L 16.866879999999995 6.8131196159999945  L 18.372160960000002 6.8131196159999945  L 18.372160960000002 5.87231961599997  L 16.866879999999995 5.87231961599997  L 16.866879999999995 2.7273596159999443  L 18.560319999999997 2.7273596159999443  L 18.560319999999997 1.8000000000000114  L 14.152 1.8000000000000114  L 14.152 2.7273596159999443  L 15.872320960000003 2.7273596159999443  L 15.872320960000003 5.87231961599997  Z M 33.586240000000004 2.8886398079999935  L 27.793599999999994 2.8886398079999935  L 27.793599999999994 3.8159994239999833  L 31.543361919999995 3.8159994239999833  C 31.529921919999996 4.272959711999988  31.50304192 4.918079711999951  31.46272192 5.764799616000005  C 31.395519039999993 7.04159999999996  31.14016 8.197439615999997  30.6832 9.232319615999984  C 30.212799999999994 10.267200000000003  29.25856096 11.38271999999995  27.833920000000003 12.59232000000003  L 28.532799999999995 13.264319999999998  C 29.71552096 12.31007999999997  30.62944 11.261759999999981  31.287999039999995 10.10591999999997  C 31.77184096 9.218879711999989  32.107839039999995 8.23775942399999  32.28255904 7.149119999999982  L 36.98656 7.149119999999982  C 36.95968 9.003839712000001  36.91936 10.226879999999994  36.838720959999996 10.791359999999997  C 36.67744096 11.732160000000022  36.260799999999996 12.216000000000008  35.575359039999995 12.242879999999957  C 35.10496096 12.242879999999957  34.52704 12.229439999999954  33.828159039999996 12.202560000000005  L 34.12384192 13.076159999999959  C 34.715199039999995 13.103040000000021  35.23936 13.129920000000027  35.66943808 13.129920000000027  C 36.73120096 13.089599999999962  37.38975807999999 12.49824000000001  37.658560959999996 11.35584  C 37.83328 10.603200000000015  37.940799999999996 8.896320191999962  37.96767903999999 6.2351999039999555  L 32.390078079999995 6.2351999039999555  L 32.390078079999995 6.208319999999958  L 32.51104096 3.8159994239999833  L 39.59392 3.8159994239999833  L 39.59392 2.8886398079999935  L 34.56736 2.8886398079999935  C 34.24480096 2.095679615999984  33.895359039999995 1.4102399039999796  33.51904096 0.8457595871999501  L 32.60512096 1.181759951999993  C 32.994879039999994 1.719359423999947  33.31744096 2.297279615999969  33.586240000000004 2.8886398079999935  Z M 47.80576096 3.305279807999966  L 41.233599999999996 3.305279807999966  L 41.233599999999996 4.246079903999998  L 47.85951999999999 4.246079903999998  C 47.96704 5.939519808  48.16863904 7.417919807999965  48.47776096 8.694720191999977  C 49.284160959999994 11.62464  50.27872095999999 13.129920000000027  51.474879040000005 13.183679999999981  C 52.16032 13.170239999999978  52.71136095999999 12.189120000000003  53.11455904 10.25376  L 52.24095904000001 9.79679990400001  C 51.958720959999994 11.302080000000046  51.67648192 12.068160000000034  51.40767903999999 12.108479999999986  C 50.96416095999999 12.108479999999986  50.45344 11.35584  49.88896288000001 9.877439616000004  C 49.36480096 8.372159711999984  49.01535903999999 6.503999615999987  48.854079999999996 4.246079903999998  L 52.95327999999999 4.246079903999998  L 52.95327999999999 3.305279807999966  L 48.80032 3.305279807999966  C 48.75999999999999 2.552639424000006  48.74655999999999 1.7596792319999963  48.74655999999999 0.9263992319999943  L 47.752000960000004 0.9263992319999943  C 47.752000960000004 1.7462393279999446  47.76544095999999 2.539199519999954  47.80576096 3.305279807999966  Z M 47.133759999999995 6.47711971199999  L 41.43519904 6.47711971199999  L 41.43519904 7.3910399039999675  L 43.80064 7.3910399039999675  L 43.80064 11.060159999999996  C 42.940479999999994 11.194560000000024  42.05344000000001 11.328959999999995  41.166399999999996 11.436480000000017  L 41.394879040000006 12.35039999999998  C 43.625919999999994 12.02783999999997  45.72255903999999 11.638080000000002  47.65792096 11.167679999999962  L 47.65792096 10.226879999999994  C 46.71712192000001 10.468799999999987  45.76287807999999 10.697280000000035  44.768319039999994 10.885440000000017  L 44.768319039999994 7.3910399039999675  L 47.133759999999995 7.3910399039999675  L 47.133759999999995 6.47711971199999  Z M 52.03935999999999 2.7676794239999936  C 51.636161920000006 2.1225595199999816  51.21951999999999 1.531199327999957  50.775998079999994 0.993599856000003  L 49.96960192 1.383359999999982  C 50.42655999999998 1.9075195199999937  50.84319807999999 2.4988797120000186  51.23295999999999 3.1708795199999713  L 52.03935999999999 2.7676794239999936  Z " fill-rule="evenodd" />
    </mask>
  </defs>
  <g transform="matrix(1 0 0 1 -1778 -407 )">
    <path d="M 1.048000095999999 13.103040000000021  L 2.2576001920000017 13.103040000000021  C 3.023679999999999 13.103040000000021  3.4134401919999955 12.713279999999997  3.4134401919999955 11.960640000000012  L 3.4134401919999955 7.995839999999987  C 3.8032000959999976 7.807679903999998  4.1929601919999975 7.619519808000007  4.569279903999998 7.417919807999965  L 4.569279903999998 6.436799903999997  C 4.1929601919999975 6.651839903999985  3.8032000959999976 6.839999999999975  3.4134401919999955 7.028159615999983  L 3.4134401919999955 4.407359615999951  L 4.770879999999998 4.407359615999951  L 4.770879999999998 3.480000000000018  L 3.4134401919999955 3.480000000000018  L 3.4134401919999955 0.9398400864000108  L 2.4188801919999996 0.9398400864000108  L 2.4188801919999996 3.480000000000018  L 0.7926400383999983 3.480000000000018  L 0.7926400383999983 4.407359615999951  L 2.4188801919999996 4.407359615999951  L 2.4188801919999996 7.444799616000011  C 1.827520095999997 7.673279999999977  1.236160095999999 7.861439711999992  0.6313599999999973 8.009279903999982  L 0.8598400288000008 8.976959808000004  C 1.3840000959999976 8.815679616000011  1.9081600959999996 8.627519520000021  2.4188801919999996 8.425920383999994  L 2.4188801919999996 11.70527999999996  C 2.4188801919999996 12.041280000000029  2.2441599999999973 12.216000000000008  1.9216000000000015 12.216000000000008  C 1.572160096000001 12.216000000000008  1.222719999999999 12.189120000000003  0.846400028799998 12.162239999999997  L 1.048000095999999 13.103040000000021  Z M 11.679040960000002 1.369920000000036  L 5.819199999999999 1.369920000000036  L 5.819199999999999 6.033599807999963  L 11.679040960000002 6.033599807999963  L 11.679040960000002 1.369920000000036  Z M 10.738239999999998 4.084800096000038  L 10.738239999999998 5.24063961600001  L 6.759999999999998 5.24063961600001  L 6.759999999999998 4.084800096000038  L 10.738239999999998 4.084800096000038  Z M 10.738239999999998 3.3321597119999637  L 6.759999999999998 3.3321597119999637  L 6.759999999999998 2.162879327999974  L 10.738239999999998 2.162879327999974  L 10.738239999999998 3.3321597119999637  Z M 12.56608 6.974399903999995  L 4.878399999999999 6.974399903999995  L 4.878399999999999 7.8345598079999945  L 8.278720672000002 7.8345598079999945  L 8.278720672000002 11.759040000000027  C 8.157760287999999 11.718719999999962  8.050239903999998 11.67840000000001  7.956160287999995 11.638080000000002  C 7.391680479999997 11.38271999999995  6.894400288 10.8048  6.4643203840000005 9.904319423999993  C 6.571840383999998 9.447359615999972  6.639040095999999 8.990399808000006  6.665920383999996 8.506560095999987  L 5.805759999999999 8.412479519999977  C 5.698240095999999 9.944640192000008  5.133760192 11.342399999999998  4.112320095999998 12.578880000000026  L 4.824640192 13.197119999999984  C 5.402559999999998 12.49824000000001  5.846080287999996 11.732160000000022  6.168640287999999 10.89888000000002  C 6.571840383999998 11.651520000000005  7.042240095999997 12.162239999999997  7.552960191999998 12.431039999999996  C 8.198080095999998 12.753600000000006  9.407680384000003 12.928319999999985  11.181759999999997 12.941759999999988  C 11.61184 12.941759999999988  12.109120959999998 12.95519999999999  12.646719999999995 12.95519999999999  L 12.915520960000002 12.014399999999966  C 12.418239999999997 12.054720000000032  11.813439999999993 12.08159999999998  11.114559999999997 12.08159999999998  C 10.375360960000002 12.08159999999998  9.743680959999999 12.041280000000029  9.206080287999995 11.960640000000012  L 9.206080287999995 10.226879999999994  L 12.015039999999999 10.226879999999994  L 12.015039999999999 9.353279999999984  L 9.206080287999995 9.353279999999984  L 9.206080287999995 7.8345598079999945  L 12.56608 7.8345598079999945  L 12.56608 6.974399903999995  Z M 25.280320000000003 8.869440287999964  L 25.280320000000003 1.437119712000026  L 19.312959999999997 1.437119712000026  L 19.312959999999997 8.869440287999964  L 20.267199999999995 8.869440287999964  L 20.267199999999995 2.364479327999959  L 24.299199999999992 2.364479327999959  L 24.299199999999992 8.869440287999964  L 25.280320000000003 8.869440287999964  Z M 23.586879999999994 13.008960000000002  L 24.98464096 13.008960000000002  C 25.41471904 13.008960000000002  25.737281919999994 12.901440000000036  25.95232096 12.699839999999995  C 26.180800000000005 12.457919999999945  26.342080959999997 11.772479999999973  26.422719999999998 10.67040000000003  L 25.522240959999998 10.388160000000028  C 25.46847904 11.22144000000003  25.387839039999996 11.732160000000022  25.280320000000003 11.906880000000001  C 25.186239999999998 12.041280000000029  25.02496096 12.121919999999989  24.809919999999998 12.121919999999989  L 23.869120959999997 12.121919999999989  C 23.586879999999994 12.121919999999989  23.45248 11.974080000000015  23.45248 11.691839999999956  L 23.45248 8.815679616000011  L 22.48480096 8.815679616000011  L 22.48480096 11.893439999999998  C 22.48480096 12.63263999999998  22.847679039999996 13.008960000000002  23.586879999999994 13.008960000000002  Z M 22.699839999999995 3.3187198080000258  L 21.77248 3.3187198080000258  L 21.77248 6.598079711999958  C 21.745600959999997 8.103359999999952  21.44992 9.326400191999994  20.912320960000002 10.267200000000003  C 20.33439904 11.154239039999993  19.312959999999997 11.879999999999995  17.861439039999993 12.444479999999999  L 18.385600959999998 13.264319999999998  C 19.89087904 12.699839999999995  20.966079999999998 11.906880000000001  21.611200959999998 10.912320000000022  C 22.2832 9.837119712000003  22.646079999999998 8.399039615999982  22.699839999999995 6.598079711999958  L 22.699839999999995 3.3187198080000258  Z M 15.872320960000003 5.87231961599997  L 14.326719999999993 5.87231961599997  L 14.326719999999993 6.8131196159999945  L 15.872320960000003 6.8131196159999945  L 15.872320960000003 10.159680000000037  C 15.280959999999991 10.320959039999991  14.689599999999999 10.455360000000042  14.0848 10.562880000000007  L 14.313279999999999 11.490239999999972  C 15.832000960000004 11.12736000000001  17.256639999999997 10.683840000000032  18.587199999999996 10.146240000000034  L 18.587199999999996 9.218879711999989  C 18.02272 9.447359615999972  17.458240960000005 9.662399616000016  16.866879999999995 9.863999616000001  L 16.866879999999995 6.8131196159999945  L 18.372160960000002 6.8131196159999945  L 18.372160960000002 5.87231961599997  L 16.866879999999995 5.87231961599997  L 16.866879999999995 2.7273596159999443  L 18.560319999999997 2.7273596159999443  L 18.560319999999997 1.8000000000000114  L 14.152 1.8000000000000114  L 14.152 2.7273596159999443  L 15.872320960000003 2.7273596159999443  L 15.872320960000003 5.87231961599997  Z M 33.586240000000004 2.8886398079999935  L 27.793599999999994 2.8886398079999935  L 27.793599999999994 3.8159994239999833  L 31.543361919999995 3.8159994239999833  C 31.529921919999996 4.272959711999988  31.50304192 4.918079711999951  31.46272192 5.764799616000005  C 31.395519039999993 7.04159999999996  31.14016 8.197439615999997  30.6832 9.232319615999984  C 30.212799999999994 10.267200000000003  29.25856096 11.38271999999995  27.833920000000003 12.59232000000003  L 28.532799999999995 13.264319999999998  C 29.71552096 12.31007999999997  30.62944 11.261759999999981  31.287999039999995 10.10591999999997  C 31.77184096 9.218879711999989  32.107839039999995 8.23775942399999  32.28255904 7.149119999999982  L 36.98656 7.149119999999982  C 36.95968 9.003839712000001  36.91936 10.226879999999994  36.838720959999996 10.791359999999997  C 36.67744096 11.732160000000022  36.260799999999996 12.216000000000008  35.575359039999995 12.242879999999957  C 35.10496096 12.242879999999957  34.52704 12.229439999999954  33.828159039999996 12.202560000000005  L 34.12384192 13.076159999999959  C 34.715199039999995 13.103040000000021  35.23936 13.129920000000027  35.66943808 13.129920000000027  C 36.73120096 13.089599999999962  37.38975807999999 12.49824000000001  37.658560959999996 11.35584  C 37.83328 10.603200000000015  37.940799999999996 8.896320191999962  37.96767903999999 6.2351999039999555  L 32.390078079999995 6.2351999039999555  L 32.390078079999995 6.208319999999958  L 32.51104096 3.8159994239999833  L 39.59392 3.8159994239999833  L 39.59392 2.8886398079999935  L 34.56736 2.8886398079999935  C 34.24480096 2.095679615999984  33.895359039999995 1.4102399039999796  33.51904096 0.8457595871999501  L 32.60512096 1.181759951999993  C 32.994879039999994 1.719359423999947  33.31744096 2.297279615999969  33.586240000000004 2.8886398079999935  Z M 47.80576096 3.305279807999966  L 41.233599999999996 3.305279807999966  L 41.233599999999996 4.246079903999998  L 47.85951999999999 4.246079903999998  C 47.96704 5.939519808  48.16863904 7.417919807999965  48.47776096 8.694720191999977  C 49.284160959999994 11.62464  50.27872095999999 13.129920000000027  51.474879040000005 13.183679999999981  C 52.16032 13.170239999999978  52.71136095999999 12.189120000000003  53.11455904 10.25376  L 52.24095904000001 9.79679990400001  C 51.958720959999994 11.302080000000046  51.67648192 12.068160000000034  51.40767903999999 12.108479999999986  C 50.96416095999999 12.108479999999986  50.45344 11.35584  49.88896288000001 9.877439616000004  C 49.36480096 8.372159711999984  49.01535903999999 6.503999615999987  48.854079999999996 4.246079903999998  L 52.95327999999999 4.246079903999998  L 52.95327999999999 3.305279807999966  L 48.80032 3.305279807999966  C 48.75999999999999 2.552639424000006  48.74655999999999 1.7596792319999963  48.74655999999999 0.9263992319999943  L 47.752000960000004 0.9263992319999943  C 47.752000960000004 1.7462393279999446  47.76544095999999 2.539199519999954  47.80576096 3.305279807999966  Z M 47.133759999999995 6.47711971199999  L 41.43519904 6.47711971199999  L 41.43519904 7.3910399039999675  L 43.80064 7.3910399039999675  L 43.80064 11.060159999999996  C 42.940479999999994 11.194560000000024  42.05344000000001 11.328959999999995  41.166399999999996 11.436480000000017  L 41.394879040000006 12.35039999999998  C 43.625919999999994 12.02783999999997  45.72255903999999 11.638080000000002  47.65792096 11.167679999999962  L 47.65792096 10.226879999999994  C 46.71712192000001 10.468799999999987  45.76287807999999 10.697280000000035  44.768319039999994 10.885440000000017  L 44.768319039999994 7.3910399039999675  L 47.133759999999995 7.3910399039999675  L 47.133759999999995 6.47711971199999  Z M 52.03935999999999 2.7676794239999936  C 51.636161920000006 2.1225595199999816  51.21951999999999 1.531199327999957  50.775998079999994 0.993599856000003  L 49.96960192 1.383359999999982  C 50.42655999999998 1.9075195199999937  50.84319807999999 2.4988797120000186  51.23295999999999 3.1708795199999713  L 52.03935999999999 2.7676794239999936  Z " fill-rule="nonzero" fill="rgba(51, 51, 51, 1)" stroke="none" transform="matrix(1 0 0 1 1778 407 )" class="fill" />
    <path d="M 1.048000095999999 13.103040000000021  L 2.2576001920000017 13.103040000000021  C 3.023679999999999 13.103040000000021  3.4134401919999955 12.713279999999997  3.4134401919999955 11.960640000000012  L 3.4134401919999955 7.995839999999987  C 3.8032000959999976 7.807679903999998  4.1929601919999975 7.619519808000007  4.569279903999998 7.417919807999965  L 4.569279903999998 6.436799903999997  C 4.1929601919999975 6.651839903999985  3.8032000959999976 6.839999999999975  3.4134401919999955 7.028159615999983  L 3.4134401919999955 4.407359615999951  L 4.770879999999998 4.407359615999951  L 4.770879999999998 3.480000000000018  L 3.4134401919999955 3.480000000000018  L 3.4134401919999955 0.9398400864000108  L 2.4188801919999996 0.9398400864000108  L 2.4188801919999996 3.480000000000018  L 0.7926400383999983 3.480000000000018  L 0.7926400383999983 4.407359615999951  L 2.4188801919999996 4.407359615999951  L 2.4188801919999996 7.444799616000011  C 1.827520095999997 7.673279999999977  1.236160095999999 7.861439711999992  0.6313599999999973 8.009279903999982  L 0.8598400288000008 8.976959808000004  C 1.3840000959999976 8.815679616000011  1.9081600959999996 8.627519520000021  2.4188801919999996 8.425920383999994  L 2.4188801919999996 11.70527999999996  C 2.4188801919999996 12.041280000000029  2.2441599999999973 12.216000000000008  1.9216000000000015 12.216000000000008  C 1.572160096000001 12.216000000000008  1.222719999999999 12.189120000000003  0.846400028799998 12.162239999999997  L 1.048000095999999 13.103040000000021  Z " stroke-width="0" stroke-dasharray="0" stroke="rgba(255, 255, 255, 0)" fill="none" transform="matrix(1 0 0 1 1778 407 )" class="stroke" mask="url(#Clip3819)" />
    <path d="M 11.679040960000002 1.369920000000036  L 5.819199999999999 1.369920000000036  L 5.819199999999999 6.033599807999963  L 11.679040960000002 6.033599807999963  L 11.679040960000002 1.369920000000036  Z " stroke-width="0" stroke-dasharray="0" stroke="rgba(255, 255, 255, 0)" fill="none" transform="matrix(1 0 0 1 1778 407 )" class="stroke" mask="url(#Clip3819)" />
    <path d="M 10.738239999999998 4.084800096000038  L 10.738239999999998 5.24063961600001  L 6.759999999999998 5.24063961600001  L 6.759999999999998 4.084800096000038  L 10.738239999999998 4.084800096000038  Z " stroke-width="0" stroke-dasharray="0" stroke="rgba(255, 255, 255, 0)" fill="none" transform="matrix(1 0 0 1 1778 407 )" class="stroke" mask="url(#Clip3819)" />
    <path d="M 10.738239999999998 3.3321597119999637  L 6.759999999999998 3.3321597119999637  L 6.759999999999998 2.162879327999974  L 10.738239999999998 2.162879327999974  L 10.738239999999998 3.3321597119999637  Z " stroke-width="0" stroke-dasharray="0" stroke="rgba(255, 255, 255, 0)" fill="none" transform="matrix(1 0 0 1 1778 407 )" class="stroke" mask="url(#Clip3819)" />
    <path d="M 12.56608 6.974399903999995  L 4.878399999999999 6.974399903999995  L 4.878399999999999 7.8345598079999945  L 8.278720672000002 7.8345598079999945  L 8.278720672000002 11.759040000000027  C 8.157760287999999 11.718719999999962  8.050239903999998 11.67840000000001  7.956160287999995 11.638080000000002  C 7.391680479999997 11.38271999999995  6.894400288 10.8048  6.4643203840000005 9.904319423999993  C 6.571840383999998 9.447359615999972  6.639040095999999 8.990399808000006  6.665920383999996 8.506560095999987  L 5.805759999999999 8.412479519999977  C 5.698240095999999 9.944640192000008  5.133760192 11.342399999999998  4.112320095999998 12.578880000000026  L 4.824640192 13.197119999999984  C 5.402559999999998 12.49824000000001  5.846080287999996 11.732160000000022  6.168640287999999 10.89888000000002  C 6.571840383999998 11.651520000000005  7.042240095999997 12.162239999999997  7.552960191999998 12.431039999999996  C 8.198080095999998 12.753600000000006  9.407680384000003 12.928319999999985  11.181759999999997 12.941759999999988  C 11.61184 12.941759999999988  12.109120959999998 12.95519999999999  12.646719999999995 12.95519999999999  L 12.915520960000002 12.014399999999966  C 12.418239999999997 12.054720000000032  11.813439999999993 12.08159999999998  11.114559999999997 12.08159999999998  C 10.375360960000002 12.08159999999998  9.743680959999999 12.041280000000029  9.206080287999995 11.960640000000012  L 9.206080287999995 10.226879999999994  L 12.015039999999999 10.226879999999994  L 12.015039999999999 9.353279999999984  L 9.206080287999995 9.353279999999984  L 9.206080287999995 7.8345598079999945  L 12.56608 7.8345598079999945  L 12.56608 6.974399903999995  Z " stroke-width="0" stroke-dasharray="0" stroke="rgba(255, 255, 255, 0)" fill="none" transform="matrix(1 0 0 1 1778 407 )" class="stroke" mask="url(#Clip3819)" />
    <path d="M 25.280320000000003 8.869440287999964  L 25.280320000000003 1.437119712000026  L 19.312959999999997 1.437119712000026  L 19.312959999999997 8.869440287999964  L 20.267199999999995 8.869440287999964  L 20.267199999999995 2.364479327999959  L 24.299199999999992 2.364479327999959  L 24.299199999999992 8.869440287999964  L 25.280320000000003 8.869440287999964  Z " stroke-width="0" stroke-dasharray="0" stroke="rgba(255, 255, 255, 0)" fill="none" transform="matrix(1 0 0 1 1778 407 )" class="stroke" mask="url(#Clip3819)" />
    <path d="M 23.586879999999994 13.008960000000002  L 24.98464096 13.008960000000002  C 25.41471904 13.008960000000002  25.737281919999994 12.901440000000036  25.95232096 12.699839999999995  C 26.180800000000005 12.457919999999945  26.342080959999997 11.772479999999973  26.422719999999998 10.67040000000003  L 25.522240959999998 10.388160000000028  C 25.46847904 11.22144000000003  25.387839039999996 11.732160000000022  25.280320000000003 11.906880000000001  C 25.186239999999998 12.041280000000029  25.02496096 12.121919999999989  24.809919999999998 12.121919999999989  L 23.869120959999997 12.121919999999989  C 23.586879999999994 12.121919999999989  23.45248 11.974080000000015  23.45248 11.691839999999956  L 23.45248 8.815679616000011  L 22.48480096 8.815679616000011  L 22.48480096 11.893439999999998  C 22.48480096 12.63263999999998  22.847679039999996 13.008960000000002  23.586879999999994 13.008960000000002  Z " stroke-width="0" stroke-dasharray="0" stroke="rgba(255, 255, 255, 0)" fill="none" transform="matrix(1 0 0 1 1778 407 )" class="stroke" mask="url(#Clip3819)" />
    <path d="M 22.699839999999995 3.3187198080000258  L 21.77248 3.3187198080000258  L 21.77248 6.598079711999958  C 21.745600959999997 8.103359999999952  21.44992 9.326400191999994  20.912320960000002 10.267200000000003  C 20.33439904 11.154239039999993  19.312959999999997 11.879999999999995  17.861439039999993 12.444479999999999  L 18.385600959999998 13.264319999999998  C 19.89087904 12.699839999999995  20.966079999999998 11.906880000000001  21.611200959999998 10.912320000000022  C 22.2832 9.837119712000003  22.646079999999998 8.399039615999982  22.699839999999995 6.598079711999958  L 22.699839999999995 3.3187198080000258  Z " stroke-width="0" stroke-dasharray="0" stroke="rgba(255, 255, 255, 0)" fill="none" transform="matrix(1 0 0 1 1778 407 )" class="stroke" mask="url(#Clip3819)" />
    <path d="M 15.872320960000003 5.87231961599997  L 14.326719999999993 5.87231961599997  L 14.326719999999993 6.8131196159999945  L 15.872320960000003 6.8131196159999945  L 15.872320960000003 10.159680000000037  C 15.280959999999991 10.320959039999991  14.689599999999999 10.455360000000042  14.0848 10.562880000000007  L 14.313279999999999 11.490239999999972  C 15.832000960000004 11.12736000000001  17.256639999999997 10.683840000000032  18.587199999999996 10.146240000000034  L 18.587199999999996 9.218879711999989  C 18.02272 9.447359615999972  17.458240960000005 9.662399616000016  16.866879999999995 9.863999616000001  L 16.866879999999995 6.8131196159999945  L 18.372160960000002 6.8131196159999945  L 18.372160960000002 5.87231961599997  L 16.866879999999995 5.87231961599997  L 16.866879999999995 2.7273596159999443  L 18.560319999999997 2.7273596159999443  L 18.560319999999997 1.8000000000000114  L 14.152 1.8000000000000114  L 14.152 2.7273596159999443  L 15.872320960000003 2.7273596159999443  L 15.872320960000003 5.87231961599997  Z " stroke-width="0" stroke-dasharray="0" stroke="rgba(255, 255, 255, 0)" fill="none" transform="matrix(1 0 0 1 1778 407 )" class="stroke" mask="url(#Clip3819)" />
    <path d="M 33.586240000000004 2.8886398079999935  L 27.793599999999994 2.8886398079999935  L 27.793599999999994 3.8159994239999833  L 31.543361919999995 3.8159994239999833  C 31.529921919999996 4.272959711999988  31.50304192 4.918079711999951  31.46272192 5.764799616000005  C 31.395519039999993 7.04159999999996  31.14016 8.197439615999997  30.6832 9.232319615999984  C 30.212799999999994 10.267200000000003  29.25856096 11.38271999999995  27.833920000000003 12.59232000000003  L 28.532799999999995 13.264319999999998  C 29.71552096 12.31007999999997  30.62944 11.261759999999981  31.287999039999995 10.10591999999997  C 31.77184096 9.218879711999989  32.107839039999995 8.23775942399999  32.28255904 7.149119999999982  L 36.98656 7.149119999999982  C 36.95968 9.003839712000001  36.91936 10.226879999999994  36.838720959999996 10.791359999999997  C 36.67744096 11.732160000000022  36.260799999999996 12.216000000000008  35.575359039999995 12.242879999999957  C 35.10496096 12.242879999999957  34.52704 12.229439999999954  33.828159039999996 12.202560000000005  L 34.12384192 13.076159999999959  C 34.715199039999995 13.103040000000021  35.23936 13.129920000000027  35.66943808 13.129920000000027  C 36.73120096 13.089599999999962  37.38975807999999 12.49824000000001  37.658560959999996 11.35584  C 37.83328 10.603200000000015  37.940799999999996 8.896320191999962  37.96767903999999 6.2351999039999555  L 32.390078079999995 6.2351999039999555  L 32.390078079999995 6.208319999999958  L 32.51104096 3.8159994239999833  L 39.59392 3.8159994239999833  L 39.59392 2.8886398079999935  L 34.56736 2.8886398079999935  C 34.24480096 2.095679615999984  33.895359039999995 1.4102399039999796  33.51904096 0.8457595871999501  L 32.60512096 1.181759951999993  C 32.994879039999994 1.719359423999947  33.31744096 2.297279615999969  33.586240000000004 2.8886398079999935  Z " stroke-width="0" stroke-dasharray="0" stroke="rgba(255, 255, 255, 0)" fill="none" transform="matrix(1 0 0 1 1778 407 )" class="stroke" mask="url(#Clip3819)" />
    <path d="M 47.80576096 3.305279807999966  L 41.233599999999996 3.305279807999966  L 41.233599999999996 4.246079903999998  L 47.85951999999999 4.246079903999998  C 47.96704 5.939519808  48.16863904 7.417919807999965  48.47776096 8.694720191999977  C 49.284160959999994 11.62464  50.27872095999999 13.129920000000027  51.474879040000005 13.183679999999981  C 52.16032 13.170239999999978  52.71136095999999 12.189120000000003  53.11455904 10.25376  L 52.24095904000001 9.79679990400001  C 51.958720959999994 11.302080000000046  51.67648192 12.068160000000034  51.40767903999999 12.108479999999986  C 50.96416095999999 12.108479999999986  50.45344 11.35584  49.88896288000001 9.877439616000004  C 49.36480096 8.372159711999984  49.01535903999999 6.503999615999987  48.854079999999996 4.246079903999998  L 52.95327999999999 4.246079903999998  L 52.95327999999999 3.305279807999966  L 48.80032 3.305279807999966  C 48.75999999999999 2.552639424000006  48.74655999999999 1.7596792319999963  48.74655999999999 0.9263992319999943  L 47.752000960000004 0.9263992319999943  C 47.752000960000004 1.7462393279999446  47.76544095999999 2.539199519999954  47.80576096 3.305279807999966  Z " stroke-width="0" stroke-dasharray="0" stroke="rgba(255, 255, 255, 0)" fill="none" transform="matrix(1 0 0 1 1778 407 )" class="stroke" mask="url(#Clip3819)" />
    <path d="M 47.133759999999995 6.47711971199999  L 41.43519904 6.47711971199999  L 41.43519904 7.3910399039999675  L 43.80064 7.3910399039999675  L 43.80064 11.060159999999996  C 42.940479999999994 11.194560000000024  42.05344000000001 11.328959999999995  41.166399999999996 11.436480000000017  L 41.394879040000006 12.35039999999998  C 43.625919999999994 12.02783999999997  45.72255903999999 11.638080000000002  47.65792096 11.167679999999962  L 47.65792096 10.226879999999994  C 46.71712192000001 10.468799999999987  45.76287807999999 10.697280000000035  44.768319039999994 10.885440000000017  L 44.768319039999994 7.3910399039999675  L 47.133759999999995 7.3910399039999675  L 47.133759999999995 6.47711971199999  Z " stroke-width="0" stroke-dasharray="0" stroke="rgba(255, 255, 255, 0)" fill="none" transform="matrix(1 0 0 1 1778 407 )" class="stroke" mask="url(#Clip3819)" />
    <path d="M 52.03935999999999 2.7676794239999936  C 51.636161920000006 2.1225595199999816  51.21951999999999 1.531199327999957  50.775998079999994 0.993599856000003  L 49.96960192 1.383359999999982  C 50.42655999999998 1.9075195199999937  50.84319807999999 2.4988797120000186  51.23295999999999 3.1708795199999713  L 52.03935999999999 2.7676794239999936  Z " stroke-width="0" stroke-dasharray="0" stroke="rgba(255, 255, 255, 0)" fill="none" transform="matrix(1 0 0 1 1778 407 )" class="stroke" mask="url(#Clip3819)" />
  </g>
</svg>