<?xml version="1.0" encoding="utf-8"?>
<svg version="1.1" xmlns:xlink="http://www.w3.org/1999/xlink" width="54px" height="13px" xmlns="http://www.w3.org/2000/svg">
  <defs>
    <pattern id="BGPattern" patternUnits="userSpaceOnUse" alignment="0 0" imageRepeat="None" />
    <mask fill="white" id="Clip3826">
      <path d="M 5.038400000000024 6.28063961600003  C 5.7238401920000115 5.501119807999999  6.274880096000004 4.4796797120000065  6.691520096000033 3.229760096000007  L 11.570240959999978 3.229760096000007  C 11.301440000000014 4.278079711999965  10.965440959999967 5.218879711999989  10.548800959999994 6.052159711999991  L 11.503039999999999 6.320959904000006  C 11.95999999999998 5.205439711999986  12.322879999999998 4.076479615999972  12.60512 2.9340796159999627  L 12.60512 2.3023996160000024  L 6.960320287999991 2.3023996160000024  C 7.108160096000006 1.711039423999978  7.229119999999966 1.0659195199999658  7.3366399999999885 0.3670397983999578  L 6.368960096000023 0.219199519999961  C 6.046400192000021 2.5577594239999826  5.334080000000029 4.399039615999982  4.232000287999995 5.716159807999986  L 5.038400000000024 6.28063961600003  Z M 9.016639999999995 4.143679808000002  L 8.07584048000001 4.143679808000002  C 8.048960576000013 5.8908799999999815  7.820480191999991 7.342400096000005  7.39040019199996 8.484800096000015  C 6.785600095999995 9.828799999999944  5.576000383999997 10.957760000000007  3.7481600959999923 11.84480000000002  L 4.3798400960000095 12.610880000000009  C 6.449600191999991 11.589439999999968  7.766720383999996 10.272320000000036  8.344640191999986 8.65952028800001  C 8.45216067199999 8.363839712000015  8.54624019199997 8.05472019199999  8.626879903999964 7.718719808000003  C 9.487040672000035 9.654080000000022  10.777280960000041 11.266880000000015  12.524479999999983 12.584000000000003  L 13.156159999999943 11.84480000000002  C 11.126719999999978 10.447039999999959  9.715520672000025 8.551999808000005  8.909120480000013 6.159679712000013  C 8.976320191999946 5.541439711999999  9.016639999999995 4.869439807999981  9.016639999999995 4.143679808000002  Z M 4.070720096000002 3.5791999999999575  C 3.506239999999991 2.7996801920000394  2.6998400960000026 1.8857596159999732  1.651520096000013 0.8374396159999834  L 0.872000048000018 1.3212793280000028  C 1.8934400959999493 2.342719423999995  2.7132799999999975 3.2835199040000025  3.318080096000017 4.116799904000004  L 4.070720096000002 3.5791999999999575  Z M 4.137920192000024 6.925759999999968  L 3.2912000000000035 6.603200095999966  C 2.565439999999967 8.35039980800002  1.718719999999962 10.070719999999994  0.7241599999999835 11.750720000000001  L 1.6246400960000074 12.153919999999971  C 2.551999999999964 10.527679999999975  3.385280095999974 8.780479711999988  4.137920192000024 6.925759999999968  Z M 25 12.51679999999999  L 25 0.7971197119999829  L 17 0.7971197119999829  L 17 12.530239999999992  L 17.309120959999973 12.530239999999992  L 17.309120959999973 11.495360000000005  L 23.666240000000016 11.495360000000005  L 23.666240000000016 12.51679999999999  L 25 12.51679999999999  Z M 23.666240000000016 10.55455999999998  L 17.309120959999973 10.55455999999998  L 17.309120959999973 6.509119999999995  L 23.666240000000016 6.509119999999995  L 23.666240000000016 10.55455999999998  Z M 23.666240000000016 5.5683199999999715  L 17.309120959999973 5.5683199999999715  L 17.309120959999973 1.7379193279999756  L 23.666240000000016 1.7379193279999756  L 23.666240000000016 5.5683199999999715  Z M 34.673599999999965 11.293759999999963  L 34.673599999999965 10.339519999999993  C 33.759679999999946 10.541119999999978  32.832320960000004 10.729280000000017  31.878080959999973 10.890559999999994  L 31.878080959999973 8.511680000000013  L 34.29728191999999 8.511680000000013  L 34.29728191999999 7.570879520000005  L 31.878080959999973 7.570879520000005  L 31.878080959999973 6.011839903999999  L 30.91039999999998 6.011839903999999  L 30.91039999999998 7.570879520000005  L 28.289600000000007 7.570879520000005  L 28.289600000000007 8.511680000000013  L 30.91039999999998 8.511680000000013  L 30.91039999999998 11.05183999999997  C 29.888960959999963 11.213120000000004  28.840640000000008 11.347520000000031  27.76544095999998 11.46848  L 27.980480000000004 12.395840000000021  C 30.372799999999984 12.100160000000017  32.60384191999998 11.723839999999996  34.673599999999965 11.293759999999963  Z M 34.619839999999954 0.8508795199999781  L 27.94015999999999 0.8508795199999781  L 27.94015999999999 1.7648000959999877  L 30.144319039999967 1.7648000959999877  C 29.37824095999997 3.310399808  28.719679999999983 4.318399999999997  28.16864096000001 4.80223971199996  C 28.07455904 4.842559999999992  27.94015999999999 4.869439807999981  27.778880959999977 4.896319711999979  L 28.007360000000006 5.769920000000013  C 30.02335999999997 5.5683199999999715  31.89152095999998 5.3129597120000085  33.58496095999999 5.017279615999996  C 33.80000000000001 5.3801599039999815  33.98815904000003 5.729599807999989  34.162878079999984 6.079039615999989  L 34.969281920000014 5.514559808000001  C 34.485440960000005 4.6140796159999695  33.80000000000001 3.5523196159999775  32.899519999999995 2.342719423999995  L 32.16032000000001 2.826560096000037  C 32.523198079999986 3.3238397119999945  32.85919999999999 3.807679903999997  33.15487903999997 4.291519616000016  C 31.945280959999987 4.506559616000004  30.681920960000017 4.6678398079999965  29.35136095999997 4.80223971199996  C 29.915840000000003 4.116799904000004  30.520640000000014 3.108799712000007  31.165760959999943 1.7648000959999877  L 34.619839999999954 1.7648000959999877  L 34.619839999999954 0.8508795199999781  Z M 36.19232096000002 12.463039999999978  L 38.167999039999984 12.463039999999978  C 38.97439903999998 12.463039999999978  39.39104096 12.046399999999949  39 11.226560000000006  L 39 0.2998400864000246  L 38 0.2998400864000246  L 38 10.984639999999956  C 38.40992191999999 11.37439999999998  38.20831903999999 11.576000000000022  37.83200095999996 11.576000000000022  C 37.240639999999985 11.576000000000022  36.62240191999996 11.549120000000016  35.977281919999996 11.522239999999954  L 36.19232096000002 12.463039999999978  Z M 36.662721920000024 1.5094394239999929  L 35.72191903999999 1.5094394239999929  L 35.72191903999999 9.828799999999944  L 36.662721920000024 9.828799999999944  L 36.662721920000024 1.5094394239999929  Z M 46.25888096 9.237439616000017  L 46.25888096 0.7971197119999829  L 41.608639040000014 0.7971197119999829  L 41.608639040000014 9.237439616000017  L 42.49567903999997 9.237439616000017  L 42.49567903999997 1.697599519999983  L 45.39872095999999 1.697599519999983  L 45.39872095999999 9.237439616000017  L 46.25888096 9.237439616000017  Z M 44.336961919999965 2.6787198079999825  L 43.50368191999996 2.6787198079999825  L 43.50368191999996 7.046719999999994  C 43.47680191999996 8.269760096000027  43.302079040000024 9.264319424000007  42.97951999999998 10.043839999999989  C 42.630078079999976 10.783039999999971  41.998400960000026 11.37439999999998  41.111360959999956 11.817919999999958  L 41.63551903999996 12.624320000000012  C 42.576318079999965 12.153919999999971  43.248319039999956 11.495360000000005  43.66496095999997 10.662080000000003  C 44.09503903999996 9.761599999999987  44.31008191999996 8.551999808000005  44.336961919999965 7.046719999999994  L 44.336961919999965 2.6787198079999825  Z M 46.66207904000004 11.831359999999961  C 46.16480095999998 11.105600000000038  45.54656 10.366399999999999  44.793920000000014 9.613759999999957  L 44.17567903999998 10.218559999999968  C 44.941759039999965 11.024960000000021  45.54656 11.79104000000001  45.97663807999999 12.51679999999999  L 46.66207904000004 11.831359999999961  Z M 48.73184095999994 6.764479807999976  L 49.91455903999997 6.764479807999976  C 50.55967999999996 9.264319424000007  51.52735999999999 11.172799999999995  52.79072095999999 12.463039999999978  L 53.449281919999976 11.710399999999993  C 52.27999999999997 10.55455999999998  51.379520000000014 8.91488009599999  50.76127903999998 6.764479807999976  L 53.19391999999999 6.764479807999976  L 53.19391999999999 5.8236798080000085  L 48.73184095999994 5.8236798080000085  L 48.73184095999994 0.2729592896000099  L 47.791040959999975 0.2729592896000099  L 47.791040959999975 5.8236798080000085  L 46.823361920000025 5.8236798080000085  L 46.823361920000025 6.764479807999976  L 47.791040959999975 6.764479807999976  L 47.791040959999975 11.28031999999996  C 47.791040959999975 11.46848  47.683521919999976 11.60287999999997  47.48191903999998 11.69695999999999  L 47.885120959999995 12.557119999999998  C 48.960320000000024 12.221119999999985  49.90111903999997 11.79104000000001  50.73439903999997 11.266880000000015  L 50.55967999999996 10.406720000000007  C 49.941439040000034 10.796480000000031  49.32319808 11.105600000000038  48.73184095999994 11.334080000000029  L 48.73184095999994 6.764479807999976  Z M 52.99232096000003 1.4825595199999952  L 52.25311999999997 0.8777594239999758  C 51.392960000000016 2.3158395199999973  50.358080959999995 3.3910394239999846  49.148479039999984 4.089919615999975  L 49.67264 4.842559999999992  C 50.93599807999999 4.116799904000004  52.051520960000005 2.987839328000007  52.99232096000003 1.4825595199999952  Z " fill-rule="evenodd" />
    </mask>
  </defs>
  <g transform="matrix(1 0 0 1 -2038 -375 )">
    <path d="M 5.038400000000024 6.28063961600003  C 5.7238401920000115 5.501119807999999  6.274880096000004 4.4796797120000065  6.691520096000033 3.229760096000007  L 11.570240959999978 3.229760096000007  C 11.301440000000014 4.278079711999965  10.965440959999967 5.218879711999989  10.548800959999994 6.052159711999991  L 11.503039999999999 6.320959904000006  C 11.95999999999998 5.205439711999986  12.322879999999998 4.076479615999972  12.60512 2.9340796159999627  L 12.60512 2.3023996160000024  L 6.960320287999991 2.3023996160000024  C 7.108160096000006 1.711039423999978  7.229119999999966 1.0659195199999658  7.3366399999999885 0.3670397983999578  L 6.368960096000023 0.219199519999961  C 6.046400192000021 2.5577594239999826  5.334080000000029 4.399039615999982  4.232000287999995 5.716159807999986  L 5.038400000000024 6.28063961600003  Z M 9.016639999999995 4.143679808000002  L 8.07584048000001 4.143679808000002  C 8.048960576000013 5.8908799999999815  7.820480191999991 7.342400096000005  7.39040019199996 8.484800096000015  C 6.785600095999995 9.828799999999944  5.576000383999997 10.957760000000007  3.7481600959999923 11.84480000000002  L 4.3798400960000095 12.610880000000009  C 6.449600191999991 11.589439999999968  7.766720383999996 10.272320000000036  8.344640191999986 8.65952028800001  C 8.45216067199999 8.363839712000015  8.54624019199997 8.05472019199999  8.626879903999964 7.718719808000003  C 9.487040672000035 9.654080000000022  10.777280960000041 11.266880000000015  12.524479999999983 12.584000000000003  L 13.156159999999943 11.84480000000002  C 11.126719999999978 10.447039999999959  9.715520672000025 8.551999808000005  8.909120480000013 6.159679712000013  C 8.976320191999946 5.541439711999999  9.016639999999995 4.869439807999981  9.016639999999995 4.143679808000002  Z M 4.070720096000002 3.5791999999999575  C 3.506239999999991 2.7996801920000394  2.6998400960000026 1.8857596159999732  1.651520096000013 0.8374396159999834  L 0.872000048000018 1.3212793280000028  C 1.8934400959999493 2.342719423999995  2.7132799999999975 3.2835199040000025  3.318080096000017 4.116799904000004  L 4.070720096000002 3.5791999999999575  Z M 4.137920192000024 6.925759999999968  L 3.2912000000000035 6.603200095999966  C 2.565439999999967 8.35039980800002  1.718719999999962 10.070719999999994  0.7241599999999835 11.750720000000001  L 1.6246400960000074 12.153919999999971  C 2.551999999999964 10.527679999999975  3.385280095999974 8.780479711999988  4.137920192000024 6.925759999999968  Z M 25 12.51679999999999  L 25 0.7971197119999829  L 17 0.7971197119999829  L 17 12.530239999999992  L 17.309120959999973 12.530239999999992  L 17.309120959999973 11.495360000000005  L 23.666240000000016 11.495360000000005  L 23.666240000000016 12.51679999999999  L 25 12.51679999999999  Z M 23.666240000000016 10.55455999999998  L 17.309120959999973 10.55455999999998  L 17.309120959999973 6.509119999999995  L 23.666240000000016 6.509119999999995  L 23.666240000000016 10.55455999999998  Z M 23.666240000000016 5.5683199999999715  L 17.309120959999973 5.5683199999999715  L 17.309120959999973 1.7379193279999756  L 23.666240000000016 1.7379193279999756  L 23.666240000000016 5.5683199999999715  Z M 34.673599999999965 11.293759999999963  L 34.673599999999965 10.339519999999993  C 33.759679999999946 10.541119999999978  32.832320960000004 10.729280000000017  31.878080959999973 10.890559999999994  L 31.878080959999973 8.511680000000013  L 34.29728191999999 8.511680000000013  L 34.29728191999999 7.570879520000005  L 31.878080959999973 7.570879520000005  L 31.878080959999973 6.011839903999999  L 30.91039999999998 6.011839903999999  L 30.91039999999998 7.570879520000005  L 28.289600000000007 7.570879520000005  L 28.289600000000007 8.511680000000013  L 30.91039999999998 8.511680000000013  L 30.91039999999998 11.05183999999997  C 29.888960959999963 11.213120000000004  28.840640000000008 11.347520000000031  27.76544095999998 11.46848  L 27.980480000000004 12.395840000000021  C 30.372799999999984 12.100160000000017  32.60384191999998 11.723839999999996  34.673599999999965 11.293759999999963  Z M 34.619839999999954 0.8508795199999781  L 27.94015999999999 0.8508795199999781  L 27.94015999999999 1.7648000959999877  L 30.144319039999967 1.7648000959999877  C 29.37824095999997 3.310399808  28.719679999999983 4.318399999999997  28.16864096000001 4.80223971199996  C 28.07455904 4.842559999999992  27.94015999999999 4.869439807999981  27.778880959999977 4.896319711999979  L 28.007360000000006 5.769920000000013  C 30.02335999999997 5.5683199999999715  31.89152095999998 5.3129597120000085  33.58496095999999 5.017279615999996  C 33.80000000000001 5.3801599039999815  33.98815904000003 5.729599807999989  34.162878079999984 6.079039615999989  L 34.969281920000014 5.514559808000001  C 34.485440960000005 4.6140796159999695  33.80000000000001 3.5523196159999775  32.899519999999995 2.342719423999995  L 32.16032000000001 2.826560096000037  C 32.523198079999986 3.3238397119999945  32.85919999999999 3.807679903999997  33.15487903999997 4.291519616000016  C 31.945280959999987 4.506559616000004  30.681920960000017 4.6678398079999965  29.35136095999997 4.80223971199996  C 29.915840000000003 4.116799904000004  30.520640000000014 3.108799712000007  31.165760959999943 1.7648000959999877  L 34.619839999999954 1.7648000959999877  L 34.619839999999954 0.8508795199999781  Z M 36.19232096000002 12.463039999999978  L 38.167999039999984 12.463039999999978  C 38.97439903999998 12.463039999999978  39.39104096 12.046399999999949  39 11.226560000000006  L 39 0.2998400864000246  L 38 0.2998400864000246  L 38 10.984639999999956  C 38.40992191999999 11.37439999999998  38.20831903999999 11.576000000000022  37.83200095999996 11.576000000000022  C 37.240639999999985 11.576000000000022  36.62240191999996 11.549120000000016  35.977281919999996 11.522239999999954  L 36.19232096000002 12.463039999999978  Z M 36.662721920000024 1.5094394239999929  L 35.72191903999999 1.5094394239999929  L 35.72191903999999 9.828799999999944  L 36.662721920000024 9.828799999999944  L 36.662721920000024 1.5094394239999929  Z M 46.25888096 9.237439616000017  L 46.25888096 0.7971197119999829  L 41.608639040000014 0.7971197119999829  L 41.608639040000014 9.237439616000017  L 42.49567903999997 9.237439616000017  L 42.49567903999997 1.697599519999983  L 45.39872095999999 1.697599519999983  L 45.39872095999999 9.237439616000017  L 46.25888096 9.237439616000017  Z M 44.336961919999965 2.6787198079999825  L 43.50368191999996 2.6787198079999825  L 43.50368191999996 7.046719999999994  C 43.47680191999996 8.269760096000027  43.302079040000024 9.264319424000007  42.97951999999998 10.043839999999989  C 42.630078079999976 10.783039999999971  41.998400960000026 11.37439999999998  41.111360959999956 11.817919999999958  L 41.63551903999996 12.624320000000012  C 42.576318079999965 12.153919999999971  43.248319039999956 11.495360000000005  43.66496095999997 10.662080000000003  C 44.09503903999996 9.761599999999987  44.31008191999996 8.551999808000005  44.336961919999965 7.046719999999994  L 44.336961919999965 2.6787198079999825  Z M 46.66207904000004 11.831359999999961  C 46.16480095999998 11.105600000000038  45.54656 10.366399999999999  44.793920000000014 9.613759999999957  L 44.17567903999998 10.218559999999968  C 44.941759039999965 11.024960000000021  45.54656 11.79104000000001  45.97663807999999 12.51679999999999  L 46.66207904000004 11.831359999999961  Z M 48.73184095999994 6.764479807999976  L 49.91455903999997 6.764479807999976  C 50.55967999999996 9.264319424000007  51.52735999999999 11.172799999999995  52.79072095999999 12.463039999999978  L 53.449281919999976 11.710399999999993  C 52.27999999999997 10.55455999999998  51.379520000000014 8.91488009599999  50.76127903999998 6.764479807999976  L 53.19391999999999 6.764479807999976  L 53.19391999999999 5.8236798080000085  L 48.73184095999994 5.8236798080000085  L 48.73184095999994 0.2729592896000099  L 47.791040959999975 0.2729592896000099  L 47.791040959999975 5.8236798080000085  L 46.823361920000025 5.8236798080000085  L 46.823361920000025 6.764479807999976  L 47.791040959999975 6.764479807999976  L 47.791040959999975 11.28031999999996  C 47.791040959999975 11.46848  47.683521919999976 11.60287999999997  47.48191903999998 11.69695999999999  L 47.885120959999995 12.557119999999998  C 48.960320000000024 12.221119999999985  49.90111903999997 11.79104000000001  50.73439903999997 11.266880000000015  L 50.55967999999996 10.406720000000007  C 49.941439040000034 10.796480000000031  49.32319808 11.105600000000038  48.73184095999994 11.334080000000029  L 48.73184095999994 6.764479807999976  Z M 52.99232096000003 1.4825595199999952  L 52.25311999999997 0.8777594239999758  C 51.392960000000016 2.3158395199999973  50.358080959999995 3.3910394239999846  49.148479039999984 4.089919615999975  L 49.67264 4.842559999999992  C 50.93599807999999 4.116799904000004  52.051520960000005 2.987839328000007  52.99232096000003 1.4825595199999952  Z " fill-rule="nonzero" fill="rgba(51, 51, 51, 1)" stroke="none" transform="matrix(1 0 0 1 2038 375 )" class="fill" />
    <path d="M 5.038400000000024 6.28063961600003  C 5.7238401920000115 5.501119807999999  6.274880096000004 4.4796797120000065  6.691520096000033 3.229760096000007  L 11.570240959999978 3.229760096000007  C 11.301440000000014 4.278079711999965  10.965440959999967 5.218879711999989  10.548800959999994 6.052159711999991  L 11.503039999999999 6.320959904000006  C 11.95999999999998 5.205439711999986  12.322879999999998 4.076479615999972  12.60512 2.9340796159999627  L 12.60512 2.3023996160000024  L 6.960320287999991 2.3023996160000024  C 7.108160096000006 1.711039423999978  7.229119999999966 1.0659195199999658  7.3366399999999885 0.3670397983999578  L 6.368960096000023 0.219199519999961  C 6.046400192000021 2.5577594239999826  5.334080000000029 4.399039615999982  4.232000287999995 5.716159807999986  L 5.038400000000024 6.28063961600003  Z " stroke-width="0" stroke-dasharray="0" stroke="rgba(255, 255, 255, 0)" fill="none" transform="matrix(1 0 0 1 2038 375 )" class="stroke" mask="url(#Clip3826)" />
    <path d="M 9.016639999999995 4.143679808000002  L 8.07584048000001 4.143679808000002  C 8.048960576000013 5.8908799999999815  7.820480191999991 7.342400096000005  7.39040019199996 8.484800096000015  C 6.785600095999995 9.828799999999944  5.576000383999997 10.957760000000007  3.7481600959999923 11.84480000000002  L 4.3798400960000095 12.610880000000009  C 6.449600191999991 11.589439999999968  7.766720383999996 10.272320000000036  8.344640191999986 8.65952028800001  C 8.45216067199999 8.363839712000015  8.54624019199997 8.05472019199999  8.626879903999964 7.718719808000003  C 9.487040672000035 9.654080000000022  10.777280960000041 11.266880000000015  12.524479999999983 12.584000000000003  L 13.156159999999943 11.84480000000002  C 11.126719999999978 10.447039999999959  9.715520672000025 8.551999808000005  8.909120480000013 6.159679712000013  C 8.976320191999946 5.541439711999999  9.016639999999995 4.869439807999981  9.016639999999995 4.143679808000002  Z " stroke-width="0" stroke-dasharray="0" stroke="rgba(255, 255, 255, 0)" fill="none" transform="matrix(1 0 0 1 2038 375 )" class="stroke" mask="url(#Clip3826)" />
    <path d="M 4.070720096000002 3.5791999999999575  C 3.506239999999991 2.7996801920000394  2.6998400960000026 1.8857596159999732  1.651520096000013 0.8374396159999834  L 0.872000048000018 1.3212793280000028  C 1.8934400959999493 2.342719423999995  2.7132799999999975 3.2835199040000025  3.318080096000017 4.116799904000004  L 4.070720096000002 3.5791999999999575  Z " stroke-width="0" stroke-dasharray="0" stroke="rgba(255, 255, 255, 0)" fill="none" transform="matrix(1 0 0 1 2038 375 )" class="stroke" mask="url(#Clip3826)" />
    <path d="M 4.137920192000024 6.925759999999968  L 3.2912000000000035 6.603200095999966  C 2.565439999999967 8.35039980800002  1.718719999999962 10.070719999999994  0.7241599999999835 11.750720000000001  L 1.6246400960000074 12.153919999999971  C 2.551999999999964 10.527679999999975  3.385280095999974 8.780479711999988  4.137920192000024 6.925759999999968  Z " stroke-width="0" stroke-dasharray="0" stroke="rgba(255, 255, 255, 0)" fill="none" transform="matrix(1 0 0 1 2038 375 )" class="stroke" mask="url(#Clip3826)" />
    <path d="M 25 12.51679999999999  L 25 0.7971197119999829  L 17 0.7971197119999829  L 17 12.530239999999992  L 17.309120959999973 12.530239999999992  L 17.309120959999973 11.495360000000005  L 23.666240000000016 11.495360000000005  L 23.666240000000016 12.51679999999999  L 25 12.51679999999999  Z " stroke-width="0" stroke-dasharray="0" stroke="rgba(255, 255, 255, 0)" fill="none" transform="matrix(1 0 0 1 2038 375 )" class="stroke" mask="url(#Clip3826)" />
    <path d="M 23.666240000000016 10.55455999999998  L 17.309120959999973 10.55455999999998  L 17.309120959999973 6.509119999999995  L 23.666240000000016 6.509119999999995  L 23.666240000000016 10.55455999999998  Z " stroke-width="0" stroke-dasharray="0" stroke="rgba(255, 255, 255, 0)" fill="none" transform="matrix(1 0 0 1 2038 375 )" class="stroke" mask="url(#Clip3826)" />
    <path d="M 23.666240000000016 5.5683199999999715  L 17.309120959999973 5.5683199999999715  L 17.309120959999973 1.7379193279999756  L 23.666240000000016 1.7379193279999756  L 23.666240000000016 5.5683199999999715  Z " stroke-width="0" stroke-dasharray="0" stroke="rgba(255, 255, 255, 0)" fill="none" transform="matrix(1 0 0 1 2038 375 )" class="stroke" mask="url(#Clip3826)" />
    <path d="M 34.673599999999965 11.293759999999963  L 34.673599999999965 10.339519999999993  C 33.759679999999946 10.541119999999978  32.832320960000004 10.729280000000017  31.878080959999973 10.890559999999994  L 31.878080959999973 8.511680000000013  L 34.29728191999999 8.511680000000013  L 34.29728191999999 7.570879520000005  L 31.878080959999973 7.570879520000005  L 31.878080959999973 6.011839903999999  L 30.91039999999998 6.011839903999999  L 30.91039999999998 7.570879520000005  L 28.289600000000007 7.570879520000005  L 28.289600000000007 8.511680000000013  L 30.91039999999998 8.511680000000013  L 30.91039999999998 11.05183999999997  C 29.888960959999963 11.213120000000004  28.840640000000008 11.347520000000031  27.76544095999998 11.46848  L 27.980480000000004 12.395840000000021  C 30.372799999999984 12.100160000000017  32.60384191999998 11.723839999999996  34.673599999999965 11.293759999999963  Z " stroke-width="0" stroke-dasharray="0" stroke="rgba(255, 255, 255, 0)" fill="none" transform="matrix(1 0 0 1 2038 375 )" class="stroke" mask="url(#Clip3826)" />
    <path d="M 34.619839999999954 0.8508795199999781  L 27.94015999999999 0.8508795199999781  L 27.94015999999999 1.7648000959999877  L 30.144319039999967 1.7648000959999877  C 29.37824095999997 3.310399808  28.719679999999983 4.318399999999997  28.16864096000001 4.80223971199996  C 28.07455904 4.842559999999992  27.94015999999999 4.869439807999981  27.778880959999977 4.896319711999979  L 28.007360000000006 5.769920000000013  C 30.02335999999997 5.5683199999999715  31.89152095999998 5.3129597120000085  33.58496095999999 5.017279615999996  C 33.80000000000001 5.3801599039999815  33.98815904000003 5.729599807999989  34.162878079999984 6.079039615999989  L 34.969281920000014 5.514559808000001  C 34.485440960000005 4.6140796159999695  33.80000000000001 3.5523196159999775  32.899519999999995 2.342719423999995  L 32.16032000000001 2.826560096000037  C 32.523198079999986 3.3238397119999945  32.85919999999999 3.807679903999997  33.15487903999997 4.291519616000016  C 31.945280959999987 4.506559616000004  30.681920960000017 4.6678398079999965  29.35136095999997 4.80223971199996  C 29.915840000000003 4.116799904000004  30.520640000000014 3.108799712000007  31.165760959999943 1.7648000959999877  L 34.619839999999954 1.7648000959999877  L 34.619839999999954 0.8508795199999781  Z " stroke-width="0" stroke-dasharray="0" stroke="rgba(255, 255, 255, 0)" fill="none" transform="matrix(1 0 0 1 2038 375 )" class="stroke" mask="url(#Clip3826)" />
    <path d="M 36.19232096000002 12.463039999999978  L 38.167999039999984 12.463039999999978  C 38.97439903999998 12.463039999999978  39.39104096 12.046399999999949  39 11.226560000000006  L 39 0.2998400864000246  L 38 0.2998400864000246  L 38 10.984639999999956  C 38.40992191999999 11.37439999999998  38.20831903999999 11.576000000000022  37.83200095999996 11.576000000000022  C 37.240639999999985 11.576000000000022  36.62240191999996 11.549120000000016  35.977281919999996 11.522239999999954  L 36.19232096000002 12.463039999999978  Z " stroke-width="0" stroke-dasharray="0" stroke="rgba(255, 255, 255, 0)" fill="none" transform="matrix(1 0 0 1 2038 375 )" class="stroke" mask="url(#Clip3826)" />
    <path d="M 36.662721920000024 1.5094394239999929  L 35.72191903999999 1.5094394239999929  L 35.72191903999999 9.828799999999944  L 36.662721920000024 9.828799999999944  L 36.662721920000024 1.5094394239999929  Z " stroke-width="0" stroke-dasharray="0" stroke="rgba(255, 255, 255, 0)" fill="none" transform="matrix(1 0 0 1 2038 375 )" class="stroke" mask="url(#Clip3826)" />
    <path d="M 46.25888096 9.237439616000017  L 46.25888096 0.7971197119999829  L 41.608639040000014 0.7971197119999829  L 41.608639040000014 9.237439616000017  L 42.49567903999997 9.237439616000017  L 42.49567903999997 1.697599519999983  L 45.39872095999999 1.697599519999983  L 45.39872095999999 9.237439616000017  L 46.25888096 9.237439616000017  Z " stroke-width="0" stroke-dasharray="0" stroke="rgba(255, 255, 255, 0)" fill="none" transform="matrix(1 0 0 1 2038 375 )" class="stroke" mask="url(#Clip3826)" />
    <path d="M 44.336961919999965 2.6787198079999825  L 43.50368191999996 2.6787198079999825  L 43.50368191999996 7.046719999999994  C 43.47680191999996 8.269760096000027  43.302079040000024 9.264319424000007  42.97951999999998 10.043839999999989  C 42.630078079999976 10.783039999999971  41.998400960000026 11.37439999999998  41.111360959999956 11.817919999999958  L 41.63551903999996 12.624320000000012  C 42.576318079999965 12.153919999999971  43.248319039999956 11.495360000000005  43.66496095999997 10.662080000000003  C 44.09503903999996 9.761599999999987  44.31008191999996 8.551999808000005  44.336961919999965 7.046719999999994  L 44.336961919999965 2.6787198079999825  Z " stroke-width="0" stroke-dasharray="0" stroke="rgba(255, 255, 255, 0)" fill="none" transform="matrix(1 0 0 1 2038 375 )" class="stroke" mask="url(#Clip3826)" />
    <path d="M 46.66207904000004 11.831359999999961  C 46.16480095999998 11.105600000000038  45.54656 10.366399999999999  44.793920000000014 9.613759999999957  L 44.17567903999998 10.218559999999968  C 44.941759039999965 11.024960000000021  45.54656 11.79104000000001  45.97663807999999 12.51679999999999  L 46.66207904000004 11.831359999999961  Z " stroke-width="0" stroke-dasharray="0" stroke="rgba(255, 255, 255, 0)" fill="none" transform="matrix(1 0 0 1 2038 375 )" class="stroke" mask="url(#Clip3826)" />
    <path d="M 48.73184095999994 6.764479807999976  L 49.91455903999997 6.764479807999976  C 50.55967999999996 9.264319424000007  51.52735999999999 11.172799999999995  52.79072095999999 12.463039999999978  L 53.449281919999976 11.710399999999993  C 52.27999999999997 10.55455999999998  51.379520000000014 8.91488009599999  50.76127903999998 6.764479807999976  L 53.19391999999999 6.764479807999976  L 53.19391999999999 5.8236798080000085  L 48.73184095999994 5.8236798080000085  L 48.73184095999994 0.2729592896000099  L 47.791040959999975 0.2729592896000099  L 47.791040959999975 5.8236798080000085  L 46.823361920000025 5.8236798080000085  L 46.823361920000025 6.764479807999976  L 47.791040959999975 6.764479807999976  L 47.791040959999975 11.28031999999996  C 47.791040959999975 11.46848  47.683521919999976 11.60287999999997  47.48191903999998 11.69695999999999  L 47.885120959999995 12.557119999999998  C 48.960320000000024 12.221119999999985  49.90111903999997 11.79104000000001  50.73439903999997 11.266880000000015  L 50.55967999999996 10.406720000000007  C 49.941439040000034 10.796480000000031  49.32319808 11.105600000000038  48.73184095999994 11.334080000000029  L 48.73184095999994 6.764479807999976  Z " stroke-width="0" stroke-dasharray="0" stroke="rgba(255, 255, 255, 0)" fill="none" transform="matrix(1 0 0 1 2038 375 )" class="stroke" mask="url(#Clip3826)" />
    <path d="M 52.99232096000003 1.4825595199999952  L 52.25311999999997 0.8777594239999758  C 51.392960000000016 2.3158395199999973  50.358080959999995 3.3910394239999846  49.148479039999984 4.089919615999975  L 49.67264 4.842559999999992  C 50.93599807999999 4.116799904000004  52.051520960000005 2.987839328000007  52.99232096000003 1.4825595199999952  Z " stroke-width="0" stroke-dasharray="0" stroke="rgba(255, 255, 255, 0)" fill="none" transform="matrix(1 0 0 1 2038 375 )" class="stroke" mask="url(#Clip3826)" />
  </g>
</svg>