<?xml version="1.0" encoding="utf-8"?>
<svg version="1.1" xmlns:xlink="http://www.w3.org/1999/xlink" width="329px" height="42px" xmlns="http://www.w3.org/2000/svg">
  <defs>
    <linearGradient gradientUnits="userSpaceOnUse" x1="329.64" y1="20.799908103942784" x2="-9.240001117587992" y2="20.799907828569363" id="LinearGradient12627">
      <stop id="Stop12628" stop-color="#7555f7" offset="0" />
      <stop id="Stop12629" stop-color="#c669ff" offset="1" />
    </linearGradient>
    <pattern id="BGPattern" patternUnits="userSpaceOnUse" alignment="0 0" imageRepeat="None" />
    <mask fill="white" id="Clip12630">
      <path d="M 21 42  C 9.239999999999998 42  0 32.76  0 21  C 0 9.239999999999998  9.239999999999998 0  21 0  L 308 0  C 319.76 0  329 9.239999999999998  329 21  C 329 32.76  319.76 42  308 42  L 21 42  Z " fill-rule="evenodd" />
    </mask>
  </defs>
  <g transform="matrix(1 0 0 1 -1770 -616 )">
    <path d="M 21 42  C 9.239999999999998 42  0 32.76  0 21  C 0 9.239999999999998  9.239999999999998 0  21 0  L 308 0  C 319.76 0  329 9.239999999999998  329 21  C 329 32.76  319.76 42  308 42  L 21 42  Z " fill-rule="nonzero" fill="url(#LinearGradient12627)" stroke="none" transform="matrix(1 0 0 1 1770 616 )" class="fill" />
    <path d="M 21 42  C 9.239999999999998 42  0 32.76  0 21  C 0 9.239999999999998  9.239999999999998 0  21 0  L 308 0  C 319.76 0  329 9.239999999999998  329 21  C 329 32.76  319.76 42  308 42  L 21 42  Z " stroke-width="0" stroke-dasharray="0" stroke="rgba(255, 255, 255, 0)" fill="none" transform="matrix(1 0 0 1 1770 616 )" class="stroke" mask="url(#Clip12630)" />
  </g>
</svg>