<?xml version="1.0" encoding="utf-8"?>
<svg version="1.1" xmlns:xlink="http://www.w3.org/1999/xlink" width="53px" height="13px" xmlns="http://www.w3.org/2000/svg">
  <defs>
    <pattern id="BGPattern" patternUnits="userSpaceOnUse" alignment="0 0" imageRepeat="None" />
    <mask fill="white" id="Clip12601">
      <path d="M 1.048000095999999 12.743040000000008  L 2.2576001920000017 12.743040000000008  C 3.023679999999999 12.743040000000008  3.4134401919999955 12.353279999999984  3.4134401919999955 11.600639999999999  L 3.4134401919999955 7.635840000000029  C 3.8032000959999976 7.447679903999983  4.1929601919999975 7.259519807999993  4.569279903999998 7.057919808000007  L 4.569279903999998 6.07679990400004  C 4.1929601919999975 6.291839904000028  3.8032000959999976 6.480000000000018  3.4134401919999955 6.6681596159999685  L 3.4134401919999955 4.047359615999994  L 4.770879999999998 4.047359615999994  L 4.770879999999998 3.1200000000000045  L 3.4134401919999955 3.1200000000000045  L 3.4134401919999955 0.5798400863999973  L 2.4188801919999996 0.5798400863999973  L 2.4188801919999996 3.1200000000000045  L 0.7926400383999983 3.1200000000000045  L 0.7926400383999983 4.047359615999994  L 2.4188801919999996 4.047359615999994  L 2.4188801919999996 7.084799615999998  C 1.8275200959999973 7.313279999999963  1.236160095999999 7.5014397119999785  0.6313599999999973 7.649279903999968  L 0.8598400288000007 8.61695980799999  C 1.3840000959999976 8.455679615999998  1.9081600959999996 8.267519520000008  2.4188801919999996 8.065920384000037  L 2.4188801919999996 11.345280000000002  C 2.4188801919999996 11.681280000000015  2.2441599999999973 11.855999999999995  1.9216000000000018 11.855999999999995  C 1.572160096000001 11.855999999999995  1.222719999999999 11.829119999999989  0.8464000287999979 11.802239999999983  L 1.048000095999999 12.743040000000008  Z M 11.679040960000002 1.0099200000000224  L 5.819199999999999 1.0099200000000224  L 5.819199999999999 5.673599807999949  L 11.679040960000002 5.673599807999949  L 11.679040960000002 1.0099200000000224  Z M 10.738239999999998 3.7248000960000236  L 10.738239999999998 4.880639615999996  L 6.759999999999998 4.880639615999996  L 6.759999999999998 3.7248000960000236  L 10.738239999999998 3.7248000960000236  Z M 10.738239999999998 2.972159712000007  L 6.759999999999998 2.972159712000007  L 6.759999999999998 1.8028793280000173  L 10.738239999999998 1.8028793280000173  L 10.738239999999998 2.972159712000007  Z M 12.56608 6.614399904000038  L 4.878399999999999 6.614399904000038  L 4.878399999999999 7.474559807999981  L 8.278720672000002 7.474559807999981  L 8.278720672000002 11.399040000000014  C 8.157760287999999 11.358720000000005  8.050239903999998 11.318399999999997  7.956160287999996 11.278079999999989  C 7.391680479999997 11.022719999999993  6.894400288 10.444799999999987  6.4643203840000005 9.54431942399998  C 6.571840383999998 9.087359615999958  6.639040095999998 8.630399807999993  6.665920383999996 8.14656009600003  L 5.805759999999999 8.052479519999963  C 5.698240095999999 9.584640191999995  5.133760192 10.982399999999984  4.112320095999998 12.218880000000013  L 4.824640192 12.837120000000027  C 5.402559999999998 12.138239999999996  5.846080287999996 11.372160000000008  6.168640287999999 10.538880000000006  C 6.571840383999998 11.291519999999991  7.042240095999997 11.802239999999983  7.552960191999998 12.071039999999982  C 8.198080095999998 12.393599999999992  9.407680384000003 12.568319999999972  11.181759999999997 12.581759999999974  C 11.61184 12.581759999999974  12.109120959999998 12.595199999999977  12.646719999999995 12.595199999999977  L 12.915520960000002 11.654399999999953  C 12.418239999999997 11.694720000000018  11.813439999999993 11.721599999999967  11.114559999999997 11.721599999999967  C 10.375360960000002 11.721599999999967  9.743680959999999 11.681280000000015  9.206080287999995 11.600639999999999  L 9.206080287999995 9.866880000000037  L 12.015039999999999 9.866880000000037  L 12.015039999999999 8.99327999999997  L 9.206080287999995 8.99327999999997  L 9.206080287999995 7.474559807999981  L 12.56608 7.474559807999981  L 12.56608 6.614399904000038  Z M 25.280320000000003 8.509440288000008  L 25.280320000000003 1.0771197120000124  L 19.312959999999997 1.0771197120000124  L 19.312959999999997 8.509440288000008  L 20.267199999999995 8.509440288000008  L 20.267199999999995 2.004479328000002  L 24.299199999999992 2.004479328000002  L 24.299199999999992 8.509440288000008  L 25.280320000000003 8.509440288000008  Z M 23.586879999999994 12.648959999999988  L 24.98464096 12.648959999999988  C 25.41471904 12.648959999999988  25.737281919999994 12.541440000000023  25.95232096 12.339839999999981  C 26.180800000000005 12.097919999999988  26.342080959999997 11.41247999999996  26.422719999999998 10.310400000000016  L 25.522240959999998 10.028160000000014  C 25.46847904 10.861440000000016  25.387839039999996 11.372160000000008  25.280320000000003 11.546879999999987  C 25.186239999999998 11.681280000000015  25.02496096 11.761919999999975  24.809919999999998 11.761919999999975  L 23.869120959999997 11.761919999999975  C 23.586879999999994 11.761919999999975  23.45248 11.614080000000001  23.45248 11.331839999999943  L 23.45248 8.455679615999998  L 22.48480096 8.455679615999998  L 22.48480096 11.533439999999985  C 22.48480096 12.272639999999967  22.847679039999996 12.648959999999988  23.586879999999994 12.648959999999988  Z M 22.699839999999995 2.958719808000012  L 21.77248 2.958719808000012  L 21.77248 6.238079712000001  C 21.745600959999997 7.743359999999996  21.44992 8.966400192000037  20.912320960000002 9.907199999999989  C 20.33439904 10.79423903999998  19.312959999999997 11.519999999999982  17.861439039999993 12.084480000000042  L 18.385600959999998 12.904319999999984  C 19.89087904 12.339839999999981  20.966079999999998 11.546879999999987  21.611200959999998 10.552320000000009  C 22.2832 9.47711971199999  22.646079999999998 8.039039615999968  22.699839999999995 6.238079712000001  L 22.699839999999995 2.958719808000012  Z M 15.872320960000003 5.512319615999957  L 14.326719999999995 5.512319615999957  L 14.326719999999995 6.453119615999981  L 15.872320960000003 6.453119615999981  L 15.872320960000003 9.799680000000023  C 15.280959999999991 9.960959039999977  14.689599999999999 10.095360000000028  14.084800000000003 10.202879999999993  L 14.313279999999999 11.130240000000015  C 15.832000960000002 10.767359999999996  17.256639999999997 10.323840000000018  18.587199999999996 9.78624000000002  L 18.587199999999996 8.858879711999975  C 18.02272 9.087359615999958  17.458240960000005 9.302399616000002  16.866879999999995 9.503999615999987  L 16.866879999999995 6.453119615999981  L 18.372160960000002 6.453119615999981  L 18.372160960000002 5.512319615999957  L 16.866879999999995 5.512319615999957  L 16.866879999999995 2.3673596159999875  L 18.560319999999997 2.3673596159999875  L 18.560319999999997 1.4399999999999977  L 14.152000000000001 1.4399999999999977  L 14.152000000000001 2.3673596159999875  L 15.872320960000003 2.3673596159999875  L 15.872320960000003 5.512319615999957  Z M 32.65888096 9.51743961599999  L 32.65888096 1.0771197120000124  L 28.008640959999994 1.0771197120000124  L 28.008640959999994 9.51743961599999  L 28.895680959999996 9.51743961599999  L 28.895680959999996 1.9775995200000125  L 31.798720959999994 1.9775995200000125  L 31.798720959999994 9.51743961599999  L 32.65888096 9.51743961599999  Z M 30.736959999999996 2.958719808000012  L 29.90368 2.958719808000012  L 29.90368 7.326720000000023  C 29.876799999999992 8.549760096  29.70208096 9.54431942399998  29.379519999999992 10.323840000000018  C 29.03008 11.06304  28.39840096 11.654399999999953  27.511359040000002 12.097919999999988  L 28.035520959999996 12.904319999999984  C 28.976319999999994 12.43392  29.648319039999997 11.775360000000035  30.06496096 10.942080000000033  C 30.495040959999997 10.04159999999996  30.710079999999998 8.831999807999978  30.736959999999996 7.326720000000023  L 30.736959999999996 2.958719808000012  Z M 33.06207903999999 12.11135999999999  C 32.56480096 11.38560000000001  31.946559999999998 10.646399999999971  31.19392 9.893759999999986  L 30.57568096 10.498559999999998  C 31.341759039999992 11.304959999999994  31.946559999999998 12.071039999999982  32.37663808 12.796799999999962  L 33.06207903999999 12.11135999999999  Z M 35.13184096 7.044479807999949  L 36.31455903999999 7.044479807999949  C 36.95968 9.54431942399998  37.92736 11.452800000000025  39.19072096000001 12.743040000000008  L 39.849281919999996 11.990400000000022  C 38.68 10.83456000000001  37.77952 9.19488009600002  37.16127904 7.044479807999949  L 39.59392 7.044479807999949  L 39.59392 6.103679808000038  L 35.13184096 6.103679808000038  L 35.13184096 0.5529592895999826  L 34.19104096 0.5529592895999826  L 34.19104096 6.103679808000038  L 33.223361919999995 6.103679808000038  L 33.223361919999995 7.044479807999949  L 34.19104096 7.044479807999949  L 34.19104096 11.56031999999999  C 34.19104096 11.748479999999972  34.083521919999995 11.88288  33.88191903999999 11.97696000000002  L 34.28512096 12.837120000000027  C 35.36032 12.501119999999958  36.301119039999996 12.071039999999982  37.13439904 11.546879999999987  L 36.95968 10.68671999999998  C 36.34143904 11.076480000000004  35.723198079999996 11.38560000000001  35.13184096 11.614080000000001  L 35.13184096 7.044479807999949  Z M 39.39232096 1.7625595200000246  L 38.65312000000001 1.1577594240000053  C 37.79296 2.595839520000027  36.75808096 3.671039424000014  35.54847904 4.369919616000004  L 36.07264 5.122560000000021  C 37.335998079999996 4.396799904000034  38.451520959999996 3.267839327999979  39.39232096 1.7625595200000246  Z M 43.42432096 3.146879904000002  L 51.09856096 3.146879904000002  L 51.09856096 5.767679904000033  L 43.42432096 5.767679904000033  L 43.42432096 3.146879904000002  Z M 41.51583904 12.917759999999987  C 42.72544096 11.183999999999969  43.35712192000001 9.114239519999956  43.42432096 6.708479904  L 52.079679999999996 6.708479904  L 52.079679999999996 2.192639424000049  L 47.832639999999984 2.192639424000049  C 47.59072096 1.5475195200000371  47.34879904 0.9695993280000152  47.10687999999999 0.4588797023999973  L 46.07200096 0.6201599135999913  C 46.354239039999996 1.10399961600001  46.60960192 1.6281600959999878  46.85152096 2.192639424000049  L 42.47007807999999 2.192639424000049  L 42.47007807999999 6.3993599039999935  C 42.44319807999999 8.80511990399998  41.89216096 10.767359999999996  40.803521919999994 12.272639999999967  L 41.51583904 12.917759999999987  Z " fill-rule="evenodd" />
    </mask>
  </defs>
  <g transform="matrix(1 0 0 1 -1778 -440 )">
    <path d="M 1.048000095999999 12.743040000000008  L 2.2576001920000017 12.743040000000008  C 3.023679999999999 12.743040000000008  3.4134401919999955 12.353279999999984  3.4134401919999955 11.600639999999999  L 3.4134401919999955 7.635840000000029  C 3.8032000959999976 7.447679903999983  4.1929601919999975 7.259519807999993  4.569279903999998 7.057919808000007  L 4.569279903999998 6.07679990400004  C 4.1929601919999975 6.291839904000028  3.8032000959999976 6.480000000000018  3.4134401919999955 6.6681596159999685  L 3.4134401919999955 4.047359615999994  L 4.770879999999998 4.047359615999994  L 4.770879999999998 3.1200000000000045  L 3.4134401919999955 3.1200000000000045  L 3.4134401919999955 0.5798400863999973  L 2.4188801919999996 0.5798400863999973  L 2.4188801919999996 3.1200000000000045  L 0.7926400383999983 3.1200000000000045  L 0.7926400383999983 4.047359615999994  L 2.4188801919999996 4.047359615999994  L 2.4188801919999996 7.084799615999998  C 1.8275200959999973 7.313279999999963  1.236160095999999 7.5014397119999785  0.6313599999999973 7.649279903999968  L 0.8598400288000007 8.61695980799999  C 1.3840000959999976 8.455679615999998  1.9081600959999996 8.267519520000008  2.4188801919999996 8.065920384000037  L 2.4188801919999996 11.345280000000002  C 2.4188801919999996 11.681280000000015  2.2441599999999973 11.855999999999995  1.9216000000000018 11.855999999999995  C 1.572160096000001 11.855999999999995  1.222719999999999 11.829119999999989  0.8464000287999979 11.802239999999983  L 1.048000095999999 12.743040000000008  Z M 11.679040960000002 1.0099200000000224  L 5.819199999999999 1.0099200000000224  L 5.819199999999999 5.673599807999949  L 11.679040960000002 5.673599807999949  L 11.679040960000002 1.0099200000000224  Z M 10.738239999999998 3.7248000960000236  L 10.738239999999998 4.880639615999996  L 6.759999999999998 4.880639615999996  L 6.759999999999998 3.7248000960000236  L 10.738239999999998 3.7248000960000236  Z M 10.738239999999998 2.972159712000007  L 6.759999999999998 2.972159712000007  L 6.759999999999998 1.8028793280000173  L 10.738239999999998 1.8028793280000173  L 10.738239999999998 2.972159712000007  Z M 12.56608 6.614399904000038  L 4.878399999999999 6.614399904000038  L 4.878399999999999 7.474559807999981  L 8.278720672000002 7.474559807999981  L 8.278720672000002 11.399040000000014  C 8.157760287999999 11.358720000000005  8.050239903999998 11.318399999999997  7.956160287999996 11.278079999999989  C 7.391680479999997 11.022719999999993  6.894400288 10.444799999999987  6.4643203840000005 9.54431942399998  C 6.571840383999998 9.087359615999958  6.639040095999998 8.630399807999993  6.665920383999996 8.14656009600003  L 5.805759999999999 8.052479519999963  C 5.698240095999999 9.584640191999995  5.133760192 10.982399999999984  4.112320095999998 12.218880000000013  L 4.824640192 12.837120000000027  C 5.402559999999998 12.138239999999996  5.846080287999996 11.372160000000008  6.168640287999999 10.538880000000006  C 6.571840383999998 11.291519999999991  7.042240095999997 11.802239999999983  7.552960191999998 12.071039999999982  C 8.198080095999998 12.393599999999992  9.407680384000003 12.568319999999972  11.181759999999997 12.581759999999974  C 11.61184 12.581759999999974  12.109120959999998 12.595199999999977  12.646719999999995 12.595199999999977  L 12.915520960000002 11.654399999999953  C 12.418239999999997 11.694720000000018  11.813439999999993 11.721599999999967  11.114559999999997 11.721599999999967  C 10.375360960000002 11.721599999999967  9.743680959999999 11.681280000000015  9.206080287999995 11.600639999999999  L 9.206080287999995 9.866880000000037  L 12.015039999999999 9.866880000000037  L 12.015039999999999 8.99327999999997  L 9.206080287999995 8.99327999999997  L 9.206080287999995 7.474559807999981  L 12.56608 7.474559807999981  L 12.56608 6.614399904000038  Z M 25.280320000000003 8.509440288000008  L 25.280320000000003 1.0771197120000124  L 19.312959999999997 1.0771197120000124  L 19.312959999999997 8.509440288000008  L 20.267199999999995 8.509440288000008  L 20.267199999999995 2.004479328000002  L 24.299199999999992 2.004479328000002  L 24.299199999999992 8.509440288000008  L 25.280320000000003 8.509440288000008  Z M 23.586879999999994 12.648959999999988  L 24.98464096 12.648959999999988  C 25.41471904 12.648959999999988  25.737281919999994 12.541440000000023  25.95232096 12.339839999999981  C 26.180800000000005 12.097919999999988  26.342080959999997 11.41247999999996  26.422719999999998 10.310400000000016  L 25.522240959999998 10.028160000000014  C 25.46847904 10.861440000000016  25.387839039999996 11.372160000000008  25.280320000000003 11.546879999999987  C 25.186239999999998 11.681280000000015  25.02496096 11.761919999999975  24.809919999999998 11.761919999999975  L 23.869120959999997 11.761919999999975  C 23.586879999999994 11.761919999999975  23.45248 11.614080000000001  23.45248 11.331839999999943  L 23.45248 8.455679615999998  L 22.48480096 8.455679615999998  L 22.48480096 11.533439999999985  C 22.48480096 12.272639999999967  22.847679039999996 12.648959999999988  23.586879999999994 12.648959999999988  Z M 22.699839999999995 2.958719808000012  L 21.77248 2.958719808000012  L 21.77248 6.238079712000001  C 21.745600959999997 7.743359999999996  21.44992 8.966400192000037  20.912320960000002 9.907199999999989  C 20.33439904 10.79423903999998  19.312959999999997 11.519999999999982  17.861439039999993 12.084480000000042  L 18.385600959999998 12.904319999999984  C 19.89087904 12.339839999999981  20.966079999999998 11.546879999999987  21.611200959999998 10.552320000000009  C 22.2832 9.47711971199999  22.646079999999998 8.039039615999968  22.699839999999995 6.238079712000001  L 22.699839999999995 2.958719808000012  Z M 15.872320960000003 5.512319615999957  L 14.326719999999995 5.512319615999957  L 14.326719999999995 6.453119615999981  L 15.872320960000003 6.453119615999981  L 15.872320960000003 9.799680000000023  C 15.280959999999991 9.960959039999977  14.689599999999999 10.095360000000028  14.084800000000003 10.202879999999993  L 14.313279999999999 11.130240000000015  C 15.832000960000002 10.767359999999996  17.256639999999997 10.323840000000018  18.587199999999996 9.78624000000002  L 18.587199999999996 8.858879711999975  C 18.02272 9.087359615999958  17.458240960000005 9.302399616000002  16.866879999999995 9.503999615999987  L 16.866879999999995 6.453119615999981  L 18.372160960000002 6.453119615999981  L 18.372160960000002 5.512319615999957  L 16.866879999999995 5.512319615999957  L 16.866879999999995 2.3673596159999875  L 18.560319999999997 2.3673596159999875  L 18.560319999999997 1.4399999999999977  L 14.152000000000001 1.4399999999999977  L 14.152000000000001 2.3673596159999875  L 15.872320960000003 2.3673596159999875  L 15.872320960000003 5.512319615999957  Z M 32.65888096 9.51743961599999  L 32.65888096 1.0771197120000124  L 28.008640959999994 1.0771197120000124  L 28.008640959999994 9.51743961599999  L 28.895680959999996 9.51743961599999  L 28.895680959999996 1.9775995200000125  L 31.798720959999994 1.9775995200000125  L 31.798720959999994 9.51743961599999  L 32.65888096 9.51743961599999  Z M 30.736959999999996 2.958719808000012  L 29.90368 2.958719808000012  L 29.90368 7.326720000000023  C 29.876799999999992 8.549760096  29.70208096 9.54431942399998  29.379519999999992 10.323840000000018  C 29.03008 11.06304  28.39840096 11.654399999999953  27.511359040000002 12.097919999999988  L 28.035520959999996 12.904319999999984  C 28.976319999999994 12.43392  29.648319039999997 11.775360000000035  30.06496096 10.942080000000033  C 30.495040959999997 10.04159999999996  30.710079999999998 8.831999807999978  30.736959999999996 7.326720000000023  L 30.736959999999996 2.958719808000012  Z M 33.06207903999999 12.11135999999999  C 32.56480096 11.38560000000001  31.946559999999998 10.646399999999971  31.19392 9.893759999999986  L 30.57568096 10.498559999999998  C 31.341759039999992 11.304959999999994  31.946559999999998 12.071039999999982  32.37663808 12.796799999999962  L 33.06207903999999 12.11135999999999  Z M 35.13184096 7.044479807999949  L 36.31455903999999 7.044479807999949  C 36.95968 9.54431942399998  37.92736 11.452800000000025  39.19072096000001 12.743040000000008  L 39.849281919999996 11.990400000000022  C 38.68 10.83456000000001  37.77952 9.19488009600002  37.16127904 7.044479807999949  L 39.59392 7.044479807999949  L 39.59392 6.103679808000038  L 35.13184096 6.103679808000038  L 35.13184096 0.5529592895999826  L 34.19104096 0.5529592895999826  L 34.19104096 6.103679808000038  L 33.223361919999995 6.103679808000038  L 33.223361919999995 7.044479807999949  L 34.19104096 7.044479807999949  L 34.19104096 11.56031999999999  C 34.19104096 11.748479999999972  34.083521919999995 11.88288  33.88191903999999 11.97696000000002  L 34.28512096 12.837120000000027  C 35.36032 12.501119999999958  36.301119039999996 12.071039999999982  37.13439904 11.546879999999987  L 36.95968 10.68671999999998  C 36.34143904 11.076480000000004  35.723198079999996 11.38560000000001  35.13184096 11.614080000000001  L 35.13184096 7.044479807999949  Z M 39.39232096 1.7625595200000246  L 38.65312000000001 1.1577594240000053  C 37.79296 2.595839520000027  36.75808096 3.671039424000014  35.54847904 4.369919616000004  L 36.07264 5.122560000000021  C 37.335998079999996 4.396799904000034  38.451520959999996 3.267839327999979  39.39232096 1.7625595200000246  Z M 43.42432096 3.146879904000002  L 51.09856096 3.146879904000002  L 51.09856096 5.767679904000033  L 43.42432096 5.767679904000033  L 43.42432096 3.146879904000002  Z M 41.51583904 12.917759999999987  C 42.72544096 11.183999999999969  43.35712192000001 9.114239519999956  43.42432096 6.708479904  L 52.079679999999996 6.708479904  L 52.079679999999996 2.192639424000049  L 47.832639999999984 2.192639424000049  C 47.59072096 1.5475195200000371  47.34879904 0.9695993280000152  47.10687999999999 0.4588797023999973  L 46.07200096 0.6201599135999913  C 46.354239039999996 1.10399961600001  46.60960192 1.6281600959999878  46.85152096 2.192639424000049  L 42.47007807999999 2.192639424000049  L 42.47007807999999 6.3993599039999935  C 42.44319807999999 8.80511990399998  41.89216096 10.767359999999996  40.803521919999994 12.272639999999967  L 41.51583904 12.917759999999987  Z " fill-rule="nonzero" fill="rgba(51, 51, 51, 1)" stroke="none" transform="matrix(1 0 0 1 1778 440 )" class="fill" />
    <path d="M 1.048000095999999 12.743040000000008  L 2.2576001920000017 12.743040000000008  C 3.023679999999999 12.743040000000008  3.4134401919999955 12.353279999999984  3.4134401919999955 11.600639999999999  L 3.4134401919999955 7.635840000000029  C 3.8032000959999976 7.447679903999983  4.1929601919999975 7.259519807999993  4.569279903999998 7.057919808000007  L 4.569279903999998 6.07679990400004  C 4.1929601919999975 6.291839904000028  3.8032000959999976 6.480000000000018  3.4134401919999955 6.6681596159999685  L 3.4134401919999955 4.047359615999994  L 4.770879999999998 4.047359615999994  L 4.770879999999998 3.1200000000000045  L 3.4134401919999955 3.1200000000000045  L 3.4134401919999955 0.5798400863999973  L 2.4188801919999996 0.5798400863999973  L 2.4188801919999996 3.1200000000000045  L 0.7926400383999983 3.1200000000000045  L 0.7926400383999983 4.047359615999994  L 2.4188801919999996 4.047359615999994  L 2.4188801919999996 7.084799615999998  C 1.8275200959999973 7.313279999999963  1.236160095999999 7.5014397119999785  0.6313599999999973 7.649279903999968  L 0.8598400288000007 8.61695980799999  C 1.3840000959999976 8.455679615999998  1.9081600959999996 8.267519520000008  2.4188801919999996 8.065920384000037  L 2.4188801919999996 11.345280000000002  C 2.4188801919999996 11.681280000000015  2.2441599999999973 11.855999999999995  1.9216000000000018 11.855999999999995  C 1.572160096000001 11.855999999999995  1.222719999999999 11.829119999999989  0.8464000287999979 11.802239999999983  L 1.048000095999999 12.743040000000008  Z " stroke-width="0" stroke-dasharray="0" stroke="rgba(255, 255, 255, 0)" fill="none" transform="matrix(1 0 0 1 1778 440 )" class="stroke" mask="url(#Clip12601)" />
    <path d="M 11.679040960000002 1.0099200000000224  L 5.819199999999999 1.0099200000000224  L 5.819199999999999 5.673599807999949  L 11.679040960000002 5.673599807999949  L 11.679040960000002 1.0099200000000224  Z " stroke-width="0" stroke-dasharray="0" stroke="rgba(255, 255, 255, 0)" fill="none" transform="matrix(1 0 0 1 1778 440 )" class="stroke" mask="url(#Clip12601)" />
    <path d="M 10.738239999999998 3.7248000960000236  L 10.738239999999998 4.880639615999996  L 6.759999999999998 4.880639615999996  L 6.759999999999998 3.7248000960000236  L 10.738239999999998 3.7248000960000236  Z " stroke-width="0" stroke-dasharray="0" stroke="rgba(255, 255, 255, 0)" fill="none" transform="matrix(1 0 0 1 1778 440 )" class="stroke" mask="url(#Clip12601)" />
    <path d="M 10.738239999999998 2.972159712000007  L 6.759999999999998 2.972159712000007  L 6.759999999999998 1.8028793280000173  L 10.738239999999998 1.8028793280000173  L 10.738239999999998 2.972159712000007  Z " stroke-width="0" stroke-dasharray="0" stroke="rgba(255, 255, 255, 0)" fill="none" transform="matrix(1 0 0 1 1778 440 )" class="stroke" mask="url(#Clip12601)" />
    <path d="M 12.56608 6.614399904000038  L 4.878399999999999 6.614399904000038  L 4.878399999999999 7.474559807999981  L 8.278720672000002 7.474559807999981  L 8.278720672000002 11.399040000000014  C 8.157760287999999 11.358720000000005  8.050239903999998 11.318399999999997  7.956160287999996 11.278079999999989  C 7.391680479999997 11.022719999999993  6.894400288 10.444799999999987  6.4643203840000005 9.54431942399998  C 6.571840383999998 9.087359615999958  6.639040095999998 8.630399807999993  6.665920383999996 8.14656009600003  L 5.805759999999999 8.052479519999963  C 5.698240095999999 9.584640191999995  5.133760192 10.982399999999984  4.112320095999998 12.218880000000013  L 4.824640192 12.837120000000027  C 5.402559999999998 12.138239999999996  5.846080287999996 11.372160000000008  6.168640287999999 10.538880000000006  C 6.571840383999998 11.291519999999991  7.042240095999997 11.802239999999983  7.552960191999998 12.071039999999982  C 8.198080095999998 12.393599999999992  9.407680384000003 12.568319999999972  11.181759999999997 12.581759999999974  C 11.61184 12.581759999999974  12.109120959999998 12.595199999999977  12.646719999999995 12.595199999999977  L 12.915520960000002 11.654399999999953  C 12.418239999999997 11.694720000000018  11.813439999999993 11.721599999999967  11.114559999999997 11.721599999999967  C 10.375360960000002 11.721599999999967  9.743680959999999 11.681280000000015  9.206080287999995 11.600639999999999  L 9.206080287999995 9.866880000000037  L 12.015039999999999 9.866880000000037  L 12.015039999999999 8.99327999999997  L 9.206080287999995 8.99327999999997  L 9.206080287999995 7.474559807999981  L 12.56608 7.474559807999981  L 12.56608 6.614399904000038  Z " stroke-width="0" stroke-dasharray="0" stroke="rgba(255, 255, 255, 0)" fill="none" transform="matrix(1 0 0 1 1778 440 )" class="stroke" mask="url(#Clip12601)" />
    <path d="M 25.280320000000003 8.509440288000008  L 25.280320000000003 1.0771197120000124  L 19.312959999999997 1.0771197120000124  L 19.312959999999997 8.509440288000008  L 20.267199999999995 8.509440288000008  L 20.267199999999995 2.004479328000002  L 24.299199999999992 2.004479328000002  L 24.299199999999992 8.509440288000008  L 25.280320000000003 8.509440288000008  Z " stroke-width="0" stroke-dasharray="0" stroke="rgba(255, 255, 255, 0)" fill="none" transform="matrix(1 0 0 1 1778 440 )" class="stroke" mask="url(#Clip12601)" />
    <path d="M 23.586879999999994 12.648959999999988  L 24.98464096 12.648959999999988  C 25.41471904 12.648959999999988  25.737281919999994 12.541440000000023  25.95232096 12.339839999999981  C 26.180800000000005 12.097919999999988  26.342080959999997 11.41247999999996  26.422719999999998 10.310400000000016  L 25.522240959999998 10.028160000000014  C 25.46847904 10.861440000000016  25.387839039999996 11.372160000000008  25.280320000000003 11.546879999999987  C 25.186239999999998 11.681280000000015  25.02496096 11.761919999999975  24.809919999999998 11.761919999999975  L 23.869120959999997 11.761919999999975  C 23.586879999999994 11.761919999999975  23.45248 11.614080000000001  23.45248 11.331839999999943  L 23.45248 8.455679615999998  L 22.48480096 8.455679615999998  L 22.48480096 11.533439999999985  C 22.48480096 12.272639999999967  22.847679039999996 12.648959999999988  23.586879999999994 12.648959999999988  Z " stroke-width="0" stroke-dasharray="0" stroke="rgba(255, 255, 255, 0)" fill="none" transform="matrix(1 0 0 1 1778 440 )" class="stroke" mask="url(#Clip12601)" />
    <path d="M 22.699839999999995 2.958719808000012  L 21.77248 2.958719808000012  L 21.77248 6.238079712000001  C 21.745600959999997 7.743359999999996  21.44992 8.966400192000037  20.912320960000002 9.907199999999989  C 20.33439904 10.79423903999998  19.312959999999997 11.519999999999982  17.861439039999993 12.084480000000042  L 18.385600959999998 12.904319999999984  C 19.89087904 12.339839999999981  20.966079999999998 11.546879999999987  21.611200959999998 10.552320000000009  C 22.2832 9.47711971199999  22.646079999999998 8.039039615999968  22.699839999999995 6.238079712000001  L 22.699839999999995 2.958719808000012  Z " stroke-width="0" stroke-dasharray="0" stroke="rgba(255, 255, 255, 0)" fill="none" transform="matrix(1 0 0 1 1778 440 )" class="stroke" mask="url(#Clip12601)" />
    <path d="M 15.872320960000003 5.512319615999957  L 14.326719999999995 5.512319615999957  L 14.326719999999995 6.453119615999981  L 15.872320960000003 6.453119615999981  L 15.872320960000003 9.799680000000023  C 15.280959999999991 9.960959039999977  14.689599999999999 10.095360000000028  14.084800000000003 10.202879999999993  L 14.313279999999999 11.130240000000015  C 15.832000960000002 10.767359999999996  17.256639999999997 10.323840000000018  18.587199999999996 9.78624000000002  L 18.587199999999996 8.858879711999975  C 18.02272 9.087359615999958  17.458240960000005 9.302399616000002  16.866879999999995 9.503999615999987  L 16.866879999999995 6.453119615999981  L 18.372160960000002 6.453119615999981  L 18.372160960000002 5.512319615999957  L 16.866879999999995 5.512319615999957  L 16.866879999999995 2.3673596159999875  L 18.560319999999997 2.3673596159999875  L 18.560319999999997 1.4399999999999977  L 14.152000000000001 1.4399999999999977  L 14.152000000000001 2.3673596159999875  L 15.872320960000003 2.3673596159999875  L 15.872320960000003 5.512319615999957  Z " stroke-width="0" stroke-dasharray="0" stroke="rgba(255, 255, 255, 0)" fill="none" transform="matrix(1 0 0 1 1778 440 )" class="stroke" mask="url(#Clip12601)" />
    <path d="M 32.65888096 9.51743961599999  L 32.65888096 1.0771197120000124  L 28.008640959999994 1.0771197120000124  L 28.008640959999994 9.51743961599999  L 28.895680959999996 9.51743961599999  L 28.895680959999996 1.9775995200000125  L 31.798720959999994 1.9775995200000125  L 31.798720959999994 9.51743961599999  L 32.65888096 9.51743961599999  Z " stroke-width="0" stroke-dasharray="0" stroke="rgba(255, 255, 255, 0)" fill="none" transform="matrix(1 0 0 1 1778 440 )" class="stroke" mask="url(#Clip12601)" />
    <path d="M 30.736959999999996 2.958719808000012  L 29.90368 2.958719808000012  L 29.90368 7.326720000000023  C 29.876799999999992 8.549760096  29.70208096 9.54431942399998  29.379519999999992 10.323840000000018  C 29.03008 11.06304  28.39840096 11.654399999999953  27.511359040000002 12.097919999999988  L 28.035520959999996 12.904319999999984  C 28.976319999999994 12.43392  29.648319039999997 11.775360000000035  30.06496096 10.942080000000033  C 30.495040959999997 10.04159999999996  30.710079999999998 8.831999807999978  30.736959999999996 7.326720000000023  L 30.736959999999996 2.958719808000012  Z " stroke-width="0" stroke-dasharray="0" stroke="rgba(255, 255, 255, 0)" fill="none" transform="matrix(1 0 0 1 1778 440 )" class="stroke" mask="url(#Clip12601)" />
    <path d="M 33.06207903999999 12.11135999999999  C 32.56480096 11.38560000000001  31.946559999999998 10.646399999999971  31.19392 9.893759999999986  L 30.57568096 10.498559999999998  C 31.341759039999992 11.304959999999994  31.946559999999998 12.071039999999982  32.37663808 12.796799999999962  L 33.06207903999999 12.11135999999999  Z " stroke-width="0" stroke-dasharray="0" stroke="rgba(255, 255, 255, 0)" fill="none" transform="matrix(1 0 0 1 1778 440 )" class="stroke" mask="url(#Clip12601)" />
    <path d="M 35.13184096 7.044479807999949  L 36.31455903999999 7.044479807999949  C 36.95968 9.54431942399998  37.92736 11.452800000000025  39.19072096000001 12.743040000000008  L 39.849281919999996 11.990400000000022  C 38.68 10.83456000000001  37.77952 9.19488009600002  37.16127904 7.044479807999949  L 39.59392 7.044479807999949  L 39.59392 6.103679808000038  L 35.13184096 6.103679808000038  L 35.13184096 0.5529592895999826  L 34.19104096 0.5529592895999826  L 34.19104096 6.103679808000038  L 33.223361919999995 6.103679808000038  L 33.223361919999995 7.044479807999949  L 34.19104096 7.044479807999949  L 34.19104096 11.56031999999999  C 34.19104096 11.748479999999972  34.083521919999995 11.88288  33.88191903999999 11.97696000000002  L 34.28512096 12.837120000000027  C 35.36032 12.501119999999958  36.301119039999996 12.071039999999982  37.13439904 11.546879999999987  L 36.95968 10.68671999999998  C 36.34143904 11.076480000000004  35.723198079999996 11.38560000000001  35.13184096 11.614080000000001  L 35.13184096 7.044479807999949  Z " stroke-width="0" stroke-dasharray="0" stroke="rgba(255, 255, 255, 0)" fill="none" transform="matrix(1 0 0 1 1778 440 )" class="stroke" mask="url(#Clip12601)" />
    <path d="M 39.39232096 1.7625595200000246  L 38.65312000000001 1.1577594240000053  C 37.79296 2.595839520000027  36.75808096 3.671039424000014  35.54847904 4.369919616000004  L 36.07264 5.122560000000021  C 37.335998079999996 4.396799904000034  38.451520959999996 3.267839327999979  39.39232096 1.7625595200000246  Z " stroke-width="0" stroke-dasharray="0" stroke="rgba(255, 255, 255, 0)" fill="none" transform="matrix(1 0 0 1 1778 440 )" class="stroke" mask="url(#Clip12601)" />
    <path d="M 43.42432096 3.146879904000002  L 51.09856096 3.146879904000002  L 51.09856096 5.767679904000033  L 43.42432096 5.767679904000033  L 43.42432096 3.146879904000002  Z " stroke-width="0" stroke-dasharray="0" stroke="rgba(255, 255, 255, 0)" fill="none" transform="matrix(1 0 0 1 1778 440 )" class="stroke" mask="url(#Clip12601)" />
    <path d="M 41.51583904 12.917759999999987  C 42.72544096 11.183999999999969  43.35712192000001 9.114239519999956  43.42432096 6.708479904  L 52.079679999999996 6.708479904  L 52.079679999999996 2.192639424000049  L 47.832639999999984 2.192639424000049  C 47.59072096 1.5475195200000371  47.34879904 0.9695993280000152  47.10687999999999 0.4588797023999973  L 46.07200096 0.6201599135999913  C 46.354239039999996 1.10399961600001  46.60960192 1.6281600959999878  46.85152096 2.192639424000049  L 42.47007807999999 2.192639424000049  L 42.47007807999999 6.3993599039999935  C 42.44319807999999 8.80511990399998  41.89216096 10.767359999999996  40.803521919999994 12.272639999999967  L 41.51583904 12.917759999999987  Z " stroke-width="0" stroke-dasharray="0" stroke="rgba(255, 255, 255, 0)" fill="none" transform="matrix(1 0 0 1 1778 440 )" class="stroke" mask="url(#Clip12601)" />
  </g>
</svg>