<?xml version="1.0" encoding="utf-8"?>
<svg version="1.1" xmlns:xlink="http://www.w3.org/1999/xlink" width="18px" height="11px" xmlns="http://www.w3.org/2000/svg">
  <defs>
    <pattern id="BGPattern" patternUnits="userSpaceOnUse" alignment="0 0" imageRepeat="None" />
    <mask fill="white" id="Clip13680">
      <path d="M 17.240136718749966 1.1599609375000348  C 17.240136718749966 0.6297673471000316  16.81034375874998 0.19996093750003396  16.280136718749986 0.19996093750003396  C 16.280136718749986 0.19996093750003396  15.320136718750007 0.19996093750003396  15.320136718750007 0.19996093750003396  C 14.78992871874999 0.19996093750003396  14.36013671874997 0.6297673471000316  14.36013671874997 1.1599609375000348  C 14.36013671874997 1.1599609375000348  14.36013671874997 9.479963945500035  14.36013671874997 9.479963945500035  C 14.36013671874997 10.010200937500034  14.78992871874999 10.439992937500033  15.320136718750007 10.439992937500033  C 15.320136718750007 10.439992937500033  16.280136718749986 10.439992937500033  16.280136718749986 10.439992937500033  C 16.81034375874998 10.439992937500033  17.240136718749966 10.010200937500034  17.240136718749966 9.479963945500035  C 17.240136718749966 9.479963945500035  17.240136718749966 1.1599609375000348  17.240136718749966 1.1599609375000348  Z M 9.880133710749988 3.3999576415000305  C 9.880133710749988 2.8697689375000337  10.309944430749965 2.4399576415000332  10.840104718750013 2.4399576415000332  C 10.840104718750013 2.4399576415000332  11.800104718749992 2.4399576415000332  11.800104718749992 2.4399576415000332  C 12.330312718750008 2.4399576415000332  12.760104718749972 2.8697689375000337  12.760104718749972 3.3999576415000305  C 12.760104718749972 3.3999576415000305  12.760104718749972 9.479963945500035  12.760104718749972 9.479963945500035  C 12.760104718749972 10.010200937500034  12.330312718750008 10.439992937500033  11.800104718749992 10.439992937500033  C 11.800104718749992 10.439992937500033  10.840104718750013 10.439992937500033  10.840104718750013 10.439992937500033  C 10.309944430749965 10.439992937500033  9.880133710749988 10.010200937500034  9.880133710749988 9.479963945500035  C 9.880133710749988 9.479963945500035  9.880133710749988 3.3999576415000305  9.880133710749988 3.3999576415000305  Z M 8.280139726750008 5.639963945500035  C 8.280139726750008 5.109765641500033  7.8503285267499905 4.679963945500035  7.320139726750028 4.679963945500035  C 7.320139726750028 4.679963945500035  6.360139726749992 4.679963945500035  6.360139726749992 4.679963945500035  C 5.829941422749982 4.679963945500035  5.400139726750012 5.109765641500033  5.400139726750012 5.639963945500035  C 5.400139726750012 5.639963945500035  5.400139726750012 9.479963945500035  5.400139726750012 9.479963945500035  C 5.400139726750012 10.010200937500034  5.829941422749982 10.439992937500033  6.360139726749992 10.439992937500033  C 6.360139726749992 10.439992937500033  7.320139726750028 10.439992937500033  7.320139726750028 10.439992937500033  C 7.8503285267499905 10.439992937500033  8.280139726750008 10.010200937500034  8.280139726750008 9.479963945500035  C 8.280139726750008 9.479963945500035  8.280139726750008 5.639963945500035  8.280139726750008 5.639963945500035  Z M 3.800136718749968 7.559963945500034  C 3.800136718749968 7.029765641500031  3.370325422749943 6.599963945500033  2.8401367187499886 6.599963945500033  C 2.8401367187499886 6.599963945500033  1.880136718750009 6.599963945500033  1.880136718750009 6.599963945500033  C 1.3499431283499916 6.599963945500033  0.9201367187499727 7.029765641500031  0.9201367187499727 7.559963945500034  C 0.9201367187499727 7.559963945500034  0.9201367187499727 9.479963945500035  0.9201367187499727 9.479963945500035  C 0.9201367187499727 10.010200937500034  1.3499431283499916 10.439992937500033  1.880136718750009 10.439992937500033  C 1.880136718750009 10.439992937500033  2.8401367187499886 10.439992937500033  2.8401367187499886 10.439992937500033  C 3.370325422749943 10.439992937500033  3.800136718749968 10.010200937500034  3.800136718749968 9.479963945500035  C 3.800136718749968 9.479963945500035  3.800136718749968 7.559963945500034  3.800136718749968 7.559963945500034  Z " fill-rule="evenodd" />
    </mask>
  </defs>
  <g transform="matrix(1 0 0 1 -2036 -67 )">
    <path d="M 17.240136718749966 1.1599609375000348  C 17.240136718749966 0.6297673471000316  16.81034375874998 0.19996093750003396  16.280136718749986 0.19996093750003396  C 16.280136718749986 0.19996093750003396  15.320136718750007 0.19996093750003396  15.320136718750007 0.19996093750003396  C 14.78992871874999 0.19996093750003396  14.36013671874997 0.6297673471000316  14.36013671874997 1.1599609375000348  C 14.36013671874997 1.1599609375000348  14.36013671874997 9.479963945500035  14.36013671874997 9.479963945500035  C 14.36013671874997 10.010200937500034  14.78992871874999 10.439992937500033  15.320136718750007 10.439992937500033  C 15.320136718750007 10.439992937500033  16.280136718749986 10.439992937500033  16.280136718749986 10.439992937500033  C 16.81034375874998 10.439992937500033  17.240136718749966 10.010200937500034  17.240136718749966 9.479963945500035  C 17.240136718749966 9.479963945500035  17.240136718749966 1.1599609375000348  17.240136718749966 1.1599609375000348  Z M 9.880133710749988 3.3999576415000305  C 9.880133710749988 2.8697689375000337  10.309944430749965 2.4399576415000332  10.840104718750013 2.4399576415000332  C 10.840104718750013 2.4399576415000332  11.800104718749992 2.4399576415000332  11.800104718749992 2.4399576415000332  C 12.330312718750008 2.4399576415000332  12.760104718749972 2.8697689375000337  12.760104718749972 3.3999576415000305  C 12.760104718749972 3.3999576415000305  12.760104718749972 9.479963945500035  12.760104718749972 9.479963945500035  C 12.760104718749972 10.010200937500034  12.330312718750008 10.439992937500033  11.800104718749992 10.439992937500033  C 11.800104718749992 10.439992937500033  10.840104718750013 10.439992937500033  10.840104718750013 10.439992937500033  C 10.309944430749965 10.439992937500033  9.880133710749988 10.010200937500034  9.880133710749988 9.479963945500035  C 9.880133710749988 9.479963945500035  9.880133710749988 3.3999576415000305  9.880133710749988 3.3999576415000305  Z M 8.280139726750008 5.639963945500035  C 8.280139726750008 5.109765641500033  7.8503285267499905 4.679963945500035  7.320139726750028 4.679963945500035  C 7.320139726750028 4.679963945500035  6.360139726749992 4.679963945500035  6.360139726749992 4.679963945500035  C 5.829941422749982 4.679963945500035  5.400139726750012 5.109765641500033  5.400139726750012 5.639963945500035  C 5.400139726750012 5.639963945500035  5.400139726750012 9.479963945500035  5.400139726750012 9.479963945500035  C 5.400139726750012 10.010200937500034  5.829941422749982 10.439992937500033  6.360139726749992 10.439992937500033  C 6.360139726749992 10.439992937500033  7.320139726750028 10.439992937500033  7.320139726750028 10.439992937500033  C 7.8503285267499905 10.439992937500033  8.280139726750008 10.010200937500034  8.280139726750008 9.479963945500035  C 8.280139726750008 9.479963945500035  8.280139726750008 5.639963945500035  8.280139726750008 5.639963945500035  Z M 3.800136718749968 7.559963945500034  C 3.800136718749968 7.029765641500031  3.370325422749943 6.599963945500033  2.8401367187499886 6.599963945500033  C 2.8401367187499886 6.599963945500033  1.880136718750009 6.599963945500033  1.880136718750009 6.599963945500033  C 1.3499431283499916 6.599963945500033  0.9201367187499727 7.029765641500031  0.9201367187499727 7.559963945500034  C 0.9201367187499727 7.559963945500034  0.9201367187499727 9.479963945500035  0.9201367187499727 9.479963945500035  C 0.9201367187499727 10.010200937500034  1.3499431283499916 10.439992937500033  1.880136718750009 10.439992937500033  C 1.880136718750009 10.439992937500033  2.8401367187499886 10.439992937500033  2.8401367187499886 10.439992937500033  C 3.370325422749943 10.439992937500033  3.800136718749968 10.010200937500034  3.800136718749968 9.479963945500035  C 3.800136718749968 9.479963945500035  3.800136718749968 7.559963945500034  3.800136718749968 7.559963945500034  Z " fill-rule="nonzero" fill="rgba(2, 2, 2, 1)" stroke="none" transform="matrix(1 0 0 1 2036 67 )" class="fill" />
    <path d="M 17.240136718749966 1.1599609375000348  C 17.240136718749966 0.6297673471000316  16.81034375874998 0.19996093750003396  16.280136718749986 0.19996093750003396  C 16.280136718749986 0.19996093750003396  15.320136718750007 0.19996093750003396  15.320136718750007 0.19996093750003396  C 14.78992871874999 0.19996093750003396  14.36013671874997 0.6297673471000316  14.36013671874997 1.1599609375000348  C 14.36013671874997 1.1599609375000348  14.36013671874997 9.479963945500035  14.36013671874997 9.479963945500035  C 14.36013671874997 10.010200937500034  14.78992871874999 10.439992937500033  15.320136718750007 10.439992937500033  C 15.320136718750007 10.439992937500033  16.280136718749986 10.439992937500033  16.280136718749986 10.439992937500033  C 16.81034375874998 10.439992937500033  17.240136718749966 10.010200937500034  17.240136718749966 9.479963945500035  C 17.240136718749966 9.479963945500035  17.240136718749966 1.1599609375000348  17.240136718749966 1.1599609375000348  Z " stroke-width="0" stroke-dasharray="0" stroke="rgba(255, 255, 255, 0)" fill="none" transform="matrix(1 0 0 1 2036 67 )" class="stroke" mask="url(#Clip13680)" />
    <path d="M 9.880133710749988 3.3999576415000305  C 9.880133710749988 2.8697689375000337  10.309944430749965 2.4399576415000332  10.840104718750013 2.4399576415000332  C 10.840104718750013 2.4399576415000332  11.800104718749992 2.4399576415000332  11.800104718749992 2.4399576415000332  C 12.330312718750008 2.4399576415000332  12.760104718749972 2.8697689375000337  12.760104718749972 3.3999576415000305  C 12.760104718749972 3.3999576415000305  12.760104718749972 9.479963945500035  12.760104718749972 9.479963945500035  C 12.760104718749972 10.010200937500034  12.330312718750008 10.439992937500033  11.800104718749992 10.439992937500033  C 11.800104718749992 10.439992937500033  10.840104718750013 10.439992937500033  10.840104718750013 10.439992937500033  C 10.309944430749965 10.439992937500033  9.880133710749988 10.010200937500034  9.880133710749988 9.479963945500035  C 9.880133710749988 9.479963945500035  9.880133710749988 3.3999576415000305  9.880133710749988 3.3999576415000305  Z " stroke-width="0" stroke-dasharray="0" stroke="rgba(255, 255, 255, 0)" fill="none" transform="matrix(1 0 0 1 2036 67 )" class="stroke" mask="url(#Clip13680)" />
    <path d="M 8.280139726750008 5.639963945500035  C 8.280139726750008 5.109765641500033  7.8503285267499905 4.679963945500035  7.320139726750028 4.679963945500035  C 7.320139726750028 4.679963945500035  6.360139726749992 4.679963945500035  6.360139726749992 4.679963945500035  C 5.829941422749982 4.679963945500035  5.400139726750012 5.109765641500033  5.400139726750012 5.639963945500035  C 5.400139726750012 5.639963945500035  5.400139726750012 9.479963945500035  5.400139726750012 9.479963945500035  C 5.400139726750012 10.010200937500034  5.829941422749982 10.439992937500033  6.360139726749992 10.439992937500033  C 6.360139726749992 10.439992937500033  7.320139726750028 10.439992937500033  7.320139726750028 10.439992937500033  C 7.8503285267499905 10.439992937500033  8.280139726750008 10.010200937500034  8.280139726750008 9.479963945500035  C 8.280139726750008 9.479963945500035  8.280139726750008 5.639963945500035  8.280139726750008 5.639963945500035  Z " stroke-width="0" stroke-dasharray="0" stroke="rgba(255, 255, 255, 0)" fill="none" transform="matrix(1 0 0 1 2036 67 )" class="stroke" mask="url(#Clip13680)" />
    <path d="M 3.800136718749968 7.559963945500034  C 3.800136718749968 7.029765641500031  3.370325422749943 6.599963945500033  2.8401367187499886 6.599963945500033  C 2.8401367187499886 6.599963945500033  1.880136718750009 6.599963945500033  1.880136718750009 6.599963945500033  C 1.3499431283499916 6.599963945500033  0.9201367187499727 7.029765641500031  0.9201367187499727 7.559963945500034  C 0.9201367187499727 7.559963945500034  0.9201367187499727 9.479963945500035  0.9201367187499727 9.479963945500035  C 0.9201367187499727 10.010200937500034  1.3499431283499916 10.439992937500033  1.880136718750009 10.439992937500033  C 1.880136718750009 10.439992937500033  2.8401367187499886 10.439992937500033  2.8401367187499886 10.439992937500033  C 3.370325422749943 10.439992937500033  3.800136718749968 10.010200937500034  3.800136718749968 9.479963945500035  C 3.800136718749968 9.479963945500035  3.800136718749968 7.559963945500034  3.800136718749968 7.559963945500034  Z " stroke-width="0" stroke-dasharray="0" stroke="rgba(255, 255, 255, 0)" fill="none" transform="matrix(1 0 0 1 2036 67 )" class="stroke" mask="url(#Clip13680)" />
  </g>
</svg>