<?xml version="1.0" encoding="utf-8"?>
<svg version="1.1" xmlns:xlink="http://www.w3.org/1999/xlink" width="18px" height="8px" xmlns="http://www.w3.org/2000/svg">
  <defs>
    <pattern id="BGPattern" patternUnits="userSpaceOnUse" alignment="0 0" imageRepeat="None" />
    <mask fill="white" id="Clip528">
      <path d="M 0.47999999999996135 1.8560390625000345  C 0.47999999999996135 1.272826592100035  0.9527875295999593 0.8000390625000335  1.5360000000000014 0.8000390625000335  C 1.5360000000000014 0.8000390625000335  16.70399999999995 0.8000390625000335  16.70399999999995 0.8000390625000335  C 17.287199999999984 0.8000390625000335  17.75999999999999 1.272826592100035  17.75999999999999 1.8560390625000345  C 17.75999999999999 1.8560390625000345  17.75999999999999 6.784035670500032  17.75999999999999 6.784035670500032  C 17.75999999999999 7.367254966500035  17.287199999999984 7.8400360545000325  16.70399999999995 7.8400360545000325  C 16.70399999999995 7.8400360545000325  1.5360000000000014 7.8400360545000325  1.5360000000000014 7.8400360545000325  C 0.9527884799999811 7.8400360545000325  0.47999999999996135 7.367254966500035  0.47999999999996135 6.784035670500032  C 0.47999999999996135 6.784035670500032  0.47999999999996135 1.8560390625000345  0.47999999999996135 1.8560390625000345  Z " fill-rule="evenodd" />
    </mask>
  </defs>
  <g transform="matrix(1 0 0 1 -2079 -68 )">
    <path d="M 0.47999999999996135 1.8560390625000345  C 0.47999999999996135 1.272826592100035  0.9527875295999593 0.8000390625000335  1.5360000000000014 0.8000390625000335  C 1.5360000000000014 0.8000390625000335  16.70399999999995 0.8000390625000335  16.70399999999995 0.8000390625000335  C 17.287199999999984 0.8000390625000335  17.75999999999999 1.272826592100035  17.75999999999999 1.8560390625000345  C 17.75999999999999 1.8560390625000345  17.75999999999999 6.784035670500032  17.75999999999999 6.784035670500032  C 17.75999999999999 7.367254966500035  17.287199999999984 7.8400360545000325  16.70399999999995 7.8400360545000325  C 16.70399999999995 7.8400360545000325  1.5360000000000014 7.8400360545000325  1.5360000000000014 7.8400360545000325  C 0.9527884799999811 7.8400360545000325  0.47999999999996135 7.367254966500035  0.47999999999996135 6.784035670500032  C 0.47999999999996135 6.784035670500032  0.47999999999996135 1.8560390625000345  0.47999999999996135 1.8560390625000345  Z " fill-rule="nonzero" fill="rgba(11, 11, 11, 1)" stroke="none" transform="matrix(1 0 0 1 2079 68 )" class="fill" />
    <path d="M 0.47999999999996135 1.8560390625000345  C 0.47999999999996135 1.272826592100035  0.9527875295999593 0.8000390625000335  1.5360000000000014 0.8000390625000335  C 1.5360000000000014 0.8000390625000335  16.70399999999995 0.8000390625000335  16.70399999999995 0.8000390625000335  C 17.287199999999984 0.8000390625000335  17.75999999999999 1.272826592100035  17.75999999999999 1.8560390625000345  C 17.75999999999999 1.8560390625000345  17.75999999999999 6.784035670500032  17.75999999999999 6.784035670500032  C 17.75999999999999 7.367254966500035  17.287199999999984 7.8400360545000325  16.70399999999995 7.8400360545000325  C 16.70399999999995 7.8400360545000325  1.5360000000000014 7.8400360545000325  1.5360000000000014 7.8400360545000325  C 0.9527884799999811 7.8400360545000325  0.47999999999996135 7.367254966500035  0.47999999999996135 6.784035670500032  C 0.47999999999996135 6.784035670500032  0.47999999999996135 1.8560390625000345  0.47999999999996135 1.8560390625000345  Z " stroke-width="0" stroke-dasharray="0" stroke="rgba(255, 255, 255, 0)" fill="none" transform="matrix(1 0 0 1 2079 68 )" class="stroke" mask="url(#Clip528)" />
  </g>
</svg>