<?xml version="1.0" encoding="utf-8"?>
<svg version="1.1" xmlns:xlink="http://www.w3.org/1999/xlink" width="69px" height="27px" xmlns="http://www.w3.org/2000/svg">
  <defs>
    <pattern id="BGPattern" patternUnits="userSpaceOnUse" alignment="0 0" imageRepeat="None" />
    <mask fill="white" id="Clip1236">
      <path d="M 6.452500000000001 14.701562560000013  L 6.452500000000001 11.40625024000002  L 7.734999999999999 11.40625024000002  C 9.005625280000002 11.40625024000002  9.99125024 11.05593760000005  10.69187488 10.355312320000024  C 11.392500159999997 9.678437440000039  11.742812800000003 8.799687360000036  11.742812799999996 7.719062080000015  C 11.719062399999999 6.626562240000055  11.35687488 5.730000000000047  10.656250239999999 5.029375360000046  C 9.955625087999998 4.352500096000057  9.053124992 4.0021874880000325  7.948749952 3.9784375360000293  C 7.153124992000002 3.9784375360000293  6.428750016000002 4.233750144000055  5.775625023999996 4.744375360000049  C 5.086875008000003 5.255000000000052  4.6237500160000025 6.04468736000004  4.386250048000001 7.113437440000041  L 0.6634374976000004 7.113437440000041  C 0.8534374976000016 5.189687488000061  1.6312499904000006 3.5687500160000245  2.996874976000001 2.2506250240000156  C 4.338749984 0.9443750400000681  5.941875007999997 0.27937504000004765  7.8062500479999954 0.2556250240000111  C 10.169375295999998 0.27937504000004765  12.045625279999996 1.033437536000065  13.434999999999995 2.5178125120000345  C 14.765 3.966562784000047  15.44187488 5.676562880000034  15.465624640000001 7.647812800000025  C 15.465624640000001 8.645312320000016  15.287499840000002 9.607187200000027  14.931250239999999 10.533437440000029  C 14.515625280000002 11.45968768000003  13.773437760000007 12.285000320000051  12.70468768 13.009375360000035  C 13.797187520000001 13.721875200000055  14.586874880000005 14.576875200000044  15.073749759999998 15.574375360000035  C 15.536874879999997 16.571874880000053  15.768437440000007 17.61687488000004  15.76843744 18.709375360000053  C 15.744687679999998 21.143750400000044  14.990625280000003 23.061562880000025  13.50625024 24.462812800000023  C 12.045624959999998 25.899687680000028  10.169374880000007 26.630000000000024  7.877499999999998 26.65374976000004  C 6.108125024000003 26.65374976000004  4.540625024000001 26.083749760000046  3.1750000000000007 24.94374976000003  C 1.8093749760000044 23.803749760000045  0.9246874751999989 22.153124800000057  0.5209374976000021 19.99187488000004  L 4.243749951999998 19.99187488000004  C 4.576249984000004 20.85874976000005  5.045312512000003 21.55937472000005  5.650937536000001 22.093749760000037  C 6.268437504000002 22.651875200000035  7.087812480000004 22.930937920000048  8.109062463999997 22.930937920000048  C 9.201562687999996 22.930937920000048  10.121875199999998 22.556875200000036  10.869999999999997 21.80874976000004  C 11.630000000000003 21.10812512000004  12.021874880000006 20.110625280000022  12.04562464 18.816250240000045  C 12.021874880000006 17.498124800000028  11.630000000000003 16.476874880000025  10.869999999999997 15.752500480000036  C 10.121875199999998 15.051875200000039  9.171875200000002 14.701562560000013  8.02 14.701562560000013  L 6.452500000000001 14.701562560000013  Z M 30 18.958749760000046  L 30 7.95062464000003  C 29.875937279999995 5.349999872000012  28.658749760000006 4.025937504000041  26.29562464 3.9784375360000293  C 23.920624960000005 4.025937504000041  22.709375040000005 5.349999872000012  23 7.95062464000003  L 23 18.958749760000046  C 22.709375040000005 21.583124800000036  23.920624960000005 22.907187520000036  26.29562464 22.930937920000048  C 28.658749760000006 22.907187520000036  29.875937279999995 21.583124800000036  30 18.958749760000046  Z M 19 19.172500480000025  L 19 7.719062080000015  C 18.962812480000004 5.320312384000033  19.728750079999998 3.473750016000054  21.236874880000002 2.179374976000048  C 22.65 0.8968750080000234  24.33624992 0.2556250240000111  26.29562464 0.2556250240000111  C 28.31437472000001 0.2556250240000111  30.03031232 0.8968750080000234  31.443437439999997 2.179374976000048  C 32.88031232 3.473750016000054  33.62249984000001 5.320312384000033  34 7.719062080000015  L 34 19.172500480000025  C 33.62249984000001 21.559375360000047  32.88031232 23.400000320000032  31.443437439999997 24.694375360000038  C 30.03031232 25.976875200000052  28.31437472000001 26.630000000000024  26.29562464 26.65374976000004  C 24.33624992 26.630000000000024  22.65 25.976875200000052  21.236874880000002 24.694375360000038  C 19.728750079999998 23.400000320000032  18.962812480000004 21.559375360000047  19 19.172500480000025  Z M 47 18.958749760000046  L 47 7.95062464000003  C 47.38562496 5.349999872000012  46.16843743999999 4.025937504000041  43.805312319999985 3.9784375360000293  C 41.43031264 4.025937504000041  40.21906272 5.349999872000012  40 7.95062464000003  L 40 18.958749760000046  C 40.21906272 21.583124800000036  41.43031264 22.907187520000036  43.805312319999985 22.930937920000048  C 46.16843743999999 22.907187520000036  47.38562496 21.583124800000036  47 18.958749760000046  Z M 36 19.172500480000025  L 36 7.719062080000015  C 36.47250016000001 5.320312384000033  37.23843776 3.473750016000054  38.746562559999994 2.179374976000048  C 40.15968768 0.8968750080000234  41.8459376 0.2556250240000111  43.805312319999985 0.2556250240000111  C 45.8240624 0.2556250240000111  47.540000000000006 0.8968750080000234  48.953125119999996 2.179374976000048  C 50.39 3.473750016000054  51.132187520000016 5.320312384000033  51 7.719062080000015  L 51 19.172500480000025  C 51.132187520000016 21.559375360000047  50.39 23.400000320000032  48.953125119999996 24.694375360000038  C 47.540000000000006 25.976875200000052  45.8240624 26.630000000000024  43.805312319999985 26.65374976000004  C 41.8459376 26.630000000000024  40.15968768 25.976875200000052  38.746562559999994 24.694375360000038  C 37.23843776 23.400000320000032  36.47250016000001 21.559375360000047  36 19.172500480000025  Z M 65 18.958749760000046  L 65 7.95062464000003  C 64.89531264000001 5.349999872000012  63.678125120000004 4.025937504000041  61.31499999999999 3.9784375360000293  C 58.940000319999996 4.025937504000041  57.728750399999996 5.349999872000012  57 7.95062464000003  L 57 18.958749760000046  C 57.728750399999996 21.583124800000036  58.940000319999996 22.907187520000036  61.31499999999999 22.930937920000048  C 63.678125120000004 22.907187520000036  64.89531264000001 21.583124800000036  65 18.958749760000046  Z M 54 19.172500480000025  L 54 7.719062080000015  C 53.9821872 5.320312384000033  54.7481248 3.473750016000054  56.25625024 2.179374976000048  C 57.669375360000004 0.8968750080000234  59.35562528000001 0.2556250240000111  61.31499999999999 0.2556250240000111  C 63.33375008000001 0.2556250240000111  65.04968767999999 0.8968750080000234  66.46281280000001 2.179374976000048  C 67.89968768 3.473750016000054  68.64187519999999 5.320312384000033  68 7.719062080000015  L 68 19.172500480000025  C 68.64187519999999 21.559375360000047  67.89968768 23.400000320000032  66.46281280000001 24.694375360000038  C 65.04968767999999 25.976875200000052  63.33375008000001 26.630000000000024  61.31499999999999 26.65374976000004  C 59.35562528000001 26.630000000000024  57.669375360000004 25.976875200000052  56.25625024 24.694375360000038  C 54.7481248 23.400000320000032  53.9821872 21.559375360000047  54 19.172500480000025  Z " fill-rule="evenodd" />
    </mask>
  </defs>
  <g transform="matrix(1 0 0 1 -1778 -187 )">
    <path d="M 6.452500000000001 14.701562560000013  L 6.452500000000001 11.40625024000002  L 7.734999999999999 11.40625024000002  C 9.005625280000002 11.40625024000002  9.99125024 11.05593760000005  10.69187488 10.355312320000024  C 11.392500159999997 9.678437440000039  11.742812800000003 8.799687360000036  11.742812799999996 7.719062080000015  C 11.719062399999999 6.626562240000055  11.35687488 5.730000000000047  10.656250239999999 5.029375360000046  C 9.955625087999998 4.352500096000057  9.053124992 4.0021874880000325  7.948749952 3.9784375360000293  C 7.153124992000002 3.9784375360000293  6.428750016000002 4.233750144000055  5.775625023999996 4.744375360000049  C 5.086875008000003 5.255000000000052  4.6237500160000025 6.04468736000004  4.386250048000001 7.113437440000041  L 0.6634374976000004 7.113437440000041  C 0.8534374976000016 5.189687488000061  1.6312499904000006 3.5687500160000245  2.996874976000001 2.2506250240000156  C 4.338749984 0.9443750400000681  5.941875007999997 0.27937504000004765  7.8062500479999954 0.2556250240000111  C 10.169375295999998 0.27937504000004765  12.045625279999996 1.033437536000065  13.434999999999995 2.5178125120000345  C 14.765 3.966562784000047  15.44187488 5.676562880000034  15.465624640000001 7.647812800000025  C 15.465624640000001 8.645312320000016  15.287499840000002 9.607187200000027  14.931250239999999 10.533437440000029  C 14.515625280000002 11.45968768000003  13.773437760000007 12.285000320000051  12.70468768 13.009375360000035  C 13.797187520000001 13.721875200000055  14.586874880000005 14.576875200000044  15.073749759999998 15.574375360000035  C 15.536874879999997 16.571874880000053  15.768437440000007 17.61687488000004  15.76843744 18.709375360000053  C 15.744687679999998 21.143750400000044  14.990625280000003 23.061562880000025  13.50625024 24.462812800000023  C 12.045624959999998 25.899687680000028  10.169374880000007 26.630000000000024  7.877499999999998 26.65374976000004  C 6.108125024000003 26.65374976000004  4.540625024000001 26.083749760000046  3.1750000000000007 24.94374976000003  C 1.8093749760000044 23.803749760000045  0.9246874751999989 22.153124800000057  0.5209374976000021 19.99187488000004  L 4.243749951999998 19.99187488000004  C 4.576249984000004 20.85874976000005  5.045312512000003 21.55937472000005  5.650937536000001 22.093749760000037  C 6.268437504000002 22.651875200000035  7.087812480000004 22.930937920000048  8.109062463999997 22.930937920000048  C 9.201562687999996 22.930937920000048  10.121875199999998 22.556875200000036  10.869999999999997 21.80874976000004  C 11.630000000000003 21.10812512000004  12.021874880000006 20.110625280000022  12.04562464 18.816250240000045  C 12.021874880000006 17.498124800000028  11.630000000000003 16.476874880000025  10.869999999999997 15.752500480000036  C 10.121875199999998 15.051875200000039  9.171875200000002 14.701562560000013  8.02 14.701562560000013  L 6.452500000000001 14.701562560000013  Z M 30 18.958749760000046  L 30 7.95062464000003  C 29.875937279999995 5.349999872000012  28.658749760000006 4.025937504000041  26.29562464 3.9784375360000293  C 23.920624960000005 4.025937504000041  22.709375040000005 5.349999872000012  23 7.95062464000003  L 23 18.958749760000046  C 22.709375040000005 21.583124800000036  23.920624960000005 22.907187520000036  26.29562464 22.930937920000048  C 28.658749760000006 22.907187520000036  29.875937279999995 21.583124800000036  30 18.958749760000046  Z M 19 19.172500480000025  L 19 7.719062080000015  C 18.962812480000004 5.320312384000033  19.728750079999998 3.473750016000054  21.236874880000002 2.179374976000048  C 22.65 0.8968750080000234  24.33624992 0.2556250240000111  26.29562464 0.2556250240000111  C 28.31437472000001 0.2556250240000111  30.03031232 0.8968750080000234  31.443437439999997 2.179374976000048  C 32.88031232 3.473750016000054  33.62249984000001 5.320312384000033  34 7.719062080000015  L 34 19.172500480000025  C 33.62249984000001 21.559375360000047  32.88031232 23.400000320000032  31.443437439999997 24.694375360000038  C 30.03031232 25.976875200000052  28.31437472000001 26.630000000000024  26.29562464 26.65374976000004  C 24.33624992 26.630000000000024  22.65 25.976875200000052  21.236874880000002 24.694375360000038  C 19.728750079999998 23.400000320000032  18.962812480000004 21.559375360000047  19 19.172500480000025  Z M 47 18.958749760000046  L 47 7.95062464000003  C 47.38562496 5.349999872000012  46.16843743999999 4.025937504000041  43.805312319999985 3.9784375360000293  C 41.43031264 4.025937504000041  40.21906272 5.349999872000012  40 7.95062464000003  L 40 18.958749760000046  C 40.21906272 21.583124800000036  41.43031264 22.907187520000036  43.805312319999985 22.930937920000048  C 46.16843743999999 22.907187520000036  47.38562496 21.583124800000036  47 18.958749760000046  Z M 36 19.172500480000025  L 36 7.719062080000015  C 36.47250016000001 5.320312384000033  37.23843776 3.473750016000054  38.746562559999994 2.179374976000048  C 40.15968768 0.8968750080000234  41.8459376 0.2556250240000111  43.805312319999985 0.2556250240000111  C 45.8240624 0.2556250240000111  47.540000000000006 0.8968750080000234  48.953125119999996 2.179374976000048  C 50.39 3.473750016000054  51.132187520000016 5.320312384000033  51 7.719062080000015  L 51 19.172500480000025  C 51.132187520000016 21.559375360000047  50.39 23.400000320000032  48.953125119999996 24.694375360000038  C 47.540000000000006 25.976875200000052  45.8240624 26.630000000000024  43.805312319999985 26.65374976000004  C 41.8459376 26.630000000000024  40.15968768 25.976875200000052  38.746562559999994 24.694375360000038  C 37.23843776 23.400000320000032  36.47250016000001 21.559375360000047  36 19.172500480000025  Z M 65 18.958749760000046  L 65 7.95062464000003  C 64.89531264000001 5.349999872000012  63.678125120000004 4.025937504000041  61.31499999999999 3.9784375360000293  C 58.940000319999996 4.025937504000041  57.728750399999996 5.349999872000012  57 7.95062464000003  L 57 18.958749760000046  C 57.728750399999996 21.583124800000036  58.940000319999996 22.907187520000036  61.31499999999999 22.930937920000048  C 63.678125120000004 22.907187520000036  64.89531264000001 21.583124800000036  65 18.958749760000046  Z M 54 19.172500480000025  L 54 7.719062080000015  C 53.9821872 5.320312384000033  54.7481248 3.473750016000054  56.25625024 2.179374976000048  C 57.669375360000004 0.8968750080000234  59.35562528000001 0.2556250240000111  61.31499999999999 0.2556250240000111  C 63.33375008000001 0.2556250240000111  65.04968767999999 0.8968750080000234  66.46281280000001 2.179374976000048  C 67.89968768 3.473750016000054  68.64187519999999 5.320312384000033  68 7.719062080000015  L 68 19.172500480000025  C 68.64187519999999 21.559375360000047  67.89968768 23.400000320000032  66.46281280000001 24.694375360000038  C 65.04968767999999 25.976875200000052  63.33375008000001 26.630000000000024  61.31499999999999 26.65374976000004  C 59.35562528000001 26.630000000000024  57.669375360000004 25.976875200000052  56.25625024 24.694375360000038  C 54.7481248 23.400000320000032  53.9821872 21.559375360000047  54 19.172500480000025  Z " fill-rule="nonzero" fill="rgba(255, 255, 255, 1)" stroke="none" transform="matrix(1 0 0 1 1778 187 )" class="fill" />
    <path d="M 6.452500000000001 14.701562560000013  L 6.452500000000001 11.40625024000002  L 7.734999999999999 11.40625024000002  C 9.005625280000002 11.40625024000002  9.99125024 11.05593760000005  10.69187488 10.355312320000024  C 11.392500159999997 9.678437440000039  11.742812800000003 8.799687360000036  11.742812799999996 7.719062080000015  C 11.719062399999999 6.626562240000055  11.35687488 5.730000000000047  10.656250239999999 5.029375360000046  C 9.955625087999998 4.352500096000057  9.053124992 4.0021874880000325  7.948749952 3.9784375360000293  C 7.153124992000002 3.9784375360000293  6.428750016000002 4.233750144000055  5.775625023999996 4.744375360000049  C 5.086875008000003 5.255000000000052  4.6237500160000025 6.04468736000004  4.386250048000001 7.113437440000041  L 0.6634374976000004 7.113437440000041  C 0.8534374976000016 5.189687488000061  1.6312499904000006 3.5687500160000245  2.996874976000001 2.2506250240000156  C 4.338749984 0.9443750400000681  5.941875007999997 0.27937504000004765  7.8062500479999954 0.2556250240000111  C 10.169375295999998 0.27937504000004765  12.045625279999996 1.033437536000065  13.434999999999995 2.5178125120000345  C 14.765 3.966562784000047  15.44187488 5.676562880000034  15.465624640000001 7.647812800000025  C 15.465624640000001 8.645312320000016  15.287499840000002 9.607187200000027  14.931250239999999 10.533437440000029  C 14.515625280000002 11.45968768000003  13.773437760000007 12.285000320000051  12.70468768 13.009375360000035  C 13.797187520000001 13.721875200000055  14.586874880000005 14.576875200000044  15.073749759999998 15.574375360000035  C 15.536874879999997 16.571874880000053  15.768437440000007 17.61687488000004  15.76843744 18.709375360000053  C 15.744687679999998 21.143750400000044  14.990625280000003 23.061562880000025  13.50625024 24.462812800000023  C 12.045624959999998 25.899687680000028  10.169374880000007 26.630000000000024  7.877499999999998 26.65374976000004  C 6.108125024000003 26.65374976000004  4.540625024000001 26.083749760000046  3.1750000000000007 24.94374976000003  C 1.8093749760000044 23.803749760000045  0.9246874751999989 22.153124800000057  0.5209374976000021 19.99187488000004  L 4.243749951999998 19.99187488000004  C 4.576249984000004 20.85874976000005  5.045312512000003 21.55937472000005  5.650937536000001 22.093749760000037  C 6.268437504000002 22.651875200000035  7.087812480000004 22.930937920000048  8.109062463999997 22.930937920000048  C 9.201562687999996 22.930937920000048  10.121875199999998 22.556875200000036  10.869999999999997 21.80874976000004  C 11.630000000000003 21.10812512000004  12.021874880000006 20.110625280000022  12.04562464 18.816250240000045  C 12.021874880000006 17.498124800000028  11.630000000000003 16.476874880000025  10.869999999999997 15.752500480000036  C 10.121875199999998 15.051875200000039  9.171875200000002 14.701562560000013  8.02 14.701562560000013  L 6.452500000000001 14.701562560000013  Z " stroke-width="0" stroke-dasharray="0" stroke="rgba(255, 255, 255, 0)" fill="none" transform="matrix(1 0 0 1 1778 187 )" class="stroke" mask="url(#Clip1236)" />
    <path d="M 30 18.958749760000046  L 30 7.95062464000003  C 29.875937279999995 5.349999872000012  28.658749760000006 4.025937504000041  26.29562464 3.9784375360000293  C 23.920624960000005 4.025937504000041  22.709375040000005 5.349999872000012  23 7.95062464000003  L 23 18.958749760000046  C 22.709375040000005 21.583124800000036  23.920624960000005 22.907187520000036  26.29562464 22.930937920000048  C 28.658749760000006 22.907187520000036  29.875937279999995 21.583124800000036  30 18.958749760000046  Z " stroke-width="0" stroke-dasharray="0" stroke="rgba(255, 255, 255, 0)" fill="none" transform="matrix(1 0 0 1 1778 187 )" class="stroke" mask="url(#Clip1236)" />
    <path d="M 19 19.172500480000025  L 19 7.719062080000015  C 18.962812480000004 5.320312384000033  19.728750079999998 3.473750016000054  21.236874880000002 2.179374976000048  C 22.65 0.8968750080000234  24.33624992 0.2556250240000111  26.29562464 0.2556250240000111  C 28.31437472000001 0.2556250240000111  30.03031232 0.8968750080000234  31.443437439999997 2.179374976000048  C 32.88031232 3.473750016000054  33.62249984000001 5.320312384000033  34 7.719062080000015  L 34 19.172500480000025  C 33.62249984000001 21.559375360000047  32.88031232 23.400000320000032  31.443437439999997 24.694375360000038  C 30.03031232 25.976875200000052  28.31437472000001 26.630000000000024  26.29562464 26.65374976000004  C 24.33624992 26.630000000000024  22.65 25.976875200000052  21.236874880000002 24.694375360000038  C 19.728750079999998 23.400000320000032  18.962812480000004 21.559375360000047  19 19.172500480000025  Z " stroke-width="0" stroke-dasharray="0" stroke="rgba(255, 255, 255, 0)" fill="none" transform="matrix(1 0 0 1 1778 187 )" class="stroke" mask="url(#Clip1236)" />
    <path d="M 47 18.958749760000046  L 47 7.95062464000003  C 47.38562496 5.349999872000012  46.16843743999999 4.025937504000041  43.805312319999985 3.9784375360000293  C 41.43031264 4.025937504000041  40.21906272 5.349999872000012  40 7.95062464000003  L 40 18.958749760000046  C 40.21906272 21.583124800000036  41.43031264 22.907187520000036  43.805312319999985 22.930937920000048  C 46.16843743999999 22.907187520000036  47.38562496 21.583124800000036  47 18.958749760000046  Z " stroke-width="0" stroke-dasharray="0" stroke="rgba(255, 255, 255, 0)" fill="none" transform="matrix(1 0 0 1 1778 187 )" class="stroke" mask="url(#Clip1236)" />
    <path d="M 36 19.172500480000025  L 36 7.719062080000015  C 36.47250016000001 5.320312384000033  37.23843776 3.473750016000054  38.746562559999994 2.179374976000048  C 40.15968768 0.8968750080000234  41.8459376 0.2556250240000111  43.805312319999985 0.2556250240000111  C 45.8240624 0.2556250240000111  47.540000000000006 0.8968750080000234  48.953125119999996 2.179374976000048  C 50.39 3.473750016000054  51.132187520000016 5.320312384000033  51 7.719062080000015  L 51 19.172500480000025  C 51.132187520000016 21.559375360000047  50.39 23.400000320000032  48.953125119999996 24.694375360000038  C 47.540000000000006 25.976875200000052  45.8240624 26.630000000000024  43.805312319999985 26.65374976000004  C 41.8459376 26.630000000000024  40.15968768 25.976875200000052  38.746562559999994 24.694375360000038  C 37.23843776 23.400000320000032  36.47250016000001 21.559375360000047  36 19.172500480000025  Z " stroke-width="0" stroke-dasharray="0" stroke="rgba(255, 255, 255, 0)" fill="none" transform="matrix(1 0 0 1 1778 187 )" class="stroke" mask="url(#Clip1236)" />
    <path d="M 65 18.958749760000046  L 65 7.95062464000003  C 64.89531264000001 5.349999872000012  63.678125120000004 4.025937504000041  61.31499999999999 3.9784375360000293  C 58.940000319999996 4.025937504000041  57.728750399999996 5.349999872000012  57 7.95062464000003  L 57 18.958749760000046  C 57.728750399999996 21.583124800000036  58.940000319999996 22.907187520000036  61.31499999999999 22.930937920000048  C 63.678125120000004 22.907187520000036  64.89531264000001 21.583124800000036  65 18.958749760000046  Z " stroke-width="0" stroke-dasharray="0" stroke="rgba(255, 255, 255, 0)" fill="none" transform="matrix(1 0 0 1 1778 187 )" class="stroke" mask="url(#Clip1236)" />
    <path d="M 54 19.172500480000025  L 54 7.719062080000015  C 53.9821872 5.320312384000033  54.7481248 3.473750016000054  56.25625024 2.179374976000048  C 57.669375360000004 0.8968750080000234  59.35562528000001 0.2556250240000111  61.31499999999999 0.2556250240000111  C 63.33375008000001 0.2556250240000111  65.04968767999999 0.8968750080000234  66.46281280000001 2.179374976000048  C 67.89968768 3.473750016000054  68.64187519999999 5.320312384000033  68 7.719062080000015  L 68 19.172500480000025  C 68.64187519999999 21.559375360000047  67.89968768 23.400000320000032  66.46281280000001 24.694375360000038  C 65.04968767999999 25.976875200000052  63.33375008000001 26.630000000000024  61.31499999999999 26.65374976000004  C 59.35562528000001 26.630000000000024  57.669375360000004 25.976875200000052  56.25625024 24.694375360000038  C 54.7481248 23.400000320000032  53.9821872 21.559375360000047  54 19.172500480000025  Z " stroke-width="0" stroke-dasharray="0" stroke="rgba(255, 255, 255, 0)" fill="none" transform="matrix(1 0 0 1 1778 187 )" class="stroke" mask="url(#Clip1236)" />
  </g>
</svg>