<?xml version="1.0" encoding="utf-8"?>
<svg version="1.1" xmlns:xlink="http://www.w3.org/1999/xlink" width="80px" height="13px" xmlns="http://www.w3.org/2000/svg">
  <defs>
    <pattern id="BGPattern" patternUnits="userSpaceOnUse" alignment="0 0" imageRepeat="None" />
    <mask fill="white" id="Clip541">
      <path d="M 1.048000095999999 12.383039999999994  L 2.2576001920000017 12.383039999999994  C 3.023679999999999 12.383039999999994  3.413440191999996 11.99327999999997  3.413440191999996 11.240639999999985  L 3.413440191999996 7.2758400000000165  C 3.8032000959999976 7.0876799040000265  4.1929601919999975 6.899519808000037  4.569279903999998 6.697919807999995  L 4.569279903999998 5.716799904000027  C 4.1929601919999975 5.9318399040000145  3.8032000959999976 6.1200000000000045  3.413440191999996 6.308159616000012  L 3.413440191999996 3.6873596159999806  L 4.770879999999998 3.6873596159999806  L 4.770879999999998 2.759999999999991  L 3.413440191999996 2.759999999999991  L 3.413440191999996 0.21984008639998365  L 2.4188801919999996 0.21984008639998365  L 2.4188801919999996 2.759999999999991  L 0.7926400383999983 2.759999999999991  L 0.7926400383999983 3.6873596159999806  L 2.4188801919999996 3.6873596159999806  L 2.4188801919999996 6.724799615999984  C 1.827520095999997 6.953280000000007  1.236160095999999 7.141439712000022  0.6313599999999973 7.289279904000011  L 0.8598400288000008 8.256959807999976  C 1.3840000959999976 8.095679615999984  1.9081600959999996 7.907519519999993  2.4188801919999996 7.705920384000024  L 2.4188801919999996 10.985279999999989  C 2.4188801919999996 11.321280000000002  2.2441599999999973 11.496000000000038  1.9216000000000015 11.496000000000038  C 1.572160096000001 11.496000000000038  1.222719999999999 11.469119999999975  0.846400028799998 11.44223999999997  L 1.048000095999999 12.383039999999994  Z M 11.679040960000002 0.6499200000000087  L 5.819199999999999 0.6499200000000087  L 5.819199999999999 5.313599807999992  L 11.679040960000002 5.313599807999992  L 11.679040960000002 0.6499200000000087  Z M 10.738239999999998 3.36480009600001  L 10.738239999999998 4.5206396160000395  L 6.759999999999998 4.5206396160000395  L 6.759999999999998 3.36480009600001  L 10.738239999999998 3.36480009600001  Z M 10.738239999999998 2.6121597119999933  L 6.759999999999998 2.6121597119999933  L 6.759999999999998 1.4428793280000036  L 10.738239999999998 1.4428793280000036  L 10.738239999999998 2.6121597119999933  Z M 12.56608 6.254399904000024  L 4.878399999999999 6.254399904000024  L 4.878399999999999 7.114559808000024  L 8.278720672000002 7.114559808000024  L 8.278720672000002 11.03904  C 8.157760287999999 10.998719999999992  8.050239903999998 10.95840000000004  7.956160287999996 10.918079999999975  C 7.391680479999998 10.662719999999979  6.894400288 10.084799999999973  6.4643203840000005 9.184319423999966  C 6.571840383999998 8.727359615999944  6.639040095999999 8.270399808000036  6.665920383999996 7.7865600960000165  L 5.805759999999999 7.692479519999949  C 5.698240095999999 9.224640192000038  5.133760192 10.62239999999997  4.112320095999998 11.85888  L 4.824640192 12.477120000000014  C 5.402559999999998 11.778239999999983  5.846080287999996 11.012159999999994  6.168640287999999 10.178879999999992  C 6.571840383999998 10.931519999999978  7.042240095999997 11.44223999999997  7.552960191999997 11.711040000000025  C 8.198080095999998 12.033600000000035  9.407680384000003 12.208319999999958  11.181759999999997 12.22175999999996  C 11.61184 12.22175999999996  12.109120959999998 12.23520000000002  12.646719999999995 12.23520000000002  L 12.915520960000002 11.294399999999996  C 12.418239999999997 11.334720000000004  11.813439999999993 11.361599999999953  11.114559999999997 11.361599999999953  C 10.375360960000002 11.361599999999953  9.743680959999999 11.321280000000002  9.206080287999995 11.240639999999985  L 9.206080287999995 9.506880000000024  L 12.015039999999999 9.506880000000024  L 12.015039999999999 8.633280000000013  L 9.206080287999995 8.633280000000013  L 9.206080287999995 7.114559808000024  L 12.56608 7.114559808000024  L 12.56608 6.254399904000024  Z M 25.280320000000003 8.149440287999994  L 25.280320000000003 0.7171197119999988  L 19.312959999999997 0.7171197119999988  L 19.312959999999997 8.149440287999994  L 20.267199999999995 8.149440287999994  L 20.267199999999995 1.6444793279999885  L 24.299199999999992 1.6444793279999885  L 24.299199999999992 8.149440287999994  L 25.280320000000003 8.149440287999994  Z M 23.586879999999994 12.288959999999975  L 24.98464096 12.288959999999975  C 25.41471904 12.288959999999975  25.737281919999994 12.18144000000001  25.95232096 11.979839999999967  C 26.180800000000005 11.737919999999974  26.342080959999997 11.052479999999946  26.422719999999998 9.950400000000002  L 25.522240959999998 9.66816  C 25.46847904 10.501440000000002  25.387839039999996 11.012159999999994  25.280320000000003 11.18688000000003  C 25.186239999999998 11.321280000000002  25.02496096 11.401920000000018  24.809919999999998 11.401920000000018  L 23.869120959999997 11.401920000000018  C 23.586879999999994 11.401920000000018  23.45248 11.254079999999988  23.45248 10.971839999999986  L 23.45248 8.095679615999984  L 22.48480096 8.095679615999984  L 22.48480096 11.173440000000028  C 22.48480096 11.91264000000001  22.847679039999996 12.288959999999975  23.586879999999994 12.288959999999975  Z M 22.699839999999995 2.5987198079999985  L 21.77248 2.5987198079999985  L 21.77248 5.8780797119999875  C 21.745600959999997 7.383359999999982  21.44992 8.606400192000024  20.912320960000002 9.547199999999975  C 20.33439904 10.434239039999966  19.312959999999997 11.159999999999968  17.861439039999993 11.724480000000028  L 18.385600959999998 12.544320000000027  C 19.89087904 11.979839999999967  20.966079999999998 11.18688000000003  21.611200959999998 10.192319999999995  C 22.2832 9.117119711999976  22.646079999999998 7.679039616000011  22.699839999999995 5.8780797119999875  L 22.699839999999995 2.5987198079999985  Z M 15.872320960000003 5.152319616  L 14.326719999999995 5.152319616  L 14.326719999999995 6.093119616000024  L 15.872320960000003 6.093119616000024  L 15.872320960000003 9.43968000000001  C 15.280959999999993 9.600959039999964  14.689599999999999 9.735360000000014  14.084800000000001 9.84287999999998  L 14.313279999999999 10.770240000000001  C 15.832000960000002 10.407359999999983  17.256639999999997 9.963840000000005  18.587199999999996 9.426240000000007  L 18.587199999999996 8.498879712000019  C 18.02272 8.727359615999944  17.458240960000005 8.942399615999989  16.866879999999995 9.143999615999974  L 16.866879999999995 6.093119616000024  L 18.372160960000002 6.093119616000024  L 18.372160960000002 5.152319616  L 16.866879999999995 5.152319616  L 16.866879999999995 2.007359615999974  L 18.560319999999997 2.007359615999974  L 18.560319999999997 1.079999999999984  L 14.152000000000001 1.079999999999984  L 14.152000000000001 2.007359615999974  L 15.872320960000003 2.007359615999974  L 15.872320960000003 5.152319616  Z M 29.540800000000004 0.569279481600006  L 28.47904096 4.305599712000003  L 31.81216096 4.305599712000003  C 30.871360959999997 7.302719904000014  29.433279999999996 9.654719999999998  27.47103904 11.375039999999956  L 27.968319039999997 12.262080000000026  C 29.500480000000003 11.012159999999994  30.763841919999997 9.332159999999988  31.74496096 7.2086398080000444  C 32.18847904 8.149440287999994  32.927679039999994 9.023040191999996  33.97599808 9.829439999999977  C 32.967999039999995 10.488  31.71808096 11.092800000000011  30.212799999999994 11.643840000000012  L 30.72352 12.544320000000027  C 32.349758079999994 11.91264000000001  33.72064 11.21375999999998  34.82272192 10.434239039999966  C 35.95168096 11.173440000000028  37.37631808 11.85888  39.09663808 12.490560000000016  L 39.59392 11.59008  C 38.03487903999999 11.052479999999946  36.70432096 10.461119999999994  35.61567904 9.816000000000031  C 36.71776096 8.875199903999999  37.44351808 7.826879904000009  37.806400000000004 6.671039903999997  L 37.806400000000004 5.837759903999995  L 32.30943808 5.837759903999995  C 32.49760096 5.353919711999993  32.65888096 4.843199615999993  32.82016 4.305599712000003  L 39.365440959999994 4.305599712000003  L 39.365440959999994 3.378240096000013  L 33.075519039999996 3.378240096000013  C 33.31744096 2.383679808000011  33.53248 1.3353598079999642  33.7072 0.20639923200002386  L 32.72608 0.0854397600000425  C 32.56480096 1.2412793280000187  32.349758079999994 2.3299200000000155  32.080959039999996 3.378240096000013  L 29.728960959999995 3.378240096000013  L 30.495040959999997 0.7305597120000016  L 29.540800000000004 0.569279481600006  Z M 34.76896288 9.26496000000003  C 33.69376 8.485439711999959  32.927679039999994 7.638719808000019  32.47072096 6.724799615999984  L 36.82528096 6.724799615999984  C 36.448962879999996 7.638719808000019  35.76351808 8.485439711999959  34.76896288 9.26496000000003  Z M 38.37088096 2.4105597120000084  C 37.725760959999995 1.6713592319999862  36.9328 0.9321597119999865  35.96512096 0.192959289599969  L 35.32 0.8246393279999894  C 36.327999039999995 1.631039423999994  37.120959039999995 2.383679808000011  37.68544096 3.095999424000013  L 38.37088096 2.4105597120000084  Z M 52.53663808 9.560639999999978  C 52.75168096 9.238080096000033  52.912959999999984 8.525759616000016  52.9936 7.43711971199997  L 52.079679999999996 7.127999712000019  C 52.02592 7.907519519999993  51.958720959999994 8.431680000000028  51.86464096 8.687039808000009  C 51.74368192 8.969280384000001  51.48831903999999 9.117119711999976  51.11200096 9.117119711999976  L 49.284160959999994 9.117119711999976  C 48.90783904 9.103679807999981  48.71968 8.915519711999991  48.71968 8.552640384000028  L 48.71968 5.461439712000015  L 52.34847904 5.461439712000015  L 52.34847904 1.0396792320000259  L 47.52352191999999 1.0396792320000259  L 47.52352191999999 1.9401599039999837  L 51.40767903999999 1.9401599039999837  L 51.40767903999999 4.534079615999985  L 47.752000960000004 4.534079615999985  L 47.752000960000004 8.902079807999996  C 47.752000960000004 9.66816  48.128319039999994 10.057919999999967  48.894399039999996 10.057919999999967  L 51.28672 10.057919999999967  C 51.918400959999985 10.057919999999967  52.335039039999984 9.883199999999988  52.53663808 9.560639999999978  Z M 42.85983999999999 6.684479807999992  L 41.986239999999995 6.576959808000027  C 41.91904095999999 8.525759616000016  41.54271808 10.286399999999958  40.87072096000001 11.845439999999996  L 41.609921920000005 12.503999999999962  C 41.95935999999999 11.724480000000028  42.228159039999994 10.891200000000026  42.44319807999999 9.990719999999953  C 42.95392 10.797120000000007  43.55872095999999 11.375039999999956  44.24416095999999 11.697600000000023  C 45.02368192 12.060479999999984  46.999359999999996 12.248640000000023  50.14432096 12.248640000000023  L 53.101119039999986 12.248640000000023  L 53.26240191999999 11.307839999999999  C 52.53663808 11.348160000000007  51.421119039999994 11.375039999999956  49.929281919999994 11.375039999999956  C 47.46975807999999 11.375039999999956  45.816638080000004 11.254079999999988  44.98336191999999 11.025599999999997  L 44.98336191999999 8.498879712000019  L 46.891840959999996 8.498879712000019  L 46.891840959999996 7.611839904000021  L 44.98336191999999 7.611839904000021  L 44.98336191999999 5.716799904000027  L 47.05312000000001 5.716799904000027  L 47.05312000000001 4.829759711999998  L 44.72799904 4.829759711999998  L 44.72799904 2.8540796159999786  L 46.87840095999999 2.8540796159999786  L 46.87840095999999 1.9670398079999813  L 44.72799904 1.9670398079999813  L 44.72799904 0.15263946239997495  L 43.76031999999999 0.15263946239997495  L 43.76031999999999 1.9670398079999813  L 41.54271808 1.9670398079999813  L 41.54271808 2.8540796159999786  L 43.76031999999999 2.8540796159999786  L 43.76031999999999 4.829759711999998  L 41.30079999999998 4.829759711999998  L 41.30079999999998 5.716799904000027  L 44.055998079999995 5.716799904000027  L 44.055998079999995 10.568640000000016  C 43.518400959999994 10.192319999999995  43.061439039999996 9.627839999999992  42.65824096 8.875199903999999  C 42.765760959999994 8.176320191999991  42.832959999999986 7.450559712000029  42.85983999999999 6.684479807999992  Z M 58.772800000000004 11.092800000000011  L 58.772800000000004 1.1875195200000235  L 55 1.1875195200000235  L 55 11.415360000000021  L 55.84287807999999 11.415360000000021  L 55.84287807999999 10.192319999999995  L 57.83200096 10.192319999999995  L 57.83200096 11.092800000000011  L 58.772800000000004 11.092800000000011  Z M 57.83200096 9.29183999999998  L 55.84287807999999 9.29183999999998  L 55.84287807999999 6.052799808000032  L 57.83200096 6.052799808000032  L 57.83200096 9.29183999999998  Z M 57.83200096 5.152319616  L 55.84287807999999 5.152319616  L 55.84287807999999 2.0745593280000207  L 57.83200096 2.0745593280000207  L 57.83200096 5.152319616  Z M 62.63007807999999 8.498879712000019  C 62.18656 7.558080096000026  61.54144287999999 6.455999904000009  60.70815904 5.192639904000032  L 59.915199040000005 5.689920000000029  C 60.72159904 6.926399712000035  61.35328 8.055359807999992  61.82368192 9.063359999999989  L 62.63007807999999 8.498879712000019  Z M 61.42048 12.369599999999991  L 63.77248 12.369599999999991  C 64.60575711999999 12.369599999999991  65.02240192000001 11.939520000000016  65.02240192000001 11.092800000000011  L 65.02240192000001 3.5798396160000157  L 66.67552287999999 3.5798396160000157  L 66.67552287999999 2.6524795199999858  L 65.02240192000001 2.6524795199999858  L 65.02240192000001 0.28703979839997373  L 64.04127903999999 0.28703979839997373  L 64.04127903999999 2.6524795199999858  L 59.39104096000001 2.6524795199999858  L 59.39104096000001 3.5798396160000157  L 64.04127903999999 3.5798396160000157  L 64.04127903999999 10.850880000000018  C 64.04127903999999 11.26751999999999  63.83968 11.482559999999978  63.449921919999994 11.482559999999978  C 62.737598079999984 11.482559999999978  61.99840096 11.455679999999973  61.21888096000001 11.428799999999967  L 61.42048 12.369599999999991  Z M 76.45984384 3.821759903999976  L 71.35263712 3.821759903999976  L 71.35263712 10.084799999999973  L 76.45984384 10.084799999999973  L 76.45984384 3.821759903999976  Z M 75.55936 7.383359999999982  L 75.55936 9.224640192000038  L 72.26656 9.224640192000038  L 72.26656 7.383359999999982  L 75.55936 7.383359999999982  Z M 75.55936 6.523200095999982  L 72.26656 6.523200095999982  L 72.26656 4.681919903999983  L 75.55936 4.681919903999983  L 75.55936 6.523200095999982  Z M 76.83616192 12.396479999999997  L 77.96511712 12.396479999999997  C 78.86560096 12.396479999999997  79.32255904 11.91264000000001  79 10.971839999999986  L 79 0.8515200960000014  L 73.16704383999999 0.8515200960000014  L 73.16704383999999 1.7519998079999939  L 78.38176288 1.7519998079999939  L 78.38176288 10.703039999999987  C 78.38176288 11.240639999999985  78.16672383999999 11.522879999999986  77.76351808 11.522879999999986  L 76.59424288 11.496000000000038  L 76.83616192 12.396479999999997  Z M 69 2.4105597120000084  L 68 2.4105597120000084  L 68 12.517439999999965  L 69 12.517439999999965  L 69 2.4105597120000084  Z M 72.15904096 2.4911993279999933  C 71.68864288 1.604159519999996  71.13759807999999 0.7977594239999917  70.51935999999999 0.05855987519998962  L 69.63231712 0.44832000959996776  C 70.23712191999999 1.1740796159999718  70.78815904 2.007359615999974  71.29887712 2.948160095999981  L 72.15904096 2.4911993279999933  Z " fill-rule="evenodd" />
    </mask>
  </defs>
  <g transform="matrix(1 0 0 1 -1778 -473 )">
    <path d="M 1.048000095999999 12.383039999999994  L 2.2576001920000017 12.383039999999994  C 3.023679999999999 12.383039999999994  3.413440191999996 11.99327999999997  3.413440191999996 11.240639999999985  L 3.413440191999996 7.2758400000000165  C 3.8032000959999976 7.0876799040000265  4.1929601919999975 6.899519808000037  4.569279903999998 6.697919807999995  L 4.569279903999998 5.716799904000027  C 4.1929601919999975 5.9318399040000145  3.8032000959999976 6.1200000000000045  3.413440191999996 6.308159616000012  L 3.413440191999996 3.6873596159999806  L 4.770879999999998 3.6873596159999806  L 4.770879999999998 2.759999999999991  L 3.413440191999996 2.759999999999991  L 3.413440191999996 0.21984008639998365  L 2.4188801919999996 0.21984008639998365  L 2.4188801919999996 2.759999999999991  L 0.7926400383999983 2.759999999999991  L 0.7926400383999983 3.6873596159999806  L 2.4188801919999996 3.6873596159999806  L 2.4188801919999996 6.724799615999984  C 1.827520095999997 6.953280000000007  1.236160095999999 7.141439712000022  0.6313599999999973 7.289279904000011  L 0.8598400288000008 8.256959807999976  C 1.3840000959999976 8.095679615999984  1.9081600959999996 7.907519519999993  2.4188801919999996 7.705920384000024  L 2.4188801919999996 10.985279999999989  C 2.4188801919999996 11.321280000000002  2.2441599999999973 11.496000000000038  1.9216000000000015 11.496000000000038  C 1.572160096000001 11.496000000000038  1.222719999999999 11.469119999999975  0.846400028799998 11.44223999999997  L 1.048000095999999 12.383039999999994  Z M 11.679040960000002 0.6499200000000087  L 5.819199999999999 0.6499200000000087  L 5.819199999999999 5.313599807999992  L 11.679040960000002 5.313599807999992  L 11.679040960000002 0.6499200000000087  Z M 10.738239999999998 3.36480009600001  L 10.738239999999998 4.5206396160000395  L 6.759999999999998 4.5206396160000395  L 6.759999999999998 3.36480009600001  L 10.738239999999998 3.36480009600001  Z M 10.738239999999998 2.6121597119999933  L 6.759999999999998 2.6121597119999933  L 6.759999999999998 1.4428793280000036  L 10.738239999999998 1.4428793280000036  L 10.738239999999998 2.6121597119999933  Z M 12.56608 6.254399904000024  L 4.878399999999999 6.254399904000024  L 4.878399999999999 7.114559808000024  L 8.278720672000002 7.114559808000024  L 8.278720672000002 11.03904  C 8.157760287999999 10.998719999999992  8.050239903999998 10.95840000000004  7.956160287999996 10.918079999999975  C 7.391680479999998 10.662719999999979  6.894400288 10.084799999999973  6.4643203840000005 9.184319423999966  C 6.571840383999998 8.727359615999944  6.639040095999999 8.270399808000036  6.665920383999996 7.7865600960000165  L 5.805759999999999 7.692479519999949  C 5.698240095999999 9.224640192000038  5.133760192 10.62239999999997  4.112320095999998 11.85888  L 4.824640192 12.477120000000014  C 5.402559999999998 11.778239999999983  5.846080287999996 11.012159999999994  6.168640287999999 10.178879999999992  C 6.571840383999998 10.931519999999978  7.042240095999997 11.44223999999997  7.552960191999997 11.711040000000025  C 8.198080095999998 12.033600000000035  9.407680384000003 12.208319999999958  11.181759999999997 12.22175999999996  C 11.61184 12.22175999999996  12.109120959999998 12.23520000000002  12.646719999999995 12.23520000000002  L 12.915520960000002 11.294399999999996  C 12.418239999999997 11.334720000000004  11.813439999999993 11.361599999999953  11.114559999999997 11.361599999999953  C 10.375360960000002 11.361599999999953  9.743680959999999 11.321280000000002  9.206080287999995 11.240639999999985  L 9.206080287999995 9.506880000000024  L 12.015039999999999 9.506880000000024  L 12.015039999999999 8.633280000000013  L 9.206080287999995 8.633280000000013  L 9.206080287999995 7.114559808000024  L 12.56608 7.114559808000024  L 12.56608 6.254399904000024  Z M 25.280320000000003 8.149440287999994  L 25.280320000000003 0.7171197119999988  L 19.312959999999997 0.7171197119999988  L 19.312959999999997 8.149440287999994  L 20.267199999999995 8.149440287999994  L 20.267199999999995 1.6444793279999885  L 24.299199999999992 1.6444793279999885  L 24.299199999999992 8.149440287999994  L 25.280320000000003 8.149440287999994  Z M 23.586879999999994 12.288959999999975  L 24.98464096 12.288959999999975  C 25.41471904 12.288959999999975  25.737281919999994 12.18144000000001  25.95232096 11.979839999999967  C 26.180800000000005 11.737919999999974  26.342080959999997 11.052479999999946  26.422719999999998 9.950400000000002  L 25.522240959999998 9.66816  C 25.46847904 10.501440000000002  25.387839039999996 11.012159999999994  25.280320000000003 11.18688000000003  C 25.186239999999998 11.321280000000002  25.02496096 11.401920000000018  24.809919999999998 11.401920000000018  L 23.869120959999997 11.401920000000018  C 23.586879999999994 11.401920000000018  23.45248 11.254079999999988  23.45248 10.971839999999986  L 23.45248 8.095679615999984  L 22.48480096 8.095679615999984  L 22.48480096 11.173440000000028  C 22.48480096 11.91264000000001  22.847679039999996 12.288959999999975  23.586879999999994 12.288959999999975  Z M 22.699839999999995 2.5987198079999985  L 21.77248 2.5987198079999985  L 21.77248 5.8780797119999875  C 21.745600959999997 7.383359999999982  21.44992 8.606400192000024  20.912320960000002 9.547199999999975  C 20.33439904 10.434239039999966  19.312959999999997 11.159999999999968  17.861439039999993 11.724480000000028  L 18.385600959999998 12.544320000000027  C 19.89087904 11.979839999999967  20.966079999999998 11.18688000000003  21.611200959999998 10.192319999999995  C 22.2832 9.117119711999976  22.646079999999998 7.679039616000011  22.699839999999995 5.8780797119999875  L 22.699839999999995 2.5987198079999985  Z M 15.872320960000003 5.152319616  L 14.326719999999995 5.152319616  L 14.326719999999995 6.093119616000024  L 15.872320960000003 6.093119616000024  L 15.872320960000003 9.43968000000001  C 15.280959999999993 9.600959039999964  14.689599999999999 9.735360000000014  14.084800000000001 9.84287999999998  L 14.313279999999999 10.770240000000001  C 15.832000960000002 10.407359999999983  17.256639999999997 9.963840000000005  18.587199999999996 9.426240000000007  L 18.587199999999996 8.498879712000019  C 18.02272 8.727359615999944  17.458240960000005 8.942399615999989  16.866879999999995 9.143999615999974  L 16.866879999999995 6.093119616000024  L 18.372160960000002 6.093119616000024  L 18.372160960000002 5.152319616  L 16.866879999999995 5.152319616  L 16.866879999999995 2.007359615999974  L 18.560319999999997 2.007359615999974  L 18.560319999999997 1.079999999999984  L 14.152000000000001 1.079999999999984  L 14.152000000000001 2.007359615999974  L 15.872320960000003 2.007359615999974  L 15.872320960000003 5.152319616  Z M 29.540800000000004 0.569279481600006  L 28.47904096 4.305599712000003  L 31.81216096 4.305599712000003  C 30.871360959999997 7.302719904000014  29.433279999999996 9.654719999999998  27.47103904 11.375039999999956  L 27.968319039999997 12.262080000000026  C 29.500480000000003 11.012159999999994  30.763841919999997 9.332159999999988  31.74496096 7.2086398080000444  C 32.18847904 8.149440287999994  32.927679039999994 9.023040191999996  33.97599808 9.829439999999977  C 32.967999039999995 10.488  31.71808096 11.092800000000011  30.212799999999994 11.643840000000012  L 30.72352 12.544320000000027  C 32.349758079999994 11.91264000000001  33.72064 11.21375999999998  34.82272192 10.434239039999966  C 35.95168096 11.173440000000028  37.37631808 11.85888  39.09663808 12.490560000000016  L 39.59392 11.59008  C 38.03487903999999 11.052479999999946  36.70432096 10.461119999999994  35.61567904 9.816000000000031  C 36.71776096 8.875199903999999  37.44351808 7.826879904000009  37.806400000000004 6.671039903999997  L 37.806400000000004 5.837759903999995  L 32.30943808 5.837759903999995  C 32.49760096 5.353919711999993  32.65888096 4.843199615999993  32.82016 4.305599712000003  L 39.365440959999994 4.305599712000003  L 39.365440959999994 3.378240096000013  L 33.075519039999996 3.378240096000013  C 33.31744096 2.383679808000011  33.53248 1.3353598079999642  33.7072 0.20639923200002386  L 32.72608 0.0854397600000425  C 32.56480096 1.2412793280000187  32.349758079999994 2.3299200000000155  32.080959039999996 3.378240096000013  L 29.728960959999995 3.378240096000013  L 30.495040959999997 0.7305597120000016  L 29.540800000000004 0.569279481600006  Z M 34.76896288 9.26496000000003  C 33.69376 8.485439711999959  32.927679039999994 7.638719808000019  32.47072096 6.724799615999984  L 36.82528096 6.724799615999984  C 36.448962879999996 7.638719808000019  35.76351808 8.485439711999959  34.76896288 9.26496000000003  Z M 38.37088096 2.4105597120000084  C 37.725760959999995 1.6713592319999862  36.9328 0.9321597119999865  35.96512096 0.192959289599969  L 35.32 0.8246393279999894  C 36.327999039999995 1.631039423999994  37.120959039999995 2.383679808000011  37.68544096 3.095999424000013  L 38.37088096 2.4105597120000084  Z M 52.53663808 9.560639999999978  C 52.75168096 9.238080096000033  52.912959999999984 8.525759616000016  52.9936 7.43711971199997  L 52.079679999999996 7.127999712000019  C 52.02592 7.907519519999993  51.958720959999994 8.431680000000028  51.86464096 8.687039808000009  C 51.74368192 8.969280384000001  51.48831903999999 9.117119711999976  51.11200096 9.117119711999976  L 49.284160959999994 9.117119711999976  C 48.90783904 9.103679807999981  48.71968 8.915519711999991  48.71968 8.552640384000028  L 48.71968 5.461439712000015  L 52.34847904 5.461439712000015  L 52.34847904 1.0396792320000259  L 47.52352191999999 1.0396792320000259  L 47.52352191999999 1.9401599039999837  L 51.40767903999999 1.9401599039999837  L 51.40767903999999 4.534079615999985  L 47.752000960000004 4.534079615999985  L 47.752000960000004 8.902079807999996  C 47.752000960000004 9.66816  48.128319039999994 10.057919999999967  48.894399039999996 10.057919999999967  L 51.28672 10.057919999999967  C 51.918400959999985 10.057919999999967  52.335039039999984 9.883199999999988  52.53663808 9.560639999999978  Z M 42.85983999999999 6.684479807999992  L 41.986239999999995 6.576959808000027  C 41.91904095999999 8.525759616000016  41.54271808 10.286399999999958  40.87072096000001 11.845439999999996  L 41.609921920000005 12.503999999999962  C 41.95935999999999 11.724480000000028  42.228159039999994 10.891200000000026  42.44319807999999 9.990719999999953  C 42.95392 10.797120000000007  43.55872095999999 11.375039999999956  44.24416095999999 11.697600000000023  C 45.02368192 12.060479999999984  46.999359999999996 12.248640000000023  50.14432096 12.248640000000023  L 53.101119039999986 12.248640000000023  L 53.26240191999999 11.307839999999999  C 52.53663808 11.348160000000007  51.421119039999994 11.375039999999956  49.929281919999994 11.375039999999956  C 47.46975807999999 11.375039999999956  45.816638080000004 11.254079999999988  44.98336191999999 11.025599999999997  L 44.98336191999999 8.498879712000019  L 46.891840959999996 8.498879712000019  L 46.891840959999996 7.611839904000021  L 44.98336191999999 7.611839904000021  L 44.98336191999999 5.716799904000027  L 47.05312000000001 5.716799904000027  L 47.05312000000001 4.829759711999998  L 44.72799904 4.829759711999998  L 44.72799904 2.8540796159999786  L 46.87840095999999 2.8540796159999786  L 46.87840095999999 1.9670398079999813  L 44.72799904 1.9670398079999813  L 44.72799904 0.15263946239997495  L 43.76031999999999 0.15263946239997495  L 43.76031999999999 1.9670398079999813  L 41.54271808 1.9670398079999813  L 41.54271808 2.8540796159999786  L 43.76031999999999 2.8540796159999786  L 43.76031999999999 4.829759711999998  L 41.30079999999998 4.829759711999998  L 41.30079999999998 5.716799904000027  L 44.055998079999995 5.716799904000027  L 44.055998079999995 10.568640000000016  C 43.518400959999994 10.192319999999995  43.061439039999996 9.627839999999992  42.65824096 8.875199903999999  C 42.765760959999994 8.176320191999991  42.832959999999986 7.450559712000029  42.85983999999999 6.684479807999992  Z M 58.772800000000004 11.092800000000011  L 58.772800000000004 1.1875195200000235  L 55 1.1875195200000235  L 55 11.415360000000021  L 55.84287807999999 11.415360000000021  L 55.84287807999999 10.192319999999995  L 57.83200096 10.192319999999995  L 57.83200096 11.092800000000011  L 58.772800000000004 11.092800000000011  Z M 57.83200096 9.29183999999998  L 55.84287807999999 9.29183999999998  L 55.84287807999999 6.052799808000032  L 57.83200096 6.052799808000032  L 57.83200096 9.29183999999998  Z M 57.83200096 5.152319616  L 55.84287807999999 5.152319616  L 55.84287807999999 2.0745593280000207  L 57.83200096 2.0745593280000207  L 57.83200096 5.152319616  Z M 62.63007807999999 8.498879712000019  C 62.18656 7.558080096000026  61.54144287999999 6.455999904000009  60.70815904 5.192639904000032  L 59.915199040000005 5.689920000000029  C 60.72159904 6.926399712000035  61.35328 8.055359807999992  61.82368192 9.063359999999989  L 62.63007807999999 8.498879712000019  Z M 61.42048 12.369599999999991  L 63.77248 12.369599999999991  C 64.60575711999999 12.369599999999991  65.02240192000001 11.939520000000016  65.02240192000001 11.092800000000011  L 65.02240192000001 3.5798396160000157  L 66.67552287999999 3.5798396160000157  L 66.67552287999999 2.6524795199999858  L 65.02240192000001 2.6524795199999858  L 65.02240192000001 0.28703979839997373  L 64.04127903999999 0.28703979839997373  L 64.04127903999999 2.6524795199999858  L 59.39104096000001 2.6524795199999858  L 59.39104096000001 3.5798396160000157  L 64.04127903999999 3.5798396160000157  L 64.04127903999999 10.850880000000018  C 64.04127903999999 11.26751999999999  63.83968 11.482559999999978  63.449921919999994 11.482559999999978  C 62.737598079999984 11.482559999999978  61.99840096 11.455679999999973  61.21888096000001 11.428799999999967  L 61.42048 12.369599999999991  Z M 76.45984384 3.821759903999976  L 71.35263712 3.821759903999976  L 71.35263712 10.084799999999973  L 76.45984384 10.084799999999973  L 76.45984384 3.821759903999976  Z M 75.55936 7.383359999999982  L 75.55936 9.224640192000038  L 72.26656 9.224640192000038  L 72.26656 7.383359999999982  L 75.55936 7.383359999999982  Z M 75.55936 6.523200095999982  L 72.26656 6.523200095999982  L 72.26656 4.681919903999983  L 75.55936 4.681919903999983  L 75.55936 6.523200095999982  Z M 76.83616192 12.396479999999997  L 77.96511712 12.396479999999997  C 78.86560096 12.396479999999997  79.32255904 11.91264000000001  79 10.971839999999986  L 79 0.8515200960000014  L 73.16704383999999 0.8515200960000014  L 73.16704383999999 1.7519998079999939  L 78.38176288 1.7519998079999939  L 78.38176288 10.703039999999987  C 78.38176288 11.240639999999985  78.16672383999999 11.522879999999986  77.76351808 11.522879999999986  L 76.59424288 11.496000000000038  L 76.83616192 12.396479999999997  Z M 69 2.4105597120000084  L 68 2.4105597120000084  L 68 12.517439999999965  L 69 12.517439999999965  L 69 2.4105597120000084  Z M 72.15904096 2.4911993279999933  C 71.68864288 1.604159519999996  71.13759807999999 0.7977594239999917  70.51935999999999 0.05855987519998962  L 69.63231712 0.44832000959996776  C 70.23712191999999 1.1740796159999718  70.78815904 2.007359615999974  71.29887712 2.948160095999981  L 72.15904096 2.4911993279999933  Z " fill-rule="nonzero" fill="rgba(51, 51, 51, 1)" stroke="none" transform="matrix(1 0 0 1 1778 473 )" class="fill" />
    <path d="M 1.048000095999999 12.383039999999994  L 2.2576001920000017 12.383039999999994  C 3.023679999999999 12.383039999999994  3.413440191999996 11.99327999999997  3.413440191999996 11.240639999999985  L 3.413440191999996 7.2758400000000165  C 3.8032000959999976 7.0876799040000265  4.1929601919999975 6.899519808000037  4.569279903999998 6.697919807999995  L 4.569279903999998 5.716799904000027  C 4.1929601919999975 5.9318399040000145  3.8032000959999976 6.1200000000000045  3.413440191999996 6.308159616000012  L 3.413440191999996 3.6873596159999806  L 4.770879999999998 3.6873596159999806  L 4.770879999999998 2.759999999999991  L 3.413440191999996 2.759999999999991  L 3.413440191999996 0.21984008639998365  L 2.4188801919999996 0.21984008639998365  L 2.4188801919999996 2.759999999999991  L 0.7926400383999983 2.759999999999991  L 0.7926400383999983 3.6873596159999806  L 2.4188801919999996 3.6873596159999806  L 2.4188801919999996 6.724799615999984  C 1.827520095999997 6.953280000000007  1.236160095999999 7.141439712000022  0.6313599999999973 7.289279904000011  L 0.8598400288000008 8.256959807999976  C 1.3840000959999976 8.095679615999984  1.9081600959999996 7.907519519999993  2.4188801919999996 7.705920384000024  L 2.4188801919999996 10.985279999999989  C 2.4188801919999996 11.321280000000002  2.2441599999999973 11.496000000000038  1.9216000000000015 11.496000000000038  C 1.572160096000001 11.496000000000038  1.222719999999999 11.469119999999975  0.846400028799998 11.44223999999997  L 1.048000095999999 12.383039999999994  Z " stroke-width="0" stroke-dasharray="0" stroke="rgba(255, 255, 255, 0)" fill="none" transform="matrix(1 0 0 1 1778 473 )" class="stroke" mask="url(#Clip541)" />
    <path d="M 11.679040960000002 0.6499200000000087  L 5.819199999999999 0.6499200000000087  L 5.819199999999999 5.313599807999992  L 11.679040960000002 5.313599807999992  L 11.679040960000002 0.6499200000000087  Z " stroke-width="0" stroke-dasharray="0" stroke="rgba(255, 255, 255, 0)" fill="none" transform="matrix(1 0 0 1 1778 473 )" class="stroke" mask="url(#Clip541)" />
    <path d="M 10.738239999999998 3.36480009600001  L 10.738239999999998 4.5206396160000395  L 6.759999999999998 4.5206396160000395  L 6.759999999999998 3.36480009600001  L 10.738239999999998 3.36480009600001  Z " stroke-width="0" stroke-dasharray="0" stroke="rgba(255, 255, 255, 0)" fill="none" transform="matrix(1 0 0 1 1778 473 )" class="stroke" mask="url(#Clip541)" />
    <path d="M 10.738239999999998 2.6121597119999933  L 6.759999999999998 2.6121597119999933  L 6.759999999999998 1.4428793280000036  L 10.738239999999998 1.4428793280000036  L 10.738239999999998 2.6121597119999933  Z " stroke-width="0" stroke-dasharray="0" stroke="rgba(255, 255, 255, 0)" fill="none" transform="matrix(1 0 0 1 1778 473 )" class="stroke" mask="url(#Clip541)" />
    <path d="M 12.56608 6.254399904000024  L 4.878399999999999 6.254399904000024  L 4.878399999999999 7.114559808000024  L 8.278720672000002 7.114559808000024  L 8.278720672000002 11.03904  C 8.157760287999999 10.998719999999992  8.050239903999998 10.95840000000004  7.956160287999996 10.918079999999975  C 7.391680479999998 10.662719999999979  6.894400288 10.084799999999973  6.4643203840000005 9.184319423999966  C 6.571840383999998 8.727359615999944  6.639040095999999 8.270399808000036  6.665920383999996 7.7865600960000165  L 5.805759999999999 7.692479519999949  C 5.698240095999999 9.224640192000038  5.133760192 10.62239999999997  4.112320095999998 11.85888  L 4.824640192 12.477120000000014  C 5.402559999999998 11.778239999999983  5.846080287999996 11.012159999999994  6.168640287999999 10.178879999999992  C 6.571840383999998 10.931519999999978  7.042240095999997 11.44223999999997  7.552960191999997 11.711040000000025  C 8.198080095999998 12.033600000000035  9.407680384000003 12.208319999999958  11.181759999999997 12.22175999999996  C 11.61184 12.22175999999996  12.109120959999998 12.23520000000002  12.646719999999995 12.23520000000002  L 12.915520960000002 11.294399999999996  C 12.418239999999997 11.334720000000004  11.813439999999993 11.361599999999953  11.114559999999997 11.361599999999953  C 10.375360960000002 11.361599999999953  9.743680959999999 11.321280000000002  9.206080287999995 11.240639999999985  L 9.206080287999995 9.506880000000024  L 12.015039999999999 9.506880000000024  L 12.015039999999999 8.633280000000013  L 9.206080287999995 8.633280000000013  L 9.206080287999995 7.114559808000024  L 12.56608 7.114559808000024  L 12.56608 6.254399904000024  Z " stroke-width="0" stroke-dasharray="0" stroke="rgba(255, 255, 255, 0)" fill="none" transform="matrix(1 0 0 1 1778 473 )" class="stroke" mask="url(#Clip541)" />
    <path d="M 25.280320000000003 8.149440287999994  L 25.280320000000003 0.7171197119999988  L 19.312959999999997 0.7171197119999988  L 19.312959999999997 8.149440287999994  L 20.267199999999995 8.149440287999994  L 20.267199999999995 1.6444793279999885  L 24.299199999999992 1.6444793279999885  L 24.299199999999992 8.149440287999994  L 25.280320000000003 8.149440287999994  Z " stroke-width="0" stroke-dasharray="0" stroke="rgba(255, 255, 255, 0)" fill="none" transform="matrix(1 0 0 1 1778 473 )" class="stroke" mask="url(#Clip541)" />
    <path d="M 23.586879999999994 12.288959999999975  L 24.98464096 12.288959999999975  C 25.41471904 12.288959999999975  25.737281919999994 12.18144000000001  25.95232096 11.979839999999967  C 26.180800000000005 11.737919999999974  26.342080959999997 11.052479999999946  26.422719999999998 9.950400000000002  L 25.522240959999998 9.66816  C 25.46847904 10.501440000000002  25.387839039999996 11.012159999999994  25.280320000000003 11.18688000000003  C 25.186239999999998 11.321280000000002  25.02496096 11.401920000000018  24.809919999999998 11.401920000000018  L 23.869120959999997 11.401920000000018  C 23.586879999999994 11.401920000000018  23.45248 11.254079999999988  23.45248 10.971839999999986  L 23.45248 8.095679615999984  L 22.48480096 8.095679615999984  L 22.48480096 11.173440000000028  C 22.48480096 11.91264000000001  22.847679039999996 12.288959999999975  23.586879999999994 12.288959999999975  Z " stroke-width="0" stroke-dasharray="0" stroke="rgba(255, 255, 255, 0)" fill="none" transform="matrix(1 0 0 1 1778 473 )" class="stroke" mask="url(#Clip541)" />
    <path d="M 22.699839999999995 2.5987198079999985  L 21.77248 2.5987198079999985  L 21.77248 5.8780797119999875  C 21.745600959999997 7.383359999999982  21.44992 8.606400192000024  20.912320960000002 9.547199999999975  C 20.33439904 10.434239039999966  19.312959999999997 11.159999999999968  17.861439039999993 11.724480000000028  L 18.385600959999998 12.544320000000027  C 19.89087904 11.979839999999967  20.966079999999998 11.18688000000003  21.611200959999998 10.192319999999995  C 22.2832 9.117119711999976  22.646079999999998 7.679039616000011  22.699839999999995 5.8780797119999875  L 22.699839999999995 2.5987198079999985  Z " stroke-width="0" stroke-dasharray="0" stroke="rgba(255, 255, 255, 0)" fill="none" transform="matrix(1 0 0 1 1778 473 )" class="stroke" mask="url(#Clip541)" />
    <path d="M 15.872320960000003 5.152319616  L 14.326719999999995 5.152319616  L 14.326719999999995 6.093119616000024  L 15.872320960000003 6.093119616000024  L 15.872320960000003 9.43968000000001  C 15.280959999999993 9.600959039999964  14.689599999999999 9.735360000000014  14.084800000000001 9.84287999999998  L 14.313279999999999 10.770240000000001  C 15.832000960000002 10.407359999999983  17.256639999999997 9.963840000000005  18.587199999999996 9.426240000000007  L 18.587199999999996 8.498879712000019  C 18.02272 8.727359615999944  17.458240960000005 8.942399615999989  16.866879999999995 9.143999615999974  L 16.866879999999995 6.093119616000024  L 18.372160960000002 6.093119616000024  L 18.372160960000002 5.152319616  L 16.866879999999995 5.152319616  L 16.866879999999995 2.007359615999974  L 18.560319999999997 2.007359615999974  L 18.560319999999997 1.079999999999984  L 14.152000000000001 1.079999999999984  L 14.152000000000001 2.007359615999974  L 15.872320960000003 2.007359615999974  L 15.872320960000003 5.152319616  Z " stroke-width="0" stroke-dasharray="0" stroke="rgba(255, 255, 255, 0)" fill="none" transform="matrix(1 0 0 1 1778 473 )" class="stroke" mask="url(#Clip541)" />
    <path d="M 29.540800000000004 0.569279481600006  L 28.47904096 4.305599712000003  L 31.81216096 4.305599712000003  C 30.871360959999997 7.302719904000014  29.433279999999996 9.654719999999998  27.47103904 11.375039999999956  L 27.968319039999997 12.262080000000026  C 29.500480000000003 11.012159999999994  30.763841919999997 9.332159999999988  31.74496096 7.2086398080000444  C 32.18847904 8.149440287999994  32.927679039999994 9.023040191999996  33.97599808 9.829439999999977  C 32.967999039999995 10.488  31.71808096 11.092800000000011  30.212799999999994 11.643840000000012  L 30.72352 12.544320000000027  C 32.349758079999994 11.91264000000001  33.72064 11.21375999999998  34.82272192 10.434239039999966  C 35.95168096 11.173440000000028  37.37631808 11.85888  39.09663808 12.490560000000016  L 39.59392 11.59008  C 38.03487903999999 11.052479999999946  36.70432096 10.461119999999994  35.61567904 9.816000000000031  C 36.71776096 8.875199903999999  37.44351808 7.826879904000009  37.806400000000004 6.671039903999997  L 37.806400000000004 5.837759903999995  L 32.30943808 5.837759903999995  C 32.49760096 5.353919711999993  32.65888096 4.843199615999993  32.82016 4.305599712000003  L 39.365440959999994 4.305599712000003  L 39.365440959999994 3.378240096000013  L 33.075519039999996 3.378240096000013  C 33.31744096 2.383679808000011  33.53248 1.3353598079999642  33.7072 0.20639923200002386  L 32.72608 0.0854397600000425  C 32.56480096 1.2412793280000187  32.349758079999994 2.3299200000000155  32.080959039999996 3.378240096000013  L 29.728960959999995 3.378240096000013  L 30.495040959999997 0.7305597120000016  L 29.540800000000004 0.569279481600006  Z " stroke-width="0" stroke-dasharray="0" stroke="rgba(255, 255, 255, 0)" fill="none" transform="matrix(1 0 0 1 1778 473 )" class="stroke" mask="url(#Clip541)" />
    <path d="M 34.76896288 9.26496000000003  C 33.69376 8.485439711999959  32.927679039999994 7.638719808000019  32.47072096 6.724799615999984  L 36.82528096 6.724799615999984  C 36.448962879999996 7.638719808000019  35.76351808 8.485439711999959  34.76896288 9.26496000000003  Z " stroke-width="0" stroke-dasharray="0" stroke="rgba(255, 255, 255, 0)" fill="none" transform="matrix(1 0 0 1 1778 473 )" class="stroke" mask="url(#Clip541)" />
    <path d="M 38.37088096 2.4105597120000084  C 37.725760959999995 1.6713592319999862  36.9328 0.9321597119999865  35.96512096 0.192959289599969  L 35.32 0.8246393279999894  C 36.327999039999995 1.631039423999994  37.120959039999995 2.383679808000011  37.68544096 3.095999424000013  L 38.37088096 2.4105597120000084  Z " stroke-width="0" stroke-dasharray="0" stroke="rgba(255, 255, 255, 0)" fill="none" transform="matrix(1 0 0 1 1778 473 )" class="stroke" mask="url(#Clip541)" />
    <path d="M 52.53663808 9.560639999999978  C 52.75168096 9.238080096000033  52.912959999999984 8.525759616000016  52.9936 7.43711971199997  L 52.079679999999996 7.127999712000019  C 52.02592 7.907519519999993  51.958720959999994 8.431680000000028  51.86464096 8.687039808000009  C 51.74368192 8.969280384000001  51.48831903999999 9.117119711999976  51.11200096 9.117119711999976  L 49.284160959999994 9.117119711999976  C 48.90783904 9.103679807999981  48.71968 8.915519711999991  48.71968 8.552640384000028  L 48.71968 5.461439712000015  L 52.34847904 5.461439712000015  L 52.34847904 1.0396792320000259  L 47.52352191999999 1.0396792320000259  L 47.52352191999999 1.9401599039999837  L 51.40767903999999 1.9401599039999837  L 51.40767903999999 4.534079615999985  L 47.752000960000004 4.534079615999985  L 47.752000960000004 8.902079807999996  C 47.752000960000004 9.66816  48.128319039999994 10.057919999999967  48.894399039999996 10.057919999999967  L 51.28672 10.057919999999967  C 51.918400959999985 10.057919999999967  52.335039039999984 9.883199999999988  52.53663808 9.560639999999978  Z " stroke-width="0" stroke-dasharray="0" stroke="rgba(255, 255, 255, 0)" fill="none" transform="matrix(1 0 0 1 1778 473 )" class="stroke" mask="url(#Clip541)" />
    <path d="M 42.85983999999999 6.684479807999992  L 41.986239999999995 6.576959808000027  C 41.91904095999999 8.525759616000016  41.54271808 10.286399999999958  40.87072096000001 11.845439999999996  L 41.609921920000005 12.503999999999962  C 41.95935999999999 11.724480000000028  42.228159039999994 10.891200000000026  42.44319807999999 9.990719999999953  C 42.95392 10.797120000000007  43.55872095999999 11.375039999999956  44.24416095999999 11.697600000000023  C 45.02368192 12.060479999999984  46.999359999999996 12.248640000000023  50.14432096 12.248640000000023  L 53.101119039999986 12.248640000000023  L 53.26240191999999 11.307839999999999  C 52.53663808 11.348160000000007  51.421119039999994 11.375039999999956  49.929281919999994 11.375039999999956  C 47.46975807999999 11.375039999999956  45.816638080000004 11.254079999999988  44.98336191999999 11.025599999999997  L 44.98336191999999 8.498879712000019  L 46.891840959999996 8.498879712000019  L 46.891840959999996 7.611839904000021  L 44.98336191999999 7.611839904000021  L 44.98336191999999 5.716799904000027  L 47.05312000000001 5.716799904000027  L 47.05312000000001 4.829759711999998  L 44.72799904 4.829759711999998  L 44.72799904 2.8540796159999786  L 46.87840095999999 2.8540796159999786  L 46.87840095999999 1.9670398079999813  L 44.72799904 1.9670398079999813  L 44.72799904 0.15263946239997495  L 43.76031999999999 0.15263946239997495  L 43.76031999999999 1.9670398079999813  L 41.54271808 1.9670398079999813  L 41.54271808 2.8540796159999786  L 43.76031999999999 2.8540796159999786  L 43.76031999999999 4.829759711999998  L 41.30079999999998 4.829759711999998  L 41.30079999999998 5.716799904000027  L 44.055998079999995 5.716799904000027  L 44.055998079999995 10.568640000000016  C 43.518400959999994 10.192319999999995  43.061439039999996 9.627839999999992  42.65824096 8.875199903999999  C 42.765760959999994 8.176320191999991  42.832959999999986 7.450559712000029  42.85983999999999 6.684479807999992  Z " stroke-width="0" stroke-dasharray="0" stroke="rgba(255, 255, 255, 0)" fill="none" transform="matrix(1 0 0 1 1778 473 )" class="stroke" mask="url(#Clip541)" />
    <path d="M 58.772800000000004 11.092800000000011  L 58.772800000000004 1.1875195200000235  L 55 1.1875195200000235  L 55 11.415360000000021  L 55.84287807999999 11.415360000000021  L 55.84287807999999 10.192319999999995  L 57.83200096 10.192319999999995  L 57.83200096 11.092800000000011  L 58.772800000000004 11.092800000000011  Z " stroke-width="0" stroke-dasharray="0" stroke="rgba(255, 255, 255, 0)" fill="none" transform="matrix(1 0 0 1 1778 473 )" class="stroke" mask="url(#Clip541)" />
    <path d="M 57.83200096 9.29183999999998  L 55.84287807999999 9.29183999999998  L 55.84287807999999 6.052799808000032  L 57.83200096 6.052799808000032  L 57.83200096 9.29183999999998  Z " stroke-width="0" stroke-dasharray="0" stroke="rgba(255, 255, 255, 0)" fill="none" transform="matrix(1 0 0 1 1778 473 )" class="stroke" mask="url(#Clip541)" />
    <path d="M 57.83200096 5.152319616  L 55.84287807999999 5.152319616  L 55.84287807999999 2.0745593280000207  L 57.83200096 2.0745593280000207  L 57.83200096 5.152319616  Z " stroke-width="0" stroke-dasharray="0" stroke="rgba(255, 255, 255, 0)" fill="none" transform="matrix(1 0 0 1 1778 473 )" class="stroke" mask="url(#Clip541)" />
    <path d="M 62.63007807999999 8.498879712000019  C 62.18656 7.558080096000026  61.54144287999999 6.455999904000009  60.70815904 5.192639904000032  L 59.915199040000005 5.689920000000029  C 60.72159904 6.926399712000035  61.35328 8.055359807999992  61.82368192 9.063359999999989  L 62.63007807999999 8.498879712000019  Z " stroke-width="0" stroke-dasharray="0" stroke="rgba(255, 255, 255, 0)" fill="none" transform="matrix(1 0 0 1 1778 473 )" class="stroke" mask="url(#Clip541)" />
    <path d="M 61.42048 12.369599999999991  L 63.77248 12.369599999999991  C 64.60575711999999 12.369599999999991  65.02240192000001 11.939520000000016  65.02240192000001 11.092800000000011  L 65.02240192000001 3.5798396160000157  L 66.67552287999999 3.5798396160000157  L 66.67552287999999 2.6524795199999858  L 65.02240192000001 2.6524795199999858  L 65.02240192000001 0.28703979839997373  L 64.04127903999999 0.28703979839997373  L 64.04127903999999 2.6524795199999858  L 59.39104096000001 2.6524795199999858  L 59.39104096000001 3.5798396160000157  L 64.04127903999999 3.5798396160000157  L 64.04127903999999 10.850880000000018  C 64.04127903999999 11.26751999999999  63.83968 11.482559999999978  63.449921919999994 11.482559999999978  C 62.737598079999984 11.482559999999978  61.99840096 11.455679999999973  61.21888096000001 11.428799999999967  L 61.42048 12.369599999999991  Z " stroke-width="0" stroke-dasharray="0" stroke="rgba(255, 255, 255, 0)" fill="none" transform="matrix(1 0 0 1 1778 473 )" class="stroke" mask="url(#Clip541)" />
    <path d="M 76.45984384 3.821759903999976  L 71.35263712 3.821759903999976  L 71.35263712 10.084799999999973  L 76.45984384 10.084799999999973  L 76.45984384 3.821759903999976  Z " stroke-width="0" stroke-dasharray="0" stroke="rgba(255, 255, 255, 0)" fill="none" transform="matrix(1 0 0 1 1778 473 )" class="stroke" mask="url(#Clip541)" />
    <path d="M 75.55936 7.383359999999982  L 75.55936 9.224640192000038  L 72.26656 9.224640192000038  L 72.26656 7.383359999999982  L 75.55936 7.383359999999982  Z " stroke-width="0" stroke-dasharray="0" stroke="rgba(255, 255, 255, 0)" fill="none" transform="matrix(1 0 0 1 1778 473 )" class="stroke" mask="url(#Clip541)" />
    <path d="M 75.55936 6.523200095999982  L 72.26656 6.523200095999982  L 72.26656 4.681919903999983  L 75.55936 4.681919903999983  L 75.55936 6.523200095999982  Z " stroke-width="0" stroke-dasharray="0" stroke="rgba(255, 255, 255, 0)" fill="none" transform="matrix(1 0 0 1 1778 473 )" class="stroke" mask="url(#Clip541)" />
    <path d="M 76.83616192 12.396479999999997  L 77.96511712 12.396479999999997  C 78.86560096 12.396479999999997  79.32255904 11.91264000000001  79 10.971839999999986  L 79 0.8515200960000014  L 73.16704383999999 0.8515200960000014  L 73.16704383999999 1.7519998079999939  L 78.38176288 1.7519998079999939  L 78.38176288 10.703039999999987  C 78.38176288 11.240639999999985  78.16672383999999 11.522879999999986  77.76351808 11.522879999999986  L 76.59424288 11.496000000000038  L 76.83616192 12.396479999999997  Z " stroke-width="0" stroke-dasharray="0" stroke="rgba(255, 255, 255, 0)" fill="none" transform="matrix(1 0 0 1 1778 473 )" class="stroke" mask="url(#Clip541)" />
    <path d="M 69 2.4105597120000084  L 68 2.4105597120000084  L 68 12.517439999999965  L 69 12.517439999999965  L 69 2.4105597120000084  Z " stroke-width="0" stroke-dasharray="0" stroke="rgba(255, 255, 255, 0)" fill="none" transform="matrix(1 0 0 1 1778 473 )" class="stroke" mask="url(#Clip541)" />
    <path d="M 72.15904096 2.4911993279999933  C 71.68864288 1.604159519999996  71.13759807999999 0.7977594239999917  70.51935999999999 0.05855987519998962  L 69.63231712 0.44832000959996776  C 70.23712191999999 1.1740796159999718  70.78815904 2.007359615999974  71.29887712 2.948160095999981  L 72.15904096 2.4911993279999933  Z " stroke-width="0" stroke-dasharray="0" stroke="rgba(255, 255, 255, 0)" fill="none" transform="matrix(1 0 0 1 1778 473 )" class="stroke" mask="url(#Clip541)" />
  </g>
</svg>