<?xml version="1.0" encoding="utf-8"?>
<svg version="1.1" xmlns:xlink="http://www.w3.org/1999/xlink" width="45px" height="20px" xmlns="http://www.w3.org/2000/svg">
  <defs>
    <pattern id="BGPattern" patternUnits="userSpaceOnUse" alignment="0 0" imageRepeat="None" />
    <mask fill="white" id="Clip1240">
      <path d="M 0.47999999999998977 4.624903460009296  C 0.47999999999998977 2.504128687603685  2.1658760640000025 0.799999923200046  4.286649600000004 0.799999923200046  C 12.637193279999991 0.799999923200046  32.48280767999999 0.799999923200046  40.8333504 0.799999923200046  C 42.95412575999998 0.799999923200046  44.63999616000001 2.504128687603685  44.63999616000001 4.6249023080094105  C 44.639999999999986 7.976698594236963  44.639999999999986 12.823298928963315  44.639999999999986 16.17509540719085  C 44.63999616000001 18.295866723596806  42.95412575999998 20  40.8333504 20  C 32.48280767999999 19.999998080000182  12.637192319999997 19.999998080000182  4.286648927999991 19.999998080000182  C 2.1658760640000025 20  0.47999999999998977 18.295866723596806  0.47999999999998977 16.175093487191045  C 0.47999999999998977 12.823299888963216  0.47999999999998977 7.976699554236864  0.47999999999998977 4.624903460009296  Z " fill-rule="evenodd" />
    </mask>
  </defs>
  <g transform="matrix(1 0 0 1 -2045 -176 )">
    <path d="M 0.47999999999998977 4.624903460009296  C 0.47999999999998977 2.504128687603685  2.1658760640000025 0.799999923200046  4.286649600000004 0.799999923200046  C 12.637193279999991 0.799999923200046  32.48280767999999 0.799999923200046  40.8333504 0.799999923200046  C 42.95412575999998 0.799999923200046  44.63999616000001 2.504128687603685  44.63999616000001 4.6249023080094105  C 44.639999999999986 7.976698594236963  44.639999999999986 12.823298928963315  44.639999999999986 16.17509540719085  C 44.63999616000001 18.295866723596806  42.95412575999998 20  40.8333504 20  C 32.48280767999999 19.999998080000182  12.637192319999997 19.999998080000182  4.286648927999991 19.999998080000182  C 2.1658760640000025 20  0.47999999999998977 18.295866723596806  0.47999999999998977 16.175093487191045  C 0.47999999999998977 12.823299888963216  0.47999999999998977 7.976699554236864  0.47999999999998977 4.624903460009296  Z " fill-rule="nonzero" fill="rgba(123, 218, 144, 1)" stroke="none" transform="matrix(1 0 0 1 2045 176 )" class="fill" />
    <path d="M 0.47999999999998977 4.624903460009296  C 0.47999999999998977 2.504128687603685  2.1658760640000025 0.799999923200046  4.286649600000004 0.799999923200046  C 12.637193279999991 0.799999923200046  32.48280767999999 0.799999923200046  40.8333504 0.799999923200046  C 42.95412575999998 0.799999923200046  44.63999616000001 2.504128687603685  44.63999616000001 4.6249023080094105  C 44.639999999999986 7.976698594236963  44.639999999999986 12.823298928963315  44.639999999999986 16.17509540719085  C 44.63999616000001 18.295866723596806  42.95412575999998 20  40.8333504 20  C 32.48280767999999 19.999998080000182  12.637192319999997 19.999998080000182  4.286648927999991 19.999998080000182  C 2.1658760640000025 20  0.47999999999998977 18.295866723596806  0.47999999999998977 16.175093487191045  C 0.47999999999998977 12.823299888963216  0.47999999999998977 7.976699554236864  0.47999999999998977 4.624903460009296  Z " stroke-width="0" stroke-dasharray="0" stroke="rgba(255, 255, 255, 0)" fill="none" transform="matrix(1 0 0 1 2045 176 )" class="stroke" mask="url(#Clip1240)" />
  </g>
</svg>