<?xml version="1.0" encoding="utf-8"?>
<svg version="1.1" xmlns:xlink="http://www.w3.org/1999/xlink" width="2px" height="5px" xmlns="http://www.w3.org/2000/svg">
  <defs>
    <pattern id="BGPattern" patternUnits="userSpaceOnUse" alignment="0 0" imageRepeat="None" />
    <mask fill="white" id="Clip6185">
      <path d="M 1.9149183999999764 2.3200000000000323  C 1.9149183999999764 1.4817952000000325  1.4125417696000113 0.7252259296000361  0.6399999999999864 0.4000000000000341  C 0.6399999999999864 0.4000000000000341  0.6399999999999864 4.240000000000034  0.6399999999999864 4.240000000000034  C 1.4125417696000113 3.9147712960000334  1.9149183999999764 3.158204896000033  1.9149183999999764 2.3200000000000323  Z " fill-rule="evenodd" />
    </mask>
  </defs>
  <g transform="matrix(1 0 0 1 -2099 -70 )">
    <path d="M 1.9149183999999764 2.3200000000000323  C 1.9149183999999764 1.4817952000000325  1.4125417696000113 0.7252259296000361  0.6399999999999864 0.4000000000000341  C 0.6399999999999864 0.4000000000000341  0.6399999999999864 4.240000000000034  0.6399999999999864 4.240000000000034  C 1.4125417696000113 3.9147712960000334  1.9149183999999764 3.158204896000033  1.9149183999999764 2.3200000000000323  Z " fill-rule="nonzero" fill="rgba(0, 0, 0, 1)" stroke="none" transform="matrix(1 0 0 1 2099 70 )" class="fill" />
    <path d="M 1.9149183999999764 2.3200000000000323  C 1.9149183999999764 1.4817952000000325  1.4125417696000113 0.7252259296000361  0.6399999999999864 0.4000000000000341  C 0.6399999999999864 0.4000000000000341  0.6399999999999864 4.240000000000034  0.6399999999999864 4.240000000000034  C 1.4125417696000113 3.9147712960000334  1.9149183999999764 3.158204896000033  1.9149183999999764 2.3200000000000323  Z " stroke-width="0" stroke-dasharray="0" stroke="rgba(255, 255, 255, 0)" fill="none" transform="matrix(1 0 0 1 2099 70 )" class="stroke" mask="url(#Clip6185)" />
  </g>
</svg>