<?xml version="1.0" encoding="utf-8"?>
<svg version="1.1" xmlns:xlink="http://www.w3.org/1999/xlink" width="9px" height="16px" xmlns="http://www.w3.org/2000/svg">
  <defs>
    <pattern id="BGPattern" patternUnits="userSpaceOnUse" alignment="0 0" imageRepeat="None" />
    <mask fill="white" id="Clip3525">
      <path d="M 7.53088312625885 14.897334446907081  C 7.812051405063631 15.178502725711866  8.267948594936378 15.178502725711851  8.549116873741148 14.897334446907081  C 8.830291940770913 14.616159379877317  8.83028515254593 14.160268978229567  8.549116873741148 13.879100699424782  C 8.549116873741148 13.879100699424782  7.53088312625885 14.897334446907081  7.53088312625885 14.897334446907081  Z M 8.549116873741152 1.3208844804764013  C 8.830294649272677 1.0397067049448836  8.830294656060907 0.5838285153138614  8.549116873741152 0.3026507329941026  C 8.26793909820962 0.02147295746257072  7.812060901790378 0.02147295746258493  7.530883126258853 0.3026507329941026  C 7.530883126258853 0.3026507329941026  8.549116873741152 1.3208844804764013  8.549116873741152 1.3208844804764013  Z M 8.549116873741148 13.879100699424782  C 8.549116873741148 13.879100699424782  2.1003031396865843 7.4302869653702075  2.1003031396865843 7.4302869653702075  C 2.1003031396865843 7.4302869653702075  1.0820693922042857 8.448520712852513  1.0820693922042857 8.448520712852513  C 1.0820693922042857 8.448520712852513  7.53088312625885 14.897334446907081  7.53088312625885 14.897334446907081  C 7.53088312625885 14.897334446907081  8.549116873741148 13.879100699424782  8.549116873741148 13.879100699424782  Z M 2.1003031396865843 7.4302869653702075  C 2.1940287729700856 7.524012598653712  2.1940281620298343 7.675973192187719  2.1003031396865843 7.769698214530969  C 2.1003031396865843 7.769698214530969  1.0820693922042857 6.75146446704867  1.0820693922042857 6.75146446704867  C 0.613410339363103 7.22012351988986  0.6134401939765759 7.9798915146248035  1.0820693922042857 8.448520712852513  C 1.0820693922042857 8.448520712852513  2.1003031396865843 7.4302869653702075  2.1003031396865843 7.4302869653702075  Z M 2.1003031396865843 7.769698214530969  C 2.1003031396865843 7.769698214530969  8.549116873741152 1.3208844804764013  8.549116873741152 1.3208844804764013  C 8.549116873741152 1.3208844804764013  7.530883126258853 0.3026507329941026  7.530883126258853 0.3026507329941026  C 7.530883126258853 0.3026507329941026  1.0820693922042857 6.75146446704867  1.0820693922042857 6.75146446704867  C 1.0820693922042857 6.75146446704867  2.1003031396865843 7.769698214530969  2.1003031396865843 7.769698214530969  Z " fill-rule="evenodd" />
    </mask>
  </defs>
  <g transform="matrix(1 0 0 1 -1770 -106 )">
    <path d="M 7.53088312625885 14.897334446907081  C 7.812051405063631 15.178502725711866  8.267948594936378 15.178502725711851  8.549116873741148 14.897334446907081  C 8.830291940770913 14.616159379877317  8.83028515254593 14.160268978229567  8.549116873741148 13.879100699424782  C 8.549116873741148 13.879100699424782  7.53088312625885 14.897334446907081  7.53088312625885 14.897334446907081  Z M 8.549116873741152 1.3208844804764013  C 8.830294649272677 1.0397067049448836  8.830294656060907 0.5838285153138614  8.549116873741152 0.3026507329941026  C 8.26793909820962 0.02147295746257072  7.812060901790378 0.02147295746258493  7.530883126258853 0.3026507329941026  C 7.530883126258853 0.3026507329941026  8.549116873741152 1.3208844804764013  8.549116873741152 1.3208844804764013  Z M 8.549116873741148 13.879100699424782  C 8.549116873741148 13.879100699424782  2.1003031396865843 7.4302869653702075  2.1003031396865843 7.4302869653702075  C 2.1003031396865843 7.4302869653702075  1.0820693922042857 8.448520712852513  1.0820693922042857 8.448520712852513  C 1.0820693922042857 8.448520712852513  7.53088312625885 14.897334446907081  7.53088312625885 14.897334446907081  C 7.53088312625885 14.897334446907081  8.549116873741148 13.879100699424782  8.549116873741148 13.879100699424782  Z M 2.1003031396865843 7.4302869653702075  C 2.1940287729700856 7.524012598653712  2.1940281620298343 7.675973192187719  2.1003031396865843 7.769698214530969  C 2.1003031396865843 7.769698214530969  1.0820693922042857 6.75146446704867  1.0820693922042857 6.75146446704867  C 0.613410339363103 7.22012351988986  0.6134401939765759 7.9798915146248035  1.0820693922042857 8.448520712852513  C 1.0820693922042857 8.448520712852513  2.1003031396865843 7.4302869653702075  2.1003031396865843 7.4302869653702075  Z M 2.1003031396865843 7.769698214530969  C 2.1003031396865843 7.769698214530969  8.549116873741152 1.3208844804764013  8.549116873741152 1.3208844804764013  C 8.549116873741152 1.3208844804764013  7.530883126258853 0.3026507329941026  7.530883126258853 0.3026507329941026  C 7.530883126258853 0.3026507329941026  1.0820693922042857 6.75146446704867  1.0820693922042857 6.75146446704867  C 1.0820693922042857 6.75146446704867  2.1003031396865843 7.769698214530969  2.1003031396865843 7.769698214530969  Z " fill-rule="nonzero" fill="rgba(51, 51, 51, 1)" stroke="none" transform="matrix(1 0 0 1 1770 106 )" class="fill" />
    <path d="M 7.53088312625885 14.897334446907081  C 7.812051405063631 15.178502725711866  8.267948594936378 15.178502725711851  8.549116873741148 14.897334446907081  C 8.830291940770913 14.616159379877317  8.83028515254593 14.160268978229567  8.549116873741148 13.879100699424782  C 8.549116873741148 13.879100699424782  7.53088312625885 14.897334446907081  7.53088312625885 14.897334446907081  Z " stroke-width="0" stroke-dasharray="0" stroke="rgba(255, 255, 255, 0)" fill="none" transform="matrix(1 0 0 1 1770 106 )" class="stroke" mask="url(#Clip3525)" />
    <path d="M 8.549116873741152 1.3208844804764013  C 8.830294649272677 1.0397067049448836  8.830294656060907 0.5838285153138614  8.549116873741152 0.3026507329941026  C 8.26793909820962 0.02147295746257072  7.812060901790378 0.02147295746258493  7.530883126258853 0.3026507329941026  C 7.530883126258853 0.3026507329941026  8.549116873741152 1.3208844804764013  8.549116873741152 1.3208844804764013  Z " stroke-width="0" stroke-dasharray="0" stroke="rgba(255, 255, 255, 0)" fill="none" transform="matrix(1 0 0 1 1770 106 )" class="stroke" mask="url(#Clip3525)" />
    <path d="M 8.549116873741148 13.879100699424782  C 8.549116873741148 13.879100699424782  2.1003031396865843 7.4302869653702075  2.1003031396865843 7.4302869653702075  C 2.1003031396865843 7.4302869653702075  1.0820693922042857 8.448520712852513  1.0820693922042857 8.448520712852513  C 1.0820693922042857 8.448520712852513  7.53088312625885 14.897334446907081  7.53088312625885 14.897334446907081  C 7.53088312625885 14.897334446907081  8.549116873741148 13.879100699424782  8.549116873741148 13.879100699424782  Z " stroke-width="0" stroke-dasharray="0" stroke="rgba(255, 255, 255, 0)" fill="none" transform="matrix(1 0 0 1 1770 106 )" class="stroke" mask="url(#Clip3525)" />
    <path d="M 2.1003031396865843 7.4302869653702075  C 2.1940287729700856 7.524012598653712  2.1940281620298343 7.675973192187719  2.1003031396865843 7.769698214530969  C 2.1003031396865843 7.769698214530969  1.0820693922042857 6.75146446704867  1.0820693922042857 6.75146446704867  C 0.613410339363103 7.22012351988986  0.6134401939765759 7.9798915146248035  1.0820693922042857 8.448520712852513  C 1.0820693922042857 8.448520712852513  2.1003031396865843 7.4302869653702075  2.1003031396865843 7.4302869653702075  Z " stroke-width="0" stroke-dasharray="0" stroke="rgba(255, 255, 255, 0)" fill="none" transform="matrix(1 0 0 1 1770 106 )" class="stroke" mask="url(#Clip3525)" />
    <path d="M 2.1003031396865843 7.769698214530969  C 2.1003031396865843 7.769698214530969  8.549116873741152 1.3208844804764013  8.549116873741152 1.3208844804764013  C 8.549116873741152 1.3208844804764013  7.530883126258853 0.3026507329941026  7.530883126258853 0.3026507329941026  C 7.530883126258853 0.3026507329941026  1.0820693922042857 6.75146446704867  1.0820693922042857 6.75146446704867  C 1.0820693922042857 6.75146446704867  2.1003031396865843 7.769698214530969  2.1003031396865843 7.769698214530969  Z " stroke-width="0" stroke-dasharray="0" stroke="rgba(255, 255, 255, 0)" fill="none" transform="matrix(1 0 0 1 1770 106 )" class="stroke" mask="url(#Clip3525)" />
  </g>
</svg>