<?xml version="1.0" encoding="utf-8"?>
<svg version="1.1" xmlns:xlink="http://www.w3.org/1999/xlink" width="39px" height="12px" xmlns="http://www.w3.org/2000/svg">
  <defs>
    <pattern id="BGPattern" patternUnits="userSpaceOnUse" alignment="0 0" imageRepeat="None" />
    <mask fill="white" id="Clip8435">
      <path d="M 3.4783962559999964 1.0038397120000013  L 2.618236351999997 1.0038397120000013  C 2.295676159999971 1.3667199999999866  1.9193562559999575 1.6892795200000137  1.4623961599999689 1.984960000000001  C 1.00543606399998 2.253759807999984  0.548476160000007 2.441919903999974  0.11839606400002367 2.562879328000008  L 0.11839606400002367 3.664959520000025  C 1.0188760639999828 3.396159807999993  1.7715161599999758 2.966079903999969  2.3763162559999955 2.3478393280000205  L 2.3763162559999955 10.600000000000023  L 3.4783962559999964 10.600000000000023  L 3.4783962559999964 1.0038397120000013  Z M 11.30047615999996 1.5951999039999691  C 10.735997119999979 1.0710394239999914  9.94303616000002 0.8156796160000113  8.948477120000007 0.8156796160000113  C 7.940476063999938 0.8156796160000113  7.160956736000003 1.0710394239999914  6.596476447999976 1.5951999039999691  C 6.072316447999981 2.065599711999994  5.816956640000001 2.6569598080000105  5.816956640000001 3.3558400000000006  C 5.816956640000001 3.8665596160000177  5.937916544000018 4.296640000000025  6.179836448000003 4.646079903999976  C 6.435196255999983 5.022400096000013  6.811516448000019 5.304639712000039  7.322236927999995 5.479359903999978  L 7.322236927999995 5.506239808000032  C 6.811516448000019 5.627199711999992  6.394876447999991 5.909439808000002  6.045436543999983 6.339519808000034  C 5.669116352000003 6.796480095999982  5.480956256000014 7.334079615999997  5.480956256000014 7.952319616000011  C 5.480956256000014 8.799040000000048  5.7766363520000255 9.48448000000002  6.367996543999993 9.995200000000011  C 6.972796640000013 10.519360000000006  7.8329565440000115 10.788160000000005  8.948477120000007 10.788160000000005  C 10.050556159999985 10.788160000000005  10.910716159999993 10.519360000000006  11.528957119999973 9.995200000000011  C 12.120316159999959 9.48448000000002  12.415997119999988 8.799040000000048  12.415997119999988 7.952319616000011  C 12.415997119999988 7.334079615999997  12.227836159999981 6.796480095999982  11.851517119999983 6.339519808000034  C 11.502077119999967 5.909439808000002  11.071997119999992 5.627199711999992  10.574716160000037 5.506239808000032  L 10.574716160000037 5.479359903999978  C 11.071997119999992 5.304639712000039  11.448317119999956 5.022400096000013  11.71711615999999 4.646079903999976  C 11.959037119999948 4.296640000000025  12.079996160000007 3.8665596160000177  12.079996160000007 3.3558400000000006  C 12.079996160000007 2.6569598080000105  11.811196159999952 2.065599711999994  11.30047615999996 1.5951999039999691  Z M 7.349116831999993 2.240319807999981  C 7.725437023999973 1.8908795199999986  8.263036160000013 1.7161593280000034  8.948477120000007 1.7161593280000034  C 9.62047616000001 1.7161593280000034  10.158076160000007 1.8908795199999986  10.547836159999974 2.240319807999981  C 10.870396159999984 2.5359994240000105  11.045117119999986 2.9257596159999935  11.045117119999986 3.396159807999993  C 11.045117119999986 3.8799999999999955  10.89727615999999 4.28319961599999  10.601597119999951 4.578879712000003  C 10.23871711999999 4.928319999999985  9.68767711999999 5.116479615999992  8.948477120000007 5.116479615999992  C 8.195836831999998 5.116479615999992  7.644796448000023 4.928319999999985  7.295357023999998 4.578879712000003  C 6.99967654400001 4.28319961599999  6.851836256000013 3.8799999999999955  6.851836256000013 3.396159807999993  C 6.851836256000013 2.9257596159999935  7.013116448000005 2.5359994240000105  7.349116831999993 2.240319807999981  Z M 7.160956736000003 6.554559808000022  C 7.577596735999976 6.164799616000039  8.168956928 5.976640000000032  8.948477120000007 5.976640000000032  C 9.714556159999972 5.976640000000032  10.319357120000006 6.164799616000039  10.74943711999998 6.554559808000022  C 11.125757119999944 6.903999616000021  11.327356160000022 7.374399424000046  11.327356160000022 7.952319616000011  C 11.327356160000022 8.516799904000038  11.125757119999944 8.97375999999997  10.74943711999998 9.323199999999986  C 10.319357120000006 9.699520000000007  9.727996160000032 9.887679999999989  8.948477120000007 9.887679999999989  C 8.168956928 9.887679999999989  7.564156831999981 9.699520000000007  7.160956736000003 9.336640000000045  C 6.757756640000024 8.987199999999973  6.569596543999978 8.516799904000038  6.569596543999978 7.952319616000011  C 6.569596543999978 7.374399424000046  6.757756640000024 6.903999616000021  7.160956736000003 6.554559808000022  Z M 19.606396159999974 2.3343994240000256  C 19.015037119999988 1.3129593279999767  18.15487711999998 0.8156796160000113  17.01247711999997 0.8156796160000113  C 15.856636159999994 0.8156796160000113  14.996476159999986 1.3129593279999767  14.418557120000003 2.3343994240000256  C 13.90783615999999 3.194559808000008  13.65247711999996 4.35039980800002  13.65247711999996 5.801919903999988  C 13.65247711999996 7.253439904000004  13.90783615999999 8.409280383999999  14.418557120000003 9.269439999999975  C 14.996476159999986 10.277440000000013  15.856636159999994 10.788160000000005  17.01247711999997 10.788160000000005  C 18.15487711999998 10.788160000000005  19.015037119999988 10.277440000000013  19.606396159999974 9.269439999999975  C 20.117118080000008 8.409280383999999  20.372477119999985 7.253439904000004  20.372477119999985 5.801919903999988  C 20.372477119999985 4.35039980800002  20.117118080000008 3.194559808000008  19.606396159999974 2.3343994240000256  Z M 15.157757119999985 3.14079952000003  C 15.534078080000029 2.2134399039999835  16.15231712000002 1.7564800959999616  17.01247711999997 1.7564800959999616  C 17.87263711999998 1.7564800959999616  18.490878080000016 2.2134399039999835  18.867196159999992 3.14079952000003  C 19.135997119999956 3.785919999999976  19.28383808000001 4.672959712000022  19.28383808000001 5.801919903999988  C 19.28383808000001 6.917439616000024  19.135997119999956 7.804479327999957  18.867196159999992 8.463040191999994  C 18.490878080000016 9.376959999999997  17.87263711999998 9.84735999999998  17.01247711999997 9.84735999999998  C 16.15231712000002 9.84735999999998  15.534078080000029 9.376959999999997  15.157757119999985 8.463040191999994  C 14.888957119999986 7.804479327999957  14.754557120000015 6.917439616000024  14.754557120000015 5.801919903999988  C 14.754557120000015 4.672959712000022  14.888957119999986 3.785919999999976  15.157757119999985 3.14079952000003  Z M 36.82303808 0.3721597119999842  L 27.535998080000013 0.3721597119999842  L 27.535998080000013 1.3129593279999767  L 36.82303808 1.3129593279999767  L 36.82303808 0.3721597119999842  Z M 37.99231711999994 4.3235199040000225  L 26.501117120000004 4.3235199040000225  L 26.501117120000004 5.26431990399999  L 29.98207904000003 5.26431990399999  L 29.98207904000003 5.465919999999983  C 29.955199039999968 6.930879520000019  29.65951616000001 8.127039808000006  29.121919040000023 9.040959039999962  C 28.543998079999994 9.927999999999997  27.535998080000013 10.626880000000028  26.084477119999974 11.164480000000026  L 26.608639040000014 11.984320000000025  C 28.10047807999996 11.433279999999968  29.175679039999977 10.66719999999998  29.847679039999942 9.686080000000004  C 30.519679999999937 8.624319423999964  30.882559039999986 7.2131200960000115  30.922878079999975 5.465919999999983  L 30.922878079999975 5.26431990399999  L 33.34207903999999 5.26431990399999  L 33.34207903999999 10.479039999999998  C 33.34207903999999 11.31232  33.758720960000005 11.728959999999972  34.605437119999976 11.728959999999972  L 36.55423904000003 11.728959999999972  C 37.03807711999997 11.728959999999972  37.400959039999975 11.581119999999999  37.62943807999994 11.31232  C 37.898237119999976 11.003199999999993  38.07295616000005 10.11615999999998  38.167039999999986 8.651200287999984  L 37.27999999999997 8.368959615999984  C 37.22624000000002 9.578559999999982  37.132160959999965 10.304320000000018  36.97087807999998 10.546240000000012  C 36.863358079999955 10.747839999999997  36.66175903999999 10.855360000000019  36.36607712 10.855360000000019  L 34.87423904000002 10.855360000000019  C 34.471037120000005 10.855360000000019  34.28287807999999 10.653759999999977  34.28287807999999 10.277440000000013  L 34.28287807999999 5.26431990399999  L 37.99231711999994 5.26431990399999  L 37.99231711999994 4.3235199040000225  Z " fill-rule="evenodd" />
    </mask>
  </defs>
  <g transform="matrix(1 0 0 1 -2053 -343 )">
    <path d="M 3.4783962559999964 1.0038397120000013  L 2.618236351999997 1.0038397120000013  C 2.295676159999971 1.3667199999999866  1.9193562559999575 1.6892795200000137  1.4623961599999689 1.984960000000001  C 1.00543606399998 2.253759807999984  0.548476160000007 2.441919903999974  0.11839606400002367 2.562879328000008  L 0.11839606400002367 3.664959520000025  C 1.0188760639999828 3.396159807999993  1.7715161599999758 2.966079903999969  2.3763162559999955 2.3478393280000205  L 2.3763162559999955 10.600000000000023  L 3.4783962559999964 10.600000000000023  L 3.4783962559999964 1.0038397120000013  Z M 11.30047615999996 1.5951999039999691  C 10.735997119999979 1.0710394239999914  9.94303616000002 0.8156796160000113  8.948477120000007 0.8156796160000113  C 7.940476063999938 0.8156796160000113  7.160956736000003 1.0710394239999914  6.596476447999976 1.5951999039999691  C 6.072316447999981 2.065599711999994  5.816956640000001 2.6569598080000105  5.816956640000001 3.3558400000000006  C 5.816956640000001 3.8665596160000177  5.937916544000018 4.296640000000025  6.179836448000003 4.646079903999976  C 6.435196255999983 5.022400096000013  6.811516448000019 5.304639712000039  7.322236927999995 5.479359903999978  L 7.322236927999995 5.506239808000032  C 6.811516448000019 5.627199711999992  6.394876447999991 5.909439808000002  6.045436543999983 6.339519808000034  C 5.669116352000003 6.796480095999982  5.480956256000014 7.334079615999997  5.480956256000014 7.952319616000011  C 5.480956256000014 8.799040000000048  5.7766363520000255 9.48448000000002  6.367996543999993 9.995200000000011  C 6.972796640000013 10.519360000000006  7.8329565440000115 10.788160000000005  8.948477120000007 10.788160000000005  C 10.050556159999985 10.788160000000005  10.910716159999993 10.519360000000006  11.528957119999973 9.995200000000011  C 12.120316159999959 9.48448000000002  12.415997119999988 8.799040000000048  12.415997119999988 7.952319616000011  C 12.415997119999988 7.334079615999997  12.227836159999981 6.796480095999982  11.851517119999983 6.339519808000034  C 11.502077119999967 5.909439808000002  11.071997119999992 5.627199711999992  10.574716160000037 5.506239808000032  L 10.574716160000037 5.479359903999978  C 11.071997119999992 5.304639712000039  11.448317119999956 5.022400096000013  11.71711615999999 4.646079903999976  C 11.959037119999948 4.296640000000025  12.079996160000007 3.8665596160000177  12.079996160000007 3.3558400000000006  C 12.079996160000007 2.6569598080000105  11.811196159999952 2.065599711999994  11.30047615999996 1.5951999039999691  Z M 7.349116831999993 2.240319807999981  C 7.725437023999973 1.8908795199999986  8.263036160000013 1.7161593280000034  8.948477120000007 1.7161593280000034  C 9.62047616000001 1.7161593280000034  10.158076160000007 1.8908795199999986  10.547836159999974 2.240319807999981  C 10.870396159999984 2.5359994240000105  11.045117119999986 2.9257596159999935  11.045117119999986 3.396159807999993  C 11.045117119999986 3.8799999999999955  10.89727615999999 4.28319961599999  10.601597119999951 4.578879712000003  C 10.23871711999999 4.928319999999985  9.68767711999999 5.116479615999992  8.948477120000007 5.116479615999992  C 8.195836831999998 5.116479615999992  7.644796448000023 4.928319999999985  7.295357023999998 4.578879712000003  C 6.99967654400001 4.28319961599999  6.851836256000013 3.8799999999999955  6.851836256000013 3.396159807999993  C 6.851836256000013 2.9257596159999935  7.013116448000005 2.5359994240000105  7.349116831999993 2.240319807999981  Z M 7.160956736000003 6.554559808000022  C 7.577596735999976 6.164799616000039  8.168956928 5.976640000000032  8.948477120000007 5.976640000000032  C 9.714556159999972 5.976640000000032  10.319357120000006 6.164799616000039  10.74943711999998 6.554559808000022  C 11.125757119999944 6.903999616000021  11.327356160000022 7.374399424000046  11.327356160000022 7.952319616000011  C 11.327356160000022 8.516799904000038  11.125757119999944 8.97375999999997  10.74943711999998 9.323199999999986  C 10.319357120000006 9.699520000000007  9.727996160000032 9.887679999999989  8.948477120000007 9.887679999999989  C 8.168956928 9.887679999999989  7.564156831999981 9.699520000000007  7.160956736000003 9.336640000000045  C 6.757756640000024 8.987199999999973  6.569596543999978 8.516799904000038  6.569596543999978 7.952319616000011  C 6.569596543999978 7.374399424000046  6.757756640000024 6.903999616000021  7.160956736000003 6.554559808000022  Z M 19.606396159999974 2.3343994240000256  C 19.015037119999988 1.3129593279999767  18.15487711999998 0.8156796160000113  17.01247711999997 0.8156796160000113  C 15.856636159999994 0.8156796160000113  14.996476159999986 1.3129593279999767  14.418557120000003 2.3343994240000256  C 13.90783615999999 3.194559808000008  13.65247711999996 4.35039980800002  13.65247711999996 5.801919903999988  C 13.65247711999996 7.253439904000004  13.90783615999999 8.409280383999999  14.418557120000003 9.269439999999975  C 14.996476159999986 10.277440000000013  15.856636159999994 10.788160000000005  17.01247711999997 10.788160000000005  C 18.15487711999998 10.788160000000005  19.015037119999988 10.277440000000013  19.606396159999974 9.269439999999975  C 20.117118080000008 8.409280383999999  20.372477119999985 7.253439904000004  20.372477119999985 5.801919903999988  C 20.372477119999985 4.35039980800002  20.117118080000008 3.194559808000008  19.606396159999974 2.3343994240000256  Z M 15.157757119999985 3.14079952000003  C 15.534078080000029 2.2134399039999835  16.15231712000002 1.7564800959999616  17.01247711999997 1.7564800959999616  C 17.87263711999998 1.7564800959999616  18.490878080000016 2.2134399039999835  18.867196159999992 3.14079952000003  C 19.135997119999956 3.785919999999976  19.28383808000001 4.672959712000022  19.28383808000001 5.801919903999988  C 19.28383808000001 6.917439616000024  19.135997119999956 7.804479327999957  18.867196159999992 8.463040191999994  C 18.490878080000016 9.376959999999997  17.87263711999998 9.84735999999998  17.01247711999997 9.84735999999998  C 16.15231712000002 9.84735999999998  15.534078080000029 9.376959999999997  15.157757119999985 8.463040191999994  C 14.888957119999986 7.804479327999957  14.754557120000015 6.917439616000024  14.754557120000015 5.801919903999988  C 14.754557120000015 4.672959712000022  14.888957119999986 3.785919999999976  15.157757119999985 3.14079952000003  Z M 36.82303808 0.3721597119999842  L 27.535998080000013 0.3721597119999842  L 27.535998080000013 1.3129593279999767  L 36.82303808 1.3129593279999767  L 36.82303808 0.3721597119999842  Z M 37.99231711999994 4.3235199040000225  L 26.501117120000004 4.3235199040000225  L 26.501117120000004 5.26431990399999  L 29.98207904000003 5.26431990399999  L 29.98207904000003 5.465919999999983  C 29.955199039999968 6.930879520000019  29.65951616000001 8.127039808000006  29.121919040000023 9.040959039999962  C 28.543998079999994 9.927999999999997  27.535998080000013 10.626880000000028  26.084477119999974 11.164480000000026  L 26.608639040000014 11.984320000000025  C 28.10047807999996 11.433279999999968  29.175679039999977 10.66719999999998  29.847679039999942 9.686080000000004  C 30.519679999999937 8.624319423999964  30.882559039999986 7.2131200960000115  30.922878079999975 5.465919999999983  L 30.922878079999975 5.26431990399999  L 33.34207903999999 5.26431990399999  L 33.34207903999999 10.479039999999998  C 33.34207903999999 11.31232  33.758720960000005 11.728959999999972  34.605437119999976 11.728959999999972  L 36.55423904000003 11.728959999999972  C 37.03807711999997 11.728959999999972  37.400959039999975 11.581119999999999  37.62943807999994 11.31232  C 37.898237119999976 11.003199999999993  38.07295616000005 10.11615999999998  38.167039999999986 8.651200287999984  L 37.27999999999997 8.368959615999984  C 37.22624000000002 9.578559999999982  37.132160959999965 10.304320000000018  36.97087807999998 10.546240000000012  C 36.863358079999955 10.747839999999997  36.66175903999999 10.855360000000019  36.36607712 10.855360000000019  L 34.87423904000002 10.855360000000019  C 34.471037120000005 10.855360000000019  34.28287807999999 10.653759999999977  34.28287807999999 10.277440000000013  L 34.28287807999999 5.26431990399999  L 37.99231711999994 5.26431990399999  L 37.99231711999994 4.3235199040000225  Z " fill-rule="nonzero" fill="rgba(51, 51, 51, 1)" stroke="none" transform="matrix(1 0 0 1 2053 343 )" class="fill" />
    <path d="M 3.4783962559999964 1.0038397120000013  L 2.618236351999997 1.0038397120000013  C 2.295676159999971 1.3667199999999866  1.9193562559999575 1.6892795200000137  1.4623961599999689 1.984960000000001  C 1.00543606399998 2.253759807999984  0.548476160000007 2.441919903999974  0.11839606400002367 2.562879328000008  L 0.11839606400002367 3.664959520000025  C 1.0188760639999828 3.396159807999993  1.7715161599999758 2.966079903999969  2.3763162559999955 2.3478393280000205  L 2.3763162559999955 10.600000000000023  L 3.4783962559999964 10.600000000000023  L 3.4783962559999964 1.0038397120000013  Z " stroke-width="0" stroke-dasharray="0" stroke="rgba(255, 255, 255, 0)" fill="none" transform="matrix(1 0 0 1 2053 343 )" class="stroke" mask="url(#Clip8435)" />
    <path d="M 11.30047615999996 1.5951999039999691  C 10.735997119999979 1.0710394239999914  9.94303616000002 0.8156796160000113  8.948477120000007 0.8156796160000113  C 7.940476063999938 0.8156796160000113  7.160956736000003 1.0710394239999914  6.596476447999976 1.5951999039999691  C 6.072316447999981 2.065599711999994  5.816956640000001 2.6569598080000105  5.816956640000001 3.3558400000000006  C 5.816956640000001 3.8665596160000177  5.937916544000018 4.296640000000025  6.179836448000003 4.646079903999976  C 6.435196255999983 5.022400096000013  6.811516448000019 5.304639712000039  7.322236927999995 5.479359903999978  L 7.322236927999995 5.506239808000032  C 6.811516448000019 5.627199711999992  6.394876447999991 5.909439808000002  6.045436543999983 6.339519808000034  C 5.669116352000003 6.796480095999982  5.480956256000014 7.334079615999997  5.480956256000014 7.952319616000011  C 5.480956256000014 8.799040000000048  5.7766363520000255 9.48448000000002  6.367996543999993 9.995200000000011  C 6.972796640000013 10.519360000000006  7.8329565440000115 10.788160000000005  8.948477120000007 10.788160000000005  C 10.050556159999985 10.788160000000005  10.910716159999993 10.519360000000006  11.528957119999973 9.995200000000011  C 12.120316159999959 9.48448000000002  12.415997119999988 8.799040000000048  12.415997119999988 7.952319616000011  C 12.415997119999988 7.334079615999997  12.227836159999981 6.796480095999982  11.851517119999983 6.339519808000034  C 11.502077119999967 5.909439808000002  11.071997119999992 5.627199711999992  10.574716160000037 5.506239808000032  L 10.574716160000037 5.479359903999978  C 11.071997119999992 5.304639712000039  11.448317119999956 5.022400096000013  11.71711615999999 4.646079903999976  C 11.959037119999948 4.296640000000025  12.079996160000007 3.8665596160000177  12.079996160000007 3.3558400000000006  C 12.079996160000007 2.6569598080000105  11.811196159999952 2.065599711999994  11.30047615999996 1.5951999039999691  Z " stroke-width="0" stroke-dasharray="0" stroke="rgba(255, 255, 255, 0)" fill="none" transform="matrix(1 0 0 1 2053 343 )" class="stroke" mask="url(#Clip8435)" />
    <path d="M 7.349116831999993 2.240319807999981  C 7.725437023999973 1.8908795199999986  8.263036160000013 1.7161593280000034  8.948477120000007 1.7161593280000034  C 9.62047616000001 1.7161593280000034  10.158076160000007 1.8908795199999986  10.547836159999974 2.240319807999981  C 10.870396159999984 2.5359994240000105  11.045117119999986 2.9257596159999935  11.045117119999986 3.396159807999993  C 11.045117119999986 3.8799999999999955  10.89727615999999 4.28319961599999  10.601597119999951 4.578879712000003  C 10.23871711999999 4.928319999999985  9.68767711999999 5.116479615999992  8.948477120000007 5.116479615999992  C 8.195836831999998 5.116479615999992  7.644796448000023 4.928319999999985  7.295357023999998 4.578879712000003  C 6.99967654400001 4.28319961599999  6.851836256000013 3.8799999999999955  6.851836256000013 3.396159807999993  C 6.851836256000013 2.9257596159999935  7.013116448000005 2.5359994240000105  7.349116831999993 2.240319807999981  Z " stroke-width="0" stroke-dasharray="0" stroke="rgba(255, 255, 255, 0)" fill="none" transform="matrix(1 0 0 1 2053 343 )" class="stroke" mask="url(#Clip8435)" />
    <path d="M 7.160956736000003 6.554559808000022  C 7.577596735999976 6.164799616000039  8.168956928 5.976640000000032  8.948477120000007 5.976640000000032  C 9.714556159999972 5.976640000000032  10.319357120000006 6.164799616000039  10.74943711999998 6.554559808000022  C 11.125757119999944 6.903999616000021  11.327356160000022 7.374399424000046  11.327356160000022 7.952319616000011  C 11.327356160000022 8.516799904000038  11.125757119999944 8.97375999999997  10.74943711999998 9.323199999999986  C 10.319357120000006 9.699520000000007  9.727996160000032 9.887679999999989  8.948477120000007 9.887679999999989  C 8.168956928 9.887679999999989  7.564156831999981 9.699520000000007  7.160956736000003 9.336640000000045  C 6.757756640000024 8.987199999999973  6.569596543999978 8.516799904000038  6.569596543999978 7.952319616000011  C 6.569596543999978 7.374399424000046  6.757756640000024 6.903999616000021  7.160956736000003 6.554559808000022  Z " stroke-width="0" stroke-dasharray="0" stroke="rgba(255, 255, 255, 0)" fill="none" transform="matrix(1 0 0 1 2053 343 )" class="stroke" mask="url(#Clip8435)" />
    <path d="M 19.606396159999974 2.3343994240000256  C 19.015037119999988 1.3129593279999767  18.15487711999998 0.8156796160000113  17.01247711999997 0.8156796160000113  C 15.856636159999994 0.8156796160000113  14.996476159999986 1.3129593279999767  14.418557120000003 2.3343994240000256  C 13.90783615999999 3.194559808000008  13.65247711999996 4.35039980800002  13.65247711999996 5.801919903999988  C 13.65247711999996 7.253439904000004  13.90783615999999 8.409280383999999  14.418557120000003 9.269439999999975  C 14.996476159999986 10.277440000000013  15.856636159999994 10.788160000000005  17.01247711999997 10.788160000000005  C 18.15487711999998 10.788160000000005  19.015037119999988 10.277440000000013  19.606396159999974 9.269439999999975  C 20.117118080000008 8.409280383999999  20.372477119999985 7.253439904000004  20.372477119999985 5.801919903999988  C 20.372477119999985 4.35039980800002  20.117118080000008 3.194559808000008  19.606396159999974 2.3343994240000256  Z " stroke-width="0" stroke-dasharray="0" stroke="rgba(255, 255, 255, 0)" fill="none" transform="matrix(1 0 0 1 2053 343 )" class="stroke" mask="url(#Clip8435)" />
    <path d="M 15.157757119999985 3.14079952000003  C 15.534078080000029 2.2134399039999835  16.15231712000002 1.7564800959999616  17.01247711999997 1.7564800959999616  C 17.87263711999998 1.7564800959999616  18.490878080000016 2.2134399039999835  18.867196159999992 3.14079952000003  C 19.135997119999956 3.785919999999976  19.28383808000001 4.672959712000022  19.28383808000001 5.801919903999988  C 19.28383808000001 6.917439616000024  19.135997119999956 7.804479327999957  18.867196159999992 8.463040191999994  C 18.490878080000016 9.376959999999997  17.87263711999998 9.84735999999998  17.01247711999997 9.84735999999998  C 16.15231712000002 9.84735999999998  15.534078080000029 9.376959999999997  15.157757119999985 8.463040191999994  C 14.888957119999986 7.804479327999957  14.754557120000015 6.917439616000024  14.754557120000015 5.801919903999988  C 14.754557120000015 4.672959712000022  14.888957119999986 3.785919999999976  15.157757119999985 3.14079952000003  Z " stroke-width="0" stroke-dasharray="0" stroke="rgba(255, 255, 255, 0)" fill="none" transform="matrix(1 0 0 1 2053 343 )" class="stroke" mask="url(#Clip8435)" />
    <path d="M 36.82303808 0.3721597119999842  L 27.535998080000013 0.3721597119999842  L 27.535998080000013 1.3129593279999767  L 36.82303808 1.3129593279999767  L 36.82303808 0.3721597119999842  Z " stroke-width="0" stroke-dasharray="0" stroke="rgba(255, 255, 255, 0)" fill="none" transform="matrix(1 0 0 1 2053 343 )" class="stroke" mask="url(#Clip8435)" />
    <path d="M 37.99231711999994 4.3235199040000225  L 26.501117120000004 4.3235199040000225  L 26.501117120000004 5.26431990399999  L 29.98207904000003 5.26431990399999  L 29.98207904000003 5.465919999999983  C 29.955199039999968 6.930879520000019  29.65951616000001 8.127039808000006  29.121919040000023 9.040959039999962  C 28.543998079999994 9.927999999999997  27.535998080000013 10.626880000000028  26.084477119999974 11.164480000000026  L 26.608639040000014 11.984320000000025  C 28.10047807999996 11.433279999999968  29.175679039999977 10.66719999999998  29.847679039999942 9.686080000000004  C 30.519679999999937 8.624319423999964  30.882559039999986 7.2131200960000115  30.922878079999975 5.465919999999983  L 30.922878079999975 5.26431990399999  L 33.34207903999999 5.26431990399999  L 33.34207903999999 10.479039999999998  C 33.34207903999999 11.31232  33.758720960000005 11.728959999999972  34.605437119999976 11.728959999999972  L 36.55423904000003 11.728959999999972  C 37.03807711999997 11.728959999999972  37.400959039999975 11.581119999999999  37.62943807999994 11.31232  C 37.898237119999976 11.003199999999993  38.07295616000005 10.11615999999998  38.167039999999986 8.651200287999984  L 37.27999999999997 8.368959615999984  C 37.22624000000002 9.578559999999982  37.132160959999965 10.304320000000018  36.97087807999998 10.546240000000012  C 36.863358079999955 10.747839999999997  36.66175903999999 10.855360000000019  36.36607712 10.855360000000019  L 34.87423904000002 10.855360000000019  C 34.471037120000005 10.855360000000019  34.28287807999999 10.653759999999977  34.28287807999999 10.277440000000013  L 34.28287807999999 5.26431990399999  L 37.99231711999994 5.26431990399999  L 37.99231711999994 4.3235199040000225  Z " stroke-width="0" stroke-dasharray="0" stroke="rgba(255, 255, 255, 0)" fill="none" transform="matrix(1 0 0 1 2053 343 )" class="stroke" mask="url(#Clip8435)" />
  </g>
</svg>