<?xml version="1.0" encoding="utf-8"?>
<svg version="1.1" xmlns:xlink="http://www.w3.org/1999/xlink" width="67px" height="13px" xmlns="http://www.w3.org/2000/svg">
  <defs>
    <pattern id="BGPattern" patternUnits="userSpaceOnUse" alignment="0 0" imageRepeat="None" />
    <mask fill="white" id="Clip1247">
      <path d="M 12.514560000000017 4.372159711999984  L 12.366719999999987 3.4448000959999945  L 5.848320000000001 4.640959903999999  L 5.848320000000001 0.32671997119996377  L 4.853760191999981 0.32671997119996377  L 4.853760191999981 4.829119999999989  L 0.37823999040000444 5.648959616000013  L 0.5260800383999822 6.576319711999987  L 4.853760191999981 5.783359999999959  L 4.853760191999981 10.957760000000007  C 4.853760191999981 11.817919999999958  5.243520384000021 12.24799999999999  6.049919999999985 12.24799999999999  L 10.377599999999973 12.24799999999999  C 10.982400960000007 12.24799999999999  11.399040960000036 12.100160000000017  11.627520000000004 11.804480000000012  C 11.855999999999995 11.481920000000002  12.003840959999991 10.59487999999999  12.084479999999985 9.143359999999973  L 11.157120959999986 8.847679424000034  C 11.103359999999952 10.084159999999997  11.022719999999936 10.796480000000031  10.888319999999965 10.998080000000016  C 10.75392095999996 11.19968  10.525440959999969 11.307199999999966  10.216319999999996 11.307199999999966  L 6.278400384000008 11.307199999999966  C 5.982720384000004 11.307199999999966  5.848320000000001 11.14591999999999  5.848320000000001 10.82335999999998  L 5.848320000000001 5.595199903999969  L 12.514560000000017 4.372159711999984  Z M 25 12.51679999999999  L 25 0.7971197119999829  L 16 0.7971197119999829  L 16 12.530239999999992  L 16.869120959999975 12.530239999999992  L 16.869120959999975 11.495360000000005  L 23.22624000000002 11.495360000000005  L 23.22624000000002 12.51679999999999  L 25 12.51679999999999  Z M 23.22624000000002 10.55455999999998  L 16.869120959999975 10.55455999999998  L 16.869120959999975 6.509119999999995  L 23.22624000000002 6.509119999999995  L 23.22624000000002 10.55455999999998  Z M 23.22624000000002 5.5683199999999715  L 16.869120959999975 5.5683199999999715  L 16.869120959999975 1.7379193279999756  L 23.22624000000002 1.7379193279999756  L 23.22624000000002 5.5683199999999715  Z M 29.704319039999973 5.353279999999984  L 29.704319039999973 5.003839712000001  L 39.38111903999999 5.003839712000001  L 39.38111903999999 4.063039711999977  L 29.704319039999973 4.063039711999977  L 29.704319039999973 2.1814400959999602  C 32.98368191999998 2.1007995200000096  35.94047999999998 1.8051199039999803  38.57471903999999 1.2675195200000076  L 38.09088095999999 0.3939196736000099  C 35.32223904 0.9718399039999781  32.21760095999997 1.2809595199999535  28.75007999999997 1.3212793280000028  L 28.75007999999997 5.353279999999984  C 28.669439999999952 8.095039999999983  28.14528095999998 10.245439999999974  27.16415999999998 11.804480000000012  L 27.876480000000015 12.543679999999995  C 29.005440959999987 10.756159999999966  29.62367999999998 8.363839712000015  29.704319039999973 5.353279999999984  Z M 38.31935999999996 12.584000000000003  L 38.31935999999996 6.885439711999993  L 30.940800000000024 6.885439711999993  L 30.940800000000024 12.584000000000003  L 31.908479039999975 12.584000000000003  L 31.908479039999975 11.952320000000043  L 37.35168096000001 11.952320000000043  L 37.35168096000001 12.584000000000003  L 38.31935999999996 12.584000000000003  Z M 37.35168096000001 11.011520000000019  L 31.908479039999975 11.011520000000019  L 31.908479039999975 7.812800288000005  L 37.35168096000001 7.812800288000005  L 37.35168096000001 11.011520000000019  Z M 47.673599999999965 11.293759999999963  L 47.673599999999965 10.339519999999993  C 46.759679999999946 10.541119999999978  45.832320960000004 10.729280000000017  44.87808095999998 10.890559999999994  L 44.87808095999998 8.511680000000013  L 47.29728191999999 8.511680000000013  L 47.29728191999999 7.570879520000005  L 44.87808095999998 7.570879520000005  L 44.87808095999998 6.011839903999999  L 43.91040191999997 6.011839903999999  L 43.91040191999997 7.570879520000005  L 41.28959807999996 7.570879520000005  L 41.28959807999996 8.511680000000013  L 43.91040191999997 8.511680000000013  L 43.91040191999997 11.05183999999997  C 42.88895903999997 11.213120000000004  41.84064000000001 11.347520000000031  40.76544095999998 11.46848  L 40.98048 12.395840000000021  C 43.372799999999984 12.100160000000017  45.60384191999998 11.723839999999996  47.673599999999965 11.293759999999963  Z M 47.619839999999954 0.8508795199999781  L 40.94015999999999 0.8508795199999781  L 40.94015999999999 1.7648000959999877  L 43.144320960000016 1.7648000959999877  C 42.37824095999997 3.310399808  41.71967999999998 4.318399999999997  41.168639040000016 4.80223971199996  C 41.07455904 4.842559999999992  40.94015999999999 4.869439807999981  40.77888095999998 4.896319711999979  L 41.007360000000006 5.769920000000013  C 43.02336192000001 5.5683199999999715  44.89152095999998 5.3129597120000085  46.58496095999999 5.017279615999996  C 46.80000000000001 5.3801599039999815  46.98815904000003 5.729599807999989  47.162878079999984 6.079039615999989  L 47.969281920000014 5.514559808000001  C 47.485440960000005 4.6140796159999695  46.80000000000001 3.5523196159999775  45.89951999999999 2.342719423999995  L 45.16032000000001 2.826560096000037  C 45.523198079999986 3.3238397119999945  45.85919999999999 3.807679903999997  46.15487903999997 4.291519616000016  C 44.94528095999999 4.506559616000004  43.68191904000003 4.6678398079999965  42.351360959999965 4.80223971199996  C 42.91583903999998 4.116799904000004  43.520640000000014 3.108799712000007  44.16576095999994 1.7648000959999877  L 47.619839999999954 1.7648000959999877  L 47.619839999999954 0.8508795199999781  Z M 49.19232096000002 12.463039999999978  L 51.167999039999984 12.463039999999978  C 51.97439903999998 12.463039999999978  52.39104096 12.046399999999949  52 11.226560000000006  L 52 0.2998400864000246  L 51 0.2998400864000246  L 51 10.984639999999956  C 51.40992191999999 11.37439999999998  51.20831903999999 11.576000000000022  50.83200095999996 11.576000000000022  C 50.240639999999985 11.576000000000022  49.62240191999996 11.549120000000016  48.977281919999996 11.522239999999954  L 49.19232096000002 12.463039999999978  Z M 49.662721920000024 1.5094394239999929  L 48.72191903999999 1.5094394239999929  L 48.72191903999999 9.828799999999944  L 49.662721920000024 9.828799999999944  L 49.662721920000024 1.5094394239999929  Z M 59.25888096 9.237439616000017  L 59.25888096 0.7971197119999829  L 54.608639040000014 0.7971197119999829  L 54.608639040000014 9.237439616000017  L 55.49567903999997 9.237439616000017  L 55.49567903999997 1.697599519999983  L 58.39872095999999 1.697599519999983  L 58.39872095999999 9.237439616000017  L 59.25888096 9.237439616000017  Z M 57.336961919999965 2.6787198079999825  L 56.50368191999996 2.6787198079999825  L 56.50368191999996 7.046719999999994  C 56.47680191999996 8.269760096000027  56.302079040000024 9.264319424000007  55.97951999999998 10.043839999999989  C 55.630078079999976 10.783039999999971  54.998400960000026 11.37439999999998  54.111360959999956 11.817919999999958  L 54.63551903999996 12.624320000000012  C 55.576318079999965 12.153919999999971  56.248319039999956 11.495360000000005  56.66496095999997 10.662080000000003  C 57.09503903999996 9.761599999999987  57.31008191999996 8.551999808000005  57.336961919999965 7.046719999999994  L 57.336961919999965 2.6787198079999825  Z M 59.66207904000004 11.831359999999961  C 59.16480095999998 11.105600000000038  58.54656 10.366399999999999  57.793920000000014 9.613759999999957  L 57.17567903999998 10.218559999999968  C 57.941759039999965 11.024960000000021  58.54656 11.79104000000001  58.97663807999999 12.51679999999999  L 59.66207904000004 11.831359999999961  Z M 61.73184095999994 6.764479807999976  L 62.914562880000005 6.764479807999976  C 63.55967999999996 9.264319424000007  64.52736288 11.172799999999995  65.79071807999998 12.463039999999978  L 66.44928191999998 11.710399999999993  C 65.27999999999997 10.55455999999998  64.37951616000004 8.91488009599999  63.76127903999998 6.764479807999976  L 66.19392288 6.764479807999976  L 66.19392288 5.8236798080000085  L 61.73184095999994 5.8236798080000085  L 61.73184095999994 0.2729592896000099  L 60.791040959999975 0.2729592896000099  L 60.791040959999975 5.8236798080000085  L 59.823361920000025 5.8236798080000085  L 59.823361920000025 6.764479807999976  L 60.791040959999975 6.764479807999976  L 60.791040959999975 11.28031999999996  C 60.791040959999975 11.46848  60.683521919999976 11.60287999999997  60.48191903999998 11.69695999999999  L 60.88512096 12.557119999999998  C 61.960320000000024 12.221119999999985  62.901122879999946 11.79104000000001  63.73439903999997 11.266880000000015  L 63.55967999999996 10.406720000000007  C 62.94144288000001 10.796480000000031  62.32319808 11.105600000000038  61.73184095999994 11.334080000000029  L 61.73184095999994 6.764479807999976  Z M 65.99232383999998 1.4825595199999952  L 65.25311999999997 0.8777594239999758  C 64.39296384 2.3158395199999973  63.358080959999995 3.3910394239999846  62.148479039999984 4.089919615999975  L 62.67263711999999 4.842559999999992  C 63.93599807999999 4.116799904000004  65.05152096 2.987839328000007  65.99232383999998 1.4825595199999952  Z " fill-rule="evenodd" />
    </mask>
  </defs>
  <g transform="matrix(1 0 0 1 -1588 -375 )">
    <path d="M 12.514560000000017 4.372159711999984  L 12.366719999999987 3.4448000959999945  L 5.848320000000001 4.640959903999999  L 5.848320000000001 0.32671997119996377  L 4.853760191999981 0.32671997119996377  L 4.853760191999981 4.829119999999989  L 0.37823999040000444 5.648959616000013  L 0.5260800383999822 6.576319711999987  L 4.853760191999981 5.783359999999959  L 4.853760191999981 10.957760000000007  C 4.853760191999981 11.817919999999958  5.243520384000021 12.24799999999999  6.049919999999985 12.24799999999999  L 10.377599999999973 12.24799999999999  C 10.982400960000007 12.24799999999999  11.399040960000036 12.100160000000017  11.627520000000004 11.804480000000012  C 11.855999999999995 11.481920000000002  12.003840959999991 10.59487999999999  12.084479999999985 9.143359999999973  L 11.157120959999986 8.847679424000034  C 11.103359999999952 10.084159999999997  11.022719999999936 10.796480000000031  10.888319999999965 10.998080000000016  C 10.75392095999996 11.19968  10.525440959999969 11.307199999999966  10.216319999999996 11.307199999999966  L 6.278400384000008 11.307199999999966  C 5.982720384000004 11.307199999999966  5.848320000000001 11.14591999999999  5.848320000000001 10.82335999999998  L 5.848320000000001 5.595199903999969  L 12.514560000000017 4.372159711999984  Z M 25 12.51679999999999  L 25 0.7971197119999829  L 16 0.7971197119999829  L 16 12.530239999999992  L 16.869120959999975 12.530239999999992  L 16.869120959999975 11.495360000000005  L 23.22624000000002 11.495360000000005  L 23.22624000000002 12.51679999999999  L 25 12.51679999999999  Z M 23.22624000000002 10.55455999999998  L 16.869120959999975 10.55455999999998  L 16.869120959999975 6.509119999999995  L 23.22624000000002 6.509119999999995  L 23.22624000000002 10.55455999999998  Z M 23.22624000000002 5.5683199999999715  L 16.869120959999975 5.5683199999999715  L 16.869120959999975 1.7379193279999756  L 23.22624000000002 1.7379193279999756  L 23.22624000000002 5.5683199999999715  Z M 29.704319039999973 5.353279999999984  L 29.704319039999973 5.003839712000001  L 39.38111903999999 5.003839712000001  L 39.38111903999999 4.063039711999977  L 29.704319039999973 4.063039711999977  L 29.704319039999973 2.1814400959999602  C 32.98368191999998 2.1007995200000096  35.94047999999998 1.8051199039999803  38.57471903999999 1.2675195200000076  L 38.09088095999999 0.3939196736000099  C 35.32223904 0.9718399039999781  32.21760095999997 1.2809595199999535  28.75007999999997 1.3212793280000028  L 28.75007999999997 5.353279999999984  C 28.669439999999952 8.095039999999983  28.14528095999998 10.245439999999974  27.16415999999998 11.804480000000012  L 27.876480000000015 12.543679999999995  C 29.005440959999987 10.756159999999966  29.62367999999998 8.363839712000015  29.704319039999973 5.353279999999984  Z M 38.31935999999996 12.584000000000003  L 38.31935999999996 6.885439711999993  L 30.940800000000024 6.885439711999993  L 30.940800000000024 12.584000000000003  L 31.908479039999975 12.584000000000003  L 31.908479039999975 11.952320000000043  L 37.35168096000001 11.952320000000043  L 37.35168096000001 12.584000000000003  L 38.31935999999996 12.584000000000003  Z M 37.35168096000001 11.011520000000019  L 31.908479039999975 11.011520000000019  L 31.908479039999975 7.812800288000005  L 37.35168096000001 7.812800288000005  L 37.35168096000001 11.011520000000019  Z M 47.673599999999965 11.293759999999963  L 47.673599999999965 10.339519999999993  C 46.759679999999946 10.541119999999978  45.832320960000004 10.729280000000017  44.87808095999998 10.890559999999994  L 44.87808095999998 8.511680000000013  L 47.29728191999999 8.511680000000013  L 47.29728191999999 7.570879520000005  L 44.87808095999998 7.570879520000005  L 44.87808095999998 6.011839903999999  L 43.91040191999997 6.011839903999999  L 43.91040191999997 7.570879520000005  L 41.28959807999996 7.570879520000005  L 41.28959807999996 8.511680000000013  L 43.91040191999997 8.511680000000013  L 43.91040191999997 11.05183999999997  C 42.88895903999997 11.213120000000004  41.84064000000001 11.347520000000031  40.76544095999998 11.46848  L 40.98048 12.395840000000021  C 43.372799999999984 12.100160000000017  45.60384191999998 11.723839999999996  47.673599999999965 11.293759999999963  Z M 47.619839999999954 0.8508795199999781  L 40.94015999999999 0.8508795199999781  L 40.94015999999999 1.7648000959999877  L 43.144320960000016 1.7648000959999877  C 42.37824095999997 3.310399808  41.71967999999998 4.318399999999997  41.168639040000016 4.80223971199996  C 41.07455904 4.842559999999992  40.94015999999999 4.869439807999981  40.77888095999998 4.896319711999979  L 41.007360000000006 5.769920000000013  C 43.02336192000001 5.5683199999999715  44.89152095999998 5.3129597120000085  46.58496095999999 5.017279615999996  C 46.80000000000001 5.3801599039999815  46.98815904000003 5.729599807999989  47.162878079999984 6.079039615999989  L 47.969281920000014 5.514559808000001  C 47.485440960000005 4.6140796159999695  46.80000000000001 3.5523196159999775  45.89951999999999 2.342719423999995  L 45.16032000000001 2.826560096000037  C 45.523198079999986 3.3238397119999945  45.85919999999999 3.807679903999997  46.15487903999997 4.291519616000016  C 44.94528095999999 4.506559616000004  43.68191904000003 4.6678398079999965  42.351360959999965 4.80223971199996  C 42.91583903999998 4.116799904000004  43.520640000000014 3.108799712000007  44.16576095999994 1.7648000959999877  L 47.619839999999954 1.7648000959999877  L 47.619839999999954 0.8508795199999781  Z M 49.19232096000002 12.463039999999978  L 51.167999039999984 12.463039999999978  C 51.97439903999998 12.463039999999978  52.39104096 12.046399999999949  52 11.226560000000006  L 52 0.2998400864000246  L 51 0.2998400864000246  L 51 10.984639999999956  C 51.40992191999999 11.37439999999998  51.20831903999999 11.576000000000022  50.83200095999996 11.576000000000022  C 50.240639999999985 11.576000000000022  49.62240191999996 11.549120000000016  48.977281919999996 11.522239999999954  L 49.19232096000002 12.463039999999978  Z M 49.662721920000024 1.5094394239999929  L 48.72191903999999 1.5094394239999929  L 48.72191903999999 9.828799999999944  L 49.662721920000024 9.828799999999944  L 49.662721920000024 1.5094394239999929  Z M 59.25888096 9.237439616000017  L 59.25888096 0.7971197119999829  L 54.608639040000014 0.7971197119999829  L 54.608639040000014 9.237439616000017  L 55.49567903999997 9.237439616000017  L 55.49567903999997 1.697599519999983  L 58.39872095999999 1.697599519999983  L 58.39872095999999 9.237439616000017  L 59.25888096 9.237439616000017  Z M 57.336961919999965 2.6787198079999825  L 56.50368191999996 2.6787198079999825  L 56.50368191999996 7.046719999999994  C 56.47680191999996 8.269760096000027  56.302079040000024 9.264319424000007  55.97951999999998 10.043839999999989  C 55.630078079999976 10.783039999999971  54.998400960000026 11.37439999999998  54.111360959999956 11.817919999999958  L 54.63551903999996 12.624320000000012  C 55.576318079999965 12.153919999999971  56.248319039999956 11.495360000000005  56.66496095999997 10.662080000000003  C 57.09503903999996 9.761599999999987  57.31008191999996 8.551999808000005  57.336961919999965 7.046719999999994  L 57.336961919999965 2.6787198079999825  Z M 59.66207904000004 11.831359999999961  C 59.16480095999998 11.105600000000038  58.54656 10.366399999999999  57.793920000000014 9.613759999999957  L 57.17567903999998 10.218559999999968  C 57.941759039999965 11.024960000000021  58.54656 11.79104000000001  58.97663807999999 12.51679999999999  L 59.66207904000004 11.831359999999961  Z M 61.73184095999994 6.764479807999976  L 62.914562880000005 6.764479807999976  C 63.55967999999996 9.264319424000007  64.52736288 11.172799999999995  65.79071807999998 12.463039999999978  L 66.44928191999998 11.710399999999993  C 65.27999999999997 10.55455999999998  64.37951616000004 8.91488009599999  63.76127903999998 6.764479807999976  L 66.19392288 6.764479807999976  L 66.19392288 5.8236798080000085  L 61.73184095999994 5.8236798080000085  L 61.73184095999994 0.2729592896000099  L 60.791040959999975 0.2729592896000099  L 60.791040959999975 5.8236798080000085  L 59.823361920000025 5.8236798080000085  L 59.823361920000025 6.764479807999976  L 60.791040959999975 6.764479807999976  L 60.791040959999975 11.28031999999996  C 60.791040959999975 11.46848  60.683521919999976 11.60287999999997  60.48191903999998 11.69695999999999  L 60.88512096 12.557119999999998  C 61.960320000000024 12.221119999999985  62.901122879999946 11.79104000000001  63.73439903999997 11.266880000000015  L 63.55967999999996 10.406720000000007  C 62.94144288000001 10.796480000000031  62.32319808 11.105600000000038  61.73184095999994 11.334080000000029  L 61.73184095999994 6.764479807999976  Z M 65.99232383999998 1.4825595199999952  L 65.25311999999997 0.8777594239999758  C 64.39296384 2.3158395199999973  63.358080959999995 3.3910394239999846  62.148479039999984 4.089919615999975  L 62.67263711999999 4.842559999999992  C 63.93599807999999 4.116799904000004  65.05152096 2.987839328000007  65.99232383999998 1.4825595199999952  Z " fill-rule="nonzero" fill="rgba(51, 51, 51, 1)" stroke="none" transform="matrix(1 0 0 1 1588 375 )" class="fill" />
    <path d="M 12.514560000000017 4.372159711999984  L 12.366719999999987 3.4448000959999945  L 5.848320000000001 4.640959903999999  L 5.848320000000001 0.32671997119996377  L 4.853760191999981 0.32671997119996377  L 4.853760191999981 4.829119999999989  L 0.37823999040000444 5.648959616000013  L 0.5260800383999822 6.576319711999987  L 4.853760191999981 5.783359999999959  L 4.853760191999981 10.957760000000007  C 4.853760191999981 11.817919999999958  5.243520384000021 12.24799999999999  6.049919999999985 12.24799999999999  L 10.377599999999973 12.24799999999999  C 10.982400960000007 12.24799999999999  11.399040960000036 12.100160000000017  11.627520000000004 11.804480000000012  C 11.855999999999995 11.481920000000002  12.003840959999991 10.59487999999999  12.084479999999985 9.143359999999973  L 11.157120959999986 8.847679424000034  C 11.103359999999952 10.084159999999997  11.022719999999936 10.796480000000031  10.888319999999965 10.998080000000016  C 10.75392095999996 11.19968  10.525440959999969 11.307199999999966  10.216319999999996 11.307199999999966  L 6.278400384000008 11.307199999999966  C 5.982720384000004 11.307199999999966  5.848320000000001 11.14591999999999  5.848320000000001 10.82335999999998  L 5.848320000000001 5.595199903999969  L 12.514560000000017 4.372159711999984  Z " stroke-width="0" stroke-dasharray="0" stroke="rgba(255, 255, 255, 0)" fill="none" transform="matrix(1 0 0 1 1588 375 )" class="stroke" mask="url(#Clip1247)" />
    <path d="M 25 12.51679999999999  L 25 0.7971197119999829  L 16 0.7971197119999829  L 16 12.530239999999992  L 16.869120959999975 12.530239999999992  L 16.869120959999975 11.495360000000005  L 23.22624000000002 11.495360000000005  L 23.22624000000002 12.51679999999999  L 25 12.51679999999999  Z " stroke-width="0" stroke-dasharray="0" stroke="rgba(255, 255, 255, 0)" fill="none" transform="matrix(1 0 0 1 1588 375 )" class="stroke" mask="url(#Clip1247)" />
    <path d="M 23.22624000000002 10.55455999999998  L 16.869120959999975 10.55455999999998  L 16.869120959999975 6.509119999999995  L 23.22624000000002 6.509119999999995  L 23.22624000000002 10.55455999999998  Z " stroke-width="0" stroke-dasharray="0" stroke="rgba(255, 255, 255, 0)" fill="none" transform="matrix(1 0 0 1 1588 375 )" class="stroke" mask="url(#Clip1247)" />
    <path d="M 23.22624000000002 5.5683199999999715  L 16.869120959999975 5.5683199999999715  L 16.869120959999975 1.7379193279999756  L 23.22624000000002 1.7379193279999756  L 23.22624000000002 5.5683199999999715  Z " stroke-width="0" stroke-dasharray="0" stroke="rgba(255, 255, 255, 0)" fill="none" transform="matrix(1 0 0 1 1588 375 )" class="stroke" mask="url(#Clip1247)" />
    <path d="M 29.704319039999973 5.353279999999984  L 29.704319039999973 5.003839712000001  L 39.38111903999999 5.003839712000001  L 39.38111903999999 4.063039711999977  L 29.704319039999973 4.063039711999977  L 29.704319039999973 2.1814400959999602  C 32.98368191999998 2.1007995200000096  35.94047999999998 1.8051199039999803  38.57471903999999 1.2675195200000076  L 38.09088095999999 0.3939196736000099  C 35.32223904 0.9718399039999781  32.21760095999997 1.2809595199999535  28.75007999999997 1.3212793280000028  L 28.75007999999997 5.353279999999984  C 28.669439999999952 8.095039999999983  28.14528095999998 10.245439999999974  27.16415999999998 11.804480000000012  L 27.876480000000015 12.543679999999995  C 29.005440959999987 10.756159999999966  29.62367999999998 8.363839712000015  29.704319039999973 5.353279999999984  Z " stroke-width="0" stroke-dasharray="0" stroke="rgba(255, 255, 255, 0)" fill="none" transform="matrix(1 0 0 1 1588 375 )" class="stroke" mask="url(#Clip1247)" />
    <path d="M 38.31935999999996 12.584000000000003  L 38.31935999999996 6.885439711999993  L 30.940800000000024 6.885439711999993  L 30.940800000000024 12.584000000000003  L 31.908479039999975 12.584000000000003  L 31.908479039999975 11.952320000000043  L 37.35168096000001 11.952320000000043  L 37.35168096000001 12.584000000000003  L 38.31935999999996 12.584000000000003  Z " stroke-width="0" stroke-dasharray="0" stroke="rgba(255, 255, 255, 0)" fill="none" transform="matrix(1 0 0 1 1588 375 )" class="stroke" mask="url(#Clip1247)" />
    <path d="M 37.35168096000001 11.011520000000019  L 31.908479039999975 11.011520000000019  L 31.908479039999975 7.812800288000005  L 37.35168096000001 7.812800288000005  L 37.35168096000001 11.011520000000019  Z " stroke-width="0" stroke-dasharray="0" stroke="rgba(255, 255, 255, 0)" fill="none" transform="matrix(1 0 0 1 1588 375 )" class="stroke" mask="url(#Clip1247)" />
    <path d="M 47.673599999999965 11.293759999999963  L 47.673599999999965 10.339519999999993  C 46.759679999999946 10.541119999999978  45.832320960000004 10.729280000000017  44.87808095999998 10.890559999999994  L 44.87808095999998 8.511680000000013  L 47.29728191999999 8.511680000000013  L 47.29728191999999 7.570879520000005  L 44.87808095999998 7.570879520000005  L 44.87808095999998 6.011839903999999  L 43.91040191999997 6.011839903999999  L 43.91040191999997 7.570879520000005  L 41.28959807999996 7.570879520000005  L 41.28959807999996 8.511680000000013  L 43.91040191999997 8.511680000000013  L 43.91040191999997 11.05183999999997  C 42.88895903999997 11.213120000000004  41.84064000000001 11.347520000000031  40.76544095999998 11.46848  L 40.98048 12.395840000000021  C 43.372799999999984 12.100160000000017  45.60384191999998 11.723839999999996  47.673599999999965 11.293759999999963  Z " stroke-width="0" stroke-dasharray="0" stroke="rgba(255, 255, 255, 0)" fill="none" transform="matrix(1 0 0 1 1588 375 )" class="stroke" mask="url(#Clip1247)" />
    <path d="M 47.619839999999954 0.8508795199999781  L 40.94015999999999 0.8508795199999781  L 40.94015999999999 1.7648000959999877  L 43.144320960000016 1.7648000959999877  C 42.37824095999997 3.310399808  41.71967999999998 4.318399999999997  41.168639040000016 4.80223971199996  C 41.07455904 4.842559999999992  40.94015999999999 4.869439807999981  40.77888095999998 4.896319711999979  L 41.007360000000006 5.769920000000013  C 43.02336192000001 5.5683199999999715  44.89152095999998 5.3129597120000085  46.58496095999999 5.017279615999996  C 46.80000000000001 5.3801599039999815  46.98815904000003 5.729599807999989  47.162878079999984 6.079039615999989  L 47.969281920000014 5.514559808000001  C 47.485440960000005 4.6140796159999695  46.80000000000001 3.5523196159999775  45.89951999999999 2.342719423999995  L 45.16032000000001 2.826560096000037  C 45.523198079999986 3.3238397119999945  45.85919999999999 3.807679903999997  46.15487903999997 4.291519616000016  C 44.94528095999999 4.506559616000004  43.68191904000003 4.6678398079999965  42.351360959999965 4.80223971199996  C 42.91583903999998 4.116799904000004  43.520640000000014 3.108799712000007  44.16576095999994 1.7648000959999877  L 47.619839999999954 1.7648000959999877  L 47.619839999999954 0.8508795199999781  Z " stroke-width="0" stroke-dasharray="0" stroke="rgba(255, 255, 255, 0)" fill="none" transform="matrix(1 0 0 1 1588 375 )" class="stroke" mask="url(#Clip1247)" />
    <path d="M 49.19232096000002 12.463039999999978  L 51.167999039999984 12.463039999999978  C 51.97439903999998 12.463039999999978  52.39104096 12.046399999999949  52 11.226560000000006  L 52 0.2998400864000246  L 51 0.2998400864000246  L 51 10.984639999999956  C 51.40992191999999 11.37439999999998  51.20831903999999 11.576000000000022  50.83200095999996 11.576000000000022  C 50.240639999999985 11.576000000000022  49.62240191999996 11.549120000000016  48.977281919999996 11.522239999999954  L 49.19232096000002 12.463039999999978  Z " stroke-width="0" stroke-dasharray="0" stroke="rgba(255, 255, 255, 0)" fill="none" transform="matrix(1 0 0 1 1588 375 )" class="stroke" mask="url(#Clip1247)" />
    <path d="M 49.662721920000024 1.5094394239999929  L 48.72191903999999 1.5094394239999929  L 48.72191903999999 9.828799999999944  L 49.662721920000024 9.828799999999944  L 49.662721920000024 1.5094394239999929  Z " stroke-width="0" stroke-dasharray="0" stroke="rgba(255, 255, 255, 0)" fill="none" transform="matrix(1 0 0 1 1588 375 )" class="stroke" mask="url(#Clip1247)" />
    <path d="M 59.25888096 9.237439616000017  L 59.25888096 0.7971197119999829  L 54.608639040000014 0.7971197119999829  L 54.608639040000014 9.237439616000017  L 55.49567903999997 9.237439616000017  L 55.49567903999997 1.697599519999983  L 58.39872095999999 1.697599519999983  L 58.39872095999999 9.237439616000017  L 59.25888096 9.237439616000017  Z " stroke-width="0" stroke-dasharray="0" stroke="rgba(255, 255, 255, 0)" fill="none" transform="matrix(1 0 0 1 1588 375 )" class="stroke" mask="url(#Clip1247)" />
    <path d="M 57.336961919999965 2.6787198079999825  L 56.50368191999996 2.6787198079999825  L 56.50368191999996 7.046719999999994  C 56.47680191999996 8.269760096000027  56.302079040000024 9.264319424000007  55.97951999999998 10.043839999999989  C 55.630078079999976 10.783039999999971  54.998400960000026 11.37439999999998  54.111360959999956 11.817919999999958  L 54.63551903999996 12.624320000000012  C 55.576318079999965 12.153919999999971  56.248319039999956 11.495360000000005  56.66496095999997 10.662080000000003  C 57.09503903999996 9.761599999999987  57.31008191999996 8.551999808000005  57.336961919999965 7.046719999999994  L 57.336961919999965 2.6787198079999825  Z " stroke-width="0" stroke-dasharray="0" stroke="rgba(255, 255, 255, 0)" fill="none" transform="matrix(1 0 0 1 1588 375 )" class="stroke" mask="url(#Clip1247)" />
    <path d="M 59.66207904000004 11.831359999999961  C 59.16480095999998 11.105600000000038  58.54656 10.366399999999999  57.793920000000014 9.613759999999957  L 57.17567903999998 10.218559999999968  C 57.941759039999965 11.024960000000021  58.54656 11.79104000000001  58.97663807999999 12.51679999999999  L 59.66207904000004 11.831359999999961  Z " stroke-width="0" stroke-dasharray="0" stroke="rgba(255, 255, 255, 0)" fill="none" transform="matrix(1 0 0 1 1588 375 )" class="stroke" mask="url(#Clip1247)" />
    <path d="M 61.73184095999994 6.764479807999976  L 62.914562880000005 6.764479807999976  C 63.55967999999996 9.264319424000007  64.52736288 11.172799999999995  65.79071807999998 12.463039999999978  L 66.44928191999998 11.710399999999993  C 65.27999999999997 10.55455999999998  64.37951616000004 8.91488009599999  63.76127903999998 6.764479807999976  L 66.19392288 6.764479807999976  L 66.19392288 5.8236798080000085  L 61.73184095999994 5.8236798080000085  L 61.73184095999994 0.2729592896000099  L 60.791040959999975 0.2729592896000099  L 60.791040959999975 5.8236798080000085  L 59.823361920000025 5.8236798080000085  L 59.823361920000025 6.764479807999976  L 60.791040959999975 6.764479807999976  L 60.791040959999975 11.28031999999996  C 60.791040959999975 11.46848  60.683521919999976 11.60287999999997  60.48191903999998 11.69695999999999  L 60.88512096 12.557119999999998  C 61.960320000000024 12.221119999999985  62.901122879999946 11.79104000000001  63.73439903999997 11.266880000000015  L 63.55967999999996 10.406720000000007  C 62.94144288000001 10.796480000000031  62.32319808 11.105600000000038  61.73184095999994 11.334080000000029  L 61.73184095999994 6.764479807999976  Z " stroke-width="0" stroke-dasharray="0" stroke="rgba(255, 255, 255, 0)" fill="none" transform="matrix(1 0 0 1 1588 375 )" class="stroke" mask="url(#Clip1247)" />
    <path d="M 65.99232383999998 1.4825595199999952  L 65.25311999999997 0.8777594239999758  C 64.39296384 2.3158395199999973  63.358080959999995 3.3910394239999846  62.148479039999984 4.089919615999975  L 62.67263711999999 4.842559999999992  C 63.93599807999999 4.116799904000004  65.05152096 2.987839328000007  65.99232383999998 1.4825595199999952  Z " stroke-width="0" stroke-dasharray="0" stroke="rgba(255, 255, 255, 0)" fill="none" transform="matrix(1 0 0 1 1588 375 )" class="stroke" mask="url(#Clip1247)" />
  </g>
</svg>