<?xml version="1.0" encoding="utf-8"?>
<svg version="1.1" xmlns:xlink="http://www.w3.org/1999/xlink" width="81px" height="14px" xmlns="http://www.w3.org/2000/svg">
  <defs>
    <pattern id="BGPattern" patternUnits="userSpaceOnUse" alignment="0 0" imageRepeat="None" />
    <mask fill="white" id="Clip3528">
      <path d="M 1.5049600000000007 13.317439999999976  C 3.9644802880000007 12.672320000000013  5.7385602879999995 11.771839999999997  6.827200191999999 10.616000000000042  C 8.628160095999998 11.31487999999996  10.375360960000002 12.228799999999978  12.095680960000001 13.38463999999999  L 12.619839999999995 12.551359999999988  C 11.033920959999996 11.529920000000004  9.27328 10.656319999999994  7.364800096 9.903679807999993  C 7.48576 9.715519712000003  7.606720383999999 9.51391971199996  7.727680384 9.298879711999973  L 12.445119999999996 9.298879711999973  L 12.445119999999996 8.384960000000035  L 8.130880479999995 8.384960000000035  C 8.426560095999996 7.551680000000032  8.587840287999999 6.597440000000006  8.628160095999998 5.5356796160000385  L 8.628160095999998 3.9497600960000336  L 7.687360096 3.9497600960000336  L 7.687360096 5.5356796160000385  C 7.6470402879999995 6.597440000000006  7.458880191999999 7.551680000000032  7.109440287999998 8.384960000000035  L 1.0883199999999995 8.384960000000035  L 1.0883199999999995 9.298879711999973  L 6.639040095999999 9.298879711999973  C 6.504640192 9.51391971199996  6.3702402880000015 9.715519712000003  6.208960095999998 9.903679807999993  C 5.214400288 10.978880000000004  3.4672001919999964 11.852479999999957  0.9673600191999974 12.497599999999977  L 1.5049600000000007 13.317439999999976  Z M 5.563840192000001 7.2694398080000155  C 4.757439999999999 6.704960000000028  3.856960095999998 6.207679904000031  2.87584 5.791039904000002  L 2.3919999999999995 6.516799904000038  C 3.3059201919999985 6.879679712000041  4.206400191999997 7.390399808000041  5.066560095999996 8.035519711999996  L 5.563840192000001 7.2694398080000155  Z M 6.854079999999996 5.401279712000019  C 6.020799999999998 4.796479615999999  5.093439904 4.285759616000007  4.085440192 3.8691195200000266  L 3.5881600959999993 4.594879616000014  C 4.528960095999999 4.971199807999994  5.456320191999996 5.495359807999989  6.356800384 6.167359615999999  L 6.854079999999996 5.401279712000019  Z M 12.216639999999998 4.877119712000024  L 12.216639999999998 2.296640000000025  L 7.351360192000001 2.296640000000025  C 7.176639999999999 1.7724795199999903  7.001920287999998 1.3020797696000272  6.827200191999999 0.898879702399995  L 5.832640383999998 1.060159913599989  C 6.034239999999997 1.4364800959999684  6.222400095999998 1.8396792320000375  6.383680288000001 2.296640000000025  L 1.2764799999999994 2.296640000000025  L 1.2764799999999994 4.877119712000024  L 2.2172800959999996 4.877119712000024  L 2.2172800959999996 3.197119712000017  L 11.275840000000004 3.197119712000017  L 11.275840000000004 4.877119712000024  L 12.216639999999998 4.877119712000024  Z M 21.019839999999995 7.296319712000013  L 20.132799999999996 7.108159615999966  C 19.756479999999996 8.774720192000018  19.165120960000003 10.293440000000032  18.33184096 11.664320000000032  L 19.138240960000005 12.175039999999967  C 19.94464096 10.804159999999968  20.57632 9.177920192000045  21.019839999999995 7.296319712000013  Z M 26.35552096 11.798720000000003  C 25.925440959999996 10.078400000000045  25.401279039999988 8.452159711999968  24.809919999999998 6.933439904000011  L 23.9632 7.2156796159999885  C 24.527679039999995 8.653759808000018  25.038400960000004 10.306880000000035  25.49536096 12.188480000000027  L 26.35552096 11.798720000000003  Z M 20.522560000000002 13.23679999999996  L 21.853119999999997 13.23679999999996  C 22.63263999999999 13.23679999999996  23.03584 12.833600000000047  23.03584 12.027199999999993  L 23.03584 5.952319616000011  L 26.328640959999998 5.952319616000011  L 26.328640959999998 5.011519616000044  L 18.735039039999997 5.011519616000044  L 18.735039039999997 5.952319616000011  L 22.068159039999998 5.952319616000011  L 22.068159039999998 11.78528  C 22.068159039999998 12.188480000000027  21.879999999999995 12.390079999999955  21.530561920000004 12.390079999999955  C 21.1408 12.390079999999955  20.737600959999995 12.363200000000006  20.33439904 12.322879999999998  L 20.522560000000002 13.23679999999996  Z M 25.629759999999997 1.785919519999993  L 19.554879039999996 1.785919519999993  L 19.554879039999996 2.7132799999999975  L 25.629759999999997 2.7132799999999975  L 25.629759999999997 1.785919519999993  Z M 18.65439904 1.5439996160000078  L 15 1.5439996160000078  L 15 13.317439999999976  L 16 13.317439999999976  L 16 2.4579193280000027  L 17.713599999999992 2.4579193280000027  C 17.36416 3.573439903999997  16.880319999999998 4.82335999999998  16.26208096 6.221119808000026  C 17.09536096 7.350079999999991  17.51200096 8.358080096000037  17.51200096 9.271999807999975  C 17.51200096 9.581119424000008  17.43136096 9.79616028800001  17.283520000000003 9.917119711999987  C 17.149120959999998 10.051519999999982  16.853439999999992 10.132159999999999  16.423360000000002 10.159040000000005  C 16.288960959999997 10.159040000000005  16.11423904 10.132159999999999  15.912639999999996 10.105279999999993  L 16.221760959999997 11.046080000000018  C 17.09536096 11.032640000000015  17.713599999999992 10.871359999999981  18.06304 10.548799999999972  C 18.318400960000005 10.279999999999973  18.452799999999996 9.86336  18.452799999999996 9.271999807999975  C 18.39904096 8.317759423999973  17.982400959999993 7.255999904000021  17.216319999999996 6.073280000000011  C 17.767359999999996 4.7695998080000095  18.25120096 3.51968019200001  18.65439904 2.310079999999971  L 18.65439904 1.5439996160000078  Z M 34.5136 12.01375999999999  L 34.5136 11.05952000000002  C 33.59968 11.261120000000005  32.67232096 11.449280000000044  31.71808096 11.61056000000002  L 31.71808096 9.23168000000004  L 34.13728192 9.23168000000004  L 34.13728192 8.290879519999976  L 31.71808096 8.290879519999976  L 31.71808096 6.731839904000026  L 30.750399999999992 6.731839904000026  L 30.750399999999992 8.290879519999976  L 28.129600000000003 8.290879519999976  L 28.129600000000003 9.23168000000004  L 30.750399999999992 9.23168000000004  L 30.750399999999992 11.771839999999997  C 29.72896095999999 11.933119999999974  28.680640000000007 12.067520000000002  27.60544096 12.188480000000027  L 27.820480000000003 13.115839999999992  C 30.212799999999994 12.820159999999987  32.44384192 12.443840000000023  34.5136 12.01375999999999  Z M 34.45984 1.5708795200000054  L 27.780160000000002 1.5708795200000054  L 27.780160000000002 2.484800096000015  L 29.984319039999995 2.484800096000015  C 29.218240960000003 4.030399808000027  28.559679999999993 5.038400000000024  28.008640959999994 5.522239711999987  C 27.914559040000004 5.562560000000019  27.780160000000002 5.589439808000009  27.61888096 5.616319712000006  L 27.847360000000002 6.4899200000000405  C 29.863359999999997 6.288319999999999  31.731520959999997 6.032959712000036  33.42496096 5.7372796160000235  C 33.64 6.100159904000009  33.828159039999996 6.449599808000016  34.002878079999995 6.799039616000016  L 34.80928192 6.234559808000029  C 34.32544096 5.334079615999997  33.64 4.272319616000004  32.73952 3.062719424000022  L 32.00032 3.5465600960000074  C 32.36319808 4.043839712000022  32.6992 4.527679904000024  32.994879039999994 5.011519616000044  C 31.78528096 5.226559616000031  30.521920959999996 5.387839808000024  29.191360959999997 5.522239711999987  C 29.75584 4.836799904000031  30.360640000000004 3.828799712000034  31.00576096 2.484800096000015  L 34.45984 2.484800096000015  L 34.45984 1.5708795200000054  Z M 36.03232096 13.183040000000005  L 38.007999039999994 13.183040000000005  C 38.81439904 13.183040000000005  39.23104096000001 12.766399999999976  40 11.946559999999977  L 40 1.019840086399995  L 39 1.019840086399995  L 39 11.704639999999984  C 38.24992192 12.094400000000007  38.048319039999996 12.29600000000005  37.67200096 12.29600000000005  C 37.08064 12.29600000000005  36.46240192 12.269119999999987  35.81728192 12.242239999999981  L 36.03232096 13.183040000000005  Z M 36.50272192 2.22943942400002  L 35.56191903999999 2.22943942400002  L 35.56191903999999 10.548799999999972  L 36.50272192 10.548799999999972  L 36.50272192 2.22943942400002  Z M 46.09888096 9.957439615999988  L 46.09888096 1.5171197120000102  L 41.44863904 1.5171197120000102  L 41.44863904 9.957439615999988  L 42.33567903999999 9.957439615999988  L 42.33567903999999 2.41759952000001  L 45.23872095999999 2.41759952000001  L 45.23872095999999 9.957439615999988  L 46.09888096 9.957439615999988  Z M 44.17696192 3.39871980800001  L 43.343681919999995 3.39871980800001  L 43.343681919999995 7.766720000000021  C 43.31680192 8.989760096000055  43.14207904 9.984319423999978  42.81952 10.763840000000016  C 42.47007807999999 11.503039999999999  41.83840095999999 12.094400000000007  40.951360959999995 12.537919999999986  L 41.47551904000001 13.344319999999982  C 42.416318079999996 12.873919999999998  43.088319039999995 12.215360000000032  43.504960960000005 11.38208000000003  C 43.93503904 10.481599999999958  44.150081920000005 9.271999807999975  44.17696192 7.766720000000021  L 44.17696192 3.39871980800001  Z M 46.50207904 12.551359999999988  C 46.00480096 11.825600000000009  45.38655999999999 11.08639999999997  44.63391999999999 10.333759999999984  L 44.015679039999995 10.938559999999995  C 44.78175904 11.744959999999992  45.38655999999999 12.511040000000037  45.816638080000004 13.23679999999996  L 46.50207904 12.551359999999988  Z M 48.57184096 7.484479808000002  L 49.754559040000004 7.484479808000002  C 50.39967999999999 9.984319423999978  51.367360000000005 11.892800000000022  52.63072096000001 13.183040000000005  L 53.28928191999999 12.43040000000002  C 52.11999999999999 11.274560000000008  51.21951999999999 9.634880096000018  50.60127904000001 7.484479808000002  L 53.03392 7.484479808000002  L 53.03392 6.543679808000036  L 48.57184096 6.543679808000036  L 48.57184096 0.9929592895999805  L 47.63104096000001 0.9929592895999805  L 47.63104096000001 6.543679808000036  L 46.66336192 6.543679808000036  L 46.66336192 7.484479808000002  L 47.63104096000001 7.484479808000002  L 47.63104096000001 12.000319999999988  C 47.63104096000001 12.188480000000027  47.52352191999999 12.322879999999998  47.32191904 12.416960000000017  L 47.725120960000005 13.277120000000025  C 48.80032 12.941120000000012  49.74111903999999 12.511040000000037  50.57439904 11.986880000000042  L 50.39967999999999 11.126719999999978  C 49.781439039999995 11.516480000000001  49.16319807999999 11.825600000000009  48.57184096 12.054079999999999  L 48.57184096 7.484479808000002  Z M 52.832320960000004 2.2025595200000225  L 52.09312 1.597759424000003  C 51.23295999999999 3.0358395200000245  50.19808096 4.111039424000012  48.98847904 4.809919616000002  L 49.51263999999999 5.562560000000019  C 50.775998079999994 4.836799904000031  51.891520959999994 3.707839328000034  52.832320960000004 2.2025595200000225  Z M 54.98271808 5.898559904000024  C 55.68159904000001 5.575999904000014  56.3536 5.213119616000029  56.998720959999986 4.82335999999998  L 56.998720959999986 5.6028798080000115  L 60.04960192 5.6028798080000115  L 60.04960192 7.538240096000037  L 55.25152095999999 7.538240096000037  L 55.25152095999999 8.43871980800003  L 60.04960192 8.43871980800003  L 60.04960192 12.027199999999993  L 58.50400191999999 12.027199999999993  C 58.154559039999995 10.965440000000001  57.778240960000005 10.051519999999982  57.361599039999994 9.298879711999973  L 56.48799903999999 9.621440096000015  C 56.91808095999999 10.374079999999992  57.28095904 11.167039999999986  57.56319807999999 12.027199999999993  L 54.78111903999999 12.027199999999993  L 54.78111903999999 13  L 66.27232383999998 13  L 66.27232383999998 12.027199999999993  L 63.49024192 12.027199999999993  C 63.89344 11.301440000000014  64.26975807999999 10.454720000000009  64.60575711999999 9.51391971199996  L 63.71872096 9.204800096000042  C 63.36928191999999 10.212800000000016  62.966083839999996 11.15360000000004  62.50911904000001 12.027199999999993  L 61.01728191999999 12.027199999999993  L 61.01728191999999 8.43871980800003  L 65.80191904 8.43871980800003  L 65.80191904 7.538240096000037  L 61.01728191999999 7.538240096000037  L 61.01728191999999 5.6028798080000115  L 64.06815904 5.6028798080000115  L 64.06815904 4.863679808000029  C 64.68639616 5.226559616000031  65.34496096 5.562560000000019  66.05727808 5.858239615999992  L 66.60832288 5.051839904000019  C 64.10847903999999 4.003519904000029  62.21343999999999 2.686400192000008  60.92319808 1.087039798399985  L 60.14368191999999 1.087039798399985  C 58.665280960000004 2.7132799999999975  56.756801919999994 4.043839712000022  54.41824096 5.0921597120000115  L 54.98271808 5.898559904000024  Z M 60.53344000000001 2.000959519999981  C 61.42048 3.0358395200000245  62.522559040000004 3.9497600960000336  63.83968 4.729279904000009  L 57.146559999999994 4.729279904000009  C 58.39648192 3.9632000959999805  59.52544096 3.0492795200000273  60.53344000000001 2.000959519999981  Z M 68.35552288 7.255999904000021  C 68.70496096 6.987199712000006  69.02752 6.6915196160000505  69.33663808 6.382400096000026  C 69.79360384 6.624319904000004  70.23712191999999 6.879679712000041  70.6672 7.1350400000000045  C 69.86080288 7.83391971200001  68.89312 8.317759423999973  67.75071808 8.586560096000028  L 68.11360384 9.312319615999968  C 69.37695808 8.976320192000003  70.47904096 8.398400000000038  71.39296384 7.565119904000027  C 72.25312 8.089279904000023  72.99231712 8.600000000000023  73.61056192 9.110719615999983  L 74.21535904 8.505920384000035  C 73.54336192 8.008639807999998  72.79071808 7.511359712000002  71.94400191999999 7.000639616000001  C 72.38752 6.4899200000000405  72.79071808 5.885119904000021  73.14016384 5.186239808000039  L 73.14016384 4.527679904000024  L 70.62688 4.527679904000024  C 70.74783904 4.2588797120000095  70.85535904 3.9632000959999805  70.96287808 3.65407961599999  L 70.08928191999999 3.5331200960000047  C 69.69951615999999 4.729279904000009  68.94688000000001 5.7372796160000235  67.84479712 6.570559712000033  L 68.35552288 7.255999904000021  Z M 72.18592 5.280319808000002  C 71.91712191999999 5.750719616000026  71.59456287999998 6.180800000000033  71.23167711999999 6.583999616000028  C 70.80159904 6.328639808000048  70.33120095999999 6.073280000000011  69.83392288 5.817919807999999  C 69.96832288 5.643199616000004  70.08928191999999 5.468479903999992  70.21024192 5.280319808000002  L 72.18592 5.280319808000002  Z M 73.78528096 4.487359615999992  L 73.78528096 2.2697600960000273  L 71.52736288 2.2697600960000273  C 71.33919712 1.7590396159999955  71.15103712 1.3155197120000253  70.96287808 0.9123196447999931  L 69.99520288 1.073599856000044  C 70.21024192 1.4364800959999684  70.41184095999999 1.8396792320000375  70.6 2.2697600960000273  L 68.14048384 2.2697600960000273  L 68.14048384 4.500799520000044  L 68.98719999999999 4.500799520000044  L 68.98719999999999 3.1030401919999804  L 72.93855712 3.1030401919999804  L 72.93855712 4.487359615999992  L 73.78528096 4.487359615999992  Z M 73.12672384 13.223359999999957  L 73.12672384 9.13759951999998  L 68.97376 9.13759951999998  L 68.97376 13.223359999999957  L 69.84736287999999 13.223359999999957  L 69.84736287999999 12.52448000000004  L 72.26656 12.52448000000004  L 72.26656 13.223359999999957  L 73.12672384 13.223359999999957  Z M 72.26656 11.704639999999984  L 69.84736287999999 11.704639999999984  L 69.84736287999999 9.943999615999985  L 72.26656 9.943999615999985  L 72.26656 11.704639999999984  Z M 80.14240192 1.5439996160000078  L 74.24223904 1.5439996160000078  L 74.24223904 2.431039424000005  L 76.74208288 2.431039424000005  C 76.68832288 2.955199903999983  76.60768288 3.46591952  76.50015615999999 3.9497600960000336  L 74.57823712 3.9497600960000336  L 74.57823712 10.26655999999997  L 75.43840096 10.26655999999997  L 75.43840096 4.756159808000007  L 78.79840096 4.756159808000007  L 78.79840096 10.253119999999967  L 79.6585648 10.253119999999967  L 79.6585648 3.9497600960000336  L 77.40064 3.9497600960000336  C 77.50815904 3.46591952  77.60223904 2.9686398080000345  77.66943807999999 2.431039424000005  L 80.14240192 2.431039424000005  L 80.14240192 1.5439996160000078  Z M 80.22304191999999 12.685760960000039  C 79.60479712 11.946559999999977  78.85216095999999 11.207359999999994  77.93823712 10.468160000000012  L 77.36032 11.032640000000015  C 78.30112288 11.839040000000011  79.05376 12.591679999999997  79.59135711999998 13.303999999999974  L 80.22304191999999 12.685760960000039  Z M 77.50815904 5.549120000000016  L 76.66144288 5.549120000000016  L 76.66144288 7.995199904000003  C 76.63456287999999 9.16447932799997  76.41951615999999 10.118719999999996  76.02975808 10.857919999999979  C 75.59967999999999 11.55680000000001  74.86048384 12.121280000000013  73.79872096 12.551359999999988  L 74.29599807999999 13.317439999999976  C 75.41152095999999 12.873919999999998  76.21791712 12.255679999999984  76.71520287999999 11.449280000000044  C 77.21248 10.58911999999998  77.48127903999999 9.433279999999968  77.50815904 7.995199904000003  L 77.50815904 5.549120000000016  Z " fill-rule="evenodd" />
    </mask>
  </defs>
  <g transform="matrix(1 0 0 1 -1778 -309 )">
    <path d="M 1.5049600000000007 13.317439999999976  C 3.9644802880000007 12.672320000000013  5.7385602879999995 11.771839999999997  6.827200191999999 10.616000000000042  C 8.628160095999998 11.31487999999996  10.375360960000002 12.228799999999978  12.095680960000001 13.38463999999999  L 12.619839999999995 12.551359999999988  C 11.033920959999996 11.529920000000004  9.27328 10.656319999999994  7.364800096 9.903679807999993  C 7.48576 9.715519712000003  7.606720383999999 9.51391971199996  7.727680384 9.298879711999973  L 12.445119999999996 9.298879711999973  L 12.445119999999996 8.384960000000035  L 8.130880479999995 8.384960000000035  C 8.426560095999996 7.551680000000032  8.587840287999999 6.597440000000006  8.628160095999998 5.5356796160000385  L 8.628160095999998 3.9497600960000336  L 7.687360096 3.9497600960000336  L 7.687360096 5.5356796160000385  C 7.6470402879999995 6.597440000000006  7.458880191999999 7.551680000000032  7.109440287999998 8.384960000000035  L 1.0883199999999995 8.384960000000035  L 1.0883199999999995 9.298879711999973  L 6.639040095999999 9.298879711999973  C 6.504640192 9.51391971199996  6.3702402880000015 9.715519712000003  6.208960095999998 9.903679807999993  C 5.214400288 10.978880000000004  3.4672001919999964 11.852479999999957  0.9673600191999974 12.497599999999977  L 1.5049600000000007 13.317439999999976  Z M 5.563840192000001 7.2694398080000155  C 4.757439999999999 6.704960000000028  3.856960095999998 6.207679904000031  2.87584 5.791039904000002  L 2.3919999999999995 6.516799904000038  C 3.3059201919999985 6.879679712000041  4.206400191999997 7.390399808000041  5.066560095999996 8.035519711999996  L 5.563840192000001 7.2694398080000155  Z M 6.854079999999996 5.401279712000019  C 6.020799999999998 4.796479615999999  5.093439904 4.285759616000007  4.085440192 3.8691195200000266  L 3.5881600959999993 4.594879616000014  C 4.528960095999999 4.971199807999994  5.456320191999996 5.495359807999989  6.356800384 6.167359615999999  L 6.854079999999996 5.401279712000019  Z M 12.216639999999998 4.877119712000024  L 12.216639999999998 2.296640000000025  L 7.351360192000001 2.296640000000025  C 7.176639999999999 1.7724795199999903  7.001920287999998 1.3020797696000272  6.827200191999999 0.898879702399995  L 5.832640383999998 1.060159913599989  C 6.034239999999997 1.4364800959999684  6.222400095999998 1.8396792320000375  6.383680288000001 2.296640000000025  L 1.2764799999999994 2.296640000000025  L 1.2764799999999994 4.877119712000024  L 2.2172800959999996 4.877119712000024  L 2.2172800959999996 3.197119712000017  L 11.275840000000004 3.197119712000017  L 11.275840000000004 4.877119712000024  L 12.216639999999998 4.877119712000024  Z M 21.019839999999995 7.296319712000013  L 20.132799999999996 7.108159615999966  C 19.756479999999996 8.774720192000018  19.165120960000003 10.293440000000032  18.33184096 11.664320000000032  L 19.138240960000005 12.175039999999967  C 19.94464096 10.804159999999968  20.57632 9.177920192000045  21.019839999999995 7.296319712000013  Z M 26.35552096 11.798720000000003  C 25.925440959999996 10.078400000000045  25.401279039999988 8.452159711999968  24.809919999999998 6.933439904000011  L 23.9632 7.2156796159999885  C 24.527679039999995 8.653759808000018  25.038400960000004 10.306880000000035  25.49536096 12.188480000000027  L 26.35552096 11.798720000000003  Z M 20.522560000000002 13.23679999999996  L 21.853119999999997 13.23679999999996  C 22.63263999999999 13.23679999999996  23.03584 12.833600000000047  23.03584 12.027199999999993  L 23.03584 5.952319616000011  L 26.328640959999998 5.952319616000011  L 26.328640959999998 5.011519616000044  L 18.735039039999997 5.011519616000044  L 18.735039039999997 5.952319616000011  L 22.068159039999998 5.952319616000011  L 22.068159039999998 11.78528  C 22.068159039999998 12.188480000000027  21.879999999999995 12.390079999999955  21.530561920000004 12.390079999999955  C 21.1408 12.390079999999955  20.737600959999995 12.363200000000006  20.33439904 12.322879999999998  L 20.522560000000002 13.23679999999996  Z M 25.629759999999997 1.785919519999993  L 19.554879039999996 1.785919519999993  L 19.554879039999996 2.7132799999999975  L 25.629759999999997 2.7132799999999975  L 25.629759999999997 1.785919519999993  Z M 18.65439904 1.5439996160000078  L 15 1.5439996160000078  L 15 13.317439999999976  L 16 13.317439999999976  L 16 2.4579193280000027  L 17.713599999999992 2.4579193280000027  C 17.36416 3.573439903999997  16.880319999999998 4.82335999999998  16.26208096 6.221119808000026  C 17.09536096 7.350079999999991  17.51200096 8.358080096000037  17.51200096 9.271999807999975  C 17.51200096 9.581119424000008  17.43136096 9.79616028800001  17.283520000000003 9.917119711999987  C 17.149120959999998 10.051519999999982  16.853439999999992 10.132159999999999  16.423360000000002 10.159040000000005  C 16.288960959999997 10.159040000000005  16.11423904 10.132159999999999  15.912639999999996 10.105279999999993  L 16.221760959999997 11.046080000000018  C 17.09536096 11.032640000000015  17.713599999999992 10.871359999999981  18.06304 10.548799999999972  C 18.318400960000005 10.279999999999973  18.452799999999996 9.86336  18.452799999999996 9.271999807999975  C 18.39904096 8.317759423999973  17.982400959999993 7.255999904000021  17.216319999999996 6.073280000000011  C 17.767359999999996 4.7695998080000095  18.25120096 3.51968019200001  18.65439904 2.310079999999971  L 18.65439904 1.5439996160000078  Z M 34.5136 12.01375999999999  L 34.5136 11.05952000000002  C 33.59968 11.261120000000005  32.67232096 11.449280000000044  31.71808096 11.61056000000002  L 31.71808096 9.23168000000004  L 34.13728192 9.23168000000004  L 34.13728192 8.290879519999976  L 31.71808096 8.290879519999976  L 31.71808096 6.731839904000026  L 30.750399999999992 6.731839904000026  L 30.750399999999992 8.290879519999976  L 28.129600000000003 8.290879519999976  L 28.129600000000003 9.23168000000004  L 30.750399999999992 9.23168000000004  L 30.750399999999992 11.771839999999997  C 29.72896095999999 11.933119999999974  28.680640000000007 12.067520000000002  27.60544096 12.188480000000027  L 27.820480000000003 13.115839999999992  C 30.212799999999994 12.820159999999987  32.44384192 12.443840000000023  34.5136 12.01375999999999  Z M 34.45984 1.5708795200000054  L 27.780160000000002 1.5708795200000054  L 27.780160000000002 2.484800096000015  L 29.984319039999995 2.484800096000015  C 29.218240960000003 4.030399808000027  28.559679999999993 5.038400000000024  28.008640959999994 5.522239711999987  C 27.914559040000004 5.562560000000019  27.780160000000002 5.589439808000009  27.61888096 5.616319712000006  L 27.847360000000002 6.4899200000000405  C 29.863359999999997 6.288319999999999  31.731520959999997 6.032959712000036  33.42496096 5.7372796160000235  C 33.64 6.100159904000009  33.828159039999996 6.449599808000016  34.002878079999995 6.799039616000016  L 34.80928192 6.234559808000029  C 34.32544096 5.334079615999997  33.64 4.272319616000004  32.73952 3.062719424000022  L 32.00032 3.5465600960000074  C 32.36319808 4.043839712000022  32.6992 4.527679904000024  32.994879039999994 5.011519616000044  C 31.78528096 5.226559616000031  30.521920959999996 5.387839808000024  29.191360959999997 5.522239711999987  C 29.75584 4.836799904000031  30.360640000000004 3.828799712000034  31.00576096 2.484800096000015  L 34.45984 2.484800096000015  L 34.45984 1.5708795200000054  Z M 36.03232096 13.183040000000005  L 38.007999039999994 13.183040000000005  C 38.81439904 13.183040000000005  39.23104096000001 12.766399999999976  40 11.946559999999977  L 40 1.019840086399995  L 39 1.019840086399995  L 39 11.704639999999984  C 38.24992192 12.094400000000007  38.048319039999996 12.29600000000005  37.67200096 12.29600000000005  C 37.08064 12.29600000000005  36.46240192 12.269119999999987  35.81728192 12.242239999999981  L 36.03232096 13.183040000000005  Z M 36.50272192 2.22943942400002  L 35.56191903999999 2.22943942400002  L 35.56191903999999 10.548799999999972  L 36.50272192 10.548799999999972  L 36.50272192 2.22943942400002  Z M 46.09888096 9.957439615999988  L 46.09888096 1.5171197120000102  L 41.44863904 1.5171197120000102  L 41.44863904 9.957439615999988  L 42.33567903999999 9.957439615999988  L 42.33567903999999 2.41759952000001  L 45.23872095999999 2.41759952000001  L 45.23872095999999 9.957439615999988  L 46.09888096 9.957439615999988  Z M 44.17696192 3.39871980800001  L 43.343681919999995 3.39871980800001  L 43.343681919999995 7.766720000000021  C 43.31680192 8.989760096000055  43.14207904 9.984319423999978  42.81952 10.763840000000016  C 42.47007807999999 11.503039999999999  41.83840095999999 12.094400000000007  40.951360959999995 12.537919999999986  L 41.47551904000001 13.344319999999982  C 42.416318079999996 12.873919999999998  43.088319039999995 12.215360000000032  43.504960960000005 11.38208000000003  C 43.93503904 10.481599999999958  44.150081920000005 9.271999807999975  44.17696192 7.766720000000021  L 44.17696192 3.39871980800001  Z M 46.50207904 12.551359999999988  C 46.00480096 11.825600000000009  45.38655999999999 11.08639999999997  44.63391999999999 10.333759999999984  L 44.015679039999995 10.938559999999995  C 44.78175904 11.744959999999992  45.38655999999999 12.511040000000037  45.816638080000004 13.23679999999996  L 46.50207904 12.551359999999988  Z M 48.57184096 7.484479808000002  L 49.754559040000004 7.484479808000002  C 50.39967999999999 9.984319423999978  51.367360000000005 11.892800000000022  52.63072096000001 13.183040000000005  L 53.28928191999999 12.43040000000002  C 52.11999999999999 11.274560000000008  51.21951999999999 9.634880096000018  50.60127904000001 7.484479808000002  L 53.03392 7.484479808000002  L 53.03392 6.543679808000036  L 48.57184096 6.543679808000036  L 48.57184096 0.9929592895999805  L 47.63104096000001 0.9929592895999805  L 47.63104096000001 6.543679808000036  L 46.66336192 6.543679808000036  L 46.66336192 7.484479808000002  L 47.63104096000001 7.484479808000002  L 47.63104096000001 12.000319999999988  C 47.63104096000001 12.188480000000027  47.52352191999999 12.322879999999998  47.32191904 12.416960000000017  L 47.725120960000005 13.277120000000025  C 48.80032 12.941120000000012  49.74111903999999 12.511040000000037  50.57439904 11.986880000000042  L 50.39967999999999 11.126719999999978  C 49.781439039999995 11.516480000000001  49.16319807999999 11.825600000000009  48.57184096 12.054079999999999  L 48.57184096 7.484479808000002  Z M 52.832320960000004 2.2025595200000225  L 52.09312 1.597759424000003  C 51.23295999999999 3.0358395200000245  50.19808096 4.111039424000012  48.98847904 4.809919616000002  L 49.51263999999999 5.562560000000019  C 50.775998079999994 4.836799904000031  51.891520959999994 3.707839328000034  52.832320960000004 2.2025595200000225  Z M 54.98271808 5.898559904000024  C 55.68159904000001 5.575999904000014  56.3536 5.213119616000029  56.998720959999986 4.82335999999998  L 56.998720959999986 5.6028798080000115  L 60.04960192 5.6028798080000115  L 60.04960192 7.538240096000037  L 55.25152095999999 7.538240096000037  L 55.25152095999999 8.43871980800003  L 60.04960192 8.43871980800003  L 60.04960192 12.027199999999993  L 58.50400191999999 12.027199999999993  C 58.154559039999995 10.965440000000001  57.778240960000005 10.051519999999982  57.361599039999994 9.298879711999973  L 56.48799903999999 9.621440096000015  C 56.91808095999999 10.374079999999992  57.28095904 11.167039999999986  57.56319807999999 12.027199999999993  L 54.78111903999999 12.027199999999993  L 54.78111903999999 13  L 66.27232383999998 13  L 66.27232383999998 12.027199999999993  L 63.49024192 12.027199999999993  C 63.89344 11.301440000000014  64.26975807999999 10.454720000000009  64.60575711999999 9.51391971199996  L 63.71872096 9.204800096000042  C 63.36928191999999 10.212800000000016  62.966083839999996 11.15360000000004  62.50911904000001 12.027199999999993  L 61.01728191999999 12.027199999999993  L 61.01728191999999 8.43871980800003  L 65.80191904 8.43871980800003  L 65.80191904 7.538240096000037  L 61.01728191999999 7.538240096000037  L 61.01728191999999 5.6028798080000115  L 64.06815904 5.6028798080000115  L 64.06815904 4.863679808000029  C 64.68639616 5.226559616000031  65.34496096 5.562560000000019  66.05727808 5.858239615999992  L 66.60832288 5.051839904000019  C 64.10847903999999 4.003519904000029  62.21343999999999 2.686400192000008  60.92319808 1.087039798399985  L 60.14368191999999 1.087039798399985  C 58.665280960000004 2.7132799999999975  56.756801919999994 4.043839712000022  54.41824096 5.0921597120000115  L 54.98271808 5.898559904000024  Z M 60.53344000000001 2.000959519999981  C 61.42048 3.0358395200000245  62.522559040000004 3.9497600960000336  63.83968 4.729279904000009  L 57.146559999999994 4.729279904000009  C 58.39648192 3.9632000959999805  59.52544096 3.0492795200000273  60.53344000000001 2.000959519999981  Z M 68.35552288 7.255999904000021  C 68.70496096 6.987199712000006  69.02752 6.6915196160000505  69.33663808 6.382400096000026  C 69.79360384 6.624319904000004  70.23712191999999 6.879679712000041  70.6672 7.1350400000000045  C 69.86080288 7.83391971200001  68.89312 8.317759423999973  67.75071808 8.586560096000028  L 68.11360384 9.312319615999968  C 69.37695808 8.976320192000003  70.47904096 8.398400000000038  71.39296384 7.565119904000027  C 72.25312 8.089279904000023  72.99231712 8.600000000000023  73.61056192 9.110719615999983  L 74.21535904 8.505920384000035  C 73.54336192 8.008639807999998  72.79071808 7.511359712000002  71.94400191999999 7.000639616000001  C 72.38752 6.4899200000000405  72.79071808 5.885119904000021  73.14016384 5.186239808000039  L 73.14016384 4.527679904000024  L 70.62688 4.527679904000024  C 70.74783904 4.2588797120000095  70.85535904 3.9632000959999805  70.96287808 3.65407961599999  L 70.08928191999999 3.5331200960000047  C 69.69951615999999 4.729279904000009  68.94688000000001 5.7372796160000235  67.84479712 6.570559712000033  L 68.35552288 7.255999904000021  Z M 72.18592 5.280319808000002  C 71.91712191999999 5.750719616000026  71.59456287999998 6.180800000000033  71.23167711999999 6.583999616000028  C 70.80159904 6.328639808000048  70.33120095999999 6.073280000000011  69.83392288 5.817919807999999  C 69.96832288 5.643199616000004  70.08928191999999 5.468479903999992  70.21024192 5.280319808000002  L 72.18592 5.280319808000002  Z M 73.78528096 4.487359615999992  L 73.78528096 2.2697600960000273  L 71.52736288 2.2697600960000273  C 71.33919712 1.7590396159999955  71.15103712 1.3155197120000253  70.96287808 0.9123196447999931  L 69.99520288 1.073599856000044  C 70.21024192 1.4364800959999684  70.41184095999999 1.8396792320000375  70.6 2.2697600960000273  L 68.14048384 2.2697600960000273  L 68.14048384 4.500799520000044  L 68.98719999999999 4.500799520000044  L 68.98719999999999 3.1030401919999804  L 72.93855712 3.1030401919999804  L 72.93855712 4.487359615999992  L 73.78528096 4.487359615999992  Z M 73.12672384 13.223359999999957  L 73.12672384 9.13759951999998  L 68.97376 9.13759951999998  L 68.97376 13.223359999999957  L 69.84736287999999 13.223359999999957  L 69.84736287999999 12.52448000000004  L 72.26656 12.52448000000004  L 72.26656 13.223359999999957  L 73.12672384 13.223359999999957  Z M 72.26656 11.704639999999984  L 69.84736287999999 11.704639999999984  L 69.84736287999999 9.943999615999985  L 72.26656 9.943999615999985  L 72.26656 11.704639999999984  Z M 80.14240192 1.5439996160000078  L 74.24223904 1.5439996160000078  L 74.24223904 2.431039424000005  L 76.74208288 2.431039424000005  C 76.68832288 2.955199903999983  76.60768288 3.46591952  76.50015615999999 3.9497600960000336  L 74.57823712 3.9497600960000336  L 74.57823712 10.26655999999997  L 75.43840096 10.26655999999997  L 75.43840096 4.756159808000007  L 78.79840096 4.756159808000007  L 78.79840096 10.253119999999967  L 79.6585648 10.253119999999967  L 79.6585648 3.9497600960000336  L 77.40064 3.9497600960000336  C 77.50815904 3.46591952  77.60223904 2.9686398080000345  77.66943807999999 2.431039424000005  L 80.14240192 2.431039424000005  L 80.14240192 1.5439996160000078  Z M 80.22304191999999 12.685760960000039  C 79.60479712 11.946559999999977  78.85216095999999 11.207359999999994  77.93823712 10.468160000000012  L 77.36032 11.032640000000015  C 78.30112288 11.839040000000011  79.05376 12.591679999999997  79.59135711999998 13.303999999999974  L 80.22304191999999 12.685760960000039  Z M 77.50815904 5.549120000000016  L 76.66144288 5.549120000000016  L 76.66144288 7.995199904000003  C 76.63456287999999 9.16447932799997  76.41951615999999 10.118719999999996  76.02975808 10.857919999999979  C 75.59967999999999 11.55680000000001  74.86048384 12.121280000000013  73.79872096 12.551359999999988  L 74.29599807999999 13.317439999999976  C 75.41152095999999 12.873919999999998  76.21791712 12.255679999999984  76.71520287999999 11.449280000000044  C 77.21248 10.58911999999998  77.48127903999999 9.433279999999968  77.50815904 7.995199904000003  L 77.50815904 5.549120000000016  Z " fill-rule="nonzero" fill="rgba(51, 51, 51, 1)" stroke="none" transform="matrix(1 0 0 1 1778 309 )" class="fill" />
    <path d="M 1.5049600000000007 13.317439999999976  C 3.9644802880000007 12.672320000000013  5.7385602879999995 11.771839999999997  6.827200191999999 10.616000000000042  C 8.628160095999998 11.31487999999996  10.375360960000002 12.228799999999978  12.095680960000001 13.38463999999999  L 12.619839999999995 12.551359999999988  C 11.033920959999996 11.529920000000004  9.27328 10.656319999999994  7.364800096 9.903679807999993  C 7.48576 9.715519712000003  7.606720383999999 9.51391971199996  7.727680384 9.298879711999973  L 12.445119999999996 9.298879711999973  L 12.445119999999996 8.384960000000035  L 8.130880479999995 8.384960000000035  C 8.426560095999996 7.551680000000032  8.587840287999999 6.597440000000006  8.628160095999998 5.5356796160000385  L 8.628160095999998 3.9497600960000336  L 7.687360096 3.9497600960000336  L 7.687360096 5.5356796160000385  C 7.6470402879999995 6.597440000000006  7.458880191999999 7.551680000000032  7.109440287999998 8.384960000000035  L 1.0883199999999995 8.384960000000035  L 1.0883199999999995 9.298879711999973  L 6.639040095999999 9.298879711999973  C 6.504640192 9.51391971199996  6.3702402880000015 9.715519712000003  6.208960095999998 9.903679807999993  C 5.214400288 10.978880000000004  3.4672001919999964 11.852479999999957  0.9673600191999974 12.497599999999977  L 1.5049600000000007 13.317439999999976  Z " stroke-width="0" stroke-dasharray="0" stroke="rgba(255, 255, 255, 0)" fill="none" transform="matrix(1 0 0 1 1778 309 )" class="stroke" mask="url(#Clip3528)" />
    <path d="M 5.563840192000001 7.2694398080000155  C 4.757439999999999 6.704960000000028  3.856960095999998 6.207679904000031  2.87584 5.791039904000002  L 2.3919999999999995 6.516799904000038  C 3.3059201919999985 6.879679712000041  4.206400191999997 7.390399808000041  5.066560095999996 8.035519711999996  L 5.563840192000001 7.2694398080000155  Z " stroke-width="0" stroke-dasharray="0" stroke="rgba(255, 255, 255, 0)" fill="none" transform="matrix(1 0 0 1 1778 309 )" class="stroke" mask="url(#Clip3528)" />
    <path d="M 6.854079999999996 5.401279712000019  C 6.020799999999998 4.796479615999999  5.093439904 4.285759616000007  4.085440192 3.8691195200000266  L 3.5881600959999993 4.594879616000014  C 4.528960095999999 4.971199807999994  5.456320191999996 5.495359807999989  6.356800384 6.167359615999999  L 6.854079999999996 5.401279712000019  Z " stroke-width="0" stroke-dasharray="0" stroke="rgba(255, 255, 255, 0)" fill="none" transform="matrix(1 0 0 1 1778 309 )" class="stroke" mask="url(#Clip3528)" />
    <path d="M 12.216639999999998 4.877119712000024  L 12.216639999999998 2.296640000000025  L 7.351360192000001 2.296640000000025  C 7.176639999999999 1.7724795199999903  7.001920287999998 1.3020797696000272  6.827200191999999 0.898879702399995  L 5.832640383999998 1.060159913599989  C 6.034239999999997 1.4364800959999684  6.222400095999998 1.8396792320000375  6.383680288000001 2.296640000000025  L 1.2764799999999994 2.296640000000025  L 1.2764799999999994 4.877119712000024  L 2.2172800959999996 4.877119712000024  L 2.2172800959999996 3.197119712000017  L 11.275840000000004 3.197119712000017  L 11.275840000000004 4.877119712000024  L 12.216639999999998 4.877119712000024  Z " stroke-width="0" stroke-dasharray="0" stroke="rgba(255, 255, 255, 0)" fill="none" transform="matrix(1 0 0 1 1778 309 )" class="stroke" mask="url(#Clip3528)" />
    <path d="M 21.019839999999995 7.296319712000013  L 20.132799999999996 7.108159615999966  C 19.756479999999996 8.774720192000018  19.165120960000003 10.293440000000032  18.33184096 11.664320000000032  L 19.138240960000005 12.175039999999967  C 19.94464096 10.804159999999968  20.57632 9.177920192000045  21.019839999999995 7.296319712000013  Z " stroke-width="0" stroke-dasharray="0" stroke="rgba(255, 255, 255, 0)" fill="none" transform="matrix(1 0 0 1 1778 309 )" class="stroke" mask="url(#Clip3528)" />
    <path d="M 26.35552096 11.798720000000003  C 25.925440959999996 10.078400000000045  25.401279039999988 8.452159711999968  24.809919999999998 6.933439904000011  L 23.9632 7.2156796159999885  C 24.527679039999995 8.653759808000018  25.038400960000004 10.306880000000035  25.49536096 12.188480000000027  L 26.35552096 11.798720000000003  Z " stroke-width="0" stroke-dasharray="0" stroke="rgba(255, 255, 255, 0)" fill="none" transform="matrix(1 0 0 1 1778 309 )" class="stroke" mask="url(#Clip3528)" />
    <path d="M 20.522560000000002 13.23679999999996  L 21.853119999999997 13.23679999999996  C 22.63263999999999 13.23679999999996  23.03584 12.833600000000047  23.03584 12.027199999999993  L 23.03584 5.952319616000011  L 26.328640959999998 5.952319616000011  L 26.328640959999998 5.011519616000044  L 18.735039039999997 5.011519616000044  L 18.735039039999997 5.952319616000011  L 22.068159039999998 5.952319616000011  L 22.068159039999998 11.78528  C 22.068159039999998 12.188480000000027  21.879999999999995 12.390079999999955  21.530561920000004 12.390079999999955  C 21.1408 12.390079999999955  20.737600959999995 12.363200000000006  20.33439904 12.322879999999998  L 20.522560000000002 13.23679999999996  Z " stroke-width="0" stroke-dasharray="0" stroke="rgba(255, 255, 255, 0)" fill="none" transform="matrix(1 0 0 1 1778 309 )" class="stroke" mask="url(#Clip3528)" />
    <path d="M 25.629759999999997 1.785919519999993  L 19.554879039999996 1.785919519999993  L 19.554879039999996 2.7132799999999975  L 25.629759999999997 2.7132799999999975  L 25.629759999999997 1.785919519999993  Z " stroke-width="0" stroke-dasharray="0" stroke="rgba(255, 255, 255, 0)" fill="none" transform="matrix(1 0 0 1 1778 309 )" class="stroke" mask="url(#Clip3528)" />
    <path d="M 18.65439904 1.5439996160000078  L 15 1.5439996160000078  L 15 13.317439999999976  L 16 13.317439999999976  L 16 2.4579193280000027  L 17.713599999999992 2.4579193280000027  C 17.36416 3.573439903999997  16.880319999999998 4.82335999999998  16.26208096 6.221119808000026  C 17.09536096 7.350079999999991  17.51200096 8.358080096000037  17.51200096 9.271999807999975  C 17.51200096 9.581119424000008  17.43136096 9.79616028800001  17.283520000000003 9.917119711999987  C 17.149120959999998 10.051519999999982  16.853439999999992 10.132159999999999  16.423360000000002 10.159040000000005  C 16.288960959999997 10.159040000000005  16.11423904 10.132159999999999  15.912639999999996 10.105279999999993  L 16.221760959999997 11.046080000000018  C 17.09536096 11.032640000000015  17.713599999999992 10.871359999999981  18.06304 10.548799999999972  C 18.318400960000005 10.279999999999973  18.452799999999996 9.86336  18.452799999999996 9.271999807999975  C 18.39904096 8.317759423999973  17.982400959999993 7.255999904000021  17.216319999999996 6.073280000000011  C 17.767359999999996 4.7695998080000095  18.25120096 3.51968019200001  18.65439904 2.310079999999971  L 18.65439904 1.5439996160000078  Z " stroke-width="0" stroke-dasharray="0" stroke="rgba(255, 255, 255, 0)" fill="none" transform="matrix(1 0 0 1 1778 309 )" class="stroke" mask="url(#Clip3528)" />
    <path d="M 34.5136 12.01375999999999  L 34.5136 11.05952000000002  C 33.59968 11.261120000000005  32.67232096 11.449280000000044  31.71808096 11.61056000000002  L 31.71808096 9.23168000000004  L 34.13728192 9.23168000000004  L 34.13728192 8.290879519999976  L 31.71808096 8.290879519999976  L 31.71808096 6.731839904000026  L 30.750399999999992 6.731839904000026  L 30.750399999999992 8.290879519999976  L 28.129600000000003 8.290879519999976  L 28.129600000000003 9.23168000000004  L 30.750399999999992 9.23168000000004  L 30.750399999999992 11.771839999999997  C 29.72896095999999 11.933119999999974  28.680640000000007 12.067520000000002  27.60544096 12.188480000000027  L 27.820480000000003 13.115839999999992  C 30.212799999999994 12.820159999999987  32.44384192 12.443840000000023  34.5136 12.01375999999999  Z " stroke-width="0" stroke-dasharray="0" stroke="rgba(255, 255, 255, 0)" fill="none" transform="matrix(1 0 0 1 1778 309 )" class="stroke" mask="url(#Clip3528)" />
    <path d="M 34.45984 1.5708795200000054  L 27.780160000000002 1.5708795200000054  L 27.780160000000002 2.484800096000015  L 29.984319039999995 2.484800096000015  C 29.218240960000003 4.030399808000027  28.559679999999993 5.038400000000024  28.008640959999994 5.522239711999987  C 27.914559040000004 5.562560000000019  27.780160000000002 5.589439808000009  27.61888096 5.616319712000006  L 27.847360000000002 6.4899200000000405  C 29.863359999999997 6.288319999999999  31.731520959999997 6.032959712000036  33.42496096 5.7372796160000235  C 33.64 6.100159904000009  33.828159039999996 6.449599808000016  34.002878079999995 6.799039616000016  L 34.80928192 6.234559808000029  C 34.32544096 5.334079615999997  33.64 4.272319616000004  32.73952 3.062719424000022  L 32.00032 3.5465600960000074  C 32.36319808 4.043839712000022  32.6992 4.527679904000024  32.994879039999994 5.011519616000044  C 31.78528096 5.226559616000031  30.521920959999996 5.387839808000024  29.191360959999997 5.522239711999987  C 29.75584 4.836799904000031  30.360640000000004 3.828799712000034  31.00576096 2.484800096000015  L 34.45984 2.484800096000015  L 34.45984 1.5708795200000054  Z " stroke-width="0" stroke-dasharray="0" stroke="rgba(255, 255, 255, 0)" fill="none" transform="matrix(1 0 0 1 1778 309 )" class="stroke" mask="url(#Clip3528)" />
    <path d="M 36.03232096 13.183040000000005  L 38.007999039999994 13.183040000000005  C 38.81439904 13.183040000000005  39.23104096000001 12.766399999999976  40 11.946559999999977  L 40 1.019840086399995  L 39 1.019840086399995  L 39 11.704639999999984  C 38.24992192 12.094400000000007  38.048319039999996 12.29600000000005  37.67200096 12.29600000000005  C 37.08064 12.29600000000005  36.46240192 12.269119999999987  35.81728192 12.242239999999981  L 36.03232096 13.183040000000005  Z " stroke-width="0" stroke-dasharray="0" stroke="rgba(255, 255, 255, 0)" fill="none" transform="matrix(1 0 0 1 1778 309 )" class="stroke" mask="url(#Clip3528)" />
    <path d="M 36.50272192 2.22943942400002  L 35.56191903999999 2.22943942400002  L 35.56191903999999 10.548799999999972  L 36.50272192 10.548799999999972  L 36.50272192 2.22943942400002  Z " stroke-width="0" stroke-dasharray="0" stroke="rgba(255, 255, 255, 0)" fill="none" transform="matrix(1 0 0 1 1778 309 )" class="stroke" mask="url(#Clip3528)" />
    <path d="M 46.09888096 9.957439615999988  L 46.09888096 1.5171197120000102  L 41.44863904 1.5171197120000102  L 41.44863904 9.957439615999988  L 42.33567903999999 9.957439615999988  L 42.33567903999999 2.41759952000001  L 45.23872095999999 2.41759952000001  L 45.23872095999999 9.957439615999988  L 46.09888096 9.957439615999988  Z " stroke-width="0" stroke-dasharray="0" stroke="rgba(255, 255, 255, 0)" fill="none" transform="matrix(1 0 0 1 1778 309 )" class="stroke" mask="url(#Clip3528)" />
    <path d="M 44.17696192 3.39871980800001  L 43.343681919999995 3.39871980800001  L 43.343681919999995 7.766720000000021  C 43.31680192 8.989760096000055  43.14207904 9.984319423999978  42.81952 10.763840000000016  C 42.47007807999999 11.503039999999999  41.83840095999999 12.094400000000007  40.951360959999995 12.537919999999986  L 41.47551904000001 13.344319999999982  C 42.416318079999996 12.873919999999998  43.088319039999995 12.215360000000032  43.504960960000005 11.38208000000003  C 43.93503904 10.481599999999958  44.150081920000005 9.271999807999975  44.17696192 7.766720000000021  L 44.17696192 3.39871980800001  Z " stroke-width="0" stroke-dasharray="0" stroke="rgba(255, 255, 255, 0)" fill="none" transform="matrix(1 0 0 1 1778 309 )" class="stroke" mask="url(#Clip3528)" />
    <path d="M 46.50207904 12.551359999999988  C 46.00480096 11.825600000000009  45.38655999999999 11.08639999999997  44.63391999999999 10.333759999999984  L 44.015679039999995 10.938559999999995  C 44.78175904 11.744959999999992  45.38655999999999 12.511040000000037  45.816638080000004 13.23679999999996  L 46.50207904 12.551359999999988  Z " stroke-width="0" stroke-dasharray="0" stroke="rgba(255, 255, 255, 0)" fill="none" transform="matrix(1 0 0 1 1778 309 )" class="stroke" mask="url(#Clip3528)" />
    <path d="M 48.57184096 7.484479808000002  L 49.754559040000004 7.484479808000002  C 50.39967999999999 9.984319423999978  51.367360000000005 11.892800000000022  52.63072096000001 13.183040000000005  L 53.28928191999999 12.43040000000002  C 52.11999999999999 11.274560000000008  51.21951999999999 9.634880096000018  50.60127904000001 7.484479808000002  L 53.03392 7.484479808000002  L 53.03392 6.543679808000036  L 48.57184096 6.543679808000036  L 48.57184096 0.9929592895999805  L 47.63104096000001 0.9929592895999805  L 47.63104096000001 6.543679808000036  L 46.66336192 6.543679808000036  L 46.66336192 7.484479808000002  L 47.63104096000001 7.484479808000002  L 47.63104096000001 12.000319999999988  C 47.63104096000001 12.188480000000027  47.52352191999999 12.322879999999998  47.32191904 12.416960000000017  L 47.725120960000005 13.277120000000025  C 48.80032 12.941120000000012  49.74111903999999 12.511040000000037  50.57439904 11.986880000000042  L 50.39967999999999 11.126719999999978  C 49.781439039999995 11.516480000000001  49.16319807999999 11.825600000000009  48.57184096 12.054079999999999  L 48.57184096 7.484479808000002  Z " stroke-width="0" stroke-dasharray="0" stroke="rgba(255, 255, 255, 0)" fill="none" transform="matrix(1 0 0 1 1778 309 )" class="stroke" mask="url(#Clip3528)" />
    <path d="M 52.832320960000004 2.2025595200000225  L 52.09312 1.597759424000003  C 51.23295999999999 3.0358395200000245  50.19808096 4.111039424000012  48.98847904 4.809919616000002  L 49.51263999999999 5.562560000000019  C 50.775998079999994 4.836799904000031  51.891520959999994 3.707839328000034  52.832320960000004 2.2025595200000225  Z " stroke-width="0" stroke-dasharray="0" stroke="rgba(255, 255, 255, 0)" fill="none" transform="matrix(1 0 0 1 1778 309 )" class="stroke" mask="url(#Clip3528)" />
    <path d="M 54.98271808 5.898559904000024  C 55.68159904000001 5.575999904000014  56.3536 5.213119616000029  56.998720959999986 4.82335999999998  L 56.998720959999986 5.6028798080000115  L 60.04960192 5.6028798080000115  L 60.04960192 7.538240096000037  L 55.25152095999999 7.538240096000037  L 55.25152095999999 8.43871980800003  L 60.04960192 8.43871980800003  L 60.04960192 12.027199999999993  L 58.50400191999999 12.027199999999993  C 58.154559039999995 10.965440000000001  57.778240960000005 10.051519999999982  57.361599039999994 9.298879711999973  L 56.48799903999999 9.621440096000015  C 56.91808095999999 10.374079999999992  57.28095904 11.167039999999986  57.56319807999999 12.027199999999993  L 54.78111903999999 12.027199999999993  L 54.78111903999999 13  L 66.27232383999998 13  L 66.27232383999998 12.027199999999993  L 63.49024192 12.027199999999993  C 63.89344 11.301440000000014  64.26975807999999 10.454720000000009  64.60575711999999 9.51391971199996  L 63.71872096 9.204800096000042  C 63.36928191999999 10.212800000000016  62.966083839999996 11.15360000000004  62.50911904000001 12.027199999999993  L 61.01728191999999 12.027199999999993  L 61.01728191999999 8.43871980800003  L 65.80191904 8.43871980800003  L 65.80191904 7.538240096000037  L 61.01728191999999 7.538240096000037  L 61.01728191999999 5.6028798080000115  L 64.06815904 5.6028798080000115  L 64.06815904 4.863679808000029  C 64.68639616 5.226559616000031  65.34496096 5.562560000000019  66.05727808 5.858239615999992  L 66.60832288 5.051839904000019  C 64.10847903999999 4.003519904000029  62.21343999999999 2.686400192000008  60.92319808 1.087039798399985  L 60.14368191999999 1.087039798399985  C 58.665280960000004 2.7132799999999975  56.756801919999994 4.043839712000022  54.41824096 5.0921597120000115  L 54.98271808 5.898559904000024  Z " stroke-width="0" stroke-dasharray="0" stroke="rgba(255, 255, 255, 0)" fill="none" transform="matrix(1 0 0 1 1778 309 )" class="stroke" mask="url(#Clip3528)" />
    <path d="M 60.53344000000001 2.000959519999981  C 61.42048 3.0358395200000245  62.522559040000004 3.9497600960000336  63.83968 4.729279904000009  L 57.146559999999994 4.729279904000009  C 58.39648192 3.9632000959999805  59.52544096 3.0492795200000273  60.53344000000001 2.000959519999981  Z " stroke-width="0" stroke-dasharray="0" stroke="rgba(255, 255, 255, 0)" fill="none" transform="matrix(1 0 0 1 1778 309 )" class="stroke" mask="url(#Clip3528)" />
    <path d="M 68.35552288 7.255999904000021  C 68.70496096 6.987199712000006  69.02752 6.6915196160000505  69.33663808 6.382400096000026  C 69.79360384 6.624319904000004  70.23712191999999 6.879679712000041  70.6672 7.1350400000000045  C 69.86080288 7.83391971200001  68.89312 8.317759423999973  67.75071808 8.586560096000028  L 68.11360384 9.312319615999968  C 69.37695808 8.976320192000003  70.47904096 8.398400000000038  71.39296384 7.565119904000027  C 72.25312 8.089279904000023  72.99231712 8.600000000000023  73.61056192 9.110719615999983  L 74.21535904 8.505920384000035  C 73.54336192 8.008639807999998  72.79071808 7.511359712000002  71.94400191999999 7.000639616000001  C 72.38752 6.4899200000000405  72.79071808 5.885119904000021  73.14016384 5.186239808000039  L 73.14016384 4.527679904000024  L 70.62688 4.527679904000024  C 70.74783904 4.2588797120000095  70.85535904 3.9632000959999805  70.96287808 3.65407961599999  L 70.08928191999999 3.5331200960000047  C 69.69951615999999 4.729279904000009  68.94688000000001 5.7372796160000235  67.84479712 6.570559712000033  L 68.35552288 7.255999904000021  Z " stroke-width="0" stroke-dasharray="0" stroke="rgba(255, 255, 255, 0)" fill="none" transform="matrix(1 0 0 1 1778 309 )" class="stroke" mask="url(#Clip3528)" />
    <path d="M 72.18592 5.280319808000002  C 71.91712191999999 5.750719616000026  71.59456287999998 6.180800000000033  71.23167711999999 6.583999616000028  C 70.80159904 6.328639808000048  70.33120095999999 6.073280000000011  69.83392288 5.817919807999999  C 69.96832288 5.643199616000004  70.08928191999999 5.468479903999992  70.21024192 5.280319808000002  L 72.18592 5.280319808000002  Z " stroke-width="0" stroke-dasharray="0" stroke="rgba(255, 255, 255, 0)" fill="none" transform="matrix(1 0 0 1 1778 309 )" class="stroke" mask="url(#Clip3528)" />
    <path d="M 73.78528096 4.487359615999992  L 73.78528096 2.2697600960000273  L 71.52736288 2.2697600960000273  C 71.33919712 1.7590396159999955  71.15103712 1.3155197120000253  70.96287808 0.9123196447999931  L 69.99520288 1.073599856000044  C 70.21024192 1.4364800959999684  70.41184095999999 1.8396792320000375  70.6 2.2697600960000273  L 68.14048384 2.2697600960000273  L 68.14048384 4.500799520000044  L 68.98719999999999 4.500799520000044  L 68.98719999999999 3.1030401919999804  L 72.93855712 3.1030401919999804  L 72.93855712 4.487359615999992  L 73.78528096 4.487359615999992  Z " stroke-width="0" stroke-dasharray="0" stroke="rgba(255, 255, 255, 0)" fill="none" transform="matrix(1 0 0 1 1778 309 )" class="stroke" mask="url(#Clip3528)" />
    <path d="M 73.12672384 13.223359999999957  L 73.12672384 9.13759951999998  L 68.97376 9.13759951999998  L 68.97376 13.223359999999957  L 69.84736287999999 13.223359999999957  L 69.84736287999999 12.52448000000004  L 72.26656 12.52448000000004  L 72.26656 13.223359999999957  L 73.12672384 13.223359999999957  Z " stroke-width="0" stroke-dasharray="0" stroke="rgba(255, 255, 255, 0)" fill="none" transform="matrix(1 0 0 1 1778 309 )" class="stroke" mask="url(#Clip3528)" />
    <path d="M 72.26656 11.704639999999984  L 69.84736287999999 11.704639999999984  L 69.84736287999999 9.943999615999985  L 72.26656 9.943999615999985  L 72.26656 11.704639999999984  Z " stroke-width="0" stroke-dasharray="0" stroke="rgba(255, 255, 255, 0)" fill="none" transform="matrix(1 0 0 1 1778 309 )" class="stroke" mask="url(#Clip3528)" />
    <path d="M 80.14240192 1.5439996160000078  L 74.24223904 1.5439996160000078  L 74.24223904 2.431039424000005  L 76.74208288 2.431039424000005  C 76.68832288 2.955199903999983  76.60768288 3.46591952  76.50015615999999 3.9497600960000336  L 74.57823712 3.9497600960000336  L 74.57823712 10.26655999999997  L 75.43840096 10.26655999999997  L 75.43840096 4.756159808000007  L 78.79840096 4.756159808000007  L 78.79840096 10.253119999999967  L 79.6585648 10.253119999999967  L 79.6585648 3.9497600960000336  L 77.40064 3.9497600960000336  C 77.50815904 3.46591952  77.60223904 2.9686398080000345  77.66943807999999 2.431039424000005  L 80.14240192 2.431039424000005  L 80.14240192 1.5439996160000078  Z " stroke-width="0" stroke-dasharray="0" stroke="rgba(255, 255, 255, 0)" fill="none" transform="matrix(1 0 0 1 1778 309 )" class="stroke" mask="url(#Clip3528)" />
    <path d="M 80.22304191999999 12.685760960000039  C 79.60479712 11.946559999999977  78.85216095999999 11.207359999999994  77.93823712 10.468160000000012  L 77.36032 11.032640000000015  C 78.30112288 11.839040000000011  79.05376 12.591679999999997  79.59135711999998 13.303999999999974  L 80.22304191999999 12.685760960000039  Z " stroke-width="0" stroke-dasharray="0" stroke="rgba(255, 255, 255, 0)" fill="none" transform="matrix(1 0 0 1 1778 309 )" class="stroke" mask="url(#Clip3528)" />
    <path d="M 77.50815904 5.549120000000016  L 76.66144288 5.549120000000016  L 76.66144288 7.995199904000003  C 76.63456287999999 9.16447932799997  76.41951615999999 10.118719999999996  76.02975808 10.857919999999979  C 75.59967999999999 11.55680000000001  74.86048384 12.121280000000013  73.79872096 12.551359999999988  L 74.29599807999999 13.317439999999976  C 75.41152095999999 12.873919999999998  76.21791712 12.255679999999984  76.71520287999999 11.449280000000044  C 77.21248 10.58911999999998  77.48127903999999 9.433279999999968  77.50815904 7.995199904000003  L 77.50815904 5.549120000000016  Z " stroke-width="0" stroke-dasharray="0" stroke="rgba(255, 255, 255, 0)" fill="none" transform="matrix(1 0 0 1 1778 309 )" class="stroke" mask="url(#Clip3528)" />
  </g>
</svg>