<?xml version="1.0" encoding="utf-8"?>
<svg version="1.1" xmlns:xlink="http://www.w3.org/1999/xlink" width="54px" height="13px" xmlns="http://www.w3.org/2000/svg">
  <defs>
    <pattern id="BGPattern" patternUnits="userSpaceOnUse" alignment="0 0" imageRepeat="None" />
    <mask fill="white" id="Clip2337">
      <path d="M 1.0462499199999975 12.464999360000022  L 2.253749919999997 12.464999360000022  C 3.0237498879999976 12.464999360000022  3.413124735999997 12.075625280000025  3.413124735999997 11.323124480000033  L 3.413124735999997 7.359375680000042  C 3.802499967999999 7.171250240000035  4.191874815999999 6.983125760000021  4.568125023999997 6.781875200000031  L 4.568125023999997 5.797499840000043  C 4.191874815999999 6.011875520000032  3.802499967999999 6.200000000000031  3.413124735999997 6.388125440000039  L 3.413124735999997 3.767500640000037  L 4.769374815999999 3.767500640000037  L 4.769374815999999 2.840000000000032  L 3.413124735999997 2.840000000000032  L 3.413124735999997 0.3025006400000336  L 2.415625023999997 0.3025006400000336  L 2.415625023999997 2.840000000000032  L 0.7924999648000011 2.840000000000032  L 0.7924999648000011 3.767500640000037  L 2.415625023999997 3.767500640000037  L 2.415625023999997 6.808125440000041  C 1.8249999039999985 7.035625280000033  1.2343749760000016 7.2237497600000316  0.6306250047999988 7.372499840000032  L 0.8581249600000013 8.339375360000034  C 1.38312496 8.177500160000022  1.908124960000002 7.9893756800000375  2.415625023999997 7.788125120000032  L 2.415625023999997 11.069375360000038  C 2.415625023999997 11.40187424000004  2.240624896 11.57687552000003  1.9212499839999995 11.57687552000003  C 1.5712499199999996 11.57687552000003  1.2212500479999981 11.550625280000034  0.8449999647999995 11.524376000000032  L 1.0462499199999975 12.464999360000022  Z M 11.677500160000001 0.7312502720000396  L 5.819374816 0.7312502720000396  L 5.819374816 5.395000640000035  L 11.677500160000001 5.395000640000035  L 11.677500160000001 0.7312502720000396  Z M 10.736874880000002 3.4481253440000335  L 10.736874880000002 4.603125344000034  L 6.759999999999998 4.603125344000034  L 6.759999999999998 3.4481253440000335  L 10.736874880000002 3.4481253440000335  Z M 10.736874880000002 2.6956250240000372  L 6.759999999999998 2.6956250240000372  L 6.759999999999998 1.5231255680000402  L 10.736874880000002 1.5231255680000402  L 10.736874880000002 2.6956250240000372  Z M 12.565624 6.3356249600000325  L 4.878749727999999 6.3356249600000325  L 4.878749727999999 7.1974995200000365  L 8.278124704 7.1974995200000365  L 8.278124704 11.121874880000036  C 8.155624383999996 11.082500480000036  8.050624383999995 11.038749440000032  7.9543749759999995 10.999375040000032  C 7.38999952 10.745624960000043  6.8912495679999966 10.16812544000004  6.462499839999996 9.266875520000028  C 6.5718746559999985 8.807500160000032  6.637499679999998 8.352500480000032  6.663749727999999 7.86687488000004  L 5.806249888 7.775000000000034  C 5.696874976 9.306250880000036  5.1325 10.70625056000003  4.108749952 11.93999936000003  L 4.821874815999998 12.561250880000046  C 5.399374815999998 11.861249600000022  5.845624863999998 11.09562464000004  6.1649996799999975 10.260000320000032  C 6.5718746559999985 11.01250016000003  7.039999839999997 11.524376000000032  7.551874815999998 11.79125024000004  C 8.194999359999997 12.115000640000034  9.406874656 12.290000000000035  11.178749439999997 12.303125120000033  C 11.611874559999997 12.303125120000033  12.106249599999998 12.31625024000003  12.644374719999995 12.31625024000003  L 12.915624639999997 11.375624000000045  C 12.416874880000002 11.414999360000024  11.813125119999995 11.44562528000003  11.113124799999994 11.44562528000003  C 10.37374912 11.44562528000003  9.743749119999997 11.40187424000004  9.205624383999996 11.323124480000033  L 9.205624383999996 9.590624960000042  L 12.01437472 9.590624960000042  L 12.01437472 8.715625280000026  L 9.205624383999996 8.715625280000026  L 9.205624383999996 7.1974995200000365  L 12.565624 7.1974995200000365  L 12.565624 6.3356249600000325  Z M 25.279375359999996 8.230000640000043  L 25.279375359999996 0.7968752960000387  L 19.311874239999995 0.7968752960000387  L 19.311874239999995 8.230000640000043  L 20.26562464 8.230000640000043  L 20.26562464 1.7243749760000213  L 24.299374719999996 1.7243749760000213  L 24.299374719999996 8.230000640000043  L 25.279375359999996 8.230000640000043  Z M 23.58625024 12.373124480000044  L 24.981874239999996 12.373124480000044  C 25.414999359999996 12.373124480000044  25.734374079999995 12.263749760000039  25.95312448 12.062500160000027  C 26.18062336 11.821874240000042  26.342500479999998 11.135000000000034  26.42125024 10.032500480000039  L 25.51999936 9.748125440000038  C 25.467499840000002 10.583749760000032  25.38874912 11.09562464000004  25.279375359999996 11.27062400000004  C 25.183123839999993 11.40187424000004  25.025623359999997 11.485000640000038  24.806874879999995 11.485000640000038  L 23.866249599999996 11.485000640000038  C 23.58625024 11.485000640000038  23.450623359999994 11.33624960000003  23.450623359999994 11.05187456000003  L 23.450623359999994 8.177500160000022  L 22.483749760000002 8.177500160000022  L 22.483749760000002 11.257499840000037  C 22.483749760000002 11.996875520000032  22.846873599999995 12.373124480000044  23.58625024 12.373124480000044  Z M 22.698124479999997 2.6781255680000413  L 21.770623359999995 2.6781255680000413  L 21.770623359999995 5.95937600000002  C 21.744374079999993 7.464375680000032  21.446874879999996 8.689376000000024  20.90874976 9.630000320000036  C 20.331250239999996 10.518125120000036  19.311874239999995 11.240000000000038  17.859374079999995 11.80874912000003  L 18.384374079999994 12.626875520000027  C 19.88937472 12.062500160000027  20.965624 11.27062400000004  21.60874912 10.27312544000003  C 22.282499199999997 9.201250880000046  22.645623999999998 7.761874880000036  22.698124479999997 5.95937600000002  L 22.698124479999997 2.6781255680000413  Z M 15.86874976 5.23312534400003  L 14.324375680000005 5.23312534400003  L 14.324375680000005 6.173749760000035  L 15.86874976 6.173749760000035  L 15.86874976 9.520624640000037  C 15.278125119999999 9.682499840000034  14.687499520000003 9.818124800000035  14.083749759999998 9.923124800000025  L 14.311250560000005 10.850624960000033  C 15.829375359999998 10.487500160000025  17.255625279999997 10.045624640000028  18.58562464 9.507499520000039  L 18.58562464 8.580000320000039  C 18.02125024 8.807500160000032  17.45687488 9.026250560000037  16.86625024 9.227500160000034  L 16.86625024 6.173749760000035  L 18.371248959999996 6.173749760000035  L 18.371248959999996 5.23312534400003  L 16.86625024 5.23312534400003  L 16.86625024 2.08750064000003  L 18.559375359999997 2.08750064000003  L 18.559375359999997 1.1600000000000392  L 14.14937536 1.1600000000000392  L 14.14937536 2.08750064000003  L 15.86874976 2.08750064000003  L 15.86874976 5.23312534400003  Z M 28.10125024 5.180625344000035  C 28.8012496 4.856875616000039  29.470624 4.49374995200003  30.118125759999998 4.104375296000029  L 30.118125759999998 4.88312556800004  L 33.16749952 4.88312556800004  L 33.16749952 6.821250560000039  L 28.36812448 6.821250560000039  L 28.36812448 7.722500480000036  L 33.16749952 7.722500480000036  L 33.16749952 11.30999936000002  L 31.623126399999997 11.30999936000002  C 31.273123839999997 10.246875200000034  30.89687488 9.332500160000023  30.481249599999998 8.580000320000039  L 29.606250879999994 8.90374976000004  C 30.034999359999997 9.656250560000032  30.398125119999992 10.44812480000003  30.682500159999996 11.30999936000002  L 27.900000640000002 11.30999936000002  L 27.900000640000002 12  L 39.393122559999995 12  L 39.393122559999995 11.30999936000002  L 36.61062208 11.30999936000002  C 37.01312512 10.583749760000032  37.389374079999996 9.73500032000004  37.72624767999999 8.794376000000028  L 36.838123839999994 8.488125440000033  C 36.48812512 9.494375360000035  36.08562207999999 10.434999680000033  35.62624767999999 11.30999936000002  L 34.13437407999999 11.30999936000002  L 34.13437407999999 7.722500480000036  L 38.920622079999994 7.722500480000036  L 38.920622079999994 6.821250560000039  L 34.13437407999999 6.821250560000039  L 34.13437407999999 4.88312556800004  L 37.18812256 4.88312556800004  L 37.18812256 4.143750272000034  C 37.804997439999994 4.506874976000034  38.465623359999995 4.843750592000035  39.17437407999999 5.141250272000036  L 39.72562336 4.331875616000033  C 37.22749792 3.286250048000028  35.33312512 1.9693756160000362  34.042499199999995 0.36812556800003904  L 33.26375104 0.36812556800003904  C 31.784998719999994 1.9956255680000368  29.873125119999994 3.3256250240000327  27.53687488 4.375625024000044  L 28.10125024 5.180625344000035  Z M 33.65312512 1.2825003200000396  C 34.53687616 2.3193752960000324  35.639372800000004 3.2293756160000413  36.956248959999996 4.0125003200000435  L 30.262500159999995 4.0125003200000435  C 31.513749759999996 3.2468749760000293  32.642500479999995 2.3325003200000367  33.65312512 1.2825003200000396  Z M 41.47124896 6.536875520000024  C 41.821251520000004 6.270000320000037  42.144999999999996 5.972500160000024  42.455623360000004 5.666250560000037  C 42.91062592 5.906875520000028  43.35687616 6.160624640000037  43.785624639999995 6.418750400000022  C 42.980623359999996 7.114376000000022  42.00937408 7.600000640000046  40.8674992 7.86687488000004  L 41.230625919999994 8.593125440000037  C 42.49499872 8.256250880000039  43.5974992 7.678750400000027  44.51187616 6.84749984000004  C 45.36937408 7.372499840000032  46.108749759999995 7.880000000000037  46.730001279999996 8.391874880000032  L 47.333751039999996 7.788125120000032  C 46.66 7.2893753600000375  45.90749919999999 6.7950003200000415  45.0631264 6.283125440000035  C 45.504999999999995 5.771250560000041  45.90749919999999 5.1675003200000305  46.2575008 4.46750000000003  L 46.2575008 3.811250048000034  L 43.746250239999995 3.811250048000034  C 43.86437536 3.5400003200000327  43.973751039999996 3.2468749760000293  44.08312384 2.936250272000038  L 43.20812511999999 2.8137499520000375  C 42.818751039999995 4.0125003200000435  42.06625024 5.018749952000036  40.96374976 5.8543760000000304  L 41.47124896 6.536875520000024  Z M 45.303748479999996 4.563750272000036  C 45.036876160000006 5.031874976000026  44.713123839999994 5.46062556800004  44.349999999999994 5.867500160000034  C 43.92125152 5.60937536000003  43.448751040000005 5.355625568000036  42.950001279999995 5.097500000000039  C 43.08562336 4.926874976000022  43.20812511999999 4.751875616000035  43.32625023999999 4.563750272000036  L 45.303748479999996 4.563750272000036  Z M 46.904998719999995 3.767500640000037  L 46.904998719999995 1.5493756160000345  L 44.6474992 1.5493756160000345  C 44.45937664 1.041874976000031  44.27125024 0.5956250240000429  44.08312384 0.19312534400002335  L 43.111873599999996 0.3550006400000285  C 43.32625023999999 0.718125344000029  43.5318736 1.1206250240000344  43.72 1.5493756160000345  L 41.256876160000004 1.5493756160000345  L 41.256876160000004 3.7806255680000334  L 42.10562464 3.7806255680000334  L 42.10562464 2.3850003200000316  L 46.05625024 2.3850003200000316  L 46.05625024 3.767500640000037  L 46.904998719999995 3.767500640000037  Z M 46.24437664 12.504374720000044  L 46.24437664 8.418125120000028  L 42.09250048 8.418125120000028  L 42.09250048 12.504374720000044  L 42.96749919999999 12.504374720000044  L 42.96749919999999 11.80874912000003  L 45.38687487999999 11.80874912000003  L 45.38687487999999 12.504374720000044  L 46.24437664 12.504374720000044  Z M 45.38687487999999 10.986249920000034  L 42.96749919999999 10.986249920000034  L 42.96749919999999 9.227500160000034  L 45.38687487999999 9.227500160000034  L 45.38687487999999 10.986249920000034  Z M 53.26187487999999 0.8231253440000329  L 47.36000127999999 0.8231253440000329  L 47.36000127999999 1.711250048000025  L 49.862500479999994 1.711250048000025  C 49.80562336 2.2362500480000307  49.72687359999999 2.748125024000032  49.61749791999999 3.2293756160000413  L 47.696874879999996 3.2293756160000413  L 47.696874879999996 9.546874880000033  L 48.55874847999999 9.546874880000033  L 48.55874847999999 4.038750272000044  L 51.91874847999999 4.038750272000044  L 51.91874847999999 9.533749760000035  L 52.776250239999996 9.533749760000035  L 52.776250239999996 3.2293756160000413  L 50.51874975999999 3.2293756160000413  C 50.628122559999994 2.748125024000032  50.71999744 2.249374976000027  50.78999872 1.711250048000025  L 53.26187487999999 1.711250048000025  L 53.26187487999999 0.8231253440000329  Z M 53.34062464 11.966249600000026  C 52.723749760000004 11.22687488000004  51.97124896 10.487500160000025  51.056874879999995 9.748125440000038  L 50.47937535999999 10.31687456000003  C 51.419998719999995 11.121874880000036  52.17250048 11.874374720000034  52.71062463999999 12.587500160000033  L 53.34062464 11.966249600000026  Z M 50.628122559999994 4.830625568000045  L 49.77937408 4.830625568000045  L 49.77937408 7.2762502400000395  C 49.75312384 8.444375360000038  49.53874719999999 9.402500480000029  49.14937408 10.141875200000044  C 48.71624896 10.837499840000035  47.97687616 11.40187424000004  46.91812383999999 11.834999360000026  L 47.412500800000004 12.600625280000031  C 48.52812256 12.154376000000028  49.337499519999994 11.537500160000022  49.831873599999994 10.732499840000031  C 50.33062335999999 9.870624320000033  50.60187232 8.715625280000026  50.628122559999994 7.2762502400000395  L 50.628122559999994 4.830625568000045  Z " fill-rule="evenodd" />
    </mask>
  </defs>
  <g transform="matrix(1 0 0 1 -1778 -159 )">
    <path d="M 1.0462499199999975 12.464999360000022  L 2.253749919999997 12.464999360000022  C 3.0237498879999976 12.464999360000022  3.413124735999997 12.075625280000025  3.413124735999997 11.323124480000033  L 3.413124735999997 7.359375680000042  C 3.802499967999999 7.171250240000035  4.191874815999999 6.983125760000021  4.568125023999997 6.781875200000031  L 4.568125023999997 5.797499840000043  C 4.191874815999999 6.011875520000032  3.802499967999999 6.200000000000031  3.413124735999997 6.388125440000039  L 3.413124735999997 3.767500640000037  L 4.769374815999999 3.767500640000037  L 4.769374815999999 2.840000000000032  L 3.413124735999997 2.840000000000032  L 3.413124735999997 0.3025006400000336  L 2.415625023999997 0.3025006400000336  L 2.415625023999997 2.840000000000032  L 0.7924999648000011 2.840000000000032  L 0.7924999648000011 3.767500640000037  L 2.415625023999997 3.767500640000037  L 2.415625023999997 6.808125440000041  C 1.8249999039999985 7.035625280000033  1.2343749760000016 7.2237497600000316  0.6306250047999988 7.372499840000032  L 0.8581249600000013 8.339375360000034  C 1.38312496 8.177500160000022  1.908124960000002 7.9893756800000375  2.415625023999997 7.788125120000032  L 2.415625023999997 11.069375360000038  C 2.415625023999997 11.40187424000004  2.240624896 11.57687552000003  1.9212499839999995 11.57687552000003  C 1.5712499199999996 11.57687552000003  1.2212500479999981 11.550625280000034  0.8449999647999995 11.524376000000032  L 1.0462499199999975 12.464999360000022  Z M 11.677500160000001 0.7312502720000396  L 5.819374816 0.7312502720000396  L 5.819374816 5.395000640000035  L 11.677500160000001 5.395000640000035  L 11.677500160000001 0.7312502720000396  Z M 10.736874880000002 3.4481253440000335  L 10.736874880000002 4.603125344000034  L 6.759999999999998 4.603125344000034  L 6.759999999999998 3.4481253440000335  L 10.736874880000002 3.4481253440000335  Z M 10.736874880000002 2.6956250240000372  L 6.759999999999998 2.6956250240000372  L 6.759999999999998 1.5231255680000402  L 10.736874880000002 1.5231255680000402  L 10.736874880000002 2.6956250240000372  Z M 12.565624 6.3356249600000325  L 4.878749727999999 6.3356249600000325  L 4.878749727999999 7.1974995200000365  L 8.278124704 7.1974995200000365  L 8.278124704 11.121874880000036  C 8.155624383999996 11.082500480000036  8.050624383999995 11.038749440000032  7.9543749759999995 10.999375040000032  C 7.38999952 10.745624960000043  6.8912495679999966 10.16812544000004  6.462499839999996 9.266875520000028  C 6.5718746559999985 8.807500160000032  6.637499679999998 8.352500480000032  6.663749727999999 7.86687488000004  L 5.806249888 7.775000000000034  C 5.696874976 9.306250880000036  5.1325 10.70625056000003  4.108749952 11.93999936000003  L 4.821874815999998 12.561250880000046  C 5.399374815999998 11.861249600000022  5.845624863999998 11.09562464000004  6.1649996799999975 10.260000320000032  C 6.5718746559999985 11.01250016000003  7.039999839999997 11.524376000000032  7.551874815999998 11.79125024000004  C 8.194999359999997 12.115000640000034  9.406874656 12.290000000000035  11.178749439999997 12.303125120000033  C 11.611874559999997 12.303125120000033  12.106249599999998 12.31625024000003  12.644374719999995 12.31625024000003  L 12.915624639999997 11.375624000000045  C 12.416874880000002 11.414999360000024  11.813125119999995 11.44562528000003  11.113124799999994 11.44562528000003  C 10.37374912 11.44562528000003  9.743749119999997 11.40187424000004  9.205624383999996 11.323124480000033  L 9.205624383999996 9.590624960000042  L 12.01437472 9.590624960000042  L 12.01437472 8.715625280000026  L 9.205624383999996 8.715625280000026  L 9.205624383999996 7.1974995200000365  L 12.565624 7.1974995200000365  L 12.565624 6.3356249600000325  Z M 25.279375359999996 8.230000640000043  L 25.279375359999996 0.7968752960000387  L 19.311874239999995 0.7968752960000387  L 19.311874239999995 8.230000640000043  L 20.26562464 8.230000640000043  L 20.26562464 1.7243749760000213  L 24.299374719999996 1.7243749760000213  L 24.299374719999996 8.230000640000043  L 25.279375359999996 8.230000640000043  Z M 23.58625024 12.373124480000044  L 24.981874239999996 12.373124480000044  C 25.414999359999996 12.373124480000044  25.734374079999995 12.263749760000039  25.95312448 12.062500160000027  C 26.18062336 11.821874240000042  26.342500479999998 11.135000000000034  26.42125024 10.032500480000039  L 25.51999936 9.748125440000038  C 25.467499840000002 10.583749760000032  25.38874912 11.09562464000004  25.279375359999996 11.27062400000004  C 25.183123839999993 11.40187424000004  25.025623359999997 11.485000640000038  24.806874879999995 11.485000640000038  L 23.866249599999996 11.485000640000038  C 23.58625024 11.485000640000038  23.450623359999994 11.33624960000003  23.450623359999994 11.05187456000003  L 23.450623359999994 8.177500160000022  L 22.483749760000002 8.177500160000022  L 22.483749760000002 11.257499840000037  C 22.483749760000002 11.996875520000032  22.846873599999995 12.373124480000044  23.58625024 12.373124480000044  Z M 22.698124479999997 2.6781255680000413  L 21.770623359999995 2.6781255680000413  L 21.770623359999995 5.95937600000002  C 21.744374079999993 7.464375680000032  21.446874879999996 8.689376000000024  20.90874976 9.630000320000036  C 20.331250239999996 10.518125120000036  19.311874239999995 11.240000000000038  17.859374079999995 11.80874912000003  L 18.384374079999994 12.626875520000027  C 19.88937472 12.062500160000027  20.965624 11.27062400000004  21.60874912 10.27312544000003  C 22.282499199999997 9.201250880000046  22.645623999999998 7.761874880000036  22.698124479999997 5.95937600000002  L 22.698124479999997 2.6781255680000413  Z M 15.86874976 5.23312534400003  L 14.324375680000005 5.23312534400003  L 14.324375680000005 6.173749760000035  L 15.86874976 6.173749760000035  L 15.86874976 9.520624640000037  C 15.278125119999999 9.682499840000034  14.687499520000003 9.818124800000035  14.083749759999998 9.923124800000025  L 14.311250560000005 10.850624960000033  C 15.829375359999998 10.487500160000025  17.255625279999997 10.045624640000028  18.58562464 9.507499520000039  L 18.58562464 8.580000320000039  C 18.02125024 8.807500160000032  17.45687488 9.026250560000037  16.86625024 9.227500160000034  L 16.86625024 6.173749760000035  L 18.371248959999996 6.173749760000035  L 18.371248959999996 5.23312534400003  L 16.86625024 5.23312534400003  L 16.86625024 2.08750064000003  L 18.559375359999997 2.08750064000003  L 18.559375359999997 1.1600000000000392  L 14.14937536 1.1600000000000392  L 14.14937536 2.08750064000003  L 15.86874976 2.08750064000003  L 15.86874976 5.23312534400003  Z M 28.10125024 5.180625344000035  C 28.8012496 4.856875616000039  29.470624 4.49374995200003  30.118125759999998 4.104375296000029  L 30.118125759999998 4.88312556800004  L 33.16749952 4.88312556800004  L 33.16749952 6.821250560000039  L 28.36812448 6.821250560000039  L 28.36812448 7.722500480000036  L 33.16749952 7.722500480000036  L 33.16749952 11.30999936000002  L 31.623126399999997 11.30999936000002  C 31.273123839999997 10.246875200000034  30.89687488 9.332500160000023  30.481249599999998 8.580000320000039  L 29.606250879999994 8.90374976000004  C 30.034999359999997 9.656250560000032  30.398125119999992 10.44812480000003  30.682500159999996 11.30999936000002  L 27.900000640000002 11.30999936000002  L 27.900000640000002 12  L 39.393122559999995 12  L 39.393122559999995 11.30999936000002  L 36.61062208 11.30999936000002  C 37.01312512 10.583749760000032  37.389374079999996 9.73500032000004  37.72624767999999 8.794376000000028  L 36.838123839999994 8.488125440000033  C 36.48812512 9.494375360000035  36.08562207999999 10.434999680000033  35.62624767999999 11.30999936000002  L 34.13437407999999 11.30999936000002  L 34.13437407999999 7.722500480000036  L 38.920622079999994 7.722500480000036  L 38.920622079999994 6.821250560000039  L 34.13437407999999 6.821250560000039  L 34.13437407999999 4.88312556800004  L 37.18812256 4.88312556800004  L 37.18812256 4.143750272000034  C 37.804997439999994 4.506874976000034  38.465623359999995 4.843750592000035  39.17437407999999 5.141250272000036  L 39.72562336 4.331875616000033  C 37.22749792 3.286250048000028  35.33312512 1.9693756160000362  34.042499199999995 0.36812556800003904  L 33.26375104 0.36812556800003904  C 31.784998719999994 1.9956255680000368  29.873125119999994 3.3256250240000327  27.53687488 4.375625024000044  L 28.10125024 5.180625344000035  Z M 33.65312512 1.2825003200000396  C 34.53687616 2.3193752960000324  35.639372800000004 3.2293756160000413  36.956248959999996 4.0125003200000435  L 30.262500159999995 4.0125003200000435  C 31.513749759999996 3.2468749760000293  32.642500479999995 2.3325003200000367  33.65312512 1.2825003200000396  Z M 41.47124896 6.536875520000024  C 41.821251520000004 6.270000320000037  42.144999999999996 5.972500160000024  42.455623360000004 5.666250560000037  C 42.91062592 5.906875520000028  43.35687616 6.160624640000037  43.785624639999995 6.418750400000022  C 42.980623359999996 7.114376000000022  42.00937408 7.600000640000046  40.8674992 7.86687488000004  L 41.230625919999994 8.593125440000037  C 42.49499872 8.256250880000039  43.5974992 7.678750400000027  44.51187616 6.84749984000004  C 45.36937408 7.372499840000032  46.108749759999995 7.880000000000037  46.730001279999996 8.391874880000032  L 47.333751039999996 7.788125120000032  C 46.66 7.2893753600000375  45.90749919999999 6.7950003200000415  45.0631264 6.283125440000035  C 45.504999999999995 5.771250560000041  45.90749919999999 5.1675003200000305  46.2575008 4.46750000000003  L 46.2575008 3.811250048000034  L 43.746250239999995 3.811250048000034  C 43.86437536 3.5400003200000327  43.973751039999996 3.2468749760000293  44.08312384 2.936250272000038  L 43.20812511999999 2.8137499520000375  C 42.818751039999995 4.0125003200000435  42.06625024 5.018749952000036  40.96374976 5.8543760000000304  L 41.47124896 6.536875520000024  Z M 45.303748479999996 4.563750272000036  C 45.036876160000006 5.031874976000026  44.713123839999994 5.46062556800004  44.349999999999994 5.867500160000034  C 43.92125152 5.60937536000003  43.448751040000005 5.355625568000036  42.950001279999995 5.097500000000039  C 43.08562336 4.926874976000022  43.20812511999999 4.751875616000035  43.32625023999999 4.563750272000036  L 45.303748479999996 4.563750272000036  Z M 46.904998719999995 3.767500640000037  L 46.904998719999995 1.5493756160000345  L 44.6474992 1.5493756160000345  C 44.45937664 1.041874976000031  44.27125024 0.5956250240000429  44.08312384 0.19312534400002335  L 43.111873599999996 0.3550006400000285  C 43.32625023999999 0.718125344000029  43.5318736 1.1206250240000344  43.72 1.5493756160000345  L 41.256876160000004 1.5493756160000345  L 41.256876160000004 3.7806255680000334  L 42.10562464 3.7806255680000334  L 42.10562464 2.3850003200000316  L 46.05625024 2.3850003200000316  L 46.05625024 3.767500640000037  L 46.904998719999995 3.767500640000037  Z M 46.24437664 12.504374720000044  L 46.24437664 8.418125120000028  L 42.09250048 8.418125120000028  L 42.09250048 12.504374720000044  L 42.96749919999999 12.504374720000044  L 42.96749919999999 11.80874912000003  L 45.38687487999999 11.80874912000003  L 45.38687487999999 12.504374720000044  L 46.24437664 12.504374720000044  Z M 45.38687487999999 10.986249920000034  L 42.96749919999999 10.986249920000034  L 42.96749919999999 9.227500160000034  L 45.38687487999999 9.227500160000034  L 45.38687487999999 10.986249920000034  Z M 53.26187487999999 0.8231253440000329  L 47.36000127999999 0.8231253440000329  L 47.36000127999999 1.711250048000025  L 49.862500479999994 1.711250048000025  C 49.80562336 2.2362500480000307  49.72687359999999 2.748125024000032  49.61749791999999 3.2293756160000413  L 47.696874879999996 3.2293756160000413  L 47.696874879999996 9.546874880000033  L 48.55874847999999 9.546874880000033  L 48.55874847999999 4.038750272000044  L 51.91874847999999 4.038750272000044  L 51.91874847999999 9.533749760000035  L 52.776250239999996 9.533749760000035  L 52.776250239999996 3.2293756160000413  L 50.51874975999999 3.2293756160000413  C 50.628122559999994 2.748125024000032  50.71999744 2.249374976000027  50.78999872 1.711250048000025  L 53.26187487999999 1.711250048000025  L 53.26187487999999 0.8231253440000329  Z M 53.34062464 11.966249600000026  C 52.723749760000004 11.22687488000004  51.97124896 10.487500160000025  51.056874879999995 9.748125440000038  L 50.47937535999999 10.31687456000003  C 51.419998719999995 11.121874880000036  52.17250048 11.874374720000034  52.71062463999999 12.587500160000033  L 53.34062464 11.966249600000026  Z M 50.628122559999994 4.830625568000045  L 49.77937408 4.830625568000045  L 49.77937408 7.2762502400000395  C 49.75312384 8.444375360000038  49.53874719999999 9.402500480000029  49.14937408 10.141875200000044  C 48.71624896 10.837499840000035  47.97687616 11.40187424000004  46.91812383999999 11.834999360000026  L 47.412500800000004 12.600625280000031  C 48.52812256 12.154376000000028  49.337499519999994 11.537500160000022  49.831873599999994 10.732499840000031  C 50.33062335999999 9.870624320000033  50.60187232 8.715625280000026  50.628122559999994 7.2762502400000395  L 50.628122559999994 4.830625568000045  Z " fill-rule="nonzero" fill="rgba(255, 255, 255, 1)" stroke="none" transform="matrix(1 0 0 1 1778 159 )" class="fill" />
    <path d="M 1.0462499199999975 12.464999360000022  L 2.253749919999997 12.464999360000022  C 3.0237498879999976 12.464999360000022  3.413124735999997 12.075625280000025  3.413124735999997 11.323124480000033  L 3.413124735999997 7.359375680000042  C 3.802499967999999 7.171250240000035  4.191874815999999 6.983125760000021  4.568125023999997 6.781875200000031  L 4.568125023999997 5.797499840000043  C 4.191874815999999 6.011875520000032  3.802499967999999 6.200000000000031  3.413124735999997 6.388125440000039  L 3.413124735999997 3.767500640000037  L 4.769374815999999 3.767500640000037  L 4.769374815999999 2.840000000000032  L 3.413124735999997 2.840000000000032  L 3.413124735999997 0.3025006400000336  L 2.415625023999997 0.3025006400000336  L 2.415625023999997 2.840000000000032  L 0.7924999648000011 2.840000000000032  L 0.7924999648000011 3.767500640000037  L 2.415625023999997 3.767500640000037  L 2.415625023999997 6.808125440000041  C 1.8249999039999985 7.035625280000033  1.2343749760000016 7.2237497600000316  0.6306250047999988 7.372499840000032  L 0.8581249600000013 8.339375360000034  C 1.38312496 8.177500160000022  1.908124960000002 7.9893756800000375  2.415625023999997 7.788125120000032  L 2.415625023999997 11.069375360000038  C 2.415625023999997 11.40187424000004  2.240624896 11.57687552000003  1.9212499839999995 11.57687552000003  C 1.5712499199999996 11.57687552000003  1.2212500479999981 11.550625280000034  0.8449999647999995 11.524376000000032  L 1.0462499199999975 12.464999360000022  Z " stroke-width="0" stroke-dasharray="0" stroke="rgba(255, 255, 255, 0)" fill="none" transform="matrix(1 0 0 1 1778 159 )" class="stroke" mask="url(#Clip2337)" />
    <path d="M 11.677500160000001 0.7312502720000396  L 5.819374816 0.7312502720000396  L 5.819374816 5.395000640000035  L 11.677500160000001 5.395000640000035  L 11.677500160000001 0.7312502720000396  Z " stroke-width="0" stroke-dasharray="0" stroke="rgba(255, 255, 255, 0)" fill="none" transform="matrix(1 0 0 1 1778 159 )" class="stroke" mask="url(#Clip2337)" />
    <path d="M 10.736874880000002 3.4481253440000335  L 10.736874880000002 4.603125344000034  L 6.759999999999998 4.603125344000034  L 6.759999999999998 3.4481253440000335  L 10.736874880000002 3.4481253440000335  Z " stroke-width="0" stroke-dasharray="0" stroke="rgba(255, 255, 255, 0)" fill="none" transform="matrix(1 0 0 1 1778 159 )" class="stroke" mask="url(#Clip2337)" />
    <path d="M 10.736874880000002 2.6956250240000372  L 6.759999999999998 2.6956250240000372  L 6.759999999999998 1.5231255680000402  L 10.736874880000002 1.5231255680000402  L 10.736874880000002 2.6956250240000372  Z " stroke-width="0" stroke-dasharray="0" stroke="rgba(255, 255, 255, 0)" fill="none" transform="matrix(1 0 0 1 1778 159 )" class="stroke" mask="url(#Clip2337)" />
    <path d="M 12.565624 6.3356249600000325  L 4.878749727999999 6.3356249600000325  L 4.878749727999999 7.1974995200000365  L 8.278124704 7.1974995200000365  L 8.278124704 11.121874880000036  C 8.155624383999996 11.082500480000036  8.050624383999995 11.038749440000032  7.9543749759999995 10.999375040000032  C 7.38999952 10.745624960000043  6.8912495679999966 10.16812544000004  6.462499839999996 9.266875520000028  C 6.5718746559999985 8.807500160000032  6.637499679999998 8.352500480000032  6.663749727999999 7.86687488000004  L 5.806249888 7.775000000000034  C 5.696874976 9.306250880000036  5.1325 10.70625056000003  4.108749952 11.93999936000003  L 4.821874815999998 12.561250880000046  C 5.399374815999998 11.861249600000022  5.845624863999998 11.09562464000004  6.1649996799999975 10.260000320000032  C 6.5718746559999985 11.01250016000003  7.039999839999997 11.524376000000032  7.551874815999998 11.79125024000004  C 8.194999359999997 12.115000640000034  9.406874656 12.290000000000035  11.178749439999997 12.303125120000033  C 11.611874559999997 12.303125120000033  12.106249599999998 12.31625024000003  12.644374719999995 12.31625024000003  L 12.915624639999997 11.375624000000045  C 12.416874880000002 11.414999360000024  11.813125119999995 11.44562528000003  11.113124799999994 11.44562528000003  C 10.37374912 11.44562528000003  9.743749119999997 11.40187424000004  9.205624383999996 11.323124480000033  L 9.205624383999996 9.590624960000042  L 12.01437472 9.590624960000042  L 12.01437472 8.715625280000026  L 9.205624383999996 8.715625280000026  L 9.205624383999996 7.1974995200000365  L 12.565624 7.1974995200000365  L 12.565624 6.3356249600000325  Z " stroke-width="0" stroke-dasharray="0" stroke="rgba(255, 255, 255, 0)" fill="none" transform="matrix(1 0 0 1 1778 159 )" class="stroke" mask="url(#Clip2337)" />
    <path d="M 25.279375359999996 8.230000640000043  L 25.279375359999996 0.7968752960000387  L 19.311874239999995 0.7968752960000387  L 19.311874239999995 8.230000640000043  L 20.26562464 8.230000640000043  L 20.26562464 1.7243749760000213  L 24.299374719999996 1.7243749760000213  L 24.299374719999996 8.230000640000043  L 25.279375359999996 8.230000640000043  Z " stroke-width="0" stroke-dasharray="0" stroke="rgba(255, 255, 255, 0)" fill="none" transform="matrix(1 0 0 1 1778 159 )" class="stroke" mask="url(#Clip2337)" />
    <path d="M 23.58625024 12.373124480000044  L 24.981874239999996 12.373124480000044  C 25.414999359999996 12.373124480000044  25.734374079999995 12.263749760000039  25.95312448 12.062500160000027  C 26.18062336 11.821874240000042  26.342500479999998 11.135000000000034  26.42125024 10.032500480000039  L 25.51999936 9.748125440000038  C 25.467499840000002 10.583749760000032  25.38874912 11.09562464000004  25.279375359999996 11.27062400000004  C 25.183123839999993 11.40187424000004  25.025623359999997 11.485000640000038  24.806874879999995 11.485000640000038  L 23.866249599999996 11.485000640000038  C 23.58625024 11.485000640000038  23.450623359999994 11.33624960000003  23.450623359999994 11.05187456000003  L 23.450623359999994 8.177500160000022  L 22.483749760000002 8.177500160000022  L 22.483749760000002 11.257499840000037  C 22.483749760000002 11.996875520000032  22.846873599999995 12.373124480000044  23.58625024 12.373124480000044  Z " stroke-width="0" stroke-dasharray="0" stroke="rgba(255, 255, 255, 0)" fill="none" transform="matrix(1 0 0 1 1778 159 )" class="stroke" mask="url(#Clip2337)" />
    <path d="M 22.698124479999997 2.6781255680000413  L 21.770623359999995 2.6781255680000413  L 21.770623359999995 5.95937600000002  C 21.744374079999993 7.464375680000032  21.446874879999996 8.689376000000024  20.90874976 9.630000320000036  C 20.331250239999996 10.518125120000036  19.311874239999995 11.240000000000038  17.859374079999995 11.80874912000003  L 18.384374079999994 12.626875520000027  C 19.88937472 12.062500160000027  20.965624 11.27062400000004  21.60874912 10.27312544000003  C 22.282499199999997 9.201250880000046  22.645623999999998 7.761874880000036  22.698124479999997 5.95937600000002  L 22.698124479999997 2.6781255680000413  Z " stroke-width="0" stroke-dasharray="0" stroke="rgba(255, 255, 255, 0)" fill="none" transform="matrix(1 0 0 1 1778 159 )" class="stroke" mask="url(#Clip2337)" />
    <path d="M 15.86874976 5.23312534400003  L 14.324375680000005 5.23312534400003  L 14.324375680000005 6.173749760000035  L 15.86874976 6.173749760000035  L 15.86874976 9.520624640000037  C 15.278125119999999 9.682499840000034  14.687499520000003 9.818124800000035  14.083749759999998 9.923124800000025  L 14.311250560000005 10.850624960000033  C 15.829375359999998 10.487500160000025  17.255625279999997 10.045624640000028  18.58562464 9.507499520000039  L 18.58562464 8.580000320000039  C 18.02125024 8.807500160000032  17.45687488 9.026250560000037  16.86625024 9.227500160000034  L 16.86625024 6.173749760000035  L 18.371248959999996 6.173749760000035  L 18.371248959999996 5.23312534400003  L 16.86625024 5.23312534400003  L 16.86625024 2.08750064000003  L 18.559375359999997 2.08750064000003  L 18.559375359999997 1.1600000000000392  L 14.14937536 1.1600000000000392  L 14.14937536 2.08750064000003  L 15.86874976 2.08750064000003  L 15.86874976 5.23312534400003  Z " stroke-width="0" stroke-dasharray="0" stroke="rgba(255, 255, 255, 0)" fill="none" transform="matrix(1 0 0 1 1778 159 )" class="stroke" mask="url(#Clip2337)" />
    <path d="M 28.10125024 5.180625344000035  C 28.8012496 4.856875616000039  29.470624 4.49374995200003  30.118125759999998 4.104375296000029  L 30.118125759999998 4.88312556800004  L 33.16749952 4.88312556800004  L 33.16749952 6.821250560000039  L 28.36812448 6.821250560000039  L 28.36812448 7.722500480000036  L 33.16749952 7.722500480000036  L 33.16749952 11.30999936000002  L 31.623126399999997 11.30999936000002  C 31.273123839999997 10.246875200000034  30.89687488 9.332500160000023  30.481249599999998 8.580000320000039  L 29.606250879999994 8.90374976000004  C 30.034999359999997 9.656250560000032  30.398125119999992 10.44812480000003  30.682500159999996 11.30999936000002  L 27.900000640000002 11.30999936000002  L 27.900000640000002 12  L 39.393122559999995 12  L 39.393122559999995 11.30999936000002  L 36.61062208 11.30999936000002  C 37.01312512 10.583749760000032  37.389374079999996 9.73500032000004  37.72624767999999 8.794376000000028  L 36.838123839999994 8.488125440000033  C 36.48812512 9.494375360000035  36.08562207999999 10.434999680000033  35.62624767999999 11.30999936000002  L 34.13437407999999 11.30999936000002  L 34.13437407999999 7.722500480000036  L 38.920622079999994 7.722500480000036  L 38.920622079999994 6.821250560000039  L 34.13437407999999 6.821250560000039  L 34.13437407999999 4.88312556800004  L 37.18812256 4.88312556800004  L 37.18812256 4.143750272000034  C 37.804997439999994 4.506874976000034  38.465623359999995 4.843750592000035  39.17437407999999 5.141250272000036  L 39.72562336 4.331875616000033  C 37.22749792 3.286250048000028  35.33312512 1.9693756160000362  34.042499199999995 0.36812556800003904  L 33.26375104 0.36812556800003904  C 31.784998719999994 1.9956255680000368  29.873125119999994 3.3256250240000327  27.53687488 4.375625024000044  L 28.10125024 5.180625344000035  Z " stroke-width="0" stroke-dasharray="0" stroke="rgba(255, 255, 255, 0)" fill="none" transform="matrix(1 0 0 1 1778 159 )" class="stroke" mask="url(#Clip2337)" />
    <path d="M 33.65312512 1.2825003200000396  C 34.53687616 2.3193752960000324  35.639372800000004 3.2293756160000413  36.956248959999996 4.0125003200000435  L 30.262500159999995 4.0125003200000435  C 31.513749759999996 3.2468749760000293  32.642500479999995 2.3325003200000367  33.65312512 1.2825003200000396  Z " stroke-width="0" stroke-dasharray="0" stroke="rgba(255, 255, 255, 0)" fill="none" transform="matrix(1 0 0 1 1778 159 )" class="stroke" mask="url(#Clip2337)" />
    <path d="M 41.47124896 6.536875520000024  C 41.821251520000004 6.270000320000037  42.144999999999996 5.972500160000024  42.455623360000004 5.666250560000037  C 42.91062592 5.906875520000028  43.35687616 6.160624640000037  43.785624639999995 6.418750400000022  C 42.980623359999996 7.114376000000022  42.00937408 7.600000640000046  40.8674992 7.86687488000004  L 41.230625919999994 8.593125440000037  C 42.49499872 8.256250880000039  43.5974992 7.678750400000027  44.51187616 6.84749984000004  C 45.36937408 7.372499840000032  46.108749759999995 7.880000000000037  46.730001279999996 8.391874880000032  L 47.333751039999996 7.788125120000032  C 46.66 7.2893753600000375  45.90749919999999 6.7950003200000415  45.0631264 6.283125440000035  C 45.504999999999995 5.771250560000041  45.90749919999999 5.1675003200000305  46.2575008 4.46750000000003  L 46.2575008 3.811250048000034  L 43.746250239999995 3.811250048000034  C 43.86437536 3.5400003200000327  43.973751039999996 3.2468749760000293  44.08312384 2.936250272000038  L 43.20812511999999 2.8137499520000375  C 42.818751039999995 4.0125003200000435  42.06625024 5.018749952000036  40.96374976 5.8543760000000304  L 41.47124896 6.536875520000024  Z " stroke-width="0" stroke-dasharray="0" stroke="rgba(255, 255, 255, 0)" fill="none" transform="matrix(1 0 0 1 1778 159 )" class="stroke" mask="url(#Clip2337)" />
    <path d="M 45.303748479999996 4.563750272000036  C 45.036876160000006 5.031874976000026  44.713123839999994 5.46062556800004  44.349999999999994 5.867500160000034  C 43.92125152 5.60937536000003  43.448751040000005 5.355625568000036  42.950001279999995 5.097500000000039  C 43.08562336 4.926874976000022  43.20812511999999 4.751875616000035  43.32625023999999 4.563750272000036  L 45.303748479999996 4.563750272000036  Z " stroke-width="0" stroke-dasharray="0" stroke="rgba(255, 255, 255, 0)" fill="none" transform="matrix(1 0 0 1 1778 159 )" class="stroke" mask="url(#Clip2337)" />
    <path d="M 46.904998719999995 3.767500640000037  L 46.904998719999995 1.5493756160000345  L 44.6474992 1.5493756160000345  C 44.45937664 1.041874976000031  44.27125024 0.5956250240000429  44.08312384 0.19312534400002335  L 43.111873599999996 0.3550006400000285  C 43.32625023999999 0.718125344000029  43.5318736 1.1206250240000344  43.72 1.5493756160000345  L 41.256876160000004 1.5493756160000345  L 41.256876160000004 3.7806255680000334  L 42.10562464 3.7806255680000334  L 42.10562464 2.3850003200000316  L 46.05625024 2.3850003200000316  L 46.05625024 3.767500640000037  L 46.904998719999995 3.767500640000037  Z " stroke-width="0" stroke-dasharray="0" stroke="rgba(255, 255, 255, 0)" fill="none" transform="matrix(1 0 0 1 1778 159 )" class="stroke" mask="url(#Clip2337)" />
    <path d="M 46.24437664 12.504374720000044  L 46.24437664 8.418125120000028  L 42.09250048 8.418125120000028  L 42.09250048 12.504374720000044  L 42.96749919999999 12.504374720000044  L 42.96749919999999 11.80874912000003  L 45.38687487999999 11.80874912000003  L 45.38687487999999 12.504374720000044  L 46.24437664 12.504374720000044  Z " stroke-width="0" stroke-dasharray="0" stroke="rgba(255, 255, 255, 0)" fill="none" transform="matrix(1 0 0 1 1778 159 )" class="stroke" mask="url(#Clip2337)" />
    <path d="M 45.38687487999999 10.986249920000034  L 42.96749919999999 10.986249920000034  L 42.96749919999999 9.227500160000034  L 45.38687487999999 9.227500160000034  L 45.38687487999999 10.986249920000034  Z " stroke-width="0" stroke-dasharray="0" stroke="rgba(255, 255, 255, 0)" fill="none" transform="matrix(1 0 0 1 1778 159 )" class="stroke" mask="url(#Clip2337)" />
    <path d="M 53.26187487999999 0.8231253440000329  L 47.36000127999999 0.8231253440000329  L 47.36000127999999 1.711250048000025  L 49.862500479999994 1.711250048000025  C 49.80562336 2.2362500480000307  49.72687359999999 2.748125024000032  49.61749791999999 3.2293756160000413  L 47.696874879999996 3.2293756160000413  L 47.696874879999996 9.546874880000033  L 48.55874847999999 9.546874880000033  L 48.55874847999999 4.038750272000044  L 51.91874847999999 4.038750272000044  L 51.91874847999999 9.533749760000035  L 52.776250239999996 9.533749760000035  L 52.776250239999996 3.2293756160000413  L 50.51874975999999 3.2293756160000413  C 50.628122559999994 2.748125024000032  50.71999744 2.249374976000027  50.78999872 1.711250048000025  L 53.26187487999999 1.711250048000025  L 53.26187487999999 0.8231253440000329  Z " stroke-width="0" stroke-dasharray="0" stroke="rgba(255, 255, 255, 0)" fill="none" transform="matrix(1 0 0 1 1778 159 )" class="stroke" mask="url(#Clip2337)" />
    <path d="M 53.34062464 11.966249600000026  C 52.723749760000004 11.22687488000004  51.97124896 10.487500160000025  51.056874879999995 9.748125440000038  L 50.47937535999999 10.31687456000003  C 51.419998719999995 11.121874880000036  52.17250048 11.874374720000034  52.71062463999999 12.587500160000033  L 53.34062464 11.966249600000026  Z " stroke-width="0" stroke-dasharray="0" stroke="rgba(255, 255, 255, 0)" fill="none" transform="matrix(1 0 0 1 1778 159 )" class="stroke" mask="url(#Clip2337)" />
    <path d="M 50.628122559999994 4.830625568000045  L 49.77937408 4.830625568000045  L 49.77937408 7.2762502400000395  C 49.75312384 8.444375360000038  49.53874719999999 9.402500480000029  49.14937408 10.141875200000044  C 48.71624896 10.837499840000035  47.97687616 11.40187424000004  46.91812383999999 11.834999360000026  L 47.412500800000004 12.600625280000031  C 48.52812256 12.154376000000028  49.337499519999994 11.537500160000022  49.831873599999994 10.732499840000031  C 50.33062335999999 9.870624320000033  50.60187232 8.715625280000026  50.628122559999994 7.2762502400000395  L 50.628122559999994 4.830625568000045  Z " stroke-width="0" stroke-dasharray="0" stroke="rgba(255, 255, 255, 0)" fill="none" transform="matrix(1 0 0 1 1778 159 )" class="stroke" mask="url(#Clip2337)" />
  </g>
</svg>