<?xml version="1.0" encoding="utf-8"?>
<svg version="1.1" xmlns:xlink="http://www.w3.org/1999/xlink" width="132px" height="12px" xmlns="http://www.w3.org/2000/svg">
  <defs>
    <pattern id="BGPattern" patternUnits="userSpaceOnUse" alignment="0 0" imageRepeat="None" />
    <mask fill="white" id="Clip2327">
      <path d="M 6.406395103999984 1.4576003839999885  C 5.787195104000006 0.9103998080000224  5.009595200000007 0.6367999039999859  4.059195391999992 0.6367999039999859  C 3.022395295999985 0.6367999039999859  2.172795296000004 0.982400479999967  1.5391951999999947 1.673599807999949  C 0.9055952959999729 2.35039980800002  0.5743952959999774 3.2719998079999755  0.5743952959999774 4.424000095999986  L 1.7551952960000108 4.424000095999986  C 1.7695951999999977 3.516800384000021  1.9855952959999854 2.8256005759999994  2.388795200000004 2.3648000960000104  C 2.763195295999992 1.8751999039999987  3.310395199999988 1.6448000959999831  4.015995296 1.6448000959999831  C 4.678395391999999 1.6448000959999831  5.211195199999992 1.8176003839999453  5.585595103999992 2.1632000959999687  C 5.959995007999993 2.508799711999984  6.147195103999991 2.9840005759999713  6.147195103999991 3.6175999039999738  C 6.147195103999991 4.279999999999973  5.873595295999991 4.899199999999951  5.355195296000005 5.460800000000006  C 5.081595007999994 5.748800192000033  4.548795200000001 6.166400192000026  3.7423950079999884 6.742400480000015  C 2.647995103999989 7.491200287999959  1.9135952959999827 8.110399808000011  1.5103951999999765 8.571200000000033  C 0.8191952959999753 9.33439999999996  0.4879953920000162 10.183999999999969  0.4879953920000162 11.120000000000005  L 7.342395007999983 11.120000000000005  L 7.342395007999983 10.068799999999953  L 1.9423952960000008 10.068799999999953  C 2.129595199999983 9.377599999999973  2.8783952 8.585600960000022  4.1887952000000155 7.707199711999976  C 5.254395295999984 6.987199711999949  5.959995007999993 6.425600575999965  6.319995007999978 6.051200287999961  C 6.9823950079999975 5.331200287999991  7.327994719999992 4.524800096000035  7.327994719999992 3.632000287999972  C 7.327994719999992 2.7392004799999654  7.011195200000003 2.0048000959999968  6.406395103999984 1.4576003839999885  Z M 15.334396159999983 2.264000576000001  C 14.700795199999988 1.1696001919999617  13.779195199999975 0.6367999039999859  12.555195199999986 0.6367999039999859  C 11.316795200000001 0.6367999039999859  10.39519519999999 1.1696001919999617  9.775995200000011 2.264000576000001  C 9.228795199999979 3.185600575999956  8.955195296 4.424000095999986  8.955195296 5.979199999999992  C 8.955195296 7.534400287999972  9.228795199999979 8.772800000000018  9.775995200000011 9.694399999999973  C 10.39519519999999 10.774399999999957  11.316795200000001 11.32159999999999  12.555195199999986 11.32159999999999  C 13.779195199999975 11.32159999999999  14.700795199999988 10.774399999999957  15.334396159999983 9.694399999999973  C 15.881595199999992 8.772800000000018  16.15519519999998 7.534400287999972  16.15519519999998 5.979199999999992  C 16.15519519999998 4.424000095999986  15.881595199999992 3.185600575999956  15.334396159999983 2.264000576000001  Z M 10.567995199999984 3.128000192000002  C 10.971195200000011 2.134400287999995  11.633595200000002 1.6448000959999831  12.555195199999986 1.6448000959999831  C 13.476795199999998 1.6448000959999831  14.139195199999989 2.134400287999995  14.542395200000016 3.128000192000002  C 14.830395199999998 3.8191999999999666  14.98879519999997 4.769600191999984  14.98879519999997 5.979199999999992  C 14.98879519999997 7.174399424000001  14.830395199999998 8.124800096000001  14.542395200000016 8.830399999999997  C 14.139195199999989 9.809599999999989  13.476795199999998 10.313600000000008  12.555195199999986 10.313600000000008  C 11.633595200000002 10.313600000000008  10.971195200000011 9.809599999999989  10.567995199999984 8.830399999999997  C 10.279995200000002 8.124800096000001  10.135995199999996 7.174399424000001  10.135995199999996 5.979199999999992  C 10.135995199999996 4.769600191999984  10.279995200000002 3.8191999999999666  10.567995199999984 3.128000192000002  Z M 23.68639423999997 1.4576003839999885  C 23.06719616000001 0.9103998080000224  22.289595200000008 0.6367999039999859  21.339195199999978 0.6367999039999859  C 20.302395200000007 0.6367999039999859  19.452795199999997 0.982400479999967  18.819195199999996 1.673599807999949  C 18.185595199999995 2.35039980800002  17.854396159999993 3.2719998079999755  17.854396159999993 4.424000095999986  L 19.035195199999976 4.424000095999986  C 19.0495952 3.516800384000021  19.26559519999998 2.8256005759999994  19.668795199999977 2.3648000960000104  C 20.04319423999999 1.8751999039999987  20.590394239999995 1.6448000959999831  21.295995199999993 1.6448000959999831  C 21.958395199999984 1.6448000959999831  22.491195199999993 1.8176003839999453  22.8655952 2.1632000959999687  C 23.239994240000016 2.508799711999984  23.427196159999994 2.9840005759999713  23.427196159999994 3.6175999039999738  C 23.427196159999994 4.279999999999973  23.153596160000006 4.899199999999951  22.63519519999997 5.460800000000006  C 22.361595199999982 5.748800192000033  21.828795199999973 6.166400192000026  21.022395200000005 6.742400480000015  C 19.927995199999998 7.491200287999959  19.19359616 8.110399808000011  18.790396159999972 8.571200000000033  C 18.099195199999997 9.33439999999996  17.7679952 10.183999999999969  17.7679952 11.120000000000005  L 24.6223952 11.120000000000005  L 24.6223952 10.068799999999953  L 19.222395199999994 10.068799999999953  C 19.409595199999984 9.377599999999973  20.1583952 8.585600960000022  21.468795199999988 7.707199711999976  C 22.53439616 6.987199711999949  23.239994240000016 6.425600575999965  23.59999424 6.051200287999961  C 24.262395200000014 5.331200287999991  24.607995199999976 4.524800096000035  24.607995199999976 3.632000287999972  C 24.607995199999976 2.7392004799999654  24.291195200000004 2.0048000959999968  23.68639423999997 1.4576003839999885  Z M 33.00319424 0.8384000000000356  L 27.02719615999999 0.8384000000000356  L 26.479994239999996 6.512000768000007  L 27.603194239999993 6.512000768000007  C 27.8047952 6.10880019199999  28.121595199999973 5.792000287999997  28.5247952 5.590400192000004  C 28.913596159999997 5.374400288000004  29.34559519999999 5.273600287999955  29.835195199999987 5.273600287999955  C 30.58399423999998 5.273600287999955  31.174396159999986 5.489600191999955  31.591997119999974 5.950400192000018  C 32.02399423999998 6.396799904000034  32.25439616 7.030399808000027  32.25439616 7.851200287999973  C 32.25439616 8.571200000000033  32.00959520000001 9.161599999999964  31.548795199999972 9.622400959999993  C 31.073596159999994 10.083200000000033  30.48319423999999 10.313600000000008  29.76319423999999 10.313600000000008  C 29.129595199999983 10.313600000000008  28.59679423999998 10.15519999999998  28.19359616 9.852800000000002  C 27.73279519999997 9.507200000000012  27.47359616 9.003199999999993  27.415995199999998 8.355200000000025  L 26.249595199999987 8.355200000000025  C 26.32159519999999 9.291200000000003  26.710396159999988 10.04000000000002  27.430396159999987 10.587199999999996  C 28.063996159999988 11.076799999999992  28.841595199999972 11.32159999999999  29.74879519999999 11.32159999999999  C 30.756794239999977 11.32159999999999  31.620796159999998 11.004799999999989  32.31199712 10.38560000000001  C 33.04639615999997 9.72320000000002  33.42079615999998 8.87360000000001  33.42079615999998 7.836799904000031  C 33.42079615999998 6.728000191999968  33.10399423999999 5.864000095999984  32.49919711999999 5.2304001919999905  C 31.894396159999985 4.611200287999964  31.10239519999999 4.308800192000035  30.123194240000004 4.308800192000035  C 29.647995199999997 4.308800192000035  29.21599520000001 4.380800000000022  28.812795199999982 4.553600287999984  C 28.366394239999977 4.726400192000028  27.99199519999999 4.985600095999985  27.703996159999974 5.331200287999991  L 27.646394239999978 5.331200287999991  L 27.99199519999999 1.889600191999989  L 33.00319424 1.889600191999989  L 33.00319424 0.8384000000000356  Z M 36.67519520000002 9.665599999999984  C 36.502395199999995 9.492799999999988  36.28639615999998 9.406399999999962  36.055995199999984 9.406399999999962  C 35.79679424 9.406399999999962  35.595195200000006 9.492799999999988  35.43679423999998 9.665599999999984  C 35.26399423999999 9.838400000000036  35.17759424000002 10.04000000000002  35.17759424000002 10.299199999999985  C 35.17759424000002 10.543999999999983  35.26399423999999 10.745600000000024  35.43679423999998 10.91840000000002  C 35.595195200000006 11.091200000000015  35.79679424 11.177599999999984  36.055995199999984 11.177599999999984  C 36.28639615999998 11.177599999999984  36.502395199999995 11.091200000000015  36.67519520000002 10.91840000000002  C 36.847995199999986 10.745600000000024  36.93439615999998 10.543999999999983  36.93439615999998 10.299199999999985  C 36.93439615999998 10.04000000000002  36.847995199999986 9.838400000000036  36.67519520000002 9.665599999999984  Z M 45.055995199999984 2.264000576000001  C 44.42239520000001 1.1696001919999617  43.50079616000002 0.6367999039999859  42.27679423999999 0.6367999039999859  C 41.03839327999998 0.6367999039999859  40.11679423999999 1.1696001919999617  39.49759424000001 2.264000576000001  C 38.95039423999998 3.185600575999956  38.67679423999999 4.424000095999986  38.67679423999999 5.979199999999992  C 38.67679423999999 7.534400287999972  38.95039423999998 8.772800000000018  39.49759424000001 9.694399999999973  C 40.11679423999999 10.774399999999957  41.03839327999998 11.32159999999999  42.27679423999999 11.32159999999999  C 43.50079616000002 11.32159999999999  44.42239520000001 10.774399999999957  45.055995199999984 9.694399999999973  C 45.603194239999965 8.772800000000018  45.87679423999998 7.534400287999972  45.87679423999998 5.979199999999992  C 45.87679423999998 4.424000095999986  45.603194239999965 3.185600575999956  45.055995199999984 2.264000576000001  Z M 40.28959520000001 3.128000192000002  C 40.69279327999999 2.134400287999995  41.3551952 1.6448000959999831  42.27679423999999 1.6448000959999831  C 43.198393279999976 1.6448000959999831  43.86079616000001 2.134400287999995  44.26399423999999 3.128000192000002  C 44.551993280000005 3.8191999999999666  44.71039424000003 4.769600191999984  44.71039424000003 5.979199999999992  C 44.71039424000003 7.174399424000001  44.551993280000005 8.124800096000001  44.26399423999999 8.830399999999997  C 43.86079616000001 9.809599999999989  43.198393279999976 10.313600000000008  42.27679423999999 10.313600000000008  C 41.3551952 10.313600000000008  40.69279327999999 9.809599999999989  40.28959520000001 8.830399999999997  C 40.0015952 8.124800096000001  39.85759424 7.174399424000001  39.85759424 5.979199999999992  C 39.85759424 4.769600191999984  40.0015952 3.8191999999999666  40.28959520000001 3.128000192000002  Z M 53.407995200000016 1.3856005759999448  C 52.80319423999998 0.8815999999999917  51.996794239999986 0.6367999039999859  51.017594239999994 0.6367999039999859  C 50.03839327999998 0.6367999039999859  49.24639327999998 0.9103998080000224  48.64159519999998 1.471999808000021  C 48.00799520000001 2.0335998079999626  47.63359615999997 2.8112002879999523  47.54719616 3.804800096000008  L 48.71359615999998 3.804800096000008  C 48.78559328000003 3.1135998079999467  49.01599519999996 2.5808004799999935  49.41919328 2.2064001919999896  C 49.80799520000002 1.8319998079999777  50.340796160000025 1.6592004799999813  51.031993279999995 1.6592004799999813  C 51.69439616 1.6592004799999813  52.22719232000003 1.8176003839999453  52.60159519999996 2.1632000959999687  C 52.94719232 2.480000000000018  53.134396159999994 2.926400192000017  53.134396159999994 3.5024000960000308  C 53.134396159999994 4.078399999999988  52.94719232 4.524800096000035  52.587192319999986 4.841599999999971  C 52.22719232000003 5.144000096000013  51.7087952 5.302400095999985  51.017594239999994 5.302400095999985  L 50.22559328000003 5.302400095999985  L 50.22559328000003 6.2240000959999975  L 51.060796159999995 6.2240000959999975  C 51.78079616000002 6.2240000959999975  52.32799520000003 6.382400480000001  52.73119423999998 6.728000191999968  C 53.134396159999994 7.073599807999983  53.33599519999996 7.5487997120000045  53.33599519999996 8.168000191999965  C 53.33599519999996 8.772800000000018  53.119992319999994 9.27679999999998  52.71679424000001 9.680000000000007  C 52.27039424000003 10.0976  51.67999232 10.313600000000008  50.945593280000026 10.313600000000008  C 50.297594239999995 10.313600000000008  49.76479327999999 10.12639999999999  49.332793280000004 9.7808  C 48.82879519999997 9.363200000000006  48.555195200000014 8.743999999999971  48.52639327999998 7.93760038399995  L 47.331194239999974 7.93760038399995  C 47.41759424 9.089599999999962  47.820796160000015 9.968000000000018  48.555195200000014 10.572799999999972  C 49.174396159999986 11.062399999999968  49.96639327999998 11.32159999999999  50.945593280000026 11.32159999999999  C 52.01119423999995 11.32159999999999  52.87519520000001 11.019199999999955  53.53759424000003 10.4144  C 54.185593280000035 9.823999999999955  54.51679423999997 9.060800000000029  54.51679423999997 8.124800096000001  C 54.51679423999997 7.519999999999982  54.34399423999997 7.0160003839999945  53.99839327999996 6.612800288000017  C 53.681595200000004 6.209600191999982  53.22079616000002 5.921599999999955  52.615995199999986 5.7344002880000176  C 53.739193279999995 5.360000000000014  54.300796160000004 4.582400096000015  54.300796160000004 3.430399808000004  C 54.300796160000004 2.5664001920000032  53.99839327999996 1.889600191999989  53.407995200000016 1.3856005759999448  Z M 57.75679423999998 9.665599999999984  C 57.58399423999998 9.492799999999988  57.367995199999996 9.406399999999962  57.13759424 9.406399999999962  C 56.878393279999955 9.406399999999962  56.67679423999999 9.492799999999988  56.51839328 9.665599999999984  C 56.34559328 9.838400000000036  56.25919327999998 10.04000000000002  56.25919327999998 10.299199999999985  C 56.25919327999998 10.543999999999983  56.34559328 10.745600000000024  56.51839328 10.91840000000002  C 56.67679423999999 11.091200000000015  56.878393279999955 11.177599999999984  57.13759424 11.177599999999984  C 57.367995199999996 11.177599999999984  57.58399423999998 11.091200000000015  57.75679423999998 10.91840000000002  C 57.929595199999994 10.745600000000024  58.01599519999996 10.543999999999983  58.01599519999996 10.299199999999985  C 58.01599519999996 10.04000000000002  57.929595199999994 9.838400000000036  57.75679423999998 9.665599999999984  Z M 66.13759039999997 2.264000576000001  C 65.50399424 1.1696001919999617  64.58239520000001 0.6367999039999859  63.35839327999997 0.6367999039999859  C 62.119992319999994 0.6367999039999859  61.19839327999995 1.1696001919999617  60.57919327999997 2.264000576000001  C 60.031993279999995 3.185600575999956  59.75839327999995 4.424000095999986  59.75839327999995 5.979199999999992  C 59.75839327999995 7.534400287999972  60.031993279999995 8.772800000000018  60.57919327999997 9.694399999999973  C 61.19839327999995 10.774399999999957  62.119992319999994 11.32159999999999  63.35839327999997 11.32159999999999  C 64.58239520000001 11.32159999999999  65.50399424 10.774399999999957  66.13759039999997 9.694399999999973  C 66.6847904 8.772800000000018  66.95839328 7.534400287999972  66.95839328 5.979199999999992  C 66.95839328 4.424000095999986  66.6847904 3.185600575999956  66.13759039999997 2.264000576000001  Z M 61.371194239999966 3.128000192000002  C 61.774392320000004 2.134400287999995  62.43679423999998 1.6448000959999831  63.35839327999997 1.6448000959999831  C 64.27999232000002 1.6448000959999831  64.94239520000002 2.134400287999995  65.34559328 3.128000192000002  C 65.63359615999997 3.8191999999999666  65.79199711999996 4.769600191999984  65.79199711999996 5.979199999999992  C 65.79199711999996 7.174399424000001  65.63359615999997 8.124800096000001  65.34559328 8.830399999999997  C 64.94239520000002 9.809599999999989  64.27999232000002 10.313600000000008  63.35839327999997 10.313600000000008  C 62.43679423999998 10.313600000000008  61.774392320000004 9.809599999999989  61.371194239999966 8.830399999999997  C 61.08319136 8.124800096000001  60.93919711999996 7.174399424000001  60.93919711999996 5.979199999999992  C 60.93919711999996 4.769600191999984  61.08319136 3.8191999999999666  61.371194239999966 3.128000192000002  Z M 72 0.8384000000000356  L 70.99039040000002 0.8384000000000356  C 70.64479040000003 1.2272005760000297  70.24159135999997 1.5728002879999963  69.75199712 1.889600191999989  C 69.26239520000001 2.177600383999959  68.77279327999997 2.3792004799999518  68.31199712 2.508799711999984  L 68.31199712 3.6896001920000003  C 69.27679424000002 3.4015999999999735  70.08319136 2.940800480000007  70.73119423999998 2.2784000000000333  L 70.73119423999998 11.120000000000005  L 72 11.120000000000005  L 72 0.8384000000000356  Z M 82 0.8384000000000356  L 81.55999231999999 0.8384000000000356  C 81.21439232 1.2272005760000297  80.81119423999996 1.5728002879999963  80.32159136000001 1.889600191999989  C 79.83199711999998 2.177600383999959  79.3423952 2.3792004799999518  78.88159903999997 2.508799711999984  L 78.88159903999997 3.6896001920000003  C 79.84639615999998 3.4015999999999735  80.65279327999997 2.940800480000007  81.30079616 2.2784000000000333  L 81.30079616 11.120000000000005  L 82 11.120000000000005  L 82 0.8384000000000356  Z M 91.12159135999997 2.264000576000001  C 90.48799519999994 1.1696001919999617  89.56639615999995 0.6367999039999859  88.3423952 0.6367999039999859  C 87.10399423999996 0.6367999039999859  86.18239519999997 1.1696001919999617  85.56319808 2.264000576000001  C 85.01599808000003 3.185600575999956  84.74239519999998 4.424000095999986  84.74239519999998 5.979199999999992  C 84.74239519999998 7.534400287999972  85.01599808000003 8.772800000000018  85.56319808 9.694399999999973  C 86.18239519999997 10.774399999999957  87.10399423999996 11.32159999999999  88.3423952 11.32159999999999  C 89.56639615999995 11.32159999999999  90.48799519999994 10.774399999999957  91.12159135999997 9.694399999999973  C 91.66879136 8.772800000000018  91.94239520000002 7.534400287999972  91.94239520000002 5.979199999999992  C 91.94239520000002 4.424000095999986  91.66879136 3.185600575999956  91.12159135999997 2.264000576000001  Z M 86.35519520000003 3.128000192000002  C 86.75839327999995 2.134400287999995  87.42079616000001 1.6448000959999831  88.3423952 1.6448000959999831  C 89.26399423999999 1.6448000959999831  89.92639615999997 2.134400287999995  90.32959519999997 3.128000192000002  C 90.61759808 3.8191999999999666  90.77599135999998 4.769600191999984  90.77599135999998 5.979199999999992  C 90.77599135999998 7.174399424000001  90.61759808 8.124800096000001  90.32959519999997 8.830399999999997  C 89.92639615999997 9.809599999999989  89.26399423999999 10.313600000000008  88.3423952 10.313600000000008  C 87.42079616000001 10.313600000000008  86.75839327999995 9.809599999999989  86.35519520000003 8.830399999999997  C 86.06719232 8.124800096000001  85.92319808000002 7.174399424000001  85.92319808000002 5.979199999999992  C 85.92319808000002 4.769600191999984  86.06719232 3.8191999999999666  86.35519520000003 3.128000192000002  Z M 95.18239519999997 4.366400192000015  C 95.00959519999998 4.1936002879999705  94.79359615999999 4.107200191999993  94.56319808 4.107200191999993  C 94.30399424000001 4.107200191999993  94.10239519999999 4.1936002879999705  93.94399424 4.366400192000015  C 93.77119424 4.539199999999994  93.68479711999998 4.740800000000036  93.68479711999998 4.985600095999985  C 93.68479711999998 5.2304001919999905  93.77119424 5.446400191999999  93.94399424 5.619199999999978  C 94.10239519999999 5.777599903999999  94.30399424000001 5.864000095999984  94.56319808 5.864000095999984  C 94.79359615999999 5.864000095999984  95.00959519999998 5.777599903999999  95.18239519999997 5.619199999999978  C 95.35519520000003 5.446400191999999  95.44159136000002 5.2304001919999905  95.44159136000002 4.985600095999985  C 95.44159136000002 4.740800000000036  95.35519520000003 4.539199999999994  95.18239519999997 4.366400192000015  Z M 95.18239519999997 9.636799999999994  C 95.00959519999998 9.463999999999999  94.79359615999999 9.377599999999973  94.56319808 9.377599999999973  C 94.30399424000001 9.377599999999973  94.10239519999999 9.463999999999999  93.94399424 9.636799999999994  C 93.77119424 9.809599999999989  93.68479711999998 10.01120000000003  93.68479711999998 10.256000000000029  C 93.68479711999998 10.500800000000027  93.77119424 10.716799999999978  93.94399424 10.889599999999973  C 94.10239519999999 11.048000000000002  94.30399424000001 11.134399999999971  94.56319808 11.134399999999971  C 94.79359615999999 11.134399999999971  95.00959519999998 11.048000000000002  95.18239519999997 10.889599999999973  C 95.35519520000003 10.716799999999978  95.44159136000002 10.500800000000027  95.44159136000002 10.256000000000029  C 95.44159136000002 10.01120000000003  95.35519520000003 9.809599999999989  95.18239519999997 9.636799999999994  Z M 103.27519999999998 1.4576003839999885  C 102.65599040000001 0.9103998080000224  101.8783904 0.6367999039999859  100.928 0.6367999039999859  C 99.89119039999997 0.6367999039999859  99.04159040000002 0.982400479999967  98.40800000000002 1.673599807999949  C 97.77439040000002 2.35039980800002  97.44319039999999 3.2719998079999755  97.44319039999999 4.424000095999986  L 98.62399039999997 4.424000095999986  C 98.63839039999999 3.516800384000021  98.8543904 2.8256005759999994  99.25759999999997 2.3648000960000104  C 99.632 1.8751999039999987  100.17919999999998 1.6448000959999831  100.88479999999998 1.6448000959999831  C 101.54719040000003 1.6448000959999831  102.07999039999999 1.8176003839999453  102.45439040000002 2.1632000959999687  C 102.8287904 2.508799711999984  103.01599039999996 2.9840005759999713  103.01599039999996 3.6175999039999738  C 103.01599039999996 4.279999999999973  102.74239039999998 4.899199999999951  102.22399039999999 5.460800000000006  C 101.9503904 5.748800192000033  101.4176 6.166400192000026  100.6111904 6.742400480000015  C 99.51679039999999 7.491200287999959  98.78239039999994 8.110399808000011  98.37919999999997 8.571200000000033  C 97.68799999999999 9.33439999999996  97.35679040000002 10.183999999999969  97.35679040000002 11.120000000000005  L 104.21119039999996 11.120000000000005  L 104.21119039999996 10.068799999999953  L 98.81119039999999 10.068799999999953  C 98.9983904 9.377599999999973  99.74719040000002 8.585600960000022  101.05759999999998 7.707199711999976  C 102.1231904 6.987199711999949  102.8287904 6.425600575999965  103.18879039999996 6.051200287999961  C 103.85119040000001 5.331200287999991  104.1967904 4.524800096000035  104.1967904 3.632000287999972  C 104.1967904 2.7392004799999654  103.8799904 2.0048000959999968  103.27519999999998 1.4576003839999885  Z M 111.91519999999997 1.3856005759999448  C 111.31039040000002 0.8815999999999917  110.50399039999996 0.6367999039999859  109.52479999999997 0.6367999039999859  C 108.54559039999998 0.6367999039999859  107.75359999999995 0.9103998080000224  107.1487904 1.471999808000021  C 106.5152 2.0335998079999626  106.14080000000001 2.8112002879999523  106.05439039999999 3.804800096000008  L 107.2208 3.804800096000008  C 107.29279039999994 3.1135998079999467  107.52319039999998 2.5808004799999935  107.9264 2.2064001919999896  C 108.3152 1.8319998079999777  108.84800000000001 1.6592004799999813  109.5392 1.6592004799999813  C 110.20159039999999 1.6592004799999813  110.7343904 1.8176003839999453  111.10879039999998 2.1632000959999687  C 111.45439040000002 2.480000000000018  111.64159039999998 2.926400192000017  111.64159039999998 3.5024000960000308  C 111.64159039999998 4.078399999999988  111.45439040000002 4.524800096000035  111.09439040000001 4.841599999999971  C 110.7343904 5.144000096000013  110.21599039999995 5.302400095999985  109.52479999999997 5.302400095999985  L 108.73279039999994 5.302400095999985  L 108.73279039999994 6.2240000959999975  L 109.56799999999998 6.2240000959999975  C 110.28800000000001 6.2240000959999975  110.83519999999999 6.382400480000001  111.23839039999996 6.728000191999968  C 111.64159039999998 7.073599807999983  111.84319039999997 7.5487997120000045  111.84319039999997 8.168000191999965  C 111.84319039999997 8.772800000000018  111.62719040000002 9.27679999999998  111.22399039999999 9.680000000000007  C 110.7776 10.0976  110.18719040000002 10.313600000000008  109.45279039999997 10.313600000000008  C 108.8048 10.313600000000008  108.27199999999999 10.12639999999999  107.83999040000003 9.7808  C 107.33599039999996 9.363200000000006  107.06239039999997 8.743999999999971  107.03359999999998 7.93760038399995  L 105.83839039999998 7.93760038399995  C 105.9248 9.089599999999962  106.32799999999997 9.968000000000018  107.06239039999997 10.572799999999972  C 107.6815904 11.062399999999968  108.47359999999998 11.32159999999999  109.45279039999997 11.32159999999999  C 110.51839039999999 11.32159999999999  111.38239039999996 11.019199999999955  112.04480000000001 10.4144  C 112.69279039999998 9.823999999999955  113.0239904 9.060800000000029  113.0239904 8.124800096000001  C 113.0239904 7.519999999999982  112.85119040000001 7.0160003839999945  112.50559039999996 6.612800288000017  C 112.18879039999996 6.209600191999982  111.72800000000001 5.921599999999955  111.1231904 5.7344002880000176  C 112.2464 5.360000000000014  112.80799999999999 4.582400096000015  112.80799999999999 3.430399808000004  C 112.80799999999999 2.5664001920000032  112.50559039999996 1.889600191999989  111.91519999999997 1.3856005759999448  Z M 116.26399040000001 4.366400192000015  C 116.09119039999996 4.1936002879999705  115.8752 4.107200191999993  115.64479999999998 4.107200191999993  C 115.38559039999996 4.107200191999993  115.18399039999997 4.1936002879999705  115.0255904 4.366400192000015  C 114.85279039999995 4.539199999999994  114.76640000000003 4.740800000000036  114.76640000000003 4.985600095999985  C 114.76640000000003 5.2304001919999905  114.85279039999995 5.446400191999999  115.0255904 5.619199999999978  C 115.18399039999997 5.777599903999999  115.38559039999996 5.864000095999984  115.64479999999998 5.864000095999984  C 115.8752 5.864000095999984  116.09119039999996 5.777599903999999  116.26399040000001 5.619199999999978  C 116.4367904 5.446400191999999  116.52319039999998 5.2304001919999905  116.52319039999998 4.985600095999985  C 116.52319039999998 4.740800000000036  116.4367904 4.539199999999994  116.26399040000001 4.366400192000015  Z M 116.26399040000001 9.636799999999994  C 116.09119039999996 9.463999999999999  115.8752 9.377599999999973  115.64479999999998 9.377599999999973  C 115.38559039999996 9.377599999999973  115.18399039999997 9.463999999999999  115.0255904 9.636799999999994  C 114.85279039999995 9.809599999999989  114.76640000000003 10.01120000000003  114.76640000000003 10.256000000000029  C 114.76640000000003 10.500800000000027  114.85279039999995 10.716799999999978  115.0255904 10.889599999999973  C 115.18399039999997 11.048000000000002  115.38559039999996 11.134399999999971  115.64479999999998 11.134399999999971  C 115.8752 11.134399999999971  116.09119039999996 11.048000000000002  116.26399040000001 10.889599999999973  C 116.4367904 10.716799999999978  116.52319039999998 10.500800000000027  116.52319039999998 10.256000000000029  C 116.52319039999998 10.01120000000003  116.4367904 9.809599999999989  116.26399040000001 9.636799999999994  Z M 121 0.8384000000000356  L 120.85759039999994 0.8384000000000356  C 120.5119904 1.2272005760000297  120.10879039999998 1.5728002879999963  119.61919039999998 1.889600191999989  C 119.12959039999998 2.177600383999959  118.63999039999999 2.3792004799999518  118.17919999999998 2.508799711999984  L 118.17919999999998 3.6896001920000003  C 119.1439904 3.4015999999999735  119.9503904 2.940800480000007  120.59839039999997 2.2784000000000333  L 120.59839039999997 11.120000000000005  L 121 11.120000000000005  L 121 0.8384000000000356  Z M 130.13120000000004 1.4576003839999885  C 129.512 0.9103998080000224  128.7344 0.6367999039999859  127.7839904 0.6367999039999859  C 126.74720960000002 0.6367999039999859  125.89760000000001 0.982400479999967  125.26399040000001 1.673599807999949  C 124.63040959999995 2.35039980800002  124.29919999999998 3.2719998079999755  124.29919999999998 4.424000095999986  L 125.47999999999996 4.424000095999986  C 125.49439999999998 3.516800384000021  125.71040959999999 2.8256005759999994  126.11359999999996 2.3648000960000104  C 126.488 1.8751999039999987  127.03519999999997 1.6448000959999831  127.74079999999998 1.6448000959999831  C 128.40319999999997 1.6448000959999831  128.93600959999998 1.8176003839999453  129.31040959999996 2.1632000959999687  C 129.6848 2.508799711999984  129.87199999999996 2.9840005759999713  129.87199999999996 3.6175999039999738  C 129.87199999999996 4.279999999999973  129.59839039999997 4.899199999999951  129.07999999999998 5.460800000000006  C 128.8064 5.748800192000033  128.27359999999993 6.166400192000026  127.46720959999999 6.742400480000015  C 126.37279039999999 7.491200287999959  125.63839039999999 8.110399808000011  125.23520000000002 8.571200000000033  C 124.54399039999998 9.33439999999996  124.21279039999996 10.183999999999969  124.21279039999996 11.120000000000005  L 131.0672096 11.120000000000005  L 131.0672096 10.068799999999953  L 125.66720960000004 10.068799999999953  C 125.8544 9.377599999999973  126.60319999999996 8.585600960000022  127.91359999999997 7.707199711999976  C 128.9792 6.987199711999949  129.6848 6.425600575999965  130.0448 6.051200287999961  C 130.7072096 5.331200287999991  131.0527904 4.524800096000035  131.0527904 3.632000287999972  C 131.0527904 2.7392004799999654  130.7360096 2.0048000959999968  130.13120000000004 1.4576003839999885  Z " fill-rule="evenodd" />
    </mask>
  </defs>
  <g transform="matrix(1 0 0 1 -1960 -474 )">
    <path d="M 6.406395103999984 1.4576003839999885  C 5.787195104000006 0.9103998080000224  5.009595200000007 0.6367999039999859  4.059195391999992 0.6367999039999859  C 3.022395295999985 0.6367999039999859  2.172795296000004 0.982400479999967  1.5391951999999947 1.673599807999949  C 0.9055952959999729 2.35039980800002  0.5743952959999774 3.2719998079999755  0.5743952959999774 4.424000095999986  L 1.7551952960000108 4.424000095999986  C 1.7695951999999977 3.516800384000021  1.9855952959999854 2.8256005759999994  2.388795200000004 2.3648000960000104  C 2.763195295999992 1.8751999039999987  3.310395199999988 1.6448000959999831  4.015995296 1.6448000959999831  C 4.678395391999999 1.6448000959999831  5.211195199999992 1.8176003839999453  5.585595103999992 2.1632000959999687  C 5.959995007999993 2.508799711999984  6.147195103999991 2.9840005759999713  6.147195103999991 3.6175999039999738  C 6.147195103999991 4.279999999999973  5.873595295999991 4.899199999999951  5.355195296000005 5.460800000000006  C 5.081595007999994 5.748800192000033  4.548795200000001 6.166400192000026  3.7423950079999884 6.742400480000015  C 2.647995103999989 7.491200287999959  1.9135952959999827 8.110399808000011  1.5103951999999765 8.571200000000033  C 0.8191952959999753 9.33439999999996  0.4879953920000162 10.183999999999969  0.4879953920000162 11.120000000000005  L 7.342395007999983 11.120000000000005  L 7.342395007999983 10.068799999999953  L 1.9423952960000008 10.068799999999953  C 2.129595199999983 9.377599999999973  2.8783952 8.585600960000022  4.1887952000000155 7.707199711999976  C 5.254395295999984 6.987199711999949  5.959995007999993 6.425600575999965  6.319995007999978 6.051200287999961  C 6.9823950079999975 5.331200287999991  7.327994719999992 4.524800096000035  7.327994719999992 3.632000287999972  C 7.327994719999992 2.7392004799999654  7.011195200000003 2.0048000959999968  6.406395103999984 1.4576003839999885  Z M 15.334396159999983 2.264000576000001  C 14.700795199999988 1.1696001919999617  13.779195199999975 0.6367999039999859  12.555195199999986 0.6367999039999859  C 11.316795200000001 0.6367999039999859  10.39519519999999 1.1696001919999617  9.775995200000011 2.264000576000001  C 9.228795199999979 3.185600575999956  8.955195296 4.424000095999986  8.955195296 5.979199999999992  C 8.955195296 7.534400287999972  9.228795199999979 8.772800000000018  9.775995200000011 9.694399999999973  C 10.39519519999999 10.774399999999957  11.316795200000001 11.32159999999999  12.555195199999986 11.32159999999999  C 13.779195199999975 11.32159999999999  14.700795199999988 10.774399999999957  15.334396159999983 9.694399999999973  C 15.881595199999992 8.772800000000018  16.15519519999998 7.534400287999972  16.15519519999998 5.979199999999992  C 16.15519519999998 4.424000095999986  15.881595199999992 3.185600575999956  15.334396159999983 2.264000576000001  Z M 10.567995199999984 3.128000192000002  C 10.971195200000011 2.134400287999995  11.633595200000002 1.6448000959999831  12.555195199999986 1.6448000959999831  C 13.476795199999998 1.6448000959999831  14.139195199999989 2.134400287999995  14.542395200000016 3.128000192000002  C 14.830395199999998 3.8191999999999666  14.98879519999997 4.769600191999984  14.98879519999997 5.979199999999992  C 14.98879519999997 7.174399424000001  14.830395199999998 8.124800096000001  14.542395200000016 8.830399999999997  C 14.139195199999989 9.809599999999989  13.476795199999998 10.313600000000008  12.555195199999986 10.313600000000008  C 11.633595200000002 10.313600000000008  10.971195200000011 9.809599999999989  10.567995199999984 8.830399999999997  C 10.279995200000002 8.124800096000001  10.135995199999996 7.174399424000001  10.135995199999996 5.979199999999992  C 10.135995199999996 4.769600191999984  10.279995200000002 3.8191999999999666  10.567995199999984 3.128000192000002  Z M 23.68639423999997 1.4576003839999885  C 23.06719616000001 0.9103998080000224  22.289595200000008 0.6367999039999859  21.339195199999978 0.6367999039999859  C 20.302395200000007 0.6367999039999859  19.452795199999997 0.982400479999967  18.819195199999996 1.673599807999949  C 18.185595199999995 2.35039980800002  17.854396159999993 3.2719998079999755  17.854396159999993 4.424000095999986  L 19.035195199999976 4.424000095999986  C 19.0495952 3.516800384000021  19.26559519999998 2.8256005759999994  19.668795199999977 2.3648000960000104  C 20.04319423999999 1.8751999039999987  20.590394239999995 1.6448000959999831  21.295995199999993 1.6448000959999831  C 21.958395199999984 1.6448000959999831  22.491195199999993 1.8176003839999453  22.8655952 2.1632000959999687  C 23.239994240000016 2.508799711999984  23.427196159999994 2.9840005759999713  23.427196159999994 3.6175999039999738  C 23.427196159999994 4.279999999999973  23.153596160000006 4.899199999999951  22.63519519999997 5.460800000000006  C 22.361595199999982 5.748800192000033  21.828795199999973 6.166400192000026  21.022395200000005 6.742400480000015  C 19.927995199999998 7.491200287999959  19.19359616 8.110399808000011  18.790396159999972 8.571200000000033  C 18.099195199999997 9.33439999999996  17.7679952 10.183999999999969  17.7679952 11.120000000000005  L 24.6223952 11.120000000000005  L 24.6223952 10.068799999999953  L 19.222395199999994 10.068799999999953  C 19.409595199999984 9.377599999999973  20.1583952 8.585600960000022  21.468795199999988 7.707199711999976  C 22.53439616 6.987199711999949  23.239994240000016 6.425600575999965  23.59999424 6.051200287999961  C 24.262395200000014 5.331200287999991  24.607995199999976 4.524800096000035  24.607995199999976 3.632000287999972  C 24.607995199999976 2.7392004799999654  24.291195200000004 2.0048000959999968  23.68639423999997 1.4576003839999885  Z M 33.00319424 0.8384000000000356  L 27.02719615999999 0.8384000000000356  L 26.479994239999996 6.512000768000007  L 27.603194239999993 6.512000768000007  C 27.8047952 6.10880019199999  28.121595199999973 5.792000287999997  28.5247952 5.590400192000004  C 28.913596159999997 5.374400288000004  29.34559519999999 5.273600287999955  29.835195199999987 5.273600287999955  C 30.58399423999998 5.273600287999955  31.174396159999986 5.489600191999955  31.591997119999974 5.950400192000018  C 32.02399423999998 6.396799904000034  32.25439616 7.030399808000027  32.25439616 7.851200287999973  C 32.25439616 8.571200000000033  32.00959520000001 9.161599999999964  31.548795199999972 9.622400959999993  C 31.073596159999994 10.083200000000033  30.48319423999999 10.313600000000008  29.76319423999999 10.313600000000008  C 29.129595199999983 10.313600000000008  28.59679423999998 10.15519999999998  28.19359616 9.852800000000002  C 27.73279519999997 9.507200000000012  27.47359616 9.003199999999993  27.415995199999998 8.355200000000025  L 26.249595199999987 8.355200000000025  C 26.32159519999999 9.291200000000003  26.710396159999988 10.04000000000002  27.430396159999987 10.587199999999996  C 28.063996159999988 11.076799999999992  28.841595199999972 11.32159999999999  29.74879519999999 11.32159999999999  C 30.756794239999977 11.32159999999999  31.620796159999998 11.004799999999989  32.31199712 10.38560000000001  C 33.04639615999997 9.72320000000002  33.42079615999998 8.87360000000001  33.42079615999998 7.836799904000031  C 33.42079615999998 6.728000191999968  33.10399423999999 5.864000095999984  32.49919711999999 5.2304001919999905  C 31.894396159999985 4.611200287999964  31.10239519999999 4.308800192000035  30.123194240000004 4.308800192000035  C 29.647995199999997 4.308800192000035  29.21599520000001 4.380800000000022  28.812795199999982 4.553600287999984  C 28.366394239999977 4.726400192000028  27.99199519999999 4.985600095999985  27.703996159999974 5.331200287999991  L 27.646394239999978 5.331200287999991  L 27.99199519999999 1.889600191999989  L 33.00319424 1.889600191999989  L 33.00319424 0.8384000000000356  Z M 36.67519520000002 9.665599999999984  C 36.502395199999995 9.492799999999988  36.28639615999998 9.406399999999962  36.055995199999984 9.406399999999962  C 35.79679424 9.406399999999962  35.595195200000006 9.492799999999988  35.43679423999998 9.665599999999984  C 35.26399423999999 9.838400000000036  35.17759424000002 10.04000000000002  35.17759424000002 10.299199999999985  C 35.17759424000002 10.543999999999983  35.26399423999999 10.745600000000024  35.43679423999998 10.91840000000002  C 35.595195200000006 11.091200000000015  35.79679424 11.177599999999984  36.055995199999984 11.177599999999984  C 36.28639615999998 11.177599999999984  36.502395199999995 11.091200000000015  36.67519520000002 10.91840000000002  C 36.847995199999986 10.745600000000024  36.93439615999998 10.543999999999983  36.93439615999998 10.299199999999985  C 36.93439615999998 10.04000000000002  36.847995199999986 9.838400000000036  36.67519520000002 9.665599999999984  Z M 45.055995199999984 2.264000576000001  C 44.42239520000001 1.1696001919999617  43.50079616000002 0.6367999039999859  42.27679423999999 0.6367999039999859  C 41.03839327999998 0.6367999039999859  40.11679423999999 1.1696001919999617  39.49759424000001 2.264000576000001  C 38.95039423999998 3.185600575999956  38.67679423999999 4.424000095999986  38.67679423999999 5.979199999999992  C 38.67679423999999 7.534400287999972  38.95039423999998 8.772800000000018  39.49759424000001 9.694399999999973  C 40.11679423999999 10.774399999999957  41.03839327999998 11.32159999999999  42.27679423999999 11.32159999999999  C 43.50079616000002 11.32159999999999  44.42239520000001 10.774399999999957  45.055995199999984 9.694399999999973  C 45.603194239999965 8.772800000000018  45.87679423999998 7.534400287999972  45.87679423999998 5.979199999999992  C 45.87679423999998 4.424000095999986  45.603194239999965 3.185600575999956  45.055995199999984 2.264000576000001  Z M 40.28959520000001 3.128000192000002  C 40.69279327999999 2.134400287999995  41.3551952 1.6448000959999831  42.27679423999999 1.6448000959999831  C 43.198393279999976 1.6448000959999831  43.86079616000001 2.134400287999995  44.26399423999999 3.128000192000002  C 44.551993280000005 3.8191999999999666  44.71039424000003 4.769600191999984  44.71039424000003 5.979199999999992  C 44.71039424000003 7.174399424000001  44.551993280000005 8.124800096000001  44.26399423999999 8.830399999999997  C 43.86079616000001 9.809599999999989  43.198393279999976 10.313600000000008  42.27679423999999 10.313600000000008  C 41.3551952 10.313600000000008  40.69279327999999 9.809599999999989  40.28959520000001 8.830399999999997  C 40.0015952 8.124800096000001  39.85759424 7.174399424000001  39.85759424 5.979199999999992  C 39.85759424 4.769600191999984  40.0015952 3.8191999999999666  40.28959520000001 3.128000192000002  Z M 53.407995200000016 1.3856005759999448  C 52.80319423999998 0.8815999999999917  51.996794239999986 0.6367999039999859  51.017594239999994 0.6367999039999859  C 50.03839327999998 0.6367999039999859  49.24639327999998 0.9103998080000224  48.64159519999998 1.471999808000021  C 48.00799520000001 2.0335998079999626  47.63359615999997 2.8112002879999523  47.54719616 3.804800096000008  L 48.71359615999998 3.804800096000008  C 48.78559328000003 3.1135998079999467  49.01599519999996 2.5808004799999935  49.41919328 2.2064001919999896  C 49.80799520000002 1.8319998079999777  50.340796160000025 1.6592004799999813  51.031993279999995 1.6592004799999813  C 51.69439616 1.6592004799999813  52.22719232000003 1.8176003839999453  52.60159519999996 2.1632000959999687  C 52.94719232 2.480000000000018  53.134396159999994 2.926400192000017  53.134396159999994 3.5024000960000308  C 53.134396159999994 4.078399999999988  52.94719232 4.524800096000035  52.587192319999986 4.841599999999971  C 52.22719232000003 5.144000096000013  51.7087952 5.302400095999985  51.017594239999994 5.302400095999985  L 50.22559328000003 5.302400095999985  L 50.22559328000003 6.2240000959999975  L 51.060796159999995 6.2240000959999975  C 51.78079616000002 6.2240000959999975  52.32799520000003 6.382400480000001  52.73119423999998 6.728000191999968  C 53.134396159999994 7.073599807999983  53.33599519999996 7.5487997120000045  53.33599519999996 8.168000191999965  C 53.33599519999996 8.772800000000018  53.119992319999994 9.27679999999998  52.71679424000001 9.680000000000007  C 52.27039424000003 10.0976  51.67999232 10.313600000000008  50.945593280000026 10.313600000000008  C 50.297594239999995 10.313600000000008  49.76479327999999 10.12639999999999  49.332793280000004 9.7808  C 48.82879519999997 9.363200000000006  48.555195200000014 8.743999999999971  48.52639327999998 7.93760038399995  L 47.331194239999974 7.93760038399995  C 47.41759424 9.089599999999962  47.820796160000015 9.968000000000018  48.555195200000014 10.572799999999972  C 49.174396159999986 11.062399999999968  49.96639327999998 11.32159999999999  50.945593280000026 11.32159999999999  C 52.01119423999995 11.32159999999999  52.87519520000001 11.019199999999955  53.53759424000003 10.4144  C 54.185593280000035 9.823999999999955  54.51679423999997 9.060800000000029  54.51679423999997 8.124800096000001  C 54.51679423999997 7.519999999999982  54.34399423999997 7.0160003839999945  53.99839327999996 6.612800288000017  C 53.681595200000004 6.209600191999982  53.22079616000002 5.921599999999955  52.615995199999986 5.7344002880000176  C 53.739193279999995 5.360000000000014  54.300796160000004 4.582400096000015  54.300796160000004 3.430399808000004  C 54.300796160000004 2.5664001920000032  53.99839327999996 1.889600191999989  53.407995200000016 1.3856005759999448  Z M 57.75679423999998 9.665599999999984  C 57.58399423999998 9.492799999999988  57.367995199999996 9.406399999999962  57.13759424 9.406399999999962  C 56.878393279999955 9.406399999999962  56.67679423999999 9.492799999999988  56.51839328 9.665599999999984  C 56.34559328 9.838400000000036  56.25919327999998 10.04000000000002  56.25919327999998 10.299199999999985  C 56.25919327999998 10.543999999999983  56.34559328 10.745600000000024  56.51839328 10.91840000000002  C 56.67679423999999 11.091200000000015  56.878393279999955 11.177599999999984  57.13759424 11.177599999999984  C 57.367995199999996 11.177599999999984  57.58399423999998 11.091200000000015  57.75679423999998 10.91840000000002  C 57.929595199999994 10.745600000000024  58.01599519999996 10.543999999999983  58.01599519999996 10.299199999999985  C 58.01599519999996 10.04000000000002  57.929595199999994 9.838400000000036  57.75679423999998 9.665599999999984  Z M 66.13759039999997 2.264000576000001  C 65.50399424 1.1696001919999617  64.58239520000001 0.6367999039999859  63.35839327999997 0.6367999039999859  C 62.119992319999994 0.6367999039999859  61.19839327999995 1.1696001919999617  60.57919327999997 2.264000576000001  C 60.031993279999995 3.185600575999956  59.75839327999995 4.424000095999986  59.75839327999995 5.979199999999992  C 59.75839327999995 7.534400287999972  60.031993279999995 8.772800000000018  60.57919327999997 9.694399999999973  C 61.19839327999995 10.774399999999957  62.119992319999994 11.32159999999999  63.35839327999997 11.32159999999999  C 64.58239520000001 11.32159999999999  65.50399424 10.774399999999957  66.13759039999997 9.694399999999973  C 66.6847904 8.772800000000018  66.95839328 7.534400287999972  66.95839328 5.979199999999992  C 66.95839328 4.424000095999986  66.6847904 3.185600575999956  66.13759039999997 2.264000576000001  Z M 61.371194239999966 3.128000192000002  C 61.774392320000004 2.134400287999995  62.43679423999998 1.6448000959999831  63.35839327999997 1.6448000959999831  C 64.27999232000002 1.6448000959999831  64.94239520000002 2.134400287999995  65.34559328 3.128000192000002  C 65.63359615999997 3.8191999999999666  65.79199711999996 4.769600191999984  65.79199711999996 5.979199999999992  C 65.79199711999996 7.174399424000001  65.63359615999997 8.124800096000001  65.34559328 8.830399999999997  C 64.94239520000002 9.809599999999989  64.27999232000002 10.313600000000008  63.35839327999997 10.313600000000008  C 62.43679423999998 10.313600000000008  61.774392320000004 9.809599999999989  61.371194239999966 8.830399999999997  C 61.08319136 8.124800096000001  60.93919711999996 7.174399424000001  60.93919711999996 5.979199999999992  C 60.93919711999996 4.769600191999984  61.08319136 3.8191999999999666  61.371194239999966 3.128000192000002  Z M 72 0.8384000000000356  L 70.99039040000002 0.8384000000000356  C 70.64479040000003 1.2272005760000297  70.24159135999997 1.5728002879999963  69.75199712 1.889600191999989  C 69.26239520000001 2.177600383999959  68.77279327999997 2.3792004799999518  68.31199712 2.508799711999984  L 68.31199712 3.6896001920000003  C 69.27679424000002 3.4015999999999735  70.08319136 2.940800480000007  70.73119423999998 2.2784000000000333  L 70.73119423999998 11.120000000000005  L 72 11.120000000000005  L 72 0.8384000000000356  Z M 82 0.8384000000000356  L 81.55999231999999 0.8384000000000356  C 81.21439232 1.2272005760000297  80.81119423999996 1.5728002879999963  80.32159136000001 1.889600191999989  C 79.83199711999998 2.177600383999959  79.3423952 2.3792004799999518  78.88159903999997 2.508799711999984  L 78.88159903999997 3.6896001920000003  C 79.84639615999998 3.4015999999999735  80.65279327999997 2.940800480000007  81.30079616 2.2784000000000333  L 81.30079616 11.120000000000005  L 82 11.120000000000005  L 82 0.8384000000000356  Z M 91.12159135999997 2.264000576000001  C 90.48799519999994 1.1696001919999617  89.56639615999995 0.6367999039999859  88.3423952 0.6367999039999859  C 87.10399423999996 0.6367999039999859  86.18239519999997 1.1696001919999617  85.56319808 2.264000576000001  C 85.01599808000003 3.185600575999956  84.74239519999998 4.424000095999986  84.74239519999998 5.979199999999992  C 84.74239519999998 7.534400287999972  85.01599808000003 8.772800000000018  85.56319808 9.694399999999973  C 86.18239519999997 10.774399999999957  87.10399423999996 11.32159999999999  88.3423952 11.32159999999999  C 89.56639615999995 11.32159999999999  90.48799519999994 10.774399999999957  91.12159135999997 9.694399999999973  C 91.66879136 8.772800000000018  91.94239520000002 7.534400287999972  91.94239520000002 5.979199999999992  C 91.94239520000002 4.424000095999986  91.66879136 3.185600575999956  91.12159135999997 2.264000576000001  Z M 86.35519520000003 3.128000192000002  C 86.75839327999995 2.134400287999995  87.42079616000001 1.6448000959999831  88.3423952 1.6448000959999831  C 89.26399423999999 1.6448000959999831  89.92639615999997 2.134400287999995  90.32959519999997 3.128000192000002  C 90.61759808 3.8191999999999666  90.77599135999998 4.769600191999984  90.77599135999998 5.979199999999992  C 90.77599135999998 7.174399424000001  90.61759808 8.124800096000001  90.32959519999997 8.830399999999997  C 89.92639615999997 9.809599999999989  89.26399423999999 10.313600000000008  88.3423952 10.313600000000008  C 87.42079616000001 10.313600000000008  86.75839327999995 9.809599999999989  86.35519520000003 8.830399999999997  C 86.06719232 8.124800096000001  85.92319808000002 7.174399424000001  85.92319808000002 5.979199999999992  C 85.92319808000002 4.769600191999984  86.06719232 3.8191999999999666  86.35519520000003 3.128000192000002  Z M 95.18239519999997 4.366400192000015  C 95.00959519999998 4.1936002879999705  94.79359615999999 4.107200191999993  94.56319808 4.107200191999993  C 94.30399424000001 4.107200191999993  94.10239519999999 4.1936002879999705  93.94399424 4.366400192000015  C 93.77119424 4.539199999999994  93.68479711999998 4.740800000000036  93.68479711999998 4.985600095999985  C 93.68479711999998 5.2304001919999905  93.77119424 5.446400191999999  93.94399424 5.619199999999978  C 94.10239519999999 5.777599903999999  94.30399424000001 5.864000095999984  94.56319808 5.864000095999984  C 94.79359615999999 5.864000095999984  95.00959519999998 5.777599903999999  95.18239519999997 5.619199999999978  C 95.35519520000003 5.446400191999999  95.44159136000002 5.2304001919999905  95.44159136000002 4.985600095999985  C 95.44159136000002 4.740800000000036  95.35519520000003 4.539199999999994  95.18239519999997 4.366400192000015  Z M 95.18239519999997 9.636799999999994  C 95.00959519999998 9.463999999999999  94.79359615999999 9.377599999999973  94.56319808 9.377599999999973  C 94.30399424000001 9.377599999999973  94.10239519999999 9.463999999999999  93.94399424 9.636799999999994  C 93.77119424 9.809599999999989  93.68479711999998 10.01120000000003  93.68479711999998 10.256000000000029  C 93.68479711999998 10.500800000000027  93.77119424 10.716799999999978  93.94399424 10.889599999999973  C 94.10239519999999 11.048000000000002  94.30399424000001 11.134399999999971  94.56319808 11.134399999999971  C 94.79359615999999 11.134399999999971  95.00959519999998 11.048000000000002  95.18239519999997 10.889599999999973  C 95.35519520000003 10.716799999999978  95.44159136000002 10.500800000000027  95.44159136000002 10.256000000000029  C 95.44159136000002 10.01120000000003  95.35519520000003 9.809599999999989  95.18239519999997 9.636799999999994  Z M 103.27519999999998 1.4576003839999885  C 102.65599040000001 0.9103998080000224  101.8783904 0.6367999039999859  100.928 0.6367999039999859  C 99.89119039999997 0.6367999039999859  99.04159040000002 0.982400479999967  98.40800000000002 1.673599807999949  C 97.77439040000002 2.35039980800002  97.44319039999999 3.2719998079999755  97.44319039999999 4.424000095999986  L 98.62399039999997 4.424000095999986  C 98.63839039999999 3.516800384000021  98.8543904 2.8256005759999994  99.25759999999997 2.3648000960000104  C 99.632 1.8751999039999987  100.17919999999998 1.6448000959999831  100.88479999999998 1.6448000959999831  C 101.54719040000003 1.6448000959999831  102.07999039999999 1.8176003839999453  102.45439040000002 2.1632000959999687  C 102.8287904 2.508799711999984  103.01599039999996 2.9840005759999713  103.01599039999996 3.6175999039999738  C 103.01599039999996 4.279999999999973  102.74239039999998 4.899199999999951  102.22399039999999 5.460800000000006  C 101.9503904 5.748800192000033  101.4176 6.166400192000026  100.6111904 6.742400480000015  C 99.51679039999999 7.491200287999959  98.78239039999994 8.110399808000011  98.37919999999997 8.571200000000033  C 97.68799999999999 9.33439999999996  97.35679040000002 10.183999999999969  97.35679040000002 11.120000000000005  L 104.21119039999996 11.120000000000005  L 104.21119039999996 10.068799999999953  L 98.81119039999999 10.068799999999953  C 98.9983904 9.377599999999973  99.74719040000002 8.585600960000022  101.05759999999998 7.707199711999976  C 102.1231904 6.987199711999949  102.8287904 6.425600575999965  103.18879039999996 6.051200287999961  C 103.85119040000001 5.331200287999991  104.1967904 4.524800096000035  104.1967904 3.632000287999972  C 104.1967904 2.7392004799999654  103.8799904 2.0048000959999968  103.27519999999998 1.4576003839999885  Z M 111.91519999999997 1.3856005759999448  C 111.31039040000002 0.8815999999999917  110.50399039999996 0.6367999039999859  109.52479999999997 0.6367999039999859  C 108.54559039999998 0.6367999039999859  107.75359999999995 0.9103998080000224  107.1487904 1.471999808000021  C 106.5152 2.0335998079999626  106.14080000000001 2.8112002879999523  106.05439039999999 3.804800096000008  L 107.2208 3.804800096000008  C 107.29279039999994 3.1135998079999467  107.52319039999998 2.5808004799999935  107.9264 2.2064001919999896  C 108.3152 1.8319998079999777  108.84800000000001 1.6592004799999813  109.5392 1.6592004799999813  C 110.20159039999999 1.6592004799999813  110.7343904 1.8176003839999453  111.10879039999998 2.1632000959999687  C 111.45439040000002 2.480000000000018  111.64159039999998 2.926400192000017  111.64159039999998 3.5024000960000308  C 111.64159039999998 4.078399999999988  111.45439040000002 4.524800096000035  111.09439040000001 4.841599999999971  C 110.7343904 5.144000096000013  110.21599039999995 5.302400095999985  109.52479999999997 5.302400095999985  L 108.73279039999994 5.302400095999985  L 108.73279039999994 6.2240000959999975  L 109.56799999999998 6.2240000959999975  C 110.28800000000001 6.2240000959999975  110.83519999999999 6.382400480000001  111.23839039999996 6.728000191999968  C 111.64159039999998 7.073599807999983  111.84319039999997 7.5487997120000045  111.84319039999997 8.168000191999965  C 111.84319039999997 8.772800000000018  111.62719040000002 9.27679999999998  111.22399039999999 9.680000000000007  C 110.7776 10.0976  110.18719040000002 10.313600000000008  109.45279039999997 10.313600000000008  C 108.8048 10.313600000000008  108.27199999999999 10.12639999999999  107.83999040000003 9.7808  C 107.33599039999996 9.363200000000006  107.06239039999997 8.743999999999971  107.03359999999998 7.93760038399995  L 105.83839039999998 7.93760038399995  C 105.9248 9.089599999999962  106.32799999999997 9.968000000000018  107.06239039999997 10.572799999999972  C 107.6815904 11.062399999999968  108.47359999999998 11.32159999999999  109.45279039999997 11.32159999999999  C 110.51839039999999 11.32159999999999  111.38239039999996 11.019199999999955  112.04480000000001 10.4144  C 112.69279039999998 9.823999999999955  113.0239904 9.060800000000029  113.0239904 8.124800096000001  C 113.0239904 7.519999999999982  112.85119040000001 7.0160003839999945  112.50559039999996 6.612800288000017  C 112.18879039999996 6.209600191999982  111.72800000000001 5.921599999999955  111.1231904 5.7344002880000176  C 112.2464 5.360000000000014  112.80799999999999 4.582400096000015  112.80799999999999 3.430399808000004  C 112.80799999999999 2.5664001920000032  112.50559039999996 1.889600191999989  111.91519999999997 1.3856005759999448  Z M 116.26399040000001 4.366400192000015  C 116.09119039999996 4.1936002879999705  115.8752 4.107200191999993  115.64479999999998 4.107200191999993  C 115.38559039999996 4.107200191999993  115.18399039999997 4.1936002879999705  115.0255904 4.366400192000015  C 114.85279039999995 4.539199999999994  114.76640000000003 4.740800000000036  114.76640000000003 4.985600095999985  C 114.76640000000003 5.2304001919999905  114.85279039999995 5.446400191999999  115.0255904 5.619199999999978  C 115.18399039999997 5.777599903999999  115.38559039999996 5.864000095999984  115.64479999999998 5.864000095999984  C 115.8752 5.864000095999984  116.09119039999996 5.777599903999999  116.26399040000001 5.619199999999978  C 116.4367904 5.446400191999999  116.52319039999998 5.2304001919999905  116.52319039999998 4.985600095999985  C 116.52319039999998 4.740800000000036  116.4367904 4.539199999999994  116.26399040000001 4.366400192000015  Z M 116.26399040000001 9.636799999999994  C 116.09119039999996 9.463999999999999  115.8752 9.377599999999973  115.64479999999998 9.377599999999973  C 115.38559039999996 9.377599999999973  115.18399039999997 9.463999999999999  115.0255904 9.636799999999994  C 114.85279039999995 9.809599999999989  114.76640000000003 10.01120000000003  114.76640000000003 10.256000000000029  C 114.76640000000003 10.500800000000027  114.85279039999995 10.716799999999978  115.0255904 10.889599999999973  C 115.18399039999997 11.048000000000002  115.38559039999996 11.134399999999971  115.64479999999998 11.134399999999971  C 115.8752 11.134399999999971  116.09119039999996 11.048000000000002  116.26399040000001 10.889599999999973  C 116.4367904 10.716799999999978  116.52319039999998 10.500800000000027  116.52319039999998 10.256000000000029  C 116.52319039999998 10.01120000000003  116.4367904 9.809599999999989  116.26399040000001 9.636799999999994  Z M 121 0.8384000000000356  L 120.85759039999994 0.8384000000000356  C 120.5119904 1.2272005760000297  120.10879039999998 1.5728002879999963  119.61919039999998 1.889600191999989  C 119.12959039999998 2.177600383999959  118.63999039999999 2.3792004799999518  118.17919999999998 2.508799711999984  L 118.17919999999998 3.6896001920000003  C 119.1439904 3.4015999999999735  119.9503904 2.940800480000007  120.59839039999997 2.2784000000000333  L 120.59839039999997 11.120000000000005  L 121 11.120000000000005  L 121 0.8384000000000356  Z M 130.13120000000004 1.4576003839999885  C 129.512 0.9103998080000224  128.7344 0.6367999039999859  127.7839904 0.6367999039999859  C 126.74720960000002 0.6367999039999859  125.89760000000001 0.982400479999967  125.26399040000001 1.673599807999949  C 124.63040959999995 2.35039980800002  124.29919999999998 3.2719998079999755  124.29919999999998 4.424000095999986  L 125.47999999999996 4.424000095999986  C 125.49439999999998 3.516800384000021  125.71040959999999 2.8256005759999994  126.11359999999996 2.3648000960000104  C 126.488 1.8751999039999987  127.03519999999997 1.6448000959999831  127.74079999999998 1.6448000959999831  C 128.40319999999997 1.6448000959999831  128.93600959999998 1.8176003839999453  129.31040959999996 2.1632000959999687  C 129.6848 2.508799711999984  129.87199999999996 2.9840005759999713  129.87199999999996 3.6175999039999738  C 129.87199999999996 4.279999999999973  129.59839039999997 4.899199999999951  129.07999999999998 5.460800000000006  C 128.8064 5.748800192000033  128.27359999999993 6.166400192000026  127.46720959999999 6.742400480000015  C 126.37279039999999 7.491200287999959  125.63839039999999 8.110399808000011  125.23520000000002 8.571200000000033  C 124.54399039999998 9.33439999999996  124.21279039999996 10.183999999999969  124.21279039999996 11.120000000000005  L 131.0672096 11.120000000000005  L 131.0672096 10.068799999999953  L 125.66720960000004 10.068799999999953  C 125.8544 9.377599999999973  126.60319999999996 8.585600960000022  127.91359999999997 7.707199711999976  C 128.9792 6.987199711999949  129.6848 6.425600575999965  130.0448 6.051200287999961  C 130.7072096 5.331200287999991  131.0527904 4.524800096000035  131.0527904 3.632000287999972  C 131.0527904 2.7392004799999654  130.7360096 2.0048000959999968  130.13120000000004 1.4576003839999885  Z " fill-rule="nonzero" fill="rgba(51, 51, 51, 1)" stroke="none" transform="matrix(1 0 0 1 1960 474 )" class="fill" />
    <path d="M 6.406395103999984 1.4576003839999885  C 5.787195104000006 0.9103998080000224  5.009595200000007 0.6367999039999859  4.059195391999992 0.6367999039999859  C 3.022395295999985 0.6367999039999859  2.172795296000004 0.982400479999967  1.5391951999999947 1.673599807999949  C 0.9055952959999729 2.35039980800002  0.5743952959999774 3.2719998079999755  0.5743952959999774 4.424000095999986  L 1.7551952960000108 4.424000095999986  C 1.7695951999999977 3.516800384000021  1.9855952959999854 2.8256005759999994  2.388795200000004 2.3648000960000104  C 2.763195295999992 1.8751999039999987  3.310395199999988 1.6448000959999831  4.015995296 1.6448000959999831  C 4.678395391999999 1.6448000959999831  5.211195199999992 1.8176003839999453  5.585595103999992 2.1632000959999687  C 5.959995007999993 2.508799711999984  6.147195103999991 2.9840005759999713  6.147195103999991 3.6175999039999738  C 6.147195103999991 4.279999999999973  5.873595295999991 4.899199999999951  5.355195296000005 5.460800000000006  C 5.081595007999994 5.748800192000033  4.548795200000001 6.166400192000026  3.7423950079999884 6.742400480000015  C 2.647995103999989 7.491200287999959  1.9135952959999827 8.110399808000011  1.5103951999999765 8.571200000000033  C 0.8191952959999753 9.33439999999996  0.4879953920000162 10.183999999999969  0.4879953920000162 11.120000000000005  L 7.342395007999983 11.120000000000005  L 7.342395007999983 10.068799999999953  L 1.9423952960000008 10.068799999999953  C 2.129595199999983 9.377599999999973  2.8783952 8.585600960000022  4.1887952000000155 7.707199711999976  C 5.254395295999984 6.987199711999949  5.959995007999993 6.425600575999965  6.319995007999978 6.051200287999961  C 6.9823950079999975 5.331200287999991  7.327994719999992 4.524800096000035  7.327994719999992 3.632000287999972  C 7.327994719999992 2.7392004799999654  7.011195200000003 2.0048000959999968  6.406395103999984 1.4576003839999885  Z " stroke-width="0" stroke-dasharray="0" stroke="rgba(255, 255, 255, 0)" fill="none" transform="matrix(1 0 0 1 1960 474 )" class="stroke" mask="url(#Clip2327)" />
    <path d="M 15.334396159999983 2.264000576000001  C 14.700795199999988 1.1696001919999617  13.779195199999975 0.6367999039999859  12.555195199999986 0.6367999039999859  C 11.316795200000001 0.6367999039999859  10.39519519999999 1.1696001919999617  9.775995200000011 2.264000576000001  C 9.228795199999979 3.185600575999956  8.955195296 4.424000095999986  8.955195296 5.979199999999992  C 8.955195296 7.534400287999972  9.228795199999979 8.772800000000018  9.775995200000011 9.694399999999973  C 10.39519519999999 10.774399999999957  11.316795200000001 11.32159999999999  12.555195199999986 11.32159999999999  C 13.779195199999975 11.32159999999999  14.700795199999988 10.774399999999957  15.334396159999983 9.694399999999973  C 15.881595199999992 8.772800000000018  16.15519519999998 7.534400287999972  16.15519519999998 5.979199999999992  C 16.15519519999998 4.424000095999986  15.881595199999992 3.185600575999956  15.334396159999983 2.264000576000001  Z " stroke-width="0" stroke-dasharray="0" stroke="rgba(255, 255, 255, 0)" fill="none" transform="matrix(1 0 0 1 1960 474 )" class="stroke" mask="url(#Clip2327)" />
    <path d="M 10.567995199999984 3.128000192000002  C 10.971195200000011 2.134400287999995  11.633595200000002 1.6448000959999831  12.555195199999986 1.6448000959999831  C 13.476795199999998 1.6448000959999831  14.139195199999989 2.134400287999995  14.542395200000016 3.128000192000002  C 14.830395199999998 3.8191999999999666  14.98879519999997 4.769600191999984  14.98879519999997 5.979199999999992  C 14.98879519999997 7.174399424000001  14.830395199999998 8.124800096000001  14.542395200000016 8.830399999999997  C 14.139195199999989 9.809599999999989  13.476795199999998 10.313600000000008  12.555195199999986 10.313600000000008  C 11.633595200000002 10.313600000000008  10.971195200000011 9.809599999999989  10.567995199999984 8.830399999999997  C 10.279995200000002 8.124800096000001  10.135995199999996 7.174399424000001  10.135995199999996 5.979199999999992  C 10.135995199999996 4.769600191999984  10.279995200000002 3.8191999999999666  10.567995199999984 3.128000192000002  Z " stroke-width="0" stroke-dasharray="0" stroke="rgba(255, 255, 255, 0)" fill="none" transform="matrix(1 0 0 1 1960 474 )" class="stroke" mask="url(#Clip2327)" />
    <path d="M 23.68639423999997 1.4576003839999885  C 23.06719616000001 0.9103998080000224  22.289595200000008 0.6367999039999859  21.339195199999978 0.6367999039999859  C 20.302395200000007 0.6367999039999859  19.452795199999997 0.982400479999967  18.819195199999996 1.673599807999949  C 18.185595199999995 2.35039980800002  17.854396159999993 3.2719998079999755  17.854396159999993 4.424000095999986  L 19.035195199999976 4.424000095999986  C 19.0495952 3.516800384000021  19.26559519999998 2.8256005759999994  19.668795199999977 2.3648000960000104  C 20.04319423999999 1.8751999039999987  20.590394239999995 1.6448000959999831  21.295995199999993 1.6448000959999831  C 21.958395199999984 1.6448000959999831  22.491195199999993 1.8176003839999453  22.8655952 2.1632000959999687  C 23.239994240000016 2.508799711999984  23.427196159999994 2.9840005759999713  23.427196159999994 3.6175999039999738  C 23.427196159999994 4.279999999999973  23.153596160000006 4.899199999999951  22.63519519999997 5.460800000000006  C 22.361595199999982 5.748800192000033  21.828795199999973 6.166400192000026  21.022395200000005 6.742400480000015  C 19.927995199999998 7.491200287999959  19.19359616 8.110399808000011  18.790396159999972 8.571200000000033  C 18.099195199999997 9.33439999999996  17.7679952 10.183999999999969  17.7679952 11.120000000000005  L 24.6223952 11.120000000000005  L 24.6223952 10.068799999999953  L 19.222395199999994 10.068799999999953  C 19.409595199999984 9.377599999999973  20.1583952 8.585600960000022  21.468795199999988 7.707199711999976  C 22.53439616 6.987199711999949  23.239994240000016 6.425600575999965  23.59999424 6.051200287999961  C 24.262395200000014 5.331200287999991  24.607995199999976 4.524800096000035  24.607995199999976 3.632000287999972  C 24.607995199999976 2.7392004799999654  24.291195200000004 2.0048000959999968  23.68639423999997 1.4576003839999885  Z " stroke-width="0" stroke-dasharray="0" stroke="rgba(255, 255, 255, 0)" fill="none" transform="matrix(1 0 0 1 1960 474 )" class="stroke" mask="url(#Clip2327)" />
    <path d="M 33.00319424 0.8384000000000356  L 27.02719615999999 0.8384000000000356  L 26.479994239999996 6.512000768000007  L 27.603194239999993 6.512000768000007  C 27.8047952 6.10880019199999  28.121595199999973 5.792000287999997  28.5247952 5.590400192000004  C 28.913596159999997 5.374400288000004  29.34559519999999 5.273600287999955  29.835195199999987 5.273600287999955  C 30.58399423999998 5.273600287999955  31.174396159999986 5.489600191999955  31.591997119999974 5.950400192000018  C 32.02399423999998 6.396799904000034  32.25439616 7.030399808000027  32.25439616 7.851200287999973  C 32.25439616 8.571200000000033  32.00959520000001 9.161599999999964  31.548795199999972 9.622400959999993  C 31.073596159999994 10.083200000000033  30.48319423999999 10.313600000000008  29.76319423999999 10.313600000000008  C 29.129595199999983 10.313600000000008  28.59679423999998 10.15519999999998  28.19359616 9.852800000000002  C 27.73279519999997 9.507200000000012  27.47359616 9.003199999999993  27.415995199999998 8.355200000000025  L 26.249595199999987 8.355200000000025  C 26.32159519999999 9.291200000000003  26.710396159999988 10.04000000000002  27.430396159999987 10.587199999999996  C 28.063996159999988 11.076799999999992  28.841595199999972 11.32159999999999  29.74879519999999 11.32159999999999  C 30.756794239999977 11.32159999999999  31.620796159999998 11.004799999999989  32.31199712 10.38560000000001  C 33.04639615999997 9.72320000000002  33.42079615999998 8.87360000000001  33.42079615999998 7.836799904000031  C 33.42079615999998 6.728000191999968  33.10399423999999 5.864000095999984  32.49919711999999 5.2304001919999905  C 31.894396159999985 4.611200287999964  31.10239519999999 4.308800192000035  30.123194240000004 4.308800192000035  C 29.647995199999997 4.308800192000035  29.21599520000001 4.380800000000022  28.812795199999982 4.553600287999984  C 28.366394239999977 4.726400192000028  27.99199519999999 4.985600095999985  27.703996159999974 5.331200287999991  L 27.646394239999978 5.331200287999991  L 27.99199519999999 1.889600191999989  L 33.00319424 1.889600191999989  L 33.00319424 0.8384000000000356  Z " stroke-width="0" stroke-dasharray="0" stroke="rgba(255, 255, 255, 0)" fill="none" transform="matrix(1 0 0 1 1960 474 )" class="stroke" mask="url(#Clip2327)" />
    <path d="M 36.67519520000002 9.665599999999984  C 36.502395199999995 9.492799999999988  36.28639615999998 9.406399999999962  36.055995199999984 9.406399999999962  C 35.79679424 9.406399999999962  35.595195200000006 9.492799999999988  35.43679423999998 9.665599999999984  C 35.26399423999999 9.838400000000036  35.17759424000002 10.04000000000002  35.17759424000002 10.299199999999985  C 35.17759424000002 10.543999999999983  35.26399423999999 10.745600000000024  35.43679423999998 10.91840000000002  C 35.595195200000006 11.091200000000015  35.79679424 11.177599999999984  36.055995199999984 11.177599999999984  C 36.28639615999998 11.177599999999984  36.502395199999995 11.091200000000015  36.67519520000002 10.91840000000002  C 36.847995199999986 10.745600000000024  36.93439615999998 10.543999999999983  36.93439615999998 10.299199999999985  C 36.93439615999998 10.04000000000002  36.847995199999986 9.838400000000036  36.67519520000002 9.665599999999984  Z " stroke-width="0" stroke-dasharray="0" stroke="rgba(255, 255, 255, 0)" fill="none" transform="matrix(1 0 0 1 1960 474 )" class="stroke" mask="url(#Clip2327)" />
    <path d="M 45.055995199999984 2.264000576000001  C 44.42239520000001 1.1696001919999617  43.50079616000002 0.6367999039999859  42.27679423999999 0.6367999039999859  C 41.03839327999998 0.6367999039999859  40.11679423999999 1.1696001919999617  39.49759424000001 2.264000576000001  C 38.95039423999998 3.185600575999956  38.67679423999999 4.424000095999986  38.67679423999999 5.979199999999992  C 38.67679423999999 7.534400287999972  38.95039423999998 8.772800000000018  39.49759424000001 9.694399999999973  C 40.11679423999999 10.774399999999957  41.03839327999998 11.32159999999999  42.27679423999999 11.32159999999999  C 43.50079616000002 11.32159999999999  44.42239520000001 10.774399999999957  45.055995199999984 9.694399999999973  C 45.603194239999965 8.772800000000018  45.87679423999998 7.534400287999972  45.87679423999998 5.979199999999992  C 45.87679423999998 4.424000095999986  45.603194239999965 3.185600575999956  45.055995199999984 2.264000576000001  Z " stroke-width="0" stroke-dasharray="0" stroke="rgba(255, 255, 255, 0)" fill="none" transform="matrix(1 0 0 1 1960 474 )" class="stroke" mask="url(#Clip2327)" />
    <path d="M 40.28959520000001 3.128000192000002  C 40.69279327999999 2.134400287999995  41.3551952 1.6448000959999831  42.27679423999999 1.6448000959999831  C 43.198393279999976 1.6448000959999831  43.86079616000001 2.134400287999995  44.26399423999999 3.128000192000002  C 44.551993280000005 3.8191999999999666  44.71039424000003 4.769600191999984  44.71039424000003 5.979199999999992  C 44.71039424000003 7.174399424000001  44.551993280000005 8.124800096000001  44.26399423999999 8.830399999999997  C 43.86079616000001 9.809599999999989  43.198393279999976 10.313600000000008  42.27679423999999 10.313600000000008  C 41.3551952 10.313600000000008  40.69279327999999 9.809599999999989  40.28959520000001 8.830399999999997  C 40.0015952 8.124800096000001  39.85759424 7.174399424000001  39.85759424 5.979199999999992  C 39.85759424 4.769600191999984  40.0015952 3.8191999999999666  40.28959520000001 3.128000192000002  Z " stroke-width="0" stroke-dasharray="0" stroke="rgba(255, 255, 255, 0)" fill="none" transform="matrix(1 0 0 1 1960 474 )" class="stroke" mask="url(#Clip2327)" />
    <path d="M 53.407995200000016 1.3856005759999448  C 52.80319423999998 0.8815999999999917  51.996794239999986 0.6367999039999859  51.017594239999994 0.6367999039999859  C 50.03839327999998 0.6367999039999859  49.24639327999998 0.9103998080000224  48.64159519999998 1.471999808000021  C 48.00799520000001 2.0335998079999626  47.63359615999997 2.8112002879999523  47.54719616 3.804800096000008  L 48.71359615999998 3.804800096000008  C 48.78559328000003 3.1135998079999467  49.01599519999996 2.5808004799999935  49.41919328 2.2064001919999896  C 49.80799520000002 1.8319998079999777  50.340796160000025 1.6592004799999813  51.031993279999995 1.6592004799999813  C 51.69439616 1.6592004799999813  52.22719232000003 1.8176003839999453  52.60159519999996 2.1632000959999687  C 52.94719232 2.480000000000018  53.134396159999994 2.926400192000017  53.134396159999994 3.5024000960000308  C 53.134396159999994 4.078399999999988  52.94719232 4.524800096000035  52.587192319999986 4.841599999999971  C 52.22719232000003 5.144000096000013  51.7087952 5.302400095999985  51.017594239999994 5.302400095999985  L 50.22559328000003 5.302400095999985  L 50.22559328000003 6.2240000959999975  L 51.060796159999995 6.2240000959999975  C 51.78079616000002 6.2240000959999975  52.32799520000003 6.382400480000001  52.73119423999998 6.728000191999968  C 53.134396159999994 7.073599807999983  53.33599519999996 7.5487997120000045  53.33599519999996 8.168000191999965  C 53.33599519999996 8.772800000000018  53.119992319999994 9.27679999999998  52.71679424000001 9.680000000000007  C 52.27039424000003 10.0976  51.67999232 10.313600000000008  50.945593280000026 10.313600000000008  C 50.297594239999995 10.313600000000008  49.76479327999999 10.12639999999999  49.332793280000004 9.7808  C 48.82879519999997 9.363200000000006  48.555195200000014 8.743999999999971  48.52639327999998 7.93760038399995  L 47.331194239999974 7.93760038399995  C 47.41759424 9.089599999999962  47.820796160000015 9.968000000000018  48.555195200000014 10.572799999999972  C 49.174396159999986 11.062399999999968  49.96639327999998 11.32159999999999  50.945593280000026 11.32159999999999  C 52.01119423999995 11.32159999999999  52.87519520000001 11.019199999999955  53.53759424000003 10.4144  C 54.185593280000035 9.823999999999955  54.51679423999997 9.060800000000029  54.51679423999997 8.124800096000001  C 54.51679423999997 7.519999999999982  54.34399423999997 7.0160003839999945  53.99839327999996 6.612800288000017  C 53.681595200000004 6.209600191999982  53.22079616000002 5.921599999999955  52.615995199999986 5.7344002880000176  C 53.739193279999995 5.360000000000014  54.300796160000004 4.582400096000015  54.300796160000004 3.430399808000004  C 54.300796160000004 2.5664001920000032  53.99839327999996 1.889600191999989  53.407995200000016 1.3856005759999448  Z " stroke-width="0" stroke-dasharray="0" stroke="rgba(255, 255, 255, 0)" fill="none" transform="matrix(1 0 0 1 1960 474 )" class="stroke" mask="url(#Clip2327)" />
    <path d="M 57.75679423999998 9.665599999999984  C 57.58399423999998 9.492799999999988  57.367995199999996 9.406399999999962  57.13759424 9.406399999999962  C 56.878393279999955 9.406399999999962  56.67679423999999 9.492799999999988  56.51839328 9.665599999999984  C 56.34559328 9.838400000000036  56.25919327999998 10.04000000000002  56.25919327999998 10.299199999999985  C 56.25919327999998 10.543999999999983  56.34559328 10.745600000000024  56.51839328 10.91840000000002  C 56.67679423999999 11.091200000000015  56.878393279999955 11.177599999999984  57.13759424 11.177599999999984  C 57.367995199999996 11.177599999999984  57.58399423999998 11.091200000000015  57.75679423999998 10.91840000000002  C 57.929595199999994 10.745600000000024  58.01599519999996 10.543999999999983  58.01599519999996 10.299199999999985  C 58.01599519999996 10.04000000000002  57.929595199999994 9.838400000000036  57.75679423999998 9.665599999999984  Z " stroke-width="0" stroke-dasharray="0" stroke="rgba(255, 255, 255, 0)" fill="none" transform="matrix(1 0 0 1 1960 474 )" class="stroke" mask="url(#Clip2327)" />
    <path d="M 66.13759039999997 2.264000576000001  C 65.50399424 1.1696001919999617  64.58239520000001 0.6367999039999859  63.35839327999997 0.6367999039999859  C 62.119992319999994 0.6367999039999859  61.19839327999995 1.1696001919999617  60.57919327999997 2.264000576000001  C 60.031993279999995 3.185600575999956  59.75839327999995 4.424000095999986  59.75839327999995 5.979199999999992  C 59.75839327999995 7.534400287999972  60.031993279999995 8.772800000000018  60.57919327999997 9.694399999999973  C 61.19839327999995 10.774399999999957  62.119992319999994 11.32159999999999  63.35839327999997 11.32159999999999  C 64.58239520000001 11.32159999999999  65.50399424 10.774399999999957  66.13759039999997 9.694399999999973  C 66.6847904 8.772800000000018  66.95839328 7.534400287999972  66.95839328 5.979199999999992  C 66.95839328 4.424000095999986  66.6847904 3.185600575999956  66.13759039999997 2.264000576000001  Z " stroke-width="0" stroke-dasharray="0" stroke="rgba(255, 255, 255, 0)" fill="none" transform="matrix(1 0 0 1 1960 474 )" class="stroke" mask="url(#Clip2327)" />
    <path d="M 61.371194239999966 3.128000192000002  C 61.774392320000004 2.134400287999995  62.43679423999998 1.6448000959999831  63.35839327999997 1.6448000959999831  C 64.27999232000002 1.6448000959999831  64.94239520000002 2.134400287999995  65.34559328 3.128000192000002  C 65.63359615999997 3.8191999999999666  65.79199711999996 4.769600191999984  65.79199711999996 5.979199999999992  C 65.79199711999996 7.174399424000001  65.63359615999997 8.124800096000001  65.34559328 8.830399999999997  C 64.94239520000002 9.809599999999989  64.27999232000002 10.313600000000008  63.35839327999997 10.313600000000008  C 62.43679423999998 10.313600000000008  61.774392320000004 9.809599999999989  61.371194239999966 8.830399999999997  C 61.08319136 8.124800096000001  60.93919711999996 7.174399424000001  60.93919711999996 5.979199999999992  C 60.93919711999996 4.769600191999984  61.08319136 3.8191999999999666  61.371194239999966 3.128000192000002  Z " stroke-width="0" stroke-dasharray="0" stroke="rgba(255, 255, 255, 0)" fill="none" transform="matrix(1 0 0 1 1960 474 )" class="stroke" mask="url(#Clip2327)" />
    <path d="M 72 0.8384000000000356  L 70.99039040000002 0.8384000000000356  C 70.64479040000003 1.2272005760000297  70.24159135999997 1.5728002879999963  69.75199712 1.889600191999989  C 69.26239520000001 2.177600383999959  68.77279327999997 2.3792004799999518  68.31199712 2.508799711999984  L 68.31199712 3.6896001920000003  C 69.27679424000002 3.4015999999999735  70.08319136 2.940800480000007  70.73119423999998 2.2784000000000333  L 70.73119423999998 11.120000000000005  L 72 11.120000000000005  L 72 0.8384000000000356  Z " stroke-width="0" stroke-dasharray="0" stroke="rgba(255, 255, 255, 0)" fill="none" transform="matrix(1 0 0 1 1960 474 )" class="stroke" mask="url(#Clip2327)" />
    <path d="M 82 0.8384000000000356  L 81.55999231999999 0.8384000000000356  C 81.21439232 1.2272005760000297  80.81119423999996 1.5728002879999963  80.32159136000001 1.889600191999989  C 79.83199711999998 2.177600383999959  79.3423952 2.3792004799999518  78.88159903999997 2.508799711999984  L 78.88159903999997 3.6896001920000003  C 79.84639615999998 3.4015999999999735  80.65279327999997 2.940800480000007  81.30079616 2.2784000000000333  L 81.30079616 11.120000000000005  L 82 11.120000000000005  L 82 0.8384000000000356  Z " stroke-width="0" stroke-dasharray="0" stroke="rgba(255, 255, 255, 0)" fill="none" transform="matrix(1 0 0 1 1960 474 )" class="stroke" mask="url(#Clip2327)" />
    <path d="M 91.12159135999997 2.264000576000001  C 90.48799519999994 1.1696001919999617  89.56639615999995 0.6367999039999859  88.3423952 0.6367999039999859  C 87.10399423999996 0.6367999039999859  86.18239519999997 1.1696001919999617  85.56319808 2.264000576000001  C 85.01599808000003 3.185600575999956  84.74239519999998 4.424000095999986  84.74239519999998 5.979199999999992  C 84.74239519999998 7.534400287999972  85.01599808000003 8.772800000000018  85.56319808 9.694399999999973  C 86.18239519999997 10.774399999999957  87.10399423999996 11.32159999999999  88.3423952 11.32159999999999  C 89.56639615999995 11.32159999999999  90.48799519999994 10.774399999999957  91.12159135999997 9.694399999999973  C 91.66879136 8.772800000000018  91.94239520000002 7.534400287999972  91.94239520000002 5.979199999999992  C 91.94239520000002 4.424000095999986  91.66879136 3.185600575999956  91.12159135999997 2.264000576000001  Z " stroke-width="0" stroke-dasharray="0" stroke="rgba(255, 255, 255, 0)" fill="none" transform="matrix(1 0 0 1 1960 474 )" class="stroke" mask="url(#Clip2327)" />
    <path d="M 86.35519520000003 3.128000192000002  C 86.75839327999995 2.134400287999995  87.42079616000001 1.6448000959999831  88.3423952 1.6448000959999831  C 89.26399423999999 1.6448000959999831  89.92639615999997 2.134400287999995  90.32959519999997 3.128000192000002  C 90.61759808 3.8191999999999666  90.77599135999998 4.769600191999984  90.77599135999998 5.979199999999992  C 90.77599135999998 7.174399424000001  90.61759808 8.124800096000001  90.32959519999997 8.830399999999997  C 89.92639615999997 9.809599999999989  89.26399423999999 10.313600000000008  88.3423952 10.313600000000008  C 87.42079616000001 10.313600000000008  86.75839327999995 9.809599999999989  86.35519520000003 8.830399999999997  C 86.06719232 8.124800096000001  85.92319808000002 7.174399424000001  85.92319808000002 5.979199999999992  C 85.92319808000002 4.769600191999984  86.06719232 3.8191999999999666  86.35519520000003 3.128000192000002  Z " stroke-width="0" stroke-dasharray="0" stroke="rgba(255, 255, 255, 0)" fill="none" transform="matrix(1 0 0 1 1960 474 )" class="stroke" mask="url(#Clip2327)" />
    <path d="M 95.18239519999997 4.366400192000015  C 95.00959519999998 4.1936002879999705  94.79359615999999 4.107200191999993  94.56319808 4.107200191999993  C 94.30399424000001 4.107200191999993  94.10239519999999 4.1936002879999705  93.94399424 4.366400192000015  C 93.77119424 4.539199999999994  93.68479711999998 4.740800000000036  93.68479711999998 4.985600095999985  C 93.68479711999998 5.2304001919999905  93.77119424 5.446400191999999  93.94399424 5.619199999999978  C 94.10239519999999 5.777599903999999  94.30399424000001 5.864000095999984  94.56319808 5.864000095999984  C 94.79359615999999 5.864000095999984  95.00959519999998 5.777599903999999  95.18239519999997 5.619199999999978  C 95.35519520000003 5.446400191999999  95.44159136000002 5.2304001919999905  95.44159136000002 4.985600095999985  C 95.44159136000002 4.740800000000036  95.35519520000003 4.539199999999994  95.18239519999997 4.366400192000015  Z " stroke-width="0" stroke-dasharray="0" stroke="rgba(255, 255, 255, 0)" fill="none" transform="matrix(1 0 0 1 1960 474 )" class="stroke" mask="url(#Clip2327)" />
    <path d="M 95.18239519999997 9.636799999999994  C 95.00959519999998 9.463999999999999  94.79359615999999 9.377599999999973  94.56319808 9.377599999999973  C 94.30399424000001 9.377599999999973  94.10239519999999 9.463999999999999  93.94399424 9.636799999999994  C 93.77119424 9.809599999999989  93.68479711999998 10.01120000000003  93.68479711999998 10.256000000000029  C 93.68479711999998 10.500800000000027  93.77119424 10.716799999999978  93.94399424 10.889599999999973  C 94.10239519999999 11.048000000000002  94.30399424000001 11.134399999999971  94.56319808 11.134399999999971  C 94.79359615999999 11.134399999999971  95.00959519999998 11.048000000000002  95.18239519999997 10.889599999999973  C 95.35519520000003 10.716799999999978  95.44159136000002 10.500800000000027  95.44159136000002 10.256000000000029  C 95.44159136000002 10.01120000000003  95.35519520000003 9.809599999999989  95.18239519999997 9.636799999999994  Z " stroke-width="0" stroke-dasharray="0" stroke="rgba(255, 255, 255, 0)" fill="none" transform="matrix(1 0 0 1 1960 474 )" class="stroke" mask="url(#Clip2327)" />
    <path d="M 103.27519999999998 1.4576003839999885  C 102.65599040000001 0.9103998080000224  101.8783904 0.6367999039999859  100.928 0.6367999039999859  C 99.89119039999997 0.6367999039999859  99.04159040000002 0.982400479999967  98.40800000000002 1.673599807999949  C 97.77439040000002 2.35039980800002  97.44319039999999 3.2719998079999755  97.44319039999999 4.424000095999986  L 98.62399039999997 4.424000095999986  C 98.63839039999999 3.516800384000021  98.8543904 2.8256005759999994  99.25759999999997 2.3648000960000104  C 99.632 1.8751999039999987  100.17919999999998 1.6448000959999831  100.88479999999998 1.6448000959999831  C 101.54719040000003 1.6448000959999831  102.07999039999999 1.8176003839999453  102.45439040000002 2.1632000959999687  C 102.8287904 2.508799711999984  103.01599039999996 2.9840005759999713  103.01599039999996 3.6175999039999738  C 103.01599039999996 4.279999999999973  102.74239039999998 4.899199999999951  102.22399039999999 5.460800000000006  C 101.9503904 5.748800192000033  101.4176 6.166400192000026  100.6111904 6.742400480000015  C 99.51679039999999 7.491200287999959  98.78239039999994 8.110399808000011  98.37919999999997 8.571200000000033  C 97.68799999999999 9.33439999999996  97.35679040000002 10.183999999999969  97.35679040000002 11.120000000000005  L 104.21119039999996 11.120000000000005  L 104.21119039999996 10.068799999999953  L 98.81119039999999 10.068799999999953  C 98.9983904 9.377599999999973  99.74719040000002 8.585600960000022  101.05759999999998 7.707199711999976  C 102.1231904 6.987199711999949  102.8287904 6.425600575999965  103.18879039999996 6.051200287999961  C 103.85119040000001 5.331200287999991  104.1967904 4.524800096000035  104.1967904 3.632000287999972  C 104.1967904 2.7392004799999654  103.8799904 2.0048000959999968  103.27519999999998 1.4576003839999885  Z " stroke-width="0" stroke-dasharray="0" stroke="rgba(255, 255, 255, 0)" fill="none" transform="matrix(1 0 0 1 1960 474 )" class="stroke" mask="url(#Clip2327)" />
    <path d="M 111.91519999999997 1.3856005759999448  C 111.31039040000002 0.8815999999999917  110.50399039999996 0.6367999039999859  109.52479999999997 0.6367999039999859  C 108.54559039999998 0.6367999039999859  107.75359999999995 0.9103998080000224  107.1487904 1.471999808000021  C 106.5152 2.0335998079999626  106.14080000000001 2.8112002879999523  106.05439039999999 3.804800096000008  L 107.2208 3.804800096000008  C 107.29279039999994 3.1135998079999467  107.52319039999998 2.5808004799999935  107.9264 2.2064001919999896  C 108.3152 1.8319998079999777  108.84800000000001 1.6592004799999813  109.5392 1.6592004799999813  C 110.20159039999999 1.6592004799999813  110.7343904 1.8176003839999453  111.10879039999998 2.1632000959999687  C 111.45439040000002 2.480000000000018  111.64159039999998 2.926400192000017  111.64159039999998 3.5024000960000308  C 111.64159039999998 4.078399999999988  111.45439040000002 4.524800096000035  111.09439040000001 4.841599999999971  C 110.7343904 5.144000096000013  110.21599039999995 5.302400095999985  109.52479999999997 5.302400095999985  L 108.73279039999994 5.302400095999985  L 108.73279039999994 6.2240000959999975  L 109.56799999999998 6.2240000959999975  C 110.28800000000001 6.2240000959999975  110.83519999999999 6.382400480000001  111.23839039999996 6.728000191999968  C 111.64159039999998 7.073599807999983  111.84319039999997 7.5487997120000045  111.84319039999997 8.168000191999965  C 111.84319039999997 8.772800000000018  111.62719040000002 9.27679999999998  111.22399039999999 9.680000000000007  C 110.7776 10.0976  110.18719040000002 10.313600000000008  109.45279039999997 10.313600000000008  C 108.8048 10.313600000000008  108.27199999999999 10.12639999999999  107.83999040000003 9.7808  C 107.33599039999996 9.363200000000006  107.06239039999997 8.743999999999971  107.03359999999998 7.93760038399995  L 105.83839039999998 7.93760038399995  C 105.9248 9.089599999999962  106.32799999999997 9.968000000000018  107.06239039999997 10.572799999999972  C 107.6815904 11.062399999999968  108.47359999999998 11.32159999999999  109.45279039999997 11.32159999999999  C 110.51839039999999 11.32159999999999  111.38239039999996 11.019199999999955  112.04480000000001 10.4144  C 112.69279039999998 9.823999999999955  113.0239904 9.060800000000029  113.0239904 8.124800096000001  C 113.0239904 7.519999999999982  112.85119040000001 7.0160003839999945  112.50559039999996 6.612800288000017  C 112.18879039999996 6.209600191999982  111.72800000000001 5.921599999999955  111.1231904 5.7344002880000176  C 112.2464 5.360000000000014  112.80799999999999 4.582400096000015  112.80799999999999 3.430399808000004  C 112.80799999999999 2.5664001920000032  112.50559039999996 1.889600191999989  111.91519999999997 1.3856005759999448  Z " stroke-width="0" stroke-dasharray="0" stroke="rgba(255, 255, 255, 0)" fill="none" transform="matrix(1 0 0 1 1960 474 )" class="stroke" mask="url(#Clip2327)" />
    <path d="M 116.26399040000001 4.366400192000015  C 116.09119039999996 4.1936002879999705  115.8752 4.107200191999993  115.64479999999998 4.107200191999993  C 115.38559039999996 4.107200191999993  115.18399039999997 4.1936002879999705  115.0255904 4.366400192000015  C 114.85279039999995 4.539199999999994  114.76640000000003 4.740800000000036  114.76640000000003 4.985600095999985  C 114.76640000000003 5.2304001919999905  114.85279039999995 5.446400191999999  115.0255904 5.619199999999978  C 115.18399039999997 5.777599903999999  115.38559039999996 5.864000095999984  115.64479999999998 5.864000095999984  C 115.8752 5.864000095999984  116.09119039999996 5.777599903999999  116.26399040000001 5.619199999999978  C 116.4367904 5.446400191999999  116.52319039999998 5.2304001919999905  116.52319039999998 4.985600095999985  C 116.52319039999998 4.740800000000036  116.4367904 4.539199999999994  116.26399040000001 4.366400192000015  Z " stroke-width="0" stroke-dasharray="0" stroke="rgba(255, 255, 255, 0)" fill="none" transform="matrix(1 0 0 1 1960 474 )" class="stroke" mask="url(#Clip2327)" />
    <path d="M 116.26399040000001 9.636799999999994  C 116.09119039999996 9.463999999999999  115.8752 9.377599999999973  115.64479999999998 9.377599999999973  C 115.38559039999996 9.377599999999973  115.18399039999997 9.463999999999999  115.0255904 9.636799999999994  C 114.85279039999995 9.809599999999989  114.76640000000003 10.01120000000003  114.76640000000003 10.256000000000029  C 114.76640000000003 10.500800000000027  114.85279039999995 10.716799999999978  115.0255904 10.889599999999973  C 115.18399039999997 11.048000000000002  115.38559039999996 11.134399999999971  115.64479999999998 11.134399999999971  C 115.8752 11.134399999999971  116.09119039999996 11.048000000000002  116.26399040000001 10.889599999999973  C 116.4367904 10.716799999999978  116.52319039999998 10.500800000000027  116.52319039999998 10.256000000000029  C 116.52319039999998 10.01120000000003  116.4367904 9.809599999999989  116.26399040000001 9.636799999999994  Z " stroke-width="0" stroke-dasharray="0" stroke="rgba(255, 255, 255, 0)" fill="none" transform="matrix(1 0 0 1 1960 474 )" class="stroke" mask="url(#Clip2327)" />
    <path d="M 121 0.8384000000000356  L 120.85759039999994 0.8384000000000356  C 120.5119904 1.2272005760000297  120.10879039999998 1.5728002879999963  119.61919039999998 1.889600191999989  C 119.12959039999998 2.177600383999959  118.63999039999999 2.3792004799999518  118.17919999999998 2.508799711999984  L 118.17919999999998 3.6896001920000003  C 119.1439904 3.4015999999999735  119.9503904 2.940800480000007  120.59839039999997 2.2784000000000333  L 120.59839039999997 11.120000000000005  L 121 11.120000000000005  L 121 0.8384000000000356  Z " stroke-width="0" stroke-dasharray="0" stroke="rgba(255, 255, 255, 0)" fill="none" transform="matrix(1 0 0 1 1960 474 )" class="stroke" mask="url(#Clip2327)" />
    <path d="M 130.13120000000004 1.4576003839999885  C 129.512 0.9103998080000224  128.7344 0.6367999039999859  127.7839904 0.6367999039999859  C 126.74720960000002 0.6367999039999859  125.89760000000001 0.982400479999967  125.26399040000001 1.673599807999949  C 124.63040959999995 2.35039980800002  124.29919999999998 3.2719998079999755  124.29919999999998 4.424000095999986  L 125.47999999999996 4.424000095999986  C 125.49439999999998 3.516800384000021  125.71040959999999 2.8256005759999994  126.11359999999996 2.3648000960000104  C 126.488 1.8751999039999987  127.03519999999997 1.6448000959999831  127.74079999999998 1.6448000959999831  C 128.40319999999997 1.6448000959999831  128.93600959999998 1.8176003839999453  129.31040959999996 2.1632000959999687  C 129.6848 2.508799711999984  129.87199999999996 2.9840005759999713  129.87199999999996 3.6175999039999738  C 129.87199999999996 4.279999999999973  129.59839039999997 4.899199999999951  129.07999999999998 5.460800000000006  C 128.8064 5.748800192000033  128.27359999999993 6.166400192000026  127.46720959999999 6.742400480000015  C 126.37279039999999 7.491200287999959  125.63839039999999 8.110399808000011  125.23520000000002 8.571200000000033  C 124.54399039999998 9.33439999999996  124.21279039999996 10.183999999999969  124.21279039999996 11.120000000000005  L 131.0672096 11.120000000000005  L 131.0672096 10.068799999999953  L 125.66720960000004 10.068799999999953  C 125.8544 9.377599999999973  126.60319999999996 8.585600960000022  127.91359999999997 7.707199711999976  C 128.9792 6.987199711999949  129.6848 6.425600575999965  130.0448 6.051200287999961  C 130.7072096 5.331200287999991  131.0527904 4.524800096000035  131.0527904 3.632000287999972  C 131.0527904 2.7392004799999654  130.7360096 2.0048000959999968  130.13120000000004 1.4576003839999885  Z " stroke-width="0" stroke-dasharray="0" stroke="rgba(255, 255, 255, 0)" fill="none" transform="matrix(1 0 0 1 1960 474 )" class="stroke" mask="url(#Clip2327)" />
  </g>
</svg>