<?xml version="1.0" encoding="utf-8"?>
<svg version="1.1" xmlns:xlink="http://www.w3.org/1999/xlink" width="50px" height="13px" xmlns="http://www.w3.org/2000/svg">
  <defs>
    <pattern id="BGPattern" patternUnits="userSpaceOnUse" alignment="0 0" imageRepeat="None" />
    <mask fill="white" id="Clip6202">
      <path d="M 6.145599231999995 1.94175990399998  C 5.567678944000022 1.431039424000005  4.8419189439999855 1.175679616000025  3.954879135999988 1.175679616000025  C 2.9871987519999834 1.175679616000025  2.1942390399999567 1.4982400960000177  1.6028791360000127 2.143359999999973  C 1.011519136000004 2.77503999999999  0.7023990399999889 3.6351999039999896  0.7023990399999889 4.710399808000034  L 1.8044791359999974 4.710399808000034  C 1.8179190399999923 3.8636798080000285  2.0195191359999853 3.218559904000017  2.3958390399999985 2.788479903999985  C 2.745279136000022 2.3315200960000197  3.2559994239999805 2.116480095999975  3.914559327999996 2.116480095999975  C 4.532799423999961 2.116480095999975  5.0300790399999755 2.27775942400001  5.379519328000015 2.6003198079999947  C 5.728959231999966 2.922879328000022  5.90367932800001 3.3663997120000317  5.90367932800001 3.9577599039999996  C 5.90367932800001 4.575999904000014  5.648319135999998 5.153919712000004  5.16447932799997 5.678079711999999  C 4.909119136000015 5.9468799040000135  4.41183894400001 6.336640000000045  3.659199039999976 6.874240000000043  C 2.6377591359999997 7.573120096000024  1.9523191359999712 8.151039423999975  1.5759990399999992 8.581119424000008  C 0.9308790399999792 9.293440000000032  0.6217590399999722 10.08639999999997  0.6217590399999722 10.95999999999998  L 7.019198656000015 10.95999999999998  L 7.019198656000015 9.978880000000004  L 1.9791990399999693 9.978880000000004  C 2.1539189439999404 9.333759999999984  2.8527991359999874 8.594560288000025  4.075839040000005 7.774720192000017  C 5.070399328000008 7.1027199040000255  5.728959231999966 6.578559904000031  6.06495913599997 6.229120000000023  C 6.683199135999985 5.557119712000031  7.005758656000012 4.804479807999996  7.005758656000012 3.9711998079999944  C 7.005758656000012 3.1379193280000095  6.7100790399999815 2.452479519999997  6.145599231999995 1.94175990399998  Z M 14.23647999999997 1.9551999039999828  C 13.671999999999967 1.431039424000005  12.87904000000003 1.175679616000025  11.88447904000003 1.175679616000025  C 10.876480000000015 1.175679616000025  10.096959999999967 1.431039424000005  9.532479999999964 1.9551999039999828  C 9.008319040000003 2.4255997120000075  8.752959040000007 3.016959808000024  8.752959040000007 3.7158400000000147  C 8.752959040000007 4.226559616000031  8.873919999999998 4.6566400000000385  9.115839999999992 5.006079903999989  C 9.371199039999965 5.382400096000026  9.747520000000009 5.664639712000053  10.258239039999978 5.839359903999991  L 10.258239039999978 5.866239808000046  C 9.747520000000009 5.987199712000006  9.330879040000013 6.2694398080000155  8.981439039999998 6.699519808000048  C 8.605119903999991 7.156480095999997  8.416959808000001 7.694079615999954  8.416959808000001 8.312319615999968  C 8.416959808000001 9.159040000000005  8.71263904 9.844480000000033  9.303999999999974 10.355200000000025  C 9.908799999999985 10.87936000000002  10.768959999999993 11.148160000000018  11.88447904000003 11.148160000000018  C 12.986559999999997 11.148160000000018  13.846720000000005 10.87936000000002  14.464959039999997 10.355200000000025  C 15.056319999999971 9.844480000000033  15.352000959999998 9.159040000000005  15.352000959999998 8.312319615999968  C 15.352000959999998 7.694079615999954  15.163839999999992 7.156480095999997  14.787520000000029 6.699519808000048  C 14.438079039999991 6.2694398080000155  14.007999040000016 5.987199712000006  13.510719999999992 5.866239808000046  L 13.510719999999992 5.839359903999991  C 14.007999040000016 5.664639712000053  14.38431903999998 5.382400096000026  14.653119999999944 5.006079903999989  C 14.895039039999972 4.6566400000000385  15.016000000000018 4.226559616000031  15.016000000000018 3.7158400000000147  C 15.016000000000018 3.016959808000024  14.747199999999964 2.4255997120000075  14.23647999999997 1.9551999039999828  Z M 10.285120000000006 2.6003198079999947  C 10.661439040000005 2.2508795200000122  11.199040000000025 2.076159328000017  11.88447904000003 2.076159328000017  C 12.556480000000022 2.076159328000017  13.09408000000002 2.2508795200000122  13.483839999999987 2.6003198079999947  C 13.806399999999941 2.895999424000024  13.981119040000008 3.2857596160000067  13.981119040000008 3.7561598080000067  C 13.981119040000008 4.240000000000009  13.833280000000004 4.643199616000004  13.537599039999975 4.938879712000016  C 13.174719040000014 5.288319999999999  12.623679999999979 5.476479616000006  11.88447904000003 5.476479616000006  C 11.131839999999954 5.476479616000006  10.58080000000001 5.288319999999999  10.231359039999973 4.938879712000016  C 9.93567999999999 4.643199616000004  9.787839039999994 4.240000000000009  9.787839039999994 3.7561598080000067  C 9.787839039999994 3.2857596160000067  9.949119999999994 2.895999424000024  10.285120000000006 2.6003198079999947  Z M 10.096959999999967 6.9145598080000354  C 10.513599999999997 6.524799615999997  11.104959039999983 6.336640000000045  11.88447904000003 6.336640000000045  C 12.650559999999986 6.336640000000045  13.255359999999996 6.524799615999997  13.685439999999971 6.9145598080000354  C 14.061759999999992 7.263999615999978  14.263359999999977 7.734399424000003  14.263359999999977 8.312319615999968  C 14.263359999999977 8.876799903999995  14.061759999999992 9.333759999999984  13.685439999999971 9.6832  C 13.255359999999996 10.05952000000002  12.663999999999987 10.247680000000003  11.88447904000003 10.247680000000003  C 11.104959039999983 10.247680000000003  10.500159999999994 10.05952000000002  10.096959999999967 9.696640000000002  C 9.693759999999997 9.347199999999987  9.505600000000015 8.876799903999995  9.505600000000015 8.312319615999968  C 9.505600000000015 7.734399424000003  9.693759999999997 7.263999615999978  10.096959999999967 6.9145598080000354  Z M 22.273599999999988 1.94175990399998  C 21.695680960000004 1.431039424000005  20.969920000000002 1.175679616000025  20.08287999999999 1.175679616000025  C 19.11520095999998 1.175679616000025  18.322240959999988 1.4982400960000177  17.73087903999999 2.143359999999973  C 17.139520000000005 2.77503999999999  16.830399999999997 3.6351999039999896  16.830399999999997 4.710399808000034  L 17.93247999999994 4.710399808000034  C 17.94592 3.8636798080000285  18.147519999999986 3.218559904000017  18.523840000000007 2.788479903999985  C 18.873279999999966 2.3315200960000197  19.383999999999958 2.116480095999975  20.04255999999998 2.116480095999975  C 20.660799999999995 2.116480095999975  21.15808095999995 2.27775942400001  21.50752 2.6003198079999947  C 21.856960000000015 2.922879328000022  22.031680960000017 3.3663997120000317  22.031680960000017 3.9577599039999996  C 22.031680960000017 4.575999904000014  21.77632 5.153919712000004  21.292479999999955 5.678079711999999  C 21.037120000000016 5.9468799040000135  20.53983999999997 6.336640000000045  19.787199999999984 6.874240000000043  C 18.765760960000023 7.573120096000024  18.08032000000003 8.151039423999975  17.70399999999995 8.581119424000008  C 17.05888096000001 9.293440000000032  16.74975999999998 10.08639999999997  16.74975999999998 10.95999999999998  L 23.147199999999998 10.95999999999998  L 23.147199999999998 9.978880000000004  L 18.107199999999978 9.978880000000004  C 18.28192095999998 9.333759999999984  18.980799999999988 8.594560288000025  20.203840000000014 7.774720192000017  C 21.198400960000015 7.1027199040000255  21.856960000000015 6.578559904000031  22.192960000000028 6.229120000000023  C 22.811200960000008 5.557119712000031  23.133759999999995 4.804479807999996  23.133759999999995 3.9711998079999944  C 23.133759999999995 3.1379193280000095  22.838080959999957 2.452479519999997  22.273599999999988 1.94175990399998  Z M 30.606400000000004 2.6943994240000393  C 30.015039039999973 1.6729593279999904  29.15487903999997 1.175679616000025  28.012479999999982 1.175679616000025  C 26.856640000000027 1.175679616000025  25.996480000000023 1.6729593279999904  25.418559039999987 2.6943994240000393  C 24.90783904 3.554559808000022  24.65247999999997 4.710399808000034  24.65247999999997 6.161919904000001  C 24.65247999999997 7.613439903999961  24.90783904 8.769280384000012  25.418559039999987 9.629439999999988  C 25.996480000000023 10.63743999999997  26.856640000000027 11.148160000000018  28.012479999999982 11.148160000000018  C 29.15487903999997 11.148160000000018  30.015039039999973 10.63743999999997  30.606400000000004 9.629439999999988  C 31.11712191999999 8.769280384000012  31.372479999999943 7.613439903999961  31.372479999999943 6.161919904000001  C 31.372479999999943 4.710399808000034  31.11712191999999 3.554559808000022  30.606400000000004 2.6943994240000393  Z M 26.157759040000027 3.5007995200000437  C 26.534080000000017 2.573439903999997  27.152320959999997 2.116480095999975  28.012479999999982 2.116480095999975  C 28.87263999999999 2.116480095999975  29.490879039999985 2.573439903999997  29.867199999999965 3.5007995200000437  C 30.135998080000036 4.14591999999999  30.28383808000001 5.032959712000036  30.28383808000001 6.161919904000001  C 30.28383808000001 7.277439616000038  30.135998080000036 8.16447932799997  29.867199999999965 8.823040192000008  C 29.490879039999985 9.73696000000001  28.87263999999999 10.207359999999994  28.012479999999982 10.207359999999994  C 27.152320959999997 10.207359999999994  26.534080000000017 9.73696000000001  26.157759040000027 8.823040192000008  C 25.888960959999963 8.16447932799997  25.754559040000004 7.277439616000038  25.754559040000004 6.161919904000001  C 25.754559040000004 5.032959712000036  25.888960959999963 4.14591999999999  26.157759040000027 3.5007995200000437  Z M 47.82304191999998 0.7321597119999979  L 38.53599808000001 0.7321597119999979  L 38.53599808000001 1.6729593279999904  L 47.82304191999998 1.6729593279999904  L 47.82304191999998 0.7321597119999979  Z M 48.99232096000003 4.683519904000036  L 37.50111903999999 4.683519904000036  L 37.50111903999999 5.624319904000004  L 40.98207904000003 5.624319904000004  L 40.98207904000003 5.825919999999996  C 40.95519903999997 7.290879519999976  40.659519999999986 8.487039807999963  40.12191904000002 9.400959039999975  C 39.54400191999997 10.288000000000011  38.53599808000001 10.986880000000042  37.08448096000001 11.52448000000004  L 37.608639040000014 12.344319999999982  C 39.100480000000005 11.793279999999982  40.17567903999998 11.027199999999993  40.847679039999946 10.046080000000018  C 41.51967999999994 8.984319423999978  41.88255903999999 7.573120096000024  41.922878079999975 5.825919999999996  L 41.922878079999975 5.624319904000004  L 44.34208288000002 5.624319904000004  L 44.34208288000002 10.839040000000011  C 44.34208288000002 11.672320000000013  44.758720960000005 12.088959999999986  45.60544096000001 12.088959999999986  L 47.55423904000003 12.088959999999986  C 48.03808096 12.088959999999986  48.400959039999975 11.941120000000012  48.62943807999994 11.672320000000013  C 48.89824096000001 11.363200000000006  49.07296000000002 10.476159999999993  49.167039999999986 9.011200287999998  L 48.27999999999997 8.728959615999997  C 48.22624000000002 9.938559999999995  48.132160959999965 10.664320000000032  47.97088095999999 10.906240000000025  C 47.86336191999999 11.10784000000001  47.66175903999999 11.215360000000032  47.36608000000001 11.215360000000032  L 45.87423904000002 11.215360000000032  C 45.47104095999998 11.215360000000032  45.28287807999999 11.01375999999999  45.28287807999999 10.63743999999997  L 45.28287807999999 5.624319904000004  L 48.99232096000003 5.624319904000004  L 48.99232096000003 4.683519904000036  Z " fill-rule="evenodd" />
    </mask>
  </defs>
  <g transform="matrix(1 0 0 1 -2042 -310 )">
    <path d="M 6.145599231999995 1.94175990399998  C 5.567678944000022 1.431039424000005  4.8419189439999855 1.175679616000025  3.954879135999988 1.175679616000025  C 2.9871987519999834 1.175679616000025  2.1942390399999567 1.4982400960000177  1.6028791360000127 2.143359999999973  C 1.011519136000004 2.77503999999999  0.7023990399999889 3.6351999039999896  0.7023990399999889 4.710399808000034  L 1.8044791359999974 4.710399808000034  C 1.8179190399999923 3.8636798080000285  2.0195191359999853 3.218559904000017  2.3958390399999985 2.788479903999985  C 2.745279136000022 2.3315200960000197  3.2559994239999805 2.116480095999975  3.914559327999996 2.116480095999975  C 4.532799423999961 2.116480095999975  5.0300790399999755 2.27775942400001  5.379519328000015 2.6003198079999947  C 5.728959231999966 2.922879328000022  5.90367932800001 3.3663997120000317  5.90367932800001 3.9577599039999996  C 5.90367932800001 4.575999904000014  5.648319135999998 5.153919712000004  5.16447932799997 5.678079711999999  C 4.909119136000015 5.9468799040000135  4.41183894400001 6.336640000000045  3.659199039999976 6.874240000000043  C 2.6377591359999997 7.573120096000024  1.9523191359999712 8.151039423999975  1.5759990399999992 8.581119424000008  C 0.9308790399999792 9.293440000000032  0.6217590399999722 10.08639999999997  0.6217590399999722 10.95999999999998  L 7.019198656000015 10.95999999999998  L 7.019198656000015 9.978880000000004  L 1.9791990399999693 9.978880000000004  C 2.1539189439999404 9.333759999999984  2.8527991359999874 8.594560288000025  4.075839040000005 7.774720192000017  C 5.070399328000008 7.1027199040000255  5.728959231999966 6.578559904000031  6.06495913599997 6.229120000000023  C 6.683199135999985 5.557119712000031  7.005758656000012 4.804479807999996  7.005758656000012 3.9711998079999944  C 7.005758656000012 3.1379193280000095  6.7100790399999815 2.452479519999997  6.145599231999995 1.94175990399998  Z M 14.23647999999997 1.9551999039999828  C 13.671999999999967 1.431039424000005  12.87904000000003 1.175679616000025  11.88447904000003 1.175679616000025  C 10.876480000000015 1.175679616000025  10.096959999999967 1.431039424000005  9.532479999999964 1.9551999039999828  C 9.008319040000003 2.4255997120000075  8.752959040000007 3.016959808000024  8.752959040000007 3.7158400000000147  C 8.752959040000007 4.226559616000031  8.873919999999998 4.6566400000000385  9.115839999999992 5.006079903999989  C 9.371199039999965 5.382400096000026  9.747520000000009 5.664639712000053  10.258239039999978 5.839359903999991  L 10.258239039999978 5.866239808000046  C 9.747520000000009 5.987199712000006  9.330879040000013 6.2694398080000155  8.981439039999998 6.699519808000048  C 8.605119903999991 7.156480095999997  8.416959808000001 7.694079615999954  8.416959808000001 8.312319615999968  C 8.416959808000001 9.159040000000005  8.71263904 9.844480000000033  9.303999999999974 10.355200000000025  C 9.908799999999985 10.87936000000002  10.768959999999993 11.148160000000018  11.88447904000003 11.148160000000018  C 12.986559999999997 11.148160000000018  13.846720000000005 10.87936000000002  14.464959039999997 10.355200000000025  C 15.056319999999971 9.844480000000033  15.352000959999998 9.159040000000005  15.352000959999998 8.312319615999968  C 15.352000959999998 7.694079615999954  15.163839999999992 7.156480095999997  14.787520000000029 6.699519808000048  C 14.438079039999991 6.2694398080000155  14.007999040000016 5.987199712000006  13.510719999999992 5.866239808000046  L 13.510719999999992 5.839359903999991  C 14.007999040000016 5.664639712000053  14.38431903999998 5.382400096000026  14.653119999999944 5.006079903999989  C 14.895039039999972 4.6566400000000385  15.016000000000018 4.226559616000031  15.016000000000018 3.7158400000000147  C 15.016000000000018 3.016959808000024  14.747199999999964 2.4255997120000075  14.23647999999997 1.9551999039999828  Z M 10.285120000000006 2.6003198079999947  C 10.661439040000005 2.2508795200000122  11.199040000000025 2.076159328000017  11.88447904000003 2.076159328000017  C 12.556480000000022 2.076159328000017  13.09408000000002 2.2508795200000122  13.483839999999987 2.6003198079999947  C 13.806399999999941 2.895999424000024  13.981119040000008 3.2857596160000067  13.981119040000008 3.7561598080000067  C 13.981119040000008 4.240000000000009  13.833280000000004 4.643199616000004  13.537599039999975 4.938879712000016  C 13.174719040000014 5.288319999999999  12.623679999999979 5.476479616000006  11.88447904000003 5.476479616000006  C 11.131839999999954 5.476479616000006  10.58080000000001 5.288319999999999  10.231359039999973 4.938879712000016  C 9.93567999999999 4.643199616000004  9.787839039999994 4.240000000000009  9.787839039999994 3.7561598080000067  C 9.787839039999994 3.2857596160000067  9.949119999999994 2.895999424000024  10.285120000000006 2.6003198079999947  Z M 10.096959999999967 6.9145598080000354  C 10.513599999999997 6.524799615999997  11.104959039999983 6.336640000000045  11.88447904000003 6.336640000000045  C 12.650559999999986 6.336640000000045  13.255359999999996 6.524799615999997  13.685439999999971 6.9145598080000354  C 14.061759999999992 7.263999615999978  14.263359999999977 7.734399424000003  14.263359999999977 8.312319615999968  C 14.263359999999977 8.876799903999995  14.061759999999992 9.333759999999984  13.685439999999971 9.6832  C 13.255359999999996 10.05952000000002  12.663999999999987 10.247680000000003  11.88447904000003 10.247680000000003  C 11.104959039999983 10.247680000000003  10.500159999999994 10.05952000000002  10.096959999999967 9.696640000000002  C 9.693759999999997 9.347199999999987  9.505600000000015 8.876799903999995  9.505600000000015 8.312319615999968  C 9.505600000000015 7.734399424000003  9.693759999999997 7.263999615999978  10.096959999999967 6.9145598080000354  Z M 22.273599999999988 1.94175990399998  C 21.695680960000004 1.431039424000005  20.969920000000002 1.175679616000025  20.08287999999999 1.175679616000025  C 19.11520095999998 1.175679616000025  18.322240959999988 1.4982400960000177  17.73087903999999 2.143359999999973  C 17.139520000000005 2.77503999999999  16.830399999999997 3.6351999039999896  16.830399999999997 4.710399808000034  L 17.93247999999994 4.710399808000034  C 17.94592 3.8636798080000285  18.147519999999986 3.218559904000017  18.523840000000007 2.788479903999985  C 18.873279999999966 2.3315200960000197  19.383999999999958 2.116480095999975  20.04255999999998 2.116480095999975  C 20.660799999999995 2.116480095999975  21.15808095999995 2.27775942400001  21.50752 2.6003198079999947  C 21.856960000000015 2.922879328000022  22.031680960000017 3.3663997120000317  22.031680960000017 3.9577599039999996  C 22.031680960000017 4.575999904000014  21.77632 5.153919712000004  21.292479999999955 5.678079711999999  C 21.037120000000016 5.9468799040000135  20.53983999999997 6.336640000000045  19.787199999999984 6.874240000000043  C 18.765760960000023 7.573120096000024  18.08032000000003 8.151039423999975  17.70399999999995 8.581119424000008  C 17.05888096000001 9.293440000000032  16.74975999999998 10.08639999999997  16.74975999999998 10.95999999999998  L 23.147199999999998 10.95999999999998  L 23.147199999999998 9.978880000000004  L 18.107199999999978 9.978880000000004  C 18.28192095999998 9.333759999999984  18.980799999999988 8.594560288000025  20.203840000000014 7.774720192000017  C 21.198400960000015 7.1027199040000255  21.856960000000015 6.578559904000031  22.192960000000028 6.229120000000023  C 22.811200960000008 5.557119712000031  23.133759999999995 4.804479807999996  23.133759999999995 3.9711998079999944  C 23.133759999999995 3.1379193280000095  22.838080959999957 2.452479519999997  22.273599999999988 1.94175990399998  Z M 30.606400000000004 2.6943994240000393  C 30.015039039999973 1.6729593279999904  29.15487903999997 1.175679616000025  28.012479999999982 1.175679616000025  C 26.856640000000027 1.175679616000025  25.996480000000023 1.6729593279999904  25.418559039999987 2.6943994240000393  C 24.90783904 3.554559808000022  24.65247999999997 4.710399808000034  24.65247999999997 6.161919904000001  C 24.65247999999997 7.613439903999961  24.90783904 8.769280384000012  25.418559039999987 9.629439999999988  C 25.996480000000023 10.63743999999997  26.856640000000027 11.148160000000018  28.012479999999982 11.148160000000018  C 29.15487903999997 11.148160000000018  30.015039039999973 10.63743999999997  30.606400000000004 9.629439999999988  C 31.11712191999999 8.769280384000012  31.372479999999943 7.613439903999961  31.372479999999943 6.161919904000001  C 31.372479999999943 4.710399808000034  31.11712191999999 3.554559808000022  30.606400000000004 2.6943994240000393  Z M 26.157759040000027 3.5007995200000437  C 26.534080000000017 2.573439903999997  27.152320959999997 2.116480095999975  28.012479999999982 2.116480095999975  C 28.87263999999999 2.116480095999975  29.490879039999985 2.573439903999997  29.867199999999965 3.5007995200000437  C 30.135998080000036 4.14591999999999  30.28383808000001 5.032959712000036  30.28383808000001 6.161919904000001  C 30.28383808000001 7.277439616000038  30.135998080000036 8.16447932799997  29.867199999999965 8.823040192000008  C 29.490879039999985 9.73696000000001  28.87263999999999 10.207359999999994  28.012479999999982 10.207359999999994  C 27.152320959999997 10.207359999999994  26.534080000000017 9.73696000000001  26.157759040000027 8.823040192000008  C 25.888960959999963 8.16447932799997  25.754559040000004 7.277439616000038  25.754559040000004 6.161919904000001  C 25.754559040000004 5.032959712000036  25.888960959999963 4.14591999999999  26.157759040000027 3.5007995200000437  Z M 47.82304191999998 0.7321597119999979  L 38.53599808000001 0.7321597119999979  L 38.53599808000001 1.6729593279999904  L 47.82304191999998 1.6729593279999904  L 47.82304191999998 0.7321597119999979  Z M 48.99232096000003 4.683519904000036  L 37.50111903999999 4.683519904000036  L 37.50111903999999 5.624319904000004  L 40.98207904000003 5.624319904000004  L 40.98207904000003 5.825919999999996  C 40.95519903999997 7.290879519999976  40.659519999999986 8.487039807999963  40.12191904000002 9.400959039999975  C 39.54400191999997 10.288000000000011  38.53599808000001 10.986880000000042  37.08448096000001 11.52448000000004  L 37.608639040000014 12.344319999999982  C 39.100480000000005 11.793279999999982  40.17567903999998 11.027199999999993  40.847679039999946 10.046080000000018  C 41.51967999999994 8.984319423999978  41.88255903999999 7.573120096000024  41.922878079999975 5.825919999999996  L 41.922878079999975 5.624319904000004  L 44.34208288000002 5.624319904000004  L 44.34208288000002 10.839040000000011  C 44.34208288000002 11.672320000000013  44.758720960000005 12.088959999999986  45.60544096000001 12.088959999999986  L 47.55423904000003 12.088959999999986  C 48.03808096 12.088959999999986  48.400959039999975 11.941120000000012  48.62943807999994 11.672320000000013  C 48.89824096000001 11.363200000000006  49.07296000000002 10.476159999999993  49.167039999999986 9.011200287999998  L 48.27999999999997 8.728959615999997  C 48.22624000000002 9.938559999999995  48.132160959999965 10.664320000000032  47.97088095999999 10.906240000000025  C 47.86336191999999 11.10784000000001  47.66175903999999 11.215360000000032  47.36608000000001 11.215360000000032  L 45.87423904000002 11.215360000000032  C 45.47104095999998 11.215360000000032  45.28287807999999 11.01375999999999  45.28287807999999 10.63743999999997  L 45.28287807999999 5.624319904000004  L 48.99232096000003 5.624319904000004  L 48.99232096000003 4.683519904000036  Z " fill-rule="nonzero" fill="rgba(51, 51, 51, 1)" stroke="none" transform="matrix(1 0 0 1 2042 310 )" class="fill" />
    <path d="M 6.145599231999995 1.94175990399998  C 5.567678944000022 1.431039424000005  4.8419189439999855 1.175679616000025  3.954879135999988 1.175679616000025  C 2.9871987519999834 1.175679616000025  2.1942390399999567 1.4982400960000177  1.6028791360000127 2.143359999999973  C 1.011519136000004 2.77503999999999  0.7023990399999889 3.6351999039999896  0.7023990399999889 4.710399808000034  L 1.8044791359999974 4.710399808000034  C 1.8179190399999923 3.8636798080000285  2.0195191359999853 3.218559904000017  2.3958390399999985 2.788479903999985  C 2.745279136000022 2.3315200960000197  3.2559994239999805 2.116480095999975  3.914559327999996 2.116480095999975  C 4.532799423999961 2.116480095999975  5.0300790399999755 2.27775942400001  5.379519328000015 2.6003198079999947  C 5.728959231999966 2.922879328000022  5.90367932800001 3.3663997120000317  5.90367932800001 3.9577599039999996  C 5.90367932800001 4.575999904000014  5.648319135999998 5.153919712000004  5.16447932799997 5.678079711999999  C 4.909119136000015 5.9468799040000135  4.41183894400001 6.336640000000045  3.659199039999976 6.874240000000043  C 2.6377591359999997 7.573120096000024  1.9523191359999712 8.151039423999975  1.5759990399999992 8.581119424000008  C 0.9308790399999792 9.293440000000032  0.6217590399999722 10.08639999999997  0.6217590399999722 10.95999999999998  L 7.019198656000015 10.95999999999998  L 7.019198656000015 9.978880000000004  L 1.9791990399999693 9.978880000000004  C 2.1539189439999404 9.333759999999984  2.8527991359999874 8.594560288000025  4.075839040000005 7.774720192000017  C 5.070399328000008 7.1027199040000255  5.728959231999966 6.578559904000031  6.06495913599997 6.229120000000023  C 6.683199135999985 5.557119712000031  7.005758656000012 4.804479807999996  7.005758656000012 3.9711998079999944  C 7.005758656000012 3.1379193280000095  6.7100790399999815 2.452479519999997  6.145599231999995 1.94175990399998  Z " stroke-width="0" stroke-dasharray="0" stroke="rgba(255, 255, 255, 0)" fill="none" transform="matrix(1 0 0 1 2042 310 )" class="stroke" mask="url(#Clip6202)" />
    <path d="M 14.23647999999997 1.9551999039999828  C 13.671999999999967 1.431039424000005  12.87904000000003 1.175679616000025  11.88447904000003 1.175679616000025  C 10.876480000000015 1.175679616000025  10.096959999999967 1.431039424000005  9.532479999999964 1.9551999039999828  C 9.008319040000003 2.4255997120000075  8.752959040000007 3.016959808000024  8.752959040000007 3.7158400000000147  C 8.752959040000007 4.226559616000031  8.873919999999998 4.6566400000000385  9.115839999999992 5.006079903999989  C 9.371199039999965 5.382400096000026  9.747520000000009 5.664639712000053  10.258239039999978 5.839359903999991  L 10.258239039999978 5.866239808000046  C 9.747520000000009 5.987199712000006  9.330879040000013 6.2694398080000155  8.981439039999998 6.699519808000048  C 8.605119903999991 7.156480095999997  8.416959808000001 7.694079615999954  8.416959808000001 8.312319615999968  C 8.416959808000001 9.159040000000005  8.71263904 9.844480000000033  9.303999999999974 10.355200000000025  C 9.908799999999985 10.87936000000002  10.768959999999993 11.148160000000018  11.88447904000003 11.148160000000018  C 12.986559999999997 11.148160000000018  13.846720000000005 10.87936000000002  14.464959039999997 10.355200000000025  C 15.056319999999971 9.844480000000033  15.352000959999998 9.159040000000005  15.352000959999998 8.312319615999968  C 15.352000959999998 7.694079615999954  15.163839999999992 7.156480095999997  14.787520000000029 6.699519808000048  C 14.438079039999991 6.2694398080000155  14.007999040000016 5.987199712000006  13.510719999999992 5.866239808000046  L 13.510719999999992 5.839359903999991  C 14.007999040000016 5.664639712000053  14.38431903999998 5.382400096000026  14.653119999999944 5.006079903999989  C 14.895039039999972 4.6566400000000385  15.016000000000018 4.226559616000031  15.016000000000018 3.7158400000000147  C 15.016000000000018 3.016959808000024  14.747199999999964 2.4255997120000075  14.23647999999997 1.9551999039999828  Z " stroke-width="0" stroke-dasharray="0" stroke="rgba(255, 255, 255, 0)" fill="none" transform="matrix(1 0 0 1 2042 310 )" class="stroke" mask="url(#Clip6202)" />
    <path d="M 10.285120000000006 2.6003198079999947  C 10.661439040000005 2.2508795200000122  11.199040000000025 2.076159328000017  11.88447904000003 2.076159328000017  C 12.556480000000022 2.076159328000017  13.09408000000002 2.2508795200000122  13.483839999999987 2.6003198079999947  C 13.806399999999941 2.895999424000024  13.981119040000008 3.2857596160000067  13.981119040000008 3.7561598080000067  C 13.981119040000008 4.240000000000009  13.833280000000004 4.643199616000004  13.537599039999975 4.938879712000016  C 13.174719040000014 5.288319999999999  12.623679999999979 5.476479616000006  11.88447904000003 5.476479616000006  C 11.131839999999954 5.476479616000006  10.58080000000001 5.288319999999999  10.231359039999973 4.938879712000016  C 9.93567999999999 4.643199616000004  9.787839039999994 4.240000000000009  9.787839039999994 3.7561598080000067  C 9.787839039999994 3.2857596160000067  9.949119999999994 2.895999424000024  10.285120000000006 2.6003198079999947  Z " stroke-width="0" stroke-dasharray="0" stroke="rgba(255, 255, 255, 0)" fill="none" transform="matrix(1 0 0 1 2042 310 )" class="stroke" mask="url(#Clip6202)" />
    <path d="M 10.096959999999967 6.9145598080000354  C 10.513599999999997 6.524799615999997  11.104959039999983 6.336640000000045  11.88447904000003 6.336640000000045  C 12.650559999999986 6.336640000000045  13.255359999999996 6.524799615999997  13.685439999999971 6.9145598080000354  C 14.061759999999992 7.263999615999978  14.263359999999977 7.734399424000003  14.263359999999977 8.312319615999968  C 14.263359999999977 8.876799903999995  14.061759999999992 9.333759999999984  13.685439999999971 9.6832  C 13.255359999999996 10.05952000000002  12.663999999999987 10.247680000000003  11.88447904000003 10.247680000000003  C 11.104959039999983 10.247680000000003  10.500159999999994 10.05952000000002  10.096959999999967 9.696640000000002  C 9.693759999999997 9.347199999999987  9.505600000000015 8.876799903999995  9.505600000000015 8.312319615999968  C 9.505600000000015 7.734399424000003  9.693759999999997 7.263999615999978  10.096959999999967 6.9145598080000354  Z " stroke-width="0" stroke-dasharray="0" stroke="rgba(255, 255, 255, 0)" fill="none" transform="matrix(1 0 0 1 2042 310 )" class="stroke" mask="url(#Clip6202)" />
    <path d="M 22.273599999999988 1.94175990399998  C 21.695680960000004 1.431039424000005  20.969920000000002 1.175679616000025  20.08287999999999 1.175679616000025  C 19.11520095999998 1.175679616000025  18.322240959999988 1.4982400960000177  17.73087903999999 2.143359999999973  C 17.139520000000005 2.77503999999999  16.830399999999997 3.6351999039999896  16.830399999999997 4.710399808000034  L 17.93247999999994 4.710399808000034  C 17.94592 3.8636798080000285  18.147519999999986 3.218559904000017  18.523840000000007 2.788479903999985  C 18.873279999999966 2.3315200960000197  19.383999999999958 2.116480095999975  20.04255999999998 2.116480095999975  C 20.660799999999995 2.116480095999975  21.15808095999995 2.27775942400001  21.50752 2.6003198079999947  C 21.856960000000015 2.922879328000022  22.031680960000017 3.3663997120000317  22.031680960000017 3.9577599039999996  C 22.031680960000017 4.575999904000014  21.77632 5.153919712000004  21.292479999999955 5.678079711999999  C 21.037120000000016 5.9468799040000135  20.53983999999997 6.336640000000045  19.787199999999984 6.874240000000043  C 18.765760960000023 7.573120096000024  18.08032000000003 8.151039423999975  17.70399999999995 8.581119424000008  C 17.05888096000001 9.293440000000032  16.74975999999998 10.08639999999997  16.74975999999998 10.95999999999998  L 23.147199999999998 10.95999999999998  L 23.147199999999998 9.978880000000004  L 18.107199999999978 9.978880000000004  C 18.28192095999998 9.333759999999984  18.980799999999988 8.594560288000025  20.203840000000014 7.774720192000017  C 21.198400960000015 7.1027199040000255  21.856960000000015 6.578559904000031  22.192960000000028 6.229120000000023  C 22.811200960000008 5.557119712000031  23.133759999999995 4.804479807999996  23.133759999999995 3.9711998079999944  C 23.133759999999995 3.1379193280000095  22.838080959999957 2.452479519999997  22.273599999999988 1.94175990399998  Z " stroke-width="0" stroke-dasharray="0" stroke="rgba(255, 255, 255, 0)" fill="none" transform="matrix(1 0 0 1 2042 310 )" class="stroke" mask="url(#Clip6202)" />
    <path d="M 30.606400000000004 2.6943994240000393  C 30.015039039999973 1.6729593279999904  29.15487903999997 1.175679616000025  28.012479999999982 1.175679616000025  C 26.856640000000027 1.175679616000025  25.996480000000023 1.6729593279999904  25.418559039999987 2.6943994240000393  C 24.90783904 3.554559808000022  24.65247999999997 4.710399808000034  24.65247999999997 6.161919904000001  C 24.65247999999997 7.613439903999961  24.90783904 8.769280384000012  25.418559039999987 9.629439999999988  C 25.996480000000023 10.63743999999997  26.856640000000027 11.148160000000018  28.012479999999982 11.148160000000018  C 29.15487903999997 11.148160000000018  30.015039039999973 10.63743999999997  30.606400000000004 9.629439999999988  C 31.11712191999999 8.769280384000012  31.372479999999943 7.613439903999961  31.372479999999943 6.161919904000001  C 31.372479999999943 4.710399808000034  31.11712191999999 3.554559808000022  30.606400000000004 2.6943994240000393  Z " stroke-width="0" stroke-dasharray="0" stroke="rgba(255, 255, 255, 0)" fill="none" transform="matrix(1 0 0 1 2042 310 )" class="stroke" mask="url(#Clip6202)" />
    <path d="M 26.157759040000027 3.5007995200000437  C 26.534080000000017 2.573439903999997  27.152320959999997 2.116480095999975  28.012479999999982 2.116480095999975  C 28.87263999999999 2.116480095999975  29.490879039999985 2.573439903999997  29.867199999999965 3.5007995200000437  C 30.135998080000036 4.14591999999999  30.28383808000001 5.032959712000036  30.28383808000001 6.161919904000001  C 30.28383808000001 7.277439616000038  30.135998080000036 8.16447932799997  29.867199999999965 8.823040192000008  C 29.490879039999985 9.73696000000001  28.87263999999999 10.207359999999994  28.012479999999982 10.207359999999994  C 27.152320959999997 10.207359999999994  26.534080000000017 9.73696000000001  26.157759040000027 8.823040192000008  C 25.888960959999963 8.16447932799997  25.754559040000004 7.277439616000038  25.754559040000004 6.161919904000001  C 25.754559040000004 5.032959712000036  25.888960959999963 4.14591999999999  26.157759040000027 3.5007995200000437  Z " stroke-width="0" stroke-dasharray="0" stroke="rgba(255, 255, 255, 0)" fill="none" transform="matrix(1 0 0 1 2042 310 )" class="stroke" mask="url(#Clip6202)" />
    <path d="M 47.82304191999998 0.7321597119999979  L 38.53599808000001 0.7321597119999979  L 38.53599808000001 1.6729593279999904  L 47.82304191999998 1.6729593279999904  L 47.82304191999998 0.7321597119999979  Z " stroke-width="0" stroke-dasharray="0" stroke="rgba(255, 255, 255, 0)" fill="none" transform="matrix(1 0 0 1 2042 310 )" class="stroke" mask="url(#Clip6202)" />
    <path d="M 48.99232096000003 4.683519904000036  L 37.50111903999999 4.683519904000036  L 37.50111903999999 5.624319904000004  L 40.98207904000003 5.624319904000004  L 40.98207904000003 5.825919999999996  C 40.95519903999997 7.290879519999976  40.659519999999986 8.487039807999963  40.12191904000002 9.400959039999975  C 39.54400191999997 10.288000000000011  38.53599808000001 10.986880000000042  37.08448096000001 11.52448000000004  L 37.608639040000014 12.344319999999982  C 39.100480000000005 11.793279999999982  40.17567903999998 11.027199999999993  40.847679039999946 10.046080000000018  C 41.51967999999994 8.984319423999978  41.88255903999999 7.573120096000024  41.922878079999975 5.825919999999996  L 41.922878079999975 5.624319904000004  L 44.34208288000002 5.624319904000004  L 44.34208288000002 10.839040000000011  C 44.34208288000002 11.672320000000013  44.758720960000005 12.088959999999986  45.60544096000001 12.088959999999986  L 47.55423904000003 12.088959999999986  C 48.03808096 12.088959999999986  48.400959039999975 11.941120000000012  48.62943807999994 11.672320000000013  C 48.89824096000001 11.363200000000006  49.07296000000002 10.476159999999993  49.167039999999986 9.011200287999998  L 48.27999999999997 8.728959615999997  C 48.22624000000002 9.938559999999995  48.132160959999965 10.664320000000032  47.97088095999999 10.906240000000025  C 47.86336191999999 11.10784000000001  47.66175903999999 11.215360000000032  47.36608000000001 11.215360000000032  L 45.87423904000002 11.215360000000032  C 45.47104095999998 11.215360000000032  45.28287807999999 11.01375999999999  45.28287807999999 10.63743999999997  L 45.28287807999999 5.624319904000004  L 48.99232096000003 5.624319904000004  L 48.99232096000003 4.683519904000036  Z " stroke-width="0" stroke-dasharray="0" stroke="rgba(255, 255, 255, 0)" fill="none" transform="matrix(1 0 0 1 2042 310 )" class="stroke" mask="url(#Clip6202)" />
  </g>
</svg>