<?xml version="1.0" encoding="utf-8"?>
<svg version="1.1" xmlns:xlink="http://www.w3.org/1999/xlink" width="22px" height="12px" xmlns="http://www.w3.org/2000/svg">
  <defs>
    <pattern id="BGPattern" patternUnits="userSpaceOnUse" alignment="0 0" imageRepeat="None" />
    <mask fill="white" id="Clip1653">
      <path d="M 0.5600000000000023 9.200042070500032  L 0.5600000000000023 3.4400327585000348  C 0.5600000000000023 2.0261926625000335  1.7061535999999933 0.8800390625000318  3.120003295999993 1  L 19.11996799999997 1  C 20.53385695999998 0.8800390625000318  21.680000000000007 2.0261926625000335  21.680000000000007 3.4400423585000333  L 21.680000000000007 9.200042070500032  C 21.680000000000007 10.613863062500034  20.53385695999998 11.760007062500033  19.11996799999997 11.760007062500033  L 3.120003295999993 11.760007062500033  C 1.7061535999999933 11.760007062500033  0.5600000000000023 10.613863062500034  0.5600000000000023 9.200042070500032  Z M 1.9886295680000217 2.308669494500034  C 1.676209856000014 2.621088310500035  1.5199999999999818 2.998209398500034  1.5199999999999818 3.4400327585000348  L 1.5199998272000244 9.200042070500032  C 1.5199998272000244 9.641854230500034  1.6762085568000202 10.018966966500031  1.9886260159999551 10.331380278500031  C 2.3010477120000132 10.643798134500035  2.678173472000026 10.800007062500033  3.120003295999993 10.800007062500033  L 19.119969920000017 10.800007062500033  C 19.56181631999999 10.800007062500033  19.938951680000002 10.643797526500034  20.251375999999993 10.33137845450003  C 20.563791999999978 10.018967574500035  20.71999999999997 9.641855446500035  20.71999999999997 9.200042070500032  L 20.71999999999997 3.4400423585000333  C 20.71999999999997 2.998213046500034  20.563790400000016 2.6210893665000334  20.251371199999994 2.308671318500032  C 19.938948159999995 1.9962498145000325  19.561813760000007 1.8400390625000327  19.11996799999997 2  L 3.120003008000026 2  C 2.6781749760000366 1.8400392545000344  2.301050496000016 1.9962492705000372  1.9886295680000217 2.308669494500034  Z " fill-rule="evenodd" />
    </mask>
  </defs>
  <g transform="matrix(1 0 0 1 -2077 -66 )">
    <path d="M 0.5600000000000023 9.200042070500032  L 0.5600000000000023 3.4400327585000348  C 0.5600000000000023 2.0261926625000335  1.7061535999999933 0.8800390625000318  3.120003295999993 1  L 19.11996799999997 1  C 20.53385695999998 0.8800390625000318  21.680000000000007 2.0261926625000335  21.680000000000007 3.4400423585000333  L 21.680000000000007 9.200042070500032  C 21.680000000000007 10.613863062500034  20.53385695999998 11.760007062500033  19.11996799999997 11.760007062500033  L 3.120003295999993 11.760007062500033  C 1.7061535999999933 11.760007062500033  0.5600000000000023 10.613863062500034  0.5600000000000023 9.200042070500032  Z M 1.9886295680000217 2.308669494500034  C 1.676209856000014 2.621088310500035  1.5199999999999818 2.998209398500034  1.5199999999999818 3.4400327585000348  L 1.5199998272000244 9.200042070500032  C 1.5199998272000244 9.641854230500034  1.6762085568000202 10.018966966500031  1.9886260159999551 10.331380278500031  C 2.3010477120000132 10.643798134500035  2.678173472000026 10.800007062500033  3.120003295999993 10.800007062500033  L 19.119969920000017 10.800007062500033  C 19.56181631999999 10.800007062500033  19.938951680000002 10.643797526500034  20.251375999999993 10.33137845450003  C 20.563791999999978 10.018967574500035  20.71999999999997 9.641855446500035  20.71999999999997 9.200042070500032  L 20.71999999999997 3.4400423585000333  C 20.71999999999997 2.998213046500034  20.563790400000016 2.6210893665000334  20.251371199999994 2.308671318500032  C 19.938948159999995 1.9962498145000325  19.561813760000007 1.8400390625000327  19.11996799999997 2  L 3.120003008000026 2  C 2.6781749760000366 1.8400392545000344  2.301050496000016 1.9962492705000372  1.9886295680000217 2.308669494500034  Z " fill-rule="nonzero" fill="rgba(0, 0, 0, 1)" stroke="none" transform="matrix(1 0 0 1 2077 66 )" class="fill" />
    <path d="M 0.5600000000000023 9.200042070500032  L 0.5600000000000023 3.4400327585000348  C 0.5600000000000023 2.0261926625000335  1.7061535999999933 0.8800390625000318  3.120003295999993 1  L 19.11996799999997 1  C 20.53385695999998 0.8800390625000318  21.680000000000007 2.0261926625000335  21.680000000000007 3.4400423585000333  L 21.680000000000007 9.200042070500032  C 21.680000000000007 10.613863062500034  20.53385695999998 11.760007062500033  19.11996799999997 11.760007062500033  L 3.120003295999993 11.760007062500033  C 1.7061535999999933 11.760007062500033  0.5600000000000023 10.613863062500034  0.5600000000000023 9.200042070500032  Z " stroke-width="0" stroke-dasharray="0" stroke="rgba(255, 255, 255, 0)" fill="none" transform="matrix(1 0 0 1 2077 66 )" class="stroke" mask="url(#Clip1653)" />
    <path d="M 1.9886295680000217 2.308669494500034  C 1.676209856000014 2.621088310500035  1.5199999999999818 2.998209398500034  1.5199999999999818 3.4400327585000348  L 1.5199998272000244 9.200042070500032  C 1.5199998272000244 9.641854230500034  1.6762085568000202 10.018966966500031  1.9886260159999551 10.331380278500031  C 2.3010477120000132 10.643798134500035  2.678173472000026 10.800007062500033  3.120003295999993 10.800007062500033  L 19.119969920000017 10.800007062500033  C 19.56181631999999 10.800007062500033  19.938951680000002 10.643797526500034  20.251375999999993 10.33137845450003  C 20.563791999999978 10.018967574500035  20.71999999999997 9.641855446500035  20.71999999999997 9.200042070500032  L 20.71999999999997 3.4400423585000333  C 20.71999999999997 2.998213046500034  20.563790400000016 2.6210893665000334  20.251371199999994 2.308671318500032  C 19.938948159999995 1.9962498145000325  19.561813760000007 1.8400390625000327  19.11996799999997 2  L 3.120003008000026 2  C 2.6781749760000366 1.8400392545000344  2.301050496000016 1.9962492705000372  1.9886295680000217 2.308669494500034  Z " stroke-width="0" stroke-dasharray="0" stroke="rgba(255, 255, 255, 0)" fill="none" transform="matrix(1 0 0 1 2077 66 )" class="stroke" mask="url(#Clip1653)" />
  </g>
</svg>