<?xml version="1.0" encoding="utf-8"?>
<svg version="1.1" xmlns:xlink="http://www.w3.org/1999/xlink" width="46px" height="11px" xmlns="http://www.w3.org/2000/svg">
  <defs>
    <pattern id="BGPattern" patternUnits="userSpaceOnUse" alignment="0 0" imageRepeat="None" />
    <mask fill="white" id="Clip1562">
      <path d="M 4.201914335999959 1.0838397120000423  L 3.34175424 1.0838397120000423  C 3.0191942399999903 1.4467200000000275  2.642874336000034 1.7692795200000262  2.1859142399999882 2.064960000000042  C 1.7289542400000073 2.333759808000025  1.2719942399999695 2.521919904000015  0.8419141439999862 2.6428793280000207  L 0.8419141439999862 3.7449595200000374  C 1.74239424000001 3.476159808000034  2.4950342399999954 3.046079904000038  3.099834336000015 2.427839328000033  L 3.099834336000015 10.680000000000035  L 4.201914335999959 10.680000000000035  L 4.201914335999959 1.0838397120000423  Z M 11.997114239999974 1.661759904000036  C 11.41919519999999 1.1510394240000323  10.693434239999988 0.8956796160000238  9.806394239999975 0.8956796160000238  C 8.838714335999953 0.8956796160000238  8.045755007999958 1.2182400960000166  7.454394815999989 1.8633600000000285  C 6.8630346239999644 2.4950400000000172  6.553914623999958 3.3551999040000453  6.553914623999958 4.430399808000033  L 7.65599491200004 4.430399808000033  C 7.669434815999978 3.583679808000028  7.871034815999963 2.9385599040000443  8.247354143999985 2.5084799040000405  C 8.596794431999967 2.0515200960000186  9.107514912 1.836480096000031  9.766075199999989 1.836480096000031  C 10.384315200000003 1.836480096000031  10.88159423999997 1.9977594240000371  11.231035200000008 2.3203198080000504  C 11.580474240000003 2.6428793280000207  11.755195200000003 3.0863997120000306  11.755195200000003 3.677759904000027  C 11.755195200000003 4.295999904000041  11.499834239999984 4.873919712000031  11.015995199999963 5.398079712000026  C 10.760634240000002 5.666879904000041  10.263354239999956 6.056640000000017  9.51071423999997 6.594240000000042  C 8.489274911999985 7.293120096000024  7.803834239999957 7.871039424000031  7.427514527999961 8.301119424000035  C 6.7823945279999975 9.013440000000031  6.47327452799999 9.806400000000025  6.47327452799999 10.680000000000035  L 12.870714239999982 10.680000000000035  L 12.870714239999982 9.698880000000031  L 7.830714143999955 9.698880000000031  C 8.00543424 9.05376000000004  8.704314911999973 8.314560288000052  9.92735424 7.494720192000045  C 10.9219152 6.822719904000024  11.580474240000003 6.2985599040000295  11.916474240000014 5.949120000000022  C 12.534714239999973 5.2771197120000295  12.857274239999981 4.524479808000024  12.857274239999981 3.69119980800005  C 12.857274239999981 2.8579193280000084  12.561594239999977 2.1724795200000244  11.997114239999974 1.661759904000036  Z M 20.061116159999983 1.594559328000031  C 19.49663423999999 1.1241595200000347  18.743994240000006 0.8956796160000238  17.830074239999988 0.8956796160000238  C 16.91615519999999 0.8956796160000238  16.176954239999986 1.1510394240000323  15.612475200000006 1.6751999040000387  C 15.021115199999997 2.199359424000022  14.671675200000038 2.9251199040000415  14.591035200000022 3.8524800000000425  L 15.679674239999997 3.8524800000000425  C 15.746874239999954 3.2073596160000477  15.961915200000021 2.7100800000000334  16.338235199999986 2.360639616000043  C 16.70111615999997 2.011199328000032  17.198395199999993 1.8499200000000258  17.84351423999999 1.8499200000000258  C 18.46175519999997 1.8499200000000258  18.95903519999996 1.9977594240000371  19.308475199999975 2.3203198080000504  C 19.631036160000008 2.615999424000023  19.805755199999965 3.0326399040000354  19.805755199999965 3.570239904000033  C 19.805755199999965 4.107839808000051  19.631036160000008 4.524479808000024  19.295035199999973 4.820159904000036  C 18.95903519999996 5.102400096000025  18.47519520000003 5.25023990400004  17.830074239999988 5.25023990400004  L 17.090876159999993 5.25023990400004  L 17.090876159999993 6.110399808000011  L 17.870394239999996 6.110399808000011  C 18.542395199999987 6.110399808000011  19.053114239999957 6.258240096000037  19.4294352 6.58080000000001  C 19.805755199999965 6.903360000000021  19.99391615999997 7.346879904000019  19.99391615999997 7.924800096000013  C 19.99391615999997 8.489280384000011  19.792315199999962 8.95968000000002  19.41599519999994 9.336000000000013  C 18.999355200000025 9.725760000000037  18.448315199999968 9.92736000000005  17.762875199999996 9.92736000000005  C 17.158075199999985 9.92736000000005  16.660796160000018 9.752640000000014  16.25759615999999 9.430080000000032  C 15.787196160000008 9.040320000000037  15.531835199999989 8.462399616000027  15.504955199999984 7.709760096000025  L 14.38943519999998 7.709760096000025  C 14.470075199999995 8.78496000000004  14.846394239999995 9.604800000000012  15.531835199999989 10.169280000000015  C 16.10975424000003 10.626240000000024  16.848955199999978 10.868160000000017  17.762875199999996 10.868160000000017  C 18.75743424000001 10.868160000000017  19.56383423999995 10.585920000000016  20.182075199999986 10.021440000000013  C 20.78687616000002 9.47040000000004  21.095995199999948 8.758080096000043  21.095995199999948 7.884479328000026  C 21.095995199999948 7.320000000000022  20.934715200000028 6.849600192000025  20.612155200000018 6.473280000000017  C 20.31647423999999 6.096959808000037  19.88639423999996 5.828159616000022  19.321915200000035 5.653439904000009  C 20.370234240000002 5.303999616000027  20.894396159999985 4.578239616000019  20.894396159999985 3.503039712000032  C 20.894396159999985 2.6966400000000306  20.612155200000018 2.064960000000042  20.061116159999983 1.594559328000031  Z M 27.963836160000028 1.0838397120000423  L 26.92895519999996 1.0838397120000423  L 22.09055615999995 7.45439942400003  L 22.09055615999995 8.502720384000042  L 26.91551519999996 8.502720384000042  L 26.91551519999996 10.680000000000035  L 27.963836160000028 10.680000000000035  L 27.963836160000028 8.502720384000042  L 29.522875199999987 8.502720384000042  L 29.522875199999987 7.602239712000028  L 27.963836160000028 7.602239712000028  L 27.963836160000028 1.0838397120000423  Z M 23.0179152 7.602239712000028  L 26.875195200000004 2.521919904000015  L 26.91551519999996 2.521919904000015  L 26.91551519999996 7.602239712000028  L 23.0179152 7.602239712000028  Z M 36.82079616000004 1.0838397120000423  L 31.243198080000013 1.0838397120000423  L 30.732477120000002 6.379200000000026  L 31.780796160000023 6.379200000000026  C 31.96895903999996 6.002879808000017  32.264637119999975 5.707199712000033  32.64095615999997 5.519039616000015  C 33.00383808000004 5.317440000000005  33.40703615999996 5.223360000000042  33.86399807999999 5.223360000000042  C 34.56287807999996 5.223360000000042  35.113916159999974 5.424960000000027  35.503678079999986 5.855040000000031  C 35.906876160000024 6.2716800000000035  36.12191904000002 6.863040192000028  36.12191904000002 7.629119520000047  C 36.12191904000002 8.301119424000035  35.89343616000002 8.852160000000026  35.46335807999998 9.28224000000003  C 35.01983616000001 9.712320000000034  34.468799039999965 9.92736000000005  33.796798079999974 9.92736000000005  C 33.20543712 9.92736000000005  32.708155199999965 9.779520000000048  32.33183711999999 9.497280000000018  C 31.90175519999997 9.174720000000008  31.659836159999994 8.704319424000005  31.60607712000001 8.099520288000036  L 30.517438079999977 8.099520288000036  C 30.584637119999968 8.973120000000051  30.947516159999964 9.672000000000025  31.61951615999999 10.182720000000018  C 32.210878079999986 10.639680000000027  32.936638079999966 10.868160000000017  33.78335807999997 10.868160000000017  C 34.724158079999995 10.868160000000017  35.530558079999935 10.572480000000041  36.17567903999998 9.994560000000035  C 36.861116159999995 9.376320000000021  37.21055807999994 8.583360000000027  37.21055807999994 7.615679616000023  C 37.21055807999994 6.58080000000001  36.91487519999998 5.774399904000034  36.35039807999999 5.18303971200001  C 35.785917119999965 4.60511990400002  35.04671616000002 4.322879808000039  34.13279616 4.322879808000039  C 33.68927904000003 4.322879808000039  33.286077120000016 4.39008000000004  32.90975808000002 4.551359712000021  C 32.49311616 4.712639904000042  32.14367807999997 4.954559808000056  31.874875199999963 5.2771197120000295  L 31.821116159999978 5.2771197120000295  L 32.14367807999997 2.064960000000042  L 36.82079616000004 2.064960000000042  L 36.82079616000004 1.0838397120000423  Z M 45.12671999999998 3.462719904000039  C 44.85791711999997 1.7423996160000286  43.836478080000006 0.8956796160000238  42.06239904 0.8956796160000238  C 40.97375999999997 0.8956796160000238  40.11359999999996 1.392959328000046  39.48191903999998 2.4009595200000433  C 38.87711808 3.3551999040000453  38.58143904000002 4.60511990400002  38.58143904000002 6.137279616000029  C 38.58143904000002 7.602239712000028  38.85023808 8.74464019200002  39.41471904000002 9.564480000000032  C 40.006077119999986 10.42464000000004  40.87967999999995 10.868160000000017  42.04895904 10.868160000000017  C 42.98975808 10.868160000000017  43.75583904000001 10.545600000000036  44.37407999999999 9.92736000000005  C 44.97887711999999 9.309120000000036  45.28799903999999 8.516160288000009  45.28799903999999 7.57535980800003  C 45.28799903999999 6.634559808000034  45.00575711999994 5.8819199040000285  44.454719039999986 5.290559712000032  C 43.89023807999996 4.699200000000047  43.15103712000001 4.403519904000035  42.237118080000016 4.403519904000035  C 41.67263711999999 4.403519904000035  41.17535903999999 4.5379198080000265  40.74527711999997 4.820159904000036  C 40.288319039999976 5.088959616000039  39.952317119999975 5.478719808000022  39.710398080000004 5.97599990400002  L 39.65663807999994 5.97599990400002  C 39.64319807999999 5.801279712000024  39.64319807999999 5.680319808000036  39.64319807999999 5.626560096000049  C 39.64319807999999 4.5379198080000265  39.84479712000001 3.6374396160000515  40.27487903999997 2.9385599040000443  C 40.70495712000002 2.185919520000027  41.29631807999999 1.8230401920000077  42.04895904 1.8230401920000077  C 43.16447711999996 1.8230401920000077  43.82303808 2.360639616000043  44.03807711999997 3.462719904000039  L 45.12671999999998 3.462719904000039  Z M 40.44959807999999 5.962560000000053  C 40.866240000000005 5.532480000000021  41.39039808000001 5.317440000000005  42.022079039999994 5.317440000000005  C 42.68063999999998 5.317440000000005  43.20479711999997 5.519039616000015  43.60799903999998 5.949120000000022  C 43.99775712000002 6.352319616000017  44.19936000000001 6.889920000000018  44.19936000000001 7.57535980800003  C 44.19936000000001 8.260799520000035  43.99775712000002 8.825280000000049  43.59455903999998 9.28224000000003  C 43.191357119999964 9.712320000000034  42.66719999999998 9.940800000000024  42.022079039999994 9.940800000000024  C 41.350078079999946 9.940800000000024  40.825919999999996 9.712320000000034  40.42271807999998 9.255360000000024  C 40.01952 8.825280000000049  39.83135712000001 8.274239520000037  39.83135712000001 7.602239712000028  C 39.83135712000001 6.930239904000018  40.03296 6.392639904000021  40.44959807999999 5.962560000000053  Z " fill-rule="evenodd" />
    </mask>
  </defs>
  <g transform="matrix(1 0 0 1 -2046 -245 )">
    <path d="M 4.201914335999959 1.0838397120000423  L 3.34175424 1.0838397120000423  C 3.0191942399999903 1.4467200000000275  2.642874336000034 1.7692795200000262  2.1859142399999882 2.064960000000042  C 1.7289542400000073 2.333759808000025  1.2719942399999695 2.521919904000015  0.8419141439999862 2.6428793280000207  L 0.8419141439999862 3.7449595200000374  C 1.74239424000001 3.476159808000034  2.4950342399999954 3.046079904000038  3.099834336000015 2.427839328000033  L 3.099834336000015 10.680000000000035  L 4.201914335999959 10.680000000000035  L 4.201914335999959 1.0838397120000423  Z M 11.997114239999974 1.661759904000036  C 11.41919519999999 1.1510394240000323  10.693434239999988 0.8956796160000238  9.806394239999975 0.8956796160000238  C 8.838714335999953 0.8956796160000238  8.045755007999958 1.2182400960000166  7.454394815999989 1.8633600000000285  C 6.8630346239999644 2.4950400000000172  6.553914623999958 3.3551999040000453  6.553914623999958 4.430399808000033  L 7.65599491200004 4.430399808000033  C 7.669434815999978 3.583679808000028  7.871034815999963 2.9385599040000443  8.247354143999985 2.5084799040000405  C 8.596794431999967 2.0515200960000186  9.107514912 1.836480096000031  9.766075199999989 1.836480096000031  C 10.384315200000003 1.836480096000031  10.88159423999997 1.9977594240000371  11.231035200000008 2.3203198080000504  C 11.580474240000003 2.6428793280000207  11.755195200000003 3.0863997120000306  11.755195200000003 3.677759904000027  C 11.755195200000003 4.295999904000041  11.499834239999984 4.873919712000031  11.015995199999963 5.398079712000026  C 10.760634240000002 5.666879904000041  10.263354239999956 6.056640000000017  9.51071423999997 6.594240000000042  C 8.489274911999985 7.293120096000024  7.803834239999957 7.871039424000031  7.427514527999961 8.301119424000035  C 6.7823945279999975 9.013440000000031  6.47327452799999 9.806400000000025  6.47327452799999 10.680000000000035  L 12.870714239999982 10.680000000000035  L 12.870714239999982 9.698880000000031  L 7.830714143999955 9.698880000000031  C 8.00543424 9.05376000000004  8.704314911999973 8.314560288000052  9.92735424 7.494720192000045  C 10.9219152 6.822719904000024  11.580474240000003 6.2985599040000295  11.916474240000014 5.949120000000022  C 12.534714239999973 5.2771197120000295  12.857274239999981 4.524479808000024  12.857274239999981 3.69119980800005  C 12.857274239999981 2.8579193280000084  12.561594239999977 2.1724795200000244  11.997114239999974 1.661759904000036  Z M 20.061116159999983 1.594559328000031  C 19.49663423999999 1.1241595200000347  18.743994240000006 0.8956796160000238  17.830074239999988 0.8956796160000238  C 16.91615519999999 0.8956796160000238  16.176954239999986 1.1510394240000323  15.612475200000006 1.6751999040000387  C 15.021115199999997 2.199359424000022  14.671675200000038 2.9251199040000415  14.591035200000022 3.8524800000000425  L 15.679674239999997 3.8524800000000425  C 15.746874239999954 3.2073596160000477  15.961915200000021 2.7100800000000334  16.338235199999986 2.360639616000043  C 16.70111615999997 2.011199328000032  17.198395199999993 1.8499200000000258  17.84351423999999 1.8499200000000258  C 18.46175519999997 1.8499200000000258  18.95903519999996 1.9977594240000371  19.308475199999975 2.3203198080000504  C 19.631036160000008 2.615999424000023  19.805755199999965 3.0326399040000354  19.805755199999965 3.570239904000033  C 19.805755199999965 4.107839808000051  19.631036160000008 4.524479808000024  19.295035199999973 4.820159904000036  C 18.95903519999996 5.102400096000025  18.47519520000003 5.25023990400004  17.830074239999988 5.25023990400004  L 17.090876159999993 5.25023990400004  L 17.090876159999993 6.110399808000011  L 17.870394239999996 6.110399808000011  C 18.542395199999987 6.110399808000011  19.053114239999957 6.258240096000037  19.4294352 6.58080000000001  C 19.805755199999965 6.903360000000021  19.99391615999997 7.346879904000019  19.99391615999997 7.924800096000013  C 19.99391615999997 8.489280384000011  19.792315199999962 8.95968000000002  19.41599519999994 9.336000000000013  C 18.999355200000025 9.725760000000037  18.448315199999968 9.92736000000005  17.762875199999996 9.92736000000005  C 17.158075199999985 9.92736000000005  16.660796160000018 9.752640000000014  16.25759615999999 9.430080000000032  C 15.787196160000008 9.040320000000037  15.531835199999989 8.462399616000027  15.504955199999984 7.709760096000025  L 14.38943519999998 7.709760096000025  C 14.470075199999995 8.78496000000004  14.846394239999995 9.604800000000012  15.531835199999989 10.169280000000015  C 16.10975424000003 10.626240000000024  16.848955199999978 10.868160000000017  17.762875199999996 10.868160000000017  C 18.75743424000001 10.868160000000017  19.56383423999995 10.585920000000016  20.182075199999986 10.021440000000013  C 20.78687616000002 9.47040000000004  21.095995199999948 8.758080096000043  21.095995199999948 7.884479328000026  C 21.095995199999948 7.320000000000022  20.934715200000028 6.849600192000025  20.612155200000018 6.473280000000017  C 20.31647423999999 6.096959808000037  19.88639423999996 5.828159616000022  19.321915200000035 5.653439904000009  C 20.370234240000002 5.303999616000027  20.894396159999985 4.578239616000019  20.894396159999985 3.503039712000032  C 20.894396159999985 2.6966400000000306  20.612155200000018 2.064960000000042  20.061116159999983 1.594559328000031  Z M 27.963836160000028 1.0838397120000423  L 26.92895519999996 1.0838397120000423  L 22.09055615999995 7.45439942400003  L 22.09055615999995 8.502720384000042  L 26.91551519999996 8.502720384000042  L 26.91551519999996 10.680000000000035  L 27.963836160000028 10.680000000000035  L 27.963836160000028 8.502720384000042  L 29.522875199999987 8.502720384000042  L 29.522875199999987 7.602239712000028  L 27.963836160000028 7.602239712000028  L 27.963836160000028 1.0838397120000423  Z M 23.0179152 7.602239712000028  L 26.875195200000004 2.521919904000015  L 26.91551519999996 2.521919904000015  L 26.91551519999996 7.602239712000028  L 23.0179152 7.602239712000028  Z M 36.82079616000004 1.0838397120000423  L 31.243198080000013 1.0838397120000423  L 30.732477120000002 6.379200000000026  L 31.780796160000023 6.379200000000026  C 31.96895903999996 6.002879808000017  32.264637119999975 5.707199712000033  32.64095615999997 5.519039616000015  C 33.00383808000004 5.317440000000005  33.40703615999996 5.223360000000042  33.86399807999999 5.223360000000042  C 34.56287807999996 5.223360000000042  35.113916159999974 5.424960000000027  35.503678079999986 5.855040000000031  C 35.906876160000024 6.2716800000000035  36.12191904000002 6.863040192000028  36.12191904000002 7.629119520000047  C 36.12191904000002 8.301119424000035  35.89343616000002 8.852160000000026  35.46335807999998 9.28224000000003  C 35.01983616000001 9.712320000000034  34.468799039999965 9.92736000000005  33.796798079999974 9.92736000000005  C 33.20543712 9.92736000000005  32.708155199999965 9.779520000000048  32.33183711999999 9.497280000000018  C 31.90175519999997 9.174720000000008  31.659836159999994 8.704319424000005  31.60607712000001 8.099520288000036  L 30.517438079999977 8.099520288000036  C 30.584637119999968 8.973120000000051  30.947516159999964 9.672000000000025  31.61951615999999 10.182720000000018  C 32.210878079999986 10.639680000000027  32.936638079999966 10.868160000000017  33.78335807999997 10.868160000000017  C 34.724158079999995 10.868160000000017  35.530558079999935 10.572480000000041  36.17567903999998 9.994560000000035  C 36.861116159999995 9.376320000000021  37.21055807999994 8.583360000000027  37.21055807999994 7.615679616000023  C 37.21055807999994 6.58080000000001  36.91487519999998 5.774399904000034  36.35039807999999 5.18303971200001  C 35.785917119999965 4.60511990400002  35.04671616000002 4.322879808000039  34.13279616 4.322879808000039  C 33.68927904000003 4.322879808000039  33.286077120000016 4.39008000000004  32.90975808000002 4.551359712000021  C 32.49311616 4.712639904000042  32.14367807999997 4.954559808000056  31.874875199999963 5.2771197120000295  L 31.821116159999978 5.2771197120000295  L 32.14367807999997 2.064960000000042  L 36.82079616000004 2.064960000000042  L 36.82079616000004 1.0838397120000423  Z M 45.12671999999998 3.462719904000039  C 44.85791711999997 1.7423996160000286  43.836478080000006 0.8956796160000238  42.06239904 0.8956796160000238  C 40.97375999999997 0.8956796160000238  40.11359999999996 1.392959328000046  39.48191903999998 2.4009595200000433  C 38.87711808 3.3551999040000453  38.58143904000002 4.60511990400002  38.58143904000002 6.137279616000029  C 38.58143904000002 7.602239712000028  38.85023808 8.74464019200002  39.41471904000002 9.564480000000032  C 40.006077119999986 10.42464000000004  40.87967999999995 10.868160000000017  42.04895904 10.868160000000017  C 42.98975808 10.868160000000017  43.75583904000001 10.545600000000036  44.37407999999999 9.92736000000005  C 44.97887711999999 9.309120000000036  45.28799903999999 8.516160288000009  45.28799903999999 7.57535980800003  C 45.28799903999999 6.634559808000034  45.00575711999994 5.8819199040000285  44.454719039999986 5.290559712000032  C 43.89023807999996 4.699200000000047  43.15103712000001 4.403519904000035  42.237118080000016 4.403519904000035  C 41.67263711999999 4.403519904000035  41.17535903999999 4.5379198080000265  40.74527711999997 4.820159904000036  C 40.288319039999976 5.088959616000039  39.952317119999975 5.478719808000022  39.710398080000004 5.97599990400002  L 39.65663807999994 5.97599990400002  C 39.64319807999999 5.801279712000024  39.64319807999999 5.680319808000036  39.64319807999999 5.626560096000049  C 39.64319807999999 4.5379198080000265  39.84479712000001 3.6374396160000515  40.27487903999997 2.9385599040000443  C 40.70495712000002 2.185919520000027  41.29631807999999 1.8230401920000077  42.04895904 1.8230401920000077  C 43.16447711999996 1.8230401920000077  43.82303808 2.360639616000043  44.03807711999997 3.462719904000039  L 45.12671999999998 3.462719904000039  Z M 40.44959807999999 5.962560000000053  C 40.866240000000005 5.532480000000021  41.39039808000001 5.317440000000005  42.022079039999994 5.317440000000005  C 42.68063999999998 5.317440000000005  43.20479711999997 5.519039616000015  43.60799903999998 5.949120000000022  C 43.99775712000002 6.352319616000017  44.19936000000001 6.889920000000018  44.19936000000001 7.57535980800003  C 44.19936000000001 8.260799520000035  43.99775712000002 8.825280000000049  43.59455903999998 9.28224000000003  C 43.191357119999964 9.712320000000034  42.66719999999998 9.940800000000024  42.022079039999994 9.940800000000024  C 41.350078079999946 9.940800000000024  40.825919999999996 9.712320000000034  40.42271807999998 9.255360000000024  C 40.01952 8.825280000000049  39.83135712000001 8.274239520000037  39.83135712000001 7.602239712000028  C 39.83135712000001 6.930239904000018  40.03296 6.392639904000021  40.44959807999999 5.962560000000053  Z " fill-rule="nonzero" fill="rgba(51, 51, 51, 1)" stroke="none" transform="matrix(1 0 0 1 2046 245 )" class="fill" />
    <path d="M 4.201914335999959 1.0838397120000423  L 3.34175424 1.0838397120000423  C 3.0191942399999903 1.4467200000000275  2.642874336000034 1.7692795200000262  2.1859142399999882 2.064960000000042  C 1.7289542400000073 2.333759808000025  1.2719942399999695 2.521919904000015  0.8419141439999862 2.6428793280000207  L 0.8419141439999862 3.7449595200000374  C 1.74239424000001 3.476159808000034  2.4950342399999954 3.046079904000038  3.099834336000015 2.427839328000033  L 3.099834336000015 10.680000000000035  L 4.201914335999959 10.680000000000035  L 4.201914335999959 1.0838397120000423  Z " stroke-width="0" stroke-dasharray="0" stroke="rgba(255, 255, 255, 0)" fill="none" transform="matrix(1 0 0 1 2046 245 )" class="stroke" mask="url(#Clip1562)" />
    <path d="M 11.997114239999974 1.661759904000036  C 11.41919519999999 1.1510394240000323  10.693434239999988 0.8956796160000238  9.806394239999975 0.8956796160000238  C 8.838714335999953 0.8956796160000238  8.045755007999958 1.2182400960000166  7.454394815999989 1.8633600000000285  C 6.8630346239999644 2.4950400000000172  6.553914623999958 3.3551999040000453  6.553914623999958 4.430399808000033  L 7.65599491200004 4.430399808000033  C 7.669434815999978 3.583679808000028  7.871034815999963 2.9385599040000443  8.247354143999985 2.5084799040000405  C 8.596794431999967 2.0515200960000186  9.107514912 1.836480096000031  9.766075199999989 1.836480096000031  C 10.384315200000003 1.836480096000031  10.88159423999997 1.9977594240000371  11.231035200000008 2.3203198080000504  C 11.580474240000003 2.6428793280000207  11.755195200000003 3.0863997120000306  11.755195200000003 3.677759904000027  C 11.755195200000003 4.295999904000041  11.499834239999984 4.873919712000031  11.015995199999963 5.398079712000026  C 10.760634240000002 5.666879904000041  10.263354239999956 6.056640000000017  9.51071423999997 6.594240000000042  C 8.489274911999985 7.293120096000024  7.803834239999957 7.871039424000031  7.427514527999961 8.301119424000035  C 6.7823945279999975 9.013440000000031  6.47327452799999 9.806400000000025  6.47327452799999 10.680000000000035  L 12.870714239999982 10.680000000000035  L 12.870714239999982 9.698880000000031  L 7.830714143999955 9.698880000000031  C 8.00543424 9.05376000000004  8.704314911999973 8.314560288000052  9.92735424 7.494720192000045  C 10.9219152 6.822719904000024  11.580474240000003 6.2985599040000295  11.916474240000014 5.949120000000022  C 12.534714239999973 5.2771197120000295  12.857274239999981 4.524479808000024  12.857274239999981 3.69119980800005  C 12.857274239999981 2.8579193280000084  12.561594239999977 2.1724795200000244  11.997114239999974 1.661759904000036  Z " stroke-width="0" stroke-dasharray="0" stroke="rgba(255, 255, 255, 0)" fill="none" transform="matrix(1 0 0 1 2046 245 )" class="stroke" mask="url(#Clip1562)" />
    <path d="M 20.061116159999983 1.594559328000031  C 19.49663423999999 1.1241595200000347  18.743994240000006 0.8956796160000238  17.830074239999988 0.8956796160000238  C 16.91615519999999 0.8956796160000238  16.176954239999986 1.1510394240000323  15.612475200000006 1.6751999040000387  C 15.021115199999997 2.199359424000022  14.671675200000038 2.9251199040000415  14.591035200000022 3.8524800000000425  L 15.679674239999997 3.8524800000000425  C 15.746874239999954 3.2073596160000477  15.961915200000021 2.7100800000000334  16.338235199999986 2.360639616000043  C 16.70111615999997 2.011199328000032  17.198395199999993 1.8499200000000258  17.84351423999999 1.8499200000000258  C 18.46175519999997 1.8499200000000258  18.95903519999996 1.9977594240000371  19.308475199999975 2.3203198080000504  C 19.631036160000008 2.615999424000023  19.805755199999965 3.0326399040000354  19.805755199999965 3.570239904000033  C 19.805755199999965 4.107839808000051  19.631036160000008 4.524479808000024  19.295035199999973 4.820159904000036  C 18.95903519999996 5.102400096000025  18.47519520000003 5.25023990400004  17.830074239999988 5.25023990400004  L 17.090876159999993 5.25023990400004  L 17.090876159999993 6.110399808000011  L 17.870394239999996 6.110399808000011  C 18.542395199999987 6.110399808000011  19.053114239999957 6.258240096000037  19.4294352 6.58080000000001  C 19.805755199999965 6.903360000000021  19.99391615999997 7.346879904000019  19.99391615999997 7.924800096000013  C 19.99391615999997 8.489280384000011  19.792315199999962 8.95968000000002  19.41599519999994 9.336000000000013  C 18.999355200000025 9.725760000000037  18.448315199999968 9.92736000000005  17.762875199999996 9.92736000000005  C 17.158075199999985 9.92736000000005  16.660796160000018 9.752640000000014  16.25759615999999 9.430080000000032  C 15.787196160000008 9.040320000000037  15.531835199999989 8.462399616000027  15.504955199999984 7.709760096000025  L 14.38943519999998 7.709760096000025  C 14.470075199999995 8.78496000000004  14.846394239999995 9.604800000000012  15.531835199999989 10.169280000000015  C 16.10975424000003 10.626240000000024  16.848955199999978 10.868160000000017  17.762875199999996 10.868160000000017  C 18.75743424000001 10.868160000000017  19.56383423999995 10.585920000000016  20.182075199999986 10.021440000000013  C 20.78687616000002 9.47040000000004  21.095995199999948 8.758080096000043  21.095995199999948 7.884479328000026  C 21.095995199999948 7.320000000000022  20.934715200000028 6.849600192000025  20.612155200000018 6.473280000000017  C 20.31647423999999 6.096959808000037  19.88639423999996 5.828159616000022  19.321915200000035 5.653439904000009  C 20.370234240000002 5.303999616000027  20.894396159999985 4.578239616000019  20.894396159999985 3.503039712000032  C 20.894396159999985 2.6966400000000306  20.612155200000018 2.064960000000042  20.061116159999983 1.594559328000031  Z " stroke-width="0" stroke-dasharray="0" stroke="rgba(255, 255, 255, 0)" fill="none" transform="matrix(1 0 0 1 2046 245 )" class="stroke" mask="url(#Clip1562)" />
    <path d="M 27.963836160000028 1.0838397120000423  L 26.92895519999996 1.0838397120000423  L 22.09055615999995 7.45439942400003  L 22.09055615999995 8.502720384000042  L 26.91551519999996 8.502720384000042  L 26.91551519999996 10.680000000000035  L 27.963836160000028 10.680000000000035  L 27.963836160000028 8.502720384000042  L 29.522875199999987 8.502720384000042  L 29.522875199999987 7.602239712000028  L 27.963836160000028 7.602239712000028  L 27.963836160000028 1.0838397120000423  Z " stroke-width="0" stroke-dasharray="0" stroke="rgba(255, 255, 255, 0)" fill="none" transform="matrix(1 0 0 1 2046 245 )" class="stroke" mask="url(#Clip1562)" />
    <path d="M 23.0179152 7.602239712000028  L 26.875195200000004 2.521919904000015  L 26.91551519999996 2.521919904000015  L 26.91551519999996 7.602239712000028  L 23.0179152 7.602239712000028  Z " stroke-width="0" stroke-dasharray="0" stroke="rgba(255, 255, 255, 0)" fill="none" transform="matrix(1 0 0 1 2046 245 )" class="stroke" mask="url(#Clip1562)" />
    <path d="M 36.82079616000004 1.0838397120000423  L 31.243198080000013 1.0838397120000423  L 30.732477120000002 6.379200000000026  L 31.780796160000023 6.379200000000026  C 31.96895903999996 6.002879808000017  32.264637119999975 5.707199712000033  32.64095615999997 5.519039616000015  C 33.00383808000004 5.317440000000005  33.40703615999996 5.223360000000042  33.86399807999999 5.223360000000042  C 34.56287807999996 5.223360000000042  35.113916159999974 5.424960000000027  35.503678079999986 5.855040000000031  C 35.906876160000024 6.2716800000000035  36.12191904000002 6.863040192000028  36.12191904000002 7.629119520000047  C 36.12191904000002 8.301119424000035  35.89343616000002 8.852160000000026  35.46335807999998 9.28224000000003  C 35.01983616000001 9.712320000000034  34.468799039999965 9.92736000000005  33.796798079999974 9.92736000000005  C 33.20543712 9.92736000000005  32.708155199999965 9.779520000000048  32.33183711999999 9.497280000000018  C 31.90175519999997 9.174720000000008  31.659836159999994 8.704319424000005  31.60607712000001 8.099520288000036  L 30.517438079999977 8.099520288000036  C 30.584637119999968 8.973120000000051  30.947516159999964 9.672000000000025  31.61951615999999 10.182720000000018  C 32.210878079999986 10.639680000000027  32.936638079999966 10.868160000000017  33.78335807999997 10.868160000000017  C 34.724158079999995 10.868160000000017  35.530558079999935 10.572480000000041  36.17567903999998 9.994560000000035  C 36.861116159999995 9.376320000000021  37.21055807999994 8.583360000000027  37.21055807999994 7.615679616000023  C 37.21055807999994 6.58080000000001  36.91487519999998 5.774399904000034  36.35039807999999 5.18303971200001  C 35.785917119999965 4.60511990400002  35.04671616000002 4.322879808000039  34.13279616 4.322879808000039  C 33.68927904000003 4.322879808000039  33.286077120000016 4.39008000000004  32.90975808000002 4.551359712000021  C 32.49311616 4.712639904000042  32.14367807999997 4.954559808000056  31.874875199999963 5.2771197120000295  L 31.821116159999978 5.2771197120000295  L 32.14367807999997 2.064960000000042  L 36.82079616000004 2.064960000000042  L 36.82079616000004 1.0838397120000423  Z " stroke-width="0" stroke-dasharray="0" stroke="rgba(255, 255, 255, 0)" fill="none" transform="matrix(1 0 0 1 2046 245 )" class="stroke" mask="url(#Clip1562)" />
    <path d="M 45.12671999999998 3.462719904000039  C 44.85791711999997 1.7423996160000286  43.836478080000006 0.8956796160000238  42.06239904 0.8956796160000238  C 40.97375999999997 0.8956796160000238  40.11359999999996 1.392959328000046  39.48191903999998 2.4009595200000433  C 38.87711808 3.3551999040000453  38.58143904000002 4.60511990400002  38.58143904000002 6.137279616000029  C 38.58143904000002 7.602239712000028  38.85023808 8.74464019200002  39.41471904000002 9.564480000000032  C 40.006077119999986 10.42464000000004  40.87967999999995 10.868160000000017  42.04895904 10.868160000000017  C 42.98975808 10.868160000000017  43.75583904000001 10.545600000000036  44.37407999999999 9.92736000000005  C 44.97887711999999 9.309120000000036  45.28799903999999 8.516160288000009  45.28799903999999 7.57535980800003  C 45.28799903999999 6.634559808000034  45.00575711999994 5.8819199040000285  44.454719039999986 5.290559712000032  C 43.89023807999996 4.699200000000047  43.15103712000001 4.403519904000035  42.237118080000016 4.403519904000035  C 41.67263711999999 4.403519904000035  41.17535903999999 4.5379198080000265  40.74527711999997 4.820159904000036  C 40.288319039999976 5.088959616000039  39.952317119999975 5.478719808000022  39.710398080000004 5.97599990400002  L 39.65663807999994 5.97599990400002  C 39.64319807999999 5.801279712000024  39.64319807999999 5.680319808000036  39.64319807999999 5.626560096000049  C 39.64319807999999 4.5379198080000265  39.84479712000001 3.6374396160000515  40.27487903999997 2.9385599040000443  C 40.70495712000002 2.185919520000027  41.29631807999999 1.8230401920000077  42.04895904 1.8230401920000077  C 43.16447711999996 1.8230401920000077  43.82303808 2.360639616000043  44.03807711999997 3.462719904000039  L 45.12671999999998 3.462719904000039  Z " stroke-width="0" stroke-dasharray="0" stroke="rgba(255, 255, 255, 0)" fill="none" transform="matrix(1 0 0 1 2046 245 )" class="stroke" mask="url(#Clip1562)" />
    <path d="M 40.44959807999999 5.962560000000053  C 40.866240000000005 5.532480000000021  41.39039808000001 5.317440000000005  42.022079039999994 5.317440000000005  C 42.68063999999998 5.317440000000005  43.20479711999997 5.519039616000015  43.60799903999998 5.949120000000022  C 43.99775712000002 6.352319616000017  44.19936000000001 6.889920000000018  44.19936000000001 7.57535980800003  C 44.19936000000001 8.260799520000035  43.99775712000002 8.825280000000049  43.59455903999998 9.28224000000003  C 43.191357119999964 9.712320000000034  42.66719999999998 9.940800000000024  42.022079039999994 9.940800000000024  C 41.350078079999946 9.940800000000024  40.825919999999996 9.712320000000034  40.42271807999998 9.255360000000024  C 40.01952 8.825280000000049  39.83135712000001 8.274239520000037  39.83135712000001 7.602239712000028  C 39.83135712000001 6.930239904000018  40.03296 6.392639904000021  40.44959807999999 5.962560000000053  Z " stroke-width="0" stroke-dasharray="0" stroke="rgba(255, 255, 255, 0)" fill="none" transform="matrix(1 0 0 1 2046 245 )" class="stroke" mask="url(#Clip1562)" />
  </g>
</svg>