<?xml version="1.0" encoding="utf-8"?>
<svg version="1.1" xmlns:xlink="http://www.w3.org/1999/xlink" width="31px" height="11px" xmlns="http://www.w3.org/2000/svg">
  <defs>
    <pattern id="BGPattern" patternUnits="userSpaceOnUse" alignment="0 0" imageRepeat="None" />
    <mask fill="white" id="Clip2786">
      <path d="M 0.5225599711999962 10.232640000000032  L 1.4518400000000042 10.232640000000032  C 2.13824009599999 10.232640000000032  2.4867200000000054 9.884159520000026  2.4867200000000054 9.208320000000029  L 2.4867200000000054 6.251520096000022  C 2.750720095999995 6.12480009600003  3.014719903999989 5.987520000000032  3.289279903999997 5.850239904000034  L 3.289279903999997 4.825920000000039  C 3.025280096000003 4.973760192000029  2.7612799999999993 5.111039904000037  2.4867200000000054 5.237759904000029  L 2.4867200000000054 3.4848000960000434  L 3.4688000000000017 3.4848000960000434  L 3.4688000000000017 2.523840192000037  L 2.4867200000000054 2.523840192000037  L 2.4867200000000054 0.6124804684800296  L 1.4729599999999863 0.6124804684800296  L 1.4729599999999863 2.523840192000037  L 0.27967999999999904 2.523840192000037  L 0.27967999999999904 3.4848000960000434  L 1.4729599999999863 3.4848000960000434  L 1.4729599999999863 5.660159904000025  C 1.029439999999994 5.8185599040000255  0.5859200095999881 5.955840000000023  0.13183999039999605 6.061440096000041  L 0.3747199807999948 7.07519990400003  C 0.7443199999999877 6.948479904000038  1.1139199999999931 6.821759904000032  1.4729599999999863 6.684480288000032  L 1.4729599999999863 8.944320384000036  C 1.4729599999999863 9.187199712000023  1.3462399999999946 9.313919712000029  1.103359999999995 9.313919712000029  C 0.8499199999999973 9.313919712000029  0.5753599711999868 9.292800288000038  0.3008000191999969 9.26112028800003  L 0.5225599711999962 10.232640000000032  Z M 8.938879711999988 0.9081600960000457  L 4.186879903999994 0.9081600960000457  L 4.186879903999994 4.720319808000028  L 8.938879711999988 4.720319808000028  L 8.938879711999988 0.9081600960000457  Z M 7.9567999040000075 3.189120000000031  L 7.9567999040000075 3.907200192000033  L 5.1584 3.907200192000033  L 5.1584 3.189120000000031  L 7.9567999040000075 3.189120000000031  Z M 7.9567999040000075 2.4288001920000397  L 5.1584 2.4288001920000397  L 5.1584 1.7212801920000231  L 7.9567999040000075 1.7212801920000231  L 7.9567999040000075 2.4288001920000397  Z M 9.572479999999999 5.26943980800003  L 3.500479999999996 5.26943980800003  L 3.500479999999996 6.167039808000042  L 6.077119711999998 6.167039808000042  L 6.077119711999998 8.92320009600003  L 5.982079807999995 8.891520096000022  C 5.57023990399999 8.722560384000033  5.211199807999989 8.321280192000032  4.894399903999997 7.708799712000044  C 4.968319999999991 7.360319808000028  5.021119807999995 7.001280192000024  5.0422400960000004 6.6211202880000295  L 4.155199904 6.515519712000028  C 4.070720096000002 7.677119712000035  3.6483199999999982 8.722560384000033  2.887999999999991 9.672960192000033  L 3.637759903999992 10.317120000000031  C 4.028479904000008 9.820799520000037  4.345279807999987 9.282239712000035  4.588160095999996 8.701440096000027  C 4.883840192000008 9.187199712000023  5.221759903999995 9.525119904000036  5.591360191999996 9.71519990400003  C 6.108799712000007 9.968639808000034  7.069760095999996 10.09535980800004  8.474239519999998 10.105920384000044  C 8.812159711999996 10.116480096000032  9.181759904000003 10.127039808000035  9.593599999999995 10.127039808000035  L 9.868159999999989 9.155519712000029  C 9.466880000000003 9.197760288000026  8.981120288 9.218879712000032  8.410879519999995 9.218879712000032  C 7.8828802879999955 9.218879712000032  7.428799712 9.187199712000023  7.038080096000002 9.144960000000026  L 7.038080096000002 8.025600096000034  L 9.118399999999994 8.025600096000034  L 9.118399999999994 7.138559904000033  L 7.038080096000002 7.138559904000033  L 7.038080096000002 6.167039808000042  L 9.572479999999999 6.167039808000042  L 9.572479999999999 5.26943980800003  Z M 19.646720000000002 6.885119904000035  L 19.646720000000002 0.9398400864000394  L 14.767999999999986 0.9398400864000394  L 14.767999999999986 6.885119904000035  L 15.760639999999993 6.885119904000035  L 15.760639999999993 1.9008000000000322  L 18.632959999999983 1.9008000000000322  L 18.632959999999983 6.885119904000035  L 19.646720000000002 6.885119904000035  Z M 18.23168095999999 10.158719808000043  L 19.329919999999987 10.158719808000043  C 19.68895904 10.158719808000043  19.95295999999999 10.074240384000035  20.13248 9.915840480000043  C 20.312000959999992 9.736320192000036  20.438720959999998 9.197760288000026  20.51263999999999 8.300159904000026  L 19.58336 7.993920096000039  C 19.55168096 8.595840480000035  19.498880960000008 8.954880096000025  19.435519040000003 9.081600000000037  C 19.372160960000002 9.187199712000023  19.277119999999996 9.240000000000038  19.15039999999999 9.240000000000038  L 18.52736 9.240000000000038  C 18.337279999999993 9.240000000000038  18.252800000000008 9.134400288000023  18.252800000000008 8.92320009600003  L 18.252800000000008 6.842880288000032  L 17.42912095999999 6.842880288000032  C 17.545280959999985 6.325439712000033  17.619199999999992 5.744640192000034  17.640320000000003 5.089920000000021  L 17.640320000000003 2.566079904000034  L 16.67935999999999 2.566079904000034  L 16.67935999999999 5.089920000000021  C 16.637119999999996 6.230399808000029  16.415359039999984 7.159680192000038  16.003519999999995 7.87775990400003  C 15.59168095999999 8.532480480000032  14.810239999999993 9.092159712000026  13.64864 9.535679616000039  L 14.197759040000008 10.380480000000034  C 15.380479999999991 9.947519520000029  16.23584000000001 9.335040000000035  16.75327999999999 8.532480480000032  C 16.94336 8.226240192000034  17.11232095999999 7.867200192000027  17.2496 7.4659200000000405  L 17.2496 9.134400288000023  C 17.2496 9.810239904000028  17.57696 10.158719808000043  18.23168095999999 10.158719808000043  Z M 12.043520000000001 4.403519904000035  L 10.913599999999988 4.403519904000035  L 10.913599999999988 5.375040000000041  L 12.043520000000001 5.375040000000041  L 12.043520000000001 7.7721597120000325  C 11.599999999999994 7.888320000000035  11.156479999999988 7.983360000000032  10.702399999999997 8.067840288000042  L 10.945279999999997 9.028799712000037  C 12.138559999999998 8.733120096000036  13.268479999999997 8.374079616000031  14.324479039999986 7.951680000000039  L 14.324479039999986 6.990720096000032  C 13.912639999999996 7.159680192000038  13.490239999999986 7.318080096000031  13.057279999999992 7.4659200000000405  L 13.057279999999992 5.375040000000041  L 14.155520960000004 5.375040000000041  L 14.155520960000004 4.403519904000035  L 13.057279999999992 4.403519904000035  L 13.057279999999992 2.164800096000036  L 14.303359999999998 2.164800096000036  L 14.303359999999998 1.2038397216000334  L 10.776319999999998 1.2038397216000334  L 10.776319999999998 2.164800096000036  L 12.043520000000001 2.164800096000036  L 12.043520000000001 4.403519904000035  Z M 26.637439999999998 0.5385598752000362  L 25.602559999999997 0.5385598752000362  L 25.602559999999997 2.3654401920000367  L 21.853759999999994 2.3654401920000367  L 21.853759999999994 7.4659200000000405  L 22.85696 7.4659200000000405  L 22.85696 6.8640000960000265  L 25.602559999999997 6.8640000960000265  L 25.602559999999997 10.401600000000045  L 26.637439999999998 10.401600000000045  L 26.637439999999998 6.8640000960000265  L 29.393599999999992 6.8640000960000265  L 29.393599999999992 7.4659200000000405  L 30.3968 7.4659200000000405  L 30.3968 2.3654401920000367  L 26.637439999999998 2.3654401920000367  L 26.637439999999998 0.5385598752000362  Z M 25.602559999999997 5.8819199040000285  L 22.85696 5.8819199040000285  L 22.85696 3.3475200000000314  L 25.602559999999997 3.3475200000000314  L 25.602559999999997 5.8819199040000285  Z M 29.393599999999992 5.8819199040000285  L 26.637439999999998 5.8819199040000285  L 26.637439999999998 3.3475200000000314  L 29.393599999999992 3.3475200000000314  L 29.393599999999992 5.8819199040000285  Z " fill-rule="evenodd" />
    </mask>
  </defs>
  <g transform="matrix(1 0 0 1 -2052 -181 )">
    <path d="M 0.5225599711999962 10.232640000000032  L 1.4518400000000042 10.232640000000032  C 2.13824009599999 10.232640000000032  2.4867200000000054 9.884159520000026  2.4867200000000054 9.208320000000029  L 2.4867200000000054 6.251520096000022  C 2.750720095999995 6.12480009600003  3.014719903999989 5.987520000000032  3.289279903999997 5.850239904000034  L 3.289279903999997 4.825920000000039  C 3.025280096000003 4.973760192000029  2.7612799999999993 5.111039904000037  2.4867200000000054 5.237759904000029  L 2.4867200000000054 3.4848000960000434  L 3.4688000000000017 3.4848000960000434  L 3.4688000000000017 2.523840192000037  L 2.4867200000000054 2.523840192000037  L 2.4867200000000054 0.6124804684800296  L 1.4729599999999863 0.6124804684800296  L 1.4729599999999863 2.523840192000037  L 0.27967999999999904 2.523840192000037  L 0.27967999999999904 3.4848000960000434  L 1.4729599999999863 3.4848000960000434  L 1.4729599999999863 5.660159904000025  C 1.029439999999994 5.8185599040000255  0.5859200095999881 5.955840000000023  0.13183999039999605 6.061440096000041  L 0.3747199807999948 7.07519990400003  C 0.7443199999999877 6.948479904000038  1.1139199999999931 6.821759904000032  1.4729599999999863 6.684480288000032  L 1.4729599999999863 8.944320384000036  C 1.4729599999999863 9.187199712000023  1.3462399999999946 9.313919712000029  1.103359999999995 9.313919712000029  C 0.8499199999999973 9.313919712000029  0.5753599711999868 9.292800288000038  0.3008000191999969 9.26112028800003  L 0.5225599711999962 10.232640000000032  Z M 8.938879711999988 0.9081600960000457  L 4.186879903999994 0.9081600960000457  L 4.186879903999994 4.720319808000028  L 8.938879711999988 4.720319808000028  L 8.938879711999988 0.9081600960000457  Z M 7.9567999040000075 3.189120000000031  L 7.9567999040000075 3.907200192000033  L 5.1584 3.907200192000033  L 5.1584 3.189120000000031  L 7.9567999040000075 3.189120000000031  Z M 7.9567999040000075 2.4288001920000397  L 5.1584 2.4288001920000397  L 5.1584 1.7212801920000231  L 7.9567999040000075 1.7212801920000231  L 7.9567999040000075 2.4288001920000397  Z M 9.572479999999999 5.26943980800003  L 3.500479999999996 5.26943980800003  L 3.500479999999996 6.167039808000042  L 6.077119711999998 6.167039808000042  L 6.077119711999998 8.92320009600003  L 5.982079807999995 8.891520096000022  C 5.57023990399999 8.722560384000033  5.211199807999989 8.321280192000032  4.894399903999997 7.708799712000044  C 4.968319999999991 7.360319808000028  5.021119807999995 7.001280192000024  5.0422400960000004 6.6211202880000295  L 4.155199904 6.515519712000028  C 4.070720096000002 7.677119712000035  3.6483199999999982 8.722560384000033  2.887999999999991 9.672960192000033  L 3.637759903999992 10.317120000000031  C 4.028479904000008 9.820799520000037  4.345279807999987 9.282239712000035  4.588160095999996 8.701440096000027  C 4.883840192000008 9.187199712000023  5.221759903999995 9.525119904000036  5.591360191999996 9.71519990400003  C 6.108799712000007 9.968639808000034  7.069760095999996 10.09535980800004  8.474239519999998 10.105920384000044  C 8.812159711999996 10.116480096000032  9.181759904000003 10.127039808000035  9.593599999999995 10.127039808000035  L 9.868159999999989 9.155519712000029  C 9.466880000000003 9.197760288000026  8.981120288 9.218879712000032  8.410879519999995 9.218879712000032  C 7.8828802879999955 9.218879712000032  7.428799712 9.187199712000023  7.038080096000002 9.144960000000026  L 7.038080096000002 8.025600096000034  L 9.118399999999994 8.025600096000034  L 9.118399999999994 7.138559904000033  L 7.038080096000002 7.138559904000033  L 7.038080096000002 6.167039808000042  L 9.572479999999999 6.167039808000042  L 9.572479999999999 5.26943980800003  Z M 19.646720000000002 6.885119904000035  L 19.646720000000002 0.9398400864000394  L 14.767999999999986 0.9398400864000394  L 14.767999999999986 6.885119904000035  L 15.760639999999993 6.885119904000035  L 15.760639999999993 1.9008000000000322  L 18.632959999999983 1.9008000000000322  L 18.632959999999983 6.885119904000035  L 19.646720000000002 6.885119904000035  Z M 18.23168095999999 10.158719808000043  L 19.329919999999987 10.158719808000043  C 19.68895904 10.158719808000043  19.95295999999999 10.074240384000035  20.13248 9.915840480000043  C 20.312000959999992 9.736320192000036  20.438720959999998 9.197760288000026  20.51263999999999 8.300159904000026  L 19.58336 7.993920096000039  C 19.55168096 8.595840480000035  19.498880960000008 8.954880096000025  19.435519040000003 9.081600000000037  C 19.372160960000002 9.187199712000023  19.277119999999996 9.240000000000038  19.15039999999999 9.240000000000038  L 18.52736 9.240000000000038  C 18.337279999999993 9.240000000000038  18.252800000000008 9.134400288000023  18.252800000000008 8.92320009600003  L 18.252800000000008 6.842880288000032  L 17.42912095999999 6.842880288000032  C 17.545280959999985 6.325439712000033  17.619199999999992 5.744640192000034  17.640320000000003 5.089920000000021  L 17.640320000000003 2.566079904000034  L 16.67935999999999 2.566079904000034  L 16.67935999999999 5.089920000000021  C 16.637119999999996 6.230399808000029  16.415359039999984 7.159680192000038  16.003519999999995 7.87775990400003  C 15.59168095999999 8.532480480000032  14.810239999999993 9.092159712000026  13.64864 9.535679616000039  L 14.197759040000008 10.380480000000034  C 15.380479999999991 9.947519520000029  16.23584000000001 9.335040000000035  16.75327999999999 8.532480480000032  C 16.94336 8.226240192000034  17.11232095999999 7.867200192000027  17.2496 7.4659200000000405  L 17.2496 9.134400288000023  C 17.2496 9.810239904000028  17.57696 10.158719808000043  18.23168095999999 10.158719808000043  Z M 12.043520000000001 4.403519904000035  L 10.913599999999988 4.403519904000035  L 10.913599999999988 5.375040000000041  L 12.043520000000001 5.375040000000041  L 12.043520000000001 7.7721597120000325  C 11.599999999999994 7.888320000000035  11.156479999999988 7.983360000000032  10.702399999999997 8.067840288000042  L 10.945279999999997 9.028799712000037  C 12.138559999999998 8.733120096000036  13.268479999999997 8.374079616000031  14.324479039999986 7.951680000000039  L 14.324479039999986 6.990720096000032  C 13.912639999999996 7.159680192000038  13.490239999999986 7.318080096000031  13.057279999999992 7.4659200000000405  L 13.057279999999992 5.375040000000041  L 14.155520960000004 5.375040000000041  L 14.155520960000004 4.403519904000035  L 13.057279999999992 4.403519904000035  L 13.057279999999992 2.164800096000036  L 14.303359999999998 2.164800096000036  L 14.303359999999998 1.2038397216000334  L 10.776319999999998 1.2038397216000334  L 10.776319999999998 2.164800096000036  L 12.043520000000001 2.164800096000036  L 12.043520000000001 4.403519904000035  Z M 26.637439999999998 0.5385598752000362  L 25.602559999999997 0.5385598752000362  L 25.602559999999997 2.3654401920000367  L 21.853759999999994 2.3654401920000367  L 21.853759999999994 7.4659200000000405  L 22.85696 7.4659200000000405  L 22.85696 6.8640000960000265  L 25.602559999999997 6.8640000960000265  L 25.602559999999997 10.401600000000045  L 26.637439999999998 10.401600000000045  L 26.637439999999998 6.8640000960000265  L 29.393599999999992 6.8640000960000265  L 29.393599999999992 7.4659200000000405  L 30.3968 7.4659200000000405  L 30.3968 2.3654401920000367  L 26.637439999999998 2.3654401920000367  L 26.637439999999998 0.5385598752000362  Z M 25.602559999999997 5.8819199040000285  L 22.85696 5.8819199040000285  L 22.85696 3.3475200000000314  L 25.602559999999997 3.3475200000000314  L 25.602559999999997 5.8819199040000285  Z M 29.393599999999992 5.8819199040000285  L 26.637439999999998 5.8819199040000285  L 26.637439999999998 3.3475200000000314  L 29.393599999999992 3.3475200000000314  L 29.393599999999992 5.8819199040000285  Z " fill-rule="nonzero" fill="rgba(255, 255, 255, 1)" stroke="none" transform="matrix(1 0 0 1 2052 181 )" class="fill" />
    <path d="M 0.5225599711999962 10.232640000000032  L 1.4518400000000042 10.232640000000032  C 2.13824009599999 10.232640000000032  2.4867200000000054 9.884159520000026  2.4867200000000054 9.208320000000029  L 2.4867200000000054 6.251520096000022  C 2.750720095999995 6.12480009600003  3.014719903999989 5.987520000000032  3.289279903999997 5.850239904000034  L 3.289279903999997 4.825920000000039  C 3.025280096000003 4.973760192000029  2.7612799999999993 5.111039904000037  2.4867200000000054 5.237759904000029  L 2.4867200000000054 3.4848000960000434  L 3.4688000000000017 3.4848000960000434  L 3.4688000000000017 2.523840192000037  L 2.4867200000000054 2.523840192000037  L 2.4867200000000054 0.6124804684800296  L 1.4729599999999863 0.6124804684800296  L 1.4729599999999863 2.523840192000037  L 0.27967999999999904 2.523840192000037  L 0.27967999999999904 3.4848000960000434  L 1.4729599999999863 3.4848000960000434  L 1.4729599999999863 5.660159904000025  C 1.029439999999994 5.8185599040000255  0.5859200095999881 5.955840000000023  0.13183999039999605 6.061440096000041  L 0.3747199807999948 7.07519990400003  C 0.7443199999999877 6.948479904000038  1.1139199999999931 6.821759904000032  1.4729599999999863 6.684480288000032  L 1.4729599999999863 8.944320384000036  C 1.4729599999999863 9.187199712000023  1.3462399999999946 9.313919712000029  1.103359999999995 9.313919712000029  C 0.8499199999999973 9.313919712000029  0.5753599711999868 9.292800288000038  0.3008000191999969 9.26112028800003  L 0.5225599711999962 10.232640000000032  Z " stroke-width="0" stroke-dasharray="0" stroke="rgba(255, 255, 255, 0)" fill="none" transform="matrix(1 0 0 1 2052 181 )" class="stroke" mask="url(#Clip2786)" />
    <path d="M 8.938879711999988 0.9081600960000457  L 4.186879903999994 0.9081600960000457  L 4.186879903999994 4.720319808000028  L 8.938879711999988 4.720319808000028  L 8.938879711999988 0.9081600960000457  Z " stroke-width="0" stroke-dasharray="0" stroke="rgba(255, 255, 255, 0)" fill="none" transform="matrix(1 0 0 1 2052 181 )" class="stroke" mask="url(#Clip2786)" />
    <path d="M 7.9567999040000075 3.189120000000031  L 7.9567999040000075 3.907200192000033  L 5.1584 3.907200192000033  L 5.1584 3.189120000000031  L 7.9567999040000075 3.189120000000031  Z " stroke-width="0" stroke-dasharray="0" stroke="rgba(255, 255, 255, 0)" fill="none" transform="matrix(1 0 0 1 2052 181 )" class="stroke" mask="url(#Clip2786)" />
    <path d="M 7.9567999040000075 2.4288001920000397  L 5.1584 2.4288001920000397  L 5.1584 1.7212801920000231  L 7.9567999040000075 1.7212801920000231  L 7.9567999040000075 2.4288001920000397  Z " stroke-width="0" stroke-dasharray="0" stroke="rgba(255, 255, 255, 0)" fill="none" transform="matrix(1 0 0 1 2052 181 )" class="stroke" mask="url(#Clip2786)" />
    <path d="M 9.572479999999999 5.26943980800003  L 3.500479999999996 5.26943980800003  L 3.500479999999996 6.167039808000042  L 6.077119711999998 6.167039808000042  L 6.077119711999998 8.92320009600003  L 5.982079807999995 8.891520096000022  C 5.57023990399999 8.722560384000033  5.211199807999989 8.321280192000032  4.894399903999997 7.708799712000044  C 4.968319999999991 7.360319808000028  5.021119807999995 7.001280192000024  5.0422400960000004 6.6211202880000295  L 4.155199904 6.515519712000028  C 4.070720096000002 7.677119712000035  3.6483199999999982 8.722560384000033  2.887999999999991 9.672960192000033  L 3.637759903999992 10.317120000000031  C 4.028479904000008 9.820799520000037  4.345279807999987 9.282239712000035  4.588160095999996 8.701440096000027  C 4.883840192000008 9.187199712000023  5.221759903999995 9.525119904000036  5.591360191999996 9.71519990400003  C 6.108799712000007 9.968639808000034  7.069760095999996 10.09535980800004  8.474239519999998 10.105920384000044  C 8.812159711999996 10.116480096000032  9.181759904000003 10.127039808000035  9.593599999999995 10.127039808000035  L 9.868159999999989 9.155519712000029  C 9.466880000000003 9.197760288000026  8.981120288 9.218879712000032  8.410879519999995 9.218879712000032  C 7.8828802879999955 9.218879712000032  7.428799712 9.187199712000023  7.038080096000002 9.144960000000026  L 7.038080096000002 8.025600096000034  L 9.118399999999994 8.025600096000034  L 9.118399999999994 7.138559904000033  L 7.038080096000002 7.138559904000033  L 7.038080096000002 6.167039808000042  L 9.572479999999999 6.167039808000042  L 9.572479999999999 5.26943980800003  Z " stroke-width="0" stroke-dasharray="0" stroke="rgba(255, 255, 255, 0)" fill="none" transform="matrix(1 0 0 1 2052 181 )" class="stroke" mask="url(#Clip2786)" />
    <path d="M 19.646720000000002 6.885119904000035  L 19.646720000000002 0.9398400864000394  L 14.767999999999986 0.9398400864000394  L 14.767999999999986 6.885119904000035  L 15.760639999999993 6.885119904000035  L 15.760639999999993 1.9008000000000322  L 18.632959999999983 1.9008000000000322  L 18.632959999999983 6.885119904000035  L 19.646720000000002 6.885119904000035  Z " stroke-width="0" stroke-dasharray="0" stroke="rgba(255, 255, 255, 0)" fill="none" transform="matrix(1 0 0 1 2052 181 )" class="stroke" mask="url(#Clip2786)" />
    <path d="M 18.23168095999999 10.158719808000043  L 19.329919999999987 10.158719808000043  C 19.68895904 10.158719808000043  19.95295999999999 10.074240384000035  20.13248 9.915840480000043  C 20.312000959999992 9.736320192000036  20.438720959999998 9.197760288000026  20.51263999999999 8.300159904000026  L 19.58336 7.993920096000039  C 19.55168096 8.595840480000035  19.498880960000008 8.954880096000025  19.435519040000003 9.081600000000037  C 19.372160960000002 9.187199712000023  19.277119999999996 9.240000000000038  19.15039999999999 9.240000000000038  L 18.52736 9.240000000000038  C 18.337279999999993 9.240000000000038  18.252800000000008 9.134400288000023  18.252800000000008 8.92320009600003  L 18.252800000000008 6.842880288000032  L 17.42912095999999 6.842880288000032  C 17.545280959999985 6.325439712000033  17.619199999999992 5.744640192000034  17.640320000000003 5.089920000000021  L 17.640320000000003 2.566079904000034  L 16.67935999999999 2.566079904000034  L 16.67935999999999 5.089920000000021  C 16.637119999999996 6.230399808000029  16.415359039999984 7.159680192000038  16.003519999999995 7.87775990400003  C 15.59168095999999 8.532480480000032  14.810239999999993 9.092159712000026  13.64864 9.535679616000039  L 14.197759040000008 10.380480000000034  C 15.380479999999991 9.947519520000029  16.23584000000001 9.335040000000035  16.75327999999999 8.532480480000032  C 16.94336 8.226240192000034  17.11232095999999 7.867200192000027  17.2496 7.4659200000000405  L 17.2496 9.134400288000023  C 17.2496 9.810239904000028  17.57696 10.158719808000043  18.23168095999999 10.158719808000043  Z " stroke-width="0" stroke-dasharray="0" stroke="rgba(255, 255, 255, 0)" fill="none" transform="matrix(1 0 0 1 2052 181 )" class="stroke" mask="url(#Clip2786)" />
    <path d="M 12.043520000000001 4.403519904000035  L 10.913599999999988 4.403519904000035  L 10.913599999999988 5.375040000000041  L 12.043520000000001 5.375040000000041  L 12.043520000000001 7.7721597120000325  C 11.599999999999994 7.888320000000035  11.156479999999988 7.983360000000032  10.702399999999997 8.067840288000042  L 10.945279999999997 9.028799712000037  C 12.138559999999998 8.733120096000036  13.268479999999997 8.374079616000031  14.324479039999986 7.951680000000039  L 14.324479039999986 6.990720096000032  C 13.912639999999996 7.159680192000038  13.490239999999986 7.318080096000031  13.057279999999992 7.4659200000000405  L 13.057279999999992 5.375040000000041  L 14.155520960000004 5.375040000000041  L 14.155520960000004 4.403519904000035  L 13.057279999999992 4.403519904000035  L 13.057279999999992 2.164800096000036  L 14.303359999999998 2.164800096000036  L 14.303359999999998 1.2038397216000334  L 10.776319999999998 1.2038397216000334  L 10.776319999999998 2.164800096000036  L 12.043520000000001 2.164800096000036  L 12.043520000000001 4.403519904000035  Z " stroke-width="0" stroke-dasharray="0" stroke="rgba(255, 255, 255, 0)" fill="none" transform="matrix(1 0 0 1 2052 181 )" class="stroke" mask="url(#Clip2786)" />
    <path d="M 26.637439999999998 0.5385598752000362  L 25.602559999999997 0.5385598752000362  L 25.602559999999997 2.3654401920000367  L 21.853759999999994 2.3654401920000367  L 21.853759999999994 7.4659200000000405  L 22.85696 7.4659200000000405  L 22.85696 6.8640000960000265  L 25.602559999999997 6.8640000960000265  L 25.602559999999997 10.401600000000045  L 26.637439999999998 10.401600000000045  L 26.637439999999998 6.8640000960000265  L 29.393599999999992 6.8640000960000265  L 29.393599999999992 7.4659200000000405  L 30.3968 7.4659200000000405  L 30.3968 2.3654401920000367  L 26.637439999999998 2.3654401920000367  L 26.637439999999998 0.5385598752000362  Z " stroke-width="0" stroke-dasharray="0" stroke="rgba(255, 255, 255, 0)" fill="none" transform="matrix(1 0 0 1 2052 181 )" class="stroke" mask="url(#Clip2786)" />
    <path d="M 25.602559999999997 5.8819199040000285  L 22.85696 5.8819199040000285  L 22.85696 3.3475200000000314  L 25.602559999999997 3.3475200000000314  L 25.602559999999997 5.8819199040000285  Z " stroke-width="0" stroke-dasharray="0" stroke="rgba(255, 255, 255, 0)" fill="none" transform="matrix(1 0 0 1 2052 181 )" class="stroke" mask="url(#Clip2786)" />
    <path d="M 29.393599999999992 5.8819199040000285  L 26.637439999999998 5.8819199040000285  L 26.637439999999998 3.3475200000000314  L 29.393599999999992 3.3475200000000314  L 29.393599999999992 5.8819199040000285  Z " stroke-width="0" stroke-dasharray="0" stroke="rgba(255, 255, 255, 0)" fill="none" transform="matrix(1 0 0 1 2052 181 )" class="stroke" mask="url(#Clip2786)" />
  </g>
</svg>