<?xml version="1.0" encoding="utf-8"?>
<svg version="1.1" xmlns:xlink="http://www.w3.org/1999/xlink" width="80px" height="13px" xmlns="http://www.w3.org/2000/svg">
  <defs>
    <pattern id="BGPattern" patternUnits="userSpaceOnUse" alignment="0 0" imageRepeat="None" />
    <mask fill="white" id="Clip4709">
      <path d="M 12.861759999999997 0.8105597119999857  L 6.195520192 0.8105597119999857  L 6.195520192 1.7244793279999726  L 9.179200479999999 1.7244793279999726  C 9.125440671999996 2.2351999039999555  9.044800096000003 2.7459195199999726  8.937280576 3.229760096000007  L 6.692800287999997 3.229760096000007  L 6.692800287999997 9.560000000000002  L 7.606720383999999 9.560000000000002  L 7.606720383999999 4.089919615999975  L 11.490879999999997 4.089919615999975  L 11.490879999999997 9.560000000000002  L 12.404800000000002 9.560000000000002  L 12.404800000000002 3.229760096000007  L 9.864640000000001 3.229760096000007  C 9.972160959999997 2.7459195199999726  10.06624 2.248639808000007  10.133439999999993 1.7244793279999726  L 12.861759999999997 1.7244793279999726  L 12.861759999999997 0.8105597119999857  Z M 12.996160000000003 11.898559999999975  C 12.32416 11.119040000000041  11.490879999999997 10.339519999999993  10.496319999999997 9.560000000000002  L 9.878079999999997 10.164800000000014  C 10.912959999999998 11.011520000000019  11.732799999999997 11.817919999999958  12.32416 12.57056  L 12.996160000000003 11.898559999999975  Z M 9.98560096 4.855999903999987  L 9.044800096000003 4.855999903999987  L 9.044800096000003 7.275199903999976  C 9.017920191999998 8.431039424000005  8.762560384 9.358400000000017  8.305600576 10.084159999999997  C 7.794880095999996 10.783039999999971  6.894400288 11.334080000000029  5.617599903999999 11.750720000000001  L 6.141760383999998 12.57056  C 7.472320095999997 12.11360000000002  8.426560095999996 11.495360000000005  9.017920191999998 10.702400000000011  C 9.622720384000004 9.855680000000007  9.945280959999998 8.713279999999997  9.98560096 7.275199903999976  L 9.98560096 4.855999903999987  Z M 3.0640000959999973 3.5119998079999846  C 2.7683199999999992 3.1894394239999997  2.432320095999998 2.85343990399997  2.0694400959999975 2.5039996159999873  L 1.3571200959999992 2.9475195200000144  C 2.0828799999999994 3.6463997120000045  2.7145599999999988 4.318399999999997  3.2387200000000007 4.936640000000011  L 0.6313599999999973 4.936640000000011  L 0.6313599999999973 5.837119712000003  L 2.56672 5.837119712000003  L 2.56672 11.226560000000006  C 2.56672 11.549120000000016  2.4188801919999996 11.710399999999993  2.150079999999999 11.710399999999993  C 1.7737600959999966 11.710399999999993  1.3840000959999976 11.683519999999987  0.9808000191999966 11.643200000000036  L 1.1689599999999984 12.51679999999999  L 2.459199999999999 12.51679999999999  C 3.131199999999996 12.51679999999999  3.4806400959999984 12.153919999999971  3.4806400959999984 11.455039999999997  L 3.4806400959999984 5.837119712000003  L 4.905280288 5.837119712000003  C 4.717120191999999 6.56287980799999  4.488640287999999 7.16767990400001  4.246719999999996 7.678400000000011  L 5.039680191999999 7.987519520000036  C 5.335360288 7.396159807999993  5.604159999999997 6.576319711999987  5.819199999999999 5.527999711999996  L 5.819199999999999 4.936640000000011  L 4.287040288 4.936640000000011  C 4.098880191999999 4.694719711999994  3.8838401919999974 4.425919999999962  3.6284801920000014 4.13023990399995  C 4.273600288000001 3.417919327999982  4.878399999999999 2.5711993279999774  5.429440287999999 1.5766399999999976  L 5.429440287999999 0.8105597119999857  L 1.007679999999997 0.8105597119999857  L 1.007679999999997 1.711039423999978  L 4.394560288000001 1.711039423999978  C 3.991360192000002 2.38304019200001  3.547839999999997 2.987839328000007  3.0640000959999973 3.5119998079999846  Z M 21.933759999999992 4.291519616000016  L 18.29152096 4.291519616000016  L 18.29152096 5.259199999999964  L 21.933759999999992 5.259199999999964  L 21.933759999999992 12.610880000000009  L 22.928319039999998 12.610880000000009  L 22.928319039999998 5.259199999999964  L 26.38240095999999 5.259199999999964  L 26.38240095999999 4.291519616000016  L 22.928319039999998 4.291519616000016  L 22.928319039999998 0.2460794048000139  L 21.933759999999992 0.2460794048000139  L 21.933759999999992 4.291519616000016  Z M 17.95552096 2.463679807999995  C 17.33728 1.7648000959999877  16.571199040000003 1.0793594239999607  15.65728 0.3939196736000099  L 14.985279999999996 1.052479519999963  C 15.952959999999997 1.7782400960000473  16.732480000000002 2.4771197119999897  17.29696 3.1356796160000044  L 17.95552096 2.463679807999995  Z M 16.987839039999997 4.372159711999984  L 14.084800000000001 4.372159711999984  L 14.084800000000001 5.299519808000014  L 16.06048 5.299519808000014  L 16.06048 10.662080000000003  C 16.06048 10.87711999999999  15.952959999999997 11.065279999999973  15.751360959999992 11.226560000000006  L 16.127679039999997 12.100160000000017  C 17.081920959999998 11.46848  17.982400959999993 10.756159999999966  18.81568096 9.949760000000026  L 18.573759999999993 8.955199903999983  C 18.009280000000004 9.492799999999988  17.47168096 9.949760000000026  16.987839039999997 10.352959999999996  L 16.987839039999997 4.372159711999984  Z M 34.5136 11.293759999999963  L 34.5136 10.339519999999993  C 33.59968 10.541119999999978  32.67232096 10.729280000000017  31.71808096 10.890559999999994  L 31.71808096 8.511680000000013  L 34.13728192 8.511680000000013  L 34.13728192 7.570879520000005  L 31.71808096 7.570879520000005  L 31.71808096 6.011839903999999  L 30.750399999999992 6.011839903999999  L 30.750399999999992 7.570879520000005  L 28.129600000000003 7.570879520000005  L 28.129600000000003 8.511680000000013  L 30.750399999999992 8.511680000000013  L 30.750399999999992 11.05183999999997  C 29.728960959999995 11.213120000000004  28.680640000000004 11.347520000000031  27.605440959999996 11.46848  L 27.820480000000003 12.395840000000021  C 30.212799999999994 12.100160000000017  32.44384192 11.723839999999996  34.5136 11.293759999999963  Z M 34.45984 0.8508795199999781  L 27.780160000000002 0.8508795199999781  L 27.780160000000002 1.7648000959999877  L 29.984319039999995 1.7648000959999877  C 29.218240960000003 3.310399808  28.559679999999993 4.318399999999997  28.008640959999994 4.80223971199996  C 27.91455904 4.842559999999992  27.780160000000002 4.869439807999981  27.61888096 4.896319711999979  L 27.847360000000002 5.769920000000013  C 29.86336 5.5683199999999715  31.731520959999997 5.3129597120000085  33.42496096 5.017279615999996  C 33.64 5.3801599039999815  33.828159039999996 5.729599807999989  34.002878079999995 6.079039615999989  L 34.80928192 5.514559808000001  C 34.32544096 4.6140796159999695  33.64 3.5523196159999775  32.73952 2.342719423999995  L 32.00032 2.826560096000037  C 32.36319808 3.3238397119999945  32.6992 3.807679903999997  32.994879039999994 4.291519616000016  C 31.78528096 4.506559616000004  30.521920959999996 4.6678398079999965  29.191360959999997 4.80223971199996  C 29.75584 4.116799904000004  30.360640000000004 3.108799712000007  31.005760959999996 1.7648000959999877  L 34.45984 1.7648000959999877  L 34.45984 0.8508795199999781  Z M 36.03232096 12.463039999999978  L 38.007999039999994 12.463039999999978  C 38.81439904 12.463039999999978  39.23104096000001 12.046399999999949  40 11.226560000000006  L 40 0.2998400864000246  L 39 0.2998400864000246  L 39 10.984639999999956  C 38.24992192 11.37439999999998  38.048319039999996 11.576000000000022  37.67200096 11.576000000000022  C 37.08064 11.576000000000022  36.46240192 11.549120000000016  35.81728192 11.522239999999954  L 36.03232096 12.463039999999978  Z M 36.50272192 1.5094394239999929  L 35.56191903999999 1.5094394239999929  L 35.56191903999999 9.828799999999944  L 36.50272192 9.828799999999944  L 36.50272192 1.5094394239999929  Z M 46.09888096 9.237439616000017  L 46.09888096 0.7971197119999829  L 41.44863904 0.7971197119999829  L 41.44863904 9.237439616000017  L 42.33567903999999 9.237439616000017  L 42.33567903999999 1.697599519999983  L 45.238720959999995 1.697599519999983  L 45.238720959999995 9.237439616000017  L 46.09888096 9.237439616000017  Z M 44.17696192 2.6787198079999825  L 43.343681919999995 2.6787198079999825  L 43.343681919999995 7.046719999999994  C 43.31680192 8.269760096000027  43.14207904 9.264319424000007  42.81952 10.043839999999989  C 42.47007807999999 10.783039999999971  41.83840095999999 11.37439999999998  40.95136095999999 11.817919999999958  L 41.47551904000001 12.624320000000012  C 42.416318079999996 12.153919999999971  43.08831904 11.495360000000005  43.504960960000005 10.662080000000003  C 43.93503903999999 9.761599999999987  44.150081920000005 8.551999808000005  44.17696192 7.046719999999994  L 44.17696192 2.6787198079999825  Z M 46.50207904 11.831359999999961  C 46.00480096 11.105600000000038  45.38655999999999 10.366399999999999  44.63391999999999 9.613759999999957  L 44.015679039999995 10.218559999999968  C 44.78175904 11.024960000000021  45.38655999999999 11.79104000000001  45.816638080000004 12.51679999999999  L 46.50207904 11.831359999999961  Z M 48.57184096 6.764479807999976  L 49.754559040000004 6.764479807999976  C 50.39967999999999 9.264319424000007  51.367360000000005 11.172799999999995  52.630720960000005 12.463039999999978  L 53.28928191999999 11.710399999999993  C 52.11999999999999 10.55455999999998  51.21951999999999 8.91488009599999  50.60127904000001 6.764479807999976  L 53.033919999999995 6.764479807999976  L 53.033919999999995 5.8236798080000085  L 48.57184096 5.8236798080000085  L 48.57184096 0.2729592896000099  L 47.63104096000001 0.2729592896000099  L 47.63104096000001 5.8236798080000085  L 46.66336192 5.8236798080000085  L 46.66336192 6.764479807999976  L 47.63104096000001 6.764479807999976  L 47.63104096000001 11.28031999999996  C 47.63104096000001 11.46848  47.52352191999999 11.60287999999997  47.32191904 11.69695999999999  L 47.72512096 12.557119999999998  C 48.80032 12.221119999999985  49.74111903999999 11.79104000000001  50.57439904 11.266880000000015  L 50.39967999999999 10.406720000000007  C 49.781439039999995 10.796480000000031  49.16319807999999 11.105600000000038  48.57184096 11.334080000000029  L 48.57184096 6.764479807999976  Z M 52.832320960000004 1.4825595199999952  L 52.09312 0.8777594239999758  C 51.23295999999999 2.3158395199999973  50.19808096 3.3910394239999846  48.98847904 4.089919615999975  L 49.51263999999999 4.842559999999992  C 50.775998079999994 4.116799904000004  51.891520959999994 2.987839328000007  52.832320960000004 1.4825595199999952  Z M 58.772800000000004 11.172799999999995  L 58.772800000000004 1.2675195200000076  L 55 1.2675195200000076  L 55 11.495360000000005  L 55.84287807999999 11.495360000000005  L 55.84287807999999 10.272320000000036  L 57.83200096 10.272320000000036  L 57.83200096 11.172799999999995  L 58.772800000000004 11.172799999999995  Z M 57.83200096 9.371839999999963  L 55.84287807999999 9.371839999999963  L 55.84287807999999 6.132799808000016  L 57.83200096 6.132799808000016  L 57.83200096 9.371839999999963  Z M 57.83200096 5.232319615999984  L 55.84287807999999 5.232319615999984  L 55.84287807999999 2.154559328000005  L 57.83200096 2.154559328000005  L 57.83200096 5.232319615999984  Z M 62.63007807999999 8.578879712000003  C 62.18656 7.63808009600001  61.54144287999999 6.5359999039999925  60.70815904 5.272639904000016  L 59.915199040000005 5.769920000000013  C 60.72159904 7.006399712000018  61.35328 8.135359807999976  61.82368192 9.143359999999973  L 62.63007807999999 8.578879712000003  Z M 61.42048 12.449599999999975  L 63.77248 12.449599999999975  C 64.60575711999999 12.449599999999975  65.02240192000001 12.01952  65.02240192000001 11.172799999999995  L 65.02240192000001 3.6598396159999993  L 66.67552287999999 3.6598396159999993  L 66.67552287999999 2.73247951999997  L 65.02240192000001 2.73247951999997  L 65.02240192000001 0.3670397983999578  L 64.04127903999999 0.3670397983999578  L 64.04127903999999 2.73247951999997  L 59.39104096000001 2.73247951999997  L 59.39104096000001 3.6598396159999993  L 64.04127903999999 3.6598396159999993  L 64.04127903999999 10.930880000000002  C 64.04127903999999 11.347520000000031  63.83968 11.562560000000019  63.449921919999994 11.562560000000019  C 62.737598079999984 11.562560000000019  61.99840096 11.535680000000013  61.21888096000001 11.508799999999951  L 61.42048 12.449599999999975  Z M 76.45984384 3.9017599039999595  L 71.35263712 3.9017599039999595  L 71.35263712 10.164800000000014  L 76.45984384 10.164800000000014  L 76.45984384 3.9017599039999595  Z M 75.55936 7.463359999999966  L 75.55936 9.304640192000022  L 72.26656 9.304640192000022  L 72.26656 7.463359999999966  L 75.55936 7.463359999999966  Z M 75.55936 6.603200095999966  L 72.26656 6.603200095999966  L 72.26656 4.761919903999967  L 75.55936 4.761919903999967  L 75.55936 6.603200095999966  Z M 76.83616192 12.476479999999981  L 77.96511712 12.476479999999981  C 78.86560096 12.476479999999981  79.32255904 11.992639999999994  79 11.05183999999997  L 79 0.9315200960000426  L 73.16704383999999 0.9315200960000426  L 73.16704383999999 1.831999807999978  L 78.38176288 1.831999807999978  L 78.38176288 10.783039999999971  C 78.38176288 11.320640000000026  78.16672383999999 11.60287999999997  77.76351808 11.60287999999997  L 76.59424288 11.576000000000022  L 76.83616192 12.476479999999981  Z M 69 2.4905597119999925  L 68 2.4905597119999925  L 68 12.597440000000006  L 69 12.597440000000006  L 69 2.4905597119999925  Z M 72.15904096 2.5711993279999774  C 71.68864288 1.6841595199999804  71.13759807999999 0.8777594239999758  70.51935999999999 0.1385598751999737  L 69.63231712 0.5283200096000087  C 70.23712191999999 1.2540796159999559  70.78815904 2.087359615999958  71.29887712 3.028160095999965  L 72.15904096 2.5711993279999774  Z " fill-rule="evenodd" />
    </mask>
  </defs>
  <g transform="matrix(1 0 0 1 -1778 -375 )">
    <path d="M 12.861759999999997 0.8105597119999857  L 6.195520192 0.8105597119999857  L 6.195520192 1.7244793279999726  L 9.179200479999999 1.7244793279999726  C 9.125440671999996 2.2351999039999555  9.044800096000003 2.7459195199999726  8.937280576 3.229760096000007  L 6.692800287999997 3.229760096000007  L 6.692800287999997 9.560000000000002  L 7.606720383999999 9.560000000000002  L 7.606720383999999 4.089919615999975  L 11.490879999999997 4.089919615999975  L 11.490879999999997 9.560000000000002  L 12.404800000000002 9.560000000000002  L 12.404800000000002 3.229760096000007  L 9.864640000000001 3.229760096000007  C 9.972160959999997 2.7459195199999726  10.06624 2.248639808000007  10.133439999999993 1.7244793279999726  L 12.861759999999997 1.7244793279999726  L 12.861759999999997 0.8105597119999857  Z M 12.996160000000003 11.898559999999975  C 12.32416 11.119040000000041  11.490879999999997 10.339519999999993  10.496319999999997 9.560000000000002  L 9.878079999999997 10.164800000000014  C 10.912959999999998 11.011520000000019  11.732799999999997 11.817919999999958  12.32416 12.57056  L 12.996160000000003 11.898559999999975  Z M 9.98560096 4.855999903999987  L 9.044800096000003 4.855999903999987  L 9.044800096000003 7.275199903999976  C 9.017920191999998 8.431039424000005  8.762560384 9.358400000000017  8.305600576 10.084159999999997  C 7.794880095999996 10.783039999999971  6.894400288 11.334080000000029  5.617599903999999 11.750720000000001  L 6.141760383999998 12.57056  C 7.472320095999997 12.11360000000002  8.426560095999996 11.495360000000005  9.017920191999998 10.702400000000011  C 9.622720384000004 9.855680000000007  9.945280959999998 8.713279999999997  9.98560096 7.275199903999976  L 9.98560096 4.855999903999987  Z M 3.0640000959999973 3.5119998079999846  C 2.7683199999999992 3.1894394239999997  2.432320095999998 2.85343990399997  2.0694400959999975 2.5039996159999873  L 1.3571200959999992 2.9475195200000144  C 2.0828799999999994 3.6463997120000045  2.7145599999999988 4.318399999999997  3.2387200000000007 4.936640000000011  L 0.6313599999999973 4.936640000000011  L 0.6313599999999973 5.837119712000003  L 2.56672 5.837119712000003  L 2.56672 11.226560000000006  C 2.56672 11.549120000000016  2.4188801919999996 11.710399999999993  2.150079999999999 11.710399999999993  C 1.7737600959999966 11.710399999999993  1.3840000959999976 11.683519999999987  0.9808000191999966 11.643200000000036  L 1.1689599999999984 12.51679999999999  L 2.459199999999999 12.51679999999999  C 3.131199999999996 12.51679999999999  3.4806400959999984 12.153919999999971  3.4806400959999984 11.455039999999997  L 3.4806400959999984 5.837119712000003  L 4.905280288 5.837119712000003  C 4.717120191999999 6.56287980799999  4.488640287999999 7.16767990400001  4.246719999999996 7.678400000000011  L 5.039680191999999 7.987519520000036  C 5.335360288 7.396159807999993  5.604159999999997 6.576319711999987  5.819199999999999 5.527999711999996  L 5.819199999999999 4.936640000000011  L 4.287040288 4.936640000000011  C 4.098880191999999 4.694719711999994  3.8838401919999974 4.425919999999962  3.6284801920000014 4.13023990399995  C 4.273600288000001 3.417919327999982  4.878399999999999 2.5711993279999774  5.429440287999999 1.5766399999999976  L 5.429440287999999 0.8105597119999857  L 1.007679999999997 0.8105597119999857  L 1.007679999999997 1.711039423999978  L 4.394560288000001 1.711039423999978  C 3.991360192000002 2.38304019200001  3.547839999999997 2.987839328000007  3.0640000959999973 3.5119998079999846  Z M 21.933759999999992 4.291519616000016  L 18.29152096 4.291519616000016  L 18.29152096 5.259199999999964  L 21.933759999999992 5.259199999999964  L 21.933759999999992 12.610880000000009  L 22.928319039999998 12.610880000000009  L 22.928319039999998 5.259199999999964  L 26.38240095999999 5.259199999999964  L 26.38240095999999 4.291519616000016  L 22.928319039999998 4.291519616000016  L 22.928319039999998 0.2460794048000139  L 21.933759999999992 0.2460794048000139  L 21.933759999999992 4.291519616000016  Z M 17.95552096 2.463679807999995  C 17.33728 1.7648000959999877  16.571199040000003 1.0793594239999607  15.65728 0.3939196736000099  L 14.985279999999996 1.052479519999963  C 15.952959999999997 1.7782400960000473  16.732480000000002 2.4771197119999897  17.29696 3.1356796160000044  L 17.95552096 2.463679807999995  Z M 16.987839039999997 4.372159711999984  L 14.084800000000001 4.372159711999984  L 14.084800000000001 5.299519808000014  L 16.06048 5.299519808000014  L 16.06048 10.662080000000003  C 16.06048 10.87711999999999  15.952959999999997 11.065279999999973  15.751360959999992 11.226560000000006  L 16.127679039999997 12.100160000000017  C 17.081920959999998 11.46848  17.982400959999993 10.756159999999966  18.81568096 9.949760000000026  L 18.573759999999993 8.955199903999983  C 18.009280000000004 9.492799999999988  17.47168096 9.949760000000026  16.987839039999997 10.352959999999996  L 16.987839039999997 4.372159711999984  Z M 34.5136 11.293759999999963  L 34.5136 10.339519999999993  C 33.59968 10.541119999999978  32.67232096 10.729280000000017  31.71808096 10.890559999999994  L 31.71808096 8.511680000000013  L 34.13728192 8.511680000000013  L 34.13728192 7.570879520000005  L 31.71808096 7.570879520000005  L 31.71808096 6.011839903999999  L 30.750399999999992 6.011839903999999  L 30.750399999999992 7.570879520000005  L 28.129600000000003 7.570879520000005  L 28.129600000000003 8.511680000000013  L 30.750399999999992 8.511680000000013  L 30.750399999999992 11.05183999999997  C 29.728960959999995 11.213120000000004  28.680640000000004 11.347520000000031  27.605440959999996 11.46848  L 27.820480000000003 12.395840000000021  C 30.212799999999994 12.100160000000017  32.44384192 11.723839999999996  34.5136 11.293759999999963  Z M 34.45984 0.8508795199999781  L 27.780160000000002 0.8508795199999781  L 27.780160000000002 1.7648000959999877  L 29.984319039999995 1.7648000959999877  C 29.218240960000003 3.310399808  28.559679999999993 4.318399999999997  28.008640959999994 4.80223971199996  C 27.91455904 4.842559999999992  27.780160000000002 4.869439807999981  27.61888096 4.896319711999979  L 27.847360000000002 5.769920000000013  C 29.86336 5.5683199999999715  31.731520959999997 5.3129597120000085  33.42496096 5.017279615999996  C 33.64 5.3801599039999815  33.828159039999996 5.729599807999989  34.002878079999995 6.079039615999989  L 34.80928192 5.514559808000001  C 34.32544096 4.6140796159999695  33.64 3.5523196159999775  32.73952 2.342719423999995  L 32.00032 2.826560096000037  C 32.36319808 3.3238397119999945  32.6992 3.807679903999997  32.994879039999994 4.291519616000016  C 31.78528096 4.506559616000004  30.521920959999996 4.6678398079999965  29.191360959999997 4.80223971199996  C 29.75584 4.116799904000004  30.360640000000004 3.108799712000007  31.005760959999996 1.7648000959999877  L 34.45984 1.7648000959999877  L 34.45984 0.8508795199999781  Z M 36.03232096 12.463039999999978  L 38.007999039999994 12.463039999999978  C 38.81439904 12.463039999999978  39.23104096000001 12.046399999999949  40 11.226560000000006  L 40 0.2998400864000246  L 39 0.2998400864000246  L 39 10.984639999999956  C 38.24992192 11.37439999999998  38.048319039999996 11.576000000000022  37.67200096 11.576000000000022  C 37.08064 11.576000000000022  36.46240192 11.549120000000016  35.81728192 11.522239999999954  L 36.03232096 12.463039999999978  Z M 36.50272192 1.5094394239999929  L 35.56191903999999 1.5094394239999929  L 35.56191903999999 9.828799999999944  L 36.50272192 9.828799999999944  L 36.50272192 1.5094394239999929  Z M 46.09888096 9.237439616000017  L 46.09888096 0.7971197119999829  L 41.44863904 0.7971197119999829  L 41.44863904 9.237439616000017  L 42.33567903999999 9.237439616000017  L 42.33567903999999 1.697599519999983  L 45.238720959999995 1.697599519999983  L 45.238720959999995 9.237439616000017  L 46.09888096 9.237439616000017  Z M 44.17696192 2.6787198079999825  L 43.343681919999995 2.6787198079999825  L 43.343681919999995 7.046719999999994  C 43.31680192 8.269760096000027  43.14207904 9.264319424000007  42.81952 10.043839999999989  C 42.47007807999999 10.783039999999971  41.83840095999999 11.37439999999998  40.95136095999999 11.817919999999958  L 41.47551904000001 12.624320000000012  C 42.416318079999996 12.153919999999971  43.08831904 11.495360000000005  43.504960960000005 10.662080000000003  C 43.93503903999999 9.761599999999987  44.150081920000005 8.551999808000005  44.17696192 7.046719999999994  L 44.17696192 2.6787198079999825  Z M 46.50207904 11.831359999999961  C 46.00480096 11.105600000000038  45.38655999999999 10.366399999999999  44.63391999999999 9.613759999999957  L 44.015679039999995 10.218559999999968  C 44.78175904 11.024960000000021  45.38655999999999 11.79104000000001  45.816638080000004 12.51679999999999  L 46.50207904 11.831359999999961  Z M 48.57184096 6.764479807999976  L 49.754559040000004 6.764479807999976  C 50.39967999999999 9.264319424000007  51.367360000000005 11.172799999999995  52.630720960000005 12.463039999999978  L 53.28928191999999 11.710399999999993  C 52.11999999999999 10.55455999999998  51.21951999999999 8.91488009599999  50.60127904000001 6.764479807999976  L 53.033919999999995 6.764479807999976  L 53.033919999999995 5.8236798080000085  L 48.57184096 5.8236798080000085  L 48.57184096 0.2729592896000099  L 47.63104096000001 0.2729592896000099  L 47.63104096000001 5.8236798080000085  L 46.66336192 5.8236798080000085  L 46.66336192 6.764479807999976  L 47.63104096000001 6.764479807999976  L 47.63104096000001 11.28031999999996  C 47.63104096000001 11.46848  47.52352191999999 11.60287999999997  47.32191904 11.69695999999999  L 47.72512096 12.557119999999998  C 48.80032 12.221119999999985  49.74111903999999 11.79104000000001  50.57439904 11.266880000000015  L 50.39967999999999 10.406720000000007  C 49.781439039999995 10.796480000000031  49.16319807999999 11.105600000000038  48.57184096 11.334080000000029  L 48.57184096 6.764479807999976  Z M 52.832320960000004 1.4825595199999952  L 52.09312 0.8777594239999758  C 51.23295999999999 2.3158395199999973  50.19808096 3.3910394239999846  48.98847904 4.089919615999975  L 49.51263999999999 4.842559999999992  C 50.775998079999994 4.116799904000004  51.891520959999994 2.987839328000007  52.832320960000004 1.4825595199999952  Z M 58.772800000000004 11.172799999999995  L 58.772800000000004 1.2675195200000076  L 55 1.2675195200000076  L 55 11.495360000000005  L 55.84287807999999 11.495360000000005  L 55.84287807999999 10.272320000000036  L 57.83200096 10.272320000000036  L 57.83200096 11.172799999999995  L 58.772800000000004 11.172799999999995  Z M 57.83200096 9.371839999999963  L 55.84287807999999 9.371839999999963  L 55.84287807999999 6.132799808000016  L 57.83200096 6.132799808000016  L 57.83200096 9.371839999999963  Z M 57.83200096 5.232319615999984  L 55.84287807999999 5.232319615999984  L 55.84287807999999 2.154559328000005  L 57.83200096 2.154559328000005  L 57.83200096 5.232319615999984  Z M 62.63007807999999 8.578879712000003  C 62.18656 7.63808009600001  61.54144287999999 6.5359999039999925  60.70815904 5.272639904000016  L 59.915199040000005 5.769920000000013  C 60.72159904 7.006399712000018  61.35328 8.135359807999976  61.82368192 9.143359999999973  L 62.63007807999999 8.578879712000003  Z M 61.42048 12.449599999999975  L 63.77248 12.449599999999975  C 64.60575711999999 12.449599999999975  65.02240192000001 12.01952  65.02240192000001 11.172799999999995  L 65.02240192000001 3.6598396159999993  L 66.67552287999999 3.6598396159999993  L 66.67552287999999 2.73247951999997  L 65.02240192000001 2.73247951999997  L 65.02240192000001 0.3670397983999578  L 64.04127903999999 0.3670397983999578  L 64.04127903999999 2.73247951999997  L 59.39104096000001 2.73247951999997  L 59.39104096000001 3.6598396159999993  L 64.04127903999999 3.6598396159999993  L 64.04127903999999 10.930880000000002  C 64.04127903999999 11.347520000000031  63.83968 11.562560000000019  63.449921919999994 11.562560000000019  C 62.737598079999984 11.562560000000019  61.99840096 11.535680000000013  61.21888096000001 11.508799999999951  L 61.42048 12.449599999999975  Z M 76.45984384 3.9017599039999595  L 71.35263712 3.9017599039999595  L 71.35263712 10.164800000000014  L 76.45984384 10.164800000000014  L 76.45984384 3.9017599039999595  Z M 75.55936 7.463359999999966  L 75.55936 9.304640192000022  L 72.26656 9.304640192000022  L 72.26656 7.463359999999966  L 75.55936 7.463359999999966  Z M 75.55936 6.603200095999966  L 72.26656 6.603200095999966  L 72.26656 4.761919903999967  L 75.55936 4.761919903999967  L 75.55936 6.603200095999966  Z M 76.83616192 12.476479999999981  L 77.96511712 12.476479999999981  C 78.86560096 12.476479999999981  79.32255904 11.992639999999994  79 11.05183999999997  L 79 0.9315200960000426  L 73.16704383999999 0.9315200960000426  L 73.16704383999999 1.831999807999978  L 78.38176288 1.831999807999978  L 78.38176288 10.783039999999971  C 78.38176288 11.320640000000026  78.16672383999999 11.60287999999997  77.76351808 11.60287999999997  L 76.59424288 11.576000000000022  L 76.83616192 12.476479999999981  Z M 69 2.4905597119999925  L 68 2.4905597119999925  L 68 12.597440000000006  L 69 12.597440000000006  L 69 2.4905597119999925  Z M 72.15904096 2.5711993279999774  C 71.68864288 1.6841595199999804  71.13759807999999 0.8777594239999758  70.51935999999999 0.1385598751999737  L 69.63231712 0.5283200096000087  C 70.23712191999999 1.2540796159999559  70.78815904 2.087359615999958  71.29887712 3.028160095999965  L 72.15904096 2.5711993279999774  Z " fill-rule="nonzero" fill="rgba(51, 51, 51, 1)" stroke="none" transform="matrix(1 0 0 1 1778 375 )" class="fill" />
    <path d="M 12.861759999999997 0.8105597119999857  L 6.195520192 0.8105597119999857  L 6.195520192 1.7244793279999726  L 9.179200479999999 1.7244793279999726  C 9.125440671999996 2.2351999039999555  9.044800096000003 2.7459195199999726  8.937280576 3.229760096000007  L 6.692800287999997 3.229760096000007  L 6.692800287999997 9.560000000000002  L 7.606720383999999 9.560000000000002  L 7.606720383999999 4.089919615999975  L 11.490879999999997 4.089919615999975  L 11.490879999999997 9.560000000000002  L 12.404800000000002 9.560000000000002  L 12.404800000000002 3.229760096000007  L 9.864640000000001 3.229760096000007  C 9.972160959999997 2.7459195199999726  10.06624 2.248639808000007  10.133439999999993 1.7244793279999726  L 12.861759999999997 1.7244793279999726  L 12.861759999999997 0.8105597119999857  Z " stroke-width="0" stroke-dasharray="0" stroke="rgba(255, 255, 255, 0)" fill="none" transform="matrix(1 0 0 1 1778 375 )" class="stroke" mask="url(#Clip4709)" />
    <path d="M 12.996160000000003 11.898559999999975  C 12.32416 11.119040000000041  11.490879999999997 10.339519999999993  10.496319999999997 9.560000000000002  L 9.878079999999997 10.164800000000014  C 10.912959999999998 11.011520000000019  11.732799999999997 11.817919999999958  12.32416 12.57056  L 12.996160000000003 11.898559999999975  Z " stroke-width="0" stroke-dasharray="0" stroke="rgba(255, 255, 255, 0)" fill="none" transform="matrix(1 0 0 1 1778 375 )" class="stroke" mask="url(#Clip4709)" />
    <path d="M 9.98560096 4.855999903999987  L 9.044800096000003 4.855999903999987  L 9.044800096000003 7.275199903999976  C 9.017920191999998 8.431039424000005  8.762560384 9.358400000000017  8.305600576 10.084159999999997  C 7.794880095999996 10.783039999999971  6.894400288 11.334080000000029  5.617599903999999 11.750720000000001  L 6.141760383999998 12.57056  C 7.472320095999997 12.11360000000002  8.426560095999996 11.495360000000005  9.017920191999998 10.702400000000011  C 9.622720384000004 9.855680000000007  9.945280959999998 8.713279999999997  9.98560096 7.275199903999976  L 9.98560096 4.855999903999987  Z " stroke-width="0" stroke-dasharray="0" stroke="rgba(255, 255, 255, 0)" fill="none" transform="matrix(1 0 0 1 1778 375 )" class="stroke" mask="url(#Clip4709)" />
    <path d="M 3.0640000959999973 3.5119998079999846  C 2.7683199999999992 3.1894394239999997  2.432320095999998 2.85343990399997  2.0694400959999975 2.5039996159999873  L 1.3571200959999992 2.9475195200000144  C 2.0828799999999994 3.6463997120000045  2.7145599999999988 4.318399999999997  3.2387200000000007 4.936640000000011  L 0.6313599999999973 4.936640000000011  L 0.6313599999999973 5.837119712000003  L 2.56672 5.837119712000003  L 2.56672 11.226560000000006  C 2.56672 11.549120000000016  2.4188801919999996 11.710399999999993  2.150079999999999 11.710399999999993  C 1.7737600959999966 11.710399999999993  1.3840000959999976 11.683519999999987  0.9808000191999966 11.643200000000036  L 1.1689599999999984 12.51679999999999  L 2.459199999999999 12.51679999999999  C 3.131199999999996 12.51679999999999  3.4806400959999984 12.153919999999971  3.4806400959999984 11.455039999999997  L 3.4806400959999984 5.837119712000003  L 4.905280288 5.837119712000003  C 4.717120191999999 6.56287980799999  4.488640287999999 7.16767990400001  4.246719999999996 7.678400000000011  L 5.039680191999999 7.987519520000036  C 5.335360288 7.396159807999993  5.604159999999997 6.576319711999987  5.819199999999999 5.527999711999996  L 5.819199999999999 4.936640000000011  L 4.287040288 4.936640000000011  C 4.098880191999999 4.694719711999994  3.8838401919999974 4.425919999999962  3.6284801920000014 4.13023990399995  C 4.273600288000001 3.417919327999982  4.878399999999999 2.5711993279999774  5.429440287999999 1.5766399999999976  L 5.429440287999999 0.8105597119999857  L 1.007679999999997 0.8105597119999857  L 1.007679999999997 1.711039423999978  L 4.394560288000001 1.711039423999978  C 3.991360192000002 2.38304019200001  3.547839999999997 2.987839328000007  3.0640000959999973 3.5119998079999846  Z " stroke-width="0" stroke-dasharray="0" stroke="rgba(255, 255, 255, 0)" fill="none" transform="matrix(1 0 0 1 1778 375 )" class="stroke" mask="url(#Clip4709)" />
    <path d="M 21.933759999999992 4.291519616000016  L 18.29152096 4.291519616000016  L 18.29152096 5.259199999999964  L 21.933759999999992 5.259199999999964  L 21.933759999999992 12.610880000000009  L 22.928319039999998 12.610880000000009  L 22.928319039999998 5.259199999999964  L 26.38240095999999 5.259199999999964  L 26.38240095999999 4.291519616000016  L 22.928319039999998 4.291519616000016  L 22.928319039999998 0.2460794048000139  L 21.933759999999992 0.2460794048000139  L 21.933759999999992 4.291519616000016  Z " stroke-width="0" stroke-dasharray="0" stroke="rgba(255, 255, 255, 0)" fill="none" transform="matrix(1 0 0 1 1778 375 )" class="stroke" mask="url(#Clip4709)" />
    <path d="M 17.95552096 2.463679807999995  C 17.33728 1.7648000959999877  16.571199040000003 1.0793594239999607  15.65728 0.3939196736000099  L 14.985279999999996 1.052479519999963  C 15.952959999999997 1.7782400960000473  16.732480000000002 2.4771197119999897  17.29696 3.1356796160000044  L 17.95552096 2.463679807999995  Z " stroke-width="0" stroke-dasharray="0" stroke="rgba(255, 255, 255, 0)" fill="none" transform="matrix(1 0 0 1 1778 375 )" class="stroke" mask="url(#Clip4709)" />
    <path d="M 16.987839039999997 4.372159711999984  L 14.084800000000001 4.372159711999984  L 14.084800000000001 5.299519808000014  L 16.06048 5.299519808000014  L 16.06048 10.662080000000003  C 16.06048 10.87711999999999  15.952959999999997 11.065279999999973  15.751360959999992 11.226560000000006  L 16.127679039999997 12.100160000000017  C 17.081920959999998 11.46848  17.982400959999993 10.756159999999966  18.81568096 9.949760000000026  L 18.573759999999993 8.955199903999983  C 18.009280000000004 9.492799999999988  17.47168096 9.949760000000026  16.987839039999997 10.352959999999996  L 16.987839039999997 4.372159711999984  Z " stroke-width="0" stroke-dasharray="0" stroke="rgba(255, 255, 255, 0)" fill="none" transform="matrix(1 0 0 1 1778 375 )" class="stroke" mask="url(#Clip4709)" />
    <path d="M 34.5136 11.293759999999963  L 34.5136 10.339519999999993  C 33.59968 10.541119999999978  32.67232096 10.729280000000017  31.71808096 10.890559999999994  L 31.71808096 8.511680000000013  L 34.13728192 8.511680000000013  L 34.13728192 7.570879520000005  L 31.71808096 7.570879520000005  L 31.71808096 6.011839903999999  L 30.750399999999992 6.011839903999999  L 30.750399999999992 7.570879520000005  L 28.129600000000003 7.570879520000005  L 28.129600000000003 8.511680000000013  L 30.750399999999992 8.511680000000013  L 30.750399999999992 11.05183999999997  C 29.728960959999995 11.213120000000004  28.680640000000004 11.347520000000031  27.605440959999996 11.46848  L 27.820480000000003 12.395840000000021  C 30.212799999999994 12.100160000000017  32.44384192 11.723839999999996  34.5136 11.293759999999963  Z " stroke-width="0" stroke-dasharray="0" stroke="rgba(255, 255, 255, 0)" fill="none" transform="matrix(1 0 0 1 1778 375 )" class="stroke" mask="url(#Clip4709)" />
    <path d="M 34.45984 0.8508795199999781  L 27.780160000000002 0.8508795199999781  L 27.780160000000002 1.7648000959999877  L 29.984319039999995 1.7648000959999877  C 29.218240960000003 3.310399808  28.559679999999993 4.318399999999997  28.008640959999994 4.80223971199996  C 27.91455904 4.842559999999992  27.780160000000002 4.869439807999981  27.61888096 4.896319711999979  L 27.847360000000002 5.769920000000013  C 29.86336 5.5683199999999715  31.731520959999997 5.3129597120000085  33.42496096 5.017279615999996  C 33.64 5.3801599039999815  33.828159039999996 5.729599807999989  34.002878079999995 6.079039615999989  L 34.80928192 5.514559808000001  C 34.32544096 4.6140796159999695  33.64 3.5523196159999775  32.73952 2.342719423999995  L 32.00032 2.826560096000037  C 32.36319808 3.3238397119999945  32.6992 3.807679903999997  32.994879039999994 4.291519616000016  C 31.78528096 4.506559616000004  30.521920959999996 4.6678398079999965  29.191360959999997 4.80223971199996  C 29.75584 4.116799904000004  30.360640000000004 3.108799712000007  31.005760959999996 1.7648000959999877  L 34.45984 1.7648000959999877  L 34.45984 0.8508795199999781  Z " stroke-width="0" stroke-dasharray="0" stroke="rgba(255, 255, 255, 0)" fill="none" transform="matrix(1 0 0 1 1778 375 )" class="stroke" mask="url(#Clip4709)" />
    <path d="M 36.03232096 12.463039999999978  L 38.007999039999994 12.463039999999978  C 38.81439904 12.463039999999978  39.23104096000001 12.046399999999949  40 11.226560000000006  L 40 0.2998400864000246  L 39 0.2998400864000246  L 39 10.984639999999956  C 38.24992192 11.37439999999998  38.048319039999996 11.576000000000022  37.67200096 11.576000000000022  C 37.08064 11.576000000000022  36.46240192 11.549120000000016  35.81728192 11.522239999999954  L 36.03232096 12.463039999999978  Z " stroke-width="0" stroke-dasharray="0" stroke="rgba(255, 255, 255, 0)" fill="none" transform="matrix(1 0 0 1 1778 375 )" class="stroke" mask="url(#Clip4709)" />
    <path d="M 36.50272192 1.5094394239999929  L 35.56191903999999 1.5094394239999929  L 35.56191903999999 9.828799999999944  L 36.50272192 9.828799999999944  L 36.50272192 1.5094394239999929  Z " stroke-width="0" stroke-dasharray="0" stroke="rgba(255, 255, 255, 0)" fill="none" transform="matrix(1 0 0 1 1778 375 )" class="stroke" mask="url(#Clip4709)" />
    <path d="M 46.09888096 9.237439616000017  L 46.09888096 0.7971197119999829  L 41.44863904 0.7971197119999829  L 41.44863904 9.237439616000017  L 42.33567903999999 9.237439616000017  L 42.33567903999999 1.697599519999983  L 45.238720959999995 1.697599519999983  L 45.238720959999995 9.237439616000017  L 46.09888096 9.237439616000017  Z " stroke-width="0" stroke-dasharray="0" stroke="rgba(255, 255, 255, 0)" fill="none" transform="matrix(1 0 0 1 1778 375 )" class="stroke" mask="url(#Clip4709)" />
    <path d="M 44.17696192 2.6787198079999825  L 43.343681919999995 2.6787198079999825  L 43.343681919999995 7.046719999999994  C 43.31680192 8.269760096000027  43.14207904 9.264319424000007  42.81952 10.043839999999989  C 42.47007807999999 10.783039999999971  41.83840095999999 11.37439999999998  40.95136095999999 11.817919999999958  L 41.47551904000001 12.624320000000012  C 42.416318079999996 12.153919999999971  43.08831904 11.495360000000005  43.504960960000005 10.662080000000003  C 43.93503903999999 9.761599999999987  44.150081920000005 8.551999808000005  44.17696192 7.046719999999994  L 44.17696192 2.6787198079999825  Z " stroke-width="0" stroke-dasharray="0" stroke="rgba(255, 255, 255, 0)" fill="none" transform="matrix(1 0 0 1 1778 375 )" class="stroke" mask="url(#Clip4709)" />
    <path d="M 46.50207904 11.831359999999961  C 46.00480096 11.105600000000038  45.38655999999999 10.366399999999999  44.63391999999999 9.613759999999957  L 44.015679039999995 10.218559999999968  C 44.78175904 11.024960000000021  45.38655999999999 11.79104000000001  45.816638080000004 12.51679999999999  L 46.50207904 11.831359999999961  Z " stroke-width="0" stroke-dasharray="0" stroke="rgba(255, 255, 255, 0)" fill="none" transform="matrix(1 0 0 1 1778 375 )" class="stroke" mask="url(#Clip4709)" />
    <path d="M 48.57184096 6.764479807999976  L 49.754559040000004 6.764479807999976  C 50.39967999999999 9.264319424000007  51.367360000000005 11.172799999999995  52.630720960000005 12.463039999999978  L 53.28928191999999 11.710399999999993  C 52.11999999999999 10.55455999999998  51.21951999999999 8.91488009599999  50.60127904000001 6.764479807999976  L 53.033919999999995 6.764479807999976  L 53.033919999999995 5.8236798080000085  L 48.57184096 5.8236798080000085  L 48.57184096 0.2729592896000099  L 47.63104096000001 0.2729592896000099  L 47.63104096000001 5.8236798080000085  L 46.66336192 5.8236798080000085  L 46.66336192 6.764479807999976  L 47.63104096000001 6.764479807999976  L 47.63104096000001 11.28031999999996  C 47.63104096000001 11.46848  47.52352191999999 11.60287999999997  47.32191904 11.69695999999999  L 47.72512096 12.557119999999998  C 48.80032 12.221119999999985  49.74111903999999 11.79104000000001  50.57439904 11.266880000000015  L 50.39967999999999 10.406720000000007  C 49.781439039999995 10.796480000000031  49.16319807999999 11.105600000000038  48.57184096 11.334080000000029  L 48.57184096 6.764479807999976  Z " stroke-width="0" stroke-dasharray="0" stroke="rgba(255, 255, 255, 0)" fill="none" transform="matrix(1 0 0 1 1778 375 )" class="stroke" mask="url(#Clip4709)" />
    <path d="M 52.832320960000004 1.4825595199999952  L 52.09312 0.8777594239999758  C 51.23295999999999 2.3158395199999973  50.19808096 3.3910394239999846  48.98847904 4.089919615999975  L 49.51263999999999 4.842559999999992  C 50.775998079999994 4.116799904000004  51.891520959999994 2.987839328000007  52.832320960000004 1.4825595199999952  Z " stroke-width="0" stroke-dasharray="0" stroke="rgba(255, 255, 255, 0)" fill="none" transform="matrix(1 0 0 1 1778 375 )" class="stroke" mask="url(#Clip4709)" />
    <path d="M 58.772800000000004 11.172799999999995  L 58.772800000000004 1.2675195200000076  L 55 1.2675195200000076  L 55 11.495360000000005  L 55.84287807999999 11.495360000000005  L 55.84287807999999 10.272320000000036  L 57.83200096 10.272320000000036  L 57.83200096 11.172799999999995  L 58.772800000000004 11.172799999999995  Z " stroke-width="0" stroke-dasharray="0" stroke="rgba(255, 255, 255, 0)" fill="none" transform="matrix(1 0 0 1 1778 375 )" class="stroke" mask="url(#Clip4709)" />
    <path d="M 57.83200096 9.371839999999963  L 55.84287807999999 9.371839999999963  L 55.84287807999999 6.132799808000016  L 57.83200096 6.132799808000016  L 57.83200096 9.371839999999963  Z " stroke-width="0" stroke-dasharray="0" stroke="rgba(255, 255, 255, 0)" fill="none" transform="matrix(1 0 0 1 1778 375 )" class="stroke" mask="url(#Clip4709)" />
    <path d="M 57.83200096 5.232319615999984  L 55.84287807999999 5.232319615999984  L 55.84287807999999 2.154559328000005  L 57.83200096 2.154559328000005  L 57.83200096 5.232319615999984  Z " stroke-width="0" stroke-dasharray="0" stroke="rgba(255, 255, 255, 0)" fill="none" transform="matrix(1 0 0 1 1778 375 )" class="stroke" mask="url(#Clip4709)" />
    <path d="M 62.63007807999999 8.578879712000003  C 62.18656 7.63808009600001  61.54144287999999 6.5359999039999925  60.70815904 5.272639904000016  L 59.915199040000005 5.769920000000013  C 60.72159904 7.006399712000018  61.35328 8.135359807999976  61.82368192 9.143359999999973  L 62.63007807999999 8.578879712000003  Z " stroke-width="0" stroke-dasharray="0" stroke="rgba(255, 255, 255, 0)" fill="none" transform="matrix(1 0 0 1 1778 375 )" class="stroke" mask="url(#Clip4709)" />
    <path d="M 61.42048 12.449599999999975  L 63.77248 12.449599999999975  C 64.60575711999999 12.449599999999975  65.02240192000001 12.01952  65.02240192000001 11.172799999999995  L 65.02240192000001 3.6598396159999993  L 66.67552287999999 3.6598396159999993  L 66.67552287999999 2.73247951999997  L 65.02240192000001 2.73247951999997  L 65.02240192000001 0.3670397983999578  L 64.04127903999999 0.3670397983999578  L 64.04127903999999 2.73247951999997  L 59.39104096000001 2.73247951999997  L 59.39104096000001 3.6598396159999993  L 64.04127903999999 3.6598396159999993  L 64.04127903999999 10.930880000000002  C 64.04127903999999 11.347520000000031  63.83968 11.562560000000019  63.449921919999994 11.562560000000019  C 62.737598079999984 11.562560000000019  61.99840096 11.535680000000013  61.21888096000001 11.508799999999951  L 61.42048 12.449599999999975  Z " stroke-width="0" stroke-dasharray="0" stroke="rgba(255, 255, 255, 0)" fill="none" transform="matrix(1 0 0 1 1778 375 )" class="stroke" mask="url(#Clip4709)" />
    <path d="M 76.45984384 3.9017599039999595  L 71.35263712 3.9017599039999595  L 71.35263712 10.164800000000014  L 76.45984384 10.164800000000014  L 76.45984384 3.9017599039999595  Z " stroke-width="0" stroke-dasharray="0" stroke="rgba(255, 255, 255, 0)" fill="none" transform="matrix(1 0 0 1 1778 375 )" class="stroke" mask="url(#Clip4709)" />
    <path d="M 75.55936 7.463359999999966  L 75.55936 9.304640192000022  L 72.26656 9.304640192000022  L 72.26656 7.463359999999966  L 75.55936 7.463359999999966  Z " stroke-width="0" stroke-dasharray="0" stroke="rgba(255, 255, 255, 0)" fill="none" transform="matrix(1 0 0 1 1778 375 )" class="stroke" mask="url(#Clip4709)" />
    <path d="M 75.55936 6.603200095999966  L 72.26656 6.603200095999966  L 72.26656 4.761919903999967  L 75.55936 4.761919903999967  L 75.55936 6.603200095999966  Z " stroke-width="0" stroke-dasharray="0" stroke="rgba(255, 255, 255, 0)" fill="none" transform="matrix(1 0 0 1 1778 375 )" class="stroke" mask="url(#Clip4709)" />
    <path d="M 76.83616192 12.476479999999981  L 77.96511712 12.476479999999981  C 78.86560096 12.476479999999981  79.32255904 11.992639999999994  79 11.05183999999997  L 79 0.9315200960000426  L 73.16704383999999 0.9315200960000426  L 73.16704383999999 1.831999807999978  L 78.38176288 1.831999807999978  L 78.38176288 10.783039999999971  C 78.38176288 11.320640000000026  78.16672383999999 11.60287999999997  77.76351808 11.60287999999997  L 76.59424288 11.576000000000022  L 76.83616192 12.476479999999981  Z " stroke-width="0" stroke-dasharray="0" stroke="rgba(255, 255, 255, 0)" fill="none" transform="matrix(1 0 0 1 1778 375 )" class="stroke" mask="url(#Clip4709)" />
    <path d="M 69 2.4905597119999925  L 68 2.4905597119999925  L 68 12.597440000000006  L 69 12.597440000000006  L 69 2.4905597119999925  Z " stroke-width="0" stroke-dasharray="0" stroke="rgba(255, 255, 255, 0)" fill="none" transform="matrix(1 0 0 1 1778 375 )" class="stroke" mask="url(#Clip4709)" />
    <path d="M 72.15904096 2.5711993279999774  C 71.68864288 1.6841595199999804  71.13759807999999 0.8777594239999758  70.51935999999999 0.1385598751999737  L 69.63231712 0.5283200096000087  C 70.23712191999999 1.2540796159999559  70.78815904 2.087359615999958  71.29887712 3.028160095999965  L 72.15904096 2.5711993279999774  Z " stroke-width="0" stroke-dasharray="0" stroke="rgba(255, 255, 255, 0)" fill="none" transform="matrix(1 0 0 1 1778 375 )" class="stroke" mask="url(#Clip4709)" />
  </g>
</svg>