<?xml version="1.0" encoding="utf-8"?>
<svg version="1.1" xmlns:xlink="http://www.w3.org/1999/xlink" width="28px" height="12px" xmlns="http://www.w3.org/2000/svg">
  <defs>
    <pattern id="BGPattern" patternUnits="userSpaceOnUse" alignment="0 0" imageRepeat="None" />
    <mask fill="white" id="Clip8415">
      <path d="M 8.78939733265625 5.9168749760000345  C 8.78939733265625 2.2606250240000314  6.90502197265625 0.7231250240000335  4.739397332656246 0.7231250240000335  C 2.5409598926562467 0.7231250240000335  0.970646612656246 2.227812512000032  0.970646612656246 4.2856250240000335  L 0.970646612656246 4.2996874880000355  C 0.970646612656246 6.226250048000033  2.334709652656251 7.6465625600000315  4.284709652656247 7.6465625600000315  C 5.676896852656249 7.6465625600000315  6.562834772656245 6.938749760000032  6.933147092656249 6.137187488000034  L 7.073771732656248 6.137187488000034  C 7.073771732656248 6.212187488000033  7.06908405265625 6.2918749760000345  7.06908405265625 6.366874880000033  C 6.989397332656246 8.307499520000036  6.309709652656245 9.882500480000033  4.697209172656251 9.882500480000033  C 3.8065845326562453 9.882500480000033  3.1784594126562453 9.418437440000034  2.9112722126562502 8.710624640000034  L 2.8925224526562445 8.640312320000035  L 1.1065845326562496 8.640312320000035  L 1.1206466126562518 8.715312320000034  C 1.444084052656251 10.271562560000032  2.8362722126562474 11.373125120000033  4.697209172656251 11.373125120000033  C 7.251896852656252 11.373125120000033  8.78939733265625 9.348125120000034  8.78939733265625 5.930937536000034  L 8.78939733265625 5.9168749760000345  Z M 6.759709652656248 4.280937536000035  C 6.759709652656248 5.4246874880000355  5.878459412656248 6.254374976000033  4.7347096526562495 6.254374976000033  C 3.581584532656251 6.254374976000033  2.742522452656246 5.41062502400003  2.742522452656246 4.238749952000031  L 2.742522452656246 4.224687488000033  C 2.742522452656246 3.0903125120000325  3.637834772656248 2.199687488000034  4.753459412656248 2.199687488000034  C 5.878459412656248 2.199687488000034  6.759709652656248 3.1043749760000345  6.759709652656248 4.266874976000036  L 6.759709652656248 4.280937536000035  Z M 10.451584532656248 4.932500000000033  C 10.451584532656248 5.551250048000032  10.92970965265625 6.038749952000032  11.567209172656248 6.038749952000032  C 12.214084052656247 6.038749952000032  12.687521492656252 5.551250048000032  12.687521492656252 4.932500000000033  C 12.687521492656252 4.309062464000032  12.214084052656247 3.8215624640000314  11.567209172656248 3.8215624640000314  C 10.92970965265625 3.8215624640000314  10.451584532656248 4.309062464000032  10.451584532656248 4.932500000000033  Z M 10.451584532656248 10.149687680000032  C 10.451584532656248 10.768437440000032  10.92970965265625 11.260624640000035  11.567209172656248 11.260624640000035  C 12.214084052656247 11.260624640000035  12.687521492656252 10.768437440000032  12.687521492656252 10.149687680000032  C 12.687521492656252 9.526250240000032  12.214084052656247 9.038749760000034  11.567209172656248 9.038749760000034  C 10.92970965265625 9.038749760000034  10.451584532656248 9.526250240000032  10.451584532656248 10.149687680000032  Z M 19.26220917265625 9.174687680000034  L 19.26220917265625 11.120000000000033  L 21.001272212656247 11.120000000000033  L 21.001272212656247 9.174687680000034  L 22.36533429265625 9.174687680000034  L 22.36533429265625 7.674687680000034  L 21.001272212656247 7.674687680000034  L 21.001272212656247 0.9762500480000327  L 18.432522452656244 0.9762500480000327  C 17.054397332656244 3.0715624640000314  15.61533429265625 5.405937536000035  14.29814709265625 7.688749760000032  L 14.29814709265625 9.174687680000034  L 19.26220917265625 9.174687680000034  Z M 19.290334292656247 7.716874880000034  L 15.985646612656247 7.716874880000034  L 15.985646612656247 7.613749760000033  C 16.970021972656248 5.888749952000033  18.14658453265625 4.013749952000033  19.187209172656246 2.4246874880000355  L 19.290334292656247 2.4246874880000355  L 19.290334292656247 7.716874880000034  Z M 26.183771732656247 2.762187488000034  L 26.183771732656247 11.120000000000033  L 28 11.120000000000033  L 28 0.9762500480000327  L 26.18845941265625 0.9762500480000327  L 23.54002197265625 2.8371874880000334  L 23.54002197265625 4.548125024000033  L 26.061896852656247 2.762187488000034  L 26.183771732656247 2.762187488000034  Z " fill-rule="evenodd" />
    </mask>
  </defs>
  <g transform="matrix(1 0 0 1 -1789 -66 )">
    <path d="M 8.78939733265625 5.9168749760000345  C 8.78939733265625 2.2606250240000314  6.90502197265625 0.7231250240000335  4.739397332656246 0.7231250240000335  C 2.5409598926562467 0.7231250240000335  0.970646612656246 2.227812512000032  0.970646612656246 4.2856250240000335  L 0.970646612656246 4.2996874880000355  C 0.970646612656246 6.226250048000033  2.334709652656251 7.6465625600000315  4.284709652656247 7.6465625600000315  C 5.676896852656249 7.6465625600000315  6.562834772656245 6.938749760000032  6.933147092656249 6.137187488000034  L 7.073771732656248 6.137187488000034  C 7.073771732656248 6.212187488000033  7.06908405265625 6.2918749760000345  7.06908405265625 6.366874880000033  C 6.989397332656246 8.307499520000036  6.309709652656245 9.882500480000033  4.697209172656251 9.882500480000033  C 3.8065845326562453 9.882500480000033  3.1784594126562453 9.418437440000034  2.9112722126562502 8.710624640000034  L 2.8925224526562445 8.640312320000035  L 1.1065845326562496 8.640312320000035  L 1.1206466126562518 8.715312320000034  C 1.444084052656251 10.271562560000032  2.8362722126562474 11.373125120000033  4.697209172656251 11.373125120000033  C 7.251896852656252 11.373125120000033  8.78939733265625 9.348125120000034  8.78939733265625 5.930937536000034  L 8.78939733265625 5.9168749760000345  Z M 6.759709652656248 4.280937536000035  C 6.759709652656248 5.4246874880000355  5.878459412656248 6.254374976000033  4.7347096526562495 6.254374976000033  C 3.581584532656251 6.254374976000033  2.742522452656246 5.41062502400003  2.742522452656246 4.238749952000031  L 2.742522452656246 4.224687488000033  C 2.742522452656246 3.0903125120000325  3.637834772656248 2.199687488000034  4.753459412656248 2.199687488000034  C 5.878459412656248 2.199687488000034  6.759709652656248 3.1043749760000345  6.759709652656248 4.266874976000036  L 6.759709652656248 4.280937536000035  Z M 10.451584532656248 4.932500000000033  C 10.451584532656248 5.551250048000032  10.92970965265625 6.038749952000032  11.567209172656248 6.038749952000032  C 12.214084052656247 6.038749952000032  12.687521492656252 5.551250048000032  12.687521492656252 4.932500000000033  C 12.687521492656252 4.309062464000032  12.214084052656247 3.8215624640000314  11.567209172656248 3.8215624640000314  C 10.92970965265625 3.8215624640000314  10.451584532656248 4.309062464000032  10.451584532656248 4.932500000000033  Z M 10.451584532656248 10.149687680000032  C 10.451584532656248 10.768437440000032  10.92970965265625 11.260624640000035  11.567209172656248 11.260624640000035  C 12.214084052656247 11.260624640000035  12.687521492656252 10.768437440000032  12.687521492656252 10.149687680000032  C 12.687521492656252 9.526250240000032  12.214084052656247 9.038749760000034  11.567209172656248 9.038749760000034  C 10.92970965265625 9.038749760000034  10.451584532656248 9.526250240000032  10.451584532656248 10.149687680000032  Z M 19.26220917265625 9.174687680000034  L 19.26220917265625 11.120000000000033  L 21.001272212656247 11.120000000000033  L 21.001272212656247 9.174687680000034  L 22.36533429265625 9.174687680000034  L 22.36533429265625 7.674687680000034  L 21.001272212656247 7.674687680000034  L 21.001272212656247 0.9762500480000327  L 18.432522452656244 0.9762500480000327  C 17.054397332656244 3.0715624640000314  15.61533429265625 5.405937536000035  14.29814709265625 7.688749760000032  L 14.29814709265625 9.174687680000034  L 19.26220917265625 9.174687680000034  Z M 19.290334292656247 7.716874880000034  L 15.985646612656247 7.716874880000034  L 15.985646612656247 7.613749760000033  C 16.970021972656248 5.888749952000033  18.14658453265625 4.013749952000033  19.187209172656246 2.4246874880000355  L 19.290334292656247 2.4246874880000355  L 19.290334292656247 7.716874880000034  Z M 26.183771732656247 2.762187488000034  L 26.183771732656247 11.120000000000033  L 28 11.120000000000033  L 28 0.9762500480000327  L 26.18845941265625 0.9762500480000327  L 23.54002197265625 2.8371874880000334  L 23.54002197265625 4.548125024000033  L 26.061896852656247 2.762187488000034  L 26.183771732656247 2.762187488000034  Z " fill-rule="nonzero" fill="rgba(0, 0, 0, 1)" stroke="none" transform="matrix(1 0 0 1 1789 66 )" class="fill" />
    <path d="M 8.78939733265625 5.9168749760000345  C 8.78939733265625 2.2606250240000314  6.90502197265625 0.7231250240000335  4.739397332656246 0.7231250240000335  C 2.5409598926562467 0.7231250240000335  0.970646612656246 2.227812512000032  0.970646612656246 4.2856250240000335  L 0.970646612656246 4.2996874880000355  C 0.970646612656246 6.226250048000033  2.334709652656251 7.6465625600000315  4.284709652656247 7.6465625600000315  C 5.676896852656249 7.6465625600000315  6.562834772656245 6.938749760000032  6.933147092656249 6.137187488000034  L 7.073771732656248 6.137187488000034  C 7.073771732656248 6.212187488000033  7.06908405265625 6.2918749760000345  7.06908405265625 6.366874880000033  C 6.989397332656246 8.307499520000036  6.309709652656245 9.882500480000033  4.697209172656251 9.882500480000033  C 3.8065845326562453 9.882500480000033  3.1784594126562453 9.418437440000034  2.9112722126562502 8.710624640000034  L 2.8925224526562445 8.640312320000035  L 1.1065845326562496 8.640312320000035  L 1.1206466126562518 8.715312320000034  C 1.444084052656251 10.271562560000032  2.8362722126562474 11.373125120000033  4.697209172656251 11.373125120000033  C 7.251896852656252 11.373125120000033  8.78939733265625 9.348125120000034  8.78939733265625 5.930937536000034  L 8.78939733265625 5.9168749760000345  Z " stroke-width="0" stroke-dasharray="0" stroke="rgba(255, 255, 255, 0)" fill="none" transform="matrix(1 0 0 1 1789 66 )" class="stroke" mask="url(#Clip8415)" />
    <path d="M 6.759709652656248 4.280937536000035  C 6.759709652656248 5.4246874880000355  5.878459412656248 6.254374976000033  4.7347096526562495 6.254374976000033  C 3.581584532656251 6.254374976000033  2.742522452656246 5.41062502400003  2.742522452656246 4.238749952000031  L 2.742522452656246 4.224687488000033  C 2.742522452656246 3.0903125120000325  3.637834772656248 2.199687488000034  4.753459412656248 2.199687488000034  C 5.878459412656248 2.199687488000034  6.759709652656248 3.1043749760000345  6.759709652656248 4.266874976000036  L 6.759709652656248 4.280937536000035  Z " stroke-width="0" stroke-dasharray="0" stroke="rgba(255, 255, 255, 0)" fill="none" transform="matrix(1 0 0 1 1789 66 )" class="stroke" mask="url(#Clip8415)" />
    <path d="M 10.451584532656248 4.932500000000033  C 10.451584532656248 5.551250048000032  10.92970965265625 6.038749952000032  11.567209172656248 6.038749952000032  C 12.214084052656247 6.038749952000032  12.687521492656252 5.551250048000032  12.687521492656252 4.932500000000033  C 12.687521492656252 4.309062464000032  12.214084052656247 3.8215624640000314  11.567209172656248 3.8215624640000314  C 10.92970965265625 3.8215624640000314  10.451584532656248 4.309062464000032  10.451584532656248 4.932500000000033  Z " stroke-width="0" stroke-dasharray="0" stroke="rgba(255, 255, 255, 0)" fill="none" transform="matrix(1 0 0 1 1789 66 )" class="stroke" mask="url(#Clip8415)" />
    <path d="M 10.451584532656248 10.149687680000032  C 10.451584532656248 10.768437440000032  10.92970965265625 11.260624640000035  11.567209172656248 11.260624640000035  C 12.214084052656247 11.260624640000035  12.687521492656252 10.768437440000032  12.687521492656252 10.149687680000032  C 12.687521492656252 9.526250240000032  12.214084052656247 9.038749760000034  11.567209172656248 9.038749760000034  C 10.92970965265625 9.038749760000034  10.451584532656248 9.526250240000032  10.451584532656248 10.149687680000032  Z " stroke-width="0" stroke-dasharray="0" stroke="rgba(255, 255, 255, 0)" fill="none" transform="matrix(1 0 0 1 1789 66 )" class="stroke" mask="url(#Clip8415)" />
    <path d="M 19.26220917265625 9.174687680000034  L 19.26220917265625 11.120000000000033  L 21.001272212656247 11.120000000000033  L 21.001272212656247 9.174687680000034  L 22.36533429265625 9.174687680000034  L 22.36533429265625 7.674687680000034  L 21.001272212656247 7.674687680000034  L 21.001272212656247 0.9762500480000327  L 18.432522452656244 0.9762500480000327  C 17.054397332656244 3.0715624640000314  15.61533429265625 5.405937536000035  14.29814709265625 7.688749760000032  L 14.29814709265625 9.174687680000034  L 19.26220917265625 9.174687680000034  Z " stroke-width="0" stroke-dasharray="0" stroke="rgba(255, 255, 255, 0)" fill="none" transform="matrix(1 0 0 1 1789 66 )" class="stroke" mask="url(#Clip8415)" />
    <path d="M 19.290334292656247 7.716874880000034  L 15.985646612656247 7.716874880000034  L 15.985646612656247 7.613749760000033  C 16.970021972656248 5.888749952000033  18.14658453265625 4.013749952000033  19.187209172656246 2.4246874880000355  L 19.290334292656247 2.4246874880000355  L 19.290334292656247 7.716874880000034  Z " stroke-width="0" stroke-dasharray="0" stroke="rgba(255, 255, 255, 0)" fill="none" transform="matrix(1 0 0 1 1789 66 )" class="stroke" mask="url(#Clip8415)" />
    <path d="M 26.183771732656247 2.762187488000034  L 26.183771732656247 11.120000000000033  L 28 11.120000000000033  L 28 0.9762500480000327  L 26.18845941265625 0.9762500480000327  L 23.54002197265625 2.8371874880000334  L 23.54002197265625 4.548125024000033  L 26.061896852656247 2.762187488000034  L 26.183771732656247 2.762187488000034  Z " stroke-width="0" stroke-dasharray="0" stroke="rgba(255, 255, 255, 0)" fill="none" transform="matrix(1 0 0 1 1789 66 )" class="stroke" mask="url(#Clip8415)" />
  </g>
</svg>