<?xml version="1.0" encoding="utf-8"?>
<svg version="1.1" xmlns:xlink="http://www.w3.org/1999/xlink" width="13px" height="12px" xmlns="http://www.w3.org/2000/svg">
  <defs>
    <pattern id="BGPattern" patternUnits="userSpaceOnUse" alignment="0 0" imageRepeat="None" />
    <mask fill="white" id="Clip2044">
      <path d="M 11.263359999999992 0.10432038400003307  L 1.8956800959999924 0.10432038400003307  L 1.8956800959999924 1.3408004800000128  L 11.263359999999992 1.3408004800000128  L 11.263359999999992 0.10432038400003307  Z M 12.432639039999984 4  L 0.860800019199999 4  L 0.860800019199999 5.2921609600000465  L 4.23424 5.2921609600000465  L 4.23424 5.53408096000004  C 4.1804801920000045 6.8915200000000425  3.898240095999995 7.993600000000015  3.3875198080000075 8.853760000000051  C 2.86336 9.646720000000045  1.8822399040000022 10.305280000000039  0.4307200095999946 10.829440000000034  L 1.1161599039999999 11.904639040000035  C 2.621439903999999 11.367040000000031  3.696639807999986 10.627839040000026  4.3686398079999975 9.673600000000022  C 5.040639615999993 8.638720000000035  5.416959807999987 7.25439904000001  5.470719615999997 5.53408096000004  L 5.470719615999997 5.2921609600000465  L 7.594239999999999 5.2921609600000465  L 7.594239999999999 10.238080000000025  C 7.594239999999999 11.178880960000043  8.05120028799999 11.649280000000033  8.965119904000005 11.649280000000033  L 11.048319039999996 11.649280000000033  C 11.532160000000005 11.649280000000033  11.881600000000006 11.501439040000037  12.12352 11.232640000000032  C 12.365439999999992 10.936960000000028  12.540159040000006 10.049920000000014  12.634239039999997 8.544640000000044  L 11.478399039999985 8.168320000000051  C 11.451520000000002 9.297280000000029  11.370879039999991 9.969280000000026  11.249919999999989 10.197760000000017  C 11.155839999999998 10.39936000000003  11.007999040000001 10.506880000000024  10.806399999999996 10.506880000000024  L 9.327999231999996 10.506880000000024  C 8.991999808000003 10.506880000000024  8.830719615999996 10.318720000000013  8.830719615999996 9.969280000000026  L 8.830719615999996 5.2921609600000465  L 12.432639039999984 5.2921609600000465  L 12.432639039999984 4  Z " fill-rule="evenodd" />
    </mask>
  </defs>
  <g transform="matrix(1 0 0 1 -1853 -202 )">
    <path d="M 11.263359999999992 0.10432038400003307  L 1.8956800959999924 0.10432038400003307  L 1.8956800959999924 1.3408004800000128  L 11.263359999999992 1.3408004800000128  L 11.263359999999992 0.10432038400003307  Z M 12.432639039999984 4  L 0.860800019199999 4  L 0.860800019199999 5.2921609600000465  L 4.23424 5.2921609600000465  L 4.23424 5.53408096000004  C 4.1804801920000045 6.8915200000000425  3.898240095999995 7.993600000000015  3.3875198080000075 8.853760000000051  C 2.86336 9.646720000000045  1.8822399040000022 10.305280000000039  0.4307200095999946 10.829440000000034  L 1.1161599039999999 11.904639040000035  C 2.621439903999999 11.367040000000031  3.696639807999986 10.627839040000026  4.3686398079999975 9.673600000000022  C 5.040639615999993 8.638720000000035  5.416959807999987 7.25439904000001  5.470719615999997 5.53408096000004  L 5.470719615999997 5.2921609600000465  L 7.594239999999999 5.2921609600000465  L 7.594239999999999 10.238080000000025  C 7.594239999999999 11.178880960000043  8.05120028799999 11.649280000000033  8.965119904000005 11.649280000000033  L 11.048319039999996 11.649280000000033  C 11.532160000000005 11.649280000000033  11.881600000000006 11.501439040000037  12.12352 11.232640000000032  C 12.365439999999992 10.936960000000028  12.540159040000006 10.049920000000014  12.634239039999997 8.544640000000044  L 11.478399039999985 8.168320000000051  C 11.451520000000002 9.297280000000029  11.370879039999991 9.969280000000026  11.249919999999989 10.197760000000017  C 11.155839999999998 10.39936000000003  11.007999040000001 10.506880000000024  10.806399999999996 10.506880000000024  L 9.327999231999996 10.506880000000024  C 8.991999808000003 10.506880000000024  8.830719615999996 10.318720000000013  8.830719615999996 9.969280000000026  L 8.830719615999996 5.2921609600000465  L 12.432639039999984 5.2921609600000465  L 12.432639039999984 4  Z " fill-rule="nonzero" fill="rgba(255, 255, 255, 1)" stroke="none" transform="matrix(1 0 0 1 1853 202 )" class="fill" />
    <path d="M 11.263359999999992 0.10432038400003307  L 1.8956800959999924 0.10432038400003307  L 1.8956800959999924 1.3408004800000128  L 11.263359999999992 1.3408004800000128  L 11.263359999999992 0.10432038400003307  Z " stroke-width="0" stroke-dasharray="0" stroke="rgba(255, 255, 255, 0)" fill="none" transform="matrix(1 0 0 1 1853 202 )" class="stroke" mask="url(#Clip2044)" />
    <path d="M 12.432639039999984 4  L 0.860800019199999 4  L 0.860800019199999 5.2921609600000465  L 4.23424 5.2921609600000465  L 4.23424 5.53408096000004  C 4.1804801920000045 6.8915200000000425  3.898240095999995 7.993600000000015  3.3875198080000075 8.853760000000051  C 2.86336 9.646720000000045  1.8822399040000022 10.305280000000039  0.4307200095999946 10.829440000000034  L 1.1161599039999999 11.904639040000035  C 2.621439903999999 11.367040000000031  3.696639807999986 10.627839040000026  4.3686398079999975 9.673600000000022  C 5.040639615999993 8.638720000000035  5.416959807999987 7.25439904000001  5.470719615999997 5.53408096000004  L 5.470719615999997 5.2921609600000465  L 7.594239999999999 5.2921609600000465  L 7.594239999999999 10.238080000000025  C 7.594239999999999 11.178880960000043  8.05120028799999 11.649280000000033  8.965119904000005 11.649280000000033  L 11.048319039999996 11.649280000000033  C 11.532160000000005 11.649280000000033  11.881600000000006 11.501439040000037  12.12352 11.232640000000032  C 12.365439999999992 10.936960000000028  12.540159040000006 10.049920000000014  12.634239039999997 8.544640000000044  L 11.478399039999985 8.168320000000051  C 11.451520000000002 9.297280000000029  11.370879039999991 9.969280000000026  11.249919999999989 10.197760000000017  C 11.155839999999998 10.39936000000003  11.007999040000001 10.506880000000024  10.806399999999996 10.506880000000024  L 9.327999231999996 10.506880000000024  C 8.991999808000003 10.506880000000024  8.830719615999996 10.318720000000013  8.830719615999996 9.969280000000026  L 8.830719615999996 5.2921609600000465  L 12.432639039999984 5.2921609600000465  L 12.432639039999984 4  Z " stroke-width="0" stroke-dasharray="0" stroke="rgba(255, 255, 255, 0)" fill="none" transform="matrix(1 0 0 1 1853 202 )" class="stroke" mask="url(#Clip2044)" />
  </g>
</svg>