<?xml version="1.0" encoding="utf-8"?>
<svg version="1.1" xmlns:xlink="http://www.w3.org/1999/xlink" width="50px" height="12px" xmlns="http://www.w3.org/2000/svg">
  <defs>
    <pattern id="BGPattern" patternUnits="userSpaceOnUse" alignment="0 0" imageRepeat="None" />
    <mask fill="white" id="Clip3307">
      <path d="M 6.145599231999995 1.2345593280000173  C 5.581119424000008 0.7641595200000211  4.828479039999991 0.5356796160000101  3.914559327999996 0.5356796160000101  C 3.000639231999969 0.5356796160000101  2.2614389439999627 0.7910394240000187  1.6969589439999595 1.3151999040000533  C 1.1055992319999746 1.8393594240000368  0.75615904 2.565119904000028  0.6755190399999833 3.492480000000029  L 1.7641591359999893 3.492480000000029  C 1.8313590399999955 2.847359616000034  2.046399039999983 2.350080000000048  2.42271923200002 2.0006396160000293  C 2.7855989439999576 1.6511993280000468  3.282879327999979 1.4899200000000121  3.927999231999991 1.4899200000000121  C 4.546239327999956 1.4899200000000121  5.043518944000027 1.6377594240000235  5.392959327999961 1.9603198080000368  C 5.71551923200002 2.255999424000038  5.890239423999958 2.6726399040000217  5.890239423999958 3.2102399040000194  C 5.890239423999958 3.7478398080000375  5.71551923200002 4.1644798080000385  5.379519328000015 4.460159904000022  C 5.043518944000027 4.7424000960000114  4.559679232000008 4.890239904000026  3.914559327999996 4.890239904000026  L 3.1753588479999735 4.890239904000026  L 3.1753588479999735 5.750399808000026  L 3.954879135999988 5.750399808000026  C 4.626878943999998 5.750399808000026  5.137599039999998 5.898240096000023  5.513919231999978 6.220800000000025  C 5.890239423999958 6.543360000000035  6.078399040000022 6.986879904000034  6.078399040000022 7.5648000960000275  C 6.078399040000022 8.129280384000026  5.87679903999998 8.599680000000035  5.500479231999975 8.976000000000028  C 5.0838392320000025 9.365760000000023  4.532799423999961 9.567360000000036  3.8473591359999655 9.567360000000036  C 3.242559040000003 9.567360000000036  2.745279136000022 9.392640000000029  2.3420790399999873 9.070080000000047  C 1.8716790400000036 8.680320000000023  1.6163190400000076 8.102399616000014  1.589438943999994 7.34976009600004  L 0.4739189439999905 7.34976009600004  C 0.554559136000023 8.424960000000027  0.9308790399999792 9.244800000000026  1.6163190400000076 9.80928000000003  C 2.1942390399999567 10.26624000000001  2.933439039999996 10.508160000000032  3.8473591359999655 10.508160000000032  C 4.8419189439999855 10.508160000000032  5.648319135999998 10.225920000000002  6.266559136000012 9.661440000000027  C 6.871359231999976 9.110400000000027  7.180479711999965 8.39808009600003  7.180479711999965 7.524479328000041  C 7.180479711999965 6.960000000000036  7.019198656000015 6.48960019200004  6.6966391359999875 6.113280000000032  C 6.400959039999974 5.7369598080000515  5.97087904 5.468159616000008  5.4063992320000125 5.293439904000024  C 6.454719232000001 4.943999616000042  6.978878752000014 4.218239616000034  6.978878752000014 3.143039712000018  C 6.978878752000014 2.336640000000017  6.6966391359999875 1.7049600000000282  6.145599231999995 1.2345593280000173  Z M 14.478400959999988 2.0543994240000245  C 13.887039999999956 1.0329593280000324  13.026880000000004 0.5356796160000101  11.88447904000003 0.5356796160000101  C 10.728639999999984 0.5356796160000101  9.868479999999977 1.0329593280000324  9.290560000000028 2.0543994240000245  C 8.779839039999956 2.9145598080000354  8.524479327999984 4.070399808000019  8.524479327999984 5.521919904000015  C 8.524479327999984 6.973439904000003  8.779839039999956 8.129280384000026  9.290560000000028 8.98944000000003  C 9.868479999999977 9.997440000000012  10.728639999999984 10.508160000000032  11.88447904000003 10.508160000000032  C 13.026880000000004 10.508160000000032  13.887039999999956 9.997440000000012  14.478400959999988 8.98944000000003  C 14.98911903999999 8.129280384000026  15.244479039999986 6.973439904000003  15.244479039999986 5.521919904000015  C 15.244479039999986 4.070399808000019  14.98911903999999 2.9145598080000354  14.478400959999988 2.0543994240000245  Z M 10.02976000000001 2.860799520000029  C 10.406079040000009 1.9334399040000108  11.024319040000023 1.4764800960000457  11.88447904000003 1.4764800960000457  C 12.74463903999998 1.4764800960000457  13.36287999999996 1.9334399040000108  13.739199999999983 2.860799520000029  C 14.007999040000016 3.5059200000000033  14.155840000000012 4.392959712000049  14.155840000000012 5.521919904000015  C 14.155840000000012 6.6374396160000515  14.007999040000016 7.524479328000041  13.739199999999983 8.183040192000021  C 13.36287999999996 9.096960000000024  12.74463903999998 9.567360000000036  11.88447904000003 9.567360000000036  C 11.024319040000023 9.567360000000036  10.406079040000009 9.096960000000024  10.02976000000001 8.183040192000021  C 9.760959039999989 7.524479328000041  9.626559999999984 6.6374396160000515  9.626559999999984 5.521919904000015  C 9.626559999999984 4.392959712000049  9.760959039999989 3.5059200000000033  10.02976000000001 2.860799520000029  Z M 22.54240096000001 2.0543994240000245  C 21.95104096 1.0329593280000324  21.090880959999993 0.5356796160000101  19.948480959999983 0.5356796160000101  C 18.792640000000006 0.5356796160000101  17.93247999999994 1.0329593280000324  17.35455903999997 2.0543994240000245  C 16.84384 2.9145598080000354  16.58848095999997 4.070399808000019  16.58848095999997 5.521919904000015  C 16.58848095999997 6.973439904000003  16.84384 8.129280384000026  17.35455903999997 8.98944000000003  C 17.93247999999994 9.997440000000012  18.792640000000006 10.508160000000032  19.948480959999983 10.508160000000032  C 21.090880959999993 10.508160000000032  21.95104096 9.997440000000012  22.54240096000001 8.98944000000003  C 23.05311999999998 8.129280384000026  23.308480959999997 6.973439904000003  23.308480959999997 5.521919904000015  C 23.308480959999997 4.070399808000019  23.05311999999998 2.9145598080000354  22.54240096000001 2.0543994240000245  Z M 18.093759999999975 2.860799520000029  C 18.470079999999996 1.9334399040000108  19.088320959999976 1.4764800960000457  19.948480959999983 1.4764800960000457  C 20.80864095999999 1.4764800960000457  21.426879999999983 1.9334399040000108  21.803200000000004 2.860799520000029  C 22.07200095999997 3.5059200000000033  22.219839999999976 4.392959712000049  22.219839999999976 5.521919904000015  C 22.219839999999976 6.6374396160000515  22.07200095999997 7.524479328000041  21.803200000000004 8.183040192000021  C 21.426879999999983 9.096960000000024  20.80864095999999 9.567360000000036  19.948480959999983 9.567360000000036  C 19.088320959999976 9.567360000000036  18.470079999999996 9.096960000000024  18.093759999999975 8.183040192000021  C 17.82496096 7.524479328000041  17.690560000000005 6.6374396160000515  17.690560000000005 5.521919904000015  C 17.690560000000005 4.392959712000049  17.82496096 3.5059200000000033  18.093759999999975 2.860799520000029  Z M 30.606400000000004 2.0543994240000245  C 30.015039039999973 1.0329593280000324  29.15487903999997 0.5356796160000101  28.012479999999982 0.5356796160000101  C 26.856640000000027 0.5356796160000101  25.996480000000023 1.0329593280000324  25.418559039999987 2.0543994240000245  C 24.90783904 2.9145598080000354  24.65247999999997 4.070399808000019  24.65247999999997 5.521919904000015  C 24.65247999999997 6.973439904000003  24.90783904 8.129280384000026  25.418559039999987 8.98944000000003  C 25.996480000000023 9.997440000000012  26.856640000000027 10.508160000000032  28.012479999999982 10.508160000000032  C 29.15487903999997 10.508160000000032  30.015039039999973 9.997440000000012  30.606400000000004 8.98944000000003  C 31.11712191999999 8.129280384000026  31.372479999999943 6.973439904000003  31.372479999999943 5.521919904000015  C 31.372479999999943 4.070399808000019  31.11712191999999 2.9145598080000354  30.606400000000004 2.0543994240000245  Z M 26.157759040000027 2.860799520000029  C 26.534080000000017 1.9334399040000108  27.152320959999997 1.4764800960000457  28.012479999999982 1.4764800960000457  C 28.87263999999999 1.4764800960000457  29.490879039999985 1.9334399040000108  29.867199999999965 2.860799520000029  C 30.135998080000036 3.5059200000000033  30.28383808000001 4.392959712000049  30.28383808000001 5.521919904000015  C 30.28383808000001 6.6374396160000515  30.135998080000036 7.524479328000041  29.867199999999965 8.183040192000021  C 29.490879039999985 9.096960000000024  28.87263999999999 9.567360000000036  28.012479999999982 9.567360000000036  C 27.152320959999997 9.567360000000036  26.534080000000017 9.096960000000024  26.157759040000027 8.183040192000021  C 25.888960959999963 7.524479328000041  25.754559040000004 6.6374396160000515  25.754559040000004 5.521919904000015  C 25.754559040000004 4.392959712000049  25.888960959999963 3.5059200000000033  26.157759040000027 2.860799520000029  Z M 47.82304191999998 0.0921597120000115  L 38.53599808000001 0.0921597120000115  L 38.53599808000001 1.0329593280000324  L 47.82304191999998 1.0329593280000324  L 47.82304191999998 0.0921597120000115  Z M 48.99232096000003 4  L 37.50111903999999 4  L 37.50111903999999 4.984319904000046  L 40.98207904000003 4.984319904000046  L 40.98207904000003 5.18592000000001  C 40.95519903999997 6.650879520000018  40.659519999999986 7.847039808000005  40.12191904000002 8.760959040000046  C 39.54400191999997 9.648000000000053  38.53599808000001 10.346880000000027  37.08448096000001 10.884480000000025  L 37.608639040000014 11.704320000000024  C 39.100480000000005 11.153280000000024  40.17567903999998 10.387200000000036  40.847679039999946 9.406080000000031  C 41.51967999999994 8.34431942400002  41.88255903999999 6.933120096000039  41.922878079999975 5.18592000000001  L 41.922878079999975 4.984319904000046  L 44.34208288000002 4.984319904000046  L 44.34208288000002 10.199040000000025  C 44.34208288000002 11.032320000000027  44.758720960000005 11.448960000000028  45.60544096000001 11.448960000000028  L 47.55423904000003 11.448960000000028  C 48.03808096 11.448960000000028  48.400959039999975 11.301120000000026  48.62943807999994 11.032320000000027  C 48.89824096000001 10.72320000000002  49.07296000000002 9.836160000000035  49.167039999999986 8.37120028800004  L 48.27999999999997 8.08895961600004  C 48.22624000000002 9.298560000000037  48.132160959999965 10.024320000000046  47.97088095999999 10.26624000000001  C 47.86336191999999 10.467840000000024  47.66175903999999 10.575360000000018  47.36608000000001 10.575360000000018  L 45.87423904000002 10.575360000000018  C 45.47104095999998 10.575360000000018  45.28287807999999 10.373760000000033  45.28287807999999 9.997440000000012  L 45.28287807999999 4.984319904000046  L 48.99232096000003 4.984319904000046  L 48.99232096000003 4  Z " fill-rule="evenodd" />
    </mask>
  </defs>
  <g transform="matrix(1 0 0 1 -2042 -278 )">
    <path d="M 6.145599231999995 1.2345593280000173  C 5.581119424000008 0.7641595200000211  4.828479039999991 0.5356796160000101  3.914559327999996 0.5356796160000101  C 3.000639231999969 0.5356796160000101  2.2614389439999627 0.7910394240000187  1.6969589439999595 1.3151999040000533  C 1.1055992319999746 1.8393594240000368  0.75615904 2.565119904000028  0.6755190399999833 3.492480000000029  L 1.7641591359999893 3.492480000000029  C 1.8313590399999955 2.847359616000034  2.046399039999983 2.350080000000048  2.42271923200002 2.0006396160000293  C 2.7855989439999576 1.6511993280000468  3.282879327999979 1.4899200000000121  3.927999231999991 1.4899200000000121  C 4.546239327999956 1.4899200000000121  5.043518944000027 1.6377594240000235  5.392959327999961 1.9603198080000368  C 5.71551923200002 2.255999424000038  5.890239423999958 2.6726399040000217  5.890239423999958 3.2102399040000194  C 5.890239423999958 3.7478398080000375  5.71551923200002 4.1644798080000385  5.379519328000015 4.460159904000022  C 5.043518944000027 4.7424000960000114  4.559679232000008 4.890239904000026  3.914559327999996 4.890239904000026  L 3.1753588479999735 4.890239904000026  L 3.1753588479999735 5.750399808000026  L 3.954879135999988 5.750399808000026  C 4.626878943999998 5.750399808000026  5.137599039999998 5.898240096000023  5.513919231999978 6.220800000000025  C 5.890239423999958 6.543360000000035  6.078399040000022 6.986879904000034  6.078399040000022 7.5648000960000275  C 6.078399040000022 8.129280384000026  5.87679903999998 8.599680000000035  5.500479231999975 8.976000000000028  C 5.0838392320000025 9.365760000000023  4.532799423999961 9.567360000000036  3.8473591359999655 9.567360000000036  C 3.242559040000003 9.567360000000036  2.745279136000022 9.392640000000029  2.3420790399999873 9.070080000000047  C 1.8716790400000036 8.680320000000023  1.6163190400000076 8.102399616000014  1.589438943999994 7.34976009600004  L 0.4739189439999905 7.34976009600004  C 0.554559136000023 8.424960000000027  0.9308790399999792 9.244800000000026  1.6163190400000076 9.80928000000003  C 2.1942390399999567 10.26624000000001  2.933439039999996 10.508160000000032  3.8473591359999655 10.508160000000032  C 4.8419189439999855 10.508160000000032  5.648319135999998 10.225920000000002  6.266559136000012 9.661440000000027  C 6.871359231999976 9.110400000000027  7.180479711999965 8.39808009600003  7.180479711999965 7.524479328000041  C 7.180479711999965 6.960000000000036  7.019198656000015 6.48960019200004  6.6966391359999875 6.113280000000032  C 6.400959039999974 5.7369598080000515  5.97087904 5.468159616000008  5.4063992320000125 5.293439904000024  C 6.454719232000001 4.943999616000042  6.978878752000014 4.218239616000034  6.978878752000014 3.143039712000018  C 6.978878752000014 2.336640000000017  6.6966391359999875 1.7049600000000282  6.145599231999995 1.2345593280000173  Z M 14.478400959999988 2.0543994240000245  C 13.887039999999956 1.0329593280000324  13.026880000000004 0.5356796160000101  11.88447904000003 0.5356796160000101  C 10.728639999999984 0.5356796160000101  9.868479999999977 1.0329593280000324  9.290560000000028 2.0543994240000245  C 8.779839039999956 2.9145598080000354  8.524479327999984 4.070399808000019  8.524479327999984 5.521919904000015  C 8.524479327999984 6.973439904000003  8.779839039999956 8.129280384000026  9.290560000000028 8.98944000000003  C 9.868479999999977 9.997440000000012  10.728639999999984 10.508160000000032  11.88447904000003 10.508160000000032  C 13.026880000000004 10.508160000000032  13.887039999999956 9.997440000000012  14.478400959999988 8.98944000000003  C 14.98911903999999 8.129280384000026  15.244479039999986 6.973439904000003  15.244479039999986 5.521919904000015  C 15.244479039999986 4.070399808000019  14.98911903999999 2.9145598080000354  14.478400959999988 2.0543994240000245  Z M 10.02976000000001 2.860799520000029  C 10.406079040000009 1.9334399040000108  11.024319040000023 1.4764800960000457  11.88447904000003 1.4764800960000457  C 12.74463903999998 1.4764800960000457  13.36287999999996 1.9334399040000108  13.739199999999983 2.860799520000029  C 14.007999040000016 3.5059200000000033  14.155840000000012 4.392959712000049  14.155840000000012 5.521919904000015  C 14.155840000000012 6.6374396160000515  14.007999040000016 7.524479328000041  13.739199999999983 8.183040192000021  C 13.36287999999996 9.096960000000024  12.74463903999998 9.567360000000036  11.88447904000003 9.567360000000036  C 11.024319040000023 9.567360000000036  10.406079040000009 9.096960000000024  10.02976000000001 8.183040192000021  C 9.760959039999989 7.524479328000041  9.626559999999984 6.6374396160000515  9.626559999999984 5.521919904000015  C 9.626559999999984 4.392959712000049  9.760959039999989 3.5059200000000033  10.02976000000001 2.860799520000029  Z M 22.54240096000001 2.0543994240000245  C 21.95104096 1.0329593280000324  21.090880959999993 0.5356796160000101  19.948480959999983 0.5356796160000101  C 18.792640000000006 0.5356796160000101  17.93247999999994 1.0329593280000324  17.35455903999997 2.0543994240000245  C 16.84384 2.9145598080000354  16.58848095999997 4.070399808000019  16.58848095999997 5.521919904000015  C 16.58848095999997 6.973439904000003  16.84384 8.129280384000026  17.35455903999997 8.98944000000003  C 17.93247999999994 9.997440000000012  18.792640000000006 10.508160000000032  19.948480959999983 10.508160000000032  C 21.090880959999993 10.508160000000032  21.95104096 9.997440000000012  22.54240096000001 8.98944000000003  C 23.05311999999998 8.129280384000026  23.308480959999997 6.973439904000003  23.308480959999997 5.521919904000015  C 23.308480959999997 4.070399808000019  23.05311999999998 2.9145598080000354  22.54240096000001 2.0543994240000245  Z M 18.093759999999975 2.860799520000029  C 18.470079999999996 1.9334399040000108  19.088320959999976 1.4764800960000457  19.948480959999983 1.4764800960000457  C 20.80864095999999 1.4764800960000457  21.426879999999983 1.9334399040000108  21.803200000000004 2.860799520000029  C 22.07200095999997 3.5059200000000033  22.219839999999976 4.392959712000049  22.219839999999976 5.521919904000015  C 22.219839999999976 6.6374396160000515  22.07200095999997 7.524479328000041  21.803200000000004 8.183040192000021  C 21.426879999999983 9.096960000000024  20.80864095999999 9.567360000000036  19.948480959999983 9.567360000000036  C 19.088320959999976 9.567360000000036  18.470079999999996 9.096960000000024  18.093759999999975 8.183040192000021  C 17.82496096 7.524479328000041  17.690560000000005 6.6374396160000515  17.690560000000005 5.521919904000015  C 17.690560000000005 4.392959712000049  17.82496096 3.5059200000000033  18.093759999999975 2.860799520000029  Z M 30.606400000000004 2.0543994240000245  C 30.015039039999973 1.0329593280000324  29.15487903999997 0.5356796160000101  28.012479999999982 0.5356796160000101  C 26.856640000000027 0.5356796160000101  25.996480000000023 1.0329593280000324  25.418559039999987 2.0543994240000245  C 24.90783904 2.9145598080000354  24.65247999999997 4.070399808000019  24.65247999999997 5.521919904000015  C 24.65247999999997 6.973439904000003  24.90783904 8.129280384000026  25.418559039999987 8.98944000000003  C 25.996480000000023 9.997440000000012  26.856640000000027 10.508160000000032  28.012479999999982 10.508160000000032  C 29.15487903999997 10.508160000000032  30.015039039999973 9.997440000000012  30.606400000000004 8.98944000000003  C 31.11712191999999 8.129280384000026  31.372479999999943 6.973439904000003  31.372479999999943 5.521919904000015  C 31.372479999999943 4.070399808000019  31.11712191999999 2.9145598080000354  30.606400000000004 2.0543994240000245  Z M 26.157759040000027 2.860799520000029  C 26.534080000000017 1.9334399040000108  27.152320959999997 1.4764800960000457  28.012479999999982 1.4764800960000457  C 28.87263999999999 1.4764800960000457  29.490879039999985 1.9334399040000108  29.867199999999965 2.860799520000029  C 30.135998080000036 3.5059200000000033  30.28383808000001 4.392959712000049  30.28383808000001 5.521919904000015  C 30.28383808000001 6.6374396160000515  30.135998080000036 7.524479328000041  29.867199999999965 8.183040192000021  C 29.490879039999985 9.096960000000024  28.87263999999999 9.567360000000036  28.012479999999982 9.567360000000036  C 27.152320959999997 9.567360000000036  26.534080000000017 9.096960000000024  26.157759040000027 8.183040192000021  C 25.888960959999963 7.524479328000041  25.754559040000004 6.6374396160000515  25.754559040000004 5.521919904000015  C 25.754559040000004 4.392959712000049  25.888960959999963 3.5059200000000033  26.157759040000027 2.860799520000029  Z M 47.82304191999998 0.0921597120000115  L 38.53599808000001 0.0921597120000115  L 38.53599808000001 1.0329593280000324  L 47.82304191999998 1.0329593280000324  L 47.82304191999998 0.0921597120000115  Z M 48.99232096000003 4  L 37.50111903999999 4  L 37.50111903999999 4.984319904000046  L 40.98207904000003 4.984319904000046  L 40.98207904000003 5.18592000000001  C 40.95519903999997 6.650879520000018  40.659519999999986 7.847039808000005  40.12191904000002 8.760959040000046  C 39.54400191999997 9.648000000000053  38.53599808000001 10.346880000000027  37.08448096000001 10.884480000000025  L 37.608639040000014 11.704320000000024  C 39.100480000000005 11.153280000000024  40.17567903999998 10.387200000000036  40.847679039999946 9.406080000000031  C 41.51967999999994 8.34431942400002  41.88255903999999 6.933120096000039  41.922878079999975 5.18592000000001  L 41.922878079999975 4.984319904000046  L 44.34208288000002 4.984319904000046  L 44.34208288000002 10.199040000000025  C 44.34208288000002 11.032320000000027  44.758720960000005 11.448960000000028  45.60544096000001 11.448960000000028  L 47.55423904000003 11.448960000000028  C 48.03808096 11.448960000000028  48.400959039999975 11.301120000000026  48.62943807999994 11.032320000000027  C 48.89824096000001 10.72320000000002  49.07296000000002 9.836160000000035  49.167039999999986 8.37120028800004  L 48.27999999999997 8.08895961600004  C 48.22624000000002 9.298560000000037  48.132160959999965 10.024320000000046  47.97088095999999 10.26624000000001  C 47.86336191999999 10.467840000000024  47.66175903999999 10.575360000000018  47.36608000000001 10.575360000000018  L 45.87423904000002 10.575360000000018  C 45.47104095999998 10.575360000000018  45.28287807999999 10.373760000000033  45.28287807999999 9.997440000000012  L 45.28287807999999 4.984319904000046  L 48.99232096000003 4.984319904000046  L 48.99232096000003 4  Z " fill-rule="nonzero" fill="rgba(51, 51, 51, 1)" stroke="none" transform="matrix(1 0 0 1 2042 278 )" class="fill" />
    <path d="M 6.145599231999995 1.2345593280000173  C 5.581119424000008 0.7641595200000211  4.828479039999991 0.5356796160000101  3.914559327999996 0.5356796160000101  C 3.000639231999969 0.5356796160000101  2.2614389439999627 0.7910394240000187  1.6969589439999595 1.3151999040000533  C 1.1055992319999746 1.8393594240000368  0.75615904 2.565119904000028  0.6755190399999833 3.492480000000029  L 1.7641591359999893 3.492480000000029  C 1.8313590399999955 2.847359616000034  2.046399039999983 2.350080000000048  2.42271923200002 2.0006396160000293  C 2.7855989439999576 1.6511993280000468  3.282879327999979 1.4899200000000121  3.927999231999991 1.4899200000000121  C 4.546239327999956 1.4899200000000121  5.043518944000027 1.6377594240000235  5.392959327999961 1.9603198080000368  C 5.71551923200002 2.255999424000038  5.890239423999958 2.6726399040000217  5.890239423999958 3.2102399040000194  C 5.890239423999958 3.7478398080000375  5.71551923200002 4.1644798080000385  5.379519328000015 4.460159904000022  C 5.043518944000027 4.7424000960000114  4.559679232000008 4.890239904000026  3.914559327999996 4.890239904000026  L 3.1753588479999735 4.890239904000026  L 3.1753588479999735 5.750399808000026  L 3.954879135999988 5.750399808000026  C 4.626878943999998 5.750399808000026  5.137599039999998 5.898240096000023  5.513919231999978 6.220800000000025  C 5.890239423999958 6.543360000000035  6.078399040000022 6.986879904000034  6.078399040000022 7.5648000960000275  C 6.078399040000022 8.129280384000026  5.87679903999998 8.599680000000035  5.500479231999975 8.976000000000028  C 5.0838392320000025 9.365760000000023  4.532799423999961 9.567360000000036  3.8473591359999655 9.567360000000036  C 3.242559040000003 9.567360000000036  2.745279136000022 9.392640000000029  2.3420790399999873 9.070080000000047  C 1.8716790400000036 8.680320000000023  1.6163190400000076 8.102399616000014  1.589438943999994 7.34976009600004  L 0.4739189439999905 7.34976009600004  C 0.554559136000023 8.424960000000027  0.9308790399999792 9.244800000000026  1.6163190400000076 9.80928000000003  C 2.1942390399999567 10.26624000000001  2.933439039999996 10.508160000000032  3.8473591359999655 10.508160000000032  C 4.8419189439999855 10.508160000000032  5.648319135999998 10.225920000000002  6.266559136000012 9.661440000000027  C 6.871359231999976 9.110400000000027  7.180479711999965 8.39808009600003  7.180479711999965 7.524479328000041  C 7.180479711999965 6.960000000000036  7.019198656000015 6.48960019200004  6.6966391359999875 6.113280000000032  C 6.400959039999974 5.7369598080000515  5.97087904 5.468159616000008  5.4063992320000125 5.293439904000024  C 6.454719232000001 4.943999616000042  6.978878752000014 4.218239616000034  6.978878752000014 3.143039712000018  C 6.978878752000014 2.336640000000017  6.6966391359999875 1.7049600000000282  6.145599231999995 1.2345593280000173  Z " stroke-width="0" stroke-dasharray="0" stroke="rgba(255, 255, 255, 0)" fill="none" transform="matrix(1 0 0 1 2042 278 )" class="stroke" mask="url(#Clip3307)" />
    <path d="M 14.478400959999988 2.0543994240000245  C 13.887039999999956 1.0329593280000324  13.026880000000004 0.5356796160000101  11.88447904000003 0.5356796160000101  C 10.728639999999984 0.5356796160000101  9.868479999999977 1.0329593280000324  9.290560000000028 2.0543994240000245  C 8.779839039999956 2.9145598080000354  8.524479327999984 4.070399808000019  8.524479327999984 5.521919904000015  C 8.524479327999984 6.973439904000003  8.779839039999956 8.129280384000026  9.290560000000028 8.98944000000003  C 9.868479999999977 9.997440000000012  10.728639999999984 10.508160000000032  11.88447904000003 10.508160000000032  C 13.026880000000004 10.508160000000032  13.887039999999956 9.997440000000012  14.478400959999988 8.98944000000003  C 14.98911903999999 8.129280384000026  15.244479039999986 6.973439904000003  15.244479039999986 5.521919904000015  C 15.244479039999986 4.070399808000019  14.98911903999999 2.9145598080000354  14.478400959999988 2.0543994240000245  Z " stroke-width="0" stroke-dasharray="0" stroke="rgba(255, 255, 255, 0)" fill="none" transform="matrix(1 0 0 1 2042 278 )" class="stroke" mask="url(#Clip3307)" />
    <path d="M 10.02976000000001 2.860799520000029  C 10.406079040000009 1.9334399040000108  11.024319040000023 1.4764800960000457  11.88447904000003 1.4764800960000457  C 12.74463903999998 1.4764800960000457  13.36287999999996 1.9334399040000108  13.739199999999983 2.860799520000029  C 14.007999040000016 3.5059200000000033  14.155840000000012 4.392959712000049  14.155840000000012 5.521919904000015  C 14.155840000000012 6.6374396160000515  14.007999040000016 7.524479328000041  13.739199999999983 8.183040192000021  C 13.36287999999996 9.096960000000024  12.74463903999998 9.567360000000036  11.88447904000003 9.567360000000036  C 11.024319040000023 9.567360000000036  10.406079040000009 9.096960000000024  10.02976000000001 8.183040192000021  C 9.760959039999989 7.524479328000041  9.626559999999984 6.6374396160000515  9.626559999999984 5.521919904000015  C 9.626559999999984 4.392959712000049  9.760959039999989 3.5059200000000033  10.02976000000001 2.860799520000029  Z " stroke-width="0" stroke-dasharray="0" stroke="rgba(255, 255, 255, 0)" fill="none" transform="matrix(1 0 0 1 2042 278 )" class="stroke" mask="url(#Clip3307)" />
    <path d="M 22.54240096000001 2.0543994240000245  C 21.95104096 1.0329593280000324  21.090880959999993 0.5356796160000101  19.948480959999983 0.5356796160000101  C 18.792640000000006 0.5356796160000101  17.93247999999994 1.0329593280000324  17.35455903999997 2.0543994240000245  C 16.84384 2.9145598080000354  16.58848095999997 4.070399808000019  16.58848095999997 5.521919904000015  C 16.58848095999997 6.973439904000003  16.84384 8.129280384000026  17.35455903999997 8.98944000000003  C 17.93247999999994 9.997440000000012  18.792640000000006 10.508160000000032  19.948480959999983 10.508160000000032  C 21.090880959999993 10.508160000000032  21.95104096 9.997440000000012  22.54240096000001 8.98944000000003  C 23.05311999999998 8.129280384000026  23.308480959999997 6.973439904000003  23.308480959999997 5.521919904000015  C 23.308480959999997 4.070399808000019  23.05311999999998 2.9145598080000354  22.54240096000001 2.0543994240000245  Z " stroke-width="0" stroke-dasharray="0" stroke="rgba(255, 255, 255, 0)" fill="none" transform="matrix(1 0 0 1 2042 278 )" class="stroke" mask="url(#Clip3307)" />
    <path d="M 18.093759999999975 2.860799520000029  C 18.470079999999996 1.9334399040000108  19.088320959999976 1.4764800960000457  19.948480959999983 1.4764800960000457  C 20.80864095999999 1.4764800960000457  21.426879999999983 1.9334399040000108  21.803200000000004 2.860799520000029  C 22.07200095999997 3.5059200000000033  22.219839999999976 4.392959712000049  22.219839999999976 5.521919904000015  C 22.219839999999976 6.6374396160000515  22.07200095999997 7.524479328000041  21.803200000000004 8.183040192000021  C 21.426879999999983 9.096960000000024  20.80864095999999 9.567360000000036  19.948480959999983 9.567360000000036  C 19.088320959999976 9.567360000000036  18.470079999999996 9.096960000000024  18.093759999999975 8.183040192000021  C 17.82496096 7.524479328000041  17.690560000000005 6.6374396160000515  17.690560000000005 5.521919904000015  C 17.690560000000005 4.392959712000049  17.82496096 3.5059200000000033  18.093759999999975 2.860799520000029  Z " stroke-width="0" stroke-dasharray="0" stroke="rgba(255, 255, 255, 0)" fill="none" transform="matrix(1 0 0 1 2042 278 )" class="stroke" mask="url(#Clip3307)" />
    <path d="M 30.606400000000004 2.0543994240000245  C 30.015039039999973 1.0329593280000324  29.15487903999997 0.5356796160000101  28.012479999999982 0.5356796160000101  C 26.856640000000027 0.5356796160000101  25.996480000000023 1.0329593280000324  25.418559039999987 2.0543994240000245  C 24.90783904 2.9145598080000354  24.65247999999997 4.070399808000019  24.65247999999997 5.521919904000015  C 24.65247999999997 6.973439904000003  24.90783904 8.129280384000026  25.418559039999987 8.98944000000003  C 25.996480000000023 9.997440000000012  26.856640000000027 10.508160000000032  28.012479999999982 10.508160000000032  C 29.15487903999997 10.508160000000032  30.015039039999973 9.997440000000012  30.606400000000004 8.98944000000003  C 31.11712191999999 8.129280384000026  31.372479999999943 6.973439904000003  31.372479999999943 5.521919904000015  C 31.372479999999943 4.070399808000019  31.11712191999999 2.9145598080000354  30.606400000000004 2.0543994240000245  Z " stroke-width="0" stroke-dasharray="0" stroke="rgba(255, 255, 255, 0)" fill="none" transform="matrix(1 0 0 1 2042 278 )" class="stroke" mask="url(#Clip3307)" />
    <path d="M 26.157759040000027 2.860799520000029  C 26.534080000000017 1.9334399040000108  27.152320959999997 1.4764800960000457  28.012479999999982 1.4764800960000457  C 28.87263999999999 1.4764800960000457  29.490879039999985 1.9334399040000108  29.867199999999965 2.860799520000029  C 30.135998080000036 3.5059200000000033  30.28383808000001 4.392959712000049  30.28383808000001 5.521919904000015  C 30.28383808000001 6.6374396160000515  30.135998080000036 7.524479328000041  29.867199999999965 8.183040192000021  C 29.490879039999985 9.096960000000024  28.87263999999999 9.567360000000036  28.012479999999982 9.567360000000036  C 27.152320959999997 9.567360000000036  26.534080000000017 9.096960000000024  26.157759040000027 8.183040192000021  C 25.888960959999963 7.524479328000041  25.754559040000004 6.6374396160000515  25.754559040000004 5.521919904000015  C 25.754559040000004 4.392959712000049  25.888960959999963 3.5059200000000033  26.157759040000027 2.860799520000029  Z " stroke-width="0" stroke-dasharray="0" stroke="rgba(255, 255, 255, 0)" fill="none" transform="matrix(1 0 0 1 2042 278 )" class="stroke" mask="url(#Clip3307)" />
    <path d="M 47.82304191999998 0.0921597120000115  L 38.53599808000001 0.0921597120000115  L 38.53599808000001 1.0329593280000324  L 47.82304191999998 1.0329593280000324  L 47.82304191999998 0.0921597120000115  Z " stroke-width="0" stroke-dasharray="0" stroke="rgba(255, 255, 255, 0)" fill="none" transform="matrix(1 0 0 1 2042 278 )" class="stroke" mask="url(#Clip3307)" />
    <path d="M 48.99232096000003 4  L 37.50111903999999 4  L 37.50111903999999 4.984319904000046  L 40.98207904000003 4.984319904000046  L 40.98207904000003 5.18592000000001  C 40.95519903999997 6.650879520000018  40.659519999999986 7.847039808000005  40.12191904000002 8.760959040000046  C 39.54400191999997 9.648000000000053  38.53599808000001 10.346880000000027  37.08448096000001 10.884480000000025  L 37.608639040000014 11.704320000000024  C 39.100480000000005 11.153280000000024  40.17567903999998 10.387200000000036  40.847679039999946 9.406080000000031  C 41.51967999999994 8.34431942400002  41.88255903999999 6.933120096000039  41.922878079999975 5.18592000000001  L 41.922878079999975 4.984319904000046  L 44.34208288000002 4.984319904000046  L 44.34208288000002 10.199040000000025  C 44.34208288000002 11.032320000000027  44.758720960000005 11.448960000000028  45.60544096000001 11.448960000000028  L 47.55423904000003 11.448960000000028  C 48.03808096 11.448960000000028  48.400959039999975 11.301120000000026  48.62943807999994 11.032320000000027  C 48.89824096000001 10.72320000000002  49.07296000000002 9.836160000000035  49.167039999999986 8.37120028800004  L 48.27999999999997 8.08895961600004  C 48.22624000000002 9.298560000000037  48.132160959999965 10.024320000000046  47.97088095999999 10.26624000000001  C 47.86336191999999 10.467840000000024  47.66175903999999 10.575360000000018  47.36608000000001 10.575360000000018  L 45.87423904000002 10.575360000000018  C 45.47104095999998 10.575360000000018  45.28287807999999 10.373760000000033  45.28287807999999 9.997440000000012  L 45.28287807999999 4.984319904000046  L 48.99232096000003 4.984319904000046  L 48.99232096000003 4  Z " stroke-width="0" stroke-dasharray="0" stroke="rgba(255, 255, 255, 0)" fill="none" transform="matrix(1 0 0 1 2042 278 )" class="stroke" mask="url(#Clip3307)" />
  </g>
</svg>