<?xml version="1.0" encoding="utf-8"?>
<svg version="1.1" xmlns:xlink="http://www.w3.org/1999/xlink" width="32px" height="11px" xmlns="http://www.w3.org/2000/svg">
  <defs>
    <pattern id="BGPattern" patternUnits="userSpaceOnUse" alignment="0 0" imageRepeat="None" />
    <mask fill="white" id="Clip19769">
      <path d="M 2.0854399999999913 5.512320096000026  L 8.632640383999998 5.512320096000026  L 8.632640383999998 1.077119750400044  L 0.6387200191999938 1.077119750400044  L 0.6387200191999938 2.03808009600003  L 7.608319999999992 2.03808009600003  L 7.608319999999992 4.551360192000033  L 2.0854399999999913 4.551360192000033  L 2.0854399999999913 3.1046401920000335  L 1.0716800000000006 3.1046401920000335  L 1.0716800000000006 8.595840480000035  C 1.0716800000000006 9.525119904000036  1.5152000000000072 9.989760096000026  2.412800095999998 9.989760096000026  L 8.241919904 9.989760096000026  C 8.674880095999995 9.968639808000034  9.012800287999994 9.841919904000036  9.266240191999998 9.609600192000045  C 9.488 9.366720000000043  9.667519999999996 8.574720192000044  9.794239039999994 7.2441600000000355  L 8.812159711999996 6.927360096000029  C 8.748799712000007 8.036160288000033  8.643200095999987 8.669760096000033  8.474239519999998 8.828160096000019  C 8.326400192000008 8.954880096000025  8.146879903999988 9.018240096000028  7.9567999040000075 9.018240096000028  L 2.687360095999992 9.018240096000028  C 2.286080095999992 9.018240096000028  2.0854399999999913 8.817600384000045  2.0854399999999913 8.416320192000029  L 2.0854399999999913 5.512320096000026  Z M 16.278080959999997 9.324480288000032  L 16.278080959999997 8.331839904000034  C 15.59168095999999 8.479680192000032  14.894719999999992 8.627519520000035  14.18719999999999 8.754240384000042  L 14.18719999999999 7.180800000000033  L 15.971840959999994 7.180800000000033  L 15.971840959999994 6.219840096000041  L 14.18719999999999 6.219840096000041  L 14.18719999999999 5.100480192000035  L 13.173439999999985 5.100480192000035  L 13.173439999999985 6.219840096000041  L 11.21983999999999 6.219840096000041  L 11.21983999999999 7.180800000000033  L 13.173439999999985 7.180800000000033  L 13.173439999999985 8.92320009600003  C 12.381439999999984 9.039360384000034  11.578879999999984 9.144960000000026  10.76576 9.229440288000035  L 10.998080000000002 10.190399808000024  C 12.877759999999995 9.958080096000032  14.630719999999997 9.66239961600003  16.278080959999997 9.324480288000032  Z M 16.23584000000001 0.9609603840000318  L 10.924159999999986 0.9609603840000318  L 10.924159999999986 1.911360192000032  L 12.50815999999999 1.911360192000032  C 11.937920000000005 3.0307200960000387  11.48384 3.738240096000027  11.145920000000004 4.023360000000039  C 11.06143999999999 4.065600096000026  10.924159999999986 4.097280096000034  10.755200000000002 4.118400000000037  L 10.976959999999991 5.01599990400004  C 12.52928 4.8575999040000255  13.965440000000001 4.656959808000025  15.295999999999992 4.414080000000027  C 15.443839999999994 4.688639808000033  15.59168095999999 4.952639904000037  15.728960959999995 5.2060799040000205  L 16.563199999999995 4.62527980800003  C 16.19359999999999 3.9388801920000276  15.655039039999991 3.1363201920000283  14.958079999999995 2.20704028800003  L 14.18719999999999 2.703360000000032  C 14.419519999999991 3.0307200960000387  14.630719999999997 3.3580800960000374  14.841919999999988 3.674880096000024  C 14.028800000000004 3.812160192000036  13.205119999999994 3.928320000000028  12.360320000000002 4.0127998080000395  C 12.729919999999993 3.5164800960000377  13.14175999999999 2.819520288000021  13.585279999999997 1.911360192000032  L 16.23584000000001 1.911360192000032  L 16.23584000000001 0.9609603840000318  Z M 17.418560959999994 10.232640000000032  L 18.981439039999998 10.232640000000032  C 19.68895904 10.232640000000032  20.047999039999993 9.873599808000023  20.047999039999993 9.155519712000029  L 20.047999039999993 0.6124804684800296  L 19.034239040000003 0.6124804684800296  L 19.034239040000003 8.902079808000025  C 19.034239040000003 9.176640000000035  18.896959999999993 9.313919712000029  18.632959999999983 9.313919712000029  C 18.17888096 9.313919712000029  17.703680000000006 9.292800288000038  17.196799999999996 9.26112028800003  L 17.418560959999994 10.232640000000032  Z M 17.946560000000005 1.5628802880000308  L 16.975039039999984 1.5628802880000308  L 16.975039039999984 8.036160288000033  L 17.946560000000005 8.036160288000033  L 17.946560000000005 1.5628802880000308  Z M 25.42304 7.666560096000026  L 25.42304 0.9398400864000394  L 21.600319999999996 0.9398400864000394  L 21.600319999999996 7.666560096000026  L 22.50848096 7.666560096000026  L 22.50848096 1.858559904000032  L 24.54656 1.858559904000032  L 24.54656 7.666560096000026  L 25.42304 7.666560096000026  Z M 23.934079999999994 2.523840192000037  L 23.089280000000002 2.523840192000037  L 23.089280000000002 5.976959808000032  C 23.05759904 6.885119904000035  22.920320000000004 7.624319904000032  22.687999039999994 8.194560288000034  C 22.434559039999996 8.722560384000033  21.95935999999999 9.166080288000032  21.272959999999983 9.514560288000027  L 21.811519039999993 10.359360000000024  C 22.54016 10.000319808000029  23.068159039999998 9.482880288000032  23.39552096 8.817600384000045  C 23.733439999999987 8.110080000000039  23.912959999999984 7.159680192000038  23.934079999999994 5.976959808000032  L 23.934079999999994 2.523840192000037  Z M 25.69759904 9.55679990400003  C 25.31743999999999 9.018240096000028  24.86336 8.479680192000032  24.314239040000004 7.93056019200003  L 23.680639999999997 8.55359980800003  C 24.240319999999997 9.166080288000032  24.67327999999999 9.736320192000036  24.979519999999994 10.274880000000039  L 25.69759904 9.55679990400003  Z M 27.418880959999996 5.839680192000031  L 28.189760000000007 5.839680192000031  C 28.686080000000004 7.76160000000003  29.414719039999994 9.229440288000035  30.365120959999985 10.232640000000032  L 31.040959040000004 9.451200288000024  C 30.185600959999988 8.606400192000038  29.520319999999998 7.402560000000037  29.04512095999999 5.839680192000031  L 30.82975807999999 5.839680192000031  L 30.82975807999999 4.8681600960000395  L 27.418880959999996 4.8681600960000395  L 27.418880959999996 0.5913601684800369  L 26.43679999999999 0.5913601684800369  L 26.43679999999999 4.8681600960000395  L 25.760959040000003 4.8681600960000395  L 25.760959040000003 5.839680192000031  L 26.43679999999999 5.839680192000031  L 26.43679999999999 9.028799712000037  C 26.43679999999999 9.197760288000026  26.34175904 9.335040000000035  26.172799999999995 9.430080000000046  L 26.58464096 10.317120000000031  C 27.450559999999996 10.04256038400004  28.210879039999995 9.704640192000028  28.876159999999985 9.292800288000038  L 28.696639999999988 8.395199904000023  C 28.274239039999998 8.669760096000033  27.84127903999999 8.891520096000022  27.418880959999996 9.060479712000046  L 27.418880959999996 5.839680192000031  Z M 30.692480000000003 1.6579201920000344  L 29.92159903999999 1.0348800672000351  C 29.266879999999986 2.14367980800003  28.495999999999995 2.9779201920000418  27.58783903999999 3.5270402880000375  L 28.126400000000004 4.297920192000035  C 29.10847903999999 3.727679904000041  29.963840000000005 2.8406400960000298  30.692480000000003 1.6579201920000344  Z " fill-rule="evenodd" />
    </mask>
  </defs>
  <g transform="matrix(1 0 0 1 -2052 -181 )">
    <path d="M 2.0854399999999913 5.512320096000026  L 8.632640383999998 5.512320096000026  L 8.632640383999998 1.077119750400044  L 0.6387200191999938 1.077119750400044  L 0.6387200191999938 2.03808009600003  L 7.608319999999992 2.03808009600003  L 7.608319999999992 4.551360192000033  L 2.0854399999999913 4.551360192000033  L 2.0854399999999913 3.1046401920000335  L 1.0716800000000006 3.1046401920000335  L 1.0716800000000006 8.595840480000035  C 1.0716800000000006 9.525119904000036  1.5152000000000072 9.989760096000026  2.412800095999998 9.989760096000026  L 8.241919904 9.989760096000026  C 8.674880095999995 9.968639808000034  9.012800287999994 9.841919904000036  9.266240191999998 9.609600192000045  C 9.488 9.366720000000043  9.667519999999996 8.574720192000044  9.794239039999994 7.2441600000000355  L 8.812159711999996 6.927360096000029  C 8.748799712000007 8.036160288000033  8.643200095999987 8.669760096000033  8.474239519999998 8.828160096000019  C 8.326400192000008 8.954880096000025  8.146879903999988 9.018240096000028  7.9567999040000075 9.018240096000028  L 2.687360095999992 9.018240096000028  C 2.286080095999992 9.018240096000028  2.0854399999999913 8.817600384000045  2.0854399999999913 8.416320192000029  L 2.0854399999999913 5.512320096000026  Z M 16.278080959999997 9.324480288000032  L 16.278080959999997 8.331839904000034  C 15.59168095999999 8.479680192000032  14.894719999999992 8.627519520000035  14.18719999999999 8.754240384000042  L 14.18719999999999 7.180800000000033  L 15.971840959999994 7.180800000000033  L 15.971840959999994 6.219840096000041  L 14.18719999999999 6.219840096000041  L 14.18719999999999 5.100480192000035  L 13.173439999999985 5.100480192000035  L 13.173439999999985 6.219840096000041  L 11.21983999999999 6.219840096000041  L 11.21983999999999 7.180800000000033  L 13.173439999999985 7.180800000000033  L 13.173439999999985 8.92320009600003  C 12.381439999999984 9.039360384000034  11.578879999999984 9.144960000000026  10.76576 9.229440288000035  L 10.998080000000002 10.190399808000024  C 12.877759999999995 9.958080096000032  14.630719999999997 9.66239961600003  16.278080959999997 9.324480288000032  Z M 16.23584000000001 0.9609603840000318  L 10.924159999999986 0.9609603840000318  L 10.924159999999986 1.911360192000032  L 12.50815999999999 1.911360192000032  C 11.937920000000005 3.0307200960000387  11.48384 3.738240096000027  11.145920000000004 4.023360000000039  C 11.06143999999999 4.065600096000026  10.924159999999986 4.097280096000034  10.755200000000002 4.118400000000037  L 10.976959999999991 5.01599990400004  C 12.52928 4.8575999040000255  13.965440000000001 4.656959808000025  15.295999999999992 4.414080000000027  C 15.443839999999994 4.688639808000033  15.59168095999999 4.952639904000037  15.728960959999995 5.2060799040000205  L 16.563199999999995 4.62527980800003  C 16.19359999999999 3.9388801920000276  15.655039039999991 3.1363201920000283  14.958079999999995 2.20704028800003  L 14.18719999999999 2.703360000000032  C 14.419519999999991 3.0307200960000387  14.630719999999997 3.3580800960000374  14.841919999999988 3.674880096000024  C 14.028800000000004 3.812160192000036  13.205119999999994 3.928320000000028  12.360320000000002 4.0127998080000395  C 12.729919999999993 3.5164800960000377  13.14175999999999 2.819520288000021  13.585279999999997 1.911360192000032  L 16.23584000000001 1.911360192000032  L 16.23584000000001 0.9609603840000318  Z M 17.418560959999994 10.232640000000032  L 18.981439039999998 10.232640000000032  C 19.68895904 10.232640000000032  20.047999039999993 9.873599808000023  20.047999039999993 9.155519712000029  L 20.047999039999993 0.6124804684800296  L 19.034239040000003 0.6124804684800296  L 19.034239040000003 8.902079808000025  C 19.034239040000003 9.176640000000035  18.896959999999993 9.313919712000029  18.632959999999983 9.313919712000029  C 18.17888096 9.313919712000029  17.703680000000006 9.292800288000038  17.196799999999996 9.26112028800003  L 17.418560959999994 10.232640000000032  Z M 17.946560000000005 1.5628802880000308  L 16.975039039999984 1.5628802880000308  L 16.975039039999984 8.036160288000033  L 17.946560000000005 8.036160288000033  L 17.946560000000005 1.5628802880000308  Z M 25.42304 7.666560096000026  L 25.42304 0.9398400864000394  L 21.600319999999996 0.9398400864000394  L 21.600319999999996 7.666560096000026  L 22.50848096 7.666560096000026  L 22.50848096 1.858559904000032  L 24.54656 1.858559904000032  L 24.54656 7.666560096000026  L 25.42304 7.666560096000026  Z M 23.934079999999994 2.523840192000037  L 23.089280000000002 2.523840192000037  L 23.089280000000002 5.976959808000032  C 23.05759904 6.885119904000035  22.920320000000004 7.624319904000032  22.687999039999994 8.194560288000034  C 22.434559039999996 8.722560384000033  21.95935999999999 9.166080288000032  21.272959999999983 9.514560288000027  L 21.811519039999993 10.359360000000024  C 22.54016 10.000319808000029  23.068159039999998 9.482880288000032  23.39552096 8.817600384000045  C 23.733439999999987 8.110080000000039  23.912959999999984 7.159680192000038  23.934079999999994 5.976959808000032  L 23.934079999999994 2.523840192000037  Z M 25.69759904 9.55679990400003  C 25.31743999999999 9.018240096000028  24.86336 8.479680192000032  24.314239040000004 7.93056019200003  L 23.680639999999997 8.55359980800003  C 24.240319999999997 9.166080288000032  24.67327999999999 9.736320192000036  24.979519999999994 10.274880000000039  L 25.69759904 9.55679990400003  Z M 27.418880959999996 5.839680192000031  L 28.189760000000007 5.839680192000031  C 28.686080000000004 7.76160000000003  29.414719039999994 9.229440288000035  30.365120959999985 10.232640000000032  L 31.040959040000004 9.451200288000024  C 30.185600959999988 8.606400192000038  29.520319999999998 7.402560000000037  29.04512095999999 5.839680192000031  L 30.82975807999999 5.839680192000031  L 30.82975807999999 4.8681600960000395  L 27.418880959999996 4.8681600960000395  L 27.418880959999996 0.5913601684800369  L 26.43679999999999 0.5913601684800369  L 26.43679999999999 4.8681600960000395  L 25.760959040000003 4.8681600960000395  L 25.760959040000003 5.839680192000031  L 26.43679999999999 5.839680192000031  L 26.43679999999999 9.028799712000037  C 26.43679999999999 9.197760288000026  26.34175904 9.335040000000035  26.172799999999995 9.430080000000046  L 26.58464096 10.317120000000031  C 27.450559999999996 10.04256038400004  28.210879039999995 9.704640192000028  28.876159999999985 9.292800288000038  L 28.696639999999988 8.395199904000023  C 28.274239039999998 8.669760096000033  27.84127903999999 8.891520096000022  27.418880959999996 9.060479712000046  L 27.418880959999996 5.839680192000031  Z M 30.692480000000003 1.6579201920000344  L 29.92159903999999 1.0348800672000351  C 29.266879999999986 2.14367980800003  28.495999999999995 2.9779201920000418  27.58783903999999 3.5270402880000375  L 28.126400000000004 4.297920192000035  C 29.10847903999999 3.727679904000041  29.963840000000005 2.8406400960000298  30.692480000000003 1.6579201920000344  Z " fill-rule="nonzero" fill="rgba(255, 255, 255, 1)" stroke="none" transform="matrix(1 0 0 1 2052 181 )" class="fill" />
    <path d="M 2.0854399999999913 5.512320096000026  L 8.632640383999998 5.512320096000026  L 8.632640383999998 1.077119750400044  L 0.6387200191999938 1.077119750400044  L 0.6387200191999938 2.03808009600003  L 7.608319999999992 2.03808009600003  L 7.608319999999992 4.551360192000033  L 2.0854399999999913 4.551360192000033  L 2.0854399999999913 3.1046401920000335  L 1.0716800000000006 3.1046401920000335  L 1.0716800000000006 8.595840480000035  C 1.0716800000000006 9.525119904000036  1.5152000000000072 9.989760096000026  2.412800095999998 9.989760096000026  L 8.241919904 9.989760096000026  C 8.674880095999995 9.968639808000034  9.012800287999994 9.841919904000036  9.266240191999998 9.609600192000045  C 9.488 9.366720000000043  9.667519999999996 8.574720192000044  9.794239039999994 7.2441600000000355  L 8.812159711999996 6.927360096000029  C 8.748799712000007 8.036160288000033  8.643200095999987 8.669760096000033  8.474239519999998 8.828160096000019  C 8.326400192000008 8.954880096000025  8.146879903999988 9.018240096000028  7.9567999040000075 9.018240096000028  L 2.687360095999992 9.018240096000028  C 2.286080095999992 9.018240096000028  2.0854399999999913 8.817600384000045  2.0854399999999913 8.416320192000029  L 2.0854399999999913 5.512320096000026  Z " stroke-width="0" stroke-dasharray="0" stroke="rgba(255, 255, 255, 0)" fill="none" transform="matrix(1 0 0 1 2052 181 )" class="stroke" mask="url(#Clip19769)" />
    <path d="M 16.278080959999997 9.324480288000032  L 16.278080959999997 8.331839904000034  C 15.59168095999999 8.479680192000032  14.894719999999992 8.627519520000035  14.18719999999999 8.754240384000042  L 14.18719999999999 7.180800000000033  L 15.971840959999994 7.180800000000033  L 15.971840959999994 6.219840096000041  L 14.18719999999999 6.219840096000041  L 14.18719999999999 5.100480192000035  L 13.173439999999985 5.100480192000035  L 13.173439999999985 6.219840096000041  L 11.21983999999999 6.219840096000041  L 11.21983999999999 7.180800000000033  L 13.173439999999985 7.180800000000033  L 13.173439999999985 8.92320009600003  C 12.381439999999984 9.039360384000034  11.578879999999984 9.144960000000026  10.76576 9.229440288000035  L 10.998080000000002 10.190399808000024  C 12.877759999999995 9.958080096000032  14.630719999999997 9.66239961600003  16.278080959999997 9.324480288000032  Z " stroke-width="0" stroke-dasharray="0" stroke="rgba(255, 255, 255, 0)" fill="none" transform="matrix(1 0 0 1 2052 181 )" class="stroke" mask="url(#Clip19769)" />
    <path d="M 16.23584000000001 0.9609603840000318  L 10.924159999999986 0.9609603840000318  L 10.924159999999986 1.911360192000032  L 12.50815999999999 1.911360192000032  C 11.937920000000005 3.0307200960000387  11.48384 3.738240096000027  11.145920000000004 4.023360000000039  C 11.06143999999999 4.065600096000026  10.924159999999986 4.097280096000034  10.755200000000002 4.118400000000037  L 10.976959999999991 5.01599990400004  C 12.52928 4.8575999040000255  13.965440000000001 4.656959808000025  15.295999999999992 4.414080000000027  C 15.443839999999994 4.688639808000033  15.59168095999999 4.952639904000037  15.728960959999995 5.2060799040000205  L 16.563199999999995 4.62527980800003  C 16.19359999999999 3.9388801920000276  15.655039039999991 3.1363201920000283  14.958079999999995 2.20704028800003  L 14.18719999999999 2.703360000000032  C 14.419519999999991 3.0307200960000387  14.630719999999997 3.3580800960000374  14.841919999999988 3.674880096000024  C 14.028800000000004 3.812160192000036  13.205119999999994 3.928320000000028  12.360320000000002 4.0127998080000395  C 12.729919999999993 3.5164800960000377  13.14175999999999 2.819520288000021  13.585279999999997 1.911360192000032  L 16.23584000000001 1.911360192000032  L 16.23584000000001 0.9609603840000318  Z " stroke-width="0" stroke-dasharray="0" stroke="rgba(255, 255, 255, 0)" fill="none" transform="matrix(1 0 0 1 2052 181 )" class="stroke" mask="url(#Clip19769)" />
    <path d="M 17.418560959999994 10.232640000000032  L 18.981439039999998 10.232640000000032  C 19.68895904 10.232640000000032  20.047999039999993 9.873599808000023  20.047999039999993 9.155519712000029  L 20.047999039999993 0.6124804684800296  L 19.034239040000003 0.6124804684800296  L 19.034239040000003 8.902079808000025  C 19.034239040000003 9.176640000000035  18.896959999999993 9.313919712000029  18.632959999999983 9.313919712000029  C 18.17888096 9.313919712000029  17.703680000000006 9.292800288000038  17.196799999999996 9.26112028800003  L 17.418560959999994 10.232640000000032  Z " stroke-width="0" stroke-dasharray="0" stroke="rgba(255, 255, 255, 0)" fill="none" transform="matrix(1 0 0 1 2052 181 )" class="stroke" mask="url(#Clip19769)" />
    <path d="M 17.946560000000005 1.5628802880000308  L 16.975039039999984 1.5628802880000308  L 16.975039039999984 8.036160288000033  L 17.946560000000005 8.036160288000033  L 17.946560000000005 1.5628802880000308  Z " stroke-width="0" stroke-dasharray="0" stroke="rgba(255, 255, 255, 0)" fill="none" transform="matrix(1 0 0 1 2052 181 )" class="stroke" mask="url(#Clip19769)" />
    <path d="M 25.42304 7.666560096000026  L 25.42304 0.9398400864000394  L 21.600319999999996 0.9398400864000394  L 21.600319999999996 7.666560096000026  L 22.50848096 7.666560096000026  L 22.50848096 1.858559904000032  L 24.54656 1.858559904000032  L 24.54656 7.666560096000026  L 25.42304 7.666560096000026  Z " stroke-width="0" stroke-dasharray="0" stroke="rgba(255, 255, 255, 0)" fill="none" transform="matrix(1 0 0 1 2052 181 )" class="stroke" mask="url(#Clip19769)" />
    <path d="M 23.934079999999994 2.523840192000037  L 23.089280000000002 2.523840192000037  L 23.089280000000002 5.976959808000032  C 23.05759904 6.885119904000035  22.920320000000004 7.624319904000032  22.687999039999994 8.194560288000034  C 22.434559039999996 8.722560384000033  21.95935999999999 9.166080288000032  21.272959999999983 9.514560288000027  L 21.811519039999993 10.359360000000024  C 22.54016 10.000319808000029  23.068159039999998 9.482880288000032  23.39552096 8.817600384000045  C 23.733439999999987 8.110080000000039  23.912959999999984 7.159680192000038  23.934079999999994 5.976959808000032  L 23.934079999999994 2.523840192000037  Z " stroke-width="0" stroke-dasharray="0" stroke="rgba(255, 255, 255, 0)" fill="none" transform="matrix(1 0 0 1 2052 181 )" class="stroke" mask="url(#Clip19769)" />
    <path d="M 25.69759904 9.55679990400003  C 25.31743999999999 9.018240096000028  24.86336 8.479680192000032  24.314239040000004 7.93056019200003  L 23.680639999999997 8.55359980800003  C 24.240319999999997 9.166080288000032  24.67327999999999 9.736320192000036  24.979519999999994 10.274880000000039  L 25.69759904 9.55679990400003  Z " stroke-width="0" stroke-dasharray="0" stroke="rgba(255, 255, 255, 0)" fill="none" transform="matrix(1 0 0 1 2052 181 )" class="stroke" mask="url(#Clip19769)" />
    <path d="M 27.418880959999996 5.839680192000031  L 28.189760000000007 5.839680192000031  C 28.686080000000004 7.76160000000003  29.414719039999994 9.229440288000035  30.365120959999985 10.232640000000032  L 31.040959040000004 9.451200288000024  C 30.185600959999988 8.606400192000038  29.520319999999998 7.402560000000037  29.04512095999999 5.839680192000031  L 30.82975807999999 5.839680192000031  L 30.82975807999999 4.8681600960000395  L 27.418880959999996 4.8681600960000395  L 27.418880959999996 0.5913601684800369  L 26.43679999999999 0.5913601684800369  L 26.43679999999999 4.8681600960000395  L 25.760959040000003 4.8681600960000395  L 25.760959040000003 5.839680192000031  L 26.43679999999999 5.839680192000031  L 26.43679999999999 9.028799712000037  C 26.43679999999999 9.197760288000026  26.34175904 9.335040000000035  26.172799999999995 9.430080000000046  L 26.58464096 10.317120000000031  C 27.450559999999996 10.04256038400004  28.210879039999995 9.704640192000028  28.876159999999985 9.292800288000038  L 28.696639999999988 8.395199904000023  C 28.274239039999998 8.669760096000033  27.84127903999999 8.891520096000022  27.418880959999996 9.060479712000046  L 27.418880959999996 5.839680192000031  Z " stroke-width="0" stroke-dasharray="0" stroke="rgba(255, 255, 255, 0)" fill="none" transform="matrix(1 0 0 1 2052 181 )" class="stroke" mask="url(#Clip19769)" />
    <path d="M 30.692480000000003 1.6579201920000344  L 29.92159903999999 1.0348800672000351  C 29.266879999999986 2.14367980800003  28.495999999999995 2.9779201920000418  27.58783903999999 3.5270402880000375  L 28.126400000000004 4.297920192000035  C 29.10847903999999 3.727679904000041  29.963840000000005 2.8406400960000298  30.692480000000003 1.6579201920000344  Z " stroke-width="0" stroke-dasharray="0" stroke="rgba(255, 255, 255, 0)" fill="none" transform="matrix(1 0 0 1 2052 181 )" class="stroke" mask="url(#Clip19769)" />
  </g>
</svg>