<?xml version="1.0" encoding="utf-8"?>
<svg version="1.1" xmlns:xlink="http://www.w3.org/1999/xlink" width="40px" height="14px" xmlns="http://www.w3.org/2000/svg">
  <defs>
    <pattern id="BGPattern" patternUnits="userSpaceOnUse" alignment="0 0" imageRepeat="None" />
    <mask fill="white" id="Clip21150">
      <path d="M 1.2764799999999994 3.9385599040000443  L 6.276160287999996 3.9385599040000443  L 6.276160287999996 7.110399808000011  L 1.9216000000000015 7.110399808000011  L 1.9216000000000015 8.010879520000032  L 6.276160287999996 8.010879520000032  L 6.276160287999996 11.61280000000005  L 0.8060800384000011 11.61280000000005  L 0.8060800384000011 12.567040000000048  L 12.727360959999999 12.567040000000048  L 12.727360959999999 11.61280000000005  L 7.257280096000002 11.61280000000005  L 7.257280096000002 8.010879520000032  L 11.61184 8.010879520000032  L 11.61184 7.110399808000011  L 7.257280096000002 7.110399808000011  L 7.257280096000002 3.9385599040000443  L 12.256960959999994 3.9385599040000443  L 12.256960959999994 2.984319424000006  L 6.719680191999998 2.984319424000006  L 7.243840192 2.7827194240000495  C 7.055680096 2.1375995200000375  6.800320287999998 1.4387198080000303  6.4643203840000005 0.672639462400042  L 5.523520384000001 0.9279992704000222  C 5.846080287999996 1.5865600960000563  6.128319999999999 2.2719998080000323  6.356800384 2.984319424000006  L 1.2764799999999994 2.984319424000006  L 1.2764799999999994 3.9385599040000443  Z M 19.689280000000004 8.15871980800003  L 21.705280959999996 8.15871980800003  L 21.705280959999996 9.502720384000042  L 19.689280000000004 9.502720384000042  L 19.689280000000004 8.15871980800003  Z M 19.689280000000004 10.268800000000027  L 21.705280959999996 10.268800000000027  L 21.705280959999996 11.559040000000039  L 19.689280000000004 11.559040000000039  L 19.689280000000004 10.268800000000027  Z M 24.527679039999995 11.559040000000039  L 22.538560960000005 11.559040000000039  L 22.538560960000005 10.268800000000027  L 24.527679039999995 10.268800000000027  L 24.527679039999995 11.559040000000039  Z M 19.689280000000004 12.378880000000038  L 24.527679039999995 12.378880000000038  L 24.527679039999995 13.037440000000004  L 25.41471904 13.037440000000004  L 25.41471904 7.365760000000024  L 19.057599040000007 7.365760000000024  C 20.14624 6.720639616000028  20.966079999999998 5.92767990400003  21.530561920000004 5.013759808000032  L 21.678400960000005 5.013759808000032  L 21.678400960000005 6.935679616000016  L 22.55200096 6.935679616000016  L 22.55200096 5.013759808000032  L 22.71327999999999 5.013759808000032  C 23.559999999999995 6.142719904000046  24.67552096 7.029759712000014  26.073279999999997 7.701759904000027  L 26.50336 6.895359808000023  C 25.172799999999995 6.357759904000034  24.151360959999998 5.73951980800004  23.43904096 5.013759808000032  L 26.08672 5.013759808000032  L 26.08672 4.1535998080000525  L 24.4336 4.1535998080000525  C 24.71584 3.723519904000028  24.971200959999997 3.2262393280000197  25.199679999999994 2.6886398080000333  L 24.3664 2.392959328000046  C 24.137920960000002 3.011199328000032  23.869120959999997 3.6025595200000566  23.57343999999999 4.1535998080000525  L 22.55200096 4.1535998080000525  L 22.55200096 2.1241595200000347  C 23.81536096 2.003200096000029  24.930880959999996 1.8150400000000104  25.898560960000005 1.5596792320000077  L 25.455039039999996 0.7801599136000448  C 23.54656 1.2371197120000375  21.15423904 1.4790396160000228  18.278080960000004 1.492479520000046  L 18.560319999999997 2.29887971200003  C 19.662400959999992 2.29887971200003  20.710719999999995 2.2585599040000375  21.678400960000005 2.204800096000014  L 21.678400960000005 4.1535998080000525  L 20.6032 4.1535998080000525  C 20.41504096 3.5891195200000254  20.199999999999996 3.0918399040000395  19.97152096 2.6886398080000333  L 19.165120960000003 2.997759424000037  C 19.393599999999992 3.347199712000048  19.59520096 3.736959808000051  19.783360000000002 4.1535998080000525  L 18.25120096 4.1535998080000525  L 18.25120096 5.013759808000032  L 20.818240960000004 5.013759808000032  C 20.173119999999997 5.806720000000041  19.178560960000006 6.46527980800002  17.834559040000002 6.989439808000014  L 17.834559040000002 6.263679808000006  C 17.47168096 6.46527980800002  17.108800959999996 6.666879904000041  16.732480000000002 6.855040000000031  L 16.732480000000002 4.1939197120000244  L 17.901759039999995 4.1939197120000244  L 17.901759039999995 3.2800000000000296  L 16.732480000000002 3.2800000000000296  L 16.732480000000002 0.7398400864000223  L 15.764800959999995 0.7398400864000223  L 15.764800959999995 3.2800000000000296  L 14.20576096 3.2800000000000296  L 14.20576096 4.1939197120000244  L 15.764800959999995 4.1939197120000244  L 15.764800959999995 7.285119904000027  C 15.186879999999995 7.513599808000038  14.59552 7.715199904000031  13.97728 7.876480096000023  L 14.219199999999994 8.830719616000039  C 14.72992 8.642560384000006  15.254079999999995 8.45439942400003  15.764800959999995 8.239360384000037  L 15.764800959999995 11.532160000000033  C 15.764800959999995 11.868160000000017  15.59008 12.042880000000025  15.254079999999995 12.042880000000025  C 14.931519999999999 12.042880000000025  14.59552 12.01600000000002  14.24608 11.975680000000011  L 14.447679999999991 12.903040000000033  L 15.59008 12.903040000000033  C 16.34272 12.903040000000033  16.732480000000002 12.52672000000004  16.732480000000002 11.787520000000029  L 16.732480000000002 7.795840000000027  C 17.108800959999996 7.607679904000007  17.47168096 7.419519808000018  17.834559040000002 7.217919808000005  L 17.834559040000002 7.043200096000049  L 18.29152096 7.782400096000032  C 18.452799999999996 7.701759904000027  18.627519999999997 7.607679904000007  18.80224096 7.513599808000038  L 18.80224096 13.037440000000004  L 19.689280000000004 13.037440000000004  L 19.689280000000004 12.378880000000038  Z M 24.527679039999995 9.502720384000042  L 22.538560960000005 9.502720384000042  L 22.538560960000005 8.15871980800003  L 24.527679039999995 8.15871980800003  L 24.527679039999995 9.502720384000042  Z M 29.056959999999997 2.0838397120000423  L 27.968319039999997 2.0838397120000423  L 27.968319039999997 11.680000000000035  L 29.056959999999997 11.680000000000035  L 29.056959999999997 2.0838397120000423  Z M 34.5136 2.0838397120000423  L 31.072960000000002 2.0838397120000423  L 31.072960000000002 11.680000000000035  L 34.40608 11.680000000000035  C 35.911360959999996 11.680000000000035  37.0672 11.236480000000029  37.873599999999996 10.362880000000018  C 38.63968 9.529600192000032  39.02944192 8.360319808000014  39.02944192 6.8819199040000285  C 39.02944192 5.376640000000037  38.66655999999999 4.207359616000048  37.954242879999995 3.4009595200000433  C 37.17471903999999 2.5139197120000176  36.03232096 2.0838397120000423  34.5136 2.0838397120000423  Z M 32.175039039999994 10.725760000000037  L 32.175039039999994 3.0380800960000443  L 34.33888096 3.0380800960000443  C 35.60224287999999 3.0380800960000443  36.516161919999995 3.360639616000043  37.10752 4.0192000000000405  C 37.658560959999996 4.6374396160000515  37.94080288 5.591680000000025  37.94080288 6.8819199040000285  C 37.94080288 8.131839904000032  37.63168096 9.086080288000034  37.04032 9.731200288000025  C 36.408642879999995 10.389760000000024  35.467839039999994 10.725760000000037  34.21792096 10.725760000000037  L 32.175039039999994 10.725760000000037  Z " fill-rule="evenodd" />
    </mask>
  </defs>
  <g transform="matrix(1 0 0 1 -1778 -244 )">
    <path d="M 1.2764799999999994 3.9385599040000443  L 6.276160287999996 3.9385599040000443  L 6.276160287999996 7.110399808000011  L 1.9216000000000015 7.110399808000011  L 1.9216000000000015 8.010879520000032  L 6.276160287999996 8.010879520000032  L 6.276160287999996 11.61280000000005  L 0.8060800384000011 11.61280000000005  L 0.8060800384000011 12.567040000000048  L 12.727360959999999 12.567040000000048  L 12.727360959999999 11.61280000000005  L 7.257280096000002 11.61280000000005  L 7.257280096000002 8.010879520000032  L 11.61184 8.010879520000032  L 11.61184 7.110399808000011  L 7.257280096000002 7.110399808000011  L 7.257280096000002 3.9385599040000443  L 12.256960959999994 3.9385599040000443  L 12.256960959999994 2.984319424000006  L 6.719680191999998 2.984319424000006  L 7.243840192 2.7827194240000495  C 7.055680096 2.1375995200000375  6.800320287999998 1.4387198080000303  6.4643203840000005 0.672639462400042  L 5.523520384000001 0.9279992704000222  C 5.846080287999996 1.5865600960000563  6.128319999999999 2.2719998080000323  6.356800384 2.984319424000006  L 1.2764799999999994 2.984319424000006  L 1.2764799999999994 3.9385599040000443  Z M 19.689280000000004 8.15871980800003  L 21.705280959999996 8.15871980800003  L 21.705280959999996 9.502720384000042  L 19.689280000000004 9.502720384000042  L 19.689280000000004 8.15871980800003  Z M 19.689280000000004 10.268800000000027  L 21.705280959999996 10.268800000000027  L 21.705280959999996 11.559040000000039  L 19.689280000000004 11.559040000000039  L 19.689280000000004 10.268800000000027  Z M 24.527679039999995 11.559040000000039  L 22.538560960000005 11.559040000000039  L 22.538560960000005 10.268800000000027  L 24.527679039999995 10.268800000000027  L 24.527679039999995 11.559040000000039  Z M 19.689280000000004 12.378880000000038  L 24.527679039999995 12.378880000000038  L 24.527679039999995 13.037440000000004  L 25.41471904 13.037440000000004  L 25.41471904 7.365760000000024  L 19.057599040000007 7.365760000000024  C 20.14624 6.720639616000028  20.966079999999998 5.92767990400003  21.530561920000004 5.013759808000032  L 21.678400960000005 5.013759808000032  L 21.678400960000005 6.935679616000016  L 22.55200096 6.935679616000016  L 22.55200096 5.013759808000032  L 22.71327999999999 5.013759808000032  C 23.559999999999995 6.142719904000046  24.67552096 7.029759712000014  26.073279999999997 7.701759904000027  L 26.50336 6.895359808000023  C 25.172799999999995 6.357759904000034  24.151360959999998 5.73951980800004  23.43904096 5.013759808000032  L 26.08672 5.013759808000032  L 26.08672 4.1535998080000525  L 24.4336 4.1535998080000525  C 24.71584 3.723519904000028  24.971200959999997 3.2262393280000197  25.199679999999994 2.6886398080000333  L 24.3664 2.392959328000046  C 24.137920960000002 3.011199328000032  23.869120959999997 3.6025595200000566  23.57343999999999 4.1535998080000525  L 22.55200096 4.1535998080000525  L 22.55200096 2.1241595200000347  C 23.81536096 2.003200096000029  24.930880959999996 1.8150400000000104  25.898560960000005 1.5596792320000077  L 25.455039039999996 0.7801599136000448  C 23.54656 1.2371197120000375  21.15423904 1.4790396160000228  18.278080960000004 1.492479520000046  L 18.560319999999997 2.29887971200003  C 19.662400959999992 2.29887971200003  20.710719999999995 2.2585599040000375  21.678400960000005 2.204800096000014  L 21.678400960000005 4.1535998080000525  L 20.6032 4.1535998080000525  C 20.41504096 3.5891195200000254  20.199999999999996 3.0918399040000395  19.97152096 2.6886398080000333  L 19.165120960000003 2.997759424000037  C 19.393599999999992 3.347199712000048  19.59520096 3.736959808000051  19.783360000000002 4.1535998080000525  L 18.25120096 4.1535998080000525  L 18.25120096 5.013759808000032  L 20.818240960000004 5.013759808000032  C 20.173119999999997 5.806720000000041  19.178560960000006 6.46527980800002  17.834559040000002 6.989439808000014  L 17.834559040000002 6.263679808000006  C 17.47168096 6.46527980800002  17.108800959999996 6.666879904000041  16.732480000000002 6.855040000000031  L 16.732480000000002 4.1939197120000244  L 17.901759039999995 4.1939197120000244  L 17.901759039999995 3.2800000000000296  L 16.732480000000002 3.2800000000000296  L 16.732480000000002 0.7398400864000223  L 15.764800959999995 0.7398400864000223  L 15.764800959999995 3.2800000000000296  L 14.20576096 3.2800000000000296  L 14.20576096 4.1939197120000244  L 15.764800959999995 4.1939197120000244  L 15.764800959999995 7.285119904000027  C 15.186879999999995 7.513599808000038  14.59552 7.715199904000031  13.97728 7.876480096000023  L 14.219199999999994 8.830719616000039  C 14.72992 8.642560384000006  15.254079999999995 8.45439942400003  15.764800959999995 8.239360384000037  L 15.764800959999995 11.532160000000033  C 15.764800959999995 11.868160000000017  15.59008 12.042880000000025  15.254079999999995 12.042880000000025  C 14.931519999999999 12.042880000000025  14.59552 12.01600000000002  14.24608 11.975680000000011  L 14.447679999999991 12.903040000000033  L 15.59008 12.903040000000033  C 16.34272 12.903040000000033  16.732480000000002 12.52672000000004  16.732480000000002 11.787520000000029  L 16.732480000000002 7.795840000000027  C 17.108800959999996 7.607679904000007  17.47168096 7.419519808000018  17.834559040000002 7.217919808000005  L 17.834559040000002 7.043200096000049  L 18.29152096 7.782400096000032  C 18.452799999999996 7.701759904000027  18.627519999999997 7.607679904000007  18.80224096 7.513599808000038  L 18.80224096 13.037440000000004  L 19.689280000000004 13.037440000000004  L 19.689280000000004 12.378880000000038  Z M 24.527679039999995 9.502720384000042  L 22.538560960000005 9.502720384000042  L 22.538560960000005 8.15871980800003  L 24.527679039999995 8.15871980800003  L 24.527679039999995 9.502720384000042  Z M 29.056959999999997 2.0838397120000423  L 27.968319039999997 2.0838397120000423  L 27.968319039999997 11.680000000000035  L 29.056959999999997 11.680000000000035  L 29.056959999999997 2.0838397120000423  Z M 34.5136 2.0838397120000423  L 31.072960000000002 2.0838397120000423  L 31.072960000000002 11.680000000000035  L 34.40608 11.680000000000035  C 35.911360959999996 11.680000000000035  37.0672 11.236480000000029  37.873599999999996 10.362880000000018  C 38.63968 9.529600192000032  39.02944192 8.360319808000014  39.02944192 6.8819199040000285  C 39.02944192 5.376640000000037  38.66655999999999 4.207359616000048  37.954242879999995 3.4009595200000433  C 37.17471903999999 2.5139197120000176  36.03232096 2.0838397120000423  34.5136 2.0838397120000423  Z M 32.175039039999994 10.725760000000037  L 32.175039039999994 3.0380800960000443  L 34.33888096 3.0380800960000443  C 35.60224287999999 3.0380800960000443  36.516161919999995 3.360639616000043  37.10752 4.0192000000000405  C 37.658560959999996 4.6374396160000515  37.94080288 5.591680000000025  37.94080288 6.8819199040000285  C 37.94080288 8.131839904000032  37.63168096 9.086080288000034  37.04032 9.731200288000025  C 36.408642879999995 10.389760000000024  35.467839039999994 10.725760000000037  34.21792096 10.725760000000037  L 32.175039039999994 10.725760000000037  Z " fill-rule="nonzero" fill="rgba(51, 51, 51, 1)" stroke="none" transform="matrix(1 0 0 1 1778 244 )" class="fill" />
    <path d="M 1.2764799999999994 3.9385599040000443  L 6.276160287999996 3.9385599040000443  L 6.276160287999996 7.110399808000011  L 1.9216000000000015 7.110399808000011  L 1.9216000000000015 8.010879520000032  L 6.276160287999996 8.010879520000032  L 6.276160287999996 11.61280000000005  L 0.8060800384000011 11.61280000000005  L 0.8060800384000011 12.567040000000048  L 12.727360959999999 12.567040000000048  L 12.727360959999999 11.61280000000005  L 7.257280096000002 11.61280000000005  L 7.257280096000002 8.010879520000032  L 11.61184 8.010879520000032  L 11.61184 7.110399808000011  L 7.257280096000002 7.110399808000011  L 7.257280096000002 3.9385599040000443  L 12.256960959999994 3.9385599040000443  L 12.256960959999994 2.984319424000006  L 6.719680191999998 2.984319424000006  L 7.243840192 2.7827194240000495  C 7.055680096 2.1375995200000375  6.800320287999998 1.4387198080000303  6.4643203840000005 0.672639462400042  L 5.523520384000001 0.9279992704000222  C 5.846080287999996 1.5865600960000563  6.128319999999999 2.2719998080000323  6.356800384 2.984319424000006  L 1.2764799999999994 2.984319424000006  L 1.2764799999999994 3.9385599040000443  Z " stroke-width="0" stroke-dasharray="0" stroke="rgba(255, 255, 255, 0)" fill="none" transform="matrix(1 0 0 1 1778 244 )" class="stroke" mask="url(#Clip21150)" />
    <path d="M 19.689280000000004 8.15871980800003  L 21.705280959999996 8.15871980800003  L 21.705280959999996 9.502720384000042  L 19.689280000000004 9.502720384000042  L 19.689280000000004 8.15871980800003  Z " stroke-width="0" stroke-dasharray="0" stroke="rgba(255, 255, 255, 0)" fill="none" transform="matrix(1 0 0 1 1778 244 )" class="stroke" mask="url(#Clip21150)" />
    <path d="M 19.689280000000004 10.268800000000027  L 21.705280959999996 10.268800000000027  L 21.705280959999996 11.559040000000039  L 19.689280000000004 11.559040000000039  L 19.689280000000004 10.268800000000027  Z " stroke-width="0" stroke-dasharray="0" stroke="rgba(255, 255, 255, 0)" fill="none" transform="matrix(1 0 0 1 1778 244 )" class="stroke" mask="url(#Clip21150)" />
    <path d="M 24.527679039999995 11.559040000000039  L 22.538560960000005 11.559040000000039  L 22.538560960000005 10.268800000000027  L 24.527679039999995 10.268800000000027  L 24.527679039999995 11.559040000000039  Z " stroke-width="0" stroke-dasharray="0" stroke="rgba(255, 255, 255, 0)" fill="none" transform="matrix(1 0 0 1 1778 244 )" class="stroke" mask="url(#Clip21150)" />
    <path d="M 19.689280000000004 12.378880000000038  L 24.527679039999995 12.378880000000038  L 24.527679039999995 13.037440000000004  L 25.41471904 13.037440000000004  L 25.41471904 7.365760000000024  L 19.057599040000007 7.365760000000024  C 20.14624 6.720639616000028  20.966079999999998 5.92767990400003  21.530561920000004 5.013759808000032  L 21.678400960000005 5.013759808000032  L 21.678400960000005 6.935679616000016  L 22.55200096 6.935679616000016  L 22.55200096 5.013759808000032  L 22.71327999999999 5.013759808000032  C 23.559999999999995 6.142719904000046  24.67552096 7.029759712000014  26.073279999999997 7.701759904000027  L 26.50336 6.895359808000023  C 25.172799999999995 6.357759904000034  24.151360959999998 5.73951980800004  23.43904096 5.013759808000032  L 26.08672 5.013759808000032  L 26.08672 4.1535998080000525  L 24.4336 4.1535998080000525  C 24.71584 3.723519904000028  24.971200959999997 3.2262393280000197  25.199679999999994 2.6886398080000333  L 24.3664 2.392959328000046  C 24.137920960000002 3.011199328000032  23.869120959999997 3.6025595200000566  23.57343999999999 4.1535998080000525  L 22.55200096 4.1535998080000525  L 22.55200096 2.1241595200000347  C 23.81536096 2.003200096000029  24.930880959999996 1.8150400000000104  25.898560960000005 1.5596792320000077  L 25.455039039999996 0.7801599136000448  C 23.54656 1.2371197120000375  21.15423904 1.4790396160000228  18.278080960000004 1.492479520000046  L 18.560319999999997 2.29887971200003  C 19.662400959999992 2.29887971200003  20.710719999999995 2.2585599040000375  21.678400960000005 2.204800096000014  L 21.678400960000005 4.1535998080000525  L 20.6032 4.1535998080000525  C 20.41504096 3.5891195200000254  20.199999999999996 3.0918399040000395  19.97152096 2.6886398080000333  L 19.165120960000003 2.997759424000037  C 19.393599999999992 3.347199712000048  19.59520096 3.736959808000051  19.783360000000002 4.1535998080000525  L 18.25120096 4.1535998080000525  L 18.25120096 5.013759808000032  L 20.818240960000004 5.013759808000032  C 20.173119999999997 5.806720000000041  19.178560960000006 6.46527980800002  17.834559040000002 6.989439808000014  L 17.834559040000002 6.263679808000006  C 17.47168096 6.46527980800002  17.108800959999996 6.666879904000041  16.732480000000002 6.855040000000031  L 16.732480000000002 4.1939197120000244  L 17.901759039999995 4.1939197120000244  L 17.901759039999995 3.2800000000000296  L 16.732480000000002 3.2800000000000296  L 16.732480000000002 0.7398400864000223  L 15.764800959999995 0.7398400864000223  L 15.764800959999995 3.2800000000000296  L 14.20576096 3.2800000000000296  L 14.20576096 4.1939197120000244  L 15.764800959999995 4.1939197120000244  L 15.764800959999995 7.285119904000027  C 15.186879999999995 7.513599808000038  14.59552 7.715199904000031  13.97728 7.876480096000023  L 14.219199999999994 8.830719616000039  C 14.72992 8.642560384000006  15.254079999999995 8.45439942400003  15.764800959999995 8.239360384000037  L 15.764800959999995 11.532160000000033  C 15.764800959999995 11.868160000000017  15.59008 12.042880000000025  15.254079999999995 12.042880000000025  C 14.931519999999999 12.042880000000025  14.59552 12.01600000000002  14.24608 11.975680000000011  L 14.447679999999991 12.903040000000033  L 15.59008 12.903040000000033  C 16.34272 12.903040000000033  16.732480000000002 12.52672000000004  16.732480000000002 11.787520000000029  L 16.732480000000002 7.795840000000027  C 17.108800959999996 7.607679904000007  17.47168096 7.419519808000018  17.834559040000002 7.217919808000005  L 17.834559040000002 7.043200096000049  L 18.29152096 7.782400096000032  C 18.452799999999996 7.701759904000027  18.627519999999997 7.607679904000007  18.80224096 7.513599808000038  L 18.80224096 13.037440000000004  L 19.689280000000004 13.037440000000004  L 19.689280000000004 12.378880000000038  Z " stroke-width="0" stroke-dasharray="0" stroke="rgba(255, 255, 255, 0)" fill="none" transform="matrix(1 0 0 1 1778 244 )" class="stroke" mask="url(#Clip21150)" />
    <path d="M 24.527679039999995 9.502720384000042  L 22.538560960000005 9.502720384000042  L 22.538560960000005 8.15871980800003  L 24.527679039999995 8.15871980800003  L 24.527679039999995 9.502720384000042  Z " stroke-width="0" stroke-dasharray="0" stroke="rgba(255, 255, 255, 0)" fill="none" transform="matrix(1 0 0 1 1778 244 )" class="stroke" mask="url(#Clip21150)" />
    <path d="M 29.056959999999997 2.0838397120000423  L 27.968319039999997 2.0838397120000423  L 27.968319039999997 11.680000000000035  L 29.056959999999997 11.680000000000035  L 29.056959999999997 2.0838397120000423  Z " stroke-width="0" stroke-dasharray="0" stroke="rgba(255, 255, 255, 0)" fill="none" transform="matrix(1 0 0 1 1778 244 )" class="stroke" mask="url(#Clip21150)" />
    <path d="M 34.5136 2.0838397120000423  L 31.072960000000002 2.0838397120000423  L 31.072960000000002 11.680000000000035  L 34.40608 11.680000000000035  C 35.911360959999996 11.680000000000035  37.0672 11.236480000000029  37.873599999999996 10.362880000000018  C 38.63968 9.529600192000032  39.02944192 8.360319808000014  39.02944192 6.8819199040000285  C 39.02944192 5.376640000000037  38.66655999999999 4.207359616000048  37.954242879999995 3.4009595200000433  C 37.17471903999999 2.5139197120000176  36.03232096 2.0838397120000423  34.5136 2.0838397120000423  Z " stroke-width="0" stroke-dasharray="0" stroke="rgba(255, 255, 255, 0)" fill="none" transform="matrix(1 0 0 1 1778 244 )" class="stroke" mask="url(#Clip21150)" />
    <path d="M 32.175039039999994 10.725760000000037  L 32.175039039999994 3.0380800960000443  L 34.33888096 3.0380800960000443  C 35.60224287999999 3.0380800960000443  36.516161919999995 3.360639616000043  37.10752 4.0192000000000405  C 37.658560959999996 4.6374396160000515  37.94080288 5.591680000000025  37.94080288 6.8819199040000285  C 37.94080288 8.131839904000032  37.63168096 9.086080288000034  37.04032 9.731200288000025  C 36.408642879999995 10.389760000000024  35.467839039999994 10.725760000000037  34.21792096 10.725760000000037  L 32.175039039999994 10.725760000000037  Z " stroke-width="0" stroke-dasharray="0" stroke="rgba(255, 255, 255, 0)" fill="none" transform="matrix(1 0 0 1 1778 244 )" class="stroke" mask="url(#Clip21150)" />
  </g>
</svg>