<?xml version="1.0" encoding="utf-8"?>
<svg version="1.1" xmlns:xlink="http://www.w3.org/1999/xlink" width="62px" height="16px" xmlns="http://www.w3.org/2000/svg">
  <defs>
    <pattern id="BGPattern" patternUnits="userSpaceOnUse" alignment="0 0" imageRepeat="None" />
    <mask fill="white" id="Clip6706">
      <path d="M 9.188800671999985 4.128959615999975  L 7.284160479999997 4.128959615999975  L 7.284160479999997 5.634239519999937  L 10.110400959999993 5.634239519999937  L 10.110400959999993 6.202559519999909  C 10.110400959999993 6.755519712000023  10.079679999999996 7.27775990400005  10.018239999999992 7.799999519999915  L 7.038400383999999 7.799999519999915  L 7.038400383999999 9.33600038399993  L 9.787840288000012 9.33600038399993  C 9.311679999999996 11.45568000000003  8.297920191999992 13.00703999999996  6.746560479999971 13.95936000000006  L 7.714240383999993 15.264959999999974  C 9.311679999999996 14.220479999999952  10.417599999999993 12.638399999999933  11.047360959999992 10.534079999999904  C 11.53888096 12.070079999999962  12.537280960000004 13.621440000000007  14.042560000000009 15.188160000000039  L 15.14848096 13.99007999999992  C 13.458880959999988 12.423360000000002  12.39904095999998 10.872000000000071  11.984319999999997 9.33600038399993  L 14.902719999999988 9.33600038399993  L 14.902719999999988 7.799999519999915  L 11.56959999999998 7.799999519999915  C 11.631040000000013 7.185599711999998  11.661760959999981 6.525119519999976  11.661760959999981 5.833919712000011  L 11.661760959999981 5.634239519999937  L 14.626239999999996 5.634239519999937  L 14.626239999999996 4.128959615999975  L 12.67552096 4.128959615999975  C 13.105600960000004 3.407039808000036  13.53568095999998 2.5315191360000426  13.965760959999983 1.517759424000019  L 12.475840000000005 0.9494393951999882  C 12.091840959999985 2.0860794239999905  11.631040000000013 3.1459195200000067  11.09344096000001 4.128959615999975  L 9.311679999999996 4.128959615999975  L 10.40224096 3.3609595200000513  C 10.095040959999977 2.6851199039999756  9.649600192000008 1.9017590400000017  9.08128019199998 1.0108795200000031  L 7.852480479999997 1.7942395199999055  C 8.405440671999969 2.639039615999991  8.85088048 3.422399616000007  9.188800671999985 4.128959615999975  Z M 7.161280191999992 1.4255997120000075  L 0.9251200479999966 1.4255997120000075  L 0.9251200479999966 2.90015990400002  L 1.6931200960000012 2.90015990400002  L 1.6931200960000012 11.870400000000018  L 0.8483200095999734 11.993280000000027  L 1.2323200383999904 13.513919999999985  C 2.461120096000002 13.268159999999966  3.643840191999999 13.00703999999996  4.795839999999998 12.730559999999969  L 4.795839999999998 15.172799999999938  L 6.3472001920000025 15.172799999999938  L 6.3472001920000025 12.300479999999993  C 6.623680287999974 12.223679999999945  6.9155201920000025 12.14688000000001  7.192000288000003 12.054719999999975  L 7.192000288000003 10.503360000000043  C 6.9155201920000025 10.595519999999965  6.639040479999977 10.687679040000035  6.3472001920000025 10.779840000000036  L 6.3472001920000025 2.90015990400002  L 7.161280191999992 2.90015990400002  L 7.161280191999992 1.4255997120000075  Z M 4.795839999999998 11.225279999999998  C 4.2736002880000115 11.348160000000007  3.751360191999993 11.471039039999937  3.213760191999995 11.593920000000026  L 3.213760191999995 9.35135923200005  L 4.795839999999998 9.35135923200005  L 4.795839999999998 11.225279999999998  Z M 4.795839999999998 7.907519520000051  L 3.213760191999995 7.907519520000051  L 3.213760191999995 6.15647961600007  L 4.795839999999998 6.15647961600007  L 4.795839999999998 7.907519520000051  Z M 4.795839999999998 4.712639423999917  L 3.213760191999995 4.712639423999917  L 3.213760191999995 2.90015990400002  L 4.795839999999998 2.90015990400002  L 4.795839999999998 4.712639423999917  Z M 21.046719999999993 15.11135999999999  L 22.797760960000005 15.11135999999999  C 23.796160000000015 15.11135999999999  24.30303999999998 14.589120959999946  24.30303999999998 13.559999999999945  L 24.30303999999998 9.781439999999975  C 25.47040192 9.689280384000085  26.54560096 9.59711971199988  27.52864096000002 9.489600192000012  C 27.866559999999993 9.99648000000002  28.189120959999997 10.487999999999943  28.465600960000017 10.97951999999998  L 29.74047999999999 10.103999999999928  C 29.06464095999999 8.98272038399989  28.081600960000003 7.6771197119999215  26.806719999999984 6.1871997120000515  L 25.624001919999984 6.924479808000001  C 25.961920959999986 7.354559807999976  26.29983999999999 7.784639712000057  26.622400959999993 8.214719231999993  C 25.117121919999988 8.399039615999982  23.35072095999999 8.552640383999915  21.353919999999988 8.690879520000067  C 23.10496096 7.6771197119999215  25.17856096 6.141119807999985  27.559359999999998 4.098239135999961  L 26.084800959999995 3.3763192320000144  C 25.408960959999973 3.9907196159999785  24.763841920000004 4.559039616000064  24.13408000000001 5.0812793280000506  C 23.120319999999992 5.158079231999977  22.09120095999998 5.234879136000018  21.077439999999967 5.2963192319999735  C 21.89152095999998 4.712639423999917  22.674880959999996 3.9753598080000074  23.412160959999994 3.1151999040000646  C 25.654719039999975 2.961599136000018  27.59008191999999 2.7158395200000314  29.233599999999996 2.3779193279999618  L 28.450241919999996 1.0415991167999437  C 25.37824096 1.6099191360000304  21.64576095999999 1.9017590400000017  17.252800000000008 1.9017590400000017  L 17.713599999999985 3.284159520000003  C 19.003839999999997 3.284159520000003  20.232639999999975 3.253439904000061  21.430720000000008 3.2227194239999335  C 20.63200095999997 4.113599808000004  19.971520959999992 4.681919903999983  19.43392 4.9430392320000465  C 19.095999999999975 5.096639999999979  18.74271999999999 5.188799711999991  18.35872096 5.234879136000018  L 18.681279039999993 6.63263942399999  C 20.002240959999995 6.5558395199999495  21.277119999999996 6.479039616000023  22.475200959999995 6.386879904000011  C 21.184960960000012 7.3238397119999945  20.002240959999995 8.015039040000033  18.942400959999986 8.475839520000022  C 18.52767904000001 8.629440288000069  18.066879999999998 8.721599136000009  17.560000000000002 8.767679423999994  L 18.005440959999987 10.16543999999999  C 19.695039039999983 10.088640000000055  21.246399999999994 9.99648000000002  22.69023999999999 9.904319040000019  L 22.69023999999999 13.160639999999944  C 22.69023999999999 13.483199999999897  22.536639999999977 13.65215999999998  22.244800959999992 13.65215999999998  C 21.737920959999997 13.65215999999998  21.215680959999986 13.60608000000002  20.67808095999999 13.544640000000072  L 21.046719999999993 15.11135999999999  Z M 30.170561919999983 13.713599999999929  C 29.141440959999983 12.623039999999946  27.866559999999993 11.532479999999964  26.36127904 10.426559999999995  L 25.30143903999999 11.45568000000003  C 26.914239039999984 12.66912000000002  28.158400959999994 13.805759999999964  29.033919999999995 14.850239999999985  L 30.170561919999983 13.713599999999929  Z M 21.23104096 11.532479999999964  L 20.109759999999994 10.534079999999904  C 19.095999999999975 11.655359999999973  17.867199999999997 12.638399999999933  16.39264 13.483199999999897  L 17.39103904000001 14.788799999999924  C 18.927040000000005 13.867200000000025  20.201920959999995 12.77663999999993  21.23104096 11.532479999999964  Z M 43.38016000000002 15.203520000000026  L 43.38016000000002 10.150080000000003  L 34.25631808 10.150080000000003  L 34.25631808 15.203520000000026  L 35.80767903999998 15.203520000000026  L 35.80767903999998 14.650559999999928  L 41.813440000000014 14.650559999999928  L 41.813440000000014 15.203520000000026  L 43.38016000000002 15.203520000000026  Z M 41.813440000000014 13.206719999999905  L 35.80767903999998 13.206719999999905  L 35.80767903999998 11.578560000000039  L 41.813440000000014 11.578560000000039  L 41.813440000000014 13.206719999999905  Z M 38.03487903999999 3.8063992319999898  L 36.46815903999999 3.4531192320000628  C 35.43904096 4.850879520000035  34.24095904000001 5.926079904000062  32.87392 6.694079615999954  L 33.887679039999966 7.922880287999988  C 34.48671999999999 7.538879712000039  35.070401919999995 7.10879971199995  35.63872095999997 6.63263942399999  C 36.130241919999975 7.062719904000005  36.66783903999999 7.462079807999999  37.25152095999999 7.830719615999897  C 35.70016000000001 8.322239711999941  33.79551903999999 8.736959807999938  31.53760095999999 9.059520288000044  L 32.15200095999998 10.487999999999943  C 34.88607999999999 10.042559040000015  37.128639039999996 9.458879711999998  38.91040192 8.721599136000009  C 40.75359999999998 9.566400191999946  42.88864287999999 10.057919040000002  45.31552288 10.196159999999963  L 45.684160959999986 8.752319616000023  C 43.84095904 8.660159904000011  42.16672 8.352960191999955  40.661439039999976 7.861439231999952  C 41.67520288 7.247039808000068  42.42783903999998 6.57119980799996  42.95008192 5.818559903999926  L 42.95008192 4.543679807999979  L 37.52799904 4.543679807999979  C 37.69696191999998 4.313279136000006  37.86591999999999 4.067519520000019  38.03487903999999 3.8063992319999898  Z M 41.01471903999999 5.8953598079999665  C 40.47712192 6.356159808000029  39.785919999999976 6.770879519999994  38.95648191999999 7.170239903999914  C 38.20384192 6.801599615999976  37.49728191999998 6.386879904000011  36.83680192 5.8953598079999665  L 41.01471903999999 5.8953598079999665  Z M 45.11584192000001 5.1119998079999505  L 45.11584192000001 1.9171197119999306  L 39.41728191999999 1.9171197119999306  C 39.279040959999975 1.517759424000019  39.140799999999984 1.1644793279999703  38.98719999999997 0.8265591455999584  L 37.205440959999976 1.1030392320000146  C 37.374399039999986 1.348799711999959  37.52799904 1.625279808000073  37.68159904000001 1.9171197119999306  L 32.24416095999999 1.9171197119999306  L 32.24416095999999 5.1119998079999505  L 33.872320959999996 5.1119998079999505  L 33.872320959999996 3.3455997119999665  L 43.48767903999999 3.3455997119999665  L 43.48767903999999 5.1119998079999505  L 45.11584192000001 5.1119998079999505  Z M 49.37056191999997 8.598719807999942  L 49.37056191999997 6.479039616000023  L 51.382721919999994 6.479039616000023  L 51.382721919999994 8.598719807999942  L 49.37056191999997 8.598719807999942  Z M 51.382721919999994 2.90015990400002  L 51.382721919999994 5.050559711999995  L 49.37056191999997 5.050559711999995  L 49.37056191999997 2.90015990400002  L 51.382721919999994 2.90015990400002  Z M 48.21856095999999 15.203520000000026  C 48.84831903999998 13.836480000000051  49.21696191999999 12.116159999999923  49.33983999999998 10.042559040000015  L 51.382721919999994 10.042559040000015  L 51.382721919999994 12.96096  C 51.382721919999994 13.498559999999998  51.22911904 13.77503999999999  50.921919040000006 13.77503999999999  C 50.55328 13.77503999999999  50.16927903999999 13.744320000000016  49.754559040000004 13.713599999999929  L 50.13856096000001 15.11135999999999  L 51.36735999999999 15.11135999999999  C 52.350401919999996 15.11135999999999  52.84191903999999 14.558400000000006  52 13.483199999999897  L 52 1.4563192319999416  L 47.94207903999998 1.4563192319999416  L 47.94207903999998 9.074879135999936  C 47.92671999999999 11.102399999999989  47.619519999999994 12.77663999999993  47.00512096 14.097599999999943  L 48.21856095999999 15.203520000000026  Z M 55.28416095999998 13.836480000000051  L 55.28416095999998 8.521919904000015  L 55.407039999999995 8.521919904000015  C 55.729601919999965 9.919679999999971  56.32864287999999 11.179199999999923  57.18879903999999 12.300479999999993  C 56.65120095999998 12.899520000000052  56.02143903999999 13.406399999999962  55.28416095999998 13.836480000000051  Z M 55.28416095999998 15.172799999999938  L 55.28416095999998 13.95936000000006  L 56.05216095999998 15.157439999999951  C 56.88159904 14.711999999999989  57.618880959999984 14.143679999999904  58.23327999999998 13.467840000000024  C 58.847679039999974 14.06687999999997  59.58496095999999 14.619840000000067  60.44512096 15.142079999999964  L 61.228479039999996 13.77503999999999  C 60.44512096 13.31424000000004  59.753919999999994 12.79200000000003  59.139520000000005 12.208319999999958  C 59.753919999999994 11.16384000000005  60.199359999999984 9.904319040000019  60.46047999999999 8.445119903999966  L 60.46047999999999 7.10879971199995  L 55.28416095999998 7.10879971199995  L 55.28416095999998 2.90015990400002  L 58.78624000000002 2.90015990400002  C 58.75552288 3.8678393279999455  58.694080000000014 4.466879904000052  58.61728191999998 4.712639423999917  C 58.52512095999998 4.927679423999962  58.41760095999999 5.050559711999995  58.26400192 5.096639999999979  C 58.12576095999998 5.127359616000035  57.89535903999999 5.158079231999977  57.5728 5.158079231999977  C 57.15808095999998 5.158079231999977  56.820160000000016 5.142719423999893  56.574399039999975 5.142719423999893  L 57.004480959999995 6.509759712000005  L 58.29471903999999 6.509759712000005  C 59.277760959999995 6.509759712000005  59.87680191999999 6.171839423999927  60.061119039999994 5.526719999999955  C 60.245440959999996 4.850879520000035  60.352959999999996 3.4838397119999627  60.352959999999996 1.4563192319999416  L 53 1.4563192319999416  L 53 15.172799999999938  L 55.28416095999998 15.172799999999938  Z M 58.079679999999996 11.040959039999962  C 57.49599807999999 10.288319999999999  57.06591999999998 9.443519904000027  56.77408 8.521919904000015  L 59.04736 8.521919904000015  C 58.81696191999998 9.458879711999998  58.49439903999999 10.303679999999986  58.079679999999996 11.040959039999962  Z " fill-rule="evenodd" />
    </mask>
  </defs>
  <g transform="matrix(1 0 0 1 -1904 -629 )">
    <path d="M 9.188800671999985 4.128959615999975  L 7.284160479999997 4.128959615999975  L 7.284160479999997 5.634239519999937  L 10.110400959999993 5.634239519999937  L 10.110400959999993 6.202559519999909  C 10.110400959999993 6.755519712000023  10.079679999999996 7.27775990400005  10.018239999999992 7.799999519999915  L 7.038400383999999 7.799999519999915  L 7.038400383999999 9.33600038399993  L 9.787840288000012 9.33600038399993  C 9.311679999999996 11.45568000000003  8.297920191999992 13.00703999999996  6.746560479999971 13.95936000000006  L 7.714240383999993 15.264959999999974  C 9.311679999999996 14.220479999999952  10.417599999999993 12.638399999999933  11.047360959999992 10.534079999999904  C 11.53888096 12.070079999999962  12.537280960000004 13.621440000000007  14.042560000000009 15.188160000000039  L 15.14848096 13.99007999999992  C 13.458880959999988 12.423360000000002  12.39904095999998 10.872000000000071  11.984319999999997 9.33600038399993  L 14.902719999999988 9.33600038399993  L 14.902719999999988 7.799999519999915  L 11.56959999999998 7.799999519999915  C 11.631040000000013 7.185599711999998  11.661760959999981 6.525119519999976  11.661760959999981 5.833919712000011  L 11.661760959999981 5.634239519999937  L 14.626239999999996 5.634239519999937  L 14.626239999999996 4.128959615999975  L 12.67552096 4.128959615999975  C 13.105600960000004 3.407039808000036  13.53568095999998 2.5315191360000426  13.965760959999983 1.517759424000019  L 12.475840000000005 0.9494393951999882  C 12.091840959999985 2.0860794239999905  11.631040000000013 3.1459195200000067  11.09344096000001 4.128959615999975  L 9.311679999999996 4.128959615999975  L 10.40224096 3.3609595200000513  C 10.095040959999977 2.6851199039999756  9.649600192000008 1.9017590400000017  9.08128019199998 1.0108795200000031  L 7.852480479999997 1.7942395199999055  C 8.405440671999969 2.639039615999991  8.85088048 3.422399616000007  9.188800671999985 4.128959615999975  Z M 7.161280191999992 1.4255997120000075  L 0.9251200479999966 1.4255997120000075  L 0.9251200479999966 2.90015990400002  L 1.6931200960000012 2.90015990400002  L 1.6931200960000012 11.870400000000018  L 0.8483200095999734 11.993280000000027  L 1.2323200383999904 13.513919999999985  C 2.461120096000002 13.268159999999966  3.643840191999999 13.00703999999996  4.795839999999998 12.730559999999969  L 4.795839999999998 15.172799999999938  L 6.3472001920000025 15.172799999999938  L 6.3472001920000025 12.300479999999993  C 6.623680287999974 12.223679999999945  6.9155201920000025 12.14688000000001  7.192000288000003 12.054719999999975  L 7.192000288000003 10.503360000000043  C 6.9155201920000025 10.595519999999965  6.639040479999977 10.687679040000035  6.3472001920000025 10.779840000000036  L 6.3472001920000025 2.90015990400002  L 7.161280191999992 2.90015990400002  L 7.161280191999992 1.4255997120000075  Z M 4.795839999999998 11.225279999999998  C 4.2736002880000115 11.348160000000007  3.751360191999993 11.471039039999937  3.213760191999995 11.593920000000026  L 3.213760191999995 9.35135923200005  L 4.795839999999998 9.35135923200005  L 4.795839999999998 11.225279999999998  Z M 4.795839999999998 7.907519520000051  L 3.213760191999995 7.907519520000051  L 3.213760191999995 6.15647961600007  L 4.795839999999998 6.15647961600007  L 4.795839999999998 7.907519520000051  Z M 4.795839999999998 4.712639423999917  L 3.213760191999995 4.712639423999917  L 3.213760191999995 2.90015990400002  L 4.795839999999998 2.90015990400002  L 4.795839999999998 4.712639423999917  Z M 21.046719999999993 15.11135999999999  L 22.797760960000005 15.11135999999999  C 23.796160000000015 15.11135999999999  24.30303999999998 14.589120959999946  24.30303999999998 13.559999999999945  L 24.30303999999998 9.781439999999975  C 25.47040192 9.689280384000085  26.54560096 9.59711971199988  27.52864096000002 9.489600192000012  C 27.866559999999993 9.99648000000002  28.189120959999997 10.487999999999943  28.465600960000017 10.97951999999998  L 29.74047999999999 10.103999999999928  C 29.06464095999999 8.98272038399989  28.081600960000003 7.6771197119999215  26.806719999999984 6.1871997120000515  L 25.624001919999984 6.924479808000001  C 25.961920959999986 7.354559807999976  26.29983999999999 7.784639712000057  26.622400959999993 8.214719231999993  C 25.117121919999988 8.399039615999982  23.35072095999999 8.552640383999915  21.353919999999988 8.690879520000067  C 23.10496096 7.6771197119999215  25.17856096 6.141119807999985  27.559359999999998 4.098239135999961  L 26.084800959999995 3.3763192320000144  C 25.408960959999973 3.9907196159999785  24.763841920000004 4.559039616000064  24.13408000000001 5.0812793280000506  C 23.120319999999992 5.158079231999977  22.09120095999998 5.234879136000018  21.077439999999967 5.2963192319999735  C 21.89152095999998 4.712639423999917  22.674880959999996 3.9753598080000074  23.412160959999994 3.1151999040000646  C 25.654719039999975 2.961599136000018  27.59008191999999 2.7158395200000314  29.233599999999996 2.3779193279999618  L 28.450241919999996 1.0415991167999437  C 25.37824096 1.6099191360000304  21.64576095999999 1.9017590400000017  17.252800000000008 1.9017590400000017  L 17.713599999999985 3.284159520000003  C 19.003839999999997 3.284159520000003  20.232639999999975 3.253439904000061  21.430720000000008 3.2227194239999335  C 20.63200095999997 4.113599808000004  19.971520959999992 4.681919903999983  19.43392 4.9430392320000465  C 19.095999999999975 5.096639999999979  18.74271999999999 5.188799711999991  18.35872096 5.234879136000018  L 18.681279039999993 6.63263942399999  C 20.002240959999995 6.5558395199999495  21.277119999999996 6.479039616000023  22.475200959999995 6.386879904000011  C 21.184960960000012 7.3238397119999945  20.002240959999995 8.015039040000033  18.942400959999986 8.475839520000022  C 18.52767904000001 8.629440288000069  18.066879999999998 8.721599136000009  17.560000000000002 8.767679423999994  L 18.005440959999987 10.16543999999999  C 19.695039039999983 10.088640000000055  21.246399999999994 9.99648000000002  22.69023999999999 9.904319040000019  L 22.69023999999999 13.160639999999944  C 22.69023999999999 13.483199999999897  22.536639999999977 13.65215999999998  22.244800959999992 13.65215999999998  C 21.737920959999997 13.65215999999998  21.215680959999986 13.60608000000002  20.67808095999999 13.544640000000072  L 21.046719999999993 15.11135999999999  Z M 30.170561919999983 13.713599999999929  C 29.141440959999983 12.623039999999946  27.866559999999993 11.532479999999964  26.36127904 10.426559999999995  L 25.30143903999999 11.45568000000003  C 26.914239039999984 12.66912000000002  28.158400959999994 13.805759999999964  29.033919999999995 14.850239999999985  L 30.170561919999983 13.713599999999929  Z M 21.23104096 11.532479999999964  L 20.109759999999994 10.534079999999904  C 19.095999999999975 11.655359999999973  17.867199999999997 12.638399999999933  16.39264 13.483199999999897  L 17.39103904000001 14.788799999999924  C 18.927040000000005 13.867200000000025  20.201920959999995 12.77663999999993  21.23104096 11.532479999999964  Z M 43.38016000000002 15.203520000000026  L 43.38016000000002 10.150080000000003  L 34.25631808 10.150080000000003  L 34.25631808 15.203520000000026  L 35.80767903999998 15.203520000000026  L 35.80767903999998 14.650559999999928  L 41.813440000000014 14.650559999999928  L 41.813440000000014 15.203520000000026  L 43.38016000000002 15.203520000000026  Z M 41.813440000000014 13.206719999999905  L 35.80767903999998 13.206719999999905  L 35.80767903999998 11.578560000000039  L 41.813440000000014 11.578560000000039  L 41.813440000000014 13.206719999999905  Z M 38.03487903999999 3.8063992319999898  L 36.46815903999999 3.4531192320000628  C 35.43904096 4.850879520000035  34.24095904000001 5.926079904000062  32.87392 6.694079615999954  L 33.887679039999966 7.922880287999988  C 34.48671999999999 7.538879712000039  35.070401919999995 7.10879971199995  35.63872095999997 6.63263942399999  C 36.130241919999975 7.062719904000005  36.66783903999999 7.462079807999999  37.25152095999999 7.830719615999897  C 35.70016000000001 8.322239711999941  33.79551903999999 8.736959807999938  31.53760095999999 9.059520288000044  L 32.15200095999998 10.487999999999943  C 34.88607999999999 10.042559040000015  37.128639039999996 9.458879711999998  38.91040192 8.721599136000009  C 40.75359999999998 9.566400191999946  42.88864287999999 10.057919040000002  45.31552288 10.196159999999963  L 45.684160959999986 8.752319616000023  C 43.84095904 8.660159904000011  42.16672 8.352960191999955  40.661439039999976 7.861439231999952  C 41.67520288 7.247039808000068  42.42783903999998 6.57119980799996  42.95008192 5.818559903999926  L 42.95008192 4.543679807999979  L 37.52799904 4.543679807999979  C 37.69696191999998 4.313279136000006  37.86591999999999 4.067519520000019  38.03487903999999 3.8063992319999898  Z M 41.01471903999999 5.8953598079999665  C 40.47712192 6.356159808000029  39.785919999999976 6.770879519999994  38.95648191999999 7.170239903999914  C 38.20384192 6.801599615999976  37.49728191999998 6.386879904000011  36.83680192 5.8953598079999665  L 41.01471903999999 5.8953598079999665  Z M 45.11584192000001 5.1119998079999505  L 45.11584192000001 1.9171197119999306  L 39.41728191999999 1.9171197119999306  C 39.279040959999975 1.517759424000019  39.140799999999984 1.1644793279999703  38.98719999999997 0.8265591455999584  L 37.205440959999976 1.1030392320000146  C 37.374399039999986 1.348799711999959  37.52799904 1.625279808000073  37.68159904000001 1.9171197119999306  L 32.24416095999999 1.9171197119999306  L 32.24416095999999 5.1119998079999505  L 33.872320959999996 5.1119998079999505  L 33.872320959999996 3.3455997119999665  L 43.48767903999999 3.3455997119999665  L 43.48767903999999 5.1119998079999505  L 45.11584192000001 5.1119998079999505  Z M 49.37056191999997 8.598719807999942  L 49.37056191999997 6.479039616000023  L 51.382721919999994 6.479039616000023  L 51.382721919999994 8.598719807999942  L 49.37056191999997 8.598719807999942  Z M 51.382721919999994 2.90015990400002  L 51.382721919999994 5.050559711999995  L 49.37056191999997 5.050559711999995  L 49.37056191999997 2.90015990400002  L 51.382721919999994 2.90015990400002  Z M 48.21856095999999 15.203520000000026  C 48.84831903999998 13.836480000000051  49.21696191999999 12.116159999999923  49.33983999999998 10.042559040000015  L 51.382721919999994 10.042559040000015  L 51.382721919999994 12.96096  C 51.382721919999994 13.498559999999998  51.22911904 13.77503999999999  50.921919040000006 13.77503999999999  C 50.55328 13.77503999999999  50.16927903999999 13.744320000000016  49.754559040000004 13.713599999999929  L 50.13856096000001 15.11135999999999  L 51.36735999999999 15.11135999999999  C 52.350401919999996 15.11135999999999  52.84191903999999 14.558400000000006  52 13.483199999999897  L 52 1.4563192319999416  L 47.94207903999998 1.4563192319999416  L 47.94207903999998 9.074879135999936  C 47.92671999999999 11.102399999999989  47.619519999999994 12.77663999999993  47.00512096 14.097599999999943  L 48.21856095999999 15.203520000000026  Z M 55.28416095999998 13.836480000000051  L 55.28416095999998 8.521919904000015  L 55.407039999999995 8.521919904000015  C 55.729601919999965 9.919679999999971  56.32864287999999 11.179199999999923  57.18879903999999 12.300479999999993  C 56.65120095999998 12.899520000000052  56.02143903999999 13.406399999999962  55.28416095999998 13.836480000000051  Z M 55.28416095999998 15.172799999999938  L 55.28416095999998 13.95936000000006  L 56.05216095999998 15.157439999999951  C 56.88159904 14.711999999999989  57.618880959999984 14.143679999999904  58.23327999999998 13.467840000000024  C 58.847679039999974 14.06687999999997  59.58496095999999 14.619840000000067  60.44512096 15.142079999999964  L 61.228479039999996 13.77503999999999  C 60.44512096 13.31424000000004  59.753919999999994 12.79200000000003  59.139520000000005 12.208319999999958  C 59.753919999999994 11.16384000000005  60.199359999999984 9.904319040000019  60.46047999999999 8.445119903999966  L 60.46047999999999 7.10879971199995  L 55.28416095999998 7.10879971199995  L 55.28416095999998 2.90015990400002  L 58.78624000000002 2.90015990400002  C 58.75552288 3.8678393279999455  58.694080000000014 4.466879904000052  58.61728191999998 4.712639423999917  C 58.52512095999998 4.927679423999962  58.41760095999999 5.050559711999995  58.26400192 5.096639999999979  C 58.12576095999998 5.127359616000035  57.89535903999999 5.158079231999977  57.5728 5.158079231999977  C 57.15808095999998 5.158079231999977  56.820160000000016 5.142719423999893  56.574399039999975 5.142719423999893  L 57.004480959999995 6.509759712000005  L 58.29471903999999 6.509759712000005  C 59.277760959999995 6.509759712000005  59.87680191999999 6.171839423999927  60.061119039999994 5.526719999999955  C 60.245440959999996 4.850879520000035  60.352959999999996 3.4838397119999627  60.352959999999996 1.4563192319999416  L 53 1.4563192319999416  L 53 15.172799999999938  L 55.28416095999998 15.172799999999938  Z M 58.079679999999996 11.040959039999962  C 57.49599807999999 10.288319999999999  57.06591999999998 9.443519904000027  56.77408 8.521919904000015  L 59.04736 8.521919904000015  C 58.81696191999998 9.458879711999998  58.49439903999999 10.303679999999986  58.079679999999996 11.040959039999962  Z " fill-rule="nonzero" fill="rgba(255, 255, 255, 1)" stroke="none" transform="matrix(1 0 0 1 1904 629 )" class="fill" />
    <path d="M 9.188800671999985 4.128959615999975  L 7.284160479999997 4.128959615999975  L 7.284160479999997 5.634239519999937  L 10.110400959999993 5.634239519999937  L 10.110400959999993 6.202559519999909  C 10.110400959999993 6.755519712000023  10.079679999999996 7.27775990400005  10.018239999999992 7.799999519999915  L 7.038400383999999 7.799999519999915  L 7.038400383999999 9.33600038399993  L 9.787840288000012 9.33600038399993  C 9.311679999999996 11.45568000000003  8.297920191999992 13.00703999999996  6.746560479999971 13.95936000000006  L 7.714240383999993 15.264959999999974  C 9.311679999999996 14.220479999999952  10.417599999999993 12.638399999999933  11.047360959999992 10.534079999999904  C 11.53888096 12.070079999999962  12.537280960000004 13.621440000000007  14.042560000000009 15.188160000000039  L 15.14848096 13.99007999999992  C 13.458880959999988 12.423360000000002  12.39904095999998 10.872000000000071  11.984319999999997 9.33600038399993  L 14.902719999999988 9.33600038399993  L 14.902719999999988 7.799999519999915  L 11.56959999999998 7.799999519999915  C 11.631040000000013 7.185599711999998  11.661760959999981 6.525119519999976  11.661760959999981 5.833919712000011  L 11.661760959999981 5.634239519999937  L 14.626239999999996 5.634239519999937  L 14.626239999999996 4.128959615999975  L 12.67552096 4.128959615999975  C 13.105600960000004 3.407039808000036  13.53568095999998 2.5315191360000426  13.965760959999983 1.517759424000019  L 12.475840000000005 0.9494393951999882  C 12.091840959999985 2.0860794239999905  11.631040000000013 3.1459195200000067  11.09344096000001 4.128959615999975  L 9.311679999999996 4.128959615999975  L 10.40224096 3.3609595200000513  C 10.095040959999977 2.6851199039999756  9.649600192000008 1.9017590400000017  9.08128019199998 1.0108795200000031  L 7.852480479999997 1.7942395199999055  C 8.405440671999969 2.639039615999991  8.85088048 3.422399616000007  9.188800671999985 4.128959615999975  Z " stroke-width="0" stroke-dasharray="0" stroke="rgba(255, 255, 255, 0)" fill="none" transform="matrix(1 0 0 1 1904 629 )" class="stroke" mask="url(#Clip6706)" />
    <path d="M 7.161280191999992 1.4255997120000075  L 0.9251200479999966 1.4255997120000075  L 0.9251200479999966 2.90015990400002  L 1.6931200960000012 2.90015990400002  L 1.6931200960000012 11.870400000000018  L 0.8483200095999734 11.993280000000027  L 1.2323200383999904 13.513919999999985  C 2.461120096000002 13.268159999999966  3.643840191999999 13.00703999999996  4.795839999999998 12.730559999999969  L 4.795839999999998 15.172799999999938  L 6.3472001920000025 15.172799999999938  L 6.3472001920000025 12.300479999999993  C 6.623680287999974 12.223679999999945  6.9155201920000025 12.14688000000001  7.192000288000003 12.054719999999975  L 7.192000288000003 10.503360000000043  C 6.9155201920000025 10.595519999999965  6.639040479999977 10.687679040000035  6.3472001920000025 10.779840000000036  L 6.3472001920000025 2.90015990400002  L 7.161280191999992 2.90015990400002  L 7.161280191999992 1.4255997120000075  Z " stroke-width="0" stroke-dasharray="0" stroke="rgba(255, 255, 255, 0)" fill="none" transform="matrix(1 0 0 1 1904 629 )" class="stroke" mask="url(#Clip6706)" />
    <path d="M 4.795839999999998 11.225279999999998  C 4.2736002880000115 11.348160000000007  3.751360191999993 11.471039039999937  3.213760191999995 11.593920000000026  L 3.213760191999995 9.35135923200005  L 4.795839999999998 9.35135923200005  L 4.795839999999998 11.225279999999998  Z " stroke-width="0" stroke-dasharray="0" stroke="rgba(255, 255, 255, 0)" fill="none" transform="matrix(1 0 0 1 1904 629 )" class="stroke" mask="url(#Clip6706)" />
    <path d="M 4.795839999999998 7.907519520000051  L 3.213760191999995 7.907519520000051  L 3.213760191999995 6.15647961600007  L 4.795839999999998 6.15647961600007  L 4.795839999999998 7.907519520000051  Z " stroke-width="0" stroke-dasharray="0" stroke="rgba(255, 255, 255, 0)" fill="none" transform="matrix(1 0 0 1 1904 629 )" class="stroke" mask="url(#Clip6706)" />
    <path d="M 4.795839999999998 4.712639423999917  L 3.213760191999995 4.712639423999917  L 3.213760191999995 2.90015990400002  L 4.795839999999998 2.90015990400002  L 4.795839999999998 4.712639423999917  Z " stroke-width="0" stroke-dasharray="0" stroke="rgba(255, 255, 255, 0)" fill="none" transform="matrix(1 0 0 1 1904 629 )" class="stroke" mask="url(#Clip6706)" />
    <path d="M 21.046719999999993 15.11135999999999  L 22.797760960000005 15.11135999999999  C 23.796160000000015 15.11135999999999  24.30303999999998 14.589120959999946  24.30303999999998 13.559999999999945  L 24.30303999999998 9.781439999999975  C 25.47040192 9.689280384000085  26.54560096 9.59711971199988  27.52864096000002 9.489600192000012  C 27.866559999999993 9.99648000000002  28.189120959999997 10.487999999999943  28.465600960000017 10.97951999999998  L 29.74047999999999 10.103999999999928  C 29.06464095999999 8.98272038399989  28.081600960000003 7.6771197119999215  26.806719999999984 6.1871997120000515  L 25.624001919999984 6.924479808000001  C 25.961920959999986 7.354559807999976  26.29983999999999 7.784639712000057  26.622400959999993 8.214719231999993  C 25.117121919999988 8.399039615999982  23.35072095999999 8.552640383999915  21.353919999999988 8.690879520000067  C 23.10496096 7.6771197119999215  25.17856096 6.141119807999985  27.559359999999998 4.098239135999961  L 26.084800959999995 3.3763192320000144  C 25.408960959999973 3.9907196159999785  24.763841920000004 4.559039616000064  24.13408000000001 5.0812793280000506  C 23.120319999999992 5.158079231999977  22.09120095999998 5.234879136000018  21.077439999999967 5.2963192319999735  C 21.89152095999998 4.712639423999917  22.674880959999996 3.9753598080000074  23.412160959999994 3.1151999040000646  C 25.654719039999975 2.961599136000018  27.59008191999999 2.7158395200000314  29.233599999999996 2.3779193279999618  L 28.450241919999996 1.0415991167999437  C 25.37824096 1.6099191360000304  21.64576095999999 1.9017590400000017  17.252800000000008 1.9017590400000017  L 17.713599999999985 3.284159520000003  C 19.003839999999997 3.284159520000003  20.232639999999975 3.253439904000061  21.430720000000008 3.2227194239999335  C 20.63200095999997 4.113599808000004  19.971520959999992 4.681919903999983  19.43392 4.9430392320000465  C 19.095999999999975 5.096639999999979  18.74271999999999 5.188799711999991  18.35872096 5.234879136000018  L 18.681279039999993 6.63263942399999  C 20.002240959999995 6.5558395199999495  21.277119999999996 6.479039616000023  22.475200959999995 6.386879904000011  C 21.184960960000012 7.3238397119999945  20.002240959999995 8.015039040000033  18.942400959999986 8.475839520000022  C 18.52767904000001 8.629440288000069  18.066879999999998 8.721599136000009  17.560000000000002 8.767679423999994  L 18.005440959999987 10.16543999999999  C 19.695039039999983 10.088640000000055  21.246399999999994 9.99648000000002  22.69023999999999 9.904319040000019  L 22.69023999999999 13.160639999999944  C 22.69023999999999 13.483199999999897  22.536639999999977 13.65215999999998  22.244800959999992 13.65215999999998  C 21.737920959999997 13.65215999999998  21.215680959999986 13.60608000000002  20.67808095999999 13.544640000000072  L 21.046719999999993 15.11135999999999  Z " stroke-width="0" stroke-dasharray="0" stroke="rgba(255, 255, 255, 0)" fill="none" transform="matrix(1 0 0 1 1904 629 )" class="stroke" mask="url(#Clip6706)" />
    <path d="M 30.170561919999983 13.713599999999929  C 29.141440959999983 12.623039999999946  27.866559999999993 11.532479999999964  26.36127904 10.426559999999995  L 25.30143903999999 11.45568000000003  C 26.914239039999984 12.66912000000002  28.158400959999994 13.805759999999964  29.033919999999995 14.850239999999985  L 30.170561919999983 13.713599999999929  Z " stroke-width="0" stroke-dasharray="0" stroke="rgba(255, 255, 255, 0)" fill="none" transform="matrix(1 0 0 1 1904 629 )" class="stroke" mask="url(#Clip6706)" />
    <path d="M 21.23104096 11.532479999999964  L 20.109759999999994 10.534079999999904  C 19.095999999999975 11.655359999999973  17.867199999999997 12.638399999999933  16.39264 13.483199999999897  L 17.39103904000001 14.788799999999924  C 18.927040000000005 13.867200000000025  20.201920959999995 12.77663999999993  21.23104096 11.532479999999964  Z " stroke-width="0" stroke-dasharray="0" stroke="rgba(255, 255, 255, 0)" fill="none" transform="matrix(1 0 0 1 1904 629 )" class="stroke" mask="url(#Clip6706)" />
    <path d="M 43.38016000000002 15.203520000000026  L 43.38016000000002 10.150080000000003  L 34.25631808 10.150080000000003  L 34.25631808 15.203520000000026  L 35.80767903999998 15.203520000000026  L 35.80767903999998 14.650559999999928  L 41.813440000000014 14.650559999999928  L 41.813440000000014 15.203520000000026  L 43.38016000000002 15.203520000000026  Z " stroke-width="0" stroke-dasharray="0" stroke="rgba(255, 255, 255, 0)" fill="none" transform="matrix(1 0 0 1 1904 629 )" class="stroke" mask="url(#Clip6706)" />
    <path d="M 41.813440000000014 13.206719999999905  L 35.80767903999998 13.206719999999905  L 35.80767903999998 11.578560000000039  L 41.813440000000014 11.578560000000039  L 41.813440000000014 13.206719999999905  Z " stroke-width="0" stroke-dasharray="0" stroke="rgba(255, 255, 255, 0)" fill="none" transform="matrix(1 0 0 1 1904 629 )" class="stroke" mask="url(#Clip6706)" />
    <path d="M 38.03487903999999 3.8063992319999898  L 36.46815903999999 3.4531192320000628  C 35.43904096 4.850879520000035  34.24095904000001 5.926079904000062  32.87392 6.694079615999954  L 33.887679039999966 7.922880287999988  C 34.48671999999999 7.538879712000039  35.070401919999995 7.10879971199995  35.63872095999997 6.63263942399999  C 36.130241919999975 7.062719904000005  36.66783903999999 7.462079807999999  37.25152095999999 7.830719615999897  C 35.70016000000001 8.322239711999941  33.79551903999999 8.736959807999938  31.53760095999999 9.059520288000044  L 32.15200095999998 10.487999999999943  C 34.88607999999999 10.042559040000015  37.128639039999996 9.458879711999998  38.91040192 8.721599136000009  C 40.75359999999998 9.566400191999946  42.88864287999999 10.057919040000002  45.31552288 10.196159999999963  L 45.684160959999986 8.752319616000023  C 43.84095904 8.660159904000011  42.16672 8.352960191999955  40.661439039999976 7.861439231999952  C 41.67520288 7.247039808000068  42.42783903999998 6.57119980799996  42.95008192 5.818559903999926  L 42.95008192 4.543679807999979  L 37.52799904 4.543679807999979  C 37.69696191999998 4.313279136000006  37.86591999999999 4.067519520000019  38.03487903999999 3.8063992319999898  Z " stroke-width="0" stroke-dasharray="0" stroke="rgba(255, 255, 255, 0)" fill="none" transform="matrix(1 0 0 1 1904 629 )" class="stroke" mask="url(#Clip6706)" />
    <path d="M 41.01471903999999 5.8953598079999665  C 40.47712192 6.356159808000029  39.785919999999976 6.770879519999994  38.95648191999999 7.170239903999914  C 38.20384192 6.801599615999976  37.49728191999998 6.386879904000011  36.83680192 5.8953598079999665  L 41.01471903999999 5.8953598079999665  Z " stroke-width="0" stroke-dasharray="0" stroke="rgba(255, 255, 255, 0)" fill="none" transform="matrix(1 0 0 1 1904 629 )" class="stroke" mask="url(#Clip6706)" />
    <path d="M 45.11584192000001 5.1119998079999505  L 45.11584192000001 1.9171197119999306  L 39.41728191999999 1.9171197119999306  C 39.279040959999975 1.517759424000019  39.140799999999984 1.1644793279999703  38.98719999999997 0.8265591455999584  L 37.205440959999976 1.1030392320000146  C 37.374399039999986 1.348799711999959  37.52799904 1.625279808000073  37.68159904000001 1.9171197119999306  L 32.24416095999999 1.9171197119999306  L 32.24416095999999 5.1119998079999505  L 33.872320959999996 5.1119998079999505  L 33.872320959999996 3.3455997119999665  L 43.48767903999999 3.3455997119999665  L 43.48767903999999 5.1119998079999505  L 45.11584192000001 5.1119998079999505  Z " stroke-width="0" stroke-dasharray="0" stroke="rgba(255, 255, 255, 0)" fill="none" transform="matrix(1 0 0 1 1904 629 )" class="stroke" mask="url(#Clip6706)" />
    <path d="M 49.37056191999997 8.598719807999942  L 49.37056191999997 6.479039616000023  L 51.382721919999994 6.479039616000023  L 51.382721919999994 8.598719807999942  L 49.37056191999997 8.598719807999942  Z " stroke-width="0" stroke-dasharray="0" stroke="rgba(255, 255, 255, 0)" fill="none" transform="matrix(1 0 0 1 1904 629 )" class="stroke" mask="url(#Clip6706)" />
    <path d="M 51.382721919999994 2.90015990400002  L 51.382721919999994 5.050559711999995  L 49.37056191999997 5.050559711999995  L 49.37056191999997 2.90015990400002  L 51.382721919999994 2.90015990400002  Z " stroke-width="0" stroke-dasharray="0" stroke="rgba(255, 255, 255, 0)" fill="none" transform="matrix(1 0 0 1 1904 629 )" class="stroke" mask="url(#Clip6706)" />
    <path d="M 48.21856095999999 15.203520000000026  C 48.84831903999998 13.836480000000051  49.21696191999999 12.116159999999923  49.33983999999998 10.042559040000015  L 51.382721919999994 10.042559040000015  L 51.382721919999994 12.96096  C 51.382721919999994 13.498559999999998  51.22911904 13.77503999999999  50.921919040000006 13.77503999999999  C 50.55328 13.77503999999999  50.16927903999999 13.744320000000016  49.754559040000004 13.713599999999929  L 50.13856096000001 15.11135999999999  L 51.36735999999999 15.11135999999999  C 52.350401919999996 15.11135999999999  52.84191903999999 14.558400000000006  52 13.483199999999897  L 52 1.4563192319999416  L 47.94207903999998 1.4563192319999416  L 47.94207903999998 9.074879135999936  C 47.92671999999999 11.102399999999989  47.619519999999994 12.77663999999993  47.00512096 14.097599999999943  L 48.21856095999999 15.203520000000026  Z " stroke-width="0" stroke-dasharray="0" stroke="rgba(255, 255, 255, 0)" fill="none" transform="matrix(1 0 0 1 1904 629 )" class="stroke" mask="url(#Clip6706)" />
    <path d="M 55.28416095999998 13.836480000000051  L 55.28416095999998 8.521919904000015  L 55.407039999999995 8.521919904000015  C 55.729601919999965 9.919679999999971  56.32864287999999 11.179199999999923  57.18879903999999 12.300479999999993  C 56.65120095999998 12.899520000000052  56.02143903999999 13.406399999999962  55.28416095999998 13.836480000000051  Z " stroke-width="0" stroke-dasharray="0" stroke="rgba(255, 255, 255, 0)" fill="none" transform="matrix(1 0 0 1 1904 629 )" class="stroke" mask="url(#Clip6706)" />
    <path d="M 55.28416095999998 15.172799999999938  L 55.28416095999998 13.95936000000006  L 56.05216095999998 15.157439999999951  C 56.88159904 14.711999999999989  57.618880959999984 14.143679999999904  58.23327999999998 13.467840000000024  C 58.847679039999974 14.06687999999997  59.58496095999999 14.619840000000067  60.44512096 15.142079999999964  L 61.228479039999996 13.77503999999999  C 60.44512096 13.31424000000004  59.753919999999994 12.79200000000003  59.139520000000005 12.208319999999958  C 59.753919999999994 11.16384000000005  60.199359999999984 9.904319040000019  60.46047999999999 8.445119903999966  L 60.46047999999999 7.10879971199995  L 55.28416095999998 7.10879971199995  L 55.28416095999998 2.90015990400002  L 58.78624000000002 2.90015990400002  C 58.75552288 3.8678393279999455  58.694080000000014 4.466879904000052  58.61728191999998 4.712639423999917  C 58.52512095999998 4.927679423999962  58.41760095999999 5.050559711999995  58.26400192 5.096639999999979  C 58.12576095999998 5.127359616000035  57.89535903999999 5.158079231999977  57.5728 5.158079231999977  C 57.15808095999998 5.158079231999977  56.820160000000016 5.142719423999893  56.574399039999975 5.142719423999893  L 57.004480959999995 6.509759712000005  L 58.29471903999999 6.509759712000005  C 59.277760959999995 6.509759712000005  59.87680191999999 6.171839423999927  60.061119039999994 5.526719999999955  C 60.245440959999996 4.850879520000035  60.352959999999996 3.4838397119999627  60.352959999999996 1.4563192319999416  L 53 1.4563192319999416  L 53 15.172799999999938  L 55.28416095999998 15.172799999999938  Z " stroke-width="0" stroke-dasharray="0" stroke="rgba(255, 255, 255, 0)" fill="none" transform="matrix(1 0 0 1 1904 629 )" class="stroke" mask="url(#Clip6706)" />
    <path d="M 58.079679999999996 11.040959039999962  C 57.49599807999999 10.288319999999999  57.06591999999998 9.443519904000027  56.77408 8.521919904000015  L 59.04736 8.521919904000015  C 58.81696191999998 9.458879711999998  58.49439903999999 10.303679999999986  58.079679999999996 11.040959039999962  Z " stroke-width="0" stroke-dasharray="0" stroke="rgba(255, 255, 255, 0)" fill="none" transform="matrix(1 0 0 1 1904 629 )" class="stroke" mask="url(#Clip6706)" />
  </g>
</svg>