<?xml version="1.0" encoding="utf-8"?>
<svg version="1.1" xmlns:xlink="http://www.w3.org/1999/xlink" width="54px" height="13px" xmlns="http://www.w3.org/2000/svg">
  <defs>
    <pattern id="BGPattern" patternUnits="userSpaceOnUse" alignment="0 0" imageRepeat="None" />
    <mask fill="white" id="Clip9637">
      <path d="M 1.048000095999999 12.543040000000019  L 2.2576001920000017 12.543040000000019  C 3.023679999999999 12.543040000000019  3.4134401919999955 12.153280000000024  3.4134401919999955 11.400640000000038  L 3.4134401919999955 7.4358400000000415  C 3.8032000959999976 7.247679904000023  4.1929601919999975 7.059519808000033  4.569279903999998 6.85791980800002  L 4.569279903999998 5.876799904000023  C 4.1929601919999975 6.0918399040000395  3.8032000959999976 6.28000000000003  3.4134401919999955 6.468159616000008  L 3.4134401919999955 3.8473596160000345  L 4.770879999999998 3.8473596160000345  L 4.770879999999998 2.920000000000016  L 3.4134401919999955 2.920000000000016  L 3.4134401919999955 0.3798400864000371  L 2.4188801919999996 0.3798400864000371  L 2.4188801919999996 2.920000000000016  L 0.7926400383999983 2.920000000000016  L 0.7926400383999983 3.8473596160000345  L 2.4188801919999996 3.8473596160000345  L 2.4188801919999996 6.884799616000009  C 1.827520095999997 7.113280000000032  1.236160095999999 7.301439712000048  0.6313599999999973 7.449279904000036  L 0.8598400288000008 8.41695980800003  C 1.3840000959999976 8.255679616000009  1.9081600959999996 8.067519520000019  2.4188801919999996 7.86592038400002  L 2.4188801919999996 11.145280000000042  C 2.4188801919999996 11.481280000000027  2.2441599999999973 11.656000000000034  1.9216000000000015 11.656000000000034  C 1.572160096000001 11.656000000000034  1.222719999999999 11.629120000000029  0.846400028799998 11.602240000000052  L 1.048000095999999 12.543040000000019  Z M 11.679040960000002 0.8099200000000337  L 5.819199999999999 0.8099200000000337  L 5.819199999999999 5.473599808000046  L 11.679040960000002 5.473599808000046  L 11.679040960000002 0.8099200000000337  Z M 10.738239999999998 3.524800096000007  L 10.738239999999998 4.680639616000036  L 6.759999999999998 4.680639616000036  L 6.759999999999998 3.524800096000007  L 10.738239999999998 3.524800096000007  Z M 10.738239999999998 2.7721597120000183  L 6.759999999999998 2.7721597120000183  L 6.759999999999998 1.6028793280000286  L 10.738239999999998 1.6028793280000286  L 10.738239999999998 2.7721597120000183  Z M 12.56608 6.414399904000021  L 4.878399999999999 6.414399904000021  L 4.878399999999999 7.27455980800005  L 8.278720672000002 7.27455980800005  L 8.278720672000002 11.199040000000025  C 8.157760287999999 11.158720000000017  8.050239903999998 11.118400000000008  7.956160287999995 11.078080000000028  C 7.391680479999997 10.822720000000032  6.894400288 10.244800000000026  6.4643203840000005 9.34431942400002  C 6.571840383999998 8.887359616000026  6.639040095999999 8.430399808000033  6.665920383999996 7.9465600960000415  L 5.805759999999999 7.852479520000031  C 5.698240095999999 9.384640192000035  5.133760192 10.782400000000024  4.112320095999998 12.018880000000024  L 4.824640192 12.637120000000039  C 5.402559999999998 11.938240000000036  5.846080287999996 11.17216000000002  6.168640287999999 10.338880000000046  C 6.571840383999998 11.091520000000031  7.042240095999997 11.602240000000052  7.552960191999998 11.87104000000005  C 8.198080095999998 12.193600000000032  9.407680384000003 12.36832000000004  11.181759999999997 12.381760000000014  C 11.61184 12.381760000000014  12.109120959999998 12.395200000000045  12.646719999999995 12.395200000000045  L 12.915520960000002 11.454400000000021  C 12.418239999999997 11.49472000000003  11.813439999999993 11.521600000000035  11.114559999999997 11.521600000000035  C 10.375360960000002 11.521600000000035  9.743680959999999 11.481280000000027  9.206080287999995 11.400640000000038  L 9.206080287999995 9.66688000000002  L 12.015039999999999 9.66688000000002  L 12.015039999999999 8.79328000000001  L 9.206080287999995 8.79328000000001  L 9.206080287999995 7.27455980800005  L 12.56608 7.27455980800005  L 12.56608 6.414399904000021  Z M 25.280320000000003 8.309440288000019  L 25.280320000000003 0.8771197120000238  L 19.312959999999997 0.8771197120000238  L 19.312959999999997 8.309440288000019  L 20.267199999999995 8.309440288000019  L 20.267199999999995 1.8044793280000422  L 24.299199999999992 1.8044793280000422  L 24.299199999999992 8.309440288000019  L 25.280320000000003 8.309440288000019  Z M 23.586879999999994 12.448960000000028  L 24.98464096 12.448960000000028  C 25.41471904 12.448960000000028  25.737281919999994 12.341440000000034  25.95232096 12.13984000000002  C 26.180800000000005 11.897920000000028  26.342080959999997 11.212480000000028  26.422719999999998 10.110400000000027  L 25.522240959999998 9.828160000000025  C 25.46847904 10.661440000000027  25.387839039999996 11.17216000000002  25.280320000000003 11.346880000000027  C 25.186239999999998 11.481280000000027  25.02496096 11.561920000000043  24.809919999999998 11.561920000000043  L 23.869120959999997 11.561920000000043  C 23.586879999999994 11.561920000000043  23.45248 11.414080000000041  23.45248 11.13184000000004  L 23.45248 8.255679616000009  L 22.48480096 8.255679616000009  L 22.48480096 11.333440000000024  C 22.48480096 12.072640000000007  22.847679039999996 12.448960000000028  23.586879999999994 12.448960000000028  Z M 22.699839999999995 2.7587198080000235  L 21.77248 2.7587198080000235  L 21.77248 6.038079712000041  C 21.745600959999997 7.543360000000035  21.44992 8.76640019200002  20.912320960000002 9.707200000000029  C 20.33439904 10.59423904000002  19.312959999999997 11.320000000000022  17.861439039999993 11.884480000000025  L 18.385600959999998 12.704320000000024  C 19.89087904 12.13984000000002  20.966079999999998 11.346880000000027  21.611200959999998 10.35232000000002  C 22.2832 9.27711971200003  22.646079999999998 7.839039616000008  22.699839999999995 6.038079712000041  L 22.699839999999995 2.7587198080000235  Z M 15.872320960000003 5.312319616000025  L 14.326719999999993 5.312319616000025  L 14.326719999999993 6.253119616000021  L 15.872320960000003 6.253119616000021  L 15.872320960000003 9.599680000000035  C 15.280959999999991 9.760959040000046  14.689599999999999 9.89536000000001  14.0848 10.002880000000005  L 14.313279999999999 10.930240000000026  C 15.832000960000004 10.567360000000036  17.256639999999997 10.12384000000003  18.587199999999996 9.586240000000004  L 18.587199999999996 8.658879712000015  C 18.02272 8.887359616000026  17.458240960000005 9.102399616000014  16.866879999999995 9.303999616000027  L 16.866879999999995 6.253119616000021  L 18.372160960000002 6.253119616000021  L 18.372160960000002 5.312319616000025  L 16.866879999999995 5.312319616000025  L 16.866879999999995 2.1673596160000272  L 18.560319999999997 2.1673596160000272  L 18.560319999999997 1.2400000000000375  L 14.152 1.2400000000000375  L 14.152 2.1673596160000272  L 15.872320960000003 2.1673596160000272  L 15.872320960000003 5.312319616000025  Z M 28.10272 5.2585599040000375  C 28.801599039999992 4.9359999040000275  29.4736 4.573119616000042  30.118720960000008 4.183360000000022  L 30.118720960000008 4.962879808000025  L 33.16960192 4.962879808000025  L 33.16960192 6.898240096000023  L 28.371520959999998 6.898240096000023  L 28.371520959999998 7.798719808000044  L 33.16960192 7.798719808000044  L 33.16960192 11.387200000000036  L 31.624001919999998 11.387200000000036  C 31.274559039999993 10.325440000000015  30.89824096 9.411520000000024  30.48159903999999 8.658879712000015  L 29.60799904 8.981440096000028  C 30.038080960000002 9.734080000000034  30.400959039999996 10.527040000000028  30.6832 11.387200000000036  L 27.901119039999998 11.387200000000036  L 27.901119039999998 12.314560000000029  L 39.39232096 12.314560000000029  L 39.39232096 11.387200000000036  L 36.61024192 11.387200000000036  C 37.01344 10.661440000000027  37.38975807999999 9.814720000000023  37.725760959999995 8.873919712000003  L 36.838720959999996 8.564800096000027  C 36.489281919999996 9.57280000000003  36.08608 10.513600000000025  35.62911904 11.387200000000036  L 34.13728192 11.387200000000036  L 34.13728192 7.798719808000044  L 38.92191904 7.798719808000044  L 38.92191904 6.898240096000023  L 34.13728192 6.898240096000023  L 34.13728192 4.962879808000025  L 37.188159039999995 4.962879808000025  L 37.188159039999995 4.223679808000014  C 37.806400000000004 4.586559616000045  38.464960960000006 4.922560000000033  39.17728191999999 5.218239616000034  L 39.72831904 4.411839904000033  C 37.228479039999996 3.363519904000015  35.33344 2.0464001920000214  34.043198079999996 0.44703979840002717  L 33.263681919999996 0.44703979840002717  C 31.78528096 2.073280000000011  29.876799999999996 3.4038397120000354  27.53823904 4.452159712000025  L 28.10272 5.2585599040000375  Z M 33.65344 1.3609595200000228  C 34.54048 2.395839520000038  35.64255904 3.3097600960000197  36.95968 4.089279904000023  L 30.266560000000002 4.089279904000023  C 31.51648192 3.323200096000051  32.64544096 2.4092795200000126  33.65344 1.3609595200000228  Z M 41.47551904000001 6.615999904000035  C 41.82496096 6.347199712000048  42.147519999999986 6.051519616000036  42.456638080000005 5.7424000960000114  C 42.91359999999999 5.984319904000046  43.35712192000001 6.239679712000026  43.787199999999984 6.495040000000017  C 42.98079999999999 7.1939197120000244  42.01312 7.6777594240000155  40.87072096000001 7.9465600960000415  L 41.233599999999996 8.67231961600001  C 42.49696191999999 8.336320192000045  43.599040959999996 7.758400000000023  44.51295999999999 6.9251199040000415  C 45.37312 7.449279904000036  46.112320960000005 7.960000000000036  46.730561919999985 8.470719616000025  L 47.335359039999986 7.86592038400002  C 46.66336192 7.36863980800004  45.910720960000006 6.871359712000044  45.064001919999995 6.3606396160000145  C 45.50752 5.849920000000026  45.910720960000006 5.245119904000035  46.26016 4.546239808000024  L 46.26016 3.8876799040000094  L 43.74687999999999 3.8876799040000094  C 43.86783903999999 3.6188797120000236  43.97535903999999 3.323200096000051  44.082878079999986 3.014079616000032  L 43.209279039999984 2.8931200960000183  C 42.81952 4.089279904000023  42.06687999999998 5.097279616000037  40.96480095999999 5.930559712000047  L 41.47551904000001 6.615999904000035  Z M 45.30592 4.640319808000044  C 45.037121920000004 5.11071961600004  44.71455904 5.540800000000019  44.351680959999996 5.943999616000042  C 43.921599040000004 5.688639808000033  43.451200959999994 5.433280000000025  42.95392 5.177919808000013  C 43.08831904 5.003199616000046  43.209279039999984 4.828479904000034  43.330241920000006 4.640319808000044  L 45.30592 4.640319808000044  Z M 46.90528096000001 3.8473596160000345  L 46.90528096000001 1.629760096000041  L 44.647360000000006 1.629760096000041  C 44.45920000000001 1.1190396160000091  44.27104096000001 0.6755197120000389  44.082878079999986 0.2723196448000351  L 43.11519904000001 0.43359985600002915  C 43.330241920000006 0.7964800960000389  43.53184096 1.1996792320000225  43.72 1.629760096000041  L 41.26048 1.629760096000041  L 41.26048 3.860799520000029  L 42.10719999999999 3.860799520000029  L 42.10719999999999 2.4630401920000224  L 46.05856096000001 2.4630401920000224  L 46.05856096000001 3.8473596160000345  L 46.90528096000001 3.8473596160000345  Z M 46.246719999999996 12.583360000000027  L 46.246719999999996 8.497599520000023  L 42.09375999999999 8.497599520000023  L 42.09375999999999 12.583360000000027  L 42.96736 12.583360000000027  L 42.96736 11.884480000000025  L 45.38655999999999 11.884480000000025  L 45.38655999999999 12.583360000000027  L 46.246719999999996 12.583360000000027  Z M 45.38655999999999 11.064640000000026  L 42.96736 11.064640000000026  L 42.96736 9.303999616000027  L 45.38655999999999 9.303999616000027  L 45.38655999999999 11.064640000000026  Z M 53.26240191999999 0.9039996160000214  L 47.36223903999999 0.9039996160000214  L 47.36223903999999 1.7910394240000187  L 49.86208288 1.7910394240000187  C 49.80831904 2.3151999040000533  49.72767904 2.8259195200000136  49.62016 3.3097600960000197  L 47.69824096000001 3.3097600960000197  L 47.69824096000001 9.626560000000012  L 48.558400959999986 9.626560000000012  L 48.558400959999986 4.11615980800002  L 51.918400959999985 4.11615980800002  L 51.918400959999985 9.613120000000038  L 52.77856096000001 9.613120000000038  L 52.77856096000001 3.3097600960000197  L 50.52064 3.3097600960000197  C 50.62815904 2.8259195200000136  50.72223903999999 2.3286398080000197  50.78943808000001 1.7910394240000187  L 53.26240191999999 1.7910394240000187  L 53.26240191999999 0.9039996160000214  Z M 53.34304191999999 12.045760960000024  C 52.724800959999996 11.306560000000019  51.97216096 10.567360000000036  51.058240960000006 9.828160000000025  L 50.48031999999999 10.392640000000029  C 51.421119039999994 11.199040000000025  52.17376 11.95168000000001  52.71136095999999 12.664000000000044  L 53.34304191999999 12.045760960000024  Z M 50.62815904 4.90912000000003  L 49.781439039999995 4.90912000000003  L 49.781439039999995 7.355199904000045  C 49.754559040000004 8.52447932800004  49.539519999999996 9.47872000000001  49.14975808 10.21792000000002  C 48.71968 10.916800000000052  47.98048 11.481280000000027  46.91872095999999 11.911360000000002  L 47.415998079999994 12.677440000000018  C 48.531520959999995 12.23392000000004  49.337920960000005 11.615680000000026  49.835199040000006 10.80928000000003  C 50.332480000000004 9.949120000000022  50.60127904000001 8.79328000000001  50.62815904 7.355199904000045  L 50.62815904 4.90912000000003  Z " fill-rule="evenodd" />
    </mask>
  </defs>
  <g transform="matrix(1 0 0 1 -1778 -277 )">
    <path d="M 1.048000095999999 12.543040000000019  L 2.2576001920000017 12.543040000000019  C 3.023679999999999 12.543040000000019  3.4134401919999955 12.153280000000024  3.4134401919999955 11.400640000000038  L 3.4134401919999955 7.4358400000000415  C 3.8032000959999976 7.247679904000023  4.1929601919999975 7.059519808000033  4.569279903999998 6.85791980800002  L 4.569279903999998 5.876799904000023  C 4.1929601919999975 6.0918399040000395  3.8032000959999976 6.28000000000003  3.4134401919999955 6.468159616000008  L 3.4134401919999955 3.8473596160000345  L 4.770879999999998 3.8473596160000345  L 4.770879999999998 2.920000000000016  L 3.4134401919999955 2.920000000000016  L 3.4134401919999955 0.3798400864000371  L 2.4188801919999996 0.3798400864000371  L 2.4188801919999996 2.920000000000016  L 0.7926400383999983 2.920000000000016  L 0.7926400383999983 3.8473596160000345  L 2.4188801919999996 3.8473596160000345  L 2.4188801919999996 6.884799616000009  C 1.827520095999997 7.113280000000032  1.236160095999999 7.301439712000048  0.6313599999999973 7.449279904000036  L 0.8598400288000008 8.41695980800003  C 1.3840000959999976 8.255679616000009  1.9081600959999996 8.067519520000019  2.4188801919999996 7.86592038400002  L 2.4188801919999996 11.145280000000042  C 2.4188801919999996 11.481280000000027  2.2441599999999973 11.656000000000034  1.9216000000000015 11.656000000000034  C 1.572160096000001 11.656000000000034  1.222719999999999 11.629120000000029  0.846400028799998 11.602240000000052  L 1.048000095999999 12.543040000000019  Z M 11.679040960000002 0.8099200000000337  L 5.819199999999999 0.8099200000000337  L 5.819199999999999 5.473599808000046  L 11.679040960000002 5.473599808000046  L 11.679040960000002 0.8099200000000337  Z M 10.738239999999998 3.524800096000007  L 10.738239999999998 4.680639616000036  L 6.759999999999998 4.680639616000036  L 6.759999999999998 3.524800096000007  L 10.738239999999998 3.524800096000007  Z M 10.738239999999998 2.7721597120000183  L 6.759999999999998 2.7721597120000183  L 6.759999999999998 1.6028793280000286  L 10.738239999999998 1.6028793280000286  L 10.738239999999998 2.7721597120000183  Z M 12.56608 6.414399904000021  L 4.878399999999999 6.414399904000021  L 4.878399999999999 7.27455980800005  L 8.278720672000002 7.27455980800005  L 8.278720672000002 11.199040000000025  C 8.157760287999999 11.158720000000017  8.050239903999998 11.118400000000008  7.956160287999995 11.078080000000028  C 7.391680479999997 10.822720000000032  6.894400288 10.244800000000026  6.4643203840000005 9.34431942400002  C 6.571840383999998 8.887359616000026  6.639040095999999 8.430399808000033  6.665920383999996 7.9465600960000415  L 5.805759999999999 7.852479520000031  C 5.698240095999999 9.384640192000035  5.133760192 10.782400000000024  4.112320095999998 12.018880000000024  L 4.824640192 12.637120000000039  C 5.402559999999998 11.938240000000036  5.846080287999996 11.17216000000002  6.168640287999999 10.338880000000046  C 6.571840383999998 11.091520000000031  7.042240095999997 11.602240000000052  7.552960191999998 11.87104000000005  C 8.198080095999998 12.193600000000032  9.407680384000003 12.36832000000004  11.181759999999997 12.381760000000014  C 11.61184 12.381760000000014  12.109120959999998 12.395200000000045  12.646719999999995 12.395200000000045  L 12.915520960000002 11.454400000000021  C 12.418239999999997 11.49472000000003  11.813439999999993 11.521600000000035  11.114559999999997 11.521600000000035  C 10.375360960000002 11.521600000000035  9.743680959999999 11.481280000000027  9.206080287999995 11.400640000000038  L 9.206080287999995 9.66688000000002  L 12.015039999999999 9.66688000000002  L 12.015039999999999 8.79328000000001  L 9.206080287999995 8.79328000000001  L 9.206080287999995 7.27455980800005  L 12.56608 7.27455980800005  L 12.56608 6.414399904000021  Z M 25.280320000000003 8.309440288000019  L 25.280320000000003 0.8771197120000238  L 19.312959999999997 0.8771197120000238  L 19.312959999999997 8.309440288000019  L 20.267199999999995 8.309440288000019  L 20.267199999999995 1.8044793280000422  L 24.299199999999992 1.8044793280000422  L 24.299199999999992 8.309440288000019  L 25.280320000000003 8.309440288000019  Z M 23.586879999999994 12.448960000000028  L 24.98464096 12.448960000000028  C 25.41471904 12.448960000000028  25.737281919999994 12.341440000000034  25.95232096 12.13984000000002  C 26.180800000000005 11.897920000000028  26.342080959999997 11.212480000000028  26.422719999999998 10.110400000000027  L 25.522240959999998 9.828160000000025  C 25.46847904 10.661440000000027  25.387839039999996 11.17216000000002  25.280320000000003 11.346880000000027  C 25.186239999999998 11.481280000000027  25.02496096 11.561920000000043  24.809919999999998 11.561920000000043  L 23.869120959999997 11.561920000000043  C 23.586879999999994 11.561920000000043  23.45248 11.414080000000041  23.45248 11.13184000000004  L 23.45248 8.255679616000009  L 22.48480096 8.255679616000009  L 22.48480096 11.333440000000024  C 22.48480096 12.072640000000007  22.847679039999996 12.448960000000028  23.586879999999994 12.448960000000028  Z M 22.699839999999995 2.7587198080000235  L 21.77248 2.7587198080000235  L 21.77248 6.038079712000041  C 21.745600959999997 7.543360000000035  21.44992 8.76640019200002  20.912320960000002 9.707200000000029  C 20.33439904 10.59423904000002  19.312959999999997 11.320000000000022  17.861439039999993 11.884480000000025  L 18.385600959999998 12.704320000000024  C 19.89087904 12.13984000000002  20.966079999999998 11.346880000000027  21.611200959999998 10.35232000000002  C 22.2832 9.27711971200003  22.646079999999998 7.839039616000008  22.699839999999995 6.038079712000041  L 22.699839999999995 2.7587198080000235  Z M 15.872320960000003 5.312319616000025  L 14.326719999999993 5.312319616000025  L 14.326719999999993 6.253119616000021  L 15.872320960000003 6.253119616000021  L 15.872320960000003 9.599680000000035  C 15.280959999999991 9.760959040000046  14.689599999999999 9.89536000000001  14.0848 10.002880000000005  L 14.313279999999999 10.930240000000026  C 15.832000960000004 10.567360000000036  17.256639999999997 10.12384000000003  18.587199999999996 9.586240000000004  L 18.587199999999996 8.658879712000015  C 18.02272 8.887359616000026  17.458240960000005 9.102399616000014  16.866879999999995 9.303999616000027  L 16.866879999999995 6.253119616000021  L 18.372160960000002 6.253119616000021  L 18.372160960000002 5.312319616000025  L 16.866879999999995 5.312319616000025  L 16.866879999999995 2.1673596160000272  L 18.560319999999997 2.1673596160000272  L 18.560319999999997 1.2400000000000375  L 14.152 1.2400000000000375  L 14.152 2.1673596160000272  L 15.872320960000003 2.1673596160000272  L 15.872320960000003 5.312319616000025  Z M 28.10272 5.2585599040000375  C 28.801599039999992 4.9359999040000275  29.4736 4.573119616000042  30.118720960000008 4.183360000000022  L 30.118720960000008 4.962879808000025  L 33.16960192 4.962879808000025  L 33.16960192 6.898240096000023  L 28.371520959999998 6.898240096000023  L 28.371520959999998 7.798719808000044  L 33.16960192 7.798719808000044  L 33.16960192 11.387200000000036  L 31.624001919999998 11.387200000000036  C 31.274559039999993 10.325440000000015  30.89824096 9.411520000000024  30.48159903999999 8.658879712000015  L 29.60799904 8.981440096000028  C 30.038080960000002 9.734080000000034  30.400959039999996 10.527040000000028  30.6832 11.387200000000036  L 27.901119039999998 11.387200000000036  L 27.901119039999998 12.314560000000029  L 39.39232096 12.314560000000029  L 39.39232096 11.387200000000036  L 36.61024192 11.387200000000036  C 37.01344 10.661440000000027  37.38975807999999 9.814720000000023  37.725760959999995 8.873919712000003  L 36.838720959999996 8.564800096000027  C 36.489281919999996 9.57280000000003  36.08608 10.513600000000025  35.62911904 11.387200000000036  L 34.13728192 11.387200000000036  L 34.13728192 7.798719808000044  L 38.92191904 7.798719808000044  L 38.92191904 6.898240096000023  L 34.13728192 6.898240096000023  L 34.13728192 4.962879808000025  L 37.188159039999995 4.962879808000025  L 37.188159039999995 4.223679808000014  C 37.806400000000004 4.586559616000045  38.464960960000006 4.922560000000033  39.17728191999999 5.218239616000034  L 39.72831904 4.411839904000033  C 37.228479039999996 3.363519904000015  35.33344 2.0464001920000214  34.043198079999996 0.44703979840002717  L 33.263681919999996 0.44703979840002717  C 31.78528096 2.073280000000011  29.876799999999996 3.4038397120000354  27.53823904 4.452159712000025  L 28.10272 5.2585599040000375  Z M 33.65344 1.3609595200000228  C 34.54048 2.395839520000038  35.64255904 3.3097600960000197  36.95968 4.089279904000023  L 30.266560000000002 4.089279904000023  C 31.51648192 3.323200096000051  32.64544096 2.4092795200000126  33.65344 1.3609595200000228  Z M 41.47551904000001 6.615999904000035  C 41.82496096 6.347199712000048  42.147519999999986 6.051519616000036  42.456638080000005 5.7424000960000114  C 42.91359999999999 5.984319904000046  43.35712192000001 6.239679712000026  43.787199999999984 6.495040000000017  C 42.98079999999999 7.1939197120000244  42.01312 7.6777594240000155  40.87072096000001 7.9465600960000415  L 41.233599999999996 8.67231961600001  C 42.49696191999999 8.336320192000045  43.599040959999996 7.758400000000023  44.51295999999999 6.9251199040000415  C 45.37312 7.449279904000036  46.112320960000005 7.960000000000036  46.730561919999985 8.470719616000025  L 47.335359039999986 7.86592038400002  C 46.66336192 7.36863980800004  45.910720960000006 6.871359712000044  45.064001919999995 6.3606396160000145  C 45.50752 5.849920000000026  45.910720960000006 5.245119904000035  46.26016 4.546239808000024  L 46.26016 3.8876799040000094  L 43.74687999999999 3.8876799040000094  C 43.86783903999999 3.6188797120000236  43.97535903999999 3.323200096000051  44.082878079999986 3.014079616000032  L 43.209279039999984 2.8931200960000183  C 42.81952 4.089279904000023  42.06687999999998 5.097279616000037  40.96480095999999 5.930559712000047  L 41.47551904000001 6.615999904000035  Z M 45.30592 4.640319808000044  C 45.037121920000004 5.11071961600004  44.71455904 5.540800000000019  44.351680959999996 5.943999616000042  C 43.921599040000004 5.688639808000033  43.451200959999994 5.433280000000025  42.95392 5.177919808000013  C 43.08831904 5.003199616000046  43.209279039999984 4.828479904000034  43.330241920000006 4.640319808000044  L 45.30592 4.640319808000044  Z M 46.90528096000001 3.8473596160000345  L 46.90528096000001 1.629760096000041  L 44.647360000000006 1.629760096000041  C 44.45920000000001 1.1190396160000091  44.27104096000001 0.6755197120000389  44.082878079999986 0.2723196448000351  L 43.11519904000001 0.43359985600002915  C 43.330241920000006 0.7964800960000389  43.53184096 1.1996792320000225  43.72 1.629760096000041  L 41.26048 1.629760096000041  L 41.26048 3.860799520000029  L 42.10719999999999 3.860799520000029  L 42.10719999999999 2.4630401920000224  L 46.05856096000001 2.4630401920000224  L 46.05856096000001 3.8473596160000345  L 46.90528096000001 3.8473596160000345  Z M 46.246719999999996 12.583360000000027  L 46.246719999999996 8.497599520000023  L 42.09375999999999 8.497599520000023  L 42.09375999999999 12.583360000000027  L 42.96736 12.583360000000027  L 42.96736 11.884480000000025  L 45.38655999999999 11.884480000000025  L 45.38655999999999 12.583360000000027  L 46.246719999999996 12.583360000000027  Z M 45.38655999999999 11.064640000000026  L 42.96736 11.064640000000026  L 42.96736 9.303999616000027  L 45.38655999999999 9.303999616000027  L 45.38655999999999 11.064640000000026  Z M 53.26240191999999 0.9039996160000214  L 47.36223903999999 0.9039996160000214  L 47.36223903999999 1.7910394240000187  L 49.86208288 1.7910394240000187  C 49.80831904 2.3151999040000533  49.72767904 2.8259195200000136  49.62016 3.3097600960000197  L 47.69824096000001 3.3097600960000197  L 47.69824096000001 9.626560000000012  L 48.558400959999986 9.626560000000012  L 48.558400959999986 4.11615980800002  L 51.918400959999985 4.11615980800002  L 51.918400959999985 9.613120000000038  L 52.77856096000001 9.613120000000038  L 52.77856096000001 3.3097600960000197  L 50.52064 3.3097600960000197  C 50.62815904 2.8259195200000136  50.72223903999999 2.3286398080000197  50.78943808000001 1.7910394240000187  L 53.26240191999999 1.7910394240000187  L 53.26240191999999 0.9039996160000214  Z M 53.34304191999999 12.045760960000024  C 52.724800959999996 11.306560000000019  51.97216096 10.567360000000036  51.058240960000006 9.828160000000025  L 50.48031999999999 10.392640000000029  C 51.421119039999994 11.199040000000025  52.17376 11.95168000000001  52.71136095999999 12.664000000000044  L 53.34304191999999 12.045760960000024  Z M 50.62815904 4.90912000000003  L 49.781439039999995 4.90912000000003  L 49.781439039999995 7.355199904000045  C 49.754559040000004 8.52447932800004  49.539519999999996 9.47872000000001  49.14975808 10.21792000000002  C 48.71968 10.916800000000052  47.98048 11.481280000000027  46.91872095999999 11.911360000000002  L 47.415998079999994 12.677440000000018  C 48.531520959999995 12.23392000000004  49.337920960000005 11.615680000000026  49.835199040000006 10.80928000000003  C 50.332480000000004 9.949120000000022  50.60127904000001 8.79328000000001  50.62815904 7.355199904000045  L 50.62815904 4.90912000000003  Z " fill-rule="nonzero" fill="rgba(51, 51, 51, 1)" stroke="none" transform="matrix(1 0 0 1 1778 277 )" class="fill" />
    <path d="M 1.048000095999999 12.543040000000019  L 2.2576001920000017 12.543040000000019  C 3.023679999999999 12.543040000000019  3.4134401919999955 12.153280000000024  3.4134401919999955 11.400640000000038  L 3.4134401919999955 7.4358400000000415  C 3.8032000959999976 7.247679904000023  4.1929601919999975 7.059519808000033  4.569279903999998 6.85791980800002  L 4.569279903999998 5.876799904000023  C 4.1929601919999975 6.0918399040000395  3.8032000959999976 6.28000000000003  3.4134401919999955 6.468159616000008  L 3.4134401919999955 3.8473596160000345  L 4.770879999999998 3.8473596160000345  L 4.770879999999998 2.920000000000016  L 3.4134401919999955 2.920000000000016  L 3.4134401919999955 0.3798400864000371  L 2.4188801919999996 0.3798400864000371  L 2.4188801919999996 2.920000000000016  L 0.7926400383999983 2.920000000000016  L 0.7926400383999983 3.8473596160000345  L 2.4188801919999996 3.8473596160000345  L 2.4188801919999996 6.884799616000009  C 1.827520095999997 7.113280000000032  1.236160095999999 7.301439712000048  0.6313599999999973 7.449279904000036  L 0.8598400288000008 8.41695980800003  C 1.3840000959999976 8.255679616000009  1.9081600959999996 8.067519520000019  2.4188801919999996 7.86592038400002  L 2.4188801919999996 11.145280000000042  C 2.4188801919999996 11.481280000000027  2.2441599999999973 11.656000000000034  1.9216000000000015 11.656000000000034  C 1.572160096000001 11.656000000000034  1.222719999999999 11.629120000000029  0.846400028799998 11.602240000000052  L 1.048000095999999 12.543040000000019  Z " stroke-width="0" stroke-dasharray="0" stroke="rgba(255, 255, 255, 0)" fill="none" transform="matrix(1 0 0 1 1778 277 )" class="stroke" mask="url(#Clip9637)" />
    <path d="M 11.679040960000002 0.8099200000000337  L 5.819199999999999 0.8099200000000337  L 5.819199999999999 5.473599808000046  L 11.679040960000002 5.473599808000046  L 11.679040960000002 0.8099200000000337  Z " stroke-width="0" stroke-dasharray="0" stroke="rgba(255, 255, 255, 0)" fill="none" transform="matrix(1 0 0 1 1778 277 )" class="stroke" mask="url(#Clip9637)" />
    <path d="M 10.738239999999998 3.524800096000007  L 10.738239999999998 4.680639616000036  L 6.759999999999998 4.680639616000036  L 6.759999999999998 3.524800096000007  L 10.738239999999998 3.524800096000007  Z " stroke-width="0" stroke-dasharray="0" stroke="rgba(255, 255, 255, 0)" fill="none" transform="matrix(1 0 0 1 1778 277 )" class="stroke" mask="url(#Clip9637)" />
    <path d="M 10.738239999999998 2.7721597120000183  L 6.759999999999998 2.7721597120000183  L 6.759999999999998 1.6028793280000286  L 10.738239999999998 1.6028793280000286  L 10.738239999999998 2.7721597120000183  Z " stroke-width="0" stroke-dasharray="0" stroke="rgba(255, 255, 255, 0)" fill="none" transform="matrix(1 0 0 1 1778 277 )" class="stroke" mask="url(#Clip9637)" />
    <path d="M 12.56608 6.414399904000021  L 4.878399999999999 6.414399904000021  L 4.878399999999999 7.27455980800005  L 8.278720672000002 7.27455980800005  L 8.278720672000002 11.199040000000025  C 8.157760287999999 11.158720000000017  8.050239903999998 11.118400000000008  7.956160287999995 11.078080000000028  C 7.391680479999997 10.822720000000032  6.894400288 10.244800000000026  6.4643203840000005 9.34431942400002  C 6.571840383999998 8.887359616000026  6.639040095999999 8.430399808000033  6.665920383999996 7.9465600960000415  L 5.805759999999999 7.852479520000031  C 5.698240095999999 9.384640192000035  5.133760192 10.782400000000024  4.112320095999998 12.018880000000024  L 4.824640192 12.637120000000039  C 5.402559999999998 11.938240000000036  5.846080287999996 11.17216000000002  6.168640287999999 10.338880000000046  C 6.571840383999998 11.091520000000031  7.042240095999997 11.602240000000052  7.552960191999998 11.87104000000005  C 8.198080095999998 12.193600000000032  9.407680384000003 12.36832000000004  11.181759999999997 12.381760000000014  C 11.61184 12.381760000000014  12.109120959999998 12.395200000000045  12.646719999999995 12.395200000000045  L 12.915520960000002 11.454400000000021  C 12.418239999999997 11.49472000000003  11.813439999999993 11.521600000000035  11.114559999999997 11.521600000000035  C 10.375360960000002 11.521600000000035  9.743680959999999 11.481280000000027  9.206080287999995 11.400640000000038  L 9.206080287999995 9.66688000000002  L 12.015039999999999 9.66688000000002  L 12.015039999999999 8.79328000000001  L 9.206080287999995 8.79328000000001  L 9.206080287999995 7.27455980800005  L 12.56608 7.27455980800005  L 12.56608 6.414399904000021  Z " stroke-width="0" stroke-dasharray="0" stroke="rgba(255, 255, 255, 0)" fill="none" transform="matrix(1 0 0 1 1778 277 )" class="stroke" mask="url(#Clip9637)" />
    <path d="M 25.280320000000003 8.309440288000019  L 25.280320000000003 0.8771197120000238  L 19.312959999999997 0.8771197120000238  L 19.312959999999997 8.309440288000019  L 20.267199999999995 8.309440288000019  L 20.267199999999995 1.8044793280000422  L 24.299199999999992 1.8044793280000422  L 24.299199999999992 8.309440288000019  L 25.280320000000003 8.309440288000019  Z " stroke-width="0" stroke-dasharray="0" stroke="rgba(255, 255, 255, 0)" fill="none" transform="matrix(1 0 0 1 1778 277 )" class="stroke" mask="url(#Clip9637)" />
    <path d="M 23.586879999999994 12.448960000000028  L 24.98464096 12.448960000000028  C 25.41471904 12.448960000000028  25.737281919999994 12.341440000000034  25.95232096 12.13984000000002  C 26.180800000000005 11.897920000000028  26.342080959999997 11.212480000000028  26.422719999999998 10.110400000000027  L 25.522240959999998 9.828160000000025  C 25.46847904 10.661440000000027  25.387839039999996 11.17216000000002  25.280320000000003 11.346880000000027  C 25.186239999999998 11.481280000000027  25.02496096 11.561920000000043  24.809919999999998 11.561920000000043  L 23.869120959999997 11.561920000000043  C 23.586879999999994 11.561920000000043  23.45248 11.414080000000041  23.45248 11.13184000000004  L 23.45248 8.255679616000009  L 22.48480096 8.255679616000009  L 22.48480096 11.333440000000024  C 22.48480096 12.072640000000007  22.847679039999996 12.448960000000028  23.586879999999994 12.448960000000028  Z " stroke-width="0" stroke-dasharray="0" stroke="rgba(255, 255, 255, 0)" fill="none" transform="matrix(1 0 0 1 1778 277 )" class="stroke" mask="url(#Clip9637)" />
    <path d="M 22.699839999999995 2.7587198080000235  L 21.77248 2.7587198080000235  L 21.77248 6.038079712000041  C 21.745600959999997 7.543360000000035  21.44992 8.76640019200002  20.912320960000002 9.707200000000029  C 20.33439904 10.59423904000002  19.312959999999997 11.320000000000022  17.861439039999993 11.884480000000025  L 18.385600959999998 12.704320000000024  C 19.89087904 12.13984000000002  20.966079999999998 11.346880000000027  21.611200959999998 10.35232000000002  C 22.2832 9.27711971200003  22.646079999999998 7.839039616000008  22.699839999999995 6.038079712000041  L 22.699839999999995 2.7587198080000235  Z " stroke-width="0" stroke-dasharray="0" stroke="rgba(255, 255, 255, 0)" fill="none" transform="matrix(1 0 0 1 1778 277 )" class="stroke" mask="url(#Clip9637)" />
    <path d="M 15.872320960000003 5.312319616000025  L 14.326719999999993 5.312319616000025  L 14.326719999999993 6.253119616000021  L 15.872320960000003 6.253119616000021  L 15.872320960000003 9.599680000000035  C 15.280959999999991 9.760959040000046  14.689599999999999 9.89536000000001  14.0848 10.002880000000005  L 14.313279999999999 10.930240000000026  C 15.832000960000004 10.567360000000036  17.256639999999997 10.12384000000003  18.587199999999996 9.586240000000004  L 18.587199999999996 8.658879712000015  C 18.02272 8.887359616000026  17.458240960000005 9.102399616000014  16.866879999999995 9.303999616000027  L 16.866879999999995 6.253119616000021  L 18.372160960000002 6.253119616000021  L 18.372160960000002 5.312319616000025  L 16.866879999999995 5.312319616000025  L 16.866879999999995 2.1673596160000272  L 18.560319999999997 2.1673596160000272  L 18.560319999999997 1.2400000000000375  L 14.152 1.2400000000000375  L 14.152 2.1673596160000272  L 15.872320960000003 2.1673596160000272  L 15.872320960000003 5.312319616000025  Z " stroke-width="0" stroke-dasharray="0" stroke="rgba(255, 255, 255, 0)" fill="none" transform="matrix(1 0 0 1 1778 277 )" class="stroke" mask="url(#Clip9637)" />
    <path d="M 28.10272 5.2585599040000375  C 28.801599039999992 4.9359999040000275  29.4736 4.573119616000042  30.118720960000008 4.183360000000022  L 30.118720960000008 4.962879808000025  L 33.16960192 4.962879808000025  L 33.16960192 6.898240096000023  L 28.371520959999998 6.898240096000023  L 28.371520959999998 7.798719808000044  L 33.16960192 7.798719808000044  L 33.16960192 11.387200000000036  L 31.624001919999998 11.387200000000036  C 31.274559039999993 10.325440000000015  30.89824096 9.411520000000024  30.48159903999999 8.658879712000015  L 29.60799904 8.981440096000028  C 30.038080960000002 9.734080000000034  30.400959039999996 10.527040000000028  30.6832 11.387200000000036  L 27.901119039999998 11.387200000000036  L 27.901119039999998 12.314560000000029  L 39.39232096 12.314560000000029  L 39.39232096 11.387200000000036  L 36.61024192 11.387200000000036  C 37.01344 10.661440000000027  37.38975807999999 9.814720000000023  37.725760959999995 8.873919712000003  L 36.838720959999996 8.564800096000027  C 36.489281919999996 9.57280000000003  36.08608 10.513600000000025  35.62911904 11.387200000000036  L 34.13728192 11.387200000000036  L 34.13728192 7.798719808000044  L 38.92191904 7.798719808000044  L 38.92191904 6.898240096000023  L 34.13728192 6.898240096000023  L 34.13728192 4.962879808000025  L 37.188159039999995 4.962879808000025  L 37.188159039999995 4.223679808000014  C 37.806400000000004 4.586559616000045  38.464960960000006 4.922560000000033  39.17728191999999 5.218239616000034  L 39.72831904 4.411839904000033  C 37.228479039999996 3.363519904000015  35.33344 2.0464001920000214  34.043198079999996 0.44703979840002717  L 33.263681919999996 0.44703979840002717  C 31.78528096 2.073280000000011  29.876799999999996 3.4038397120000354  27.53823904 4.452159712000025  L 28.10272 5.2585599040000375  Z " stroke-width="0" stroke-dasharray="0" stroke="rgba(255, 255, 255, 0)" fill="none" transform="matrix(1 0 0 1 1778 277 )" class="stroke" mask="url(#Clip9637)" />
    <path d="M 33.65344 1.3609595200000228  C 34.54048 2.395839520000038  35.64255904 3.3097600960000197  36.95968 4.089279904000023  L 30.266560000000002 4.089279904000023  C 31.51648192 3.323200096000051  32.64544096 2.4092795200000126  33.65344 1.3609595200000228  Z " stroke-width="0" stroke-dasharray="0" stroke="rgba(255, 255, 255, 0)" fill="none" transform="matrix(1 0 0 1 1778 277 )" class="stroke" mask="url(#Clip9637)" />
    <path d="M 41.47551904000001 6.615999904000035  C 41.82496096 6.347199712000048  42.147519999999986 6.051519616000036  42.456638080000005 5.7424000960000114  C 42.91359999999999 5.984319904000046  43.35712192000001 6.239679712000026  43.787199999999984 6.495040000000017  C 42.98079999999999 7.1939197120000244  42.01312 7.6777594240000155  40.87072096000001 7.9465600960000415  L 41.233599999999996 8.67231961600001  C 42.49696191999999 8.336320192000045  43.599040959999996 7.758400000000023  44.51295999999999 6.9251199040000415  C 45.37312 7.449279904000036  46.112320960000005 7.960000000000036  46.730561919999985 8.470719616000025  L 47.335359039999986 7.86592038400002  C 46.66336192 7.36863980800004  45.910720960000006 6.871359712000044  45.064001919999995 6.3606396160000145  C 45.50752 5.849920000000026  45.910720960000006 5.245119904000035  46.26016 4.546239808000024  L 46.26016 3.8876799040000094  L 43.74687999999999 3.8876799040000094  C 43.86783903999999 3.6188797120000236  43.97535903999999 3.323200096000051  44.082878079999986 3.014079616000032  L 43.209279039999984 2.8931200960000183  C 42.81952 4.089279904000023  42.06687999999998 5.097279616000037  40.96480095999999 5.930559712000047  L 41.47551904000001 6.615999904000035  Z " stroke-width="0" stroke-dasharray="0" stroke="rgba(255, 255, 255, 0)" fill="none" transform="matrix(1 0 0 1 1778 277 )" class="stroke" mask="url(#Clip9637)" />
    <path d="M 45.30592 4.640319808000044  C 45.037121920000004 5.11071961600004  44.71455904 5.540800000000019  44.351680959999996 5.943999616000042  C 43.921599040000004 5.688639808000033  43.451200959999994 5.433280000000025  42.95392 5.177919808000013  C 43.08831904 5.003199616000046  43.209279039999984 4.828479904000034  43.330241920000006 4.640319808000044  L 45.30592 4.640319808000044  Z " stroke-width="0" stroke-dasharray="0" stroke="rgba(255, 255, 255, 0)" fill="none" transform="matrix(1 0 0 1 1778 277 )" class="stroke" mask="url(#Clip9637)" />
    <path d="M 46.90528096000001 3.8473596160000345  L 46.90528096000001 1.629760096000041  L 44.647360000000006 1.629760096000041  C 44.45920000000001 1.1190396160000091  44.27104096000001 0.6755197120000389  44.082878079999986 0.2723196448000351  L 43.11519904000001 0.43359985600002915  C 43.330241920000006 0.7964800960000389  43.53184096 1.1996792320000225  43.72 1.629760096000041  L 41.26048 1.629760096000041  L 41.26048 3.860799520000029  L 42.10719999999999 3.860799520000029  L 42.10719999999999 2.4630401920000224  L 46.05856096000001 2.4630401920000224  L 46.05856096000001 3.8473596160000345  L 46.90528096000001 3.8473596160000345  Z " stroke-width="0" stroke-dasharray="0" stroke="rgba(255, 255, 255, 0)" fill="none" transform="matrix(1 0 0 1 1778 277 )" class="stroke" mask="url(#Clip9637)" />
    <path d="M 46.246719999999996 12.583360000000027  L 46.246719999999996 8.497599520000023  L 42.09375999999999 8.497599520000023  L 42.09375999999999 12.583360000000027  L 42.96736 12.583360000000027  L 42.96736 11.884480000000025  L 45.38655999999999 11.884480000000025  L 45.38655999999999 12.583360000000027  L 46.246719999999996 12.583360000000027  Z " stroke-width="0" stroke-dasharray="0" stroke="rgba(255, 255, 255, 0)" fill="none" transform="matrix(1 0 0 1 1778 277 )" class="stroke" mask="url(#Clip9637)" />
    <path d="M 45.38655999999999 11.064640000000026  L 42.96736 11.064640000000026  L 42.96736 9.303999616000027  L 45.38655999999999 9.303999616000027  L 45.38655999999999 11.064640000000026  Z " stroke-width="0" stroke-dasharray="0" stroke="rgba(255, 255, 255, 0)" fill="none" transform="matrix(1 0 0 1 1778 277 )" class="stroke" mask="url(#Clip9637)" />
    <path d="M 53.26240191999999 0.9039996160000214  L 47.36223903999999 0.9039996160000214  L 47.36223903999999 1.7910394240000187  L 49.86208288 1.7910394240000187  C 49.80831904 2.3151999040000533  49.72767904 2.8259195200000136  49.62016 3.3097600960000197  L 47.69824096000001 3.3097600960000197  L 47.69824096000001 9.626560000000012  L 48.558400959999986 9.626560000000012  L 48.558400959999986 4.11615980800002  L 51.918400959999985 4.11615980800002  L 51.918400959999985 9.613120000000038  L 52.77856096000001 9.613120000000038  L 52.77856096000001 3.3097600960000197  L 50.52064 3.3097600960000197  C 50.62815904 2.8259195200000136  50.72223903999999 2.3286398080000197  50.78943808000001 1.7910394240000187  L 53.26240191999999 1.7910394240000187  L 53.26240191999999 0.9039996160000214  Z " stroke-width="0" stroke-dasharray="0" stroke="rgba(255, 255, 255, 0)" fill="none" transform="matrix(1 0 0 1 1778 277 )" class="stroke" mask="url(#Clip9637)" />
    <path d="M 53.34304191999999 12.045760960000024  C 52.724800959999996 11.306560000000019  51.97216096 10.567360000000036  51.058240960000006 9.828160000000025  L 50.48031999999999 10.392640000000029  C 51.421119039999994 11.199040000000025  52.17376 11.95168000000001  52.71136095999999 12.664000000000044  L 53.34304191999999 12.045760960000024  Z " stroke-width="0" stroke-dasharray="0" stroke="rgba(255, 255, 255, 0)" fill="none" transform="matrix(1 0 0 1 1778 277 )" class="stroke" mask="url(#Clip9637)" />
    <path d="M 50.62815904 4.90912000000003  L 49.781439039999995 4.90912000000003  L 49.781439039999995 7.355199904000045  C 49.754559040000004 8.52447932800004  49.539519999999996 9.47872000000001  49.14975808 10.21792000000002  C 48.71968 10.916800000000052  47.98048 11.481280000000027  46.91872095999999 11.911360000000002  L 47.415998079999994 12.677440000000018  C 48.531520959999995 12.23392000000004  49.337920960000005 11.615680000000026  49.835199040000006 10.80928000000003  C 50.332480000000004 9.949120000000022  50.60127904000001 8.79328000000001  50.62815904 7.355199904000045  L 50.62815904 4.90912000000003  Z " stroke-width="0" stroke-dasharray="0" stroke="rgba(255, 255, 255, 0)" fill="none" transform="matrix(1 0 0 1 1778 277 )" class="stroke" mask="url(#Clip9637)" />
  </g>
</svg>