<?xml version="1.0" encoding="utf-8"?>
<svg version="1.1" xmlns:xlink="http://www.w3.org/1999/xlink" width="39px" height="14px" xmlns="http://www.w3.org/2000/svg">
  <defs>
    <pattern id="BGPattern" patternUnits="userSpaceOnUse" alignment="0 0" imageRepeat="None" />
    <mask fill="white" id="Clip7385">
      <path d="M 6.830400192000013 0.8995193471999984  L 5.835840000000019 0.8995193471999984  L 5.835840000000019 2.660159904000011  L 0.6076799999999594 2.660159904000011  L 0.6076799999999594 3.6009595199999467  L 5.835840000000019 3.6009595199999467  L 5.835840000000019 5.6572796159999825  L 1.6291200000000003 5.6572796159999825  L 1.6291200000000003 6.5577599039999654  L 2.6640000959999948 6.5577599039999654  C 2.879040095999983 7.283519904000002  3.2284801919999495 7.9689596160000065  3.712320095999985 8.587199711999972  C 4.23648009599998 9.259200480000004  4.854720192000002 9.863999616000001  5.553600287999984 10.388160000000028  C 4.102080192000017 11.248319999999978  2.354880095999988 11.920319999999947  0.3120000480000158 12.40415999999999  L 0.8630400000000124 13.264319999999998  C 3 12.686399999999992  4.827840288000004 11.920319999999947  6.360000000000014 10.952639999999974  C 7.032000288000006 11.38271999999995  7.78464019200004 11.772479999999973  8.60448028799999 12.121919999999989  C 9.63936000000001 12.551999999999964  10.741440000000011 12.928319999999985  11.89728095999999 13.237439999999992  L 12.46175999999997 12.390719999999988  C 11.373119999999972 12.121919999999989  10.351679999999988 11.812799999999982  9.397440959999983 11.44992000000002  C 8.591040383999996 11.12736000000001  7.851839903999974 10.764479999999992  7.179840096000021 10.388160000000028  C 8.60448028799999 9.312960191999991  9.693119999999965 8.022719903999985  10.44576096000003 6.517439999999965  L 10.44576096000003 5.6572796159999825  L 6.830400192000013 5.6572796159999825  L 6.830400192000013 3.6009595199999467  L 12.112320959999977 3.6009595199999467  L 12.112320959999977 2.660159904000011  L 6.830400192000013 2.660159904000011  L 6.830400192000013 0.8995193471999984  Z M 9.357120959999975 6.5577599039999654  C 8.658240095999986 7.847999711999989  7.650239903999989 8.950079999999957  6.34656009600002 9.863999616000001  C 5.755200383999978 9.460799520000023  5.2175999039999965 8.990399808000006  4.74720019199998 8.452800287999992  C 4.23648009599998 7.9017599039999595  3.8601599039999996 7.270079999999951  3.6182400960000223 6.5577599039999654  L 9.357120959999975 6.5577599039999654  Z M 17.54208096000002 1.2086398271999883  L 16.64159903999996 0.7785598751999601  C 15.99648000000002 2.928959615999986  14.961599999999976 4.8239996159999805  13.536959999999965 6.47711971199999  L 13.83263999999997 7.485119903999987  C 14.437439999999983 6.839999999999975  14.98847999999998 6.1679997119999825  15.47232095999999 5.455679615999998  L 15.47232095999999 13.250879999999995  L 16.439999999999998 13.250879999999995  L 16.439999999999998 3.8563201919999983  C 16.870079999999973 3.0230401919999963  17.246399999999937 2.1494394239999792  17.54208096000002 1.2086398271999883  Z M 22.971840959999952 3.8159994239999833  L 17.824320959999966 3.8159994239999833  L 17.824320959999966 4.75679990399999  L 22.971840959999952 4.75679990399999  L 22.971840959999952 11.530560000000037  C 22.971840959999952 12.014399999999966  22.7568 12.256320000000017  22.340160000000026 12.256320000000017  C 21.748800959999983 12.256320000000017  21.144001919999937 12.229439999999954  20.51232096000001 12.189120000000003  L 20.727359999999976 13.143359999999973  L 22.67615999999998 13.143359999999973  C 23.509439999999984 13.143359999999973  23.939520000000012 12.686399999999992  23.939520000000012 11.772479999999973  L 23.939520000000012 4.75679990399999  L 25.87487903999994 4.75679990399999  L 25.87487903999994 3.8159994239999833  L 23.939520000000012 3.8159994239999833  L 23.939520000000012 0.9263992319999943  L 22.971840959999952 0.9263992319999943  L 22.971840959999952 3.8159994239999833  Z M 21.42624000000001 9.393599807999976  C 20.875199039999984 8.493120095999984  20.08224095999998 7.43135971199996  19.06080000000003 6.221759903999953  L 18.267839040000013 6.70559971199998  C 19.248960959999977 7.9017599039999595  20.028480959999968 8.990399808000006  20.60639999999995 9.971519999999998  L 21.42624000000001 9.393599807999976  Z M 28.898880959999985 5.885759999999948  L 32.756161919999954 5.885759999999948  L 32.756161919999954 8.197439615999997  L 29.207999040000004 8.197439615999997  L 29.207999040000004 9.11136019199995  L 32.756161919999954 9.11136019199995  L 32.756161919999954 11.94720000000001  L 27.662400959999957 11.94720000000001  L 27.662400959999957 12.847679999999968  L 38.857920959999944 12.847679999999968  L 38.857920959999944 11.94720000000001  L 33.73728191999999 11.94720000000001  L 33.73728191999999 9.11136019199995  L 37.21824096 9.11136019199995  L 37.21824096 8.197439615999997  L 33.73728191999999 8.197439615999997  L 33.73728191999999 5.885759999999948  L 37.66175903999999 5.885759999999948  L 37.66175903999999 4.971839903999978  L 28.898880959999985 4.971839903999978  L 28.898880959999985 5.885759999999948  Z M 37.56767903999997 11.409600000000012  C 37.21824096 10.845120000000009  36.72095903999997 10.213439999999991  36.075841920000016 9.48767942400002  L 35.33663807999994 9.931200287999957  C 35.95487903999998 10.65695999999997  36.452160960000015 11.328959999999995  36.81503903999999 11.920319999999947  L 37.56767903999997 11.409600000000012  Z M 38.64287808 4.8911998079999535  L 38.64287808 2.283839712000031  L 33.844800959999986 2.283839712000031  C 33.67008191999997 1.7865600960000165  33.49535903999998 1.3430392319999669  33.307199999999966 0.953280028800009  L 32.27232096 1.1145593279999844  C 32.46047999999996 1.4639996160000237  32.64863903999998 1.8537598080000066  32.823361920000025 2.283839712000031  L 27.769920000000013 2.283839712000031  L 27.769920000000013 4.971839903999978  L 28.75103904000002 4.971839903999978  L 28.75103904000002 3.2111993279999638  L 37.675199039999995 3.2111993279999638  L 37.675199039999995 4.8911998079999535  L 38.64287808 4.8911998079999535  Z " fill-rule="evenodd" />
    </mask>
  </defs>
  <g transform="matrix(1 0 0 1 -2052 -407 )">
    <path d="M 6.830400192000013 0.8995193471999984  L 5.835840000000019 0.8995193471999984  L 5.835840000000019 2.660159904000011  L 0.6076799999999594 2.660159904000011  L 0.6076799999999594 3.6009595199999467  L 5.835840000000019 3.6009595199999467  L 5.835840000000019 5.6572796159999825  L 1.6291200000000003 5.6572796159999825  L 1.6291200000000003 6.5577599039999654  L 2.6640000959999948 6.5577599039999654  C 2.879040095999983 7.283519904000002  3.2284801919999495 7.9689596160000065  3.712320095999985 8.587199711999972  C 4.23648009599998 9.259200480000004  4.854720192000002 9.863999616000001  5.553600287999984 10.388160000000028  C 4.102080192000017 11.248319999999978  2.354880095999988 11.920319999999947  0.3120000480000158 12.40415999999999  L 0.8630400000000124 13.264319999999998  C 3 12.686399999999992  4.827840288000004 11.920319999999947  6.360000000000014 10.952639999999974  C 7.032000288000006 11.38271999999995  7.78464019200004 11.772479999999973  8.60448028799999 12.121919999999989  C 9.63936000000001 12.551999999999964  10.741440000000011 12.928319999999985  11.89728095999999 13.237439999999992  L 12.46175999999997 12.390719999999988  C 11.373119999999972 12.121919999999989  10.351679999999988 11.812799999999982  9.397440959999983 11.44992000000002  C 8.591040383999996 11.12736000000001  7.851839903999974 10.764479999999992  7.179840096000021 10.388160000000028  C 8.60448028799999 9.312960191999991  9.693119999999965 8.022719903999985  10.44576096000003 6.517439999999965  L 10.44576096000003 5.6572796159999825  L 6.830400192000013 5.6572796159999825  L 6.830400192000013 3.6009595199999467  L 12.112320959999977 3.6009595199999467  L 12.112320959999977 2.660159904000011  L 6.830400192000013 2.660159904000011  L 6.830400192000013 0.8995193471999984  Z M 9.357120959999975 6.5577599039999654  C 8.658240095999986 7.847999711999989  7.650239903999989 8.950079999999957  6.34656009600002 9.863999616000001  C 5.755200383999978 9.460799520000023  5.2175999039999965 8.990399808000006  4.74720019199998 8.452800287999992  C 4.23648009599998 7.9017599039999595  3.8601599039999996 7.270079999999951  3.6182400960000223 6.5577599039999654  L 9.357120959999975 6.5577599039999654  Z M 17.54208096000002 1.2086398271999883  L 16.64159903999996 0.7785598751999601  C 15.99648000000002 2.928959615999986  14.961599999999976 4.8239996159999805  13.536959999999965 6.47711971199999  L 13.83263999999997 7.485119903999987  C 14.437439999999983 6.839999999999975  14.98847999999998 6.1679997119999825  15.47232095999999 5.455679615999998  L 15.47232095999999 13.250879999999995  L 16.439999999999998 13.250879999999995  L 16.439999999999998 3.8563201919999983  C 16.870079999999973 3.0230401919999963  17.246399999999937 2.1494394239999792  17.54208096000002 1.2086398271999883  Z M 22.971840959999952 3.8159994239999833  L 17.824320959999966 3.8159994239999833  L 17.824320959999966 4.75679990399999  L 22.971840959999952 4.75679990399999  L 22.971840959999952 11.530560000000037  C 22.971840959999952 12.014399999999966  22.7568 12.256320000000017  22.340160000000026 12.256320000000017  C 21.748800959999983 12.256320000000017  21.144001919999937 12.229439999999954  20.51232096000001 12.189120000000003  L 20.727359999999976 13.143359999999973  L 22.67615999999998 13.143359999999973  C 23.509439999999984 13.143359999999973  23.939520000000012 12.686399999999992  23.939520000000012 11.772479999999973  L 23.939520000000012 4.75679990399999  L 25.87487903999994 4.75679990399999  L 25.87487903999994 3.8159994239999833  L 23.939520000000012 3.8159994239999833  L 23.939520000000012 0.9263992319999943  L 22.971840959999952 0.9263992319999943  L 22.971840959999952 3.8159994239999833  Z M 21.42624000000001 9.393599807999976  C 20.875199039999984 8.493120095999984  20.08224095999998 7.43135971199996  19.06080000000003 6.221759903999953  L 18.267839040000013 6.70559971199998  C 19.248960959999977 7.9017599039999595  20.028480959999968 8.990399808000006  20.60639999999995 9.971519999999998  L 21.42624000000001 9.393599807999976  Z M 28.898880959999985 5.885759999999948  L 32.756161919999954 5.885759999999948  L 32.756161919999954 8.197439615999997  L 29.207999040000004 8.197439615999997  L 29.207999040000004 9.11136019199995  L 32.756161919999954 9.11136019199995  L 32.756161919999954 11.94720000000001  L 27.662400959999957 11.94720000000001  L 27.662400959999957 12.847679999999968  L 38.857920959999944 12.847679999999968  L 38.857920959999944 11.94720000000001  L 33.73728191999999 11.94720000000001  L 33.73728191999999 9.11136019199995  L 37.21824096 9.11136019199995  L 37.21824096 8.197439615999997  L 33.73728191999999 8.197439615999997  L 33.73728191999999 5.885759999999948  L 37.66175903999999 5.885759999999948  L 37.66175903999999 4.971839903999978  L 28.898880959999985 4.971839903999978  L 28.898880959999985 5.885759999999948  Z M 37.56767903999997 11.409600000000012  C 37.21824096 10.845120000000009  36.72095903999997 10.213439999999991  36.075841920000016 9.48767942400002  L 35.33663807999994 9.931200287999957  C 35.95487903999998 10.65695999999997  36.452160960000015 11.328959999999995  36.81503903999999 11.920319999999947  L 37.56767903999997 11.409600000000012  Z M 38.64287808 4.8911998079999535  L 38.64287808 2.283839712000031  L 33.844800959999986 2.283839712000031  C 33.67008191999997 1.7865600960000165  33.49535903999998 1.3430392319999669  33.307199999999966 0.953280028800009  L 32.27232096 1.1145593279999844  C 32.46047999999996 1.4639996160000237  32.64863903999998 1.8537598080000066  32.823361920000025 2.283839712000031  L 27.769920000000013 2.283839712000031  L 27.769920000000013 4.971839903999978  L 28.75103904000002 4.971839903999978  L 28.75103904000002 3.2111993279999638  L 37.675199039999995 3.2111993279999638  L 37.675199039999995 4.8911998079999535  L 38.64287808 4.8911998079999535  Z " fill-rule="nonzero" fill="rgba(51, 51, 51, 1)" stroke="none" transform="matrix(1 0 0 1 2052 407 )" class="fill" />
    <path d="M 6.830400192000013 0.8995193471999984  L 5.835840000000019 0.8995193471999984  L 5.835840000000019 2.660159904000011  L 0.6076799999999594 2.660159904000011  L 0.6076799999999594 3.6009595199999467  L 5.835840000000019 3.6009595199999467  L 5.835840000000019 5.6572796159999825  L 1.6291200000000003 5.6572796159999825  L 1.6291200000000003 6.5577599039999654  L 2.6640000959999948 6.5577599039999654  C 2.879040095999983 7.283519904000002  3.2284801919999495 7.9689596160000065  3.712320095999985 8.587199711999972  C 4.23648009599998 9.259200480000004  4.854720192000002 9.863999616000001  5.553600287999984 10.388160000000028  C 4.102080192000017 11.248319999999978  2.354880095999988 11.920319999999947  0.3120000480000158 12.40415999999999  L 0.8630400000000124 13.264319999999998  C 3 12.686399999999992  4.827840288000004 11.920319999999947  6.360000000000014 10.952639999999974  C 7.032000288000006 11.38271999999995  7.78464019200004 11.772479999999973  8.60448028799999 12.121919999999989  C 9.63936000000001 12.551999999999964  10.741440000000011 12.928319999999985  11.89728095999999 13.237439999999992  L 12.46175999999997 12.390719999999988  C 11.373119999999972 12.121919999999989  10.351679999999988 11.812799999999982  9.397440959999983 11.44992000000002  C 8.591040383999996 11.12736000000001  7.851839903999974 10.764479999999992  7.179840096000021 10.388160000000028  C 8.60448028799999 9.312960191999991  9.693119999999965 8.022719903999985  10.44576096000003 6.517439999999965  L 10.44576096000003 5.6572796159999825  L 6.830400192000013 5.6572796159999825  L 6.830400192000013 3.6009595199999467  L 12.112320959999977 3.6009595199999467  L 12.112320959999977 2.660159904000011  L 6.830400192000013 2.660159904000011  L 6.830400192000013 0.8995193471999984  Z " stroke-width="0" stroke-dasharray="0" stroke="rgba(255, 255, 255, 0)" fill="none" transform="matrix(1 0 0 1 2052 407 )" class="stroke" mask="url(#Clip7385)" />
    <path d="M 9.357120959999975 6.5577599039999654  C 8.658240095999986 7.847999711999989  7.650239903999989 8.950079999999957  6.34656009600002 9.863999616000001  C 5.755200383999978 9.460799520000023  5.2175999039999965 8.990399808000006  4.74720019199998 8.452800287999992  C 4.23648009599998 7.9017599039999595  3.8601599039999996 7.270079999999951  3.6182400960000223 6.5577599039999654  L 9.357120959999975 6.5577599039999654  Z " stroke-width="0" stroke-dasharray="0" stroke="rgba(255, 255, 255, 0)" fill="none" transform="matrix(1 0 0 1 2052 407 )" class="stroke" mask="url(#Clip7385)" />
    <path d="M 17.54208096000002 1.2086398271999883  L 16.64159903999996 0.7785598751999601  C 15.99648000000002 2.928959615999986  14.961599999999976 4.8239996159999805  13.536959999999965 6.47711971199999  L 13.83263999999997 7.485119903999987  C 14.437439999999983 6.839999999999975  14.98847999999998 6.1679997119999825  15.47232095999999 5.455679615999998  L 15.47232095999999 13.250879999999995  L 16.439999999999998 13.250879999999995  L 16.439999999999998 3.8563201919999983  C 16.870079999999973 3.0230401919999963  17.246399999999937 2.1494394239999792  17.54208096000002 1.2086398271999883  Z " stroke-width="0" stroke-dasharray="0" stroke="rgba(255, 255, 255, 0)" fill="none" transform="matrix(1 0 0 1 2052 407 )" class="stroke" mask="url(#Clip7385)" />
    <path d="M 22.971840959999952 3.8159994239999833  L 17.824320959999966 3.8159994239999833  L 17.824320959999966 4.75679990399999  L 22.971840959999952 4.75679990399999  L 22.971840959999952 11.530560000000037  C 22.971840959999952 12.014399999999966  22.7568 12.256320000000017  22.340160000000026 12.256320000000017  C 21.748800959999983 12.256320000000017  21.144001919999937 12.229439999999954  20.51232096000001 12.189120000000003  L 20.727359999999976 13.143359999999973  L 22.67615999999998 13.143359999999973  C 23.509439999999984 13.143359999999973  23.939520000000012 12.686399999999992  23.939520000000012 11.772479999999973  L 23.939520000000012 4.75679990399999  L 25.87487903999994 4.75679990399999  L 25.87487903999994 3.8159994239999833  L 23.939520000000012 3.8159994239999833  L 23.939520000000012 0.9263992319999943  L 22.971840959999952 0.9263992319999943  L 22.971840959999952 3.8159994239999833  Z " stroke-width="0" stroke-dasharray="0" stroke="rgba(255, 255, 255, 0)" fill="none" transform="matrix(1 0 0 1 2052 407 )" class="stroke" mask="url(#Clip7385)" />
    <path d="M 21.42624000000001 9.393599807999976  C 20.875199039999984 8.493120095999984  20.08224095999998 7.43135971199996  19.06080000000003 6.221759903999953  L 18.267839040000013 6.70559971199998  C 19.248960959999977 7.9017599039999595  20.028480959999968 8.990399808000006  20.60639999999995 9.971519999999998  L 21.42624000000001 9.393599807999976  Z " stroke-width="0" stroke-dasharray="0" stroke="rgba(255, 255, 255, 0)" fill="none" transform="matrix(1 0 0 1 2052 407 )" class="stroke" mask="url(#Clip7385)" />
    <path d="M 28.898880959999985 5.885759999999948  L 32.756161919999954 5.885759999999948  L 32.756161919999954 8.197439615999997  L 29.207999040000004 8.197439615999997  L 29.207999040000004 9.11136019199995  L 32.756161919999954 9.11136019199995  L 32.756161919999954 11.94720000000001  L 27.662400959999957 11.94720000000001  L 27.662400959999957 12.847679999999968  L 38.857920959999944 12.847679999999968  L 38.857920959999944 11.94720000000001  L 33.73728191999999 11.94720000000001  L 33.73728191999999 9.11136019199995  L 37.21824096 9.11136019199995  L 37.21824096 8.197439615999997  L 33.73728191999999 8.197439615999997  L 33.73728191999999 5.885759999999948  L 37.66175903999999 5.885759999999948  L 37.66175903999999 4.971839903999978  L 28.898880959999985 4.971839903999978  L 28.898880959999985 5.885759999999948  Z " stroke-width="0" stroke-dasharray="0" stroke="rgba(255, 255, 255, 0)" fill="none" transform="matrix(1 0 0 1 2052 407 )" class="stroke" mask="url(#Clip7385)" />
    <path d="M 37.56767903999997 11.409600000000012  C 37.21824096 10.845120000000009  36.72095903999997 10.213439999999991  36.075841920000016 9.48767942400002  L 35.33663807999994 9.931200287999957  C 35.95487903999998 10.65695999999997  36.452160960000015 11.328959999999995  36.81503903999999 11.920319999999947  L 37.56767903999997 11.409600000000012  Z " stroke-width="0" stroke-dasharray="0" stroke="rgba(255, 255, 255, 0)" fill="none" transform="matrix(1 0 0 1 2052 407 )" class="stroke" mask="url(#Clip7385)" />
    <path d="M 38.64287808 4.8911998079999535  L 38.64287808 2.283839712000031  L 33.844800959999986 2.283839712000031  C 33.67008191999997 1.7865600960000165  33.49535903999998 1.3430392319999669  33.307199999999966 0.953280028800009  L 32.27232096 1.1145593279999844  C 32.46047999999996 1.4639996160000237  32.64863903999998 1.8537598080000066  32.823361920000025 2.283839712000031  L 27.769920000000013 2.283839712000031  L 27.769920000000013 4.971839903999978  L 28.75103904000002 4.971839903999978  L 28.75103904000002 3.2111993279999638  L 37.675199039999995 3.2111993279999638  L 37.675199039999995 4.8911998079999535  L 38.64287808 4.8911998079999535  Z " stroke-width="0" stroke-dasharray="0" stroke="rgba(255, 255, 255, 0)" fill="none" transform="matrix(1 0 0 1 2052 407 )" class="stroke" mask="url(#Clip7385)" />
  </g>
</svg>