<?xml version="1.0" encoding="utf-8"?>
<svg version="1.1" xmlns:xlink="http://www.w3.org/1999/xlink" width="15px" height="12px" xmlns="http://www.w3.org/2000/svg">
  <defs>
    <pattern id="BGPattern" patternUnits="userSpaceOnUse" alignment="0 0" imageRepeat="None" />
    <mask fill="white" id="Clip9042">
      <path d="M 1.6817747437499406 5.346896937500031  C 3.2236786477500345 3.881072937500033  5.269832151749995 3.063690537500033  7.397297943750004 3.0637001375000317  C 9.524552343750031 3.0637864415000315  11.570504343749974 3.881168841500031  13.11216834375 5.346896937500031  C 13.228232343749994 5.460061641500033  13.413800343749983 5.458631145500032  13.528136343749964 5.343699945500035  C 13.528136343749964 5.343699945500035  14.637896343750015 4.2236969375000335  14.637896343750015 4.2236969375000335  C 14.69578434374995 4.165405737500034  14.728136343750009 4.086445833500033  14.72765634374997 4.004288937500032  C 14.727176343749989 3.922132041500035  14.693960343750007 3.843546633500033  14.635400343750007 3.7859370335000335  C 10.588904343750016 -0.09203106249996829  4.205067447749968 -0.09203106249996829  0.1585739418300136 3.7859370335000335  C 0.09995768678999184 3.8435081375000344  0.06669954372119946 3.922064937500032  0.06615903569081638 4.004221641500031  C 0.0656185280508339 4.086378537500035  0.09784021478998284 4.165357641500034  0.1556939437500091 4.2236969375000335  C 0.1556939437500091 4.2236969375000335  1.2657778477499733 5.343699945500035  1.2657778477499733 5.343699945500035  C 1.3800372397499814 5.458804137500035  1.565749143749997 5.460234633500033  1.6817747437499406 5.346896937500031  Z M 4.237294935749958 7.926416745500035  C 5.103089943749978 7.142413641500031  6.229275543749964 6.708023337500034  7.397297943750004 6.707533545500031  C 8.566088535749998 6.707466729500034  9.693128343750004 7.141895433500036  10.559528343750003 7.926416745500035  C 10.676744343749988 8.037757737500034  10.861352343750013 8.035348041500033  10.975496343749967 7.920973545500033  C 10.975496343749967 7.920973545500033  12.084008343749986 6.800980041500033  12.084008343749986 6.800980041500033  C 12.142376343750016 6.742227945500034  12.174824343750004 6.662538633500034  12.173960343749968 6.579719529500032  C 12.17309634374999 6.496909641500032  12.139112343750014 6.4178827295000325  12.079496343749952 6.360339945500034  C 9.441263127750005 3.9062057375000343  5.355560343749971 3.9062057375000343  2.7172979437499976 6.360339945500034  C 2.657701047749981 6.4178827295000325  2.623697847750009 6.496948137500034  2.6229203437499677 6.5797863455000325  C 2.622133239749985 6.662625129500036  2.654638839749964 6.742314441500032  2.7131316397500314 6.800980041500033  C 2.7131316397500314 6.800980041500033  3.821297847749974 7.920973545500033  3.821297847749974 7.920973545500033  C 3.9355188397499887 8.035348041500033  4.12011704775 8.037757737500034  4.237294935749958 7.926416745500035  Z M 9.518571159750024 8.941780137500032  C 9.580184343750034 8.997489033500035  9.616069335750012 9.076161225500034  9.61776853575003 9.159201321500031  C 9.619467735749993 9.242250633500031  9.586818231749987 9.322314441500033  9.527537847749954 9.380499849500033  C 9.527537847749954 9.380499849500033  7.610091735749961 11.315542857500034  7.610091735749961 11.315542857500034  C 7.55388335174996 11.372374857500034  7.477256439750022 11.404439817500034  7.397297943750004 11.404439817500034  C 7.317339447749987 11.404439817500034  7.240702935749994 11.372374857500034  7.184494647749943 11.315542857500034  C 7.184494647749943 11.315542857500034  5.26673173575 9.380499849500033  5.26673173575 9.380499849500033  C 5.207489751749961 9.322276041500036  5.174897943750011 9.24218295350003  5.176654839750029 9.15913364150003  C 5.1784117357499895 9.076084329500034  5.214363543750039 8.997440457500034  5.276014743750011 8.941780137500032  C 6.500561847749964 7.906045833500034  8.294024055749958 7.906045833500034  9.518571159750024 8.941780137500032  Z " fill-rule="evenodd" />
    </mask>
  </defs>
  <g transform="matrix(1 0 0 1 -2058 -66 )">
    <path d="M 1.6817747437499406 5.346896937500031  C 3.2236786477500345 3.881072937500033  5.269832151749995 3.063690537500033  7.397297943750004 3.0637001375000317  C 9.524552343750031 3.0637864415000315  11.570504343749974 3.881168841500031  13.11216834375 5.346896937500031  C 13.228232343749994 5.460061641500033  13.413800343749983 5.458631145500032  13.528136343749964 5.343699945500035  C 13.528136343749964 5.343699945500035  14.637896343750015 4.2236969375000335  14.637896343750015 4.2236969375000335  C 14.69578434374995 4.165405737500034  14.728136343750009 4.086445833500033  14.72765634374997 4.004288937500032  C 14.727176343749989 3.922132041500035  14.693960343750007 3.843546633500033  14.635400343750007 3.7859370335000335  C 10.588904343750016 -0.09203106249996829  4.205067447749968 -0.09203106249996829  0.1585739418300136 3.7859370335000335  C 0.09995768678999184 3.8435081375000344  0.06669954372119946 3.922064937500032  0.06615903569081638 4.004221641500031  C 0.0656185280508339 4.086378537500035  0.09784021478998284 4.165357641500034  0.1556939437500091 4.2236969375000335  C 0.1556939437500091 4.2236969375000335  1.2657778477499733 5.343699945500035  1.2657778477499733 5.343699945500035  C 1.3800372397499814 5.458804137500035  1.565749143749997 5.460234633500033  1.6817747437499406 5.346896937500031  Z M 4.237294935749958 7.926416745500035  C 5.103089943749978 7.142413641500031  6.229275543749964 6.708023337500034  7.397297943750004 6.707533545500031  C 8.566088535749998 6.707466729500034  9.693128343750004 7.141895433500036  10.559528343750003 7.926416745500035  C 10.676744343749988 8.037757737500034  10.861352343750013 8.035348041500033  10.975496343749967 7.920973545500033  C 10.975496343749967 7.920973545500033  12.084008343749986 6.800980041500033  12.084008343749986 6.800980041500033  C 12.142376343750016 6.742227945500034  12.174824343750004 6.662538633500034  12.173960343749968 6.579719529500032  C 12.17309634374999 6.496909641500032  12.139112343750014 6.4178827295000325  12.079496343749952 6.360339945500034  C 9.441263127750005 3.9062057375000343  5.355560343749971 3.9062057375000343  2.7172979437499976 6.360339945500034  C 2.657701047749981 6.4178827295000325  2.623697847750009 6.496948137500034  2.6229203437499677 6.5797863455000325  C 2.622133239749985 6.662625129500036  2.654638839749964 6.742314441500032  2.7131316397500314 6.800980041500033  C 2.7131316397500314 6.800980041500033  3.821297847749974 7.920973545500033  3.821297847749974 7.920973545500033  C 3.9355188397499887 8.035348041500033  4.12011704775 8.037757737500034  4.237294935749958 7.926416745500035  Z M 9.518571159750024 8.941780137500032  C 9.580184343750034 8.997489033500035  9.616069335750012 9.076161225500034  9.61776853575003 9.159201321500031  C 9.619467735749993 9.242250633500031  9.586818231749987 9.322314441500033  9.527537847749954 9.380499849500033  C 9.527537847749954 9.380499849500033  7.610091735749961 11.315542857500034  7.610091735749961 11.315542857500034  C 7.55388335174996 11.372374857500034  7.477256439750022 11.404439817500034  7.397297943750004 11.404439817500034  C 7.317339447749987 11.404439817500034  7.240702935749994 11.372374857500034  7.184494647749943 11.315542857500034  C 7.184494647749943 11.315542857500034  5.26673173575 9.380499849500033  5.26673173575 9.380499849500033  C 5.207489751749961 9.322276041500036  5.174897943750011 9.24218295350003  5.176654839750029 9.15913364150003  C 5.1784117357499895 9.076084329500034  5.214363543750039 8.997440457500034  5.276014743750011 8.941780137500032  C 6.500561847749964 7.906045833500034  8.294024055749958 7.906045833500034  9.518571159750024 8.941780137500032  Z " fill-rule="nonzero" fill="rgba(0, 0, 0, 1)" stroke="none" transform="matrix(1 0 0 1 2058 66 )" class="fill" />
    <path d="M 1.6817747437499406 5.346896937500031  C 3.2236786477500345 3.881072937500033  5.269832151749995 3.063690537500033  7.397297943750004 3.0637001375000317  C 9.524552343750031 3.0637864415000315  11.570504343749974 3.881168841500031  13.11216834375 5.346896937500031  C 13.228232343749994 5.460061641500033  13.413800343749983 5.458631145500032  13.528136343749964 5.343699945500035  C 13.528136343749964 5.343699945500035  14.637896343750015 4.2236969375000335  14.637896343750015 4.2236969375000335  C 14.69578434374995 4.165405737500034  14.728136343750009 4.086445833500033  14.72765634374997 4.004288937500032  C 14.727176343749989 3.922132041500035  14.693960343750007 3.843546633500033  14.635400343750007 3.7859370335000335  C 10.588904343750016 -0.09203106249996829  4.205067447749968 -0.09203106249996829  0.1585739418300136 3.7859370335000335  C 0.09995768678999184 3.8435081375000344  0.06669954372119946 3.922064937500032  0.06615903569081638 4.004221641500031  C 0.0656185280508339 4.086378537500035  0.09784021478998284 4.165357641500034  0.1556939437500091 4.2236969375000335  C 0.1556939437500091 4.2236969375000335  1.2657778477499733 5.343699945500035  1.2657778477499733 5.343699945500035  C 1.3800372397499814 5.458804137500035  1.565749143749997 5.460234633500033  1.6817747437499406 5.346896937500031  Z " stroke-width="0" stroke-dasharray="0" stroke="rgba(255, 255, 255, 0)" fill="none" transform="matrix(1 0 0 1 2058 66 )" class="stroke" mask="url(#Clip9042)" />
    <path d="M 4.237294935749958 7.926416745500035  C 5.103089943749978 7.142413641500031  6.229275543749964 6.708023337500034  7.397297943750004 6.707533545500031  C 8.566088535749998 6.707466729500034  9.693128343750004 7.141895433500036  10.559528343750003 7.926416745500035  C 10.676744343749988 8.037757737500034  10.861352343750013 8.035348041500033  10.975496343749967 7.920973545500033  C 10.975496343749967 7.920973545500033  12.084008343749986 6.800980041500033  12.084008343749986 6.800980041500033  C 12.142376343750016 6.742227945500034  12.174824343750004 6.662538633500034  12.173960343749968 6.579719529500032  C 12.17309634374999 6.496909641500032  12.139112343750014 6.4178827295000325  12.079496343749952 6.360339945500034  C 9.441263127750005 3.9062057375000343  5.355560343749971 3.9062057375000343  2.7172979437499976 6.360339945500034  C 2.657701047749981 6.4178827295000325  2.623697847750009 6.496948137500034  2.6229203437499677 6.5797863455000325  C 2.622133239749985 6.662625129500036  2.654638839749964 6.742314441500032  2.7131316397500314 6.800980041500033  C 2.7131316397500314 6.800980041500033  3.821297847749974 7.920973545500033  3.821297847749974 7.920973545500033  C 3.9355188397499887 8.035348041500033  4.12011704775 8.037757737500034  4.237294935749958 7.926416745500035  Z " stroke-width="0" stroke-dasharray="0" stroke="rgba(255, 255, 255, 0)" fill="none" transform="matrix(1 0 0 1 2058 66 )" class="stroke" mask="url(#Clip9042)" />
    <path d="M 9.518571159750024 8.941780137500032  C 9.580184343750034 8.997489033500035  9.616069335750012 9.076161225500034  9.61776853575003 9.159201321500031  C 9.619467735749993 9.242250633500031  9.586818231749987 9.322314441500033  9.527537847749954 9.380499849500033  C 9.527537847749954 9.380499849500033  7.610091735749961 11.315542857500034  7.610091735749961 11.315542857500034  C 7.55388335174996 11.372374857500034  7.477256439750022 11.404439817500034  7.397297943750004 11.404439817500034  C 7.317339447749987 11.404439817500034  7.240702935749994 11.372374857500034  7.184494647749943 11.315542857500034  C 7.184494647749943 11.315542857500034  5.26673173575 9.380499849500033  5.26673173575 9.380499849500033  C 5.207489751749961 9.322276041500036  5.174897943750011 9.24218295350003  5.176654839750029 9.15913364150003  C 5.1784117357499895 9.076084329500034  5.214363543750039 8.997440457500034  5.276014743750011 8.941780137500032  C 6.500561847749964 7.906045833500034  8.294024055749958 7.906045833500034  9.518571159750024 8.941780137500032  Z " stroke-width="0" stroke-dasharray="0" stroke="rgba(255, 255, 255, 0)" fill="none" transform="matrix(1 0 0 1 2058 66 )" class="stroke" mask="url(#Clip9042)" />
  </g>
</svg>