<?xml version="1.0" encoding="utf-8"?>
<svg version="1.1" xmlns:xlink="http://www.w3.org/1999/xlink" width="40px" height="14px" xmlns="http://www.w3.org/2000/svg">
  <defs>
    <pattern id="BGPattern" patternUnits="userSpaceOnUse" alignment="0 0" imageRepeat="None" />
    <mask fill="white" id="Clip18696">
      <path d="M 11.74624 1.5603198079999743  L 11.275840000000002 0.7404797408000263  C 8.708800672000002 1.3587198079999894  5.483200095999997 1.6812793280000164  1.5855999999999995 1.6812793280000164  L 1.8812800960000011 2.5548800959999767  C 3.547839999999997 2.5548800959999767  5.093439904 2.487679424000021  6.5180800959999985 2.3801599039999815  L 6.5180800959999985 4.570879999999988  L 1.854400095999999 4.570879999999988  L 1.854400095999999 5.511680000000013  L 6.5180800959999985 5.511680000000013  L 6.5180800959999985 7.715840000000014  L 0.7388800384000014 7.715840000000014  L 0.7388800384000014 8.643200095999987  L 6.5180800959999985 8.643200095999987  L 6.5180800959999985 11.371519999999975  C 6.5180800959999985 11.747839999999997  6.303040191999997 11.949439999999981  5.899840095999998 11.949439999999981  C 5.281600000000001 11.949439999999981  4.623040191999998 11.922560000000033  3.937599903999999 11.89567999999997  L 4.152639904000001 12.836479999999995  L 6.23584 12.836479999999995  C 7.069119999999998 12.836479999999995  7.499200479999999 12.419839999999965  7.499200479999999 11.613440000000026  L 7.499200479999999 8.643200095999987  L 12.794559999999997 8.643200095999987  L 12.794559999999997 7.715840000000014  L 7.499200479999999 7.715840000000014  L 7.499200479999999 5.511680000000013  L 11.786560000000001 5.511680000000013  L 11.786560000000001 4.570879999999988  L 7.499200479999999 4.570879999999988  L 7.499200479999999 2.299519328000031  C 9.112000767999994 2.138240096000004  10.523200000000003 1.8828793280000014  11.74624 1.5603198079999743  Z M 18.318400960000005 11.022080000000017  L 18.318400960000005 10.108159999999998  C 17.149120959999998 10.591999999999985  15.79168096 10.968320000000006  14.232639999999996 11.250560000000007  L 14.353599999999993 12.191359999999975  C 15.832000960000002 11.89567999999997  17.149120959999998 11.505920000000003  18.318400960000005 11.022080000000017  Z M 17.189440000000005 0.9823995968000078  L 16.27552096 0.6195193471999687  C 15.79168096 2.151679999999999  15.213759999999994 3.5225595200000153  14.5552 4.718719808000003  C 14.434239999999996 4.89343990399999  14.299839999999996 5.014399904000015  14.152000000000001 5.068159616000003  L 14.393919999999994 5.955199903999983  C 15.092799999999997 5.847679904000017  15.79168096 5.740159903999995  16.47712 5.619199999999978  C 15.778240959999998 6.815359807999982  15.186879999999995 7.662079807999987  14.703040000000001 8.172800288000019  C 14.582079999999998 8.293759808000004  14.434239999999996 8.387839327999984  14.259519999999995 8.441599999999994  L 14.52832 9.328639808000048  C 15.670719999999996 9.167359615999999  16.866879999999995 8.885119904000021  18.13024 8.455039999999997  L 18.13024 7.58143971200002  C 17.323840000000004 7.877119712000024  16.503999999999998 8.105599712000014  15.69759904 8.266879904000007  C 16.45024 7.352959712000029  17.417920959999996 5.807359615999985  18.587199999999996 3.6569598080000105  L 17.700159999999997 3.320959519999974  C 17.444800960000002 3.818240096000011  17.20288 4.288639808000028  16.96095904 4.732159711999998  C 16.396479999999997 4.83967971200002  15.845440959999998 4.933759807999991  15.294399999999996 5.000959904000013  C 15.939519999999995 3.9929597120000153  16.571199040000003 2.6489596160000133  17.189440000000005 0.9823995968000078  Z M 21.97408 1.4796792320000236  L 19.272639999999996 1.4796792320000236  L 19.272639999999996 2.353279999999984  L 21.97408 2.353279999999984  L 21.97408 3.5763201919999688  L 18.856 3.5763201919999688  L 18.856 4.463359999999966  L 24.998080960000003 4.463359999999966  C 24.809919999999998 5.189120000000003  24.581439039999992 5.861119808000012  24.299199999999992 6.45247999999998  L 25.22656 6.721279712000012  C 25.549120959999996 5.88799971200001  25.80448096 5.041279712000005  25.992639999999994 4.181119808000005  L 25.992639999999994 3.5763201919999688  L 22.914879039999995 3.5763201919999688  L 22.914879039999995 2.353279999999984  L 25.80448096 2.353279999999984  L 25.80448096 1.4796792320000236  L 22.914879039999995 1.4796792320000236  L 22.914879039999995 0.5926394623999727  L 21.97408 0.5926394623999727  L 21.97408 1.4796792320000236  Z M 22.2832 8.414720192000004  L 18.560319999999997 8.414720192000004  L 18.560319999999997 9.30175990400005  L 22.068159039999998 9.30175990400005  C 21.933759999999992 9.704960000000028  21.745600959999997 10.081279999999992  21.503680000000003 10.417280000000005  C 20.939199999999992 11.143039999999985  19.94464096 11.720959999999991  18.50656 12.151040000000023  L 19.044159999999998 12.997760000000028  C 20.52256 12.527359999999987  21.58432096 11.882239999999967  22.24288 11.062399999999968  C 22.323520000000002 10.94144  22.41760096 10.820479999999975  22.498240960000004 10.686080000000004  C 23.65408 11.277440000000013  24.796479999999995 12.043520000000001  25.925440959999996 12.984320000000025  L 26.46304 12.151040000000023  C 25.37439904 11.317760000000021  24.16480096 10.591999999999985  22.847679039999996 9.97375999999997  C 22.928319039999998 9.758719999999983  22.99552096 9.543679808000036  23.06272 9.30175990400005  L 26.368960959999995 9.30175990400005  L 26.368960959999995 8.414720192000004  L 23.23744096 8.414720192000004  C 23.264320960000006 8.11903961600001  23.291200959999998 7.823359999999979  23.30464096 7.500800000000027  L 23.30464096 5.014399904000015  L 22.36384192 5.014399904000015  L 22.36384192 7.500800000000027  C 22.350401920000003 7.809920000000034  22.323520000000002 8.11903961600001  22.2832 8.414720192000004  Z M 21.113919999999993 7.527679904000024  C 20.49568096 7.016959808000024  19.823680000000003 6.573439903999997  19.08448096 6.223999616000015  L 18.627519999999997 6.882560000000012  C 19.3264 7.218559904000018  19.998400960000005 7.67551971200004  20.656959999999998 8.240000000000009  L 21.113919999999993 7.527679904000024  Z M 22.01439904 6.062719904000005  C 21.436479999999996 5.578879712000003  20.80480096 5.162239711999973  20.119359999999993 4.83967971200002  L 19.689280000000004 5.484799616000032  C 20.320959039999998 5.780479711999988  20.939199999999992 6.21055971200002  21.557440959999994 6.7481596160000095  L 22.01439904 6.062719904000005  Z M 29.55423904 4.557439616000011  L 29.769280000000002 3.710719616000006  L 31.691200960000003 3.710719616000006  C 31.67776096 4.006399712000018  31.624001919999998 4.288639808000028  31.543361919999995 4.557439616000011  L 29.55423904 4.557439616000011  Z M 32.51104096 4.557439616000011  C 32.56480096 4.288639808000028  32.60512096 4.006399712000018  32.63200096 3.710719616000006  L 34.59423904 3.710719616000006  L 34.59423904 4.557439616000011  L 32.51104096 4.557439616000011  Z M 35.535039039999994 4.557439616000011  L 35.535039039999994 3.710719616000006  L 38.50528096000001 3.710719616000006  L 38.50528096000001 1.2915200959999993  L 35.535039039999994 1.2915200959999993  L 35.535039039999994 0.5926394623999727  L 34.59423904 0.5926394623999727  L 34.59423904 1.2915200959999993  L 32.63200096 1.2915200959999993  L 32.63200096 0.5926394623999727  L 31.691200960000003 0.5926394623999727  L 31.691200960000003 1.2915200959999993  L 28.62688 1.2915200959999993  L 28.62688 2.0844793279999863  L 31.691200960000003 2.0844793279999863  L 31.691200960000003 2.944639327999994  L 28.976319999999994 2.944639327999994  L 28.505919999999996 5.296640000000025  L 31.153599999999997 5.296640000000025  C 31.072960000000002 5.40415999999999  30.978880959999998 5.511680000000013  30.88480096 5.619199999999978  C 30.360640000000004 6.1030397119999975  29.41984 6.492799808000029  28.048960959999995 6.788479903999985  L 28.532799999999995 7.554559808000021  C 28.882240959999997 7.473919711999996  29.23168096 7.3798400960000095  29.567679039999994 7.272319616000004  L 29.567679039999994 10.84735999999998  L 30.521920959999996 10.84735999999998  L 30.521920959999996 8.051839904000019  L 37.10752 8.051839904000019  L 37.10752 10.84735999999998  L 38.06175904 10.84735999999998  L 38.06175904 7.1916800000000185  L 29.809600000000003 7.1916800000000185  C 30.589120959999995 6.922879808000005  31.180480000000003 6.586879904  31.610561919999995 6.183679808000022  C 31.852479999999993 5.928319999999985  32.06752 5.63263990400003  32.242239039999994 5.296640000000025  L 34.59423904 5.296640000000025  L 34.59423904 6.828799712000034  L 35.535039039999994 6.828799712000034  L 35.535039039999994 5.296640000000025  L 38.236481919999996 5.296640000000025  C 38.22304192 5.646079903999976  38.18272192 5.874559808000015  38.10208288 5.995519712000032  C 37.99455903999999 6.129920000000027  37.739200000000004 6.197119712000017  37.32255904 6.197119712000017  C 37.10752 6.197119712000017  36.87904096 6.183679808000022  36.63712192 6.1702399039999705  L 36.82528096 6.855679616000032  C 37.01344 6.855679616000032  37.228479039999996 6.869120000000009  37.44351808 6.869120000000009  C 38.169281919999996 6.869120000000009  38.63968 6.721279712000012  38.84127904 6.4255997120000075  C 39.04287807999999 6.1702399039999705  39.15040192 5.551999808000005  39.15040192 4.557439616000011  L 35.535039039999994 4.557439616000011  Z M 32.63200096 2.944639327999994  L 32.63200096 2.0844793279999863  L 34.59423904 2.0844793279999863  L 34.59423904 2.944639327999994  L 32.63200096 2.944639327999994  Z M 35.535039039999994 2.944639327999994  L 35.535039039999994 2.0844793279999863  L 37.591360959999996 2.0844793279999863  L 37.591360959999996 2.944639327999994  L 35.535039039999994 2.944639327999994  Z M 39.29824096 12.204799999999977  C 37.86016 11.586559999999963  36.27423904 11.075840000000028  34.54048 10.659199999999998  L 34.05663808 11.384960000000035  C 35.66943808 11.774720000000002  37.24191904 12.31232  38.77408 13.01120000000003  L 39.29824096 12.204799999999977  Z M 34.25824096 8.61632019199999  L 33.290561919999995 8.522239711999987  C 33.18304192 9.74527999999998  32.8336 10.61887999999999  32.22879903999999 11.143039999999985  C 31.543361919999995 11.680639999999983  30.13216096 11.98975999999999  27.99520096 12.097280000000012  L 28.38496096 12.957439999999963  C 30.804160959999997 12.782719999999983  32.349758079999994 12.36608000000001  33.04863904 11.707520000000045  C 33.68032 11.16991999999999  34.083521919999995 10.148480000000006  34.25824096 8.61632019199999  Z " fill-rule="evenodd" />
    </mask>
  </defs>
  <g transform="matrix(1 0 0 1 -1778 -342 )">
    <path d="M 11.74624 1.5603198079999743  L 11.275840000000002 0.7404797408000263  C 8.708800672000002 1.3587198079999894  5.483200095999997 1.6812793280000164  1.5855999999999995 1.6812793280000164  L 1.8812800960000011 2.5548800959999767  C 3.547839999999997 2.5548800959999767  5.093439904 2.487679424000021  6.5180800959999985 2.3801599039999815  L 6.5180800959999985 4.570879999999988  L 1.854400095999999 4.570879999999988  L 1.854400095999999 5.511680000000013  L 6.5180800959999985 5.511680000000013  L 6.5180800959999985 7.715840000000014  L 0.7388800384000014 7.715840000000014  L 0.7388800384000014 8.643200095999987  L 6.5180800959999985 8.643200095999987  L 6.5180800959999985 11.371519999999975  C 6.5180800959999985 11.747839999999997  6.303040191999997 11.949439999999981  5.899840095999998 11.949439999999981  C 5.281600000000001 11.949439999999981  4.623040191999998 11.922560000000033  3.937599903999999 11.89567999999997  L 4.152639904000001 12.836479999999995  L 6.23584 12.836479999999995  C 7.069119999999998 12.836479999999995  7.499200479999999 12.419839999999965  7.499200479999999 11.613440000000026  L 7.499200479999999 8.643200095999987  L 12.794559999999997 8.643200095999987  L 12.794559999999997 7.715840000000014  L 7.499200479999999 7.715840000000014  L 7.499200479999999 5.511680000000013  L 11.786560000000001 5.511680000000013  L 11.786560000000001 4.570879999999988  L 7.499200479999999 4.570879999999988  L 7.499200479999999 2.299519328000031  C 9.112000767999994 2.138240096000004  10.523200000000003 1.8828793280000014  11.74624 1.5603198079999743  Z M 18.318400960000005 11.022080000000017  L 18.318400960000005 10.108159999999998  C 17.149120959999998 10.591999999999985  15.79168096 10.968320000000006  14.232639999999996 11.250560000000007  L 14.353599999999993 12.191359999999975  C 15.832000960000002 11.89567999999997  17.149120959999998 11.505920000000003  18.318400960000005 11.022080000000017  Z M 17.189440000000005 0.9823995968000078  L 16.27552096 0.6195193471999687  C 15.79168096 2.151679999999999  15.213759999999994 3.5225595200000153  14.5552 4.718719808000003  C 14.434239999999996 4.89343990399999  14.299839999999996 5.014399904000015  14.152000000000001 5.068159616000003  L 14.393919999999994 5.955199903999983  C 15.092799999999997 5.847679904000017  15.79168096 5.740159903999995  16.47712 5.619199999999978  C 15.778240959999998 6.815359807999982  15.186879999999995 7.662079807999987  14.703040000000001 8.172800288000019  C 14.582079999999998 8.293759808000004  14.434239999999996 8.387839327999984  14.259519999999995 8.441599999999994  L 14.52832 9.328639808000048  C 15.670719999999996 9.167359615999999  16.866879999999995 8.885119904000021  18.13024 8.455039999999997  L 18.13024 7.58143971200002  C 17.323840000000004 7.877119712000024  16.503999999999998 8.105599712000014  15.69759904 8.266879904000007  C 16.45024 7.352959712000029  17.417920959999996 5.807359615999985  18.587199999999996 3.6569598080000105  L 17.700159999999997 3.320959519999974  C 17.444800960000002 3.818240096000011  17.20288 4.288639808000028  16.96095904 4.732159711999998  C 16.396479999999997 4.83967971200002  15.845440959999998 4.933759807999991  15.294399999999996 5.000959904000013  C 15.939519999999995 3.9929597120000153  16.571199040000003 2.6489596160000133  17.189440000000005 0.9823995968000078  Z M 21.97408 1.4796792320000236  L 19.272639999999996 1.4796792320000236  L 19.272639999999996 2.353279999999984  L 21.97408 2.353279999999984  L 21.97408 3.5763201919999688  L 18.856 3.5763201919999688  L 18.856 4.463359999999966  L 24.998080960000003 4.463359999999966  C 24.809919999999998 5.189120000000003  24.581439039999992 5.861119808000012  24.299199999999992 6.45247999999998  L 25.22656 6.721279712000012  C 25.549120959999996 5.88799971200001  25.80448096 5.041279712000005  25.992639999999994 4.181119808000005  L 25.992639999999994 3.5763201919999688  L 22.914879039999995 3.5763201919999688  L 22.914879039999995 2.353279999999984  L 25.80448096 2.353279999999984  L 25.80448096 1.4796792320000236  L 22.914879039999995 1.4796792320000236  L 22.914879039999995 0.5926394623999727  L 21.97408 0.5926394623999727  L 21.97408 1.4796792320000236  Z M 22.2832 8.414720192000004  L 18.560319999999997 8.414720192000004  L 18.560319999999997 9.30175990400005  L 22.068159039999998 9.30175990400005  C 21.933759999999992 9.704960000000028  21.745600959999997 10.081279999999992  21.503680000000003 10.417280000000005  C 20.939199999999992 11.143039999999985  19.94464096 11.720959999999991  18.50656 12.151040000000023  L 19.044159999999998 12.997760000000028  C 20.52256 12.527359999999987  21.58432096 11.882239999999967  22.24288 11.062399999999968  C 22.323520000000002 10.94144  22.41760096 10.820479999999975  22.498240960000004 10.686080000000004  C 23.65408 11.277440000000013  24.796479999999995 12.043520000000001  25.925440959999996 12.984320000000025  L 26.46304 12.151040000000023  C 25.37439904 11.317760000000021  24.16480096 10.591999999999985  22.847679039999996 9.97375999999997  C 22.928319039999998 9.758719999999983  22.99552096 9.543679808000036  23.06272 9.30175990400005  L 26.368960959999995 9.30175990400005  L 26.368960959999995 8.414720192000004  L 23.23744096 8.414720192000004  C 23.264320960000006 8.11903961600001  23.291200959999998 7.823359999999979  23.30464096 7.500800000000027  L 23.30464096 5.014399904000015  L 22.36384192 5.014399904000015  L 22.36384192 7.500800000000027  C 22.350401920000003 7.809920000000034  22.323520000000002 8.11903961600001  22.2832 8.414720192000004  Z M 21.113919999999993 7.527679904000024  C 20.49568096 7.016959808000024  19.823680000000003 6.573439903999997  19.08448096 6.223999616000015  L 18.627519999999997 6.882560000000012  C 19.3264 7.218559904000018  19.998400960000005 7.67551971200004  20.656959999999998 8.240000000000009  L 21.113919999999993 7.527679904000024  Z M 22.01439904 6.062719904000005  C 21.436479999999996 5.578879712000003  20.80480096 5.162239711999973  20.119359999999993 4.83967971200002  L 19.689280000000004 5.484799616000032  C 20.320959039999998 5.780479711999988  20.939199999999992 6.21055971200002  21.557440959999994 6.7481596160000095  L 22.01439904 6.062719904000005  Z M 29.55423904 4.557439616000011  L 29.769280000000002 3.710719616000006  L 31.691200960000003 3.710719616000006  C 31.67776096 4.006399712000018  31.624001919999998 4.288639808000028  31.543361919999995 4.557439616000011  L 29.55423904 4.557439616000011  Z M 32.51104096 4.557439616000011  C 32.56480096 4.288639808000028  32.60512096 4.006399712000018  32.63200096 3.710719616000006  L 34.59423904 3.710719616000006  L 34.59423904 4.557439616000011  L 32.51104096 4.557439616000011  Z M 35.535039039999994 4.557439616000011  L 35.535039039999994 3.710719616000006  L 38.50528096000001 3.710719616000006  L 38.50528096000001 1.2915200959999993  L 35.535039039999994 1.2915200959999993  L 35.535039039999994 0.5926394623999727  L 34.59423904 0.5926394623999727  L 34.59423904 1.2915200959999993  L 32.63200096 1.2915200959999993  L 32.63200096 0.5926394623999727  L 31.691200960000003 0.5926394623999727  L 31.691200960000003 1.2915200959999993  L 28.62688 1.2915200959999993  L 28.62688 2.0844793279999863  L 31.691200960000003 2.0844793279999863  L 31.691200960000003 2.944639327999994  L 28.976319999999994 2.944639327999994  L 28.505919999999996 5.296640000000025  L 31.153599999999997 5.296640000000025  C 31.072960000000002 5.40415999999999  30.978880959999998 5.511680000000013  30.88480096 5.619199999999978  C 30.360640000000004 6.1030397119999975  29.41984 6.492799808000029  28.048960959999995 6.788479903999985  L 28.532799999999995 7.554559808000021  C 28.882240959999997 7.473919711999996  29.23168096 7.3798400960000095  29.567679039999994 7.272319616000004  L 29.567679039999994 10.84735999999998  L 30.521920959999996 10.84735999999998  L 30.521920959999996 8.051839904000019  L 37.10752 8.051839904000019  L 37.10752 10.84735999999998  L 38.06175904 10.84735999999998  L 38.06175904 7.1916800000000185  L 29.809600000000003 7.1916800000000185  C 30.589120959999995 6.922879808000005  31.180480000000003 6.586879904  31.610561919999995 6.183679808000022  C 31.852479999999993 5.928319999999985  32.06752 5.63263990400003  32.242239039999994 5.296640000000025  L 34.59423904 5.296640000000025  L 34.59423904 6.828799712000034  L 35.535039039999994 6.828799712000034  L 35.535039039999994 5.296640000000025  L 38.236481919999996 5.296640000000025  C 38.22304192 5.646079903999976  38.18272192 5.874559808000015  38.10208288 5.995519712000032  C 37.99455903999999 6.129920000000027  37.739200000000004 6.197119712000017  37.32255904 6.197119712000017  C 37.10752 6.197119712000017  36.87904096 6.183679808000022  36.63712192 6.1702399039999705  L 36.82528096 6.855679616000032  C 37.01344 6.855679616000032  37.228479039999996 6.869120000000009  37.44351808 6.869120000000009  C 38.169281919999996 6.869120000000009  38.63968 6.721279712000012  38.84127904 6.4255997120000075  C 39.04287807999999 6.1702399039999705  39.15040192 5.551999808000005  39.15040192 4.557439616000011  L 35.535039039999994 4.557439616000011  Z M 32.63200096 2.944639327999994  L 32.63200096 2.0844793279999863  L 34.59423904 2.0844793279999863  L 34.59423904 2.944639327999994  L 32.63200096 2.944639327999994  Z M 35.535039039999994 2.944639327999994  L 35.535039039999994 2.0844793279999863  L 37.591360959999996 2.0844793279999863  L 37.591360959999996 2.944639327999994  L 35.535039039999994 2.944639327999994  Z M 39.29824096 12.204799999999977  C 37.86016 11.586559999999963  36.27423904 11.075840000000028  34.54048 10.659199999999998  L 34.05663808 11.384960000000035  C 35.66943808 11.774720000000002  37.24191904 12.31232  38.77408 13.01120000000003  L 39.29824096 12.204799999999977  Z M 34.25824096 8.61632019199999  L 33.290561919999995 8.522239711999987  C 33.18304192 9.74527999999998  32.8336 10.61887999999999  32.22879903999999 11.143039999999985  C 31.543361919999995 11.680639999999983  30.13216096 11.98975999999999  27.99520096 12.097280000000012  L 28.38496096 12.957439999999963  C 30.804160959999997 12.782719999999983  32.349758079999994 12.36608000000001  33.04863904 11.707520000000045  C 33.68032 11.16991999999999  34.083521919999995 10.148480000000006  34.25824096 8.61632019199999  Z " fill-rule="nonzero" fill="rgba(51, 51, 51, 1)" stroke="none" transform="matrix(1 0 0 1 1778 342 )" class="fill" />
    <path d="M 11.74624 1.5603198079999743  L 11.275840000000002 0.7404797408000263  C 8.708800672000002 1.3587198079999894  5.483200095999997 1.6812793280000164  1.5855999999999995 1.6812793280000164  L 1.8812800960000011 2.5548800959999767  C 3.547839999999997 2.5548800959999767  5.093439904 2.487679424000021  6.5180800959999985 2.3801599039999815  L 6.5180800959999985 4.570879999999988  L 1.854400095999999 4.570879999999988  L 1.854400095999999 5.511680000000013  L 6.5180800959999985 5.511680000000013  L 6.5180800959999985 7.715840000000014  L 0.7388800384000014 7.715840000000014  L 0.7388800384000014 8.643200095999987  L 6.5180800959999985 8.643200095999987  L 6.5180800959999985 11.371519999999975  C 6.5180800959999985 11.747839999999997  6.303040191999997 11.949439999999981  5.899840095999998 11.949439999999981  C 5.281600000000001 11.949439999999981  4.623040191999998 11.922560000000033  3.937599903999999 11.89567999999997  L 4.152639904000001 12.836479999999995  L 6.23584 12.836479999999995  C 7.069119999999998 12.836479999999995  7.499200479999999 12.419839999999965  7.499200479999999 11.613440000000026  L 7.499200479999999 8.643200095999987  L 12.794559999999997 8.643200095999987  L 12.794559999999997 7.715840000000014  L 7.499200479999999 7.715840000000014  L 7.499200479999999 5.511680000000013  L 11.786560000000001 5.511680000000013  L 11.786560000000001 4.570879999999988  L 7.499200479999999 4.570879999999988  L 7.499200479999999 2.299519328000031  C 9.112000767999994 2.138240096000004  10.523200000000003 1.8828793280000014  11.74624 1.5603198079999743  Z " stroke-width="0" stroke-dasharray="0" stroke="rgba(255, 255, 255, 0)" fill="none" transform="matrix(1 0 0 1 1778 342 )" class="stroke" mask="url(#Clip18696)" />
    <path d="M 18.318400960000005 11.022080000000017  L 18.318400960000005 10.108159999999998  C 17.149120959999998 10.591999999999985  15.79168096 10.968320000000006  14.232639999999996 11.250560000000007  L 14.353599999999993 12.191359999999975  C 15.832000960000002 11.89567999999997  17.149120959999998 11.505920000000003  18.318400960000005 11.022080000000017  Z " stroke-width="0" stroke-dasharray="0" stroke="rgba(255, 255, 255, 0)" fill="none" transform="matrix(1 0 0 1 1778 342 )" class="stroke" mask="url(#Clip18696)" />
    <path d="M 17.189440000000005 0.9823995968000078  L 16.27552096 0.6195193471999687  C 15.79168096 2.151679999999999  15.213759999999994 3.5225595200000153  14.5552 4.718719808000003  C 14.434239999999996 4.89343990399999  14.299839999999996 5.014399904000015  14.152000000000001 5.068159616000003  L 14.393919999999994 5.955199903999983  C 15.092799999999997 5.847679904000017  15.79168096 5.740159903999995  16.47712 5.619199999999978  C 15.778240959999998 6.815359807999982  15.186879999999995 7.662079807999987  14.703040000000001 8.172800288000019  C 14.582079999999998 8.293759808000004  14.434239999999996 8.387839327999984  14.259519999999995 8.441599999999994  L 14.52832 9.328639808000048  C 15.670719999999996 9.167359615999999  16.866879999999995 8.885119904000021  18.13024 8.455039999999997  L 18.13024 7.58143971200002  C 17.323840000000004 7.877119712000024  16.503999999999998 8.105599712000014  15.69759904 8.266879904000007  C 16.45024 7.352959712000029  17.417920959999996 5.807359615999985  18.587199999999996 3.6569598080000105  L 17.700159999999997 3.320959519999974  C 17.444800960000002 3.818240096000011  17.20288 4.288639808000028  16.96095904 4.732159711999998  C 16.396479999999997 4.83967971200002  15.845440959999998 4.933759807999991  15.294399999999996 5.000959904000013  C 15.939519999999995 3.9929597120000153  16.571199040000003 2.6489596160000133  17.189440000000005 0.9823995968000078  Z " stroke-width="0" stroke-dasharray="0" stroke="rgba(255, 255, 255, 0)" fill="none" transform="matrix(1 0 0 1 1778 342 )" class="stroke" mask="url(#Clip18696)" />
    <path d="M 21.97408 1.4796792320000236  L 19.272639999999996 1.4796792320000236  L 19.272639999999996 2.353279999999984  L 21.97408 2.353279999999984  L 21.97408 3.5763201919999688  L 18.856 3.5763201919999688  L 18.856 4.463359999999966  L 24.998080960000003 4.463359999999966  C 24.809919999999998 5.189120000000003  24.581439039999992 5.861119808000012  24.299199999999992 6.45247999999998  L 25.22656 6.721279712000012  C 25.549120959999996 5.88799971200001  25.80448096 5.041279712000005  25.992639999999994 4.181119808000005  L 25.992639999999994 3.5763201919999688  L 22.914879039999995 3.5763201919999688  L 22.914879039999995 2.353279999999984  L 25.80448096 2.353279999999984  L 25.80448096 1.4796792320000236  L 22.914879039999995 1.4796792320000236  L 22.914879039999995 0.5926394623999727  L 21.97408 0.5926394623999727  L 21.97408 1.4796792320000236  Z " stroke-width="0" stroke-dasharray="0" stroke="rgba(255, 255, 255, 0)" fill="none" transform="matrix(1 0 0 1 1778 342 )" class="stroke" mask="url(#Clip18696)" />
    <path d="M 22.2832 8.414720192000004  L 18.560319999999997 8.414720192000004  L 18.560319999999997 9.30175990400005  L 22.068159039999998 9.30175990400005  C 21.933759999999992 9.704960000000028  21.745600959999997 10.081279999999992  21.503680000000003 10.417280000000005  C 20.939199999999992 11.143039999999985  19.94464096 11.720959999999991  18.50656 12.151040000000023  L 19.044159999999998 12.997760000000028  C 20.52256 12.527359999999987  21.58432096 11.882239999999967  22.24288 11.062399999999968  C 22.323520000000002 10.94144  22.41760096 10.820479999999975  22.498240960000004 10.686080000000004  C 23.65408 11.277440000000013  24.796479999999995 12.043520000000001  25.925440959999996 12.984320000000025  L 26.46304 12.151040000000023  C 25.37439904 11.317760000000021  24.16480096 10.591999999999985  22.847679039999996 9.97375999999997  C 22.928319039999998 9.758719999999983  22.99552096 9.543679808000036  23.06272 9.30175990400005  L 26.368960959999995 9.30175990400005  L 26.368960959999995 8.414720192000004  L 23.23744096 8.414720192000004  C 23.264320960000006 8.11903961600001  23.291200959999998 7.823359999999979  23.30464096 7.500800000000027  L 23.30464096 5.014399904000015  L 22.36384192 5.014399904000015  L 22.36384192 7.500800000000027  C 22.350401920000003 7.809920000000034  22.323520000000002 8.11903961600001  22.2832 8.414720192000004  Z " stroke-width="0" stroke-dasharray="0" stroke="rgba(255, 255, 255, 0)" fill="none" transform="matrix(1 0 0 1 1778 342 )" class="stroke" mask="url(#Clip18696)" />
    <path d="M 21.113919999999993 7.527679904000024  C 20.49568096 7.016959808000024  19.823680000000003 6.573439903999997  19.08448096 6.223999616000015  L 18.627519999999997 6.882560000000012  C 19.3264 7.218559904000018  19.998400960000005 7.67551971200004  20.656959999999998 8.240000000000009  L 21.113919999999993 7.527679904000024  Z " stroke-width="0" stroke-dasharray="0" stroke="rgba(255, 255, 255, 0)" fill="none" transform="matrix(1 0 0 1 1778 342 )" class="stroke" mask="url(#Clip18696)" />
    <path d="M 22.01439904 6.062719904000005  C 21.436479999999996 5.578879712000003  20.80480096 5.162239711999973  20.119359999999993 4.83967971200002  L 19.689280000000004 5.484799616000032  C 20.320959039999998 5.780479711999988  20.939199999999992 6.21055971200002  21.557440959999994 6.7481596160000095  L 22.01439904 6.062719904000005  Z " stroke-width="0" stroke-dasharray="0" stroke="rgba(255, 255, 255, 0)" fill="none" transform="matrix(1 0 0 1 1778 342 )" class="stroke" mask="url(#Clip18696)" />
    <path d="M 29.55423904 4.557439616000011  L 29.769280000000002 3.710719616000006  L 31.691200960000003 3.710719616000006  C 31.67776096 4.006399712000018  31.624001919999998 4.288639808000028  31.543361919999995 4.557439616000011  L 29.55423904 4.557439616000011  Z " stroke-width="0" stroke-dasharray="0" stroke="rgba(255, 255, 255, 0)" fill="none" transform="matrix(1 0 0 1 1778 342 )" class="stroke" mask="url(#Clip18696)" />
    <path d="M 32.51104096 4.557439616000011  C 32.56480096 4.288639808000028  32.60512096 4.006399712000018  32.63200096 3.710719616000006  L 34.59423904 3.710719616000006  L 34.59423904 4.557439616000011  L 32.51104096 4.557439616000011  Z " stroke-width="0" stroke-dasharray="0" stroke="rgba(255, 255, 255, 0)" fill="none" transform="matrix(1 0 0 1 1778 342 )" class="stroke" mask="url(#Clip18696)" />
    <path d="M 35.535039039999994 4.557439616000011  L 35.535039039999994 3.710719616000006  L 38.50528096000001 3.710719616000006  L 38.50528096000001 1.2915200959999993  L 35.535039039999994 1.2915200959999993  L 35.535039039999994 0.5926394623999727  L 34.59423904 0.5926394623999727  L 34.59423904 1.2915200959999993  L 32.63200096 1.2915200959999993  L 32.63200096 0.5926394623999727  L 31.691200960000003 0.5926394623999727  L 31.691200960000003 1.2915200959999993  L 28.62688 1.2915200959999993  L 28.62688 2.0844793279999863  L 31.691200960000003 2.0844793279999863  L 31.691200960000003 2.944639327999994  L 28.976319999999994 2.944639327999994  L 28.505919999999996 5.296640000000025  L 31.153599999999997 5.296640000000025  C 31.072960000000002 5.40415999999999  30.978880959999998 5.511680000000013  30.88480096 5.619199999999978  C 30.360640000000004 6.1030397119999975  29.41984 6.492799808000029  28.048960959999995 6.788479903999985  L 28.532799999999995 7.554559808000021  C 28.882240959999997 7.473919711999996  29.23168096 7.3798400960000095  29.567679039999994 7.272319616000004  L 29.567679039999994 10.84735999999998  L 30.521920959999996 10.84735999999998  L 30.521920959999996 8.051839904000019  L 37.10752 8.051839904000019  L 37.10752 10.84735999999998  L 38.06175904 10.84735999999998  L 38.06175904 7.1916800000000185  L 29.809600000000003 7.1916800000000185  C 30.589120959999995 6.922879808000005  31.180480000000003 6.586879904  31.610561919999995 6.183679808000022  C 31.852479999999993 5.928319999999985  32.06752 5.63263990400003  32.242239039999994 5.296640000000025  L 34.59423904 5.296640000000025  L 34.59423904 6.828799712000034  L 35.535039039999994 6.828799712000034  L 35.535039039999994 5.296640000000025  L 38.236481919999996 5.296640000000025  C 38.22304192 5.646079903999976  38.18272192 5.874559808000015  38.10208288 5.995519712000032  C 37.99455903999999 6.129920000000027  37.739200000000004 6.197119712000017  37.32255904 6.197119712000017  C 37.10752 6.197119712000017  36.87904096 6.183679808000022  36.63712192 6.1702399039999705  L 36.82528096 6.855679616000032  C 37.01344 6.855679616000032  37.228479039999996 6.869120000000009  37.44351808 6.869120000000009  C 38.169281919999996 6.869120000000009  38.63968 6.721279712000012  38.84127904 6.4255997120000075  C 39.04287807999999 6.1702399039999705  39.15040192 5.551999808000005  39.15040192 4.557439616000011  L 35.535039039999994 4.557439616000011  Z " stroke-width="0" stroke-dasharray="0" stroke="rgba(255, 255, 255, 0)" fill="none" transform="matrix(1 0 0 1 1778 342 )" class="stroke" mask="url(#Clip18696)" />
    <path d="M 32.63200096 2.944639327999994  L 32.63200096 2.0844793279999863  L 34.59423904 2.0844793279999863  L 34.59423904 2.944639327999994  L 32.63200096 2.944639327999994  Z " stroke-width="0" stroke-dasharray="0" stroke="rgba(255, 255, 255, 0)" fill="none" transform="matrix(1 0 0 1 1778 342 )" class="stroke" mask="url(#Clip18696)" />
    <path d="M 35.535039039999994 2.944639327999994  L 35.535039039999994 2.0844793279999863  L 37.591360959999996 2.0844793279999863  L 37.591360959999996 2.944639327999994  L 35.535039039999994 2.944639327999994  Z " stroke-width="0" stroke-dasharray="0" stroke="rgba(255, 255, 255, 0)" fill="none" transform="matrix(1 0 0 1 1778 342 )" class="stroke" mask="url(#Clip18696)" />
    <path d="M 39.29824096 12.204799999999977  C 37.86016 11.586559999999963  36.27423904 11.075840000000028  34.54048 10.659199999999998  L 34.05663808 11.384960000000035  C 35.66943808 11.774720000000002  37.24191904 12.31232  38.77408 13.01120000000003  L 39.29824096 12.204799999999977  Z " stroke-width="0" stroke-dasharray="0" stroke="rgba(255, 255, 255, 0)" fill="none" transform="matrix(1 0 0 1 1778 342 )" class="stroke" mask="url(#Clip18696)" />
    <path d="M 34.25824096 8.61632019199999  L 33.290561919999995 8.522239711999987  C 33.18304192 9.74527999999998  32.8336 10.61887999999999  32.22879903999999 11.143039999999985  C 31.543361919999995 11.680639999999983  30.13216096 11.98975999999999  27.99520096 12.097280000000012  L 28.38496096 12.957439999999963  C 30.804160959999997 12.782719999999983  32.349758079999994 12.36608000000001  33.04863904 11.707520000000045  C 33.68032 11.16991999999999  34.083521919999995 10.148480000000006  34.25824096 8.61632019199999  Z " stroke-width="0" stroke-dasharray="0" stroke="rgba(255, 255, 255, 0)" fill="none" transform="matrix(1 0 0 1 1778 342 )" class="stroke" mask="url(#Clip18696)" />
  </g>
</svg>