<?xml version="1.0" encoding="utf-8"?>
<svg version="1.1" xmlns:xlink="http://www.w3.org/1999/xlink" width="10px" height="7px" xmlns="http://www.w3.org/2000/svg">
  <defs>
    <pattern id="BGPattern" patternUnits="userSpaceOnUse" alignment="0 0" imageRepeat="None" />
    <mask fill="white" id="Clip2706">
      <path d="M 9.848046875 6.067578124999999  C 9.848046875 6.542187499999999  9.461328125 6.928906249999999  8.9849609375 6.928906249999999  L 1.0150390625000005 6.928906249999999  C 0.5404296875000005 6.928906249999999  0.15371093750000053 6.542187499999999  0.15371093750000053 6.067578124999999  L 0.15371093750000053 0.962890625  L 9.848046875 0.962890625  L 9.848046875 6.067578124999999  Z M 9.66875 1.1421875000000004  L 0.3330078125 1.1421875000000004  L 0.3330078125 6.0658203125  C 0.3330078125 6.441992187499999  0.6388671874999998 6.747851562499999  1.0150390625000005 6.747851562499999  L 8.98671875 6.747851562499999  C 9.362890624999999 6.747851562499999  9.66875 6.441992187499999  9.66875 6.0658203125  L 9.66875 1.1421875000000004  Z " fill-rule="evenodd" />
    </mask>
  </defs>
  <g transform="matrix(1 0 0 1 -685 -1244 )">
    <path d="M 9.848046875 6.067578124999999  C 9.848046875 6.542187499999999  9.461328125 6.928906249999999  8.9849609375 6.928906249999999  L 1.0150390625000005 6.928906249999999  C 0.5404296875000005 6.928906249999999  0.15371093750000053 6.542187499999999  0.15371093750000053 6.067578124999999  L 0.15371093750000053 0.962890625  L 9.848046875 0.962890625  L 9.848046875 6.067578124999999  Z M 9.66875 1.1421875000000004  L 0.3330078125 1.1421875000000004  L 0.3330078125 6.0658203125  C 0.3330078125 6.441992187499999  0.6388671874999998 6.747851562499999  1.0150390625000005 6.747851562499999  L 8.98671875 6.747851562499999  C 9.362890624999999 6.747851562499999  9.66875 6.441992187499999  9.66875 6.0658203125  L 9.66875 1.1421875000000004  Z " fill-rule="nonzero" fill="rgba(71, 26, 26, 1)" stroke="none" transform="matrix(1 0 0 1 685 1244 )" class="fill" />
    <path d="M 9.848046875 6.067578124999999  C 9.848046875 6.542187499999999  9.461328125 6.928906249999999  8.9849609375 6.928906249999999  L 1.0150390625000005 6.928906249999999  C 0.5404296875000005 6.928906249999999  0.15371093750000053 6.542187499999999  0.15371093750000053 6.067578124999999  L 0.15371093750000053 0.962890625  L 9.848046875 0.962890625  L 9.848046875 6.067578124999999  Z " stroke-width="0" stroke-dasharray="0" stroke="rgba(255, 255, 255, 0)" fill="none" transform="matrix(1 0 0 1 685 1244 )" class="stroke" mask="url(#Clip2706)" />
    <path d="M 9.66875 1.1421875000000004  L 0.3330078125 1.1421875000000004  L 0.3330078125 6.0658203125  C 0.3330078125 6.441992187499999  0.6388671874999998 6.747851562499999  1.0150390625000005 6.747851562499999  L 8.98671875 6.747851562499999  C 9.362890624999999 6.747851562499999  9.66875 6.441992187499999  9.66875 6.0658203125  L 9.66875 1.1421875000000004  Z " stroke-width="0" stroke-dasharray="0" stroke="rgba(255, 255, 255, 0)" fill="none" transform="matrix(1 0 0 1 685 1244 )" class="stroke" mask="url(#Clip2706)" />
  </g>
</svg>