<?xml version="1.0" encoding="utf-8"?>
<svg version="1.1" xmlns:xlink="http://www.w3.org/1999/xlink" width="2px" height="2px" xmlns="http://www.w3.org/2000/svg">
  <defs>
    <pattern id="BGPattern" patternUnits="userSpaceOnUse" alignment="0 0" imageRepeat="None" />
    <mask fill="white" id="Clip2407">
      <path d="M 0.34726562500000036 0.7742187499999993  C 0.34726562500000036 1.0586669697858984  0.5778564677141009 1.2892578124999998  0.8623046875 1.2892578124999998  C 1.146752907285899 1.2892578124999998  1.3773437499999996 1.0586669697858984  1.3773437499999996 0.7742187499999993  C 1.3773437499999996 0.4897705302141011  1.146752907285899 0.25917968749999964  0.8623046875 0.25917968749999964  C 0.5778564677141009 0.25917968749999964  0.34726562500000036 0.4897705302141011  0.34726562500000036 0.7742187499999993  Z " fill-rule="evenodd" />
    </mask>
  </defs>
  <g transform="matrix(1 0 0 1 -695 -1241 )">
    <path d="M 0.34726562500000036 0.7742187499999993  C 0.34726562500000036 1.0586669697858984  0.5778564677141009 1.2892578124999998  0.8623046875 1.2892578124999998  C 1.146752907285899 1.2892578124999998  1.3773437499999996 1.0586669697858984  1.3773437499999996 0.7742187499999993  C 1.3773437499999996 0.4897705302141011  1.146752907285899 0.25917968749999964  0.8623046875 0.25917968749999964  C 0.5778564677141009 0.25917968749999964  0.34726562500000036 0.4897705302141011  0.34726562500000036 0.7742187499999993  Z " fill-rule="nonzero" fill="rgba(242, 188, 54, 1)" stroke="none" transform="matrix(1 0 0 1 695 1241 )" class="fill" />
    <path d="M 0.34726562500000036 0.7742187499999993  C 0.34726562500000036 1.0586669697858984  0.5778564677141009 1.2892578124999998  0.8623046875 1.2892578124999998  C 1.146752907285899 1.2892578124999998  1.3773437499999996 1.0586669697858984  1.3773437499999996 0.7742187499999993  C 1.3773437499999996 0.4897705302141011  1.146752907285899 0.25917968749999964  0.8623046875 0.25917968749999964  C 0.5778564677141009 0.25917968749999964  0.34726562500000036 0.4897705302141011  0.34726562500000036 0.7742187499999993  Z " stroke-width="0" stroke-dasharray="0" stroke="rgba(255, 255, 255, 0)" fill="none" transform="matrix(1 0 0 1 695 1241 )" class="stroke" mask="url(#Clip2407)" />
  </g>
</svg>