<?xml version="1.0" encoding="utf-8"?>
<svg version="1.1" xmlns:xlink="http://www.w3.org/1999/xlink" width="6px" height="5px" xmlns="http://www.w3.org/2000/svg">
  <defs>
    <pattern id="BGPattern" patternUnits="userSpaceOnUse" alignment="0 0" imageRepeat="None" />
    <mask fill="white" id="Clip2200">
      <path d="M 4.692 4.507999999999999  L 4.686 4.502000000000001  C 4.529999999999999 4.502000000000001  4.404 4.382  4.398 4.225999999999999  C 4.398 4.1419999999999995  4.427999999999999 4.058  4.494 4.004000000000001  L 4.511999999999999 3.9860000000000007  L 4.643999999999998 3.860000000000001  C 4.337999999999999 3.7940000000000023  4.055999999999998 3.6620000000000026  3.815999999999998 3.4640000000000013  L 3.773999999999999 3.4220000000000024  L 3.767999999999999 3.416000000000002  L 1.613999999999999 1.094000000000003  C 1.355999999999999 0.7940000000000023  0.9839999999999995 0.626000000000003  0.5939999999999994 0.626000000000003  C 0.43799999999999883 0.626000000000003  0.30599999999999916 0.5000000000000027  0.30599999999999916 0.33800000000000274  C 0.30599999999999916 0.18200000000000216  0.43199999999999905 0.05000000000000249  0.5939999999999994 0.05000000000000249  C 1.145999999999999 0.05000000000000249  1.6739999999999995 0.2900000000000027  2.039999999999999 0.7040000000000024  L 4.188 3.0200000000000022  C 4.284 3.0980000000000016  4.3919999999999995 3.1640000000000024  4.505999999999999 3.2120000000000024  C 4.452 3.158000000000003  4.421999999999999 3.0920000000000023  4.416 3.0200000000000022  C 4.416 2.942000000000003  4.4399999999999995 2.8700000000000028  4.494 2.8160000000000025  C 4.547999999999998 2.7620000000000022  4.613999999999999 2.7260000000000026  4.691999999999998 2.7260000000000026  L 4.703999999999999 2.7260000000000026  C 4.775999999999999 2.7260000000000026  4.841999999999999 2.756000000000002  4.895999999999999 2.804000000000002  C 4.901999999999998 2.8100000000000014  4.9079999999999995 2.8100000000000014  4.913999999999998 2.8160000000000025  L 5.645999999999999 3.554000000000002  C 5.663999999999998 3.572000000000001  5.669999999999998 3.596000000000002  5.669999999999998 3.620000000000001  C 5.669999999999998 3.644000000000002  5.6579999999999995 3.668000000000001  5.640000000000001 3.686000000000001  L 4.901999999999999 4.399999999999999  L 4.896000000000001 4.405999999999999  C 4.848000000000001 4.465999999999999  4.770000000000001 4.501999999999999  4.692 4.507999999999999  Z " fill-rule="evenodd" />
    </mask>
  </defs>
  <g transform="matrix(1 0 0 1 -1154 -418 )">
    <path d="M 4.692 4.507999999999999  L 4.686 4.502000000000001  C 4.529999999999999 4.502000000000001  4.404 4.382  4.398 4.225999999999999  C 4.398 4.1419999999999995  4.427999999999999 4.058  4.494 4.004000000000001  L 4.511999999999999 3.9860000000000007  L 4.643999999999998 3.860000000000001  C 4.337999999999999 3.7940000000000023  4.055999999999998 3.6620000000000026  3.815999999999998 3.4640000000000013  L 3.773999999999999 3.4220000000000024  L 3.767999999999999 3.416000000000002  L 1.613999999999999 1.094000000000003  C 1.355999999999999 0.7940000000000023  0.9839999999999995 0.626000000000003  0.5939999999999994 0.626000000000003  C 0.43799999999999883 0.626000000000003  0.30599999999999916 0.5000000000000027  0.30599999999999916 0.33800000000000274  C 0.30599999999999916 0.18200000000000216  0.43199999999999905 0.05000000000000249  0.5939999999999994 0.05000000000000249  C 1.145999999999999 0.05000000000000249  1.6739999999999995 0.2900000000000027  2.039999999999999 0.7040000000000024  L 4.188 3.0200000000000022  C 4.284 3.0980000000000016  4.3919999999999995 3.1640000000000024  4.505999999999999 3.2120000000000024  C 4.452 3.158000000000003  4.421999999999999 3.0920000000000023  4.416 3.0200000000000022  C 4.416 2.942000000000003  4.4399999999999995 2.8700000000000028  4.494 2.8160000000000025  C 4.547999999999998 2.7620000000000022  4.613999999999999 2.7260000000000026  4.691999999999998 2.7260000000000026  L 4.703999999999999 2.7260000000000026  C 4.775999999999999 2.7260000000000026  4.841999999999999 2.756000000000002  4.895999999999999 2.804000000000002  C 4.901999999999998 2.8100000000000014  4.9079999999999995 2.8100000000000014  4.913999999999998 2.8160000000000025  L 5.645999999999999 3.554000000000002  C 5.663999999999998 3.572000000000001  5.669999999999998 3.596000000000002  5.669999999999998 3.620000000000001  C 5.669999999999998 3.644000000000002  5.6579999999999995 3.668000000000001  5.640000000000001 3.686000000000001  L 4.901999999999999 4.399999999999999  L 4.896000000000001 4.405999999999999  C 4.848000000000001 4.465999999999999  4.770000000000001 4.501999999999999  4.692 4.507999999999999  Z " fill-rule="nonzero" fill="rgba(255, 255, 255, 1)" stroke="none" transform="matrix(1 0 0 1 1154 418 )" class="fill" />
    <path d="M 4.692 4.507999999999999  L 4.686 4.502000000000001  C 4.529999999999999 4.502000000000001  4.404 4.382  4.398 4.225999999999999  C 4.398 4.1419999999999995  4.427999999999999 4.058  4.494 4.004000000000001  L 4.511999999999999 3.9860000000000007  L 4.643999999999998 3.860000000000001  C 4.337999999999999 3.7940000000000023  4.055999999999998 3.6620000000000026  3.815999999999998 3.4640000000000013  L 3.773999999999999 3.4220000000000024  L 3.767999999999999 3.416000000000002  L 1.613999999999999 1.094000000000003  C 1.355999999999999 0.7940000000000023  0.9839999999999995 0.626000000000003  0.5939999999999994 0.626000000000003  C 0.43799999999999883 0.626000000000003  0.30599999999999916 0.5000000000000027  0.30599999999999916 0.33800000000000274  C 0.30599999999999916 0.18200000000000216  0.43199999999999905 0.05000000000000249  0.5939999999999994 0.05000000000000249  C 1.145999999999999 0.05000000000000249  1.6739999999999995 0.2900000000000027  2.039999999999999 0.7040000000000024  L 4.188 3.0200000000000022  C 4.284 3.0980000000000016  4.3919999999999995 3.1640000000000024  4.505999999999999 3.2120000000000024  C 4.452 3.158000000000003  4.421999999999999 3.0920000000000023  4.416 3.0200000000000022  C 4.416 2.942000000000003  4.4399999999999995 2.8700000000000028  4.494 2.8160000000000025  C 4.547999999999998 2.7620000000000022  4.613999999999999 2.7260000000000026  4.691999999999998 2.7260000000000026  L 4.703999999999999 2.7260000000000026  C 4.775999999999999 2.7260000000000026  4.841999999999999 2.756000000000002  4.895999999999999 2.804000000000002  C 4.901999999999998 2.8100000000000014  4.9079999999999995 2.8100000000000014  4.913999999999998 2.8160000000000025  L 5.645999999999999 3.554000000000002  C 5.663999999999998 3.572000000000001  5.669999999999998 3.596000000000002  5.669999999999998 3.620000000000001  C 5.669999999999998 3.644000000000002  5.6579999999999995 3.668000000000001  5.640000000000001 3.686000000000001  L 4.901999999999999 4.399999999999999  L 4.896000000000001 4.405999999999999  C 4.848000000000001 4.465999999999999  4.770000000000001 4.501999999999999  4.692 4.507999999999999  Z " stroke-width="0" stroke-dasharray="0" stroke="rgba(255, 255, 255, 0)" fill="none" transform="matrix(1 0 0 1 1154 418 )" class="stroke" mask="url(#Clip2200)" />
  </g>
</svg>