<?xml version="1.0" encoding="utf-8"?>
<svg version="1.1" xmlns:xlink="http://www.w3.org/1999/xlink" width="6px" height="5px" xmlns="http://www.w3.org/2000/svg">
  <defs>
    <pattern id="BGPattern" patternUnits="userSpaceOnUse" alignment="0 0" imageRepeat="None" />
    <mask fill="white" id="Clip5085">
      <path d="M 3.618000000000001 2.526  C 3.564000000000002 2.5859999999999994  3.4860000000000007 2.6159999999999997  3.4080000000000004 2.6160000000000005  C 3.330000000000001 2.6160000000000005  3.2520000000000007 2.58  3.1980000000000004 2.526  C 3.096000000000002 2.418  3.096000000000002 2.25  3.1980000000000004 2.136000000000001  L 3.6660000000000013 1.6260000000000012  C 3.9300000000000015 1.362  4.260000000000002 1.176000000000001  4.620000000000001 1.0980000000000008  L 4.506000000000002 0.9900000000000011  L 4.488000000000003 0.9720000000000009  C 4.428000000000003 0.918000000000001  4.392000000000003 0.8400000000000007  4.392000000000003 0.7560000000000007  C 4.3980000000000015 0.6000000000000005  4.524000000000003 0.4800000000000004  4.680000000000003 0.4800000000000004  L 4.692000000000003 0.4800000000000004  C 4.770000000000002 0.48600000000000065  4.8480000000000025 0.5220000000000002  4.896000000000003 0.5820000000000007  L 4.902000000000003 0.5880000000000005  L 5.640000000000001 1.3019999999999996  C 5.6579999999999995 1.3200000000000003  5.669999999999998 1.3439999999999994  5.669999999999998 1.3680000000000003  C 5.669999999999998 1.3919999999999995  5.6579999999999995 1.4160000000000004  5.645999999999999 1.4340000000000002  L 4.908 2.16  C 4.902000000000001 2.1660000000000004  4.896000000000001 2.1719999999999997  4.890000000000001 2.1719999999999997  C 4.836000000000002 2.2199999999999998  4.770000000000001 2.25  4.698 2.25  L 4.692000000000002 2.25  C 4.6140000000000025 2.2439999999999998  4.542000000000002 2.2140000000000004  4.4940000000000015 2.16  C 4.440000000000003 2.106  4.416000000000002 2.0279999999999996  4.416000000000002 1.9559999999999995  C 4.422000000000002 1.8719999999999999  4.458000000000002 1.7999999999999998  4.5180000000000025 1.7459999999999996  L 4.542000000000002 1.7219999999999995  C 4.368000000000002 1.7879999999999994  4.206000000000001 1.896  4.074000000000002 2.0279999999999996  L 3.618000000000001 2.526  Z M 0.5820000000000007 4.895999999999999  C 0.5880000000000005 4.901999999999998  0.5820000000000007 4.901999999999998  0.5759999999999996 4.901999999999999  C 0.41999999999999993 4.901999999999999  0.28799999999999937 4.776  0.28799999999999937 4.613999999999999  C 0.28799999999999937 4.457999999999999  0.4139999999999997 4.325999999999999  0.5759999999999996 4.325999999999999  L 0.5880000000000001 4.325999999999999  C 0.9359999999999999 4.325999999999999  1.266 4.193999999999999  1.5120000000000005 3.959999999999999  L 2.01 3.419999999999999  C 2.064 3.3599999999999994  2.1419999999999995 3.33  2.2199999999999998 3.33  C 2.298 3.33  2.3760000000000003 3.3659999999999997  2.4299999999999997 3.419999999999999  C 2.532 3.5279999999999987  2.532 3.701999999999998  2.4299999999999997 3.8099999999999987  L 1.9140000000000006 4.361999999999999  C 1.548 4.709999999999999  1.0739999999999998 4.895999999999999  0.5820000000000007 4.895999999999999  Z " fill-rule="evenodd" />
    </mask>
  </defs>
  <g transform="matrix(1 0 0 1 -1154 -417 )">
    <path d="M 3.618000000000001 2.526  C 3.564000000000002 2.5859999999999994  3.4860000000000007 2.6159999999999997  3.4080000000000004 2.6160000000000005  C 3.330000000000001 2.6160000000000005  3.2520000000000007 2.58  3.1980000000000004 2.526  C 3.096000000000002 2.418  3.096000000000002 2.25  3.1980000000000004 2.136000000000001  L 3.6660000000000013 1.6260000000000012  C 3.9300000000000015 1.362  4.260000000000002 1.176000000000001  4.620000000000001 1.0980000000000008  L 4.506000000000002 0.9900000000000011  L 4.488000000000003 0.9720000000000009  C 4.428000000000003 0.918000000000001  4.392000000000003 0.8400000000000007  4.392000000000003 0.7560000000000007  C 4.3980000000000015 0.6000000000000005  4.524000000000003 0.4800000000000004  4.680000000000003 0.4800000000000004  L 4.692000000000003 0.4800000000000004  C 4.770000000000002 0.48600000000000065  4.8480000000000025 0.5220000000000002  4.896000000000003 0.5820000000000007  L 4.902000000000003 0.5880000000000005  L 5.640000000000001 1.3019999999999996  C 5.6579999999999995 1.3200000000000003  5.669999999999998 1.3439999999999994  5.669999999999998 1.3680000000000003  C 5.669999999999998 1.3919999999999995  5.6579999999999995 1.4160000000000004  5.645999999999999 1.4340000000000002  L 4.908 2.16  C 4.902000000000001 2.1660000000000004  4.896000000000001 2.1719999999999997  4.890000000000001 2.1719999999999997  C 4.836000000000002 2.2199999999999998  4.770000000000001 2.25  4.698 2.25  L 4.692000000000002 2.25  C 4.6140000000000025 2.2439999999999998  4.542000000000002 2.2140000000000004  4.4940000000000015 2.16  C 4.440000000000003 2.106  4.416000000000002 2.0279999999999996  4.416000000000002 1.9559999999999995  C 4.422000000000002 1.8719999999999999  4.458000000000002 1.7999999999999998  4.5180000000000025 1.7459999999999996  L 4.542000000000002 1.7219999999999995  C 4.368000000000002 1.7879999999999994  4.206000000000001 1.896  4.074000000000002 2.0279999999999996  L 3.618000000000001 2.526  Z M 0.5820000000000007 4.895999999999999  C 0.5880000000000005 4.901999999999998  0.5820000000000007 4.901999999999998  0.5759999999999996 4.901999999999999  C 0.41999999999999993 4.901999999999999  0.28799999999999937 4.776  0.28799999999999937 4.613999999999999  C 0.28799999999999937 4.457999999999999  0.4139999999999997 4.325999999999999  0.5759999999999996 4.325999999999999  L 0.5880000000000001 4.325999999999999  C 0.9359999999999999 4.325999999999999  1.266 4.193999999999999  1.5120000000000005 3.959999999999999  L 2.01 3.419999999999999  C 2.064 3.3599999999999994  2.1419999999999995 3.33  2.2199999999999998 3.33  C 2.298 3.33  2.3760000000000003 3.3659999999999997  2.4299999999999997 3.419999999999999  C 2.532 3.5279999999999987  2.532 3.701999999999998  2.4299999999999997 3.8099999999999987  L 1.9140000000000006 4.361999999999999  C 1.548 4.709999999999999  1.0739999999999998 4.895999999999999  0.5820000000000007 4.895999999999999  Z " fill-rule="nonzero" fill="rgba(255, 255, 255, 1)" stroke="none" transform="matrix(1 0 0 1 1154 417 )" class="fill" />
    <path d="M 3.618000000000001 2.526  C 3.564000000000002 2.5859999999999994  3.4860000000000007 2.6159999999999997  3.4080000000000004 2.6160000000000005  C 3.330000000000001 2.6160000000000005  3.2520000000000007 2.58  3.1980000000000004 2.526  C 3.096000000000002 2.418  3.096000000000002 2.25  3.1980000000000004 2.136000000000001  L 3.6660000000000013 1.6260000000000012  C 3.9300000000000015 1.362  4.260000000000002 1.176000000000001  4.620000000000001 1.0980000000000008  L 4.506000000000002 0.9900000000000011  L 4.488000000000003 0.9720000000000009  C 4.428000000000003 0.918000000000001  4.392000000000003 0.8400000000000007  4.392000000000003 0.7560000000000007  C 4.3980000000000015 0.6000000000000005  4.524000000000003 0.4800000000000004  4.680000000000003 0.4800000000000004  L 4.692000000000003 0.4800000000000004  C 4.770000000000002 0.48600000000000065  4.8480000000000025 0.5220000000000002  4.896000000000003 0.5820000000000007  L 4.902000000000003 0.5880000000000005  L 5.640000000000001 1.3019999999999996  C 5.6579999999999995 1.3200000000000003  5.669999999999998 1.3439999999999994  5.669999999999998 1.3680000000000003  C 5.669999999999998 1.3919999999999995  5.6579999999999995 1.4160000000000004  5.645999999999999 1.4340000000000002  L 4.908 2.16  C 4.902000000000001 2.1660000000000004  4.896000000000001 2.1719999999999997  4.890000000000001 2.1719999999999997  C 4.836000000000002 2.2199999999999998  4.770000000000001 2.25  4.698 2.25  L 4.692000000000002 2.25  C 4.6140000000000025 2.2439999999999998  4.542000000000002 2.2140000000000004  4.4940000000000015 2.16  C 4.440000000000003 2.106  4.416000000000002 2.0279999999999996  4.416000000000002 1.9559999999999995  C 4.422000000000002 1.8719999999999999  4.458000000000002 1.7999999999999998  4.5180000000000025 1.7459999999999996  L 4.542000000000002 1.7219999999999995  C 4.368000000000002 1.7879999999999994  4.206000000000001 1.896  4.074000000000002 2.0279999999999996  L 3.618000000000001 2.526  Z " stroke-width="0" stroke-dasharray="0" stroke="rgba(255, 255, 255, 0)" fill="none" transform="matrix(1 0 0 1 1154 417 )" class="stroke" mask="url(#Clip5085)" />
    <path d="M 0.5820000000000007 4.895999999999999  C 0.5880000000000005 4.901999999999998  0.5820000000000007 4.901999999999998  0.5759999999999996 4.901999999999999  C 0.41999999999999993 4.901999999999999  0.28799999999999937 4.776  0.28799999999999937 4.613999999999999  C 0.28799999999999937 4.457999999999999  0.4139999999999997 4.325999999999999  0.5759999999999996 4.325999999999999  L 0.5880000000000001 4.325999999999999  C 0.9359999999999999 4.325999999999999  1.266 4.193999999999999  1.5120000000000005 3.959999999999999  L 2.01 3.419999999999999  C 2.064 3.3599999999999994  2.1419999999999995 3.33  2.2199999999999998 3.33  C 2.298 3.33  2.3760000000000003 3.3659999999999997  2.4299999999999997 3.419999999999999  C 2.532 3.5279999999999987  2.532 3.701999999999998  2.4299999999999997 3.8099999999999987  L 1.9140000000000006 4.361999999999999  C 1.548 4.709999999999999  1.0739999999999998 4.895999999999999  0.5820000000000007 4.895999999999999  Z " stroke-width="0" stroke-dasharray="0" stroke="rgba(255, 255, 255, 0)" fill="none" transform="matrix(1 0 0 1 1154 417 )" class="stroke" mask="url(#Clip5085)" />
  </g>
</svg>