<?xml version="1.0" encoding="utf-8"?>
<svg version="1.1" xmlns:xlink="http://www.w3.org/1999/xlink" width="2px" height="6px" xmlns="http://www.w3.org/2000/svg">
  <defs>
    <pattern id="BGPattern" patternUnits="userSpaceOnUse" alignment="0 0" imageRepeat="None" />
    <mask fill="white" id="Clip10655">
      <path d="M 1.861328125 0.09121093749999964  L 1.861328125 5.928906249999999  L 0.138671875 5.928906249999999  L 0.138671875 0.09121093749999964  L 1.861328125 0.09121093749999964  Z M 0.31796875000000036 0.2705078125  L 0.31796875000000036 5.747851562500001  L 1.6802734375000004 5.747851562500001  L 1.6802734375000004 0.2705078125  L 0.31796875000000036 0.2705078125  Z " fill-rule="evenodd" />
    </mask>
  </defs>
  <g transform="matrix(1 0 0 1 -689 -1245 )">
    <path d="M 1.861328125 0.09121093749999964  L 1.861328125 5.928906249999999  L 0.138671875 5.928906249999999  L 0.138671875 0.09121093749999964  L 1.861328125 0.09121093749999964  Z M 0.31796875000000036 0.2705078125  L 0.31796875000000036 5.747851562500001  L 1.6802734375000004 5.747851562500001  L 1.6802734375000004 0.2705078125  L 0.31796875000000036 0.2705078125  Z " fill-rule="nonzero" fill="rgba(71, 26, 26, 1)" stroke="none" transform="matrix(1 0 0 1 689 1245 )" class="fill" />
    <path d="M 1.861328125 0.09121093749999964  L 1.861328125 5.928906249999999  L 0.138671875 5.928906249999999  L 0.138671875 0.09121093749999964  L 1.861328125 0.09121093749999964  Z " stroke-width="0" stroke-dasharray="0" stroke="rgba(255, 255, 255, 0)" fill="none" transform="matrix(1 0 0 1 689 1245 )" class="stroke" mask="url(#Clip10655)" />
    <path d="M 0.31796875000000036 0.2705078125  L 0.31796875000000036 5.747851562500001  L 1.6802734375000004 5.747851562500001  L 1.6802734375000004 0.2705078125  L 0.31796875000000036 0.2705078125  Z " stroke-width="0" stroke-dasharray="0" stroke="rgba(255, 255, 255, 0)" fill="none" transform="matrix(1 0 0 1 689 1245 )" class="stroke" mask="url(#Clip10655)" />
  </g>
</svg>