<?xml version="1.0" encoding="utf-8"?>
<svg version="1.1" xmlns:xlink="http://www.w3.org/1999/xlink" width="6px" height="5px" xmlns="http://www.w3.org/2000/svg">
  <defs>
    <pattern id="BGPattern" patternUnits="userSpaceOnUse" alignment="0 0" imageRepeat="None" />
    <mask fill="white" id="Clip9403">
      <path d="M 2.3763671875000014 3.9681640625000005  C 2.2814453125000007 4.0208984375  2.1777343750000018 4.047265625  2.0757812500000004 4.047265625  C 1.8666015625000014 4.047265625  1.6626953125000004 3.93828125  1.5519531250000007 3.744921875  L 0.8435546875000011 2.521484375  C 0.6765625000000011 2.233203125  0.7767578124999996 1.8623046875  1.0650390625000004 1.6953125  L 3.7369140625000004 0.15195312499999947  C 4.025195312500001 -0.015039062500000089  4.39609375 0.08515624999999982  4.5630859375 0.37343749999999964  L 5.269726562500001 1.5986328125  C 5.436718750000001 1.8869140624999998  5.3365234375 2.2578125  5.048242187500001 2.4248046875  L 2.3763671875000014 3.9681640625000005  Z M 4.408398437500001 0.4630859374999998  C 4.329296875000001 0.32773437499999947  4.18515625 0.2521484374999998  4.039257812500001 0.2521484374999998  C 3.9671875000000014 0.2521484374999998  3.8951171875000004 0.2697265624999998  3.8283203125000007 0.3083984375000002  L 1.1564453125000007 1.8517578124999998  C 0.9542968750000007 1.9695312499999993  0.8839843750000007 2.2296875  1.0017578125000028 2.4318359375  L 1.7083984375000032 3.6570312499999993  C 1.8261718750000036 3.8591796874999993  2.084570312500002 3.9294921874999993  2.288476562500003 3.81171875  L 4.960351562500003 2.2683593749999993  C 5.162500000000003 2.1505859375  5.232812500000003 1.8921874999999995  5.115039062500003 1.6882812499999993  L 4.408398437500001 0.4630859374999998  Z " fill-rule="evenodd" />
    </mask>
  </defs>
  <g transform="matrix(1 0 0 1 -689 -1241 )">
    <path d="M 2.3763671875000014 3.9681640625000005  C 2.2814453125000007 4.0208984375  2.1777343750000018 4.047265625  2.0757812500000004 4.047265625  C 1.8666015625000014 4.047265625  1.6626953125000004 3.93828125  1.5519531250000007 3.744921875  L 0.8435546875000011 2.521484375  C 0.6765625000000011 2.233203125  0.7767578124999996 1.8623046875  1.0650390625000004 1.6953125  L 3.7369140625000004 0.15195312499999947  C 4.025195312500001 -0.015039062500000089  4.39609375 0.08515624999999982  4.5630859375 0.37343749999999964  L 5.269726562500001 1.5986328125  C 5.436718750000001 1.8869140624999998  5.3365234375 2.2578125  5.048242187500001 2.4248046875  L 2.3763671875000014 3.9681640625000005  Z M 4.408398437500001 0.4630859374999998  C 4.329296875000001 0.32773437499999947  4.18515625 0.2521484374999998  4.039257812500001 0.2521484374999998  C 3.9671875000000014 0.2521484374999998  3.8951171875000004 0.2697265624999998  3.8283203125000007 0.3083984375000002  L 1.1564453125000007 1.8517578124999998  C 0.9542968750000007 1.9695312499999993  0.8839843750000007 2.2296875  1.0017578125000028 2.4318359375  L 1.7083984375000032 3.6570312499999993  C 1.8261718750000036 3.8591796874999993  2.084570312500002 3.9294921874999993  2.288476562500003 3.81171875  L 4.960351562500003 2.2683593749999993  C 5.162500000000003 2.1505859375  5.232812500000003 1.8921874999999995  5.115039062500003 1.6882812499999993  L 4.408398437500001 0.4630859374999998  Z " fill-rule="nonzero" fill="rgba(71, 26, 26, 1)" stroke="none" transform="matrix(1 0 0 1 689 1241 )" class="fill" />
    <path d="M 2.3763671875000014 3.9681640625000005  C 2.2814453125000007 4.0208984375  2.1777343750000018 4.047265625  2.0757812500000004 4.047265625  C 1.8666015625000014 4.047265625  1.6626953125000004 3.93828125  1.5519531250000007 3.744921875  L 0.8435546875000011 2.521484375  C 0.6765625000000011 2.233203125  0.7767578124999996 1.8623046875  1.0650390625000004 1.6953125  L 3.7369140625000004 0.15195312499999947  C 4.025195312500001 -0.015039062500000089  4.39609375 0.08515624999999982  4.5630859375 0.37343749999999964  L 5.269726562500001 1.5986328125  C 5.436718750000001 1.8869140624999998  5.3365234375 2.2578125  5.048242187500001 2.4248046875  L 2.3763671875000014 3.9681640625000005  Z " stroke-width="0" stroke-dasharray="0" stroke="rgba(255, 255, 255, 0)" fill="none" transform="matrix(1 0 0 1 689 1241 )" class="stroke" mask="url(#Clip9403)" />
    <path d="M 4.408398437500001 0.4630859374999998  C 4.329296875000001 0.32773437499999947  4.18515625 0.2521484374999998  4.039257812500001 0.2521484374999998  C 3.9671875000000014 0.2521484374999998  3.8951171875000004 0.2697265624999998  3.8283203125000007 0.3083984375000002  L 1.1564453125000007 1.8517578124999998  C 0.9542968750000007 1.9695312499999993  0.8839843750000007 2.2296875  1.0017578125000028 2.4318359375  L 1.7083984375000032 3.6570312499999993  C 1.8261718750000036 3.8591796874999993  2.084570312500002 3.9294921874999993  2.288476562500003 3.81171875  L 4.960351562500003 2.2683593749999993  C 5.162500000000003 2.1505859375  5.232812500000003 1.8921874999999995  5.115039062500003 1.6882812499999993  L 4.408398437500001 0.4630859374999998  Z " stroke-width="0" stroke-dasharray="0" stroke="rgba(255, 255, 255, 0)" fill="none" transform="matrix(1 0 0 1 689 1241 )" class="stroke" mask="url(#Clip9403)" />
  </g>
</svg>