<?xml version="1.0" encoding="utf-8"?>
<svg version="1.1" xmlns:xlink="http://www.w3.org/1999/xlink" width="4px" height="5px" xmlns="http://www.w3.org/2000/svg">
  <defs>
    <pattern id="BGPattern" patternUnits="userSpaceOnUse" alignment="0 0" imageRepeat="None" />
    <mask fill="white" id="Clip2100">
      <path d="M 3.1197265624999986 4.042187499999999  L 3.117968750000001 4.042187499999999  L 2.933398437500001 4.042187499999999  L 2 3.296875  L 1.066601562499999 4.042187499999999  L 0.8820312499999998 4.042187499999999  L 0.8820312499999998 0.6478515625000005  L 3.1197265624999986 0.6478515625000005  L 3.1197265624999986 4.042187499999999  Z M 1.061328125000001 3.8171874999999993  L 2 3.066601562499999  L 2.938671874999999 3.8171874999999993  L 2.938671874999999 0.8289062499999993  L 1.061328125000001 0.8289062499999993  L 1.061328125000001 3.8171874999999993  Z " fill-rule="evenodd" />
    </mask>
  </defs>
  <g transform="matrix(1 0 0 1 -688 -1242 )">
    <path d="M 3.1197265624999986 4.042187499999999  L 3.117968750000001 4.042187499999999  L 2.933398437500001 4.042187499999999  L 2 3.296875  L 1.066601562499999 4.042187499999999  L 0.8820312499999998 4.042187499999999  L 0.8820312499999998 0.6478515625000005  L 3.1197265624999986 0.6478515625000005  L 3.1197265624999986 4.042187499999999  Z M 1.061328125000001 3.8171874999999993  L 2 3.066601562499999  L 2.938671874999999 3.8171874999999993  L 2.938671874999999 0.8289062499999993  L 1.061328125000001 0.8289062499999993  L 1.061328125000001 3.8171874999999993  Z " fill-rule="nonzero" fill="rgba(71, 26, 26, 1)" stroke="none" transform="matrix(1 0 0 1 688 1242 )" class="fill" />
    <path d="M 3.1197265624999986 4.042187499999999  L 3.117968750000001 4.042187499999999  L 2.933398437500001 4.042187499999999  L 2 3.296875  L 1.066601562499999 4.042187499999999  L 0.8820312499999998 4.042187499999999  L 0.8820312499999998 0.6478515625000005  L 3.1197265624999986 0.6478515625000005  L 3.1197265624999986 4.042187499999999  Z " stroke-width="0" stroke-dasharray="0" stroke="rgba(255, 255, 255, 0)" fill="none" transform="matrix(1 0 0 1 688 1242 )" class="stroke" mask="url(#Clip2100)" />
    <path d="M 1.061328125000001 3.8171874999999993  L 2 3.066601562499999  L 2.938671874999999 3.8171874999999993  L 2.938671874999999 0.8289062499999993  L 1.061328125000001 0.8289062499999993  L 1.061328125000001 3.8171874999999993  Z " stroke-width="0" stroke-dasharray="0" stroke="rgba(255, 255, 255, 0)" fill="none" transform="matrix(1 0 0 1 688 1242 )" class="stroke" mask="url(#Clip2100)" />
  </g>
</svg>