<?xml version="1.0" encoding="utf-8"?>
<svg version="1.1" xmlns:xlink="http://www.w3.org/1999/xlink" width="38px" height="38px" xmlns="http://www.w3.org/2000/svg">
  <defs>
    <pattern id="BGPattern" patternUnits="userSpaceOnUse" alignment="0 0" imageRepeat="None" />
    <mask fill="white" id="Clip7682">
      <path d="M 1.5 9  C 1.5 4.875  4.875 1.5  9 1.5  C 13.125 1.5  16.5 4.875  16.5 9  C 16.5 13.125  13.125 16.5  9 16.5  C 4.874999999999998 16.5  1.5 13.125  1.5 9  Z M 17.75 9  C 17.75 4.125  13.875 0.25  9 0.25  C 4.125 0.25  0.25 4.125  0.25 9  C 0.25 13.875  4.125 17.75  9 17.75  C 13.875 17.75  17.75 13.875  17.75 9  Z " fill-rule="evenodd" />
    </mask>
  </defs>
  <g transform="matrix(1 0 0 1 -581 -540 )">
    <path d="M 1.5 9  C 1.5 4.875  4.875 1.5  9 1.5  C 13.125 1.5  16.5 4.875  16.5 9  C 16.5 13.125  13.125 16.5  9 16.5  C 4.874999999999998 16.5  1.5 13.125  1.5 9  Z M 17.75 9  C 17.75 4.125  13.875 0.25  9 0.25  C 4.125 0.25  0.25 4.125  0.25 9  C 0.25 13.875  4.125 17.75  9 17.75  C 13.875 17.75  17.75 13.875  17.75 9  Z " fill-rule="nonzero" fill="rgba(255, 255, 255, 1)" stroke="none" transform="matrix(1 0 0 1 591 550 )" class="fill" />
    <path d="M 1.5 9  C 1.5 4.875  4.875 1.5  9 1.5  C 13.125 1.5  16.5 4.875  16.5 9  C 16.5 13.125  13.125 16.5  9 16.5  C 4.874999999999998 16.5  1.5 13.125  1.5 9  Z " stroke-width="0" stroke-dasharray="0" stroke="rgba(255, 255, 255, 0)" fill="none" transform="matrix(1 0 0 1 591 550 )" class="stroke" mask="url(#Clip7682)" />
    <path d="M 17.75 9  C 17.75 4.125  13.875 0.25  9 0.25  C 4.125 0.25  0.25 4.125  0.25 9  C 0.25 13.875  4.125 17.75  9 17.75  C 13.875 17.75  17.75 13.875  17.75 9  Z " stroke-width="0" stroke-dasharray="0" stroke="rgba(255, 255, 255, 0)" fill="none" transform="matrix(1 0 0 1 591 550 )" class="stroke" mask="url(#Clip7682)" />
  </g>
  <style>svg { filter: drop-shadow(0px 0px 5px rgba(0, 0, 0, 0.3137254901960784)); }</style>
</svg>