<?xml version="1.0" encoding="utf-8"?>
<svg version="1.1" xmlns:xlink="http://www.w3.org/1999/xlink" width="28px" height="28px" xmlns="http://www.w3.org/2000/svg">
  <defs>
    <pattern id="BGPattern" patternUnits="userSpaceOnUse" alignment="0 0" imageRepeat="None" />
    <mask fill="white" id="Clip13871">
      <path d="M 7.499999999999998 0.5  C 7.25 0.25  6.874999999999998 0.25  6.625 0.5  L 4 3.125  L 1.375 0.5  C 1.125 0.25  0.75 0.25  0.5 0.5  C 0.25 0.75  0.25 1.125  0.5 1.375  L 3.125 4  L 0.4999999999999991 6.625  C 0.2499999999999991 6.875  0.2499999999999991 7.25  0.4999999999999991 7.5  C 0.7499999999999991 7.75  1.1249999999999991 7.75  1.3749999999999991 7.5  L 4 4.875  L 6.625 7.5  C 6.874999999999998 7.75  7.25 7.75  7.499999999999998 7.5  C 7.749999999999998 7.25  7.749999999999998 6.875  7.499999999999998 6.625  L 4.875 4  L 7.499999999999998 1.375  C 7.749999999999998 1.125  7.749999999999998 0.75  7.499999999999998 0.5  Z " fill-rule="evenodd" />
    </mask>
  </defs>
  <g transform="matrix(1 0 0 1 -586 -545 )">
    <path d="M 7.499999999999998 0.5  C 7.25 0.25  6.874999999999998 0.25  6.625 0.5  L 4 3.125  L 1.375 0.5  C 1.125 0.25  0.75 0.25  0.5 0.5  C 0.25 0.75  0.25 1.125  0.5 1.375  L 3.125 4  L 0.4999999999999991 6.625  C 0.2499999999999991 6.875  0.2499999999999991 7.25  0.4999999999999991 7.5  C 0.7499999999999991 7.75  1.1249999999999991 7.75  1.3749999999999991 7.5  L 4 4.875  L 6.625 7.5  C 6.874999999999998 7.75  7.25 7.75  7.499999999999998 7.5  C 7.749999999999998 7.25  7.749999999999998 6.875  7.499999999999998 6.625  L 4.875 4  L 7.499999999999998 1.375  C 7.749999999999998 1.125  7.749999999999998 0.75  7.499999999999998 0.5  Z " fill-rule="nonzero" fill="rgba(255, 255, 255, 1)" stroke="none" transform="matrix(1 0 0 1 596 555 )" class="fill" />
    <path d="M 7.499999999999998 0.5  C 7.25 0.25  6.874999999999998 0.25  6.625 0.5  L 4 3.125  L 1.375 0.5  C 1.125 0.25  0.75 0.25  0.5 0.5  C 0.25 0.75  0.25 1.125  0.5 1.375  L 3.125 4  L 0.4999999999999991 6.625  C 0.2499999999999991 6.875  0.2499999999999991 7.25  0.4999999999999991 7.5  C 0.7499999999999991 7.75  1.1249999999999991 7.75  1.3749999999999991 7.5  L 4 4.875  L 6.625 7.5  C 6.874999999999998 7.75  7.25 7.75  7.499999999999998 7.5  C 7.749999999999998 7.25  7.749999999999998 6.875  7.499999999999998 6.625  L 4.875 4  L 7.499999999999998 1.375  C 7.749999999999998 1.125  7.749999999999998 0.75  7.499999999999998 0.5  Z " stroke-width="0" stroke-dasharray="0" stroke="rgba(255, 255, 255, 0)" fill="none" transform="matrix(1 0 0 1 596 555 )" class="stroke" mask="url(#Clip13871)" />
  </g>
  <style>svg { filter: drop-shadow(0px 0px 5px rgba(0, 0, 0, 0.3137254901960784)); }</style>
</svg>