<?xml version="1.0" encoding="utf-8"?>
<svg version="1.1" xmlns:xlink="http://www.w3.org/1999/xlink" width="20px" height="17px" xmlns="http://www.w3.org/2000/svg">
  <defs>
    <pattern id="BGPattern" patternUnits="userSpaceOnUse" alignment="0 0" imageRepeat="None" />
    <mask fill="white" id="Clip2127">
      <path d="M 19.324899613393892 14.756905130619323  C 19.324899613393892 15.96015087174236  18.27770350781173 16.93922377730801  16.98969984873658 17  L 2.645014392502065 17  C 1.3578028456977704 16.939223777308012  0.3098146107679609 15.960150871560696  0.3098146107679609 14.756905130619323  L 0.3098146107679609 6.495779467382329  C 0.3098146107679609 5.29253372625929  1.3578028456977713 4.313460820693642  2.645014392502065 4.313460820693642  L 16.98969984873658 4.313460820693642  C 18.277703524888523 4.313460820693642  19.324899630470686 5.292533726440959  19.324899613393892 6.495779467382329  L 19.324899613393892 14.756905130619323  Z M 17.990952395656482 14.756905130619323  L 17.990952395656482 6.495779467382331  C 17.990952395656482 5.980102726143683  17.541814578298926 5.561065861420315  16.98969984873658 5.561065861420315  L 2.645014392502065 5.561065861420315  C 2.093691792650702 5.561065861420315  1.6445539749298104 5.980102726143683  1.6445539749298104 6.495779467382331  L 1.6445539749298104 14.756905130619323  C 1.6445539749298104 15.272581871857966  2.093691792287366 15.69241088318745  2.645014392502065 15.692410883005781  L 16.98969984873658 15.692410883005781  C 17.54181457829893 15.692410883005781  17.990952395656482 15.272581888934766  17.990952395656482 14.756905130619323  Z M 13.444917273476468 9.613603866639142  C 13.444917273476468 9.882928130966144  13.210446738232868 10.10234819007432  12.92211136720066 10.10234819007432  L 10.339766962130469 10.10234819007432  L 10.339766962130469 11.178853101866226  L 12.92211136720066 11.178853101866226  C 13.210446755309661 11.178853101866226  13.444917290553262 11.397481031263418  13.444917273476467 11.667597425119736  C 13.444917273476467 11.93771381915772  13.210446738232866 12.1555496190256  12.92211136720066 12.155549619207267  L 10.339766962130469 12.155549619207267  L 10.339766962130469 14.458272059719242  C 10.339766962130469 14.727596324046242  10.106088556416182 14.946224253625104  9.81775318538398 14.946224253625104  C 9.528625667927333 14.946224253625104  9.294947262031378 14.72759632422791  9.294947262031378 14.458272059719242  L 9.294947262031378 12.155549618843931  L 6.7126028742196535 12.155549618843931  C 6.423475356763005 12.155549618843931  6.189796950867051 11.937713818976052  6.189796950867051 11.667597425119736  C 6.189796950867051 11.39748103108175  6.423475356581337 11.178853101684558  6.7126028742196535 11.178853101866226  L 9.294947262031378 11.178853101866226  L 9.294947262031378 10.10234819007432  L 6.7126028742196535 10.10234819007432  C 6.423475356763005 10.10234819007432  6.189796950867051 9.88292813132948  6.189796950867051 9.613603866639142  C 6.189796950867051 9.344279602312142  6.423475356581337 9.124859543203964  6.7126028742196535 9.124859543203964  L 8.725405667745664 9.124859543203964  L 6.730029738761356 7.260185090834021  C 6.632894782493468 7.171628046965129  6.577542439564441 7.0462604257191135  6.577542439564441 6.914816332097676  C 6.577542439564441 6.783372238390648  6.6328947825653035 6.6580046170711675  6.730029738943023 6.569447573195706  C 6.939750510063606 6.378669138758667  7.260158544436809 6.378669138758667  7.469879315557391 6.569447573195706  L 9.846269862246078 8.78978848416185  L 12.221076149876136 6.569447573195706  C 12.430796923534878 6.378669128402404  12.75120496990856 6.378669128402407  12.960925743567302 6.569447573195706  C 13.058510325322445 6.657748751938865  13.114185110569636 6.783211435587118  13.114185110569636 6.914816332014864  C 13.114185110569636 7.046421228442609  13.058510325322445 7.171883912090863  12.960925743567302 7.260185090834021  L 10.966341944112305 9.124859543203964  L 12.922111367200662 9.124859543203964  C 13.210446755309665 9.124859543203964  13.444917290553263 9.344279601948804  13.444917273476468 9.613603866639142  Z M 17.59488730181668 2.9161431797522717  C 17.59488730181668 3.259927679603634  17.29546210156895 3.539549626903386  16.927121555061934 3.539549626903386  L 2.7075926692815857 3.539549626903386  C 2.339252139669695 3.539549626903386  2.0406190518744842 3.259927679603634  2.0406190518744842 2.9161431797522717  C 2.0406190518744842 2.5715665503715943  2.339252122774567 2.292736732601157  2.7075926692815857 2.292736732601157  L 16.927121555061934 2.292736732601157  C 17.295462084673826 2.292736732601157  17.59488730181668 2.5715665503715943  17.59488730181668 2.9161431797522717  Z M 15.822892078860448 0.9160144741370764  C 15.822892078860448 1.2597989739884392  15.52346687861272 1.5394209212881913  15.155126349000827 1.5394209212881913  L 4.480380021767135 1.5394209212881913  C 4.111247362807598 1.5394209212881913  3.812614275012387 1.2597989739884392  3.812614274830719 0.9160144741370764  C 3.812614274830719 0.5714378447563995  4.112039475078448 0.29260802698596144  4.480380021585467 0.29260802698596144  L 15.155126349000827 0.29260802698596144  C 15.52346687861272 0.29260802698596144  15.822892095755574 0.5714378447563995  15.822892078860448 0.9160144741370764  Z " fill-rule="evenodd" />
    </mask>
  </defs>
  <g transform="matrix(1 0 0 1 -26 -268 )">
    <path d="M 19.324899613393892 14.756905130619323  C 19.324899613393892 15.96015087174236  18.27770350781173 16.93922377730801  16.98969984873658 17  L 2.645014392502065 17  C 1.3578028456977704 16.939223777308012  0.3098146107679609 15.960150871560696  0.3098146107679609 14.756905130619323  L 0.3098146107679609 6.495779467382329  C 0.3098146107679609 5.29253372625929  1.3578028456977713 4.313460820693642  2.645014392502065 4.313460820693642  L 16.98969984873658 4.313460820693642  C 18.277703524888523 4.313460820693642  19.324899630470686 5.292533726440959  19.324899613393892 6.495779467382329  L 19.324899613393892 14.756905130619323  Z M 17.990952395656482 14.756905130619323  L 17.990952395656482 6.495779467382331  C 17.990952395656482 5.980102726143683  17.541814578298926 5.561065861420315  16.98969984873658 5.561065861420315  L 2.645014392502065 5.561065861420315  C 2.093691792650702 5.561065861420315  1.6445539749298104 5.980102726143683  1.6445539749298104 6.495779467382331  L 1.6445539749298104 14.756905130619323  C 1.6445539749298104 15.272581871857966  2.093691792287366 15.69241088318745  2.645014392502065 15.692410883005781  L 16.98969984873658 15.692410883005781  C 17.54181457829893 15.692410883005781  17.990952395656482 15.272581888934766  17.990952395656482 14.756905130619323  Z M 13.444917273476468 9.613603866639142  C 13.444917273476468 9.882928130966144  13.210446738232868 10.10234819007432  12.92211136720066 10.10234819007432  L 10.339766962130469 10.10234819007432  L 10.339766962130469 11.178853101866226  L 12.92211136720066 11.178853101866226  C 13.210446755309661 11.178853101866226  13.444917290553262 11.397481031263418  13.444917273476467 11.667597425119736  C 13.444917273476467 11.93771381915772  13.210446738232866 12.1555496190256  12.92211136720066 12.155549619207267  L 10.339766962130469 12.155549619207267  L 10.339766962130469 14.458272059719242  C 10.339766962130469 14.727596324046242  10.106088556416182 14.946224253625104  9.81775318538398 14.946224253625104  C 9.528625667927333 14.946224253625104  9.294947262031378 14.72759632422791  9.294947262031378 14.458272059719242  L 9.294947262031378 12.155549618843931  L 6.7126028742196535 12.155549618843931  C 6.423475356763005 12.155549618843931  6.189796950867051 11.937713818976052  6.189796950867051 11.667597425119736  C 6.189796950867051 11.39748103108175  6.423475356581337 11.178853101684558  6.7126028742196535 11.178853101866226  L 9.294947262031378 11.178853101866226  L 9.294947262031378 10.10234819007432  L 6.7126028742196535 10.10234819007432  C 6.423475356763005 10.10234819007432  6.189796950867051 9.88292813132948  6.189796950867051 9.613603866639142  C 6.189796950867051 9.344279602312142  6.423475356581337 9.124859543203964  6.7126028742196535 9.124859543203964  L 8.725405667745664 9.124859543203964  L 6.730029738761356 7.260185090834021  C 6.632894782493468 7.171628046965129  6.577542439564441 7.0462604257191135  6.577542439564441 6.914816332097676  C 6.577542439564441 6.783372238390648  6.6328947825653035 6.6580046170711675  6.730029738943023 6.569447573195706  C 6.939750510063606 6.378669138758667  7.260158544436809 6.378669138758667  7.469879315557391 6.569447573195706  L 9.846269862246078 8.78978848416185  L 12.221076149876136 6.569447573195706  C 12.430796923534878 6.378669128402404  12.75120496990856 6.378669128402407  12.960925743567302 6.569447573195706  C 13.058510325322445 6.657748751938865  13.114185110569636 6.783211435587118  13.114185110569636 6.914816332014864  C 13.114185110569636 7.046421228442609  13.058510325322445 7.171883912090863  12.960925743567302 7.260185090834021  L 10.966341944112305 9.124859543203964  L 12.922111367200662 9.124859543203964  C 13.210446755309665 9.124859543203964  13.444917290553263 9.344279601948804  13.444917273476468 9.613603866639142  Z M 17.59488730181668 2.9161431797522717  C 17.59488730181668 3.259927679603634  17.29546210156895 3.539549626903386  16.927121555061934 3.539549626903386  L 2.7075926692815857 3.539549626903386  C 2.339252139669695 3.539549626903386  2.0406190518744842 3.259927679603634  2.0406190518744842 2.9161431797522717  C 2.0406190518744842 2.5715665503715943  2.339252122774567 2.292736732601157  2.7075926692815857 2.292736732601157  L 16.927121555061934 2.292736732601157  C 17.295462084673826 2.292736732601157  17.59488730181668 2.5715665503715943  17.59488730181668 2.9161431797522717  Z M 15.822892078860448 0.9160144741370764  C 15.822892078860448 1.2597989739884392  15.52346687861272 1.5394209212881913  15.155126349000827 1.5394209212881913  L 4.480380021767135 1.5394209212881913  C 4.111247362807598 1.5394209212881913  3.812614275012387 1.2597989739884392  3.812614274830719 0.9160144741370764  C 3.812614274830719 0.5714378447563995  4.112039475078448 0.29260802698596144  4.480380021585467 0.29260802698596144  L 15.155126349000827 0.29260802698596144  C 15.52346687861272 0.29260802698596144  15.822892095755574 0.5714378447563995  15.822892078860448 0.9160144741370764  Z " fill-rule="nonzero" fill="rgba(255, 255, 255, 1)" stroke="none" transform="matrix(1 0 0 1 26 268 )" class="fill" />
    <path d="M 19.324899613393892 14.756905130619323  C 19.324899613393892 15.96015087174236  18.27770350781173 16.93922377730801  16.98969984873658 17  L 2.645014392502065 17  C 1.3578028456977704 16.939223777308012  0.3098146107679609 15.960150871560696  0.3098146107679609 14.756905130619323  L 0.3098146107679609 6.495779467382329  C 0.3098146107679609 5.29253372625929  1.3578028456977713 4.313460820693642  2.645014392502065 4.313460820693642  L 16.98969984873658 4.313460820693642  C 18.277703524888523 4.313460820693642  19.324899630470686 5.292533726440959  19.324899613393892 6.495779467382329  L 19.324899613393892 14.756905130619323  Z " stroke-width="0" stroke-dasharray="0" stroke="rgba(255, 255, 255, 0)" fill="none" transform="matrix(1 0 0 1 26 268 )" class="stroke" mask="url(#Clip2127)" />
    <path d="M 17.990952395656482 14.756905130619323  L 17.990952395656482 6.495779467382331  C 17.990952395656482 5.980102726143683  17.541814578298926 5.561065861420315  16.98969984873658 5.561065861420315  L 2.645014392502065 5.561065861420315  C 2.093691792650702 5.561065861420315  1.6445539749298104 5.980102726143683  1.6445539749298104 6.495779467382331  L 1.6445539749298104 14.756905130619323  C 1.6445539749298104 15.272581871857966  2.093691792287366 15.69241088318745  2.645014392502065 15.692410883005781  L 16.98969984873658 15.692410883005781  C 17.54181457829893 15.692410883005781  17.990952395656482 15.272581888934766  17.990952395656482 14.756905130619323  Z " stroke-width="0" stroke-dasharray="0" stroke="rgba(255, 255, 255, 0)" fill="none" transform="matrix(1 0 0 1 26 268 )" class="stroke" mask="url(#Clip2127)" />
    <path d="M 13.444917273476468 9.613603866639142  C 13.444917273476468 9.882928130966144  13.210446738232868 10.10234819007432  12.92211136720066 10.10234819007432  L 10.339766962130469 10.10234819007432  L 10.339766962130469 11.178853101866226  L 12.92211136720066 11.178853101866226  C 13.210446755309661 11.178853101866226  13.444917290553262 11.397481031263418  13.444917273476467 11.667597425119736  C 13.444917273476467 11.93771381915772  13.210446738232866 12.1555496190256  12.92211136720066 12.155549619207267  L 10.339766962130469 12.155549619207267  L 10.339766962130469 14.458272059719242  C 10.339766962130469 14.727596324046242  10.106088556416182 14.946224253625104  9.81775318538398 14.946224253625104  C 9.528625667927333 14.946224253625104  9.294947262031378 14.72759632422791  9.294947262031378 14.458272059719242  L 9.294947262031378 12.155549618843931  L 6.7126028742196535 12.155549618843931  C 6.423475356763005 12.155549618843931  6.189796950867051 11.937713818976052  6.189796950867051 11.667597425119736  C 6.189796950867051 11.39748103108175  6.423475356581337 11.178853101684558  6.7126028742196535 11.178853101866226  L 9.294947262031378 11.178853101866226  L 9.294947262031378 10.10234819007432  L 6.7126028742196535 10.10234819007432  C 6.423475356763005 10.10234819007432  6.189796950867051 9.88292813132948  6.189796950867051 9.613603866639142  C 6.189796950867051 9.344279602312142  6.423475356581337 9.124859543203964  6.7126028742196535 9.124859543203964  L 8.725405667745664 9.124859543203964  L 6.730029738761356 7.260185090834021  C 6.632894782493468 7.171628046965129  6.577542439564441 7.0462604257191135  6.577542439564441 6.914816332097676  C 6.577542439564441 6.783372238390648  6.6328947825653035 6.6580046170711675  6.730029738943023 6.569447573195706  C 6.939750510063606 6.378669138758667  7.260158544436809 6.378669138758667  7.469879315557391 6.569447573195706  L 9.846269862246078 8.78978848416185  L 12.221076149876136 6.569447573195706  C 12.430796923534878 6.378669128402404  12.75120496990856 6.378669128402407  12.960925743567302 6.569447573195706  C 13.058510325322445 6.657748751938865  13.114185110569636 6.783211435587118  13.114185110569636 6.914816332014864  C 13.114185110569636 7.046421228442609  13.058510325322445 7.171883912090863  12.960925743567302 7.260185090834021  L 10.966341944112305 9.124859543203964  L 12.922111367200662 9.124859543203964  C 13.210446755309665 9.124859543203964  13.444917290553263 9.344279601948804  13.444917273476468 9.613603866639142  Z " stroke-width="0" stroke-dasharray="0" stroke="rgba(255, 255, 255, 0)" fill="none" transform="matrix(1 0 0 1 26 268 )" class="stroke" mask="url(#Clip2127)" />
    <path d="M 17.59488730181668 2.9161431797522717  C 17.59488730181668 3.259927679603634  17.29546210156895 3.539549626903386  16.927121555061934 3.539549626903386  L 2.7075926692815857 3.539549626903386  C 2.339252139669695 3.539549626903386  2.0406190518744842 3.259927679603634  2.0406190518744842 2.9161431797522717  C 2.0406190518744842 2.5715665503715943  2.339252122774567 2.292736732601157  2.7075926692815857 2.292736732601157  L 16.927121555061934 2.292736732601157  C 17.295462084673826 2.292736732601157  17.59488730181668 2.5715665503715943  17.59488730181668 2.9161431797522717  Z " stroke-width="0" stroke-dasharray="0" stroke="rgba(255, 255, 255, 0)" fill="none" transform="matrix(1 0 0 1 26 268 )" class="stroke" mask="url(#Clip2127)" />
    <path d="M 15.822892078860448 0.9160144741370764  C 15.822892078860448 1.2597989739884392  15.52346687861272 1.5394209212881913  15.155126349000827 1.5394209212881913  L 4.480380021767135 1.5394209212881913  C 4.111247362807598 1.5394209212881913  3.812614275012387 1.2597989739884392  3.812614274830719 0.9160144741370764  C 3.812614274830719 0.5714378447563995  4.112039475078448 0.29260802698596144  4.480380021585467 0.29260802698596144  L 15.155126349000827 0.29260802698596144  C 15.52346687861272 0.29260802698596144  15.822892095755574 0.5714378447563995  15.822892078860448 0.9160144741370764  Z " stroke-width="0" stroke-dasharray="0" stroke="rgba(255, 255, 255, 0)" fill="none" transform="matrix(1 0 0 1 26 268 )" class="stroke" mask="url(#Clip2127)" />
  </g>
</svg>