<?xml version="1.0" encoding="utf-8"?>
<svg version="1.1" xmlns:xlink="http://www.w3.org/1999/xlink" width="8px" height="8px" xmlns="http://www.w3.org/2000/svg">
  <defs>
    <pattern id="BGPattern" patternUnits="userSpaceOnUse" alignment="0 0" imageRepeat="None" />
    <mask fill="white" id="Clip5690">
      <path d="M 0.6816666640625 4  C 0.6816666640625 5.8326666640625  2.1673333359375 7.3183333359375  4 7.3183333359375  C 5.8326666640625 7.3183333359375  7.3183333359375 5.832666671875  7.3183333359375 4  C 7.3183333359375 2.1673333281250002  5.8326666640625 0.6816666640625  4 0.6816666640625  C 2.1673333359375 0.6816666640625  0.6816666640625 2.1673333359375  0.6816666640625 4  Z M 7.8183333359375 4  C 7.8183333359375 6.1086666640625005  6.108666671875 7.8183333359375  4 7.8183333359375  C 1.8913333359375 7.8183333359375  0.1816666640625 6.1086666640625  0.1816666640625 4  C 0.1816666640625 1.8913333359375  1.8913333359375 0.1816666640625  4 0.1816666640625  C 6.1086666640625 0.1816666640625  7.8183333359375 1.8913333359375  7.8183333359375 4  Z " fill-rule="evenodd" />
    </mask>
  </defs>
  <g transform="matrix(1 0 0 1 -45 -86 )">
    <path d="M 0.6816666640625 4  C 0.6816666640625 5.8326666640625  2.1673333359375 7.3183333359375  4 7.3183333359375  C 5.8326666640625 7.3183333359375  7.3183333359375 5.832666671875  7.3183333359375 4  C 7.3183333359375 2.1673333281250002  5.8326666640625 0.6816666640625  4 0.6816666640625  C 2.1673333359375 0.6816666640625  0.6816666640625 2.1673333359375  0.6816666640625 4  Z M 7.8183333359375 4  C 7.8183333359375 6.1086666640625005  6.108666671875 7.8183333359375  4 7.8183333359375  C 1.8913333359375 7.8183333359375  0.1816666640625 6.1086666640625  0.1816666640625 4  C 0.1816666640625 1.8913333359375  1.8913333359375 0.1816666640625  4 0.1816666640625  C 6.1086666640625 0.1816666640625  7.8183333359375 1.8913333359375  7.8183333359375 4  Z " fill-rule="nonzero" fill="rgba(255, 255, 255, 1)" stroke="none" transform="matrix(1 0 0 1 45 86 )" class="fill" />
    <path d="M 0.6816666640625 4  C 0.6816666640625 5.8326666640625  2.1673333359375 7.3183333359375  4 7.3183333359375  C 5.8326666640625 7.3183333359375  7.3183333359375 5.832666671875  7.3183333359375 4  C 7.3183333359375 2.1673333281250002  5.8326666640625 0.6816666640625  4 0.6816666640625  C 2.1673333359375 0.6816666640625  0.6816666640625 2.1673333359375  0.6816666640625 4  Z " stroke-width="0" stroke-dasharray="0" stroke="rgba(255, 255, 255, 0)" fill="none" transform="matrix(1 0 0 1 45 86 )" class="stroke" mask="url(#Clip5690)" />
    <path d="M 7.8183333359375 4  C 7.8183333359375 6.1086666640625005  6.108666671875 7.8183333359375  4 7.8183333359375  C 1.8913333359375 7.8183333359375  0.1816666640625 6.1086666640625  0.1816666640625 4  C 0.1816666640625 1.8913333359375  1.8913333359375 0.1816666640625  4 0.1816666640625  C 6.1086666640625 0.1816666640625  7.8183333359375 1.8913333359375  7.8183333359375 4  Z " stroke-width="0" stroke-dasharray="0" stroke="rgba(255, 255, 255, 0)" fill="none" transform="matrix(1 0 0 1 45 86 )" class="stroke" mask="url(#Clip5690)" />
  </g>
</svg>