<?xml version="1.0" encoding="utf-8"?>
<svg version="1.1" xmlns:xlink="http://www.w3.org/1999/xlink" width="11px" height="12px" xmlns="http://www.w3.org/2000/svg">
  <defs>
    <pattern id="BGPattern" patternUnits="userSpaceOnUse" alignment="0 0" imageRepeat="None" />
    <mask fill="white" id="Clip3250">
      <path d="M 9.61212412109375 8.8713174140625  C 9.78359934765625 8.994933648437499  9.9052351171875 9.16442451171875  9.9770314296875 9.37979000390625  C 10.016913929687501 9.49942969140625  10.0468238515625 9.6529675546875  10.0667611953125 9.84040359375  C 10.0866985390625 10.0278396328125  10.096667210937499 10.21726783984375  10.096667210937499 10.40868821484375  C 10.096667210937499 10.60010858984375  10.0827102890625 10.77957203125  10.054796445312498 10.947078539062499  C 10.0268826015625 11.114585046875  9.9850079296875 11.242201238281249  9.929172429687497 11.329927113281249  C 9.8892899296875 11.38575480078125  9.779618910156248 11.44158639453125  9.60015937109375 11.497421894531248  C 9.42069983203125 11.553257394531249  9.199365624999999 11.607092910156249  8.936156749999999 11.658928441406248  C 8.672947874999998 11.710763972656249  8.3778368984375 11.7566268984375  8.050823820312498 11.796517218749997  C 7.723810742187499 11.836407539062499  7.396793765624999 11.872301789062499  7.069772890624998 11.90419996875  C 6.742752015624998 11.9360981484375  6.425707617187497 11.9600237421875  6.118639695312497 11.97597675  C 5.811571773437498 11.9919297578125  5.542378566406248 11.9999062578125  5.311060074218748 11.999906249999999  C 5.0797415820312475 11.9999062421875  4.812548355468747 11.989937570312499  4.509480394531248 11.970000234374998  C 4.206412433593749 11.950062898437498  3.8933523789062487 11.9261333984375  3.5703002304687477 11.898211734375  C 3.2472480820312475 11.8702900703125  2.9282076054687476 11.8383879765625  2.613178800781248 11.802505453124999  C 2.298149996093749 11.7666229296875  2.0090194414062488 11.72873259765625  1.7457871367187479 11.688834457031248  C 1.4825548320312474 11.64893631640625  1.2612206249999973 11.60905772265625  1.0817845156249977 11.569198675781248  C 0.902348406249998 11.52933962890625  0.7886891367187484 11.489457128906249  0.7408067070312478 11.449551175781249  C 0.6610495195312478 11.38574698828125  0.5992375039062479 11.190338359375  0.5553706601562478 10.863325289062498  C 0.5115038164062478 10.536312218749998  0.5254607382812477 10.11358114453125  0.5972414257812475 9.595132066406247  C 0.6451004257812478 9.30002499609375  0.7647401171874977 9.0766986171875  0.9561604999999975 8.925152929687497  C 1.1475808828124974 8.773607242187499  1.3709111679687473 8.651975378906247  1.6261513554687475 8.560257339843748  C 1.881391542968748 8.468539300781249  2.146592597656248 8.38678212890625  2.4217545195312478 8.314985824218748  C 2.6969164414062483 8.243189519531247  2.9421801484374988 8.139502828124998  3.1575456406249973 8.003925749999997  C 3.3250443359374984 7.900239062499999  3.452660527343747 7.800540621093749  3.5403942148437473 7.704830425781248  C 3.6281279023437474 7.609120230468749  3.691935996093748 7.513406136718749  3.7318184960937475 7.417688144531248  C 3.7717009960937484 7.321970152343749  3.791638343749999 7.222271710937498  3.7916305390624987 7.118592820312498  C 3.7916227343749984 7.0149139296874985  3.7876383906249984 6.899258585937499  3.7796775078124982 6.771626789062499  C 3.763724507812499 6.588182906249999  3.6999125039062486 6.44262154296875  3.5882414960937483 6.33494269921875  C 3.476570488281249 6.227263855468751  3.356930796874998 6.1175928359375  3.229322421874998 6.005929640625  C 3.165518234374998 5.950101953125  3.1076944687499974 5.8723369375  3.055851124999997 5.772634593749999  C 3.0040077812499986 5.672932249999999  2.9581448593749986 5.57123773046875  2.9182623593749977 5.46755103515625  C 2.878379859374998 5.34791134765625  2.8384973593749985 5.22029515625  2.7986148593749975 5.0847024609375  C 2.7268341718749975 5.076733773437501  2.655053480468748 5.0528081796875  2.5832727851562476 5.0129256796875  C 2.519460785156248 4.9730431796875  2.455652691406248 4.9152155078125  2.391848503906248 4.8394426640625  C 2.328044316406247 4.763669820312501  2.2762009687499978 4.657987050781251  2.2363184609374973 4.52239435546875  C 2.1964359531249977 4.38680166015625  2.186463374999997 4.26317371875  2.2064007265624976 4.15151053125  C 2.2263380781249973 4.039847343750001  2.260236253906248 3.944137156250001  2.3080952539062474 3.86437996875  C 2.3559542539062477 3.77664628125  2.4237505976562472 3.69289693359375  2.5114842851562473 3.61313192578125  C 2.5114842851562473 3.3100405429687494  2.527437285156248 3.0069530664062496  2.5593432851562476 2.7038694960937497  C 2.5912492851562483 2.44863711328125  2.6470808789062477 2.1754595624999995  2.7268380664062475 1.8843368437499999  C 2.8065952539062478 1.593214125  2.9302231953124975 1.3319974140625002  3.0977218906249977 1.1006867109375  C 3.2492675781249982 0.8773603281249999  3.416766269531248 0.69590862109375  3.6002179648437473 0.55633158984375  C 3.7836696601562476 0.41675455859375005  3.9730978671874975 0.3070835390625  4.168502585937498 0.22731853124999996  C 4.3639073046874985 0.1475535234374999  4.557323761718749 0.09371410156249992  4.748751957031249 0.065800265625  C 4.940180152343752 0.0378864296875001  5.127616191406252 0.023929507812500105  5.31106007421875 0.023929500000000003  C 5.542370769531249 0.023929500000000003  5.7637049765625 0.049851171875  5.9750626953124995 0.10169451562500001  C 6.1864204140625 0.153537859375  6.381832949218751 0.22332637890624998  6.56130030078125 0.31106007421875004  C 6.7407676523437505 0.39879376953125  6.902282015625 0.49849611328125004  7.045843390624999 0.6101671054687501  C 7.189404765624999 0.72183809765625  7.309044457031249 0.8335012890625  7.404762464843749 0.9451566796875  C 7.6041671601562495 1.2003890625000002  7.7537206796875004 1.4835391953125001  7.8534230234375 1.7946070781249999  C 7.9531253671875 2.1056749609375  8.0229138828125 2.39679768359375  8.062788570312499 2.66797524609375  C 8.1026710703125 2.98701181640625  8.1186240703125 3.30605229296875  8.1106475703125 3.62509667578125  C 8.1824282578125 3.6649791757812507  8.24224810546875 3.716822523437501  8.29010711328125 3.7806267187500007  C 8.329981800781251 3.8364622187500004  8.365872144531252 3.9082468125000003  8.397778144531252 3.9959805  C 8.429684144531251 4.0837141875  8.43766064453125 4.19138912890625  8.42170764453125 4.31900532421875  C 8.40575464453125 4.4944727070312505  8.365872144531252 4.63006539453125  8.30206014453125 4.725783386718749  C 8.238248144531251 4.82150137890625  8.170455703125 4.8972742265625  8.0986828203125 4.9531019296875  C 8.0109491328125 5.0169061171875  7.919223289062502 5.0607729609375  7.823505289062499 5.0847024609375  C 7.783622789062502 5.220295148437501  7.74374028515625 5.3479113398437494  7.703857777343749 5.46755103515625  C 7.66398308984375 5.5712377226562495  7.61812407421875 5.672932242187501  7.566280730468749 5.772634593749999  C 7.51443738671875 5.8723369453125  7.456609714843751 5.9501019609375  7.392797714843749 6.005929640625  C 7.249236339843751 6.125577140625001  7.1295966484375 6.2272716601562506  7.033878640624999 6.311013199218751  C 6.938160632812501 6.39475473828125  6.874352539062501 6.536331757812501  6.842454359374999 6.7357442578125  C 6.818532671875001 6.855383945312501  6.8085640000000005 6.9770158046875  6.8125483437500005 7.1006398359375  C 6.8165326875000005 7.224263867187498  6.84843478125 7.347895714843749  6.9082546250000005 7.47153537890625  C 6.96807446875 7.595175042968751  7.0598003125 7.712818656250001  7.183432156249999 7.82446621875  C 7.3070640000000004 7.936113781249999  7.480539207031249 8.03581221875  7.703857777343749 8.12356153125  C 7.89528597265625 8.20332653125  8.108643683593751 8.27511112890625  8.34393091015625 8.33891532421875  C 8.57921813671875 8.40271951953125  8.806536671875 8.476500191406249  9.025886515624999 8.560257339843748  C 9.245236359375 8.644014488281249  9.440648894531249 8.7477011796875  9.61212412109375 8.8713174140625  Z M 4.96410575 6.616096746093751  C 5.0677924296875 6.7197834335937525  5.195408621093751 6.771626781250002  5.34695432421875 6.7716267890625  C 5.4905235117187505 6.7716267890625  5.61415535546875 6.719783441406252  5.71784985546875 6.616096746093751  C 5.821544355468751 6.512410050781252  5.873383796875002 6.384793863281251  5.8733681796875 6.2332481835937505  C 5.873352562500001 6.08170250390625  5.8215092148437515 5.9540863125  5.717838136718751 5.850399609375001  C 5.614167058593752 5.746712906250002  5.490539121093751 5.694869558593751  5.34695432421875 5.6948695664062505  C 5.195408636718751 5.6948695664062505  5.0677924453125 5.746712914062501  4.96410575 5.850399609375001  C 4.8604190546875 5.954086304687502  4.8085757109375 6.081702496093751  4.808575718749999 6.2332481835937505  C 4.8085757265625 6.384793871093751  4.8604190703125 6.512410058593751  4.96410575 6.616096746093751  Z M 5.789626648437501 4.8095366484375  L 5.789626648437501 4.606135886718751  C 5.7816501484375005 4.510433511718751  5.837481742187501 4.408742902343751  5.9571214296875 4.3010640585937505  C 6.0767611171875 4.193385214843751  6.212353808593748 4.075737695312501  6.363899503906249 3.9481215000000005  C 6.5154451992187505 3.820505304687501  6.655026140625001 3.6749439414062506  6.782642328124999 3.51143741015625  C 6.910258515624999 3.3479308789062503  6.982043109374999 3.162487015625001  6.9979961093749985 2.9551058203125002  C 7.005964796874999 2.7317794375  6.982035296874999 2.5204139023437504  6.926207609374999 2.32100921484375  C 6.870379921875 2.1216045273437505  6.774665824218749 1.9481293203125005  6.639065316406249 1.8005835937500003  C 6.503464808593749 1.6530378671875003  6.329989601562499 1.5373864257812502  6.118639695312499 1.4536292695312503  C 5.9072897890624985 1.3698721132812504  5.658037832031248 1.3279974414062505  5.370883824218749 1.3280052539062503  C 5.01994125390625 1.3280052539062503  4.72482637109375 1.3918133476562504  4.48553917578125 1.5194295351562501  C 4.246251980468751 1.6470457226562503  4.0548316015625 1.7985914140625001  3.9112780390624993 1.9740666093750001  C 3.767724476562499 2.1495418046875  3.668022128906249 2.3349817617187503  3.6121709960937496 2.53038648046875  C 3.5563198632812503 2.72579119921875  3.52840601953125 2.8873055625  3.5284294648437506 3.0149295703125  C 3.5363981523437498 3.1664752578124995  3.58425324609375 3.27614627734375  3.67199474609375 3.34394262890625  C 3.75973624609375 3.4117389804687503  3.8574425156249994 3.4476293242187497  3.9651135546875 3.4516136601562497  C 4.072784593750001 3.45559799609375  4.17049086328125 3.42568807421875  4.25823236328125 3.3618838945312497  C 4.34597386328125 3.298079714843749  4.389840707031251 3.2103460234374994  4.38983289453125 3.098682820312499  C 4.38983289453125 3.0268943203124996  4.411766316406251 2.9411528046874995  4.45563316015625 2.841458273437499  C 4.499500003906251 2.7417637421874996  4.55931984765625 2.6440574726562494  4.63509269140625 2.5483394648437496  C 4.71086553515625 2.4526214570312495  4.8025913828125 2.37285645703125  4.910270234375 2.3090444648437494  C 5.0179490859375 2.24523247265625  5.13559660546875 2.2133303749999995  5.2632127929687496 2.213338171875  C 5.526413863281252 2.213338171875  5.7357833203125 2.27914234765625  5.8913211640625 2.4107506992187497  C 6.0468590078124995 2.5423590507812497  6.120635773437499 2.7078616640624995  6.1126514609374984 2.9072585390624996  C 6.1126514609374984 3.0588042265625  6.0508394453125 3.1924008398437502  5.9272154140624975 3.30804837890625  C 5.803591382812499 3.4236959179687503  5.667998691406249 3.5413434335937497  5.520437339843748 3.66099092578125  C 5.37287598828125 3.780638417968751  5.235287218750001 3.9082546093750006  5.10767103125 4.0438395  C 4.98005484375 4.179424390625  4.912262406249999 4.33894267578125  4.904293718749999 4.52239435546875  L 4.904293718749999 4.8454308984375  C 4.912262406249999 4.933164585937501  4.95612925 5.016913929687501  5.035894249999999 5.0966789296875  C 5.11565925 5.1764439296875  5.22333419140625 5.2203107734375  5.35891907421875 5.2282794609375  C 5.49451176171875 5.220302960937501  5.600194527343751 5.176436117187501  5.6759673710937495 5.0966789296875  C 5.7517402148437515 5.0169217421875  5.789626640625 4.9212076484375  5.789626648437501 4.8095366484375  Z " fill-rule="evenodd" />
    </mask>
  </defs>
  <g transform="matrix(1 0 0 1 -426 -875 )">
    <path d="M 9.61212412109375 8.8713174140625  C 9.78359934765625 8.994933648437499  9.9052351171875 9.16442451171875  9.9770314296875 9.37979000390625  C 10.016913929687501 9.49942969140625  10.0468238515625 9.6529675546875  10.0667611953125 9.84040359375  C 10.0866985390625 10.0278396328125  10.096667210937499 10.21726783984375  10.096667210937499 10.40868821484375  C 10.096667210937499 10.60010858984375  10.0827102890625 10.77957203125  10.054796445312498 10.947078539062499  C 10.0268826015625 11.114585046875  9.9850079296875 11.242201238281249  9.929172429687497 11.329927113281249  C 9.8892899296875 11.38575480078125  9.779618910156248 11.44158639453125  9.60015937109375 11.497421894531248  C 9.42069983203125 11.553257394531249  9.199365624999999 11.607092910156249  8.936156749999999 11.658928441406248  C 8.672947874999998 11.710763972656249  8.3778368984375 11.7566268984375  8.050823820312498 11.796517218749997  C 7.723810742187499 11.836407539062499  7.396793765624999 11.872301789062499  7.069772890624998 11.90419996875  C 6.742752015624998 11.9360981484375  6.425707617187497 11.9600237421875  6.118639695312497 11.97597675  C 5.811571773437498 11.9919297578125  5.542378566406248 11.9999062578125  5.311060074218748 11.999906249999999  C 5.0797415820312475 11.9999062421875  4.812548355468747 11.989937570312499  4.509480394531248 11.970000234374998  C 4.206412433593749 11.950062898437498  3.8933523789062487 11.9261333984375  3.5703002304687477 11.898211734375  C 3.2472480820312475 11.8702900703125  2.9282076054687476 11.8383879765625  2.613178800781248 11.802505453124999  C 2.298149996093749 11.7666229296875  2.0090194414062488 11.72873259765625  1.7457871367187479 11.688834457031248  C 1.4825548320312474 11.64893631640625  1.2612206249999973 11.60905772265625  1.0817845156249977 11.569198675781248  C 0.902348406249998 11.52933962890625  0.7886891367187484 11.489457128906249  0.7408067070312478 11.449551175781249  C 0.6610495195312478 11.38574698828125  0.5992375039062479 11.190338359375  0.5553706601562478 10.863325289062498  C 0.5115038164062478 10.536312218749998  0.5254607382812477 10.11358114453125  0.5972414257812475 9.595132066406247  C 0.6451004257812478 9.30002499609375  0.7647401171874977 9.0766986171875  0.9561604999999975 8.925152929687497  C 1.1475808828124974 8.773607242187499  1.3709111679687473 8.651975378906247  1.6261513554687475 8.560257339843748  C 1.881391542968748 8.468539300781249  2.146592597656248 8.38678212890625  2.4217545195312478 8.314985824218748  C 2.6969164414062483 8.243189519531247  2.9421801484374988 8.139502828124998  3.1575456406249973 8.003925749999997  C 3.3250443359374984 7.900239062499999  3.452660527343747 7.800540621093749  3.5403942148437473 7.704830425781248  C 3.6281279023437474 7.609120230468749  3.691935996093748 7.513406136718749  3.7318184960937475 7.417688144531248  C 3.7717009960937484 7.321970152343749  3.791638343749999 7.222271710937498  3.7916305390624987 7.118592820312498  C 3.7916227343749984 7.0149139296874985  3.7876383906249984 6.899258585937499  3.7796775078124982 6.771626789062499  C 3.763724507812499 6.588182906249999  3.6999125039062486 6.44262154296875  3.5882414960937483 6.33494269921875  C 3.476570488281249 6.227263855468751  3.356930796874998 6.1175928359375  3.229322421874998 6.005929640625  C 3.165518234374998 5.950101953125  3.1076944687499974 5.8723369375  3.055851124999997 5.772634593749999  C 3.0040077812499986 5.672932249999999  2.9581448593749986 5.57123773046875  2.9182623593749977 5.46755103515625  C 2.878379859374998 5.34791134765625  2.8384973593749985 5.22029515625  2.7986148593749975 5.0847024609375  C 2.7268341718749975 5.076733773437501  2.655053480468748 5.0528081796875  2.5832727851562476 5.0129256796875  C 2.519460785156248 4.9730431796875  2.455652691406248 4.9152155078125  2.391848503906248 4.8394426640625  C 2.328044316406247 4.763669820312501  2.2762009687499978 4.657987050781251  2.2363184609374973 4.52239435546875  C 2.1964359531249977 4.38680166015625  2.186463374999997 4.26317371875  2.2064007265624976 4.15151053125  C 2.2263380781249973 4.039847343750001  2.260236253906248 3.944137156250001  2.3080952539062474 3.86437996875  C 2.3559542539062477 3.77664628125  2.4237505976562472 3.69289693359375  2.5114842851562473 3.61313192578125  C 2.5114842851562473 3.3100405429687494  2.527437285156248 3.0069530664062496  2.5593432851562476 2.7038694960937497  C 2.5912492851562483 2.44863711328125  2.6470808789062477 2.1754595624999995  2.7268380664062475 1.8843368437499999  C 2.8065952539062478 1.593214125  2.9302231953124975 1.3319974140625002  3.0977218906249977 1.1006867109375  C 3.2492675781249982 0.8773603281249999  3.416766269531248 0.69590862109375  3.6002179648437473 0.55633158984375  C 3.7836696601562476 0.41675455859375005  3.9730978671874975 0.3070835390625  4.168502585937498 0.22731853124999996  C 4.3639073046874985 0.1475535234374999  4.557323761718749 0.09371410156249992  4.748751957031249 0.065800265625  C 4.940180152343752 0.0378864296875001  5.127616191406252 0.023929507812500105  5.31106007421875 0.023929500000000003  C 5.542370769531249 0.023929500000000003  5.7637049765625 0.049851171875  5.9750626953124995 0.10169451562500001  C 6.1864204140625 0.153537859375  6.381832949218751 0.22332637890624998  6.56130030078125 0.31106007421875004  C 6.7407676523437505 0.39879376953125  6.902282015625 0.49849611328125004  7.045843390624999 0.6101671054687501  C 7.189404765624999 0.72183809765625  7.309044457031249 0.8335012890625  7.404762464843749 0.9451566796875  C 7.6041671601562495 1.2003890625000002  7.7537206796875004 1.4835391953125001  7.8534230234375 1.7946070781249999  C 7.9531253671875 2.1056749609375  8.0229138828125 2.39679768359375  8.062788570312499 2.66797524609375  C 8.1026710703125 2.98701181640625  8.1186240703125 3.30605229296875  8.1106475703125 3.62509667578125  C 8.1824282578125 3.6649791757812507  8.24224810546875 3.716822523437501  8.29010711328125 3.7806267187500007  C 8.329981800781251 3.8364622187500004  8.365872144531252 3.9082468125000003  8.397778144531252 3.9959805  C 8.429684144531251 4.0837141875  8.43766064453125 4.19138912890625  8.42170764453125 4.31900532421875  C 8.40575464453125 4.4944727070312505  8.365872144531252 4.63006539453125  8.30206014453125 4.725783386718749  C 8.238248144531251 4.82150137890625  8.170455703125 4.8972742265625  8.0986828203125 4.9531019296875  C 8.0109491328125 5.0169061171875  7.919223289062502 5.0607729609375  7.823505289062499 5.0847024609375  C 7.783622789062502 5.220295148437501  7.74374028515625 5.3479113398437494  7.703857777343749 5.46755103515625  C 7.66398308984375 5.5712377226562495  7.61812407421875 5.672932242187501  7.566280730468749 5.772634593749999  C 7.51443738671875 5.8723369453125  7.456609714843751 5.9501019609375  7.392797714843749 6.005929640625  C 7.249236339843751 6.125577140625001  7.1295966484375 6.2272716601562506  7.033878640624999 6.311013199218751  C 6.938160632812501 6.39475473828125  6.874352539062501 6.536331757812501  6.842454359374999 6.7357442578125  C 6.818532671875001 6.855383945312501  6.8085640000000005 6.9770158046875  6.8125483437500005 7.1006398359375  C 6.8165326875000005 7.224263867187498  6.84843478125 7.347895714843749  6.9082546250000005 7.47153537890625  C 6.96807446875 7.595175042968751  7.0598003125 7.712818656250001  7.183432156249999 7.82446621875  C 7.3070640000000004 7.936113781249999  7.480539207031249 8.03581221875  7.703857777343749 8.12356153125  C 7.89528597265625 8.20332653125  8.108643683593751 8.27511112890625  8.34393091015625 8.33891532421875  C 8.57921813671875 8.40271951953125  8.806536671875 8.476500191406249  9.025886515624999 8.560257339843748  C 9.245236359375 8.644014488281249  9.440648894531249 8.7477011796875  9.61212412109375 8.8713174140625  Z M 4.96410575 6.616096746093751  C 5.0677924296875 6.7197834335937525  5.195408621093751 6.771626781250002  5.34695432421875 6.7716267890625  C 5.4905235117187505 6.7716267890625  5.61415535546875 6.719783441406252  5.71784985546875 6.616096746093751  C 5.821544355468751 6.512410050781252  5.873383796875002 6.384793863281251  5.8733681796875 6.2332481835937505  C 5.873352562500001 6.08170250390625  5.8215092148437515 5.9540863125  5.717838136718751 5.850399609375001  C 5.614167058593752 5.746712906250002  5.490539121093751 5.694869558593751  5.34695432421875 5.6948695664062505  C 5.195408636718751 5.6948695664062505  5.0677924453125 5.746712914062501  4.96410575 5.850399609375001  C 4.8604190546875 5.954086304687502  4.8085757109375 6.081702496093751  4.808575718749999 6.2332481835937505  C 4.8085757265625 6.384793871093751  4.8604190703125 6.512410058593751  4.96410575 6.616096746093751  Z M 5.789626648437501 4.8095366484375  L 5.789626648437501 4.606135886718751  C 5.7816501484375005 4.510433511718751  5.837481742187501 4.408742902343751  5.9571214296875 4.3010640585937505  C 6.0767611171875 4.193385214843751  6.212353808593748 4.075737695312501  6.363899503906249 3.9481215000000005  C 6.5154451992187505 3.820505304687501  6.655026140625001 3.6749439414062506  6.782642328124999 3.51143741015625  C 6.910258515624999 3.3479308789062503  6.982043109374999 3.162487015625001  6.9979961093749985 2.9551058203125002  C 7.005964796874999 2.7317794375  6.982035296874999 2.5204139023437504  6.926207609374999 2.32100921484375  C 6.870379921875 2.1216045273437505  6.774665824218749 1.9481293203125005  6.639065316406249 1.8005835937500003  C 6.503464808593749 1.6530378671875003  6.329989601562499 1.5373864257812502  6.118639695312499 1.4536292695312503  C 5.9072897890624985 1.3698721132812504  5.658037832031248 1.3279974414062505  5.370883824218749 1.3280052539062503  C 5.01994125390625 1.3280052539062503  4.72482637109375 1.3918133476562504  4.48553917578125 1.5194295351562501  C 4.246251980468751 1.6470457226562503  4.0548316015625 1.7985914140625001  3.9112780390624993 1.9740666093750001  C 3.767724476562499 2.1495418046875  3.668022128906249 2.3349817617187503  3.6121709960937496 2.53038648046875  C 3.5563198632812503 2.72579119921875  3.52840601953125 2.8873055625  3.5284294648437506 3.0149295703125  C 3.5363981523437498 3.1664752578124995  3.58425324609375 3.27614627734375  3.67199474609375 3.34394262890625  C 3.75973624609375 3.4117389804687503  3.8574425156249994 3.4476293242187497  3.9651135546875 3.4516136601562497  C 4.072784593750001 3.45559799609375  4.17049086328125 3.42568807421875  4.25823236328125 3.3618838945312497  C 4.34597386328125 3.298079714843749  4.389840707031251 3.2103460234374994  4.38983289453125 3.098682820312499  C 4.38983289453125 3.0268943203124996  4.411766316406251 2.9411528046874995  4.45563316015625 2.841458273437499  C 4.499500003906251 2.7417637421874996  4.55931984765625 2.6440574726562494  4.63509269140625 2.5483394648437496  C 4.71086553515625 2.4526214570312495  4.8025913828125 2.37285645703125  4.910270234375 2.3090444648437494  C 5.0179490859375 2.24523247265625  5.13559660546875 2.2133303749999995  5.2632127929687496 2.213338171875  C 5.526413863281252 2.213338171875  5.7357833203125 2.27914234765625  5.8913211640625 2.4107506992187497  C 6.0468590078124995 2.5423590507812497  6.120635773437499 2.7078616640624995  6.1126514609374984 2.9072585390624996  C 6.1126514609374984 3.0588042265625  6.0508394453125 3.1924008398437502  5.9272154140624975 3.30804837890625  C 5.803591382812499 3.4236959179687503  5.667998691406249 3.5413434335937497  5.520437339843748 3.66099092578125  C 5.37287598828125 3.780638417968751  5.235287218750001 3.9082546093750006  5.10767103125 4.0438395  C 4.98005484375 4.179424390625  4.912262406249999 4.33894267578125  4.904293718749999 4.52239435546875  L 4.904293718749999 4.8454308984375  C 4.912262406249999 4.933164585937501  4.95612925 5.016913929687501  5.035894249999999 5.0966789296875  C 5.11565925 5.1764439296875  5.22333419140625 5.2203107734375  5.35891907421875 5.2282794609375  C 5.49451176171875 5.220302960937501  5.600194527343751 5.176436117187501  5.6759673710937495 5.0966789296875  C 5.7517402148437515 5.0169217421875  5.789626640625 4.9212076484375  5.789626648437501 4.8095366484375  Z " fill-rule="nonzero" fill="rgba(255, 255, 255, 1)" stroke="none" transform="matrix(1 0 0 1 426 875 )" class="fill" />
    <path d="M 9.61212412109375 8.8713174140625  C 9.78359934765625 8.994933648437499  9.9052351171875 9.16442451171875  9.9770314296875 9.37979000390625  C 10.016913929687501 9.49942969140625  10.0468238515625 9.6529675546875  10.0667611953125 9.84040359375  C 10.0866985390625 10.0278396328125  10.096667210937499 10.21726783984375  10.096667210937499 10.40868821484375  C 10.096667210937499 10.60010858984375  10.0827102890625 10.77957203125  10.054796445312498 10.947078539062499  C 10.0268826015625 11.114585046875  9.9850079296875 11.242201238281249  9.929172429687497 11.329927113281249  C 9.8892899296875 11.38575480078125  9.779618910156248 11.44158639453125  9.60015937109375 11.497421894531248  C 9.42069983203125 11.553257394531249  9.199365624999999 11.607092910156249  8.936156749999999 11.658928441406248  C 8.672947874999998 11.710763972656249  8.3778368984375 11.7566268984375  8.050823820312498 11.796517218749997  C 7.723810742187499 11.836407539062499  7.396793765624999 11.872301789062499  7.069772890624998 11.90419996875  C 6.742752015624998 11.9360981484375  6.425707617187497 11.9600237421875  6.118639695312497 11.97597675  C 5.811571773437498 11.9919297578125  5.542378566406248 11.9999062578125  5.311060074218748 11.999906249999999  C 5.0797415820312475 11.9999062421875  4.812548355468747 11.989937570312499  4.509480394531248 11.970000234374998  C 4.206412433593749 11.950062898437498  3.8933523789062487 11.9261333984375  3.5703002304687477 11.898211734375  C 3.2472480820312475 11.8702900703125  2.9282076054687476 11.8383879765625  2.613178800781248 11.802505453124999  C 2.298149996093749 11.7666229296875  2.0090194414062488 11.72873259765625  1.7457871367187479 11.688834457031248  C 1.4825548320312474 11.64893631640625  1.2612206249999973 11.60905772265625  1.0817845156249977 11.569198675781248  C 0.902348406249998 11.52933962890625  0.7886891367187484 11.489457128906249  0.7408067070312478 11.449551175781249  C 0.6610495195312478 11.38574698828125  0.5992375039062479 11.190338359375  0.5553706601562478 10.863325289062498  C 0.5115038164062478 10.536312218749998  0.5254607382812477 10.11358114453125  0.5972414257812475 9.595132066406247  C 0.6451004257812478 9.30002499609375  0.7647401171874977 9.0766986171875  0.9561604999999975 8.925152929687497  C 1.1475808828124974 8.773607242187499  1.3709111679687473 8.651975378906247  1.6261513554687475 8.560257339843748  C 1.881391542968748 8.468539300781249  2.146592597656248 8.38678212890625  2.4217545195312478 8.314985824218748  C 2.6969164414062483 8.243189519531247  2.9421801484374988 8.139502828124998  3.1575456406249973 8.003925749999997  C 3.3250443359374984 7.900239062499999  3.452660527343747 7.800540621093749  3.5403942148437473 7.704830425781248  C 3.6281279023437474 7.609120230468749  3.691935996093748 7.513406136718749  3.7318184960937475 7.417688144531248  C 3.7717009960937484 7.321970152343749  3.791638343749999 7.222271710937498  3.7916305390624987 7.118592820312498  C 3.7916227343749984 7.0149139296874985  3.7876383906249984 6.899258585937499  3.7796775078124982 6.771626789062499  C 3.763724507812499 6.588182906249999  3.6999125039062486 6.44262154296875  3.5882414960937483 6.33494269921875  C 3.476570488281249 6.227263855468751  3.356930796874998 6.1175928359375  3.229322421874998 6.005929640625  C 3.165518234374998 5.950101953125  3.1076944687499974 5.8723369375  3.055851124999997 5.772634593749999  C 3.0040077812499986 5.672932249999999  2.9581448593749986 5.57123773046875  2.9182623593749977 5.46755103515625  C 2.878379859374998 5.34791134765625  2.8384973593749985 5.22029515625  2.7986148593749975 5.0847024609375  C 2.7268341718749975 5.076733773437501  2.655053480468748 5.0528081796875  2.5832727851562476 5.0129256796875  C 2.519460785156248 4.9730431796875  2.455652691406248 4.9152155078125  2.391848503906248 4.8394426640625  C 2.328044316406247 4.763669820312501  2.2762009687499978 4.657987050781251  2.2363184609374973 4.52239435546875  C 2.1964359531249977 4.38680166015625  2.186463374999997 4.26317371875  2.2064007265624976 4.15151053125  C 2.2263380781249973 4.039847343750001  2.260236253906248 3.944137156250001  2.3080952539062474 3.86437996875  C 2.3559542539062477 3.77664628125  2.4237505976562472 3.69289693359375  2.5114842851562473 3.61313192578125  C 2.5114842851562473 3.3100405429687494  2.527437285156248 3.0069530664062496  2.5593432851562476 2.7038694960937497  C 2.5912492851562483 2.44863711328125  2.6470808789062477 2.1754595624999995  2.7268380664062475 1.8843368437499999  C 2.8065952539062478 1.593214125  2.9302231953124975 1.3319974140625002  3.0977218906249977 1.1006867109375  C 3.2492675781249982 0.8773603281249999  3.416766269531248 0.69590862109375  3.6002179648437473 0.55633158984375  C 3.7836696601562476 0.41675455859375005  3.9730978671874975 0.3070835390625  4.168502585937498 0.22731853124999996  C 4.3639073046874985 0.1475535234374999  4.557323761718749 0.09371410156249992  4.748751957031249 0.065800265625  C 4.940180152343752 0.0378864296875001  5.127616191406252 0.023929507812500105  5.31106007421875 0.023929500000000003  C 5.542370769531249 0.023929500000000003  5.7637049765625 0.049851171875  5.9750626953124995 0.10169451562500001  C 6.1864204140625 0.153537859375  6.381832949218751 0.22332637890624998  6.56130030078125 0.31106007421875004  C 6.7407676523437505 0.39879376953125  6.902282015625 0.49849611328125004  7.045843390624999 0.6101671054687501  C 7.189404765624999 0.72183809765625  7.309044457031249 0.8335012890625  7.404762464843749 0.9451566796875  C 7.6041671601562495 1.2003890625000002  7.7537206796875004 1.4835391953125001  7.8534230234375 1.7946070781249999  C 7.9531253671875 2.1056749609375  8.0229138828125 2.39679768359375  8.062788570312499 2.66797524609375  C 8.1026710703125 2.98701181640625  8.1186240703125 3.30605229296875  8.1106475703125 3.62509667578125  C 8.1824282578125 3.6649791757812507  8.24224810546875 3.716822523437501  8.29010711328125 3.7806267187500007  C 8.329981800781251 3.8364622187500004  8.365872144531252 3.9082468125000003  8.397778144531252 3.9959805  C 8.429684144531251 4.0837141875  8.43766064453125 4.19138912890625  8.42170764453125 4.31900532421875  C 8.40575464453125 4.4944727070312505  8.365872144531252 4.63006539453125  8.30206014453125 4.725783386718749  C 8.238248144531251 4.82150137890625  8.170455703125 4.8972742265625  8.0986828203125 4.9531019296875  C 8.0109491328125 5.0169061171875  7.919223289062502 5.0607729609375  7.823505289062499 5.0847024609375  C 7.783622789062502 5.220295148437501  7.74374028515625 5.3479113398437494  7.703857777343749 5.46755103515625  C 7.66398308984375 5.5712377226562495  7.61812407421875 5.672932242187501  7.566280730468749 5.772634593749999  C 7.51443738671875 5.8723369453125  7.456609714843751 5.9501019609375  7.392797714843749 6.005929640625  C 7.249236339843751 6.125577140625001  7.1295966484375 6.2272716601562506  7.033878640624999 6.311013199218751  C 6.938160632812501 6.39475473828125  6.874352539062501 6.536331757812501  6.842454359374999 6.7357442578125  C 6.818532671875001 6.855383945312501  6.8085640000000005 6.9770158046875  6.8125483437500005 7.1006398359375  C 6.8165326875000005 7.224263867187498  6.84843478125 7.347895714843749  6.9082546250000005 7.47153537890625  C 6.96807446875 7.595175042968751  7.0598003125 7.712818656250001  7.183432156249999 7.82446621875  C 7.3070640000000004 7.936113781249999  7.480539207031249 8.03581221875  7.703857777343749 8.12356153125  C 7.89528597265625 8.20332653125  8.108643683593751 8.27511112890625  8.34393091015625 8.33891532421875  C 8.57921813671875 8.40271951953125  8.806536671875 8.476500191406249  9.025886515624999 8.560257339843748  C 9.245236359375 8.644014488281249  9.440648894531249 8.7477011796875  9.61212412109375 8.8713174140625  Z " stroke-width="0" stroke-dasharray="0" stroke="rgba(255, 255, 255, 0)" fill="none" transform="matrix(1 0 0 1 426 875 )" class="stroke" mask="url(#Clip3250)" />
    <path d="M 4.96410575 6.616096746093751  C 5.0677924296875 6.7197834335937525  5.195408621093751 6.771626781250002  5.34695432421875 6.7716267890625  C 5.4905235117187505 6.7716267890625  5.61415535546875 6.719783441406252  5.71784985546875 6.616096746093751  C 5.821544355468751 6.512410050781252  5.873383796875002 6.384793863281251  5.8733681796875 6.2332481835937505  C 5.873352562500001 6.08170250390625  5.8215092148437515 5.9540863125  5.717838136718751 5.850399609375001  C 5.614167058593752 5.746712906250002  5.490539121093751 5.694869558593751  5.34695432421875 5.6948695664062505  C 5.195408636718751 5.6948695664062505  5.0677924453125 5.746712914062501  4.96410575 5.850399609375001  C 4.8604190546875 5.954086304687502  4.8085757109375 6.081702496093751  4.808575718749999 6.2332481835937505  C 4.8085757265625 6.384793871093751  4.8604190703125 6.512410058593751  4.96410575 6.616096746093751  Z " stroke-width="0" stroke-dasharray="0" stroke="rgba(255, 255, 255, 0)" fill="none" transform="matrix(1 0 0 1 426 875 )" class="stroke" mask="url(#Clip3250)" />
    <path d="M 5.789626648437501 4.8095366484375  L 5.789626648437501 4.606135886718751  C 5.7816501484375005 4.510433511718751  5.837481742187501 4.408742902343751  5.9571214296875 4.3010640585937505  C 6.0767611171875 4.193385214843751  6.212353808593748 4.075737695312501  6.363899503906249 3.9481215000000005  C 6.5154451992187505 3.820505304687501  6.655026140625001 3.6749439414062506  6.782642328124999 3.51143741015625  C 6.910258515624999 3.3479308789062503  6.982043109374999 3.162487015625001  6.9979961093749985 2.9551058203125002  C 7.005964796874999 2.7317794375  6.982035296874999 2.5204139023437504  6.926207609374999 2.32100921484375  C 6.870379921875 2.1216045273437505  6.774665824218749 1.9481293203125005  6.639065316406249 1.8005835937500003  C 6.503464808593749 1.6530378671875003  6.329989601562499 1.5373864257812502  6.118639695312499 1.4536292695312503  C 5.9072897890624985 1.3698721132812504  5.658037832031248 1.3279974414062505  5.370883824218749 1.3280052539062503  C 5.01994125390625 1.3280052539062503  4.72482637109375 1.3918133476562504  4.48553917578125 1.5194295351562501  C 4.246251980468751 1.6470457226562503  4.0548316015625 1.7985914140625001  3.9112780390624993 1.9740666093750001  C 3.767724476562499 2.1495418046875  3.668022128906249 2.3349817617187503  3.6121709960937496 2.53038648046875  C 3.5563198632812503 2.72579119921875  3.52840601953125 2.8873055625  3.5284294648437506 3.0149295703125  C 3.5363981523437498 3.1664752578124995  3.58425324609375 3.27614627734375  3.67199474609375 3.34394262890625  C 3.75973624609375 3.4117389804687503  3.8574425156249994 3.4476293242187497  3.9651135546875 3.4516136601562497  C 4.072784593750001 3.45559799609375  4.17049086328125 3.42568807421875  4.25823236328125 3.3618838945312497  C 4.34597386328125 3.298079714843749  4.389840707031251 3.2103460234374994  4.38983289453125 3.098682820312499  C 4.38983289453125 3.0268943203124996  4.411766316406251 2.9411528046874995  4.45563316015625 2.841458273437499  C 4.499500003906251 2.7417637421874996  4.55931984765625 2.6440574726562494  4.63509269140625 2.5483394648437496  C 4.71086553515625 2.4526214570312495  4.8025913828125 2.37285645703125  4.910270234375 2.3090444648437494  C 5.0179490859375 2.24523247265625  5.13559660546875 2.2133303749999995  5.2632127929687496 2.213338171875  C 5.526413863281252 2.213338171875  5.7357833203125 2.27914234765625  5.8913211640625 2.4107506992187497  C 6.0468590078124995 2.5423590507812497  6.120635773437499 2.7078616640624995  6.1126514609374984 2.9072585390624996  C 6.1126514609374984 3.0588042265625  6.0508394453125 3.1924008398437502  5.9272154140624975 3.30804837890625  C 5.803591382812499 3.4236959179687503  5.667998691406249 3.5413434335937497  5.520437339843748 3.66099092578125  C 5.37287598828125 3.780638417968751  5.235287218750001 3.9082546093750006  5.10767103125 4.0438395  C 4.98005484375 4.179424390625  4.912262406249999 4.33894267578125  4.904293718749999 4.52239435546875  L 4.904293718749999 4.8454308984375  C 4.912262406249999 4.933164585937501  4.95612925 5.016913929687501  5.035894249999999 5.0966789296875  C 5.11565925 5.1764439296875  5.22333419140625 5.2203107734375  5.35891907421875 5.2282794609375  C 5.49451176171875 5.220302960937501  5.600194527343751 5.176436117187501  5.6759673710937495 5.0966789296875  C 5.7517402148437515 5.0169217421875  5.789626640625 4.9212076484375  5.789626648437501 4.8095366484375  Z " stroke-width="0" stroke-dasharray="0" stroke="rgba(255, 255, 255, 0)" fill="none" transform="matrix(1 0 0 1 426 875 )" class="stroke" mask="url(#Clip3250)" />
  </g>
</svg>