<?xml version="1.0" encoding="utf-8"?>
<svg version="1.1" xmlns:xlink="http://www.w3.org/1999/xlink" width="20px" height="18px" xmlns="http://www.w3.org/2000/svg">
  <defs>
    <pattern id="BGPattern" patternUnits="userSpaceOnUse" alignment="0 0" imageRepeat="None" />
    <mask fill="white" id="Clip9621">
      <path d="M 17.068359375 10.56640625  L 20 8.974609375  L 17.068359375 7.384765625  L 17.068359375 2.34375  C 17.068359375 1.19921875  16.0703125 0.26171875  14.8515625 0.26171875  L 2.216796875 0.26171875  C 0.998046875 0.26171875  0 1.19921875  0 2.34375  L 0 15.607421875  C 0 16.751953125  0.998046875 17.689453125  2.216796875 17.689453125  L 14.8515625 17.689453125  C 16.0703125 17.689453125  17.068359375 16.751953125  17.068359375 15.607421875  L 17.068359375 10.56640625  Z " fill-rule="evenodd" />
    </mask>
  </defs>
  <g transform="matrix(1 0 0 1 -287 -303 )">
    <path d="M 17.068359375 10.56640625  L 20 8.974609375  L 17.068359375 7.384765625  L 17.068359375 2.34375  C 17.068359375 1.19921875  16.0703125 0.26171875  14.8515625 0.26171875  L 2.216796875 0.26171875  C 0.998046875 0.26171875  0 1.19921875  0 2.34375  L 0 15.607421875  C 0 16.751953125  0.998046875 17.689453125  2.216796875 17.689453125  L 14.8515625 17.689453125  C 16.0703125 17.689453125  17.068359375 16.751953125  17.068359375 15.607421875  L 17.068359375 10.56640625  Z " fill-rule="nonzero" fill="rgba(51, 102, 255, 1)" stroke="none" transform="matrix(1 0 0 1 287 303 )" class="fill" />
    <path d="M 17.068359375 10.56640625  L 20 8.974609375  L 17.068359375 7.384765625  L 17.068359375 2.34375  C 17.068359375 1.19921875  16.0703125 0.26171875  14.8515625 0.26171875  L 2.216796875 0.26171875  C 0.998046875 0.26171875  0 1.19921875  0 2.34375  L 0 15.607421875  C 0 16.751953125  0.998046875 17.689453125  2.216796875 17.689453125  L 14.8515625 17.689453125  C 16.0703125 17.689453125  17.068359375 16.751953125  17.068359375 15.607421875  L 17.068359375 10.56640625  Z " stroke-width="0" stroke-dasharray="0" stroke="rgba(255, 255, 255, 0)" fill="none" transform="matrix(1 0 0 1 287 303 )" class="stroke" mask="url(#Clip9621)" />
  </g>
</svg>