<svg t="1742376672957" class="icon" viewBox="0 0 1024 1024" version="1.1" xmlns="http://www.w3.org/2000/svg" p-id="35206" width="200" height="200"><path d="M392.704 204.288c39.936 0 72.704-32.768 72.704-72.704s-32.768-72.704-72.704-72.704-72.704 32.768-72.704 72.704c0 39.936 32.768 72.704 72.704 72.704z" fill="#AEC9FF" p-id="35207"></path><path d="M737.28 308.736l-175.104 125.44c-31.744-34.304-48.64-79.872-47.104-126.976l142.848-254.976c7.68-13.312 3.584-29.696-8.704-38.4l-2.56-1.536c-12.8-9.216-30.72-6.144-40.448 6.144L445.952 235.52l-343.04 0.512c-16.384-1.024-30.208 11.264-31.232 27.648-1.024 16.384 11.264 30.208 27.648 31.232l232.448 30.208c1.536 80.384 24.064 158.72 66.56 227.328L220.16 679.936c25.6 10.752 180.224 67.072 351.744-55.808s167.424-287.744 165.376-315.392z" fill="#3366FF" p-id="35208"></path><path d="M923.136 512h-224.768c-28.16 45.568-65.024 84.992-108.032 116.736l337.408-54.784c14.336-2.56 24.576-14.848 24.576-29.184v-3.584c0-16.384-13.312-29.184-29.184-29.184z m-470.528 475.648c0 16.384 13.312 29.184 29.184 29.184h2.56c14.336 0 26.624-10.24 29.184-24.576l61.952-352.768c-37.888 26.624-79.872 47.104-124.416 60.928l1.536 287.232z" fill="#AEC9FF" p-id="35209"></path></svg>