<?xml version="1.0" encoding="utf-8"?>
<svg version="1.1" xmlns:xlink="http://www.w3.org/1999/xlink" width="24px" height="24px" xmlns="http://www.w3.org/2000/svg">
  <defs>
    <pattern id="BGPattern" patternUnits="userSpaceOnUse" alignment="0 0" imageRepeat="None" />
    <mask fill="white" id="Clip3037">
      <path d="M 22.5 23  L 1.5 23  C 1.0278100333408604 23.38515283223784  0.6738223463831612 22.983467486392417  0.6738223463831612 22.5075  C 0.6738223463831612 22.031532513607587  1.0278100333408577 21.62984716776216  1.5 21.57  L 22.5 21.57  C 22.972189966659144 21.62984716776216  23.32617765361684 22.031532513607587  23.32617765361684 22.5075  C 23.32617765361684 22.983467486392417  22.97218996665914 23.38515283223784  22.5 23  Z M 20.055000000000003 11.085  L 13 3.9449999999999976  L 13 18.435  C 12.885152832237841 18.90718996665914  12.483467486392417 19.261177653616837  12.007499999999999 19.261177653616837  C 11.531532513607587 19.261177653616837  11.129847167762163 18.90718996665914  11 18.435  L 11 3.9450000000000003  L 3.915000000000001 11.100000000000001  C 3.7399571167059014 11.2750428832941  3.5025480195514067 11.373380951166244  3.255000000000001 11.373380951166244  C 2.7395079348883247 11.373380951166244  2.3216190488337576 10.955492065111677  2.3216190488337576 10.44  C 2.3216190488337576 10.192451980448595  2.419957116705901 9.955042883294102  2.5949999999999998 9.78  L 11.235 1.1249999999999991  C 11.653451259173087 0.7211467077590887  12.31654874082691 0.7211467077590887  12.735 1.125  L 21.375000000000004 9.765  C 21.5500428832941 9.9400428832941  21.648380951166246 10.177451980448595  21.648380951166246 10.425  C 21.648380951166246 10.940492065111675  21.23049206511168 11.358380951166243  20.715000000000003 11.358380951166243  C 20.467451980448594 11.358380951166243  20.2300428832941 11.2600428832941  20.055000000000003 11.085  Z " fill-rule="evenodd" />
    </mask>
  </defs>
  <g transform="matrix(1 0 0 1 -1307 530 )">
    <path d="M 22.5 23  L 1.5 23  C 1.0278100333408604 23.38515283223784  0.6738223463831612 22.983467486392417  0.6738223463831612 22.5075  C 0.6738223463831612 22.031532513607587  1.0278100333408577 21.62984716776216  1.5 21.57  L 22.5 21.57  C 22.972189966659144 21.62984716776216  23.32617765361684 22.031532513607587  23.32617765361684 22.5075  C 23.32617765361684 22.983467486392417  22.97218996665914 23.38515283223784  22.5 23  Z M 20.055000000000003 11.085  L 13 3.9449999999999976  L 13 18.435  C 12.885152832237841 18.90718996665914  12.483467486392417 19.261177653616837  12.007499999999999 19.261177653616837  C 11.531532513607587 19.261177653616837  11.129847167762163 18.90718996665914  11 18.435  L 11 3.9450000000000003  L 3.915000000000001 11.100000000000001  C 3.7399571167059014 11.2750428832941  3.5025480195514067 11.373380951166244  3.255000000000001 11.373380951166244  C 2.7395079348883247 11.373380951166244  2.3216190488337576 10.955492065111677  2.3216190488337576 10.44  C 2.3216190488337576 10.192451980448595  2.419957116705901 9.955042883294102  2.5949999999999998 9.78  L 11.235 1.1249999999999991  C 11.653451259173087 0.7211467077590887  12.31654874082691 0.7211467077590887  12.735 1.125  L 21.375000000000004 9.765  C 21.5500428832941 9.9400428832941  21.648380951166246 10.177451980448595  21.648380951166246 10.425  C 21.648380951166246 10.940492065111675  21.23049206511168 11.358380951166243  20.715000000000003 11.358380951166243  C 20.467451980448594 11.358380951166243  20.2300428832941 11.2600428832941  20.055000000000003 11.085  Z " fill-rule="nonzero" fill="rgba(170, 170, 170, 1)" stroke="none" transform="matrix(1 0 0 1 1307 -530 )" class="fill" />
    <path d="M 22.5 23  L 1.5 23  C 1.0278100333408604 23.38515283223784  0.6738223463831612 22.983467486392417  0.6738223463831612 22.5075  C 0.6738223463831612 22.031532513607587  1.0278100333408577 21.62984716776216  1.5 21.57  L 22.5 21.57  C 22.972189966659144 21.62984716776216  23.32617765361684 22.031532513607587  23.32617765361684 22.5075  C 23.32617765361684 22.983467486392417  22.97218996665914 23.38515283223784  22.5 23  Z " stroke-width="0" stroke-dasharray="0" stroke="rgba(255, 255, 255, 0)" fill="none" transform="matrix(1 0 0 1 1307 -530 )" class="stroke" mask="url(#Clip3037)" />
    <path d="M 20.055000000000003 11.085  L 13 3.9449999999999976  L 13 18.435  C 12.885152832237841 18.90718996665914  12.483467486392417 19.261177653616837  12.007499999999999 19.261177653616837  C 11.531532513607587 19.261177653616837  11.129847167762163 18.90718996665914  11 18.435  L 11 3.9450000000000003  L 3.915000000000001 11.100000000000001  C 3.7399571167059014 11.2750428832941  3.5025480195514067 11.373380951166244  3.255000000000001 11.373380951166244  C 2.7395079348883247 11.373380951166244  2.3216190488337576 10.955492065111677  2.3216190488337576 10.44  C 2.3216190488337576 10.192451980448595  2.419957116705901 9.955042883294102  2.5949999999999998 9.78  L 11.235 1.1249999999999991  C 11.653451259173087 0.7211467077590887  12.31654874082691 0.7211467077590887  12.735 1.125  L 21.375000000000004 9.765  C 21.5500428832941 9.9400428832941  21.648380951166246 10.177451980448595  21.648380951166246 10.425  C 21.648380951166246 10.940492065111675  21.23049206511168 11.358380951166243  20.715000000000003 11.358380951166243  C 20.467451980448594 11.358380951166243  20.2300428832941 11.2600428832941  20.055000000000003 11.085  Z " stroke-width="0" stroke-dasharray="0" stroke="rgba(255, 255, 255, 0)" fill="none" transform="matrix(1 0 0 1 1307 -530 )" class="stroke" mask="url(#Clip3037)" />
  </g>
</svg>