<?xml version="1.0" encoding="utf-8"?>
<svg version="1.1" xmlns:xlink="http://www.w3.org/1999/xlink" width="13px" height="13px" xmlns="http://www.w3.org/2000/svg">
  <defs>
    <pattern id="BGPattern" patternUnits="userSpaceOnUse" alignment="0 0" imageRepeat="None" />
    <mask fill="white" id="Clip292">
      <path d="M 12.35498046875 11.892578124999996  C 12.1875 12.060058593749993  11.96875 12.142089843749993  11.75 12.14208984375  C 11.53125 12.14208984375  11.312500000000004 12.060058593750004  11.14501953125 11.892578125000004  L 0.744140625 1.48828125  C 0.40917968750000006 1.15673828125  0.40917968750000006 0.61328125  0.744140625 0.28173828125  C 1.0791015625000018 -0.05322265625  1.6191406250000018 -0.05322265625  1.9506835937500018 0.28173828125  L 12.35498046875 10.686035156249996  C 12.689941406249996 11.020996093749996  12.689941406249996 11.561035156249996  12.35498046875 11.892578124999996  Z " fill-rule="evenodd" />
    </mask>
  </defs>
  <g transform="matrix(1 0 0 1 -1840 591 )">
    <path d="M 12.35498046875 11.892578124999996  C 12.1875 12.060058593749993  11.96875 12.142089843749993  11.75 12.14208984375  C 11.53125 12.14208984375  11.312500000000004 12.060058593750004  11.14501953125 11.892578125000004  L 0.744140625 1.48828125  C 0.40917968750000006 1.15673828125  0.40917968750000006 0.61328125  0.744140625 0.28173828125  C 1.0791015625000018 -0.05322265625  1.6191406250000018 -0.05322265625  1.9506835937500018 0.28173828125  L 12.35498046875 10.686035156249996  C 12.689941406249996 11.020996093749996  12.689941406249996 11.561035156249996  12.35498046875 11.892578124999996  Z " fill-rule="nonzero" fill="rgba(255, 255, 255, 1)" stroke="none" transform="matrix(1 0 0 1 1840 -591 )" class="fill" />
    <path d="M 12.35498046875 11.892578124999996  C 12.1875 12.060058593749993  11.96875 12.142089843749993  11.75 12.14208984375  C 11.53125 12.14208984375  11.312500000000004 12.060058593750004  11.14501953125 11.892578125000004  L 0.744140625 1.48828125  C 0.40917968750000006 1.15673828125  0.40917968750000006 0.61328125  0.744140625 0.28173828125  C 1.0791015625000018 -0.05322265625  1.6191406250000018 -0.05322265625  1.9506835937500018 0.28173828125  L 12.35498046875 10.686035156249996  C 12.689941406249996 11.020996093749996  12.689941406249996 11.561035156249996  12.35498046875 11.892578124999996  Z " stroke-width="0" stroke-dasharray="0" stroke="rgba(255, 255, 255, 0)" fill="none" transform="matrix(1 0 0 1 1840 -591 )" class="stroke" mask="url(#Clip292)" />
  </g>
</svg>