<?xml version="1.0" encoding="utf-8"?>
<svg version="1.1" xmlns:xlink="http://www.w3.org/1999/xlink" width="13px" height="13px" xmlns="http://www.w3.org/2000/svg">
  <defs>
    <pattern id="BGPattern" patternUnits="userSpaceOnUse" alignment="0 0" imageRepeat="None" />
    <mask fill="white" id="Clip776">
      <path d="M 1.95068359375 11.892578125  C 1.783203125 12.06005859375  1.5644531249999982 12.142089843749996  1.345703125 12.14208984375  C 1.126953125 12.14208984375  0.9082031249999999 12.060058593750004  0.74072265625 11.892578125000004  C 0.40576171875 11.557617187500004  0.40576171875 11.017578125000004  0.74072265625 10.686035156250004  L 11.14501953125 0.28173828125000533  C 11.479980468749996 -0.05322265624999467  12.02001953125 -0.05322265624999467  12.351562499999996 0.28173828125000533  C 12.686523437499996 0.6132812500000053  12.686523437499996 1.156738281250007  12.351562499999996 1.4882812500000053  L 1.95068359375 11.892578125  Z " fill-rule="evenodd" />
    </mask>
  </defs>
  <g transform="matrix(1 0 0 1 -1840 591 )">
    <path d="M 1.95068359375 11.892578125  C 1.783203125 12.06005859375  1.5644531249999982 12.142089843749996  1.345703125 12.14208984375  C 1.126953125 12.14208984375  0.9082031249999999 12.060058593750004  0.74072265625 11.892578125000004  C 0.40576171875 11.557617187500004  0.40576171875 11.017578125000004  0.74072265625 10.686035156250004  L 11.14501953125 0.28173828125000533  C 11.479980468749996 -0.05322265624999467  12.02001953125 -0.05322265624999467  12.351562499999996 0.28173828125000533  C 12.686523437499996 0.6132812500000053  12.686523437499996 1.156738281250007  12.351562499999996 1.4882812500000053  L 1.95068359375 11.892578125  Z " fill-rule="nonzero" fill="rgba(255, 255, 255, 1)" stroke="none" transform="matrix(1 0 0 1 1840 -591 )" class="fill" />
    <path d="M 1.95068359375 11.892578125  C 1.783203125 12.06005859375  1.5644531249999982 12.142089843749996  1.345703125 12.14208984375  C 1.126953125 12.14208984375  0.9082031249999999 12.060058593750004  0.74072265625 11.892578125000004  C 0.40576171875 11.557617187500004  0.40576171875 11.017578125000004  0.74072265625 10.686035156250004  L 11.14501953125 0.28173828125000533  C 11.479980468749996 -0.05322265624999467  12.02001953125 -0.05322265624999467  12.351562499999996 0.28173828125000533  C 12.686523437499996 0.6132812500000053  12.686523437499996 1.156738281250007  12.351562499999996 1.4882812500000053  L 1.95068359375 11.892578125  Z " stroke-width="0" stroke-dasharray="0" stroke="rgba(255, 255, 255, 0)" fill="none" transform="matrix(1 0 0 1 1840 -591 )" class="stroke" mask="url(#Clip776)" />
  </g>
</svg>