<?xml version="1.0" encoding="utf-8"?>
<svg version="1.1" xmlns:xlink="http://www.w3.org/1999/xlink" width="52px" height="20px" xmlns="http://www.w3.org/2000/svg">
  <defs>
    <pattern id="BGPattern" patternUnits="userSpaceOnUse" alignment="0 0" imageRepeat="None" />
    <mask fill="white" id="Clip3587">
      <path d="M 1 19.431135259441206  L 1 0.5688904574762041  L 41.584253662879945 0.5688904574762041  C 46.79291873153597 0.5688904676503164  51.01537604544058 4.791347789802678  51.01537604544058 10.000012858458703  C 51.01537604544058 15.208677927114735  46.79291873153597 19.431135249267086  41.584253662879945 19.431135259441206  L 1 19.431135259441206  Z " fill-rule="evenodd" />
    </mask>
  </defs>
  <g transform="matrix(1 0 0 1 -2439 -267 )">
    <path d="M 1 19.431135259441206  L 1 0.5688904574762041  L 41.584253662879945 0.5688904574762041  C 46.79291873153597 0.5688904676503164  51.01537604544058 4.791347789802678  51.01537604544058 10.000012858458703  C 51.01537604544058 15.208677927114735  46.79291873153597 19.431135249267086  41.584253662879945 19.431135259441206  L 1 19.431135259441206  Z " fill-rule="nonzero" fill="rgba(227, 239, 255, 1)" stroke="none" transform="matrix(1 0 0 1 2439 267 )" class="fill" />
    <path d="M 1 19.431135259441206  L 1 0.5688904574762041  L 41.584253662879945 0.5688904574762041  C 46.79291873153597 0.5688904676503164  51.01537604544058 4.791347789802678  51.01537604544058 10.000012858458703  C 51.01537604544058 15.208677927114735  46.79291873153597 19.431135249267086  41.584253662879945 19.431135259441206  L 1 19.431135259441206  Z " stroke-width="0" stroke-dasharray="0" stroke="rgba(255, 255, 255, 0)" fill="none" transform="matrix(1 0 0 1 2439 267 )" class="stroke" mask="url(#Clip3587)" />
  </g>
</svg>