<?xml version="1.0" encoding="utf-8"?>
<svg version="1.1" xmlns:xlink="http://www.w3.org/1999/xlink" width="30px" height="10px" xmlns="http://www.w3.org/2000/svg">
  <defs>
    <pattern id="BGPattern" patternUnits="userSpaceOnUse" alignment="0 0" imageRepeat="None" />
    <mask fill="white" id="Clip5350">
      <path d="M 12.868273214614689 9.940206238870118  L 12.809971728584586 9.994220865827444  L 12.065770451335581 9.286886668713535  L 12.139504666871353 9.225155695425237  C 12.821965968967092 8.668799009989591  13.423620260755264 8.02010891574433  13.927131053116362 7.297777224439663  C 14.386687911833256 6.602026075681124  14.717193238900634 5.829201226507987  14.902823530856622 5.016302978200795  C 15.126903244919662 3.9837258245684772  15.231333427153494 2.9287795967637678  15.214050568007375 1.872309720601777  L 15.214050568007375 0.5416640957936778  L 16.14687430764507 0.566527952103165  L 16.14687430764507 2.067791175928768  L 16.136585827448577 2.272703739637702  C 16.202306886022548 3.6509200225125014  16.51840225366024 5.005655961005068  17.069409567086275 6.270642253607615  C 17.582304158561897 7.368677242674792  18.32391570921375 8.344435764179885  19.244569339883334 9.132559226281856  L 19.31315932453178 9.191718084126492  L 18.593821885170406 9.935061989560943  L 18.532090911882108 9.876760521952718  C 17.83951587989256 9.223000075584615  17.241070074146855 8.47624127397787  16.753895652440903 7.657874620816699  C 16.32400220578343 6.915814496378637  15.995831617123216 6.119323136262047  15.778203174700657 5.28980552655818  C 15.590783174663104 6.0724778921390055  15.289797284747891 6.823498342485724  14.884818667485433 7.518979907890696  C 14.330554438610584 8.417382324014511  13.651604122359899 9.232584570407084  12.868273214614689 9.940206238870118  Z M 6.805776278784151 9.715574049739018  C 6.210758194657654 9.74986903285231  5.463984765121271 9.767016542830817  4.589462511513659 9.767016542830824  C 3.7278008719680678 9.767016542830824  2.977597955173472 9.749869051274175  2.372291372428613 9.715574049739025  C 2.02761125758758 9.71128979409849  1.6860282253148604 9.649868593407653  1.361446521338653 9.533810617132332  C 1.1187446579945188 9.436266195668964  0.9247488618815822 9.246279851042509  0.8221577893767176 9.005667755603312  C 0.7021715951410066 8.678841890598363  0.6479755570048553 8.331521011802849  0.6626860976358557 7.9836770340804435  L 0.6626860976358557 3.0280509057414804  L 1.646952311943501 3.0657753945348496  L 1.646952311943501 4.4307160208781085  L 6.76719439975437 4.4307160208781085  L 6.76719439975437 2.1329516548971448  L 0.36774918022720016 2.1329516548971448  L 0.36774918022720016 1.1692624194043617  L 7.761749131102239 1.1692624194043617  L 7.761749131102239 5.394405256370895  L 1.650381817623579 5.394405256370895  L 1.6503818176235718 7.777907098556952  C 1.6397013326022787 7.987983063436658  1.6670028628355915 8.198262937516503  1.7309750445194894 8.398646429229345  C 1.7769975599799892 8.514070354268007  1.8708392396067808 8.603845561648654  1.98818747313479 8.64471298741173  C 2.202525292078363 8.709656091254772  2.4245076293011927 8.745980472921062  2.648366036229657 8.75274220448265  C 3.3822788332821574 8.787037187595942  4.066463899293826 8.804184697574456  4.679486865213384 8.804184679152591  C 5.244496825299354 8.804184679152591  5.879811532084734 8.787037187595942  6.557994958550811 8.75274220448265  C 6.776364389967068 8.745757499788681  6.993494908659194 8.717036531740355  7.206170279398215 8.667004728277554  C 7.320244049557434 8.635370360526665  7.416705997941605 8.559004648621283  7.473671206631867 8.455233153208468  C 7.560492736738277 8.279622592255087  7.618395892736559 8.091147820475967  7.64514615904206 7.897082186060786  C 7.690000196995917 7.576732981913594  7.717191505769724 7.254158179941868  7.726596757752528 6.930820835124344  L 7.731741007061707 6.815075234878719  L 8.713435124347555 7.163169389008289  L 8.713435124347559 7.226615124347553  C 8.704094905471319 7.417242697345543  8.684921359545516 7.607261104101923  8.65599101013202 7.795911961928148  C 8.625125514276935 8.002539287688052  8.606263279091184 8.138861866748535  8.600261657967451 8.208309223211536  C 8.569444096977367 8.52464667062597  8.48416539413775 8.833274333944196  8.348193460239479 9.120555965612525  C 8.23472682191457 9.32804363800534  8.047450404624058 9.485331358029285  7.8234801228123985 9.561246607307332  C 7.493321176965484 9.660870772606017  7.150627575262934 9.712837783833095  6.805776278784151 9.715574049739018  Z M 11.55391770954867 9.38205527172245  L 11.488757230580283 9.446358378876269  L 10.881735885784465 8.751027442431685  L 10.938322628185446 8.694440718452562  C 11.027563504692267 8.612763198479271  11.09981864812493 8.514286433644784  11.15095157506908 8.404648050353089  C 11.189120175569947 8.288880526232262  11.206252196066899 8.1672141241351  11.201536677924473 8.045408025790607  L 11.201536677924473 4.78738391157507  L 9.771435572612837 4.78738391157507  L 9.771435572612837 3.8442716733190068  L 12.151507927540685 3.8442716733190068  L 12.151507927540685 7.592714141848326  L 13.246375492784772 6.508135075222597  L 13.563604151059259 7.4846849247774045  L 12.97801719373657 8.025688400368438  L 12.04176394841879 8.903640159656128  C 12.015185330058337 8.925931900521952  11.908870856616524 9.02710212465459  11.55391770954867 9.38205527172245  Z M 21.418014369051278 9.364907780165794  L 21.354568633712006 9.430925630948721  L 20.789558655204175 8.724448824071231  L 20.850432275099784 8.670434215535764  C 21.011003707058464 8.536348376222563  21.102385536253458 8.336883896757143  21.099070948725817 8.12771599631563  L 21.099070948725817 4.6639219465766  L 19.771854811175928 4.6639219465766  L 19.771854811175928 3.7139507153822535  L 22.0113176911268 3.7139507153822535  L 22.0113176911268 7.692169622351855  L 22.868692453177772 6.920532336505989  L 23.251938980657044 7.7899103408044255  L 23.19878174393613 7.8310643352778655  C 23.01530354927847 7.974245925698497  22.788956598096405 8.155152004912495  22.526599920171932 8.369495677003378  C 22.264243242247467 8.583839349094255  22.04218318698188 8.771604439668408  21.86556398526251 8.92764664415106  C 21.688944783543143 9.083688848633713  21.53290257906049 9.24316055879644  21.418014369051278 9.364907780165794  Z M 29.223554209395154 8.515249382867673  L 29.223554209395147 9.430925630948721  L 22.467441062327296 9.430925630948721  L 22.467441062327296 8.515249382867665  L 23.609464261590425 8.515249382867665  L 23.609464261590425 3.438733423395764  L 24.57315349708321 3.4884611544365995  L 24.57315349708321 8.515249382867665  L 25.708317666564334 8.515249382867665  L 25.708317666564334 2.1329516548971448  L 23.136193380411427 2.1329516548971448  L 23.136193380411427 1.1692624194043617  L 28.966341780779864 1.1692624194043617  L 28.966341780779864 2.1329516548971448  L 26.68229540067548 2.1329516548971448  L 26.68229540067548 4.619338464844951  L 28.750283328216156 4.619338464844951  L 28.750283328216156 5.5830277003377375  L 26.68229540067548 5.5830277003377375  L 26.68229540067548 8.515249382867673  L 29.223554209395154 8.515249382867673  Z M 12.84598147374885 2.6816714952410194  L 12.161796407737185 3.4190137979735944  L 12.104352311943508 3.3169862020264027  C 11.886021850643424 2.9512077526030964  11.637671713168317 2.6042058297407706  11.361865759901754 2.2795627325759895  C 11.09122951907343 1.9398531994384243  10.80244532499551 1.615006757786702  10.496774633097942 1.3064423887012602  L 10.431614135707711 1.2429966533619918  L 11.080646846791531 0.6428343199263118  L 11.138948314399762 0.6959915566472219  C 11.452801376430259 0.9924066346840377  11.750456038424609 1.305516438462348  12.030618077985878 1.6339595455941058  C 12.312116318848474 1.9469691230515807  12.572475926492054 2.2783619376888744  12.809971728584593 2.6259421430764505  L 12.84598147374885 2.6816714952410194  Z M 22.51802618360454 2.5264866625729177  L 21.803833011974213 3.190094731347866  L 21.74810364138778 3.1043572551427694  C 21.537412399546646 2.790527890199712  21.31725167174853 2.48316063863631  21.087925078292905 2.1826793859379805  C 20.870809769253825 1.8857847602291855  20.63452846242817 1.6033927968976194  20.38059089960086 1.3373078661344806  L 20.30942879950875 1.2661457660423707  L 21.06992021492171 0.7208554129567091  L 21.12136268959165 0.7757273933067239  C 21.321131003991404 0.9892137120049114  21.561195941050045 1.2687178814860296  21.835555861221984 1.6082382990482031  C 22.109915781393923 1.9477587166103767  22.326831605772178 2.235836622658887  22.477729560945654 2.4656130610991696  L 22.51802618360454 2.5264866625729177  Z " fill-rule="evenodd" />
    </mask>
  </defs>
  <g transform="matrix(1 0 0 1 -2453 -272 )">
    <path d="M 12.868273214614689 9.940206238870118  L 12.809971728584586 9.994220865827444  L 12.065770451335581 9.286886668713535  L 12.139504666871353 9.225155695425237  C 12.821965968967092 8.668799009989591  13.423620260755264 8.02010891574433  13.927131053116362 7.297777224439663  C 14.386687911833256 6.602026075681124  14.717193238900634 5.829201226507987  14.902823530856622 5.016302978200795  C 15.126903244919662 3.9837258245684772  15.231333427153494 2.9287795967637678  15.214050568007375 1.872309720601777  L 15.214050568007375 0.5416640957936778  L 16.14687430764507 0.566527952103165  L 16.14687430764507 2.067791175928768  L 16.136585827448577 2.272703739637702  C 16.202306886022548 3.6509200225125014  16.51840225366024 5.005655961005068  17.069409567086275 6.270642253607615  C 17.582304158561897 7.368677242674792  18.32391570921375 8.344435764179885  19.244569339883334 9.132559226281856  L 19.31315932453178 9.191718084126492  L 18.593821885170406 9.935061989560943  L 18.532090911882108 9.876760521952718  C 17.83951587989256 9.223000075584615  17.241070074146855 8.47624127397787  16.753895652440903 7.657874620816699  C 16.32400220578343 6.915814496378637  15.995831617123216 6.119323136262047  15.778203174700657 5.28980552655818  C 15.590783174663104 6.0724778921390055  15.289797284747891 6.823498342485724  14.884818667485433 7.518979907890696  C 14.330554438610584 8.417382324014511  13.651604122359899 9.232584570407084  12.868273214614689 9.940206238870118  Z M 6.805776278784151 9.715574049739018  C 6.210758194657654 9.74986903285231  5.463984765121271 9.767016542830817  4.589462511513659 9.767016542830824  C 3.7278008719680678 9.767016542830824  2.977597955173472 9.749869051274175  2.372291372428613 9.715574049739025  C 2.02761125758758 9.71128979409849  1.6860282253148604 9.649868593407653  1.361446521338653 9.533810617132332  C 1.1187446579945188 9.436266195668964  0.9247488618815822 9.246279851042509  0.8221577893767176 9.005667755603312  C 0.7021715951410066 8.678841890598363  0.6479755570048553 8.331521011802849  0.6626860976358557 7.9836770340804435  L 0.6626860976358557 3.0280509057414804  L 1.646952311943501 3.0657753945348496  L 1.646952311943501 4.4307160208781085  L 6.76719439975437 4.4307160208781085  L 6.76719439975437 2.1329516548971448  L 0.36774918022720016 2.1329516548971448  L 0.36774918022720016 1.1692624194043617  L 7.761749131102239 1.1692624194043617  L 7.761749131102239 5.394405256370895  L 1.650381817623579 5.394405256370895  L 1.6503818176235718 7.777907098556952  C 1.6397013326022787 7.987983063436658  1.6670028628355915 8.198262937516503  1.7309750445194894 8.398646429229345  C 1.7769975599799892 8.514070354268007  1.8708392396067808 8.603845561648654  1.98818747313479 8.64471298741173  C 2.202525292078363 8.709656091254772  2.4245076293011927 8.745980472921062  2.648366036229657 8.75274220448265  C 3.3822788332821574 8.787037187595942  4.066463899293826 8.804184697574456  4.679486865213384 8.804184679152591  C 5.244496825299354 8.804184679152591  5.879811532084734 8.787037187595942  6.557994958550811 8.75274220448265  C 6.776364389967068 8.745757499788681  6.993494908659194 8.717036531740355  7.206170279398215 8.667004728277554  C 7.320244049557434 8.635370360526665  7.416705997941605 8.559004648621283  7.473671206631867 8.455233153208468  C 7.560492736738277 8.279622592255087  7.618395892736559 8.091147820475967  7.64514615904206 7.897082186060786  C 7.690000196995917 7.576732981913594  7.717191505769724 7.254158179941868  7.726596757752528 6.930820835124344  L 7.731741007061707 6.815075234878719  L 8.713435124347555 7.163169389008289  L 8.713435124347559 7.226615124347553  C 8.704094905471319 7.417242697345543  8.684921359545516 7.607261104101923  8.65599101013202 7.795911961928148  C 8.625125514276935 8.002539287688052  8.606263279091184 8.138861866748535  8.600261657967451 8.208309223211536  C 8.569444096977367 8.52464667062597  8.48416539413775 8.833274333944196  8.348193460239479 9.120555965612525  C 8.23472682191457 9.32804363800534  8.047450404624058 9.485331358029285  7.8234801228123985 9.561246607307332  C 7.493321176965484 9.660870772606017  7.150627575262934 9.712837783833095  6.805776278784151 9.715574049739018  Z M 11.55391770954867 9.38205527172245  L 11.488757230580283 9.446358378876269  L 10.881735885784465 8.751027442431685  L 10.938322628185446 8.694440718452562  C 11.027563504692267 8.612763198479271  11.09981864812493 8.514286433644784  11.15095157506908 8.404648050353089  C 11.189120175569947 8.288880526232262  11.206252196066899 8.1672141241351  11.201536677924473 8.045408025790607  L 11.201536677924473 4.78738391157507  L 9.771435572612837 4.78738391157507  L 9.771435572612837 3.8442716733190068  L 12.151507927540685 3.8442716733190068  L 12.151507927540685 7.592714141848326  L 13.246375492784772 6.508135075222597  L 13.563604151059259 7.4846849247774045  L 12.97801719373657 8.025688400368438  L 12.04176394841879 8.903640159656128  C 12.015185330058337 8.925931900521952  11.908870856616524 9.02710212465459  11.55391770954867 9.38205527172245  Z M 21.418014369051278 9.364907780165794  L 21.354568633712006 9.430925630948721  L 20.789558655204175 8.724448824071231  L 20.850432275099784 8.670434215535764  C 21.011003707058464 8.536348376222563  21.102385536253458 8.336883896757143  21.099070948725817 8.12771599631563  L 21.099070948725817 4.6639219465766  L 19.771854811175928 4.6639219465766  L 19.771854811175928 3.7139507153822535  L 22.0113176911268 3.7139507153822535  L 22.0113176911268 7.692169622351855  L 22.868692453177772 6.920532336505989  L 23.251938980657044 7.7899103408044255  L 23.19878174393613 7.8310643352778655  C 23.01530354927847 7.974245925698497  22.788956598096405 8.155152004912495  22.526599920171932 8.369495677003378  C 22.264243242247467 8.583839349094255  22.04218318698188 8.771604439668408  21.86556398526251 8.92764664415106  C 21.688944783543143 9.083688848633713  21.53290257906049 9.24316055879644  21.418014369051278 9.364907780165794  Z M 29.223554209395154 8.515249382867673  L 29.223554209395147 9.430925630948721  L 22.467441062327296 9.430925630948721  L 22.467441062327296 8.515249382867665  L 23.609464261590425 8.515249382867665  L 23.609464261590425 3.438733423395764  L 24.57315349708321 3.4884611544365995  L 24.57315349708321 8.515249382867665  L 25.708317666564334 8.515249382867665  L 25.708317666564334 2.1329516548971448  L 23.136193380411427 2.1329516548971448  L 23.136193380411427 1.1692624194043617  L 28.966341780779864 1.1692624194043617  L 28.966341780779864 2.1329516548971448  L 26.68229540067548 2.1329516548971448  L 26.68229540067548 4.619338464844951  L 28.750283328216156 4.619338464844951  L 28.750283328216156 5.5830277003377375  L 26.68229540067548 5.5830277003377375  L 26.68229540067548 8.515249382867673  L 29.223554209395154 8.515249382867673  Z M 12.84598147374885 2.6816714952410194  L 12.161796407737185 3.4190137979735944  L 12.104352311943508 3.3169862020264027  C 11.886021850643424 2.9512077526030964  11.637671713168317 2.6042058297407706  11.361865759901754 2.2795627325759895  C 11.09122951907343 1.9398531994384243  10.80244532499551 1.615006757786702  10.496774633097942 1.3064423887012602  L 10.431614135707711 1.2429966533619918  L 11.080646846791531 0.6428343199263118  L 11.138948314399762 0.6959915566472219  C 11.452801376430259 0.9924066346840377  11.750456038424609 1.305516438462348  12.030618077985878 1.6339595455941058  C 12.312116318848474 1.9469691230515807  12.572475926492054 2.2783619376888744  12.809971728584593 2.6259421430764505  L 12.84598147374885 2.6816714952410194  Z M 22.51802618360454 2.5264866625729177  L 21.803833011974213 3.190094731347866  L 21.74810364138778 3.1043572551427694  C 21.537412399546646 2.790527890199712  21.31725167174853 2.48316063863631  21.087925078292905 2.1826793859379805  C 20.870809769253825 1.8857847602291855  20.63452846242817 1.6033927968976194  20.38059089960086 1.3373078661344806  L 20.30942879950875 1.2661457660423707  L 21.06992021492171 0.7208554129567091  L 21.12136268959165 0.7757273933067239  C 21.321131003991404 0.9892137120049114  21.561195941050045 1.2687178814860296  21.835555861221984 1.6082382990482031  C 22.109915781393923 1.9477587166103767  22.326831605772178 2.235836622658887  22.477729560945654 2.4656130610991696  L 22.51802618360454 2.5264866625729177  Z " fill-rule="nonzero" fill="rgba(3, 102, 232, 1)" stroke="none" transform="matrix(1 0 0 1 2453 272 )" class="fill" />
    <path d="M 12.868273214614689 9.940206238870118  L 12.809971728584586 9.994220865827444  L 12.065770451335581 9.286886668713535  L 12.139504666871353 9.225155695425237  C 12.821965968967092 8.668799009989591  13.423620260755264 8.02010891574433  13.927131053116362 7.297777224439663  C 14.386687911833256 6.602026075681124  14.717193238900634 5.829201226507987  14.902823530856622 5.016302978200795  C 15.126903244919662 3.9837258245684772  15.231333427153494 2.9287795967637678  15.214050568007375 1.872309720601777  L 15.214050568007375 0.5416640957936778  L 16.14687430764507 0.566527952103165  L 16.14687430764507 2.067791175928768  L 16.136585827448577 2.272703739637702  C 16.202306886022548 3.6509200225125014  16.51840225366024 5.005655961005068  17.069409567086275 6.270642253607615  C 17.582304158561897 7.368677242674792  18.32391570921375 8.344435764179885  19.244569339883334 9.132559226281856  L 19.31315932453178 9.191718084126492  L 18.593821885170406 9.935061989560943  L 18.532090911882108 9.876760521952718  C 17.83951587989256 9.223000075584615  17.241070074146855 8.47624127397787  16.753895652440903 7.657874620816699  C 16.32400220578343 6.915814496378637  15.995831617123216 6.119323136262047  15.778203174700657 5.28980552655818  C 15.590783174663104 6.0724778921390055  15.289797284747891 6.823498342485724  14.884818667485433 7.518979907890696  C 14.330554438610584 8.417382324014511  13.651604122359899 9.232584570407084  12.868273214614689 9.940206238870118  Z " stroke-width="0" stroke-dasharray="0" stroke="rgba(255, 255, 255, 0)" fill="none" transform="matrix(1 0 0 1 2453 272 )" class="stroke" mask="url(#Clip5350)" />
    <path d="M 6.805776278784151 9.715574049739018  C 6.210758194657654 9.74986903285231  5.463984765121271 9.767016542830817  4.589462511513659 9.767016542830824  C 3.7278008719680678 9.767016542830824  2.977597955173472 9.749869051274175  2.372291372428613 9.715574049739025  C 2.02761125758758 9.71128979409849  1.6860282253148604 9.649868593407653  1.361446521338653 9.533810617132332  C 1.1187446579945188 9.436266195668964  0.9247488618815822 9.246279851042509  0.8221577893767176 9.005667755603312  C 0.7021715951410066 8.678841890598363  0.6479755570048553 8.331521011802849  0.6626860976358557 7.9836770340804435  L 0.6626860976358557 3.0280509057414804  L 1.646952311943501 3.0657753945348496  L 1.646952311943501 4.4307160208781085  L 6.76719439975437 4.4307160208781085  L 6.76719439975437 2.1329516548971448  L 0.36774918022720016 2.1329516548971448  L 0.36774918022720016 1.1692624194043617  L 7.761749131102239 1.1692624194043617  L 7.761749131102239 5.394405256370895  L 1.650381817623579 5.394405256370895  L 1.6503818176235718 7.777907098556952  C 1.6397013326022787 7.987983063436658  1.6670028628355915 8.198262937516503  1.7309750445194894 8.398646429229345  C 1.7769975599799892 8.514070354268007  1.8708392396067808 8.603845561648654  1.98818747313479 8.64471298741173  C 2.202525292078363 8.709656091254772  2.4245076293011927 8.745980472921062  2.648366036229657 8.75274220448265  C 3.3822788332821574 8.787037187595942  4.066463899293826 8.804184697574456  4.679486865213384 8.804184679152591  C 5.244496825299354 8.804184679152591  5.879811532084734 8.787037187595942  6.557994958550811 8.75274220448265  C 6.776364389967068 8.745757499788681  6.993494908659194 8.717036531740355  7.206170279398215 8.667004728277554  C 7.320244049557434 8.635370360526665  7.416705997941605 8.559004648621283  7.473671206631867 8.455233153208468  C 7.560492736738277 8.279622592255087  7.618395892736559 8.091147820475967  7.64514615904206 7.897082186060786  C 7.690000196995917 7.576732981913594  7.717191505769724 7.254158179941868  7.726596757752528 6.930820835124344  L 7.731741007061707 6.815075234878719  L 8.713435124347555 7.163169389008289  L 8.713435124347559 7.226615124347553  C 8.704094905471319 7.417242697345543  8.684921359545516 7.607261104101923  8.65599101013202 7.795911961928148  C 8.625125514276935 8.002539287688052  8.606263279091184 8.138861866748535  8.600261657967451 8.208309223211536  C 8.569444096977367 8.52464667062597  8.48416539413775 8.833274333944196  8.348193460239479 9.120555965612525  C 8.23472682191457 9.32804363800534  8.047450404624058 9.485331358029285  7.8234801228123985 9.561246607307332  C 7.493321176965484 9.660870772606017  7.150627575262934 9.712837783833095  6.805776278784151 9.715574049739018  Z " stroke-width="0" stroke-dasharray="0" stroke="rgba(255, 255, 255, 0)" fill="none" transform="matrix(1 0 0 1 2453 272 )" class="stroke" mask="url(#Clip5350)" />
    <path d="M 11.55391770954867 9.38205527172245  L 11.488757230580283 9.446358378876269  L 10.881735885784465 8.751027442431685  L 10.938322628185446 8.694440718452562  C 11.027563504692267 8.612763198479271  11.09981864812493 8.514286433644784  11.15095157506908 8.404648050353089  C 11.189120175569947 8.288880526232262  11.206252196066899 8.1672141241351  11.201536677924473 8.045408025790607  L 11.201536677924473 4.78738391157507  L 9.771435572612837 4.78738391157507  L 9.771435572612837 3.8442716733190068  L 12.151507927540685 3.8442716733190068  L 12.151507927540685 7.592714141848326  L 13.246375492784772 6.508135075222597  L 13.563604151059259 7.4846849247774045  L 12.97801719373657 8.025688400368438  L 12.04176394841879 8.903640159656128  C 12.015185330058337 8.925931900521952  11.908870856616524 9.02710212465459  11.55391770954867 9.38205527172245  Z " stroke-width="0" stroke-dasharray="0" stroke="rgba(255, 255, 255, 0)" fill="none" transform="matrix(1 0 0 1 2453 272 )" class="stroke" mask="url(#Clip5350)" />
    <path d="M 21.418014369051278 9.364907780165794  L 21.354568633712006 9.430925630948721  L 20.789558655204175 8.724448824071231  L 20.850432275099784 8.670434215535764  C 21.011003707058464 8.536348376222563  21.102385536253458 8.336883896757143  21.099070948725817 8.12771599631563  L 21.099070948725817 4.6639219465766  L 19.771854811175928 4.6639219465766  L 19.771854811175928 3.7139507153822535  L 22.0113176911268 3.7139507153822535  L 22.0113176911268 7.692169622351855  L 22.868692453177772 6.920532336505989  L 23.251938980657044 7.7899103408044255  L 23.19878174393613 7.8310643352778655  C 23.01530354927847 7.974245925698497  22.788956598096405 8.155152004912495  22.526599920171932 8.369495677003378  C 22.264243242247467 8.583839349094255  22.04218318698188 8.771604439668408  21.86556398526251 8.92764664415106  C 21.688944783543143 9.083688848633713  21.53290257906049 9.24316055879644  21.418014369051278 9.364907780165794  Z " stroke-width="0" stroke-dasharray="0" stroke="rgba(255, 255, 255, 0)" fill="none" transform="matrix(1 0 0 1 2453 272 )" class="stroke" mask="url(#Clip5350)" />
    <path d="M 29.223554209395154 8.515249382867673  L 29.223554209395147 9.430925630948721  L 22.467441062327296 9.430925630948721  L 22.467441062327296 8.515249382867665  L 23.609464261590425 8.515249382867665  L 23.609464261590425 3.438733423395764  L 24.57315349708321 3.4884611544365995  L 24.57315349708321 8.515249382867665  L 25.708317666564334 8.515249382867665  L 25.708317666564334 2.1329516548971448  L 23.136193380411427 2.1329516548971448  L 23.136193380411427 1.1692624194043617  L 28.966341780779864 1.1692624194043617  L 28.966341780779864 2.1329516548971448  L 26.68229540067548 2.1329516548971448  L 26.68229540067548 4.619338464844951  L 28.750283328216156 4.619338464844951  L 28.750283328216156 5.5830277003377375  L 26.68229540067548 5.5830277003377375  L 26.68229540067548 8.515249382867673  L 29.223554209395154 8.515249382867673  Z " stroke-width="0" stroke-dasharray="0" stroke="rgba(255, 255, 255, 0)" fill="none" transform="matrix(1 0 0 1 2453 272 )" class="stroke" mask="url(#Clip5350)" />
    <path d="M 12.84598147374885 2.6816714952410194  L 12.161796407737185 3.4190137979735944  L 12.104352311943508 3.3169862020264027  C 11.886021850643424 2.9512077526030964  11.637671713168317 2.6042058297407706  11.361865759901754 2.2795627325759895  C 11.09122951907343 1.9398531994384243  10.80244532499551 1.615006757786702  10.496774633097942 1.3064423887012602  L 10.431614135707711 1.2429966533619918  L 11.080646846791531 0.6428343199263118  L 11.138948314399762 0.6959915566472219  C 11.452801376430259 0.9924066346840377  11.750456038424609 1.305516438462348  12.030618077985878 1.6339595455941058  C 12.312116318848474 1.9469691230515807  12.572475926492054 2.2783619376888744  12.809971728584593 2.6259421430764505  L 12.84598147374885 2.6816714952410194  Z " stroke-width="0" stroke-dasharray="0" stroke="rgba(255, 255, 255, 0)" fill="none" transform="matrix(1 0 0 1 2453 272 )" class="stroke" mask="url(#Clip5350)" />
    <path d="M 22.51802618360454 2.5264866625729177  L 21.803833011974213 3.190094731347866  L 21.74810364138778 3.1043572551427694  C 21.537412399546646 2.790527890199712  21.31725167174853 2.48316063863631  21.087925078292905 2.1826793859379805  C 20.870809769253825 1.8857847602291855  20.63452846242817 1.6033927968976194  20.38059089960086 1.3373078661344806  L 20.30942879950875 1.2661457660423707  L 21.06992021492171 0.7208554129567091  L 21.12136268959165 0.7757273933067239  C 21.321131003991404 0.9892137120049114  21.561195941050045 1.2687178814860296  21.835555861221984 1.6082382990482031  C 22.109915781393923 1.9477587166103767  22.326831605772178 2.235836622658887  22.477729560945654 2.4656130610991696  L 22.51802618360454 2.5264866625729177  Z " stroke-width="0" stroke-dasharray="0" stroke="rgba(255, 255, 255, 0)" fill="none" transform="matrix(1 0 0 1 2453 272 )" class="stroke" mask="url(#Clip5350)" />
  </g>
</svg>