<?xml version="1.0" encoding="utf-8"?>
<svg version="1.1" xmlns:xlink="http://www.w3.org/1999/xlink" width="10px" height="11px" xmlns="http://www.w3.org/2000/svg">
  <defs>
    <pattern id="BGPattern" patternUnits="userSpaceOnUse" alignment="0 0" imageRepeat="None" />
    <mask fill="white" id="Clip13495">
      <path d="M 9.94381694241703 5.517095204332521  C 9.94381694241703 5.30915479311074  9.828590395392562 5.117001066044581  9.641521609933037 5.012982425537114  L 0.958210281808036 0.1877248962402298  C 0.8662527432760856 0.13659003175709916  0.761924739615839 0.10966818050352778  0.6557236047818892 0.10966818050352778  C 0.32177311202296977 0.10966818050352778  0.0510527481970678 0.3702365306859523  0.0510527481970678 0.6916638799664208  L 0.051052804129464925 10.342332249755863  C 0.05105271188258399 10.664027469996189  0.32172794815990224 10.924552384913104  0.655622773266513 10.924552384913104  C 0.7618654483630749 10.924552384913104  0.8662321358695297 10.897604993969237  0.958210281808036 10.84642454467773  L 9.641420814732141 6.021264017333982  C 9.828546405480171 5.917260012465551  9.94381694241703 5.7250756408387655  9.94381694241703 5.517095204332521  Z " fill-rule="evenodd" />
    </mask>
  </defs>
  <g transform="matrix(1 0 0 1 -1695 517 )">
    <path d="M 9.94381694241703 5.517095204332521  C 9.94381694241703 5.30915479311074  9.828590395392562 5.117001066044581  9.641521609933037 5.012982425537114  L 0.958210281808036 0.1877248962402298  C 0.8662527432760856 0.13659003175709916  0.761924739615839 0.10966818050352778  0.6557236047818892 0.10966818050352778  C 0.32177311202296977 0.10966818050352778  0.0510527481970678 0.3702365306859523  0.0510527481970678 0.6916638799664208  L 0.051052804129464925 10.342332249755863  C 0.05105271188258399 10.664027469996189  0.32172794815990224 10.924552384913104  0.655622773266513 10.924552384913104  C 0.7618654483630749 10.924552384913104  0.8662321358695297 10.897604993969237  0.958210281808036 10.84642454467773  L 9.641420814732141 6.021264017333982  C 9.828546405480171 5.917260012465551  9.94381694241703 5.7250756408387655  9.94381694241703 5.517095204332521  Z " fill-rule="nonzero" fill="rgba(255, 255, 255, 1)" stroke="none" transform="matrix(1 0 0 1 1695 -517 )" class="fill" />
    <path d="M 9.94381694241703 5.517095204332521  C 9.94381694241703 5.30915479311074  9.828590395392562 5.117001066044581  9.641521609933037 5.012982425537114  L 0.958210281808036 0.1877248962402298  C 0.8662527432760856 0.13659003175709916  0.761924739615839 0.10966818050352778  0.6557236047818892 0.10966818050352778  C 0.32177311202296977 0.10966818050352778  0.0510527481970678 0.3702365306859523  0.0510527481970678 0.6916638799664208  L 0.051052804129464925 10.342332249755863  C 0.05105271188258399 10.664027469996189  0.32172794815990224 10.924552384913104  0.655622773266513 10.924552384913104  C 0.7618654483630749 10.924552384913104  0.8662321358695297 10.897604993969237  0.958210281808036 10.84642454467773  L 9.641420814732141 6.021264017333982  C 9.828546405480171 5.917260012465551  9.94381694241703 5.7250756408387655  9.94381694241703 5.517095204332521  Z " stroke-width="0" stroke-dasharray="0" stroke="rgba(255, 255, 255, 0)" fill="none" transform="matrix(1 0 0 1 1695 -517 )" class="stroke" mask="url(#Clip13495)" />
  </g>
</svg>