<?xml version="1.0" encoding="utf-8"?>
<svg version="1.1" xmlns:xlink="http://www.w3.org/1999/xlink" width="11px" height="11px" xmlns="http://www.w3.org/2000/svg">
  <defs>
    <pattern id="BGPattern" patternUnits="userSpaceOnUse" alignment="0 0" imageRepeat="None" />
    <mask fill="white" id="Clip19868">
      <path d="M 5.197265624999998 0.81640625  C 5.27734375 0.654296875  5.505859374999998 0.654296875  5.583984375000001 0.814453125  L 7.021484375 3.7285156249999996  C 7.052734375 3.7929687499999996  7.113281250000002 3.8359374999999996  7.18359375 3.845703125  L 10.400390624999998 4.3125  C 10.576171874999998 4.337890625  10.646484374999998 4.554687499999998  10.519531249999998 4.6796875  L 8.193359375 6.94921875  C 8.142578125 6.998046875  8.119140625000002 7.070312500000002  8.130859375 7.140625  L 8.6796875 10.34375  C 8.708984375 10.51953125  8.525390625 10.654296875  8.3671875 10.5703125  L 5.490234375 9.05859375  C 5.427734375 9.025390625  5.353515625 9.025390625  5.2890625 9.05859375  L 2.4140625 10.5703125  C 2.255859374999999 10.65234375  2.072265625 10.51953125  2.1015625 10.34375  L 2.650390625 7.140625  C 2.662109375000001 7.070312499999999  2.638671875 6.999999999999998  2.587890625 6.94921875  L 0.26171875 4.681640625  C 0.134765625 4.556640625  0.205078125 4.33984375  0.380859375 4.314453125  L 3.597656249999999 3.84765625  C 3.66796875 3.837890625  3.728515624999999 3.7929687499999996  3.7597656249999996 3.73046875  L 5.197265624999998 0.81640625  Z " fill-rule="evenodd" />
    </mask>
  </defs>
  <g transform="matrix(1 0 0 1 -290 -306 )">
    <path d="M 5.197265624999998 0.81640625  C 5.27734375 0.654296875  5.505859374999998 0.654296875  5.583984375000001 0.814453125  L 7.021484375 3.7285156249999996  C 7.052734375 3.7929687499999996  7.113281250000002 3.8359374999999996  7.18359375 3.845703125  L 10.400390624999998 4.3125  C 10.576171874999998 4.337890625  10.646484374999998 4.554687499999998  10.519531249999998 4.6796875  L 8.193359375 6.94921875  C 8.142578125 6.998046875  8.119140625000002 7.070312500000002  8.130859375 7.140625  L 8.6796875 10.34375  C 8.708984375 10.51953125  8.525390625 10.654296875  8.3671875 10.5703125  L 5.490234375 9.05859375  C 5.427734375 9.025390625  5.353515625 9.025390625  5.2890625 9.05859375  L 2.4140625 10.5703125  C 2.255859374999999 10.65234375  2.072265625 10.51953125  2.1015625 10.34375  L 2.650390625 7.140625  C 2.662109375000001 7.070312499999999  2.638671875 6.999999999999998  2.587890625 6.94921875  L 0.26171875 4.681640625  C 0.134765625 4.556640625  0.205078125 4.33984375  0.380859375 4.314453125  L 3.597656249999999 3.84765625  C 3.66796875 3.837890625  3.728515624999999 3.7929687499999996  3.7597656249999996 3.73046875  L 5.197265624999998 0.81640625  Z " fill-rule="nonzero" fill="rgba(255, 255, 255, 1)" stroke="none" transform="matrix(1 0 0 1 290 306 )" class="fill" />
    <path d="M 5.197265624999998 0.81640625  C 5.27734375 0.654296875  5.505859374999998 0.654296875  5.583984375000001 0.814453125  L 7.021484375 3.7285156249999996  C 7.052734375 3.7929687499999996  7.113281250000002 3.8359374999999996  7.18359375 3.845703125  L 10.400390624999998 4.3125  C 10.576171874999998 4.337890625  10.646484374999998 4.554687499999998  10.519531249999998 4.6796875  L 8.193359375 6.94921875  C 8.142578125 6.998046875  8.119140625000002 7.070312500000002  8.130859375 7.140625  L 8.6796875 10.34375  C 8.708984375 10.51953125  8.525390625 10.654296875  8.3671875 10.5703125  L 5.490234375 9.05859375  C 5.427734375 9.025390625  5.353515625 9.025390625  5.2890625 9.05859375  L 2.4140625 10.5703125  C 2.255859374999999 10.65234375  2.072265625 10.51953125  2.1015625 10.34375  L 2.650390625 7.140625  C 2.662109375000001 7.070312499999999  2.638671875 6.999999999999998  2.587890625 6.94921875  L 0.26171875 4.681640625  C 0.134765625 4.556640625  0.205078125 4.33984375  0.380859375 4.314453125  L 3.597656249999999 3.84765625  C 3.66796875 3.837890625  3.728515624999999 3.7929687499999996  3.7597656249999996 3.73046875  L 5.197265624999998 0.81640625  Z " stroke-width="0" stroke-dasharray="0" stroke="rgba(255, 255, 255, 0)" fill="none" transform="matrix(1 0 0 1 290 306 )" class="stroke" mask="url(#Clip19868)" />
  </g>
</svg>