<?xml version="1.0" encoding="utf-8"?>
<svg version="1.1" xmlns:xlink="http://www.w3.org/1999/xlink" width="20px" height="20px" xmlns="http://www.w3.org/2000/svg">
  <defs>
    <pattern id="BGPattern" patternUnits="userSpaceOnUse" alignment="0 0" imageRepeat="None" />
    <mask fill="white" id="Clip3900">
      <path d="M 17.09892593797974 16.669531139085045  C 15.33382470325812 18.443379286942132  12.932679079358447 19.437733886645113  10.430265029167947 19.431135259441206  C 5.223950495105642 19.4254649164767  1.004812971149946 15.206327392521004  0.9991426281854467 10.000012858458703  C 1.0048129711499465 4.793698324396399  5.223950495105641 0.5745608004407039  10.430265029167945 0.5688904574762041  C 12.93308101543586 0.5623851408908571  15.334559966157386 1.5570586460069933  17.09978330979429 3.331351949646912  C 18.87363145089314 5.096453187406418  19.86798604380686 7.497598810928864  19.861387411728582 10.000012858458703  C 19.86827516040202 12.502904376217671  18.873543070416495 14.904524786684718  17.09892593797974 16.669531139085045  Z M 4.943066533619896 6.865450727663493  L 4.943066533619896 6.863735984034385  L 5.399189904820386 8.412154805035307  L 5.757572557568313 8.412154805035307  L 8.645210758366595 15.2360005465152  L 10.904393263739639 15.2360005465152  L 14.591104740558794 8.966876266502915  L 15.597662714154128 8.966876266502915  L 17.3775727356463 5.714853791832972  L 13.228736248081054 5.714853791832972  L 9.71349972367209 12.059427049431989  L 7.613788928461773 6.865450727663493  L 4.943066533619896 6.865450727663493  Z " fill-rule="evenodd" />
    </mask>
  </defs>
  <g transform="matrix(1 0 0 1 -2429 -267 )">
    <path d="M 17.09892593797974 16.669531139085045  C 15.33382470325812 18.443379286942132  12.932679079358447 19.437733886645113  10.430265029167947 19.431135259441206  C 5.223950495105642 19.4254649164767  1.004812971149946 15.206327392521004  0.9991426281854467 10.000012858458703  C 1.0048129711499465 4.793698324396399  5.223950495105641 0.5745608004407039  10.430265029167945 0.5688904574762041  C 12.93308101543586 0.5623851408908571  15.334559966157386 1.5570586460069933  17.09978330979429 3.331351949646912  C 18.87363145089314 5.096453187406418  19.86798604380686 7.497598810928864  19.861387411728582 10.000012858458703  C 19.86827516040202 12.502904376217671  18.873543070416495 14.904524786684718  17.09892593797974 16.669531139085045  Z M 4.943066533619896 6.865450727663493  L 4.943066533619896 6.863735984034385  L 5.399189904820386 8.412154805035307  L 5.757572557568313 8.412154805035307  L 8.645210758366595 15.2360005465152  L 10.904393263739639 15.2360005465152  L 14.591104740558794 8.966876266502915  L 15.597662714154128 8.966876266502915  L 17.3775727356463 5.714853791832972  L 13.228736248081054 5.714853791832972  L 9.71349972367209 12.059427049431989  L 7.613788928461773 6.865450727663493  L 4.943066533619896 6.865450727663493  Z " fill-rule="nonzero" fill="rgba(3, 102, 232, 1)" stroke="none" transform="matrix(1 0 0 1 2429 267 )" class="fill" />
    <path d="M 17.09892593797974 16.669531139085045  C 15.33382470325812 18.443379286942132  12.932679079358447 19.437733886645113  10.430265029167947 19.431135259441206  C 5.223950495105642 19.4254649164767  1.004812971149946 15.206327392521004  0.9991426281854467 10.000012858458703  C 1.0048129711499465 4.793698324396399  5.223950495105641 0.5745608004407039  10.430265029167945 0.5688904574762041  C 12.93308101543586 0.5623851408908571  15.334559966157386 1.5570586460069933  17.09978330979429 3.331351949646912  C 18.87363145089314 5.096453187406418  19.86798604380686 7.497598810928864  19.861387411728582 10.000012858458703  C 19.86827516040202 12.502904376217671  18.873543070416495 14.904524786684718  17.09892593797974 16.669531139085045  Z " stroke-width="0" stroke-dasharray="0" stroke="rgba(255, 255, 255, 0)" fill="none" transform="matrix(1 0 0 1 2429 267 )" class="stroke" mask="url(#Clip3900)" />
    <path d="M 4.943066533619896 6.865450727663493  L 4.943066533619896 6.863735984034385  L 5.399189904820386 8.412154805035307  L 5.757572557568313 8.412154805035307  L 8.645210758366595 15.2360005465152  L 10.904393263739639 15.2360005465152  L 14.591104740558794 8.966876266502915  L 15.597662714154128 8.966876266502915  L 17.3775727356463 5.714853791832972  L 13.228736248081054 5.714853791832972  L 9.71349972367209 12.059427049431989  L 7.613788928461773 6.865450727663493  L 4.943066533619896 6.865450727663493  Z " stroke-width="0" stroke-dasharray="0" stroke="rgba(255, 255, 255, 0)" fill="none" transform="matrix(1 0 0 1 2429 267 )" class="stroke" mask="url(#Clip3900)" />
  </g>
</svg>