<svg t="1742521270418" class="icon" viewBox="0 0 1024 1024" version="1.1" xmlns="http://www.w3.org/2000/svg" p-id="1350" width="200" height="200"><path d="M342.594816 458.752c-37.888-37.376-83.968-66.048-134.144-83.456-57.856-19.456-118.784-28.672-179.712-27.136L0.066816 344.576v32.256c-1.024 62.464 9.728 124.416 31.744 182.784 19.456 50.688 50.176 96.768 90.112 134.144 74.752 70.144 180.736 108.032 305.664 109.568l29.184 4.096v-33.28c0-132.096-39.424-240.64-114.176-315.392zM991.810816 348.16c-60.928-1.536-121.856 8.192-179.712 27.648-50.176 17.408-96.256 46.08-134.144 83.456-74.752 74.24-114.176 183.296-113.664 315.392l-3.584 29.184 33.28-0.512c124.928-1.536 230.4-39.424 305.664-109.568 39.424-37.376 70.144-83.456 89.6-134.144 22.016-58.368 32.768-119.808 31.744-182.272l3.072-29.184h-32.256zM363.074816 95.232c-30.72-30.208-68.096-53.76-109.056-67.584C206.914816 11.264 157.762816 3.584 108.610816 5.12L79.938816 1.536v32.256c-0.512 50.176 8.192 100.352 25.6 147.456 15.872 41.472 40.96 78.848 73.216 109.056 60.416 56.832 145.92 87.552 247.296 89.088l29.184 4.608v-33.28c0.512-107.008-31.232-195.072-92.16-255.488z" fill="#3366FF" p-id="1351"></path><path d="M911.426816 5.12c-49.152-1.024-98.304 6.144-145.408 22.528-40.96 14.336-78.336 37.376-109.056 67.584-60.928 60.416-92.672 148.992-92.16 256l-4.096 29.184 33.28-0.512c101.376-1.024 186.88-32.256 247.296-89.088 32.256-30.208 57.344-67.584 73.216-109.056 17.408-47.104 26.112-97.28 25.6-147.456l3.584-28.672L911.426816 5.12z" fill="#AEC9FF" p-id="1352"></path><path d="M509.506816 524.8c-15.872 0-29.184 12.8-29.184 29.184v439.808c0 15.872 12.8 29.184 29.184 29.184 15.872 0 28.672-12.8 29.184-29.184v-439.808c-0.512-16.384-13.312-29.184-29.184-29.184z" fill="#3366FF" p-id="1353"></path></svg>