<svg t="1742536456764" class="icon" viewBox="0 0 1024 1024" version="1.1" xmlns="http://www.w3.org/2000/svg" p-id="2008" width="200" height="200"><path d="M929.28 250.368h-310.784c-3.584 0-6.656-2.048-8.192-5.632-1.024-3.584 0-6.656 3.072-8.704l150.528-100.864c14.336-9.216 19.456-27.648 11.264-42.496-4.608-8.192-12.288-13.824-20.48-15.872-9.216-2.048-18.432-0.512-25.6 4.608L547.84 203.264c-22.016 14.848-50.176 14.848-72.192 0L294.912 81.92c-14.848-9.728-34.816-5.632-45.056 9.216-0.512 0.512-0.512 1.024-1.024 1.536-7.68 14.848-2.048 33.28 11.264 42.496l150.016 100.864c3.584 2.048 4.608 7.68 2.048 10.752-1.536 2.048-4.096 3.584-6.656 3.584H94.72c-34.816 0-63.488 28.16-64 63.488v570.88c0 34.816 29.184 63.488 64 63.488h834.048c34.816 0 63.488-28.16 64-63.488V313.856c0.512-35.84-28.672-63.488-63.488-63.488z m-321.024 539.136c0 17.92-14.848 32.256-32.768 32.256H190.976c-17.92 0-32.256-14.336-32.256-32.256V409.088c0-17.92 14.336-32.256 32.256-32.256h385.024c17.92 0 32.256 14.336 32.256 32.256v380.416z m240.64 31.232H752.64c-17.92 0.512-32.768-12.8-33.28-30.208-0.512-17.92 12.8-32.768 30.208-33.28H848.896c17.92-0.512 32.768 12.8 33.28 30.208 0.512 17.92-12.8 32.768-30.208 33.28h-3.072z m0-142.336H752.64c-17.92 0.512-32.768-12.8-33.28-30.208-0.512-17.92 12.8-32.768 30.208-33.28H848.896c17.92-0.512 32.768 12.8 33.28 30.208s-12.8 32.768-30.208 33.28h-3.072z m-48.128-142.848c-43.52-0.512-78.336-36.864-77.824-80.384s36.864-78.336 80.384-77.824c43.52 0.512 77.824 36.352 77.824 78.848 0 44.032-36.352 79.872-80.384 79.36z" fill="#3366FF" p-id="2009"></path><path d="M513.536 442.368H256c-17.92-0.512-32.256 13.824-32.768 31.744v251.904c0.512 17.92 14.848 31.744 32.768 31.744h258.048c17.92 0 32.256-13.824 32.256-31.744V473.6c-0.512-17.408-14.848-31.232-32.768-31.232z" fill="#AEC9FF" p-id="2010"></path></svg>