<?xml version="1.0" encoding="utf-8"?>
<svg version="1.1" xmlns:xlink="http://www.w3.org/1999/xlink" width="70px" height="70px" xmlns="http://www.w3.org/2000/svg">
  <defs>
    <pattern id="BGPattern" patternUnits="userSpaceOnUse" alignment="0 0" imageRepeat="None" />
    <mask fill="white" id="Clip632">
      <path d="M 70 8.796875  C 69.9765625 3.9765625  66.0546875 0.0625  61.234375 0  L 8.765625 0  C 3.9375 0.0625  0.023437499999998224 3.9765625  0 8.796875  L 0 61.203125  C 0.023437499999998224 66.03125  3.9374999999999982 69.9375  8.765625 70  L 61.2265625 70  C 66.0546875 69.9375  69.96875 66.0234375  70 61.203125  L 70 8.796875  Z M 6 9.8125  C 5.5859375 7.5  7.4609375 5.6171875  9.781249999999995 6  L 60.203125 6  C 62.5234375 5.6171875  64.40624999999999 7.4921875  64 9.8125  L 64 45  L 53.6875 30.53125  C 53.15625000000001 29.8046875  52.29687500000001 29.3671875  51.37499999999999 29.34375  C 50.45312500000001 29.3203125  49.5703125 29.7109375  49 30.40625  L 33.3828125 49.25000000000001  L 23.3125 40.109375  C 22.28125 39.171875  20.687499999999996 39.078125  19.546875 39.89062499999999  L 6 49.79687500000001  L 6 9.8125  Z M 64.4140625 60.1796875  C 64.4140625 62.4921875  62.53125 64.375  60.2109375 64  L 9.78125 64  C 7.4609375 64.375  5.578124999999998 62.5  5.578124999999998 60.1796875  L 5.578124999999998 56.734375  C 5.7499999999999964 56.65625  5.921874999999998 56.5625  6.078124999999998 56.4453125  L 21.0625 45.8203125  L 31.6640625 55.4453125  C 32.265625 55.9921875  33.0703125 56.265625  33.890625 56.2109375  C 34.7109375 56.156249999999986  35.46875 55.773437499999986  35.984375 55.15625  L 51.171875 36.8359375  L 63.2578125 53.1640625  C 63.5625 53.578125  63.96875 53.8828125  64.4140625 54.0859375  L 64.4140625 60.1796875  Z " fill-rule="evenodd" />
    </mask>
  </defs>
  <g transform="matrix(1 0 0 1 -1050 -1247 )">
    <path d="M 70 8.796875  C 69.9765625 3.9765625  66.0546875 0.0625  61.234375 0  L 8.765625 0  C 3.9375 0.0625  0.023437499999998224 3.9765625  0 8.796875  L 0 61.203125  C 0.023437499999998224 66.03125  3.9374999999999982 69.9375  8.765625 70  L 61.2265625 70  C 66.0546875 69.9375  69.96875 66.0234375  70 61.203125  L 70 8.796875  Z M 6 9.8125  C 5.5859375 7.5  7.4609375 5.6171875  9.781249999999995 6  L 60.203125 6  C 62.5234375 5.6171875  64.40624999999999 7.4921875  64 9.8125  L 64 45  L 53.6875 30.53125  C 53.15625000000001 29.8046875  52.29687500000001 29.3671875  51.37499999999999 29.34375  C 50.45312500000001 29.3203125  49.5703125 29.7109375  49 30.40625  L 33.3828125 49.25000000000001  L 23.3125 40.109375  C 22.28125 39.171875  20.687499999999996 39.078125  19.546875 39.89062499999999  L 6 49.79687500000001  L 6 9.8125  Z M 64.4140625 60.1796875  C 64.4140625 62.4921875  62.53125 64.375  60.2109375 64  L 9.78125 64  C 7.4609375 64.375  5.578124999999998 62.5  5.578124999999998 60.1796875  L 5.578124999999998 56.734375  C 5.7499999999999964 56.65625  5.921874999999998 56.5625  6.078124999999998 56.4453125  L 21.0625 45.8203125  L 31.6640625 55.4453125  C 32.265625 55.9921875  33.0703125 56.265625  33.890625 56.2109375  C 34.7109375 56.156249999999986  35.46875 55.773437499999986  35.984375 55.15625  L 51.171875 36.8359375  L 63.2578125 53.1640625  C 63.5625 53.578125  63.96875 53.8828125  64.4140625 54.0859375  L 64.4140625 60.1796875  Z " fill-rule="nonzero" fill="rgba(255, 255, 255, 1)" stroke="none" transform="matrix(1 0 0 1 1050 1247 )" class="fill" />
    <path d="M 70 8.796875  C 69.9765625 3.9765625  66.0546875 0.0625  61.234375 0  L 8.765625 0  C 3.9375 0.0625  0.023437499999998224 3.9765625  0 8.796875  L 0 61.203125  C 0.023437499999998224 66.03125  3.9374999999999982 69.9375  8.765625 70  L 61.2265625 70  C 66.0546875 69.9375  69.96875 66.0234375  70 61.203125  L 70 8.796875  Z " stroke-width="0" stroke-dasharray="0" stroke="rgba(255, 255, 255, 0)" fill="none" transform="matrix(1 0 0 1 1050 1247 )" class="stroke" mask="url(#Clip632)" />
    <path d="M 6 9.8125  C 5.5859375 7.5  7.4609375 5.6171875  9.781249999999995 6  L 60.203125 6  C 62.5234375 5.6171875  64.40624999999999 7.4921875  64 9.8125  L 64 45  L 53.6875 30.53125  C 53.15625000000001 29.8046875  52.29687500000001 29.3671875  51.37499999999999 29.34375  C 50.45312500000001 29.3203125  49.5703125 29.7109375  49 30.40625  L 33.3828125 49.25000000000001  L 23.3125 40.109375  C 22.28125 39.171875  20.687499999999996 39.078125  19.546875 39.89062499999999  L 6 49.79687500000001  L 6 9.8125  Z " stroke-width="0" stroke-dasharray="0" stroke="rgba(255, 255, 255, 0)" fill="none" transform="matrix(1 0 0 1 1050 1247 )" class="stroke" mask="url(#Clip632)" />
    <path d="M 64.4140625 60.1796875  C 64.4140625 62.4921875  62.53125 64.375  60.2109375 64  L 9.78125 64  C 7.4609375 64.375  5.578124999999998 62.5  5.578124999999998 60.1796875  L 5.578124999999998 56.734375  C 5.7499999999999964 56.65625  5.921874999999998 56.5625  6.078124999999998 56.4453125  L 21.0625 45.8203125  L 31.6640625 55.4453125  C 32.265625 55.9921875  33.0703125 56.265625  33.890625 56.2109375  C 34.7109375 56.156249999999986  35.46875 55.773437499999986  35.984375 55.15625  L 51.171875 36.8359375  L 63.2578125 53.1640625  C 63.5625 53.578125  63.96875 53.8828125  64.4140625 54.0859375  L 64.4140625 60.1796875  Z " stroke-width="0" stroke-dasharray="0" stroke="rgba(255, 255, 255, 0)" fill="none" transform="matrix(1 0 0 1 1050 1247 )" class="stroke" mask="url(#Clip632)" />
  </g>
</svg>