<?xml version="1.0" encoding="utf-8"?>
<svg version="1.1" xmlns:xlink="http://www.w3.org/1999/xlink" width="17px" height="18px" xmlns="http://www.w3.org/2000/svg">
  <defs>
    <pattern id="BGPattern" patternUnits="userSpaceOnUse" alignment="0 0" imageRepeat="None" />
    <mask fill="white" id="Clip1608">
      <path d="M 0.515625 9  C 0.515625 13.4765625  4.1640625 17.125  8.640625 17.125  C 13.1171875 17.125  16.765625 13.4765625  16.765625 9  C 16.765625 4.5234375  13.1171875 0.875  8.640625 0.875  C 4.1640625 0.875  0.515625 4.5234375  0.515625 9  Z M 6.140625 9  C 6.140625 7.6171875  7.25 6.5  8.640625 6.5  C 10.0234375 6.5  11.140625 7.6171875  11.140625 9  C 11.140625 10.3828125  10.0234375 11.5  8.640625 11.5  C 7.2578125 11.5  6.140625 10.3828125  6.140625 9  Z " fill-rule="evenodd" />
    </mask>
  </defs>
  <g transform="matrix(1 0 0 1 -1063 -1258 )">
    <path d="M 0.515625 9  C 0.515625 13.4765625  4.1640625 17.125  8.640625 17.125  C 13.1171875 17.125  16.765625 13.4765625  16.765625 9  C 16.765625 4.5234375  13.1171875 0.875  8.640625 0.875  C 4.1640625 0.875  0.515625 4.5234375  0.515625 9  Z M 6.140625 9  C 6.140625 7.6171875  7.25 6.5  8.640625 6.5  C 10.0234375 6.5  11.140625 7.6171875  11.140625 9  C 11.140625 10.3828125  10.0234375 11.5  8.640625 11.5  C 7.2578125 11.5  6.140625 10.3828125  6.140625 9  Z " fill-rule="nonzero" fill="rgba(255, 255, 255, 1)" stroke="none" transform="matrix(1 0 0 1 1063 1258 )" class="fill" />
    <path d="M 0.515625 9  C 0.515625 13.4765625  4.1640625 17.125  8.640625 17.125  C 13.1171875 17.125  16.765625 13.4765625  16.765625 9  C 16.765625 4.5234375  13.1171875 0.875  8.640625 0.875  C 4.1640625 0.875  0.515625 4.5234375  0.515625 9  Z " stroke-width="0" stroke-dasharray="0" stroke="rgba(255, 255, 255, 0)" fill="none" transform="matrix(1 0 0 1 1063 1258 )" class="stroke" mask="url(#Clip1608)" />
    <path d="M 6.140625 9  C 6.140625 7.6171875  7.25 6.5  8.640625 6.5  C 10.0234375 6.5  11.140625 7.6171875  11.140625 9  C 11.140625 10.3828125  10.0234375 11.5  8.640625 11.5  C 7.2578125 11.5  6.140625 10.3828125  6.140625 9  Z " stroke-width="0" stroke-dasharray="0" stroke="rgba(255, 255, 255, 0)" fill="none" transform="matrix(1 0 0 1 1063 1258 )" class="stroke" mask="url(#Clip1608)" />
  </g>
</svg>