<?xml version="1.0" encoding="utf-8"?>
<svg version="1.1" xmlns:xlink="http://www.w3.org/1999/xlink" width="30px" height="28px" xmlns="http://www.w3.org/2000/svg">
  <defs>
    <pattern id="BGPattern" patternUnits="userSpaceOnUse" alignment="0 0" imageRepeat="None" />
    <mask fill="white" id="Clip5113">
      <path d="M 29.029947916666668 12.46875  C 29.524739583333336 11.989430147058824  29.703776041666668 11.275275735294118  29.488932291666668 10.622242647058824  C 29.274088541666664 9.969209558823529  28.704427083333336 9.49310661764706  28.017578125 9.396599264705882  L 20.133463541666664 8.264246323529413  L 16.60807291666667 1.203125  C 16.298828125 0.5886948529411765  15.667317708333336 0.1994485294117647  14.970703125 0.1994485294117647  C 14.27734375 0.1994485294117647  13.642578125 0.5886948529411765  13.336588541666666 1.203125  L 9.811197916666668 8.264246323529413  L 1.9270833333333348 9.396599264705882  C 1.240234375 9.496323529411764  0.6673177083333334 9.969209558823529  0.4524739583333333 10.622242647058824  C 0.23763020833333295 11.275275735294118  0.4166666666666663 11.989430147058824  0.9147135416666666 12.46875  L 6.62109375 17.96323529411765  L 5.2734375 25.722426470588236  C 5.15625 26.39797794117647  5.436197916666666 27.07996323529412  5.999348958333335 27.485294117647058  C 6.318359375000002 27.713694852941174  6.692708333333334 27.829503676470587  7.070312500000001 27.829503676470587  C 7.360026041666667 27.829503676470587  7.652994791666667 27.761948529411764  7.919921875000001 27.623621323529413  L 14.973958333333332 23.959558823529413  L 22.024739583333336 27.623621323529413  C 22.29166666666667 27.761948529411764  22.581380208333336 27.829503676470587  22.874348958333336 27.829503676470587  C 23.251953125000004 27.829503676470587  23.626302083333336 27.713694852941174  23.945312500000004 27.485294117647058  C 24.508463541666668 27.083180147058826  24.788411458333332 26.39797794117647  24.671223958333332 25.722426470588236  L 23.323567708333332 17.96323529411765  L 29.029947916666668 12.46875  Z M 27.75390625 11.17876838235294  L 21.363932291666664 17.3359375  L 22.874348958333336 26.03125  L 14.970703125 21.926470588235293  L 7.0703125 26.03125  L 8.580729166666666 17.3359375  L 2.1874999999999987 11.17876838235294  L 11.022135416666664 9.911305147058824  L 14.970703125 2.000919117647059  L 18.919270833333336 9.911305147058824  L 27.75390625 11.17876838235294  Z " fill-rule="evenodd" />
    </mask>
  </defs>
  <g transform="matrix(1 0 0 1 -15 -15 )">
    <path d="M 29.029947916666668 12.46875  C 29.524739583333336 11.989430147058824  29.703776041666668 11.275275735294118  29.488932291666668 10.622242647058824  C 29.274088541666664 9.969209558823529  28.704427083333336 9.49310661764706  28.017578125 9.396599264705882  L 20.133463541666664 8.264246323529413  L 16.60807291666667 1.203125  C 16.298828125 0.5886948529411765  15.667317708333336 0.1994485294117647  14.970703125 0.1994485294117647  C 14.27734375 0.1994485294117647  13.642578125 0.5886948529411765  13.336588541666666 1.203125  L 9.811197916666668 8.264246323529413  L 1.9270833333333348 9.396599264705882  C 1.240234375 9.496323529411764  0.6673177083333334 9.969209558823529  0.4524739583333333 10.622242647058824  C 0.23763020833333295 11.275275735294118  0.4166666666666663 11.989430147058824  0.9147135416666666 12.46875  L 6.62109375 17.96323529411765  L 5.2734375 25.722426470588236  C 5.15625 26.39797794117647  5.436197916666666 27.07996323529412  5.999348958333335 27.485294117647058  C 6.318359375000002 27.713694852941174  6.692708333333334 27.829503676470587  7.070312500000001 27.829503676470587  C 7.360026041666667 27.829503676470587  7.652994791666667 27.761948529411764  7.919921875000001 27.623621323529413  L 14.973958333333332 23.959558823529413  L 22.024739583333336 27.623621323529413  C 22.29166666666667 27.761948529411764  22.581380208333336 27.829503676470587  22.874348958333336 27.829503676470587  C 23.251953125000004 27.829503676470587  23.626302083333336 27.713694852941174  23.945312500000004 27.485294117647058  C 24.508463541666668 27.083180147058826  24.788411458333332 26.39797794117647  24.671223958333332 25.722426470588236  L 23.323567708333332 17.96323529411765  L 29.029947916666668 12.46875  Z M 27.75390625 11.17876838235294  L 21.363932291666664 17.3359375  L 22.874348958333336 26.03125  L 14.970703125 21.926470588235293  L 7.0703125 26.03125  L 8.580729166666666 17.3359375  L 2.1874999999999987 11.17876838235294  L 11.022135416666664 9.911305147058824  L 14.970703125 2.000919117647059  L 18.919270833333336 9.911305147058824  L 27.75390625 11.17876838235294  Z " fill-rule="nonzero" fill="rgba(255, 64, 37, 1)" stroke="none" transform="matrix(1 0 0 1 15 15 )" class="fill" />
    <path d="M 29.029947916666668 12.46875  C 29.524739583333336 11.989430147058824  29.703776041666668 11.275275735294118  29.488932291666668 10.622242647058824  C 29.274088541666664 9.969209558823529  28.704427083333336 9.49310661764706  28.017578125 9.396599264705882  L 20.133463541666664 8.264246323529413  L 16.60807291666667 1.203125  C 16.298828125 0.5886948529411765  15.667317708333336 0.1994485294117647  14.970703125 0.1994485294117647  C 14.27734375 0.1994485294117647  13.642578125 0.5886948529411765  13.336588541666666 1.203125  L 9.811197916666668 8.264246323529413  L 1.9270833333333348 9.396599264705882  C 1.240234375 9.496323529411764  0.6673177083333334 9.969209558823529  0.4524739583333333 10.622242647058824  C 0.23763020833333295 11.275275735294118  0.4166666666666663 11.989430147058824  0.9147135416666666 12.46875  L 6.62109375 17.96323529411765  L 5.2734375 25.722426470588236  C 5.15625 26.39797794117647  5.436197916666666 27.07996323529412  5.999348958333335 27.485294117647058  C 6.318359375000002 27.713694852941174  6.692708333333334 27.829503676470587  7.070312500000001 27.829503676470587  C 7.360026041666667 27.829503676470587  7.652994791666667 27.761948529411764  7.919921875000001 27.623621323529413  L 14.973958333333332 23.959558823529413  L 22.024739583333336 27.623621323529413  C 22.29166666666667 27.761948529411764  22.581380208333336 27.829503676470587  22.874348958333336 27.829503676470587  C 23.251953125000004 27.829503676470587  23.626302083333336 27.713694852941174  23.945312500000004 27.485294117647058  C 24.508463541666668 27.083180147058826  24.788411458333332 26.39797794117647  24.671223958333332 25.722426470588236  L 23.323567708333332 17.96323529411765  L 29.029947916666668 12.46875  Z " stroke-width="0" stroke-dasharray="0" stroke="rgba(255, 255, 255, 0)" fill="none" transform="matrix(1 0 0 1 15 15 )" class="stroke" mask="url(#Clip5113)" />
    <path d="M 27.75390625 11.17876838235294  L 21.363932291666664 17.3359375  L 22.874348958333336 26.03125  L 14.970703125 21.926470588235293  L 7.0703125 26.03125  L 8.580729166666666 17.3359375  L 2.1874999999999987 11.17876838235294  L 11.022135416666664 9.911305147058824  L 14.970703125 2.000919117647059  L 18.919270833333336 9.911305147058824  L 27.75390625 11.17876838235294  Z " stroke-width="0" stroke-dasharray="0" stroke="rgba(255, 255, 255, 0)" fill="none" transform="matrix(1 0 0 1 15 15 )" class="stroke" mask="url(#Clip5113)" />
  </g>
</svg>