<?xml version="1.0" encoding="utf-8"?>
<svg version="1.1" xmlns:xlink="http://www.w3.org/1999/xlink" width="12px" height="12px" xmlns="http://www.w3.org/2000/svg">
  <defs>
    <pattern id="BGPattern" patternUnits="userSpaceOnUse" alignment="0 0" imageRepeat="None" />
    <mask fill="white" id="Clip5134">
      <path d="M 11.540106696428571 11.540809034598215  C 11.839560770089285 11.241320675223214  11.839646434151785 10.754313716517856  11.540415033482143 10.455082315848212  L 7.0856239453125 6.000222706473212  L 11.540397890624998 1.5449176841517858  C 11.685636562500001 1.3996961383928572  11.76551954799107 1.206609910714286  11.765382488839286 1.001206322544643  C 11.76524544642857 0.7964194587053575  11.685482377232141 0.6041897879464287  11.540809034598212 0.45992758928571476  C 11.39591298549107 0.31465464843750035  11.20347775111607 0.23475453683035777  10.998656618303569 0.2346346205357143  C 10.792961785714283 0.2346346205357143  10.600081138392856 0.3145176060267861  10.454996651785713 0.4595506975446429  L 6.0003254966517865 4.914238995535714  L 1.5449005580357142 0.4595507142857147  C 1.3998674665178572 0.31451762276785744  1.207140987723214 0.23463463727678566  1.0022170647321427 0.23463463727678566  C 0.7973102845982142 0.23463463727678566  0.6045838058035714 0.3145004799107145  0.45956784040178544 0.4595164453125  C 0.31458614397321405 0.6041041238839289  0.23475455357142838 0.7964194587053569  0.23461749441964233 1.001206322544643  C 0.2344804520089284 1.206609910714286  0.3143634207589281 1.3996961383928572  0.45956784040178544 1.5449005580357142  L 4.914958510044643 6.000205580357143  L 0.4595507142857147 10.455099441964286  C 0.3145004799107145 10.600132533482142  0.23461751116071405 10.79282474330357  0.23461751116071405 10.997765792410714  C 0.23461751116071405 11.202672572544643  0.3145176227678567 11.395416177455356  0.45956785714285725 11.540466411830357  C 0.6045838225446428 11.685499503348215  0.797293158482143 11.765348219866071  1.0021999553571423 11.765348219866071  C 1.2071238783482146 11.765348219866071  1.3998674832589282 11.685482377232141  1.5448834486607144 11.540466411830357  L 6.0002569921875 7.085658197544642  L 10.455082332589285 11.540466411830357  C 10.600115424107143 11.685499503348215  10.793013214285713 11.765348219866071  10.998211238839284 11.765348219866071  C 11.20354630580357 11.765211177455356  11.39579310267857 11.685465234375002  11.540106696428571 11.540809034598215  Z " fill-rule="evenodd" />
    </mask>
  </defs>
  <g transform="matrix(1 0 0 1 -797 -1326 )">
    <path d="M 11.540106696428571 11.540809034598215  C 11.839560770089285 11.241320675223214  11.839646434151785 10.754313716517856  11.540415033482143 10.455082315848212  L 7.0856239453125 6.000222706473212  L 11.540397890624998 1.5449176841517858  C 11.685636562500001 1.3996961383928572  11.76551954799107 1.206609910714286  11.765382488839286 1.001206322544643  C 11.76524544642857 0.7964194587053575  11.685482377232141 0.6041897879464287  11.540809034598212 0.45992758928571476  C 11.39591298549107 0.31465464843750035  11.20347775111607 0.23475453683035777  10.998656618303569 0.2346346205357143  C 10.792961785714283 0.2346346205357143  10.600081138392856 0.3145176060267861  10.454996651785713 0.4595506975446429  L 6.0003254966517865 4.914238995535714  L 1.5449005580357142 0.4595507142857147  C 1.3998674665178572 0.31451762276785744  1.207140987723214 0.23463463727678566  1.0022170647321427 0.23463463727678566  C 0.7973102845982142 0.23463463727678566  0.6045838058035714 0.3145004799107145  0.45956784040178544 0.4595164453125  C 0.31458614397321405 0.6041041238839289  0.23475455357142838 0.7964194587053569  0.23461749441964233 1.001206322544643  C 0.2344804520089284 1.206609910714286  0.3143634207589281 1.3996961383928572  0.45956784040178544 1.5449005580357142  L 4.914958510044643 6.000205580357143  L 0.4595507142857147 10.455099441964286  C 0.3145004799107145 10.600132533482142  0.23461751116071405 10.79282474330357  0.23461751116071405 10.997765792410714  C 0.23461751116071405 11.202672572544643  0.3145176227678567 11.395416177455356  0.45956785714285725 11.540466411830357  C 0.6045838225446428 11.685499503348215  0.797293158482143 11.765348219866071  1.0021999553571423 11.765348219866071  C 1.2071238783482146 11.765348219866071  1.3998674832589282 11.685482377232141  1.5448834486607144 11.540466411830357  L 6.0002569921875 7.085658197544642  L 10.455082332589285 11.540466411830357  C 10.600115424107143 11.685499503348215  10.793013214285713 11.765348219866071  10.998211238839284 11.765348219866071  C 11.20354630580357 11.765211177455356  11.39579310267857 11.685465234375002  11.540106696428571 11.540809034598215  Z " fill-rule="nonzero" fill="rgba(255, 255, 255, 1)" stroke="none" transform="matrix(1 0 0 1 797 1326 )" class="fill" />
    <path d="M 11.540106696428571 11.540809034598215  C 11.839560770089285 11.241320675223214  11.839646434151785 10.754313716517856  11.540415033482143 10.455082315848212  L 7.0856239453125 6.000222706473212  L 11.540397890624998 1.5449176841517858  C 11.685636562500001 1.3996961383928572  11.76551954799107 1.206609910714286  11.765382488839286 1.001206322544643  C 11.76524544642857 0.7964194587053575  11.685482377232141 0.6041897879464287  11.540809034598212 0.45992758928571476  C 11.39591298549107 0.31465464843750035  11.20347775111607 0.23475453683035777  10.998656618303569 0.2346346205357143  C 10.792961785714283 0.2346346205357143  10.600081138392856 0.3145176060267861  10.454996651785713 0.4595506975446429  L 6.0003254966517865 4.914238995535714  L 1.5449005580357142 0.4595507142857147  C 1.3998674665178572 0.31451762276785744  1.207140987723214 0.23463463727678566  1.0022170647321427 0.23463463727678566  C 0.7973102845982142 0.23463463727678566  0.6045838058035714 0.3145004799107145  0.45956784040178544 0.4595164453125  C 0.31458614397321405 0.6041041238839289  0.23475455357142838 0.7964194587053569  0.23461749441964233 1.001206322544643  C 0.2344804520089284 1.206609910714286  0.3143634207589281 1.3996961383928572  0.45956784040178544 1.5449005580357142  L 4.914958510044643 6.000205580357143  L 0.4595507142857147 10.455099441964286  C 0.3145004799107145 10.600132533482142  0.23461751116071405 10.79282474330357  0.23461751116071405 10.997765792410714  C 0.23461751116071405 11.202672572544643  0.3145176227678567 11.395416177455356  0.45956785714285725 11.540466411830357  C 0.6045838225446428 11.685499503348215  0.797293158482143 11.765348219866071  1.0021999553571423 11.765348219866071  C 1.2071238783482146 11.765348219866071  1.3998674832589282 11.685482377232141  1.5448834486607144 11.540466411830357  L 6.0002569921875 7.085658197544642  L 10.455082332589285 11.540466411830357  C 10.600115424107143 11.685499503348215  10.793013214285713 11.765348219866071  10.998211238839284 11.765348219866071  C 11.20354630580357 11.765211177455356  11.39579310267857 11.685465234375002  11.540106696428571 11.540809034598215  Z " stroke-width="0" stroke-dasharray="0" stroke="rgba(255, 255, 255, 0)" fill="none" transform="matrix(1 0 0 1 797 1326 )" class="stroke" mask="url(#Clip5134)" />
  </g>
</svg>