<?xml version="1.0" encoding="utf-8"?>
<svg version="1.1" xmlns:xlink="http://www.w3.org/1999/xlink" width="333px" height="368px" xmlns="http://www.w3.org/2000/svg">
  <defs>
    <linearGradient gradientUnits="userSpaceOnUse" x1="333" y1="184" x2="0" y2="184" id="LinearGradient9402">
      <stop id="Stop9403" stop-color="#f59a23" offset="0" />
      <stop id="Stop9404" stop-color="#a36717" offset="1" />
    </linearGradient>
    <pattern id="BGPattern" patternUnits="userSpaceOnUse" alignment="0 0" imageRepeat="None" />
    <mask fill="white" id="Clip9405">
      <path d="M 0 363  L 0 5  C 0 2.1999999999999997  2.1999999999999997 0  5 0  L 328 0  C 330.8 0  333 2.1999999999999997  333 5  L 333 363  C 333 365.8  330.8 368  328 368  L 5 368  C 2.1999999999999997 368  0 365.8  0 363  Z " fill-rule="evenodd" />
    </mask>
  </defs>
  <g>
    <path d="M 0 363  L 0 5  C 0 2.1999999999999997  2.1999999999999997 0  5 0  L 328 0  C 330.8 0  333 2.1999999999999997  333 5  L 333 363  C 333 365.8  330.8 368  328 368  L 5 368  C 2.1999999999999997 368  0 365.8  0 363  Z " fill-rule="nonzero" fill="url(#LinearGradient9402)" stroke="none" class="fill" />
    <path d="M 0 363  L 0 5  C 0 2.1999999999999997  2.1999999999999997 0  5 0  L 328 0  C 330.8 0  333 2.1999999999999997  333 5  L 333 363  C 333 365.8  330.8 368  328 368  L 5 368  C 2.1999999999999997 368  0 365.8  0 363  Z " stroke-width="0" stroke-dasharray="0" stroke="rgba(121, 121, 121, 1)" fill="none" class="stroke" mask="url(#Clip9405)" />
  </g>
</svg>