<?xml version="1.0" encoding="utf-8"?>
<svg version="1.1" xmlns:xlink="http://www.w3.org/1999/xlink" width="20px" height="10px" xmlns="http://www.w3.org/2000/svg">
  <defs>
    <linearGradient gradientUnits="userSpaceOnUse" x1="10" y1="0" x2="10" y2="10" id="LinearGradient11013">
      <stop id="Stop11014" stop-color="#000000" stop-opacity="0" offset="0" />
      <stop id="Stop11015" stop-color="#000000" stop-opacity="0.37254901960784315" offset="0.37" />
      <stop id="Stop11016" stop-color="#000000" stop-opacity="0.396078431372549" offset="0.4" />
      <stop id="Stop11017" stop-color="#000000" offset="1" />
    </linearGradient>
    <pattern id="BGPattern" patternUnits="userSpaceOnUse" alignment="0 0" imageRepeat="None" />
    <mask fill="white" id="Clip11018">
      <path d="M 5 10  C 2.1999999999999997 10  0 7.800000000000001  0 5  C 0 2.1999999999999997  2.1999999999999997 0  5 0  L 15 0  C 17.8 0  20 2.1999999999999997  20 5  C 20 7.800000000000001  17.8 10  15 10  L 5 10  Z " fill-rule="evenodd" />
    </mask>
  </defs>
  <g transform="matrix(1 0 0 1 -16 -54 )">
    <path d="M 5 10  C 2.1999999999999997 10  0 7.800000000000001  0 5  C 0 2.1999999999999997  2.1999999999999997 0  5 0  L 15 0  C 17.8 0  20 2.1999999999999997  20 5  C 20 7.800000000000001  17.8 10  15 10  L 5 10  Z " fill-rule="nonzero" fill="url(#LinearGradient11013)" stroke="none" transform="matrix(1 0 0 1 16 54 )" class="fill" />
    <path d="M 5 10  C 2.1999999999999997 10  0 7.800000000000001  0 5  C 0 2.1999999999999997  2.1999999999999997 0  5 0  L 15 0  C 17.8 0  20 2.1999999999999997  20 5  C 20 7.800000000000001  17.8 10  15 10  L 5 10  Z " stroke-width="0" stroke-dasharray="0" stroke="rgba(121, 121, 121, 1)" fill="none" transform="matrix(1 0 0 1 16 54 )" class="stroke" mask="url(#Clip11018)" />
  </g>
</svg>