<?xml version="1.0" encoding="utf-8"?>
<svg version="1.1" xmlns:xlink="http://www.w3.org/1999/xlink" width="60px" height="70px" xmlns="http://www.w3.org/2000/svg">
  <defs>
    <linearGradient gradientUnits="userSpaceOnUse" x1="0" y1="35" x2="60" y2="35" id="LinearGradient4288">
      <stop id="Stop4289" stop-color="#ff4025" offset="0" />
      <stop id="Stop4290" stop-color="#a36717" offset="1" />
    </linearGradient>
    <pattern id="BGPattern" patternUnits="userSpaceOnUse" alignment="0 0" imageRepeat="None" />
    <mask fill="white" id="Clip4291">
      <path d="M 0 70  L 0 30  C 0 13.199999999999998  13.2 0  30 0  C 46.800000000000004 0  60 13.199999999999998  60 30  L 60 70  L 0 70  Z " fill-rule="evenodd" />
    </mask>
  </defs>
  <g transform="matrix(1 0 0 1 530 -620 )">
    <path d="M 0 70  L 0 30  C 0 13.199999999999998  13.2 0  30 0  C 46.800000000000004 0  60 13.199999999999998  60 30  L 60 70  L 0 70  Z " fill-rule="nonzero" fill="url(#LinearGradient4288)" stroke="none" transform="matrix(1 0 0 1 -530 620 )" class="fill" />
    <path d="M 0 70  L 0 30  C 0 13.199999999999998  13.2 0  30 0  C 46.800000000000004 0  60 13.199999999999998  60 30  L 60 70  L 0 70  Z " stroke-width="0" stroke-dasharray="0" stroke="rgba(121, 121, 121, 1)" fill="none" transform="matrix(1 0 0 1 -530 620 )" class="stroke" mask="url(#Clip4291)" />
  </g>
</svg>