<?xml version="1.0" encoding="utf-8"?>
<svg version="1.1" xmlns:xlink="http://www.w3.org/1999/xlink" width="14px" height="13px" xmlns="http://www.w3.org/2000/svg">
  <defs>
    <pattern id="BGPattern" patternUnits="userSpaceOnUse" alignment="0 0" imageRepeat="None" />
    <mask fill="white" id="Clip6655">
      <path d="M 10.511798828125 3.8725358072916665  C 9.844953125000002 3.8725358072916665  8.181988281250002 5.581917317708334  6.967652343750002 6.793543836805554  C 5.126583984375001 8.630753038194445  3.3875078125000004 10.415967881944445  1.9956015625000008 10.415967881944445  L 1.1394687500000007 10.415967881944445  C 0.78955078125 10.415967881944445  0.505859375 10.12279079861111  0.505859375 9.76160915798611  C 0.505859375 9.400441623263887  0.789537109375 9.107278645833334  1.13944140625 9.107278645833334  L 1.9956015625 9.107278645833334  C 2.8751816406249997 9.107278645833334  4.6560390625000005 7.280310329861111  6.0869921875 5.852412109375  C 7.82854296875 4.114593098958333  9.3325859375 2.563832465277778  10.511798828124999 2.563832465277778  L 11.328953125 2.563832465277778  L 10.46191015625 1.6956141493055554  C 10.214271484374999 1.4404665798611112  10.213874999999998 1.0514680989583334  10.461062499999999 0.7958268229166667  C 10.70825 0.5401150173611112  11.10941015625 0.5396072048611112  11.357048828124999 0.7948394097222226  L 13.308134765624999 2.804860026041667  C 13.42722072475901 2.927409750841684  13.49414600547948 3.0938146634074735  13.494140625 3.267350260416666  C 13.494140625 3.4409657118055548  13.427244140625 3.6067382812499997  13.3081484375 3.7294455295138884  L 11.35703515625 5.738126085069445  C 11.233400390624997 5.865530598958333  11.071429687499998 5.926129557291667  10.909486328124999 5.926129557291667  C 10.747132812499999 5.926129557291667  10.584792968749998 5.855924479166667  10.461062499999999 5.727941623263889  C 10.213874999999998 5.472328559027778  10.21428515625 5.045808376736111  10.46191015625 4.790674913194445  L 11.328939453124999 3.872521701388888  L 10.511798828124999 3.872521701388888  Z M 13.308134765625 9.24918402777778  L 11.357048828125002 7.2385850694444445  C 11.10941015625 6.9833387586805555  10.708236328125 6.983747829861111  10.4610625 7.239459635416667  C 10.213875 7.495072699652779  10.214285156250002 7.933991970486111  10.461910156250001 8.189111328125  L 11.328939453125 9.107264539930556  L 10.511798828125 9.107264539930556  C 9.991447265625002 9.107264539930556  9.1221484375 8.312298177083335  8.260246093750002 7.480106336805557  C 8.00471875 7.233351779513889  7.603708984375002 7.234748263888891  7.364806640625002 7.498528645833335  C 7.125740234375002 7.762309027777781  7.139125000000002 8.195106336805557  7.394652343750002 8.441790364583335  C 8.707726562500001 9.709882812500002  9.593445312500002 10.415939670138892  10.511798828125 10.415939670138892  L 11.328953125 10.415939670138892  L 10.461910156250001 11.284143880208333  C 10.214271484375 11.539277343750001  10.213875 11.940801866319445  10.4610625 12.196429036458335  C 10.584806640625 12.324397786458334  10.7471328125 12.382161458333336  10.909486328125 12.382161458333336  C 11.0714296875 12.382161458333336  11.233400390625 12.315299479166667  11.357048828125002 12.187880859375001  L 13.308134765625 10.176111111111112  C 13.427216796875 10.053389756944444  13.494126953125 9.886093750000002  13.494126953125003 9.712450086805557  C 13.49413392415951 9.538689075742436  13.427229207564745 9.372043988097408  13.308134765625 9.24918402777778  Z M 0.505859375 3.218205295138889  C 0.505859375 3.579358723958334  0.78955078125 3.8725358072916665  1.13944140625 3.8725358072916665  L 1.9956015625 3.8725358072916665  C 2.6633359375 3.8725358072916665  3.65873046875 4.750205078124999  4.451234375 5.493205295138889  C 4.572640625 5.606969401041666  4.725027343750001 5.675495876736111  4.877072265625 5.675495876736111  C 5.0493925781249995 5.675495876736111  5.221220703125001 5.609522569444444  5.34622265625 5.467433810763889  C 5.5814882812499995 5.200070529513889  5.56223828125 4.764409722222222  5.3032109375 4.5215625  C 4.0639101562499995 3.3597298177083323  3.0271582031250004 2.563846571180555  1.9956015625 2.563846571180555  L 1.13944140625 2.563846571180555  C 0.789537109375 2.563846571180555  0.505859375 2.857051866319444  0.505859375 3.218205295138889  Z " fill-rule="evenodd" />
    </mask>
  </defs>
  <g transform="matrix(1 0 0 1 -706 -1326 )">
    <path d="M 10.511798828125 3.8725358072916665  C 9.844953125000002 3.8725358072916665  8.181988281250002 5.581917317708334  6.967652343750002 6.793543836805554  C 5.126583984375001 8.630753038194445  3.3875078125000004 10.415967881944445  1.9956015625000008 10.415967881944445  L 1.1394687500000007 10.415967881944445  C 0.78955078125 10.415967881944445  0.505859375 10.12279079861111  0.505859375 9.76160915798611  C 0.505859375 9.400441623263887  0.789537109375 9.107278645833334  1.13944140625 9.107278645833334  L 1.9956015625 9.107278645833334  C 2.8751816406249997 9.107278645833334  4.6560390625000005 7.280310329861111  6.0869921875 5.852412109375  C 7.82854296875 4.114593098958333  9.3325859375 2.563832465277778  10.511798828124999 2.563832465277778  L 11.328953125 2.563832465277778  L 10.46191015625 1.6956141493055554  C 10.214271484374999 1.4404665798611112  10.213874999999998 1.0514680989583334  10.461062499999999 0.7958268229166667  C 10.70825 0.5401150173611112  11.10941015625 0.5396072048611112  11.357048828124999 0.7948394097222226  L 13.308134765624999 2.804860026041667  C 13.42722072475901 2.927409750841684  13.49414600547948 3.0938146634074735  13.494140625 3.267350260416666  C 13.494140625 3.4409657118055548  13.427244140625 3.6067382812499997  13.3081484375 3.7294455295138884  L 11.35703515625 5.738126085069445  C 11.233400390624997 5.865530598958333  11.071429687499998 5.926129557291667  10.909486328124999 5.926129557291667  C 10.747132812499999 5.926129557291667  10.584792968749998 5.855924479166667  10.461062499999999 5.727941623263889  C 10.213874999999998 5.472328559027778  10.21428515625 5.045808376736111  10.46191015625 4.790674913194445  L 11.328939453124999 3.872521701388888  L 10.511798828124999 3.872521701388888  Z M 13.308134765625 9.24918402777778  L 11.357048828125002 7.2385850694444445  C 11.10941015625 6.9833387586805555  10.708236328125 6.983747829861111  10.4610625 7.239459635416667  C 10.213875 7.495072699652779  10.214285156250002 7.933991970486111  10.461910156250001 8.189111328125  L 11.328939453125 9.107264539930556  L 10.511798828125 9.107264539930556  C 9.991447265625002 9.107264539930556  9.1221484375 8.312298177083335  8.260246093750002 7.480106336805557  C 8.00471875 7.233351779513889  7.603708984375002 7.234748263888891  7.364806640625002 7.498528645833335  C 7.125740234375002 7.762309027777781  7.139125000000002 8.195106336805557  7.394652343750002 8.441790364583335  C 8.707726562500001 9.709882812500002  9.593445312500002 10.415939670138892  10.511798828125 10.415939670138892  L 11.328953125 10.415939670138892  L 10.461910156250001 11.284143880208333  C 10.214271484375 11.539277343750001  10.213875 11.940801866319445  10.4610625 12.196429036458335  C 10.584806640625 12.324397786458334  10.7471328125 12.382161458333336  10.909486328125 12.382161458333336  C 11.0714296875 12.382161458333336  11.233400390625 12.315299479166667  11.357048828125002 12.187880859375001  L 13.308134765625 10.176111111111112  C 13.427216796875 10.053389756944444  13.494126953125 9.886093750000002  13.494126953125003 9.712450086805557  C 13.49413392415951 9.538689075742436  13.427229207564745 9.372043988097408  13.308134765625 9.24918402777778  Z M 0.505859375 3.218205295138889  C 0.505859375 3.579358723958334  0.78955078125 3.8725358072916665  1.13944140625 3.8725358072916665  L 1.9956015625 3.8725358072916665  C 2.6633359375 3.8725358072916665  3.65873046875 4.750205078124999  4.451234375 5.493205295138889  C 4.572640625 5.606969401041666  4.725027343750001 5.675495876736111  4.877072265625 5.675495876736111  C 5.0493925781249995 5.675495876736111  5.221220703125001 5.609522569444444  5.34622265625 5.467433810763889  C 5.5814882812499995 5.200070529513889  5.56223828125 4.764409722222222  5.3032109375 4.5215625  C 4.0639101562499995 3.3597298177083323  3.0271582031250004 2.563846571180555  1.9956015625 2.563846571180555  L 1.13944140625 2.563846571180555  C 0.789537109375 2.563846571180555  0.505859375 2.857051866319444  0.505859375 3.218205295138889  Z " fill-rule="nonzero" fill="rgba(255, 255, 255, 1)" stroke="none" transform="matrix(1 0 0 1 706 1326 )" class="fill" />
    <path d="M 10.511798828125 3.8725358072916665  C 9.844953125000002 3.8725358072916665  8.181988281250002 5.581917317708334  6.967652343750002 6.793543836805554  C 5.126583984375001 8.630753038194445  3.3875078125000004 10.415967881944445  1.9956015625000008 10.415967881944445  L 1.1394687500000007 10.415967881944445  C 0.78955078125 10.415967881944445  0.505859375 10.12279079861111  0.505859375 9.76160915798611  C 0.505859375 9.400441623263887  0.789537109375 9.107278645833334  1.13944140625 9.107278645833334  L 1.9956015625 9.107278645833334  C 2.8751816406249997 9.107278645833334  4.6560390625000005 7.280310329861111  6.0869921875 5.852412109375  C 7.82854296875 4.114593098958333  9.3325859375 2.563832465277778  10.511798828124999 2.563832465277778  L 11.328953125 2.563832465277778  L 10.46191015625 1.6956141493055554  C 10.214271484374999 1.4404665798611112  10.213874999999998 1.0514680989583334  10.461062499999999 0.7958268229166667  C 10.70825 0.5401150173611112  11.10941015625 0.5396072048611112  11.357048828124999 0.7948394097222226  L 13.308134765624999 2.804860026041667  C 13.42722072475901 2.927409750841684  13.49414600547948 3.0938146634074735  13.494140625 3.267350260416666  C 13.494140625 3.4409657118055548  13.427244140625 3.6067382812499997  13.3081484375 3.7294455295138884  L 11.35703515625 5.738126085069445  C 11.233400390624997 5.865530598958333  11.071429687499998 5.926129557291667  10.909486328124999 5.926129557291667  C 10.747132812499999 5.926129557291667  10.584792968749998 5.855924479166667  10.461062499999999 5.727941623263889  C 10.213874999999998 5.472328559027778  10.21428515625 5.045808376736111  10.46191015625 4.790674913194445  L 11.328939453124999 3.872521701388888  L 10.511798828124999 3.872521701388888  Z " stroke-width="0" stroke-dasharray="0" stroke="rgba(255, 255, 255, 0)" fill="none" transform="matrix(1 0 0 1 706 1326 )" class="stroke" mask="url(#Clip6655)" />
    <path d="M 13.308134765625 9.24918402777778  L 11.357048828125002 7.2385850694444445  C 11.10941015625 6.9833387586805555  10.708236328125 6.983747829861111  10.4610625 7.239459635416667  C 10.213875 7.495072699652779  10.214285156250002 7.933991970486111  10.461910156250001 8.189111328125  L 11.328939453125 9.107264539930556  L 10.511798828125 9.107264539930556  C 9.991447265625002 9.107264539930556  9.1221484375 8.312298177083335  8.260246093750002 7.480106336805557  C 8.00471875 7.233351779513889  7.603708984375002 7.234748263888891  7.364806640625002 7.498528645833335  C 7.125740234375002 7.762309027777781  7.139125000000002 8.195106336805557  7.394652343750002 8.441790364583335  C 8.707726562500001 9.709882812500002  9.593445312500002 10.415939670138892  10.511798828125 10.415939670138892  L 11.328953125 10.415939670138892  L 10.461910156250001 11.284143880208333  C 10.214271484375 11.539277343750001  10.213875 11.940801866319445  10.4610625 12.196429036458335  C 10.584806640625 12.324397786458334  10.7471328125 12.382161458333336  10.909486328125 12.382161458333336  C 11.0714296875 12.382161458333336  11.233400390625 12.315299479166667  11.357048828125002 12.187880859375001  L 13.308134765625 10.176111111111112  C 13.427216796875 10.053389756944444  13.494126953125 9.886093750000002  13.494126953125003 9.712450086805557  C 13.49413392415951 9.538689075742436  13.427229207564745 9.372043988097408  13.308134765625 9.24918402777778  Z " stroke-width="0" stroke-dasharray="0" stroke="rgba(255, 255, 255, 0)" fill="none" transform="matrix(1 0 0 1 706 1326 )" class="stroke" mask="url(#Clip6655)" />
    <path d="M 0.505859375 3.218205295138889  C 0.505859375 3.579358723958334  0.78955078125 3.8725358072916665  1.13944140625 3.8725358072916665  L 1.9956015625 3.8725358072916665  C 2.6633359375 3.8725358072916665  3.65873046875 4.750205078124999  4.451234375 5.493205295138889  C 4.572640625 5.606969401041666  4.725027343750001 5.675495876736111  4.877072265625 5.675495876736111  C 5.0493925781249995 5.675495876736111  5.221220703125001 5.609522569444444  5.34622265625 5.467433810763889  C 5.5814882812499995 5.200070529513889  5.56223828125 4.764409722222222  5.3032109375 4.5215625  C 4.0639101562499995 3.3597298177083323  3.0271582031250004 2.563846571180555  1.9956015625 2.563846571180555  L 1.13944140625 2.563846571180555  C 0.789537109375 2.563846571180555  0.505859375 2.857051866319444  0.505859375 3.218205295138889  Z " stroke-width="0" stroke-dasharray="0" stroke="rgba(255, 255, 255, 0)" fill="none" transform="matrix(1 0 0 1 706 1326 )" class="stroke" mask="url(#Clip6655)" />
  </g>
</svg>