<?xml version="1.0" encoding="utf-8"?>
<svg version="1.1" xmlns:xlink="http://www.w3.org/1999/xlink" width="333px" height="368px" xmlns="http://www.w3.org/2000/svg">
  <defs>
    <linearGradient gradientUnits="userSpaceOnUse" x1="333" y1="184" x2="0" y2="184" id="LinearGradient9453">
      <stop id="Stop9454" stop-color="#02a7f0" stop-opacity="0.4980392156862745" offset="0" />
      <stop id="Stop9455" stop-color="#8080ff" stop-opacity="0.4980392156862745" offset="1" />
    </linearGradient>
    <pattern id="BGPattern" patternUnits="userSpaceOnUse" alignment="0 0" imageRepeat="None" />
    <mask fill="white" id="Clip9456">
      <path d="M 0 363  L 0 5  C 0 2.1999999999999997  2.1999999999999997 0  5 0  L 328 0  C 330.8 0  333 2.1999999999999997  333 5  L 333 363  C 333 365.8  330.8 368  328 368  L 5 368  C 2.1999999999999997 368  0 365.8  0 363  Z " fill-rule="evenodd" />
    </mask>
  </defs>
  <g transform="matrix(1 0 0 1 -13 -929 )">
    <path d="M 0 363  L 0 5  C 0 2.1999999999999997  2.1999999999999997 0  5 0  L 328 0  C 330.8 0  333 2.1999999999999997  333 5  L 333 363  C 333 365.8  330.8 368  328 368  L 5 368  C 2.1999999999999997 368  0 365.8  0 363  Z " fill-rule="nonzero" fill="url(#LinearGradient9453)" stroke="none" transform="matrix(1 0 0 1 13 929 )" class="fill" />
    <path d="M 0 363  L 0 5  C 0 2.1999999999999997  2.1999999999999997 0  5 0  L 328 0  C 330.8 0  333 2.1999999999999997  333 5  L 333 363  C 333 365.8  330.8 368  328 368  L 5 368  C 2.1999999999999997 368  0 365.8  0 363  Z " stroke-width="0" stroke-dasharray="0" stroke="rgba(121, 121, 121, 1)" fill="none" transform="matrix(1 0 0 1 13 929 )" class="stroke" mask="url(#Clip9456)" />
  </g>
</svg>