<?xml version="1.0" encoding="utf-8"?>
<svg version="1.1" xmlns:xlink="http://www.w3.org/1999/xlink" width="32px" height="36px" xmlns="http://www.w3.org/2000/svg">
  <defs>
    <pattern id="BGPattern" patternUnits="userSpaceOnUse" alignment="0 0" imageRepeat="None" />
    <mask fill="white" id="Clip4292">
      <path d="M 14.548083345703123 1.2657499999999997  L 16.012666654296872 0.19700000000000006  L 16.949999999999996 0.9000000000000004  C 20.447529182769546 3.523834089399287  24.643171513345695 5.0542298885453985  29.008666654296874 5.298500000000001  L 29.629333345703124 5.325416654296876  L 31.833333345703124 5.353916654296874  L 31.833333345703124 23.384916654296873  C 31.833231437891108 26.383475213743306  30.139012698490724 29.12462796615122  27.457 30.465583345703124  L 27.132416654296875 30.619166654296876  L 16 35.5655  L 4.869166654296876 30.619166654296876  C 2.128485222179732 29.401709477874398  0.31100040770967174 26.740151610212465  0.1745833457031254 23.744333345703122  L 0.16666665429687466 23.38333334570313  L 0.16666665429687466 5.3333333457031245  L 1.75 5.3333333457031245  C 6.13425 5.3333333457031245  10.414 4.0334166914062495  14.036666654296873 1.6172499999999999  L 14.548083345703123 1.2657499999999997  Z M 16.166249999999998 4.223416654296876  L 16 4.109416654296876  L 15.833749999999998 4.223416654296876  C 12.445980407009039 6.489750028579159  8.561387582786505 7.905193115914269  4.5097499999999995 8.349583345703126  L 3.795666654296874 8.417666654296875  L 3.3333333457031245 8.447750000000001  L 3.3333333457031245 23.384916654296873  C 3.333029003605196 25.039538411276048  4.1937770689126115 26.575088988213025  5.605416654296874 27.43825  L 5.874583345703124 27.588666654296873  L 6.154833345703125 27.724833345703125  L 16 32.099583345703124  L 25.845166654296875 27.724833345703125  C 27.3575646850935 27.05330907923115  28.411480254641003 25.643089672037675  28.627083345703124 24.002416654296873  L 28.657166654296873 23.695249999999998  L 28.666666654296872 23.384916654296873  L 28.666666654296872 8.447750000000001  L 28.202749999999995 8.416083345703127  C 24.14098810127465 8.08753534476874  20.218424347613897 6.783997128401818  16.767916654296872 4.616083345703125  L 16.166249999999998 4.223416654296876  Z M 14.954999999999998 8.772333345703125  L 16.741 8.772333345703125  C 18.297416654296875 11.22175  20.677166654296876 13.368749999999999  24.008499999999998 15.118333345703125  L 24.645000000000003 15.441333345703125  L 23.372000000000003 17.873333345703124  C 23.11007954250075 17.754639323364234  22.85187398950228 17.627912671585847  22.59775 17.493333345703125  L 22.213 17.284333345703125  L 22.213 19.77333334570313  L 20.618583345703126 21.260083345703126  C 19.864916691406247 21.95516669140625  19.070083345703125 22.67558334570313  18.299 23.326333345703127  L 19.405749999999998 23.92325  L 19.730333345703123 24.102166654296873  L 20.028 24.276333345703126  L 18.849999999999998 26.632333345703124  C 16.908833345703123 25.403666691406247  13.146833345703122 23.48941669140625  10.914333345703124 22.582166654296874  L 10.489999999999998 22.414333345703124  L 11.592 20.172333345703127  C 12.732000000000001 20.628333345703126  14.328 21.350333345703127  15.924 22.129333345703127  L 16.709333345703126 21.489666654296876  C 17.371166691406252 20.943416654296875  18.02983334570313 20.37975  18.553916654296877 19.94275  L 18.85 19.69733334570313  L 9.255 19.69733334570313  L 9.255 17.246333345703125  L 8.495 17.683333345703122  L 6.899000000000001 15.479333345703125  C 10.065666654296875 13.92291669140625  12.792166654296874 11.695166691406248  14.622499999999999 9.236249999999998  L 14.954999999999998 8.772333345703125  Z M 22.118 17.227333345703126  C 19.552999999999997 15.764333345703125  16.968999999999994 13.389333345703127  15.847999999999999 11.698333345703125  C 14.654166654296873 13.265833345703125  12.475499999999998 15.23391669140625  9.812333345703124 16.898  L 9.273999999999997 17.227333345703123  L 15.790999999999997 17.227333345703123  L 15.300166654296874 16.576583345703124  C 14.881447819921586 16.022233808065543  14.439843630942331 15.48554736417098  13.976499999999998 14.967916654296873  L 13.738999999999997 14.719333345703124  L 15.505999999999997 13.180333345703124  L 16.077583345703122 13.813666654296874  C 16.60325 14.40425  17.217583345703122 15.121499999999997  17.681499999999996 15.723166654296875  L 17.938 16.068333345703124  L 16.531999999999996 17.227333345703126  L 22.118 17.227333345703126  Z " fill-rule="evenodd" />
    </mask>
  </defs>
  <g transform="matrix(1 0 0 1 516 -630 )">
    <path d="M 14.548083345703123 1.2657499999999997  L 16.012666654296872 0.19700000000000006  L 16.949999999999996 0.9000000000000004  C 20.447529182769546 3.523834089399287  24.643171513345695 5.0542298885453985  29.008666654296874 5.298500000000001  L 29.629333345703124 5.325416654296876  L 31.833333345703124 5.353916654296874  L 31.833333345703124 23.384916654296873  C 31.833231437891108 26.383475213743306  30.139012698490724 29.12462796615122  27.457 30.465583345703124  L 27.132416654296875 30.619166654296876  L 16 35.5655  L 4.869166654296876 30.619166654296876  C 2.128485222179732 29.401709477874398  0.31100040770967174 26.740151610212465  0.1745833457031254 23.744333345703122  L 0.16666665429687466 23.38333334570313  L 0.16666665429687466 5.3333333457031245  L 1.75 5.3333333457031245  C 6.13425 5.3333333457031245  10.414 4.0334166914062495  14.036666654296873 1.6172499999999999  L 14.548083345703123 1.2657499999999997  Z M 16.166249999999998 4.223416654296876  L 16 4.109416654296876  L 15.833749999999998 4.223416654296876  C 12.445980407009039 6.489750028579159  8.561387582786505 7.905193115914269  4.5097499999999995 8.349583345703126  L 3.795666654296874 8.417666654296875  L 3.3333333457031245 8.447750000000001  L 3.3333333457031245 23.384916654296873  C 3.333029003605196 25.039538411276048  4.1937770689126115 26.575088988213025  5.605416654296874 27.43825  L 5.874583345703124 27.588666654296873  L 6.154833345703125 27.724833345703125  L 16 32.099583345703124  L 25.845166654296875 27.724833345703125  C 27.3575646850935 27.05330907923115  28.411480254641003 25.643089672037675  28.627083345703124 24.002416654296873  L 28.657166654296873 23.695249999999998  L 28.666666654296872 23.384916654296873  L 28.666666654296872 8.447750000000001  L 28.202749999999995 8.416083345703127  C 24.14098810127465 8.08753534476874  20.218424347613897 6.783997128401818  16.767916654296872 4.616083345703125  L 16.166249999999998 4.223416654296876  Z M 14.954999999999998 8.772333345703125  L 16.741 8.772333345703125  C 18.297416654296875 11.22175  20.677166654296876 13.368749999999999  24.008499999999998 15.118333345703125  L 24.645000000000003 15.441333345703125  L 23.372000000000003 17.873333345703124  C 23.11007954250075 17.754639323364234  22.85187398950228 17.627912671585847  22.59775 17.493333345703125  L 22.213 17.284333345703125  L 22.213 19.77333334570313  L 20.618583345703126 21.260083345703126  C 19.864916691406247 21.95516669140625  19.070083345703125 22.67558334570313  18.299 23.326333345703127  L 19.405749999999998 23.92325  L 19.730333345703123 24.102166654296873  L 20.028 24.276333345703126  L 18.849999999999998 26.632333345703124  C 16.908833345703123 25.403666691406247  13.146833345703122 23.48941669140625  10.914333345703124 22.582166654296874  L 10.489999999999998 22.414333345703124  L 11.592 20.172333345703127  C 12.732000000000001 20.628333345703126  14.328 21.350333345703127  15.924 22.129333345703127  L 16.709333345703126 21.489666654296876  C 17.371166691406252 20.943416654296875  18.02983334570313 20.37975  18.553916654296877 19.94275  L 18.85 19.69733334570313  L 9.255 19.69733334570313  L 9.255 17.246333345703125  L 8.495 17.683333345703122  L 6.899000000000001 15.479333345703125  C 10.065666654296875 13.92291669140625  12.792166654296874 11.695166691406248  14.622499999999999 9.236249999999998  L 14.954999999999998 8.772333345703125  Z M 22.118 17.227333345703126  C 19.552999999999997 15.764333345703125  16.968999999999994 13.389333345703127  15.847999999999999 11.698333345703125  C 14.654166654296873 13.265833345703125  12.475499999999998 15.23391669140625  9.812333345703124 16.898  L 9.273999999999997 17.227333345703123  L 15.790999999999997 17.227333345703123  L 15.300166654296874 16.576583345703124  C 14.881447819921586 16.022233808065543  14.439843630942331 15.48554736417098  13.976499999999998 14.967916654296873  L 13.738999999999997 14.719333345703124  L 15.505999999999997 13.180333345703124  L 16.077583345703122 13.813666654296874  C 16.60325 14.40425  17.217583345703122 15.121499999999997  17.681499999999996 15.723166654296875  L 17.938 16.068333345703124  L 16.531999999999996 17.227333345703126  L 22.118 17.227333345703126  Z " fill-rule="nonzero" fill="rgba(255, 255, 255, 1)" stroke="none" transform="matrix(1 0 0 1 -516 630 )" class="fill" />
    <path d="M 14.548083345703123 1.2657499999999997  L 16.012666654296872 0.19700000000000006  L 16.949999999999996 0.9000000000000004  C 20.447529182769546 3.523834089399287  24.643171513345695 5.0542298885453985  29.008666654296874 5.298500000000001  L 29.629333345703124 5.325416654296876  L 31.833333345703124 5.353916654296874  L 31.833333345703124 23.384916654296873  C 31.833231437891108 26.383475213743306  30.139012698490724 29.12462796615122  27.457 30.465583345703124  L 27.132416654296875 30.619166654296876  L 16 35.5655  L 4.869166654296876 30.619166654296876  C 2.128485222179732 29.401709477874398  0.31100040770967174 26.740151610212465  0.1745833457031254 23.744333345703122  L 0.16666665429687466 23.38333334570313  L 0.16666665429687466 5.3333333457031245  L 1.75 5.3333333457031245  C 6.13425 5.3333333457031245  10.414 4.0334166914062495  14.036666654296873 1.6172499999999999  L 14.548083345703123 1.2657499999999997  Z " stroke-width="0" stroke-dasharray="0" stroke="rgba(255, 255, 255, 0)" fill="none" transform="matrix(1 0 0 1 -516 630 )" class="stroke" mask="url(#Clip4292)" />
    <path d="M 16.166249999999998 4.223416654296876  L 16 4.109416654296876  L 15.833749999999998 4.223416654296876  C 12.445980407009039 6.489750028579159  8.561387582786505 7.905193115914269  4.5097499999999995 8.349583345703126  L 3.795666654296874 8.417666654296875  L 3.3333333457031245 8.447750000000001  L 3.3333333457031245 23.384916654296873  C 3.333029003605196 25.039538411276048  4.1937770689126115 26.575088988213025  5.605416654296874 27.43825  L 5.874583345703124 27.588666654296873  L 6.154833345703125 27.724833345703125  L 16 32.099583345703124  L 25.845166654296875 27.724833345703125  C 27.3575646850935 27.05330907923115  28.411480254641003 25.643089672037675  28.627083345703124 24.002416654296873  L 28.657166654296873 23.695249999999998  L 28.666666654296872 23.384916654296873  L 28.666666654296872 8.447750000000001  L 28.202749999999995 8.416083345703127  C 24.14098810127465 8.08753534476874  20.218424347613897 6.783997128401818  16.767916654296872 4.616083345703125  L 16.166249999999998 4.223416654296876  Z " stroke-width="0" stroke-dasharray="0" stroke="rgba(255, 255, 255, 0)" fill="none" transform="matrix(1 0 0 1 -516 630 )" class="stroke" mask="url(#Clip4292)" />
    <path d="M 14.954999999999998 8.772333345703125  L 16.741 8.772333345703125  C 18.297416654296875 11.22175  20.677166654296876 13.368749999999999  24.008499999999998 15.118333345703125  L 24.645000000000003 15.441333345703125  L 23.372000000000003 17.873333345703124  C 23.11007954250075 17.754639323364234  22.85187398950228 17.627912671585847  22.59775 17.493333345703125  L 22.213 17.284333345703125  L 22.213 19.77333334570313  L 20.618583345703126 21.260083345703126  C 19.864916691406247 21.95516669140625  19.070083345703125 22.67558334570313  18.299 23.326333345703127  L 19.405749999999998 23.92325  L 19.730333345703123 24.102166654296873  L 20.028 24.276333345703126  L 18.849999999999998 26.632333345703124  C 16.908833345703123 25.403666691406247  13.146833345703122 23.48941669140625  10.914333345703124 22.582166654296874  L 10.489999999999998 22.414333345703124  L 11.592 20.172333345703127  C 12.732000000000001 20.628333345703126  14.328 21.350333345703127  15.924 22.129333345703127  L 16.709333345703126 21.489666654296876  C 17.371166691406252 20.943416654296875  18.02983334570313 20.37975  18.553916654296877 19.94275  L 18.85 19.69733334570313  L 9.255 19.69733334570313  L 9.255 17.246333345703125  L 8.495 17.683333345703122  L 6.899000000000001 15.479333345703125  C 10.065666654296875 13.92291669140625  12.792166654296874 11.695166691406248  14.622499999999999 9.236249999999998  L 14.954999999999998 8.772333345703125  Z " stroke-width="0" stroke-dasharray="0" stroke="rgba(255, 255, 255, 0)" fill="none" transform="matrix(1 0 0 1 -516 630 )" class="stroke" mask="url(#Clip4292)" />
    <path d="M 22.118 17.227333345703126  C 19.552999999999997 15.764333345703125  16.968999999999994 13.389333345703127  15.847999999999999 11.698333345703125  C 14.654166654296873 13.265833345703125  12.475499999999998 15.23391669140625  9.812333345703124 16.898  L 9.273999999999997 17.227333345703123  L 15.790999999999997 17.227333345703123  L 15.300166654296874 16.576583345703124  C 14.881447819921586 16.022233808065543  14.439843630942331 15.48554736417098  13.976499999999998 14.967916654296873  L 13.738999999999997 14.719333345703124  L 15.505999999999997 13.180333345703124  L 16.077583345703122 13.813666654296874  C 16.60325 14.40425  17.217583345703122 15.121499999999997  17.681499999999996 15.723166654296875  L 17.938 16.068333345703124  L 16.531999999999996 17.227333345703126  L 22.118 17.227333345703126  Z " stroke-width="0" stroke-dasharray="0" stroke="rgba(255, 255, 255, 0)" fill="none" transform="matrix(1 0 0 1 -516 630 )" class="stroke" mask="url(#Clip4292)" />
  </g>
</svg>