<?xml version="1.0" encoding="utf-8"?>
<svg version="1.1" xmlns:xlink="http://www.w3.org/1999/xlink" width="4px" height="10px" xmlns="http://www.w3.org/2000/svg">
  <defs>
    <pattern id="BGPattern" patternUnits="userSpaceOnUse" alignment="0 0" imageRepeat="None" />
    <mask fill="white" id="Clip4342">
      <path d="M 1.4178571484375002 9.16071427734375  C 1.281997238788854 9.303238708543729  1.0933286793055963 9.383358234384591  0.896428574218751 9.3821428515625  C 0.5029282549578955 9.38075095057056  0.18466942838463396 9.061364378423356  0.18466942838463396 8.667861597433483  C 0.18466942838463396 8.48602974508212  0.2540154736925153 8.3110426956053  0.37857142578125114 8.178571425781252  C 2.0567816362653595 6.391794481481128  2.0567816362653613 3.6082055185188757  0.37857142578125114 1.8214285742187535  C 0.2531336137954998 1.688692560439665  0.1832458622484534 1.5129865382676595  0.1832458622484534 1.3303571484375034  C 0.1832458622484534 0.9354909907762696  0.5033481294481472 0.6153887235765785  0.8982142871093792 0.6153887235765785  C 1.0948474099690042 0.6153887235765785  1.2828009632398398 0.6963717210840334  1.4178571484375002 0.8392857226562525  C 3.61760519947347 3.1769719728459336  3.61760519947347 6.823028027154072  1.4178571484375002 9.16071427734375  Z " fill-rule="evenodd" />
    </mask>
  </defs>
  <g transform="matrix(1 0 0 1 -50 -94 )">
    <path d="M 1.4178571484375002 9.16071427734375  C 1.281997238788854 9.303238708543729  1.0933286793055963 9.383358234384591  0.896428574218751 9.3821428515625  C 0.5029282549578955 9.38075095057056  0.18466942838463396 9.061364378423356  0.18466942838463396 8.667861597433483  C 0.18466942838463396 8.48602974508212  0.2540154736925153 8.3110426956053  0.37857142578125114 8.178571425781252  C 2.0567816362653595 6.391794481481128  2.0567816362653613 3.6082055185188757  0.37857142578125114 1.8214285742187535  C 0.2531336137954998 1.688692560439665  0.1832458622484534 1.5129865382676595  0.1832458622484534 1.3303571484375034  C 0.1832458622484534 0.9354909907762696  0.5033481294481472 0.6153887235765785  0.8982142871093792 0.6153887235765785  C 1.0948474099690042 0.6153887235765785  1.2828009632398398 0.6963717210840334  1.4178571484375002 0.8392857226562525  C 3.61760519947347 3.1769719728459336  3.61760519947347 6.823028027154072  1.4178571484375002 9.16071427734375  Z " fill-rule="nonzero" fill="rgba(255, 255, 255, 1)" stroke="none" transform="matrix(1 0 0 1 50 94 )" class="fill" />
    <path d="M 1.4178571484375002 9.16071427734375  C 1.281997238788854 9.303238708543729  1.0933286793055963 9.383358234384591  0.896428574218751 9.3821428515625  C 0.5029282549578955 9.38075095057056  0.18466942838463396 9.061364378423356  0.18466942838463396 8.667861597433483  C 0.18466942838463396 8.48602974508212  0.2540154736925153 8.3110426956053  0.37857142578125114 8.178571425781252  C 2.0567816362653595 6.391794481481128  2.0567816362653613 3.6082055185188757  0.37857142578125114 1.8214285742187535  C 0.2531336137954998 1.688692560439665  0.1832458622484534 1.5129865382676595  0.1832458622484534 1.3303571484375034  C 0.1832458622484534 0.9354909907762696  0.5033481294481472 0.6153887235765785  0.8982142871093792 0.6153887235765785  C 1.0948474099690042 0.6153887235765785  1.2828009632398398 0.6963717210840334  1.4178571484375002 0.8392857226562525  C 3.61760519947347 3.1769719728459336  3.61760519947347 6.823028027154072  1.4178571484375002 9.16071427734375  Z " stroke-width="0" stroke-dasharray="0" stroke="rgba(255, 255, 255, 0)" fill="none" transform="matrix(1 0 0 1 50 94 )" class="stroke" mask="url(#Clip4342)" />
  </g>
</svg>