<?xml version="1.0" encoding="utf-8"?>
<svg version="1.1" xmlns:xlink="http://www.w3.org/1999/xlink" width="12px" height="14px" xmlns="http://www.w3.org/2000/svg">
  <defs>
    <pattern id="BGPattern" patternUnits="userSpaceOnUse" alignment="0 0" imageRepeat="None" />
    <mask fill="white" id="Clip9504">
      <path d="M 11.67041015625 7.750434027777779  C 11.82568359375 7.487630208333333  11.83740234375 7.165581597222221  11.70263671875 6.890625  L 10.5849609375 4.611979166666666  C 10.388671875 4.212456597222221  9.9990234375 3.96484375  9.56689453125 3.96484375  L 7.8603515625 3.96484375  C 7.84423828125 3.96484375  7.8310546875 3.951171875  7.8310546875 3.9344618055555554  L 7.8310546875 1.0542534722222223  C 7.8310546875 0.5818142361111112  7.46044921875 0.1990017361111111  7.00634765625 0.1990017361111111  L 5.68798828125 0.1990017361111111  C 5.232421875 0.1990017361111111  4.86328125 0.5833333333333333  4.86328125 1.0542534722222223  L 4.86328125 3.9344618055555554  C 4.86328125 3.951171875  4.850097656250002 3.96484375  4.833984375 3.96484375  L 3.1259765625 3.96484375  C 2.69384765625 3.96484375  2.30419921875 4.212456597222221  2.10791015625 4.611979166666666  L 0.990234375 6.890625  C 0.85546875 7.165581597222221  0.8671875 7.487630208333333  1.0224609375 7.750434027777779  C 1.17333984375 8.005642361111109  1.43115234375 8.160590277777779  1.716796875 8.16970486111111  C 1.646484375 9.703993055555557  1.15576171875 11.297526041666668  0.39550781249999967 12.415581597222221  C 0.21240234374999967 12.685980902777779  0.18896484374999967 13.03537326388889  0.33544921874999967 13.328559027777779  C 0.48193359374999967 13.621744791666668  0.7705078124999997 13.804036458333332  1.0898437499999996 13.804036458333332  L 9.90087890625 13.804036458333332  C 10.41357421875 13.804036458333332  10.86767578125 13.44552951388889  11.00244140625 12.932074652777779  C 11.2294921875 12.073784722222221  11.41845703125 11.29296875  11.43310546875 10.427083333333332  C 11.44921875 9.628038194444443  11.302734375 8.883680555555557  10.99365234375 8.16970486111111  C 11.27197265625 8.152994791666668  11.5224609375 7.999565972222221  11.67041015625 7.750434027777779  Z M 1.72265625 7.306857638888889  C 1.7138671875 7.291666666666667  1.71826171875 7.281032986111111  1.72119140625 7.276475694444444  L 2.8388671875 4.997829861111112  C 2.89453125 4.885416666666668  3.00439453125 4.8155381944444455  3.1259765625 4.8155381944444455  L 4.8310546875 4.8155381944444455  C 5.2998046875 4.8155381944444455  5.6806640625 4.420572916666667  5.6806640625 3.9344618055555562  L 5.6806640625 1.0542534722222223  C 5.6806640625 1.052734375  5.68359375 1.0496961805555554  5.685058593750002 1.0496961805555554  L 7.00341796875 1.0496961805555554  C 7.0048828125 1.0496961805555554  7.0078125 1.052734375  7.0078125 1.0542534722222223  L 7.0078125 3.9344618055555554  C 7.0078125 4.420572916666666  7.388671875 4.815538194444445  7.857421875 4.815538194444445  L 9.562499999999998 4.815538194444445  C 9.684082031249998 4.815538194444445  9.793945312499998 4.885416666666666  9.849609375 4.997829861111111  L 10.96728515625 7.276475694444444  C 10.97021484375 7.281032986111111  10.974609375 7.291666666666667  10.965820312499996 7.306857638888889  C 10.957031249999996 7.322048611111111  10.94677734375 7.322048611111111  10.940917968749996 7.322048611111111  L 1.74755859375 7.322048611111111  C 1.74169921875 7.322048611111111  1.7314453125 7.322048611111111  1.72265625 7.306857638888889  Z M 10.07666015625 8.172743055555557  C 10.453125 8.877604166666668  10.62890625 9.612847222222221  10.6142578125 10.41189236111111  C 10.60107421875 11.179036458333332  10.42529296875 11.905164930555557  10.212890625 12.70724826388889  C 10.1748046875 12.8515625  10.047363281250002 12.95334201388889  9.90234375 12.95334201388889  L 8.0478515625 12.95334201388889  C 8.213378906249998 12.614583333333336  8.31884765625 12.28493923611111  8.38623046875 12.02365451388889  C 8.490234375 11.618055555555557  8.54296875 11.2109375  8.54150390625 10.838758680555557  C 8.5400390625 10.578993055555557  8.314453125 10.381510416666668  8.06689453125 10.422526041666668  C 7.86767578125 10.455946180555557  7.72119140625 10.63519965277778  7.72119140625 10.844835069444443  C 7.72265625 11.493489583333334  7.5146484375 12.336588541666668  7.095703125 12.95334201388889  L 4.4501953125 12.95334201388889  C 4.6728515625 12.623697916666668  4.83251953125 12.287977430555557  4.9423828125 12.013020833333336  C 5.0888671875 11.643880208333336  5.197265625 11.258029513888891  5.2529296875 10.911675347222223  C 5.2939453125 10.653428819444445  5.1005859375 10.417968750000002  4.8486328125 10.417968750000002  C 4.6494140625 10.417968750000002  4.478027343749999 10.56684027777778  4.444335937499999 10.77191840277778  C 4.403320312499999 11.024088541666668  4.322753906249999 11.344618055555557  4.185058593749999 11.689453125  C 4.037109374999999 12.063151041666668  3.777832031249999 12.57204861111111  3.370605468749999 12.95486111111111  L 1.09130859375 12.95486111111111  C 1.083984375 12.95486111111111  1.0737304687500004 12.95486111111111  1.06494140625 12.938151041666668  C 1.05615234375 12.921440972222221  1.06201171875 12.91384548611111  1.06640625 12.907769097222221  C 1.50146484375 12.268229166666668  1.869140625 11.472222222222221  2.12841796875 10.607855902777779  C 2.36572265625 9.81640625  2.5048828125 8.983940972222221  2.53857421875 8.172743055555557  L 10.07666015625 8.172743055555557  Z " fill-rule="evenodd" />
    </mask>
  </defs>
  <g transform="matrix(1 0 0 1 -752 -25 )">
    <path d="M 11.67041015625 7.750434027777779  C 11.82568359375 7.487630208333333  11.83740234375 7.165581597222221  11.70263671875 6.890625  L 10.5849609375 4.611979166666666  C 10.388671875 4.212456597222221  9.9990234375 3.96484375  9.56689453125 3.96484375  L 7.8603515625 3.96484375  C 7.84423828125 3.96484375  7.8310546875 3.951171875  7.8310546875 3.9344618055555554  L 7.8310546875 1.0542534722222223  C 7.8310546875 0.5818142361111112  7.46044921875 0.1990017361111111  7.00634765625 0.1990017361111111  L 5.68798828125 0.1990017361111111  C 5.232421875 0.1990017361111111  4.86328125 0.5833333333333333  4.86328125 1.0542534722222223  L 4.86328125 3.9344618055555554  C 4.86328125 3.951171875  4.850097656250002 3.96484375  4.833984375 3.96484375  L 3.1259765625 3.96484375  C 2.69384765625 3.96484375  2.30419921875 4.212456597222221  2.10791015625 4.611979166666666  L 0.990234375 6.890625  C 0.85546875 7.165581597222221  0.8671875 7.487630208333333  1.0224609375 7.750434027777779  C 1.17333984375 8.005642361111109  1.43115234375 8.160590277777779  1.716796875 8.16970486111111  C 1.646484375 9.703993055555557  1.15576171875 11.297526041666668  0.39550781249999967 12.415581597222221  C 0.21240234374999967 12.685980902777779  0.18896484374999967 13.03537326388889  0.33544921874999967 13.328559027777779  C 0.48193359374999967 13.621744791666668  0.7705078124999997 13.804036458333332  1.0898437499999996 13.804036458333332  L 9.90087890625 13.804036458333332  C 10.41357421875 13.804036458333332  10.86767578125 13.44552951388889  11.00244140625 12.932074652777779  C 11.2294921875 12.073784722222221  11.41845703125 11.29296875  11.43310546875 10.427083333333332  C 11.44921875 9.628038194444443  11.302734375 8.883680555555557  10.99365234375 8.16970486111111  C 11.27197265625 8.152994791666668  11.5224609375 7.999565972222221  11.67041015625 7.750434027777779  Z M 1.72265625 7.306857638888889  C 1.7138671875 7.291666666666667  1.71826171875 7.281032986111111  1.72119140625 7.276475694444444  L 2.8388671875 4.997829861111112  C 2.89453125 4.885416666666668  3.00439453125 4.8155381944444455  3.1259765625 4.8155381944444455  L 4.8310546875 4.8155381944444455  C 5.2998046875 4.8155381944444455  5.6806640625 4.420572916666667  5.6806640625 3.9344618055555562  L 5.6806640625 1.0542534722222223  C 5.6806640625 1.052734375  5.68359375 1.0496961805555554  5.685058593750002 1.0496961805555554  L 7.00341796875 1.0496961805555554  C 7.0048828125 1.0496961805555554  7.0078125 1.052734375  7.0078125 1.0542534722222223  L 7.0078125 3.9344618055555554  C 7.0078125 4.420572916666666  7.388671875 4.815538194444445  7.857421875 4.815538194444445  L 9.562499999999998 4.815538194444445  C 9.684082031249998 4.815538194444445  9.793945312499998 4.885416666666666  9.849609375 4.997829861111111  L 10.96728515625 7.276475694444444  C 10.97021484375 7.281032986111111  10.974609375 7.291666666666667  10.965820312499996 7.306857638888889  C 10.957031249999996 7.322048611111111  10.94677734375 7.322048611111111  10.940917968749996 7.322048611111111  L 1.74755859375 7.322048611111111  C 1.74169921875 7.322048611111111  1.7314453125 7.322048611111111  1.72265625 7.306857638888889  Z M 10.07666015625 8.172743055555557  C 10.453125 8.877604166666668  10.62890625 9.612847222222221  10.6142578125 10.41189236111111  C 10.60107421875 11.179036458333332  10.42529296875 11.905164930555557  10.212890625 12.70724826388889  C 10.1748046875 12.8515625  10.047363281250002 12.95334201388889  9.90234375 12.95334201388889  L 8.0478515625 12.95334201388889  C 8.213378906249998 12.614583333333336  8.31884765625 12.28493923611111  8.38623046875 12.02365451388889  C 8.490234375 11.618055555555557  8.54296875 11.2109375  8.54150390625 10.838758680555557  C 8.5400390625 10.578993055555557  8.314453125 10.381510416666668  8.06689453125 10.422526041666668  C 7.86767578125 10.455946180555557  7.72119140625 10.63519965277778  7.72119140625 10.844835069444443  C 7.72265625 11.493489583333334  7.5146484375 12.336588541666668  7.095703125 12.95334201388889  L 4.4501953125 12.95334201388889  C 4.6728515625 12.623697916666668  4.83251953125 12.287977430555557  4.9423828125 12.013020833333336  C 5.0888671875 11.643880208333336  5.197265625 11.258029513888891  5.2529296875 10.911675347222223  C 5.2939453125 10.653428819444445  5.1005859375 10.417968750000002  4.8486328125 10.417968750000002  C 4.6494140625 10.417968750000002  4.478027343749999 10.56684027777778  4.444335937499999 10.77191840277778  C 4.403320312499999 11.024088541666668  4.322753906249999 11.344618055555557  4.185058593749999 11.689453125  C 4.037109374999999 12.063151041666668  3.777832031249999 12.57204861111111  3.370605468749999 12.95486111111111  L 1.09130859375 12.95486111111111  C 1.083984375 12.95486111111111  1.0737304687500004 12.95486111111111  1.06494140625 12.938151041666668  C 1.05615234375 12.921440972222221  1.06201171875 12.91384548611111  1.06640625 12.907769097222221  C 1.50146484375 12.268229166666668  1.869140625 11.472222222222221  2.12841796875 10.607855902777779  C 2.36572265625 9.81640625  2.5048828125 8.983940972222221  2.53857421875 8.172743055555557  L 10.07666015625 8.172743055555557  Z " fill-rule="nonzero" fill="rgba(255, 255, 255, 1)" stroke="none" transform="matrix(1 0 0 1 752 25 )" class="fill" />
    <path d="M 11.67041015625 7.750434027777779  C 11.82568359375 7.487630208333333  11.83740234375 7.165581597222221  11.70263671875 6.890625  L 10.5849609375 4.611979166666666  C 10.388671875 4.212456597222221  9.9990234375 3.96484375  9.56689453125 3.96484375  L 7.8603515625 3.96484375  C 7.84423828125 3.96484375  7.8310546875 3.951171875  7.8310546875 3.9344618055555554  L 7.8310546875 1.0542534722222223  C 7.8310546875 0.5818142361111112  7.46044921875 0.1990017361111111  7.00634765625 0.1990017361111111  L 5.68798828125 0.1990017361111111  C 5.232421875 0.1990017361111111  4.86328125 0.5833333333333333  4.86328125 1.0542534722222223  L 4.86328125 3.9344618055555554  C 4.86328125 3.951171875  4.850097656250002 3.96484375  4.833984375 3.96484375  L 3.1259765625 3.96484375  C 2.69384765625 3.96484375  2.30419921875 4.212456597222221  2.10791015625 4.611979166666666  L 0.990234375 6.890625  C 0.85546875 7.165581597222221  0.8671875 7.487630208333333  1.0224609375 7.750434027777779  C 1.17333984375 8.005642361111109  1.43115234375 8.160590277777779  1.716796875 8.16970486111111  C 1.646484375 9.703993055555557  1.15576171875 11.297526041666668  0.39550781249999967 12.415581597222221  C 0.21240234374999967 12.685980902777779  0.18896484374999967 13.03537326388889  0.33544921874999967 13.328559027777779  C 0.48193359374999967 13.621744791666668  0.7705078124999997 13.804036458333332  1.0898437499999996 13.804036458333332  L 9.90087890625 13.804036458333332  C 10.41357421875 13.804036458333332  10.86767578125 13.44552951388889  11.00244140625 12.932074652777779  C 11.2294921875 12.073784722222221  11.41845703125 11.29296875  11.43310546875 10.427083333333332  C 11.44921875 9.628038194444443  11.302734375 8.883680555555557  10.99365234375 8.16970486111111  C 11.27197265625 8.152994791666668  11.5224609375 7.999565972222221  11.67041015625 7.750434027777779  Z " stroke-width="0" stroke-dasharray="0" stroke="rgba(255, 255, 255, 0)" fill="none" transform="matrix(1 0 0 1 752 25 )" class="stroke" mask="url(#Clip9504)" />
    <path d="M 1.72265625 7.306857638888889  C 1.7138671875 7.291666666666667  1.71826171875 7.281032986111111  1.72119140625 7.276475694444444  L 2.8388671875 4.997829861111112  C 2.89453125 4.885416666666668  3.00439453125 4.8155381944444455  3.1259765625 4.8155381944444455  L 4.8310546875 4.8155381944444455  C 5.2998046875 4.8155381944444455  5.6806640625 4.420572916666667  5.6806640625 3.9344618055555562  L 5.6806640625 1.0542534722222223  C 5.6806640625 1.052734375  5.68359375 1.0496961805555554  5.685058593750002 1.0496961805555554  L 7.00341796875 1.0496961805555554  C 7.0048828125 1.0496961805555554  7.0078125 1.052734375  7.0078125 1.0542534722222223  L 7.0078125 3.9344618055555554  C 7.0078125 4.420572916666666  7.388671875 4.815538194444445  7.857421875 4.815538194444445  L 9.562499999999998 4.815538194444445  C 9.684082031249998 4.815538194444445  9.793945312499998 4.885416666666666  9.849609375 4.997829861111111  L 10.96728515625 7.276475694444444  C 10.97021484375 7.281032986111111  10.974609375 7.291666666666667  10.965820312499996 7.306857638888889  C 10.957031249999996 7.322048611111111  10.94677734375 7.322048611111111  10.940917968749996 7.322048611111111  L 1.74755859375 7.322048611111111  C 1.74169921875 7.322048611111111  1.7314453125 7.322048611111111  1.72265625 7.306857638888889  Z " stroke-width="0" stroke-dasharray="0" stroke="rgba(255, 255, 255, 0)" fill="none" transform="matrix(1 0 0 1 752 25 )" class="stroke" mask="url(#Clip9504)" />
    <path d="M 10.07666015625 8.172743055555557  C 10.453125 8.877604166666668  10.62890625 9.612847222222221  10.6142578125 10.41189236111111  C 10.60107421875 11.179036458333332  10.42529296875 11.905164930555557  10.212890625 12.70724826388889  C 10.1748046875 12.8515625  10.047363281250002 12.95334201388889  9.90234375 12.95334201388889  L 8.0478515625 12.95334201388889  C 8.213378906249998 12.614583333333336  8.31884765625 12.28493923611111  8.38623046875 12.02365451388889  C 8.490234375 11.618055555555557  8.54296875 11.2109375  8.54150390625 10.838758680555557  C 8.5400390625 10.578993055555557  8.314453125 10.381510416666668  8.06689453125 10.422526041666668  C 7.86767578125 10.455946180555557  7.72119140625 10.63519965277778  7.72119140625 10.844835069444443  C 7.72265625 11.493489583333334  7.5146484375 12.336588541666668  7.095703125 12.95334201388889  L 4.4501953125 12.95334201388889  C 4.6728515625 12.623697916666668  4.83251953125 12.287977430555557  4.9423828125 12.013020833333336  C 5.0888671875 11.643880208333336  5.197265625 11.258029513888891  5.2529296875 10.911675347222223  C 5.2939453125 10.653428819444445  5.1005859375 10.417968750000002  4.8486328125 10.417968750000002  C 4.6494140625 10.417968750000002  4.478027343749999 10.56684027777778  4.444335937499999 10.77191840277778  C 4.403320312499999 11.024088541666668  4.322753906249999 11.344618055555557  4.185058593749999 11.689453125  C 4.037109374999999 12.063151041666668  3.777832031249999 12.57204861111111  3.370605468749999 12.95486111111111  L 1.09130859375 12.95486111111111  C 1.083984375 12.95486111111111  1.0737304687500004 12.95486111111111  1.06494140625 12.938151041666668  C 1.05615234375 12.921440972222221  1.06201171875 12.91384548611111  1.06640625 12.907769097222221  C 1.50146484375 12.268229166666668  1.869140625 11.472222222222221  2.12841796875 10.607855902777779  C 2.36572265625 9.81640625  2.5048828125 8.983940972222221  2.53857421875 8.172743055555557  L 10.07666015625 8.172743055555557  Z " stroke-width="0" stroke-dasharray="0" stroke="rgba(255, 255, 255, 0)" fill="none" transform="matrix(1 0 0 1 752 25 )" class="stroke" mask="url(#Clip9504)" />
  </g>
</svg>