<?xml version="1.0" encoding="utf-8"?>
<svg version="1.1" xmlns:xlink="http://www.w3.org/1999/xlink" width="5px" height="4px" xmlns="http://www.w3.org/2000/svg">
  <defs>
    <pattern id="BGPattern" patternUnits="userSpaceOnUse" alignment="0 0" imageRepeat="None" />
    <mask fill="white" id="Clip4365">
      <path d="M 0.5625 2  C 0.5625 3.0355339059327378  1.4019660940672622 3.875  2.4375 3.875  C 3.4730339059327378 3.875  4.3125 3.0355339059327378  4.3125 2  C 4.3125 0.9644660940672622  3.4730339059327378 0.125  2.4375 0.125  C 1.4019660940672622 0.125  0.5625 0.9644660940672622  0.5625 2  Z " fill-rule="evenodd" />
    </mask>
  </defs>
  <g transform="matrix(1 0 0 1 -2290 -1098 )">
    <path d="M 0.5625 2  C 0.5625 3.0355339059327378  1.4019660940672622 3.875  2.4375 3.875  C 3.4730339059327378 3.875  4.3125 3.0355339059327378  4.3125 2  C 4.3125 0.9644660940672622  3.4730339059327378 0.125  2.4375 0.125  C 1.4019660940672622 0.125  0.5625 0.9644660940672622  0.5625 2  Z " fill-rule="nonzero" fill="rgba(255, 255, 255, 1)" stroke="none" transform="matrix(1 0 0 1 2290 1098 )" class="fill" />
    <path d="M 0.5625 2  C 0.5625 3.0355339059327378  1.4019660940672622 3.875  2.4375 3.875  C 3.4730339059327378 3.875  4.3125 3.0355339059327378  4.3125 2  C 4.3125 0.9644660940672622  3.4730339059327378 0.125  2.4375 0.125  C 1.4019660940672622 0.125  0.5625 0.9644660940672622  0.5625 2  Z " stroke-width="0" stroke-dasharray="0" stroke="rgba(255, 255, 255, 0)" fill="none" transform="matrix(1 0 0 1 2290 1098 )" class="stroke" mask="url(#Clip4365)" />
  </g>
</svg>