<?xml version="1.0" encoding="utf-8"?>
<svg version="1.1" xmlns:xlink="http://www.w3.org/1999/xlink" width="5px" height="4px" xmlns="http://www.w3.org/2000/svg">
  <defs>
    <pattern id="BGPattern" patternUnits="userSpaceOnUse" alignment="0 0" imageRepeat="None" />
    <mask fill="white" id="Clip11105">
      <path d="M 3.8328124999999993 3.8359374999999982  C 3.609375 4.0515624999999975  3.253124999999999 4.045312499999998  3.0374999999999996 3.8218750000000004  L 0.9968749999999993 1.7093749999999996  C 0.78125 1.4859375000000004  0.7874999999999996 1.1296874999999993  1.010937499999999 0.9140625  C 1.2343749999999982 0.6984375000000007  1.5906249999999993 0.7046875000000004  1.8062499999999986 0.9281249999999996  L 3.846874999999999 3.0406249999999986  C 4.062499999999998 3.264062499999998  4.056249999999999 3.620312499999999  3.8328124999999993 3.8359374999999982  Z " fill-rule="evenodd" />
    </mask>
  </defs>
  <g transform="matrix(1 0 0 1 -1567 -2008 )">
    <path d="M 3.8328124999999993 3.8359374999999982  C 3.609375 4.0515624999999975  3.253124999999999 4.045312499999998  3.0374999999999996 3.8218750000000004  L 0.9968749999999993 1.7093749999999996  C 0.78125 1.4859375000000004  0.7874999999999996 1.1296874999999993  1.010937499999999 0.9140625  C 1.2343749999999982 0.6984375000000007  1.5906249999999993 0.7046875000000004  1.8062499999999986 0.9281249999999996  L 3.846874999999999 3.0406249999999986  C 4.062499999999998 3.264062499999998  4.056249999999999 3.620312499999999  3.8328124999999993 3.8359374999999982  Z " fill-rule="nonzero" fill="rgba(127, 127, 127, 1)" stroke="none" transform="matrix(1 0 0 1 1567 2008 )" class="fill" />
    <path d="M 3.8328124999999993 3.8359374999999982  C 3.609375 4.0515624999999975  3.253124999999999 4.045312499999998  3.0374999999999996 3.8218750000000004  L 0.9968749999999993 1.7093749999999996  C 0.78125 1.4859375000000004  0.7874999999999996 1.1296874999999993  1.010937499999999 0.9140625  C 1.2343749999999982 0.6984375000000007  1.5906249999999993 0.7046875000000004  1.8062499999999986 0.9281249999999996  L 3.846874999999999 3.0406249999999986  C 4.062499999999998 3.264062499999998  4.056249999999999 3.620312499999999  3.8328124999999993 3.8359374999999982  Z " stroke-width="0" stroke-dasharray="0" stroke="rgba(255, 255, 255, 0)" fill="none" transform="matrix(1 0 0 1 1567 2008 )" class="stroke" mask="url(#Clip11105)" />
  </g>
</svg>