<?xml version="1.0" encoding="utf-8"?>
<svg version="1.1" xmlns:xlink="http://www.w3.org/1999/xlink" width="13px" height="13px" xmlns="http://www.w3.org/2000/svg">
  <defs>
    <pattern id="BGPattern" patternUnits="userSpaceOnUse" alignment="0 0" imageRepeat="None" />
  </defs>
  <g transform="matrix(1 0 0 1 -2026 -2211 )">
    <path d="M 0 6.500000000000002  A 6.5 6.5 0 0 1 6.499999999999998 0 A 6.5 6.5 0 0 1 13 6.5 A 6.5 6.5 0 0 1 6.5 13 A 6.5 6.5 0 0 1 0 6.500000000000002 Z " fill-rule="nonzero" fill="rgba(240, 240, 240, 1)" stroke="none" transform="matrix(1 0 0 1 2026 2211 )" class="fill" />
    <path d="M 0.5 6.500000000000002  A 6 6 0 0 1 6.499999999999998 0.5 A 6 6 0 0 1 12.5 6.5 A 6 6 0 0 1 6.5 12.5 A 6 6 0 0 1 0.5 6.500000000000002 Z " stroke-width="1" stroke-dasharray="0" stroke="rgba(121, 121, 121, 1)" fill="none" transform="matrix(1 0 0 1 2026 2211 )" class="stroke" stroke-dashoffset="0.5" />
    <path d="M 2.7857142857142856 6.5  L 5.571428571428571 9.285714285714286  L 10.214285714285715 2.7857142857142856  " stroke-width="2.7857142857142856" stroke-dasharray="0" stroke="rgba(121, 121, 121, 1)" fill="none" transform="matrix(1 0 0 1 2026 2211 )" class="stroke btn_check" />
  </g>
</svg>