<?xml version="1.0" encoding="utf-8"?>
<svg version="1.1" xmlns:xlink="http://www.w3.org/1999/xlink" width="11px" height="11px" xmlns="http://www.w3.org/2000/svg">
  <defs>
    <pattern id="BGPattern" patternUnits="userSpaceOnUse" alignment="0 0" imageRepeat="None" />
    <mask fill="white" id="Clip15326">
      <path d="M 10.025714285714283 8.47  C 10.438214285714283 8.91423076923077  10.438214285714283 9.637692307692308  10.025714285714283 10.081923076923077  C 9.613214285714285 10.526153846153845  8.941428571428567 10.526153846153845  8.528928571428569 10.081923076923077  L 0.9742857142857145 1.946153846153846  C 0.5617857142857141 1.5019230769230771  0.5617857142857141 0.7784615384615376  0.9742857142857145 0.33423076923076883  C 1.3867857142857147 -0.1099999999999999  2.058571428571428 -0.1099999999999999  2.4710714285714284 0.33423076923076883  L 10.025714285714283 8.47  Z " fill-rule="evenodd" />
    </mask>
  </defs>
  <g transform="matrix(1 0 0 1 -100 -4251 )">
    <path d="M 10.025714285714283 8.47  C 10.438214285714283 8.91423076923077  10.438214285714283 9.637692307692308  10.025714285714283 10.081923076923077  C 9.613214285714285 10.526153846153845  8.941428571428567 10.526153846153845  8.528928571428569 10.081923076923077  L 0.9742857142857145 1.946153846153846  C 0.5617857142857141 1.5019230769230771  0.5617857142857141 0.7784615384615376  0.9742857142857145 0.33423076923076883  C 1.3867857142857147 -0.1099999999999999  2.058571428571428 -0.1099999999999999  2.4710714285714284 0.33423076923076883  L 10.025714285714283 8.47  Z " fill-rule="nonzero" fill="rgba(222, 190, 143, 1)" stroke="none" transform="matrix(1 0 0 1 100 4251 )" class="fill" />
    <path d="M 10.025714285714283 8.47  C 10.438214285714283 8.91423076923077  10.438214285714283 9.637692307692308  10.025714285714283 10.081923076923077  C 9.613214285714285 10.526153846153845  8.941428571428567 10.526153846153845  8.528928571428569 10.081923076923077  L 0.9742857142857145 1.946153846153846  C 0.5617857142857141 1.5019230769230771  0.5617857142857141 0.7784615384615376  0.9742857142857145 0.33423076923076883  C 1.3867857142857147 -0.1099999999999999  2.058571428571428 -0.1099999999999999  2.4710714285714284 0.33423076923076883  L 10.025714285714283 8.47  Z " stroke-width="0" stroke-dasharray="0" stroke="rgba(255, 255, 255, 0)" fill="none" transform="matrix(1 0 0 1 100 4251 )" class="stroke" mask="url(#Clip15326)" />
  </g>
</svg>