<?xml version="1.0" encoding="utf-8"?>
<svg version="1.1" xmlns:xlink="http://www.w3.org/1999/xlink" width="58px" height="58px" xmlns="http://www.w3.org/2000/svg">
  <defs>
    <linearGradient gradientUnits="userSpaceOnUse" x1="0" y1="0" x2="58" y2="58" id="LinearGradient2321">
      <stop id="Stop2322" stop-color="#ff52dd" offset="0" />
      <stop id="Stop2323" stop-color="#bc3577" offset="1" />
    </linearGradient>
    <pattern id="BGPattern" patternUnits="userSpaceOnUse" alignment="0 0" imageRepeat="None" />
    <mask fill="white" id="Clip2324">
      <path d="M 29 58  C 12.759999999999998 58  0 45.24  0 29  C 0 12.759999999999998  12.759999999999998 0  29 0  C 45.24 0  58 12.759999999999998  58 29  C 58 45.24  45.24 58  29 58  Z " fill-rule="evenodd" />
    </mask>
  </defs>
  <g transform="matrix(1 0 0 1 -536 -630 )">
    <path d="M 29 58  C 12.759999999999998 58  0 45.24  0 29  C 0 12.759999999999998  12.759999999999998 0  29 0  C 45.24 0  58 12.759999999999998  58 29  C 58 45.24  45.24 58  29 58  Z " fill-rule="nonzero" fill="url(#LinearGradient2321)" stroke="none" transform="matrix(1 0 0 1 536 630 )" class="fill" />
    <path d="M 29 58  C 12.759999999999998 58  0 45.24  0 29  C 0 12.759999999999998  12.759999999999998 0  29 0  C 45.24 0  58 12.759999999999998  58 29  C 58 45.24  45.24 58  29 58  Z " stroke-width="0" stroke-dasharray="0" stroke="rgba(121, 121, 121, 1)" fill="none" transform="matrix(1 0 0 1 536 630 )" class="stroke" mask="url(#Clip2324)" />
  </g>
</svg>