<?xml version="1.0" encoding="utf-8"?>
<svg version="1.1" xmlns:xlink="http://www.w3.org/1999/xlink" width="126px" height="66px" xmlns="http://www.w3.org/2000/svg">
  <defs>
    <pattern id="BGPattern" patternUnits="userSpaceOnUse" alignment="0 0" imageRepeat="None" />
    <mask fill="white" id="Clip1439">
      <path d="M 5 51.39999999999998  C 2.2385762508459948 51.39999999999998  0 49.16142374915398  0 46.39999999999998  L 0 5  C 0 2.2385762508459948  2.2385762508459948 0  5 0  L 111 0  C 113.761423749154 0  116 2.2385762508459948  116 5  L 116 46.39999999999998  C 116 49.16142374915398  113.761423749154 51.39999999999998  111 51  L 20.37833037300163 51  L 16.399999999999977 56  L 12.030195381882663 51.39999999999998  L 5 51.39999999999998  Z " fill-rule="evenodd" />
    </mask>
  </defs>
  <g transform="matrix(1 0 0 1 -578 -632 )">
    <path d="M 5 51.39999999999998  C 2.2385762508459948 51.39999999999998  0 49.16142374915398  0 46.39999999999998  L 0 5  C 0 2.2385762508459948  2.2385762508459948 0  5 0  L 111 0  C 113.761423749154 0  116 2.2385762508459948  116 5  L 116 46.39999999999998  C 116 49.16142374915398  113.761423749154 51.39999999999998  111 51  L 20.37833037300163 51  L 16.399999999999977 56  L 12.030195381882663 51.39999999999998  L 5 51.39999999999998  Z " fill-rule="nonzero" fill="rgba(85, 85, 85, 1)" stroke="none" transform="matrix(1 0 0 1 583 637 )" class="fill" />
    <path d="M 5 51.39999999999998  C 2.2385762508459948 51.39999999999998  0 49.16142374915398  0 46.39999999999998  L 0 5  C 0 2.2385762508459948  2.2385762508459948 0  5 0  L 111 0  C 113.761423749154 0  116 2.2385762508459948  116 5  L 116 46.39999999999998  C 116 49.16142374915398  113.761423749154 51.39999999999998  111 51  L 20.37833037300163 51  L 16.399999999999977 56  L 12.030195381882663 51.39999999999998  L 5 51.39999999999998  Z " stroke-width="0" stroke-dasharray="0" stroke="rgba(121, 121, 121, 1)" fill="none" transform="matrix(1 0 0 1 583 637 )" class="stroke" mask="url(#Clip1439)" />
  </g>
  <style>svg { filter: drop-shadow(0px 0px 2.5px rgba(0, 0, 0, 0.34901960784313724)); }</style>
</svg>