<?xml version="1.0" encoding="utf-8"?>
<svg version="1.1" xmlns:xlink="http://www.w3.org/1999/xlink" width="18px" height="17px" xmlns="http://www.w3.org/2000/svg">
  <defs>
    <pattern id="BGPattern" patternUnits="userSpaceOnUse" alignment="0 0" imageRepeat="None" />
    <mask fill="white" id="Clip589">
      <path d="M 17.402 0.9673333203124947  C 17.402 0.4266666406249975  16.9626666796875 0.00399999999999423  16.4386666796875 0.003999999999997783  L 9.02 0.003999999999997783  C 8.08797414069901 1.5041243996599505  6.877549048107937 2.8120804683709757  5.454000000000001 3.857333320312499  L 16.5906666796875 2.0486666796874964  C 17.059401100996126 1.967601140559708  17.401824557909173 1.5610260242440113  17.402 1.0853333203124969  L 17.402 0.9673333203124947  Z M 0.9086666796874994 15.704  C 0.9086666796874994 16.244  1.347999999999999 16.666666679687502  1.8713333203125018 16.666666679687502  L 1.9559999999999995 16.666666679687502  C 2.429333320312498 16.666666679687502  2.8346666796875013 16.3286666796875  2.9193333203125 15.855333320312504  L 4.964000000000006 4.212000000000007  C 3.7081261639130148 5.09191503125615  2.3225443159948647 5.770310301894689  0.8573333203124989 6.2226666796875065  L 0.9086666796875029 15.70333332031251  Z " fill-rule="evenodd" />
    </mask>
  </defs>
  <g transform="matrix(1 0 0 1 -562 -659 )">
    <path d="M 17.402 0.9673333203124947  C 17.402 0.4266666406249975  16.9626666796875 0.00399999999999423  16.4386666796875 0.003999999999997783  L 9.02 0.003999999999997783  C 8.08797414069901 1.5041243996599505  6.877549048107937 2.8120804683709757  5.454000000000001 3.857333320312499  L 16.5906666796875 2.0486666796874964  C 17.059401100996126 1.967601140559708  17.401824557909173 1.5610260242440113  17.402 1.0853333203124969  L 17.402 0.9673333203124947  Z M 0.9086666796874994 15.704  C 0.9086666796874994 16.244  1.347999999999999 16.666666679687502  1.8713333203125018 16.666666679687502  L 1.9559999999999995 16.666666679687502  C 2.429333320312498 16.666666679687502  2.8346666796875013 16.3286666796875  2.9193333203125 15.855333320312504  L 4.964000000000006 4.212000000000007  C 3.7081261639130148 5.09191503125615  2.3225443159948647 5.770310301894689  0.8573333203124989 6.2226666796875065  L 0.9086666796875029 15.70333332031251  Z " fill-rule="nonzero" fill="rgba(255, 255, 255, 1)" stroke="none" transform="matrix(1 0 0 1 562 659 )" class="fill" />
    <path d="M 17.402 0.9673333203124947  C 17.402 0.4266666406249975  16.9626666796875 0.00399999999999423  16.4386666796875 0.003999999999997783  L 9.02 0.003999999999997783  C 8.08797414069901 1.5041243996599505  6.877549048107937 2.8120804683709757  5.454000000000001 3.857333320312499  L 16.5906666796875 2.0486666796874964  C 17.059401100996126 1.967601140559708  17.401824557909173 1.5610260242440113  17.402 1.0853333203124969  L 17.402 0.9673333203124947  Z " stroke-width="0" stroke-dasharray="0" stroke="rgba(255, 255, 255, 0)" fill="none" transform="matrix(1 0 0 1 562 659 )" class="stroke" mask="url(#Clip589)" />
    <path d="M 0.9086666796874994 15.704  C 0.9086666796874994 16.244  1.347999999999999 16.666666679687502  1.8713333203125018 16.666666679687502  L 1.9559999999999995 16.666666679687502  C 2.429333320312498 16.666666679687502  2.8346666796875013 16.3286666796875  2.9193333203125 15.855333320312504  L 4.964000000000006 4.212000000000007  C 3.7081261639130148 5.09191503125615  2.3225443159948647 5.770310301894689  0.8573333203124989 6.2226666796875065  L 0.9086666796875029 15.70333332031251  Z " stroke-width="0" stroke-dasharray="0" stroke="rgba(255, 255, 255, 0)" fill="none" transform="matrix(1 0 0 1 562 659 )" class="stroke" mask="url(#Clip589)" />
  </g>
</svg>