<?xml version="1.0" encoding="utf-8"?>
<svg version="1.1" xmlns:xlink="http://www.w3.org/1999/xlink" width="56px" height="19px" xmlns="http://www.w3.org/2000/svg">
  <defs>
    <pattern id="BGPattern" patternUnits="userSpaceOnUse" alignment="0 0" imageRepeat="None" />
    <mask fill="white" id="Clip6631">
      <path d="M 28 19  C 15.289463608087884 19  4.710670733550842 11.183607102958602  0.712817481540128 0  L 55.287182637434626 1.7295052543886413E-05  C 51.28932926644916 11.183607102958602  40.710536391912115 19  28 19  Z " fill-rule="evenodd" />
    </mask>
  </defs>
  <g transform="matrix(1 0 0 1 -537 -669 )">
    <path d="M 28 19  C 15.289463608087884 19  4.710670733550842 11.183607102958602  0.712817481540128 0  L 55.287182637434626 1.7295052543886413E-05  C 51.28932926644916 11.183607102958602  40.710536391912115 19  28 19  Z " fill-rule="nonzero" fill="rgba(0, 0, 0, 0.2980392156862745)" stroke="none" transform="matrix(1 0 0 1 537 669 )" class="fill" />
    <path d="M 28 19  C 15.289463608087884 19  4.710670733550842 11.183607102958602  0.712817481540128 0  L 55.287182637434626 1.7295052543886413E-05  C 51.28932926644916 11.183607102958602  40.710536391912115 19  28 19  Z " stroke-width="0" stroke-dasharray="0" stroke="rgba(121, 121, 121, 1)" fill="none" transform="matrix(1 0 0 1 537 669 )" class="stroke" mask="url(#Clip6631)" />
  </g>
</svg>