<?xml version="1.0" encoding="utf-8"?>
<svg version="1.1" xmlns:xlink="http://www.w3.org/1999/xlink" width="6px" height="5px" xmlns="http://www.w3.org/2000/svg">
  <defs>
    <pattern id="BGPattern" patternUnits="userSpaceOnUse" alignment="0 0" imageRepeat="None" />
    <mask fill="white" id="Clip4803">
      <path d="M 2.9313333203125005 4.847333320312501  C 4.249333320312498 4.847333320312501  5.331333320312499 3.766  5.331333320312499 2.4473333203125005  C 5.331333320312499 1.1293333203125  4.249333320312498 0.04800000000000004  2.9313333203125005 0.04800000000000004  C 1.607823945203986 0.0527536438336087  0.5360869641461079 1.1244906248914859  0.5313333203125001 2.4480000000000004  C 0.5313333203125001 3.766  1.6133333203125009 4.848000000000001  2.9313333203125005 4.848000000000001  Z " fill-rule="evenodd" />
    </mask>
  </defs>
  <g transform="matrix(1 0 0 1 -558 -644 )">
    <path d="M 2.9313333203125005 4.847333320312501  C 4.249333320312498 4.847333320312501  5.331333320312499 3.766  5.331333320312499 2.4473333203125005  C 5.331333320312499 1.1293333203125  4.249333320312498 0.04800000000000004  2.9313333203125005 0.04800000000000004  C 1.607823945203986 0.0527536438336087  0.5360869641461079 1.1244906248914859  0.5313333203125001 2.4480000000000004  C 0.5313333203125001 3.766  1.6133333203125009 4.848000000000001  2.9313333203125005 4.848000000000001  Z " fill-rule="nonzero" fill="rgba(255, 255, 255, 1)" stroke="none" transform="matrix(1 0 0 1 558 644 )" class="fill" />
    <path d="M 2.9313333203125005 4.847333320312501  C 4.249333320312498 4.847333320312501  5.331333320312499 3.766  5.331333320312499 2.4473333203125005  C 5.331333320312499 1.1293333203125  4.249333320312498 0.04800000000000004  2.9313333203125005 0.04800000000000004  C 1.607823945203986 0.0527536438336087  0.5360869641461079 1.1244906248914859  0.5313333203125001 2.4480000000000004  C 0.5313333203125001 3.766  1.6133333203125009 4.848000000000001  2.9313333203125005 4.848000000000001  Z " stroke-width="0" stroke-dasharray="0" stroke="rgba(255, 255, 255, 0)" fill="none" transform="matrix(1 0 0 1 558 644 )" class="stroke" mask="url(#Clip4803)" />
  </g>
</svg>