<?xml version="1.0" encoding="utf-8"?>
<svg version="1.1" xmlns:xlink="http://www.w3.org/1999/xlink" width="4px" height="4px" xmlns="http://www.w3.org/2000/svg">
  <defs>
    <pattern id="BGPattern" patternUnits="userSpaceOnUse" alignment="0 0" imageRepeat="None" />
    <mask fill="white" id="Clip4694">
      <path d="M 1.304666664062498 1.3926666640625003  C 1.3046905839615754 1.397918211171536  1.3042443605706837 1.4031613582386195  1.3033333359375 1.4083333359374999  L 1.3033333359375 1.4136666640624997  C 1.3006108790441746 1.5497895087287659  1.1894834024507865 1.6587166590634994  1.0533333359375 1.6587166590634994  C 0.9152345370031818 1.6587166590634994  0.8032833409365003 1.546765462996818  0.8032833409365003 1.4086666640624999  C 0.8032833409365003 1.406999872422916  0.8033000067698755 1.40533312244373  0.8033333359374999 1.4036666640625004  C 0.8029937032704528 1.4000104895290137  0.8028823752934153 1.3963366949882885  0.8029999999999999 1.3926666640624998  C 0.8029999999999999 1.0233333281249997  0.9066666640625001 0.7193333281249998  1.112 0.4796666640625  C 1.3370000000000002 0.22100000000000009  1.6470000000000002 0.09433332812499984  2.0396666640624996 0.09433333593749982  C 2.3889999999999993 0.09433333593749982  2.6719999999999997 0.19566667187499975  2.8876666640624995 0.3999999999999999  C 3.094333328125 0.5946666640624998  3.196999999999999 0.8580000000000001  3.196999999999999 1.1840000000000002  C 3.196999999999999 1.4206666640625003  3.1236666640624993 1.6380000000000003  2.980333335937499 1.8276666640625  C 2.9203333359374994 1.903333328125  2.7909999999999986 2.0293333281250003  2.556666664062499 2.2413333359375  C 2.443333328124999 2.3403333359375003  2.363333328124999 2.4326666718750003  2.3133333359374992 2.5170000000000003  C 2.247666671874999 2.6303333359375003  2.2159999999999993 2.7456666640625  2.215666664062499 2.8696666640625006  L 2.2246666640624992 3.021000000000001  C 2.2247753126769707 3.0227757514039277  2.224829675035232 3.024554408134354  2.224829675035232 3.026333480243623  C 2.224829675035232 3.074566349833754  2.185729208687863 3.113666816181122  2.1374963390977317 3.113666816181122  L 1.8099999999999992 3.1136666640625004  C 1.7614338022826082 3.1136673001772435  1.722333335935239 3.0745668338298744  1.722333335935239 3.0263339642397433  L 1.722333335937499 2.875  C 1.722333335937499 2.7096666640624996  1.7569999999999992 2.5553333359375  1.8246666640624989 2.4203333359375003  C 1.9066666640624987 2.2446666718750006  2.076333328124999 2.0413333359375  2.3223333359374987 1.8266666640625004  C 2.4753333359374983 1.6733333281250005  2.5233333359374983 1.6240000000000006  2.554999999999999 1.5843333359375005  C 2.6549999999999985 1.4556666718750004  2.7036666640624984 1.3280000000000003  2.7036666640624984 1.1943333359375004  C 2.7036666640624984 0.9953333359375005  2.645999999999998 0.8383333359375005  2.536333335937498 0.7240000000000002  C 2.4209999999999985 0.6086666640625  2.2523333359374984 0.5510000000000002  2.0239999999999982 0.5510000000000002  C 1.7689999999999984 0.5510000000000002  1.586333335937498 0.633  1.4606666640624981 0.8000000000000003  C 1.3549999999999982 0.9323333359375003  1.304666664062498 1.1256666640625004  1.304666664062498 1.3926666640625003  Z M 2 3.966  C 1.8619288125423017 3.966  1.75 3.8540711874576985  1.75 3.716  C 1.75 3.577928812542302  1.8619288125423017 3.466  2 3.466  C 2.1380711874576983 3.466  2.25 3.577928812542302  2.25 3.716  C 2.25 3.8540711874576985  2.1380711874576983 3.966  2 3.966  Z " fill-rule="evenodd" />
    </mask>
  </defs>
  <g transform="matrix(1 0 0 1 -230 -92 )">
    <path d="M 1.304666664062498 1.3926666640625003  C 1.3046905839615754 1.397918211171536  1.3042443605706837 1.4031613582386195  1.3033333359375 1.4083333359374999  L 1.3033333359375 1.4136666640624997  C 1.3006108790441746 1.5497895087287659  1.1894834024507865 1.6587166590634994  1.0533333359375 1.6587166590634994  C 0.9152345370031818 1.6587166590634994  0.8032833409365003 1.546765462996818  0.8032833409365003 1.4086666640624999  C 0.8032833409365003 1.406999872422916  0.8033000067698755 1.40533312244373  0.8033333359374999 1.4036666640625004  C 0.8029937032704528 1.4000104895290137  0.8028823752934153 1.3963366949882885  0.8029999999999999 1.3926666640624998  C 0.8029999999999999 1.0233333281249997  0.9066666640625001 0.7193333281249998  1.112 0.4796666640625  C 1.3370000000000002 0.22100000000000009  1.6470000000000002 0.09433332812499984  2.0396666640624996 0.09433333593749982  C 2.3889999999999993 0.09433333593749982  2.6719999999999997 0.19566667187499975  2.8876666640624995 0.3999999999999999  C 3.094333328125 0.5946666640624998  3.196999999999999 0.8580000000000001  3.196999999999999 1.1840000000000002  C 3.196999999999999 1.4206666640625003  3.1236666640624993 1.6380000000000003  2.980333335937499 1.8276666640625  C 2.9203333359374994 1.903333328125  2.7909999999999986 2.0293333281250003  2.556666664062499 2.2413333359375  C 2.443333328124999 2.3403333359375003  2.363333328124999 2.4326666718750003  2.3133333359374992 2.5170000000000003  C 2.247666671874999 2.6303333359375003  2.2159999999999993 2.7456666640625  2.215666664062499 2.8696666640625006  L 2.2246666640624992 3.021000000000001  C 2.2247753126769707 3.0227757514039277  2.224829675035232 3.024554408134354  2.224829675035232 3.026333480243623  C 2.224829675035232 3.074566349833754  2.185729208687863 3.113666816181122  2.1374963390977317 3.113666816181122  L 1.8099999999999992 3.1136666640625004  C 1.7614338022826082 3.1136673001772435  1.722333335935239 3.0745668338298744  1.722333335935239 3.0263339642397433  L 1.722333335937499 2.875  C 1.722333335937499 2.7096666640624996  1.7569999999999992 2.5553333359375  1.8246666640624989 2.4203333359375003  C 1.9066666640624987 2.2446666718750006  2.076333328124999 2.0413333359375  2.3223333359374987 1.8266666640625004  C 2.4753333359374983 1.6733333281250005  2.5233333359374983 1.6240000000000006  2.554999999999999 1.5843333359375005  C 2.6549999999999985 1.4556666718750004  2.7036666640624984 1.3280000000000003  2.7036666640624984 1.1943333359375004  C 2.7036666640624984 0.9953333359375005  2.645999999999998 0.8383333359375005  2.536333335937498 0.7240000000000002  C 2.4209999999999985 0.6086666640625  2.2523333359374984 0.5510000000000002  2.0239999999999982 0.5510000000000002  C 1.7689999999999984 0.5510000000000002  1.586333335937498 0.633  1.4606666640624981 0.8000000000000003  C 1.3549999999999982 0.9323333359375003  1.304666664062498 1.1256666640625004  1.304666664062498 1.3926666640625003  Z M 2 3.966  C 1.8619288125423017 3.966  1.75 3.8540711874576985  1.75 3.716  C 1.75 3.577928812542302  1.8619288125423017 3.466  2 3.466  C 2.1380711874576983 3.466  2.25 3.577928812542302  2.25 3.716  C 2.25 3.8540711874576985  2.1380711874576983 3.966  2 3.966  Z " fill-rule="nonzero" fill="rgba(255, 255, 255, 1)" stroke="none" transform="matrix(1 0 0 1 230 92 )" class="fill" />
    <path d="M 1.304666664062498 1.3926666640625003  C 1.3046905839615754 1.397918211171536  1.3042443605706837 1.4031613582386195  1.3033333359375 1.4083333359374999  L 1.3033333359375 1.4136666640624997  C 1.3006108790441746 1.5497895087287659  1.1894834024507865 1.6587166590634994  1.0533333359375 1.6587166590634994  C 0.9152345370031818 1.6587166590634994  0.8032833409365003 1.546765462996818  0.8032833409365003 1.4086666640624999  C 0.8032833409365003 1.406999872422916  0.8033000067698755 1.40533312244373  0.8033333359374999 1.4036666640625004  C 0.8029937032704528 1.4000104895290137  0.8028823752934153 1.3963366949882885  0.8029999999999999 1.3926666640624998  C 0.8029999999999999 1.0233333281249997  0.9066666640625001 0.7193333281249998  1.112 0.4796666640625  C 1.3370000000000002 0.22100000000000009  1.6470000000000002 0.09433332812499984  2.0396666640624996 0.09433333593749982  C 2.3889999999999993 0.09433333593749982  2.6719999999999997 0.19566667187499975  2.8876666640624995 0.3999999999999999  C 3.094333328125 0.5946666640624998  3.196999999999999 0.8580000000000001  3.196999999999999 1.1840000000000002  C 3.196999999999999 1.4206666640625003  3.1236666640624993 1.6380000000000003  2.980333335937499 1.8276666640625  C 2.9203333359374994 1.903333328125  2.7909999999999986 2.0293333281250003  2.556666664062499 2.2413333359375  C 2.443333328124999 2.3403333359375003  2.363333328124999 2.4326666718750003  2.3133333359374992 2.5170000000000003  C 2.247666671874999 2.6303333359375003  2.2159999999999993 2.7456666640625  2.215666664062499 2.8696666640625006  L 2.2246666640624992 3.021000000000001  C 2.2247753126769707 3.0227757514039277  2.224829675035232 3.024554408134354  2.224829675035232 3.026333480243623  C 2.224829675035232 3.074566349833754  2.185729208687863 3.113666816181122  2.1374963390977317 3.113666816181122  L 1.8099999999999992 3.1136666640625004  C 1.7614338022826082 3.1136673001772435  1.722333335935239 3.0745668338298744  1.722333335935239 3.0263339642397433  L 1.722333335937499 2.875  C 1.722333335937499 2.7096666640624996  1.7569999999999992 2.5553333359375  1.8246666640624989 2.4203333359375003  C 1.9066666640624987 2.2446666718750006  2.076333328124999 2.0413333359375  2.3223333359374987 1.8266666640625004  C 2.4753333359374983 1.6733333281250005  2.5233333359374983 1.6240000000000006  2.554999999999999 1.5843333359375005  C 2.6549999999999985 1.4556666718750004  2.7036666640624984 1.3280000000000003  2.7036666640624984 1.1943333359375004  C 2.7036666640624984 0.9953333359375005  2.645999999999998 0.8383333359375005  2.536333335937498 0.7240000000000002  C 2.4209999999999985 0.6086666640625  2.2523333359374984 0.5510000000000002  2.0239999999999982 0.5510000000000002  C 1.7689999999999984 0.5510000000000002  1.586333335937498 0.633  1.4606666640624981 0.8000000000000003  C 1.3549999999999982 0.9323333359375003  1.304666664062498 1.1256666640625004  1.304666664062498 1.3926666640625003  Z " stroke-width="0" stroke-dasharray="0" stroke="rgba(255, 255, 255, 0)" fill="none" transform="matrix(1 0 0 1 230 92 )" class="stroke" mask="url(#Clip4694)" />
    <path d="M 2 3.966  C 1.8619288125423017 3.966  1.75 3.8540711874576985  1.75 3.716  C 1.75 3.577928812542302  1.8619288125423017 3.466  2 3.466  C 2.1380711874576983 3.466  2.25 3.577928812542302  2.25 3.716  C 2.25 3.8540711874576985  2.1380711874576983 3.966  2 3.966  Z " stroke-width="0" stroke-dasharray="0" stroke="rgba(255, 255, 255, 0)" fill="none" transform="matrix(1 0 0 1 230 92 )" class="stroke" mask="url(#Clip4694)" />
  </g>
</svg>