<?xml version="1.0" encoding="utf-8"?>
<svg version="1.1" xmlns:xlink="http://www.w3.org/1999/xlink" width="28px" height="28px" xmlns="http://www.w3.org/2000/svg">
  <defs>
    <pattern id="BGPattern" patternUnits="userSpaceOnUse" alignment="0 0" imageRepeat="None" />
    <mask fill="white" id="Clip7149">
      <path d="M 7.584934843749998 6.740626289062503  L 4.879989257812499 4.02687810546875  L 7.582482207031248 1.3537494921875002  C 7.8281145117187485 1.1112417578124996  7.829995976562497 0.7156296093750001  7.587488261718747 0.46999730468750034  C 7.344980546874998 0.2243650000000006  6.948730039062497 0.2224835351562504  6.703736074218748 0.46499125000000063  L 3.997480195312498 3.1412444335937497  L 1.3324822070312479 0.46811582031250154  C 1.088093007812498 0.22372662109375163  0.6931192187499979 0.2224835156250009  0.448730019531248 0.4668727148437508  C 0.20434082031249812 0.7106235546875013  0.20373607421874773 1.1062357031250016  0.4474869140624982 1.3506249023437507  L 3.108721972656248 4.019990585937501  L 0.4255812695312482 6.6743717187500025  C 0.17994896484374934 6.917484199218752  0.17806749999999827 7.3124916015625026  0.4205752148437494 7.558123906250001  C 0.5430721874999982 7.681864003906252  0.7037024804687491 7.743750839843752  0.8649375390624989 7.743750839843752  C 1.0236863671874996 7.743750839843752  1.1824351953124985 7.683140703125002  1.3043274023437483 7.563129960937502  L 3.991197441406248 4.9056242578125016  L 6.699939550781249 7.623135351562501  C 6.82183177734375 7.74563232421875  6.981823710937499 7.806880820312502  7.14245400390625 7.806880820312502  C 7.3024459375 7.806880820312502  7.461833125 7.74563232421875  7.583691738281249 7.624378476562502  C 7.828080937500001 7.380627636718751  7.828685683593749 6.9856202539062515  7.584934843749998 6.740626289062503  Z " fill-rule="evenodd" />
    </mask>
  </defs>
  <g transform="matrix(1 0 0 1 -185 -3826 )">
    <path d="M 7.584934843749998 6.740626289062503  L 4.879989257812499 4.02687810546875  L 7.582482207031248 1.3537494921875002  C 7.8281145117187485 1.1112417578124996  7.829995976562497 0.7156296093750001  7.587488261718747 0.46999730468750034  C 7.344980546874998 0.2243650000000006  6.948730039062497 0.2224835351562504  6.703736074218748 0.46499125000000063  L 3.997480195312498 3.1412444335937497  L 1.3324822070312479 0.46811582031250154  C 1.088093007812498 0.22372662109375163  0.6931192187499979 0.2224835156250009  0.448730019531248 0.4668727148437508  C 0.20434082031249812 0.7106235546875013  0.20373607421874773 1.1062357031250016  0.4474869140624982 1.3506249023437507  L 3.108721972656248 4.019990585937501  L 0.4255812695312482 6.6743717187500025  C 0.17994896484374934 6.917484199218752  0.17806749999999827 7.3124916015625026  0.4205752148437494 7.558123906250001  C 0.5430721874999982 7.681864003906252  0.7037024804687491 7.743750839843752  0.8649375390624989 7.743750839843752  C 1.0236863671874996 7.743750839843752  1.1824351953124985 7.683140703125002  1.3043274023437483 7.563129960937502  L 3.991197441406248 4.9056242578125016  L 6.699939550781249 7.623135351562501  C 6.82183177734375 7.74563232421875  6.981823710937499 7.806880820312502  7.14245400390625 7.806880820312502  C 7.3024459375 7.806880820312502  7.461833125 7.74563232421875  7.583691738281249 7.624378476562502  C 7.828080937500001 7.380627636718751  7.828685683593749 6.9856202539062515  7.584934843749998 6.740626289062503  Z " fill-rule="nonzero" fill="rgba(255, 255, 255, 1)" stroke="none" transform="matrix(1 0 0 1 195 3836 )" class="fill" />
    <path d="M 7.584934843749998 6.740626289062503  L 4.879989257812499 4.02687810546875  L 7.582482207031248 1.3537494921875002  C 7.8281145117187485 1.1112417578124996  7.829995976562497 0.7156296093750001  7.587488261718747 0.46999730468750034  C 7.344980546874998 0.2243650000000006  6.948730039062497 0.2224835351562504  6.703736074218748 0.46499125000000063  L 3.997480195312498 3.1412444335937497  L 1.3324822070312479 0.46811582031250154  C 1.088093007812498 0.22372662109375163  0.6931192187499979 0.2224835156250009  0.448730019531248 0.4668727148437508  C 0.20434082031249812 0.7106235546875013  0.20373607421874773 1.1062357031250016  0.4474869140624982 1.3506249023437507  L 3.108721972656248 4.019990585937501  L 0.4255812695312482 6.6743717187500025  C 0.17994896484374934 6.917484199218752  0.17806749999999827 7.3124916015625026  0.4205752148437494 7.558123906250001  C 0.5430721874999982 7.681864003906252  0.7037024804687491 7.743750839843752  0.8649375390624989 7.743750839843752  C 1.0236863671874996 7.743750839843752  1.1824351953124985 7.683140703125002  1.3043274023437483 7.563129960937502  L 3.991197441406248 4.9056242578125016  L 6.699939550781249 7.623135351562501  C 6.82183177734375 7.74563232421875  6.981823710937499 7.806880820312502  7.14245400390625 7.806880820312502  C 7.3024459375 7.806880820312502  7.461833125 7.74563232421875  7.583691738281249 7.624378476562502  C 7.828080937500001 7.380627636718751  7.828685683593749 6.9856202539062515  7.584934843749998 6.740626289062503  Z " stroke-width="0" stroke-dasharray="0" stroke="rgba(255, 255, 255, 0)" fill="none" transform="matrix(1 0 0 1 195 3836 )" class="stroke" mask="url(#Clip7149)" />
  </g>
  <style>svg { filter: drop-shadow(0px 0px 5px rgba(0, 0, 0, 0.3137254901960784)); }</style>
</svg>