<?xml version="1.0" encoding="utf-8"?>
<svg version="1.1" xmlns:xlink="http://www.w3.org/1999/xlink" width="38px" height="38px" xmlns="http://www.w3.org/2000/svg">
  <defs>
    <pattern id="BGPattern" patternUnits="userSpaceOnUse" alignment="0 0" imageRepeat="None" />
    <mask fill="white" id="Clip2799">
      <path d="M 17.75 9  C 17.75 13.824989921875  13.824989921875 17.75  9 17.75  C 4.175010078125 17.75  0.25 13.824989921875  0.25 9  C 0.25 4.175010078125  4.175010078125 0.25  9 0.25  C 13.824989921875 0.25  17.75 4.175010078125  17.75 9  Z M 16.494389199218748 9  C 16.494389199218748 4.8674909374999995  13.13187072265625 1.50561080078125  9 1.50561080078125  C 4.8674909374999995 1.50561080078125  1.5056108007812505 4.86749091796875  1.5056108007812505 9  C 1.5056108007812505 13.13187072265625  4.86749091796875 16.494389199218748  9 16.494389199218748  C 13.13187072265625 16.494389199218748  16.494389199218748 13.13190431640625  16.494389199218748 9  Z " fill-rule="evenodd" />
    </mask>
  </defs>
  <g transform="matrix(1 0 0 1 -180 -3821 )">
    <path d="M 17.75 9  C 17.75 13.824989921875  13.824989921875 17.75  9 17.75  C 4.175010078125 17.75  0.25 13.824989921875  0.25 9  C 0.25 4.175010078125  4.175010078125 0.25  9 0.25  C 13.824989921875 0.25  17.75 4.175010078125  17.75 9  Z M 16.494389199218748 9  C 16.494389199218748 4.8674909374999995  13.13187072265625 1.50561080078125  9 1.50561080078125  C 4.8674909374999995 1.50561080078125  1.5056108007812505 4.86749091796875  1.5056108007812505 9  C 1.5056108007812505 13.13187072265625  4.86749091796875 16.494389199218748  9 16.494389199218748  C 13.13187072265625 16.494389199218748  16.494389199218748 13.13190431640625  16.494389199218748 9  Z " fill-rule="nonzero" fill="rgba(255, 255, 255, 1)" stroke="none" transform="matrix(1 0 0 1 190 3831 )" class="fill" />
    <path d="M 17.75 9  C 17.75 13.824989921875  13.824989921875 17.75  9 17.75  C 4.175010078125 17.75  0.25 13.824989921875  0.25 9  C 0.25 4.175010078125  4.175010078125 0.25  9 0.25  C 13.824989921875 0.25  17.75 4.175010078125  17.75 9  Z " stroke-width="0" stroke-dasharray="0" stroke="rgba(255, 255, 255, 0)" fill="none" transform="matrix(1 0 0 1 190 3831 )" class="stroke" mask="url(#Clip2799)" />
    <path d="M 16.494389199218748 9  C 16.494389199218748 4.8674909374999995  13.13187072265625 1.50561080078125  9 1.50561080078125  C 4.8674909374999995 1.50561080078125  1.5056108007812505 4.86749091796875  1.5056108007812505 9  C 1.5056108007812505 13.13187072265625  4.86749091796875 16.494389199218748  9 16.494389199218748  C 13.13187072265625 16.494389199218748  16.494389199218748 13.13190431640625  16.494389199218748 9  Z " stroke-width="0" stroke-dasharray="0" stroke="rgba(255, 255, 255, 0)" fill="none" transform="matrix(1 0 0 1 190 3831 )" class="stroke" mask="url(#Clip2799)" />
  </g>
  <style>svg { filter: drop-shadow(0px 0px 5px rgba(0, 0, 0, 0.3137254901960784)); }</style>
</svg>