<?xml version="1.0" encoding="utf-8"?>
<svg version="1.1" xmlns:xlink="http://www.w3.org/1999/xlink" width="11px" height="11px" xmlns="http://www.w3.org/2000/svg">
  <defs>
    <pattern id="BGPattern" patternUnits="userSpaceOnUse" alignment="0 0" imageRepeat="None" />
    <mask fill="white" id="Clip2567">
      <path d="M 0 6.416928568359375  L 7.333071431640625 0  L 10.083071431640626 2.75  L 2.75 9.166928568359374  L 0 9.166928568359374  L 0 6.416928568359375  Z M 7.291428568359375 1.255571431640625  L 0.916928568359375 6.832571431640625  L 0.916928568359375 8.25  L 2.404285715820312 8.25  L 8.741857147460937 2.705214284179688  L 7.291428568359375 1.255571431640625  Z M 0 11  L 0 10  L 11 10  L 11 11  L 0 11  Z " fill-rule="evenodd" />
    </mask>
  </defs>
  <g transform="matrix(1 0 0 1 -218 -68 )">
    <path d="M 0 6.416928568359375  L 7.333071431640625 0  L 10.083071431640626 2.75  L 2.75 9.166928568359374  L 0 9.166928568359374  L 0 6.416928568359375  Z M 7.291428568359375 1.255571431640625  L 0.916928568359375 6.832571431640625  L 0.916928568359375 8.25  L 2.404285715820312 8.25  L 8.741857147460937 2.705214284179688  L 7.291428568359375 1.255571431640625  Z M 0 11  L 0 10  L 11 10  L 11 11  L 0 11  Z " fill-rule="nonzero" fill="rgba(255, 255, 255, 1)" stroke="none" transform="matrix(1 0 0 1 218 68 )" class="fill" />
    <path d="M 0 6.416928568359375  L 7.333071431640625 0  L 10.083071431640626 2.75  L 2.75 9.166928568359374  L 0 9.166928568359374  L 0 6.416928568359375  Z " stroke-width="0" stroke-dasharray="0" stroke="rgba(255, 255, 255, 0)" fill="none" transform="matrix(1 0 0 1 218 68 )" class="stroke" mask="url(#Clip2567)" />
    <path d="M 7.291428568359375 1.255571431640625  L 0.916928568359375 6.832571431640625  L 0.916928568359375 8.25  L 2.404285715820312 8.25  L 8.741857147460937 2.705214284179688  L 7.291428568359375 1.255571431640625  Z " stroke-width="0" stroke-dasharray="0" stroke="rgba(255, 255, 255, 0)" fill="none" transform="matrix(1 0 0 1 218 68 )" class="stroke" mask="url(#Clip2567)" />
    <path d="M 0 11  L 0 10  L 11 10  L 11 11  L 0 11  Z " stroke-width="0" stroke-dasharray="0" stroke="rgba(255, 255, 255, 0)" fill="none" transform="matrix(1 0 0 1 218 68 )" class="stroke" mask="url(#Clip2567)" />
  </g>
</svg>