<?xml version="1.0" encoding="utf-8"?>
<svg version="1.1" xmlns:xlink="http://www.w3.org/1999/xlink" width="7px" height="7px" xmlns="http://www.w3.org/2000/svg">
  <defs>
    <pattern id="BGPattern" patternUnits="userSpaceOnUse" alignment="0 0" imageRepeat="None" />
    <mask fill="white" id="Clip1892">
      <path d="M 6.005484375 2.001781249999998  L 2.615390625 6.667624999999999  L 2.6110312500000004 6.664484375000001  C 2.474056533677575 6.564937227792113  2.398775238408499 6.401268339563803  2.412328125 6.2324843749999985  L 2.663859375 3.100859374999997  C 2.6647717551136605 3.0897523394195723  2.6611921286680227 3.078743299596196  2.653921875 3.0702968749999986  L 0.6097031249999999 0.6845937499999986  C 0.4995399439768511 0.5560149690025984  0.46425205849828377 0.3793624290653499  0.5165624999999999 0.21832812499999754  L 6.005484375 2.001781249999998  Z " fill-rule="evenodd" />
    </mask>
  </defs>
  <g transform="matrix(1 0 0 1 875 -312 )">
    <path d="M 6.005484375 2.001781249999998  L 2.615390625 6.667624999999999  L 2.6110312500000004 6.664484375000001  C 2.474056533677575 6.564937227792113  2.398775238408499 6.401268339563803  2.412328125 6.2324843749999985  L 2.663859375 3.100859374999997  C 2.6647717551136605 3.0897523394195723  2.6611921286680227 3.078743299596196  2.653921875 3.0702968749999986  L 0.6097031249999999 0.6845937499999986  C 0.4995399439768511 0.5560149690025984  0.46425205849828377 0.3793624290653499  0.5165624999999999 0.21832812499999754  L 6.005484375 2.001781249999998  Z " fill-rule="nonzero" fill="rgba(255, 186, 83, 1)" stroke="none" transform="matrix(1 0 0 1 -875 312 )" class="fill" />
    <path d="M 6.005484375 2.001781249999998  L 2.615390625 6.667624999999999  L 2.6110312500000004 6.664484375000001  C 2.474056533677575 6.564937227792113  2.398775238408499 6.401268339563803  2.412328125 6.2324843749999985  L 2.663859375 3.100859374999997  C 2.6647717551136605 3.0897523394195723  2.6611921286680227 3.078743299596196  2.653921875 3.0702968749999986  L 0.6097031249999999 0.6845937499999986  C 0.4995399439768511 0.5560149690025984  0.46425205849828377 0.3793624290653499  0.5165624999999999 0.21832812499999754  L 6.005484375 2.001781249999998  Z " stroke-width="0" stroke-dasharray="0" stroke="rgba(255, 255, 255, 0)" fill="none" transform="matrix(1 0 0 1 -875 312 )" class="stroke" mask="url(#Clip1892)" />
  </g>
</svg>