<?xml version="1.0" encoding="utf-8"?>
<svg version="1.1" xmlns:xlink="http://www.w3.org/1999/xlink" width="8px" height="5px" xmlns="http://www.w3.org/2000/svg">
  <defs>
    <pattern id="BGPattern" patternUnits="userSpaceOnUse" alignment="0 0" imageRepeat="None" />
    <mask fill="white" id="Clip269">
      <path d="M 1.0832968750000012 4.719984375000003  C 0.9288159211762004 4.784278794600311  0.7521204603814278 4.764549542989066  0.6156249999999996 4.667765625000001  L 4.005484375 0.0017812500000005116  L 7.388968750000002 4.6644843750000025  C 7.251971362080845 4.7640103393923585  7.073041666820393 4.785037908542568  6.9167031250000015 4.719984375000001  L 4.016078125000001 3.5130468750000006  C 4.005782760618038 3.5087862813355795  3.994217239381964 3.5087862813355795  3.983921875 3.5130468750000006  L 1.0832968750000012 4.719984375000003  Z " fill-rule="evenodd" />
    </mask>
  </defs>
  <g transform="matrix(1 0 0 1 873 -314 )">
    <path d="M 1.0832968750000012 4.719984375000003  C 0.9288159211762004 4.784278794600311  0.7521204603814278 4.764549542989066  0.6156249999999996 4.667765625000001  L 4.005484375 0.0017812500000005116  L 7.388968750000002 4.6644843750000025  C 7.251971362080845 4.7640103393923585  7.073041666820393 4.785037908542568  6.9167031250000015 4.719984375000001  L 4.016078125000001 3.5130468750000006  C 4.005782760618038 3.5087862813355795  3.994217239381964 3.5087862813355795  3.983921875 3.5130468750000006  L 1.0832968750000012 4.719984375000003  Z " fill-rule="nonzero" fill="rgba(255, 153, 86, 1)" stroke="none" transform="matrix(1 0 0 1 -873 314 )" class="fill" />
    <path d="M 1.0832968750000012 4.719984375000003  C 0.9288159211762004 4.784278794600311  0.7521204603814278 4.764549542989066  0.6156249999999996 4.667765625000001  L 4.005484375 0.0017812500000005116  L 7.388968750000002 4.6644843750000025  C 7.251971362080845 4.7640103393923585  7.073041666820393 4.785037908542568  6.9167031250000015 4.719984375000001  L 4.016078125000001 3.5130468750000006  C 4.005782760618038 3.5087862813355795  3.994217239381964 3.5087862813355795  3.983921875 3.5130468750000006  L 1.0832968750000012 4.719984375000003  Z " stroke-width="0" stroke-dasharray="0" stroke="rgba(255, 255, 255, 0)" fill="none" transform="matrix(1 0 0 1 -873 314 )" class="stroke" mask="url(#Clip269)" />
  </g>
</svg>