<?xml version="1.0" encoding="utf-8"?>
<svg version="1.1" xmlns:xlink="http://www.w3.org/1999/xlink" width="85px" height="73px" xmlns="http://www.w3.org/2000/svg">
  <defs>
    <pattern id="BGPattern" patternUnits="userSpaceOnUse" alignment="0 0" imageRepeat="None" />
    <mask fill="white" id="Clip12631">
      <path d="M 84 34.51953125  C 84.138671875 33.46484375  83.279296875 32.615234375  82.234375 33  L 67.01953125 33  C 65.96484375000001 32.615234375  65.115234375 33.46484375  65.115234375 34.51953125  C 65.115234375 35.57421875  65.96484375000001 36.423828125  67.01953125 36  L 80 36  L 80 68  L 59 68  L 59 4.08984375  C 59.412109375 1.990234375  57.712890625 0.291015625  55.61328125 1  L 28.982421874999996 1  C 26.8828125 0.291015625  25.18359375 1.990234375  26 4.08984375  L 26 68  L 5 68  L 5 27  L 17.576171874999996 27  C 18.630859375 26.912109375  19.480468749999996 26.0625  19.480468749999996 25.0078125  C 19.480468749999996 23.953125  18.630859375 23.103515625  17.576171874999996 24  L 2.361328125 24  C 1.306640625 23.103515625  0.45703125 23.953125  1 25.0078125  L 1 70.65234375  C 0.45703125 71.70703125  1.306640625 72.556640625  2.361328125 72  L 82.234375 72  C 83.2890625 72.556640625  84.138671875 71.70703125  84 70.65234375  L 84 34.51953125  Z M 55 68.748046875  L 55.61328125 68  L 29 68  L 29 7.888671875  C 28.982421874999996 5.7890625  30.681640625 4.08984375  32.78125 4  L 51.79492187499999 4  C 53.894531249999986 4.08984375  55.59374999999999 5.7890625  55 7.888671875  L 55 68.748046875  Z M 42.29296875 11.697265625  L 36.58984375 17.400390625  L 36.58984375 19.3046875  L 42.29296875 19.3046875  L 42.29296875 28.81640625  L 46 28.81640625  L 46 11.697265625  L 42.29296875 11.697265625  Z " fill-rule="evenodd" />
    </mask>
  </defs>
  <g transform="matrix(1 0 0 1 -94 -7 )">
    <path d="M 84 34.51953125  C 84.138671875 33.46484375  83.279296875 32.615234375  82.234375 33  L 67.01953125 33  C 65.96484375000001 32.615234375  65.115234375 33.46484375  65.115234375 34.51953125  C 65.115234375 35.57421875  65.96484375000001 36.423828125  67.01953125 36  L 80 36  L 80 68  L 59 68  L 59 4.08984375  C 59.412109375 1.990234375  57.712890625 0.291015625  55.61328125 1  L 28.982421874999996 1  C 26.8828125 0.291015625  25.18359375 1.990234375  26 4.08984375  L 26 68  L 5 68  L 5 27  L 17.576171874999996 27  C 18.630859375 26.912109375  19.480468749999996 26.0625  19.480468749999996 25.0078125  C 19.480468749999996 23.953125  18.630859375 23.103515625  17.576171874999996 24  L 2.361328125 24  C 1.306640625 23.103515625  0.45703125 23.953125  1 25.0078125  L 1 70.65234375  C 0.45703125 71.70703125  1.306640625 72.556640625  2.361328125 72  L 82.234375 72  C 83.2890625 72.556640625  84.138671875 71.70703125  84 70.65234375  L 84 34.51953125  Z M 55 68.748046875  L 55.61328125 68  L 29 68  L 29 7.888671875  C 28.982421874999996 5.7890625  30.681640625 4.08984375  32.78125 4  L 51.79492187499999 4  C 53.894531249999986 4.08984375  55.59374999999999 5.7890625  55 7.888671875  L 55 68.748046875  Z M 42.29296875 11.697265625  L 36.58984375 17.400390625  L 36.58984375 19.3046875  L 42.29296875 19.3046875  L 42.29296875 28.81640625  L 46 28.81640625  L 46 11.697265625  L 42.29296875 11.697265625  Z " fill-rule="nonzero" fill="rgba(255, 255, 255, 0.2)" stroke="none" transform="matrix(1 0 0 1 94 7 )" class="fill" />
    <path d="M 84 34.51953125  C 84.138671875 33.46484375  83.279296875 32.615234375  82.234375 33  L 67.01953125 33  C 65.96484375000001 32.615234375  65.115234375 33.46484375  65.115234375 34.51953125  C 65.115234375 35.57421875  65.96484375000001 36.423828125  67.01953125 36  L 80 36  L 80 68  L 59 68  L 59 4.08984375  C 59.412109375 1.990234375  57.712890625 0.291015625  55.61328125 1  L 28.982421874999996 1  C 26.8828125 0.291015625  25.18359375 1.990234375  26 4.08984375  L 26 68  L 5 68  L 5 27  L 17.576171874999996 27  C 18.630859375 26.912109375  19.480468749999996 26.0625  19.480468749999996 25.0078125  C 19.480468749999996 23.953125  18.630859375 23.103515625  17.576171874999996 24  L 2.361328125 24  C 1.306640625 23.103515625  0.45703125 23.953125  1 25.0078125  L 1 70.65234375  C 0.45703125 71.70703125  1.306640625 72.556640625  2.361328125 72  L 82.234375 72  C 83.2890625 72.556640625  84.138671875 71.70703125  84 70.65234375  L 84 34.51953125  Z " stroke-width="0" stroke-dasharray="0" stroke="rgba(255, 255, 255, 0)" fill="none" transform="matrix(1 0 0 1 94 7 )" class="stroke" mask="url(#Clip12631)" />
    <path d="M 55 68.748046875  L 55.61328125 68  L 29 68  L 29 7.888671875  C 28.982421874999996 5.7890625  30.681640625 4.08984375  32.78125 4  L 51.79492187499999 4  C 53.894531249999986 4.08984375  55.59374999999999 5.7890625  55 7.888671875  L 55 68.748046875  Z " stroke-width="0" stroke-dasharray="0" stroke="rgba(255, 255, 255, 0)" fill="none" transform="matrix(1 0 0 1 94 7 )" class="stroke" mask="url(#Clip12631)" />
    <path d="M 42.29296875 11.697265625  L 36.58984375 17.400390625  L 36.58984375 19.3046875  L 42.29296875 19.3046875  L 42.29296875 28.81640625  L 46 28.81640625  L 46 11.697265625  L 42.29296875 11.697265625  Z " stroke-width="0" stroke-dasharray="0" stroke="rgba(255, 255, 255, 0)" fill="none" transform="matrix(1 0 0 1 94 7 )" class="stroke" mask="url(#Clip12631)" />
  </g>
</svg>