<?xml version="1.0" encoding="utf-8"?>
<svg version="1.1" xmlns:xlink="http://www.w3.org/1999/xlink" width="84px" height="84px" xmlns="http://www.w3.org/2000/svg">
  <defs>
    <pattern id="BGPattern" patternUnits="userSpaceOnUse" alignment="0 0" imageRepeat="None" />
    <mask fill="white" id="Clip16796">
      <path d="M 67.5 44.33333330078125  C 68.5565425915758 44.041554966144695  69.29980954237116 43.09557884335134  69.33333330078125 42.00000000000001  C 69.37506311804869 40.84261194048898  68.6164102856337 39.80808533246347  67.5 39.5  C 52.83333330078125 34.83333330078124  48.16666669921875 30.166666699218744  44.33333330078125 16.499999999999996  C 44.33333330078125 15.211335601706164  43.288664398293825 14.166666699218748  42 14.166666699218748  C 40.71133560170617 14.166666699218748  39.66666669921875 15.211335601706164  39.66666669921875 16.499999999999996  C 35.8333333984375 30.166666699218744  31.16666669921875 34.83333330078124  16.500000000000004 39.5  C 15.383589714366295 39.80808533246347  14.624936881951317 40.84261194048898  14.66666669921875 42.00000000000001  C 14.700190457628839 43.09557884335134  15.443457408424205 44.04155496614469  16.500000000000004 44.33333330078125  C 31.16666669921875 48.99999999999999  35.83333330078125 53.83333330078125  39.66666669921875 67.33333330078125  C 39.66666669921875 68.62199769907508  40.71133560170617 69.6666666015625  42 69.6666666015625  C 43.288664398293825 69.6666666015625  44.33333330078125 68.62199769907508  44.33333330078125 67.33333330078125  C 48.1666666015625 53.83333330078125  52.83333330078125 48.99999999999999  67.5 44.33333330078125  Z M 39.5 6.5  C 39.5 7.880711874576985  40.61928812542302 9.000000000000004  42 9.000000000000004  C 43.38071187457699 9.000000000000004  44.5 7.880711874576985  44.5 6.5  L 44.5 3  C 44.5 1.6192881254230171  43.38071187457699 0.5000000000000009  42 0.5000000000000009  C 40.61928812542302 0.5000000000000009  39.5 1.6192881254230171  39.5 3  L 39.5 6.5  Z M 44.5 77.33333330078126  C 44.5 75.95262142620427  43.38071187457699 74.83333330078126  42 74.83333330078126  C 40.61928812542302 74.83333330078126  39.5 75.95262142620427  39.5 77.33333330078125  L 39.5 80.83333330078126  C 39.5 82.21404517535825  40.61928812542302 83.33333330078126  42 83.33333330078126  C 43.38071187457699 83.33333330078126  44.5 82.21404517535825  44.5 80.83333330078126  L 44.5 77.33333330078126  Z M 83.5 42.00000000000001  C 83.5 40.61928812542303  82.380711874577 39.5  81 39.5  L 77.33333330078125 39.5  C 77.33134645805923 39.4999949245593  77.32935960966364 39.49999238683584  77.32737276045896 39.49999238683584  C 76.03870836216512 39.49999238683584  74.99403945967771 40.54466128932326  74.99403945967771 41.83332568761709  C 74.99403945967771 41.8889370700084  74.9960275761214 41.944530677848014  75 42.00000000000001  C 74.9970677043112 43.3181594546531  76.01810288031953 44.41212572992383  77.33333330078125 44.5  L 81.00000000000001 44.5  C 82.380711874577 44.5  83.5 43.38071187457699  83.5 42.00000000000001  Z M 6.672627239541027 39.49999238683586  C 6.670640390337692 39.49999238683586  6.668653541939424 39.4999949245593  6.66666669921875 39.5  L 3.0000000000000018 39.50000000000001  C 1.619288125423015 39.50000000000001  0.5 40.61928812542302  0.5 42.00000000000001  C 0.5 43.38071187457699  1.619288125423015 44.5  2.9999999999999982 44.5  L 6.66666669921875 44.5  C 7.981897119680472 44.41212572992383  9.002932295688804 43.3181594546531  9 41.99999999999999  C 9.003972423878583 41.94453067784808  9.005960540322278 41.88893707000834  9.005960540322278 41.833325687617105  C 9.005960540322278 40.54466128932327  7.96129163783486 39.49999238683586  6.672627239541027 39.49999238683586  Z M 72.16666669921875 11.833333300781243  C 71.1383192010802 10.859766638517453  69.52834749813859 10.85976663851745  68.5 11.833333300781248  L 58.000000000000014 22.5  C 57.0471428095143 23.472108775496597  57.0471428095143 25.0278912245034  58.000000000000014 26  C 58.43304479652973 26.452729632005642  59.0408552032071 26.69585380179936  59.66666669921877 26.666666699218744  C 60.34284175306351 26.701880346820502  61.00438264991463 26.461320004675393  61.49999999999999 25.999999999999993  L 72.16666669921875 15.333333300781241  C 72.97339072053249 14.306124558378421  72.97339072053249 12.860542043184061  72.16666669921875 11.833333300781243  Z M 11.833333300781248 15.333333300781248  L 22.5 26.000000000000007  C 22.995617350085382 26.4613200046754  23.65715824693651 26.701880346820502  24.33333330078126 26.66666669921876  C 24.959144796792927 26.695853801799366  25.566955203470286 26.452729632005642  26 26  C 26.50225102937209 25.557056240976234  26.789978418541025 24.91966802982033  26.789978418541025 24.250000000000007  C 26.789978418541025 23.58033197017968  26.50225102937209 22.942943759023777  26 22.500000000000004  L 15.499999999999996 11.833333300781248  C 14.47165250186142 10.85976663851745  12.861680798919824 10.85976663851745  11.833333300781248 11.833333300781248  C 11.026609279467499 12.860542043184068  11.026609279467499 14.306124558378428  11.833333300781248 15.333333300781248  Z M 24.249999999999993 57.04335488224023  C 23.580331970179664 57.04335488224023  22.942943759023766 57.33108227140916  22.5 57.83333330078125  L 11.833333300781248 68.49999999999999  C 11.026609279467499 69.52720874240282  11.026609279467499 70.97279125759718  11.833333300781248 72  C 12.312035787390766 72.50672286942543  12.970125914446687 72.80585472305253  13.666666699218748 72.83333330078125  C 14.363207449736928 72.80585469784643  15.021297537258846 72.50672284625546  15.5 72  L 26 61.49999999999999  C 26.9735666622638 60.471652501861435  26.973566662263792 58.861680798919835  26 57.83333330078126  C 25.557056240976223 57.33108227140916  24.919668029820322 57.04335488224023  24.249999999999993 57.04335488224023  Z M 72.16666669921872 68.49999999999997  L 61.49999999999999 57.83333330078125  C 61.05705624097624 57.33108227140916  60.41966802982033 57.04335488224023  59.75 57.04335488224023  C 59.08033197017966 57.04335488224023  58.442943759023755 57.33108227140915  57.99999999999999 57.83333330078125  C 57.026433337736194 58.861680798919835  57.026433337736194 60.47165250186141  57.99999999999999 61.49999999999999  L 68.49999999999999 72  C 68.97309533870502 72.5102989713842  69.63747112208138 72.80032684635837  70.33333334960938 72.80032684635837  C 71.02919557713734 72.80032684635837  71.69357136051372 72.5102989713842  72.16666669921872 71.99999999999999  C 72.97339072053246 70.97279125759717  72.97339072053246 69.5272087424028  72.16666669921872 68.49999999999997  Z " fill-rule="evenodd" />
    </mask>
  </defs>
  <g transform="matrix(1 0 0 1 -95 9 )">
    <path d="M 67.5 44.33333330078125  C 68.5565425915758 44.041554966144695  69.29980954237116 43.09557884335134  69.33333330078125 42.00000000000001  C 69.37506311804869 40.84261194048898  68.6164102856337 39.80808533246347  67.5 39.5  C 52.83333330078125 34.83333330078124  48.16666669921875 30.166666699218744  44.33333330078125 16.499999999999996  C 44.33333330078125 15.211335601706164  43.288664398293825 14.166666699218748  42 14.166666699218748  C 40.71133560170617 14.166666699218748  39.66666669921875 15.211335601706164  39.66666669921875 16.499999999999996  C 35.8333333984375 30.166666699218744  31.16666669921875 34.83333330078124  16.500000000000004 39.5  C 15.383589714366295 39.80808533246347  14.624936881951317 40.84261194048898  14.66666669921875 42.00000000000001  C 14.700190457628839 43.09557884335134  15.443457408424205 44.04155496614469  16.500000000000004 44.33333330078125  C 31.16666669921875 48.99999999999999  35.83333330078125 53.83333330078125  39.66666669921875 67.33333330078125  C 39.66666669921875 68.62199769907508  40.71133560170617 69.6666666015625  42 69.6666666015625  C 43.288664398293825 69.6666666015625  44.33333330078125 68.62199769907508  44.33333330078125 67.33333330078125  C 48.1666666015625 53.83333330078125  52.83333330078125 48.99999999999999  67.5 44.33333330078125  Z M 39.5 6.5  C 39.5 7.880711874576985  40.61928812542302 9.000000000000004  42 9.000000000000004  C 43.38071187457699 9.000000000000004  44.5 7.880711874576985  44.5 6.5  L 44.5 3  C 44.5 1.6192881254230171  43.38071187457699 0.5000000000000009  42 0.5000000000000009  C 40.61928812542302 0.5000000000000009  39.5 1.6192881254230171  39.5 3  L 39.5 6.5  Z M 44.5 77.33333330078126  C 44.5 75.95262142620427  43.38071187457699 74.83333330078126  42 74.83333330078126  C 40.61928812542302 74.83333330078126  39.5 75.95262142620427  39.5 77.33333330078125  L 39.5 80.83333330078126  C 39.5 82.21404517535825  40.61928812542302 83.33333330078126  42 83.33333330078126  C 43.38071187457699 83.33333330078126  44.5 82.21404517535825  44.5 80.83333330078126  L 44.5 77.33333330078126  Z M 83.5 42.00000000000001  C 83.5 40.61928812542303  82.380711874577 39.5  81 39.5  L 77.33333330078125 39.5  C 77.33134645805923 39.4999949245593  77.32935960966364 39.49999238683584  77.32737276045896 39.49999238683584  C 76.03870836216512 39.49999238683584  74.99403945967771 40.54466128932326  74.99403945967771 41.83332568761709  C 74.99403945967771 41.8889370700084  74.9960275761214 41.944530677848014  75 42.00000000000001  C 74.9970677043112 43.3181594546531  76.01810288031953 44.41212572992383  77.33333330078125 44.5  L 81.00000000000001 44.5  C 82.380711874577 44.5  83.5 43.38071187457699  83.5 42.00000000000001  Z M 6.672627239541027 39.49999238683586  C 6.670640390337692 39.49999238683586  6.668653541939424 39.4999949245593  6.66666669921875 39.5  L 3.0000000000000018 39.50000000000001  C 1.619288125423015 39.50000000000001  0.5 40.61928812542302  0.5 42.00000000000001  C 0.5 43.38071187457699  1.619288125423015 44.5  2.9999999999999982 44.5  L 6.66666669921875 44.5  C 7.981897119680472 44.41212572992383  9.002932295688804 43.3181594546531  9 41.99999999999999  C 9.003972423878583 41.94453067784808  9.005960540322278 41.88893707000834  9.005960540322278 41.833325687617105  C 9.005960540322278 40.54466128932327  7.96129163783486 39.49999238683586  6.672627239541027 39.49999238683586  Z M 72.16666669921875 11.833333300781243  C 71.1383192010802 10.859766638517453  69.52834749813859 10.85976663851745  68.5 11.833333300781248  L 58.000000000000014 22.5  C 57.0471428095143 23.472108775496597  57.0471428095143 25.0278912245034  58.000000000000014 26  C 58.43304479652973 26.452729632005642  59.0408552032071 26.69585380179936  59.66666669921877 26.666666699218744  C 60.34284175306351 26.701880346820502  61.00438264991463 26.461320004675393  61.49999999999999 25.999999999999993  L 72.16666669921875 15.333333300781241  C 72.97339072053249 14.306124558378421  72.97339072053249 12.860542043184061  72.16666669921875 11.833333300781243  Z M 11.833333300781248 15.333333300781248  L 22.5 26.000000000000007  C 22.995617350085382 26.4613200046754  23.65715824693651 26.701880346820502  24.33333330078126 26.66666669921876  C 24.959144796792927 26.695853801799366  25.566955203470286 26.452729632005642  26 26  C 26.50225102937209 25.557056240976234  26.789978418541025 24.91966802982033  26.789978418541025 24.250000000000007  C 26.789978418541025 23.58033197017968  26.50225102937209 22.942943759023777  26 22.500000000000004  L 15.499999999999996 11.833333300781248  C 14.47165250186142 10.85976663851745  12.861680798919824 10.85976663851745  11.833333300781248 11.833333300781248  C 11.026609279467499 12.860542043184068  11.026609279467499 14.306124558378428  11.833333300781248 15.333333300781248  Z M 24.249999999999993 57.04335488224023  C 23.580331970179664 57.04335488224023  22.942943759023766 57.33108227140916  22.5 57.83333330078125  L 11.833333300781248 68.49999999999999  C 11.026609279467499 69.52720874240282  11.026609279467499 70.97279125759718  11.833333300781248 72  C 12.312035787390766 72.50672286942543  12.970125914446687 72.80585472305253  13.666666699218748 72.83333330078125  C 14.363207449736928 72.80585469784643  15.021297537258846 72.50672284625546  15.5 72  L 26 61.49999999999999  C 26.9735666622638 60.471652501861435  26.973566662263792 58.861680798919835  26 57.83333330078126  C 25.557056240976223 57.33108227140916  24.919668029820322 57.04335488224023  24.249999999999993 57.04335488224023  Z M 72.16666669921872 68.49999999999997  L 61.49999999999999 57.83333330078125  C 61.05705624097624 57.33108227140916  60.41966802982033 57.04335488224023  59.75 57.04335488224023  C 59.08033197017966 57.04335488224023  58.442943759023755 57.33108227140915  57.99999999999999 57.83333330078125  C 57.026433337736194 58.861680798919835  57.026433337736194 60.47165250186141  57.99999999999999 61.49999999999999  L 68.49999999999999 72  C 68.97309533870502 72.5102989713842  69.63747112208138 72.80032684635837  70.33333334960938 72.80032684635837  C 71.02919557713734 72.80032684635837  71.69357136051372 72.5102989713842  72.16666669921872 71.99999999999999  C 72.97339072053246 70.97279125759717  72.97339072053246 69.5272087424028  72.16666669921872 68.49999999999997  Z " fill-rule="nonzero" fill="rgba(255, 255, 255, 0.2)" stroke="none" transform="matrix(1 0 0 1 95 -9 )" class="fill" />
    <path d="M 67.5 44.33333330078125  C 68.5565425915758 44.041554966144695  69.29980954237116 43.09557884335134  69.33333330078125 42.00000000000001  C 69.37506311804869 40.84261194048898  68.6164102856337 39.80808533246347  67.5 39.5  C 52.83333330078125 34.83333330078124  48.16666669921875 30.166666699218744  44.33333330078125 16.499999999999996  C 44.33333330078125 15.211335601706164  43.288664398293825 14.166666699218748  42 14.166666699218748  C 40.71133560170617 14.166666699218748  39.66666669921875 15.211335601706164  39.66666669921875 16.499999999999996  C 35.8333333984375 30.166666699218744  31.16666669921875 34.83333330078124  16.500000000000004 39.5  C 15.383589714366295 39.80808533246347  14.624936881951317 40.84261194048898  14.66666669921875 42.00000000000001  C 14.700190457628839 43.09557884335134  15.443457408424205 44.04155496614469  16.500000000000004 44.33333330078125  C 31.16666669921875 48.99999999999999  35.83333330078125 53.83333330078125  39.66666669921875 67.33333330078125  C 39.66666669921875 68.62199769907508  40.71133560170617 69.6666666015625  42 69.6666666015625  C 43.288664398293825 69.6666666015625  44.33333330078125 68.62199769907508  44.33333330078125 67.33333330078125  C 48.1666666015625 53.83333330078125  52.83333330078125 48.99999999999999  67.5 44.33333330078125  Z " stroke-width="0" stroke-dasharray="0" stroke="rgba(255, 255, 255, 0)" fill="none" transform="matrix(1 0 0 1 95 -9 )" class="stroke" mask="url(#Clip16796)" />
    <path d="M 39.5 6.5  C 39.5 7.880711874576985  40.61928812542302 9.000000000000004  42 9.000000000000004  C 43.38071187457699 9.000000000000004  44.5 7.880711874576985  44.5 6.5  L 44.5 3  C 44.5 1.6192881254230171  43.38071187457699 0.5000000000000009  42 0.5000000000000009  C 40.61928812542302 0.5000000000000009  39.5 1.6192881254230171  39.5 3  L 39.5 6.5  Z " stroke-width="0" stroke-dasharray="0" stroke="rgba(255, 255, 255, 0)" fill="none" transform="matrix(1 0 0 1 95 -9 )" class="stroke" mask="url(#Clip16796)" />
    <path d="M 44.5 77.33333330078126  C 44.5 75.95262142620427  43.38071187457699 74.83333330078126  42 74.83333330078126  C 40.61928812542302 74.83333330078126  39.5 75.95262142620427  39.5 77.33333330078125  L 39.5 80.83333330078126  C 39.5 82.21404517535825  40.61928812542302 83.33333330078126  42 83.33333330078126  C 43.38071187457699 83.33333330078126  44.5 82.21404517535825  44.5 80.83333330078126  L 44.5 77.33333330078126  Z " stroke-width="0" stroke-dasharray="0" stroke="rgba(255, 255, 255, 0)" fill="none" transform="matrix(1 0 0 1 95 -9 )" class="stroke" mask="url(#Clip16796)" />
    <path d="M 83.5 42.00000000000001  C 83.5 40.61928812542303  82.380711874577 39.5  81 39.5  L 77.33333330078125 39.5  C 77.33134645805923 39.4999949245593  77.32935960966364 39.49999238683584  77.32737276045896 39.49999238683584  C 76.03870836216512 39.49999238683584  74.99403945967771 40.54466128932326  74.99403945967771 41.83332568761709  C 74.99403945967771 41.8889370700084  74.9960275761214 41.944530677848014  75 42.00000000000001  C 74.9970677043112 43.3181594546531  76.01810288031953 44.41212572992383  77.33333330078125 44.5  L 81.00000000000001 44.5  C 82.380711874577 44.5  83.5 43.38071187457699  83.5 42.00000000000001  Z " stroke-width="0" stroke-dasharray="0" stroke="rgba(255, 255, 255, 0)" fill="none" transform="matrix(1 0 0 1 95 -9 )" class="stroke" mask="url(#Clip16796)" />
    <path d="M 6.672627239541027 39.49999238683586  C 6.670640390337692 39.49999238683586  6.668653541939424 39.4999949245593  6.66666669921875 39.5  L 3.0000000000000018 39.50000000000001  C 1.619288125423015 39.50000000000001  0.5 40.61928812542302  0.5 42.00000000000001  C 0.5 43.38071187457699  1.619288125423015 44.5  2.9999999999999982 44.5  L 6.66666669921875 44.5  C 7.981897119680472 44.41212572992383  9.002932295688804 43.3181594546531  9 41.99999999999999  C 9.003972423878583 41.94453067784808  9.005960540322278 41.88893707000834  9.005960540322278 41.833325687617105  C 9.005960540322278 40.54466128932327  7.96129163783486 39.49999238683586  6.672627239541027 39.49999238683586  Z " stroke-width="0" stroke-dasharray="0" stroke="rgba(255, 255, 255, 0)" fill="none" transform="matrix(1 0 0 1 95 -9 )" class="stroke" mask="url(#Clip16796)" />
    <path d="M 72.16666669921875 11.833333300781243  C 71.1383192010802 10.859766638517453  69.52834749813859 10.85976663851745  68.5 11.833333300781248  L 58.000000000000014 22.5  C 57.0471428095143 23.472108775496597  57.0471428095143 25.0278912245034  58.000000000000014 26  C 58.43304479652973 26.452729632005642  59.0408552032071 26.69585380179936  59.66666669921877 26.666666699218744  C 60.34284175306351 26.701880346820502  61.00438264991463 26.461320004675393  61.49999999999999 25.999999999999993  L 72.16666669921875 15.333333300781241  C 72.97339072053249 14.306124558378421  72.97339072053249 12.860542043184061  72.16666669921875 11.833333300781243  Z " stroke-width="0" stroke-dasharray="0" stroke="rgba(255, 255, 255, 0)" fill="none" transform="matrix(1 0 0 1 95 -9 )" class="stroke" mask="url(#Clip16796)" />
    <path d="M 11.833333300781248 15.333333300781248  L 22.5 26.000000000000007  C 22.995617350085382 26.4613200046754  23.65715824693651 26.701880346820502  24.33333330078126 26.66666669921876  C 24.959144796792927 26.695853801799366  25.566955203470286 26.452729632005642  26 26  C 26.50225102937209 25.557056240976234  26.789978418541025 24.91966802982033  26.789978418541025 24.250000000000007  C 26.789978418541025 23.58033197017968  26.50225102937209 22.942943759023777  26 22.500000000000004  L 15.499999999999996 11.833333300781248  C 14.47165250186142 10.85976663851745  12.861680798919824 10.85976663851745  11.833333300781248 11.833333300781248  C 11.026609279467499 12.860542043184068  11.026609279467499 14.306124558378428  11.833333300781248 15.333333300781248  Z " stroke-width="0" stroke-dasharray="0" stroke="rgba(255, 255, 255, 0)" fill="none" transform="matrix(1 0 0 1 95 -9 )" class="stroke" mask="url(#Clip16796)" />
    <path d="M 24.249999999999993 57.04335488224023  C 23.580331970179664 57.04335488224023  22.942943759023766 57.33108227140916  22.5 57.83333330078125  L 11.833333300781248 68.49999999999999  C 11.026609279467499 69.52720874240282  11.026609279467499 70.97279125759718  11.833333300781248 72  C 12.312035787390766 72.50672286942543  12.970125914446687 72.80585472305253  13.666666699218748 72.83333330078125  C 14.363207449736928 72.80585469784643  15.021297537258846 72.50672284625546  15.5 72  L 26 61.49999999999999  C 26.9735666622638 60.471652501861435  26.973566662263792 58.861680798919835  26 57.83333330078126  C 25.557056240976223 57.33108227140916  24.919668029820322 57.04335488224023  24.249999999999993 57.04335488224023  Z " stroke-width="0" stroke-dasharray="0" stroke="rgba(255, 255, 255, 0)" fill="none" transform="matrix(1 0 0 1 95 -9 )" class="stroke" mask="url(#Clip16796)" />
    <path d="M 72.16666669921872 68.49999999999997  L 61.49999999999999 57.83333330078125  C 61.05705624097624 57.33108227140916  60.41966802982033 57.04335488224023  59.75 57.04335488224023  C 59.08033197017966 57.04335488224023  58.442943759023755 57.33108227140915  57.99999999999999 57.83333330078125  C 57.026433337736194 58.861680798919835  57.026433337736194 60.47165250186141  57.99999999999999 61.49999999999999  L 68.49999999999999 72  C 68.97309533870502 72.5102989713842  69.63747112208138 72.80032684635837  70.33333334960938 72.80032684635837  C 71.02919557713734 72.80032684635837  71.69357136051372 72.5102989713842  72.16666669921872 71.99999999999999  C 72.97339072053246 70.97279125759717  72.97339072053246 69.5272087424028  72.16666669921872 68.49999999999997  Z " stroke-width="0" stroke-dasharray="0" stroke="rgba(255, 255, 255, 0)" fill="none" transform="matrix(1 0 0 1 95 -9 )" class="stroke" mask="url(#Clip16796)" />
  </g>
</svg>