<?xml version="1.0" encoding="utf-8"?>
<svg version="1.1" xmlns:xlink="http://www.w3.org/1999/xlink" width="20px" height="16px" xmlns="http://www.w3.org/2000/svg">
  <defs>
    <pattern id="BGPattern" patternUnits="userSpaceOnUse" alignment="0 0" imageRepeat="None" />
    <mask fill="white" id="Clip12655">
      <path d="M 9.514288917448992 1.1351641044545255  C 9.217282301443863 1.1351641044545255  8.927660284048484 1.2277354946878174  8.68571427734375 1.4000000000000004  L 5.417857148437499 3.2249999999999996  C 5.295859144264121 3.311744797488349  5.1496913180815955 3.357968808327164  5 3.3571428515625  L 1.42857142578125 3.3571428515625  C 0.6395932132782325 3.3571428515625  0 3.996736064840732  0 4.785714277343749  L 0 11.21428572265625  C 0 12.003263935159268  0.6395932132782325 12.6428571484375  1.42857142578125 12.6428571484375  L 5 12.6428571484375  C 5.148472747450944 12.642777142645613  5.293280435989743 12.688965799037154  5.41428572265625 12.775  L 8.6821428515625 14.599999999999998  C 8.924776098927644 14.773878632210796  9.215781744722895 14.86738477813535  9.514285800753047 14.86738477813535  C 10.30307954749086 14.86738477813535  10.94259632651865 14.228079426272476  11 13.439285722656251  L 11 2.5607142773437497  C 10.941191051281143 1.7729174419342106  10.302087514655804 1.1351641044545255  9.514288917448992 1.1351641044545255  Z M 16.3428571484375 15.203571425781249  C 16.220300598610685 15.292302860378431  16.072733184296286 15.339824573666306  15.92142857421875 15.33928572265625  C 15.921017337858675 15.339286432942409  15.9206061009624 15.339286788085683  15.920194863988922 15.339286788085683  C 15.525705752344008 15.339286788085683  15.205909141332672 15.01949017707435  15.205909141332672 14.625001065429434  C 15.205909141332672 14.39806625170841  15.313745712817898 14.184634252064598  15.496428574218747 14.049999999999997  C 17.42456058792177 12.637348485034039  18.56387851809981 10.390246297978953  18.56387851809981 7.999999999999998  C 18.56387851809981 5.609753702021043  17.42456058792177 3.36265151496596  15.49642857421875 1.9500000000000002  C 15.312751755826524 1.8152278445580623  15.204246403824847 1.60103155488589  15.204246403824847 1.3732142871093753  C 15.204246403824847 0.9781117335473399  15.524540307766092 0.657817829606095  15.919642861328127 0.657817829606095  C 16.07186854918361 0.657817829606095  16.220125758074712 0.7063748909920666  16.3428571484375 0.79642857421875  C 18.63920456924898 2.478058033532414  19.996208539097438 5.15375877419023  19.996208539097438 8  C 19.996208539097438 10.846241225809772  18.63920456924898 13.521941966467587  16.3428571484375 15.203571425781249  Z " fill-rule="evenodd" />
    </mask>
  </defs>
  <g transform="matrix(1 0 0 1 -37 -91 )">
    <path d="M 9.514288917448992 1.1351641044545255  C 9.217282301443863 1.1351641044545255  8.927660284048484 1.2277354946878174  8.68571427734375 1.4000000000000004  L 5.417857148437499 3.2249999999999996  C 5.295859144264121 3.311744797488349  5.1496913180815955 3.357968808327164  5 3.3571428515625  L 1.42857142578125 3.3571428515625  C 0.6395932132782325 3.3571428515625  0 3.996736064840732  0 4.785714277343749  L 0 11.21428572265625  C 0 12.003263935159268  0.6395932132782325 12.6428571484375  1.42857142578125 12.6428571484375  L 5 12.6428571484375  C 5.148472747450944 12.642777142645613  5.293280435989743 12.688965799037154  5.41428572265625 12.775  L 8.6821428515625 14.599999999999998  C 8.924776098927644 14.773878632210796  9.215781744722895 14.86738477813535  9.514285800753047 14.86738477813535  C 10.30307954749086 14.86738477813535  10.94259632651865 14.228079426272476  11 13.439285722656251  L 11 2.5607142773437497  C 10.941191051281143 1.7729174419342106  10.302087514655804 1.1351641044545255  9.514288917448992 1.1351641044545255  Z M 16.3428571484375 15.203571425781249  C 16.220300598610685 15.292302860378431  16.072733184296286 15.339824573666306  15.92142857421875 15.33928572265625  C 15.921017337858675 15.339286432942409  15.9206061009624 15.339286788085683  15.920194863988922 15.339286788085683  C 15.525705752344008 15.339286788085683  15.205909141332672 15.01949017707435  15.205909141332672 14.625001065429434  C 15.205909141332672 14.39806625170841  15.313745712817898 14.184634252064598  15.496428574218747 14.049999999999997  C 17.42456058792177 12.637348485034039  18.56387851809981 10.390246297978953  18.56387851809981 7.999999999999998  C 18.56387851809981 5.609753702021043  17.42456058792177 3.36265151496596  15.49642857421875 1.9500000000000002  C 15.312751755826524 1.8152278445580623  15.204246403824847 1.60103155488589  15.204246403824847 1.3732142871093753  C 15.204246403824847 0.9781117335473399  15.524540307766092 0.657817829606095  15.919642861328127 0.657817829606095  C 16.07186854918361 0.657817829606095  16.220125758074712 0.7063748909920666  16.3428571484375 0.79642857421875  C 18.63920456924898 2.478058033532414  19.996208539097438 5.15375877419023  19.996208539097438 8  C 19.996208539097438 10.846241225809772  18.63920456924898 13.521941966467587  16.3428571484375 15.203571425781249  Z " fill-rule="nonzero" fill="rgba(255, 255, 255, 1)" stroke="none" transform="matrix(1 0 0 1 37 91 )" class="fill" />
    <path d="M 9.514288917448992 1.1351641044545255  C 9.217282301443863 1.1351641044545255  8.927660284048484 1.2277354946878174  8.68571427734375 1.4000000000000004  L 5.417857148437499 3.2249999999999996  C 5.295859144264121 3.311744797488349  5.1496913180815955 3.357968808327164  5 3.3571428515625  L 1.42857142578125 3.3571428515625  C 0.6395932132782325 3.3571428515625  0 3.996736064840732  0 4.785714277343749  L 0 11.21428572265625  C 0 12.003263935159268  0.6395932132782325 12.6428571484375  1.42857142578125 12.6428571484375  L 5 12.6428571484375  C 5.148472747450944 12.642777142645613  5.293280435989743 12.688965799037154  5.41428572265625 12.775  L 8.6821428515625 14.599999999999998  C 8.924776098927644 14.773878632210796  9.215781744722895 14.86738477813535  9.514285800753047 14.86738477813535  C 10.30307954749086 14.86738477813535  10.94259632651865 14.228079426272476  11 13.439285722656251  L 11 2.5607142773437497  C 10.941191051281143 1.7729174419342106  10.302087514655804 1.1351641044545255  9.514288917448992 1.1351641044545255  Z " stroke-width="0" stroke-dasharray="0" stroke="rgba(255, 255, 255, 0)" fill="none" transform="matrix(1 0 0 1 37 91 )" class="stroke" mask="url(#Clip12655)" />
    <path d="M 16.3428571484375 15.203571425781249  C 16.220300598610685 15.292302860378431  16.072733184296286 15.339824573666306  15.92142857421875 15.33928572265625  C 15.921017337858675 15.339286432942409  15.9206061009624 15.339286788085683  15.920194863988922 15.339286788085683  C 15.525705752344008 15.339286788085683  15.205909141332672 15.01949017707435  15.205909141332672 14.625001065429434  C 15.205909141332672 14.39806625170841  15.313745712817898 14.184634252064598  15.496428574218747 14.049999999999997  C 17.42456058792177 12.637348485034039  18.56387851809981 10.390246297978953  18.56387851809981 7.999999999999998  C 18.56387851809981 5.609753702021043  17.42456058792177 3.36265151496596  15.49642857421875 1.9500000000000002  C 15.312751755826524 1.8152278445580623  15.204246403824847 1.60103155488589  15.204246403824847 1.3732142871093753  C 15.204246403824847 0.9781117335473399  15.524540307766092 0.657817829606095  15.919642861328127 0.657817829606095  C 16.07186854918361 0.657817829606095  16.220125758074712 0.7063748909920666  16.3428571484375 0.79642857421875  C 18.63920456924898 2.478058033532414  19.996208539097438 5.15375877419023  19.996208539097438 8  C 19.996208539097438 10.846241225809772  18.63920456924898 13.521941966467587  16.3428571484375 15.203571425781249  Z " stroke-width="0" stroke-dasharray="0" stroke="rgba(255, 255, 255, 0)" fill="none" transform="matrix(1 0 0 1 37 91 )" class="stroke" mask="url(#Clip12655)" />
  </g>
</svg>