<?xml version="1.0" encoding="utf-8"?>
<svg version="1.1" xmlns:xlink="http://www.w3.org/1999/xlink" width="8px" height="8px" xmlns="http://www.w3.org/2000/svg">
  <defs>
    <pattern id="BGPattern" patternUnits="userSpaceOnUse" alignment="0 0" imageRepeat="None" />
    <mask fill="white" id="Clip18660">
      <path d="M 7.29142857142857 6.16  C 7.59142857142857 6.483076923076923  7.59142857142857 7.009230769230769  7.29142857142857 7.332307692307692  C 6.991428571428571 7.655384615384614  6.50285714285714 7.655384615384614  6.202857142857141 7.332307692307692  L 0.7085714285714287 1.4153846153846152  C 0.4085714285714285 1.0923076923076924  0.4085714285714285 0.5661538461538456  0.7085714285714287 0.2430769230769228  C 1.008571428571429 -0.07999999999999993  1.4971428571428567 -0.07999999999999993  1.797142857142857 0.2430769230769228  L 7.29142857142857 6.16  Z " fill-rule="evenodd" />
    </mask>
  </defs>
  <g transform="matrix(1 0 0 1 -398 -29 )">
    <path d="M 7.29142857142857 6.16  C 7.59142857142857 6.483076923076923  7.59142857142857 7.009230769230769  7.29142857142857 7.332307692307692  C 6.991428571428571 7.655384615384614  6.50285714285714 7.655384615384614  6.202857142857141 7.332307692307692  L 0.7085714285714287 1.4153846153846152  C 0.4085714285714285 1.0923076923076924  0.4085714285714285 0.5661538461538456  0.7085714285714287 0.2430769230769228  C 1.008571428571429 -0.07999999999999993  1.4971428571428567 -0.07999999999999993  1.797142857142857 0.2430769230769228  L 7.29142857142857 6.16  Z " fill-rule="nonzero" fill="rgba(255, 255, 255, 1)" stroke="none" transform="matrix(1 0 0 1 398 29 )" class="fill" />
    <path d="M 7.29142857142857 6.16  C 7.59142857142857 6.483076923076923  7.59142857142857 7.009230769230769  7.29142857142857 7.332307692307692  C 6.991428571428571 7.655384615384614  6.50285714285714 7.655384615384614  6.202857142857141 7.332307692307692  L 0.7085714285714287 1.4153846153846152  C 0.4085714285714285 1.0923076923076924  0.4085714285714285 0.5661538461538456  0.7085714285714287 0.2430769230769228  C 1.008571428571429 -0.07999999999999993  1.4971428571428567 -0.07999999999999993  1.797142857142857 0.2430769230769228  L 7.29142857142857 6.16  Z " stroke-width="0" stroke-dasharray="0" stroke="rgba(255, 255, 255, 0)" fill="none" transform="matrix(1 0 0 1 398 29 )" class="stroke" mask="url(#Clip18660)" />
  </g>
</svg>