<?xml version="1.0" encoding="utf-8"?>
<svg version="1.1" xmlns:xlink="http://www.w3.org/1999/xlink" width="40px" height="46px" xmlns="http://www.w3.org/2000/svg">
  <defs>
    <pattern id="BGPattern" patternUnits="userSpaceOnUse" alignment="0 0" imageRepeat="None" />
    <mask fill="white" id="Clip9886">
      <path d="M 34.37402343750001 9.6298828125  C 39.876953125 16.5341796875  39.876953125 21.998046875  39.876953125 26.2705078125  C 39.876953125 37.1494140625  31.1318359375 45.97265625  20.345703125 45.97265625  C 9.559570312500002 45.97265625  0.8144531250000009 37.154296875  0.8144531250000009 26.2705078125  C 0.8144531250000009 21.2265625  2.049804687500001 17.779296875  3.846679687500001 14.6103515625  C 5.375000000000002 11.910156249999996  7.552734375000002 9.6298828125  9.569335937500002 8.609375  C 12.181640625 7.291015625000001  11.991210937500004 13.6337890625  14.505859375 11.7783203125  C 18.6611328125 8.7216796875  13.96875 0.18164062499999956  17.650390625 1.0214843749999991  C 23.597656249999996 2.3789062499999987  25.531249999999996 8.6044921875  26.966796875000007 9.2880859375  C 29.9990234375 10.728515625  29.369140625000007 3.3408203124999996  34.37402343750001 9.6298828125  Z " fill-rule="evenodd" />
    </mask>
  </defs>
  <g transform="matrix(1 0 0 1 -200 -241 )">
    <path d="M 34.37402343750001 9.6298828125  C 39.876953125 16.5341796875  39.876953125 21.998046875  39.876953125 26.2705078125  C 39.876953125 37.1494140625  31.1318359375 45.97265625  20.345703125 45.97265625  C 9.559570312500002 45.97265625  0.8144531250000009 37.154296875  0.8144531250000009 26.2705078125  C 0.8144531250000009 21.2265625  2.049804687500001 17.779296875  3.846679687500001 14.6103515625  C 5.375000000000002 11.910156249999996  7.552734375000002 9.6298828125  9.569335937500002 8.609375  C 12.181640625 7.291015625000001  11.991210937500004 13.6337890625  14.505859375 11.7783203125  C 18.6611328125 8.7216796875  13.96875 0.18164062499999956  17.650390625 1.0214843749999991  C 23.597656249999996 2.3789062499999987  25.531249999999996 8.6044921875  26.966796875000007 9.2880859375  C 29.9990234375 10.728515625  29.369140625000007 3.3408203124999996  34.37402343750001 9.6298828125  Z " fill-rule="nonzero" fill="rgba(255, 85, 110, 1)" stroke="none" transform="matrix(1 0 0 1 200 241 )" class="fill" />
    <path d="M 34.37402343750001 9.6298828125  C 39.876953125 16.5341796875  39.876953125 21.998046875  39.876953125 26.2705078125  C 39.876953125 37.1494140625  31.1318359375 45.97265625  20.345703125 45.97265625  C 9.559570312500002 45.97265625  0.8144531250000009 37.154296875  0.8144531250000009 26.2705078125  C 0.8144531250000009 21.2265625  2.049804687500001 17.779296875  3.846679687500001 14.6103515625  C 5.375000000000002 11.910156249999996  7.552734375000002 9.6298828125  9.569335937500002 8.609375  C 12.181640625 7.291015625000001  11.991210937500004 13.6337890625  14.505859375 11.7783203125  C 18.6611328125 8.7216796875  13.96875 0.18164062499999956  17.650390625 1.0214843749999991  C 23.597656249999996 2.3789062499999987  25.531249999999996 8.6044921875  26.966796875000007 9.2880859375  C 29.9990234375 10.728515625  29.369140625000007 3.3408203124999996  34.37402343750001 9.6298828125  Z " stroke-width="0" stroke-dasharray="0" stroke="rgba(255, 255, 255, 0)" fill="none" transform="matrix(1 0 0 1 200 241 )" class="stroke" mask="url(#Clip9886)" />
  </g>
</svg>