<?xml version="1.0" encoding="utf-8"?>
<svg version="1.1" xmlns:xlink="http://www.w3.org/1999/xlink" width="85px" height="37px" xmlns="http://www.w3.org/2000/svg">
  <defs>
    <pattern id="BGPattern" patternUnits="userSpaceOnUse" alignment="0 0" imageRepeat="None" />
    <mask fill="white" id="Clip10151">
      <path d="M 0 13.5  C 0 5.9399999999999995  16.499999999999996 0  37.5 0  C 58.5 0  75 5.9399999999999995  75 13.5  C 75 21.060000000000002  58.5 27  37.5 27  C 16.499999999999996 27  0 21.060000000000002  0 13.5  Z " fill-rule="evenodd" />
    </mask>
  </defs>
  <g transform="matrix(1 0 0 1 -39 -240 )">
    <path d="M 0 13.5  C 0 5.9399999999999995  16.499999999999996 0  37.5 0  C 58.5 0  75 5.9399999999999995  75 13.5  C 75 21.060000000000002  58.5 27  37.5 27  C 16.499999999999996 27  0 21.060000000000002  0 13.5  Z " fill-rule="nonzero" fill="rgba(0, 0, 0, 0)" stroke="none" transform="matrix(1 0 0 1 43 244 )" class="fill" />
    <path d="M 0 13.5  C 0 5.9399999999999995  16.499999999999996 0  37.5 0  C 58.5 0  75 5.9399999999999995  75 13.5  C 75 21.060000000000002  58.5 27  37.5 27  C 16.499999999999996 27  0 21.060000000000002  0 13.5  Z " stroke-width="6" stroke-dasharray="0" stroke="rgba(255, 255, 255, 0)" fill="none" transform="matrix(1 0 0 1 43 244 )" class="stroke" mask="url(#Clip10151)" />
  </g>
  <style>svg { filter: drop-shadow(1px 1px 2.5px rgba(0, 0, 0, 0.34901960784313724)); }</style>
</svg>