<?xml version="1.0" encoding="utf-8"?>
<svg version="1.1" xmlns:xlink="http://www.w3.org/1999/xlink" width="10px" height="25px" xmlns="http://www.w3.org/2000/svg">
  <defs>
    <pattern id="BGPattern" patternUnits="userSpaceOnUse" alignment="0 0" imageRepeat="None" />
    <mask fill="white" id="Clip8708">
      <path d="M 8.71875 17.99999998325893  C 8.71875 18.887600474058416  7.963230515339464 19.607142840401785  7.03125 19.607142840401785  C 6.099269484660536 19.607142840401785  5.34375 18.887600474058416  5.34375 17.99999998325893  L 5.34375 3.1607143024553572  C 5.34375 2.2731138116558673  6.099269484660536 1.5535714453124996  7.03125 1.5535714453124996  C 7.963230515339464 1.5535714453124996  8.71875 2.2731138116558673  8.71875 3.1607143024553572  L 8.71875 17.99999998325893  Z " fill-rule="evenodd" />
    </mask>
  </defs>
  <g transform="matrix(1 0 0 1 -177 -614 )">
    <path d="M 8.71875 17.99999998325893  C 8.71875 18.887600474058416  7.963230515339464 19.607142840401785  7.03125 19.607142840401785  C 6.099269484660536 19.607142840401785  5.34375 18.887600474058416  5.34375 17.99999998325893  L 5.34375 3.1607143024553572  C 5.34375 2.2731138116558673  6.099269484660536 1.5535714453124996  7.03125 1.5535714453124996  C 7.963230515339464 1.5535714453124996  8.71875 2.2731138116558673  8.71875 3.1607143024553572  L 8.71875 17.99999998325893  Z M 1.10249998242188 23.78571426897321  L 7.03125 18.139285731026792  C 7.031249970875611 21.257722111668112  4.376858182095275 23.78571426897321  1.10249998242188 23.78571426897321  Z " fill-rule="nonzero" fill="rgba(253, 143, 158, 1)" stroke="none" transform="matrix(1 0 0 1 177 614 )" class="fill" />
    <path d="M 8.71875 17.99999998325893  C 8.71875 18.887600474058416  7.963230515339464 19.607142840401785  7.03125 19.607142840401785  C 6.099269484660536 19.607142840401785  5.34375 18.887600474058416  5.34375 17.99999998325893  L 5.34375 3.1607143024553572  C 5.34375 2.2731138116558673  6.099269484660536 1.5535714453124996  7.03125 1.5535714453124996  C 7.963230515339464 1.5535714453124996  8.71875 2.2731138116558673  8.71875 3.1607143024553572  L 8.71875 17.99999998325893  Z " stroke-width="0" stroke-dasharray="0" stroke="rgba(255, 255, 255, 0)" fill="none" transform="matrix(1 0 0 1 177 614 )" class="stroke" mask="url(#Clip8708)" />
    <path d="M 7.03125 18.139285731026792  C 7.031249970875611 21.257722111668112  4.376858182095275 23.78571426897321  1.10249998242188 23.78571426897321  " stroke-width="0" stroke-dasharray="0" stroke="rgba(255, 255, 255, 0)" fill="none" transform="matrix(1 0 0 1 177 614 )" class="stroke" />
  </g>
</svg>