<?xml version="1.0" encoding="utf-8"?>
<svg version="1.1" xmlns:xlink="http://www.w3.org/1999/xlink" width="15px" height="15px" xmlns="http://www.w3.org/2000/svg">
  <defs>
    <pattern id="BGPattern" patternUnits="userSpaceOnUse" alignment="0 0" imageRepeat="None" />
    <mask fill="white" id="Clip4180">
      <path d="M 14.150390625 4.2626953125  L 14.150390625 0.760253906249998  L 0.760253906249998 14.150390625  L 4.2626953125 14.150390625  C 9.703124999999995 14.150390625  14.150390625 9.698730468750005  14.150390625 4.2626953125  Z " fill-rule="evenodd" />
    </mask>
  </defs>
  <g transform="matrix(1 0 0 1 -185 -1265 )">
    <path d="M 14.150390625 4.2626953125  L 14.150390625 0.760253906249998  L 0.760253906249998 14.150390625  L 4.2626953125 14.150390625  C 9.703124999999995 14.150390625  14.150390625 9.698730468750005  14.150390625 4.2626953125  Z " fill-rule="nonzero" fill="rgba(255, 94, 79, 1)" stroke="none" transform="matrix(1 0 0 1 185 1265 )" class="fill" />
    <path d="M 14.150390625 4.2626953125  L 14.150390625 0.760253906249998  L 0.760253906249998 14.150390625  L 4.2626953125 14.150390625  C 9.703124999999995 14.150390625  14.150390625 9.698730468750005  14.150390625 4.2626953125  Z " stroke-width="0" stroke-dasharray="0" stroke="rgba(255, 255, 255, 0)" fill="none" transform="matrix(1 0 0 1 185 1265 )" class="stroke" mask="url(#Clip4180)" />
  </g>
</svg>