<?xml version="1.0" encoding="utf-8"?>
<svg version="1.1" xmlns:xlink="http://www.w3.org/1999/xlink" width="340px" height="480px" xmlns="http://www.w3.org/2000/svg">
  <defs>
    <linearGradient gradientUnits="userSpaceOnUse" x1="165" y1="0" x2="165" y2="470" id="LinearGradient8289">
      <stop id="Stop8290" stop-color="#000000" stop-opacity="0.4980392156862745" offset="0" />
      <stop id="Stop8291" stop-color="#000000" offset="1" />
    </linearGradient>
    <pattern id="BGPattern" patternUnits="userSpaceOnUse" alignment="0 0" imageRepeat="None" />
    <mask fill="white" id="Clip8292">
      <path d="M 0 465  L 0 5  C 0 2.1999999999999997  2.1999999999999997 0  5 0  L 325 0  C 327.8 0  330 2.1999999999999997  330 5  L 330 465  C 330 467.8  327.8 470  325 470  L 5 470  C 2.1999999999999997 470  0 467.8  0 465  Z " fill-rule="evenodd" />
    </mask>
  </defs>
  <g transform="matrix(1 0 0 1 -10 -555 )">
    <path d="M 0 465  L 0 5  C 0 2.1999999999999997  2.1999999999999997 0  5 0  L 325 0  C 327.8 0  330 2.1999999999999997  330 5  L 330 465  C 330 467.8  327.8 470  325 470  L 5 470  C 2.1999999999999997 470  0 467.8  0 465  Z " fill-rule="nonzero" fill="url(#LinearGradient8289)" stroke="none" transform="matrix(1 0 0 1 15 560 )" class="fill" />
    <path d="M 0 465  L 0 5  C 0 2.1999999999999997  2.1999999999999997 0  5 0  L 325 0  C 327.8 0  330 2.1999999999999997  330 5  L 330 465  C 330 467.8  327.8 470  325 470  L 5 470  C 2.1999999999999997 470  0 467.8  0 465  Z " stroke-width="0" stroke-dasharray="0" stroke="rgba(121, 121, 121, 1)" fill="none" transform="matrix(1 0 0 1 15 560 )" class="stroke" mask="url(#Clip8292)" />
  </g>
  <style>svg { filter: drop-shadow(0px 0px 2.5px rgba(0, 0, 0, 0.34901960784313724)); }</style>
</svg>