<?xml version="1.0" encoding="utf-8"?>
<svg version="1.1" xmlns:xlink="http://www.w3.org/1999/xlink" width="35px" height="35px" xmlns="http://www.w3.org/2000/svg">
  <defs>
    <pattern id="BGPattern" patternUnits="userSpaceOnUse" alignment="0 0" imageRepeat="None" />
    <mask fill="white" id="Clip2444">
      <path d="M 34.165296052631575 10.820929276315791  L 34.165296052631575 5.022615131578947  C 34.165296052631575 3.636718750000001  33.871710526315795 2.3155838815789487  33.34066611842105 1.119654605263157  L 1.119654605263157 33.34066611842105  C 2.3155838815789473 33.87171052631579  3.636718749999999 34.165296052631575  5.022615131578947 34.165296052631575  L 10.820929276315791 34.165296052631575  L 34.165296052631575 10.820929276315791  Z " fill-rule="evenodd" />
    </mask>
  </defs>
  <g transform="matrix(1 0 0 1 -165 -1245 )">
    <path d="M 34.165296052631575 10.820929276315791  L 34.165296052631575 5.022615131578947  C 34.165296052631575 3.636718750000001  33.871710526315795 2.3155838815789487  33.34066611842105 1.119654605263157  L 1.119654605263157 33.34066611842105  C 2.3155838815789473 33.87171052631579  3.636718749999999 34.165296052631575  5.022615131578947 34.165296052631575  L 10.820929276315791 34.165296052631575  L 34.165296052631575 10.820929276315791  Z " fill-rule="nonzero" fill="rgba(255, 97, 87, 1)" stroke="none" transform="matrix(1 0 0 1 165 1245 )" class="fill" />
    <path d="M 34.165296052631575 10.820929276315791  L 34.165296052631575 5.022615131578947  C 34.165296052631575 3.636718750000001  33.871710526315795 2.3155838815789487  33.34066611842105 1.119654605263157  L 1.119654605263157 33.34066611842105  C 2.3155838815789473 33.87171052631579  3.636718749999999 34.165296052631575  5.022615131578947 34.165296052631575  L 10.820929276315791 34.165296052631575  L 34.165296052631575 10.820929276315791  Z " stroke-width="0" stroke-dasharray="0" stroke="rgba(255, 255, 255, 0)" fill="none" transform="matrix(1 0 0 1 165 1245 )" class="stroke" mask="url(#Clip2444)" />
  </g>
</svg>