<?xml version="1.0" encoding="utf-8"?>
<svg version="1.1" xmlns:xlink="http://www.w3.org/1999/xlink" width="21px" height="24px" xmlns="http://www.w3.org/2000/svg">
  <defs>
    <pattern id="BGPattern" patternUnits="userSpaceOnUse" alignment="0 0" imageRepeat="None" />
    <mask fill="white" id="Clip8624">
      <path d="M 17.596 20.64  C 23.764000000000003 14.340000000000003  16.624000000000002 5.736000000000002  15.136 4.656000000000001  C 15.664000000000001 5.9399999999999995  15.771999999999998 7.848000000000001  14.704 8.916  C 12.892 1.8960000000000004  8.307999999999998 0.39600000000000035  8.307999999999998 0.39600000000000035  C 8.835999999999999 4.0200000000000005  6.387999999999998 7.956  3.9399999999999986 10.932  C 3.831999999999999 9.444  3.7239999999999984 8.484000000000002  3.0039999999999987 7.104000000000001  C 2.799999999999998 9.768  0.8799999999999986 11.892000000000001  0.24399999999999844 14.448000000000002  C -0.18800000000000172 16.68  0.13599999999999834 18.708000000000002  1.731999999999998 20.532000000000004  C 4.287999999999998 22.980000000000004  10.887999999999998 26.064  17.596 20.64  Z M 7.576 18.708  L 7.468 18.708  L 6.292000000000002 18.708  L 6.292000000000002 16.692  L 4.168 16.692  L 4.168 18.72  L 2.9920000000000004 18.72  L 2.9920000000000004 13.704  L 4.168 13.704  L 4.168 15.72  L 6.399999999999999 15.72  L 6.399999999999999 13.692  L 7.576 13.692  L 7.576 18.708  Z M 13 16.259999999999998  C 13 17.855999999999998  12.148 18.708  10.551999999999998 18.816  C 8.956 18.708  8.104000000000001 17.855999999999998  7.996 16.259999999999998  C 8.104000000000001 14.555999999999997  8.932 13.703999999999997  10.551999999999998 13.595999999999997  C 12.148 13.703999999999997  12.892000000000001 14.531999999999998  13 16.259999999999998  Z M 17.896 14.628  L 16.299999999999997 14.664  L 16.299999999999997 18.816000000000003  L 15.123999999999999 18.816000000000003  L 15.123999999999999 14.664  L 13.527999999999999 14.664  L 13.527999999999999 13.692  L 17.896 13.692  L 17.896 14.628  Z " fill-rule="evenodd" />
    </mask>
  </defs>
  <g transform="matrix(1 0 0 1 -248 -1204 )">
    <path d="M 17.596 20.64  C 23.764000000000003 14.340000000000003  16.624000000000002 5.736000000000002  15.136 4.656000000000001  C 15.664000000000001 5.9399999999999995  15.771999999999998 7.848000000000001  14.704 8.916  C 12.892 1.8960000000000004  8.307999999999998 0.39600000000000035  8.307999999999998 0.39600000000000035  C 8.835999999999999 4.0200000000000005  6.387999999999998 7.956  3.9399999999999986 10.932  C 3.831999999999999 9.444  3.7239999999999984 8.484000000000002  3.0039999999999987 7.104000000000001  C 2.799999999999998 9.768  0.8799999999999986 11.892000000000001  0.24399999999999844 14.448000000000002  C -0.18800000000000172 16.68  0.13599999999999834 18.708000000000002  1.731999999999998 20.532000000000004  C 4.287999999999998 22.980000000000004  10.887999999999998 26.064  17.596 20.64  Z M 7.576 18.708  L 7.468 18.708  L 6.292000000000002 18.708  L 6.292000000000002 16.692  L 4.168 16.692  L 4.168 18.72  L 2.9920000000000004 18.72  L 2.9920000000000004 13.704  L 4.168 13.704  L 4.168 15.72  L 6.399999999999999 15.72  L 6.399999999999999 13.692  L 7.576 13.692  L 7.576 18.708  Z M 13 16.259999999999998  C 13 17.855999999999998  12.148 18.708  10.551999999999998 18.816  C 8.956 18.708  8.104000000000001 17.855999999999998  7.996 16.259999999999998  C 8.104000000000001 14.555999999999997  8.932 13.703999999999997  10.551999999999998 13.595999999999997  C 12.148 13.703999999999997  12.892000000000001 14.531999999999998  13 16.259999999999998  Z M 17.896 14.628  L 16.299999999999997 14.664  L 16.299999999999997 18.816000000000003  L 15.123999999999999 18.816000000000003  L 15.123999999999999 14.664  L 13.527999999999999 14.664  L 13.527999999999999 13.692  L 17.896 13.692  L 17.896 14.628  Z " fill-rule="nonzero" fill="rgba(216, 30, 6, 1)" stroke="none" transform="matrix(1 0 0 1 248 1204 )" class="fill" />
    <path d="M 17.596 20.64  C 23.764000000000003 14.340000000000003  16.624000000000002 5.736000000000002  15.136 4.656000000000001  C 15.664000000000001 5.9399999999999995  15.771999999999998 7.848000000000001  14.704 8.916  C 12.892 1.8960000000000004  8.307999999999998 0.39600000000000035  8.307999999999998 0.39600000000000035  C 8.835999999999999 4.0200000000000005  6.387999999999998 7.956  3.9399999999999986 10.932  C 3.831999999999999 9.444  3.7239999999999984 8.484000000000002  3.0039999999999987 7.104000000000001  C 2.799999999999998 9.768  0.8799999999999986 11.892000000000001  0.24399999999999844 14.448000000000002  C -0.18800000000000172 16.68  0.13599999999999834 18.708000000000002  1.731999999999998 20.532000000000004  C 4.287999999999998 22.980000000000004  10.887999999999998 26.064  17.596 20.64  Z " stroke-width="0" stroke-dasharray="0" stroke="rgba(255, 255, 255, 0)" fill="none" transform="matrix(1 0 0 1 248 1204 )" class="stroke" mask="url(#Clip8624)" />
    <path d="M 7.576 18.708  L 7.468 18.708  L 6.292000000000002 18.708  L 6.292000000000002 16.692  L 4.168 16.692  L 4.168 18.72  L 2.9920000000000004 18.72  L 2.9920000000000004 13.704  L 4.168 13.704  L 4.168 15.72  L 6.399999999999999 15.72  L 6.399999999999999 13.692  L 7.576 13.692  L 7.576 18.708  Z " stroke-width="0" stroke-dasharray="0" stroke="rgba(255, 255, 255, 0)" fill="none" transform="matrix(1 0 0 1 248 1204 )" class="stroke" mask="url(#Clip8624)" />
    <path d="M 13 16.259999999999998  C 13 17.855999999999998  12.148 18.708  10.551999999999998 18.816  C 8.956 18.708  8.104000000000001 17.855999999999998  7.996 16.259999999999998  C 8.104000000000001 14.555999999999997  8.932 13.703999999999997  10.551999999999998 13.595999999999997  C 12.148 13.703999999999997  12.892000000000001 14.531999999999998  13 16.259999999999998  Z " stroke-width="0" stroke-dasharray="0" stroke="rgba(255, 255, 255, 0)" fill="none" transform="matrix(1 0 0 1 248 1204 )" class="stroke" mask="url(#Clip8624)" />
    <path d="M 17.896 14.628  L 16.299999999999997 14.664  L 16.299999999999997 18.816000000000003  L 15.123999999999999 18.816000000000003  L 15.123999999999999 14.664  L 13.527999999999999 14.664  L 13.527999999999999 13.692  L 17.896 13.692  L 17.896 14.628  Z " stroke-width="0" stroke-dasharray="0" stroke="rgba(255, 255, 255, 0)" fill="none" transform="matrix(1 0 0 1 248 1204 )" class="stroke" mask="url(#Clip8624)" />
  </g>
</svg>