<?xml version="1.0" encoding="utf-8"?>
<svg version="1.1" xmlns:xlink="http://www.w3.org/1999/xlink" width="30px" height="11px" xmlns="http://www.w3.org/2000/svg">
  <defs>
    <pattern id="BGPattern" patternUnits="userSpaceOnUse" alignment="0 0" imageRepeat="None" />
    <mask fill="white" id="Clip3316">
      <path d="M 24.63 10.66266666666667  L 26.835 10.66266666666667  L 26.835 3.050666666666666  L 29.8275 3.050666666666666  L 29.8275 1.2906666666666644  L 21.6375 1.2906666666666644  L 21.6375 3.050666666666666  L 24.63 3.050666666666666  L 24.63 10.66266666666667  Z M 16.035 1.0926666666666667  C 13.042499999999999 1.2686666666666668  11.445000000000002 2.8526666666666682  11.242500000000001 5.976666666666663  C 11.445000000000002 8.902666666666669  13.042499999999999 10.464666666666663  16.035 10.66266666666667  C 19.0275 10.464666666666671  20.625 8.946666666666664  20.625 5.976666666666663  C 20.422500000000003 2.8526666666666682  19.0275 1.2906666666666644  16.035 1.0926666666666667  Z M 16.012500000000006 2.8526666666666682  C 17.632500000000007 3.050666666666666  18.240000000000002 4.018666666666666  18.42 5.778666666666669  C 18.42 7.736666666666665  17.610000000000003 8.70466666666667  16.012500000000006 8.70466666666667  C 14.415000000000004 8.70466666666667  13.605000000000004 7.736666666666665  13.605000000000004 5.778666666666669  C 13.605000000000004 4.062666666666669  14.415000000000004 2.8526666666666682  16.012500000000006 2.8526666666666682  Z M 8.047500000000003 10.464666666666663  L 10.252500000000003 10.464666666666671  L 10.455000000000004 10.464666666666671  L 10.455000000000004 1.290666666666668  L 8.249999999999996 1.290666666666668  L 8.249999999999996 5.008666666666672  L 4.065 5.008666666666672  L 4.065 1.290666666666668  L 1.8600000000000017 1.290666666666668  L 1.8600000000000017 10.464666666666671  L 4.065 10.464666666666671  L 4.065 6.746666666666666  L 8.047500000000003 6.746666666666666  L 8.047500000000003 10.464666666666663  Z " fill-rule="evenodd" />
    </mask>
  </defs>
  <g transform="matrix(1 0 0 1 -164 -1102 )">
    <path d="M 24.63 10.66266666666667  L 26.835 10.66266666666667  L 26.835 3.050666666666666  L 29.8275 3.050666666666666  L 29.8275 1.2906666666666644  L 21.6375 1.2906666666666644  L 21.6375 3.050666666666666  L 24.63 3.050666666666666  L 24.63 10.66266666666667  Z M 16.035 1.0926666666666667  C 13.042499999999999 1.2686666666666668  11.445000000000002 2.8526666666666682  11.242500000000001 5.976666666666663  C 11.445000000000002 8.902666666666669  13.042499999999999 10.464666666666663  16.035 10.66266666666667  C 19.0275 10.464666666666671  20.625 8.946666666666664  20.625 5.976666666666663  C 20.422500000000003 2.8526666666666682  19.0275 1.2906666666666644  16.035 1.0926666666666667  Z M 16.012500000000006 2.8526666666666682  C 17.632500000000007 3.050666666666666  18.240000000000002 4.018666666666666  18.42 5.778666666666669  C 18.42 7.736666666666665  17.610000000000003 8.70466666666667  16.012500000000006 8.70466666666667  C 14.415000000000004 8.70466666666667  13.605000000000004 7.736666666666665  13.605000000000004 5.778666666666669  C 13.605000000000004 4.062666666666669  14.415000000000004 2.8526666666666682  16.012500000000006 2.8526666666666682  Z M 8.047500000000003 10.464666666666663  L 10.252500000000003 10.464666666666671  L 10.455000000000004 10.464666666666671  L 10.455000000000004 1.290666666666668  L 8.249999999999996 1.290666666666668  L 8.249999999999996 5.008666666666672  L 4.065 5.008666666666672  L 4.065 1.290666666666668  L 1.8600000000000017 1.290666666666668  L 1.8600000000000017 10.464666666666671  L 4.065 10.464666666666671  L 4.065 6.746666666666666  L 8.047500000000003 6.746666666666666  L 8.047500000000003 10.464666666666663  Z " fill-rule="nonzero" fill="rgba(255, 255, 255, 1)" stroke="none" transform="matrix(1 0 0 1 164 1102 )" class="fill" />
    <path d="M 24.63 10.66266666666667  L 26.835 10.66266666666667  L 26.835 3.050666666666666  L 29.8275 3.050666666666666  L 29.8275 1.2906666666666644  L 21.6375 1.2906666666666644  L 21.6375 3.050666666666666  L 24.63 3.050666666666666  L 24.63 10.66266666666667  Z " stroke-width="0" stroke-dasharray="0" stroke="rgba(255, 255, 255, 0)" fill="none" transform="matrix(1 0 0 1 164 1102 )" class="stroke" mask="url(#Clip3316)" />
    <path d="M 16.035 1.0926666666666667  C 13.042499999999999 1.2686666666666668  11.445000000000002 2.8526666666666682  11.242500000000001 5.976666666666663  C 11.445000000000002 8.902666666666669  13.042499999999999 10.464666666666663  16.035 10.66266666666667  C 19.0275 10.464666666666671  20.625 8.946666666666664  20.625 5.976666666666663  C 20.422500000000003 2.8526666666666682  19.0275 1.2906666666666644  16.035 1.0926666666666667  Z " stroke-width="0" stroke-dasharray="0" stroke="rgba(255, 255, 255, 0)" fill="none" transform="matrix(1 0 0 1 164 1102 )" class="stroke" mask="url(#Clip3316)" />
    <path d="M 16.012500000000006 2.8526666666666682  C 17.632500000000007 3.050666666666666  18.240000000000002 4.018666666666666  18.42 5.778666666666669  C 18.42 7.736666666666665  17.610000000000003 8.70466666666667  16.012500000000006 8.70466666666667  C 14.415000000000004 8.70466666666667  13.605000000000004 7.736666666666665  13.605000000000004 5.778666666666669  C 13.605000000000004 4.062666666666669  14.415000000000004 2.8526666666666682  16.012500000000006 2.8526666666666682  Z " stroke-width="0" stroke-dasharray="0" stroke="rgba(255, 255, 255, 0)" fill="none" transform="matrix(1 0 0 1 164 1102 )" class="stroke" mask="url(#Clip3316)" />
    <path d="M 8.047500000000003 10.464666666666663  L 10.252500000000003 10.464666666666671  L 10.455000000000004 10.464666666666671  L 10.455000000000004 1.290666666666668  L 8.249999999999996 1.290666666666668  L 8.249999999999996 5.008666666666672  L 4.065 5.008666666666672  L 4.065 1.290666666666668  L 1.8600000000000017 1.290666666666668  L 1.8600000000000017 10.464666666666671  L 4.065 10.464666666666671  L 4.065 6.746666666666666  L 8.047500000000003 6.746666666666666  L 8.047500000000003 10.464666666666663  Z " stroke-width="0" stroke-dasharray="0" stroke="rgba(255, 255, 255, 0)" fill="none" transform="matrix(1 0 0 1 164 1102 )" class="stroke" mask="url(#Clip3316)" />
  </g>
</svg>