<?xml version="1.0" encoding="utf-8"?>
<svg version="1.1" xmlns:xlink="http://www.w3.org/1999/xlink" width="40px" height="40px" xmlns="http://www.w3.org/2000/svg">
  <defs>
    <pattern id="BGPattern" patternUnits="userSpaceOnUse" alignment="0 0" imageRepeat="None" />
    <mask fill="white" id="Clip5545">
      <path d="M 20 10  C 20 15.522857148437495  15.5228571484375 20  10.000000000000002 20  C 4.477142851562502 20  0 15.522857148437495  0 10  C 0 4.477142851562505  4.477142851562502 0  10.000000000000002 0  C 15.5228571484375 0  20 4.477142851562505  20 10  Z M 18.57142857421875 10  C 18.57142857421875 5.529047617187501  14.470952382812502 1.4285714257812572  10.000000000000002 1.4285714257812572  C 5.529047617187502 1.4285714257812572  1.4285714257812518 5.529047617187501  1.4285714257812518 10  C 1.4285714257812518 14.470952382812499  5.529047617187502 18.571428574218743  10.000000000000002 18.571428574218743  C 14.4709523828125 18.571428574218743  18.57142857421875 14.470952382812499  18.57142857421875 10  Z M 14.48142857421875 13.206190468750009  C 14.853220902551495 13.578095091766613  14.853220902551495 14.180952525420892  14.48142857421875 14.552857148437496  C 14.302954824853648 14.731634630078076  14.060710103470363 14.832096345734968  13.808095244140626 14.832096345734968  C 13.55548038481089 14.832096345734968  13.313235663427605 14.731634630078076  13.134761914062503 14.552857148437496  L 10.104285722656252 11.52285714843751  L 7.073809531250001 14.552857148437496  C 6.895189180590103 14.731540660588848  6.6528900839886 14.831929323765635  6.400238095703125 14.831929323765635  C 5.8742390540189575 14.831929323765635  5.447832580531245 14.405522850277919  5.447832580531245 13.879523808593746  C 5.447832580531245 13.626988500578122  5.548128800320416 13.384791460907906  5.726666660156251 13.206190468750009  L 8.757142851562502 10.175714277343758  L 5.726666660156251 7.145238085937507  C 5.548128804601796 6.966637095472166  5.447832587435364 6.724440059651101  5.447832587435364 6.47190475585937  C 5.447832587435364 5.945905717988239  5.874239057831996 5.519499247591611  6.400238095703125 5.519499247591611  C 6.652890084550408 5.519499247591611  6.895189181488675 5.619887911937283  7.073809531250001 5.7985714257812475  L 10.104285722656252 8.829047617187499  L 13.134761914062503 5.7985714257812475  C 13.314225150825365 5.6127592155185795  13.561470915174542 5.507820369254603  13.819798673714153 5.507820369254603  C 14.345784152311769 5.507820369254603  14.772179630745404 5.934215847688236  14.772179630745404 6.460201326285841  C 14.772179630745404 6.718529084825462  14.667240784481418 6.965774849174636  14.48142857421875 7.145238085937507  L 11.450952382812503 10.175714277343758  L 14.48142857421875 13.206190468750009  Z " fill-rule="evenodd" />
    </mask>
  </defs>
  <g transform="matrix(1 0 0 1 -920 -472 )">
    <path d="M 20 10  C 20 15.522857148437495  15.5228571484375 20  10.000000000000002 20  C 4.477142851562502 20  0 15.522857148437495  0 10  C 0 4.477142851562505  4.477142851562502 0  10.000000000000002 0  C 15.5228571484375 0  20 4.477142851562505  20 10  Z M 18.57142857421875 10  C 18.57142857421875 5.529047617187501  14.470952382812502 1.4285714257812572  10.000000000000002 1.4285714257812572  C 5.529047617187502 1.4285714257812572  1.4285714257812518 5.529047617187501  1.4285714257812518 10  C 1.4285714257812518 14.470952382812499  5.529047617187502 18.571428574218743  10.000000000000002 18.571428574218743  C 14.4709523828125 18.571428574218743  18.57142857421875 14.470952382812499  18.57142857421875 10  Z M 14.48142857421875 13.206190468750009  C 14.853220902551495 13.578095091766613  14.853220902551495 14.180952525420892  14.48142857421875 14.552857148437496  C 14.302954824853648 14.731634630078076  14.060710103470363 14.832096345734968  13.808095244140626 14.832096345734968  C 13.55548038481089 14.832096345734968  13.313235663427605 14.731634630078076  13.134761914062503 14.552857148437496  L 10.104285722656252 11.52285714843751  L 7.073809531250001 14.552857148437496  C 6.895189180590103 14.731540660588848  6.6528900839886 14.831929323765635  6.400238095703125 14.831929323765635  C 5.8742390540189575 14.831929323765635  5.447832580531245 14.405522850277919  5.447832580531245 13.879523808593746  C 5.447832580531245 13.626988500578122  5.548128800320416 13.384791460907906  5.726666660156251 13.206190468750009  L 8.757142851562502 10.175714277343758  L 5.726666660156251 7.145238085937507  C 5.548128804601796 6.966637095472166  5.447832587435364 6.724440059651101  5.447832587435364 6.47190475585937  C 5.447832587435364 5.945905717988239  5.874239057831996 5.519499247591611  6.400238095703125 5.519499247591611  C 6.652890084550408 5.519499247591611  6.895189181488675 5.619887911937283  7.073809531250001 5.7985714257812475  L 10.104285722656252 8.829047617187499  L 13.134761914062503 5.7985714257812475  C 13.314225150825365 5.6127592155185795  13.561470915174542 5.507820369254603  13.819798673714153 5.507820369254603  C 14.345784152311769 5.507820369254603  14.772179630745404 5.934215847688236  14.772179630745404 6.460201326285841  C 14.772179630745404 6.718529084825462  14.667240784481418 6.965774849174636  14.48142857421875 7.145238085937507  L 11.450952382812503 10.175714277343758  L 14.48142857421875 13.206190468750009  Z " fill-rule="nonzero" fill="rgba(255, 255, 255, 1)" stroke="none" transform="matrix(1 0 0 1 930 482 )" class="fill" />
    <path d="M 20 10  C 20 15.522857148437495  15.5228571484375 20  10.000000000000002 20  C 4.477142851562502 20  0 15.522857148437495  0 10  C 0 4.477142851562505  4.477142851562502 0  10.000000000000002 0  C 15.5228571484375 0  20 4.477142851562505  20 10  Z " stroke-width="0" stroke-dasharray="0" stroke="rgba(255, 255, 255, 0)" fill="none" transform="matrix(1 0 0 1 930 482 )" class="stroke" mask="url(#Clip5545)" />
    <path d="M 18.57142857421875 10  C 18.57142857421875 5.529047617187501  14.470952382812502 1.4285714257812572  10.000000000000002 1.4285714257812572  C 5.529047617187502 1.4285714257812572  1.4285714257812518 5.529047617187501  1.4285714257812518 10  C 1.4285714257812518 14.470952382812499  5.529047617187502 18.571428574218743  10.000000000000002 18.571428574218743  C 14.4709523828125 18.571428574218743  18.57142857421875 14.470952382812499  18.57142857421875 10  Z " stroke-width="0" stroke-dasharray="0" stroke="rgba(255, 255, 255, 0)" fill="none" transform="matrix(1 0 0 1 930 482 )" class="stroke" mask="url(#Clip5545)" />
    <path d="M 14.48142857421875 13.206190468750009  C 14.853220902551495 13.578095091766613  14.853220902551495 14.180952525420892  14.48142857421875 14.552857148437496  C 14.302954824853648 14.731634630078076  14.060710103470363 14.832096345734968  13.808095244140626 14.832096345734968  C 13.55548038481089 14.832096345734968  13.313235663427605 14.731634630078076  13.134761914062503 14.552857148437496  L 10.104285722656252 11.52285714843751  L 7.073809531250001 14.552857148437496  C 6.895189180590103 14.731540660588848  6.6528900839886 14.831929323765635  6.400238095703125 14.831929323765635  C 5.8742390540189575 14.831929323765635  5.447832580531245 14.405522850277919  5.447832580531245 13.879523808593746  C 5.447832580531245 13.626988500578122  5.548128800320416 13.384791460907906  5.726666660156251 13.206190468750009  L 8.757142851562502 10.175714277343758  L 5.726666660156251 7.145238085937507  C 5.548128804601796 6.966637095472166  5.447832587435364 6.724440059651101  5.447832587435364 6.47190475585937  C 5.447832587435364 5.945905717988239  5.874239057831996 5.519499247591611  6.400238095703125 5.519499247591611  C 6.652890084550408 5.519499247591611  6.895189181488675 5.619887911937283  7.073809531250001 5.7985714257812475  L 10.104285722656252 8.829047617187499  L 13.134761914062503 5.7985714257812475  C 13.314225150825365 5.6127592155185795  13.561470915174542 5.507820369254603  13.819798673714153 5.507820369254603  C 14.345784152311769 5.507820369254603  14.772179630745404 5.934215847688236  14.772179630745404 6.460201326285841  C 14.772179630745404 6.718529084825462  14.667240784481418 6.965774849174636  14.48142857421875 7.145238085937507  L 11.450952382812503 10.175714277343758  L 14.48142857421875 13.206190468750009  Z " stroke-width="0" stroke-dasharray="0" stroke="rgba(255, 255, 255, 0)" fill="none" transform="matrix(1 0 0 1 930 482 )" class="stroke" mask="url(#Clip5545)" />
  </g>
  <style>svg { filter: drop-shadow(0px 0px 5px rgba(0, 0, 0, 0.3137254901960784)); }</style>
</svg>