<?xml version="1.0" encoding="utf-8"?>
<svg version="1.1" xmlns:xlink="http://www.w3.org/1999/xlink" width="5px" height="4px" xmlns="http://www.w3.org/2000/svg">
  <defs>
    <pattern id="BGPattern" patternUnits="userSpaceOnUse" alignment="0 0" imageRepeat="None" />
    <mask fill="white" id="Clip8657">
      <path d="M 4.389062500000001 3.1031250000000004  C 4.323437500000001 3.2601562500000014  4.171093750000001 3.3632812500000018  4 3.36328125  L 0.625 3.36328125  C 0.3929687500000014 3.36328125  0.203125 3.1734374999999986  0.203125 2.94140625  C 0.203125 1.7789062499999995  1.1499999999999986 0.83203125  2.3125 0.83203125  C 2.4250000000000007 0.83203125  2.5328124999999986 0.8765624999999995  2.6101562499999993 0.9562500000000007  L 4.297656250000001 2.6437500000000007  C 4.419531250000002 2.765625  4.454687500000002 2.9460937499999993  4.389062500000001 3.1031250000000004  Z M 2.1484375 1.6851562499999995  C 1.6703125000000014 1.7484374999999996  1.2765625000000007 2.0789062499999993  1.1195312500000014 2.51953125  L 2.9828125000000014 2.51953125  L 2.1484375 1.6851562499999995  Z " fill-rule="evenodd" />
    </mask>
  </defs>
  <g transform="matrix(1 0 0 1 -99 -1348 )">
    <path d="M 4.389062500000001 3.1031250000000004  C 4.323437500000001 3.2601562500000014  4.171093750000001 3.3632812500000018  4 3.36328125  L 0.625 3.36328125  C 0.3929687500000014 3.36328125  0.203125 3.1734374999999986  0.203125 2.94140625  C 0.203125 1.7789062499999995  1.1499999999999986 0.83203125  2.3125 0.83203125  C 2.4250000000000007 0.83203125  2.5328124999999986 0.8765624999999995  2.6101562499999993 0.9562500000000007  L 4.297656250000001 2.6437500000000007  C 4.419531250000002 2.765625  4.454687500000002 2.9460937499999993  4.389062500000001 3.1031250000000004  Z M 2.1484375 1.6851562499999995  C 1.6703125000000014 1.7484374999999996  1.2765625000000007 2.0789062499999993  1.1195312500000014 2.51953125  L 2.9828125000000014 2.51953125  L 2.1484375 1.6851562499999995  Z " fill-rule="nonzero" fill="rgba(255, 255, 255, 1)" stroke="none" transform="matrix(1 0 0 1 99 1348 )" class="fill" />
    <path d="M 4.389062500000001 3.1031250000000004  C 4.323437500000001 3.2601562500000014  4.171093750000001 3.3632812500000018  4 3.36328125  L 0.625 3.36328125  C 0.3929687500000014 3.36328125  0.203125 3.1734374999999986  0.203125 2.94140625  C 0.203125 1.7789062499999995  1.1499999999999986 0.83203125  2.3125 0.83203125  C 2.4250000000000007 0.83203125  2.5328124999999986 0.8765624999999995  2.6101562499999993 0.9562500000000007  L 4.297656250000001 2.6437500000000007  C 4.419531250000002 2.765625  4.454687500000002 2.9460937499999993  4.389062500000001 3.1031250000000004  Z " stroke-width="0" stroke-dasharray="0" stroke="rgba(255, 255, 255, 0)" fill="none" transform="matrix(1 0 0 1 99 1348 )" class="stroke" mask="url(#Clip8657)" />
    <path d="M 2.1484375 1.6851562499999995  C 1.6703125000000014 1.7484374999999996  1.2765625000000007 2.0789062499999993  1.1195312500000014 2.51953125  L 2.9828125000000014 2.51953125  L 2.1484375 1.6851562499999995  Z " stroke-width="0" stroke-dasharray="0" stroke="rgba(255, 255, 255, 0)" fill="none" transform="matrix(1 0 0 1 99 1348 )" class="stroke" mask="url(#Clip8657)" />
  </g>
</svg>