<?xml version="1.0" encoding="utf-8"?>
<svg version="1.1" xmlns:xlink="http://www.w3.org/1999/xlink" width="14px" height="14px" xmlns="http://www.w3.org/2000/svg">
  <defs>
    <pattern id="BGPattern" patternUnits="userSpaceOnUse" alignment="0 0" imageRepeat="None" />
    <mask fill="white" id="Clip8673">
      <path d="M 12.777441343749995 4.6315942421875  L 12.792611664062498 4.6285601875  L 12.7668311875 4.6285601875  C 12.169538218749999 1.9300953906250005  9.6620741875 0.016908414062499766  6.789268726562501 0.06995912499999957  C 3.9164814531250016 0.12302802343749963  1.4848145312500005 2.1256563203125003  0.9951491406250002 4.8423073515625  C 0.46153520312499996 4.927206671875  0.0688872109375005 5.3880756953125  0.0688872109375005 5.929283874999999  L 0.0688872109375005 8.10321878125  C 0.08253142187500018 8.715682070312498  0.5888751015625004 9.20231340625  1.2013383906250006 9.1901953046875  C 1.5303073515624996 9.185635117187498  1.8410901015625 9.038582898437499  2.0502952421874996 8.785411046874998  C 2.559654812499999 10.066422390624997  3.5647660937500003 11.089719906249996  4.836675249999999 11.620317929687495  C 4.853353515624999 11.590013617187495  4.871539749999998 11.561199085937496  4.892778203124999 11.533910664062496  C 4.906575547967053 11.511045817333489  4.9289627585277405 11.49466604735435  4.954931101562499 11.488436031249996  C 4.9746434453125 11.488436031249996  4.992829656249999 11.496012109374998  5.009507945312501 11.506622265624998  C 4.165114987633483 10.774433917236268  3.6009197682145206 9.77195600402587  3.413171828125 8.6702074140625  C 3.3358485859374998 7.997099171874998  3.7785132343749996 7.375533671874996  4.4379772890625 7.226973507812498  C 5.412747906250001 7.049598789062497  6.3799606328125 6.852529914062497  7.354749437500001 6.682731273437497  C 7.929295984375003 6.602392140624998  8.421995453125001 6.230964437499997  8.653947015625 5.698858445312499  C 8.756845059152063 5.457815381802748  8.820806074225597 5.201959035653697  8.843439812499998 4.940850859374999  C 8.8510340546875 4.8938500937499985  8.887406499999997 4.855951539062499  8.932881156249998 4.846867515624998  C 8.979881921874998 4.836257382812498  9.029916742187497 4.854443593749998  9.057205140624998 4.892342171874999  L 9.082967453124997 4.875663882812498  C 9.4680393671875 5.419906117187498  10.215418632812497 6.609968195312497  10.336690374999996 7.865199085937498  C 10.461014382812497 9.302364859374997  10.392793328124998 10.290797874999997  9.254274039062498 11.298943234374999  C 9.237828935799644 11.31545460190316  9.228569935476035 11.33779241442469  9.228511726562498 11.361096132812499  C 9.230019671874999 11.391418609374998  9.245189992187496 11.418707031249998  9.270952304687498 11.433859187499998  L 9.343715359374997 11.433859187499998  L 9.392242234374997 11.4065707890625  C 10.5380375260509 10.79435716803977  11.405569271355041 9.766224376725962  11.816296749999996 8.533765328124996  C 11.988404543500941 8.777230626972434  12.248119903595214 8.94457467656797  12.540947757812496 9.000684320312498  C 12.063418609374995 11.121568492187496  10.106264945312496 12.4510885703125  7.685226343749996 12.652717632812497  C 7.503309624999996 12.219137007812499  7.0409326328124955 11.973559421874999  6.580063585937497 12.067542765625  C 6.070704015624996 12.1494080078125  5.722022710937496 12.628463289062498  5.803887953124995 13.137841023437499  C 5.870582874999997 13.556305820312502  6.210161992187496 13.877698703124999  6.630098406249996 13.9200302734375  C 7.093983343749997 13.989795601562502  7.544242234374998 13.723088570312502  7.703412554687496 13.280333078125  C 10.506489015624997 13.060517781249999  12.754694921874997 11.449011343750001  13.224738835937497 8.93095534375  C 13.646056023437495 8.767224835937501  13.926570789062495 8.3639666875  13.931112789062496 7.9121998515625  L 13.931112789062496 5.736757000000001  C 13.929659335937497 5.4411264062499995  13.808296749999997 5.157650265625  13.593005289062496 4.9544950703125  C 13.373171828124999 4.7452899296875  13.080647992187497 4.630068109374999  12.777441343749995 4.6315942421875  Z M 11.872399703124998 5.077292968750003  C 11.828433015625002 5.134903867187502  11.7905344609375 5.194022710937503  11.758704015625 5.2561756328125  C 10.680829679687502 2.5743891015625007  7.633683578125002 1.273665414062501  4.9518970468750005 2.350013617187501  C 3.6360212031250008 2.8791036953124998  2.591503398437501 3.9175533671875016  2.0563451875000007 5.2304133203125005  C 2.0184466328125 5.187954578125002  1.9775140000000002 5.1485480781250015  1.9350734218750008 5.110649500000001  C 2.3186192265625003 2.766915953125002  4.418264945312501 1.0386797734375026  6.889338390625001 1.0295957500000021  C 9.360393648437501 1.0204935625000022  11.472175632812501 2.7365934765625024  11.872399703124998 5.077292968750003  Z " fill-rule="evenodd" />
    </mask>
  </defs>
  <g transform="matrix(1 0 0 1 -96 -1624 )">
    <path d="M 12.777441343749995 4.6315942421875  L 12.792611664062498 4.6285601875  L 12.7668311875 4.6285601875  C 12.169538218749999 1.9300953906250005  9.6620741875 0.016908414062499766  6.789268726562501 0.06995912499999957  C 3.9164814531250016 0.12302802343749963  1.4848145312500005 2.1256563203125003  0.9951491406250002 4.8423073515625  C 0.46153520312499996 4.927206671875  0.0688872109375005 5.3880756953125  0.0688872109375005 5.929283874999999  L 0.0688872109375005 8.10321878125  C 0.08253142187500018 8.715682070312498  0.5888751015625004 9.20231340625  1.2013383906250006 9.1901953046875  C 1.5303073515624996 9.185635117187498  1.8410901015625 9.038582898437499  2.0502952421874996 8.785411046874998  C 2.559654812499999 10.066422390624997  3.5647660937500003 11.089719906249996  4.836675249999999 11.620317929687495  C 4.853353515624999 11.590013617187495  4.871539749999998 11.561199085937496  4.892778203124999 11.533910664062496  C 4.906575547967053 11.511045817333489  4.9289627585277405 11.49466604735435  4.954931101562499 11.488436031249996  C 4.9746434453125 11.488436031249996  4.992829656249999 11.496012109374998  5.009507945312501 11.506622265624998  C 4.165114987633483 10.774433917236268  3.6009197682145206 9.77195600402587  3.413171828125 8.6702074140625  C 3.3358485859374998 7.997099171874998  3.7785132343749996 7.375533671874996  4.4379772890625 7.226973507812498  C 5.412747906250001 7.049598789062497  6.3799606328125 6.852529914062497  7.354749437500001 6.682731273437497  C 7.929295984375003 6.602392140624998  8.421995453125001 6.230964437499997  8.653947015625 5.698858445312499  C 8.756845059152063 5.457815381802748  8.820806074225597 5.201959035653697  8.843439812499998 4.940850859374999  C 8.8510340546875 4.8938500937499985  8.887406499999997 4.855951539062499  8.932881156249998 4.846867515624998  C 8.979881921874998 4.836257382812498  9.029916742187497 4.854443593749998  9.057205140624998 4.892342171874999  L 9.082967453124997 4.875663882812498  C 9.4680393671875 5.419906117187498  10.215418632812497 6.609968195312497  10.336690374999996 7.865199085937498  C 10.461014382812497 9.302364859374997  10.392793328124998 10.290797874999997  9.254274039062498 11.298943234374999  C 9.237828935799644 11.31545460190316  9.228569935476035 11.33779241442469  9.228511726562498 11.361096132812499  C 9.230019671874999 11.391418609374998  9.245189992187496 11.418707031249998  9.270952304687498 11.433859187499998  L 9.343715359374997 11.433859187499998  L 9.392242234374997 11.4065707890625  C 10.5380375260509 10.79435716803977  11.405569271355041 9.766224376725962  11.816296749999996 8.533765328124996  C 11.988404543500941 8.777230626972434  12.248119903595214 8.94457467656797  12.540947757812496 9.000684320312498  C 12.063418609374995 11.121568492187496  10.106264945312496 12.4510885703125  7.685226343749996 12.652717632812497  C 7.503309624999996 12.219137007812499  7.0409326328124955 11.973559421874999  6.580063585937497 12.067542765625  C 6.070704015624996 12.1494080078125  5.722022710937496 12.628463289062498  5.803887953124995 13.137841023437499  C 5.870582874999997 13.556305820312502  6.210161992187496 13.877698703124999  6.630098406249996 13.9200302734375  C 7.093983343749997 13.989795601562502  7.544242234374998 13.723088570312502  7.703412554687496 13.280333078125  C 10.506489015624997 13.060517781249999  12.754694921874997 11.449011343750001  13.224738835937497 8.93095534375  C 13.646056023437495 8.767224835937501  13.926570789062495 8.3639666875  13.931112789062496 7.9121998515625  L 13.931112789062496 5.736757000000001  C 13.929659335937497 5.4411264062499995  13.808296749999997 5.157650265625  13.593005289062496 4.9544950703125  C 13.373171828124999 4.7452899296875  13.080647992187497 4.630068109374999  12.777441343749995 4.6315942421875  Z M 11.872399703124998 5.077292968750003  C 11.828433015625002 5.134903867187502  11.7905344609375 5.194022710937503  11.758704015625 5.2561756328125  C 10.680829679687502 2.5743891015625007  7.633683578125002 1.273665414062501  4.9518970468750005 2.350013617187501  C 3.6360212031250008 2.8791036953124998  2.591503398437501 3.9175533671875016  2.0563451875000007 5.2304133203125005  C 2.0184466328125 5.187954578125002  1.9775140000000002 5.1485480781250015  1.9350734218750008 5.110649500000001  C 2.3186192265625003 2.766915953125002  4.418264945312501 1.0386797734375026  6.889338390625001 1.0295957500000021  C 9.360393648437501 1.0204935625000022  11.472175632812501 2.7365934765625024  11.872399703124998 5.077292968750003  Z " fill-rule="nonzero" fill="rgba(255, 255, 255, 1)" stroke="none" transform="matrix(1 0 0 1 96 1624 )" class="fill" />
    <path d="M 12.777441343749995 4.6315942421875  L 12.792611664062498 4.6285601875  L 12.7668311875 4.6285601875  C 12.169538218749999 1.9300953906250005  9.6620741875 0.016908414062499766  6.789268726562501 0.06995912499999957  C 3.9164814531250016 0.12302802343749963  1.4848145312500005 2.1256563203125003  0.9951491406250002 4.8423073515625  C 0.46153520312499996 4.927206671875  0.0688872109375005 5.3880756953125  0.0688872109375005 5.929283874999999  L 0.0688872109375005 8.10321878125  C 0.08253142187500018 8.715682070312498  0.5888751015625004 9.20231340625  1.2013383906250006 9.1901953046875  C 1.5303073515624996 9.185635117187498  1.8410901015625 9.038582898437499  2.0502952421874996 8.785411046874998  C 2.559654812499999 10.066422390624997  3.5647660937500003 11.089719906249996  4.836675249999999 11.620317929687495  C 4.853353515624999 11.590013617187495  4.871539749999998 11.561199085937496  4.892778203124999 11.533910664062496  C 4.906575547967053 11.511045817333489  4.9289627585277405 11.49466604735435  4.954931101562499 11.488436031249996  C 4.9746434453125 11.488436031249996  4.992829656249999 11.496012109374998  5.009507945312501 11.506622265624998  C 4.165114987633483 10.774433917236268  3.6009197682145206 9.77195600402587  3.413171828125 8.6702074140625  C 3.3358485859374998 7.997099171874998  3.7785132343749996 7.375533671874996  4.4379772890625 7.226973507812498  C 5.412747906250001 7.049598789062497  6.3799606328125 6.852529914062497  7.354749437500001 6.682731273437497  C 7.929295984375003 6.602392140624998  8.421995453125001 6.230964437499997  8.653947015625 5.698858445312499  C 8.756845059152063 5.457815381802748  8.820806074225597 5.201959035653697  8.843439812499998 4.940850859374999  C 8.8510340546875 4.8938500937499985  8.887406499999997 4.855951539062499  8.932881156249998 4.846867515624998  C 8.979881921874998 4.836257382812498  9.029916742187497 4.854443593749998  9.057205140624998 4.892342171874999  L 9.082967453124997 4.875663882812498  C 9.4680393671875 5.419906117187498  10.215418632812497 6.609968195312497  10.336690374999996 7.865199085937498  C 10.461014382812497 9.302364859374997  10.392793328124998 10.290797874999997  9.254274039062498 11.298943234374999  C 9.237828935799644 11.31545460190316  9.228569935476035 11.33779241442469  9.228511726562498 11.361096132812499  C 9.230019671874999 11.391418609374998  9.245189992187496 11.418707031249998  9.270952304687498 11.433859187499998  L 9.343715359374997 11.433859187499998  L 9.392242234374997 11.4065707890625  C 10.5380375260509 10.79435716803977  11.405569271355041 9.766224376725962  11.816296749999996 8.533765328124996  C 11.988404543500941 8.777230626972434  12.248119903595214 8.94457467656797  12.540947757812496 9.000684320312498  C 12.063418609374995 11.121568492187496  10.106264945312496 12.4510885703125  7.685226343749996 12.652717632812497  C 7.503309624999996 12.219137007812499  7.0409326328124955 11.973559421874999  6.580063585937497 12.067542765625  C 6.070704015624996 12.1494080078125  5.722022710937496 12.628463289062498  5.803887953124995 13.137841023437499  C 5.870582874999997 13.556305820312502  6.210161992187496 13.877698703124999  6.630098406249996 13.9200302734375  C 7.093983343749997 13.989795601562502  7.544242234374998 13.723088570312502  7.703412554687496 13.280333078125  C 10.506489015624997 13.060517781249999  12.754694921874997 11.449011343750001  13.224738835937497 8.93095534375  C 13.646056023437495 8.767224835937501  13.926570789062495 8.3639666875  13.931112789062496 7.9121998515625  L 13.931112789062496 5.736757000000001  C 13.929659335937497 5.4411264062499995  13.808296749999997 5.157650265625  13.593005289062496 4.9544950703125  C 13.373171828124999 4.7452899296875  13.080647992187497 4.630068109374999  12.777441343749995 4.6315942421875  Z " stroke-width="0" stroke-dasharray="0" stroke="rgba(255, 255, 255, 0)" fill="none" transform="matrix(1 0 0 1 96 1624 )" class="stroke" mask="url(#Clip8673)" />
    <path d="M 11.872399703124998 5.077292968750003  C 11.828433015625002 5.134903867187502  11.7905344609375 5.194022710937503  11.758704015625 5.2561756328125  C 10.680829679687502 2.5743891015625007  7.633683578125002 1.273665414062501  4.9518970468750005 2.350013617187501  C 3.6360212031250008 2.8791036953124998  2.591503398437501 3.9175533671875016  2.0563451875000007 5.2304133203125005  C 2.0184466328125 5.187954578125002  1.9775140000000002 5.1485480781250015  1.9350734218750008 5.110649500000001  C 2.3186192265625003 2.766915953125002  4.418264945312501 1.0386797734375026  6.889338390625001 1.0295957500000021  C 9.360393648437501 1.0204935625000022  11.472175632812501 2.7365934765625024  11.872399703124998 5.077292968750003  Z " stroke-width="0" stroke-dasharray="0" stroke="rgba(255, 255, 255, 0)" fill="none" transform="matrix(1 0 0 1 96 1624 )" class="stroke" mask="url(#Clip8673)" />
  </g>
</svg>