<?xml version="1.0" encoding="utf-8"?>
<svg version="1.1" xmlns:xlink="http://www.w3.org/1999/xlink" width="7px" height="5px" xmlns="http://www.w3.org/2000/svg">
  <defs>
    <pattern id="BGPattern" patternUnits="userSpaceOnUse" alignment="0 0" imageRepeat="None" />
    <mask fill="white" id="Clip4891">
      <path d="M 1.1812500000000004 2.0312499902343752  L 1.1812500000000004 0.15624999023437525  L 6.350000009765626 0.15624999023437525  L 6.350000009765626 2.0312499902343752  L 1.1812500000000004 2.0312499902343752  Z M 0.8000000097656237 4.606250009765624  L 0.8000000097656246 2.731250009765624  L 5.474999999999998 2.731250009765624  L 5.474999999999998 4.606250009765624  L 0.8000000097656237 4.606250009765624  Z " fill-rule="evenodd" />
    </mask>
  </defs>
  <g transform="matrix(1 0 0 1 -94 -1080 )">
    <path d="M 1.1812500000000004 2.0312499902343752  L 1.1812500000000004 0.15624999023437525  L 6.350000009765626 0.15624999023437525  L 6.350000009765626 2.0312499902343752  L 1.1812500000000004 2.0312499902343752  Z M 0.8000000097656237 4.606250009765624  L 0.8000000097656246 2.731250009765624  L 5.474999999999998 2.731250009765624  L 5.474999999999998 4.606250009765624  L 0.8000000097656237 4.606250009765624  Z " fill-rule="nonzero" fill="rgba(253, 143, 158, 1)" stroke="none" transform="matrix(1 0 0 1 94 1080 )" class="fill" />
    <path d="M 1.1812500000000004 2.0312499902343752  L 1.1812500000000004 0.15624999023437525  L 6.350000009765626 0.15624999023437525  L 6.350000009765626 2.0312499902343752  L 1.1812500000000004 2.0312499902343752  Z " stroke-width="0" stroke-dasharray="0" stroke="rgba(255, 255, 255, 0)" fill="none" transform="matrix(1 0 0 1 94 1080 )" class="stroke" mask="url(#Clip4891)" />
    <path d="M 0.8000000097656237 4.606250009765624  L 0.8000000097656246 2.731250009765624  L 5.474999999999998 2.731250009765624  L 5.474999999999998 4.606250009765624  L 0.8000000097656237 4.606250009765624  Z " stroke-width="0" stroke-dasharray="0" stroke="rgba(255, 255, 255, 0)" fill="none" transform="matrix(1 0 0 1 94 1080 )" class="stroke" mask="url(#Clip4891)" />
  </g>
</svg>