<?xml version="1.0" encoding="utf-8"?>
<svg version="1.1" xmlns:xlink="http://www.w3.org/1999/xlink" width="18px" height="18px" xmlns="http://www.w3.org/2000/svg">
  <defs>
    <pattern id="BGPattern" patternUnits="userSpaceOnUse" alignment="0 0" imageRepeat="None" />
    <mask fill="white" id="Clip4072">
      <path d="M 17.227343750000003 0.5421874999999989  C 16.91796875 0.4835937499999998  16.59921875 0.453125  16.2734375 0.453125  L 11.604687499999999 0.453125  L 0.453125 11.604687499999999  L 0.453125 16.2734375  C 0.453125 16.59921875  0.4835937499999998 16.91796875  0.5398437500000002 17.229687499999997  L 17.227343750000003 0.5421874999999989  Z " fill-rule="evenodd" />
    </mask>
  </defs>
  <g transform="matrix(1 0 0 1 -92 -1343 )">
    <path d="M 17.227343750000003 0.5421874999999989  C 16.91796875 0.4835937499999998  16.59921875 0.453125  16.2734375 0.453125  L 11.604687499999999 0.453125  L 0.453125 11.604687499999999  L 0.453125 16.2734375  C 0.453125 16.59921875  0.4835937499999998 16.91796875  0.5398437500000002 17.229687499999997  L 17.227343750000003 0.5421874999999989  Z " fill-rule="nonzero" fill="rgba(255, 101, 95, 1)" stroke="none" transform="matrix(1 0 0 1 92 1343 )" class="fill" />
    <path d="M 17.227343750000003 0.5421874999999989  C 16.91796875 0.4835937499999998  16.59921875 0.453125  16.2734375 0.453125  L 11.604687499999999 0.453125  L 0.453125 11.604687499999999  L 0.453125 16.2734375  C 0.453125 16.59921875  0.4835937499999998 16.91796875  0.5398437500000002 17.229687499999997  L 17.227343750000003 0.5421874999999989  Z " stroke-width="0" stroke-dasharray="0" stroke="rgba(255, 255, 255, 0)" fill="none" transform="matrix(1 0 0 1 92 1343 )" class="stroke" mask="url(#Clip4072)" />
  </g>
</svg>