<?xml version="1.0" encoding="utf-8"?>
<svg version="1.1" xmlns:xlink="http://www.w3.org/1999/xlink" width="3px" height="4px" xmlns="http://www.w3.org/2000/svg">
  <defs>
    <pattern id="BGPattern" patternUnits="userSpaceOnUse" alignment="0 0" imageRepeat="None" />
    <mask fill="white" id="Clip5158">
      <path d="M 2.8360000000000003 2.152000000000001  C 2.7280000000000015 1.216000000000001  2.404 0.6639999999999997  1.5519999999999996 0.5560000000000009  C 0.7000000000000011 0.5560000000000009  0.2680000000000007 1.1920000000000002  0.2680000000000007 2.152000000000001  C 0.2680000000000007 3.219999999999999  0.7000000000000011 3.748000000000001  1.5519999999999996 3.748000000000001  C 2.404 3.748000000000001  2.8360000000000003 3.219999999999999  2.8360000000000003 2.152000000000001  Z " fill-rule="evenodd" />
    </mask>
  </defs>
  <g transform="matrix(1 0 0 1 -257 -1218 )">
    <path d="M 2.8360000000000003 2.152000000000001  C 2.7280000000000015 1.216000000000001  2.404 0.6639999999999997  1.5519999999999996 0.5560000000000009  C 0.7000000000000011 0.5560000000000009  0.2680000000000007 1.1920000000000002  0.2680000000000007 2.152000000000001  C 0.2680000000000007 3.219999999999999  0.7000000000000011 3.748000000000001  1.5519999999999996 3.748000000000001  C 2.404 3.748000000000001  2.8360000000000003 3.219999999999999  2.8360000000000003 2.152000000000001  Z " fill-rule="nonzero" fill="rgba(216, 30, 6, 1)" stroke="none" transform="matrix(1 0 0 1 257 1218 )" class="fill" />
    <path d="M 2.8360000000000003 2.152000000000001  C 2.7280000000000015 1.216000000000001  2.404 0.6639999999999997  1.5519999999999996 0.5560000000000009  C 0.7000000000000011 0.5560000000000009  0.2680000000000007 1.1920000000000002  0.2680000000000007 2.152000000000001  C 0.2680000000000007 3.219999999999999  0.7000000000000011 3.748000000000001  1.5519999999999996 3.748000000000001  C 2.404 3.748000000000001  2.8360000000000003 3.219999999999999  2.8360000000000003 2.152000000000001  Z " stroke-width="0" stroke-dasharray="0" stroke="rgba(255, 255, 255, 0)" fill="none" transform="matrix(1 0 0 1 257 1218 )" class="stroke" mask="url(#Clip5158)" />
  </g>
</svg>