<?xml version="1.0" encoding="utf-8"?>
<svg version="1.1" xmlns:xlink="http://www.w3.org/1999/xlink" width="340px" height="400px" xmlns="http://www.w3.org/2000/svg">
  <defs>
    <linearGradient gradientUnits="userSpaceOnUse" x1="165" y1="0" x2="165" y2="390" id="LinearGradient6678">
      <stop id="Stop6679" stop-color="#000000" stop-opacity="0.4980392156862745" offset="0" />
      <stop id="Stop6680" stop-color="#000000" offset="1" />
    </linearGradient>
    <pattern id="BGPattern" patternUnits="userSpaceOnUse" alignment="0 0" imageRepeat="None" />
    <mask fill="white" id="Clip6681">
      <path d="M 0 385  L 0 5  C 0 2.1999999999999993  2.1999999999999997 0  5 0  L 325 0  C 327.8 0  330 2.1999999999999993  330 5  L 330 385  C 330 387.8  327.8 390  325 390  L 5 390  C 2.1999999999999997 390  0 387.8  0 385  Z " fill-rule="evenodd" />
    </mask>
  </defs>
  <g transform="matrix(1 0 0 1 5 5 )">
    <path d="M 0 385  L 0 5  C 0 2.1999999999999993  2.1999999999999997 0  5 0  L 325 0  C 327.8 0  330 2.1999999999999993  330 5  L 330 385  C 330 387.8  327.8 390  325 390  L 5 390  C 2.1999999999999997 390  0 387.8  0 385  Z " fill-rule="nonzero" fill="url(#LinearGradient6678)" stroke="none" class="fill" />
    <path d="M 0 385  L 0 5  C 0 2.1999999999999993  2.1999999999999997 0  5 0  L 325 0  C 327.8 0  330 2.1999999999999993  330 5  L 330 385  C 330 387.8  327.8 390  325 390  L 5 390  C 2.1999999999999997 390  0 387.8  0 385  Z " stroke-width="0" stroke-dasharray="0" stroke="rgba(121, 121, 121, 1)" fill="none" class="stroke" mask="url(#Clip6681)" />
  </g>
  <style>svg { filter: drop-shadow(0px 0px 2.5px rgba(0, 0, 0, 0.34901960784313724)); }</style>
</svg>