<?xml version="1.0" encoding="utf-8"?>
<svg version="1.1" xmlns:xlink="http://www.w3.org/1999/xlink" width="750px" height="520px" xmlns="http://www.w3.org/2000/svg">
  <defs>
    <radialGradient cx="375" cy="260" r="375" gradientTransform="matrix(-1 0 -0 -0.6933333333333334 750 440.26666666666665 )" gradientUnits="userSpaceOnUse" id="RadialGradient17552">
      <stop id="Stop17553" stop-color="#ff9843" offset="0" />
      <stop id="Stop17554" stop-color="#ffffff" stop-opacity="0" offset="1" />
    </radialGradient>
    <pattern id="BGPattern" patternUnits="userSpaceOnUse" alignment="0 0" imageRepeat="None" />
    <mask fill="white" id="Clip17555">
      <path d="M 0 260  C 0 114.39999999999999  164.99999999999997 0  375 0  C 585 0  750 114.39999999999999  750 260  C 750 405.6  585 520  375 520  C 164.99999999999997 520  0 405.6  0 260  Z " fill-rule="evenodd" />
    </mask>
  </defs>
  <g transform="matrix(1 0 0 1 -830 -2350 )">
    <path d="M 0 260  C 0 114.39999999999999  164.99999999999997 0  375 0  C 585 0  750 114.39999999999999  750 260  C 750 405.6  585 520  375 520  C 164.99999999999997 520  0 405.6  0 260  Z " fill-rule="nonzero" fill="url(#RadialGradient17552)" stroke="none" transform="matrix(1 0 0 1 830 2350 )" class="fill" />
    <path d="M 0 260  C 0 114.39999999999999  164.99999999999997 0  375 0  C 585 0  750 114.39999999999999  750 260  C 750 405.6  585 520  375 520  C 164.99999999999997 520  0 405.6  0 260  Z " stroke-width="0" stroke-dasharray="0" stroke="rgba(121, 121, 121, 1)" fill="none" transform="matrix(1 0 0 1 830 2350 )" class="stroke" mask="url(#Clip17555)" />
  </g>
</svg>