<?xml version="1.0" encoding="utf-8"?>
<svg version="1.1" xmlns:xlink="http://www.w3.org/1999/xlink" width="220px" height="220px" xmlns="http://www.w3.org/2000/svg">
  <defs>
    <pattern id="BGPattern" patternUnits="userSpaceOnUse" alignment="0 0" imageRepeat="None" />
    <mask fill="white" id="Clip15708">
      <path d="M 220 110  C 220 171.60000000000008  171.60000000000008 220  110 220  C 48.39999999999991 220  0 171.60000000000008  0 110  C 0 48.39999999999991  48.39999999999991 0  110 0  C 171.60000000000008 0  220 48.39999999999991  220 110  Z M 19.130434782608695 110  C 19.130434782608695 160.88695652173897  59.11304347826082 200.86956521739128  110 200.86956521739128  C 160.88695652173917 200.86956521739128  200.86956521739128 160.88695652173897  200.86956521739128 110  C 200.86956521739128 59.11304347826104  160.88695652173917 19.130434782608695  110 19.130434782608695  C 59.11304347826082 19.130434782608695  19.130434782608695 59.11304347826104  19.130434782608695 110  Z " fill-rule="evenodd" />
    </mask>
  </defs>
  <g transform="matrix(1 0 0 1 -1095 -2540 )">
    <path d="M 220 110  C 220 171.60000000000008  171.60000000000008 220  110 220  C 48.39999999999991 220  0 171.60000000000008  0 110  C 0 48.39999999999991  48.39999999999991 0  110 0  C 171.60000000000008 0  220 48.39999999999991  220 110  Z M 19.130434782608695 110  C 19.130434782608695 160.88695652173897  59.11304347826082 200.86956521739128  110 200.86956521739128  C 160.88695652173917 200.86956521739128  200.86956521739128 160.88695652173897  200.86956521739128 110  C 200.86956521739128 59.11304347826104  160.88695652173917 19.130434782608695  110 19.130434782608695  C 59.11304347826082 19.130434782608695  19.130434782608695 59.11304347826104  19.130434782608695 110  Z " fill-rule="nonzero" fill="rgba(255, 152, 67, 1)" stroke="none" transform="matrix(1 0 0 1 1095 2540 )" class="fill" />
    <path d="M 220 110  C 220 171.60000000000008  171.60000000000008 220  110 220  C 48.39999999999991 220  0 171.60000000000008  0 110  C 0 48.39999999999991  48.39999999999991 0  110 0  C 171.60000000000008 0  220 48.39999999999991  220 110  Z " stroke-width="0" stroke-dasharray="0" stroke="rgba(121, 121, 121, 1)" fill="none" transform="matrix(1 0 0 1 1095 2540 )" class="stroke" mask="url(#Clip15708)" />
    <path d="M 19.130434782608695 110  C 19.130434782608695 160.88695652173897  59.11304347826082 200.86956521739128  110 200.86956521739128  C 160.88695652173917 200.86956521739128  200.86956521739128 160.88695652173897  200.86956521739128 110  C 200.86956521739128 59.11304347826104  160.88695652173917 19.130434782608695  110 19.130434782608695  C 59.11304347826082 19.130434782608695  19.130434782608695 59.11304347826104  19.130434782608695 110  Z " stroke-width="0" stroke-dasharray="0" stroke="rgba(121, 121, 121, 1)" fill="none" transform="matrix(1 0 0 1 1095 2540 )" class="stroke" mask="url(#Clip15708)" />
  </g>
</svg>