<?xml version="1.0" encoding="utf-8"?>
<svg version="1.1" xmlns:xlink="http://www.w3.org/1999/xlink" width="106px" height="106px" xmlns="http://www.w3.org/2000/svg">
  <defs>
    <pattern id="BGPattern" patternUnits="userSpaceOnUse" alignment="0 0" imageRepeat="None" />
    <mask fill="white" id="Clip17561">
      <path d="M 106 53  C 106 82.68000000000004  82.68000000000004 106  53 106  C 23.319999999999958 106  0 82.68000000000004  0 53  C 0 23.319999999999958  23.319999999999958 0  53 0  C 82.68000000000004 0  106 23.319999999999958  106 53  Z M 9.217391304347826 53  C 9.217391304347826 77.51826086956514  28.48173913043476 96.78260869565217  53 96.78260869565217  C 77.51826086956524 96.78260869565217  96.78260869565217 77.51826086956514  96.78260869565217 53  C 96.78260869565217 28.481739130434867  77.51826086956524 9.217391304347826  53 9.217391304347826  C 28.48173913043476 9.217391304347826  9.217391304347826 28.481739130434867  9.217391304347826 53  Z " fill-rule="evenodd" />
    </mask>
  </defs>
  <g transform="matrix(1 0 0 1 -507 -453 )">
    <path d="M 106 53  C 106 82.68000000000004  82.68000000000004 106  53 106  C 23.319999999999958 106  0 82.68000000000004  0 53  C 0 23.319999999999958  23.319999999999958 0  53 0  C 82.68000000000004 0  106 23.319999999999958  106 53  Z M 9.217391304347826 53  C 9.217391304347826 77.51826086956514  28.48173913043476 96.78260869565217  53 96.78260869565217  C 77.51826086956524 96.78260869565217  96.78260869565217 77.51826086956514  96.78260869565217 53  C 96.78260869565217 28.481739130434867  77.51826086956524 9.217391304347826  53 9.217391304347826  C 28.48173913043476 9.217391304347826  9.217391304347826 28.481739130434867  9.217391304347826 53  Z " fill-rule="nonzero" fill="rgba(255, 152, 67, 1)" stroke="none" transform="matrix(1 0 0 1 507 453 )" class="fill" />
    <path d="M 106 53  C 106 82.68000000000004  82.68000000000004 106  53 106  C 23.319999999999958 106  0 82.68000000000004  0 53  C 0 23.319999999999958  23.319999999999958 0  53 0  C 82.68000000000004 0  106 23.319999999999958  106 53  Z " stroke-width="0" stroke-dasharray="0" stroke="rgba(121, 121, 121, 1)" fill="none" transform="matrix(1 0 0 1 507 453 )" class="stroke" mask="url(#Clip17561)" />
    <path d="M 9.217391304347826 53  C 9.217391304347826 77.51826086956514  28.48173913043476 96.78260869565217  53 96.78260869565217  C 77.51826086956524 96.78260869565217  96.78260869565217 77.51826086956514  96.78260869565217 53  C 96.78260869565217 28.481739130434867  77.51826086956524 9.217391304347826  53 9.217391304347826  C 28.48173913043476 9.217391304347826  9.217391304347826 28.481739130434867  9.217391304347826 53  Z " stroke-width="0" stroke-dasharray="0" stroke="rgba(121, 121, 121, 1)" fill="none" transform="matrix(1 0 0 1 507 453 )" class="stroke" mask="url(#Clip17561)" />
  </g>
</svg>