<?xml version="1.0" encoding="utf-8"?>
<svg version="1.1" xmlns:xlink="http://www.w3.org/1999/xlink" width="360px" height="249px" xmlns="http://www.w3.org/2000/svg">
  <defs>
    <radialGradient cx="180" cy="124.5" r="180" gradientTransform="matrix(-1 0 -0 -0.6916666666666667 360 210.6125 )" gradientUnits="userSpaceOnUse" id="RadialGradient15709">
      <stop id="Stop15710" stop-color="#ff9843" offset="0" />
      <stop id="Stop15711" stop-color="#ffffff" stop-opacity="0" offset="1" />
    </radialGradient>
    <pattern id="BGPattern" patternUnits="userSpaceOnUse" alignment="0 0" imageRepeat="None" />
    <mask fill="white" id="Clip15712">
      <path d="M 0 124.5  C 0 54.779999999999994  79.19999999999999 0  180 0  C 280.8 0  360 54.779999999999994  360 124.5  C 360 194.22  280.8 249  180 249  C 79.19999999999999 249  0 194.22  0 124.5  Z " fill-rule="evenodd" />
    </mask>
  </defs>
  <g transform="matrix(1 0 0 1 -380 -363 )">
    <path d="M 0 124.5  C 0 54.779999999999994  79.19999999999999 0  180 0  C 280.8 0  360 54.779999999999994  360 124.5  C 360 194.22  280.8 249  180 249  C 79.19999999999999 249  0 194.22  0 124.5  Z " fill-rule="nonzero" fill="url(#RadialGradient15709)" stroke="none" transform="matrix(1 0 0 1 380 363 )" class="fill" />
    <path d="M 0 124.5  C 0 54.779999999999994  79.19999999999999 0  180 0  C 280.8 0  360 54.779999999999994  360 124.5  C 360 194.22  280.8 249  180 249  C 79.19999999999999 249  0 194.22  0 124.5  Z " stroke-width="0" stroke-dasharray="0" stroke="rgba(121, 121, 121, 1)" fill="none" transform="matrix(1 0 0 1 380 363 )" class="stroke" mask="url(#Clip15712)" />
  </g>
</svg>