<?xml version="1.0" encoding="utf-8"?>
<svg version="1.1" xmlns:xlink="http://www.w3.org/1999/xlink" width="14px" height="14px" xmlns="http://www.w3.org/2000/svg">
  <defs>
    <pattern id="BGPattern" patternUnits="userSpaceOnUse" alignment="0 0" imageRepeat="None" />
    <mask fill="white" id="Clip7914">
      <path d="M 2.7843750000000003 10.440625  C 4.8796875 12.6125  8.33125 12.6953125  10.5296875 10.6265625  C 11.965625 9.262500000000001  12.559375 7.232812500000002  12.0859375 5.309375  C 11.6125 3.3859375000000007  10.1421875 1.8640625000000002  8.2375 1.3234375000000003  C 6.332812500000001 0.7828125000000004  4.2828125 1.3062500000000004  2.8687500000000004 2.6937500000000005  C 0.7250000000000005 4.8187500000000005  0.6875000000000004 8.2703125  2.7843750000000003 10.440625  Z M 11.4828125 2.0421875  C 14.034375 4.684374999999999  13.9609375 8.8953125  11.3171875 11.4484375  C 8.674999999999999 14  4.4624999999999995 13.926562500000001  1.9109374999999993 11.284375  C -0.640625 8.640625  -0.5671875 4.4296875  2.0765625 1.8765624999999997  C 4.71875 -0.675  8.9296875 -0.6015625  11.4828125 2.0421875  Z " fill-rule="evenodd" />
    </mask>
  </defs>
  <g transform="matrix(1 0 0 1 -1557 -338 )">
    <path d="M 2.7843750000000003 10.440625  C 4.8796875 12.6125  8.33125 12.6953125  10.5296875 10.6265625  C 11.965625 9.262500000000001  12.559375 7.232812500000002  12.0859375 5.309375  C 11.6125 3.3859375000000007  10.1421875 1.8640625000000002  8.2375 1.3234375000000003  C 6.332812500000001 0.7828125000000004  4.2828125 1.3062500000000004  2.8687500000000004 2.6937500000000005  C 0.7250000000000005 4.8187500000000005  0.6875000000000004 8.2703125  2.7843750000000003 10.440625  Z M 11.4828125 2.0421875  C 14.034375 4.684374999999999  13.9609375 8.8953125  11.3171875 11.4484375  C 8.674999999999999 14  4.4624999999999995 13.926562500000001  1.9109374999999993 11.284375  C -0.640625 8.640625  -0.5671875 4.4296875  2.0765625 1.8765624999999997  C 4.71875 -0.675  8.9296875 -0.6015625  11.4828125 2.0421875  Z " fill-rule="nonzero" fill="rgba(127, 127, 127, 1)" stroke="none" transform="matrix(1 0 0 1 1557 338 )" class="fill" />
    <path d="M 2.7843750000000003 10.440625  C 4.8796875 12.6125  8.33125 12.6953125  10.5296875 10.6265625  C 11.965625 9.262500000000001  12.559375 7.232812500000002  12.0859375 5.309375  C 11.6125 3.3859375000000007  10.1421875 1.8640625000000002  8.2375 1.3234375000000003  C 6.332812500000001 0.7828125000000004  4.2828125 1.3062500000000004  2.8687500000000004 2.6937500000000005  C 0.7250000000000005 4.8187500000000005  0.6875000000000004 8.2703125  2.7843750000000003 10.440625  Z " stroke-width="0" stroke-dasharray="0" stroke="rgba(255, 255, 255, 0)" fill="none" transform="matrix(1 0 0 1 1557 338 )" class="stroke" mask="url(#Clip7914)" />
    <path d="M 11.4828125 2.0421875  C 14.034375 4.684374999999999  13.9609375 8.8953125  11.3171875 11.4484375  C 8.674999999999999 14  4.4624999999999995 13.926562500000001  1.9109374999999993 11.284375  C -0.640625 8.640625  -0.5671875 4.4296875  2.0765625 1.8765624999999997  C 4.71875 -0.675  8.9296875 -0.6015625  11.4828125 2.0421875  Z " stroke-width="0" stroke-dasharray="0" stroke="rgba(255, 255, 255, 0)" fill="none" transform="matrix(1 0 0 1 1557 338 )" class="stroke" mask="url(#Clip7914)" />
  </g>
</svg>