<?xml version="1.0" encoding="utf-8"?>
<svg version="1.1" xmlns:xlink="http://www.w3.org/1999/xlink" width="330px" height="369px" xmlns="http://www.w3.org/2000/svg">
  <defs>
    <linearGradient gradientUnits="userSpaceOnUse" x1="322.9141104294479" y1="16.9266055045873" x2="0" y2="341.91743119266073" id="LinearGradient8929">
      <stop id="Stop8930" stop-color="#333333" stop-opacity="0.4980392156862745" offset="0" />
      <stop id="Stop8931" stop-color="#000000" stop-opacity="0.2980392156862745" offset="1" />
    </linearGradient>
    <pattern id="BGPattern" patternUnits="userSpaceOnUse" alignment="0 0" imageRepeat="None" />
    <mask fill="white" id="Clip8932">
      <path d="M 0 359  L 0 10  C 0 4.4  4.3999999999999995 0  10 0  L 320 0  C 325.6 0  330 4.4  330 10  L 330 359  C 330 364.6  325.6 369  320 369  L 10 369  C 4.3999999999999995 369  0 364.6  0 359  Z " fill-rule="evenodd" />
    </mask>
  </defs>
  <g transform="matrix(1 0 0 1 -15 -150 )">
    <path d="M 0 359  L 0 10  C 0 4.4  4.3999999999999995 0  10 0  L 320 0  C 325.6 0  330 4.4  330 10  L 330 359  C 330 364.6  325.6 369  320 369  L 10 369  C 4.3999999999999995 369  0 364.6  0 359  Z " fill-rule="nonzero" fill="url(#LinearGradient8929)" stroke="none" transform="matrix(1 0 0 1 15 150 )" class="fill" />
    <path d="M 0 359  L 0 10  C 0 4.4  4.3999999999999995 0  10 0  L 320 0  C 325.6 0  330 4.4  330 10  L 330 359  C 330 364.6  325.6 369  320 369  L 10 369  C 4.3999999999999995 369  0 364.6  0 359  Z " stroke-width="2" stroke-dasharray="0" stroke="rgba(222, 190, 143, 1)" fill="none" transform="matrix(1 0 0 1 15 150 )" class="stroke" mask="url(#Clip8932)" />
  </g>
</svg>