<?xml version="1.0" encoding="utf-8"?>
<svg version="1.1" xmlns:xlink="http://www.w3.org/1999/xlink" width="84px" height="18px" xmlns="http://www.w3.org/2000/svg">
  <defs>
    <linearGradient gradientUnits="userSpaceOnUse" x1="84" y1="0" x2="0" y2="18" id="LinearGradient9685">
      <stop id="Stop9686" stop-color="#d7b685" offset="0" />
      <stop id="Stop9687" stop-color="#fae4c5" offset="0.53" />
      <stop id="Stop9688" stop-color="#e4c79f" offset="1" />
    </linearGradient>
    <pattern id="BGPattern" patternUnits="userSpaceOnUse" alignment="0 0" imageRepeat="None" />
    <mask fill="white" id="Clip9689">
      <path d="M 69.07941536159842 16.875026662768033  C 68.83366610313828 17.11973719138094  68.50134112883714 17.25768339677423  68.15453518323586 17.258939160818713  C 67.80772920992068 17.25768341778869  67.47540420307197 17.119737210805503  67.22965492495126 16.875026662768033  C 66.98240470281931 16.630776369454253  66.84324599439013 16.297696225556844  66.84324599439013 15.95014640448343  C 66.84324599439013 15.602596583410019  66.98240470281932 15.269516439512614  67.22965492495126 15.025266146198831  L 78.75575660818714 3.499164461013647  L 16.300165547758283 3.499164461013647  L 3.020281530214424 16.779048477582847  C 2.507339668615666 17.284641633007915  1.683462955166009 17.284641633007915  1.1705210935672508 16.779048477582847  C 0.9232708961441674 16.534798187310805  0.7841122034579389 16.201718060616887  0.7841122034579389 15.854168259259257  C 0.7841122034579389 15.50661845790163  0.9232708961441709 15.173538331207716  1.1705210935672508 14.929288040935674  L 14.83431760818713 1.2654915253411332  C 15.079528414126099 1.0199750899994182  15.412201374585024 0.8818844208636207  15.759197867446392 1  L 81.93176039571149 1  C 82.46258462090032 0.8830444396867172  82.9406835304489 1.2029235467928068  83.14457504775827 1.6930304278752466  C 83.3312751332389 2.192170971745222  83.19668966864364 2.7546692626702978  82.80428895419102 3.115251962962965  L 69.07941536159842 16.875026662768033  Z " fill-rule="evenodd" />
    </mask>
  </defs>
  <g transform="matrix(1 0 0 1 -138 -264 )">
    <path d="M 69.07941536159842 16.875026662768033  C 68.83366610313828 17.11973719138094  68.50134112883714 17.25768339677423  68.15453518323586 17.258939160818713  C 67.80772920992068 17.25768341778869  67.47540420307197 17.119737210805503  67.22965492495126 16.875026662768033  C 66.98240470281931 16.630776369454253  66.84324599439013 16.297696225556844  66.84324599439013 15.95014640448343  C 66.84324599439013 15.602596583410019  66.98240470281932 15.269516439512614  67.22965492495126 15.025266146198831  L 78.75575660818714 3.499164461013647  L 16.300165547758283 3.499164461013647  L 3.020281530214424 16.779048477582847  C 2.507339668615666 17.284641633007915  1.683462955166009 17.284641633007915  1.1705210935672508 16.779048477582847  C 0.9232708961441674 16.534798187310805  0.7841122034579389 16.201718060616887  0.7841122034579389 15.854168259259257  C 0.7841122034579389 15.50661845790163  0.9232708961441709 15.173538331207716  1.1705210935672508 14.929288040935674  L 14.83431760818713 1.2654915253411332  C 15.079528414126099 1.0199750899994182  15.412201374585024 0.8818844208636207  15.759197867446392 1  L 81.93176039571149 1  C 82.46258462090032 0.8830444396867172  82.9406835304489 1.2029235467928068  83.14457504775827 1.6930304278752466  C 83.3312751332389 2.192170971745222  83.19668966864364 2.7546692626702978  82.80428895419102 3.115251962962965  L 69.07941536159842 16.875026662768033  Z " fill-rule="nonzero" fill="url(#LinearGradient9685)" stroke="none" transform="matrix(1 0 0 1 138 264 )" class="fill" />
    <path d="M 69.07941536159842 16.875026662768033  C 68.83366610313828 17.11973719138094  68.50134112883714 17.25768339677423  68.15453518323586 17.258939160818713  C 67.80772920992068 17.25768341778869  67.47540420307197 17.119737210805503  67.22965492495126 16.875026662768033  C 66.98240470281931 16.630776369454253  66.84324599439013 16.297696225556844  66.84324599439013 15.95014640448343  C 66.84324599439013 15.602596583410019  66.98240470281932 15.269516439512614  67.22965492495126 15.025266146198831  L 78.75575660818714 3.499164461013647  L 16.300165547758283 3.499164461013647  L 3.020281530214424 16.779048477582847  C 2.507339668615666 17.284641633007915  1.683462955166009 17.284641633007915  1.1705210935672508 16.779048477582847  C 0.9232708961441674 16.534798187310805  0.7841122034579389 16.201718060616887  0.7841122034579389 15.854168259259257  C 0.7841122034579389 15.50661845790163  0.9232708961441709 15.173538331207716  1.1705210935672508 14.929288040935674  L 14.83431760818713 1.2654915253411332  C 15.079528414126099 1.0199750899994182  15.412201374585024 0.8818844208636207  15.759197867446392 1  L 81.93176039571149 1  C 82.46258462090032 0.8830444396867172  82.9406835304489 1.2029235467928068  83.14457504775827 1.6930304278752466  C 83.3312751332389 2.192170971745222  83.19668966864364 2.7546692626702978  82.80428895419102 3.115251962962965  L 69.07941536159842 16.875026662768033  Z " stroke-width="0" stroke-dasharray="0" stroke="rgba(255, 255, 255, 0)" fill="none" transform="matrix(1 0 0 1 138 264 )" class="stroke" mask="url(#Clip9689)" />
  </g>
</svg>