<?xml version="1.0" encoding="utf-8"?>
<svg version="1.1" xmlns:xlink="http://www.w3.org/1999/xlink" width="142px" height="35px" xmlns="http://www.w3.org/2000/svg">
  <defs>
    <linearGradient gradientUnits="userSpaceOnUse" x1="142" y1="0" x2="0" y2="35" id="LinearGradient5399">
      <stop id="Stop5400" stop-color="#d7b685" offset="0" />
      <stop id="Stop5401" stop-color="#fae4c5" offset="0.53" />
      <stop id="Stop5402" stop-color="#e4c79f" offset="1" />
    </linearGradient>
    <pattern id="BGPattern" patternUnits="userSpaceOnUse" alignment="0 0" imageRepeat="None" />
    <mask fill="white" id="Clip5403">
      <path d="M 17.5 35  C 7.699999999999999 35  0 27.3  0 17.5  C 0 7.699999999999999  7.699999999999999 0  17.5 0  L 124.50000000000001 0  C 134.29999999999998 0  142 7.699999999999999  142 17.5  C 142 27.3  134.29999999999998 35  124.50000000000001 35  L 17.5 35  Z " fill-rule="evenodd" />
    </mask>
  </defs>
  <g transform="matrix(1 0 0 1 -30 -444 )">
    <path d="M 17.5 35  C 7.699999999999999 35  0 27.3  0 17.5  C 0 7.699999999999999  7.699999999999999 0  17.5 0  L 124.50000000000001 0  C 134.29999999999998 0  142 7.699999999999999  142 17.5  C 142 27.3  134.29999999999998 35  124.50000000000001 35  L 17.5 35  Z " fill-rule="nonzero" fill="url(#LinearGradient5399)" stroke="none" transform="matrix(1 0 0 1 30 444 )" class="fill" />
    <path d="M 17.5 35  C 7.699999999999999 35  0 27.3  0 17.5  C 0 7.699999999999999  7.699999999999999 0  17.5 0  L 124.50000000000001 0  C 134.29999999999998 0  142 7.699999999999999  142 17.5  C 142 27.3  134.29999999999998 35  124.50000000000001 35  L 17.5 35  Z " stroke-width="0" stroke-dasharray="0" stroke="rgba(121, 121, 121, 1)" fill="none" transform="matrix(1 0 0 1 30 444 )" class="stroke" mask="url(#Clip5403)" />
  </g>
</svg>