<?xml version="1.0" encoding="utf-8"?>
<svg version="1.1" xmlns:xlink="http://www.w3.org/1999/xlink" width="9px" height="9px" xmlns="http://www.w3.org/2000/svg">
  <defs>
    <pattern id="BGPattern" patternUnits="userSpaceOnUse" alignment="0 0" imageRepeat="None" />
    <mask fill="white" id="Clip7471">
      <path d="M 6.978214285714284 0.7511538461538443  C 7.315714285714282 0.38769230769230556  7.8653571428571425 0.38769230769230556  8.202857142857141 0.7511538461538455  C 8.540357142857141 1.1146153846153841  8.540357142857141 1.7065384615384602  8.202857142857141 2.069999999999999  L 2.0217857142857127 8.726538461538459  C 1.6842857142857128 9.089999999999996  1.1346428571428562 9.089999999999996  0.797142857142856 8.726538461538459  C 0.4596428571428559 8.363076923076921  0.4596428571428559 7.771153846153845  0.797142857142856 7.407692307692307  L 6.978214285714284 0.7511538461538443  Z " fill-rule="evenodd" />
    </mask>
  </defs>
  <g transform="matrix(1 0 0 1 -417 -4307 )">
    <path d="M 6.978214285714284 0.7511538461538443  C 7.315714285714282 0.38769230769230556  7.8653571428571425 0.38769230769230556  8.202857142857141 0.7511538461538455  C 8.540357142857141 1.1146153846153841  8.540357142857141 1.7065384615384602  8.202857142857141 2.069999999999999  L 2.0217857142857127 8.726538461538459  C 1.6842857142857128 9.089999999999996  1.1346428571428562 9.089999999999996  0.797142857142856 8.726538461538459  C 0.4596428571428559 8.363076923076921  0.4596428571428559 7.771153846153845  0.797142857142856 7.407692307692307  L 6.978214285714284 0.7511538461538443  Z " fill-rule="nonzero" fill="rgba(222, 190, 143, 1)" stroke="none" transform="matrix(1 0 0 1 417 4307 )" class="fill" />
    <path d="M 6.978214285714284 0.7511538461538443  C 7.315714285714282 0.38769230769230556  7.8653571428571425 0.38769230769230556  8.202857142857141 0.7511538461538455  C 8.540357142857141 1.1146153846153841  8.540357142857141 1.7065384615384602  8.202857142857141 2.069999999999999  L 2.0217857142857127 8.726538461538459  C 1.6842857142857128 9.089999999999996  1.1346428571428562 9.089999999999996  0.797142857142856 8.726538461538459  C 0.4596428571428559 8.363076923076921  0.4596428571428559 7.771153846153845  0.797142857142856 7.407692307692307  L 6.978214285714284 0.7511538461538443  Z " stroke-width="0" stroke-dasharray="0" stroke="rgba(255, 255, 255, 0)" fill="none" transform="matrix(1 0 0 1 417 4307 )" class="stroke" mask="url(#Clip7471)" />
  </g>
</svg>