<?xml version="1.0" encoding="utf-8"?>
<svg version="1.1" xmlns:xlink="http://www.w3.org/1999/xlink" width="159px" height="40px" xmlns="http://www.w3.org/2000/svg">
  <defs>
    <linearGradient gradientUnits="userSpaceOnUse" x1="159" y1="0" x2="0" y2="40" id="LinearGradient1842">
      <stop id="Stop1843" stop-color="#d7b685" offset="0" />
      <stop id="Stop1844" stop-color="#fae4c5" offset="0.53" />
      <stop id="Stop1845" stop-color="#e4c79f" offset="1" />
    </linearGradient>
    <pattern id="BGPattern" patternUnits="userSpaceOnUse" alignment="0 0" imageRepeat="None" />
    <mask fill="white" id="Clip1846">
      <path d="M 20 40  C 8.799999999999999 40  0 31.200000000000003  0 20  C 0 8.799999999999999  8.799999999999999 0  20 0  L 139 0  C 150.2 0  159 8.799999999999999  159 20  C 159 31.200000000000003  150.2 40  139 40  L 20 40  Z " fill-rule="evenodd" />
    </mask>
  </defs>
  <g transform="matrix(1 0 0 1 -181 -3939 )">
    <path d="M 20 40  C 8.799999999999999 40  0 31.200000000000003  0 20  C 0 8.799999999999999  8.799999999999999 0  20 0  L 139 0  C 150.2 0  159 8.799999999999999  159 20  C 159 31.200000000000003  150.2 40  139 40  L 20 40  Z " fill-rule="nonzero" fill="url(#LinearGradient1842)" stroke="none" transform="matrix(1 0 0 1 181 3939 )" class="fill" />
    <path d="M 20 40  C 8.799999999999999 40  0 31.200000000000003  0 20  C 0 8.799999999999999  8.799999999999999 0  20 0  L 139 0  C 150.2 0  159 8.799999999999999  159 20  C 159 31.200000000000003  150.2 40  139 40  L 20 40  Z " stroke-width="0" stroke-dasharray="0" stroke="rgba(121, 121, 121, 1)" fill="none" transform="matrix(1 0 0 1 181 3939 )" class="stroke" mask="url(#Clip1846)" />
  </g>
</svg>