<?xml version="1.0" encoding="utf-8"?>
<svg version="1.1" xmlns:xlink="http://www.w3.org/1999/xlink" width="66px" height="84px" xmlns="http://www.w3.org/2000/svg">
  <defs>
    <linearGradient gradientUnits="userSpaceOnUse" x1="66" y1="0" x2="0" y2="84" id="LinearGradient702">
      <stop id="Stop703" stop-color="#d7b685" offset="0" />
      <stop id="Stop704" stop-color="#fae4c5" offset="0.53" />
      <stop id="Stop705" stop-color="#e4c79f" offset="1" />
    </linearGradient>
    <pattern id="BGPattern" patternUnits="userSpaceOnUse" alignment="0 0" imageRepeat="None" />
    <mask fill="white" id="Clip706">
      <path d="M 50.98343725730993 82.73347890838207  C 50.739331915211324 82.98064233196999  50.40593933159188 83.1190317122687  50.05855699805069 83.11739148538013  C 49.6985594193049 83.13192032541612  49.34944362995249 82.99227399811754  49.09877563255361 82.7334789074074  C 48.851525435130526 82.48922861713537  48.71236674244429 82.15614849044145  48.71236674244429 81.80859868908382  C 48.71236674244429 81.4610488877262  48.85152543513051 81.12796876103225  49.09877563255361 80.88371847076023  L 62 67.40315294736841  L 62 2.1903717027290472  C 62.61424234334906 1.4675454226372278  63.2002088198107 0.8815789463937609  63.923035099902535 0.8815789463937609  C 64.64586138018466 0.8815789463937609  65.23182785672515 1.4675454229342435  65.23182785672515 2.1903717032163765  C 65.23182785672515 2.1903717032163765  65.23182785672515 2.190371703703706  65 2.190371703703706  L 65 67.94412062768029  C 65.23152238272125 68.29111708116835  65.09343174427882 68.62379000699674  64.8479153576998 68.86900080604288  L 50.98343725730993 82.73347890838207  Z M 18.66498102826511 63.51167570467837  C 17.856937169714378 64.29562123153981  16.77179671763718 64.72842292446255  15.646032423001948 64.71576505945418  L 15.427900243664716 64.71576505945417  C 13.200710826785382 64.67576649855019  11.361356051107563 62.964301453495175  11.161235799220279 60.745760385964914  C 10.498114123781676 53.922587425925926  13.368732924951267 49.07132889668617  20.44493925146199 45.04024706432749  C 22.401264125688733 43.612837111870206  23.558061389174156 41.33680520013358  23.558061389174156 38.91508965410173  C 23.558061389174156 34.731627617654965  20.169776520742744 31.33863396599196  15.986318518518516 31.332824145224166  C 12.208270053606235 31.332824145224166  9.826267232943465 34.38667393762183  8.84903527290448 37.23984214327484  C 8.257021069747829 39.00508631628103  6.609962244809495 40.20008007010695  4.748151226120854 40.215164424951254  C 3.3791176314831652 40.197871227524914  2.093291870421549 39.55495834753273  1.2580371549707579 38.47010739083821  C 0.48744228574608783 37.48269807230724  0.20807891473775086 36.19826872592134  0.498937376218322 34.97999331773878  C 2.3125306966454175 27.874286159216652  8.71282871150418 22.902362174130054  16.046326850494218 22.902362174130054  C 17.674328346759978 22.902362174130054  19.292849398966517 23.150118701446043  20.84630234307992 23.637122625730996  C 25.188070944336765 24.972743426513475  28.733216327044545 28.13247768746919  30.557544697855747 32.292605510721245  C 33.78946181718811 39.39975622151299  31.404699852052573 47.80179683581608  24.921010499025336 52.151354499025345  L 24.84248290740741 52.20370619980507  C 20.94228044639376 54.42865391812865  19.991224378167644 56.02538106920079  19.991224379142295 60.335671917154  C 19.990100056459497 61.52878668625998  19.512682292764346 62.672076584546204  18.66498102826511 63.51167570467837  Z M 6.344878458089667 36.37603896296296  C 7.959056201754386 31.708011426900583  11.73710466666666 28.697788038011694  15.986318517543864 28.697788038011687  C 21.61267315325282 28.70748399351671  26.16859935592101 33.27126823631682  26.16859935592101 38.897631226590086  C 26.16859935592101 42.20096109912507  24.568853574400784 45.29975293475186  21.87588600389863 47.21284308187135  L 21.788633115009745 47.265194782651065  C 15.61113123586744 50.75530885380116  13.211677821637423 54.734038905458085  13.761370799220266 60.4840018031189  C 13.834309011131474 61.39286577369951  14.594646521955333 62.09237627195361  15.506427834307985 62.089454248538004  L 15.65475764035088 62.089454248538004  C 16.089354849239555 62.086925258028494  16.505771295840084 61.914722972340954  16.815220591617937 61.60956356627682  C 17.162836652208405 61.262879378002935  17.357585143970603 60.791713680027016  17.356188272904483 60.30077081091617  C 17.356188272904483 55.10922618810916  18.848212022417158 52.57889348148148  23.463887856725144 49.9264067797271  C 28.872380306125223 46.27174717334167  30.855790412739417 39.24870583937543  28.15809128460039 33.30473857602339  C 26.631129973251845 29.87404252642701  23.68911772589766 27.27590183118604  20.09592777972709 26.184905845029242  C 18.777118007109955 25.763473029196675  17.40096941511218 25.548938876557063  16.016460536624564 25.548938876557063  C 9.902175532917227 25.548938876557063  4.563032552751128 29.687171439097952  3.0379953781676363 35.60821380701755  C 2.929146655893124 36.05174584883611  3.035859700415479 36.520636527623424  3.3259297719298218 36.87338015984406  C 3.665439304764771 37.31593423406039  4.190379128098961 37.5767939282841  4.748151226120854 37.58012831871345  C 5.480400176792028 37.55378912494541  6.1182080407311545 37.07281927323436  6.344878458089667 36.37603896296296  Z M 20.087202564327484 70.14289245516568  C 20.082421127148407 72.68185506073401  18.027926219854685 74.74024840956649  15.488977240740738 74.7498429951267  C 15.486068838867432 74.74984850342943  15.483160432438005 74.74985125758265  15.480252025348541 74.74985125758265  C 12.935903499441622 74.74985125758265  10.87330148636218 72.68724924450322  10.87330148636218 70.1429007185963  C 10.87330148636218 67.59855219268938  12.935903499441622 65.53595017960994  15.480252025348541 65.53595017960994  C 18.024600551255453 65.53595017960994  20.087202564334888 67.59855219268938  20.087202564334888 70.1429007185963  Z M 17.469616970760228 70.14289245516568  C 17.46483837643158 69.05100082157298  16.580868874338144 68.16703132034954  15.488977240740738 68.16225272709552  C 15.486075176695486 68.16224002639954  15.483173088331434 68.16223367602875  15.480270996494433 68.16223367602875  C 14.381575031151783 68.16223367602875  13.49090597115331 69.05290273602722  13.49090597115331 70.15159870136988  C 13.49090597115331 71.25029466671253  14.381575031151783 72.140963726711  15.480270996494433 72.140963726711  C 16.578966961837097 72.140963726711  17.46963602183557 71.25029466671253  17.46963602183557 70.15159870136988  C 17.46963602183557 70.14869660887888  17.469629671461924 70.1457945198649  17.469616970760228 70.14289245516568  Z " fill-rule="evenodd" />
    </mask>
  </defs>
  <g transform="matrix(1 0 0 1 -156 -264 )">
    <path d="M 50.98343725730993 82.73347890838207  C 50.739331915211324 82.98064233196999  50.40593933159188 83.1190317122687  50.05855699805069 83.11739148538013  C 49.6985594193049 83.13192032541612  49.34944362995249 82.99227399811754  49.09877563255361 82.7334789074074  C 48.851525435130526 82.48922861713537  48.71236674244429 82.15614849044145  48.71236674244429 81.80859868908382  C 48.71236674244429 81.4610488877262  48.85152543513051 81.12796876103225  49.09877563255361 80.88371847076023  L 62 67.40315294736841  L 62 2.1903717027290472  C 62.61424234334906 1.4675454226372278  63.2002088198107 0.8815789463937609  63.923035099902535 0.8815789463937609  C 64.64586138018466 0.8815789463937609  65.23182785672515 1.4675454229342435  65.23182785672515 2.1903717032163765  C 65.23182785672515 2.1903717032163765  65.23182785672515 2.190371703703706  65 2.190371703703706  L 65 67.94412062768029  C 65.23152238272125 68.29111708116835  65.09343174427882 68.62379000699674  64.8479153576998 68.86900080604288  L 50.98343725730993 82.73347890838207  Z M 18.66498102826511 63.51167570467837  C 17.856937169714378 64.29562123153981  16.77179671763718 64.72842292446255  15.646032423001948 64.71576505945418  L 15.427900243664716 64.71576505945417  C 13.200710826785382 64.67576649855019  11.361356051107563 62.964301453495175  11.161235799220279 60.745760385964914  C 10.498114123781676 53.922587425925926  13.368732924951267 49.07132889668617  20.44493925146199 45.04024706432749  C 22.401264125688733 43.612837111870206  23.558061389174156 41.33680520013358  23.558061389174156 38.91508965410173  C 23.558061389174156 34.731627617654965  20.169776520742744 31.33863396599196  15.986318518518516 31.332824145224166  C 12.208270053606235 31.332824145224166  9.826267232943465 34.38667393762183  8.84903527290448 37.23984214327484  C 8.257021069747829 39.00508631628103  6.609962244809495 40.20008007010695  4.748151226120854 40.215164424951254  C 3.3791176314831652 40.197871227524914  2.093291870421549 39.55495834753273  1.2580371549707579 38.47010739083821  C 0.48744228574608783 37.48269807230724  0.20807891473775086 36.19826872592134  0.498937376218322 34.97999331773878  C 2.3125306966454175 27.874286159216652  8.71282871150418 22.902362174130054  16.046326850494218 22.902362174130054  C 17.674328346759978 22.902362174130054  19.292849398966517 23.150118701446043  20.84630234307992 23.637122625730996  C 25.188070944336765 24.972743426513475  28.733216327044545 28.13247768746919  30.557544697855747 32.292605510721245  C 33.78946181718811 39.39975622151299  31.404699852052573 47.80179683581608  24.921010499025336 52.151354499025345  L 24.84248290740741 52.20370619980507  C 20.94228044639376 54.42865391812865  19.991224378167644 56.02538106920079  19.991224379142295 60.335671917154  C 19.990100056459497 61.52878668625998  19.512682292764346 62.672076584546204  18.66498102826511 63.51167570467837  Z M 6.344878458089667 36.37603896296296  C 7.959056201754386 31.708011426900583  11.73710466666666 28.697788038011694  15.986318517543864 28.697788038011687  C 21.61267315325282 28.70748399351671  26.16859935592101 33.27126823631682  26.16859935592101 38.897631226590086  C 26.16859935592101 42.20096109912507  24.568853574400784 45.29975293475186  21.87588600389863 47.21284308187135  L 21.788633115009745 47.265194782651065  C 15.61113123586744 50.75530885380116  13.211677821637423 54.734038905458085  13.761370799220266 60.4840018031189  C 13.834309011131474 61.39286577369951  14.594646521955333 62.09237627195361  15.506427834307985 62.089454248538004  L 15.65475764035088 62.089454248538004  C 16.089354849239555 62.086925258028494  16.505771295840084 61.914722972340954  16.815220591617937 61.60956356627682  C 17.162836652208405 61.262879378002935  17.357585143970603 60.791713680027016  17.356188272904483 60.30077081091617  C 17.356188272904483 55.10922618810916  18.848212022417158 52.57889348148148  23.463887856725144 49.9264067797271  C 28.872380306125223 46.27174717334167  30.855790412739417 39.24870583937543  28.15809128460039 33.30473857602339  C 26.631129973251845 29.87404252642701  23.68911772589766 27.27590183118604  20.09592777972709 26.184905845029242  C 18.777118007109955 25.763473029196675  17.40096941511218 25.548938876557063  16.016460536624564 25.548938876557063  C 9.902175532917227 25.548938876557063  4.563032552751128 29.687171439097952  3.0379953781676363 35.60821380701755  C 2.929146655893124 36.05174584883611  3.035859700415479 36.520636527623424  3.3259297719298218 36.87338015984406  C 3.665439304764771 37.31593423406039  4.190379128098961 37.5767939282841  4.748151226120854 37.58012831871345  C 5.480400176792028 37.55378912494541  6.1182080407311545 37.07281927323436  6.344878458089667 36.37603896296296  Z M 20.087202564327484 70.14289245516568  C 20.082421127148407 72.68185506073401  18.027926219854685 74.74024840956649  15.488977240740738 74.7498429951267  C 15.486068838867432 74.74984850342943  15.483160432438005 74.74985125758265  15.480252025348541 74.74985125758265  C 12.935903499441622 74.74985125758265  10.87330148636218 72.68724924450322  10.87330148636218 70.1429007185963  C 10.87330148636218 67.59855219268938  12.935903499441622 65.53595017960994  15.480252025348541 65.53595017960994  C 18.024600551255453 65.53595017960994  20.087202564334888 67.59855219268938  20.087202564334888 70.1429007185963  Z M 17.469616970760228 70.14289245516568  C 17.46483837643158 69.05100082157298  16.580868874338144 68.16703132034954  15.488977240740738 68.16225272709552  C 15.486075176695486 68.16224002639954  15.483173088331434 68.16223367602875  15.480270996494433 68.16223367602875  C 14.381575031151783 68.16223367602875  13.49090597115331 69.05290273602722  13.49090597115331 70.15159870136988  C 13.49090597115331 71.25029466671253  14.381575031151783 72.140963726711  15.480270996494433 72.140963726711  C 16.578966961837097 72.140963726711  17.46963602183557 71.25029466671253  17.46963602183557 70.15159870136988  C 17.46963602183557 70.14869660887888  17.469629671461924 70.1457945198649  17.469616970760228 70.14289245516568  Z " fill-rule="nonzero" fill="url(#LinearGradient702)" stroke="none" transform="matrix(1 0 0 1 156 264 )" class="fill" />
    <path d="M 50.98343725730993 82.73347890838207  C 50.739331915211324 82.98064233196999  50.40593933159188 83.1190317122687  50.05855699805069 83.11739148538013  C 49.6985594193049 83.13192032541612  49.34944362995249 82.99227399811754  49.09877563255361 82.7334789074074  C 48.851525435130526 82.48922861713537  48.71236674244429 82.15614849044145  48.71236674244429 81.80859868908382  C 48.71236674244429 81.4610488877262  48.85152543513051 81.12796876103225  49.09877563255361 80.88371847076023  L 62 67.40315294736841  L 62 2.1903717027290472  C 62.61424234334906 1.4675454226372278  63.2002088198107 0.8815789463937609  63.923035099902535 0.8815789463937609  C 64.64586138018466 0.8815789463937609  65.23182785672515 1.4675454229342435  65.23182785672515 2.1903717032163765  C 65.23182785672515 2.1903717032163765  65.23182785672515 2.190371703703706  65 2.190371703703706  L 65 67.94412062768029  C 65.23152238272125 68.29111708116835  65.09343174427882 68.62379000699674  64.8479153576998 68.86900080604288  L 50.98343725730993 82.73347890838207  Z " stroke-width="0" stroke-dasharray="0" stroke="rgba(255, 255, 255, 0)" fill="none" transform="matrix(1 0 0 1 156 264 )" class="stroke" mask="url(#Clip706)" />
    <path d="M 18.66498102826511 63.51167570467837  C 17.856937169714378 64.29562123153981  16.77179671763718 64.72842292446255  15.646032423001948 64.71576505945418  L 15.427900243664716 64.71576505945417  C 13.200710826785382 64.67576649855019  11.361356051107563 62.964301453495175  11.161235799220279 60.745760385964914  C 10.498114123781676 53.922587425925926  13.368732924951267 49.07132889668617  20.44493925146199 45.04024706432749  C 22.401264125688733 43.612837111870206  23.558061389174156 41.33680520013358  23.558061389174156 38.91508965410173  C 23.558061389174156 34.731627617654965  20.169776520742744 31.33863396599196  15.986318518518516 31.332824145224166  C 12.208270053606235 31.332824145224166  9.826267232943465 34.38667393762183  8.84903527290448 37.23984214327484  C 8.257021069747829 39.00508631628103  6.609962244809495 40.20008007010695  4.748151226120854 40.215164424951254  C 3.3791176314831652 40.197871227524914  2.093291870421549 39.55495834753273  1.2580371549707579 38.47010739083821  C 0.48744228574608783 37.48269807230724  0.20807891473775086 36.19826872592134  0.498937376218322 34.97999331773878  C 2.3125306966454175 27.874286159216652  8.71282871150418 22.902362174130054  16.046326850494218 22.902362174130054  C 17.674328346759978 22.902362174130054  19.292849398966517 23.150118701446043  20.84630234307992 23.637122625730996  C 25.188070944336765 24.972743426513475  28.733216327044545 28.13247768746919  30.557544697855747 32.292605510721245  C 33.78946181718811 39.39975622151299  31.404699852052573 47.80179683581608  24.921010499025336 52.151354499025345  L 24.84248290740741 52.20370619980507  C 20.94228044639376 54.42865391812865  19.991224378167644 56.02538106920079  19.991224379142295 60.335671917154  C 19.990100056459497 61.52878668625998  19.512682292764346 62.672076584546204  18.66498102826511 63.51167570467837  Z " stroke-width="0" stroke-dasharray="0" stroke="rgba(255, 255, 255, 0)" fill="none" transform="matrix(1 0 0 1 156 264 )" class="stroke" mask="url(#Clip706)" />
    <path d="M 6.344878458089667 36.37603896296296  C 7.959056201754386 31.708011426900583  11.73710466666666 28.697788038011694  15.986318517543864 28.697788038011687  C 21.61267315325282 28.70748399351671  26.16859935592101 33.27126823631682  26.16859935592101 38.897631226590086  C 26.16859935592101 42.20096109912507  24.568853574400784 45.29975293475186  21.87588600389863 47.21284308187135  L 21.788633115009745 47.265194782651065  C 15.61113123586744 50.75530885380116  13.211677821637423 54.734038905458085  13.761370799220266 60.4840018031189  C 13.834309011131474 61.39286577369951  14.594646521955333 62.09237627195361  15.506427834307985 62.089454248538004  L 15.65475764035088 62.089454248538004  C 16.089354849239555 62.086925258028494  16.505771295840084 61.914722972340954  16.815220591617937 61.60956356627682  C 17.162836652208405 61.262879378002935  17.357585143970603 60.791713680027016  17.356188272904483 60.30077081091617  C 17.356188272904483 55.10922618810916  18.848212022417158 52.57889348148148  23.463887856725144 49.9264067797271  C 28.872380306125223 46.27174717334167  30.855790412739417 39.24870583937543  28.15809128460039 33.30473857602339  C 26.631129973251845 29.87404252642701  23.68911772589766 27.27590183118604  20.09592777972709 26.184905845029242  C 18.777118007109955 25.763473029196675  17.40096941511218 25.548938876557063  16.016460536624564 25.548938876557063  C 9.902175532917227 25.548938876557063  4.563032552751128 29.687171439097952  3.0379953781676363 35.60821380701755  C 2.929146655893124 36.05174584883611  3.035859700415479 36.520636527623424  3.3259297719298218 36.87338015984406  C 3.665439304764771 37.31593423406039  4.190379128098961 37.5767939282841  4.748151226120854 37.58012831871345  C 5.480400176792028 37.55378912494541  6.1182080407311545 37.07281927323436  6.344878458089667 36.37603896296296  Z " stroke-width="0" stroke-dasharray="0" stroke="rgba(255, 255, 255, 0)" fill="none" transform="matrix(1 0 0 1 156 264 )" class="stroke" mask="url(#Clip706)" />
    <path d="M 20.087202564327484 70.14289245516568  C 20.082421127148407 72.68185506073401  18.027926219854685 74.74024840956649  15.488977240740738 74.7498429951267  C 15.486068838867432 74.74984850342943  15.483160432438005 74.74985125758265  15.480252025348541 74.74985125758265  C 12.935903499441622 74.74985125758265  10.87330148636218 72.68724924450322  10.87330148636218 70.1429007185963  C 10.87330148636218 67.59855219268938  12.935903499441622 65.53595017960994  15.480252025348541 65.53595017960994  C 18.024600551255453 65.53595017960994  20.087202564334888 67.59855219268938  20.087202564334888 70.1429007185963  Z " stroke-width="0" stroke-dasharray="0" stroke="rgba(255, 255, 255, 0)" fill="none" transform="matrix(1 0 0 1 156 264 )" class="stroke" mask="url(#Clip706)" />
    <path d="M 17.469616970760228 70.14289245516568  C 17.46483837643158 69.05100082157298  16.580868874338144 68.16703132034954  15.488977240740738 68.16225272709552  C 15.486075176695486 68.16224002639954  15.483173088331434 68.16223367602875  15.480270996494433 68.16223367602875  C 14.381575031151783 68.16223367602875  13.49090597115331 69.05290273602722  13.49090597115331 70.15159870136988  C 13.49090597115331 71.25029466671253  14.381575031151783 72.140963726711  15.480270996494433 72.140963726711  C 16.578966961837097 72.140963726711  17.46963602183557 71.25029466671253  17.46963602183557 70.15159870136988  C 17.46963602183557 70.14869660887888  17.469629671461924 70.1457945198649  17.469616970760228 70.14289245516568  Z " stroke-width="0" stroke-dasharray="0" stroke="rgba(255, 255, 255, 0)" fill="none" transform="matrix(1 0 0 1 156 264 )" class="stroke" mask="url(#Clip706)" />
  </g>
</svg>