<?xml version="1.0" encoding="utf-8"?>
<svg version="1.1" xmlns:xlink="http://www.w3.org/1999/xlink" width="13px" height="13px" viewBox="460 544 13 13" xmlns="http://www.w3.org/2000/svg">
  <path d="M 460 549  A 5 5 0 0 1 465 544 L 468 544  A 5 5 0 0 1 473 549 L 473 552  A 5 5 0 0 1 468 557 L 465 557  A 5 5 0 0 1 460 552 L 460 549  Z " fill-rule="nonzero" fill="rgba(240, 240, 240, 1)" stroke="none" class="fill" />
  <path d="M 460.5 549  A 4.5 4.5 0 0 1 465 544.5 L 468 544.5  A 4.5 4.5 0 0 1 472.5 549 L 472.5 552  A 4.5 4.5 0 0 1 468 556.5 L 465 556.5  A 4.5 4.5 0 0 1 460.5 552 L 460.5 549  Z " stroke-width="1" stroke-dasharray="0" stroke="rgba(121, 121, 121, 1)" fill="none" class="stroke" stroke-dashoffset="0.5" />
  <path d="M 462.7857142857143 550.5  L 465.57142857142856 553.2857142857142  L 470.2142857142857 546.7857142857143  " stroke-width="2.7857142857142856" stroke-dasharray="0" stroke="rgba(121, 121, 121, 1)" fill="none" class="stroke btn_check" />
</svg>