<?xml version="1.0" encoding="utf-8"?>
<svg version="1.1" xmlns:xlink="http://www.w3.org/1999/xlink" width="70px" height="70px" xmlns="http://www.w3.org/2000/svg">
  <defs>
    <linearGradient gradientUnits="userSpaceOnUse" x1="70" y1="0" x2="0" y2="70" id="LinearGradient8634">
      <stop id="Stop8635" stop-color="#d7b685" offset="0" />
      <stop id="Stop8636" stop-color="#fae4c5" offset="0.53" />
      <stop id="Stop8637" stop-color="#e4c79f" offset="1" />
    </linearGradient>
    <pattern id="BGPattern" patternUnits="userSpaceOnUse" alignment="0 0" imageRepeat="None" />
    <mask fill="white" id="Clip8638">
      <path d="M 68.05855699902534 69.11739148538011  C 68.05855699902534 69.11739148538011  68.05855699805066 69.11739148538011  68.05855699805068 69  L 2.095401270955165 69  C 1.3725749913228071 69.11739148484182  0.7866085155945406 68.53142500867719  1 67.80859872904483  L 1 1.8541682992202695  C 0.7866085155945406 1.854168274144751  0.7866085155945388 1.854168243399112  0.7866085155945388 1.85416821832359  C 0.7866085155945388 1.1313419383106051  1.372574991916835 0.5453754619883071  2.0954012719298216 0.5453754619883071  C 2.0954054344786215 0.5453754619883071  2.095397108406365 0.5453754619883071  2.095401270955165 1  L 68.05855699805066 1  C 68.05856116055975 0.5453754619882965  68.05855283651626 0.5453754619883071  68.05855699902534 0.5453754619883071  C 68.78138327903832 0.5453754619883071  69.36734975536062 1.1313419383106051  69.36734975536062 1.85416821832359  C 69.36734975536062 1.85416821832359  69.36734975536062 1.8541682992202695  69 1.854168299220273  L 69 67.80859872904483  C 69.36734975536062 67.80859872904483  69.36734975536062 67.80859872904483  69.36734975536062 67.80859872904483  C 69.36734975536062 68.53142500905781  68.78138327903832 69.11739148538011  68.05855699902534 69.11739148538011  Z M 4 4  L 4 66  L 66 66  L 66 4  L 4 4  Z " fill-rule="evenodd" />
    </mask>
  </defs>
  <g transform="matrix(1 0 0 1 -138 -278 )">
    <path d="M 68.05855699902534 69.11739148538011  C 68.05855699902534 69.11739148538011  68.05855699805066 69.11739148538011  68.05855699805068 69  L 2.095401270955165 69  C 1.3725749913228071 69.11739148484182  0.7866085155945406 68.53142500867719  1 67.80859872904483  L 1 1.8541682992202695  C 0.7866085155945406 1.854168274144751  0.7866085155945388 1.854168243399112  0.7866085155945388 1.85416821832359  C 0.7866085155945388 1.1313419383106051  1.372574991916835 0.5453754619883071  2.0954012719298216 0.5453754619883071  C 2.0954054344786215 0.5453754619883071  2.095397108406365 0.5453754619883071  2.095401270955165 1  L 68.05855699805066 1  C 68.05856116055975 0.5453754619882965  68.05855283651626 0.5453754619883071  68.05855699902534 0.5453754619883071  C 68.78138327903832 0.5453754619883071  69.36734975536062 1.1313419383106051  69.36734975536062 1.85416821832359  C 69.36734975536062 1.85416821832359  69.36734975536062 1.8541682992202695  69 1.854168299220273  L 69 67.80859872904483  C 69.36734975536062 67.80859872904483  69.36734975536062 67.80859872904483  69.36734975536062 67.80859872904483  C 69.36734975536062 68.53142500905781  68.78138327903832 69.11739148538011  68.05855699902534 69.11739148538011  Z M 4 4  L 4 66  L 66 66  L 66 4  L 4 4  Z " fill-rule="nonzero" fill="url(#LinearGradient8634)" stroke="none" transform="matrix(1 0 0 1 138 278 )" class="fill" />
    <path d="M 68.05855699902534 69.11739148538011  C 68.05855699902534 69.11739148538011  68.05855699805066 69.11739148538011  68.05855699805068 69  L 2.095401270955165 69  C 1.3725749913228071 69.11739148484182  0.7866085155945406 68.53142500867719  1 67.80859872904483  L 1 1.8541682992202695  C 0.7866085155945406 1.854168274144751  0.7866085155945388 1.854168243399112  0.7866085155945388 1.85416821832359  C 0.7866085155945388 1.1313419383106051  1.372574991916835 0.5453754619883071  2.0954012719298216 0.5453754619883071  C 2.0954054344786215 0.5453754619883071  2.095397108406365 0.5453754619883071  2.095401270955165 1  L 68.05855699805066 1  C 68.05856116055975 0.5453754619882965  68.05855283651626 0.5453754619883071  68.05855699902534 0.5453754619883071  C 68.78138327903832 0.5453754619883071  69.36734975536062 1.1313419383106051  69.36734975536062 1.85416821832359  C 69.36734975536062 1.85416821832359  69.36734975536062 1.8541682992202695  69 1.854168299220273  L 69 67.80859872904483  C 69.36734975536062 67.80859872904483  69.36734975536062 67.80859872904483  69.36734975536062 67.80859872904483  C 69.36734975536062 68.53142500905781  68.78138327903832 69.11739148538011  68.05855699902534 69.11739148538011  Z " stroke-width="0" stroke-dasharray="0" stroke="rgba(255, 255, 255, 0)" fill="none" transform="matrix(1 0 0 1 138 278 )" class="stroke" mask="url(#Clip8638)" />
    <path d="M 4 4  L 4 66  L 66 66  L 66 4  L 4 4  Z " stroke-width="0" stroke-dasharray="0" stroke="rgba(255, 255, 255, 0)" fill="none" transform="matrix(1 0 0 1 138 278 )" class="stroke" mask="url(#Clip8638)" />
  </g>
</svg>