<?xml version="1.0" encoding="utf-8"?>
<svg version="1.1" xmlns:xlink="http://www.w3.org/1999/xlink" width="14px" height="14px" xmlns="http://www.w3.org/2000/svg">
  <defs>
    <pattern id="BGPattern" patternUnits="userSpaceOnUse" alignment="0 0" imageRepeat="None" />
    <mask fill="white" id="Clip8667">
      <path d="M 13.480958376953126 7.1235605078125  L 8.170226529296876 7.1235605078125  L 8.170226529296876 6.292911906249999  L 13.065634076171875 6.292911906249999  L 13.065634076171875 5.286166509765624  C 13.065634076171875 4.870842208984375  12.72673571875 4.531943851562501  12.31141141796875 4.531943851562501  L 1.6758683476562497 4.531943851562501  C 1.2605440468749998 4.531943851562501  0.9216456894531249 4.870859628906251  0.9216456894531249 5.286166509765624  L 0.9216456894531249 6.292911906249999  L 8.170226529296876 6.292911906249999  L 8.170226529296876 7.1235605078125  L 0.5063213886718749 7.1235605078125  C 0.27706097851562494 7.1235605078125  0.09099708789062504 6.9374966171875005  0.09099708789062504 6.70823620703125  L 0.09099708789062504 5.286183929687501  C 0.09099708789062504 4.412356246093749  0.8020232265625001 3.7013126874999998  1.6758683476562497 3.7013126874999998  L 12.31141141796875 3.7013126874999998  C 13.185239101562502 3.7013126874999998  13.89628266015625 4.412338826171875  13.896282677734376 5.286183929687501  L 13.896282677734376 6.70823620703125  C 13.896282677734376 6.9374966171875005  13.710218787109376 7.1235605078125  13.480958376953126 7.1235605078125  Z M 10.248102619140624 13.906580839843748  L 3.7391771464843755 13.906580839843748  C 2.5380735683593754 13.906580839843748  1.561229423828126 12.9297366953125  1.561229423828126 11.728633099609374  L 1.561229423828126 6.9539283671875  C 1.561229423828126 6.72466795703125  2.391878025390626 6.72466795703125  2.391878025390626 6.9539283671875  L 2.391878025390626 11.726977732421874  C 2.391878025390626 12.469577927734376  2.996576968750001 13.074276853515624  3.7391771464843755 13.074276871093751  L 10.248085181640624 13.074276871093751  C 10.990685376953124 13.074276871093751  11.595384302734374 12.469560507812501  11.595384320312498 11.726977732421874  L 11.595384320312498 6.70823620703125  C 11.595384320312498 6.478975796875  12.426032921875 6.478975796875  12.426032921875 6.70823620703125  L 12.426032921875 11.726977732421874  C 12.426050341796874 12.928081310546876  11.449206197265624 13.906580822265624  10.248102619140624 13.906580839843748  Z M 7.09367667578125 4.311012589843751  C 7.02225169140625 4.4472236171875  6.8810396874999995 4.530288484374999  6.728205220703125 4.530288484374999  L 4.041901251953124 4.530288484374999  C 3.9521974785156253 4.530288484374999  3.8641490722656244 4.5003872324218746  3.7927066855468743 4.4472236171875  C 3.6347795736904573 4.328928412423391  3.485444347495977 4.199577531774798  3.345825748046875 4.060145201171875  C 2.8208634999999993 3.5351829531249996  2.4603581816406246 2.9022207050781246  2.329113255859375 2.27593223828125  C 2.184573080078125 1.5864956406250001  2.3307686230468745 0.9817967148437501  2.739454017578125 0.5731113203125001  C 3.1481393945312504 0.16442594335937527  3.7528383378906245 0.01824782031250045  4.442274935546875 0.16277057617187546  C 5.06858083984375 0.29401550195312504  5.701525667968751 0.6545034003906253  6.2264878984375 1.1794830507812502  C 7.20165923828125 2.154654390625  7.558836402343751 3.4421510078125004  7.09367667578125 4.311012589843751  Z M 3.935574056640625 3.472052277343749  C 4.011999999999999 3.553444339843749  4.096720234374999 3.628214916015624  4.184768640625 3.699639882812499  L 6.442453041015625 3.699639882812499  C 6.562058066406251 3.1580716328125  6.248077439453125 2.3756030898437492  5.640050341796875 1.7675585722656244  C 5.23469313671875 1.3622013671874997  4.736303968750001 1.0748112402343746  4.274472414062501 0.9767783183593741  C 4.04022846484375 0.9269428925781246  3.6049699902343755 0.8870745449218741  3.329202326171875 1.161186841796874  C 3.053434662109375 1.4369545058593742  3.0949583769531253 1.872212980468749  3.1447938027343754 2.106456929687499  C 3.2411539199218753 2.5682884843749996  3.5302168339843747 3.066677652343749  3.935574056640625 3.472052277343749  Z M 10.032904164062499 4.447206197265625  C 9.961479179687498 4.502042599609375  9.873430791015624 4.530288484374999  9.783709580078126 4.530288484374999  L 7.09742303125 4.530288484374999  C 6.944588564453124 4.530288484374999  6.803376560546875 4.44556825  6.731934173828123 4.31099515234375  C 6.2667744472656235 3.443806375  6.623951593749998 2.1563097753906253  7.599122951171876 1.179465630859375  C 8.12408519921875 0.6545033828125004  8.757047447265624 0.2939980644531254  9.3833359140625 0.1627531386718754  C 10.07277251171875 0.01821296289062531  10.6774714375 0.16440850585937525  11.08615683203125 0.5731113203125001  C 11.494842208984375 0.9817792773437499  11.64102033203125 1.5864782207031254  11.496497576171876 2.275914818359375  C 11.365252650390623 2.90222072265625  11.004764751953124 3.5351655507812514  10.479785083984375 4.060127781249999  C 10.34016258132073 4.199555909144649  10.190827668534762 4.3289065234137265  10.032904164062499 4.447206197265625  Z M 8.134923519531252 1.769231359375  C 7.525258474609377 2.375620509765625  7.211260410156253 3.1580716328125  7.3308828730468765 3.699639882812499  L 9.588567273437501 3.699639882812499  C 9.6766156796875 3.6281974785156246  9.761335914062501 3.551788955078125  9.839417224609374 3.4737076445312502  C 10.244774429687503 3.0683504394531256  10.532164556640623 2.5699612714843747  10.630180058593751 2.108129716796875  C 10.680015484375001 1.8738857675781246  10.71988383203125 1.43862729296875  10.445771535156249 1.16285962890625  C 10.170003871093748 0.8870919648437496  9.734745396484374 0.9286156796875003  9.500501447265625 0.97845110546875  C 9.038669892578124 1.0748112226562503  8.540280724609376 1.36389157421875  8.134923519531252 1.769231359375  Z " fill-rule="evenodd" />
    </mask>
  </defs>
  <g transform="matrix(1 0 0 1 -380 -4297 )">
    <path d="M 13.480958376953126 7.1235605078125  L 8.170226529296876 7.1235605078125  L 8.170226529296876 6.292911906249999  L 13.065634076171875 6.292911906249999  L 13.065634076171875 5.286166509765624  C 13.065634076171875 4.870842208984375  12.72673571875 4.531943851562501  12.31141141796875 4.531943851562501  L 1.6758683476562497 4.531943851562501  C 1.2605440468749998 4.531943851562501  0.9216456894531249 4.870859628906251  0.9216456894531249 5.286166509765624  L 0.9216456894531249 6.292911906249999  L 8.170226529296876 6.292911906249999  L 8.170226529296876 7.1235605078125  L 0.5063213886718749 7.1235605078125  C 0.27706097851562494 7.1235605078125  0.09099708789062504 6.9374966171875005  0.09099708789062504 6.70823620703125  L 0.09099708789062504 5.286183929687501  C 0.09099708789062504 4.412356246093749  0.8020232265625001 3.7013126874999998  1.6758683476562497 3.7013126874999998  L 12.31141141796875 3.7013126874999998  C 13.185239101562502 3.7013126874999998  13.89628266015625 4.412338826171875  13.896282677734376 5.286183929687501  L 13.896282677734376 6.70823620703125  C 13.896282677734376 6.9374966171875005  13.710218787109376 7.1235605078125  13.480958376953126 7.1235605078125  Z M 10.248102619140624 13.906580839843748  L 3.7391771464843755 13.906580839843748  C 2.5380735683593754 13.906580839843748  1.561229423828126 12.9297366953125  1.561229423828126 11.728633099609374  L 1.561229423828126 6.9539283671875  C 1.561229423828126 6.72466795703125  2.391878025390626 6.72466795703125  2.391878025390626 6.9539283671875  L 2.391878025390626 11.726977732421874  C 2.391878025390626 12.469577927734376  2.996576968750001 13.074276853515624  3.7391771464843755 13.074276871093751  L 10.248085181640624 13.074276871093751  C 10.990685376953124 13.074276871093751  11.595384302734374 12.469560507812501  11.595384320312498 11.726977732421874  L 11.595384320312498 6.70823620703125  C 11.595384320312498 6.478975796875  12.426032921875 6.478975796875  12.426032921875 6.70823620703125  L 12.426032921875 11.726977732421874  C 12.426050341796874 12.928081310546876  11.449206197265624 13.906580822265624  10.248102619140624 13.906580839843748  Z M 7.09367667578125 4.311012589843751  C 7.02225169140625 4.4472236171875  6.8810396874999995 4.530288484374999  6.728205220703125 4.530288484374999  L 4.041901251953124 4.530288484374999  C 3.9521974785156253 4.530288484374999  3.8641490722656244 4.5003872324218746  3.7927066855468743 4.4472236171875  C 3.6347795736904573 4.328928412423391  3.485444347495977 4.199577531774798  3.345825748046875 4.060145201171875  C 2.8208634999999993 3.5351829531249996  2.4603581816406246 2.9022207050781246  2.329113255859375 2.27593223828125  C 2.184573080078125 1.5864956406250001  2.3307686230468745 0.9817967148437501  2.739454017578125 0.5731113203125001  C 3.1481393945312504 0.16442594335937527  3.7528383378906245 0.01824782031250045  4.442274935546875 0.16277057617187546  C 5.06858083984375 0.29401550195312504  5.701525667968751 0.6545034003906253  6.2264878984375 1.1794830507812502  C 7.20165923828125 2.154654390625  7.558836402343751 3.4421510078125004  7.09367667578125 4.311012589843751  Z M 3.935574056640625 3.472052277343749  C 4.011999999999999 3.553444339843749  4.096720234374999 3.628214916015624  4.184768640625 3.699639882812499  L 6.442453041015625 3.699639882812499  C 6.562058066406251 3.1580716328125  6.248077439453125 2.3756030898437492  5.640050341796875 1.7675585722656244  C 5.23469313671875 1.3622013671874997  4.736303968750001 1.0748112402343746  4.274472414062501 0.9767783183593741  C 4.04022846484375 0.9269428925781246  3.6049699902343755 0.8870745449218741  3.329202326171875 1.161186841796874  C 3.053434662109375 1.4369545058593742  3.0949583769531253 1.872212980468749  3.1447938027343754 2.106456929687499  C 3.2411539199218753 2.5682884843749996  3.5302168339843747 3.066677652343749  3.935574056640625 3.472052277343749  Z M 10.032904164062499 4.447206197265625  C 9.961479179687498 4.502042599609375  9.873430791015624 4.530288484374999  9.783709580078126 4.530288484374999  L 7.09742303125 4.530288484374999  C 6.944588564453124 4.530288484374999  6.803376560546875 4.44556825  6.731934173828123 4.31099515234375  C 6.2667744472656235 3.443806375  6.623951593749998 2.1563097753906253  7.599122951171876 1.179465630859375  C 8.12408519921875 0.6545033828125004  8.757047447265624 0.2939980644531254  9.3833359140625 0.1627531386718754  C 10.07277251171875 0.01821296289062531  10.6774714375 0.16440850585937525  11.08615683203125 0.5731113203125001  C 11.494842208984375 0.9817792773437499  11.64102033203125 1.5864782207031254  11.496497576171876 2.275914818359375  C 11.365252650390623 2.90222072265625  11.004764751953124 3.5351655507812514  10.479785083984375 4.060127781249999  C 10.34016258132073 4.199555909144649  10.190827668534762 4.3289065234137265  10.032904164062499 4.447206197265625  Z M 8.134923519531252 1.769231359375  C 7.525258474609377 2.375620509765625  7.211260410156253 3.1580716328125  7.3308828730468765 3.699639882812499  L 9.588567273437501 3.699639882812499  C 9.6766156796875 3.6281974785156246  9.761335914062501 3.551788955078125  9.839417224609374 3.4737076445312502  C 10.244774429687503 3.0683504394531256  10.532164556640623 2.5699612714843747  10.630180058593751 2.108129716796875  C 10.680015484375001 1.8738857675781246  10.71988383203125 1.43862729296875  10.445771535156249 1.16285962890625  C 10.170003871093748 0.8870919648437496  9.734745396484374 0.9286156796875003  9.500501447265625 0.97845110546875  C 9.038669892578124 1.0748112226562503  8.540280724609376 1.36389157421875  8.134923519531252 1.769231359375  Z " fill-rule="nonzero" fill="rgba(222, 190, 143, 1)" stroke="none" transform="matrix(1 0 0 1 380 4297 )" class="fill" />
    <path d="M 13.480958376953126 7.1235605078125  L 8.170226529296876 7.1235605078125  L 8.170226529296876 6.292911906249999  L 13.065634076171875 6.292911906249999  L 13.065634076171875 5.286166509765624  C 13.065634076171875 4.870842208984375  12.72673571875 4.531943851562501  12.31141141796875 4.531943851562501  L 1.6758683476562497 4.531943851562501  C 1.2605440468749998 4.531943851562501  0.9216456894531249 4.870859628906251  0.9216456894531249 5.286166509765624  L 0.9216456894531249 6.292911906249999  L 8.170226529296876 6.292911906249999  L 8.170226529296876 7.1235605078125  L 0.5063213886718749 7.1235605078125  C 0.27706097851562494 7.1235605078125  0.09099708789062504 6.9374966171875005  0.09099708789062504 6.70823620703125  L 0.09099708789062504 5.286183929687501  C 0.09099708789062504 4.412356246093749  0.8020232265625001 3.7013126874999998  1.6758683476562497 3.7013126874999998  L 12.31141141796875 3.7013126874999998  C 13.185239101562502 3.7013126874999998  13.89628266015625 4.412338826171875  13.896282677734376 5.286183929687501  L 13.896282677734376 6.70823620703125  C 13.896282677734376 6.9374966171875005  13.710218787109376 7.1235605078125  13.480958376953126 7.1235605078125  Z " stroke-width="0" stroke-dasharray="0" stroke="rgba(255, 255, 255, 0)" fill="none" transform="matrix(1 0 0 1 380 4297 )" class="stroke" mask="url(#Clip8667)" />
    <path d="M 10.248102619140624 13.906580839843748  L 3.7391771464843755 13.906580839843748  C 2.5380735683593754 13.906580839843748  1.561229423828126 12.9297366953125  1.561229423828126 11.728633099609374  L 1.561229423828126 6.9539283671875  C 1.561229423828126 6.72466795703125  2.391878025390626 6.72466795703125  2.391878025390626 6.9539283671875  L 2.391878025390626 11.726977732421874  C 2.391878025390626 12.469577927734376  2.996576968750001 13.074276853515624  3.7391771464843755 13.074276871093751  L 10.248085181640624 13.074276871093751  C 10.990685376953124 13.074276871093751  11.595384302734374 12.469560507812501  11.595384320312498 11.726977732421874  L 11.595384320312498 6.70823620703125  C 11.595384320312498 6.478975796875  12.426032921875 6.478975796875  12.426032921875 6.70823620703125  L 12.426032921875 11.726977732421874  C 12.426050341796874 12.928081310546876  11.449206197265624 13.906580822265624  10.248102619140624 13.906580839843748  Z " stroke-width="0" stroke-dasharray="0" stroke="rgba(255, 255, 255, 0)" fill="none" transform="matrix(1 0 0 1 380 4297 )" class="stroke" mask="url(#Clip8667)" />
    <path d="M 7.09367667578125 4.311012589843751  C 7.02225169140625 4.4472236171875  6.8810396874999995 4.530288484374999  6.728205220703125 4.530288484374999  L 4.041901251953124 4.530288484374999  C 3.9521974785156253 4.530288484374999  3.8641490722656244 4.5003872324218746  3.7927066855468743 4.4472236171875  C 3.6347795736904573 4.328928412423391  3.485444347495977 4.199577531774798  3.345825748046875 4.060145201171875  C 2.8208634999999993 3.5351829531249996  2.4603581816406246 2.9022207050781246  2.329113255859375 2.27593223828125  C 2.184573080078125 1.5864956406250001  2.3307686230468745 0.9817967148437501  2.739454017578125 0.5731113203125001  C 3.1481393945312504 0.16442594335937527  3.7528383378906245 0.01824782031250045  4.442274935546875 0.16277057617187546  C 5.06858083984375 0.29401550195312504  5.701525667968751 0.6545034003906253  6.2264878984375 1.1794830507812502  C 7.20165923828125 2.154654390625  7.558836402343751 3.4421510078125004  7.09367667578125 4.311012589843751  Z " stroke-width="0" stroke-dasharray="0" stroke="rgba(255, 255, 255, 0)" fill="none" transform="matrix(1 0 0 1 380 4297 )" class="stroke" mask="url(#Clip8667)" />
    <path d="M 3.935574056640625 3.472052277343749  C 4.011999999999999 3.553444339843749  4.096720234374999 3.628214916015624  4.184768640625 3.699639882812499  L 6.442453041015625 3.699639882812499  C 6.562058066406251 3.1580716328125  6.248077439453125 2.3756030898437492  5.640050341796875 1.7675585722656244  C 5.23469313671875 1.3622013671874997  4.736303968750001 1.0748112402343746  4.274472414062501 0.9767783183593741  C 4.04022846484375 0.9269428925781246  3.6049699902343755 0.8870745449218741  3.329202326171875 1.161186841796874  C 3.053434662109375 1.4369545058593742  3.0949583769531253 1.872212980468749  3.1447938027343754 2.106456929687499  C 3.2411539199218753 2.5682884843749996  3.5302168339843747 3.066677652343749  3.935574056640625 3.472052277343749  Z " stroke-width="0" stroke-dasharray="0" stroke="rgba(255, 255, 255, 0)" fill="none" transform="matrix(1 0 0 1 380 4297 )" class="stroke" mask="url(#Clip8667)" />
    <path d="M 10.032904164062499 4.447206197265625  C 9.961479179687498 4.502042599609375  9.873430791015624 4.530288484374999  9.783709580078126 4.530288484374999  L 7.09742303125 4.530288484374999  C 6.944588564453124 4.530288484374999  6.803376560546875 4.44556825  6.731934173828123 4.31099515234375  C 6.2667744472656235 3.443806375  6.623951593749998 2.1563097753906253  7.599122951171876 1.179465630859375  C 8.12408519921875 0.6545033828125004  8.757047447265624 0.2939980644531254  9.3833359140625 0.1627531386718754  C 10.07277251171875 0.01821296289062531  10.6774714375 0.16440850585937525  11.08615683203125 0.5731113203125001  C 11.494842208984375 0.9817792773437499  11.64102033203125 1.5864782207031254  11.496497576171876 2.275914818359375  C 11.365252650390623 2.90222072265625  11.004764751953124 3.5351655507812514  10.479785083984375 4.060127781249999  C 10.34016258132073 4.199555909144649  10.190827668534762 4.3289065234137265  10.032904164062499 4.447206197265625  Z " stroke-width="0" stroke-dasharray="0" stroke="rgba(255, 255, 255, 0)" fill="none" transform="matrix(1 0 0 1 380 4297 )" class="stroke" mask="url(#Clip8667)" />
    <path d="M 8.134923519531252 1.769231359375  C 7.525258474609377 2.375620509765625  7.211260410156253 3.1580716328125  7.3308828730468765 3.699639882812499  L 9.588567273437501 3.699639882812499  C 9.6766156796875 3.6281974785156246  9.761335914062501 3.551788955078125  9.839417224609374 3.4737076445312502  C 10.244774429687503 3.0683504394531256  10.532164556640623 2.5699612714843747  10.630180058593751 2.108129716796875  C 10.680015484375001 1.8738857675781246  10.71988383203125 1.43862729296875  10.445771535156249 1.16285962890625  C 10.170003871093748 0.8870919648437496  9.734745396484374 0.9286156796875003  9.500501447265625 0.97845110546875  C 9.038669892578124 1.0748112226562503  8.540280724609376 1.36389157421875  8.134923519531252 1.769231359375  Z " stroke-width="0" stroke-dasharray="0" stroke="rgba(255, 255, 255, 0)" fill="none" transform="matrix(1 0 0 1 380 4297 )" class="stroke" mask="url(#Clip8667)" />
  </g>
</svg>