<?xml version="1.0" encoding="utf-8"?>
<svg version="1.1" xmlns:xlink="http://www.w3.org/1999/xlink" width="18px" height="18px" xmlns="http://www.w3.org/2000/svg">
  <defs>
    <pattern id="BGPattern" patternUnits="userSpaceOnUse" alignment="0 0" imageRepeat="None" />
    <mask fill="white" id="Clip5087">
      <path d="M 7.535555546874999 0.4533333398437511  L 7.535555546874999 0.45444445312500115  C 7.2691728253664785 0.18826233785917879  6.837493834789775 0.18826233785917967  6.571111113281251 0.45444445312500026  L 4 3.025555546875001  L 1.4288888867187497 0.45555554687500077  C 1.3021905756568453 0.3356289080508805  1.1343631177042308 0.2687960953041202  0.9599072186191338 0.2687960953041202  C 0.583126286893056 0.2687960953041202  0.2776849920566331 0.574237390140544  0.2776849920566331 0.9510183218666199  C 0.2776849920566331 1.1254742257264079  0.34451780845279956 1.293301687899155  0.46444445312500005 1.42  L 3.035555546875001 3.9888888867187493  L 0.46444445312500005 6.561111113281251  C 0.3283199928590941 6.689960007296419  0.2512037169648158 6.8691389845901405  0.2512037169648158 7.056574056472687  C 0.2512037169648158 7.433354988198765  0.5566450118012387 7.738796283035185  0.9334259435273164 7.738796283035185  C 1.1208610154098633 7.738796283035185  1.3000399927035833 7.661680007140905  1.4288888867187497 7.525555546874999  L 4 4.954444453125001  L 6.571111113281253 7.52666666015625  C 6.697809405943561 7.646593195411258  6.865636789157893 7.713425943527312  7.040092603683565 7.713425943527312  C 7.416873535409641 7.713425943527312  7.722314830246065 7.407984648690892  7.722314830246065 7.031203716964814  C 7.722314830246065 6.8567479024391425  7.6554820821300105 6.688920519224812  7.535555546874999 6.5622222265625005  L 4.964444453124999 3.9888888867187493  L 7.535555546874999 1.4177777734374999  C 7.801737662140823 1.1513950519289775  7.801737662140823 0.7197160613522735  7.535555546874999 0.4533333398437511  Z " fill-rule="evenodd" />
    </mask>
  </defs>
  <g transform="matrix(1 0 0 1 -1547 -5376 )">
    <path d="M 7.535555546874999 0.4533333398437511  L 7.535555546874999 0.45444445312500115  C 7.2691728253664785 0.18826233785917879  6.837493834789775 0.18826233785917967  6.571111113281251 0.45444445312500026  L 4 3.025555546875001  L 1.4288888867187497 0.45555554687500077  C 1.3021905756568453 0.3356289080508805  1.1343631177042308 0.2687960953041202  0.9599072186191338 0.2687960953041202  C 0.583126286893056 0.2687960953041202  0.2776849920566331 0.574237390140544  0.2776849920566331 0.9510183218666199  C 0.2776849920566331 1.1254742257264079  0.34451780845279956 1.293301687899155  0.46444445312500005 1.42  L 3.035555546875001 3.9888888867187493  L 0.46444445312500005 6.561111113281251  C 0.3283199928590941 6.689960007296419  0.2512037169648158 6.8691389845901405  0.2512037169648158 7.056574056472687  C 0.2512037169648158 7.433354988198765  0.5566450118012387 7.738796283035185  0.9334259435273164 7.738796283035185  C 1.1208610154098633 7.738796283035185  1.3000399927035833 7.661680007140905  1.4288888867187497 7.525555546874999  L 4 4.954444453125001  L 6.571111113281253 7.52666666015625  C 6.697809405943561 7.646593195411258  6.865636789157893 7.713425943527312  7.040092603683565 7.713425943527312  C 7.416873535409641 7.713425943527312  7.722314830246065 7.407984648690892  7.722314830246065 7.031203716964814  C 7.722314830246065 6.8567479024391425  7.6554820821300105 6.688920519224812  7.535555546874999 6.5622222265625005  L 4.964444453124999 3.9888888867187493  L 7.535555546874999 1.4177777734374999  C 7.801737662140823 1.1513950519289775  7.801737662140823 0.7197160613522735  7.535555546874999 0.4533333398437511  Z " fill-rule="nonzero" fill="rgba(255, 255, 255, 1)" stroke="none" transform="matrix(1 0 0 1 1552 5381 )" class="fill" />
    <path d="M 7.535555546874999 0.4533333398437511  L 7.535555546874999 0.45444445312500115  C 7.2691728253664785 0.18826233785917879  6.837493834789775 0.18826233785917967  6.571111113281251 0.45444445312500026  L 4 3.025555546875001  L 1.4288888867187497 0.45555554687500077  C 1.3021905756568453 0.3356289080508805  1.1343631177042308 0.2687960953041202  0.9599072186191338 0.2687960953041202  C 0.583126286893056 0.2687960953041202  0.2776849920566331 0.574237390140544  0.2776849920566331 0.9510183218666199  C 0.2776849920566331 1.1254742257264079  0.34451780845279956 1.293301687899155  0.46444445312500005 1.42  L 3.035555546875001 3.9888888867187493  L 0.46444445312500005 6.561111113281251  C 0.3283199928590941 6.689960007296419  0.2512037169648158 6.8691389845901405  0.2512037169648158 7.056574056472687  C 0.2512037169648158 7.433354988198765  0.5566450118012387 7.738796283035185  0.9334259435273164 7.738796283035185  C 1.1208610154098633 7.738796283035185  1.3000399927035833 7.661680007140905  1.4288888867187497 7.525555546874999  L 4 4.954444453125001  L 6.571111113281253 7.52666666015625  C 6.697809405943561 7.646593195411258  6.865636789157893 7.713425943527312  7.040092603683565 7.713425943527312  C 7.416873535409641 7.713425943527312  7.722314830246065 7.407984648690892  7.722314830246065 7.031203716964814  C 7.722314830246065 6.8567479024391425  7.6554820821300105 6.688920519224812  7.535555546874999 6.5622222265625005  L 4.964444453124999 3.9888888867187493  L 7.535555546874999 1.4177777734374999  C 7.801737662140823 1.1513950519289775  7.801737662140823 0.7197160613522735  7.535555546874999 0.4533333398437511  Z " stroke-width="0" stroke-dasharray="0" stroke="rgba(255, 255, 255, 0)" fill="none" transform="matrix(1 0 0 1 1552 5381 )" class="stroke" mask="url(#Clip5087)" />
  </g>
  <style>svg { filter: drop-shadow(0px 0px 2.5px rgba(0, 0, 0, 0.3137254901960784)); }</style>
</svg>