<?xml version="1.0" encoding="utf-8"?>
<svg version="1.1" xmlns:xlink="http://www.w3.org/1999/xlink" width="17px" height="14px" xmlns="http://www.w3.org/2000/svg">
  <defs>
    <pattern id="BGPattern" patternUnits="userSpaceOnUse" alignment="0 0" imageRepeat="None" />
    <mask fill="white" id="Clip4307">
      <path d="M 1.0964003989257827 0.18156249999999885  L 1.0964003989257813 0.17937500854492172  C 0.42915039062500004 0.17937500854492172  0.26340039062499976 0.7415625170898434  0.26340039062499976 1.4306249914550782  L 0.26340039062499976 5.1253124914550785  C 0.26340039062499976 5.8121875  0.42915039062500004 6.3743749829101555  1.0964003989257813 6.37437500854492  C 1.7657753989257823 6.37437500854492  1.9464003906250018 5.8121875  1.9464003906250018 5.1253124914550785  L 1.9464003906250018 1.4284374999999987  C 1.9464003906250018 0.7415624914550769  1.7657753989257823 0.18156249999999885  1.0964003989257827 0.18156249999999885  Z M 16.63865039892578 3.5415624999999995  C 16.63865039892578 2.8525  16.383650398925774 2.4390624999999995  15.716400390625003 2.4390624999999995  L 7.45865039892578 2.4390624999999995  C 6.791400390625 2.4390624999999995  5.954150398925781 2.8546874914550777  5.954150398925781 3.5415624999999995  C 5.954150398925781 4.228437508544921  6.50027540722656 4.641875008544922  7.167525390624999 4.641875008544922  L 15.425275382324216 4.641875008544922  C 16.092525390624992 4.641875008544922  16.63865037402343 4.226250017089844  16.63865039892578 3.5415624999999995  Z M 16.713025382324226 9.900624999999998  C 16.713025357421888 9.213749991455076  16.166900374023445 8.9096875  15.497525398925786 8.9096875  L 7.167525390625005 8.9096875  C 6.500275382324223 8.9096875  5.954150398925788 9.213749991455076  5.954150398925788 9.900624999999998  C 5.954150398925788 10.58750000854492  6.500275407226567 10.8915625  7.167525390625005 10.8915625  L 15.497525398925786 10.8915625  C 16.16690039892579 10.8915625  16.713025407226567 10.58750000854492  16.713025382324226 9.900624999999998  Z M 1.9464003906250045 8.874687508544923  C 1.9464003906250045 8.187812500000001  1.7657753989257854 7.6256250170898445  1.0964003989257858 7.625624991455076  C 0.4291503906250045 7.625624991455076  0.2634003906250043 8.187812499999998  0.2634003906250043 8.87468750854492  L 0.2634003906250043 12.30687500854492  C 0.2634003906250043 12.993750017089841  0.4291503906250045 13.555937499999997  1.0964003989257858 13.555937499999997  C 1.7657753989257854 13.555937499999997  1.9464003906250045 12.993749991455076  1.9464003906250045 12.30687500854492  L 1.9464003906250045 8.874687508544923  Z " fill-rule="evenodd" />
    </mask>
  </defs>
  <g transform="matrix(1 0 0 1 -40 -316 )">
    <path d="M 1.0964003989257827 0.18156249999999885  L 1.0964003989257813 0.17937500854492172  C 0.42915039062500004 0.17937500854492172  0.26340039062499976 0.7415625170898434  0.26340039062499976 1.4306249914550782  L 0.26340039062499976 5.1253124914550785  C 0.26340039062499976 5.8121875  0.42915039062500004 6.3743749829101555  1.0964003989257813 6.37437500854492  C 1.7657753989257823 6.37437500854492  1.9464003906250018 5.8121875  1.9464003906250018 5.1253124914550785  L 1.9464003906250018 1.4284374999999987  C 1.9464003906250018 0.7415624914550769  1.7657753989257823 0.18156249999999885  1.0964003989257827 0.18156249999999885  Z M 16.63865039892578 3.5415624999999995  C 16.63865039892578 2.8525  16.383650398925774 2.4390624999999995  15.716400390625003 2.4390624999999995  L 7.45865039892578 2.4390624999999995  C 6.791400390625 2.4390624999999995  5.954150398925781 2.8546874914550777  5.954150398925781 3.5415624999999995  C 5.954150398925781 4.228437508544921  6.50027540722656 4.641875008544922  7.167525390624999 4.641875008544922  L 15.425275382324216 4.641875008544922  C 16.092525390624992 4.641875008544922  16.63865037402343 4.226250017089844  16.63865039892578 3.5415624999999995  Z M 16.713025382324226 9.900624999999998  C 16.713025357421888 9.213749991455076  16.166900374023445 8.9096875  15.497525398925786 8.9096875  L 7.167525390625005 8.9096875  C 6.500275382324223 8.9096875  5.954150398925788 9.213749991455076  5.954150398925788 9.900624999999998  C 5.954150398925788 10.58750000854492  6.500275407226567 10.8915625  7.167525390625005 10.8915625  L 15.497525398925786 10.8915625  C 16.16690039892579 10.8915625  16.713025407226567 10.58750000854492  16.713025382324226 9.900624999999998  Z M 1.9464003906250045 8.874687508544923  C 1.9464003906250045 8.187812500000001  1.7657753989257854 7.6256250170898445  1.0964003989257858 7.625624991455076  C 0.4291503906250045 7.625624991455076  0.2634003906250043 8.187812499999998  0.2634003906250043 8.87468750854492  L 0.2634003906250043 12.30687500854492  C 0.2634003906250043 12.993750017089841  0.4291503906250045 13.555937499999997  1.0964003989257858 13.555937499999997  C 1.7657753989257854 13.555937499999997  1.9464003906250045 12.993749991455076  1.9464003906250045 12.30687500854492  L 1.9464003906250045 8.874687508544923  Z " fill-rule="nonzero" fill="rgba(255, 255, 255, 1)" stroke="none" transform="matrix(1 0 0 1 40 316 )" class="fill" />
    <path d="M 1.0964003989257827 0.18156249999999885  L 1.0964003989257813 0.17937500854492172  C 0.42915039062500004 0.17937500854492172  0.26340039062499976 0.7415625170898434  0.26340039062499976 1.4306249914550782  L 0.26340039062499976 5.1253124914550785  C 0.26340039062499976 5.8121875  0.42915039062500004 6.3743749829101555  1.0964003989257813 6.37437500854492  C 1.7657753989257823 6.37437500854492  1.9464003906250018 5.8121875  1.9464003906250018 5.1253124914550785  L 1.9464003906250018 1.4284374999999987  C 1.9464003906250018 0.7415624914550769  1.7657753989257823 0.18156249999999885  1.0964003989257827 0.18156249999999885  Z " stroke-width="0" stroke-dasharray="0" stroke="rgba(255, 255, 255, 0)" fill="none" transform="matrix(1 0 0 1 40 316 )" class="stroke" mask="url(#Clip4307)" />
    <path d="M 16.63865039892578 3.5415624999999995  C 16.63865039892578 2.8525  16.383650398925774 2.4390624999999995  15.716400390625003 2.4390624999999995  L 7.45865039892578 2.4390624999999995  C 6.791400390625 2.4390624999999995  5.954150398925781 2.8546874914550777  5.954150398925781 3.5415624999999995  C 5.954150398925781 4.228437508544921  6.50027540722656 4.641875008544922  7.167525390624999 4.641875008544922  L 15.425275382324216 4.641875008544922  C 16.092525390624992 4.641875008544922  16.63865037402343 4.226250017089844  16.63865039892578 3.5415624999999995  Z " stroke-width="0" stroke-dasharray="0" stroke="rgba(255, 255, 255, 0)" fill="none" transform="matrix(1 0 0 1 40 316 )" class="stroke" mask="url(#Clip4307)" />
    <path d="M 16.713025382324226 9.900624999999998  C 16.713025357421888 9.213749991455076  16.166900374023445 8.9096875  15.497525398925786 8.9096875  L 7.167525390625005 8.9096875  C 6.500275382324223 8.9096875  5.954150398925788 9.213749991455076  5.954150398925788 9.900624999999998  C 5.954150398925788 10.58750000854492  6.500275407226567 10.8915625  7.167525390625005 10.8915625  L 15.497525398925786 10.8915625  C 16.16690039892579 10.8915625  16.713025407226567 10.58750000854492  16.713025382324226 9.900624999999998  Z " stroke-width="0" stroke-dasharray="0" stroke="rgba(255, 255, 255, 0)" fill="none" transform="matrix(1 0 0 1 40 316 )" class="stroke" mask="url(#Clip4307)" />
    <path d="M 1.9464003906250045 8.874687508544923  C 1.9464003906250045 8.187812500000001  1.7657753989257854 7.6256250170898445  1.0964003989257858 7.625624991455076  C 0.4291503906250045 7.625624991455076  0.2634003906250043 8.187812499999998  0.2634003906250043 8.87468750854492  L 0.2634003906250043 12.30687500854492  C 0.2634003906250043 12.993750017089841  0.4291503906250045 13.555937499999997  1.0964003989257858 13.555937499999997  C 1.7657753989257854 13.555937499999997  1.9464003906250045 12.993749991455076  1.9464003906250045 12.30687500854492  L 1.9464003906250045 8.874687508544923  Z " stroke-width="0" stroke-dasharray="0" stroke="rgba(255, 255, 255, 0)" fill="none" transform="matrix(1 0 0 1 40 316 )" class="stroke" mask="url(#Clip4307)" />
  </g>
</svg>