<?xml version="1.0" encoding="utf-8"?>
<svg version="1.1" xmlns:xlink="http://www.w3.org/1999/xlink" width="330px" height="99px" xmlns="http://www.w3.org/2000/svg">
  <defs>
    <linearGradient gradientUnits="userSpaceOnUse" x1="165" y1="0" x2="165" y2="99" id="LinearGradient8023">
      <stop id="Stop8024" stop-color="#000000" offset="0" />
      <stop id="Stop8025" stop-color="#333333" stop-opacity="0" offset="1" />
    </linearGradient>
    <pattern id="BGPattern" patternUnits="userSpaceOnUse" alignment="0 0" imageRepeat="None" />
    <mask fill="white" id="Clip8026">
      <path d="M 0 94  L 0 5  C 0 2.1999999999999997  2.1999999999999997 0  5 0  L 325 0  C 327.8 0  330 2.1999999999999997  330 5  L 330 94  C 330 96.8  327.8 99  325 99  L 5 99  C 2.1999999999999997 99  0 96.8  0 94  Z " fill-rule="evenodd" />
    </mask>
  </defs>
  <g transform="matrix(1 0 0 1 -15 -160 )">
    <path d="M 0 94  L 0 5  C 0 2.1999999999999997  2.1999999999999997 0  5 0  L 325 0  C 327.8 0  330 2.1999999999999997  330 5  L 330 94  C 330 96.8  327.8 99  325 99  L 5 99  C 2.1999999999999997 99  0 96.8  0 94  Z " fill-rule="nonzero" fill="url(#LinearGradient8023)" stroke="none" transform="matrix(1 0 0 1 15 160 )" class="fill" />
    <path d="M 0 94  L 0 5  C 0 2.1999999999999997  2.1999999999999997 0  5 0  L 325 0  C 327.8 0  330 2.1999999999999997  330 5  L 330 94  C 330 96.8  327.8 99  325 99  L 5 99  C 2.1999999999999997 99  0 96.8  0 94  Z " stroke-width="0" stroke-dasharray="0" stroke="rgba(121, 121, 121, 1)" fill="none" transform="matrix(1 0 0 1 15 160 )" class="stroke" mask="url(#Clip8026)" />
  </g>
</svg>