<?xml version="1.0" encoding="utf-8"?>
<svg version="1.1" xmlns:xlink="http://www.w3.org/1999/xlink" width="156px" height="105px" xmlns="http://www.w3.org/2000/svg">
  <defs>
    <linearGradient gradientUnits="userSpaceOnUse" x1="78" y1="0" x2="78" y2="105" id="LinearGradient8032">
      <stop id="Stop8033" stop-color="#000000" offset="0" />
      <stop id="Stop8034" stop-color="#333333" stop-opacity="0" offset="1" />
    </linearGradient>
    <pattern id="BGPattern" patternUnits="userSpaceOnUse" alignment="0 0" imageRepeat="None" />
    <mask fill="white" id="Clip8035">
      <path d="M 0 100  L 0 5  C 0 2.1999999999999997  2.1999999999999993 0  5 0  L 151 0  C 153.8 0  156 2.1999999999999997  156 5  L 156 100  C 156 102.8  153.8 105  151 105  L 5 105  C 2.1999999999999993 105  0 102.8  0 100  Z " fill-rule="evenodd" />
    </mask>
  </defs>
  <g transform="matrix(1 0 0 1 -20 -505 )">
    <path d="M 0 100  L 0 5  C 0 2.1999999999999997  2.1999999999999993 0  5 0  L 151 0  C 153.8 0  156 2.1999999999999997  156 5  L 156 100  C 156 102.8  153.8 105  151 105  L 5 105  C 2.1999999999999993 105  0 102.8  0 100  Z " fill-rule="nonzero" fill="url(#LinearGradient8032)" stroke="none" transform="matrix(1 0 0 1 20 505 )" class="fill" />
    <path d="M 0 100  L 0 5  C 0 2.1999999999999997  2.1999999999999993 0  5 0  L 151 0  C 153.8 0  156 2.1999999999999997  156 5  L 156 100  C 156 102.8  153.8 105  151 105  L 5 105  C 2.1999999999999993 105  0 102.8  0 100  Z " stroke-width="0" stroke-dasharray="0" stroke="rgba(121, 121, 121, 1)" fill="none" transform="matrix(1 0 0 1 20 505 )" class="stroke" mask="url(#Clip8035)" />
  </g>
</svg>