<?xml version="1.0" encoding="utf-8"?>
<svg version="1.1" xmlns:xlink="http://www.w3.org/1999/xlink" width="5px" height="7px" xmlns="http://www.w3.org/2000/svg">
  <defs>
    <pattern id="BGPattern" patternUnits="userSpaceOnUse" alignment="0 0" imageRepeat="None" />
    <mask fill="white" id="Clip2177">
      <path d="M 2.021484375000002 4.846223958333336  L 2.961914062500001 4.846223958333333  L 2.961914062500001 4.706770833333334  C 2.961914062500001 4.509895833333332  3.005859375000001 4.329427083333334  3.1025390625000004 4.165364583333334  C 3.181640625000001 4.017708333333332  3.3046875 3.8700520833333334  3.4716796875 3.7388020833333337  C 3.884765625000001 3.4024739583333337  4.130859375 3.1891927083333345  4.2099609375 3.0989583333333344  C 4.4296875 2.8364583333333337  4.543945312500001 2.5001302083333337  4.543945312500001 2.0981770833333337  C 4.543945312500001 1.6059895833333337  4.368164062500001 1.2122395833333337  4.0166015625 0.9251302083333338  C 3.665039062500001 0.6298177083333336  3.2080078125 0.49036458333333394  2.645507812500001 0.49036458333333394  C 1.9951171875000018 0.49036458333333394  1.4853515625000002 0.6626302083333337  1.1162109375000013 1.015364583333334  C 0.7470703125000011 1.3598958333333344  0.5625000000000013 1.827473958333334  0.5625000000000013 2.426302083333335  L 1.4853515625000013 2.426302083333335  C 1.4853515625000013 2.0653645833333343  1.5644531250000016 1.7864583333333348  1.7226562500000009 1.5895833333333347  C 1.8984375000000009 1.3516927083333343  2.1884765625000013 1.2368489583333346  2.5839843750000013 1.2368489583333346  C 2.900390625000001 1.2368489583333346  3.1552734375000013 1.3188802083333346  3.3310546875000013 1.4829427083333346  C 3.4980468750000018 1.6470052083333346  3.5859375000000018 1.8684895833333355  3.5859375000000018 2.1555989583333357  C 3.5859375000000018 2.368880208333335  3.4980468750000018 2.5657552083333357  3.339843750000002 2.7544270833333355  L 3.1904296875000027 2.910286458333335  C 2.6455078125000018 3.3614583333333363  2.3115234375000027 3.6977864583333346  2.197265625000002 3.9274739583333362  C 2.0742187500000018 4.140755208333336  2.021484375000002 4.403255208333336  2.021484375000002 4.706770833333335  L 2.021484375000002 4.846223958333336  Z M 2.030273437500001 6.289973958333335  C 2.1533203125 6.404817708333335  2.3115234375000004 6.462239583333334  2.487304687499999 6.462239583333334  C 2.6630859375000004 6.462239583333334  2.8212890624999987 6.404817708333334  2.9443359375 6.298177083333334  C 3.0673828125 6.183333333333334  3.1376953124999996 6.0438802083333325  3.1376953124999996 5.871614583333334  C 3.1376953124999996 5.699348958333334  3.076171875 5.559895833333334  2.953125 5.453255208333334  C 2.8300781249999996 5.338411458333334  2.671875 5.289192708333334  2.4873046875000004 5.289192708333334  C 2.3115234375000004 5.289192708333334  2.1533203125 5.338411458333335  2.030273437500001 5.453255208333334  C 1.9072265625000007 5.559895833333334  1.845703125 5.699348958333334  1.845703125 5.871614583333334  C 1.845703125 6.035677083333334  1.9072265625000007 6.175130208333334  2.030273437500001 6.289973958333335  Z " fill-rule="evenodd" />
    </mask>
  </defs>
  <g transform="matrix(1 0 0 1 -329 -172 )">
    <path d="M 2.021484375000002 4.846223958333336  L 2.961914062500001 4.846223958333333  L 2.961914062500001 4.706770833333334  C 2.961914062500001 4.509895833333332  3.005859375000001 4.329427083333334  3.1025390625000004 4.165364583333334  C 3.181640625000001 4.017708333333332  3.3046875 3.8700520833333334  3.4716796875 3.7388020833333337  C 3.884765625000001 3.4024739583333337  4.130859375 3.1891927083333345  4.2099609375 3.0989583333333344  C 4.4296875 2.8364583333333337  4.543945312500001 2.5001302083333337  4.543945312500001 2.0981770833333337  C 4.543945312500001 1.6059895833333337  4.368164062500001 1.2122395833333337  4.0166015625 0.9251302083333338  C 3.665039062500001 0.6298177083333336  3.2080078125 0.49036458333333394  2.645507812500001 0.49036458333333394  C 1.9951171875000018 0.49036458333333394  1.4853515625000002 0.6626302083333337  1.1162109375000013 1.015364583333334  C 0.7470703125000011 1.3598958333333344  0.5625000000000013 1.827473958333334  0.5625000000000013 2.426302083333335  L 1.4853515625000013 2.426302083333335  C 1.4853515625000013 2.0653645833333343  1.5644531250000016 1.7864583333333348  1.7226562500000009 1.5895833333333347  C 1.8984375000000009 1.3516927083333343  2.1884765625000013 1.2368489583333346  2.5839843750000013 1.2368489583333346  C 2.900390625000001 1.2368489583333346  3.1552734375000013 1.3188802083333346  3.3310546875000013 1.4829427083333346  C 3.4980468750000018 1.6470052083333346  3.5859375000000018 1.8684895833333355  3.5859375000000018 2.1555989583333357  C 3.5859375000000018 2.368880208333335  3.4980468750000018 2.5657552083333357  3.339843750000002 2.7544270833333355  L 3.1904296875000027 2.910286458333335  C 2.6455078125000018 3.3614583333333363  2.3115234375000027 3.6977864583333346  2.197265625000002 3.9274739583333362  C 2.0742187500000018 4.140755208333336  2.021484375000002 4.403255208333336  2.021484375000002 4.706770833333335  L 2.021484375000002 4.846223958333336  Z M 2.030273437500001 6.289973958333335  C 2.1533203125 6.404817708333335  2.3115234375000004 6.462239583333334  2.487304687499999 6.462239583333334  C 2.6630859375000004 6.462239583333334  2.8212890624999987 6.404817708333334  2.9443359375 6.298177083333334  C 3.0673828125 6.183333333333334  3.1376953124999996 6.0438802083333325  3.1376953124999996 5.871614583333334  C 3.1376953124999996 5.699348958333334  3.076171875 5.559895833333334  2.953125 5.453255208333334  C 2.8300781249999996 5.338411458333334  2.671875 5.289192708333334  2.4873046875000004 5.289192708333334  C 2.3115234375000004 5.289192708333334  2.1533203125 5.338411458333335  2.030273437500001 5.453255208333334  C 1.9072265625000007 5.559895833333334  1.845703125 5.699348958333334  1.845703125 5.871614583333334  C 1.845703125 6.035677083333334  1.9072265625000007 6.175130208333334  2.030273437500001 6.289973958333335  Z " fill-rule="nonzero" fill="rgba(255, 255, 255, 1)" stroke="none" transform="matrix(1 0 0 1 329 172 )" class="fill" />
    <path d="M 2.021484375000002 4.846223958333336  L 2.961914062500001 4.846223958333333  L 2.961914062500001 4.706770833333334  C 2.961914062500001 4.509895833333332  3.005859375000001 4.329427083333334  3.1025390625000004 4.165364583333334  C 3.181640625000001 4.017708333333332  3.3046875 3.8700520833333334  3.4716796875 3.7388020833333337  C 3.884765625000001 3.4024739583333337  4.130859375 3.1891927083333345  4.2099609375 3.0989583333333344  C 4.4296875 2.8364583333333337  4.543945312500001 2.5001302083333337  4.543945312500001 2.0981770833333337  C 4.543945312500001 1.6059895833333337  4.368164062500001 1.2122395833333337  4.0166015625 0.9251302083333338  C 3.665039062500001 0.6298177083333336  3.2080078125 0.49036458333333394  2.645507812500001 0.49036458333333394  C 1.9951171875000018 0.49036458333333394  1.4853515625000002 0.6626302083333337  1.1162109375000013 1.015364583333334  C 0.7470703125000011 1.3598958333333344  0.5625000000000013 1.827473958333334  0.5625000000000013 2.426302083333335  L 1.4853515625000013 2.426302083333335  C 1.4853515625000013 2.0653645833333343  1.5644531250000016 1.7864583333333348  1.7226562500000009 1.5895833333333347  C 1.8984375000000009 1.3516927083333343  2.1884765625000013 1.2368489583333346  2.5839843750000013 1.2368489583333346  C 2.900390625000001 1.2368489583333346  3.1552734375000013 1.3188802083333346  3.3310546875000013 1.4829427083333346  C 3.4980468750000018 1.6470052083333346  3.5859375000000018 1.8684895833333355  3.5859375000000018 2.1555989583333357  C 3.5859375000000018 2.368880208333335  3.4980468750000018 2.5657552083333357  3.339843750000002 2.7544270833333355  L 3.1904296875000027 2.910286458333335  C 2.6455078125000018 3.3614583333333363  2.3115234375000027 3.6977864583333346  2.197265625000002 3.9274739583333362  C 2.0742187500000018 4.140755208333336  2.021484375000002 4.403255208333336  2.021484375000002 4.706770833333335  L 2.021484375000002 4.846223958333336  Z " stroke-width="0" stroke-dasharray="0" stroke="rgba(255, 255, 255, 0)" fill="none" transform="matrix(1 0 0 1 329 172 )" class="stroke" mask="url(#Clip2177)" />
    <path d="M 2.030273437500001 6.289973958333335  C 2.1533203125 6.404817708333335  2.3115234375000004 6.462239583333334  2.487304687499999 6.462239583333334  C 2.6630859375000004 6.462239583333334  2.8212890624999987 6.404817708333334  2.9443359375 6.298177083333334  C 3.0673828125 6.183333333333334  3.1376953124999996 6.0438802083333325  3.1376953124999996 5.871614583333334  C 3.1376953124999996 5.699348958333334  3.076171875 5.559895833333334  2.953125 5.453255208333334  C 2.8300781249999996 5.338411458333334  2.671875 5.289192708333334  2.4873046875000004 5.289192708333334  C 2.3115234375000004 5.289192708333334  2.1533203125 5.338411458333335  2.030273437500001 5.453255208333334  C 1.9072265625000007 5.559895833333334  1.845703125 5.699348958333334  1.845703125 5.871614583333334  C 1.845703125 6.035677083333334  1.9072265625000007 6.175130208333334  2.030273437500001 6.289973958333335  Z " stroke-width="0" stroke-dasharray="0" stroke="rgba(255, 255, 255, 0)" fill="none" transform="matrix(1 0 0 1 329 172 )" class="stroke" mask="url(#Clip2177)" />
  </g>
</svg>