<?xml version="1.0" encoding="utf-8"?>
<svg version="1.1" xmlns:xlink="http://www.w3.org/1999/xlink" width="35px" height="26px" xmlns="http://www.w3.org/2000/svg">
  <defs>
    <pattern id="BGPattern" patternUnits="userSpaceOnUse" alignment="0 0" imageRepeat="None" />
    <mask fill="white" id="Clip2174">
      <path d="M 34 4.952999999999999  C 34.14347310194368 2.2204981765683325  31.963339835920756 0.007143832206020998  29.27185117306593 0  L 16.407217035060974 0  C 15.858741416968368 0  15.308131660870806 0.18633334179687508  14.821546295017146 0.5568333417968752  L 13.662704831602516 1.5470000000000002  C 12.625509709651295 2.4136666582031245  11.101729221846417 2.4136666582031245  10.004778010670732 1.5470000000000002  L 8.845936547256098 0.5568333417968752  C 8.476729221846417 0.18633334179687508  7.930387766768293 0  7.381912148675686 0  L 4.882826791158537 0  C 2.191338128303709 0.007143832206020084  0.011204862280788904 2.220498176568337  0 4.953  L 0 21.046999999999997  C 0.011204862280789795 23.77950182343166  2.191338128303709 25.99285616779398  4.882826791158537 26  L 6.895326782822027 26  C 7.687095083841464 26  8.419107270626906 25.6295  8.845936547256098 25.009833341796874  C 10.85843653891959 22.2235  12.809046303353659 22.2235  14.821546295017146 25.009833341796874  C 15.30813166087081 25.6295  16.04014384765625 26  16.77215605945122 26  L 29.271851173065922 25.999999999999996  C 31.96285495357207 25.991672462716608  34.14230716354663 23.779009552399575  34 21.047  L 34 4.952999999999999  Z M 32 4.2748333417968745  L 32 21.987333341796877  C 32.35142434379763 23.350166683593752  30.61422923018292 24.463833341796878  29.27185117306593 24  L 16.834046311690166 24  C 15.370021913109756 22.420666658203125  13.662704831602516 21.369833341796873  11.8913633848609 21.369833341796873  C 10.124290214129191 21.369833341796873  8.416973132621951 22.420666683593748  6.95294873404154 24.463833341796875  L 4.880692653153582 24.463833341796875  C 3.538314596036585 24.463833341796875  1.8203267994950456 23.350166683593752  2 21.987333341796877  L 2 4.2748333417968745  C 1.8203267994950456 2.9119999999999995  3.538314596036585 1.7983333417968748  4.880692653153582 1.7983333417968748  L 7.379778010670731 1.7983333417968748  L 8.540753612090318 2.7885  C 10.496250740725742 4.459675054992964  13.352634532235381 4.459675054992963  15.308131660870806 2.7885  L 16.466973124285442 2  L 29.27185117306593 2  C 30.61422923018292 1.798333341796875  32.35142434379763 2.912  32 4.2748333417968745  Z " fill-rule="evenodd" />
    </mask>
  </defs>
  <g transform="matrix(1 0 0 1 -29 -310 )">
    <path d="M 34 4.952999999999999  C 34.14347310194368 2.2204981765683325  31.963339835920756 0.007143832206020998  29.27185117306593 0  L 16.407217035060974 0  C 15.858741416968368 0  15.308131660870806 0.18633334179687508  14.821546295017146 0.5568333417968752  L 13.662704831602516 1.5470000000000002  C 12.625509709651295 2.4136666582031245  11.101729221846417 2.4136666582031245  10.004778010670732 1.5470000000000002  L 8.845936547256098 0.5568333417968752  C 8.476729221846417 0.18633334179687508  7.930387766768293 0  7.381912148675686 0  L 4.882826791158537 0  C 2.191338128303709 0.007143832206020084  0.011204862280788904 2.220498176568337  0 4.953  L 0 21.046999999999997  C 0.011204862280789795 23.77950182343166  2.191338128303709 25.99285616779398  4.882826791158537 26  L 6.895326782822027 26  C 7.687095083841464 26  8.419107270626906 25.6295  8.845936547256098 25.009833341796874  C 10.85843653891959 22.2235  12.809046303353659 22.2235  14.821546295017146 25.009833341796874  C 15.30813166087081 25.6295  16.04014384765625 26  16.77215605945122 26  L 29.271851173065922 25.999999999999996  C 31.96285495357207 25.991672462716608  34.14230716354663 23.779009552399575  34 21.047  L 34 4.952999999999999  Z M 32 4.2748333417968745  L 32 21.987333341796877  C 32.35142434379763 23.350166683593752  30.61422923018292 24.463833341796878  29.27185117306593 24  L 16.834046311690166 24  C 15.370021913109756 22.420666658203125  13.662704831602516 21.369833341796873  11.8913633848609 21.369833341796873  C 10.124290214129191 21.369833341796873  8.416973132621951 22.420666683593748  6.95294873404154 24.463833341796875  L 4.880692653153582 24.463833341796875  C 3.538314596036585 24.463833341796875  1.8203267994950456 23.350166683593752  2 21.987333341796877  L 2 4.2748333417968745  C 1.8203267994950456 2.9119999999999995  3.538314596036585 1.7983333417968748  4.880692653153582 1.7983333417968748  L 7.379778010670731 1.7983333417968748  L 8.540753612090318 2.7885  C 10.496250740725742 4.459675054992964  13.352634532235381 4.459675054992963  15.308131660870806 2.7885  L 16.466973124285442 2  L 29.27185117306593 2  C 30.61422923018292 1.798333341796875  32.35142434379763 2.912  32 4.2748333417968745  Z " fill-rule="nonzero" fill="rgba(255, 255, 255, 1)" stroke="none" transform="matrix(1 0 0 1 29 310 )" class="fill" />
    <path d="M 34 4.952999999999999  C 34.14347310194368 2.2204981765683325  31.963339835920756 0.007143832206020998  29.27185117306593 0  L 16.407217035060974 0  C 15.858741416968368 0  15.308131660870806 0.18633334179687508  14.821546295017146 0.5568333417968752  L 13.662704831602516 1.5470000000000002  C 12.625509709651295 2.4136666582031245  11.101729221846417 2.4136666582031245  10.004778010670732 1.5470000000000002  L 8.845936547256098 0.5568333417968752  C 8.476729221846417 0.18633334179687508  7.930387766768293 0  7.381912148675686 0  L 4.882826791158537 0  C 2.191338128303709 0.007143832206020084  0.011204862280788904 2.220498176568337  0 4.953  L 0 21.046999999999997  C 0.011204862280789795 23.77950182343166  2.191338128303709 25.99285616779398  4.882826791158537 26  L 6.895326782822027 26  C 7.687095083841464 26  8.419107270626906 25.6295  8.845936547256098 25.009833341796874  C 10.85843653891959 22.2235  12.809046303353659 22.2235  14.821546295017146 25.009833341796874  C 15.30813166087081 25.6295  16.04014384765625 26  16.77215605945122 26  L 29.271851173065922 25.999999999999996  C 31.96285495357207 25.991672462716608  34.14230716354663 23.779009552399575  34 21.047  L 34 4.952999999999999  Z " stroke-width="0" stroke-dasharray="0" stroke="rgba(255, 255, 255, 0)" fill="none" transform="matrix(1 0 0 1 29 310 )" class="stroke" mask="url(#Clip2174)" />
    <path d="M 32 4.2748333417968745  L 32 21.987333341796877  C 32.35142434379763 23.350166683593752  30.61422923018292 24.463833341796878  29.27185117306593 24  L 16.834046311690166 24  C 15.370021913109756 22.420666658203125  13.662704831602516 21.369833341796873  11.8913633848609 21.369833341796873  C 10.124290214129191 21.369833341796873  8.416973132621951 22.420666683593748  6.95294873404154 24.463833341796875  L 4.880692653153582 24.463833341796875  C 3.538314596036585 24.463833341796875  1.8203267994950456 23.350166683593752  2 21.987333341796877  L 2 4.2748333417968745  C 1.8203267994950456 2.9119999999999995  3.538314596036585 1.7983333417968748  4.880692653153582 1.7983333417968748  L 7.379778010670731 1.7983333417968748  L 8.540753612090318 2.7885  C 10.496250740725742 4.459675054992964  13.352634532235381 4.459675054992963  15.308131660870806 2.7885  L 16.466973124285442 2  L 29.27185117306593 2  C 30.61422923018292 1.798333341796875  32.35142434379763 2.912  32 4.2748333417968745  Z " stroke-width="0" stroke-dasharray="0" stroke="rgba(255, 255, 255, 0)" fill="none" transform="matrix(1 0 0 1 29 310 )" class="stroke" mask="url(#Clip2174)" />
  </g>
</svg>