<?xml version="1.0" encoding="utf-8"?>
<svg version="1.1" xmlns:xlink="http://www.w3.org/1999/xlink" width="20px" height="16px" xmlns="http://www.w3.org/2000/svg">
  <defs>
    <pattern id="BGPattern" patternUnits="userSpaceOnUse" alignment="0 0" imageRepeat="None" />
    <mask fill="white" id="Clip599">
      <path d="M 1.2898828222656267 0.20749999999999869  L 1.289882822265625 0.20500000976562482  C 0.5048828125 0.20500000976562482  0.3098828124999997 0.8475000195312496  0.3098828124999997 1.634999990234375  L 0.3098828124999997 5.857499990234375  C 0.3098828124999997 6.6425  0.5048828125 7.284999980468749  1.289882822265625 7.285000009765623  C 2.0773828222656263 7.285000009765623  2.289882812500002 6.6425  2.289882812500002 5.857499990234375  L 2.289882812500002 1.6324999999999985  C 2.289882812500002 0.8474999902343736  2.0773828222656263 0.20749999999999869  1.2898828222656267 0.20749999999999869  Z M 19.57488282226562 4.047499999999999  C 19.57488282226562 3.26  19.274882822265617 2.7874999999999996  18.489882812500003 2.7874999999999996  L 8.774882822265624 2.7874999999999996  C 7.989882812499999 2.7874999999999996  7.004882822265625 3.2624999902343745  7.004882822265625 4.047499999999999  C 7.004882822265625 4.832500009765624  7.647382832031248 5.3050000097656245  8.432382812499998 5.3050000097656245  L 18.14738280273437 5.3050000097656245  C 18.93238281249999 5.3050000097656245  19.574882792968744 4.83000001953125  19.57488282226562 4.047499999999999  Z M 19.662382802734385 11.314999999999998  C 19.662382773437514 10.529999990234373  19.019882792968758 10.182500000000001  18.23238282226563 10.182500000000001  L 8.432382812500006 10.182500000000001  C 7.647382802734381 10.182500000000001  7.004882822265632 10.529999990234373  7.004882822265632 11.314999999999998  C 7.004882822265632 12.100000009765623  7.647382832031255 12.447499999999998  8.432382812500006 12.447499999999998  L 18.23238282226563 12.447499999999998  C 19.019882822265636 12.447499999999998  19.662382832031255 12.100000009765623  19.662382802734385 11.314999999999998  Z M 2.2898828125000055 10.142500009765627  C 2.2898828125000055 9.357500000000002  2.07738282226563 8.715000019531251  1.2898828222656302 8.714999990234373  C 0.5048828125000053 8.714999990234373  0.30988281250000504 9.357499999999998  0.30988281250000504 10.142500009765623  L 0.30988281250000504 14.065000009765622  C 0.30988281250000504 14.850000019531247  0.5048828125000053 15.492499999999996  1.2898828222656302 15.492499999999996  C 2.07738282226563 15.492499999999996  2.2898828125000055 14.849999990234373  2.2898828125000055 14.065000009765622  L 2.2898828125000055 10.142500009765627  Z " fill-rule="evenodd" />
    </mask>
  </defs>
  <g transform="matrix(1 0 0 1 -65 -197 )">
    <path d="M 1.2898828222656267 0.20749999999999869  L 1.289882822265625 0.20500000976562482  C 0.5048828125 0.20500000976562482  0.3098828124999997 0.8475000195312496  0.3098828124999997 1.634999990234375  L 0.3098828124999997 5.857499990234375  C 0.3098828124999997 6.6425  0.5048828125 7.284999980468749  1.289882822265625 7.285000009765623  C 2.0773828222656263 7.285000009765623  2.289882812500002 6.6425  2.289882812500002 5.857499990234375  L 2.289882812500002 1.6324999999999985  C 2.289882812500002 0.8474999902343736  2.0773828222656263 0.20749999999999869  1.2898828222656267 0.20749999999999869  Z M 19.57488282226562 4.047499999999999  C 19.57488282226562 3.26  19.274882822265617 2.7874999999999996  18.489882812500003 2.7874999999999996  L 8.774882822265624 2.7874999999999996  C 7.989882812499999 2.7874999999999996  7.004882822265625 3.2624999902343745  7.004882822265625 4.047499999999999  C 7.004882822265625 4.832500009765624  7.647382832031248 5.3050000097656245  8.432382812499998 5.3050000097656245  L 18.14738280273437 5.3050000097656245  C 18.93238281249999 5.3050000097656245  19.574882792968744 4.83000001953125  19.57488282226562 4.047499999999999  Z M 19.662382802734385 11.314999999999998  C 19.662382773437514 10.529999990234373  19.019882792968758 10.182500000000001  18.23238282226563 10.182500000000001  L 8.432382812500006 10.182500000000001  C 7.647382802734381 10.182500000000001  7.004882822265632 10.529999990234373  7.004882822265632 11.314999999999998  C 7.004882822265632 12.100000009765623  7.647382832031255 12.447499999999998  8.432382812500006 12.447499999999998  L 18.23238282226563 12.447499999999998  C 19.019882822265636 12.447499999999998  19.662382832031255 12.100000009765623  19.662382802734385 11.314999999999998  Z M 2.2898828125000055 10.142500009765627  C 2.2898828125000055 9.357500000000002  2.07738282226563 8.715000019531251  1.2898828222656302 8.714999990234373  C 0.5048828125000053 8.714999990234373  0.30988281250000504 9.357499999999998  0.30988281250000504 10.142500009765623  L 0.30988281250000504 14.065000009765622  C 0.30988281250000504 14.850000019531247  0.5048828125000053 15.492499999999996  1.2898828222656302 15.492499999999996  C 2.07738282226563 15.492499999999996  2.2898828125000055 14.849999990234373  2.2898828125000055 14.065000009765622  L 2.2898828125000055 10.142500009765627  Z " fill-rule="nonzero" fill="rgba(255, 255, 255, 1)" stroke="none" transform="matrix(1 0 0 1 65 197 )" class="fill" />
    <path d="M 1.2898828222656267 0.20749999999999869  L 1.289882822265625 0.20500000976562482  C 0.5048828125 0.20500000976562482  0.3098828124999997 0.8475000195312496  0.3098828124999997 1.634999990234375  L 0.3098828124999997 5.857499990234375  C 0.3098828124999997 6.6425  0.5048828125 7.284999980468749  1.289882822265625 7.285000009765623  C 2.0773828222656263 7.285000009765623  2.289882812500002 6.6425  2.289882812500002 5.857499990234375  L 2.289882812500002 1.6324999999999985  C 2.289882812500002 0.8474999902343736  2.0773828222656263 0.20749999999999869  1.2898828222656267 0.20749999999999869  Z " stroke-width="0" stroke-dasharray="0" stroke="rgba(255, 255, 255, 0)" fill="none" transform="matrix(1 0 0 1 65 197 )" class="stroke" mask="url(#Clip599)" />
    <path d="M 19.57488282226562 4.047499999999999  C 19.57488282226562 3.26  19.274882822265617 2.7874999999999996  18.489882812500003 2.7874999999999996  L 8.774882822265624 2.7874999999999996  C 7.989882812499999 2.7874999999999996  7.004882822265625 3.2624999902343745  7.004882822265625 4.047499999999999  C 7.004882822265625 4.832500009765624  7.647382832031248 5.3050000097656245  8.432382812499998 5.3050000097656245  L 18.14738280273437 5.3050000097656245  C 18.93238281249999 5.3050000097656245  19.574882792968744 4.83000001953125  19.57488282226562 4.047499999999999  Z " stroke-width="0" stroke-dasharray="0" stroke="rgba(255, 255, 255, 0)" fill="none" transform="matrix(1 0 0 1 65 197 )" class="stroke" mask="url(#Clip599)" />
    <path d="M 19.662382802734385 11.314999999999998  C 19.662382773437514 10.529999990234373  19.019882792968758 10.182500000000001  18.23238282226563 10.182500000000001  L 8.432382812500006 10.182500000000001  C 7.647382802734381 10.182500000000001  7.004882822265632 10.529999990234373  7.004882822265632 11.314999999999998  C 7.004882822265632 12.100000009765623  7.647382832031255 12.447499999999998  8.432382812500006 12.447499999999998  L 18.23238282226563 12.447499999999998  C 19.019882822265636 12.447499999999998  19.662382832031255 12.100000009765623  19.662382802734385 11.314999999999998  Z " stroke-width="0" stroke-dasharray="0" stroke="rgba(255, 255, 255, 0)" fill="none" transform="matrix(1 0 0 1 65 197 )" class="stroke" mask="url(#Clip599)" />
    <path d="M 2.2898828125000055 10.142500009765627  C 2.2898828125000055 9.357500000000002  2.07738282226563 8.715000019531251  1.2898828222656302 8.714999990234373  C 0.5048828125000053 8.714999990234373  0.30988281250000504 9.357499999999998  0.30988281250000504 10.142500009765623  L 0.30988281250000504 14.065000009765622  C 0.30988281250000504 14.850000019531247  0.5048828125000053 15.492499999999996  1.2898828222656302 15.492499999999996  C 2.07738282226563 15.492499999999996  2.2898828125000055 14.849999990234373  2.2898828125000055 14.065000009765622  L 2.2898828125000055 10.142500009765627  Z " stroke-width="0" stroke-dasharray="0" stroke="rgba(255, 255, 255, 0)" fill="none" transform="matrix(1 0 0 1 65 197 )" class="stroke" mask="url(#Clip599)" />
  </g>
</svg>