<?xml version="1.0" encoding="utf-8"?>
<svg version="1.1" xmlns:xlink="http://www.w3.org/1999/xlink" width="11px" height="11px" xmlns="http://www.w3.org/2000/svg">
  <defs>
    <pattern id="BGPattern" patternUnits="userSpaceOnUse" alignment="0 0" imageRepeat="None" />
    <mask fill="white" id="Clip5858">
      <path d="M 0.34375 5.5  C 0.34375 2.652269965277778  2.6522699652777777 0.34375  5.5 0.34375  C 8.34773003472222 0.34375  10.65625 2.652269965277778  10.65625 5.5  C 10.65625 8.34773003472222  8.34773003472222 10.65625  5.5 10.65625  C 2.652269965277778 10.65625  0.34375 8.34773003472222  0.34375 5.5  Z M 9.89236111111111 5.5  C 9.89236111111111 3.074175347222222  7.925824652777777 1.1076388888888888  5.5 1.1076388888888888  C 3.074175347222222 1.1076388888888888  1.1076388888888888 3.074175347222222  1.1076388888888888 5.5  C 1.1076388888888888 7.925824652777777  3.074175347222222 9.89236111111111  5.5 9.89236111111111  C 7.925824652777777 9.89236111111111  9.89236111111111 7.925824652777777  9.89236111111111 5.5  Z " fill-rule="evenodd" />
    </mask>
  </defs>
  <g transform="matrix(1 0 0 1 -326 -170 )">
    <path d="M 0.34375 5.5  C 0.34375 2.652269965277778  2.6522699652777777 0.34375  5.5 0.34375  C 8.34773003472222 0.34375  10.65625 2.652269965277778  10.65625 5.5  C 10.65625 8.34773003472222  8.34773003472222 10.65625  5.5 10.65625  C 2.652269965277778 10.65625  0.34375 8.34773003472222  0.34375 5.5  Z M 9.89236111111111 5.5  C 9.89236111111111 3.074175347222222  7.925824652777777 1.1076388888888888  5.5 1.1076388888888888  C 3.074175347222222 1.1076388888888888  1.1076388888888888 3.074175347222222  1.1076388888888888 5.5  C 1.1076388888888888 7.925824652777777  3.074175347222222 9.89236111111111  5.5 9.89236111111111  C 7.925824652777777 9.89236111111111  9.89236111111111 7.925824652777777  9.89236111111111 5.5  Z " fill-rule="nonzero" fill="rgba(255, 255, 255, 1)" stroke="none" transform="matrix(1 0 0 1 326 170 )" class="fill" />
    <path d="M 0.34375 5.5  C 0.34375 2.652269965277778  2.6522699652777777 0.34375  5.5 0.34375  C 8.34773003472222 0.34375  10.65625 2.652269965277778  10.65625 5.5  C 10.65625 8.34773003472222  8.34773003472222 10.65625  5.5 10.65625  C 2.652269965277778 10.65625  0.34375 8.34773003472222  0.34375 5.5  Z " stroke-width="0" stroke-dasharray="0" stroke="rgba(255, 255, 255, 0)" fill="none" transform="matrix(1 0 0 1 326 170 )" class="stroke" mask="url(#Clip5858)" />
    <path d="M 9.89236111111111 5.5  C 9.89236111111111 3.074175347222222  7.925824652777777 1.1076388888888888  5.5 1.1076388888888888  C 3.074175347222222 1.1076388888888888  1.1076388888888888 3.074175347222222  1.1076388888888888 5.5  C 1.1076388888888888 7.925824652777777  3.074175347222222 9.89236111111111  5.5 9.89236111111111  C 7.925824652777777 9.89236111111111  9.89236111111111 7.925824652777777  9.89236111111111 5.5  Z " stroke-width="0" stroke-dasharray="0" stroke="rgba(255, 255, 255, 0)" fill="none" transform="matrix(1 0 0 1 326 170 )" class="stroke" mask="url(#Clip5858)" />
  </g>
</svg>