<?xml version="1.0" encoding="utf-8"?>
<svg version="1.1" xmlns:xlink="http://www.w3.org/1999/xlink" width="75px" height="147px" xmlns="http://www.w3.org/2000/svg">
  <defs>
    <pattern id="BGPattern" patternUnits="userSpaceOnUse" alignment="0 0" imageRepeat="None" />
    <mask fill="white" id="Clip10905">
      <path d="M 0 132  L 0 9  C 0 6.199999999999989  2.1999999999999886 4  5 4  L 49.37209302325584 4  L 52.78356713426854 0  L 55.684385382059816 4  L 60 4  C 62.80000000000001 4  65 6.199999999999989  65 9  L 65 132  C 65 134.8  62.80000000000001 137  60 137  L 5 137  C 2.1999999999999886 137  0 134.8  0 132  Z " fill-rule="evenodd" />
    </mask>
  </defs>
  <g transform="matrix(1 0 0 1 -234 -132 )">
    <path d="M 0 132  L 0 9  C 0 6.199999999999989  2.1999999999999886 4  5 4  L 49.37209302325584 4  L 52.78356713426854 0  L 55.684385382059816 4  L 60 4  C 62.80000000000001 4  65 6.199999999999989  65 9  L 65 132  C 65 134.8  62.80000000000001 137  60 137  L 5 137  C 2.1999999999999886 137  0 134.8  0 132  Z " fill-rule="nonzero" fill="rgba(255, 255, 255, 1)" stroke="none" transform="matrix(1 0 0 1 239 137 )" class="fill" />
    <path d="M 0 132  L 0 9  C 0 6.199999999999989  2.1999999999999886 4  5 4  L 49.37209302325584 4  L 52.78356713426854 0  L 55.684385382059816 4  L 60 4  C 62.80000000000001 4  65 6.199999999999989  65 9  L 65 132  C 65 134.8  62.80000000000001 137  60 137  L 5 137  C 2.1999999999999886 137  0 134.8  0 132  Z " stroke-width="0" stroke-dasharray="0" stroke="rgba(121, 121, 121, 1)" fill="none" transform="matrix(1 0 0 1 239 137 )" class="stroke" mask="url(#Clip10905)" />
  </g>
  <style>svg { filter: drop-shadow(0px 0px 2.5px rgba(0, 0, 0, 0.34901960784313724)); }</style>
</svg>