<?xml version="1.0" encoding="utf-8"?>
<svg version="1.1" xmlns:xlink="http://www.w3.org/1999/xlink" width="180px" height="40px" xmlns="http://www.w3.org/2000/svg">
  <defs>
    <pattern id="BGPattern" patternUnits="userSpaceOnUse" alignment="0 0" imageRepeat="None" />
    <mask fill="white" id="Clip4019">
      <path d="M 128.54823055578123 4.554032521986862  C 128.54823055578123 4.554032521986862  120.11877530602385 4.554032521986862  120.11877530602385 4.554032521986862  C 119.00593021416324 4.554032521986862  118.09087294291686 5.468535705268614  118.09087294291686 6.581850285979572  C 118.09087294291686 7.695172562714894  119.00593021416324 8.609706530094106  120.11877530602385 8.609706530094106  C 120.11877530602385 8.609706530094106  128.5682402185671 8.609706530094106  128.5682402185671 8.609706530094106  C 128.5682402185671 8.609706530094106  128.5682402185671 9.36514828179351  128.5682402185671 9.36514828179351  C 128.5682402185671 9.36514828179351  123.28030202619213 9.36514828179351  123.28030202619213 9.36514828179351  C 120.47664042892508 9.36514828179351  118.21016131721726 11.631550497135377  118.21016131721726 14.434750411958024  C 118.21016131721726 14.434750411958024  118.21016131721726 28.351240391027726  118.21016131721726 28.351240391027726  C 118.21016131721726 28.351240391027726  117.45518134825792 28.351240391027726  117.45518134825792 28.351240391027726  C 116.34156665398245 28.351240391027726  115.42727898515093 29.265682006114552  115.42727898515093 30.378988890801146  C 115.42727898515093 31.49237273573139  116.34156665398245 32.406814350818216  117.45518134825792 32.406814350818216  C 117.45518134825792 32.406814350818216  143.77712314066193 32.406814350818216  143.77712314066193 32.406814350818216  C 144.89073783493734 32.406814350818216  145.80502550376892 31.49237273573139  145.80502550376892 30.378988890801146  C 145.80502550376892 29.265682006114552  144.89073783493734 28.351240391027726  143.77712314066193 28.351240391027726  C 143.77712314066193 28.351240391027726  143.0213735692877 28.351240391027726  143.0213735692877 28.351240391027726  C 143.0213735692877 28.351240391027726  143.0213735692877 14.434750411958024  143.0213735692877 14.434750411958024  C 143.0213735692877 11.631550497135377  140.75489445757992 9.36514828179351  137.9520024627277 9.36514828179351  C 137.9520024627277 9.36514828179351  132.60403528199512 9.36514828179351  132.60403528199512 9.36514828179351  C 132.60403528199512 9.36514828179351  132.60403528199512 8.609706530094106  132.60403528199512 8.609706530094106  C 132.60403528199512 8.609706530094106  141.11275958048117 8.609706530094106  141.11275958048117 8.609706530094106  C 142.2263742747566 8.609706530094106  143.14066194358813 7.695172562714894  143.14066194358813 6.581850285979572  C 143.14066194358813 5.468535705268614  142.2263742747566 4.554032521986862  141.11275958048117 4.554032521986862  C 141.11275958048117 4.554032521986862  132.60403528199512 4.554032521986862  132.60403528199512 4.554032521986862  C 132.60403528199512 4.554032521986862  132.60403528199512 4.057015572450399  132.60403528199512 4.057015572450399  C 132.60403528199512 2.943693295715076  131.6897476131636 2.029174720384594  130.57613291888816 2.029174720384594  C 129.46328782702756 2.029174720384594  128.54823055578123 2.943693295715076  128.54823055578123 4.057015572450399  C 128.54823055578123 4.057015572450399  128.54823055578123 4.554032521986862  128.54823055578123 4.554032521986862  Z M 138.9655688430738 14.434750411958024  C 138.9655688430738 14.434750411958024  138.9655688430738 28.351240391027726  138.9655688430738 28.351240391027726  C 138.9655688430738 28.351240391027726  122.24595638064532 28.351240391027726  122.24595638064532 28.351240391027726  C 122.24595638064532 28.351240391027726  122.24595638064532 14.434750411958024  122.24595638064532 14.434750411958024  C 122.24595638064532 13.878096969614727  122.70386981747595 13.42079920182766  123.26029236340625 13.42079920182766  C 123.26029236340625 13.42079920182766  137.9520024627277 13.42079920182766  137.9520024627277 13.42079920182766  C 138.508425008658 13.42079920182766  138.9655688430738 13.878096969614727  138.9655688430738 14.434750411958024  Z M 175.42702245101265 17.07887350314959  C 175.42702245101265 17.07887350314959  164.29395391791763 17.07887350314959  164.29395391791763 17.07887350314959  C 161.76888839482314 17.07887350314959  159.74098603171618 19.126554706029182  159.74098603171618 21.631533676695838  C 159.74098603171618 21.631533676695838  159.74098603171618 27.834298434409458  159.74098603171618 27.834298434409458  C 159.74098603171618 30.35913314793863  161.788898057609 32.386958607955705  164.29395391791763 32.386958607955705  C 164.29395391791763 32.386958607955705  175.42702245101265 32.386958607955705  175.42702245101265 32.386958607955705  C 177.95208797410714 32.386958607955705  179.9799903372141 30.339277405076118  179.9799903372141 27.834298434409458  C 179.9799903372141 27.834298434409458  179.9799903372141 21.631533676695838  179.9799903372141 21.631533676695838  C 179.9799903372141 19.106698963166664  177.93207831132125 17.07887350314959  175.42702245101265 17.07887350314959  Z M 5.109336559962717 15.687201417169526  C 5.109336559962717 15.687201417169526  8.369734102365673 5.051049471523326  8.369734102365673 5.051049471523326  C 8.52881092151338 4.554032521986862  9.204752722468543 4.494380637131299  9.443329471069362 4.951639924796541  C 9.443329471069362 4.951639924796541  11.391654944481735 8.887994771143928  11.391654944481735 8.887994771143928  C 12.266385049190418 10.637531990111182  14.035777961152181 11.730983131935258  15.984103434564554 11.730983131935258  C 15.984103434564554 11.730983131935258  22.445300508365147 11.730983131935258  22.445300508365147 11.730983131935258  C 24.393625981777525 11.730983131935258  26.182874636042186 10.617599287005014  27.03774899844797 8.887994771143928  C 27.03774899844797 8.887994771143928  28.98599751161886 4.951639924796541  28.98599751161886 4.951639924796541  C 29.224574260219676 4.474501806195688  29.90051606117484 4.534145995026886  30.059592880322548 5.051049471523326  C 30.059592880322548 5.051049471523326  33.280225065950646 15.70705716003204  33.280225065950646 15.70705716003204  C 33.65802289139627 16.93972938262468  33.83687849260541 18.231968833804867  33.83687849260541 19.52420828498505  C 33.83687849260541 19.52420828498505  33.83687849260541 29.663335585070424  33.83687849260541 29.663335585070424  C 33.83687849260541 31.035074967944322  32.7235716392959 32.14838185263091  31.351832295082666 32.14838185263091  C 31.351832295082666 32.14838185263091  30.039737138019643 32.14838185263091  30.039737138019643 32.14838185263091  C 30.039737138019643 32.14838185263091  25.844865255443864 32.14838185263091  25.844865255443864 32.14838185263091  C 25.12921196988289 32.14838185263091  24.671914214984156 32.923756307436484  25.009923595582478 33.55990968147349  C 25.009923595582478 33.55990968147349  26.162941933497795 35.70702351915296  26.162941933497795 35.70702351915296  C 26.500951314096124 36.32332115032746  27.137104670203986 36.70111898642081  27.83297917370353 36.70111898642081  C 27.83297917370353 36.70111898642081  28.687853536109316 36.70111898642081  28.687853536109316 36.70111898642081  C 28.727565020715133 36.70111898642081  28.747420763018035 36.70111898642081  28.78720920786533 36.70111898642081  C 28.78720920786533 36.70111898642081  31.351832295082666 36.70111898642081  31.351832295082666 36.70111898642081  C 35.248406281665936 36.70111898642081  38.3896154980824 33.54005393861098  38.3896154980824 29.663335585070424  C 38.3896154980824 29.663335585070424  38.3896154980824 19.52420828498505  38.3896154980824 19.52420828498505  C 38.3896154980824 17.794526808880313  38.13118300717868 16.06492229301923  37.63409680743265 14.394961965989342  C 37.63409680743265 14.394961965989342  34.41346462180454 3.738915797358798  34.41346462180454 3.738915797358798  C 33.06158101989422 -0.7143579175337591  26.958172108753367 -1.2312613940301986  24.89063522128207 2.943685599690711  C 24.89063522128207 2.943685599690711  22.942309747869697 6.880063534111196  22.942309747869697 6.880063534111196  C 22.84287711587219 7.078874931540399  22.644088812118675 7.198163309202795  22.425367805820756 7.198163309202795  C 22.425367805820756 7.198163309202795  15.964170732020163 7.198163309202795  15.964170732020163 7.198163309202795  C 15.74552668596373 7.198163309202795  15.546661421968729 7.078874931540399  15.447305750212708 6.880063534111196  C 15.447305750212708 6.880063534111196  13.498980276800335 2.943685599690711  13.498980276800335 2.943685599690711  C 11.43136642908755 -1.2312613940301986  5.3280190861398875 -0.7143579175337591  3.9761354842295638 3.738915797358798  C 3.9761354842295638 3.738915797358798  0.7554602008662302 14.394961965989342  0.7554602008662302 14.394961965989342  C 0.25844326533753476 16.06492229301923  0 17.794526808880313  0 19.52420828498505  C 0 19.52420828498505  0 29.663335585070424  0 29.663335585070424  C 0 33.55990968147349  3.16102647859864 36.70111898642081  7.037760114927293 36.70111898642081  C 7.037760114927293 36.70111898642081  19.343879736795973 36.70111898642081  19.343879736795973 36.70111898642081  C 19.343879736795973 36.70111898642081  20.536763479800076 38.768655932162915  20.536763479800076 38.768655932162915  C 21.172916835907937 39.862107073987  22.56458888266556 40.239827949836695  23.658039993672155 39.60367457579969  C 24.751414144437266 38.967444241519026  25.12921196988289 37.57584911578261  24.49298165353354 36.482397973958534  C 24.49298165353354 36.482397973958534  23.041665419625712 33.97741900329188  23.041665419625712 33.97741900329188  C 22.385656321214945 32.8243236726366  21.153061093605032 32.1285261097684  19.84088897630052 32.1285261097684  C 19.84088897630052 32.1285261097684  7.037760114927293 32.1285261097684  7.037760114927293 32.1285261097684  C 5.665997682641617 32.1285261097684  4.552675437283815 31.015219225081804  4.552675437283815 29.643402881964253  C 4.552675437283815 29.643402881964253  4.552675437283815 19.504275581878883  4.552675437283815 19.504275581878883  C 4.552675437283815 18.2120361306987  4.751479133085636 16.919796679518512  5.109336559962717 15.687201417169526  Z M 70.15895710321651 12.98343413714676  C 70.97404302077499 12.168348196616158  70.97404302077499 10.895964488298485  70.17881284551942 10.100734290630399  C 69.38358267026385 9.305504092962313  68.11119899780664 9.305504092962313  67.31596882255106 10.100734290630399  C 67.31596882255106 10.100734290630399  48.628175144407344 28.808461198571138  48.628175144407344 28.808461198571138  C 48.44924258295673 28.987393765064734  48.29016576380901 29.206037817283352  48.19073313181151 29.444614572608145  C 48.0515890152082 29.72297977390162  47.95223334345218 30.041056460920124  47.95223334345218 30.378988890801146  C 47.95223334345218 31.49237273573139  48.86667493276667 32.406814350818216  49.98005874631766 32.406814350818216  C 49.98005874631766 32.406814350818216  74.65197296130181 32.406814350818216  74.65197296130181 32.406814350818216  C 75.12904949826196 32.406814350818216  75.54655880831342 32.247814487430794  75.88456818891174 31.98938198924349  C 76.7592982936204 31.392940100931508  77.0572113884055 30.219989027413725  76.5207215450196 29.285614709220724  C 76.5207215450196 29.285614709220724  73.97603116034665 24.891954399061902  73.97603116034665 24.891954399061902  C 73.41937773369192 23.91779163490022  72.18678250608198 23.599714947881715  71.2126197693758 24.15636839022501  C 70.23845703266961 24.71302183256831  69.92038035461567 25.94561709491729  70.47703378127044 26.91977985907897  C 70.47703378127044 26.91977985907897  71.3119754411318 28.37109613389024  71.3119754411318 28.37109613389024  C 71.3119754411318 28.37109613389024  54.791151282456916 28.37109613389024  54.791151282456916 28.37109613389024  C 54.791151282456916 28.37109613389024  70.15895710321651 12.98343413714676  70.15895710321651 12.98343413714676  Z M 48.50888677010693 15.726989863138208  C 48.50888677010693 15.726989863138208  60.77527181929736 3.4605890761871505  60.77527181929736 3.4605890761871505  C 61.57050199455293 2.6653588785190636  62.84280870676865 2.6653588785190636  63.63803888202422 3.4605890761871505  C 64.4332690572798 4.2558115778308725  64.4332690572798 5.528179894099813  63.63803888202422 6.323410091767901  C 63.63803888202422 6.323410091767901  51.37165383283381 18.5897570065484  51.37165383283381 18.5897570065484  C 50.57642365757824 19.384987204216486  49.304116945362516 19.384987204216486  48.50888677010693 18.5897570065484  C 47.71365659485136 17.794526808880313  47.71365659485136 16.522220060806294  48.50888677010693 15.726989863138208  Z M 104.3334601752128 12.98343413714676  C 105.14923873494463 12.168348196616158  105.14923873494463 10.895964488298485  104.35346983799867 10.100734290630399  C 103.55847054346756 9.305504092962313  102.2863177517348 9.305504092962313  101.49054885478883 10.100734290630399  C 101.49054885478883 10.100734290630399  82.80306301761107 28.808461198571138  82.80306301761107 28.808461198571138  C 82.62374565495303 28.987393765064734  82.46520755749572 29.206037817283352  82.36592884598119 29.444614572608145  C 82.2266308088949 29.72297977390162  82.12735209738035 30.041056460920124  82.12735209738035 30.378988890801146  C 82.12735209738035 31.49237273573139  83.04163976621189 32.406814350818216  84.15525446048733 32.406814350818216  C 84.15525446048733 32.406814350818216  108.82716867547148 32.406814350818216  108.82716867547148 32.406814350818216  C 109.30432217267311 32.406814350818216  109.72144668151714 32.247814487430794  110.05930214163249 31.98938198924349  C 110.93434008730713 31.392940100931508  111.23217622185074 30.219989027413725  110.69576333870629 29.285614709220724  C 110.69576333870629 29.285614709220724  108.15068815282592 24.891954399061902  108.15068815282592 24.891954399061902  C 107.59426560689563 23.91779163490022  106.36136253831978 23.599714947881715  105.38781548354545 24.15636839022501  C 104.4134988263563 24.71302183256831  104.09488342661201 25.94561709491729  104.65207557495714 26.91977985907897  C 104.65207557495714 26.91977985907897  105.48709419506001 28.37109613389024  105.48709419506001 28.37109613389024  C 105.48709419506001 28.37109613389024  88.96603915566062 28.37109613389024  88.96603915566062 28.37109613389024  C 88.96603915566062 28.37109613389024  104.3334601752128 12.98343413714676  104.3334601752128 12.98343413714676  Z M 82.68377464331066 15.726989863138208  C 82.68377464331066 15.726989863138208  94.95046753346702 3.4605890761871505  94.95046753346702 3.4605890761871505  C 95.74546682799814 2.6653588785190636  97.0176196197309 2.6653588785190636  97.81261891426202 3.4605890761871505  C 98.60838781120796 4.2558115778308725  98.60838781120796 5.528179894099813  97.81261891426202 6.323410091767901  C 97.81261891426202 6.323410091767901  85.54669562652049 18.5897570065484  85.54669562652049 18.5897570065484  C 84.75169633198936 19.384987204216486  83.47877393784177 19.384987204216486  82.68377464331066 18.5897570065484  C 81.88877534877953 17.794526808880313  81.88877534877953 16.522220060806294  82.68377464331066 15.726989863138208  Z M 177.83279959980672 2.347274495476194  C 178.90639496851043 2.307509137580607  179.84069230012784 3.1822546589911376  179.88071162569958 4.295569239702094  C 179.9199613488565 5.408891516437418  179.04569300559672 6.363167753639123  177.93207831132125 6.402933111534709  C 177.93207831132125 6.402933111534709  172.00767892187253 6.621623339899524  172.00767892187253 6.621623339899524  C 172.00767892187253 6.641502170835134  172.00767892187253 6.6812675287307215  172.00767892187253 6.701146359666332  C 172.00767892187253 6.701146359666332  172.00767892187253 9.484436659455906  172.00767892187253 9.484436659455906  C 172.00767892187253 9.484436659455906  173.71773548764997 9.484436659455906  173.71773548764997 9.484436659455906  C 173.71773548764997 9.484436659455906  173.99556195940775 8.450629706463028  173.99556195940775 8.450629706463028  C 174.2941676963662 7.377080483647659  175.3870031254409 6.721017494577578  176.4806081569305 7.019230742709201  C 177.55420352563416 7.2975574638808505  178.19066472270796 8.410841260494344  177.91206864853538 9.484436659455906  C 177.91206864853538 9.484436659455906  177.972097636893 9.484436659455906  177.972097636893 9.484436659455906  C 179.08494272875362 9.484436659455906  180 10.398955234786389  180 11.51226211947298  C 180 12.506280626497176  179.2842697541975 13.321443527271432  178.34920282016526 13.500299133521372  C 178.34920282016526 13.500299133521372  178.56853950839505 13.977452644170956  178.56853950839505 13.977452644170956  C 179.02568334281085 14.991403854301318  178.56853950839505 16.20406641354414  177.55420352563416 16.66136418133121  C 176.54063714528812 17.11858498887462  175.32774373949812 16.66136418133121  174.87059990508234 15.647489931444497  C 174.87059990508234 15.647489931444497  173.93630257346496 13.55994332235257  173.93630257346496 13.55994332235257  C 173.93630257346496 13.55994332235257  172.0476982474443 13.55994332235257  172.0476982474443 13.55994332235257  C 172.0476982474443 13.55994332235257  172.0476982474443 14.573894532482933  172.0476982474443 14.573894532482933  C 172.0476982474443 15.687201417169526  171.1326409761979 16.60171999250001  170.0197958843373 16.60171999250001  C 168.90618119006186 16.60171999250001  167.99189352123034 15.687201417169526  167.99189352123034 14.573894532482933  C 167.99189352123034 14.573894532482933  167.99189352123034 13.55994332235257  167.99189352123034 13.55994332235257  C 167.99189352123034 13.55994332235257  166.3018466182387 13.55994332235257  166.3018466182387 13.55994332235257  C 166.3018466182387 13.55994332235257  165.3675492866213 15.647489931444497  165.3675492866213 15.647489931444497  C 164.91040545220554 16.66136418133121  163.71752170920143 17.11858498887462  162.68394566606952 16.66136418133121  C 161.66960968330858 16.20406641354414  161.21246584889283 15.011259597163832  161.66960968330858 13.977452644170956  C 161.66960968330858 13.977452644170956  161.86816710633767 13.540087579490056  161.86816710633767 13.540087579490056  C 160.83459106320572 13.440654944690174  160.01958210588876 12.58578055819089  160.01958210588876 11.532117862335497  C 160.01958210588876 10.418810977648905  160.93386977472025 9.504292402318422  162.04748446899572 9.504292402318422  C 162.04748446899572 9.504292402318422  162.30607088038238 9.504292402318422  162.30607088038238 9.504292402318422  C 162.02747480620982 8.430773963600513  162.66393600328362 7.3373228217764375  163.73753137198733 7.039117269669179  C 164.811126740691 6.740904021537554  165.92397183255162 7.396967010607636  166.22257756951007 8.470562409569196  C 166.22257756951007 8.470562409569196  166.50040404126779 9.504292402318422  166.50040404126779 9.504292402318422  C 166.50040404126779 9.504292402318422  167.99189352123034 9.504292402318422  167.99189352123034 9.504292402318422  C 167.99189352123034 9.504292402318422  167.99189352123034 6.780653987384412  167.99189352123034 6.780653987384412  C 167.99189352123034 6.780653987384412  163.14108950048526 6.959586553878005  163.14108950048526 6.959586553878005  C 162.02747480620982 6.999351911773592  161.07316781180657 6.12459099831433  161.03314848623478 5.011276417603373  C 160.9938987630779 3.897954140868051  161.86816710633767 2.943693295715076  162.9817818006131 2.903927937819489  C 162.9817818006131 2.903927937819489  177.83279959980672 2.347274495476194  177.83279959980672 2.347274495476194  Z M 151.63014618170314 4.534145995026886  C 151.63014618170314 4.534145995026886  151.63014618170314 4.554032521986862  151.63014618170314 4.554032521986862  C 150.51653148742767 4.554032521986862  149.60224381859618 5.468535705268614  149.60224381859618 6.581850285979572  C 149.60224381859618 7.695172562714894  150.51653148742767 8.609706530094106  151.63014618170314 8.609706530094106  C 151.63014618170314 8.609706530094106  153.53876017050968 8.609706530094106  153.53876017050968 8.609706530094106  C 153.53876017050968 8.609706530094106  153.53876017050968 17.675238431217917  153.53876017050968 17.675238431217917  C 153.53876017050968 17.675238431217917  150.85438694754302 20.35914996837817  150.85438694754302 20.35914996837817  C 150.0593876530119 21.154380166046252  150.0593876530119 22.426763874363928  150.85438694754302 23.22199407203201  C 151.59012685613138 23.9575800808689  152.74299127356375 24.0172242697001  153.53876017050968 23.381070895663093  C 153.53876017050968 23.381070895663093  153.53876017050968 27.337289180897358  153.53876017050968 27.337289180897358  C 153.53876017050968 27.893942623240658  153.08084673367907 28.351240391027726  152.5244241877488 28.351240391027726  C 152.5244241877488 28.351240391027726  151.63014618170314 28.351240391027726  151.63014618170314 28.351240391027726  C 150.51653148742767 28.351240391027726  149.60224381859618 29.265682006114552  149.60224381859618 30.378988890801146  C 149.60224381859618 31.49237273573139  150.51653148742767 32.406814350818216  151.63014618170314 32.406814350818216  C 151.63014618170314 32.406814350818216  152.5244241877488 32.406814350818216  152.5244241877488 32.406814350818216  C 155.32808578501584 32.406814350818216  157.5937952943088 30.14048909572001  157.5937952943088 27.337289180897358  C 157.5937952943088 27.337289180897358  157.5937952943088 19.345275718491457  157.5937952943088 19.345275718491457  C 157.5937952943088 19.345275718491457  160.2181395289178 16.721008370162405  160.2181395289178 16.721008370162405  C 161.01390842586378 15.925778172494319  161.01390842586378 14.653394464176646  160.2181395289178 13.85816426650856  C 159.50240928311533 13.142510960777837  158.38956419125475 13.08286677194664  157.5937952943088 13.639520214289934  C 157.5937952943088 13.639520214289934  157.5937952943088 8.589773826987939  157.5937952943088 8.589773826987939  C 157.5937952943088 8.589773826987939  159.2445924741435 8.589773826987939  159.2445924741435 8.589773826987939  C 160.3574375660041 8.589773826987939  161.2717252348356 7.675286035754918  161.2717252348356 6.561963759019596  C 161.2717252348356 5.448649178308639  160.3574375660041 4.534145995026886  159.2445924741435 4.534145995026886  C 159.2445924741435 4.534145995026886  157.5937952943088 4.534145995026886  157.5937952943088 4.534145995026886  C 157.5937952943088 4.534145995026886  157.5937952943088 4.037129045490423  157.5937952943088 4.037129045490423  C 157.5937952943088 2.9238067687551004  156.67950762547727 2.0093035854733485  155.56666253361666 2.0093035854733485  C 154.45304783934122 2.0093035854733485  153.53876017050968 2.9238067687551004  153.53876017050968 4.037129045490423  C 153.53876017050968 4.037129045490423  153.53876017050968 4.534145995026886  153.53876017050968 4.534145995026886  C 153.53876017050968 4.534145995026886  151.63014618170314 4.534145995026886  151.63014618170314 4.534145995026886  Z M 163.7767810951442 27.834298434409458  C 163.7767810951442 27.834298434409458  163.7767810951442 21.631533676695838  163.7767810951442 21.631533676695838  C 163.7767810951442 21.353168475402363  163.99534818095918 21.13452442318374  164.27394425513174 21.13452442318374  C 164.27394425513174 21.13452442318374  175.4070127882268 21.13452442318374  175.4070127882268 21.13452442318374  C 175.68560886239936 21.13452442318374  175.90417594821432 21.353168475402363  175.90417594821432 21.631533676695838  C 175.90417594821432 21.631533676695838  175.90417594821432 27.834298434409458  175.90417594821432 27.834298434409458  C 175.90417594821432 28.112663635702933  175.68560886239936 28.33130768792156  175.4070127882268 28.33130768792156  C 175.4070127882268 28.33130768792156  164.27394425513174 28.33130768792156  164.27394425513174 28.33130768792156  C 163.99534818095918 28.33130768792156  163.7767810951442 28.112663635702933  163.7767810951442 27.834298434409458  Z M 19.38366818164327 19.96157334966595  C 19.860821678844907 19.941640646559783  20.23854254404905 20.31943848265314  20.23854254404905 20.79651503305907  C 20.23854254404905 21.273668543708652  19.84088897630052 21.67132212266452  19.363812439340364 21.67132212266452  C 18.727582122991016 21.67132212266452  18.21071714118356 22.188187119039135  18.21071714118356 22.824340493076143  C 18.21071714118356 23.460570827356804  18.727582122991016 23.97743582373142  19.363812439340364 23.97743582373142  C 19.84088897630052 23.97743582373142  20.23854254404905 24.375089402687287  20.23854254404905 24.852165953093216  C 20.23854254404905 25.329319463742802  19.84088897630052 25.726973042698674  19.363812439340364 25.726973042698674  C 18.727582122991016 25.726973042698674  18.21071714118356 26.243838039073285  18.21071714118356 26.87999141311029  C 18.21071714118356 27.516221747390954  18.727582122991016 28.033086743765566  19.363812439340364 28.033086743765566  C 19.84088897630052 28.033086743765566  20.23854254404905 28.430740322721437  20.23854254404905 28.907893833371013  C 20.23854254404905 29.384970383776945  19.860821678844907 29.76269125962665  19.38366818164327 29.78262396273282  C 17.79320783113213 29.78262396273282  16.500968416372004 28.490384511552634  16.500968416372004 26.89992411621646  C 16.500968416372004 26.223982296210767  16.739545164972828 25.58782892217376  17.13712177247987 25.09074270841801  C 17.176910217327173 25.031098519586806  17.196765959630078 24.951598587893102  17.196765959630078 24.872098656199384  C 17.196765959630078 24.792598724505673  17.176910217327173 24.71302183256831  17.13712177247987 24.65337764373711  C 16.739545164972828 24.15636839022501  16.500968416372004 23.520215016188  16.500968416372004 22.84427319618231  C 16.500968416372004 21.253812800846134  17.79320783113213 19.96157334966595  19.38366818164327 19.96157334966595  Z M 125.12888702664105 14.79261554494521  C 124.25384908096646 14.79261554494521  123.53888843757882 15.508268850675933  123.53888843757882 16.38299898003773  C 123.53888843757882 17.257806069643184  124.23460902059539 17.973459375373906  125.12888702664105 17.973459375373906  C 125.12888702664105 17.973459375373906  136.02337881113527 17.973459375373906  136.02337881113527 17.973459375373906  C 136.8984167568099 17.973459375373906  137.61414700261236 17.257806069643184  137.61414700261236 16.38299898003773  C 137.61414700261236 15.508268850675933  136.8984167568099 14.79261554494521  136.02337881113527 14.79261554494521  C 136.02337881113527 14.79261554494521  125.12888702664105 14.79261554494521  125.12888702664105 14.79261554494521  Z M 136.00336914834938 23.91779163490022  C 136.00336914834938 23.91779163490022  125.10887736385519 23.91779163490022  125.10887736385519 23.91779163490022  C 124.23460902059539 23.91779163490022  123.51887877479295 24.633521900874594  123.51887877479295 25.50825203023639  C 123.51887877479295 26.382982159598193  124.23460902059539 27.098712425572565  125.10887736385519 27.098712425572565  C 125.10887736385519 27.098712425572565  136.00336914834938 27.098712425572565  136.00336914834938 27.098712425572565  C 136.87840709402403 27.098712425572565  137.5941373398265 26.382982159598193  137.5941373398265 25.50825203023639  C 137.5941373398265 24.633521900874594  136.87840709402403 23.91779163490022  136.00336914834938 23.91779163490022  Z M 125.12888702664105 19.345275718491457  C 124.25384908096646 19.345275718491457  123.53888843757882 20.060929024222176  123.53888843757882 20.93573611382763  C 123.53888843757882 21.81046624318943  124.23460902059539 22.526196509163803  125.12888702664105 22.526196509163803  C 125.12888702664105 22.526196509163803  136.02337881113527 22.526196509163803  136.02337881113527 22.526196509163803  C 136.8984167568099 22.526196509163803  137.61414700261236 21.81046624318943  137.61414700261236 20.93573611382763  C 137.61414700261236 20.060929024222176  136.8984167568099 19.345275718491457  136.02337881113527 19.345275718491457  C 136.02337881113527 19.345275718491457  125.12888702664105 19.345275718491457  125.12888702664105 19.345275718491457  Z M 171.57054475024262 25.52810777309891  C 172.32552471920198 25.09074270841801  172.32552471920198 23.997291566593933  171.57054475024262 23.559926501913033  C 171.57054475024262 23.559926501913033  169.28405597574897 22.227975565007817  169.28405597574897 22.227975565007817  C 168.52830640437475 21.790610500326917  167.57399940997146 22.347263942670214  167.57399940997146 23.22199407203201  C 167.57399940997146 23.22199407203201  167.57399940997146 25.846261420361067  167.57399940997146 25.846261420361067  C 167.57399940997146 26.720991549722864  168.52830640437475 27.27764499206616  169.28405597574897 26.84027992738526  C 169.28405597574897 26.84027992738526  171.57054475024262 25.52810777309891  171.57054475024262 25.52810777309891  Z " fill-rule="evenodd" />
    </mask>
  </defs>
  <g transform="matrix(1 0 0 1 -515 -141 )">
    <path d="M 128.54823055578123 4.554032521986862  C 128.54823055578123 4.554032521986862  120.11877530602385 4.554032521986862  120.11877530602385 4.554032521986862  C 119.00593021416324 4.554032521986862  118.09087294291686 5.468535705268614  118.09087294291686 6.581850285979572  C 118.09087294291686 7.695172562714894  119.00593021416324 8.609706530094106  120.11877530602385 8.609706530094106  C 120.11877530602385 8.609706530094106  128.5682402185671 8.609706530094106  128.5682402185671 8.609706530094106  C 128.5682402185671 8.609706530094106  128.5682402185671 9.36514828179351  128.5682402185671 9.36514828179351  C 128.5682402185671 9.36514828179351  123.28030202619213 9.36514828179351  123.28030202619213 9.36514828179351  C 120.47664042892508 9.36514828179351  118.21016131721726 11.631550497135377  118.21016131721726 14.434750411958024  C 118.21016131721726 14.434750411958024  118.21016131721726 28.351240391027726  118.21016131721726 28.351240391027726  C 118.21016131721726 28.351240391027726  117.45518134825792 28.351240391027726  117.45518134825792 28.351240391027726  C 116.34156665398245 28.351240391027726  115.42727898515093 29.265682006114552  115.42727898515093 30.378988890801146  C 115.42727898515093 31.49237273573139  116.34156665398245 32.406814350818216  117.45518134825792 32.406814350818216  C 117.45518134825792 32.406814350818216  143.77712314066193 32.406814350818216  143.77712314066193 32.406814350818216  C 144.89073783493734 32.406814350818216  145.80502550376892 31.49237273573139  145.80502550376892 30.378988890801146  C 145.80502550376892 29.265682006114552  144.89073783493734 28.351240391027726  143.77712314066193 28.351240391027726  C 143.77712314066193 28.351240391027726  143.0213735692877 28.351240391027726  143.0213735692877 28.351240391027726  C 143.0213735692877 28.351240391027726  143.0213735692877 14.434750411958024  143.0213735692877 14.434750411958024  C 143.0213735692877 11.631550497135377  140.75489445757992 9.36514828179351  137.9520024627277 9.36514828179351  C 137.9520024627277 9.36514828179351  132.60403528199512 9.36514828179351  132.60403528199512 9.36514828179351  C 132.60403528199512 9.36514828179351  132.60403528199512 8.609706530094106  132.60403528199512 8.609706530094106  C 132.60403528199512 8.609706530094106  141.11275958048117 8.609706530094106  141.11275958048117 8.609706530094106  C 142.2263742747566 8.609706530094106  143.14066194358813 7.695172562714894  143.14066194358813 6.581850285979572  C 143.14066194358813 5.468535705268614  142.2263742747566 4.554032521986862  141.11275958048117 4.554032521986862  C 141.11275958048117 4.554032521986862  132.60403528199512 4.554032521986862  132.60403528199512 4.554032521986862  C 132.60403528199512 4.554032521986862  132.60403528199512 4.057015572450399  132.60403528199512 4.057015572450399  C 132.60403528199512 2.943693295715076  131.6897476131636 2.029174720384594  130.57613291888816 2.029174720384594  C 129.46328782702756 2.029174720384594  128.54823055578123 2.943693295715076  128.54823055578123 4.057015572450399  C 128.54823055578123 4.057015572450399  128.54823055578123 4.554032521986862  128.54823055578123 4.554032521986862  Z M 138.9655688430738 14.434750411958024  C 138.9655688430738 14.434750411958024  138.9655688430738 28.351240391027726  138.9655688430738 28.351240391027726  C 138.9655688430738 28.351240391027726  122.24595638064532 28.351240391027726  122.24595638064532 28.351240391027726  C 122.24595638064532 28.351240391027726  122.24595638064532 14.434750411958024  122.24595638064532 14.434750411958024  C 122.24595638064532 13.878096969614727  122.70386981747595 13.42079920182766  123.26029236340625 13.42079920182766  C 123.26029236340625 13.42079920182766  137.9520024627277 13.42079920182766  137.9520024627277 13.42079920182766  C 138.508425008658 13.42079920182766  138.9655688430738 13.878096969614727  138.9655688430738 14.434750411958024  Z M 175.42702245101265 17.07887350314959  C 175.42702245101265 17.07887350314959  164.29395391791763 17.07887350314959  164.29395391791763 17.07887350314959  C 161.76888839482314 17.07887350314959  159.74098603171618 19.126554706029182  159.74098603171618 21.631533676695838  C 159.74098603171618 21.631533676695838  159.74098603171618 27.834298434409458  159.74098603171618 27.834298434409458  C 159.74098603171618 30.35913314793863  161.788898057609 32.386958607955705  164.29395391791763 32.386958607955705  C 164.29395391791763 32.386958607955705  175.42702245101265 32.386958607955705  175.42702245101265 32.386958607955705  C 177.95208797410714 32.386958607955705  179.9799903372141 30.339277405076118  179.9799903372141 27.834298434409458  C 179.9799903372141 27.834298434409458  179.9799903372141 21.631533676695838  179.9799903372141 21.631533676695838  C 179.9799903372141 19.106698963166664  177.93207831132125 17.07887350314959  175.42702245101265 17.07887350314959  Z M 5.109336559962717 15.687201417169526  C 5.109336559962717 15.687201417169526  8.369734102365673 5.051049471523326  8.369734102365673 5.051049471523326  C 8.52881092151338 4.554032521986862  9.204752722468543 4.494380637131299  9.443329471069362 4.951639924796541  C 9.443329471069362 4.951639924796541  11.391654944481735 8.887994771143928  11.391654944481735 8.887994771143928  C 12.266385049190418 10.637531990111182  14.035777961152181 11.730983131935258  15.984103434564554 11.730983131935258  C 15.984103434564554 11.730983131935258  22.445300508365147 11.730983131935258  22.445300508365147 11.730983131935258  C 24.393625981777525 11.730983131935258  26.182874636042186 10.617599287005014  27.03774899844797 8.887994771143928  C 27.03774899844797 8.887994771143928  28.98599751161886 4.951639924796541  28.98599751161886 4.951639924796541  C 29.224574260219676 4.474501806195688  29.90051606117484 4.534145995026886  30.059592880322548 5.051049471523326  C 30.059592880322548 5.051049471523326  33.280225065950646 15.70705716003204  33.280225065950646 15.70705716003204  C 33.65802289139627 16.93972938262468  33.83687849260541 18.231968833804867  33.83687849260541 19.52420828498505  C 33.83687849260541 19.52420828498505  33.83687849260541 29.663335585070424  33.83687849260541 29.663335585070424  C 33.83687849260541 31.035074967944322  32.7235716392959 32.14838185263091  31.351832295082666 32.14838185263091  C 31.351832295082666 32.14838185263091  30.039737138019643 32.14838185263091  30.039737138019643 32.14838185263091  C 30.039737138019643 32.14838185263091  25.844865255443864 32.14838185263091  25.844865255443864 32.14838185263091  C 25.12921196988289 32.14838185263091  24.671914214984156 32.923756307436484  25.009923595582478 33.55990968147349  C 25.009923595582478 33.55990968147349  26.162941933497795 35.70702351915296  26.162941933497795 35.70702351915296  C 26.500951314096124 36.32332115032746  27.137104670203986 36.70111898642081  27.83297917370353 36.70111898642081  C 27.83297917370353 36.70111898642081  28.687853536109316 36.70111898642081  28.687853536109316 36.70111898642081  C 28.727565020715133 36.70111898642081  28.747420763018035 36.70111898642081  28.78720920786533 36.70111898642081  C 28.78720920786533 36.70111898642081  31.351832295082666 36.70111898642081  31.351832295082666 36.70111898642081  C 35.248406281665936 36.70111898642081  38.3896154980824 33.54005393861098  38.3896154980824 29.663335585070424  C 38.3896154980824 29.663335585070424  38.3896154980824 19.52420828498505  38.3896154980824 19.52420828498505  C 38.3896154980824 17.794526808880313  38.13118300717868 16.06492229301923  37.63409680743265 14.394961965989342  C 37.63409680743265 14.394961965989342  34.41346462180454 3.738915797358798  34.41346462180454 3.738915797358798  C 33.06158101989422 -0.7143579175337591  26.958172108753367 -1.2312613940301986  24.89063522128207 2.943685599690711  C 24.89063522128207 2.943685599690711  22.942309747869697 6.880063534111196  22.942309747869697 6.880063534111196  C 22.84287711587219 7.078874931540399  22.644088812118675 7.198163309202795  22.425367805820756 7.198163309202795  C 22.425367805820756 7.198163309202795  15.964170732020163 7.198163309202795  15.964170732020163 7.198163309202795  C 15.74552668596373 7.198163309202795  15.546661421968729 7.078874931540399  15.447305750212708 6.880063534111196  C 15.447305750212708 6.880063534111196  13.498980276800335 2.943685599690711  13.498980276800335 2.943685599690711  C 11.43136642908755 -1.2312613940301986  5.3280190861398875 -0.7143579175337591  3.9761354842295638 3.738915797358798  C 3.9761354842295638 3.738915797358798  0.7554602008662302 14.394961965989342  0.7554602008662302 14.394961965989342  C 0.25844326533753476 16.06492229301923  0 17.794526808880313  0 19.52420828498505  C 0 19.52420828498505  0 29.663335585070424  0 29.663335585070424  C 0 33.55990968147349  3.16102647859864 36.70111898642081  7.037760114927293 36.70111898642081  C 7.037760114927293 36.70111898642081  19.343879736795973 36.70111898642081  19.343879736795973 36.70111898642081  C 19.343879736795973 36.70111898642081  20.536763479800076 38.768655932162915  20.536763479800076 38.768655932162915  C 21.172916835907937 39.862107073987  22.56458888266556 40.239827949836695  23.658039993672155 39.60367457579969  C 24.751414144437266 38.967444241519026  25.12921196988289 37.57584911578261  24.49298165353354 36.482397973958534  C 24.49298165353354 36.482397973958534  23.041665419625712 33.97741900329188  23.041665419625712 33.97741900329188  C 22.385656321214945 32.8243236726366  21.153061093605032 32.1285261097684  19.84088897630052 32.1285261097684  C 19.84088897630052 32.1285261097684  7.037760114927293 32.1285261097684  7.037760114927293 32.1285261097684  C 5.665997682641617 32.1285261097684  4.552675437283815 31.015219225081804  4.552675437283815 29.643402881964253  C 4.552675437283815 29.643402881964253  4.552675437283815 19.504275581878883  4.552675437283815 19.504275581878883  C 4.552675437283815 18.2120361306987  4.751479133085636 16.919796679518512  5.109336559962717 15.687201417169526  Z M 70.15895710321651 12.98343413714676  C 70.97404302077499 12.168348196616158  70.97404302077499 10.895964488298485  70.17881284551942 10.100734290630399  C 69.38358267026385 9.305504092962313  68.11119899780664 9.305504092962313  67.31596882255106 10.100734290630399  C 67.31596882255106 10.100734290630399  48.628175144407344 28.808461198571138  48.628175144407344 28.808461198571138  C 48.44924258295673 28.987393765064734  48.29016576380901 29.206037817283352  48.19073313181151 29.444614572608145  C 48.0515890152082 29.72297977390162  47.95223334345218 30.041056460920124  47.95223334345218 30.378988890801146  C 47.95223334345218 31.49237273573139  48.86667493276667 32.406814350818216  49.98005874631766 32.406814350818216  C 49.98005874631766 32.406814350818216  74.65197296130181 32.406814350818216  74.65197296130181 32.406814350818216  C 75.12904949826196 32.406814350818216  75.54655880831342 32.247814487430794  75.88456818891174 31.98938198924349  C 76.7592982936204 31.392940100931508  77.0572113884055 30.219989027413725  76.5207215450196 29.285614709220724  C 76.5207215450196 29.285614709220724  73.97603116034665 24.891954399061902  73.97603116034665 24.891954399061902  C 73.41937773369192 23.91779163490022  72.18678250608198 23.599714947881715  71.2126197693758 24.15636839022501  C 70.23845703266961 24.71302183256831  69.92038035461567 25.94561709491729  70.47703378127044 26.91977985907897  C 70.47703378127044 26.91977985907897  71.3119754411318 28.37109613389024  71.3119754411318 28.37109613389024  C 71.3119754411318 28.37109613389024  54.791151282456916 28.37109613389024  54.791151282456916 28.37109613389024  C 54.791151282456916 28.37109613389024  70.15895710321651 12.98343413714676  70.15895710321651 12.98343413714676  Z M 48.50888677010693 15.726989863138208  C 48.50888677010693 15.726989863138208  60.77527181929736 3.4605890761871505  60.77527181929736 3.4605890761871505  C 61.57050199455293 2.6653588785190636  62.84280870676865 2.6653588785190636  63.63803888202422 3.4605890761871505  C 64.4332690572798 4.2558115778308725  64.4332690572798 5.528179894099813  63.63803888202422 6.323410091767901  C 63.63803888202422 6.323410091767901  51.37165383283381 18.5897570065484  51.37165383283381 18.5897570065484  C 50.57642365757824 19.384987204216486  49.304116945362516 19.384987204216486  48.50888677010693 18.5897570065484  C 47.71365659485136 17.794526808880313  47.71365659485136 16.522220060806294  48.50888677010693 15.726989863138208  Z M 104.3334601752128 12.98343413714676  C 105.14923873494463 12.168348196616158  105.14923873494463 10.895964488298485  104.35346983799867 10.100734290630399  C 103.55847054346756 9.305504092962313  102.2863177517348 9.305504092962313  101.49054885478883 10.100734290630399  C 101.49054885478883 10.100734290630399  82.80306301761107 28.808461198571138  82.80306301761107 28.808461198571138  C 82.62374565495303 28.987393765064734  82.46520755749572 29.206037817283352  82.36592884598119 29.444614572608145  C 82.2266308088949 29.72297977390162  82.12735209738035 30.041056460920124  82.12735209738035 30.378988890801146  C 82.12735209738035 31.49237273573139  83.04163976621189 32.406814350818216  84.15525446048733 32.406814350818216  C 84.15525446048733 32.406814350818216  108.82716867547148 32.406814350818216  108.82716867547148 32.406814350818216  C 109.30432217267311 32.406814350818216  109.72144668151714 32.247814487430794  110.05930214163249 31.98938198924349  C 110.93434008730713 31.392940100931508  111.23217622185074 30.219989027413725  110.69576333870629 29.285614709220724  C 110.69576333870629 29.285614709220724  108.15068815282592 24.891954399061902  108.15068815282592 24.891954399061902  C 107.59426560689563 23.91779163490022  106.36136253831978 23.599714947881715  105.38781548354545 24.15636839022501  C 104.4134988263563 24.71302183256831  104.09488342661201 25.94561709491729  104.65207557495714 26.91977985907897  C 104.65207557495714 26.91977985907897  105.48709419506001 28.37109613389024  105.48709419506001 28.37109613389024  C 105.48709419506001 28.37109613389024  88.96603915566062 28.37109613389024  88.96603915566062 28.37109613389024  C 88.96603915566062 28.37109613389024  104.3334601752128 12.98343413714676  104.3334601752128 12.98343413714676  Z M 82.68377464331066 15.726989863138208  C 82.68377464331066 15.726989863138208  94.95046753346702 3.4605890761871505  94.95046753346702 3.4605890761871505  C 95.74546682799814 2.6653588785190636  97.0176196197309 2.6653588785190636  97.81261891426202 3.4605890761871505  C 98.60838781120796 4.2558115778308725  98.60838781120796 5.528179894099813  97.81261891426202 6.323410091767901  C 97.81261891426202 6.323410091767901  85.54669562652049 18.5897570065484  85.54669562652049 18.5897570065484  C 84.75169633198936 19.384987204216486  83.47877393784177 19.384987204216486  82.68377464331066 18.5897570065484  C 81.88877534877953 17.794526808880313  81.88877534877953 16.522220060806294  82.68377464331066 15.726989863138208  Z M 177.83279959980672 2.347274495476194  C 178.90639496851043 2.307509137580607  179.84069230012784 3.1822546589911376  179.88071162569958 4.295569239702094  C 179.9199613488565 5.408891516437418  179.04569300559672 6.363167753639123  177.93207831132125 6.402933111534709  C 177.93207831132125 6.402933111534709  172.00767892187253 6.621623339899524  172.00767892187253 6.621623339899524  C 172.00767892187253 6.641502170835134  172.00767892187253 6.6812675287307215  172.00767892187253 6.701146359666332  C 172.00767892187253 6.701146359666332  172.00767892187253 9.484436659455906  172.00767892187253 9.484436659455906  C 172.00767892187253 9.484436659455906  173.71773548764997 9.484436659455906  173.71773548764997 9.484436659455906  C 173.71773548764997 9.484436659455906  173.99556195940775 8.450629706463028  173.99556195940775 8.450629706463028  C 174.2941676963662 7.377080483647659  175.3870031254409 6.721017494577578  176.4806081569305 7.019230742709201  C 177.55420352563416 7.2975574638808505  178.19066472270796 8.410841260494344  177.91206864853538 9.484436659455906  C 177.91206864853538 9.484436659455906  177.972097636893 9.484436659455906  177.972097636893 9.484436659455906  C 179.08494272875362 9.484436659455906  180 10.398955234786389  180 11.51226211947298  C 180 12.506280626497176  179.2842697541975 13.321443527271432  178.34920282016526 13.500299133521372  C 178.34920282016526 13.500299133521372  178.56853950839505 13.977452644170956  178.56853950839505 13.977452644170956  C 179.02568334281085 14.991403854301318  178.56853950839505 16.20406641354414  177.55420352563416 16.66136418133121  C 176.54063714528812 17.11858498887462  175.32774373949812 16.66136418133121  174.87059990508234 15.647489931444497  C 174.87059990508234 15.647489931444497  173.93630257346496 13.55994332235257  173.93630257346496 13.55994332235257  C 173.93630257346496 13.55994332235257  172.0476982474443 13.55994332235257  172.0476982474443 13.55994332235257  C 172.0476982474443 13.55994332235257  172.0476982474443 14.573894532482933  172.0476982474443 14.573894532482933  C 172.0476982474443 15.687201417169526  171.1326409761979 16.60171999250001  170.0197958843373 16.60171999250001  C 168.90618119006186 16.60171999250001  167.99189352123034 15.687201417169526  167.99189352123034 14.573894532482933  C 167.99189352123034 14.573894532482933  167.99189352123034 13.55994332235257  167.99189352123034 13.55994332235257  C 167.99189352123034 13.55994332235257  166.3018466182387 13.55994332235257  166.3018466182387 13.55994332235257  C 166.3018466182387 13.55994332235257  165.3675492866213 15.647489931444497  165.3675492866213 15.647489931444497  C 164.91040545220554 16.66136418133121  163.71752170920143 17.11858498887462  162.68394566606952 16.66136418133121  C 161.66960968330858 16.20406641354414  161.21246584889283 15.011259597163832  161.66960968330858 13.977452644170956  C 161.66960968330858 13.977452644170956  161.86816710633767 13.540087579490056  161.86816710633767 13.540087579490056  C 160.83459106320572 13.440654944690174  160.01958210588876 12.58578055819089  160.01958210588876 11.532117862335497  C 160.01958210588876 10.418810977648905  160.93386977472025 9.504292402318422  162.04748446899572 9.504292402318422  C 162.04748446899572 9.504292402318422  162.30607088038238 9.504292402318422  162.30607088038238 9.504292402318422  C 162.02747480620982 8.430773963600513  162.66393600328362 7.3373228217764375  163.73753137198733 7.039117269669179  C 164.811126740691 6.740904021537554  165.92397183255162 7.396967010607636  166.22257756951007 8.470562409569196  C 166.22257756951007 8.470562409569196  166.50040404126779 9.504292402318422  166.50040404126779 9.504292402318422  C 166.50040404126779 9.504292402318422  167.99189352123034 9.504292402318422  167.99189352123034 9.504292402318422  C 167.99189352123034 9.504292402318422  167.99189352123034 6.780653987384412  167.99189352123034 6.780653987384412  C 167.99189352123034 6.780653987384412  163.14108950048526 6.959586553878005  163.14108950048526 6.959586553878005  C 162.02747480620982 6.999351911773592  161.07316781180657 6.12459099831433  161.03314848623478 5.011276417603373  C 160.9938987630779 3.897954140868051  161.86816710633767 2.943693295715076  162.9817818006131 2.903927937819489  C 162.9817818006131 2.903927937819489  177.83279959980672 2.347274495476194  177.83279959980672 2.347274495476194  Z M 151.63014618170314 4.534145995026886  C 151.63014618170314 4.534145995026886  151.63014618170314 4.554032521986862  151.63014618170314 4.554032521986862  C 150.51653148742767 4.554032521986862  149.60224381859618 5.468535705268614  149.60224381859618 6.581850285979572  C 149.60224381859618 7.695172562714894  150.51653148742767 8.609706530094106  151.63014618170314 8.609706530094106  C 151.63014618170314 8.609706530094106  153.53876017050968 8.609706530094106  153.53876017050968 8.609706530094106  C 153.53876017050968 8.609706530094106  153.53876017050968 17.675238431217917  153.53876017050968 17.675238431217917  C 153.53876017050968 17.675238431217917  150.85438694754302 20.35914996837817  150.85438694754302 20.35914996837817  C 150.0593876530119 21.154380166046252  150.0593876530119 22.426763874363928  150.85438694754302 23.22199407203201  C 151.59012685613138 23.9575800808689  152.74299127356375 24.0172242697001  153.53876017050968 23.381070895663093  C 153.53876017050968 23.381070895663093  153.53876017050968 27.337289180897358  153.53876017050968 27.337289180897358  C 153.53876017050968 27.893942623240658  153.08084673367907 28.351240391027726  152.5244241877488 28.351240391027726  C 152.5244241877488 28.351240391027726  151.63014618170314 28.351240391027726  151.63014618170314 28.351240391027726  C 150.51653148742767 28.351240391027726  149.60224381859618 29.265682006114552  149.60224381859618 30.378988890801146  C 149.60224381859618 31.49237273573139  150.51653148742767 32.406814350818216  151.63014618170314 32.406814350818216  C 151.63014618170314 32.406814350818216  152.5244241877488 32.406814350818216  152.5244241877488 32.406814350818216  C 155.32808578501584 32.406814350818216  157.5937952943088 30.14048909572001  157.5937952943088 27.337289180897358  C 157.5937952943088 27.337289180897358  157.5937952943088 19.345275718491457  157.5937952943088 19.345275718491457  C 157.5937952943088 19.345275718491457  160.2181395289178 16.721008370162405  160.2181395289178 16.721008370162405  C 161.01390842586378 15.925778172494319  161.01390842586378 14.653394464176646  160.2181395289178 13.85816426650856  C 159.50240928311533 13.142510960777837  158.38956419125475 13.08286677194664  157.5937952943088 13.639520214289934  C 157.5937952943088 13.639520214289934  157.5937952943088 8.589773826987939  157.5937952943088 8.589773826987939  C 157.5937952943088 8.589773826987939  159.2445924741435 8.589773826987939  159.2445924741435 8.589773826987939  C 160.3574375660041 8.589773826987939  161.2717252348356 7.675286035754918  161.2717252348356 6.561963759019596  C 161.2717252348356 5.448649178308639  160.3574375660041 4.534145995026886  159.2445924741435 4.534145995026886  C 159.2445924741435 4.534145995026886  157.5937952943088 4.534145995026886  157.5937952943088 4.534145995026886  C 157.5937952943088 4.534145995026886  157.5937952943088 4.037129045490423  157.5937952943088 4.037129045490423  C 157.5937952943088 2.9238067687551004  156.67950762547727 2.0093035854733485  155.56666253361666 2.0093035854733485  C 154.45304783934122 2.0093035854733485  153.53876017050968 2.9238067687551004  153.53876017050968 4.037129045490423  C 153.53876017050968 4.037129045490423  153.53876017050968 4.534145995026886  153.53876017050968 4.534145995026886  C 153.53876017050968 4.534145995026886  151.63014618170314 4.534145995026886  151.63014618170314 4.534145995026886  Z M 163.7767810951442 27.834298434409458  C 163.7767810951442 27.834298434409458  163.7767810951442 21.631533676695838  163.7767810951442 21.631533676695838  C 163.7767810951442 21.353168475402363  163.99534818095918 21.13452442318374  164.27394425513174 21.13452442318374  C 164.27394425513174 21.13452442318374  175.4070127882268 21.13452442318374  175.4070127882268 21.13452442318374  C 175.68560886239936 21.13452442318374  175.90417594821432 21.353168475402363  175.90417594821432 21.631533676695838  C 175.90417594821432 21.631533676695838  175.90417594821432 27.834298434409458  175.90417594821432 27.834298434409458  C 175.90417594821432 28.112663635702933  175.68560886239936 28.33130768792156  175.4070127882268 28.33130768792156  C 175.4070127882268 28.33130768792156  164.27394425513174 28.33130768792156  164.27394425513174 28.33130768792156  C 163.99534818095918 28.33130768792156  163.7767810951442 28.112663635702933  163.7767810951442 27.834298434409458  Z M 19.38366818164327 19.96157334966595  C 19.860821678844907 19.941640646559783  20.23854254404905 20.31943848265314  20.23854254404905 20.79651503305907  C 20.23854254404905 21.273668543708652  19.84088897630052 21.67132212266452  19.363812439340364 21.67132212266452  C 18.727582122991016 21.67132212266452  18.21071714118356 22.188187119039135  18.21071714118356 22.824340493076143  C 18.21071714118356 23.460570827356804  18.727582122991016 23.97743582373142  19.363812439340364 23.97743582373142  C 19.84088897630052 23.97743582373142  20.23854254404905 24.375089402687287  20.23854254404905 24.852165953093216  C 20.23854254404905 25.329319463742802  19.84088897630052 25.726973042698674  19.363812439340364 25.726973042698674  C 18.727582122991016 25.726973042698674  18.21071714118356 26.243838039073285  18.21071714118356 26.87999141311029  C 18.21071714118356 27.516221747390954  18.727582122991016 28.033086743765566  19.363812439340364 28.033086743765566  C 19.84088897630052 28.033086743765566  20.23854254404905 28.430740322721437  20.23854254404905 28.907893833371013  C 20.23854254404905 29.384970383776945  19.860821678844907 29.76269125962665  19.38366818164327 29.78262396273282  C 17.79320783113213 29.78262396273282  16.500968416372004 28.490384511552634  16.500968416372004 26.89992411621646  C 16.500968416372004 26.223982296210767  16.739545164972828 25.58782892217376  17.13712177247987 25.09074270841801  C 17.176910217327173 25.031098519586806  17.196765959630078 24.951598587893102  17.196765959630078 24.872098656199384  C 17.196765959630078 24.792598724505673  17.176910217327173 24.71302183256831  17.13712177247987 24.65337764373711  C 16.739545164972828 24.15636839022501  16.500968416372004 23.520215016188  16.500968416372004 22.84427319618231  C 16.500968416372004 21.253812800846134  17.79320783113213 19.96157334966595  19.38366818164327 19.96157334966595  Z M 125.12888702664105 14.79261554494521  C 124.25384908096646 14.79261554494521  123.53888843757882 15.508268850675933  123.53888843757882 16.38299898003773  C 123.53888843757882 17.257806069643184  124.23460902059539 17.973459375373906  125.12888702664105 17.973459375373906  C 125.12888702664105 17.973459375373906  136.02337881113527 17.973459375373906  136.02337881113527 17.973459375373906  C 136.8984167568099 17.973459375373906  137.61414700261236 17.257806069643184  137.61414700261236 16.38299898003773  C 137.61414700261236 15.508268850675933  136.8984167568099 14.79261554494521  136.02337881113527 14.79261554494521  C 136.02337881113527 14.79261554494521  125.12888702664105 14.79261554494521  125.12888702664105 14.79261554494521  Z M 136.00336914834938 23.91779163490022  C 136.00336914834938 23.91779163490022  125.10887736385519 23.91779163490022  125.10887736385519 23.91779163490022  C 124.23460902059539 23.91779163490022  123.51887877479295 24.633521900874594  123.51887877479295 25.50825203023639  C 123.51887877479295 26.382982159598193  124.23460902059539 27.098712425572565  125.10887736385519 27.098712425572565  C 125.10887736385519 27.098712425572565  136.00336914834938 27.098712425572565  136.00336914834938 27.098712425572565  C 136.87840709402403 27.098712425572565  137.5941373398265 26.382982159598193  137.5941373398265 25.50825203023639  C 137.5941373398265 24.633521900874594  136.87840709402403 23.91779163490022  136.00336914834938 23.91779163490022  Z M 125.12888702664105 19.345275718491457  C 124.25384908096646 19.345275718491457  123.53888843757882 20.060929024222176  123.53888843757882 20.93573611382763  C 123.53888843757882 21.81046624318943  124.23460902059539 22.526196509163803  125.12888702664105 22.526196509163803  C 125.12888702664105 22.526196509163803  136.02337881113527 22.526196509163803  136.02337881113527 22.526196509163803  C 136.8984167568099 22.526196509163803  137.61414700261236 21.81046624318943  137.61414700261236 20.93573611382763  C 137.61414700261236 20.060929024222176  136.8984167568099 19.345275718491457  136.02337881113527 19.345275718491457  C 136.02337881113527 19.345275718491457  125.12888702664105 19.345275718491457  125.12888702664105 19.345275718491457  Z M 171.57054475024262 25.52810777309891  C 172.32552471920198 25.09074270841801  172.32552471920198 23.997291566593933  171.57054475024262 23.559926501913033  C 171.57054475024262 23.559926501913033  169.28405597574897 22.227975565007817  169.28405597574897 22.227975565007817  C 168.52830640437475 21.790610500326917  167.57399940997146 22.347263942670214  167.57399940997146 23.22199407203201  C 167.57399940997146 23.22199407203201  167.57399940997146 25.846261420361067  167.57399940997146 25.846261420361067  C 167.57399940997146 26.720991549722864  168.52830640437475 27.27764499206616  169.28405597574897 26.84027992738526  C 169.28405597574897 26.84027992738526  171.57054475024262 25.52810777309891  171.57054475024262 25.52810777309891  Z " fill-rule="nonzero" fill="rgba(137, 85, 247, 1)" stroke="none" transform="matrix(1 0 0 1 515 141 )" class="fill" />
    <path d="M 128.54823055578123 4.554032521986862  C 128.54823055578123 4.554032521986862  120.11877530602385 4.554032521986862  120.11877530602385 4.554032521986862  C 119.00593021416324 4.554032521986862  118.09087294291686 5.468535705268614  118.09087294291686 6.581850285979572  C 118.09087294291686 7.695172562714894  119.00593021416324 8.609706530094106  120.11877530602385 8.609706530094106  C 120.11877530602385 8.609706530094106  128.5682402185671 8.609706530094106  128.5682402185671 8.609706530094106  C 128.5682402185671 8.609706530094106  128.5682402185671 9.36514828179351  128.5682402185671 9.36514828179351  C 128.5682402185671 9.36514828179351  123.28030202619213 9.36514828179351  123.28030202619213 9.36514828179351  C 120.47664042892508 9.36514828179351  118.21016131721726 11.631550497135377  118.21016131721726 14.434750411958024  C 118.21016131721726 14.434750411958024  118.21016131721726 28.351240391027726  118.21016131721726 28.351240391027726  C 118.21016131721726 28.351240391027726  117.45518134825792 28.351240391027726  117.45518134825792 28.351240391027726  C 116.34156665398245 28.351240391027726  115.42727898515093 29.265682006114552  115.42727898515093 30.378988890801146  C 115.42727898515093 31.49237273573139  116.34156665398245 32.406814350818216  117.45518134825792 32.406814350818216  C 117.45518134825792 32.406814350818216  143.77712314066193 32.406814350818216  143.77712314066193 32.406814350818216  C 144.89073783493734 32.406814350818216  145.80502550376892 31.49237273573139  145.80502550376892 30.378988890801146  C 145.80502550376892 29.265682006114552  144.89073783493734 28.351240391027726  143.77712314066193 28.351240391027726  C 143.77712314066193 28.351240391027726  143.0213735692877 28.351240391027726  143.0213735692877 28.351240391027726  C 143.0213735692877 28.351240391027726  143.0213735692877 14.434750411958024  143.0213735692877 14.434750411958024  C 143.0213735692877 11.631550497135377  140.75489445757992 9.36514828179351  137.9520024627277 9.36514828179351  C 137.9520024627277 9.36514828179351  132.60403528199512 9.36514828179351  132.60403528199512 9.36514828179351  C 132.60403528199512 9.36514828179351  132.60403528199512 8.609706530094106  132.60403528199512 8.609706530094106  C 132.60403528199512 8.609706530094106  141.11275958048117 8.609706530094106  141.11275958048117 8.609706530094106  C 142.2263742747566 8.609706530094106  143.14066194358813 7.695172562714894  143.14066194358813 6.581850285979572  C 143.14066194358813 5.468535705268614  142.2263742747566 4.554032521986862  141.11275958048117 4.554032521986862  C 141.11275958048117 4.554032521986862  132.60403528199512 4.554032521986862  132.60403528199512 4.554032521986862  C 132.60403528199512 4.554032521986862  132.60403528199512 4.057015572450399  132.60403528199512 4.057015572450399  C 132.60403528199512 2.943693295715076  131.6897476131636 2.029174720384594  130.57613291888816 2.029174720384594  C 129.46328782702756 2.029174720384594  128.54823055578123 2.943693295715076  128.54823055578123 4.057015572450399  C 128.54823055578123 4.057015572450399  128.54823055578123 4.554032521986862  128.54823055578123 4.554032521986862  Z " stroke-width="0" stroke-dasharray="0" stroke="rgba(255, 255, 255, 0)" fill="none" transform="matrix(1 0 0 1 515 141 )" class="stroke" mask="url(#Clip4019)" />
    <path d="M 138.9655688430738 14.434750411958024  C 138.9655688430738 14.434750411958024  138.9655688430738 28.351240391027726  138.9655688430738 28.351240391027726  C 138.9655688430738 28.351240391027726  122.24595638064532 28.351240391027726  122.24595638064532 28.351240391027726  C 122.24595638064532 28.351240391027726  122.24595638064532 14.434750411958024  122.24595638064532 14.434750411958024  C 122.24595638064532 13.878096969614727  122.70386981747595 13.42079920182766  123.26029236340625 13.42079920182766  C 123.26029236340625 13.42079920182766  137.9520024627277 13.42079920182766  137.9520024627277 13.42079920182766  C 138.508425008658 13.42079920182766  138.9655688430738 13.878096969614727  138.9655688430738 14.434750411958024  Z " stroke-width="0" stroke-dasharray="0" stroke="rgba(255, 255, 255, 0)" fill="none" transform="matrix(1 0 0 1 515 141 )" class="stroke" mask="url(#Clip4019)" />
    <path d="M 175.42702245101265 17.07887350314959  C 175.42702245101265 17.07887350314959  164.29395391791763 17.07887350314959  164.29395391791763 17.07887350314959  C 161.76888839482314 17.07887350314959  159.74098603171618 19.126554706029182  159.74098603171618 21.631533676695838  C 159.74098603171618 21.631533676695838  159.74098603171618 27.834298434409458  159.74098603171618 27.834298434409458  C 159.74098603171618 30.35913314793863  161.788898057609 32.386958607955705  164.29395391791763 32.386958607955705  C 164.29395391791763 32.386958607955705  175.42702245101265 32.386958607955705  175.42702245101265 32.386958607955705  C 177.95208797410714 32.386958607955705  179.9799903372141 30.339277405076118  179.9799903372141 27.834298434409458  C 179.9799903372141 27.834298434409458  179.9799903372141 21.631533676695838  179.9799903372141 21.631533676695838  C 179.9799903372141 19.106698963166664  177.93207831132125 17.07887350314959  175.42702245101265 17.07887350314959  Z " stroke-width="0" stroke-dasharray="0" stroke="rgba(255, 255, 255, 0)" fill="none" transform="matrix(1 0 0 1 515 141 )" class="stroke" mask="url(#Clip4019)" />
    <path d="M 5.109336559962717 15.687201417169526  C 5.109336559962717 15.687201417169526  8.369734102365673 5.051049471523326  8.369734102365673 5.051049471523326  C 8.52881092151338 4.554032521986862  9.204752722468543 4.494380637131299  9.443329471069362 4.951639924796541  C 9.443329471069362 4.951639924796541  11.391654944481735 8.887994771143928  11.391654944481735 8.887994771143928  C 12.266385049190418 10.637531990111182  14.035777961152181 11.730983131935258  15.984103434564554 11.730983131935258  C 15.984103434564554 11.730983131935258  22.445300508365147 11.730983131935258  22.445300508365147 11.730983131935258  C 24.393625981777525 11.730983131935258  26.182874636042186 10.617599287005014  27.03774899844797 8.887994771143928  C 27.03774899844797 8.887994771143928  28.98599751161886 4.951639924796541  28.98599751161886 4.951639924796541  C 29.224574260219676 4.474501806195688  29.90051606117484 4.534145995026886  30.059592880322548 5.051049471523326  C 30.059592880322548 5.051049471523326  33.280225065950646 15.70705716003204  33.280225065950646 15.70705716003204  C 33.65802289139627 16.93972938262468  33.83687849260541 18.231968833804867  33.83687849260541 19.52420828498505  C 33.83687849260541 19.52420828498505  33.83687849260541 29.663335585070424  33.83687849260541 29.663335585070424  C 33.83687849260541 31.035074967944322  32.7235716392959 32.14838185263091  31.351832295082666 32.14838185263091  C 31.351832295082666 32.14838185263091  30.039737138019643 32.14838185263091  30.039737138019643 32.14838185263091  C 30.039737138019643 32.14838185263091  25.844865255443864 32.14838185263091  25.844865255443864 32.14838185263091  C 25.12921196988289 32.14838185263091  24.671914214984156 32.923756307436484  25.009923595582478 33.55990968147349  C 25.009923595582478 33.55990968147349  26.162941933497795 35.70702351915296  26.162941933497795 35.70702351915296  C 26.500951314096124 36.32332115032746  27.137104670203986 36.70111898642081  27.83297917370353 36.70111898642081  C 27.83297917370353 36.70111898642081  28.687853536109316 36.70111898642081  28.687853536109316 36.70111898642081  C 28.727565020715133 36.70111898642081  28.747420763018035 36.70111898642081  28.78720920786533 36.70111898642081  C 28.78720920786533 36.70111898642081  31.351832295082666 36.70111898642081  31.351832295082666 36.70111898642081  C 35.248406281665936 36.70111898642081  38.3896154980824 33.54005393861098  38.3896154980824 29.663335585070424  C 38.3896154980824 29.663335585070424  38.3896154980824 19.52420828498505  38.3896154980824 19.52420828498505  C 38.3896154980824 17.794526808880313  38.13118300717868 16.06492229301923  37.63409680743265 14.394961965989342  C 37.63409680743265 14.394961965989342  34.41346462180454 3.738915797358798  34.41346462180454 3.738915797358798  C 33.06158101989422 -0.7143579175337591  26.958172108753367 -1.2312613940301986  24.89063522128207 2.943685599690711  C 24.89063522128207 2.943685599690711  22.942309747869697 6.880063534111196  22.942309747869697 6.880063534111196  C 22.84287711587219 7.078874931540399  22.644088812118675 7.198163309202795  22.425367805820756 7.198163309202795  C 22.425367805820756 7.198163309202795  15.964170732020163 7.198163309202795  15.964170732020163 7.198163309202795  C 15.74552668596373 7.198163309202795  15.546661421968729 7.078874931540399  15.447305750212708 6.880063534111196  C 15.447305750212708 6.880063534111196  13.498980276800335 2.943685599690711  13.498980276800335 2.943685599690711  C 11.43136642908755 -1.2312613940301986  5.3280190861398875 -0.7143579175337591  3.9761354842295638 3.738915797358798  C 3.9761354842295638 3.738915797358798  0.7554602008662302 14.394961965989342  0.7554602008662302 14.394961965989342  C 0.25844326533753476 16.06492229301923  0 17.794526808880313  0 19.52420828498505  C 0 19.52420828498505  0 29.663335585070424  0 29.663335585070424  C 0 33.55990968147349  3.16102647859864 36.70111898642081  7.037760114927293 36.70111898642081  C 7.037760114927293 36.70111898642081  19.343879736795973 36.70111898642081  19.343879736795973 36.70111898642081  C 19.343879736795973 36.70111898642081  20.536763479800076 38.768655932162915  20.536763479800076 38.768655932162915  C 21.172916835907937 39.862107073987  22.56458888266556 40.239827949836695  23.658039993672155 39.60367457579969  C 24.751414144437266 38.967444241519026  25.12921196988289 37.57584911578261  24.49298165353354 36.482397973958534  C 24.49298165353354 36.482397973958534  23.041665419625712 33.97741900329188  23.041665419625712 33.97741900329188  C 22.385656321214945 32.8243236726366  21.153061093605032 32.1285261097684  19.84088897630052 32.1285261097684  C 19.84088897630052 32.1285261097684  7.037760114927293 32.1285261097684  7.037760114927293 32.1285261097684  C 5.665997682641617 32.1285261097684  4.552675437283815 31.015219225081804  4.552675437283815 29.643402881964253  C 4.552675437283815 29.643402881964253  4.552675437283815 19.504275581878883  4.552675437283815 19.504275581878883  C 4.552675437283815 18.2120361306987  4.751479133085636 16.919796679518512  5.109336559962717 15.687201417169526  Z " stroke-width="0" stroke-dasharray="0" stroke="rgba(255, 255, 255, 0)" fill="none" transform="matrix(1 0 0 1 515 141 )" class="stroke" mask="url(#Clip4019)" />
    <path d="M 70.15895710321651 12.98343413714676  C 70.97404302077499 12.168348196616158  70.97404302077499 10.895964488298485  70.17881284551942 10.100734290630399  C 69.38358267026385 9.305504092962313  68.11119899780664 9.305504092962313  67.31596882255106 10.100734290630399  C 67.31596882255106 10.100734290630399  48.628175144407344 28.808461198571138  48.628175144407344 28.808461198571138  C 48.44924258295673 28.987393765064734  48.29016576380901 29.206037817283352  48.19073313181151 29.444614572608145  C 48.0515890152082 29.72297977390162  47.95223334345218 30.041056460920124  47.95223334345218 30.378988890801146  C 47.95223334345218 31.49237273573139  48.86667493276667 32.406814350818216  49.98005874631766 32.406814350818216  C 49.98005874631766 32.406814350818216  74.65197296130181 32.406814350818216  74.65197296130181 32.406814350818216  C 75.12904949826196 32.406814350818216  75.54655880831342 32.247814487430794  75.88456818891174 31.98938198924349  C 76.7592982936204 31.392940100931508  77.0572113884055 30.219989027413725  76.5207215450196 29.285614709220724  C 76.5207215450196 29.285614709220724  73.97603116034665 24.891954399061902  73.97603116034665 24.891954399061902  C 73.41937773369192 23.91779163490022  72.18678250608198 23.599714947881715  71.2126197693758 24.15636839022501  C 70.23845703266961 24.71302183256831  69.92038035461567 25.94561709491729  70.47703378127044 26.91977985907897  C 70.47703378127044 26.91977985907897  71.3119754411318 28.37109613389024  71.3119754411318 28.37109613389024  C 71.3119754411318 28.37109613389024  54.791151282456916 28.37109613389024  54.791151282456916 28.37109613389024  C 54.791151282456916 28.37109613389024  70.15895710321651 12.98343413714676  70.15895710321651 12.98343413714676  Z " stroke-width="0" stroke-dasharray="0" stroke="rgba(255, 255, 255, 0)" fill="none" transform="matrix(1 0 0 1 515 141 )" class="stroke" mask="url(#Clip4019)" />
    <path d="M 48.50888677010693 15.726989863138208  C 48.50888677010693 15.726989863138208  60.77527181929736 3.4605890761871505  60.77527181929736 3.4605890761871505  C 61.57050199455293 2.6653588785190636  62.84280870676865 2.6653588785190636  63.63803888202422 3.4605890761871505  C 64.4332690572798 4.2558115778308725  64.4332690572798 5.528179894099813  63.63803888202422 6.323410091767901  C 63.63803888202422 6.323410091767901  51.37165383283381 18.5897570065484  51.37165383283381 18.5897570065484  C 50.57642365757824 19.384987204216486  49.304116945362516 19.384987204216486  48.50888677010693 18.5897570065484  C 47.71365659485136 17.794526808880313  47.71365659485136 16.522220060806294  48.50888677010693 15.726989863138208  Z " stroke-width="0" stroke-dasharray="0" stroke="rgba(255, 255, 255, 0)" fill="none" transform="matrix(1 0 0 1 515 141 )" class="stroke" mask="url(#Clip4019)" />
    <path d="M 104.3334601752128 12.98343413714676  C 105.14923873494463 12.168348196616158  105.14923873494463 10.895964488298485  104.35346983799867 10.100734290630399  C 103.55847054346756 9.305504092962313  102.2863177517348 9.305504092962313  101.49054885478883 10.100734290630399  C 101.49054885478883 10.100734290630399  82.80306301761107 28.808461198571138  82.80306301761107 28.808461198571138  C 82.62374565495303 28.987393765064734  82.46520755749572 29.206037817283352  82.36592884598119 29.444614572608145  C 82.2266308088949 29.72297977390162  82.12735209738035 30.041056460920124  82.12735209738035 30.378988890801146  C 82.12735209738035 31.49237273573139  83.04163976621189 32.406814350818216  84.15525446048733 32.406814350818216  C 84.15525446048733 32.406814350818216  108.82716867547148 32.406814350818216  108.82716867547148 32.406814350818216  C 109.30432217267311 32.406814350818216  109.72144668151714 32.247814487430794  110.05930214163249 31.98938198924349  C 110.93434008730713 31.392940100931508  111.23217622185074 30.219989027413725  110.69576333870629 29.285614709220724  C 110.69576333870629 29.285614709220724  108.15068815282592 24.891954399061902  108.15068815282592 24.891954399061902  C 107.59426560689563 23.91779163490022  106.36136253831978 23.599714947881715  105.38781548354545 24.15636839022501  C 104.4134988263563 24.71302183256831  104.09488342661201 25.94561709491729  104.65207557495714 26.91977985907897  C 104.65207557495714 26.91977985907897  105.48709419506001 28.37109613389024  105.48709419506001 28.37109613389024  C 105.48709419506001 28.37109613389024  88.96603915566062 28.37109613389024  88.96603915566062 28.37109613389024  C 88.96603915566062 28.37109613389024  104.3334601752128 12.98343413714676  104.3334601752128 12.98343413714676  Z " stroke-width="0" stroke-dasharray="0" stroke="rgba(255, 255, 255, 0)" fill="none" transform="matrix(1 0 0 1 515 141 )" class="stroke" mask="url(#Clip4019)" />
    <path d="M 82.68377464331066 15.726989863138208  C 82.68377464331066 15.726989863138208  94.95046753346702 3.4605890761871505  94.95046753346702 3.4605890761871505  C 95.74546682799814 2.6653588785190636  97.0176196197309 2.6653588785190636  97.81261891426202 3.4605890761871505  C 98.60838781120796 4.2558115778308725  98.60838781120796 5.528179894099813  97.81261891426202 6.323410091767901  C 97.81261891426202 6.323410091767901  85.54669562652049 18.5897570065484  85.54669562652049 18.5897570065484  C 84.75169633198936 19.384987204216486  83.47877393784177 19.384987204216486  82.68377464331066 18.5897570065484  C 81.88877534877953 17.794526808880313  81.88877534877953 16.522220060806294  82.68377464331066 15.726989863138208  Z " stroke-width="0" stroke-dasharray="0" stroke="rgba(255, 255, 255, 0)" fill="none" transform="matrix(1 0 0 1 515 141 )" class="stroke" mask="url(#Clip4019)" />
    <path d="M 177.83279959980672 2.347274495476194  C 178.90639496851043 2.307509137580607  179.84069230012784 3.1822546589911376  179.88071162569958 4.295569239702094  C 179.9199613488565 5.408891516437418  179.04569300559672 6.363167753639123  177.93207831132125 6.402933111534709  C 177.93207831132125 6.402933111534709  172.00767892187253 6.621623339899524  172.00767892187253 6.621623339899524  C 172.00767892187253 6.641502170835134  172.00767892187253 6.6812675287307215  172.00767892187253 6.701146359666332  C 172.00767892187253 6.701146359666332  172.00767892187253 9.484436659455906  172.00767892187253 9.484436659455906  C 172.00767892187253 9.484436659455906  173.71773548764997 9.484436659455906  173.71773548764997 9.484436659455906  C 173.71773548764997 9.484436659455906  173.99556195940775 8.450629706463028  173.99556195940775 8.450629706463028  C 174.2941676963662 7.377080483647659  175.3870031254409 6.721017494577578  176.4806081569305 7.019230742709201  C 177.55420352563416 7.2975574638808505  178.19066472270796 8.410841260494344  177.91206864853538 9.484436659455906  C 177.91206864853538 9.484436659455906  177.972097636893 9.484436659455906  177.972097636893 9.484436659455906  C 179.08494272875362 9.484436659455906  180 10.398955234786389  180 11.51226211947298  C 180 12.506280626497176  179.2842697541975 13.321443527271432  178.34920282016526 13.500299133521372  C 178.34920282016526 13.500299133521372  178.56853950839505 13.977452644170956  178.56853950839505 13.977452644170956  C 179.02568334281085 14.991403854301318  178.56853950839505 16.20406641354414  177.55420352563416 16.66136418133121  C 176.54063714528812 17.11858498887462  175.32774373949812 16.66136418133121  174.87059990508234 15.647489931444497  C 174.87059990508234 15.647489931444497  173.93630257346496 13.55994332235257  173.93630257346496 13.55994332235257  C 173.93630257346496 13.55994332235257  172.0476982474443 13.55994332235257  172.0476982474443 13.55994332235257  C 172.0476982474443 13.55994332235257  172.0476982474443 14.573894532482933  172.0476982474443 14.573894532482933  C 172.0476982474443 15.687201417169526  171.1326409761979 16.60171999250001  170.0197958843373 16.60171999250001  C 168.90618119006186 16.60171999250001  167.99189352123034 15.687201417169526  167.99189352123034 14.573894532482933  C 167.99189352123034 14.573894532482933  167.99189352123034 13.55994332235257  167.99189352123034 13.55994332235257  C 167.99189352123034 13.55994332235257  166.3018466182387 13.55994332235257  166.3018466182387 13.55994332235257  C 166.3018466182387 13.55994332235257  165.3675492866213 15.647489931444497  165.3675492866213 15.647489931444497  C 164.91040545220554 16.66136418133121  163.71752170920143 17.11858498887462  162.68394566606952 16.66136418133121  C 161.66960968330858 16.20406641354414  161.21246584889283 15.011259597163832  161.66960968330858 13.977452644170956  C 161.66960968330858 13.977452644170956  161.86816710633767 13.540087579490056  161.86816710633767 13.540087579490056  C 160.83459106320572 13.440654944690174  160.01958210588876 12.58578055819089  160.01958210588876 11.532117862335497  C 160.01958210588876 10.418810977648905  160.93386977472025 9.504292402318422  162.04748446899572 9.504292402318422  C 162.04748446899572 9.504292402318422  162.30607088038238 9.504292402318422  162.30607088038238 9.504292402318422  C 162.02747480620982 8.430773963600513  162.66393600328362 7.3373228217764375  163.73753137198733 7.039117269669179  C 164.811126740691 6.740904021537554  165.92397183255162 7.396967010607636  166.22257756951007 8.470562409569196  C 166.22257756951007 8.470562409569196  166.50040404126779 9.504292402318422  166.50040404126779 9.504292402318422  C 166.50040404126779 9.504292402318422  167.99189352123034 9.504292402318422  167.99189352123034 9.504292402318422  C 167.99189352123034 9.504292402318422  167.99189352123034 6.780653987384412  167.99189352123034 6.780653987384412  C 167.99189352123034 6.780653987384412  163.14108950048526 6.959586553878005  163.14108950048526 6.959586553878005  C 162.02747480620982 6.999351911773592  161.07316781180657 6.12459099831433  161.03314848623478 5.011276417603373  C 160.9938987630779 3.897954140868051  161.86816710633767 2.943693295715076  162.9817818006131 2.903927937819489  C 162.9817818006131 2.903927937819489  177.83279959980672 2.347274495476194  177.83279959980672 2.347274495476194  Z " stroke-width="0" stroke-dasharray="0" stroke="rgba(255, 255, 255, 0)" fill="none" transform="matrix(1 0 0 1 515 141 )" class="stroke" mask="url(#Clip4019)" />
    <path d="M 151.63014618170314 4.534145995026886  C 151.63014618170314 4.534145995026886  151.63014618170314 4.554032521986862  151.63014618170314 4.554032521986862  C 150.51653148742767 4.554032521986862  149.60224381859618 5.468535705268614  149.60224381859618 6.581850285979572  C 149.60224381859618 7.695172562714894  150.51653148742767 8.609706530094106  151.63014618170314 8.609706530094106  C 151.63014618170314 8.609706530094106  153.53876017050968 8.609706530094106  153.53876017050968 8.609706530094106  C 153.53876017050968 8.609706530094106  153.53876017050968 17.675238431217917  153.53876017050968 17.675238431217917  C 153.53876017050968 17.675238431217917  150.85438694754302 20.35914996837817  150.85438694754302 20.35914996837817  C 150.0593876530119 21.154380166046252  150.0593876530119 22.426763874363928  150.85438694754302 23.22199407203201  C 151.59012685613138 23.9575800808689  152.74299127356375 24.0172242697001  153.53876017050968 23.381070895663093  C 153.53876017050968 23.381070895663093  153.53876017050968 27.337289180897358  153.53876017050968 27.337289180897358  C 153.53876017050968 27.893942623240658  153.08084673367907 28.351240391027726  152.5244241877488 28.351240391027726  C 152.5244241877488 28.351240391027726  151.63014618170314 28.351240391027726  151.63014618170314 28.351240391027726  C 150.51653148742767 28.351240391027726  149.60224381859618 29.265682006114552  149.60224381859618 30.378988890801146  C 149.60224381859618 31.49237273573139  150.51653148742767 32.406814350818216  151.63014618170314 32.406814350818216  C 151.63014618170314 32.406814350818216  152.5244241877488 32.406814350818216  152.5244241877488 32.406814350818216  C 155.32808578501584 32.406814350818216  157.5937952943088 30.14048909572001  157.5937952943088 27.337289180897358  C 157.5937952943088 27.337289180897358  157.5937952943088 19.345275718491457  157.5937952943088 19.345275718491457  C 157.5937952943088 19.345275718491457  160.2181395289178 16.721008370162405  160.2181395289178 16.721008370162405  C 161.01390842586378 15.925778172494319  161.01390842586378 14.653394464176646  160.2181395289178 13.85816426650856  C 159.50240928311533 13.142510960777837  158.38956419125475 13.08286677194664  157.5937952943088 13.639520214289934  C 157.5937952943088 13.639520214289934  157.5937952943088 8.589773826987939  157.5937952943088 8.589773826987939  C 157.5937952943088 8.589773826987939  159.2445924741435 8.589773826987939  159.2445924741435 8.589773826987939  C 160.3574375660041 8.589773826987939  161.2717252348356 7.675286035754918  161.2717252348356 6.561963759019596  C 161.2717252348356 5.448649178308639  160.3574375660041 4.534145995026886  159.2445924741435 4.534145995026886  C 159.2445924741435 4.534145995026886  157.5937952943088 4.534145995026886  157.5937952943088 4.534145995026886  C 157.5937952943088 4.534145995026886  157.5937952943088 4.037129045490423  157.5937952943088 4.037129045490423  C 157.5937952943088 2.9238067687551004  156.67950762547727 2.0093035854733485  155.56666253361666 2.0093035854733485  C 154.45304783934122 2.0093035854733485  153.53876017050968 2.9238067687551004  153.53876017050968 4.037129045490423  C 153.53876017050968 4.037129045490423  153.53876017050968 4.534145995026886  153.53876017050968 4.534145995026886  C 153.53876017050968 4.534145995026886  151.63014618170314 4.534145995026886  151.63014618170314 4.534145995026886  Z " stroke-width="0" stroke-dasharray="0" stroke="rgba(255, 255, 255, 0)" fill="none" transform="matrix(1 0 0 1 515 141 )" class="stroke" mask="url(#Clip4019)" />
    <path d="M 163.7767810951442 27.834298434409458  C 163.7767810951442 27.834298434409458  163.7767810951442 21.631533676695838  163.7767810951442 21.631533676695838  C 163.7767810951442 21.353168475402363  163.99534818095918 21.13452442318374  164.27394425513174 21.13452442318374  C 164.27394425513174 21.13452442318374  175.4070127882268 21.13452442318374  175.4070127882268 21.13452442318374  C 175.68560886239936 21.13452442318374  175.90417594821432 21.353168475402363  175.90417594821432 21.631533676695838  C 175.90417594821432 21.631533676695838  175.90417594821432 27.834298434409458  175.90417594821432 27.834298434409458  C 175.90417594821432 28.112663635702933  175.68560886239936 28.33130768792156  175.4070127882268 28.33130768792156  C 175.4070127882268 28.33130768792156  164.27394425513174 28.33130768792156  164.27394425513174 28.33130768792156  C 163.99534818095918 28.33130768792156  163.7767810951442 28.112663635702933  163.7767810951442 27.834298434409458  Z " stroke-width="0" stroke-dasharray="0" stroke="rgba(255, 255, 255, 0)" fill="none" transform="matrix(1 0 0 1 515 141 )" class="stroke" mask="url(#Clip4019)" />
    <path d="M 19.38366818164327 19.96157334966595  C 19.860821678844907 19.941640646559783  20.23854254404905 20.31943848265314  20.23854254404905 20.79651503305907  C 20.23854254404905 21.273668543708652  19.84088897630052 21.67132212266452  19.363812439340364 21.67132212266452  C 18.727582122991016 21.67132212266452  18.21071714118356 22.188187119039135  18.21071714118356 22.824340493076143  C 18.21071714118356 23.460570827356804  18.727582122991016 23.97743582373142  19.363812439340364 23.97743582373142  C 19.84088897630052 23.97743582373142  20.23854254404905 24.375089402687287  20.23854254404905 24.852165953093216  C 20.23854254404905 25.329319463742802  19.84088897630052 25.726973042698674  19.363812439340364 25.726973042698674  C 18.727582122991016 25.726973042698674  18.21071714118356 26.243838039073285  18.21071714118356 26.87999141311029  C 18.21071714118356 27.516221747390954  18.727582122991016 28.033086743765566  19.363812439340364 28.033086743765566  C 19.84088897630052 28.033086743765566  20.23854254404905 28.430740322721437  20.23854254404905 28.907893833371013  C 20.23854254404905 29.384970383776945  19.860821678844907 29.76269125962665  19.38366818164327 29.78262396273282  C 17.79320783113213 29.78262396273282  16.500968416372004 28.490384511552634  16.500968416372004 26.89992411621646  C 16.500968416372004 26.223982296210767  16.739545164972828 25.58782892217376  17.13712177247987 25.09074270841801  C 17.176910217327173 25.031098519586806  17.196765959630078 24.951598587893102  17.196765959630078 24.872098656199384  C 17.196765959630078 24.792598724505673  17.176910217327173 24.71302183256831  17.13712177247987 24.65337764373711  C 16.739545164972828 24.15636839022501  16.500968416372004 23.520215016188  16.500968416372004 22.84427319618231  C 16.500968416372004 21.253812800846134  17.79320783113213 19.96157334966595  19.38366818164327 19.96157334966595  Z " stroke-width="0" stroke-dasharray="0" stroke="rgba(255, 255, 255, 0)" fill="none" transform="matrix(1 0 0 1 515 141 )" class="stroke" mask="url(#Clip4019)" />
    <path d="M 125.12888702664105 14.79261554494521  C 124.25384908096646 14.79261554494521  123.53888843757882 15.508268850675933  123.53888843757882 16.38299898003773  C 123.53888843757882 17.257806069643184  124.23460902059539 17.973459375373906  125.12888702664105 17.973459375373906  C 125.12888702664105 17.973459375373906  136.02337881113527 17.973459375373906  136.02337881113527 17.973459375373906  C 136.8984167568099 17.973459375373906  137.61414700261236 17.257806069643184  137.61414700261236 16.38299898003773  C 137.61414700261236 15.508268850675933  136.8984167568099 14.79261554494521  136.02337881113527 14.79261554494521  C 136.02337881113527 14.79261554494521  125.12888702664105 14.79261554494521  125.12888702664105 14.79261554494521  Z " stroke-width="0" stroke-dasharray="0" stroke="rgba(255, 255, 255, 0)" fill="none" transform="matrix(1 0 0 1 515 141 )" class="stroke" mask="url(#Clip4019)" />
    <path d="M 136.00336914834938 23.91779163490022  C 136.00336914834938 23.91779163490022  125.10887736385519 23.91779163490022  125.10887736385519 23.91779163490022  C 124.23460902059539 23.91779163490022  123.51887877479295 24.633521900874594  123.51887877479295 25.50825203023639  C 123.51887877479295 26.382982159598193  124.23460902059539 27.098712425572565  125.10887736385519 27.098712425572565  C 125.10887736385519 27.098712425572565  136.00336914834938 27.098712425572565  136.00336914834938 27.098712425572565  C 136.87840709402403 27.098712425572565  137.5941373398265 26.382982159598193  137.5941373398265 25.50825203023639  C 137.5941373398265 24.633521900874594  136.87840709402403 23.91779163490022  136.00336914834938 23.91779163490022  Z " stroke-width="0" stroke-dasharray="0" stroke="rgba(255, 255, 255, 0)" fill="none" transform="matrix(1 0 0 1 515 141 )" class="stroke" mask="url(#Clip4019)" />
    <path d="M 125.12888702664105 19.345275718491457  C 124.25384908096646 19.345275718491457  123.53888843757882 20.060929024222176  123.53888843757882 20.93573611382763  C 123.53888843757882 21.81046624318943  124.23460902059539 22.526196509163803  125.12888702664105 22.526196509163803  C 125.12888702664105 22.526196509163803  136.02337881113527 22.526196509163803  136.02337881113527 22.526196509163803  C 136.8984167568099 22.526196509163803  137.61414700261236 21.81046624318943  137.61414700261236 20.93573611382763  C 137.61414700261236 20.060929024222176  136.8984167568099 19.345275718491457  136.02337881113527 19.345275718491457  C 136.02337881113527 19.345275718491457  125.12888702664105 19.345275718491457  125.12888702664105 19.345275718491457  Z " stroke-width="0" stroke-dasharray="0" stroke="rgba(255, 255, 255, 0)" fill="none" transform="matrix(1 0 0 1 515 141 )" class="stroke" mask="url(#Clip4019)" />
    <path d="M 171.57054475024262 25.52810777309891  C 172.32552471920198 25.09074270841801  172.32552471920198 23.997291566593933  171.57054475024262 23.559926501913033  C 171.57054475024262 23.559926501913033  169.28405597574897 22.227975565007817  169.28405597574897 22.227975565007817  C 168.52830640437475 21.790610500326917  167.57399940997146 22.347263942670214  167.57399940997146 23.22199407203201  C 167.57399940997146 23.22199407203201  167.57399940997146 25.846261420361067  167.57399940997146 25.846261420361067  C 167.57399940997146 26.720991549722864  168.52830640437475 27.27764499206616  169.28405597574897 26.84027992738526  C 169.28405597574897 26.84027992738526  171.57054475024262 25.52810777309891  171.57054475024262 25.52810777309891  Z " stroke-width="0" stroke-dasharray="0" stroke="rgba(255, 255, 255, 0)" fill="none" transform="matrix(1 0 0 1 515 141 )" class="stroke" mask="url(#Clip4019)" />
  </g>
</svg>