<?xml version="1.0" encoding="utf-8"?>
<svg version="1.1" xmlns:xlink="http://www.w3.org/1999/xlink" width="33px" height="22px" xmlns="http://www.w3.org/2000/svg">
  <defs>
    <pattern id="BGPattern" patternUnits="userSpaceOnUse" alignment="0 0" imageRepeat="None" />
    <mask fill="white" id="Clip8940">
      <path d="M 32.045925937499995 8.37185187499999  C 31.245925937499997 2.6844444531249962  23.503703671875 -0.9303703906250007  14.752592578125004 0.2992592968750003  C 6.002962968749998 1.5288889062499962  -0.4414814843750001 7.136296328124999  0.3570370312499982 12.825185234374999  C 1.155555546875 18.514074140625  8.897777734374998 22.128888906249998  17.64888890625 20.897777812499996  C 26.4 19.668148203125  32.844444453125 14.060740781250004  32.045925937499995 8.37185187499999  Z M 23.928888906250002 9.665185156250004  C 24.770370390625004 14.001481484375006  21.235555546875005 18.3377778125  16.03111109375 19.349629609375  C 10.825185156249997 20.36148148437499  5.922962968749999 17.665185156250004  5.079999999999998 13.32888890625  C 4.237037031250001 8.99111109375  7.773333359375002 4.656296328125002  12.977777812500001 3.644444453124997  C 18.18370375 2.6311110937500004  23.085925937499994 5.327407421875002  23.928888906250002 9.665185156250004  Z " fill-rule="evenodd" />
    </mask>
  </defs>
  <g transform="matrix(1 0 0 1 -684 -297 )">
    <path d="M 32.045925937499995 8.37185187499999  C 31.245925937499997 2.6844444531249962  23.503703671875 -0.9303703906250007  14.752592578125004 0.2992592968750003  C 6.002962968749998 1.5288889062499962  -0.4414814843750001 7.136296328124999  0.3570370312499982 12.825185234374999  C 1.155555546875 18.514074140625  8.897777734374998 22.128888906249998  17.64888890625 20.897777812499996  C 26.4 19.668148203125  32.844444453125 14.060740781250004  32.045925937499995 8.37185187499999  Z M 23.928888906250002 9.665185156250004  C 24.770370390625004 14.001481484375006  21.235555546875005 18.3377778125  16.03111109375 19.349629609375  C 10.825185156249997 20.36148148437499  5.922962968749999 17.665185156250004  5.079999999999998 13.32888890625  C 4.237037031250001 8.99111109375  7.773333359375002 4.656296328125002  12.977777812500001 3.644444453124997  C 18.18370375 2.6311110937500004  23.085925937499994 5.327407421875002  23.928888906250002 9.665185156250004  Z " fill-rule="nonzero" fill="rgba(245, 100, 103, 1)" stroke="none" transform="matrix(1 0 0 1 684 297 )" class="fill" />
    <path d="M 32.045925937499995 8.37185187499999  C 31.245925937499997 2.6844444531249962  23.503703671875 -0.9303703906250007  14.752592578125004 0.2992592968750003  C 6.002962968749998 1.5288889062499962  -0.4414814843750001 7.136296328124999  0.3570370312499982 12.825185234374999  C 1.155555546875 18.514074140625  8.897777734374998 22.128888906249998  17.64888890625 20.897777812499996  C 26.4 19.668148203125  32.844444453125 14.060740781250004  32.045925937499995 8.37185187499999  Z " stroke-width="0" stroke-dasharray="0" stroke="rgba(255, 255, 255, 0)" fill="none" transform="matrix(1 0 0 1 684 297 )" class="stroke" mask="url(#Clip8940)" />
    <path d="M 23.928888906250002 9.665185156250004  C 24.770370390625004 14.001481484375006  21.235555546875005 18.3377778125  16.03111109375 19.349629609375  C 10.825185156249997 20.36148148437499  5.922962968749999 17.665185156250004  5.079999999999998 13.32888890625  C 4.237037031250001 8.99111109375  7.773333359375002 4.656296328125002  12.977777812500001 3.644444453124997  C 18.18370375 2.6311110937500004  23.085925937499994 5.327407421875002  23.928888906250002 9.665185156250004  Z " stroke-width="0" stroke-dasharray="0" stroke="rgba(255, 255, 255, 0)" fill="none" transform="matrix(1 0 0 1 684 297 )" class="stroke" mask="url(#Clip8940)" />
  </g>
</svg>