<?xml version="1.0" encoding="utf-8"?>
<svg version="1.1" xmlns:xlink="http://www.w3.org/1999/xlink" width="80px" height="80px" xmlns="http://www.w3.org/2000/svg">
  <defs>
    <pattern id="BGPattern" patternUnits="userSpaceOnUse" alignment="0 0" imageRepeat="None" />
    <mask fill="white" id="Clip1257">
      <path d="M 52.800000000000004 41.6  C 52.800000000000004 42.48296296875  53.51703703125 43.2  54.400000000000006 43.2  C 55.28296296875 43.2  56.00000000000001 42.48296296875  56.00000000000001 41.6  C 56.00000000000001 40.715555546875  55.28296296875 40  54.400000000000006 40  C 53.517037031250005 40  52.800000000000004 40.71703703125  52.800000000000004 41.6  Z M 43.2 41.6  C 43.2 42.48296296875  43.91703703125 43.2  44.800000000000004 43.2  C 45.682962968750005 43.2  46.400000000000006 42.48296296875  46.400000000000006 41.6  C 46.400000000000006 40.715555546875  45.682962968750005 40  44.800000000000004 40  C 43.917037031250004 40  43.2 40.71703703125  43.2 41.6  Z M 36.8 29.6  C 36.800000000000004 30.9259259375  37.875555546875 32  39.2 32  C 40.524444453125 32  41.6 30.9259259375  41.6 29.6  C 41.6 28.2740740625  40.524444453125 27.199999999999996  39.2 27.199999999999996  C 37.875555546875 27.199999999999996  36.8 28.2740740625  36.8 29.6  Z M 23.999999999999993 29.6  C 24 30.9259259375  25.075555546874998 32  26.400000000000002 32  C 27.724444453125 32  28.799999999999997 30.9259259375  28.799999999999997 29.6  C 28.799999999999997 28.2740740625  27.724444453125 27.199999999999996  26.4 27.199999999999996  C 25.075555546874995 27.199999999999996  23.999999999999993 28.2740740625  23.999999999999993 29.6  Z M 0 40  C 0 62.091851875  17.908148125 80  40 80  C 62.091851875 80  80 62.091851875  80 40  C 80 17.908148124999997  62.091851875 0  40 0  C 17.908148124999997 0  0 17.908148125  0 40  Z M 35.198518515625004 46.340740859375  C 35.2 46.811851874999995  35.229629609374996 47.275555546875  35.290370390625 47.733333359375  C 34.481481484375 47.8459259375  33.64888890625 47.903703750000005  32.801481484375 47.903703750000005  C 30.68 47.903703750000005  28.659259296875 47.539259296875  26.823703671875002 46.88000007812501  C 26.641481484375 46.814814921875005  25.988148125000002 46.61777789062501  25.635555546875 46.88000007812501  C 24.841481484375 47.46962968750001  23.77629625 48.696296406250006  23.77629625 48.696296406250006  C 23.77629625 48.696296406250006  24.16740734375 47.804444531250006  24.297777734375 46.50074085937501  C 24.357037031249998 45.90518531250001  23.448888828125 45.4874075  23.266666640625 45.36592601562501  C 19.8103703125 43.02814820312501  17.6 39.165926015625004  17.6 35.15259265625001  C 17.6 28.109629687500007  24.404444453125002 22.400000078125007  32.800000000000004 22.400000078125007  C 40.638518515625 22.400000078125007  47.090370390625004 27.376296406250006  47.91111109375001 33.768888984375  C 40.69925921875001 34.76444453125001  35.198518515625004 40.01333343750001  35.198518515625004 46.340740859375  Z M 50.398518437499995 59.082963046874994  C 43.850370390625 59.081481484375004  38.268148124999996 55.60888890625  36.130370390625 50.742222187500005  C 35.050370390625 50.912592578125  33.936296328124996 51.001481484375006  32.800000000000004 51.001481484375006  C 30.528888906250003 51.001481484375006  28.35703703125 50.6459259375  26.348148125 49.99703703125  C 25.337777734375 49.67111109375001  21.648888828125 53.533333359375  20.731851796875 53.06518515625  C 20.186666640625003 52.786666640625  22.37925921875 48.21925921875  21.8725925 47.894814765625  C 17.337777656249997 44.9985184375  14.398518437499998 40.346666640624996  14.398518437499998 35.100740703125  C 14.398518437499998 26.318518515625  22.637036953124998 19.200000000000003  32.7985184375 19.200000000000003  C 42.380740625 19.200000000000003  50.251851796875 25.528888906250003  51.1185184375 33.613333359375005  C 59.17925914062501 33.92888890625  65.59851843749999 39.50666671875  65.59851843749999 46.34074078125  C 65.59851843749999 50.585185234375  63.122962890625004 54.34370375  59.31555546875 56.66074078125  C 58.5985184375 57.096296328125  60.86962953125 60.773333359374995  60.06370359374999 61.100740781249996  C 59.56888875 61.302222265625005  56.02518507812499 58.1896296875  55.50074062499999 58.346666718749994  C 53.905185078125 58.82370375  52.188148046874986 59.082963046874994  50.398518437499995 59.082963046874994  Z " fill-rule="evenodd" />
    </mask>
  </defs>
  <g transform="matrix(1 0 0 1 -565 -262 )">
    <path d="M 52.800000000000004 41.6  C 52.800000000000004 42.48296296875  53.51703703125 43.2  54.400000000000006 43.2  C 55.28296296875 43.2  56.00000000000001 42.48296296875  56.00000000000001 41.6  C 56.00000000000001 40.715555546875  55.28296296875 40  54.400000000000006 40  C 53.517037031250005 40  52.800000000000004 40.71703703125  52.800000000000004 41.6  Z M 43.2 41.6  C 43.2 42.48296296875  43.91703703125 43.2  44.800000000000004 43.2  C 45.682962968750005 43.2  46.400000000000006 42.48296296875  46.400000000000006 41.6  C 46.400000000000006 40.715555546875  45.682962968750005 40  44.800000000000004 40  C 43.917037031250004 40  43.2 40.71703703125  43.2 41.6  Z M 36.8 29.6  C 36.800000000000004 30.9259259375  37.875555546875 32  39.2 32  C 40.524444453125 32  41.6 30.9259259375  41.6 29.6  C 41.6 28.2740740625  40.524444453125 27.199999999999996  39.2 27.199999999999996  C 37.875555546875 27.199999999999996  36.8 28.2740740625  36.8 29.6  Z M 23.999999999999993 29.6  C 24 30.9259259375  25.075555546874998 32  26.400000000000002 32  C 27.724444453125 32  28.799999999999997 30.9259259375  28.799999999999997 29.6  C 28.799999999999997 28.2740740625  27.724444453125 27.199999999999996  26.4 27.199999999999996  C 25.075555546874995 27.199999999999996  23.999999999999993 28.2740740625  23.999999999999993 29.6  Z M 0 40  C 0 62.091851875  17.908148125 80  40 80  C 62.091851875 80  80 62.091851875  80 40  C 80 17.908148124999997  62.091851875 0  40 0  C 17.908148124999997 0  0 17.908148125  0 40  Z M 35.198518515625004 46.340740859375  C 35.2 46.811851874999995  35.229629609374996 47.275555546875  35.290370390625 47.733333359375  C 34.481481484375 47.8459259375  33.64888890625 47.903703750000005  32.801481484375 47.903703750000005  C 30.68 47.903703750000005  28.659259296875 47.539259296875  26.823703671875002 46.88000007812501  C 26.641481484375 46.814814921875005  25.988148125000002 46.61777789062501  25.635555546875 46.88000007812501  C 24.841481484375 47.46962968750001  23.77629625 48.696296406250006  23.77629625 48.696296406250006  C 23.77629625 48.696296406250006  24.16740734375 47.804444531250006  24.297777734375 46.50074085937501  C 24.357037031249998 45.90518531250001  23.448888828125 45.4874075  23.266666640625 45.36592601562501  C 19.8103703125 43.02814820312501  17.6 39.165926015625004  17.6 35.15259265625001  C 17.6 28.109629687500007  24.404444453125002 22.400000078125007  32.800000000000004 22.400000078125007  C 40.638518515625 22.400000078125007  47.090370390625004 27.376296406250006  47.91111109375001 33.768888984375  C 40.69925921875001 34.76444453125001  35.198518515625004 40.01333343750001  35.198518515625004 46.340740859375  Z M 50.398518437499995 59.082963046874994  C 43.850370390625 59.081481484375004  38.268148124999996 55.60888890625  36.130370390625 50.742222187500005  C 35.050370390625 50.912592578125  33.936296328124996 51.001481484375006  32.800000000000004 51.001481484375006  C 30.528888906250003 51.001481484375006  28.35703703125 50.6459259375  26.348148125 49.99703703125  C 25.337777734375 49.67111109375001  21.648888828125 53.533333359375  20.731851796875 53.06518515625  C 20.186666640625003 52.786666640625  22.37925921875 48.21925921875  21.8725925 47.894814765625  C 17.337777656249997 44.9985184375  14.398518437499998 40.346666640624996  14.398518437499998 35.100740703125  C 14.398518437499998 26.318518515625  22.637036953124998 19.200000000000003  32.7985184375 19.200000000000003  C 42.380740625 19.200000000000003  50.251851796875 25.528888906250003  51.1185184375 33.613333359375005  C 59.17925914062501 33.92888890625  65.59851843749999 39.50666671875  65.59851843749999 46.34074078125  C 65.59851843749999 50.585185234375  63.122962890625004 54.34370375  59.31555546875 56.66074078125  C 58.5985184375 57.096296328125  60.86962953125 60.773333359374995  60.06370359374999 61.100740781249996  C 59.56888875 61.302222265625005  56.02518507812499 58.1896296875  55.50074062499999 58.346666718749994  C 53.905185078125 58.82370375  52.188148046874986 59.082963046874994  50.398518437499995 59.082963046874994  Z " fill-rule="nonzero" fill="rgba(51, 204, 0, 1)" stroke="none" transform="matrix(1 0 0 1 565 262 )" class="fill" />
    <path d="M 52.800000000000004 41.6  C 52.800000000000004 42.48296296875  53.51703703125 43.2  54.400000000000006 43.2  C 55.28296296875 43.2  56.00000000000001 42.48296296875  56.00000000000001 41.6  C 56.00000000000001 40.715555546875  55.28296296875 40  54.400000000000006 40  C 53.517037031250005 40  52.800000000000004 40.71703703125  52.800000000000004 41.6  Z " stroke-width="0" stroke-dasharray="0" stroke="rgba(255, 255, 255, 0)" fill="none" transform="matrix(1 0 0 1 565 262 )" class="stroke" mask="url(#Clip1257)" />
    <path d="M 43.2 41.6  C 43.2 42.48296296875  43.91703703125 43.2  44.800000000000004 43.2  C 45.682962968750005 43.2  46.400000000000006 42.48296296875  46.400000000000006 41.6  C 46.400000000000006 40.715555546875  45.682962968750005 40  44.800000000000004 40  C 43.917037031250004 40  43.2 40.71703703125  43.2 41.6  Z " stroke-width="0" stroke-dasharray="0" stroke="rgba(255, 255, 255, 0)" fill="none" transform="matrix(1 0 0 1 565 262 )" class="stroke" mask="url(#Clip1257)" />
    <path d="M 36.8 29.6  C 36.800000000000004 30.9259259375  37.875555546875 32  39.2 32  C 40.524444453125 32  41.6 30.9259259375  41.6 29.6  C 41.6 28.2740740625  40.524444453125 27.199999999999996  39.2 27.199999999999996  C 37.875555546875 27.199999999999996  36.8 28.2740740625  36.8 29.6  Z " stroke-width="0" stroke-dasharray="0" stroke="rgba(255, 255, 255, 0)" fill="none" transform="matrix(1 0 0 1 565 262 )" class="stroke" mask="url(#Clip1257)" />
    <path d="M 23.999999999999993 29.6  C 24 30.9259259375  25.075555546874998 32  26.400000000000002 32  C 27.724444453125 32  28.799999999999997 30.9259259375  28.799999999999997 29.6  C 28.799999999999997 28.2740740625  27.724444453125 27.199999999999996  26.4 27.199999999999996  C 25.075555546874995 27.199999999999996  23.999999999999993 28.2740740625  23.999999999999993 29.6  Z " stroke-width="0" stroke-dasharray="0" stroke="rgba(255, 255, 255, 0)" fill="none" transform="matrix(1 0 0 1 565 262 )" class="stroke" mask="url(#Clip1257)" />
    <path d="M 0 40  C 0 62.091851875  17.908148125 80  40 80  C 62.091851875 80  80 62.091851875  80 40  C 80 17.908148124999997  62.091851875 0  40 0  C 17.908148124999997 0  0 17.908148125  0 40  Z " stroke-width="0" stroke-dasharray="0" stroke="rgba(255, 255, 255, 0)" fill="none" transform="matrix(1 0 0 1 565 262 )" class="stroke" mask="url(#Clip1257)" />
    <path d="M 35.198518515625004 46.340740859375  C 35.2 46.811851874999995  35.229629609374996 47.275555546875  35.290370390625 47.733333359375  C 34.481481484375 47.8459259375  33.64888890625 47.903703750000005  32.801481484375 47.903703750000005  C 30.68 47.903703750000005  28.659259296875 47.539259296875  26.823703671875002 46.88000007812501  C 26.641481484375 46.814814921875005  25.988148125000002 46.61777789062501  25.635555546875 46.88000007812501  C 24.841481484375 47.46962968750001  23.77629625 48.696296406250006  23.77629625 48.696296406250006  C 23.77629625 48.696296406250006  24.16740734375 47.804444531250006  24.297777734375 46.50074085937501  C 24.357037031249998 45.90518531250001  23.448888828125 45.4874075  23.266666640625 45.36592601562501  C 19.8103703125 43.02814820312501  17.6 39.165926015625004  17.6 35.15259265625001  C 17.6 28.109629687500007  24.404444453125002 22.400000078125007  32.800000000000004 22.400000078125007  C 40.638518515625 22.400000078125007  47.090370390625004 27.376296406250006  47.91111109375001 33.768888984375  C 40.69925921875001 34.76444453125001  35.198518515625004 40.01333343750001  35.198518515625004 46.340740859375  Z " stroke-width="0" stroke-dasharray="0" stroke="rgba(255, 255, 255, 0)" fill="none" transform="matrix(1 0 0 1 565 262 )" class="stroke" mask="url(#Clip1257)" />
    <path d="M 50.398518437499995 59.082963046874994  C 43.850370390625 59.081481484375004  38.268148124999996 55.60888890625  36.130370390625 50.742222187500005  C 35.050370390625 50.912592578125  33.936296328124996 51.001481484375006  32.800000000000004 51.001481484375006  C 30.528888906250003 51.001481484375006  28.35703703125 50.6459259375  26.348148125 49.99703703125  C 25.337777734375 49.67111109375001  21.648888828125 53.533333359375  20.731851796875 53.06518515625  C 20.186666640625003 52.786666640625  22.37925921875 48.21925921875  21.8725925 47.894814765625  C 17.337777656249997 44.9985184375  14.398518437499998 40.346666640624996  14.398518437499998 35.100740703125  C 14.398518437499998 26.318518515625  22.637036953124998 19.200000000000003  32.7985184375 19.200000000000003  C 42.380740625 19.200000000000003  50.251851796875 25.528888906250003  51.1185184375 33.613333359375005  C 59.17925914062501 33.92888890625  65.59851843749999 39.50666671875  65.59851843749999 46.34074078125  C 65.59851843749999 50.585185234375  63.122962890625004 54.34370375  59.31555546875 56.66074078125  C 58.5985184375 57.096296328125  60.86962953125 60.773333359374995  60.06370359374999 61.100740781249996  C 59.56888875 61.302222265625005  56.02518507812499 58.1896296875  55.50074062499999 58.346666718749994  C 53.905185078125 58.82370375  52.188148046874986 59.082963046874994  50.398518437499995 59.082963046874994  Z " stroke-width="0" stroke-dasharray="0" stroke="rgba(255, 255, 255, 0)" fill="none" transform="matrix(1 0 0 1 565 262 )" class="stroke" mask="url(#Clip1257)" />
  </g>
</svg>