<?xml version="1.0" encoding="utf-8"?>
<svg version="1.1" xmlns:xlink="http://www.w3.org/1999/xlink" width="80px" height="80px" xmlns="http://www.w3.org/2000/svg">
  <defs>
    <pattern id="BGPattern" patternUnits="userSpaceOnUse" alignment="0 0" imageRepeat="None" />
    <mask fill="white" id="Clip15864">
      <path d="M 80 40  C 80 17.908148124999997  62.091851875 0  40 0  C 17.908148125 0  0 17.908148125  0 40  C 0 62.091851875  17.908148125 80  40 80  C 62.091851875 80  80 62.091851875  80 40  Z M 63.305185312499994 43.76444453124999  C 64.721481484375 49.121481484374996  63.305185156250005 51.64888890625  62.598518515625 52.25481484375  C 60.900740703125 53.711111171875  58.696296328125 47.462222265625  58.37925921874999 48.42370375  C 57.60740734375 50.761481562499995  57.245925859375 52.324444453125  54.970370312499995 54.869629687499994  C 54.84888882812499 55.00592601562499  57.599999921874996 56.000000078125  58.37925921874999 58.12296304687499  C 59.125925859374995 60.15555562499999  60.577777734375 63.37777789062499  51.075555546875 64.38962968749999  C 45.500740703125004 64.982222265625  41.471111093750004 61.41925929687499  41.069629609375 61.453333359374994  C 40.324444453125 61.51851851562499  40.65629625 61.453333359374994  39.85629625 61.453333359374994  C 39.20148140625 61.453333359374994  39.15851843749999 61.50074078124999  38.542222187499995 61.453333359374994  C 38.37333328124999 61.43999999999999  36.519999999999996 64.38962968749999  28.232592578124994 64.38962968749999  C 21.808888906249994 64.38962968749999  20.145185156249994 60.34666671875  21.437037031249993 58.12296304687499  C 22.728888906249995 55.89925937499999  24.884444453124996 55.25185195312499  24.580740703124995 54.899259374999986  C 23.084444374999997 53.16592601562499  22.053333281249998 51.312592734374995  21.437037031249993 49.637037187499985  C 21.284444453124994 49.219259374999986  21.157037031249995 48.81333351562499  21.056296328124994 48.423703828124985  C 20.822222265624994 47.52888898437499  19.03407414062499 53.67407421874999  17.114074140624993 52.25481492187499  C 15.194074140624993 50.83555562499999  15.365926015624993 47.22222234374999  16.608888984374993 43.76444453124999  C 17.86222234374999 40.278518593749986  21.020740859374992 36.92148156249999  21.05629640624999 36.18074085937499  C 21.18222234374999 33.423703828124985  20.78370382812499 32.96592601562499  21.05629640624999 32.241481562499985  C 21.662222343749992 30.619259374999984  22.400000078124993 31.241481562499985  22.400000078124993 30.400000078124986  C 22.400000078124993 19.795555624999988  30.280000078124996 11.200000078124987  40.00000007812499 11.200000078124987  C 49.72000007812498 11.200000078124987  57.60000007812499 19.79703710937499  57.60000007812499 30.400000078124986  C 57.60000007812499 30.805926015624987  58.656296406249986 30.400000078124986  59.161481562499986 32.241481562499985  C 59.26518523437498 32.62222226562499  59.336296406249986 34.09037046874999  59.21333343749999 36.18074085937499  C 59.15555562499999 37.18518531249999  61.89037046874999 38.40740749999999  63.305185312499994 43.76444453124999  Z " fill-rule="evenodd" />
    </mask>
  </defs>
  <g transform="matrix(1 0 0 1 -465 -262 )">
    <path d="M 80 40  C 80 17.908148124999997  62.091851875 0  40 0  C 17.908148125 0  0 17.908148125  0 40  C 0 62.091851875  17.908148125 80  40 80  C 62.091851875 80  80 62.091851875  80 40  Z M 63.305185312499994 43.76444453124999  C 64.721481484375 49.121481484374996  63.305185156250005 51.64888890625  62.598518515625 52.25481484375  C 60.900740703125 53.711111171875  58.696296328125 47.462222265625  58.37925921874999 48.42370375  C 57.60740734375 50.761481562499995  57.245925859375 52.324444453125  54.970370312499995 54.869629687499994  C 54.84888882812499 55.00592601562499  57.599999921874996 56.000000078125  58.37925921874999 58.12296304687499  C 59.125925859374995 60.15555562499999  60.577777734375 63.37777789062499  51.075555546875 64.38962968749999  C 45.500740703125004 64.982222265625  41.471111093750004 61.41925929687499  41.069629609375 61.453333359374994  C 40.324444453125 61.51851851562499  40.65629625 61.453333359374994  39.85629625 61.453333359374994  C 39.20148140625 61.453333359374994  39.15851843749999 61.50074078124999  38.542222187499995 61.453333359374994  C 38.37333328124999 61.43999999999999  36.519999999999996 64.38962968749999  28.232592578124994 64.38962968749999  C 21.808888906249994 64.38962968749999  20.145185156249994 60.34666671875  21.437037031249993 58.12296304687499  C 22.728888906249995 55.89925937499999  24.884444453124996 55.25185195312499  24.580740703124995 54.899259374999986  C 23.084444374999997 53.16592601562499  22.053333281249998 51.312592734374995  21.437037031249993 49.637037187499985  C 21.284444453124994 49.219259374999986  21.157037031249995 48.81333351562499  21.056296328124994 48.423703828124985  C 20.822222265624994 47.52888898437499  19.03407414062499 53.67407421874999  17.114074140624993 52.25481492187499  C 15.194074140624993 50.83555562499999  15.365926015624993 47.22222234374999  16.608888984374993 43.76444453124999  C 17.86222234374999 40.278518593749986  21.020740859374992 36.92148156249999  21.05629640624999 36.18074085937499  C 21.18222234374999 33.423703828124985  20.78370382812499 32.96592601562499  21.05629640624999 32.241481562499985  C 21.662222343749992 30.619259374999984  22.400000078124993 31.241481562499985  22.400000078124993 30.400000078124986  C 22.400000078124993 19.795555624999988  30.280000078124996 11.200000078124987  40.00000007812499 11.200000078124987  C 49.72000007812498 11.200000078124987  57.60000007812499 19.79703710937499  57.60000007812499 30.400000078124986  C 57.60000007812499 30.805926015624987  58.656296406249986 30.400000078124986  59.161481562499986 32.241481562499985  C 59.26518523437498 32.62222226562499  59.336296406249986 34.09037046874999  59.21333343749999 36.18074085937499  C 59.15555562499999 37.18518531249999  61.89037046874999 38.40740749999999  63.305185312499994 43.76444453124999  Z " fill-rule="nonzero" fill="rgba(104, 165, 225, 1)" stroke="none" transform="matrix(1 0 0 1 465 262 )" class="fill" />
    <path d="M 80 40  C 80 17.908148124999997  62.091851875 0  40 0  C 17.908148125 0  0 17.908148125  0 40  C 0 62.091851875  17.908148125 80  40 80  C 62.091851875 80  80 62.091851875  80 40  Z " stroke-width="0" stroke-dasharray="0" stroke="rgba(255, 255, 255, 0)" fill="none" transform="matrix(1 0 0 1 465 262 )" class="stroke" mask="url(#Clip15864)" />
    <path d="M 63.305185312499994 43.76444453124999  C 64.721481484375 49.121481484374996  63.305185156250005 51.64888890625  62.598518515625 52.25481484375  C 60.900740703125 53.711111171875  58.696296328125 47.462222265625  58.37925921874999 48.42370375  C 57.60740734375 50.761481562499995  57.245925859375 52.324444453125  54.970370312499995 54.869629687499994  C 54.84888882812499 55.00592601562499  57.599999921874996 56.000000078125  58.37925921874999 58.12296304687499  C 59.125925859374995 60.15555562499999  60.577777734375 63.37777789062499  51.075555546875 64.38962968749999  C 45.500740703125004 64.982222265625  41.471111093750004 61.41925929687499  41.069629609375 61.453333359374994  C 40.324444453125 61.51851851562499  40.65629625 61.453333359374994  39.85629625 61.453333359374994  C 39.20148140625 61.453333359374994  39.15851843749999 61.50074078124999  38.542222187499995 61.453333359374994  C 38.37333328124999 61.43999999999999  36.519999999999996 64.38962968749999  28.232592578124994 64.38962968749999  C 21.808888906249994 64.38962968749999  20.145185156249994 60.34666671875  21.437037031249993 58.12296304687499  C 22.728888906249995 55.89925937499999  24.884444453124996 55.25185195312499  24.580740703124995 54.899259374999986  C 23.084444374999997 53.16592601562499  22.053333281249998 51.312592734374995  21.437037031249993 49.637037187499985  C 21.284444453124994 49.219259374999986  21.157037031249995 48.81333351562499  21.056296328124994 48.423703828124985  C 20.822222265624994 47.52888898437499  19.03407414062499 53.67407421874999  17.114074140624993 52.25481492187499  C 15.194074140624993 50.83555562499999  15.365926015624993 47.22222234374999  16.608888984374993 43.76444453124999  C 17.86222234374999 40.278518593749986  21.020740859374992 36.92148156249999  21.05629640624999 36.18074085937499  C 21.18222234374999 33.423703828124985  20.78370382812499 32.96592601562499  21.05629640624999 32.241481562499985  C 21.662222343749992 30.619259374999984  22.400000078124993 31.241481562499985  22.400000078124993 30.400000078124986  C 22.400000078124993 19.795555624999988  30.280000078124996 11.200000078124987  40.00000007812499 11.200000078124987  C 49.72000007812498 11.200000078124987  57.60000007812499 19.79703710937499  57.60000007812499 30.400000078124986  C 57.60000007812499 30.805926015624987  58.656296406249986 30.400000078124986  59.161481562499986 32.241481562499985  C 59.26518523437498 32.62222226562499  59.336296406249986 34.09037046874999  59.21333343749999 36.18074085937499  C 59.15555562499999 37.18518531249999  61.89037046874999 38.40740749999999  63.305185312499994 43.76444453124999  Z " stroke-width="0" stroke-dasharray="0" stroke="rgba(255, 255, 255, 0)" fill="none" transform="matrix(1 0 0 1 465 262 )" class="stroke" mask="url(#Clip15864)" />
  </g>
</svg>