<?xml version="1.0" encoding="utf-8"?>
<svg version="1.1" xmlns:xlink="http://www.w3.org/1999/xlink" width="5px" height="6px" xmlns="http://www.w3.org/2000/svg">
  <defs>
    <pattern id="BGPattern" patternUnits="userSpaceOnUse" alignment="0 0" imageRepeat="None" />
    <mask fill="white" id="Clip10136">
      <path d="M 2.493881171875003 5.435973802464815  C 2.852343269619162 5.435973802464815  3.2036589883567643 5.302345090836631  3.508121171874997 5.050190937499998  C 4.072342380976757 4.582905576698828  4.415447934840735 3.7603840962552937  4.415447934840735 2.8750709374999985  C 4.415447934840735 1.4607233393819357  3.555133190842696 0.31416807253517476  2.493881171875003 0.31416807253517476  C 2.135419074130837 0.31416807253517476  1.7841033553932313 0.44779678416335855  1.4796411718749987 0.6999509374999917  C 0.9154199627732424 1.1672362983011624  0.5723144089092642 1.9897577787446963  0.5723144089092642 2.8750709374999985  C 0.5723144089092642 4.289418535618061  1.4326291529073032 5.435973802464815  2.493881171875003 5.435973802464815  Z " fill-rule="evenodd" />
    </mask>
  </defs>
  <g transform="matrix(1 0 0 1 -693 -307 )">
    <path d="M 2.493881171875003 5.435973802464815  C 2.852343269619162 5.435973802464815  3.2036589883567643 5.302345090836631  3.508121171874997 5.050190937499998  C 4.072342380976757 4.582905576698828  4.415447934840735 3.7603840962552937  4.415447934840735 2.8750709374999985  C 4.415447934840735 1.4607233393819357  3.555133190842696 0.31416807253517476  2.493881171875003 0.31416807253517476  C 2.135419074130837 0.31416807253517476  1.7841033553932313 0.44779678416335855  1.4796411718749987 0.6999509374999917  C 0.9154199627732424 1.1672362983011624  0.5723144089092642 1.9897577787446963  0.5723144089092642 2.8750709374999985  C 0.5723144089092642 4.289418535618061  1.4326291529073032 5.435973802464815  2.493881171875003 5.435973802464815  Z " fill-rule="nonzero" fill="rgba(245, 100, 103, 1)" stroke="none" transform="matrix(1 0 0 1 693 307 )" class="fill" />
    <path d="M 2.493881171875003 5.435973802464815  C 2.852343269619162 5.435973802464815  3.2036589883567643 5.302345090836631  3.508121171874997 5.050190937499998  C 4.072342380976757 4.582905576698828  4.415447934840735 3.7603840962552937  4.415447934840735 2.8750709374999985  C 4.415447934840735 1.4607233393819357  3.555133190842696 0.31416807253517476  2.493881171875003 0.31416807253517476  C 2.135419074130837 0.31416807253517476  1.7841033553932313 0.44779678416335855  1.4796411718749987 0.6999509374999917  C 0.9154199627732424 1.1672362983011624  0.5723144089092642 1.9897577787446963  0.5723144089092642 2.8750709374999985  C 0.5723144089092642 4.289418535618061  1.4326291529073032 5.435973802464815  2.493881171875003 5.435973802464815  Z " stroke-width="0" stroke-dasharray="0" stroke="rgba(255, 255, 255, 0)" fill="none" transform="matrix(1 0 0 1 693 307 )" class="stroke" mask="url(#Clip10136)" />
  </g>
</svg>