<?xml version="1.0" encoding="utf-8"?>
<svg version="1.1" xmlns:xlink="http://www.w3.org/1999/xlink" width="80px" height="80px" xmlns="http://www.w3.org/2000/svg">
  <defs>
    <pattern id="BGPattern" patternUnits="userSpaceOnUse" alignment="0 0" imageRepeat="None" />
    <mask fill="white" id="Clip3680">
      <path d="M 80 40  C 80 17.908148124999997  62.09037039062501 0  40.00000000000001 0  C 17.909629609375006 0  0 17.908148125  0 40  C 0 62.091851875  17.909629609375006 80  40.00000000000001 80  C 62.09037039062501 80  80 62.091851875  80 40  Z M 60.69333328125001 44.800000000000004  C 60.69333335937501 53.63703703125  49.696296328125 60.8  36.00000000000001 60.8  C 22.30370367187501 60.8  11.200000000000008 53.63703703125  11.200000000000008 44.801481484375  C 11.200000000000008 35.9659259375  27.829629609375004 22.013333359375004  34.19111109375001 22.013333359375004  C 36.857777734375006 22.013333359375004  42.09333328125 24.001481484375002  38.43111109375001 30.300740781250006  C 38.17481476562501 30.740740781250008  46.69037039062501 26.637037109375008  51.34518515625001 29.336296328125005  C 56.00148148437501 32.03555562500001  51.34518515625001 36.371851875000004  51.34518515625001 36.85333335937501  C 51.34518515625001 37.33481484375  60.69333328125001 37.33481484375  60.69333328125001 44.800000000000004  Z M 55.93185187499999 32.43111109375  C 55.93185187499999 32.429629609375  57.03111109375001 29.9140740625  55.49037039062501 28.08296296875  C 53.94814820312501 26.251851875  51.191111093749996 26.68  51.191111093749996 26.68  C 50.383703671875004 26.687407421875  49.755555546875016 26.124444453125  49.64444445312501 25.364444453125003  C 49.634074062500005 25.441481484375  49.60000000000001 25.512592578125002  49.60000000000001 25.59111109375  L 49.60000000000001 25.14518515625  C 49.60000000000001 25.223703671875004  49.634074062500005 25.290370312500002  49.64444445312501 25.364444453125003  C 49.755555546875016 24.583703750000005  50.38962960937501 23.896296328125  51.18666664062501 23.79111109375  C 51.18666664062501 23.79111109375  54.524444453125014 22.878518515625004  57.41629625000001 25.481481484375  C 60.30814812500001 28.084444453125  59.124444375 32.388148125  59.124444375 32.388148125  C 58.999999921875 33.263703671875  58.143703671875 33.96296296875  57.25481476562501 33.96296296875  L 57.09629632812501 33.96296296875  C 56.205925937500005 33.96296296875  55.68740742187501 33.27703703125  55.93185187499999 32.43111109375  Z M 62.81333343749999 20.27703710937501  C 68.11407406250001 25.287407421875  66.45481484375 33.61481484375  66.45481484375 33.61481484375  C 66.34370375 34.83259265625  65.281481484375 35.82370375  64.071111171875 35.96  C 64.16000007812502 35.970370390625  64.245926015625 35.986666640625  64.33925929687501 35.986666640625  L 63.794074140625 35.986666640625  C 63.8874075 35.986666640625  63.979259296875 35.9703703125  64.071111171875 35.96  C 62.897777812499996 35.823703671875  62.108148203125 34.83111109375  62.27851859375 33.611851875  C 62.27851859375 33.611851875  63.58370375 28.564444453125006  60.40444453124999 24.000000000000004  C 57.223703828125 19.435555546875  50.388148203125 20.223703671875004  50.388148203125 20.223703671875004  C 49.173333359375 20.222222187500005  48.154074140625 19.328888828125002  48.025185234374995 18.136296250000004  C 48.016296328124994 18.220740703125003  48.000000078125 18.302222187500004  48.000000078125 18.388148125000004  L 48.000000078125 17.887407421875004  C 48.000000078125 17.973333359375005  48.01629640624999 18.053333359375003  48.025185234374995 18.136296328125002  C 48.15407414062499 16.943703750000005  49.158518593749996 15.992592656250004  50.39555562499999 15.983703750000004  C 50.39555562499999 15.983703750000004  57.51259265624999 15.265185234375005  62.81333343749999 20.27703710937501  Z " fill-rule="evenodd" />
    </mask>
  </defs>
  <g transform="matrix(1 0 0 1 -665 -262 )">
    <path d="M 80 40  C 80 17.908148124999997  62.09037039062501 0  40.00000000000001 0  C 17.909629609375006 0  0 17.908148125  0 40  C 0 62.091851875  17.909629609375006 80  40.00000000000001 80  C 62.09037039062501 80  80 62.091851875  80 40  Z M 60.69333328125001 44.800000000000004  C 60.69333335937501 53.63703703125  49.696296328125 60.8  36.00000000000001 60.8  C 22.30370367187501 60.8  11.200000000000008 53.63703703125  11.200000000000008 44.801481484375  C 11.200000000000008 35.9659259375  27.829629609375004 22.013333359375004  34.19111109375001 22.013333359375004  C 36.857777734375006 22.013333359375004  42.09333328125 24.001481484375002  38.43111109375001 30.300740781250006  C 38.17481476562501 30.740740781250008  46.69037039062501 26.637037109375008  51.34518515625001 29.336296328125005  C 56.00148148437501 32.03555562500001  51.34518515625001 36.371851875000004  51.34518515625001 36.85333335937501  C 51.34518515625001 37.33481484375  60.69333328125001 37.33481484375  60.69333328125001 44.800000000000004  Z M 55.93185187499999 32.43111109375  C 55.93185187499999 32.429629609375  57.03111109375001 29.9140740625  55.49037039062501 28.08296296875  C 53.94814820312501 26.251851875  51.191111093749996 26.68  51.191111093749996 26.68  C 50.383703671875004 26.687407421875  49.755555546875016 26.124444453125  49.64444445312501 25.364444453125003  C 49.634074062500005 25.441481484375  49.60000000000001 25.512592578125002  49.60000000000001 25.59111109375  L 49.60000000000001 25.14518515625  C 49.60000000000001 25.223703671875004  49.634074062500005 25.290370312500002  49.64444445312501 25.364444453125003  C 49.755555546875016 24.583703750000005  50.38962960937501 23.896296328125  51.18666664062501 23.79111109375  C 51.18666664062501 23.79111109375  54.524444453125014 22.878518515625004  57.41629625000001 25.481481484375  C 60.30814812500001 28.084444453125  59.124444375 32.388148125  59.124444375 32.388148125  C 58.999999921875 33.263703671875  58.143703671875 33.96296296875  57.25481476562501 33.96296296875  L 57.09629632812501 33.96296296875  C 56.205925937500005 33.96296296875  55.68740742187501 33.27703703125  55.93185187499999 32.43111109375  Z M 62.81333343749999 20.27703710937501  C 68.11407406250001 25.287407421875  66.45481484375 33.61481484375  66.45481484375 33.61481484375  C 66.34370375 34.83259265625  65.281481484375 35.82370375  64.071111171875 35.96  C 64.16000007812502 35.970370390625  64.245926015625 35.986666640625  64.33925929687501 35.986666640625  L 63.794074140625 35.986666640625  C 63.8874075 35.986666640625  63.979259296875 35.9703703125  64.071111171875 35.96  C 62.897777812499996 35.823703671875  62.108148203125 34.83111109375  62.27851859375 33.611851875  C 62.27851859375 33.611851875  63.58370375 28.564444453125006  60.40444453124999 24.000000000000004  C 57.223703828125 19.435555546875  50.388148203125 20.223703671875004  50.388148203125 20.223703671875004  C 49.173333359375 20.222222187500005  48.154074140625 19.328888828125002  48.025185234374995 18.136296250000004  C 48.016296328124994 18.220740703125003  48.000000078125 18.302222187500004  48.000000078125 18.388148125000004  L 48.000000078125 17.887407421875004  C 48.000000078125 17.973333359375005  48.01629640624999 18.053333359375003  48.025185234374995 18.136296328125002  C 48.15407414062499 16.943703750000005  49.158518593749996 15.992592656250004  50.39555562499999 15.983703750000004  C 50.39555562499999 15.983703750000004  57.51259265624999 15.265185234375005  62.81333343749999 20.27703710937501  Z " fill-rule="nonzero" fill="rgba(245, 100, 103, 1)" stroke="none" transform="matrix(1 0 0 1 665 262 )" class="fill" />
    <path d="M 80 40  C 80 17.908148124999997  62.09037039062501 0  40.00000000000001 0  C 17.909629609375006 0  0 17.908148125  0 40  C 0 62.091851875  17.909629609375006 80  40.00000000000001 80  C 62.09037039062501 80  80 62.091851875  80 40  Z " stroke-width="0" stroke-dasharray="0" stroke="rgba(255, 255, 255, 0)" fill="none" transform="matrix(1 0 0 1 665 262 )" class="stroke" mask="url(#Clip3680)" />
    <path d="M 60.69333328125001 44.800000000000004  C 60.69333335937501 53.63703703125  49.696296328125 60.8  36.00000000000001 60.8  C 22.30370367187501 60.8  11.200000000000008 53.63703703125  11.200000000000008 44.801481484375  C 11.200000000000008 35.9659259375  27.829629609375004 22.013333359375004  34.19111109375001 22.013333359375004  C 36.857777734375006 22.013333359375004  42.09333328125 24.001481484375002  38.43111109375001 30.300740781250006  C 38.17481476562501 30.740740781250008  46.69037039062501 26.637037109375008  51.34518515625001 29.336296328125005  C 56.00148148437501 32.03555562500001  51.34518515625001 36.371851875000004  51.34518515625001 36.85333335937501  C 51.34518515625001 37.33481484375  60.69333328125001 37.33481484375  60.69333328125001 44.800000000000004  Z " stroke-width="0" stroke-dasharray="0" stroke="rgba(255, 255, 255, 0)" fill="none" transform="matrix(1 0 0 1 665 262 )" class="stroke" mask="url(#Clip3680)" />
    <path d="M 55.93185187499999 32.43111109375  C 55.93185187499999 32.429629609375  57.03111109375001 29.9140740625  55.49037039062501 28.08296296875  C 53.94814820312501 26.251851875  51.191111093749996 26.68  51.191111093749996 26.68  C 50.383703671875004 26.687407421875  49.755555546875016 26.124444453125  49.64444445312501 25.364444453125003  C 49.634074062500005 25.441481484375  49.60000000000001 25.512592578125002  49.60000000000001 25.59111109375  L 49.60000000000001 25.14518515625  C 49.60000000000001 25.223703671875004  49.634074062500005 25.290370312500002  49.64444445312501 25.364444453125003  C 49.755555546875016 24.583703750000005  50.38962960937501 23.896296328125  51.18666664062501 23.79111109375  C 51.18666664062501 23.79111109375  54.524444453125014 22.878518515625004  57.41629625000001 25.481481484375  C 60.30814812500001 28.084444453125  59.124444375 32.388148125  59.124444375 32.388148125  C 58.999999921875 33.263703671875  58.143703671875 33.96296296875  57.25481476562501 33.96296296875  L 57.09629632812501 33.96296296875  C 56.205925937500005 33.96296296875  55.68740742187501 33.27703703125  55.93185187499999 32.43111109375  Z " stroke-width="0" stroke-dasharray="0" stroke="rgba(255, 255, 255, 0)" fill="none" transform="matrix(1 0 0 1 665 262 )" class="stroke" mask="url(#Clip3680)" />
    <path d="M 62.81333343749999 20.27703710937501  C 68.11407406250001 25.287407421875  66.45481484375 33.61481484375  66.45481484375 33.61481484375  C 66.34370375 34.83259265625  65.281481484375 35.82370375  64.071111171875 35.96  C 64.16000007812502 35.970370390625  64.245926015625 35.986666640625  64.33925929687501 35.986666640625  L 63.794074140625 35.986666640625  C 63.8874075 35.986666640625  63.979259296875 35.9703703125  64.071111171875 35.96  C 62.897777812499996 35.823703671875  62.108148203125 34.83111109375  62.27851859375 33.611851875  C 62.27851859375 33.611851875  63.58370375 28.564444453125006  60.40444453124999 24.000000000000004  C 57.223703828125 19.435555546875  50.388148203125 20.223703671875004  50.388148203125 20.223703671875004  C 49.173333359375 20.222222187500005  48.154074140625 19.328888828125002  48.025185234374995 18.136296250000004  C 48.016296328124994 18.220740703125003  48.000000078125 18.302222187500004  48.000000078125 18.388148125000004  L 48.000000078125 17.887407421875004  C 48.000000078125 17.973333359375005  48.01629640624999 18.053333359375003  48.025185234374995 18.136296328125002  C 48.15407414062499 16.943703750000005  49.158518593749996 15.992592656250004  50.39555562499999 15.983703750000004  C 50.39555562499999 15.983703750000004  57.51259265624999 15.265185234375005  62.81333343749999 20.27703710937501  Z " stroke-width="0" stroke-dasharray="0" stroke="rgba(255, 255, 255, 0)" fill="none" transform="matrix(1 0 0 1 665 262 )" class="stroke" mask="url(#Clip3680)" />
  </g>
</svg>