<?xml version="1.0" encoding="utf-8"?>
<svg version="1.1" xmlns:xlink="http://www.w3.org/1999/xlink" width="17px" height="18px" xmlns="http://www.w3.org/2000/svg">
  <defs>
    <pattern id="BGPattern" patternUnits="userSpaceOnUse" alignment="0 0" imageRepeat="None" />
    <mask fill="white" id="Clip5764">
      <path d="M 5.68359375 7.203125  C 7.365234375 7.203125  8.52734375 6.779296875  9.171875 6.08203125  C 9.814453125 5.384765625000001  10.13671875 4.925781250000001  10.13671875 3.91796875  C 10.13671875 3.330078125  10.015624999999998 2.8515625000000004  9.775390625 2.361328125000001  C 9.53515625 1.8710937500000004  9.216796875 1.4902343750000004  8.822265625 1.2167968750000004  C 8.427734375 0.9453125000000004  7.9375 0.7597656250000004  7.353515625 0.6621093750000004  C 6.9375 0.5859375000000004  6.333984375 0.5488281250000004  5.544921875000002 0.5488281250000004  L 1.650390625 0.5488281250000004  C 1.076171875 0.5488281250000004  0.6640625 1.3125000000000009  1 1.3125000000000009  L 1 13.210937500000004  L 1.447265625 13.210937500000004  L 1.447265625 7.203125  L 5.68359375 7.203125  Z M 9.2734375 3.87109375  C 9.275390625000002 4.7421875  8.953125000000002 5.173828124999998  8.408203125 5.654296875000002  C 7.86328125 6.134765625000002  7.041015625 6.398437500000002  5.746093749999999 6.398437500000002  L 1.4296874999999991 6.398437500000002  L 1.4296874999999991 1.7734375  C 1.4296874999999991 1.7734375  1.6347656249999991 1.37890625  1.9492187499999991 1.37890625  L 5.705078125 1.37890625  C 6.615234375 1.37890625  7.23828125 1.423828125  7.576171875 1.513671875  C 8.099609375 1.658203125  8.47265625 1.9550781249999996  8.79296875 2.4062499999999996  C 9.11328125 2.857421875  9.2734375 3.238281249999999  9.2734375 3.87109375  Z M 16.689453125 17.509765625  L 9.818359375 10.638671875000002  L 15.3828125 5.07421875  L 14.259765625 5.07421875  L 7.810546875 11.5234375  L 7.810546875 7.984375  L 7.017578125 7.984375  L 7.017578125 12.318359375  L 6.94140625 12.39453125  L 7.017578125 12.470703124999998  L 7.017578125 17.509765625  L 7.810546875 17.509765625  L 7.810546875 12.646484374999998  L 9.251953125 11.205078125  L 15.556640625 17.509765625  L 16.689453125 17.509765625  Z " fill-rule="evenodd" />
    </mask>
  </defs>
  <g transform="matrix(1 0 0 1 -24 -63 )">
    <path d="M 5.68359375 7.203125  C 7.365234375 7.203125  8.52734375 6.779296875  9.171875 6.08203125  C 9.814453125 5.384765625000001  10.13671875 4.925781250000001  10.13671875 3.91796875  C 10.13671875 3.330078125  10.015624999999998 2.8515625000000004  9.775390625 2.361328125000001  C 9.53515625 1.8710937500000004  9.216796875 1.4902343750000004  8.822265625 1.2167968750000004  C 8.427734375 0.9453125000000004  7.9375 0.7597656250000004  7.353515625 0.6621093750000004  C 6.9375 0.5859375000000004  6.333984375 0.5488281250000004  5.544921875000002 0.5488281250000004  L 1.650390625 0.5488281250000004  C 1.076171875 0.5488281250000004  0.6640625 1.3125000000000009  1 1.3125000000000009  L 1 13.210937500000004  L 1.447265625 13.210937500000004  L 1.447265625 7.203125  L 5.68359375 7.203125  Z M 9.2734375 3.87109375  C 9.275390625000002 4.7421875  8.953125000000002 5.173828124999998  8.408203125 5.654296875000002  C 7.86328125 6.134765625000002  7.041015625 6.398437500000002  5.746093749999999 6.398437500000002  L 1.4296874999999991 6.398437500000002  L 1.4296874999999991 1.7734375  C 1.4296874999999991 1.7734375  1.6347656249999991 1.37890625  1.9492187499999991 1.37890625  L 5.705078125 1.37890625  C 6.615234375 1.37890625  7.23828125 1.423828125  7.576171875 1.513671875  C 8.099609375 1.658203125  8.47265625 1.9550781249999996  8.79296875 2.4062499999999996  C 9.11328125 2.857421875  9.2734375 3.238281249999999  9.2734375 3.87109375  Z M 16.689453125 17.509765625  L 9.818359375 10.638671875000002  L 15.3828125 5.07421875  L 14.259765625 5.07421875  L 7.810546875 11.5234375  L 7.810546875 7.984375  L 7.017578125 7.984375  L 7.017578125 12.318359375  L 6.94140625 12.39453125  L 7.017578125 12.470703124999998  L 7.017578125 17.509765625  L 7.810546875 17.509765625  L 7.810546875 12.646484374999998  L 9.251953125 11.205078125  L 15.556640625 17.509765625  L 16.689453125 17.509765625  Z " fill-rule="nonzero" fill="rgba(255, 255, 255, 1)" stroke="none" transform="matrix(1 0 0 1 24 63 )" class="fill" />
    <path d="M 5.68359375 7.203125  C 7.365234375 7.203125  8.52734375 6.779296875  9.171875 6.08203125  C 9.814453125 5.384765625000001  10.13671875 4.925781250000001  10.13671875 3.91796875  C 10.13671875 3.330078125  10.015624999999998 2.8515625000000004  9.775390625 2.361328125000001  C 9.53515625 1.8710937500000004  9.216796875 1.4902343750000004  8.822265625 1.2167968750000004  C 8.427734375 0.9453125000000004  7.9375 0.7597656250000004  7.353515625 0.6621093750000004  C 6.9375 0.5859375000000004  6.333984375 0.5488281250000004  5.544921875000002 0.5488281250000004  L 1.650390625 0.5488281250000004  C 1.076171875 0.5488281250000004  0.6640625 1.3125000000000009  1 1.3125000000000009  L 1 13.210937500000004  L 1.447265625 13.210937500000004  L 1.447265625 7.203125  L 5.68359375 7.203125  Z " stroke-width="0" stroke-dasharray="0" stroke="rgba(255, 255, 255, 0)" fill="none" transform="matrix(1 0 0 1 24 63 )" class="stroke" mask="url(#Clip5764)" />
    <path d="M 9.2734375 3.87109375  C 9.275390625000002 4.7421875  8.953125000000002 5.173828124999998  8.408203125 5.654296875000002  C 7.86328125 6.134765625000002  7.041015625 6.398437500000002  5.746093749999999 6.398437500000002  L 1.4296874999999991 6.398437500000002  L 1.4296874999999991 1.7734375  C 1.4296874999999991 1.7734375  1.6347656249999991 1.37890625  1.9492187499999991 1.37890625  L 5.705078125 1.37890625  C 6.615234375 1.37890625  7.23828125 1.423828125  7.576171875 1.513671875  C 8.099609375 1.658203125  8.47265625 1.9550781249999996  8.79296875 2.4062499999999996  C 9.11328125 2.857421875  9.2734375 3.238281249999999  9.2734375 3.87109375  Z " stroke-width="0" stroke-dasharray="0" stroke="rgba(255, 255, 255, 0)" fill="none" transform="matrix(1 0 0 1 24 63 )" class="stroke" mask="url(#Clip5764)" />
    <path d="M 16.689453125 17.509765625  L 9.818359375 10.638671875000002  L 15.3828125 5.07421875  L 14.259765625 5.07421875  L 7.810546875 11.5234375  L 7.810546875 7.984375  L 7.017578125 7.984375  L 7.017578125 12.318359375  L 6.94140625 12.39453125  L 7.017578125 12.470703124999998  L 7.017578125 17.509765625  L 7.810546875 17.509765625  L 7.810546875 12.646484374999998  L 9.251953125 11.205078125  L 15.556640625 17.509765625  L 16.689453125 17.509765625  Z " stroke-width="0" stroke-dasharray="0" stroke="rgba(255, 255, 255, 0)" fill="none" transform="matrix(1 0 0 1 24 63 )" class="stroke" mask="url(#Clip5764)" />
  </g>
</svg>