<?xml version="1.0" encoding="utf-8"?>
<svg version="1.1" xmlns:xlink="http://www.w3.org/1999/xlink" width="20px" height="19px" xmlns="http://www.w3.org/2000/svg">
  <defs>
    <pattern id="BGPattern" patternUnits="userSpaceOnUse" alignment="0 0" imageRepeat="None" />
    <mask fill="white" id="Clip16359">
      <path d="M 19.084375 9.544726562499998  C 19.200976562500003 9.029296874999996  18.9970703125 8.501367187499996  18.5638671875 8.1984375  C 18.130859375 7.8960937499999995  17.564453125 7.8857421875  17.1201171875 8.1724609375  L 13.978515625 10.205664062499999  L 11.193164062500001 4.363671875  C 10.979296875 3.91484375  10.537890625000001 3.6326171874999997  10.04140625 3.6263671874999996  L 10.0248046875 3.6263671874999996  C 9.534765625 3.6263671874999996  9.09375 3.8966796875  8.871484375 4.33515625  L 5.9033203125 10.191796875000001  L 3.025390625 8.1955078125  C 2.595703125 7.8990234375  2.0349609375 7.88828125  1.5943359375000001 8.1669921875  C 1.1542968750000002 8.446679687500001  0.9257812500000002 8.959375000000001  1.0123046875000004 9.473632812500002  L 2.3970703125000004 17.7111328125  C 2.5011718750000007 18.3369140625  3.0380859375 18.7912109375  3.67265625 18.7912109375  L 8.993554687500001 18.7912109375  C 9.4103515625 18.7912109375  9.7486328125 18.4529296875  9.7486328125 18.0361328125  C 9.7486328125 17.6193359375  9.4103515625 17.281054687500003  8.993554687500001 17.281054687500003  L 3.85625 17.281054687500003  L 2.5869140625 9.729882812500003  L 5.246484375 11.574804687500002  C 5.553816323339099 11.788330027135917  5.938642371200357 11.858084646809338  6.301367187500001 11.766015625000003  C 6.663885618989722 11.674454814068184  6.968899202267638 11.430215953176644  7.1375 11.096484375000003  L 10.019140625 5.410742187500002  L 12.7212890625 11.0787109375  C 12.881640625000001 11.414453125000001  13.178515625 11.665234375  13.536914062500001 11.766015625000001  C 13.895703125 11.868359375000002  14.279101562500001 11.809179687500002  14.59140625 11.6078125  L 17.494140625 9.7294921875  L 15.78046875 17.28125  L 14.606640625 17.28125  C 14.18984375 17.28125  13.8515625 17.61953125  13.8515625 18.036328124999997  C 13.8515625 18.453125  14.189843750000001 18.791406249999998  14.606640625 18.791406249999998  L 15.953515625000001 18.791406249999998  C 16.562109375 18.791406249999998  17.080664062500002 18.376953124999996  17.21484375 17.784179687499996  L 19.084375 9.544726562499998  Z M 9.0603515625 1.9693359375000001  C 9.0603515625 2.5179687500000005  9.505078124999999 2.9625000000000004  10.053515625 2.9625000000000004  C 10.601953125000001 2.9625000000000004  11.046679687500001 2.5179687500000005  11.046679687500001 1.9693359375000001  C 11.046679687500001 1.4207031250000002  10.601953125000001 0.9761718750000002  10.053515625 0.9761718750000002  C 9.5048828125 0.9761718750000002  9.0603515625 1.4207031250000002  9.0603515625 1.9693359375000001  Z M 20 6.4105468750000005  C 20 5.862109375000001  19.5552734375 5.4173828125  19.0068359375 5.4173828125  C 18.458398437499998 5.4173828125  18.013671875 5.862109374999999  18.013671875 6.4105468750000005  C 18.013671875 6.9591796875  18.458203124999997 7.403710937500001  19.0068359375 7.403710937500001  C 19.5552734375 7.403710937500001  20 6.959179687500001  20 6.4105468750000005  Z M 0.9931640625 7.403710937500001  C 1.541796875 7.403710937500001  1.9861328125 6.958984375000002  1.9861328125 6.4105468750000005  C 1.9861328125 5.862109375000001  1.5416015625 5.4173828125  0.99296875 5.4173828125  C 0.4443359375 5.4173828125  0 5.862109374999999  0 6.4105468750000005  C 0 6.9591796875  0.44453125000000004 7.403710937500001  0.9931640625 7.403710937500001  Z " fill-rule="evenodd" />
    </mask>
  </defs>
  <g transform="matrix(1 0 0 1 -22 -37 )">
    <path d="M 19.084375 9.544726562499998  C 19.200976562500003 9.029296874999996  18.9970703125 8.501367187499996  18.5638671875 8.1984375  C 18.130859375 7.8960937499999995  17.564453125 7.8857421875  17.1201171875 8.1724609375  L 13.978515625 10.205664062499999  L 11.193164062500001 4.363671875  C 10.979296875 3.91484375  10.537890625000001 3.6326171874999997  10.04140625 3.6263671874999996  L 10.0248046875 3.6263671874999996  C 9.534765625 3.6263671874999996  9.09375 3.8966796875  8.871484375 4.33515625  L 5.9033203125 10.191796875000001  L 3.025390625 8.1955078125  C 2.595703125 7.8990234375  2.0349609375 7.88828125  1.5943359375000001 8.1669921875  C 1.1542968750000002 8.446679687500001  0.9257812500000002 8.959375000000001  1.0123046875000004 9.473632812500002  L 2.3970703125000004 17.7111328125  C 2.5011718750000007 18.3369140625  3.0380859375 18.7912109375  3.67265625 18.7912109375  L 8.993554687500001 18.7912109375  C 9.4103515625 18.7912109375  9.7486328125 18.4529296875  9.7486328125 18.0361328125  C 9.7486328125 17.6193359375  9.4103515625 17.281054687500003  8.993554687500001 17.281054687500003  L 3.85625 17.281054687500003  L 2.5869140625 9.729882812500003  L 5.246484375 11.574804687500002  C 5.553816323339099 11.788330027135917  5.938642371200357 11.858084646809338  6.301367187500001 11.766015625000003  C 6.663885618989722 11.674454814068184  6.968899202267638 11.430215953176644  7.1375 11.096484375000003  L 10.019140625 5.410742187500002  L 12.7212890625 11.0787109375  C 12.881640625000001 11.414453125000001  13.178515625 11.665234375  13.536914062500001 11.766015625000001  C 13.895703125 11.868359375000002  14.279101562500001 11.809179687500002  14.59140625 11.6078125  L 17.494140625 9.7294921875  L 15.78046875 17.28125  L 14.606640625 17.28125  C 14.18984375 17.28125  13.8515625 17.61953125  13.8515625 18.036328124999997  C 13.8515625 18.453125  14.189843750000001 18.791406249999998  14.606640625 18.791406249999998  L 15.953515625000001 18.791406249999998  C 16.562109375 18.791406249999998  17.080664062500002 18.376953124999996  17.21484375 17.784179687499996  L 19.084375 9.544726562499998  Z M 9.0603515625 1.9693359375000001  C 9.0603515625 2.5179687500000005  9.505078124999999 2.9625000000000004  10.053515625 2.9625000000000004  C 10.601953125000001 2.9625000000000004  11.046679687500001 2.5179687500000005  11.046679687500001 1.9693359375000001  C 11.046679687500001 1.4207031250000002  10.601953125000001 0.9761718750000002  10.053515625 0.9761718750000002  C 9.5048828125 0.9761718750000002  9.0603515625 1.4207031250000002  9.0603515625 1.9693359375000001  Z M 20 6.4105468750000005  C 20 5.862109375000001  19.5552734375 5.4173828125  19.0068359375 5.4173828125  C 18.458398437499998 5.4173828125  18.013671875 5.862109374999999  18.013671875 6.4105468750000005  C 18.013671875 6.9591796875  18.458203124999997 7.403710937500001  19.0068359375 7.403710937500001  C 19.5552734375 7.403710937500001  20 6.959179687500001  20 6.4105468750000005  Z M 0.9931640625 7.403710937500001  C 1.541796875 7.403710937500001  1.9861328125 6.958984375000002  1.9861328125 6.4105468750000005  C 1.9861328125 5.862109375000001  1.5416015625 5.4173828125  0.99296875 5.4173828125  C 0.4443359375 5.4173828125  0 5.862109374999999  0 6.4105468750000005  C 0 6.9591796875  0.44453125000000004 7.403710937500001  0.9931640625 7.403710937500001  Z " fill-rule="nonzero" fill="rgba(255, 255, 255, 1)" stroke="none" transform="matrix(1 0 0 1 22 37 )" class="fill" />
    <path d="M 19.084375 9.544726562499998  C 19.200976562500003 9.029296874999996  18.9970703125 8.501367187499996  18.5638671875 8.1984375  C 18.130859375 7.8960937499999995  17.564453125 7.8857421875  17.1201171875 8.1724609375  L 13.978515625 10.205664062499999  L 11.193164062500001 4.363671875  C 10.979296875 3.91484375  10.537890625000001 3.6326171874999997  10.04140625 3.6263671874999996  L 10.0248046875 3.6263671874999996  C 9.534765625 3.6263671874999996  9.09375 3.8966796875  8.871484375 4.33515625  L 5.9033203125 10.191796875000001  L 3.025390625 8.1955078125  C 2.595703125 7.8990234375  2.0349609375 7.88828125  1.5943359375000001 8.1669921875  C 1.1542968750000002 8.446679687500001  0.9257812500000002 8.959375000000001  1.0123046875000004 9.473632812500002  L 2.3970703125000004 17.7111328125  C 2.5011718750000007 18.3369140625  3.0380859375 18.7912109375  3.67265625 18.7912109375  L 8.993554687500001 18.7912109375  C 9.4103515625 18.7912109375  9.7486328125 18.4529296875  9.7486328125 18.0361328125  C 9.7486328125 17.6193359375  9.4103515625 17.281054687500003  8.993554687500001 17.281054687500003  L 3.85625 17.281054687500003  L 2.5869140625 9.729882812500003  L 5.246484375 11.574804687500002  C 5.553816323339099 11.788330027135917  5.938642371200357 11.858084646809338  6.301367187500001 11.766015625000003  C 6.663885618989722 11.674454814068184  6.968899202267638 11.430215953176644  7.1375 11.096484375000003  L 10.019140625 5.410742187500002  L 12.7212890625 11.0787109375  C 12.881640625000001 11.414453125000001  13.178515625 11.665234375  13.536914062500001 11.766015625000001  C 13.895703125 11.868359375000002  14.279101562500001 11.809179687500002  14.59140625 11.6078125  L 17.494140625 9.7294921875  L 15.78046875 17.28125  L 14.606640625 17.28125  C 14.18984375 17.28125  13.8515625 17.61953125  13.8515625 18.036328124999997  C 13.8515625 18.453125  14.189843750000001 18.791406249999998  14.606640625 18.791406249999998  L 15.953515625000001 18.791406249999998  C 16.562109375 18.791406249999998  17.080664062500002 18.376953124999996  17.21484375 17.784179687499996  L 19.084375 9.544726562499998  Z " stroke-width="0" stroke-dasharray="0" stroke="rgba(255, 255, 255, 0)" fill="none" transform="matrix(1 0 0 1 22 37 )" class="stroke" mask="url(#Clip16359)" />
    <path d="M 9.0603515625 1.9693359375000001  C 9.0603515625 2.5179687500000005  9.505078124999999 2.9625000000000004  10.053515625 2.9625000000000004  C 10.601953125000001 2.9625000000000004  11.046679687500001 2.5179687500000005  11.046679687500001 1.9693359375000001  C 11.046679687500001 1.4207031250000002  10.601953125000001 0.9761718750000002  10.053515625 0.9761718750000002  C 9.5048828125 0.9761718750000002  9.0603515625 1.4207031250000002  9.0603515625 1.9693359375000001  Z " stroke-width="0" stroke-dasharray="0" stroke="rgba(255, 255, 255, 0)" fill="none" transform="matrix(1 0 0 1 22 37 )" class="stroke" mask="url(#Clip16359)" />
    <path d="M 20 6.4105468750000005  C 20 5.862109375000001  19.5552734375 5.4173828125  19.0068359375 5.4173828125  C 18.458398437499998 5.4173828125  18.013671875 5.862109374999999  18.013671875 6.4105468750000005  C 18.013671875 6.9591796875  18.458203124999997 7.403710937500001  19.0068359375 7.403710937500001  C 19.5552734375 7.403710937500001  20 6.959179687500001  20 6.4105468750000005  Z " stroke-width="0" stroke-dasharray="0" stroke="rgba(255, 255, 255, 0)" fill="none" transform="matrix(1 0 0 1 22 37 )" class="stroke" mask="url(#Clip16359)" />
    <path d="M 0.9931640625 7.403710937500001  C 1.541796875 7.403710937500001  1.9861328125 6.958984375000002  1.9861328125 6.4105468750000005  C 1.9861328125 5.862109375000001  1.5416015625 5.4173828125  0.99296875 5.4173828125  C 0.4443359375 5.4173828125  0 5.862109374999999  0 6.4105468750000005  C 0 6.9591796875  0.44453125000000004 7.403710937500001  0.9931640625 7.403710937500001  Z " stroke-width="0" stroke-dasharray="0" stroke="rgba(255, 255, 255, 0)" fill="none" transform="matrix(1 0 0 1 22 37 )" class="stroke" mask="url(#Clip16359)" />
  </g>
</svg>