<?xml version="1.0" encoding="utf-8"?>
<svg version="1.1" xmlns:xlink="http://www.w3.org/1999/xlink" width="11px" height="10px" xmlns="http://www.w3.org/2000/svg">
  <defs>
    <pattern id="BGPattern" patternUnits="userSpaceOnUse" alignment="0 0" imageRepeat="None" />
    <mask fill="white" id="Clip2687">
      <path d="M 7.283262385224274 3.804866606860158  C 6.750698332453825 2.9138575197889187  6.208527704485488 2.029452949868075  5.692174733509235 1.1270360633245384  C 5.48923601055409 0.7727939102902379  5.064145414248022 0.7836012981530347  4.870813255936676 1.1252348284960423  C 4.358663155672824 2.029452949868074  3.8134904802110823 2.912056284960422  3.281526828496043 3.8030653720316625  C 3.253907947229553 3.849296970976254  3.223287018469658 3.89312693403694  3.1914652559366763 3.941159778364117  C 3.1476352928759903 3.903333920844328  3.116413952506597 3.87871709762533  3.0869938469657 3.8522990290237473  L 1.121250068601583 2.0426619736147753  C 0.9375244749340368 1.8733462269129286  0.7556001160949868 1.8403236517150394  0.5898868390501317 1.944795071240105  C 0.4265751978891819 2.0468648443271764  0.3569275883905012 2.2492031662269127  0.3965546807387863 2.491168569920844  C 0.7219771398416884 4.492336559366754  1.0473995989445908 6.493504538258575  1.3716212242744064 8.495272939313983  C 1.4316622691292877 8.863324538258574  1.7378715883905014 8.933572559366755  1.9101893825857523 8.985207852242743  C 2.7903910817941955 9.25719378364116  4.140113741424803 9.400091461741424  5.279092348284959 9.400091472295513  C 6.418070944591029 9.400091472295513  7.560051598944591 9.290816770448547  8.650396949868073 8.985808263852242  C 8.899567282321899 8.915560242744062  9.13192612137203 8.862724126649075  9.190766343007915 8.49707417414248  L 10.161630015831134 2.46054764116095  C 10.20065669656992 2.2203834617414246  10.138214005277044 2.0522685488126653  9.971299915567283 1.9483975408970973  C 9.805586638522428 1.8457273562005274  9.630867197889183 1.867342131926121  9.46395309762533 2.0180451503957784  C 9.274223398416886 2.189162121372031  9.087495757255937 2.3632811503957782  8.900167693931397 2.5361993562005276  C 8.397023746701846 3.000917034300792  7.893879799472295 3.466235124010555  7.37392435883905 3.9453626490765172  C 7.337899736147758 3.8889240633245388  7.309080031662269 3.8474957467018474  7.283862796833773 3.804866606860158  Z " fill-rule="evenodd" />
    </mask>
  </defs>
  <g transform="matrix(1 0 0 1 -503 -1241 )">
    <path d="M 7.283262385224274 3.804866606860158  C 6.750698332453825 2.9138575197889187  6.208527704485488 2.029452949868075  5.692174733509235 1.1270360633245384  C 5.48923601055409 0.7727939102902379  5.064145414248022 0.7836012981530347  4.870813255936676 1.1252348284960423  C 4.358663155672824 2.029452949868074  3.8134904802110823 2.912056284960422  3.281526828496043 3.8030653720316625  C 3.253907947229553 3.849296970976254  3.223287018469658 3.89312693403694  3.1914652559366763 3.941159778364117  C 3.1476352928759903 3.903333920844328  3.116413952506597 3.87871709762533  3.0869938469657 3.8522990290237473  L 1.121250068601583 2.0426619736147753  C 0.9375244749340368 1.8733462269129286  0.7556001160949868 1.8403236517150394  0.5898868390501317 1.944795071240105  C 0.4265751978891819 2.0468648443271764  0.3569275883905012 2.2492031662269127  0.3965546807387863 2.491168569920844  C 0.7219771398416884 4.492336559366754  1.0473995989445908 6.493504538258575  1.3716212242744064 8.495272939313983  C 1.4316622691292877 8.863324538258574  1.7378715883905014 8.933572559366755  1.9101893825857523 8.985207852242743  C 2.7903910817941955 9.25719378364116  4.140113741424803 9.400091461741424  5.279092348284959 9.400091472295513  C 6.418070944591029 9.400091472295513  7.560051598944591 9.290816770448547  8.650396949868073 8.985808263852242  C 8.899567282321899 8.915560242744062  9.13192612137203 8.862724126649075  9.190766343007915 8.49707417414248  L 10.161630015831134 2.46054764116095  C 10.20065669656992 2.2203834617414246  10.138214005277044 2.0522685488126653  9.971299915567283 1.9483975408970973  C 9.805586638522428 1.8457273562005274  9.630867197889183 1.867342131926121  9.46395309762533 2.0180451503957784  C 9.274223398416886 2.189162121372031  9.087495757255937 2.3632811503957782  8.900167693931397 2.5361993562005276  C 8.397023746701846 3.000917034300792  7.893879799472295 3.466235124010555  7.37392435883905 3.9453626490765172  C 7.337899736147758 3.8889240633245388  7.309080031662269 3.8474957467018474  7.283862796833773 3.804866606860158  Z " fill-rule="nonzero" fill="rgba(248, 170, 0, 1)" stroke="none" transform="matrix(1 0 0 1 503 1241 )" class="fill" />
    <path d="M 7.283262385224274 3.804866606860158  C 6.750698332453825 2.9138575197889187  6.208527704485488 2.029452949868075  5.692174733509235 1.1270360633245384  C 5.48923601055409 0.7727939102902379  5.064145414248022 0.7836012981530347  4.870813255936676 1.1252348284960423  C 4.358663155672824 2.029452949868074  3.8134904802110823 2.912056284960422  3.281526828496043 3.8030653720316625  C 3.253907947229553 3.849296970976254  3.223287018469658 3.89312693403694  3.1914652559366763 3.941159778364117  C 3.1476352928759903 3.903333920844328  3.116413952506597 3.87871709762533  3.0869938469657 3.8522990290237473  L 1.121250068601583 2.0426619736147753  C 0.9375244749340368 1.8733462269129286  0.7556001160949868 1.8403236517150394  0.5898868390501317 1.944795071240105  C 0.4265751978891819 2.0468648443271764  0.3569275883905012 2.2492031662269127  0.3965546807387863 2.491168569920844  C 0.7219771398416884 4.492336559366754  1.0473995989445908 6.493504538258575  1.3716212242744064 8.495272939313983  C 1.4316622691292877 8.863324538258574  1.7378715883905014 8.933572559366755  1.9101893825857523 8.985207852242743  C 2.7903910817941955 9.25719378364116  4.140113741424803 9.400091461741424  5.279092348284959 9.400091472295513  C 6.418070944591029 9.400091472295513  7.560051598944591 9.290816770448547  8.650396949868073 8.985808263852242  C 8.899567282321899 8.915560242744062  9.13192612137203 8.862724126649075  9.190766343007915 8.49707417414248  L 10.161630015831134 2.46054764116095  C 10.20065669656992 2.2203834617414246  10.138214005277044 2.0522685488126653  9.971299915567283 1.9483975408970973  C 9.805586638522428 1.8457273562005274  9.630867197889183 1.867342131926121  9.46395309762533 2.0180451503957784  C 9.274223398416886 2.189162121372031  9.087495757255937 2.3632811503957782  8.900167693931397 2.5361993562005276  C 8.397023746701846 3.000917034300792  7.893879799472295 3.466235124010555  7.37392435883905 3.9453626490765172  C 7.337899736147758 3.8889240633245388  7.309080031662269 3.8474957467018474  7.283862796833773 3.804866606860158  Z " stroke-width="0" stroke-dasharray="0" stroke="rgba(255, 255, 255, 0)" fill="none" transform="matrix(1 0 0 1 503 1241 )" class="stroke" mask="url(#Clip2687)" />
  </g>
</svg>