<?xml version="1.0" encoding="utf-8"?>
<svg version="1.1" xmlns:xlink="http://www.w3.org/1999/xlink" width="12px" height="12px" xmlns="http://www.w3.org/2000/svg">
  <defs>
    <pattern id="BGPattern" patternUnits="userSpaceOnUse" alignment="0 0" imageRepeat="None" />
    <mask fill="white" id="Clip2706">
      <path d="M 10.818 10.542  L 10.41 9.288  C 12.09 7.032000000000001  11.814 3.894  9.762 1.9680000000000004  C 8.736 1.0020000000000004  7.3919999999999995 0.4740000000000004  5.982 0.4740000000000004  C 4.668 0.4740000000000004  3.3899999999999997 0.9480000000000005  2.388 1.8060000000000003  C 0.24600000000000022 3.642  -0.16799999999999982 6.786  1.4280000000000002 9.120000000000001  C 2.46 10.626  4.164000000000001 11.52  5.9879999999999995 11.52  C 6.882 11.52  7.776 11.298  8.574 10.878  L 9.984000000000002 11.358  C 10.080000000000002 11.388  10.176000000000002 11.406  10.266 11.406  C 10.47 11.406  10.644 11.322  10.752 11.178  C 10.872 11.01  10.896 10.782  10.818 10.542  Z M 10.782 5.681999999999999  C 10.86 6.881999999999999  10.488000000000001 8.057999999999998  9.738 8.994  L 9.636000000000001 9.120000000000001  C 9.624 9.138  9.618000000000002 9.156  9.624 9.174  L 10.11 10.655999999999999  C 9.852 10.584  9.042000000000002 10.29  8.526 10.097999999999999  C 8.520000000000001 10.097999999999999  8.514 10.091999999999999  8.502 10.091999999999999  C 8.49 10.091999999999999  8.484000000000002 10.091999999999999  8.472000000000001 10.097999999999999  L 8.358 10.163999999999998  C 7.6320000000000014 10.577999999999998  6.816000000000001 10.793999999999999  5.988000000000001 10.793999999999999  C 4.4220000000000015 10.793999999999999  2.9460000000000015 10.026  2.046000000000001 8.747999999999998  C 1.3560000000000012 7.763999999999999  1.0620000000000012 6.5699999999999985  1.212000000000001 5.381999999999998  C 1.362000000000001 4.193999999999997  1.950000000000001 3.107999999999998  2.862000000000001 2.327999999999998  C 3.732000000000001 1.583999999999998  4.8420000000000005 1.175999999999998  5.982000000000001 1.175999999999998  C 7.242000000000002 1.175999999999998  8.430000000000001 1.6559999999999981  9.330000000000002 2.5319999999999983  C 10.194 3.3659999999999983  10.704 4.487999999999999  10.782 5.681999999999999  Z " fill-rule="evenodd" />
    </mask>
  </defs>
  <g transform="matrix(1 0 0 1 -1151 -414 )">
    <path d="M 10.818 10.542  L 10.41 9.288  C 12.09 7.032000000000001  11.814 3.894  9.762 1.9680000000000004  C 8.736 1.0020000000000004  7.3919999999999995 0.4740000000000004  5.982 0.4740000000000004  C 4.668 0.4740000000000004  3.3899999999999997 0.9480000000000005  2.388 1.8060000000000003  C 0.24600000000000022 3.642  -0.16799999999999982 6.786  1.4280000000000002 9.120000000000001  C 2.46 10.626  4.164000000000001 11.52  5.9879999999999995 11.52  C 6.882 11.52  7.776 11.298  8.574 10.878  L 9.984000000000002 11.358  C 10.080000000000002 11.388  10.176000000000002 11.406  10.266 11.406  C 10.47 11.406  10.644 11.322  10.752 11.178  C 10.872 11.01  10.896 10.782  10.818 10.542  Z M 10.782 5.681999999999999  C 10.86 6.881999999999999  10.488000000000001 8.057999999999998  9.738 8.994  L 9.636000000000001 9.120000000000001  C 9.624 9.138  9.618000000000002 9.156  9.624 9.174  L 10.11 10.655999999999999  C 9.852 10.584  9.042000000000002 10.29  8.526 10.097999999999999  C 8.520000000000001 10.097999999999999  8.514 10.091999999999999  8.502 10.091999999999999  C 8.49 10.091999999999999  8.484000000000002 10.091999999999999  8.472000000000001 10.097999999999999  L 8.358 10.163999999999998  C 7.6320000000000014 10.577999999999998  6.816000000000001 10.793999999999999  5.988000000000001 10.793999999999999  C 4.4220000000000015 10.793999999999999  2.9460000000000015 10.026  2.046000000000001 8.747999999999998  C 1.3560000000000012 7.763999999999999  1.0620000000000012 6.5699999999999985  1.212000000000001 5.381999999999998  C 1.362000000000001 4.193999999999997  1.950000000000001 3.107999999999998  2.862000000000001 2.327999999999998  C 3.732000000000001 1.583999999999998  4.8420000000000005 1.175999999999998  5.982000000000001 1.175999999999998  C 7.242000000000002 1.175999999999998  8.430000000000001 1.6559999999999981  9.330000000000002 2.5319999999999983  C 10.194 3.3659999999999983  10.704 4.487999999999999  10.782 5.681999999999999  Z " fill-rule="nonzero" fill="rgba(255, 255, 255, 1)" stroke="none" transform="matrix(1 0 0 1 1151 414 )" class="fill" />
    <path d="M 10.818 10.542  L 10.41 9.288  C 12.09 7.032000000000001  11.814 3.894  9.762 1.9680000000000004  C 8.736 1.0020000000000004  7.3919999999999995 0.4740000000000004  5.982 0.4740000000000004  C 4.668 0.4740000000000004  3.3899999999999997 0.9480000000000005  2.388 1.8060000000000003  C 0.24600000000000022 3.642  -0.16799999999999982 6.786  1.4280000000000002 9.120000000000001  C 2.46 10.626  4.164000000000001 11.52  5.9879999999999995 11.52  C 6.882 11.52  7.776 11.298  8.574 10.878  L 9.984000000000002 11.358  C 10.080000000000002 11.388  10.176000000000002 11.406  10.266 11.406  C 10.47 11.406  10.644 11.322  10.752 11.178  C 10.872 11.01  10.896 10.782  10.818 10.542  Z " stroke-width="0" stroke-dasharray="0" stroke="rgba(255, 255, 255, 0)" fill="none" transform="matrix(1 0 0 1 1151 414 )" class="stroke" mask="url(#Clip2706)" />
    <path d="M 10.782 5.681999999999999  C 10.86 6.881999999999999  10.488000000000001 8.057999999999998  9.738 8.994  L 9.636000000000001 9.120000000000001  C 9.624 9.138  9.618000000000002 9.156  9.624 9.174  L 10.11 10.655999999999999  C 9.852 10.584  9.042000000000002 10.29  8.526 10.097999999999999  C 8.520000000000001 10.097999999999999  8.514 10.091999999999999  8.502 10.091999999999999  C 8.49 10.091999999999999  8.484000000000002 10.091999999999999  8.472000000000001 10.097999999999999  L 8.358 10.163999999999998  C 7.6320000000000014 10.577999999999998  6.816000000000001 10.793999999999999  5.988000000000001 10.793999999999999  C 4.4220000000000015 10.793999999999999  2.9460000000000015 10.026  2.046000000000001 8.747999999999998  C 1.3560000000000012 7.763999999999999  1.0620000000000012 6.5699999999999985  1.212000000000001 5.381999999999998  C 1.362000000000001 4.193999999999997  1.950000000000001 3.107999999999998  2.862000000000001 2.327999999999998  C 3.732000000000001 1.583999999999998  4.8420000000000005 1.175999999999998  5.982000000000001 1.175999999999998  C 7.242000000000002 1.175999999999998  8.430000000000001 1.6559999999999981  9.330000000000002 2.5319999999999983  C 10.194 3.3659999999999983  10.704 4.487999999999999  10.782 5.681999999999999  Z " stroke-width="0" stroke-dasharray="0" stroke="rgba(255, 255, 255, 0)" fill="none" transform="matrix(1 0 0 1 1151 414 )" class="stroke" mask="url(#Clip2706)" />
  </g>
</svg>