<?xml version="1.0" encoding="utf-8"?>
<svg version="1.1" xmlns:xlink="http://www.w3.org/1999/xlink" width="8px" height="4px" xmlns="http://www.w3.org/2000/svg">
  <defs>
    <pattern id="BGPattern" patternUnits="userSpaceOnUse" alignment="0 0" imageRepeat="None" />
    <mask fill="white" id="Clip6523">
      <path d="M 2.7882732348284964 0.9312365910290241  L 2.7882732348284964 1.388749340369393  L 2.0317560844327174 1.388749340369393  L 2.0317560844327174 3.6943254142480217  L 1.5063969498680736 3.6943254142480217  L 1.5063969498680736 1.3887493403693938  L 0.754683081794195 1.3887493403693938  L 0.754683081794195 0.9312365910290241  L 2.7882732348284964 0.9312365910290241  Z M 4.68496980474934 3.670309002638522  C 4.531865139841688 3.71293814248021  4.354744063324538 3.733952506596305  4.154807387862797 3.733952506596305  C 3.9752446174453864 3.736536234348833  3.796140741455721 3.715132615045004  3.6222433350923477 3.6703090026385237  C 3.4749457655710865 3.6321085856659714  3.340849534810256 3.5544739253677182  3.2343781846965696 3.445755493403693  C 3.129906765171503 3.3376816147757253  3.0506525910290225 3.192982701846965  2.9960152401055407 3.009257108179419  C 2.941377889182057 2.8261319261213718  2.9137590079155675 2.5943734986807385  2.9137590184696567 2.3127810026385216  C 2.9137590184696567 2.034190564643799  2.941377899736148 1.8030325382585746  2.9960152401055407 1.6199073562005273  C 3.0506525910290234 1.4367821741424809  3.129906765171503 1.2914828496042219  3.2343781846965696 1.184009382585752  C 3.3382491926121363 1.0759355039577834  3.4679378469656985 1.0008842005277048  3.6222433350923477 0.9570542374670179  C 3.777149224274406 0.9132242744063328  3.9548707124010543 0.8910090870712395  4.154807387862797 0.8910090870712395  C 4.354744063324538 0.8910090870712395  4.531865139841688 0.913224274406331  4.68496980474934 0.9570542374670179  C 4.83867488126649 1.0008842005277039  4.9677631240105535 1.0765359155672813  5.073435356200527 1.184009382585752  C 5.1791075883905 1.2914828496042219  5.2583617730870715 1.4367821741424809  5.311798300791556 1.6199073562005273  C 5.365234828496042 1.8030325382585746  5.391652886543535 2.03419055408971  5.391652886543535 2.3127810026385216  C 5.391652886543535 2.5943734986807385  5.365234828496042 2.8261319261213718  5.311798300791556 3.009257108179419  C 5.257761361477572 3.192982701846965  5.17910759894459 3.338282026385224  5.073435356200527 3.445755493403693  C 4.9677631240105535 3.553228960422164  4.8386748707124 3.6282802638522416  4.68496980474934 3.670309002638522  Z M 3.8065693298153036 3.24221635883905  C 3.89723130343008 3.2782409815303417  4.013110522427441 3.296253298153033  4.154807387862797 3.296253298153033  C 4.296504253298154 3.296253298153033  4.411783050131926 3.2782409815303417  4.501244211081794 3.24221635883905  C 4.587170276070685 3.209264945612304  4.660645150157405 3.1502751169820336  4.711387862796833 3.073501023746701  C 4.761822343007916 2.9960480738786277  4.796646142480211 2.8951791240105536  4.815258870712401 2.7708941635883892  C 4.83387159894459 2.646008791556728  4.843478163588389 2.493504538258575  4.843478163588389 2.3127810026385216  C 4.843478163588389 2.1374611503957794  4.83387159894459 1.9867581319261207  4.815258870712402 1.8606719472295525  C 4.802541254557556 1.7516823599380782  4.76715947926646 1.6465596307005468  4.711387862796833 1.5520609815303432  C 4.661374230130882 1.4732437966650398  4.587866661734302 1.412127502512238  4.501244211081794 1.377341540897099  C 4.390468419402122 1.3364791500325692  4.272812081560176 1.3175154757316072  4.154807387862797 1.3215033667546177  C 4.01311052242744 1.3215033667546177  3.897231313984168 1.339515683377309  3.8065693298153027 1.3773415408970964  C 3.7192400372667818 1.4117332175394282  3.645044996780353 1.472896838084778  3.594624453825859 1.552060981530344  C 3.5386423749321985 1.6465119985163765  3.503055160812563 1.751637443982066  3.490153034300792 1.8606719472295516  C 3.4721407176780996 1.9867581424802117  3.4625341530343006 2.1374611609498686  3.4625341530343006 2.3127810026385216  C 3.4625341530343006 2.4929041372031655  3.4715403060686016 2.646008791556728  3.490153034300792 2.7708941635883892  C 3.508765762532981 2.8951791240105536  3.5441899736147757 2.9960480738786277  3.5946244538258583 3.0735010237467026  C 3.6457766400680223 3.150624730246527  3.7199393828912424 3.2096607977540543  3.8065693298153036 3.24221635883905  Z M 5.861774258575197 0.9306361794195253  L 6.750381709762532 0.9306361794195253  C 6.9533204327176765 0.9306361794195253  7.123236591029023 0.9486484960422166  7.260730575197888 0.9828718839050135  C 7.398224569920844 1.0170952823218995  7.508099672823219 1.0717326332453831  7.590956316622691 1.1461835250659638  C 7.673812960422163 1.2206344168865435  7.732052770448549 1.3160996833773089  7.766876580474934 1.4325793034300789  C 7.8017003905013205 1.5496593350923487  7.819112284960422 1.6889545646438  7.819112284960422 1.8510653720316625  C 7.819112284960422 2.0257848126649076  7.799298744063325 2.173485773087073  7.759071240105541 2.2929674617414264  C 7.723200535232925 2.40583506612818  7.657428404739946 2.506879316234924  7.568741129287599 2.585367345646439  C 7.4727807516763 2.665669849824873  7.358895398475582 2.7216857902599525  7.23671416358839 2.7486789762532986  C 7.077157032475352 2.784541255996542  6.913896167466584 2.801270456531686  6.750381709762532 2.7985130448548823  L 6.385932569920843 2.7985130448548823  L 6.385932569920843 3.6943254142480217  L 5.861774258575197 3.6943254142480217  L 5.861774258575197 0.9312365910290232  Z M 6.385932569920843 2.3764245065963046  L 6.6861377941952505 2.3764245065963046  C 6.798414543535619 2.3764245065963046  6.892678986807388 2.368619166226912  6.968330691292875 2.3524080949868065  C 7.035817407240758 2.3405457490270773  7.099217863705814 2.31184000346391  7.1526566965699185 2.268951039577834  C 7.200901755901471 2.2268458875745374  7.235759247742415 2.1715331063932126  7.252925245382585 2.1098422796833773  C 7.2727387862796835 2.043797129287597  7.2829457625329805 1.9597396728232175  7.2829457625329805 1.8588707124010542  C 7.2829457625329805 1.670341836411609  7.238515387862796 1.538851947229551  7.150855472295515 1.4644010554089704  C 7.062595134564644 1.3905505751978886  6.907689245382585 1.3533251292875983  6.6861377941952505 1.3533251292875983  L 6.385932569920843 1.3533251292875983  L 6.385932569920843 2.3764245065963046  Z " fill-rule="evenodd" />
    </mask>
  </defs>
  <g transform="matrix(1 0 0 1 -504 -1245 )">
    <path d="M 2.7882732348284964 0.9312365910290241  L 2.7882732348284964 1.388749340369393  L 2.0317560844327174 1.388749340369393  L 2.0317560844327174 3.6943254142480217  L 1.5063969498680736 3.6943254142480217  L 1.5063969498680736 1.3887493403693938  L 0.754683081794195 1.3887493403693938  L 0.754683081794195 0.9312365910290241  L 2.7882732348284964 0.9312365910290241  Z M 4.68496980474934 3.670309002638522  C 4.531865139841688 3.71293814248021  4.354744063324538 3.733952506596305  4.154807387862797 3.733952506596305  C 3.9752446174453864 3.736536234348833  3.796140741455721 3.715132615045004  3.6222433350923477 3.6703090026385237  C 3.4749457655710865 3.6321085856659714  3.340849534810256 3.5544739253677182  3.2343781846965696 3.445755493403693  C 3.129906765171503 3.3376816147757253  3.0506525910290225 3.192982701846965  2.9960152401055407 3.009257108179419  C 2.941377889182057 2.8261319261213718  2.9137590079155675 2.5943734986807385  2.9137590184696567 2.3127810026385216  C 2.9137590184696567 2.034190564643799  2.941377899736148 1.8030325382585746  2.9960152401055407 1.6199073562005273  C 3.0506525910290234 1.4367821741424809  3.129906765171503 1.2914828496042219  3.2343781846965696 1.184009382585752  C 3.3382491926121363 1.0759355039577834  3.4679378469656985 1.0008842005277048  3.6222433350923477 0.9570542374670179  C 3.777149224274406 0.9132242744063328  3.9548707124010543 0.8910090870712395  4.154807387862797 0.8910090870712395  C 4.354744063324538 0.8910090870712395  4.531865139841688 0.913224274406331  4.68496980474934 0.9570542374670179  C 4.83867488126649 1.0008842005277039  4.9677631240105535 1.0765359155672813  5.073435356200527 1.184009382585752  C 5.1791075883905 1.2914828496042219  5.2583617730870715 1.4367821741424809  5.311798300791556 1.6199073562005273  C 5.365234828496042 1.8030325382585746  5.391652886543535 2.03419055408971  5.391652886543535 2.3127810026385216  C 5.391652886543535 2.5943734986807385  5.365234828496042 2.8261319261213718  5.311798300791556 3.009257108179419  C 5.257761361477572 3.192982701846965  5.17910759894459 3.338282026385224  5.073435356200527 3.445755493403693  C 4.9677631240105535 3.553228960422164  4.8386748707124 3.6282802638522416  4.68496980474934 3.670309002638522  Z M 3.8065693298153036 3.24221635883905  C 3.89723130343008 3.2782409815303417  4.013110522427441 3.296253298153033  4.154807387862797 3.296253298153033  C 4.296504253298154 3.296253298153033  4.411783050131926 3.2782409815303417  4.501244211081794 3.24221635883905  C 4.587170276070685 3.209264945612304  4.660645150157405 3.1502751169820336  4.711387862796833 3.073501023746701  C 4.761822343007916 2.9960480738786277  4.796646142480211 2.8951791240105536  4.815258870712401 2.7708941635883892  C 4.83387159894459 2.646008791556728  4.843478163588389 2.493504538258575  4.843478163588389 2.3127810026385216  C 4.843478163588389 2.1374611503957794  4.83387159894459 1.9867581319261207  4.815258870712402 1.8606719472295525  C 4.802541254557556 1.7516823599380782  4.76715947926646 1.6465596307005468  4.711387862796833 1.5520609815303432  C 4.661374230130882 1.4732437966650398  4.587866661734302 1.412127502512238  4.501244211081794 1.377341540897099  C 4.390468419402122 1.3364791500325692  4.272812081560176 1.3175154757316072  4.154807387862797 1.3215033667546177  C 4.01311052242744 1.3215033667546177  3.897231313984168 1.339515683377309  3.8065693298153027 1.3773415408970964  C 3.7192400372667818 1.4117332175394282  3.645044996780353 1.472896838084778  3.594624453825859 1.552060981530344  C 3.5386423749321985 1.6465119985163765  3.503055160812563 1.751637443982066  3.490153034300792 1.8606719472295516  C 3.4721407176780996 1.9867581424802117  3.4625341530343006 2.1374611609498686  3.4625341530343006 2.3127810026385216  C 3.4625341530343006 2.4929041372031655  3.4715403060686016 2.646008791556728  3.490153034300792 2.7708941635883892  C 3.508765762532981 2.8951791240105536  3.5441899736147757 2.9960480738786277  3.5946244538258583 3.0735010237467026  C 3.6457766400680223 3.150624730246527  3.7199393828912424 3.2096607977540543  3.8065693298153036 3.24221635883905  Z M 5.861774258575197 0.9306361794195253  L 6.750381709762532 0.9306361794195253  C 6.9533204327176765 0.9306361794195253  7.123236591029023 0.9486484960422166  7.260730575197888 0.9828718839050135  C 7.398224569920844 1.0170952823218995  7.508099672823219 1.0717326332453831  7.590956316622691 1.1461835250659638  C 7.673812960422163 1.2206344168865435  7.732052770448549 1.3160996833773089  7.766876580474934 1.4325793034300789  C 7.8017003905013205 1.5496593350923487  7.819112284960422 1.6889545646438  7.819112284960422 1.8510653720316625  C 7.819112284960422 2.0257848126649076  7.799298744063325 2.173485773087073  7.759071240105541 2.2929674617414264  C 7.723200535232925 2.40583506612818  7.657428404739946 2.506879316234924  7.568741129287599 2.585367345646439  C 7.4727807516763 2.665669849824873  7.358895398475582 2.7216857902599525  7.23671416358839 2.7486789762532986  C 7.077157032475352 2.784541255996542  6.913896167466584 2.801270456531686  6.750381709762532 2.7985130448548823  L 6.385932569920843 2.7985130448548823  L 6.385932569920843 3.6943254142480217  L 5.861774258575197 3.6943254142480217  L 5.861774258575197 0.9312365910290232  Z M 6.385932569920843 2.3764245065963046  L 6.6861377941952505 2.3764245065963046  C 6.798414543535619 2.3764245065963046  6.892678986807388 2.368619166226912  6.968330691292875 2.3524080949868065  C 7.035817407240758 2.3405457490270773  7.099217863705814 2.31184000346391  7.1526566965699185 2.268951039577834  C 7.200901755901471 2.2268458875745374  7.235759247742415 2.1715331063932126  7.252925245382585 2.1098422796833773  C 7.2727387862796835 2.043797129287597  7.2829457625329805 1.9597396728232175  7.2829457625329805 1.8588707124010542  C 7.2829457625329805 1.670341836411609  7.238515387862796 1.538851947229551  7.150855472295515 1.4644010554089704  C 7.062595134564644 1.3905505751978886  6.907689245382585 1.3533251292875983  6.6861377941952505 1.3533251292875983  L 6.385932569920843 1.3533251292875983  L 6.385932569920843 2.3764245065963046  Z " fill-rule="nonzero" fill="rgba(254, 238, 178, 1)" stroke="none" transform="matrix(1 0 0 1 504 1245 )" class="fill" />
    <path d="M 2.7882732348284964 0.9312365910290241  L 2.7882732348284964 1.388749340369393  L 2.0317560844327174 1.388749340369393  L 2.0317560844327174 3.6943254142480217  L 1.5063969498680736 3.6943254142480217  L 1.5063969498680736 1.3887493403693938  L 0.754683081794195 1.3887493403693938  L 0.754683081794195 0.9312365910290241  L 2.7882732348284964 0.9312365910290241  Z " stroke-width="0" stroke-dasharray="0" stroke="rgba(255, 255, 255, 0)" fill="none" transform="matrix(1 0 0 1 504 1245 )" class="stroke" mask="url(#Clip6523)" />
    <path d="M 4.68496980474934 3.670309002638522  C 4.531865139841688 3.71293814248021  4.354744063324538 3.733952506596305  4.154807387862797 3.733952506596305  C 3.9752446174453864 3.736536234348833  3.796140741455721 3.715132615045004  3.6222433350923477 3.6703090026385237  C 3.4749457655710865 3.6321085856659714  3.340849534810256 3.5544739253677182  3.2343781846965696 3.445755493403693  C 3.129906765171503 3.3376816147757253  3.0506525910290225 3.192982701846965  2.9960152401055407 3.009257108179419  C 2.941377889182057 2.8261319261213718  2.9137590079155675 2.5943734986807385  2.9137590184696567 2.3127810026385216  C 2.9137590184696567 2.034190564643799  2.941377899736148 1.8030325382585746  2.9960152401055407 1.6199073562005273  C 3.0506525910290234 1.4367821741424809  3.129906765171503 1.2914828496042219  3.2343781846965696 1.184009382585752  C 3.3382491926121363 1.0759355039577834  3.4679378469656985 1.0008842005277048  3.6222433350923477 0.9570542374670179  C 3.777149224274406 0.9132242744063328  3.9548707124010543 0.8910090870712395  4.154807387862797 0.8910090870712395  C 4.354744063324538 0.8910090870712395  4.531865139841688 0.913224274406331  4.68496980474934 0.9570542374670179  C 4.83867488126649 1.0008842005277039  4.9677631240105535 1.0765359155672813  5.073435356200527 1.184009382585752  C 5.1791075883905 1.2914828496042219  5.2583617730870715 1.4367821741424809  5.311798300791556 1.6199073562005273  C 5.365234828496042 1.8030325382585746  5.391652886543535 2.03419055408971  5.391652886543535 2.3127810026385216  C 5.391652886543535 2.5943734986807385  5.365234828496042 2.8261319261213718  5.311798300791556 3.009257108179419  C 5.257761361477572 3.192982701846965  5.17910759894459 3.338282026385224  5.073435356200527 3.445755493403693  C 4.9677631240105535 3.553228960422164  4.8386748707124 3.6282802638522416  4.68496980474934 3.670309002638522  Z " stroke-width="0" stroke-dasharray="0" stroke="rgba(255, 255, 255, 0)" fill="none" transform="matrix(1 0 0 1 504 1245 )" class="stroke" mask="url(#Clip6523)" />
    <path d="M 3.8065693298153036 3.24221635883905  C 3.89723130343008 3.2782409815303417  4.013110522427441 3.296253298153033  4.154807387862797 3.296253298153033  C 4.296504253298154 3.296253298153033  4.411783050131926 3.2782409815303417  4.501244211081794 3.24221635883905  C 4.587170276070685 3.209264945612304  4.660645150157405 3.1502751169820336  4.711387862796833 3.073501023746701  C 4.761822343007916 2.9960480738786277  4.796646142480211 2.8951791240105536  4.815258870712401 2.7708941635883892  C 4.83387159894459 2.646008791556728  4.843478163588389 2.493504538258575  4.843478163588389 2.3127810026385216  C 4.843478163588389 2.1374611503957794  4.83387159894459 1.9867581319261207  4.815258870712402 1.8606719472295525  C 4.802541254557556 1.7516823599380782  4.76715947926646 1.6465596307005468  4.711387862796833 1.5520609815303432  C 4.661374230130882 1.4732437966650398  4.587866661734302 1.412127502512238  4.501244211081794 1.377341540897099  C 4.390468419402122 1.3364791500325692  4.272812081560176 1.3175154757316072  4.154807387862797 1.3215033667546177  C 4.01311052242744 1.3215033667546177  3.897231313984168 1.339515683377309  3.8065693298153027 1.3773415408970964  C 3.7192400372667818 1.4117332175394282  3.645044996780353 1.472896838084778  3.594624453825859 1.552060981530344  C 3.5386423749321985 1.6465119985163765  3.503055160812563 1.751637443982066  3.490153034300792 1.8606719472295516  C 3.4721407176780996 1.9867581424802117  3.4625341530343006 2.1374611609498686  3.4625341530343006 2.3127810026385216  C 3.4625341530343006 2.4929041372031655  3.4715403060686016 2.646008791556728  3.490153034300792 2.7708941635883892  C 3.508765762532981 2.8951791240105536  3.5441899736147757 2.9960480738786277  3.5946244538258583 3.0735010237467026  C 3.6457766400680223 3.150624730246527  3.7199393828912424 3.2096607977540543  3.8065693298153036 3.24221635883905  Z " stroke-width="0" stroke-dasharray="0" stroke="rgba(255, 255, 255, 0)" fill="none" transform="matrix(1 0 0 1 504 1245 )" class="stroke" mask="url(#Clip6523)" />
    <path d="M 5.861774258575197 0.9306361794195253  L 6.750381709762532 0.9306361794195253  C 6.9533204327176765 0.9306361794195253  7.123236591029023 0.9486484960422166  7.260730575197888 0.9828718839050135  C 7.398224569920844 1.0170952823218995  7.508099672823219 1.0717326332453831  7.590956316622691 1.1461835250659638  C 7.673812960422163 1.2206344168865435  7.732052770448549 1.3160996833773089  7.766876580474934 1.4325793034300789  C 7.8017003905013205 1.5496593350923487  7.819112284960422 1.6889545646438  7.819112284960422 1.8510653720316625  C 7.819112284960422 2.0257848126649076  7.799298744063325 2.173485773087073  7.759071240105541 2.2929674617414264  C 7.723200535232925 2.40583506612818  7.657428404739946 2.506879316234924  7.568741129287599 2.585367345646439  C 7.4727807516763 2.665669849824873  7.358895398475582 2.7216857902599525  7.23671416358839 2.7486789762532986  C 7.077157032475352 2.784541255996542  6.913896167466584 2.801270456531686  6.750381709762532 2.7985130448548823  L 6.385932569920843 2.7985130448548823  L 6.385932569920843 3.6943254142480217  L 5.861774258575197 3.6943254142480217  L 5.861774258575197 0.9312365910290232  Z " stroke-width="0" stroke-dasharray="0" stroke="rgba(255, 255, 255, 0)" fill="none" transform="matrix(1 0 0 1 504 1245 )" class="stroke" mask="url(#Clip6523)" />
    <path d="M 6.385932569920843 2.3764245065963046  L 6.6861377941952505 2.3764245065963046  C 6.798414543535619 2.3764245065963046  6.892678986807388 2.368619166226912  6.968330691292875 2.3524080949868065  C 7.035817407240758 2.3405457490270773  7.099217863705814 2.31184000346391  7.1526566965699185 2.268951039577834  C 7.200901755901471 2.2268458875745374  7.235759247742415 2.1715331063932126  7.252925245382585 2.1098422796833773  C 7.2727387862796835 2.043797129287597  7.2829457625329805 1.9597396728232175  7.2829457625329805 1.8588707124010542  C 7.2829457625329805 1.670341836411609  7.238515387862796 1.538851947229551  7.150855472295515 1.4644010554089704  C 7.062595134564644 1.3905505751978886  6.907689245382585 1.3533251292875983  6.6861377941952505 1.3533251292875983  L 6.385932569920843 1.3533251292875983  L 6.385932569920843 2.3764245065963046  Z " stroke-width="0" stroke-dasharray="0" stroke="rgba(255, 255, 255, 0)" fill="none" transform="matrix(1 0 0 1 504 1245 )" class="stroke" mask="url(#Clip6523)" />
  </g>
</svg>