<?xml version="1.0" encoding="utf-8"?>
<svg version="1.1" xmlns:xlink="http://www.w3.org/1999/xlink" width="10px" height="6px" xmlns="http://www.w3.org/2000/svg">
  <defs>
    <pattern id="BGPattern" patternUnits="userSpaceOnUse" alignment="0 0" imageRepeat="None" />
    <mask fill="white" id="Clip7619">
      <path d="M 9.756640625000001 5.1537109375  C 9.756640625000001 5.531640625  9.45078125 5.837499999999999  9.0728515625 5.8375  L 0.9271484375000005 5.8375  C 0.5492187500000005 5.8375  0.24335937499999982 5.531640625000001  0.24335937499999982 5.153710937500001  L 0.24335937499999982 0.630859375  C 0.24335937499999982 0.31093749999999964  0.5017578125000002 0.052539062500001066  0.8216796875000005 0.052539062500001066  L 9.1783203125 0.052539062500001066  C 9.4982421875 0.052539062500001066  9.756640625000001 0.31093749999999964  9.756640625000001 0.630859375  L 9.756640625000001 5.1537109375  Z " fill-rule="evenodd" />
    </mask>
  </defs>
  <g transform="matrix(1 0 0 1 -685 -1245 )">
    <path d="M 9.756640625000001 5.1537109375  C 9.756640625000001 5.531640625  9.45078125 5.837499999999999  9.0728515625 5.8375  L 0.9271484375000005 5.8375  C 0.5492187500000005 5.8375  0.24335937499999982 5.531640625000001  0.24335937499999982 5.153710937500001  L 0.24335937499999982 0.630859375  C 0.24335937499999982 0.31093749999999964  0.5017578125000002 0.052539062500001066  0.8216796875000005 0.052539062500001066  L 9.1783203125 0.052539062500001066  C 9.4982421875 0.052539062500001066  9.756640625000001 0.31093749999999964  9.756640625000001 0.630859375  L 9.756640625000001 5.1537109375  Z " fill-rule="nonzero" fill="rgba(255, 41, 41, 1)" stroke="none" transform="matrix(1 0 0 1 685 1245 )" class="fill" />
    <path d="M 9.756640625000001 5.1537109375  C 9.756640625000001 5.531640625  9.45078125 5.837499999999999  9.0728515625 5.8375  L 0.9271484375000005 5.8375  C 0.5492187500000005 5.8375  0.24335937499999982 5.531640625000001  0.24335937499999982 5.153710937500001  L 0.24335937499999982 0.630859375  C 0.24335937499999982 0.31093749999999964  0.5017578125000002 0.052539062500001066  0.8216796875000005 0.052539062500001066  L 9.1783203125 0.052539062500001066  C 9.4982421875 0.052539062500001066  9.756640625000001 0.31093749999999964  9.756640625000001 0.630859375  L 9.756640625000001 5.1537109375  Z " stroke-width="0" stroke-dasharray="0" stroke="rgba(255, 255, 255, 0)" fill="none" transform="matrix(1 0 0 1 685 1245 )" class="stroke" mask="url(#Clip7619)" />
  </g>
</svg>