<?xml version="1.0" encoding="utf-8"?>
<svg version="1.1" xmlns:xlink="http://www.w3.org/1999/xlink" width="3px" height="4px" xmlns="http://www.w3.org/2000/svg">
  <defs>
    <pattern id="BGPattern" patternUnits="userSpaceOnUse" alignment="0 0" imageRepeat="None" />
    <mask fill="white" id="Clip4289">
      <path d="M 2.080078125 1.3158203125000005  C 2.078320312499999 1.0345703125000005  1.8462890625000004 0.8025390625000002  1.5650390625000004 0.8025390625000002  L 0.5367187500000004 0.8025390625000002  L 0.5367187500000004 3.3742187500000007  L 1.5650390625000004 3.3742187500000007  C 1.8480468750000014 3.3742187500000007  2.080078125 3.1421875000000004  2.080078125 2.8591796875  L 2.080078125 1.3158203125000005  Z " fill-rule="evenodd" />
    </mask>
  </defs>
  <g transform="matrix(1 0 0 1 -693 -1242 )">
    <path d="M 2.080078125 1.3158203125000005  C 2.078320312499999 1.0345703125000005  1.8462890625000004 0.8025390625000002  1.5650390625000004 0.8025390625000002  L 0.5367187500000004 0.8025390625000002  L 0.5367187500000004 3.3742187500000007  L 1.5650390625000004 3.3742187500000007  C 1.8480468750000014 3.3742187500000007  2.080078125 3.1421875000000004  2.080078125 2.8591796875  L 2.080078125 1.3158203125000005  Z " fill-rule="nonzero" fill="rgba(226, 35, 35, 1)" stroke="none" transform="matrix(1 0 0 1 693 1242 )" class="fill" />
    <path d="M 2.080078125 1.3158203125000005  C 2.078320312499999 1.0345703125000005  1.8462890625000004 0.8025390625000002  1.5650390625000004 0.8025390625000002  L 0.5367187500000004 0.8025390625000002  L 0.5367187500000004 3.3742187500000007  L 1.5650390625000004 3.3742187500000007  C 1.8480468750000014 3.3742187500000007  2.080078125 3.1421875000000004  2.080078125 2.8591796875  L 2.080078125 1.3158203125000005  Z " stroke-width="0" stroke-dasharray="0" stroke="rgba(255, 255, 255, 0)" fill="none" transform="matrix(1 0 0 1 693 1242 )" class="stroke" mask="url(#Clip4289)" />
  </g>
</svg>