<?xml version="1.0" encoding="utf-8"?>
<svg version="1.1" xmlns:xlink="http://www.w3.org/1999/xlink" width="6px" height="5px" xmlns="http://www.w3.org/2000/svg">
  <defs>
    <pattern id="BGPattern" patternUnits="userSpaceOnUse" alignment="0 0" imageRepeat="None" />
    <mask fill="white" id="Clip1688">
      <path d="M 4.4498046875 3.7449218749999993  C 4.3373046875 3.9400390624999995  4.1333984375 4.047265625  3.9242187500000005 4.047265625  C 3.822265625 4.047265625  3.7185546875 4.0208984375  3.6236328124999995 3.9664062499999995  L 0.9517578124999995 2.423046875  C 0.6634765625000005 2.2560546875  0.5632812499999993 1.8869140624999998  0.7302734374999993 1.5968749999999998  L 1.4369140624999996 0.37167968749999947  C 1.6039062499999996 0.08339843749999964  1.9730468749999996 -0.016796875000000266  2.2630859374999996 0.15019531250000018  L 4.9349609375 1.6935546874999998  C 5.223242187499999 1.8605468749999998  5.323437499999999 2.2314453125  5.156445312499999 2.5197265625  L 4.4498046875 3.7449218749999993  Z M 1.0414062500000005 2.268359375  L 3.7132812500000005 3.8117187500000007  C 3.9154296875000005 3.9294921875  4.175585937500001 3.8591796875  4.293359375 3.65703125  L 5 2.4318359375000007  C 5.1177734375 2.2296875000000007  5.0474609375 1.9695312500000002  4.8453125 1.8517578125000007  L 2.1734374999999995 0.3083984375000002  C 1.9712890624999995 0.1923828125000009  1.7111328124999998 0.2609375000000007  1.5933593749999995 0.4630859375000007  L 0.88671875 1.6882812500000002  C 0.7689453125000005 1.8904296875000002  0.8392578125000005 2.1505859375000007  1.0414062500000005 2.268359375  Z " fill-rule="evenodd" />
    </mask>
  </defs>
  <g transform="matrix(1 0 0 1 -685 -1241 )">
    <path d="M 4.4498046875 3.7449218749999993  C 4.3373046875 3.9400390624999995  4.1333984375 4.047265625  3.9242187500000005 4.047265625  C 3.822265625 4.047265625  3.7185546875 4.0208984375  3.6236328124999995 3.9664062499999995  L 0.9517578124999995 2.423046875  C 0.6634765625000005 2.2560546875  0.5632812499999993 1.8869140624999998  0.7302734374999993 1.5968749999999998  L 1.4369140624999996 0.37167968749999947  C 1.6039062499999996 0.08339843749999964  1.9730468749999996 -0.016796875000000266  2.2630859374999996 0.15019531250000018  L 4.9349609375 1.6935546874999998  C 5.223242187499999 1.8605468749999998  5.323437499999999 2.2314453125  5.156445312499999 2.5197265625  L 4.4498046875 3.7449218749999993  Z M 1.0414062500000005 2.268359375  L 3.7132812500000005 3.8117187500000007  C 3.9154296875000005 3.9294921875  4.175585937500001 3.8591796875  4.293359375 3.65703125  L 5 2.4318359375000007  C 5.1177734375 2.2296875000000007  5.0474609375 1.9695312500000002  4.8453125 1.8517578125000007  L 2.1734374999999995 0.3083984375000002  C 1.9712890624999995 0.1923828125000009  1.7111328124999998 0.2609375000000007  1.5933593749999995 0.4630859375000007  L 0.88671875 1.6882812500000002  C 0.7689453125000005 1.8904296875000002  0.8392578125000005 2.1505859375000007  1.0414062500000005 2.268359375  Z " fill-rule="nonzero" fill="rgba(71, 26, 26, 1)" stroke="none" transform="matrix(1 0 0 1 685 1241 )" class="fill" />
    <path d="M 4.4498046875 3.7449218749999993  C 4.3373046875 3.9400390624999995  4.1333984375 4.047265625  3.9242187500000005 4.047265625  C 3.822265625 4.047265625  3.7185546875 4.0208984375  3.6236328124999995 3.9664062499999995  L 0.9517578124999995 2.423046875  C 0.6634765625000005 2.2560546875  0.5632812499999993 1.8869140624999998  0.7302734374999993 1.5968749999999998  L 1.4369140624999996 0.37167968749999947  C 1.6039062499999996 0.08339843749999964  1.9730468749999996 -0.016796875000000266  2.2630859374999996 0.15019531250000018  L 4.9349609375 1.6935546874999998  C 5.223242187499999 1.8605468749999998  5.323437499999999 2.2314453125  5.156445312499999 2.5197265625  L 4.4498046875 3.7449218749999993  Z " stroke-width="0" stroke-dasharray="0" stroke="rgba(255, 255, 255, 0)" fill="none" transform="matrix(1 0 0 1 685 1241 )" class="stroke" mask="url(#Clip1688)" />
    <path d="M 1.0414062500000005 2.268359375  L 3.7132812500000005 3.8117187500000007  C 3.9154296875000005 3.9294921875  4.175585937500001 3.8591796875  4.293359375 3.65703125  L 5 2.4318359375000007  C 5.1177734375 2.2296875000000007  5.0474609375 1.9695312500000002  4.8453125 1.8517578125000007  L 2.1734374999999995 0.3083984375000002  C 1.9712890624999995 0.1923828125000009  1.7111328124999998 0.2609375000000007  1.5933593749999995 0.4630859375000007  L 0.88671875 1.6882812500000002  C 0.7689453125000005 1.8904296875000002  0.8392578125000005 2.1505859375000007  1.0414062500000005 2.268359375  Z " stroke-width="0" stroke-dasharray="0" stroke="rgba(255, 255, 255, 0)" fill="none" transform="matrix(1 0 0 1 685 1241 )" class="stroke" mask="url(#Clip1688)" />
  </g>
</svg>