<?xml version="1.0" encoding="utf-8"?>
<svg version="1.1" xmlns:xlink="http://www.w3.org/1999/xlink" width="12px" height="4px" xmlns="http://www.w3.org/2000/svg">
  <defs>
    <pattern id="BGPattern" patternUnits="userSpaceOnUse" alignment="0 0" imageRepeat="None" />
    <mask fill="white" id="Clip1022">
      <path d="M 11.233007812499999 2.7958984375  C 11.233007812499999 3.128124999999999  10.9623046875 3.400585937499999  10.6283203125 3.400585937499999  L 1.3716796874999995 3.400585937499999  C 1.0376953124999995 3.400585937499999  0.7669921874999996 3.1298828125  0.7669921874999996 2.7958984375  L 0.7669921874999996 1.2525390624999995  C 0.7669921874999996 0.9185546874999995  1.0376953124999995 0.6478515625000005  1.3716796874999995 0.6478515625000005  L 10.6283203125 0.6478515625000005  C 10.9623046875 0.6478515625000005  11.233007812499999 0.9185546874999995  11.233007812499999 1.2525390624999995  L 11.233007812499999 2.7958984375  Z M 10.6283203125 0.8289062500000002  L 1.3716796874999995 0.8289062500000002  C 1.1378906249999998 0.8289062500000002  0.9480468749999997 1.0187500000000007  0.9480468749999997 1.2525390625000004  L 0.9480468749999997 2.795898437500001  C 0.9480468749999997 3.0296875000000014  1.1378906249999998 3.219531250000001  1.3716796874999995 3.219531250000001  L 10.6283203125 3.219531250000001  C 10.862109375 3.219531250000001  11.051953124999999 3.0296875000000014  11.051953124999999 2.795898437500001  L 11.051953124999999 1.2525390625000004  C 11.051953124999999 1.0187500000000007  10.862109375000001 0.8289062500000002  10.6283203125 0.8289062500000002  Z " fill-rule="evenodd" />
    </mask>
  </defs>
  <g transform="matrix(1 0 0 1 -684 -1242 )">
    <path d="M 11.233007812499999 2.7958984375  C 11.233007812499999 3.128124999999999  10.9623046875 3.400585937499999  10.6283203125 3.400585937499999  L 1.3716796874999995 3.400585937499999  C 1.0376953124999995 3.400585937499999  0.7669921874999996 3.1298828125  0.7669921874999996 2.7958984375  L 0.7669921874999996 1.2525390624999995  C 0.7669921874999996 0.9185546874999995  1.0376953124999995 0.6478515625000005  1.3716796874999995 0.6478515625000005  L 10.6283203125 0.6478515625000005  C 10.9623046875 0.6478515625000005  11.233007812499999 0.9185546874999995  11.233007812499999 1.2525390624999995  L 11.233007812499999 2.7958984375  Z M 10.6283203125 0.8289062500000002  L 1.3716796874999995 0.8289062500000002  C 1.1378906249999998 0.8289062500000002  0.9480468749999997 1.0187500000000007  0.9480468749999997 1.2525390625000004  L 0.9480468749999997 2.795898437500001  C 0.9480468749999997 3.0296875000000014  1.1378906249999998 3.219531250000001  1.3716796874999995 3.219531250000001  L 10.6283203125 3.219531250000001  C 10.862109375 3.219531250000001  11.051953124999999 3.0296875000000014  11.051953124999999 2.795898437500001  L 11.051953124999999 1.2525390625000004  C 11.051953124999999 1.0187500000000007  10.862109375000001 0.8289062500000002  10.6283203125 0.8289062500000002  Z " fill-rule="nonzero" fill="rgba(71, 26, 26, 1)" stroke="none" transform="matrix(1 0 0 1 684 1242 )" class="fill" />
    <path d="M 11.233007812499999 2.7958984375  C 11.233007812499999 3.128124999999999  10.9623046875 3.400585937499999  10.6283203125 3.400585937499999  L 1.3716796874999995 3.400585937499999  C 1.0376953124999995 3.400585937499999  0.7669921874999996 3.1298828125  0.7669921874999996 2.7958984375  L 0.7669921874999996 1.2525390624999995  C 0.7669921874999996 0.9185546874999995  1.0376953124999995 0.6478515625000005  1.3716796874999995 0.6478515625000005  L 10.6283203125 0.6478515625000005  C 10.9623046875 0.6478515625000005  11.233007812499999 0.9185546874999995  11.233007812499999 1.2525390624999995  L 11.233007812499999 2.7958984375  Z " stroke-width="0" stroke-dasharray="0" stroke="rgba(255, 255, 255, 0)" fill="none" transform="matrix(1 0 0 1 684 1242 )" class="stroke" mask="url(#Clip1022)" />
    <path d="M 10.6283203125 0.8289062500000002  L 1.3716796874999995 0.8289062500000002  C 1.1378906249999998 0.8289062500000002  0.9480468749999997 1.0187500000000007  0.9480468749999997 1.2525390625000004  L 0.9480468749999997 2.795898437500001  C 0.9480468749999997 3.0296875000000014  1.1378906249999998 3.219531250000001  1.3716796874999995 3.219531250000001  L 10.6283203125 3.219531250000001  C 10.862109375 3.219531250000001  11.051953124999999 3.0296875000000014  11.051953124999999 2.795898437500001  L 11.051953124999999 1.2525390625000004  C 11.051953124999999 1.0187500000000007  10.862109375000001 0.8289062500000002  10.6283203125 0.8289062500000002  Z " stroke-width="0" stroke-dasharray="0" stroke="rgba(255, 255, 255, 0)" fill="none" transform="matrix(1 0 0 1 684 1242 )" class="stroke" mask="url(#Clip1022)" />
  </g>
</svg>