<?xml version="1.0" encoding="utf-8"?>
<svg version="1.1" xmlns:xlink="http://www.w3.org/1999/xlink" width="180px" height="15px" xmlns="http://www.w3.org/2000/svg">
  <defs>
    <linearGradient gradientUnits="userSpaceOnUse" x1="0" y1="7.5" x2="180" y2="7.5" id="LinearGradient7604">
      <stop id="Stop7605" stop-color="#ff4874" offset="0" />
      <stop id="Stop7606" stop-color="#ff6da1" offset="1" />
    </linearGradient>
    <pattern id="BGPattern" patternUnits="userSpaceOnUse" alignment="0 0" imageRepeat="None" />
    <mask fill="white" id="Clip7607">
      <path d="M 0 10.000000000000002  L 0 0  L 180 0  L 180 15  L 5 15  C 2.1999999999999993 15  0 12.8  0 10.000000000000002  Z " fill-rule="evenodd" />
    </mask>
  </defs>
  <g transform="matrix(1 0 0 1 0 -1247 )">
    <path d="M 0 10.000000000000002  L 0 0  L 180 0  L 180 15  L 5 15  C 2.1999999999999993 15  0 12.8  0 10.000000000000002  Z " fill-rule="nonzero" fill="url(#LinearGradient7604)" stroke="none" transform="matrix(1 0 0 1 0 1247 )" class="fill" />
    <path d="M 0 10.000000000000002  L 0 0  L 180 0  L 180 15  L 5 15  C 2.1999999999999993 15  0 12.8  0 10.000000000000002  Z " stroke-width="0" stroke-dasharray="0" stroke="rgba(121, 121, 121, 1)" fill="none" transform="matrix(1 0 0 1 0 1247 )" class="stroke" mask="url(#Clip7607)" />
  </g>
</svg>