<?xml version="1.0" encoding="utf-8"?>
<svg version="1.1" xmlns:xlink="http://www.w3.org/1999/xlink" width="6px" height="4px" xmlns="http://www.w3.org/2000/svg">
  <defs>
    <pattern id="BGPattern" patternUnits="userSpaceOnUse" alignment="0 0" imageRepeat="None" />
    <mask fill="white" id="Clip6412">
      <path d="M 4.316210937500001 3.7958984375  C 4.20546875 3.9875  3.955859375 4.054296875  3.7625 3.9435546875  L 0.9025390625000007 2.2912109375  C 0.7091796875000007 2.1804687499999993  0.6423828125000002 1.9308593749999998  0.7548828125000009 1.7374999999999998  L 1.5705078125000007 0.3242187499999991  C 1.6812500000000004 0.1308593749999991  1.9308593750000007 0.06406249999999947  2.1242187500000007 0.1765624999999993  L 4.984179687500001 1.8289062499999993  C 5.177539062500001 1.9396484374999998  5.244335937499999 2.1892578124999993  5.1318359375 2.3826171874999993  L 4.316210937500001 3.7958984375  Z " fill-rule="evenodd" />
    </mask>
  </defs>
  <g transform="matrix(1 0 0 1 -685 -1241 )">
    <path d="M 4.316210937500001 3.7958984375  C 4.20546875 3.9875  3.955859375 4.054296875  3.7625 3.9435546875  L 0.9025390625000007 2.2912109375  C 0.7091796875000007 2.1804687499999993  0.6423828125000002 1.9308593749999998  0.7548828125000009 1.7374999999999998  L 1.5705078125000007 0.3242187499999991  C 1.6812500000000004 0.1308593749999991  1.9308593750000007 0.06406249999999947  2.1242187500000007 0.1765624999999993  L 4.984179687500001 1.8289062499999993  C 5.177539062500001 1.9396484374999998  5.244335937499999 2.1892578124999993  5.1318359375 2.3826171874999993  L 4.316210937500001 3.7958984375  Z " fill-rule="nonzero" fill="rgba(242, 188, 54, 1)" stroke="none" transform="matrix(1 0 0 1 685 1241 )" class="fill" />
    <path d="M 4.316210937500001 3.7958984375  C 4.20546875 3.9875  3.955859375 4.054296875  3.7625 3.9435546875  L 0.9025390625000007 2.2912109375  C 0.7091796875000007 2.1804687499999993  0.6423828125000002 1.9308593749999998  0.7548828125000009 1.7374999999999998  L 1.5705078125000007 0.3242187499999991  C 1.6812500000000004 0.1308593749999991  1.9308593750000007 0.06406249999999947  2.1242187500000007 0.1765624999999993  L 4.984179687500001 1.8289062499999993  C 5.177539062500001 1.9396484374999998  5.244335937499999 2.1892578124999993  5.1318359375 2.3826171874999993  L 4.316210937500001 3.7958984375  Z " stroke-width="0" stroke-dasharray="0" stroke="rgba(255, 255, 255, 0)" fill="none" transform="matrix(1 0 0 1 685 1241 )" class="stroke" mask="url(#Clip6412)" />
  </g>
</svg>