<?xml version="1.0" encoding="utf-8"?>
<svg version="1.1" xmlns:xlink="http://www.w3.org/1999/xlink" width="4px" height="4px" xmlns="http://www.w3.org/2000/svg">
  <defs>
    <pattern id="BGPattern" patternUnits="userSpaceOnUse" alignment="0 0" imageRepeat="None" />
    <mask fill="white" id="Clip11362">
      <path d="M 1.034960937500001 3.9525390624999996  L 2 3.180859374999999  L 2.965039062499999 3.9525390624999996  L 3.0283203125 3.9525390624999996  L 3.0283203125 0.7374999999999998  L 0.9716796875 0.7374999999999998  L 0.9716796875 3.9525390624999996  L 1.034960937500001 3.9525390624999996  Z " fill-rule="evenodd" />
    </mask>
  </defs>
  <g transform="matrix(1 0 0 1 -688 -1242 )">
    <path d="M 1.034960937500001 3.9525390624999996  L 2 3.180859374999999  L 2.965039062499999 3.9525390624999996  L 3.0283203125 3.9525390624999996  L 3.0283203125 0.7374999999999998  L 0.9716796875 0.7374999999999998  L 0.9716796875 3.9525390624999996  L 1.034960937500001 3.9525390624999996  Z " fill-rule="nonzero" fill="rgba(242, 188, 54, 1)" stroke="none" transform="matrix(1 0 0 1 688 1242 )" class="fill" />
    <path d="M 1.034960937500001 3.9525390624999996  L 2 3.180859374999999  L 2.965039062499999 3.9525390624999996  L 3.0283203125 3.9525390624999996  L 3.0283203125 0.7374999999999998  L 0.9716796875 0.7374999999999998  L 0.9716796875 3.9525390624999996  L 1.034960937500001 3.9525390624999996  Z " stroke-width="0" stroke-dasharray="0" stroke="rgba(255, 255, 255, 0)" fill="none" transform="matrix(1 0 0 1 688 1242 )" class="stroke" mask="url(#Clip11362)" />
  </g>
</svg>