<?xml version="1.0" encoding="utf-8"?>
<svg version="1.1" xmlns:xlink="http://www.w3.org/1999/xlink" width="2px" height="6px" xmlns="http://www.w3.org/2000/svg">
  <defs>
    <pattern id="BGPattern" patternUnits="userSpaceOnUse" alignment="0 0" imageRepeat="None" />
    <mask fill="white" id="Clip2490">
      <path d="M 1.691601562499999 0.11757812499999964  L 0.5349609375000011 0.11757812499999964  L 0.5349609375000011 5.902539062500001  L 0.919921875 5.902539062500001  C 1.3453125000000004 5.902539062500001  1.691601562499999 5.558007812500001  1.691601562499999 5.130859375000002  L 1.691601562499999 0.11757812499999964  Z " fill-rule="evenodd" />
    </mask>
  </defs>
  <g transform="matrix(1 0 0 1 -693 -1245 )">
    <path d="M 1.691601562499999 0.11757812499999964  L 0.5349609375000011 0.11757812499999964  L 0.5349609375000011 5.902539062500001  L 0.919921875 5.902539062500001  C 1.3453125000000004 5.902539062500001  1.691601562499999 5.558007812500001  1.691601562499999 5.130859375000002  L 1.691601562499999 0.11757812499999964  Z " fill-rule="nonzero" fill="rgba(226, 35, 35, 1)" stroke="none" transform="matrix(1 0 0 1 693 1245 )" class="fill" />
    <path d="M 1.691601562499999 0.11757812499999964  L 0.5349609375000011 0.11757812499999964  L 0.5349609375000011 5.902539062500001  L 0.919921875 5.902539062500001  C 1.3453125000000004 5.902539062500001  1.691601562499999 5.558007812500001  1.691601562499999 5.130859375000002  L 1.691601562499999 0.11757812499999964  Z " stroke-width="0" stroke-dasharray="0" stroke="rgba(255, 255, 255, 0)" fill="none" transform="matrix(1 0 0 1 693 1245 )" class="stroke" mask="url(#Clip2490)" />
  </g>
</svg>