<?xml version="1.0" encoding="utf-8"?>
<svg version="1.1" xmlns:xlink="http://www.w3.org/1999/xlink" width="3px" height="3px" xmlns="http://www.w3.org/2000/svg">
  <defs>
    <pattern id="BGPattern" patternUnits="userSpaceOnUse" alignment="0 0" imageRepeat="None" />
    <mask fill="white" id="Clip11046">
      <path d="M 0.8638671875000004 1.2451171875000009  C 0.8638671875000004 1.3875000000000002  0.7496093750000004 1.5017578125000002  0.6072265625000011 1.5017578125000002  C 0.46484375 1.5017578125000002  0.3505859375 1.3857421875000009  0.3505859375 1.2451171875000009  C 0.3505859375 1.1027343750000007  0.46660156250000107 0.9884765625000007  0.6072265625000011 0.9884765625000007  C 0.7478515625000011 0.9884765625000007  0.8638671875000004 1.1044921875000009  0.8638671875000004 1.2451171875000009  Z M 2.3773437499999996 1.7724609375  C 2.3773437499999996 2.0572265625000004  2.1470703124999986 2.2875000000000005  1.8623046875 2.2875000000000005  C 1.579296874999999 2.2875000000000005  1.3472656250000004 2.0572265624999995  1.3472656250000004 1.7724609375  C 1.3472656250000004 1.4894531249999998  1.5775390625000014 1.2574218749999995  1.8623046875 1.2574218749999995  C 2.145312500000001 1.2574218749999995  2.3773437499999996 1.4876953124999996  2.3773437499999996 1.7724609375  Z M 2.22265625 1.7742187500000002  C 2.22265625 1.5755859375000005  2.0609374999999996 1.4138671875000002  1.8623046875 1.4138671875000002  C 1.6636718750000004 1.4138671875000002  1.501953125 1.5755859375000005  1.501953125 1.7742187500000002  C 1.501953125 1.9728515625000007  1.6636718750000004 2.1345703125  1.8623046875 2.1345703125  C 2.0609374999999996 2.1345703125  2.22265625 1.9728515625000007  2.22265625 1.7742187500000002  Z " fill-rule="evenodd" />
    </mask>
  </defs>
  <g transform="matrix(1 0 0 1 -694 -1240 )">
    <path d="M 0.8638671875000004 1.2451171875000009  C 0.8638671875000004 1.3875000000000002  0.7496093750000004 1.5017578125000002  0.6072265625000011 1.5017578125000002  C 0.46484375 1.5017578125000002  0.3505859375 1.3857421875000009  0.3505859375 1.2451171875000009  C 0.3505859375 1.1027343750000007  0.46660156250000107 0.9884765625000007  0.6072265625000011 0.9884765625000007  C 0.7478515625000011 0.9884765625000007  0.8638671875000004 1.1044921875000009  0.8638671875000004 1.2451171875000009  Z M 2.3773437499999996 1.7724609375  C 2.3773437499999996 2.0572265625000004  2.1470703124999986 2.2875000000000005  1.8623046875 2.2875000000000005  C 1.579296874999999 2.2875000000000005  1.3472656250000004 2.0572265624999995  1.3472656250000004 1.7724609375  C 1.3472656250000004 1.4894531249999998  1.5775390625000014 1.2574218749999995  1.8623046875 1.2574218749999995  C 2.145312500000001 1.2574218749999995  2.3773437499999996 1.4876953124999996  2.3773437499999996 1.7724609375  Z M 2.22265625 1.7742187500000002  C 2.22265625 1.5755859375000005  2.0609374999999996 1.4138671875000002  1.8623046875 1.4138671875000002  C 1.6636718750000004 1.4138671875000002  1.501953125 1.5755859375000005  1.501953125 1.7742187500000002  C 1.501953125 1.9728515625000007  1.6636718750000004 2.1345703125  1.8623046875 2.1345703125  C 2.0609374999999996 2.1345703125  2.22265625 1.9728515625000007  2.22265625 1.7742187500000002  Z " fill-rule="nonzero" fill="rgba(71, 26, 26, 1)" stroke="none" transform="matrix(1 0 0 1 694 1240 )" class="fill" />
    <path d="M 0.8638671875000004 1.2451171875000009  C 0.8638671875000004 1.3875000000000002  0.7496093750000004 1.5017578125000002  0.6072265625000011 1.5017578125000002  C 0.46484375 1.5017578125000002  0.3505859375 1.3857421875000009  0.3505859375 1.2451171875000009  C 0.3505859375 1.1027343750000007  0.46660156250000107 0.9884765625000007  0.6072265625000011 0.9884765625000007  C 0.7478515625000011 0.9884765625000007  0.8638671875000004 1.1044921875000009  0.8638671875000004 1.2451171875000009  Z " stroke-width="0" stroke-dasharray="0" stroke="rgba(255, 255, 255, 0)" fill="none" transform="matrix(1 0 0 1 694 1240 )" class="stroke" mask="url(#Clip11046)" />
    <path d="M 2.3773437499999996 1.7724609375  C 2.3773437499999996 2.0572265625000004  2.1470703124999986 2.2875000000000005  1.8623046875 2.2875000000000005  C 1.579296874999999 2.2875000000000005  1.3472656250000004 2.0572265624999995  1.3472656250000004 1.7724609375  C 1.3472656250000004 1.4894531249999998  1.5775390625000014 1.2574218749999995  1.8623046875 1.2574218749999995  C 2.145312500000001 1.2574218749999995  2.3773437499999996 1.4876953124999996  2.3773437499999996 1.7724609375  Z " stroke-width="0" stroke-dasharray="0" stroke="rgba(255, 255, 255, 0)" fill="none" transform="matrix(1 0 0 1 694 1240 )" class="stroke" mask="url(#Clip11046)" />
    <path d="M 2.22265625 1.7742187500000002  C 2.22265625 1.5755859375000005  2.0609374999999996 1.4138671875000002  1.8623046875 1.4138671875000002  C 1.6636718750000004 1.4138671875000002  1.501953125 1.5755859375000005  1.501953125 1.7742187500000002  C 1.501953125 1.9728515625000007  1.6636718750000004 2.1345703125  1.8623046875 2.1345703125  C 2.0609374999999996 2.1345703125  2.22265625 1.9728515625000007  2.22265625 1.7742187500000002  Z " stroke-width="0" stroke-dasharray="0" stroke="rgba(255, 255, 255, 0)" fill="none" transform="matrix(1 0 0 1 694 1240 )" class="stroke" mask="url(#Clip11046)" />
  </g>
</svg>