<?xml version="1.0" encoding="utf-8"?>
<svg version="1.1" xmlns:xlink="http://www.w3.org/1999/xlink" width="12px" height="4px" xmlns="http://www.w3.org/2000/svg">
  <defs>
    <pattern id="BGPattern" patternUnits="userSpaceOnUse" alignment="0 0" imageRepeat="None" />
    <mask fill="white" id="Clip4222">
      <path d="M 11.155664062500001 2.8416015625  C 11.15390625 3.0824218749999996  10.957031250000002 3.281054687500001  10.714453125 3.281054687500001  L 1.3083984375000002 3.281054687500001  C 1.0675781249999998 3.281054687500001  0.8689453124999997 3.0841796875000007  0.8689453124999997 2.8416015625  L 0.8689453124999997 1.1488281250000005  C 0.8689453124999997 0.9080078125000002  1.0658203124999996 0.7093750000000005  1.3083984375000002 0.7093750000000005  L 10.716210937500001 0.7093750000000005  C 10.957031250000002 0.7093750000000005  11.155664062500001 0.90625  11.155664062500001 1.1488281250000005  L 11.155664062500001 2.8416015625  Z " fill-rule="evenodd" />
    </mask>
  </defs>
  <g transform="matrix(1 0 0 1 -684 -1242 )">
    <path d="M 11.155664062500001 2.8416015625  C 11.15390625 3.0824218749999996  10.957031250000002 3.281054687500001  10.714453125 3.281054687500001  L 1.3083984375000002 3.281054687500001  C 1.0675781249999998 3.281054687500001  0.8689453124999997 3.0841796875000007  0.8689453124999997 2.8416015625  L 0.8689453124999997 1.1488281250000005  C 0.8689453124999997 0.9080078125000002  1.0658203124999996 0.7093750000000005  1.3083984375000002 0.7093750000000005  L 10.716210937500001 0.7093750000000005  C 10.957031250000002 0.7093750000000005  11.155664062500001 0.90625  11.155664062500001 1.1488281250000005  L 11.155664062500001 2.8416015625  Z " fill-rule="nonzero" fill="rgba(255, 41, 41, 1)" stroke="none" transform="matrix(1 0 0 1 684 1242 )" class="fill" />
    <path d="M 11.155664062500001 2.8416015625  C 11.15390625 3.0824218749999996  10.957031250000002 3.281054687500001  10.714453125 3.281054687500001  L 1.3083984375000002 3.281054687500001  C 1.0675781249999998 3.281054687500001  0.8689453124999997 3.0841796875000007  0.8689453124999997 2.8416015625  L 0.8689453124999997 1.1488281250000005  C 0.8689453124999997 0.9080078125000002  1.0658203124999996 0.7093750000000005  1.3083984375000002 0.7093750000000005  L 10.716210937500001 0.7093750000000005  C 10.957031250000002 0.7093750000000005  11.155664062500001 0.90625  11.155664062500001 1.1488281250000005  L 11.155664062500001 2.8416015625  Z " stroke-width="0" stroke-dasharray="0" stroke="rgba(255, 255, 255, 0)" fill="none" transform="matrix(1 0 0 1 684 1242 )" class="stroke" mask="url(#Clip4222)" />
  </g>
</svg>