<?xml version="1.0" encoding="utf-8"?>
<svg version="1.1" xmlns:xlink="http://www.w3.org/1999/xlink" width="32px" height="32px" xmlns="http://www.w3.org/2000/svg">
  <defs>
    <pattern id="BGPattern" patternUnits="userSpaceOnUse" alignment="0 0" imageRepeat="None" />
    <mask fill="white" id="Clip13970">
      <path d="M 10.9898019140625 11.0465084765625  C 11.32977140625 10.70746833984375  11.33058087890625 10.156921611328126  10.991570712890628 9.815273232421873  L 7.224534755859377 6.03705486328125  L 10.988123056640624 2.315318203125001  C 11.32977140625 1.9779869238281247  11.332349677734374 1.4266607226562513  10.9949883984375 1.0849823730468753  C 10.657657119140623 0.7428843164062506  10.105461503906248 0.7402760742187482  9.76375318359375 1.078476796875  L 5.996747197265625 4.804560498046875  L 2.2858332128906262 1.081954423828126  C 1.9459236621093758 0.742014902343751  1.3954069335937511 0.7403060742187506  1.0546279687499993 1.0802155957031268  C 0.7146884472656243 1.420604824218751  0.7146884472656243 1.9710616113281265  1.052889140625 2.311031103515626  L 4.7594860546875 6.0284506933593764  L 1.0235690332031258 9.723775283203125  C 0.6818906835937515 10.0619759765625  0.6784430273437501 10.6116233203125  1.0166737207031247 10.953361611328127  C 1.1874979101562513 11.125924599609373  1.4101269726562506 11.212146152343749  1.6344348925781258 11.212146152343749  C 1.855325126953126 11.212146152343749  2.077894218750002 11.127633457031251  2.247039550781251 10.961096367187501  L 5.988113115234375 7.260555322265628  L 9.758596669921875 11.044799619140626  C 9.928581416015625 11.214724423828127  10.152019921875002 11.300196474609375  10.375488427734375 11.300196474609375  C 10.598117490234376 11.300196474609375  10.819787197265626 11.214724423828123  10.9898019140625 11.0465084765625  Z " fill-rule="evenodd" />
    </mask>
  </defs>
  <g transform="matrix(1 0 0 1 -924 -468 )">
    <path d="M 10.9898019140625 11.0465084765625  C 11.32977140625 10.70746833984375  11.33058087890625 10.156921611328126  10.991570712890628 9.815273232421873  L 7.224534755859377 6.03705486328125  L 10.988123056640624 2.315318203125001  C 11.32977140625 1.9779869238281247  11.332349677734374 1.4266607226562513  10.9949883984375 1.0849823730468753  C 10.657657119140623 0.7428843164062506  10.105461503906248 0.7402760742187482  9.76375318359375 1.078476796875  L 5.996747197265625 4.804560498046875  L 2.2858332128906262 1.081954423828126  C 1.9459236621093758 0.742014902343751  1.3954069335937511 0.7403060742187506  1.0546279687499993 1.0802155957031268  C 0.7146884472656243 1.420604824218751  0.7146884472656243 1.9710616113281265  1.052889140625 2.311031103515626  L 4.7594860546875 6.0284506933593764  L 1.0235690332031258 9.723775283203125  C 0.6818906835937515 10.0619759765625  0.6784430273437501 10.6116233203125  1.0166737207031247 10.953361611328127  C 1.1874979101562513 11.125924599609373  1.4101269726562506 11.212146152343749  1.6344348925781258 11.212146152343749  C 1.855325126953126 11.212146152343749  2.077894218750002 11.127633457031251  2.247039550781251 10.961096367187501  L 5.988113115234375 7.260555322265628  L 9.758596669921875 11.044799619140626  C 9.928581416015625 11.214724423828127  10.152019921875002 11.300196474609375  10.375488427734375 11.300196474609375  C 10.598117490234376 11.300196474609375  10.819787197265626 11.214724423828123  10.9898019140625 11.0465084765625  Z " fill-rule="nonzero" fill="rgba(255, 255, 255, 1)" stroke="none" transform="matrix(1 0 0 1 934 478 )" class="fill" />
    <path d="M 10.9898019140625 11.0465084765625  C 11.32977140625 10.70746833984375  11.33058087890625 10.156921611328126  10.991570712890628 9.815273232421873  L 7.224534755859377 6.03705486328125  L 10.988123056640624 2.315318203125001  C 11.32977140625 1.9779869238281247  11.332349677734374 1.4266607226562513  10.9949883984375 1.0849823730468753  C 10.657657119140623 0.7428843164062506  10.105461503906248 0.7402760742187482  9.76375318359375 1.078476796875  L 5.996747197265625 4.804560498046875  L 2.2858332128906262 1.081954423828126  C 1.9459236621093758 0.742014902343751  1.3954069335937511 0.7403060742187506  1.0546279687499993 1.0802155957031268  C 0.7146884472656243 1.420604824218751  0.7146884472656243 1.9710616113281265  1.052889140625 2.311031103515626  L 4.7594860546875 6.0284506933593764  L 1.0235690332031258 9.723775283203125  C 0.6818906835937515 10.0619759765625  0.6784430273437501 10.6116233203125  1.0166737207031247 10.953361611328127  C 1.1874979101562513 11.125924599609373  1.4101269726562506 11.212146152343749  1.6344348925781258 11.212146152343749  C 1.855325126953126 11.212146152343749  2.077894218750002 11.127633457031251  2.247039550781251 10.961096367187501  L 5.988113115234375 7.260555322265628  L 9.758596669921875 11.044799619140626  C 9.928581416015625 11.214724423828127  10.152019921875002 11.300196474609375  10.375488427734375 11.300196474609375  C 10.598117490234376 11.300196474609375  10.819787197265626 11.214724423828123  10.9898019140625 11.0465084765625  Z " stroke-width="0" stroke-dasharray="0" stroke="rgba(255, 255, 255, 0)" fill="none" transform="matrix(1 0 0 1 934 478 )" class="stroke" mask="url(#Clip13970)" />
  </g>
  <style>svg { filter: drop-shadow(0px 0px 5px rgba(0, 0, 0, 0.3137254901960784)); }</style>
</svg>