<svg t="1739517388382" class="icon" viewBox="0 0 1024 1024" version="1.1" xmlns="http://www.w3.org/2000/svg" p-id="4347" width="200" height="200"><path d="M838.12352 873.55392H200.41728c-21.25824 0-38.48192-17.22368-38.48192-38.48192V197.36576c0-21.25824 17.22368-38.48192 38.48192-38.48192h637.70624c21.25824 0 38.48192 17.22368 38.48192 38.48192v637.70624c0 21.25824-17.22368 38.48192-38.48192 38.48192z" fill="#CDBABE" p-id="4348"></path><path d="M739.65568 890.30656c-4.62848 0-8.3968-2.21184-8.3968-4.93568V831.8976c0-2.72384 3.74784-4.93568 8.3968-4.93568 4.62848 0 8.3968 2.21184 8.3968 4.93568v53.49376c-0.02048 2.70336-3.76832 4.9152-8.3968 4.9152z" fill="#9E8F94" p-id="4349"></path><path d="M795.05408 896.65536a8.3968 8.3968 0 0 1-8.3968-8.3968v-37.0688a8.3968 8.3968 0 1 1 16.7936 0v37.0688a8.409088 8.409088 0 0 1-8.3968 8.3968zM831.75424 890.30656a8.3968 8.3968 0 0 1-8.3968-8.3968v-25.41568a8.3968 8.3968 0 1 1 16.7936 0v25.41568c0 4.62848-3.76832 8.3968-8.3968 8.3968z" fill="#EAD5DA" p-id="4350"></path><path d="M830.58688 125.31712c39.30112 0 71.18848 31.86688 71.18848 71.18848v637.15328c0 39.30112-31.86688 71.18848-71.18848 71.18848H193.41312c-39.30112 0-71.18848-31.86688-71.18848-71.18848V196.48512c0-39.30112 31.86688-71.18848 71.18848-71.18848h637.17376m0-16.75264H193.41312C144.91648 108.544 105.472 147.98848 105.472 196.48512v637.15328c0 48.49664 39.46496 87.9616 87.9616 87.9616h637.15328c48.49664 0 87.9616-39.46496 87.9616-87.9616V196.48512C918.528 147.98848 879.08352 108.544 830.58688 108.544z" p-id="4351"></path><path d="M801.34144 826.96192a8.3968 8.3968 0 0 1 8.3968-8.3968h92.03712V546.9184h-71.9872a8.3968 8.3968 0 1 1 0-16.7936h71.9872v-102.23616h-55.86944a8.3968 8.3968 0 1 1 0-16.7936h55.86944V196.48512c0-39.30112-31.86688-71.18848-71.18848-71.18848h-76.16512v72.78592a8.3968 8.3968 0 1 1-16.7936 0V125.31712h-31.9488v24.94464a8.3968 8.3968 0 1 1-16.7936 0V125.31712H308.96128v70.16448c0 4.62848-3.74784 8.3968-8.3968 8.3968s-8.3968-3.74784-8.3968-8.3968V125.31712H193.41312c-39.30112 0-71.18848 31.86688-71.18848 71.18848v251.96544h23.42912c4.62848 0 8.3968 3.74784 8.3968 8.3968s-3.74784 8.3968-8.3968 8.3968H122.24512v34.07872h108.66688c4.62848 0 8.3968 3.74784 8.3968 8.3968s-3.74784 8.3968-8.3968 8.3968H122.24512v206.90944h38.97344a8.3968 8.3968 0 1 1 0 16.7936H122.24512v93.88032c0 39.30112 31.86688 71.18848 71.18848 71.18848h202.48576v-23.94112c0-4.62848 3.74784-8.3968 8.3968-8.3968s8.3968 3.74784 8.3968 8.3968v23.94112h33.15712v-49.00864c0-4.62848 3.74784-8.3968 8.3968-8.3968s8.3968 3.74784 8.3968 8.3968v49.00864h367.96416c38.72768 0 70.18496-30.96576 71.08608-69.46816H809.7792c-4.68992-0.08192-8.43776-3.85024-8.43776-8.47872z" fill="#E9D4D9" p-id="4352"></path><path d="M169.61536 731.38176a8.3968 8.3968 0 0 0-8.3968-8.3968H122.24512v16.77312h38.97344c4.62848 0 8.3968-3.74784 8.3968-8.37632z" fill="#A19295" p-id="4353"></path><path d="M798.72 865.85344H225.28c-35.38944 0-64.06144-28.672-64.06144-64.06144v-573.44c0-35.38944 28.672-64.06144 64.06144-64.06144h573.44c35.38944 0 64.06144 28.672 64.06144 64.06144v573.44c0 35.36896-28.69248 64.06144-64.06144 64.06144z" fill="#CDBABE" p-id="4354"></path><path d="M404.29568 872.48896a8.3968 8.3968 0 0 0-8.3968 8.3968v23.94112h16.77312v-23.94112c0-4.62848-3.74784-8.3968-8.37632-8.3968zM454.22592 847.42144a8.3968 8.3968 0 0 0-8.3968 8.3968v49.00864h16.77312v-49.00864a8.37632 8.37632 0 0 0-8.37632-8.3968zM901.75488 818.5856h-92.03712c-4.62848 0-8.3968 3.74784-8.3968 8.3968s3.74784 8.3968 8.3968 8.3968h91.93472c0.02048-0.57344 0.08192-1.1264 0.08192-1.69984v-15.09376zM697.30304 158.63808a8.3968 8.3968 0 0 0 8.3968-8.3968V125.31712h-16.77312v24.94464c-0.02048 4.62848 3.74784 8.37632 8.37632 8.37632zM746.02496 206.49984a8.3968 8.3968 0 0 0 8.3968-8.3968V125.31712h-16.77312v72.78592c0 4.62848 3.74784 8.3968 8.37632 8.3968zM837.48864 419.51232a8.3968 8.3968 0 0 0 8.3968 8.3968h55.86944v-16.77312h-55.86944a8.364032 8.364032 0 0 0-8.3968 8.37632zM821.37088 538.5216a8.3968 8.3968 0 0 0 8.3968 8.3968h71.9872v-16.77312h-71.9872c-4.62848 0-8.3968 3.74784-8.3968 8.37632zM154.05056 456.84736a8.3968 8.3968 0 0 0-8.3968-8.3968H122.24512v16.77312h23.42912c4.62848 0.02048 8.37632-3.74784 8.37632-8.37632zM239.3088 507.6992a8.3968 8.3968 0 0 0-8.3968-8.3968H122.24512v16.7936h108.66688c4.62848 0 8.3968-3.76832 8.3968-8.3968zM300.56448 203.85792a8.3968 8.3968 0 0 0 8.3968-8.3968V125.31712h-16.77312v70.16448c0 4.62848 3.74784 8.37632 8.37632 8.37632z" fill="#A19295" p-id="4355"></path><path d="M796.99968 335.68768c0.08192-0.96256-0.55296-1.80224-1.39264-1.8432-13.25056-0.55296-110.61248-4.66944-221.2864-9.27744 26.86976-30.06464 35.59424-67.60448 8.00768-97.50528-47.67744-51.67104-115.46624 81.7152-115.46624 81.7152l4.87424 11.53024c-34.32448-1.41312-67.87072-2.80576-98.65216-4.05504-27.648-26.5216-146.61632-132.89472-206.5408-61.68576-20.0704 23.8592-22.75328 61.17376-3.9936 86.36416 10.38336 13.9264 28.09856 27.21792 57.71264 36.12672l-3.01056 41.63584c-0.06144 0.94208 0.55296 1.78176 1.39264 1.82272 8.78592 0.49152 55.02976 3.15392 121.11872 9.13408-118.53824 83.29216-50.8928 141.2096-50.8928 141.2096 74.15808 57.81504 134.53312-132.3008 134.53312-132.3008l-1.04448-0.63488c4.25984 0.47104 8.54016 0.94208 12.86144 1.4336 54.82496 141.86496 113.17248 47.26784 113.17248 47.26784 5.85728-11.69408 8.58112-22.1184 9.0112-31.4368 75.32544 11.12064 153.43616 25.3952 223.232 43.58144 1.98656 0.512 3.8912-1.06496 4.07552-3.3792l12.288-159.70304z" fill="#A9949D" p-id="4356"></path><path d="M390.57408 314.7776h67.80928s4.23936-177.84832-67.80928-156.20096c-72.02816 21.62688 0 156.20096 0 156.20096zM840.43776 582.63552c-64.12288-70.02112-191.40608 34.57024-220.9792 60.64128-32.93184 1.2288-68.8128 2.60096-105.55392 3.9936l5.20192-11.32544s-72.54016-131.13344-123.55584-80.34304c-29.53216 29.40928-20.19328 66.31424 8.58112 95.86688-118.41536 4.54656-222.59712 8.58112-236.76928 9.13408-0.90112 0.04096-1.57696 0.86016-1.49504 1.80224l13.1072 156.99968c0.18432 2.27328 2.23232 3.82976 4.36224 3.31776 74.67008-17.87904 158.26944-31.92832 238.85824-42.84416 0.47104 9.15456 3.3792 19.41504 9.64608 30.90432 0 0 62.42304 92.99968 121.09824-46.46912 4.62848-0.47104 9.216-0.94208 13.76256-1.41312l-1.10592 0.6144s64.6144 186.92096 143.95392 130.08896c0 0 72.37632-56.9344-54.45632-138.81344 70.71744-5.87776 120.19712-8.4992 129.59744-8.99072 0.90112-0.04096 1.55648-0.86016 1.49504-1.80224l-3.21536-40.93952c31.70304-8.76544 50.64704-21.83168 61.7472-35.5328 20.09088-24.73984 17.2032-61.41952-4.28032-84.8896z" fill="#A9949D" p-id="4357"></path><path d="M600.71936 641.8432s77.08672-132.32128 0-153.57952c-77.08672-21.25824-72.54016 153.57952-72.54016 153.57952h72.54016z" fill="#A9949D" p-id="4358"></path><path d="M222.24896 287.0272h0.02048c33.97632 0.67584 537.72288 19.41504 569.11872 20.5824 0.86016 0.04096 1.47456 0.77824 1.39264 1.61792l-12.24704 140.77952a3.33824 3.33824 0 0 1-4.07552 2.99008c-225.42336-51.77344-537.66144-67.7888-562.03264-68.97664a1.486848 1.486848 0 0 1-1.39264-1.61792l7.70048-94.0032c0.1024-0.75776 0.73728-1.37216 1.51552-1.37216m0-16.77312c-9.44128 0-17.42848 7.3728-18.18624 16.77312l-7.70048 94.0032c-0.4096 4.9152 1.2288 9.85088 4.46464 13.53728 3.23584 3.6864 7.90528 5.9392 12.82048 6.18496 33.85344 1.65888 337.08032 17.59232 559.08352 68.56704 1.47456 0.34816 2.99008 0.512 4.5056 0.512 10.50624 0 19.12832-7.90528 20.02944-18.39104l12.24704-140.77952c0.43008-4.95616-1.20832-9.95328-4.5056-13.68064a18.239488 18.239488 0 0 0-12.98432-6.144c-54.74304-2.02752-535.77728-19.92704-569.42592-20.5824H222.24896z" p-id="4359"></path><path d="M483.84 353.30048s99.57376 20.13184 60.37504 88.9856c0 0-19.06688 27.25888-45.62944 27.25888-20.2752 0-44.89216-15.85152-68.77184-71.76192l54.02624-44.48256m-4.5056-18.0224l-6.16448 5.07904-54.02624 44.50304-9.68704 7.9872 4.93568 11.55072c23.22432 54.3744 51.54816 81.94048 84.19328 81.94048 34.32448 0 56.91392-30.90432 59.37152-34.42688l0.45056-0.63488 0.38912-0.67584c15.85152-27.87328 12.10368-49.27488 6.18496-62.32064-17.36704-38.17472-71.68-50.15552-77.80352-51.4048l-7.84384-1.59744z" p-id="4360"></path><path d="M553.69728 202.97728c8.41728 0 16.6912 3.09248 24.41216 10.48576 47.67744 45.54752-12.94336 111.22688-88.576 128.18432L462.6432 285.4912c0.02048 0.02048 47.59552-82.49344 91.05408-82.51392m0.02048-16.77312c-51.67104 0-100.22912 81.6128-105.59488 90.91072l-4.42368 7.65952 3.80928 7.96672 26.89024 56.15616 5.77536 12.04224 13.02528-2.92864c57.1392-12.8 104.8576-49.90976 116.06016-90.23488 6.7584-24.33024-0.18432-47.9232-19.57888-66.43712-10.48576-10.0352-22.58944-15.13472-35.96288-15.13472zM369.43872 373.16608l49.78688 26.74688s-45.50656 126.27968-106.00448 126.27968c-9.19552 0-18.7392-2.90816-28.52864-9.64608-0.02048 0.02048-79.4624-59.94496 84.74624-143.38048m0.2048-18.92352l-7.82336 3.97312c-71.45472 36.31104-109.44512 74.46528-112.88576 113.43872-3.19488 36.08576 24.45312 57.40544 25.64096 58.28608l0.3072 0.22528 0.3072 0.2048c12.16512 8.35584 24.96512 12.5952 38.03136 12.5952 70.26688 0 116.71552-123.31008 121.79456-137.37984l4.89472-13.6192-12.73856-6.84032L377.36448 358.4l-7.72096-4.15744z" p-id="4361"></path><path d="M214.4256 216.43264c71.20896 0 160.29696 80.73216 160.29696 80.73216l-12.71808 56.15616c-20.0704 1.49504-38.2976 2.17088-54.8864 2.17088-89.33376 0-130.4576-19.968-148.7872-41.63584-18.78016-22.20032-16.09728-55.0912 3.9936-76.14464 14.60224-15.27808 32.68608-21.27872 52.10112-21.27872m0-16.77312c-25.84576 0-47.45216 8.9088-64.22528 26.48064-26.60352 27.87328-28.59008 70.22592-4.66944 98.54976 26.68544 31.58016 81.05984 47.59552 161.5872 47.59552 17.38752 0 36.27008-0.75776 56.13568-2.23232l12.36992-0.9216 2.74432-12.10368 12.71808-56.15616 2.17088-9.56416-7.24992-6.57408c-3.85024-3.4816-94.78144-85.07392-171.58144-85.07392z" p-id="4362"></path><path d="M683.17184 406.58944l-7.80288 26.29632c34.75456 6.00064 68.83328 12.6976 101.13024 20.11136 1.98656 0.45056 3.8912-0.94208 4.07552-2.99008l4.89472-56.34048c-17.18272 10.99776-40.36608 17.73568-65.90464 17.73568-12.9024 0.02048-25.16992-1.69984-36.39296-4.8128zM623.67744 346.70592c0-17.16224 9.91232-32.74752 26.05056-44.3392-161.32096-5.95968-404.23424-14.86848-427.45856-15.33952a1.51552 1.51552 0 0 0-1.51552 1.37216l-7.70048 94.0032c-0.06144 0.83968 0.55296 1.57696 1.39264 1.61792 18.67776 0.90112 206.66368 10.5472 394.93632 38.33856l6.18496-22.77376c1.20832-4.46464 5.8368-7.12704 10.28096-5.89824 4.46464 1.20832 7.10656 5.81632 5.89824 10.28096l-5.67296 20.91008c10.89536 1.67936 21.77024 3.39968 32.60416 5.20192l8.64256-29.10208c-26.25536-11.55072-43.64288-31.5392-43.64288-54.272z" fill="#6AA8E5" p-id="4363"></path><path d="M736.44032 350.02368a8.37632 8.37632 0 0 1-7.7824-8.94976c0.32768-4.62848 4.36224-8.0896 8.94976-7.7824l52.77696 3.66592 2.41664-27.70944a1.47456 1.47456 0 0 0-1.39264-1.61792c-9.9328-0.36864-67.09248-2.49856-141.66016-5.24288-16.13824 11.59168-26.05056 27.17696-26.05056 44.3392 0 22.7328 17.38752 42.72128 43.66336 54.272l6.57408-22.1184a8.36608 8.36608 0 0 1 10.42432-5.65248c4.44416 1.31072 6.9632 5.98016 5.65248 10.42432l-6.81984 22.95808c11.22304 3.11296 23.51104 4.83328 36.39296 4.83328 25.53856 0 48.72192-6.7584 65.90464-17.73568l3.4816-40.0384-52.5312-3.64544z" fill="#7CCBE9" p-id="4364"></path><path d="M625.8688 393.68704c-4.46464-1.2288-9.07264 1.4336-10.28096 5.89824l-6.18496 22.77376c5.57056 0.8192 11.14112 1.65888 16.6912 2.51904l5.67296-20.91008c1.20832-4.46464-1.4336-9.07264-5.89824-10.28096zM667.3408 400.97792L658.69824 430.08c5.57056 0.9216 11.12064 1.86368 16.65024 2.82624l7.80288-26.29632a118.90688 118.90688 0 0 1-15.81056-5.632z" fill="#3E80B2" p-id="4365"></path><path d="M689.9712 383.65184c1.31072-4.44416-1.20832-9.1136-5.65248-10.42432-4.44416-1.3312-9.1136 1.20832-10.42432 5.65248l-6.57408 22.1184c4.97664 2.19136 10.26048 4.07552 15.83104 5.61152l6.81984-22.95808zM728.65792 341.07392a8.390656 8.390656 0 0 0 7.7824 8.94976l52.49024 3.64544 1.45408-16.71168-52.77696-3.66592c-4.58752-0.28672-8.62208 3.15392-8.94976 7.7824z" fill="#3E80B2" p-id="4366"></path><path d="M174.85824 227.34848c24.18688-2.51904 54.62016 9.728 79.21664 34.32448 29.71648 29.71648 41.3696 67.93216 30.72 93.34784 22.15936 0.9216 47.69792 0.49152 77.23008-1.72032l12.71808-56.15616c-0.02048 0.02048-128.14336-116.08064-199.8848-69.79584z" fill="#F2F3E5" p-id="4367"></path><path d="M254.07488 261.67296c-24.59648-24.59648-55.02976-36.84352-79.21664-34.32448-1.98656 1.26976-3.93216 2.6624-5.81632 4.1984l19.72224 12.30848a8.3968 8.3968 0 0 1 2.68288 11.55072 8.411136 8.411136 0 0 1-7.12704 3.95264c-1.51552 0-3.05152-0.4096-4.42368-1.26976l-22.65088-14.1312a60.309504 60.309504 0 0 0-8.68352 16.97792l27.60704 13.80352a8.384512 8.384512 0 0 1 3.74784 11.24352 8.3968 8.3968 0 0 1-7.51616 4.62848c-1.24928 0-2.53952-0.28672-3.74784-0.88064l-22.91712-11.44832c-0.12288 12.65664 3.91168 25.2928 12.61568 35.59424 16.71168 19.7632 52.44928 38.11328 126.44352 41.18528 10.62912-25.45664-1.024-63.67232-30.72-93.3888z" fill="#FDFDFB" p-id="4368"></path><path d="M157.22496 243.93728l22.65088 14.1312c1.37216 0.86016 2.90816 1.26976 4.42368 1.26976 2.80576 0 5.5296-1.39264 7.12704-3.95264a8.37632 8.37632 0 0 0-2.68288-11.55072l-19.72224-12.30848c-2.29376 1.86368-4.52608 3.91168-6.69696 6.18496-1.86368 1.96608-3.54304 4.07552-5.09952 6.22592zM168.63232 289.71008a8.419328 8.419328 0 0 0 11.264-3.74784c2.06848-4.13696 0.38912-9.17504-3.74784-11.24352l-27.60704-13.80352c-1.82272 5.65248-2.74432 11.48928-2.80576 17.34656l22.89664 11.44832z" fill="#D1D4B5" p-id="4369"></path><path d="M400.67072 151.59296c2.31424 8.02816 3.62496 16.73216 3.62496 25.86624 0 33.11616-16.6912 60.84608-39.26016 68.77184 9.3184 24.73984 21.34016 44.58496 21.34016 44.58496h67.80928s3.64544-135.168-53.51424-139.22304z" fill="#F2F3E5" p-id="4370"></path><path d="M404.29568 177.4592c0-9.13408-1.31072-17.83808-3.62496-25.86624-4.4032-0.3072-9.13408 0.12288-14.29504 1.49504-42.5984 11.264-34.816 57.344-21.34016 93.14304 22.56896-7.92576 39.26016-35.65568 39.26016-68.77184z" fill="#FDFDFB" p-id="4371"></path><path d="M364.68736 195.7888c-0.2048 0-0.4096 0-0.6144-0.02048l-14.848-1.06496a8.37632 8.37632 0 0 1-7.76192-8.97024c0.32768-4.62848 4.36224-8.06912 8.97024-7.76192l14.848 1.06496a8.37632 8.37632 0 0 1 7.76192 8.97024 8.382464 8.382464 0 0 1-8.35584 7.7824z" fill="#D1D4B5" p-id="4372"></path><path d="M551.1168 269.33248c-31.86688 15.40096-64.90112 13.18912-74.8544-4.73088-8.45824 11.9808-13.59872 20.91008-13.59872 20.91008l26.89024 56.15616c65.51552-14.68416 119.7056-65.92512 102.07232-108.97408-6.69696 13.55776-21.17632 27.27936-40.50944 36.63872z" fill="#F2F3E5" p-id="4373"></path><path d="M551.1168 269.33248c19.33312-9.35936 33.81248-23.08096 40.48896-36.6592-2.72384-6.656-7.10656-13.1072-13.47584-19.21024-20.95104-20.02944-45.79328-8.51968-67.072 10.67008l23.6544 23.22432a8.380416 8.380416 0 0 1 0.12288 11.85792c-1.6384 1.67936-3.80928 2.51904-5.98016 2.51904a8.37632 8.37632 0 0 1-5.87776-2.39616l-23.79776-23.36768c-8.9088 9.66656-16.77312 19.94752-22.89664 28.63104 9.9328 17.89952 42.96704 20.13184 74.83392 4.73088z" fill="#FDFDFB" p-id="4374"></path><path d="M499.15904 235.97056l23.79776 23.36768c1.6384 1.59744 3.74784 2.39616 5.87776 2.39616 2.17088 0 4.34176-0.83968 5.98016-2.51904a8.380416 8.380416 0 0 0-0.12288-11.85792l-23.6544-23.22432c-4.096 3.70688-8.0896 7.72096-11.8784 11.83744z" fill="#D1D4B5" p-id="4375"></path><path d="M398.0288 151.49056c59.92448 0 56.15616 139.32544 56.15616 139.32544h-67.80928s-72.02816-118.64064 0-137.70752c4.13696-1.10592 8.00768-1.61792 11.65312-1.61792m0-16.77312c-5.16096 0-10.50624 0.73728-15.95392 2.17088-19.21024 5.07904-32.95232 16.62976-39.69024 33.36192-18.944 47.0016 24.61696 120.99584 29.63456 129.26976l4.89472 8.06912h93.57312l0.43008-16.32256c0.28672-10.38336 1.67936-102.54336-34.7136-139.93984-10.5472-10.87488-23.7568-16.60928-38.17472-16.60928z" p-id="4376"></path><path d="M335.50336 483.65568a8.390656 8.390656 0 0 1 11.69408-1.96608l18.92352 13.47584c32.23552-37.39648 53.08416-95.25248 53.08416-95.25248l-49.78688-26.74688c-13.0048 6.61504-24.4736 13.06624-34.57024 19.3536 20.95104 15.93344 15.64672 59.16672-12.06272 96.99328-9.4208 12.88192-20.25472 23.38816-31.25248 31.17056 22.89664 11.81696 44.29824 3.44064 62.81216-13.33248l-16.85504-12.02176a8.349696 8.349696 0 0 1-1.98656-11.6736z" fill="#F2F3E5" p-id="4377"></path><path d="M322.80576 489.51296c27.70944-37.82656 33.01376-81.05984 12.06272-96.99328-117.53472 73.19552-50.176 124.04736-50.176 124.04736a62.6688 62.6688 0 0 0 6.8608 4.11648c10.99776-7.7824 21.8112-18.28864 31.25248-31.17056z" fill="#FDFDFB" p-id="4378"></path><path d="M366.12096 495.16544l-18.92352-13.47584a8.390656 8.390656 0 0 0-11.69408 1.96608c-2.68288 3.76832-1.80224 9.0112 1.96608 11.69408l16.85504 12.02176c4.096-3.70688 8.02816-7.82336 11.79648-12.20608z" fill="#D1D4B5" p-id="4379"></path><path d="M505.46688 359.97696c4.096 7.22944 6.4512 15.5648 6.4512 24.45312 0 22.09792-14.39744 40.79616-34.304 47.3088l-20.74624 13.47584c45.8752 56.36096 87.3472-2.92864 87.3472-2.92864 27.05408-47.49312-11.96032-71.80288-38.74816-82.30912z" fill="#F2F3E5" p-id="4380"></path><path d="M429.81376 397.80352c5.75488 13.47584 11.55072 24.576 17.32608 33.73056l23.38816-15.21664c3.8912-2.51904 9.07264-1.41312 11.59168 2.4576 2.51904 3.8912 1.41312 9.07264-2.4576 11.59168l-2.06848 1.3312c19.90656-6.51264 34.304-25.21088 34.304-47.3088 0-8.88832-2.3552-17.22368-6.4512-24.45312-12.04224-4.73088-21.62688-6.656-21.62688-6.656l-54.00576 44.52352z" fill="#FDFDFB" p-id="4381"></path><path d="M462.1312 434.21696c-5.12 0-10.05568-0.77824-14.70464-2.21184 3.15392 4.97664 6.30784 9.35936 9.44128 13.2096l20.74624-13.47584c-4.87424 1.59744-10.07616 2.47808-15.48288 2.47808zM447.13984 431.53408l-0.36864 0.24576c0.22528 0.08192 0.43008 0.16384 0.65536 0.22528-0.1024-0.14336-0.2048-0.3072-0.28672-0.47104z" fill="#D1D4B5" p-id="4382"></path><path d="M482.14016 418.79552a8.35584 8.35584 0 0 0-11.59168-2.4576l-23.38816 15.21664c0.1024 0.16384 0.2048 0.3072 0.28672 0.47104a49.813504 49.813504 0 0 0 30.18752-0.26624l2.06848-1.3312a8.45824 8.45824 0 0 0 2.43712-11.63264z" fill="#D1D4B5" p-id="4383"></path><path d="M428.1344 338.3296m-63.44704 0a63.44704 63.44704 0 1 0 126.89408 0 63.44704 63.44704 0 1 0-126.89408 0Z" fill="#7CCBE9" p-id="4384"></path><path d="M428.1344 410.15296c-39.60832 0-71.84384-32.23552-71.84384-71.84384s32.23552-71.84384 71.84384-71.84384 71.84384 32.23552 71.84384 71.84384-32.23552 71.84384-71.84384 71.84384z m0-126.89408c-30.37184 0-55.07072 24.69888-55.07072 55.07072s24.69888 55.07072 55.07072 55.07072 55.07072-24.69888 55.07072-55.07072-24.69888-55.07072-55.07072-55.07072z" p-id="4385"></path><path d="M414.37184 322.048m-19.02592 0a19.02592 19.02592 0 1 0 38.05184 0 19.02592 19.02592 0 1 0-38.05184 0Z" fill="#8DE3FA" p-id="4386"></path><path d="M754.66752 618.00448l7.70048 94.0032c0.06144 0.83968-0.55296 1.57696-1.39264 1.61792-24.3712 1.18784-336.60928 17.22368-562.03264 68.97664-1.98656 0.45056-3.8912-0.94208-4.07552-2.99008l-12.24704-140.77952a1.47456 1.47456 0 0 1 1.39264-1.61792c31.41632-1.16736 535.16288-19.90656 569.11872-20.5824 0.8192 0 1.47456 0.59392 1.536 1.37216z" fill="#D854C4" p-id="4387"></path><path d="M753.19296 616.63232c0.77824 0 1.41312 0.59392 1.47456 1.37216l7.70048 94.0032c0.06144 0.83968-0.55296 1.57696-1.39264 1.61792-24.3712 1.18784-336.60928 17.22368-562.03264 68.97664a3.33824 3.33824 0 0 1-4.07552-2.99008l-12.24704-140.77952a1.47456 1.47456 0 0 1 1.39264-1.61792c31.41632-1.16736 535.16288-19.90656 569.11872-20.5824h0.06144m0-16.77312h-0.38912c-33.60768 0.67584-514.64192 18.55488-569.38496 20.5824a18.315264 18.315264 0 0 0-12.98432 6.144 18.356224 18.356224 0 0 0-4.5056 13.68064L178.176 781.08672c0.9216 10.48576 9.5232 18.39104 20.02944 18.39104 1.51552 0 3.03104-0.16384 4.5056-0.512 222.02368-50.9952 525.25056-66.92864 559.08352-68.56704 4.9152-0.24576 9.58464-2.49856 12.82048-6.18496a18.384896 18.384896 0 0 0 4.46464-13.53728l-7.70048-94.0032c-0.75776-9.44128-8.74496-16.81408-18.18624-16.81408z" p-id="4388"></path><path d="M491.60192 682.9056l54.02624 44.50304c-23.87968 55.88992-48.51712 71.76192-68.77184 71.76192-26.56256 0-45.62944-27.25888-45.62944-27.25888-39.2192-68.87424 60.37504-89.00608 60.37504-89.00608m4.48512-18.0224l-7.82336 1.57696c-6.144 1.24928-60.43648 13.2096-77.80352 51.4048-5.9392 13.04576-9.68704 34.46784 6.18496 62.32064l0.38912 0.67584 0.45056 0.63488c2.4576 3.52256 25.06752 34.42688 59.37152 34.42688 32.64512 0 60.96896-27.56608 84.19328-81.94048l4.93568-11.55072-9.68704-7.9872-54.02624-44.50304-6.18496-5.05856zM577.41312 481.0752c3.64544 0 7.51616 0.512 11.65312 1.61792 72.02816 19.06688 0 137.70752 0 137.70752h-67.7888c-0.02048 0-3.7888-139.32544 56.13568-139.32544m0-16.77312c-14.41792 0-27.62752 5.75488-38.21568 16.60928-36.39296 37.39648-34.97984 129.55648-34.69312 139.93984l0.45056 16.32256h93.55264l4.89472-8.06912c5.03808-8.27392 48.57856-82.28864 29.63456-129.26976-6.73792-16.73216-20.48-28.28288-39.69024-33.36192-5.4272-1.4336-10.79296-2.17088-15.93344-2.17088z" p-id="4389"></path><path d="M421.72416 532.5824c43.45856 0 91.05408 82.51392 91.05408 82.51392l-26.89024 56.15616c-75.63264-16.95744-136.25344-82.6368-88.576-128.18432 7.74144-7.39328 15.99488-10.48576 24.41216-10.48576m0-16.77312c-13.39392 0-25.4976 5.09952-36.00384 15.13472-19.37408 18.51392-26.33728 42.10688-19.57888 66.43712 11.20256 40.32512 58.94144 77.43488 116.06016 90.23488l13.02528 2.92864 5.77536-12.04224 26.89024-56.15616 3.80928-7.96672-4.42368-7.65952c-5.3248-9.29792-53.88288-90.91072-105.55392-90.91072zM606.0032 702.7712c164.20864 83.41504 84.74624 143.40096 84.74624 143.40096-9.78944 6.73792-19.33312 9.64608-28.52864 9.64608-60.49792 0-106.00448-126.27968-106.00448-126.27968l49.78688-26.76736m-0.2048-18.92352l-7.72096 4.15744L548.27008 714.752l-12.73856 6.84032 4.89472 13.6192c5.05856 14.06976 51.52768 137.37984 121.79456 137.37984 13.06624 0 25.86624-4.23936 38.03136-12.5952l0.3072-0.2048 0.3072-0.22528c1.18784-0.88064 28.81536-22.20032 25.64096-58.28608-3.44064-38.97344-41.43104-77.12768-112.88576-113.43872l-7.82336-3.9936z" p-id="4390"></path><path d="M760.99584 546.01728c19.41504 0 37.49888 6.00064 52.10112 21.2992 20.0704 21.03296 22.75328 53.92384 3.9936 76.14464-18.30912 21.66784-59.43296 41.63584-148.7872 41.63584-16.5888 0-34.816-0.69632-54.8864-2.17088l-12.71808-56.15616s89.10848-80.73216 160.29696-80.75264m0.02048-16.77312c-76.8 0-167.7312 81.6128-171.56096 85.07392l-7.24992 6.57408 2.17088 9.56416 12.71808 56.15616 2.74432 12.10368 12.36992 0.9216c19.8656 1.47456 38.74816 2.23232 56.13568 2.23232 80.52736 0 134.90176-16.01536 161.5872-47.59552 23.94112-28.32384 21.93408-70.67648-4.66944-98.54976-16.7936-17.55136-38.4-26.48064-64.24576-26.48064z" p-id="4391"></path><path d="M160.01024 660.04992a113.07008 80.9984 0 1 0 226.14016 0 113.07008 80.9984 0 1 0-226.14016 0Z" fill="#EC95C8" p-id="4392"></path><path d="M294.35904 669.96224c-3.91168 0-7.41376-2.74432-8.21248-6.73792l-5.98016-29.73696c-0.9216-4.54656 2.02752-8.97024 6.57408-9.87136 4.52608-0.90112 8.97024 2.02752 9.87136 6.57408l5.98016 29.73696a8.36608 8.36608 0 0 1-8.23296 10.0352zM247.76704 692.26496a8.3968 8.3968 0 0 1-8.31488-7.39328l-6.61504-55.41888a8.384512 8.384512 0 0 1 7.33184-9.3184c4.62848-0.49152 8.76544 2.74432 9.3184 7.33184l6.61504 55.41888a8.384512 8.384512 0 0 1-8.33536 9.37984z" fill="#D854C4" p-id="4393"></path><path d="M704.8192 574.73024c14.49984-14.49984 31.66208-24.02304 48.78336-28.40576-69.81632 5.16096-152.90368 80.44544-152.90368 80.44544l12.71808 56.15616c27.83232 2.06848 52.14208 2.58048 73.40032 1.86368-22.8352-28.7744-15.54432-76.51328 18.00192-110.05952z" fill="#F2D39D" p-id="4394"></path><path d="M728.45312 653.57824c-1.06496-4.5056 1.7408-9.03168 6.2464-10.07616 4.52608-1.06496 9.03168 1.7408 10.07616 6.2464l6.47168 27.5456c6.5536-1.47456 12.57472-3.13344 18.1248-4.93568l-7.55712-22.40512c-1.47456-4.38272 0.88064-9.13408 5.26336-10.62912a8.3968 8.3968 0 0 1 10.62912 5.26336l7.33184 21.74976c14.86848-6.71744 25.088-14.68416 32.03072-22.89664 18.78016-22.20032 16.09728-55.0912-3.9936-76.14464-16.42496-17.2032-37.2736-22.6304-59.47392-20.992-17.14176 4.38272-34.28352 13.90592-48.78336 28.40576-33.54624 33.54624-40.83712 81.28512-18.00192 110.05952 18.1248-0.6144 34.01728-2.12992 47.94368-4.34176l-6.30784-26.84928z" fill="#FFF2D8" p-id="4395"></path><path d="M767.09888 639.32416c-4.38272 1.47456-6.7584 6.2464-5.26336 10.62912l7.55712 22.40512c5.71392-1.86368 10.93632-3.87072 15.6672-6.02112l-7.33184-21.74976a8.3968 8.3968 0 0 0-10.62912-5.26336zM734.69952 643.4816c-4.5056 1.06496-7.31136 5.57056-6.2464 10.07616l6.30784 26.86976c5.8368-0.9216 11.32544-1.98656 16.4864-3.15392l-6.47168-27.5456a8.364032 8.364032 0 0 0-10.07616-6.2464z" fill="#F2D39D" p-id="4396"></path><path d="M602.80832 488.61184c-1.31072 8.8064-4.07552 17.85856-8.33536 26.68544-15.19616 31.41632-44.48256 49.41824-69.09952 44.21632-4.89472 31.66208-4.11648 60.88704-4.11648 60.88704h67.7888c0.02048 0 61.58336-101.49888 13.76256-131.7888z" fill="#F2D39D" p-id="4397"></path><path d="M594.47296 515.29728c4.28032-8.82688 7.02464-17.87904 8.33536-26.68544-3.87072-2.4576-8.35584-4.48512-13.74208-5.91872-40.93952-10.83392-57.2416 35.1232-63.6928 76.84096 24.61696 5.18144 53.90336-12.82048 69.09952-44.2368z" fill="#FFEFD6" p-id="4398"></path><path d="M499.17952 594.20672c-9.97376 17.89952-42.98752 20.13184-74.8544 4.73088-19.33312-9.35936-33.81248-23.08096-40.48896-36.6592-17.63328 43.04896 36.5568 94.28992 102.07232 108.97408l26.89024-56.15616c-0.02048 0.02048-5.16096-8.9088-13.6192-20.8896z" fill="#F2D39D" p-id="4399"></path><path d="M424.32512 598.9376c31.86688 15.40096 64.90112 13.18912 74.8544-4.73088-22.05696-31.25248-66.62144-83.29216-101.04832-51.85536l24.71936 19.968a8.388608 8.388608 0 0 1-10.5472 13.04576l-24.90368-20.11136c-1.41312 2.31424-2.60096 4.66944-3.584 7.04512 6.69696 13.55776 21.17632 27.27936 40.50944 36.63872z" fill="#FDFDFB" p-id="4400"></path><path d="M387.39968 555.25376l24.90368 20.11136a8.3968 8.3968 0 0 0 11.79648-1.24928 8.388608 8.388608 0 0 0-1.24928-11.79648l-24.71936-19.968c-0.26624 0.24576-0.55296 0.47104-0.8192 0.73728-4.096 3.91168-7.35232 7.9872-9.91232 12.16512z" fill="#F2D39D" p-id="4401"></path><path d="M652.63616 819.11808c-27.70944-37.82656-33.01376-81.05984-12.06272-96.99328-10.09664-6.28736-21.56544-12.75904-34.57024-19.3536l-49.78688 26.74688s56.68864 157.36832 127.67232 120.77056c-10.99776-7.7824-21.8112-18.30912-31.25248-31.17056z" fill="#F2D39D" p-id="4402"></path><path d="M703.6928 782.06976l-26.89024 19.1488a8.388608 8.388608 0 0 1-11.69408-1.96608c-2.68288-3.76832-1.80224-9.0112 1.96608-11.69408l27.648-19.70176c-10.58816-13.88544-27.66848-29.24544-54.14912-45.73184-20.95104 15.93344-15.64672 59.16672 12.06272 96.99328 9.4208 12.88192 20.25472 23.38816 31.25248 31.17056a62.6688 62.6688 0 0 0 6.8608-4.11648s32.54272-24.55552 12.94336-64.1024z" fill="#FFF2D8" p-id="4403"></path><path d="M665.10848 799.25248a8.388608 8.388608 0 0 0 11.69408 1.96608l26.89024-19.1488c-2.2528-4.54656-5.20192-9.27744-8.97024-14.21312l-27.648 19.70176a8.390656 8.390656 0 0 0-1.96608 11.69408z" fill="#F2D39D" p-id="4404"></path><path d="M463.52384 714.0352c0-8.88832 2.3552-17.22368 6.4512-24.45312-26.78784 10.50624-65.80224 34.816-38.76864 82.3296 0 0 41.472 59.2896 87.3472 2.92864l-20.74624-13.47584c-19.88608-6.53312-34.28352-25.23136-34.28352-47.32928z" fill="#F2D39D" p-id="4405"></path><path d="M497.82784 761.344l-2.06848-1.3312a8.35584 8.35584 0 0 1-2.4576-11.59168 8.372224 8.372224 0 0 1 11.59168-2.4576l23.40864 15.21664c5.77536-9.15456 11.5712-20.2752 17.32608-33.75104l-54.02624-44.50304s-9.58464 1.9456-21.62688 6.656c-4.096 7.22944-6.4512 15.5648-6.4512 24.45312 0 22.09792 14.39744 40.79616 34.304 47.3088z" fill="#FDFDFB" p-id="4406"></path><path d="M513.31072 763.82208c-5.40672 0-10.60864-0.90112-15.48288-2.49856l20.74624 13.47584c3.13344-3.85024 6.28736-8.23296 9.44128-13.2096-4.64896 1.45408-9.58464 2.23232-14.70464 2.23232zM528.01536 761.61024c0.22528-0.06144 0.45056-0.16384 0.65536-0.22528l-0.36864-0.24576c-0.1024 0.16384-0.2048 0.32768-0.28672 0.47104z" fill="#F2D39D" p-id="4407"></path><path d="M493.30176 748.40064a8.38656 8.38656 0 0 0 2.4576 11.59168l2.06848 1.3312a49.637376 49.637376 0 0 0 30.18752 0.28672c0.1024-0.16384 0.2048-0.3072 0.28672-0.47104l-23.40864-15.21664a8.3968 8.3968 0 0 0-11.59168 2.47808z" fill="#F2D39D" p-id="4408"></path><path d="M547.30752 667.93472m-63.44704 0a63.44704 63.44704 0 1 0 126.89408 0 63.44704 63.44704 0 1 0-126.89408 0Z" fill="#F094C7" p-id="4409"></path><path d="M547.30752 739.75808c-39.60832 0-71.84384-32.23552-71.84384-71.84384s32.23552-71.84384 71.84384-71.84384c39.60832 0 71.84384 32.23552 71.84384 71.84384s-32.23552 71.84384-71.84384 71.84384z m0-126.89408c-30.37184 0-55.07072 24.69888-55.07072 55.07072s24.69888 55.07072 55.07072 55.07072 55.07072-24.69888 55.07072-55.07072-24.71936-55.07072-55.07072-55.07072z" p-id="4410"></path><path d="M531.82464 648.88832m-19.02592 0a19.02592 19.02592 0 1 0 38.05184 0 19.02592 19.02592 0 1 0-38.05184 0Z" fill="#FDB1DF" p-id="4411"></path><path d="M330.752 889.26208a8.3968 8.3968 0 0 1-8.3968-8.3968V835.7888a8.3968 8.3968 0 1 1 16.7936 0v45.07648a8.3968 8.3968 0 0 1-8.3968 8.3968zM547.30752 889.26208a8.3968 8.3968 0 0 1-8.3968-8.3968v-25.06752a8.3968 8.3968 0 1 1 16.7936 0v25.06752a8.409088 8.409088 0 0 1-8.3968 8.3968zM575.32416 889.26208a8.3968 8.3968 0 0 1-8.3968-8.3968V831.0784a8.3968 8.3968 0 1 1 16.7936 0v49.80736a8.37632 8.37632 0 0 1-8.3968 8.37632zM875.04896 787.68128h-51.69152a8.3968 8.3968 0 1 1 0-16.7936h51.69152a8.3968 8.3968 0 0 1 8.3968 8.3968c0 4.64896-3.74784 8.3968-8.3968 8.3968zM182.64064 567.15264H141.12768a8.3968 8.3968 0 1 1 0-16.7936h41.49248a8.3968 8.3968 0 0 1 8.3968 8.3968c0 4.64896-3.74784 8.3968-8.37632 8.3968zM237.52704 187.41248a8.3968 8.3968 0 0 1-8.3968-8.3968V150.24128c0-4.62848 3.74784-8.3968 8.3968-8.3968s8.3968 3.74784 8.3968 8.3968v28.7744c0 4.64896-3.74784 8.3968-8.3968 8.3968zM876.8512 247.54176h-37.33504c-4.62848 0-8.3968-3.74784-8.3968-8.3968s3.74784-8.3968 8.3968-8.3968h37.33504c4.62848 0 8.3968 3.74784 8.3968 8.3968s-3.74784 8.3968-8.3968 8.3968zM884.79744 303.14496h-59.5968a8.3968 8.3968 0 1 1 0-16.7936h59.5968a8.3968 8.3968 0 0 1 8.3968 8.3968c0 4.64896-3.74784 8.3968-8.3968 8.3968zM875.04896 498.11456h-35.5328a8.3968 8.3968 0 1 1 0-16.7936h35.5328a8.3968 8.3968 0 0 1 8.3968 8.3968c0 4.64896-3.74784 8.3968-8.3968 8.3968z" fill="#E9D4D9" p-id="4412"></path></svg>