<?xml version="1.0" encoding="utf-8"?>
<svg version="1.1" xmlns:xlink="http://www.w3.org/1999/xlink" width="300px" height="116px" xmlns="http://www.w3.org/2000/svg">
  <defs>
    <linearGradient gradientUnits="userSpaceOnUse" x1="0" y1="58" x2="300" y2="58" id="LinearGradient18282">
      <stop id="Stop18283" stop-color="#333333" offset="0" />
      <stop id="Stop18284" stop-color="#000000" offset="1" />
    </linearGradient>
    <pattern id="BGPattern" patternUnits="userSpaceOnUse" alignment="0 0" imageRepeat="None" />
    <mask fill="white" id="Clip18285">
      <path d="M 0 106  L 0 10  C 0 4.4  4.3999999999999995 0  10 0  L 290 0  C 295.59999999999997 0  300 4.4  300 10  L 300 106  C 300 111.60000000000001  295.59999999999997 116  290 116  L 10 116  C 4.3999999999999995 116  0 111.60000000000001  0 106  Z " fill-rule="evenodd" />
    </mask>
  </defs>
  <g transform="matrix(1 0 0 1 -29 -350 )">
    <path d="M 0 106  L 0 10  C 0 4.4  4.3999999999999995 0  10 0  L 290 0  C 295.59999999999997 0  300 4.4  300 10  L 300 106  C 300 111.60000000000001  295.59999999999997 116  290 116  L 10 116  C 4.3999999999999995 116  0 111.60000000000001  0 106  Z " fill-rule="nonzero" fill="url(#LinearGradient18282)" stroke="none" transform="matrix(1 0 0 1 29 350 )" class="fill" />
    <path d="M 0 106  L 0 10  C 0 4.4  4.3999999999999995 0  10 0  L 290 0  C 295.59999999999997 0  300 4.4  300 10  L 300 106  C 300 111.60000000000001  295.59999999999997 116  290 116  L 10 116  C 4.3999999999999995 116  0 111.60000000000001  0 106  Z " stroke-width="0" stroke-dasharray="0" stroke="rgba(121, 121, 121, 1)" fill="none" transform="matrix(1 0 0 1 29 350 )" class="stroke" mask="url(#Clip18285)" />
  </g>
</svg>