<?xml version="1.0" encoding="utf-8"?>
<svg version="1.1" xmlns:xlink="http://www.w3.org/1999/xlink" width="300px" height="250px" xmlns="http://www.w3.org/2000/svg">
  <defs>
    <linearGradient gradientUnits="userSpaceOnUse" x1="150" y1="0" x2="150" y2="250" id="LinearGradient276">
      <stop id="Stop277" stop-color="#000000" offset="0" />
      <stop id="Stop278" stop-color="#333333" stop-opacity="0" offset="1" />
    </linearGradient>
    <pattern id="BGPattern" patternUnits="userSpaceOnUse" alignment="0 0" imageRepeat="None" />
    <mask fill="white" id="Clip279">
      <path d="M 0 245  L 0 5  C 0 2.1999999999999997  2.1999999999999997 0  5 0  L 295 0  C 297.8 0  300 2.1999999999999997  300 5  L 300 245  C 300 247.79999999999998  297.8 250  295 250  L 5 250  C 2.1999999999999997 250  0 247.79999999999998  0 245  Z " fill-rule="evenodd" />
    </mask>
  </defs>
  <g transform="matrix(1 0 0 1 -30 -271 )">
    <path d="M 0 245  L 0 5  C 0 2.1999999999999997  2.1999999999999997 0  5 0  L 295 0  C 297.8 0  300 2.1999999999999997  300 5  L 300 245  C 300 247.79999999999998  297.8 250  295 250  L 5 250  C 2.1999999999999997 250  0 247.79999999999998  0 245  Z " fill-rule="nonzero" fill="url(#LinearGradient276)" stroke="none" transform="matrix(1 0 0 1 30 271 )" class="fill" />
    <path d="M 0 245  L 0 5  C 0 2.1999999999999997  2.1999999999999997 0  5 0  L 295 0  C 297.8 0  300 2.1999999999999997  300 5  L 300 245  C 300 247.79999999999998  297.8 250  295 250  L 5 250  C 2.1999999999999997 250  0 247.79999999999998  0 245  Z " stroke-width="0" stroke-dasharray="0" stroke="rgba(121, 121, 121, 1)" fill="none" transform="matrix(1 0 0 1 30 271 )" class="stroke" mask="url(#Clip279)" />
  </g>
</svg>