<?xml version="1.0" encoding="utf-8"?>
<svg version="1.1" xmlns:xlink="http://www.w3.org/1999/xlink" width="25px" height="25px" xmlns="http://www.w3.org/2000/svg">
  <defs>
    <pattern id="BGPattern" patternUnits="userSpaceOnUse" alignment="0 0" imageRepeat="None" />
    <mask fill="white" id="Clip4239">
      <path d="M 7.17578125 1.8974609375  C 3.083984375 3.8457031250000004  0.2568359375000018 8.0107421875  0.2568359375 12.839843749999998  C 0.2568359375 19.524414062500004  5.676757812500002 24.94921875  12.3662109375 24.94921875  C 19.0556640625 24.94921875  24.4755859375 19.529296874999996  24.4755859375 12.839843749999996  C 24.4755859375 6.150390624999998  19.0556640625 0.7304687499999982  12.3662109375 0.7304687499999982  L 12.341796875 0.7304687499999982  C 12.302734375 1.3749999999999964  12.2099609375 2.0097656249999964  12.0244140625 2.5957031249999964  C 16.9072265625 2.8691406249999964  20.7841796875 6.916992187499997  20.7841796875 11.8681640625  C 20.7841796875 17  16.6240234375 21.160156250000004  11.4921875 21.160156250000004  C 6.360351562499998 21.160156250000004  2.2001953125 17.0048828125  2.2001953125 11.873046875  C 2.2001953125 7.971679687500003  4.602539062500002 4.63671875  8.005859375 3.2597656250000004  C 7.751953125000003 2.751953125  7.4931640625 2.2490234375  7.17578125 1.8974609375  Z " fill-rule="evenodd" />
    </mask>
  </defs>
  <g transform="matrix(1 0 0 1 -204 -248 )">
    <path d="M 7.17578125 1.8974609375  C 3.083984375 3.8457031250000004  0.2568359375000018 8.0107421875  0.2568359375 12.839843749999998  C 0.2568359375 19.524414062500004  5.676757812500002 24.94921875  12.3662109375 24.94921875  C 19.0556640625 24.94921875  24.4755859375 19.529296874999996  24.4755859375 12.839843749999996  C 24.4755859375 6.150390624999998  19.0556640625 0.7304687499999982  12.3662109375 0.7304687499999982  L 12.341796875 0.7304687499999982  C 12.302734375 1.3749999999999964  12.2099609375 2.0097656249999964  12.0244140625 2.5957031249999964  C 16.9072265625 2.8691406249999964  20.7841796875 6.916992187499997  20.7841796875 11.8681640625  C 20.7841796875 17  16.6240234375 21.160156250000004  11.4921875 21.160156250000004  C 6.360351562499998 21.160156250000004  2.2001953125 17.0048828125  2.2001953125 11.873046875  C 2.2001953125 7.971679687500003  4.602539062500002 4.63671875  8.005859375 3.2597656250000004  C 7.751953125000003 2.751953125  7.4931640625 2.2490234375  7.17578125 1.8974609375  Z " fill-rule="nonzero" fill="rgba(255, 126, 122, 1)" stroke="none" transform="matrix(1 0 0 1 204 248 )" class="fill" />
    <path d="M 7.17578125 1.8974609375  C 3.083984375 3.8457031250000004  0.2568359375000018 8.0107421875  0.2568359375 12.839843749999998  C 0.2568359375 19.524414062500004  5.676757812500002 24.94921875  12.3662109375 24.94921875  C 19.0556640625 24.94921875  24.4755859375 19.529296874999996  24.4755859375 12.839843749999996  C 24.4755859375 6.150390624999998  19.0556640625 0.7304687499999982  12.3662109375 0.7304687499999982  L 12.341796875 0.7304687499999982  C 12.302734375 1.3749999999999964  12.2099609375 2.0097656249999964  12.0244140625 2.5957031249999964  C 16.9072265625 2.8691406249999964  20.7841796875 6.916992187499997  20.7841796875 11.8681640625  C 20.7841796875 17  16.6240234375 21.160156250000004  11.4921875 21.160156250000004  C 6.360351562499998 21.160156250000004  2.2001953125 17.0048828125  2.2001953125 11.873046875  C 2.2001953125 7.971679687500003  4.602539062500002 4.63671875  8.005859375 3.2597656250000004  C 7.751953125000003 2.751953125  7.4931640625 2.2490234375  7.17578125 1.8974609375  Z " stroke-width="0" stroke-dasharray="0" stroke="rgba(255, 255, 255, 0)" fill="none" transform="matrix(1 0 0 1 204 248 )" class="stroke" mask="url(#Clip4239)" />
  </g>
</svg>