<?xml version="1.0" encoding="utf-8"?>
<svg version="1.1" xmlns:xlink="http://www.w3.org/1999/xlink" width="8px" height="11px" xmlns="http://www.w3.org/2000/svg">
  <defs>
    <pattern id="BGPattern" patternUnits="userSpaceOnUse" alignment="0 0" imageRepeat="None" />
    <mask fill="white" id="Clip12892">
      <path d="M 3.5517578124999982 6.9062500000000036  C 3.3955078124999982 7.2138671875000036  3.0878906249999982 7.3896484375  2.765625 7.3896484375  C 2.6337890625 7.3896484375  2.4970703125 7.360351562499999  2.3701171875 7.2968750000000036  C 1.935546875 7.077148437500003  1.7646484375 6.5498046875  1.984375 6.1152343750000036  C 3.6396484375 2.8535156250000018  5.6806640625 0.8320312500000036  5.763671874999998 0.7490234375000018  C 6.1103515625 0.4072265625000018  6.666992187499998 0.4169921875  7.008789062499998 0.7636718750000017  C 7.350585937499998 1.1103515625000036  7.3408203125 1.6669921875000018  6.994140624999998 2.00390625  C 6.959960937499998 2.0380859375  5.060546874999998 3.927734375  3.5517578124999982 6.9062500000000036  Z M 2.296875 10.0263671875  C 2.169921875 10.387695312499996  1.828125 10.6171875  1.466796875 10.6171875  C 1.3740234375 10.6171875  1.2763671875 10.6025390625  1.1787109375 10.568359375  C 0.7197265625 10.412109375  0.4755859375 9.9091796875  0.63671875 9.4501953125  L 0.8173828125 8.9326171875  C 0.9736328124999991 8.4736328125  1.4765625 8.2294921875  1.935546875 8.390625  C 2.39453125 8.546874999999996  2.638671875 9.0498046875  2.4775390625 9.508789062499996  L 2.296875 10.0263671875  Z " fill-rule="evenodd" />
    </mask>
  </defs>
  <g transform="matrix(1 0 0 1 -203 -252 )">
    <path d="M 3.5517578124999982 6.9062500000000036  C 3.3955078124999982 7.2138671875000036  3.0878906249999982 7.3896484375  2.765625 7.3896484375  C 2.6337890625 7.3896484375  2.4970703125 7.360351562499999  2.3701171875 7.2968750000000036  C 1.935546875 7.077148437500003  1.7646484375 6.5498046875  1.984375 6.1152343750000036  C 3.6396484375 2.8535156250000018  5.6806640625 0.8320312500000036  5.763671874999998 0.7490234375000018  C 6.1103515625 0.4072265625000018  6.666992187499998 0.4169921875  7.008789062499998 0.7636718750000017  C 7.350585937499998 1.1103515625000036  7.3408203125 1.6669921875000018  6.994140624999998 2.00390625  C 6.959960937499998 2.0380859375  5.060546874999998 3.927734375  3.5517578124999982 6.9062500000000036  Z M 2.296875 10.0263671875  C 2.169921875 10.387695312499996  1.828125 10.6171875  1.466796875 10.6171875  C 1.3740234375 10.6171875  1.2763671875 10.6025390625  1.1787109375 10.568359375  C 0.7197265625 10.412109375  0.4755859375 9.9091796875  0.63671875 9.4501953125  L 0.8173828125 8.9326171875  C 0.9736328124999991 8.4736328125  1.4765625 8.2294921875  1.935546875 8.390625  C 2.39453125 8.546874999999996  2.638671875 9.0498046875  2.4775390625 9.508789062499996  L 2.296875 10.0263671875  Z " fill-rule="nonzero" fill="rgba(255, 255, 255, 1)" stroke="none" transform="matrix(1 0 0 1 203 252 )" class="fill" />
    <path d="M 3.5517578124999982 6.9062500000000036  C 3.3955078124999982 7.2138671875000036  3.0878906249999982 7.3896484375  2.765625 7.3896484375  C 2.6337890625 7.3896484375  2.4970703125 7.360351562499999  2.3701171875 7.2968750000000036  C 1.935546875 7.077148437500003  1.7646484375 6.5498046875  1.984375 6.1152343750000036  C 3.6396484375 2.8535156250000018  5.6806640625 0.8320312500000036  5.763671874999998 0.7490234375000018  C 6.1103515625 0.4072265625000018  6.666992187499998 0.4169921875  7.008789062499998 0.7636718750000017  C 7.350585937499998 1.1103515625000036  7.3408203125 1.6669921875000018  6.994140624999998 2.00390625  C 6.959960937499998 2.0380859375  5.060546874999998 3.927734375  3.5517578124999982 6.9062500000000036  Z " stroke-width="0" stroke-dasharray="0" stroke="rgba(255, 255, 255, 0)" fill="none" transform="matrix(1 0 0 1 203 252 )" class="stroke" mask="url(#Clip12892)" />
    <path d="M 2.296875 10.0263671875  C 2.169921875 10.387695312499996  1.828125 10.6171875  1.466796875 10.6171875  C 1.3740234375 10.6171875  1.2763671875 10.6025390625  1.1787109375 10.568359375  C 0.7197265625 10.412109375  0.4755859375 9.9091796875  0.63671875 9.4501953125  L 0.8173828125 8.9326171875  C 0.9736328124999991 8.4736328125  1.4765625 8.2294921875  1.935546875 8.390625  C 2.39453125 8.546874999999996  2.638671875 9.0498046875  2.4775390625 9.508789062499996  L 2.296875 10.0263671875  Z " stroke-width="0" stroke-dasharray="0" stroke="rgba(255, 255, 255, 0)" fill="none" transform="matrix(1 0 0 1 203 252 )" class="stroke" mask="url(#Clip12892)" />
  </g>
</svg>