<?xml version="1.0" encoding="utf-8"?>
<svg version="1.1" xmlns:xlink="http://www.w3.org/1999/xlink" width="31px" height="31px" xmlns="http://www.w3.org/2000/svg">
  <defs>
    <pattern id="BGPattern" patternUnits="userSpaceOnUse" alignment="0 0" imageRepeat="None" />
    <mask fill="white" id="Clip5665">
      <path d="M 0.31835937500000266 15.811523437499995  C 0.31347656250000355 24.048828124999993  6.998046875000002 30.7333984375  15.240234375 30.7333984375  C 23.482421874999996 30.7333984375  30.162109375 24.0537109375  30.162109375 15.811523437499995  C 30.162109375 7.569335937499993  23.482421874999996 0.884765625  15.240234375 0.884765625  C 14.9326171875 0.884765625  14.6298828125 0.8945312499999991  14.3271484375 0.9140625  C 14.361328125 1.5146484375  14.3759765625 2.1298828125  14.341796875 2.7353515624999982  L 14.3662109375 2.7353515624999982  C 21.05078125 2.7353515624999982  26.4755859375 8.155273437499998  26.4755859375 14.8447265625  C 26.4755859375 21.5341796875  21.0556640625 26.9541015625  14.3662109375 26.9541015625  C 7.676757812500002 26.9541015625  2.2568359375000018 21.5341796875  2.2568359375000018 14.8447265625  C 2.2568359375000018 10.015625  5.083984375000002 5.845703124999998  9.17578125 3.90234375  C 8.7705078125 3.4580078125  8.2724609375 3.2578125  7.569335937500002 3.6142578124999982  C 5.547851562500002 4.634765625  3.3750000000000018 6.9150390625  1.8466796875000018 9.615234374999998  C 1.5878906250000018 10.074218749999996  1.3388671875000018 10.533203125  1.1093750000000027 11.006835937499996  C 0.5966796875000027 12.515624999999996  0.31835937500000266 14.131835937499996  0.31835937500000266 15.811523437499995  Z " fill-rule="evenodd" />
    </mask>
  </defs>
  <g transform="matrix(1 0 0 1 -202 -246 )">
    <path d="M 0.31835937500000266 15.811523437499995  C 0.31347656250000355 24.048828124999993  6.998046875000002 30.7333984375  15.240234375 30.7333984375  C 23.482421874999996 30.7333984375  30.162109375 24.0537109375  30.162109375 15.811523437499995  C 30.162109375 7.569335937499993  23.482421874999996 0.884765625  15.240234375 0.884765625  C 14.9326171875 0.884765625  14.6298828125 0.8945312499999991  14.3271484375 0.9140625  C 14.361328125 1.5146484375  14.3759765625 2.1298828125  14.341796875 2.7353515624999982  L 14.3662109375 2.7353515624999982  C 21.05078125 2.7353515624999982  26.4755859375 8.155273437499998  26.4755859375 14.8447265625  C 26.4755859375 21.5341796875  21.0556640625 26.9541015625  14.3662109375 26.9541015625  C 7.676757812500002 26.9541015625  2.2568359375000018 21.5341796875  2.2568359375000018 14.8447265625  C 2.2568359375000018 10.015625  5.083984375000002 5.845703124999998  9.17578125 3.90234375  C 8.7705078125 3.4580078125  8.2724609375 3.2578125  7.569335937500002 3.6142578124999982  C 5.547851562500002 4.634765625  3.3750000000000018 6.9150390625  1.8466796875000018 9.615234374999998  C 1.5878906250000018 10.074218749999996  1.3388671875000018 10.533203125  1.1093750000000027 11.006835937499996  C 0.5966796875000027 12.515624999999996  0.31835937500000266 14.131835937499996  0.31835937500000266 15.811523437499995  Z " fill-rule="nonzero" fill="rgba(255, 115, 119, 1)" stroke="none" transform="matrix(1 0 0 1 202 246 )" class="fill" />
    <path d="M 0.31835937500000266 15.811523437499995  C 0.31347656250000355 24.048828124999993  6.998046875000002 30.7333984375  15.240234375 30.7333984375  C 23.482421874999996 30.7333984375  30.162109375 24.0537109375  30.162109375 15.811523437499995  C 30.162109375 7.569335937499993  23.482421874999996 0.884765625  15.240234375 0.884765625  C 14.9326171875 0.884765625  14.6298828125 0.8945312499999991  14.3271484375 0.9140625  C 14.361328125 1.5146484375  14.3759765625 2.1298828125  14.341796875 2.7353515624999982  L 14.3662109375 2.7353515624999982  C 21.05078125 2.7353515624999982  26.4755859375 8.155273437499998  26.4755859375 14.8447265625  C 26.4755859375 21.5341796875  21.0556640625 26.9541015625  14.3662109375 26.9541015625  C 7.676757812500002 26.9541015625  2.2568359375000018 21.5341796875  2.2568359375000018 14.8447265625  C 2.2568359375000018 10.015625  5.083984375000002 5.845703124999998  9.17578125 3.90234375  C 8.7705078125 3.4580078125  8.2724609375 3.2578125  7.569335937500002 3.6142578124999982  C 5.547851562500002 4.634765625  3.3750000000000018 6.9150390625  1.8466796875000018 9.615234374999998  C 1.5878906250000018 10.074218749999996  1.3388671875000018 10.533203125  1.1093750000000027 11.006835937499996  C 0.5966796875000027 12.515624999999996  0.31835937500000266 14.131835937499996  0.31835937500000266 15.811523437499995  Z " stroke-width="0" stroke-dasharray="0" stroke="rgba(255, 255, 255, 0)" fill="none" transform="matrix(1 0 0 1 202 246 )" class="stroke" mask="url(#Clip5665)" />
  </g>
</svg>