<?xml version="1.0" encoding="utf-8"?>
<svg version="1.1" xmlns:xlink="http://www.w3.org/1999/xlink" width="40px" height="46px" xmlns="http://www.w3.org/2000/svg">
  <defs>
    <pattern id="BGPattern" patternUnits="userSpaceOnUse" alignment="0 0" imageRepeat="None" />
    <mask fill="white" id="Clip7901">
      <path d="M 17.1328125 1.856445312499996  C 17.142578125 1.8466796874999956  17.162109375 1.8466796874999956  17.19140625 1.8466796875  C 17.2646484375 1.8466796875  17.3525390625 1.8564453125000002  17.455078125 1.880859375  C 19.115234375 2.26171875  20.580078125 3.0820312499999996  21.927734375 4.390625  C 23.1044921875 5.533203125000001  23.978515625 6.841796875000001  24.676757812499996 7.891601562500002  C 25.404296874999996 8.980468750000002  25.931640625 9.771484375000002  26.5908203125 10.083984375000002  C 26.9765625 10.269531250000002  27.357421875000007 10.3623046875  27.723632812500007 10.3623046875  C 28.880859375000007 10.3623046875  29.5595703125 9.502929687500002  30.101562500000007 8.8095703125  C 30.516601562500007 8.2822265625  30.809570312500007 7.935546875  31.083007812500007 7.935546875  C 31.327148437500007 7.935546875  32.07421875 8.1552734375  33.685546875 10.1767578125  C 38.99316406250001 16.841796875  38.99316406250001 22.0712890625  38.99316406250001 26.275390625  C 38.99316406250001 28.819335937500004  38.50000000000001 31.28515625  37.52832031250001 33.6044921875  C 36.5908203125 35.845703125  35.24316406250001 37.857421875  33.52929687500001 39.5859375  C 31.815429687500007 41.314453125  29.823242187500007 42.67187500000001  27.601562500000007 43.619140625  C 25.301757812500007 44.60058593750001  22.860351562500007 45.0986328125  20.345703125000007 45.0986328125  C 17.831054687500007 45.0986328125  15.384765625 44.595703125  13.08984375 43.619140625  C 10.8681640625 42.671875  8.8759765625 41.31445312499999  7.162109375 39.5859375  C 5.4482421875 37.857421875  4.100585937499998 35.84570312499999  3.163085937499999 33.6044921875  C 2.191406249999999 31.28515625  1.6982421874999991 28.819335937499996  1.6982421874999991 26.275390624999996  C 1.6982421874999991 23.965820312499996  1.9619140625 21.910156249999996  2.508789062499999 19.981445312499996  C 2.972656249999999 18.331054687499996  3.646484375 16.763671874999996  4.6181640625 15.049804687499996  C 6.05859375 12.505859374999996  8.1142578125 10.337890624999996  9.974609375 9.400390624999996  C 10.1259765625 9.322265624999998  10.213867187499998 9.312499999999996  10.252929687499998 9.312499999999996  C 10.345703124999998 9.312499999999996  10.462890625 9.405273437499996  10.604492187499998 9.585937499999996  C 10.833984374999998 9.874023437499996  11.053710937499998 10.318359374999996  11.2685546875 10.748046874999996  C 11.771484375 11.753906249999996  12.396484375 13.008789062499996  13.6611328125 13.008789062499996  C 14.1103515625 13.008789062499996  14.57421875 12.837890624999995  15.033203125 12.496093749999996  C 17.6064453125 10.601562499999996  17.318359375 7.0859374999999964  17.1083984375 4.522460937499996  C 17.0498046875 3.8046874999999956  16.99609375 3.1308593749999956  17.0107421875 2.6035156249999956  C 17.025390625 2.0908203124999956  17.103515625 1.905273437499996  17.1328125 1.856445312499996  Z M 17.650390625 1.0263671875000013  C 17.4794921875 0.9873046875000014  17.328125 0.9677734375000013  17.19140625 0.9677734374999958  C 14.388671875 0.9677734374999958  18.470703125 8.868164062499996  14.5107421875 11.783203124999995  C 14.18359375 12.022460937499995  13.905273437500004 12.124999999999995  13.65625 12.124999999999995  C 12.1767578125 12.124999999999995  11.8935546875 8.428710937499996  10.2431640625 8.428710937499996  C 10.038085937500004 8.428710937499996  9.818359375000004 8.482421874999995  9.569335937500002 8.609374999999995  C 7.547851562500002 9.629882812499995  5.375000000000002 11.910156249999993  3.8466796875000018 14.610351562499996  C 2.0498046875000027 17.779296874999996  0.8144531250000027 21.226562499999996  0.8144531250000027 26.2705078125  C 0.8144531250000027 37.1494140625  9.559570312500002 45.97265625  20.345703125 45.97265625  C 31.1318359375 45.97265625  39.876953125 37.154296875  39.876953125 26.2705078125  C 39.876953125 21.9931640625  39.876953125 16.5341796875  34.37890625 9.625000000000002  C 32.8359375 7.691406250000002  31.830078125 7.056640625000003  31.0830078125 7.056640625000003  C 29.6328125 7.056640625000003  29.18359375 9.483398437500002  27.723632812500007 9.483398437500002  C 27.4990234375 9.483398437500002  27.25 9.424804687500004  26.966796875000007 9.292968750000002  C 25.531250000000007 8.609375000000002  23.597656250000007 2.3886718750000018  17.650390625 1.0263671875000013  Z " fill-rule="evenodd" />
    </mask>
  </defs>
  <g transform="matrix(1 0 0 1 -200 -241 )">
    <path d="M 17.1328125 1.856445312499996  C 17.142578125 1.8466796874999956  17.162109375 1.8466796874999956  17.19140625 1.8466796875  C 17.2646484375 1.8466796875  17.3525390625 1.8564453125000002  17.455078125 1.880859375  C 19.115234375 2.26171875  20.580078125 3.0820312499999996  21.927734375 4.390625  C 23.1044921875 5.533203125000001  23.978515625 6.841796875000001  24.676757812499996 7.891601562500002  C 25.404296874999996 8.980468750000002  25.931640625 9.771484375000002  26.5908203125 10.083984375000002  C 26.9765625 10.269531250000002  27.357421875000007 10.3623046875  27.723632812500007 10.3623046875  C 28.880859375000007 10.3623046875  29.5595703125 9.502929687500002  30.101562500000007 8.8095703125  C 30.516601562500007 8.2822265625  30.809570312500007 7.935546875  31.083007812500007 7.935546875  C 31.327148437500007 7.935546875  32.07421875 8.1552734375  33.685546875 10.1767578125  C 38.99316406250001 16.841796875  38.99316406250001 22.0712890625  38.99316406250001 26.275390625  C 38.99316406250001 28.819335937500004  38.50000000000001 31.28515625  37.52832031250001 33.6044921875  C 36.5908203125 35.845703125  35.24316406250001 37.857421875  33.52929687500001 39.5859375  C 31.815429687500007 41.314453125  29.823242187500007 42.67187500000001  27.601562500000007 43.619140625  C 25.301757812500007 44.60058593750001  22.860351562500007 45.0986328125  20.345703125000007 45.0986328125  C 17.831054687500007 45.0986328125  15.384765625 44.595703125  13.08984375 43.619140625  C 10.8681640625 42.671875  8.8759765625 41.31445312499999  7.162109375 39.5859375  C 5.4482421875 37.857421875  4.100585937499998 35.84570312499999  3.163085937499999 33.6044921875  C 2.191406249999999 31.28515625  1.6982421874999991 28.819335937499996  1.6982421874999991 26.275390624999996  C 1.6982421874999991 23.965820312499996  1.9619140625 21.910156249999996  2.508789062499999 19.981445312499996  C 2.972656249999999 18.331054687499996  3.646484375 16.763671874999996  4.6181640625 15.049804687499996  C 6.05859375 12.505859374999996  8.1142578125 10.337890624999996  9.974609375 9.400390624999996  C 10.1259765625 9.322265624999998  10.213867187499998 9.312499999999996  10.252929687499998 9.312499999999996  C 10.345703124999998 9.312499999999996  10.462890625 9.405273437499996  10.604492187499998 9.585937499999996  C 10.833984374999998 9.874023437499996  11.053710937499998 10.318359374999996  11.2685546875 10.748046874999996  C 11.771484375 11.753906249999996  12.396484375 13.008789062499996  13.6611328125 13.008789062499996  C 14.1103515625 13.008789062499996  14.57421875 12.837890624999995  15.033203125 12.496093749999996  C 17.6064453125 10.601562499999996  17.318359375 7.0859374999999964  17.1083984375 4.522460937499996  C 17.0498046875 3.8046874999999956  16.99609375 3.1308593749999956  17.0107421875 2.6035156249999956  C 17.025390625 2.0908203124999956  17.103515625 1.905273437499996  17.1328125 1.856445312499996  Z M 17.650390625 1.0263671875000013  C 17.4794921875 0.9873046875000014  17.328125 0.9677734375000013  17.19140625 0.9677734374999958  C 14.388671875 0.9677734374999958  18.470703125 8.868164062499996  14.5107421875 11.783203124999995  C 14.18359375 12.022460937499995  13.905273437500004 12.124999999999995  13.65625 12.124999999999995  C 12.1767578125 12.124999999999995  11.8935546875 8.428710937499996  10.2431640625 8.428710937499996  C 10.038085937500004 8.428710937499996  9.818359375000004 8.482421874999995  9.569335937500002 8.609374999999995  C 7.547851562500002 9.629882812499995  5.375000000000002 11.910156249999993  3.8466796875000018 14.610351562499996  C 2.0498046875000027 17.779296874999996  0.8144531250000027 21.226562499999996  0.8144531250000027 26.2705078125  C 0.8144531250000027 37.1494140625  9.559570312500002 45.97265625  20.345703125 45.97265625  C 31.1318359375 45.97265625  39.876953125 37.154296875  39.876953125 26.2705078125  C 39.876953125 21.9931640625  39.876953125 16.5341796875  34.37890625 9.625000000000002  C 32.8359375 7.691406250000002  31.830078125 7.056640625000003  31.0830078125 7.056640625000003  C 29.6328125 7.056640625000003  29.18359375 9.483398437500002  27.723632812500007 9.483398437500002  C 27.4990234375 9.483398437500002  27.25 9.424804687500004  26.966796875000007 9.292968750000002  C 25.531250000000007 8.609375000000002  23.597656250000007 2.3886718750000018  17.650390625 1.0263671875000013  Z " fill-rule="nonzero" fill="rgba(239, 72, 104, 1)" stroke="none" transform="matrix(1 0 0 1 200 241 )" class="fill" />
    <path d="M 17.1328125 1.856445312499996  C 17.142578125 1.8466796874999956  17.162109375 1.8466796874999956  17.19140625 1.8466796875  C 17.2646484375 1.8466796875  17.3525390625 1.8564453125000002  17.455078125 1.880859375  C 19.115234375 2.26171875  20.580078125 3.0820312499999996  21.927734375 4.390625  C 23.1044921875 5.533203125000001  23.978515625 6.841796875000001  24.676757812499996 7.891601562500002  C 25.404296874999996 8.980468750000002  25.931640625 9.771484375000002  26.5908203125 10.083984375000002  C 26.9765625 10.269531250000002  27.357421875000007 10.3623046875  27.723632812500007 10.3623046875  C 28.880859375000007 10.3623046875  29.5595703125 9.502929687500002  30.101562500000007 8.8095703125  C 30.516601562500007 8.2822265625  30.809570312500007 7.935546875  31.083007812500007 7.935546875  C 31.327148437500007 7.935546875  32.07421875 8.1552734375  33.685546875 10.1767578125  C 38.99316406250001 16.841796875  38.99316406250001 22.0712890625  38.99316406250001 26.275390625  C 38.99316406250001 28.819335937500004  38.50000000000001 31.28515625  37.52832031250001 33.6044921875  C 36.5908203125 35.845703125  35.24316406250001 37.857421875  33.52929687500001 39.5859375  C 31.815429687500007 41.314453125  29.823242187500007 42.67187500000001  27.601562500000007 43.619140625  C 25.301757812500007 44.60058593750001  22.860351562500007 45.0986328125  20.345703125000007 45.0986328125  C 17.831054687500007 45.0986328125  15.384765625 44.595703125  13.08984375 43.619140625  C 10.8681640625 42.671875  8.8759765625 41.31445312499999  7.162109375 39.5859375  C 5.4482421875 37.857421875  4.100585937499998 35.84570312499999  3.163085937499999 33.6044921875  C 2.191406249999999 31.28515625  1.6982421874999991 28.819335937499996  1.6982421874999991 26.275390624999996  C 1.6982421874999991 23.965820312499996  1.9619140625 21.910156249999996  2.508789062499999 19.981445312499996  C 2.972656249999999 18.331054687499996  3.646484375 16.763671874999996  4.6181640625 15.049804687499996  C 6.05859375 12.505859374999996  8.1142578125 10.337890624999996  9.974609375 9.400390624999996  C 10.1259765625 9.322265624999998  10.213867187499998 9.312499999999996  10.252929687499998 9.312499999999996  C 10.345703124999998 9.312499999999996  10.462890625 9.405273437499996  10.604492187499998 9.585937499999996  C 10.833984374999998 9.874023437499996  11.053710937499998 10.318359374999996  11.2685546875 10.748046874999996  C 11.771484375 11.753906249999996  12.396484375 13.008789062499996  13.6611328125 13.008789062499996  C 14.1103515625 13.008789062499996  14.57421875 12.837890624999995  15.033203125 12.496093749999996  C 17.6064453125 10.601562499999996  17.318359375 7.0859374999999964  17.1083984375 4.522460937499996  C 17.0498046875 3.8046874999999956  16.99609375 3.1308593749999956  17.0107421875 2.6035156249999956  C 17.025390625 2.0908203124999956  17.103515625 1.905273437499996  17.1328125 1.856445312499996  Z " stroke-width="0" stroke-dasharray="0" stroke="rgba(255, 255, 255, 0)" fill="none" transform="matrix(1 0 0 1 200 241 )" class="stroke" mask="url(#Clip7901)" />
    <path d="M 17.650390625 1.0263671875000013  C 17.4794921875 0.9873046875000014  17.328125 0.9677734375000013  17.19140625 0.9677734374999958  C 14.388671875 0.9677734374999958  18.470703125 8.868164062499996  14.5107421875 11.783203124999995  C 14.18359375 12.022460937499995  13.905273437500004 12.124999999999995  13.65625 12.124999999999995  C 12.1767578125 12.124999999999995  11.8935546875 8.428710937499996  10.2431640625 8.428710937499996  C 10.038085937500004 8.428710937499996  9.818359375000004 8.482421874999995  9.569335937500002 8.609374999999995  C 7.547851562500002 9.629882812499995  5.375000000000002 11.910156249999993  3.8466796875000018 14.610351562499996  C 2.0498046875000027 17.779296874999996  0.8144531250000027 21.226562499999996  0.8144531250000027 26.2705078125  C 0.8144531250000027 37.1494140625  9.559570312500002 45.97265625  20.345703125 45.97265625  C 31.1318359375 45.97265625  39.876953125 37.154296875  39.876953125 26.2705078125  C 39.876953125 21.9931640625  39.876953125 16.5341796875  34.37890625 9.625000000000002  C 32.8359375 7.691406250000002  31.830078125 7.056640625000003  31.0830078125 7.056640625000003  C 29.6328125 7.056640625000003  29.18359375 9.483398437500002  27.723632812500007 9.483398437500002  C 27.4990234375 9.483398437500002  27.25 9.424804687500004  26.966796875000007 9.292968750000002  C 25.531250000000007 8.609375000000002  23.597656250000007 2.3886718750000018  17.650390625 1.0263671875000013  Z " stroke-width="0" stroke-dasharray="0" stroke="rgba(255, 255, 255, 0)" fill="none" transform="matrix(1 0 0 1 200 241 )" class="stroke" mask="url(#Clip7901)" />
  </g>
</svg>