<?xml version="1.0" encoding="utf-8"?>
<svg version="1.1" xmlns:xlink="http://www.w3.org/1999/xlink" width="36px" height="36px" xmlns="http://www.w3.org/2000/svg">
  <defs>
    <pattern id="BGPattern" patternUnits="userSpaceOnUse" alignment="0 0" imageRepeat="None" />
    <mask fill="white" id="Clip5971">
      <path d="M 0.8193359375 21.743164062500004  C 2.62109375 29.62890625  9.681640625 35.517578125  18.1142578125 35.517578125  C 27.914062499999996 35.517578125  35.853515625 27.573242187499993  35.853515625 17.778320312499996  C 35.853515625 12.309570312499996  33.3779296875 7.421874999999998  29.491210937500007 4.1650390624999964  C 28.836914062500007 4.9902343749999964  28.2119140625 5.8837890624999964  26.966796875000004 5.2929687499999964  C 26.1806640625 4.9218749999999964  25.248046875 2.8857421874999973  23.583007812500004 0.8984374999999964  C 21.859375000000007 0.34179687499999645  20.023437500000007 0.03906249999999645  18.114257812500004 0.03906249999999645  C 17.464843750000004 0.03906249999999645  16.825195312500007 0.07324218749999645  16.190429687500007 0.14160156249999645  C 16.234375000000004 0.6982421874999964  16.288085937500007 1.3037109374999973  16.322265625000004 1.9189453124999964  C 16.625000000000004 1.8994140624999964  16.927734375000004 1.8896484374999973  17.235351562500004 1.8896484374999973  C 25.477539062500004 1.8896484374999973  32.15722656250001 8.569335937499998  32.15722656250001 16.811523437499996  C 32.15722656250001 25.053710937499993  25.482421874999996 31.7333984375  17.240234375 31.7333984375  C 8.998046875000002 31.7333984375  2.313476562500001 25.048828125  2.313476562500001 16.806640625  C 2.313476562500001 15.126953125000004  2.591796875 13.5107421875  3.1044921875 12.001953125000004  C 1.7763671875 14.692382812500004  0.8876953125 17.695312500000004  0.8193359375 21.743164062500004  Z " fill-rule="evenodd" />
    </mask>
  </defs>
  <g transform="matrix(1 0 0 1 -200 -245 )">
    <path d="M 0.8193359375 21.743164062500004  C 2.62109375 29.62890625  9.681640625 35.517578125  18.1142578125 35.517578125  C 27.914062499999996 35.517578125  35.853515625 27.573242187499993  35.853515625 17.778320312499996  C 35.853515625 12.309570312499996  33.3779296875 7.421874999999998  29.491210937500007 4.1650390624999964  C 28.836914062500007 4.9902343749999964  28.2119140625 5.8837890624999964  26.966796875000004 5.2929687499999964  C 26.1806640625 4.9218749999999964  25.248046875 2.8857421874999973  23.583007812500004 0.8984374999999964  C 21.859375000000007 0.34179687499999645  20.023437500000007 0.03906249999999645  18.114257812500004 0.03906249999999645  C 17.464843750000004 0.03906249999999645  16.825195312500007 0.07324218749999645  16.190429687500007 0.14160156249999645  C 16.234375000000004 0.6982421874999964  16.288085937500007 1.3037109374999973  16.322265625000004 1.9189453124999964  C 16.625000000000004 1.8994140624999964  16.927734375000004 1.8896484374999973  17.235351562500004 1.8896484374999973  C 25.477539062500004 1.8896484374999973  32.15722656250001 8.569335937499998  32.15722656250001 16.811523437499996  C 32.15722656250001 25.053710937499993  25.482421874999996 31.7333984375  17.240234375 31.7333984375  C 8.998046875000002 31.7333984375  2.313476562500001 25.048828125  2.313476562500001 16.806640625  C 2.313476562500001 15.126953125000004  2.591796875 13.5107421875  3.1044921875 12.001953125000004  C 1.7763671875 14.692382812500004  0.8876953125 17.695312500000004  0.8193359375 21.743164062500004  Z " fill-rule="nonzero" fill="rgba(255, 105, 116, 1)" stroke="none" transform="matrix(1 0 0 1 200 245 )" class="fill" />
    <path d="M 0.8193359375 21.743164062500004  C 2.62109375 29.62890625  9.681640625 35.517578125  18.1142578125 35.517578125  C 27.914062499999996 35.517578125  35.853515625 27.573242187499993  35.853515625 17.778320312499996  C 35.853515625 12.309570312499996  33.3779296875 7.421874999999998  29.491210937500007 4.1650390624999964  C 28.836914062500007 4.9902343749999964  28.2119140625 5.8837890624999964  26.966796875000004 5.2929687499999964  C 26.1806640625 4.9218749999999964  25.248046875 2.8857421874999973  23.583007812500004 0.8984374999999964  C 21.859375000000007 0.34179687499999645  20.023437500000007 0.03906249999999645  18.114257812500004 0.03906249999999645  C 17.464843750000004 0.03906249999999645  16.825195312500007 0.07324218749999645  16.190429687500007 0.14160156249999645  C 16.234375000000004 0.6982421874999964  16.288085937500007 1.3037109374999973  16.322265625000004 1.9189453124999964  C 16.625000000000004 1.8994140624999964  16.927734375000004 1.8896484374999973  17.235351562500004 1.8896484374999973  C 25.477539062500004 1.8896484374999973  32.15722656250001 8.569335937499998  32.15722656250001 16.811523437499996  C 32.15722656250001 25.053710937499993  25.482421874999996 31.7333984375  17.240234375 31.7333984375  C 8.998046875000002 31.7333984375  2.313476562500001 25.048828125  2.313476562500001 16.806640625  C 2.313476562500001 15.126953125000004  2.591796875 13.5107421875  3.1044921875 12.001953125000004  C 1.7763671875 14.692382812500004  0.8876953125 17.695312500000004  0.8193359375 21.743164062500004  Z " stroke-width="0" stroke-dasharray="0" stroke="rgba(255, 255, 255, 0)" fill="none" transform="matrix(1 0 0 1 200 245 )" class="stroke" mask="url(#Clip5971)" />
  </g>
</svg>