<?xml version="1.0" encoding="utf-8"?>
<svg version="1.1" xmlns:xlink="http://www.w3.org/1999/xlink" width="340px" height="563px" xmlns="http://www.w3.org/2000/svg">
  <defs>
    <linearGradient gradientUnits="userSpaceOnUse" x1="165" y1="0" x2="165" y2="553" id="LinearGradient7203">
      <stop id="Stop7204" stop-color="#000000" stop-opacity="0.4980392156862745" offset="0" />
      <stop id="Stop7205" stop-color="#000000" offset="1" />
    </linearGradient>
    <pattern id="BGPattern" patternUnits="userSpaceOnUse" alignment="0 0" imageRepeat="None" />
    <mask fill="white" id="Clip7206">
      <path d="M 0 548  L 0 5  C 0 2.1999999999999997  2.1999999999999997 0  5 0  L 325 0  C 327.8 0  330 2.1999999999999997  330 5  L 330 548  C 330 550.8000000000001  327.8 553  325 553  L 5 553  C 2.1999999999999997 553  0 550.8000000000001  0 548  Z " fill-rule="evenodd" />
    </mask>
  </defs>
  <g transform="matrix(1 0 0 1 -10 -155 )">
    <path d="M 0 548  L 0 5  C 0 2.1999999999999997  2.1999999999999997 0  5 0  L 325 0  C 327.8 0  330 2.1999999999999997  330 5  L 330 548  C 330 550.8000000000001  327.8 553  325 553  L 5 553  C 2.1999999999999997 553  0 550.8000000000001  0 548  Z " fill-rule="nonzero" fill="url(#LinearGradient7203)" stroke="none" transform="matrix(1 0 0 1 15 160 )" class="fill" />
    <path d="M 0 548  L 0 5  C 0 2.1999999999999997  2.1999999999999997 0  5 0  L 325 0  C 327.8 0  330 2.1999999999999997  330 5  L 330 548  C 330 550.8000000000001  327.8 553  325 553  L 5 553  C 2.1999999999999997 553  0 550.8000000000001  0 548  Z " stroke-width="0" stroke-dasharray="0" stroke="rgba(121, 121, 121, 1)" fill="none" transform="matrix(1 0 0 1 15 160 )" class="stroke" mask="url(#Clip7206)" />
  </g>
  <style>svg { filter: drop-shadow(0px 0px 2.5px rgba(0, 0, 0, 0.34901960784313724)); }</style>
</svg>