<?xml version="1.0" encoding="utf-8"?>
<svg version="1.1" xmlns:xlink="http://www.w3.org/1999/xlink" width="37px" height="46px" xmlns="http://www.w3.org/2000/svg">
  <defs>
    <pattern id="BGPattern" patternUnits="userSpaceOnUse" alignment="0 0" imageRepeat="None" />
    <mask fill="white" id="Clip6557">
      <path d="M 15.9931640625 2.1884765625  C 16.5400390625 2.18359375  17.08203125 2.2031249999999996  17.619140625 2.2470703125  C 16.759765625 1.7148437499999998  15.7783203125 1.2802734375  14.650390625 1.0263671875  C 13.5517578125 0.77734375  13.2001953125 1.3583984375  13.13671875 2.3837890625  C 14.0693359375 2.2519531249999996  15.021484375 2.1884765625  15.9931640625 2.1884765625  Z M 36.876953125 26.2705078125  C 36.876953125 24.1708984375  36.876953125 21.7783203125  36.22265625 19.068359375  C 36.4375 20.259765625  36.54980468750001 21.4853515625  36.54980468750001 22.740234375  C 36.54980468750001 34.0927734375  27.34570312500001 43.296875  15.993164062500004 43.296875  C 9.821289062500007 43.296875  4.2841796875000036 40.5771484375  0.5195312500000053 36.2705078125  C 3.9130859375 42.0810546875  10.177734375 45.97265625  17.345703125 45.97265625  C 28.1318359375 45.97265625  36.876953125 37.154296875  36.876953125 26.2705078125  Z " fill-rule="evenodd" />
    </mask>
  </defs>
  <g transform="matrix(1 0 0 1 -203 -241 )">
    <path d="M 15.9931640625 2.1884765625  C 16.5400390625 2.18359375  17.08203125 2.2031249999999996  17.619140625 2.2470703125  C 16.759765625 1.7148437499999998  15.7783203125 1.2802734375  14.650390625 1.0263671875  C 13.5517578125 0.77734375  13.2001953125 1.3583984375  13.13671875 2.3837890625  C 14.0693359375 2.2519531249999996  15.021484375 2.1884765625  15.9931640625 2.1884765625  Z M 36.876953125 26.2705078125  C 36.876953125 24.1708984375  36.876953125 21.7783203125  36.22265625 19.068359375  C 36.4375 20.259765625  36.54980468750001 21.4853515625  36.54980468750001 22.740234375  C 36.54980468750001 34.0927734375  27.34570312500001 43.296875  15.993164062500004 43.296875  C 9.821289062500007 43.296875  4.2841796875000036 40.5771484375  0.5195312500000053 36.2705078125  C 3.9130859375 42.0810546875  10.177734375 45.97265625  17.345703125 45.97265625  C 28.1318359375 45.97265625  36.876953125 37.154296875  36.876953125 26.2705078125  Z " fill-rule="nonzero" fill="rgba(255, 85, 110, 1)" stroke="none" transform="matrix(1 0 0 1 203 241 )" class="fill" />
    <path d="M 15.9931640625 2.1884765625  C 16.5400390625 2.18359375  17.08203125 2.2031249999999996  17.619140625 2.2470703125  C 16.759765625 1.7148437499999998  15.7783203125 1.2802734375  14.650390625 1.0263671875  C 13.5517578125 0.77734375  13.2001953125 1.3583984375  13.13671875 2.3837890625  C 14.0693359375 2.2519531249999996  15.021484375 2.1884765625  15.9931640625 2.1884765625  Z " stroke-width="0" stroke-dasharray="0" stroke="rgba(255, 255, 255, 0)" fill="none" transform="matrix(1 0 0 1 203 241 )" class="stroke" mask="url(#Clip6557)" />
    <path d="M 36.876953125 26.2705078125  C 36.876953125 24.1708984375  36.876953125 21.7783203125  36.22265625 19.068359375  C 36.4375 20.259765625  36.54980468750001 21.4853515625  36.54980468750001 22.740234375  C 36.54980468750001 34.0927734375  27.34570312500001 43.296875  15.993164062500004 43.296875  C 9.821289062500007 43.296875  4.2841796875000036 40.5771484375  0.5195312500000053 36.2705078125  C 3.9130859375 42.0810546875  10.177734375 45.97265625  17.345703125 45.97265625  C 28.1318359375 45.97265625  36.876953125 37.154296875  36.876953125 26.2705078125  Z " stroke-width="0" stroke-dasharray="0" stroke="rgba(255, 255, 255, 0)" fill="none" transform="matrix(1 0 0 1 203 241 )" class="stroke" mask="url(#Clip6557)" />
  </g>
</svg>