<?xml version="1.0" encoding="utf-8"?>
<svg version="1.1" xmlns:xlink="http://www.w3.org/1999/xlink" width="19px" height="20px" xmlns="http://www.w3.org/2000/svg">
  <defs>
    <pattern id="BGPattern" patternUnits="userSpaceOnUse" alignment="0 0" imageRepeat="None" />
    <mask fill="white" id="Clip17859">
      <path d="M 6.0058593749999964 1.2597656250000018  C 2.6025390624999964 2.6367187500000036  0.20019531249999467 5.976562500000002  0.2001953125 9.873046875  C 0.2001953125 15.0048828125  4.360351562500002 19.165039062499996  9.492187500000004 19.165039062499996  C 14.624023437500004 19.165039062499996  18.779296875 15.0048828125  18.779296875 9.873046875  C 18.779296875 4.921875000000002  14.90234375 0.8740234375  10.01953125 0.6005859375  C 9.7998046875 1.2939453125  9.4482421875 1.923828125  8.9111328125 2.44140625  C 12.348632812500004 2.59765625  15.087890624999998 5.4296875  15.087890624999998 8.906250000000004  C 15.087890624999998 12.48046875  12.1875 15.380859375000004  8.613281249999996 15.380859375000004  C 5.039062499999995 15.380859375000004  2.1386718749999964 12.480468750000004  2.1386718749999964 8.906250000000004  C 2.1386718749999964 5.947265625000002  4.125976562499998 3.4521484375000036  6.8408203124999964 2.6806640625000018  C 6.5283203124999964 2.3242187500000018  6.2744140624999964 1.7919921875000036  6.0058593749999964 1.2597656250000018  Z " fill-rule="evenodd" />
    </mask>
  </defs>
  <g transform="matrix(1 0 0 1 -206 -250 )">
    <path d="M 6.0058593749999964 1.2597656250000018  C 2.6025390624999964 2.6367187500000036  0.20019531249999467 5.976562500000002  0.2001953125 9.873046875  C 0.2001953125 15.0048828125  4.360351562500002 19.165039062499996  9.492187500000004 19.165039062499996  C 14.624023437500004 19.165039062499996  18.779296875 15.0048828125  18.779296875 9.873046875  C 18.779296875 4.921875000000002  14.90234375 0.8740234375  10.01953125 0.6005859375  C 9.7998046875 1.2939453125  9.4482421875 1.923828125  8.9111328125 2.44140625  C 12.348632812500004 2.59765625  15.087890624999998 5.4296875  15.087890624999998 8.906250000000004  C 15.087890624999998 12.48046875  12.1875 15.380859375000004  8.613281249999996 15.380859375000004  C 5.039062499999995 15.380859375000004  2.1386718749999964 12.480468750000004  2.1386718749999964 8.906250000000004  C 2.1386718749999964 5.947265625000002  4.125976562499998 3.4521484375000036  6.8408203124999964 2.6806640625000018  C 6.5283203124999964 2.3242187500000018  6.2744140624999964 1.7919921875000036  6.0058593749999964 1.2597656250000018  Z " fill-rule="nonzero" fill="rgba(255, 136, 125, 1)" stroke="none" transform="matrix(1 0 0 1 206 250 )" class="fill" />
    <path d="M 6.0058593749999964 1.2597656250000018  C 2.6025390624999964 2.6367187500000036  0.20019531249999467 5.976562500000002  0.2001953125 9.873046875  C 0.2001953125 15.0048828125  4.360351562500002 19.165039062499996  9.492187500000004 19.165039062499996  C 14.624023437500004 19.165039062499996  18.779296875 15.0048828125  18.779296875 9.873046875  C 18.779296875 4.921875000000002  14.90234375 0.8740234375  10.01953125 0.6005859375  C 9.7998046875 1.2939453125  9.4482421875 1.923828125  8.9111328125 2.44140625  C 12.348632812500004 2.59765625  15.087890624999998 5.4296875  15.087890624999998 8.906250000000004  C 15.087890624999998 12.48046875  12.1875 15.380859375000004  8.613281249999996 15.380859375000004  C 5.039062499999995 15.380859375000004  2.1386718749999964 12.480468750000004  2.1386718749999964 8.906250000000004  C 2.1386718749999964 5.947265625000002  4.125976562499998 3.4521484375000036  6.8408203124999964 2.6806640625000018  C 6.5283203124999964 2.3242187500000018  6.2744140624999964 1.7919921875000036  6.0058593749999964 1.2597656250000018  Z " stroke-width="0" stroke-dasharray="0" stroke="rgba(255, 255, 255, 0)" fill="none" transform="matrix(1 0 0 1 206 250 )" class="stroke" mask="url(#Clip17859)" />
  </g>
</svg>