<?xml version="1.0" encoding="utf-8"?>
<svg version="1.1" xmlns:xlink="http://www.w3.org/1999/xlink" width="42px" height="54px" xmlns="http://www.w3.org/2000/svg">
  <defs>
    <linearGradient gradientUnits="userSpaceOnUse" x1="0" y1="0" x2="42" y2="54" id="LinearGradient995">
      <stop id="Stop996" stop-color="#d9001b" offset="0" />
      <stop id="Stop997" stop-color="#02a7f0" offset="1" />
    </linearGradient>
    <pattern id="BGPattern" patternUnits="userSpaceOnUse" alignment="0 0" imageRepeat="None" />
    <mask fill="white" id="Clip998">
      <path d="M 41.66244087890625 32.63635857421875  C 41.66244087890625 21.22663435546875  32.392066171875 12.05789080078125  20.98246189453125 12.0578907421875  C 9.57279767578125 12.0578907421875  0.30242296875000285 21.32838533203125  0.30242296875000285 32.63635857421875  C 0.40435388671875216 44.0459628515625  9.674848476562506 53.21434669921875  20.98246189453125 53.21434669921875  C 32.290435078125 53.21434669921875  41.66244087890625 44.0459628515625  41.66244087890625 32.63635857421875  Z M 30.35482740234375 28.153857656250004  C 32.392066171874994 28.45953041015625  32.901600703125 29.681981601562498  31.475227792968756 30.904312851562498  L 27.50244134765625 34.67347740234375  L 28.4192797265625 39.97112560546875  C 28.724832539062504 41.7027515625  27.706003300781244 42.51789890625  25.974077578125005 41.7027515625  L 20.98246189453125 39.15597826171875  L 15.990846210937502 41.7027515625  C 14.360911289062502 42.51789890625  13.240151191406248 41.804742421875  13.545644062500003 39.97112560546875  L 14.46278220703125 34.67347740234375  L 10.489636054687502 30.904312851562498  C 9.165194003906251 29.68192166015625  9.572737734375004 28.45953041015625  11.40647443359375 28.153857656250004  L 16.9076246484375 27.338710371093747  L 19.35240708984375 22.551016406250003  C 20.167674316406256 20.920961601562503  21.491636718750005 20.920961601562503  22.4088348046875 22.551016406250003  L 24.853557304687495 27.338710371093747  L 30.35482740234375 28.153857656250004  Z M 41.66244087890625 2.0747193164062487  C 41.66244087890625 1.3615028906249984  41.051275253906255 0.7502772656249994  40.23642767578125 1  L 28.01161611328125 1  C 27.400450488281248 0.7502773242187502  26.789224921875004 1.1578209960937498  26.687234062499996 1.7690465624999998  L 22.9180095703125 8.899891875  C 22.9180095703125 8.899891875  30.96605296874999 9.40948634765625  35.753986816406254 13.789936406249998  L 41.3568880078125 2.7879358007812494  C 41.5605099609375 2.685884999999999  41.662440820312504 2.3802721874999992  41.66244087890625 2.0747193164062487  Z M 6.312867890625 13.993498417968752  C 11.100861621093749 9.40948640625  19.14878513671875 9.001942675781251  19.14878513671875 9.001942675781251  L 15.379560644531248 1.87073765625  C 15.1756988671875 1.2595120898437502  14.666404160156251 0.8522681835937506  14.05523853515625 1  L 1.8304269726562516 1  C 1.0155794531249995 0.8522681835937506  0.40435382812500187 1.4634937500000005  0.40435382812500187 2.176650234375  C 0.40435382812500187 2.4823229882812496  0.5061048632812515 2.685885  0.7099666406250016 2.9914378125  L 6.312867890625 13.993498417968752  Z " fill-rule="evenodd" />
    </mask>
  </defs>
  <g transform="matrix(1 0 0 1 -49 -790 )">
    <path d="M 41.66244087890625 32.63635857421875  C 41.66244087890625 21.22663435546875  32.392066171875 12.05789080078125  20.98246189453125 12.0578907421875  C 9.57279767578125 12.0578907421875  0.30242296875000285 21.32838533203125  0.30242296875000285 32.63635857421875  C 0.40435388671875216 44.0459628515625  9.674848476562506 53.21434669921875  20.98246189453125 53.21434669921875  C 32.290435078125 53.21434669921875  41.66244087890625 44.0459628515625  41.66244087890625 32.63635857421875  Z M 30.35482740234375 28.153857656250004  C 32.392066171874994 28.45953041015625  32.901600703125 29.681981601562498  31.475227792968756 30.904312851562498  L 27.50244134765625 34.67347740234375  L 28.4192797265625 39.97112560546875  C 28.724832539062504 41.7027515625  27.706003300781244 42.51789890625  25.974077578125005 41.7027515625  L 20.98246189453125 39.15597826171875  L 15.990846210937502 41.7027515625  C 14.360911289062502 42.51789890625  13.240151191406248 41.804742421875  13.545644062500003 39.97112560546875  L 14.46278220703125 34.67347740234375  L 10.489636054687502 30.904312851562498  C 9.165194003906251 29.68192166015625  9.572737734375004 28.45953041015625  11.40647443359375 28.153857656250004  L 16.9076246484375 27.338710371093747  L 19.35240708984375 22.551016406250003  C 20.167674316406256 20.920961601562503  21.491636718750005 20.920961601562503  22.4088348046875 22.551016406250003  L 24.853557304687495 27.338710371093747  L 30.35482740234375 28.153857656250004  Z M 41.66244087890625 2.0747193164062487  C 41.66244087890625 1.3615028906249984  41.051275253906255 0.7502772656249994  40.23642767578125 1  L 28.01161611328125 1  C 27.400450488281248 0.7502773242187502  26.789224921875004 1.1578209960937498  26.687234062499996 1.7690465624999998  L 22.9180095703125 8.899891875  C 22.9180095703125 8.899891875  30.96605296874999 9.40948634765625  35.753986816406254 13.789936406249998  L 41.3568880078125 2.7879358007812494  C 41.5605099609375 2.685884999999999  41.662440820312504 2.3802721874999992  41.66244087890625 2.0747193164062487  Z M 6.312867890625 13.993498417968752  C 11.100861621093749 9.40948640625  19.14878513671875 9.001942675781251  19.14878513671875 9.001942675781251  L 15.379560644531248 1.87073765625  C 15.1756988671875 1.2595120898437502  14.666404160156251 0.8522681835937506  14.05523853515625 1  L 1.8304269726562516 1  C 1.0155794531249995 0.8522681835937506  0.40435382812500187 1.4634937500000005  0.40435382812500187 2.176650234375  C 0.40435382812500187 2.4823229882812496  0.5061048632812515 2.685885  0.7099666406250016 2.9914378125  L 6.312867890625 13.993498417968752  Z " fill-rule="nonzero" fill="url(#LinearGradient995)" stroke="none" transform="matrix(1 0 0 1 49 790 )" class="fill" />
    <path d="M 41.66244087890625 32.63635857421875  C 41.66244087890625 21.22663435546875  32.392066171875 12.05789080078125  20.98246189453125 12.0578907421875  C 9.57279767578125 12.0578907421875  0.30242296875000285 21.32838533203125  0.30242296875000285 32.63635857421875  C 0.40435388671875216 44.0459628515625  9.674848476562506 53.21434669921875  20.98246189453125 53.21434669921875  C 32.290435078125 53.21434669921875  41.66244087890625 44.0459628515625  41.66244087890625 32.63635857421875  Z " stroke-width="0" stroke-dasharray="0" stroke="rgba(255, 255, 255, 0)" fill="none" transform="matrix(1 0 0 1 49 790 )" class="stroke" mask="url(#Clip998)" />
    <path d="M 30.35482740234375 28.153857656250004  C 32.392066171874994 28.45953041015625  32.901600703125 29.681981601562498  31.475227792968756 30.904312851562498  L 27.50244134765625 34.67347740234375  L 28.4192797265625 39.97112560546875  C 28.724832539062504 41.7027515625  27.706003300781244 42.51789890625  25.974077578125005 41.7027515625  L 20.98246189453125 39.15597826171875  L 15.990846210937502 41.7027515625  C 14.360911289062502 42.51789890625  13.240151191406248 41.804742421875  13.545644062500003 39.97112560546875  L 14.46278220703125 34.67347740234375  L 10.489636054687502 30.904312851562498  C 9.165194003906251 29.68192166015625  9.572737734375004 28.45953041015625  11.40647443359375 28.153857656250004  L 16.9076246484375 27.338710371093747  L 19.35240708984375 22.551016406250003  C 20.167674316406256 20.920961601562503  21.491636718750005 20.920961601562503  22.4088348046875 22.551016406250003  L 24.853557304687495 27.338710371093747  L 30.35482740234375 28.153857656250004  Z " stroke-width="0" stroke-dasharray="0" stroke="rgba(255, 255, 255, 0)" fill="none" transform="matrix(1 0 0 1 49 790 )" class="stroke" mask="url(#Clip998)" />
    <path d="M 41.66244087890625 2.0747193164062487  C 41.66244087890625 1.3615028906249984  41.051275253906255 0.7502772656249994  40.23642767578125 1  L 28.01161611328125 1  C 27.400450488281248 0.7502773242187502  26.789224921875004 1.1578209960937498  26.687234062499996 1.7690465624999998  L 22.9180095703125 8.899891875  C 22.9180095703125 8.899891875  30.96605296874999 9.40948634765625  35.753986816406254 13.789936406249998  L 41.3568880078125 2.7879358007812494  C 41.5605099609375 2.685884999999999  41.662440820312504 2.3802721874999992  41.66244087890625 2.0747193164062487  Z " stroke-width="0" stroke-dasharray="0" stroke="rgba(255, 255, 255, 0)" fill="none" transform="matrix(1 0 0 1 49 790 )" class="stroke" mask="url(#Clip998)" />
    <path d="M 6.312867890625 13.993498417968752  C 11.100861621093749 9.40948640625  19.14878513671875 9.001942675781251  19.14878513671875 9.001942675781251  L 15.379560644531248 1.87073765625  C 15.1756988671875 1.2595120898437502  14.666404160156251 0.8522681835937506  14.05523853515625 1  L 1.8304269726562516 1  C 1.0155794531249995 0.8522681835937506  0.40435382812500187 1.4634937500000005  0.40435382812500187 2.176650234375  C 0.40435382812500187 2.4823229882812496  0.5061048632812515 2.685885  0.7099666406250016 2.9914378125  L 6.312867890625 13.993498417968752  Z " stroke-width="0" stroke-dasharray="0" stroke="rgba(255, 255, 255, 0)" fill="none" transform="matrix(1 0 0 1 49 790 )" class="stroke" mask="url(#Clip998)" />
  </g>
</svg>