<?xml version="1.0" encoding="utf-8"?>
<svg version="1.1" xmlns:xlink="http://www.w3.org/1999/xlink" width="159px" height="145px" xmlns="http://www.w3.org/2000/svg">
  <defs>
    <pattern id="BGPattern" patternUnits="userSpaceOnUse" alignment="0 0" imageRepeat="None" />
    <mask fill="white" id="Clip1361">
      <path d="M 0 130  L 0 13  C 0 10.200000000000045  2.1999999999999886 8  5 8  L 107.74213836477986 8  L 112.14465408805029 0.27672955974844626  L 115.60377358490564 8  L 144 8  C 146.8 8  149 10.200000000000045  149 13  L 149 130  C 149 132.79999999999995  146.8 135  144 135  L 5 135  C 2.1999999999999886 135  0 132.79999999999995  0 130  Z " fill-rule="evenodd" />
    </mask>
  </defs>
  <g transform="matrix(1 0 0 1 5 5 )">
    <path d="M 0 130  L 0 13  C 0 10.200000000000045  2.1999999999999886 8  5 8  L 107.74213836477986 8  L 112.14465408805029 0.27672955974844626  L 115.60377358490564 8  L 144 8  C 146.8 8  149 10.200000000000045  149 13  L 149 130  C 149 132.79999999999995  146.8 135  144 135  L 5 135  C 2.1999999999999886 135  0 132.79999999999995  0 130  Z " fill-rule="nonzero" fill="rgba(242, 242, 242, 0.8)" stroke="none" class="fill" />
    <path d="M 0 130  L 0 13  C 0 10.200000000000045  2.1999999999999886 8  5 8  L 107.74213836477986 8  L 112.14465408805029 0.27672955974844626  L 115.60377358490564 8  L 144 8  C 146.8 8  149 10.200000000000045  149 13  L 149 130  C 149 132.79999999999995  146.8 135  144 135  L 5 135  C 2.1999999999999886 135  0 132.79999999999995  0 130  Z " stroke-width="0" stroke-dasharray="0" stroke="rgba(121, 121, 121, 1)" fill="none" class="stroke" mask="url(#Clip1361)" />
  </g>
  <style>svg { filter: drop-shadow(0px 0px 2.5px rgba(0, 0, 0, 0.34901960784313724)); }</style>
</svg>