<?xml version="1.0" encoding="utf-8"?>
<svg version="1.1" xmlns:xlink="http://www.w3.org/1999/xlink" width="18px" height="18px" xmlns="http://www.w3.org/2000/svg">
  <defs>
    <pattern id="BGPattern" patternUnits="userSpaceOnUse" alignment="0 0" imageRepeat="None" />
    <mask fill="white" id="Clip1362">
      <path d="M 17.333333339843747 8.999999999999998  C 17.333333339843747 4.416666660156249  13.58333333984375 0.6666666601562499  9 0.6666666601562499  C 4.41666666015625 0.6666666601562499  0.6666666601562499 4.41666666015625  0.6666666601562499 9  C 0.6666666601562499 13.58333333984375  4.41666666015625 17.333333339843747  9 17.333333339843747  C 13.58333333984375 17.333333339843747  17.333333339843747 13.58333333984375  17.333333339843747 8.999999999999998  Z M 13.666666660156249 6.0833333398437475  C 13.75 6.3333333398437475  13.75 6.7499999999999964  13.5 6.999999999999999  L 8.5 11.999999999999996  C 8.25 12.249999999999996  7.833333339843749 12.249999999999996  7.583333339843749 11.999999999999996  L 7.666666660156249 11.999999999999996  C 7.5833333203125 11.999999999999996  7.416666660156249 11.916666660156249  7.333333339843749 11.833333339843751  L 4.583333339843749 9.083333339843747  C 4.333333339843749 8.833333339843747  4.333333339843749 8.416666679687498  4.583333339843749 8.083333339843747  C 4.833333339843749 7.8333333398437475  5.249999999999999 7.8333333398437475  5.583333339843749 8.083333339843747  L 8.08333333984375 10.583333339843747  L 12.666666660156249 5.999999999999997  C 12.916666660156247 5.749999999999997  13.333333320312498 5.749999999999997  13.58333333984375 5.999999999999997  L 13.666666660156249 6.0833333398437475  Z " fill-rule="evenodd" />
    </mask>
  </defs>
  <g transform="matrix(1 0 0 1 -124 -17 )">
    <path d="M 17.333333339843747 8.999999999999998  C 17.333333339843747 4.416666660156249  13.58333333984375 0.6666666601562499  9 0.6666666601562499  C 4.41666666015625 0.6666666601562499  0.6666666601562499 4.41666666015625  0.6666666601562499 9  C 0.6666666601562499 13.58333333984375  4.41666666015625 17.333333339843747  9 17.333333339843747  C 13.58333333984375 17.333333339843747  17.333333339843747 13.58333333984375  17.333333339843747 8.999999999999998  Z M 13.666666660156249 6.0833333398437475  C 13.75 6.3333333398437475  13.75 6.7499999999999964  13.5 6.999999999999999  L 8.5 11.999999999999996  C 8.25 12.249999999999996  7.833333339843749 12.249999999999996  7.583333339843749 11.999999999999996  L 7.666666660156249 11.999999999999996  C 7.5833333203125 11.999999999999996  7.416666660156249 11.916666660156249  7.333333339843749 11.833333339843751  L 4.583333339843749 9.083333339843747  C 4.333333339843749 8.833333339843747  4.333333339843749 8.416666679687498  4.583333339843749 8.083333339843747  C 4.833333339843749 7.8333333398437475  5.249999999999999 7.8333333398437475  5.583333339843749 8.083333339843747  L 8.08333333984375 10.583333339843747  L 12.666666660156249 5.999999999999997  C 12.916666660156247 5.749999999999997  13.333333320312498 5.749999999999997  13.58333333984375 5.999999999999997  L 13.666666660156249 6.0833333398437475  Z " fill-rule="nonzero" fill="rgba(0, 0, 0, 1)" stroke="none" transform="matrix(1 0 0 1 124 17 )" class="fill" />
    <path d="M 17.333333339843747 8.999999999999998  C 17.333333339843747 4.416666660156249  13.58333333984375 0.6666666601562499  9 0.6666666601562499  C 4.41666666015625 0.6666666601562499  0.6666666601562499 4.41666666015625  0.6666666601562499 9  C 0.6666666601562499 13.58333333984375  4.41666666015625 17.333333339843747  9 17.333333339843747  C 13.58333333984375 17.333333339843747  17.333333339843747 13.58333333984375  17.333333339843747 8.999999999999998  Z " stroke-width="0" stroke-dasharray="0" stroke="rgba(255, 255, 255, 0)" fill="none" transform="matrix(1 0 0 1 124 17 )" class="stroke" mask="url(#Clip1362)" />
    <path d="M 13.666666660156249 6.0833333398437475  C 13.75 6.3333333398437475  13.75 6.7499999999999964  13.5 6.999999999999999  L 8.5 11.999999999999996  C 8.25 12.249999999999996  7.833333339843749 12.249999999999996  7.583333339843749 11.999999999999996  L 7.666666660156249 11.999999999999996  C 7.5833333203125 11.999999999999996  7.416666660156249 11.916666660156249  7.333333339843749 11.833333339843751  L 4.583333339843749 9.083333339843747  C 4.333333339843749 8.833333339843747  4.333333339843749 8.416666679687498  4.583333339843749 8.083333339843747  C 4.833333339843749 7.8333333398437475  5.249999999999999 7.8333333398437475  5.583333339843749 8.083333339843747  L 8.08333333984375 10.583333339843747  L 12.666666660156249 5.999999999999997  C 12.916666660156247 5.749999999999997  13.333333320312498 5.749999999999997  13.58333333984375 5.999999999999997  L 13.666666660156249 6.0833333398437475  Z " stroke-width="0" stroke-dasharray="0" stroke="rgba(255, 255, 255, 0)" fill="none" transform="matrix(1 0 0 1 124 17 )" class="stroke" mask="url(#Clip1362)" />
  </g>
</svg>