<?xml version="1.0" encoding="utf-8"?>
<svg version="1.1" xmlns:xlink="http://www.w3.org/1999/xlink" width="21px" height="20px" xmlns="http://www.w3.org/2000/svg">
  <defs>
    <pattern id="BGPattern" patternUnits="userSpaceOnUse" alignment="0 0" imageRepeat="None" />
    <mask fill="white" id="Clip1369">
      <path d="M 8.528928571428569 0.8346153846153825  C 8.941428571428567 0.4307692307692284  9.613214285714285 0.4307692307692284  10.025714285714283 0.8346153846153839  C 10.438214285714283 1.238461538461538  10.438214285714283 1.8961538461538447  10.025714285714283 2.299999999999999  L 2.4710714285714266 9.696153846153843  C 2.0585714285714265 10.099999999999996  1.3867857142857132 10.099999999999996  0.974285714285713 9.696153846153843  C 0.5617857142857128 9.292307692307691  0.5617857142857128 8.634615384615383  0.974285714285713 8.23076923076923  L 8.528928571428569 0.8346153846153825  Z " fill-rule="evenodd" />
    </mask>
  </defs>
  <g transform="matrix(1 0 0 1 -795 -131 )">
    <path d="M 8.528928571428569 0.8346153846153825  C 8.941428571428567 0.4307692307692284  9.613214285714285 0.4307692307692284  10.025714285714283 0.8346153846153839  C 10.438214285714283 1.238461538461538  10.438214285714283 1.8961538461538447  10.025714285714283 2.299999999999999  L 2.4710714285714266 9.696153846153843  C 2.0585714285714265 10.099999999999996  1.3867857142857132 10.099999999999996  0.974285714285713 9.696153846153843  C 0.5617857142857128 9.292307692307691  0.5617857142857128 8.634615384615383  0.974285714285713 8.23076923076923  L 8.528928571428569 0.8346153846153825  Z " fill-rule="nonzero" fill="rgba(255, 255, 255, 1)" stroke="none" transform="matrix(1 0 0 1 800 136 )" class="fill" />
    <path d="M 8.528928571428569 0.8346153846153825  C 8.941428571428567 0.4307692307692284  9.613214285714285 0.4307692307692284  10.025714285714283 0.8346153846153839  C 10.438214285714283 1.238461538461538  10.438214285714283 1.8961538461538447  10.025714285714283 2.299999999999999  L 2.4710714285714266 9.696153846153843  C 2.0585714285714265 10.099999999999996  1.3867857142857132 10.099999999999996  0.974285714285713 9.696153846153843  C 0.5617857142857128 9.292307692307691  0.5617857142857128 8.634615384615383  0.974285714285713 8.23076923076923  L 8.528928571428569 0.8346153846153825  Z " stroke-width="0" stroke-dasharray="0" stroke="rgba(255, 255, 255, 0)" fill="none" transform="matrix(1 0 0 1 800 136 )" class="stroke" mask="url(#Clip1369)" />
  </g>
  <style>svg { filter: drop-shadow(0px 0px 2.5px rgba(0, 0, 0, 0.34901960784313724)); }</style>
</svg>