<?xml version="1.0" encoding="utf-8"?>
<svg version="1.1" xmlns:xlink="http://www.w3.org/1999/xlink" width="21px" height="20px" xmlns="http://www.w3.org/2000/svg">
  <defs>
    <pattern id="BGPattern" patternUnits="userSpaceOnUse" alignment="0 0" imageRepeat="None" />
    <mask fill="white" id="Clip1368">
      <path d="M 10.025714285714283 7.7  C 10.438214285714283 8.103846153846154  10.438214285714283 8.761538461538462  10.025714285714283 9.165384615384616  C 9.613214285714285 9.569230769230767  8.941428571428567 9.569230769230767  8.528928571428569 9.165384615384616  L 0.9742857142857145 1.7692307692307692  C 0.5617857142857141 1.3653846153846154  0.5617857142857141 0.707692307692307  0.9742857142857145 0.3038461538461535  C 1.3867857142857147 -0.09999999999999992  2.058571428571428 -0.09999999999999992  2.4710714285714284 0.3038461538461535  L 10.025714285714283 7.7  Z " fill-rule="evenodd" />
    </mask>
  </defs>
  <g transform="matrix(1 0 0 1 -795 -139 )">
    <path d="M 10.025714285714283 7.7  C 10.438214285714283 8.103846153846154  10.438214285714283 8.761538461538462  10.025714285714283 9.165384615384616  C 9.613214285714285 9.569230769230767  8.941428571428567 9.569230769230767  8.528928571428569 9.165384615384616  L 0.9742857142857145 1.7692307692307692  C 0.5617857142857141 1.3653846153846154  0.5617857142857141 0.707692307692307  0.9742857142857145 0.3038461538461535  C 1.3867857142857147 -0.09999999999999992  2.058571428571428 -0.09999999999999992  2.4710714285714284 0.3038461538461535  L 10.025714285714283 7.7  Z " fill-rule="nonzero" fill="rgba(255, 255, 255, 1)" stroke="none" transform="matrix(1 0 0 1 800 144 )" class="fill" />
    <path d="M 10.025714285714283 7.7  C 10.438214285714283 8.103846153846154  10.438214285714283 8.761538461538462  10.025714285714283 9.165384615384616  C 9.613214285714285 9.569230769230767  8.941428571428567 9.569230769230767  8.528928571428569 9.165384615384616  L 0.9742857142857145 1.7692307692307692  C 0.5617857142857141 1.3653846153846154  0.5617857142857141 0.707692307692307  0.9742857142857145 0.3038461538461535  C 1.3867857142857147 -0.09999999999999992  2.058571428571428 -0.09999999999999992  2.4710714285714284 0.3038461538461535  L 10.025714285714283 7.7  Z " stroke-width="0" stroke-dasharray="0" stroke="rgba(255, 255, 255, 0)" fill="none" transform="matrix(1 0 0 1 800 144 )" class="stroke" mask="url(#Clip1368)" />
  </g>
  <style>svg { filter: drop-shadow(0px 0px 2.5px rgba(0, 0, 0, 0.34901960784313724)); }</style>
</svg>