<?xml version="1.0" encoding="utf-8"?>
<svg version="1.1" xmlns:xlink="http://www.w3.org/1999/xlink" width="9px" height="10px" xmlns="http://www.w3.org/2000/svg">
  <defs>
    <pattern id="BGPattern" patternUnits="userSpaceOnUse" alignment="0 0" imageRepeat="None" />
    <mask fill="white" id="Clip8118">
      <path d="M 8.986407706925677 9.954134855769231  L 3.056098463893582 4.3279440354567305  L 7.571877206503379 0.043743704927884694  L 5.853845903716217 0.043743704927884694  L 1.2888887932854736 4.374410006009615  L 1.2888887932854736 2.6060371544471144  L 0.07488561549831038 2.6060371544471144  L 0.07488561549831038 9.95413485576923  L 1.2888887932854736 9.95413485576923  L 1.2888887932854736 6.004527569110577  L 2.1931686233108105 5.146811508413461  L 7.260146547719593 9.954134855769231  L 8.986407706925677 9.954134855769231  Z " fill-rule="evenodd" />
    </mask>
  </defs>
  <g transform="matrix(1 0 0 1 -148 -114 )">
    <path d="M 8.986407706925677 9.954134855769231  L 3.056098463893582 4.3279440354567305  L 7.571877206503379 0.043743704927884694  L 5.853845903716217 0.043743704927884694  L 1.2888887932854736 4.374410006009615  L 1.2888887932854736 2.6060371544471144  L 0.07488561549831038 2.6060371544471144  L 0.07488561549831038 9.95413485576923  L 1.2888887932854736 9.95413485576923  L 1.2888887932854736 6.004527569110577  L 2.1931686233108105 5.146811508413461  L 7.260146547719593 9.954134855769231  L 8.986407706925677 9.954134855769231  Z " fill-rule="nonzero" fill="rgba(255, 255, 255, 1)" stroke="none" transform="matrix(1 0 0 1 148 114 )" class="fill" />
    <path d="M 8.986407706925677 9.954134855769231  L 3.056098463893582 4.3279440354567305  L 7.571877206503379 0.043743704927884694  L 5.853845903716217 0.043743704927884694  L 1.2888887932854736 4.374410006009615  L 1.2888887932854736 2.6060371544471144  L 0.07488561549831038 2.6060371544471144  L 0.07488561549831038 9.95413485576923  L 1.2888887932854736 9.95413485576923  L 1.2888887932854736 6.004527569110577  L 2.1931686233108105 5.146811508413461  L 7.260146547719593 9.954134855769231  L 8.986407706925677 9.954134855769231  Z " stroke-width="0" stroke-dasharray="0" stroke="rgba(255, 255, 255, 0)" fill="none" transform="matrix(1 0 0 1 148 114 )" class="stroke" mask="url(#Clip8118)" />
  </g>
</svg>