<?xml version="1.0" encoding="utf-8"?>
<svg version="1.1" xmlns:xlink="http://www.w3.org/1999/xlink" width="19px" height="19px" xmlns="http://www.w3.org/2000/svg">
  <defs>
    <linearGradient gradientUnits="userSpaceOnUse" x1="11.950000000000056" y1="7.65000000000019" x2="3.375077994860476E-14" y2="19.000000000000135" id="LinearGradient329">
      <stop id="Stop330" stop-color="#477f98" offset="0" />
      <stop id="Stop331" stop-color="#ff4025" offset="1" />
    </linearGradient>
    <pattern id="BGPattern" patternUnits="userSpaceOnUse" alignment="0 0" imageRepeat="None" />
    <mask fill="white" id="Clip332">
      <path d="M 9.5 19  C 4.18 19  0 14.82  0 9.5  C 0 4.18  4.18 0  9.5 0  C 14.82 0  19 4.18  19 9.5  C 19 14.82  14.82 19  9.5 19  Z " fill-rule="evenodd" />
    </mask>
  </defs>
  <g transform="matrix(1 0 0 1 -155 -29 )">
    <path d="M 9.5 19  C 4.18 19  0 14.82  0 9.5  C 0 4.18  4.18 0  9.5 0  C 14.82 0  19 4.18  19 9.5  C 19 14.82  14.82 19  9.5 19  Z " fill-rule="nonzero" fill="url(#LinearGradient329)" stroke="none" transform="matrix(1 0 0 1 155 29 )" class="fill" />
    <path d="M 9.5 19  C 4.18 19  0 14.82  0 9.5  C 0 4.18  4.18 0  9.5 0  C 14.82 0  19 4.18  19 9.5  C 19 14.82  14.82 19  9.5 19  Z " stroke-width="0" stroke-dasharray="0" stroke="rgba(121, 121, 121, 1)" fill="none" transform="matrix(1 0 0 1 155 29 )" class="stroke" mask="url(#Clip332)" />
  </g>
</svg>