<?xml version="1.0" encoding="utf-8"?>
<svg version="1.1" xmlns:xlink="http://www.w3.org/1999/xlink" width="10px" height="12px" xmlns="http://www.w3.org/2000/svg">
  <defs>
    <pattern id="BGPattern" patternUnits="userSpaceOnUse" alignment="0 0" imageRepeat="None" />
    <mask fill="white" id="Clip7700">
      <path d="M 5.275484637920673 6.585869600183823  C 6.934643423227164 6.585869600183823  8.19531847205529 6.2051298253676475  8.921111159104568 5.48471689453125  C 9.542641094501201 4.8658782456341925  9.950170485276441 4.382253550091912  9.950170485276441 3.3411716567095584  C 9.950170485276441 2.785243548943014  9.831149057241586 2.314506772748161  9.563826904296876 1.8138438074448524  C 9.306264516977162 1.3308744312959555  8.957055626502404 0.9470765107996322  8.52453173828125 0.6720613855698526  C 8.1008154296875 0.40447319048713193  7.574740685096154 0.2209841567095584  6.9608281437800485 0.12596305147058787  C 6.535207500751204 0.05475182674632313  5.939386192908654 0.020019967830882085  5.140038236177885 0.020019967830882085  L 1.3427783954326922 0.020019967830882085  C 0.6053215895432694 0.02045683593750002  0.13875756835937492 0.7777860351562499  0.08781638746995207 0.8651617589613969  L 0 0.9330964039522058  L 0 11.961880147058825  L 1.4779867412860574 11.961880147058825  L 1.4779867412860574 6.585869600183823  L 5.275484637920673 6.585869600183823  Z M 8.442645000751202 3.2990128676470594  C 8.443835223858171 3.9565152745863976  8.207934739332932 4.2634225471047795  7.711377309945913 4.666006244255515  C 7.2143438063401435 5.068153073299633  6.4597479154146615 5.2557924574908075  5.336185565655047 5.2557924574908075  L 1.46084765625 5.2557924574908075  L 1.46084765625 1.5086840590533086  C 1.5127410043569713 1.4431522575827205  1.589628849909856 1.3749991785386033  1.6341428786057692 1.3749991785386033  L 5.2961943547175485 1.3749991785386033  C 6.357151423527644 1.3749991785386033  6.826571965144232 1.4346331227022064  7.033907301682691 1.4842188419117648  C 7.443102989783654 1.5881959673713237  7.752082632211539 1.7981161764705882  8.03559170297476 2.164657393152574  C 8.29958124248798 2.5058596392463244  8.442645000751202 2.7876463924632353  8.442645000751202 3.2990128676470594  Z " fill-rule="evenodd" />
    </mask>
  </defs>
  <g transform="matrix(1 0 0 1 -157 -31 )">
    <path d="M 5.275484637920673 6.585869600183823  C 6.934643423227164 6.585869600183823  8.19531847205529 6.2051298253676475  8.921111159104568 5.48471689453125  C 9.542641094501201 4.8658782456341925  9.950170485276441 4.382253550091912  9.950170485276441 3.3411716567095584  C 9.950170485276441 2.785243548943014  9.831149057241586 2.314506772748161  9.563826904296876 1.8138438074448524  C 9.306264516977162 1.3308744312959555  8.957055626502404 0.9470765107996322  8.52453173828125 0.6720613855698526  C 8.1008154296875 0.40447319048713193  7.574740685096154 0.2209841567095584  6.9608281437800485 0.12596305147058787  C 6.535207500751204 0.05475182674632313  5.939386192908654 0.020019967830882085  5.140038236177885 0.020019967830882085  L 1.3427783954326922 0.020019967830882085  C 0.6053215895432694 0.02045683593750002  0.13875756835937492 0.7777860351562499  0.08781638746995207 0.8651617589613969  L 0 0.9330964039522058  L 0 11.961880147058825  L 1.4779867412860574 11.961880147058825  L 1.4779867412860574 6.585869600183823  L 5.275484637920673 6.585869600183823  Z M 8.442645000751202 3.2990128676470594  C 8.443835223858171 3.9565152745863976  8.207934739332932 4.2634225471047795  7.711377309945913 4.666006244255515  C 7.2143438063401435 5.068153073299633  6.4597479154146615 5.2557924574908075  5.336185565655047 5.2557924574908075  L 1.46084765625 5.2557924574908075  L 1.46084765625 1.5086840590533086  C 1.5127410043569713 1.4431522575827205  1.589628849909856 1.3749991785386033  1.6341428786057692 1.3749991785386033  L 5.2961943547175485 1.3749991785386033  C 6.357151423527644 1.3749991785386033  6.826571965144232 1.4346331227022064  7.033907301682691 1.4842188419117648  C 7.443102989783654 1.5881959673713237  7.752082632211539 1.7981161764705882  8.03559170297476 2.164657393152574  C 8.29958124248798 2.5058596392463244  8.442645000751202 2.7876463924632353  8.442645000751202 3.2990128676470594  Z " fill-rule="nonzero" fill="rgba(255, 255, 255, 1)" stroke="none" transform="matrix(1 0 0 1 157 31 )" class="fill" />
    <path d="M 5.275484637920673 6.585869600183823  C 6.934643423227164 6.585869600183823  8.19531847205529 6.2051298253676475  8.921111159104568 5.48471689453125  C 9.542641094501201 4.8658782456341925  9.950170485276441 4.382253550091912  9.950170485276441 3.3411716567095584  C 9.950170485276441 2.785243548943014  9.831149057241586 2.314506772748161  9.563826904296876 1.8138438074448524  C 9.306264516977162 1.3308744312959555  8.957055626502404 0.9470765107996322  8.52453173828125 0.6720613855698526  C 8.1008154296875 0.40447319048713193  7.574740685096154 0.2209841567095584  6.9608281437800485 0.12596305147058787  C 6.535207500751204 0.05475182674632313  5.939386192908654 0.020019967830882085  5.140038236177885 0.020019967830882085  L 1.3427783954326922 0.020019967830882085  C 0.6053215895432694 0.02045683593750002  0.13875756835937492 0.7777860351562499  0.08781638746995207 0.8651617589613969  L 0 0.9330964039522058  L 0 11.961880147058825  L 1.4779867412860574 11.961880147058825  L 1.4779867412860574 6.585869600183823  L 5.275484637920673 6.585869600183823  Z " stroke-width="0" stroke-dasharray="0" stroke="rgba(255, 255, 255, 0)" fill="none" transform="matrix(1 0 0 1 157 31 )" class="stroke" mask="url(#Clip7700)" />
    <path d="M 8.442645000751202 3.2990128676470594  C 8.443835223858171 3.9565152745863976  8.207934739332932 4.2634225471047795  7.711377309945913 4.666006244255515  C 7.2143438063401435 5.068153073299633  6.4597479154146615 5.2557924574908075  5.336185565655047 5.2557924574908075  L 1.46084765625 5.2557924574908075  L 1.46084765625 1.5086840590533086  C 1.5127410043569713 1.4431522575827205  1.589628849909856 1.3749991785386033  1.6341428786057692 1.3749991785386033  L 5.2961943547175485 1.3749991785386033  C 6.357151423527644 1.3749991785386033  6.826571965144232 1.4346331227022064  7.033907301682691 1.4842188419117648  C 7.443102989783654 1.5881959673713237  7.752082632211539 1.7981161764705882  8.03559170297476 2.164657393152574  C 8.29958124248798 2.5058596392463244  8.442645000751202 2.7876463924632353  8.442645000751202 3.2990128676470594  Z " stroke-width="0" stroke-dasharray="0" stroke="rgba(255, 255, 255, 0)" fill="none" transform="matrix(1 0 0 1 157 31 )" class="stroke" mask="url(#Clip7700)" />
  </g>
</svg>