<?xml version="1.0" encoding="utf-8"?>
<svg version="1.1" xmlns:xlink="http://www.w3.org/1999/xlink" width="145px" height="120px" xmlns="http://www.w3.org/2000/svg">
  <defs>
    <linearGradient gradientUnits="userSpaceOnUse" x1="72.5" y1="0" x2="72.5" y2="120" id="LinearGradient1102">
      <stop id="Stop1103" stop-color="#000000" offset="0" />
      <stop id="Stop1104" stop-color="#333333" stop-opacity="0" offset="1" />
    </linearGradient>
    <pattern id="BGPattern" patternUnits="userSpaceOnUse" alignment="0 0" imageRepeat="None" />
    <mask fill="white" id="Clip1105">
      <path d="M 0 115  L 0 5  C 0 2.1999999999999997  2.1999999999999997 0  5 0  L 140 0  C 142.8 0  145 2.1999999999999997  145 5  L 145 115  C 145 117.8  142.8 120  140 120  L 5 120  C 2.1999999999999997 120  0 117.8  0 115  Z " fill-rule="evenodd" />
    </mask>
  </defs>
  <g transform="matrix(1 0 0 1 -30 -896 )">
    <path d="M 0 115  L 0 5  C 0 2.1999999999999997  2.1999999999999997 0  5 0  L 140 0  C 142.8 0  145 2.1999999999999997  145 5  L 145 115  C 145 117.8  142.8 120  140 120  L 5 120  C 2.1999999999999997 120  0 117.8  0 115  Z " fill-rule="nonzero" fill="url(#LinearGradient1102)" stroke="none" transform="matrix(1 0 0 1 30 896 )" class="fill" />
    <path d="M 0 115  L 0 5  C 0 2.1999999999999997  2.1999999999999997 0  5 0  L 140 0  C 142.8 0  145 2.1999999999999997  145 5  L 145 115  C 145 117.8  142.8 120  140 120  L 5 120  C 2.1999999999999997 120  0 117.8  0 115  Z " stroke-width="0" stroke-dasharray="0" stroke="rgba(121, 121, 121, 1)" fill="none" transform="matrix(1 0 0 1 30 896 )" class="stroke" mask="url(#Clip1105)" />
  </g>
</svg>