<?xml version="1.0" encoding="utf-8"?>
<svg version="1.1" xmlns:xlink="http://www.w3.org/1999/xlink" width="22px" height="22px" xmlns="http://www.w3.org/2000/svg">
  <defs>
    <pattern id="BGPattern" patternUnits="userSpaceOnUse" alignment="0 0" imageRepeat="None" />
    <mask fill="white" id="Clip2114">
      <path d="M 18.246875 0.8398437500000018  L 0.83984375 18.246875000000003  C 1.3648437500000004 19.53828125  2.3914062499999997 20.58125  3.6710937500000007 21.12734375  L 21.127343749999998 3.671093750000002  C 20.581249999999997 2.389062500000002  19.538281249999997 1.3648437500000012  18.246875 0.8398437500000018  Z " fill-rule="evenodd" />
    </mask>
  </defs>
  <g transform="matrix(1 0 0 1 -92 -1343 )">
    <path d="M 18.246875 0.8398437500000018  L 0.83984375 18.246875000000003  C 1.3648437500000004 19.53828125  2.3914062499999997 20.58125  3.6710937500000007 21.12734375  L 21.127343749999998 3.671093750000002  C 20.581249999999997 2.389062500000002  19.538281249999997 1.3648437500000012  18.246875 0.8398437500000018  Z " fill-rule="nonzero" fill="rgba(255, 99, 90, 1)" stroke="none" transform="matrix(1 0 0 1 92 1343 )" class="fill" />
    <path d="M 18.246875 0.8398437500000018  L 0.83984375 18.246875000000003  C 1.3648437500000004 19.53828125  2.3914062499999997 20.58125  3.6710937500000007 21.12734375  L 21.127343749999998 3.671093750000002  C 20.581249999999997 2.389062500000002  19.538281249999997 1.3648437500000012  18.246875 0.8398437500000018  Z " stroke-width="0" stroke-dasharray="0" stroke="rgba(255, 255, 255, 0)" fill="none" transform="matrix(1 0 0 1 92 1343 )" class="stroke" mask="url(#Clip2114)" />
  </g>
</svg>