<?xml version="1.0" encoding="utf-8"?>
<svg version="1.1" xmlns:xlink="http://www.w3.org/1999/xlink" width="18px" height="18px" xmlns="http://www.w3.org/2000/svg">
  <defs>
    <pattern id="BGPattern" patternUnits="userSpaceOnUse" alignment="0 0" imageRepeat="None" />
    <mask fill="white" id="Clip169">
      <path d="M 0.6742187499999996 17.44140625  C 1.0140625000000005 17.509375  1.3656250000000005 17.546875  1.7265625 17.546875  L 6.278124999999999 17.546875  L 17.546875 6.278124999999999  L 17.546875 1.7265625  C 17.546875 1.3656250000000005  17.509375 1.0140625000000005  17.44140625 0.6742187499999996  L 0.6742187499999996 17.44140625  Z " fill-rule="evenodd" />
    </mask>
  </defs>
  <g transform="matrix(1 0 0 1 -96 -1347 )">
    <path d="M 0.6742187499999996 17.44140625  C 1.0140625000000005 17.509375  1.3656250000000005 17.546875  1.7265625 17.546875  L 6.278124999999999 17.546875  L 17.546875 6.278124999999999  L 17.546875 1.7265625  C 17.546875 1.3656250000000005  17.509375 1.0140625000000005  17.44140625 0.6742187499999996  L 0.6742187499999996 17.44140625  Z " fill-rule="nonzero" fill="rgba(255, 97, 86, 1)" stroke="none" transform="matrix(1 0 0 1 96 1347 )" class="fill" />
    <path d="M 0.6742187499999996 17.44140625  C 1.0140625000000005 17.509375  1.3656250000000005 17.546875  1.7265625 17.546875  L 6.278124999999999 17.546875  L 17.546875 6.278124999999999  L 17.546875 1.7265625  C 17.546875 1.3656250000000005  17.509375 1.0140625000000005  17.44140625 0.6742187499999996  L 0.6742187499999996 17.44140625  Z " stroke-width="0" stroke-dasharray="0" stroke="rgba(255, 255, 255, 0)" fill="none" transform="matrix(1 0 0 1 96 1347 )" class="stroke" mask="url(#Clip169)" />
  </g>
</svg>