<?xml version="1.0" encoding="utf-8"?>
<svg version="1.1" xmlns:xlink="http://www.w3.org/1999/xlink" width="20px" height="20px" xmlns="http://www.w3.org/2000/svg">
  <defs>
    <pattern id="BGPattern" patternUnits="userSpaceOnUse" alignment="0 0" imageRepeat="None" />
    <mask fill="white" id="Clip3094">
      <path d="M 19.546875 5.467968750000001  L 19.546875 3.7265625  C 19.546875 2.6062499999999993  19.19296875 1.5656250000000007  18.592968749999997 0.7101562500000003  L 0.7101562499999989 18.592968749999997  C 1.5656250000000007 19.19296875  2.6062499999999993 19.546875  3.7265625 19.546875  L 5.467968750000001 19.546875  L 19.546875 5.467968750000001  Z " fill-rule="evenodd" />
    </mask>
  </defs>
  <g transform="matrix(1 0 0 1 -94 -1345 )">
    <path d="M 19.546875 5.467968750000001  L 19.546875 3.7265625  C 19.546875 2.6062499999999993  19.19296875 1.5656250000000007  18.592968749999997 0.7101562500000003  L 0.7101562499999989 18.592968749999997  C 1.5656250000000007 19.19296875  2.6062499999999993 19.546875  3.7265625 19.546875  L 5.467968750000001 19.546875  L 19.546875 5.467968750000001  Z " fill-rule="nonzero" fill="rgba(255, 98, 88, 1)" stroke="none" transform="matrix(1 0 0 1 94 1345 )" class="fill" />
    <path d="M 19.546875 5.467968750000001  L 19.546875 3.7265625  C 19.546875 2.6062499999999993  19.19296875 1.5656250000000007  18.592968749999997 0.7101562500000003  L 0.7101562499999989 18.592968749999997  C 1.5656250000000007 19.19296875  2.6062499999999993 19.546875  3.7265625 19.546875  L 5.467968750000001 19.546875  L 19.546875 5.467968750000001  Z " stroke-width="0" stroke-dasharray="0" stroke="rgba(255, 255, 255, 0)" fill="none" transform="matrix(1 0 0 1 94 1345 )" class="stroke" mask="url(#Clip3094)" />
  </g>
</svg>