<?xml version="1.0" encoding="utf-8"?>
<svg version="1.1" xmlns:xlink="http://www.w3.org/1999/xlink" width="9px" height="9px" xmlns="http://www.w3.org/2000/svg">
  <defs>
    <pattern id="BGPattern" patternUnits="userSpaceOnUse" alignment="0 0" imageRepeat="None" />
    <mask fill="white" id="Clip3102">
      <path d="M 8.546875 3.2734375  L 8.546875 0.001562499999998579  L 0.001562499999998579 8.546875  L 3.2734375 8.546875  C 6.174999999999997 8.546875  8.546875 6.172656250000003  8.546875 3.2734375  Z " fill-rule="evenodd" />
    </mask>
  </defs>
  <g transform="matrix(1 0 0 1 -105 -1356 )">
    <path d="M 8.546875 3.2734375  L 8.546875 0.001562499999998579  L 0.001562499999998579 8.546875  L 3.2734375 8.546875  C 6.174999999999997 8.546875  8.546875 6.172656250000003  8.546875 3.2734375  Z " fill-rule="nonzero" fill="rgba(255, 95, 80, 1)" stroke="none" transform="matrix(1 0 0 1 105 1356 )" class="fill" />
    <path d="M 8.546875 3.2734375  L 8.546875 0.001562499999998579  L 0.001562499999998579 8.546875  L 3.2734375 8.546875  C 6.174999999999997 8.546875  8.546875 6.172656250000003  8.546875 3.2734375  Z " stroke-width="0" stroke-dasharray="0" stroke="rgba(255, 255, 255, 0)" fill="none" transform="matrix(1 0 0 1 105 1356 )" class="stroke" mask="url(#Clip3102)" />
  </g>
</svg>