<?xml version="1.0" encoding="utf-8"?>
<svg version="1.1" xmlns:xlink="http://www.w3.org/1999/xlink" width="21px" height="24px" xmlns="http://www.w3.org/2000/svg">
  <defs>
    <pattern id="BGPattern" patternUnits="userSpaceOnUse" alignment="0 0" imageRepeat="None" />
    <mask fill="white" id="Clip1140">
      <path d="M 17.362304687500004 5.3310546875  C 20.111328125 8.71484375  20.111328125 11.3955078125  20.111328125 13.4951171875  C 20.111328125 18.83203125  15.7412109375 23.1630859375  10.345703125 23.1630859375  C 4.9501953125 23.1630859375  0.5800781250000018 18.8369140625  0.5800781250000018 13.4951171875  C 0.5800781250000018 11.01953125  1.1953125000000018 9.330078125  2.09375 7.7724609375  C 2.8603515625 6.44921875  3.9248046875 5.2871093750000036  4.9550781250000036 4.828125  C 5.6386718750000036 4.5205078125  6.1660156250000036 7.2939453125  7.425781250000003 6.3857421875  C 9.500976562500004 4.88671875  9.168945312500004 -0.13769531250000178  10.345703125000004 0.2626953125000018  C 11.898437500000004 0.7900390625000018  12.938476562500004 4.828125  13.656250000000004 5.1650390625  C 15.174804687500007 5.873046875  14.857421875000007 2.2451171875  17.362304687500004 5.3310546875  Z " fill-rule="evenodd" />
    </mask>
  </defs>
  <g transform="matrix(1 0 0 1 -210 -254 )">
    <path d="M 17.362304687500004 5.3310546875  C 20.111328125 8.71484375  20.111328125 11.3955078125  20.111328125 13.4951171875  C 20.111328125 18.83203125  15.7412109375 23.1630859375  10.345703125 23.1630859375  C 4.9501953125 23.1630859375  0.5800781250000018 18.8369140625  0.5800781250000018 13.4951171875  C 0.5800781250000018 11.01953125  1.1953125000000018 9.330078125  2.09375 7.7724609375  C 2.8603515625 6.44921875  3.9248046875 5.2871093750000036  4.9550781250000036 4.828125  C 5.6386718750000036 4.5205078125  6.1660156250000036 7.2939453125  7.425781250000003 6.3857421875  C 9.500976562500004 4.88671875  9.168945312500004 -0.13769531250000178  10.345703125000004 0.2626953125000018  C 11.898437500000004 0.7900390625000018  12.938476562500004 4.828125  13.656250000000004 5.1650390625  C 15.174804687500007 5.873046875  14.857421875000007 2.2451171875  17.362304687500004 5.3310546875  Z " fill-rule="nonzero" fill="rgba(255, 199, 199, 1)" stroke="none" transform="matrix(1 0 0 1 210 254 )" class="fill" />
    <path d="M 17.362304687500004 5.3310546875  C 20.111328125 8.71484375  20.111328125 11.3955078125  20.111328125 13.4951171875  C 20.111328125 18.83203125  15.7412109375 23.1630859375  10.345703125 23.1630859375  C 4.9501953125 23.1630859375  0.5800781250000018 18.8369140625  0.5800781250000018 13.4951171875  C 0.5800781250000018 11.01953125  1.1953125000000018 9.330078125  2.09375 7.7724609375  C 2.8603515625 6.44921875  3.9248046875 5.2871093750000036  4.9550781250000036 4.828125  C 5.6386718750000036 4.5205078125  6.1660156250000036 7.2939453125  7.425781250000003 6.3857421875  C 9.500976562500004 4.88671875  9.168945312500004 -0.13769531250000178  10.345703125000004 0.2626953125000018  C 11.898437500000004 0.7900390625000018  12.938476562500004 4.828125  13.656250000000004 5.1650390625  C 15.174804687500007 5.873046875  14.857421875000007 2.2451171875  17.362304687500004 5.3310546875  Z " stroke-width="0" stroke-dasharray="0" stroke="rgba(255, 255, 255, 0)" fill="none" transform="matrix(1 0 0 1 210 254 )" class="stroke" mask="url(#Clip1140)" />
  </g>
</svg>