<?xml version="1.0" encoding="utf-8"?>
<svg version="1.1" xmlns:xlink="http://www.w3.org/1999/xlink" width="266px" height="22px" xmlns="http://www.w3.org/2000/svg">
  <defs>
    <pattern id="BGPattern" patternUnits="userSpaceOnUse" alignment="0 0" imageRepeat="None" />
    <mask fill="white" id="Clip4712">
      <path d="M 1.0991735537190084 11  L 0 0  L 266 0  L 264.900826446281 11  C 264.900826446281 17.159999999999993  260.06446280991736 22  253.9090909090909 22  L 12.090909090909092 22  C 5.935537190082644 22  1.0991735537190084 17.159999999999993  1.0991735537190084 11  Z " fill-rule="evenodd" />
    </mask>
  </defs>
  <g transform="matrix(1 0 0 1 -47 -115 )">
    <path d="M 1.0991735537190084 11  L 0 0  L 266 0  L 264.900826446281 11  C 264.900826446281 17.159999999999993  260.06446280991736 22  253.9090909090909 22  L 12.090909090909092 22  C 5.935537190082644 22  1.0991735537190084 17.159999999999993  1.0991735537190084 11  Z " fill-rule="nonzero" fill="rgba(0, 0, 0, 0.4980392156862745)" stroke="none" transform="matrix(1 0 0 1 47 115 )" class="fill" />
    <path d="M 1.0991735537190084 11  L 0 0  L 266 0  L 264.900826446281 11  C 264.900826446281 17.159999999999993  260.06446280991736 22  253.9090909090909 22  L 12.090909090909092 22  C 5.935537190082644 22  1.0991735537190084 17.159999999999993  1.0991735537190084 11  Z " stroke-width="0" stroke-dasharray="0" stroke="rgba(121, 121, 121, 1)" fill="none" transform="matrix(1 0 0 1 47 115 )" class="stroke" mask="url(#Clip4712)" />
  </g>
</svg>