<?xml version="1.0" encoding="utf-8"?>
<svg version="1.1" xmlns:xlink="http://www.w3.org/1999/xlink" width="19px" height="28px" xmlns="http://www.w3.org/2000/svg">
  <defs>
    <pattern id="BGPattern" patternUnits="userSpaceOnUse" alignment="0 0" imageRepeat="None" />
    <mask fill="white" id="Clip5283">
      <path d="M 4.5404513113839275 2.11875  L 14.464995814732143 2.11875  C 14.434380580357146 2.819921875  14.329970703125005 3.49609375  14.152084263392855 4.15  L 4.853402622767858 4.15  C 4.675476422991072 3.4960937500000013  4.571026785714287 2.819921875000001  4.540491071428572 2.1187500000000012  Z M 13.947001953125001 23.759375  L 5.05844517299107 23.759375  C 4.835311802455356 24.417578125  4.683746512276786 25.094179687500002  4.602397460937499 25.790625000000002  L 14.403089425223218 25.790625000000002  C 14.321700613839285 25.094179687500002  14.170135323660713 24.417578125  13.947041713169643 23.759375  Z M 7.052490931919642 8.134375  C 6.480741489955356 7.473906250000001  6.009584960937499 6.796875  5.63647670200893 6.103125000000001  L 13.368970424107141 6.103125000000001  C 12.995862165178572 6.796875  12.524745396205356 7.473906250000001  11.952956194196428 8.134375  L 7.052490931919642 8.134375  Z M 11.259381975446429 11.624882812500001  C 15.225366908482146 8.410781250000001  16.936798270089287 4.659414062500003  16.466118861607136 0.2920703125000005  C 17.21458103488719 0.660170637478269  17.931640537960725 1.0869157410627228  18.610338309151782 1.5681640625000015  C 18.64663922991071 5.861210937500003  16.755253906249994 9.639218750000003  12.984808872767854 12.849257812500001  C 12.438068498883926 12.430585937500002  11.862859933035715 12.022382812500002  11.259381975446429 11.624882812500001  Z M 2.478892996651785 27.668242187500002  C 1.756333588003997 27.309368500563384  1.0633386848244153 26.895720455993228  0.40620186941964015 26.431054687499998  C 0.5672698102678553 22.28125  2.4595298549107127 18.615664062500002  6.041194196428569 15.4740234375  C 6.53982491629464 15.843828125000003  7.062112862723213 16.205078125  7.607819475446425 16.5575390625  C 7.667260742187497 16.595898437499997  7.7263044084821395 16.634375  7.784950474330354 16.672890624999997  C 4.025678013392854 19.815468749999997  2.2773890904017815 23.46125  2.4788929966517825 27.66828125  Z M 0.3955461774553557 1.564023437500006  C 1.074359487118205 1.0831535085197763  1.7914981215832961 0.6567876191509457  2.540004185267857 0.2890625  C 1.9909179687499987 5.373750000000001  4.399183872767856 9.623632812500002  9.879231305803572 13.1628125  C 15.461422293526786 16.767968749999998  18.395753348214285 21.215625000000003  18.59948381696429 26.427070312500007  C 17.94248548865929 26.89209748084465  17.24959648834205 27.306111482193433  16.52711077008929 27.6653515625  C 16.767500000000005 22.624375000000004  14.20802664620536 18.389296875000007  8.743565150669642 14.860156250000001  C 3.161732003348215 11.255234375000004  0.3498221261160724 6.791406250000004  0.3955461774553557 1.564023437500006  Z M 7.484444056919644 19.774999999999995  L 11.521003069196427 19.774999999999995  C 12.121141183035716 20.432343749999998  12.627684151785706 21.108710937499996  13.042540457589283 21.806249999999995  L 5.9629464285714295 21.806249999999995  C 6.377802734375002 21.108710937499996  6.884305943080358 20.432343749999998  7.484444056919644 19.774999999999995  Z " fill-rule="evenodd" />
    </mask>
  </defs>
  <g transform="matrix(1 0 0 1 1072 -1435 )">
    <path d="M 4.5404513113839275 2.11875  L 14.464995814732143 2.11875  C 14.434380580357146 2.819921875  14.329970703125005 3.49609375  14.152084263392855 4.15  L 4.853402622767858 4.15  C 4.675476422991072 3.4960937500000013  4.571026785714287 2.819921875000001  4.540491071428572 2.1187500000000012  Z M 13.947001953125001 23.759375  L 5.05844517299107 23.759375  C 4.835311802455356 24.417578125  4.683746512276786 25.094179687500002  4.602397460937499 25.790625000000002  L 14.403089425223218 25.790625000000002  C 14.321700613839285 25.094179687500002  14.170135323660713 24.417578125  13.947041713169643 23.759375  Z M 7.052490931919642 8.134375  C 6.480741489955356 7.473906250000001  6.009584960937499 6.796875  5.63647670200893 6.103125000000001  L 13.368970424107141 6.103125000000001  C 12.995862165178572 6.796875  12.524745396205356 7.473906250000001  11.952956194196428 8.134375  L 7.052490931919642 8.134375  Z M 11.259381975446429 11.624882812500001  C 15.225366908482146 8.410781250000001  16.936798270089287 4.659414062500003  16.466118861607136 0.2920703125000005  C 17.21458103488719 0.660170637478269  17.931640537960725 1.0869157410627228  18.610338309151782 1.5681640625000015  C 18.64663922991071 5.861210937500003  16.755253906249994 9.639218750000003  12.984808872767854 12.849257812500001  C 12.438068498883926 12.430585937500002  11.862859933035715 12.022382812500002  11.259381975446429 11.624882812500001  Z M 2.478892996651785 27.668242187500002  C 1.756333588003997 27.309368500563384  1.0633386848244153 26.895720455993228  0.40620186941964015 26.431054687499998  C 0.5672698102678553 22.28125  2.4595298549107127 18.615664062500002  6.041194196428569 15.4740234375  C 6.53982491629464 15.843828125000003  7.062112862723213 16.205078125  7.607819475446425 16.5575390625  C 7.667260742187497 16.595898437499997  7.7263044084821395 16.634375  7.784950474330354 16.672890624999997  C 4.025678013392854 19.815468749999997  2.2773890904017815 23.46125  2.4788929966517825 27.66828125  Z M 0.3955461774553557 1.564023437500006  C 1.074359487118205 1.0831535085197763  1.7914981215832961 0.6567876191509457  2.540004185267857 0.2890625  C 1.9909179687499987 5.373750000000001  4.399183872767856 9.623632812500002  9.879231305803572 13.1628125  C 15.461422293526786 16.767968749999998  18.395753348214285 21.215625000000003  18.59948381696429 26.427070312500007  C 17.94248548865929 26.89209748084465  17.24959648834205 27.306111482193433  16.52711077008929 27.6653515625  C 16.767500000000005 22.624375000000004  14.20802664620536 18.389296875000007  8.743565150669642 14.860156250000001  C 3.161732003348215 11.255234375000004  0.3498221261160724 6.791406250000004  0.3955461774553557 1.564023437500006  Z M 7.484444056919644 19.774999999999995  L 11.521003069196427 19.774999999999995  C 12.121141183035716 20.432343749999998  12.627684151785706 21.108710937499996  13.042540457589283 21.806249999999995  L 5.9629464285714295 21.806249999999995  C 6.377802734375002 21.108710937499996  6.884305943080358 20.432343749999998  7.484444056919644 19.774999999999995  Z " fill-rule="nonzero" fill="rgba(255, 255, 255, 1)" stroke="none" transform="matrix(1 0 0 1 -1072 1435 )" class="fill" />
    <path d="M 4.5404513113839275 2.11875  L 14.464995814732143 2.11875  C 14.434380580357146 2.819921875  14.329970703125005 3.49609375  14.152084263392855 4.15  L 4.853402622767858 4.15  C 4.675476422991072 3.4960937500000013  4.571026785714287 2.819921875000001  4.540491071428572 2.1187500000000012  Z " stroke-width="0" stroke-dasharray="0" stroke="rgba(255, 255, 255, 0)" fill="none" transform="matrix(1 0 0 1 -1072 1435 )" class="stroke" mask="url(#Clip5283)" />
    <path d="M 13.947001953125001 23.759375  L 5.05844517299107 23.759375  C 4.835311802455356 24.417578125  4.683746512276786 25.094179687500002  4.602397460937499 25.790625000000002  L 14.403089425223218 25.790625000000002  C 14.321700613839285 25.094179687500002  14.170135323660713 24.417578125  13.947041713169643 23.759375  Z " stroke-width="0" stroke-dasharray="0" stroke="rgba(255, 255, 255, 0)" fill="none" transform="matrix(1 0 0 1 -1072 1435 )" class="stroke" mask="url(#Clip5283)" />
    <path d="M 7.052490931919642 8.134375  C 6.480741489955356 7.473906250000001  6.009584960937499 6.796875  5.63647670200893 6.103125000000001  L 13.368970424107141 6.103125000000001  C 12.995862165178572 6.796875  12.524745396205356 7.473906250000001  11.952956194196428 8.134375  L 7.052490931919642 8.134375  Z " stroke-width="0" stroke-dasharray="0" stroke="rgba(255, 255, 255, 0)" fill="none" transform="matrix(1 0 0 1 -1072 1435 )" class="stroke" mask="url(#Clip5283)" />
    <path d="M 11.259381975446429 11.624882812500001  C 15.225366908482146 8.410781250000001  16.936798270089287 4.659414062500003  16.466118861607136 0.2920703125000005  C 17.21458103488719 0.660170637478269  17.931640537960725 1.0869157410627228  18.610338309151782 1.5681640625000015  C 18.64663922991071 5.861210937500003  16.755253906249994 9.639218750000003  12.984808872767854 12.849257812500001  C 12.438068498883926 12.430585937500002  11.862859933035715 12.022382812500002  11.259381975446429 11.624882812500001  Z " stroke-width="0" stroke-dasharray="0" stroke="rgba(255, 255, 255, 0)" fill="none" transform="matrix(1 0 0 1 -1072 1435 )" class="stroke" mask="url(#Clip5283)" />
    <path d="M 2.478892996651785 27.668242187500002  C 1.756333588003997 27.309368500563384  1.0633386848244153 26.895720455993228  0.40620186941964015 26.431054687499998  C 0.5672698102678553 22.28125  2.4595298549107127 18.615664062500002  6.041194196428569 15.4740234375  C 6.53982491629464 15.843828125000003  7.062112862723213 16.205078125  7.607819475446425 16.5575390625  C 7.667260742187497 16.595898437499997  7.7263044084821395 16.634375  7.784950474330354 16.672890624999997  C 4.025678013392854 19.815468749999997  2.2773890904017815 23.46125  2.4788929966517825 27.66828125  Z " stroke-width="0" stroke-dasharray="0" stroke="rgba(255, 255, 255, 0)" fill="none" transform="matrix(1 0 0 1 -1072 1435 )" class="stroke" mask="url(#Clip5283)" />
    <path d="M 0.3955461774553557 1.564023437500006  C 1.074359487118205 1.0831535085197763  1.7914981215832961 0.6567876191509457  2.540004185267857 0.2890625  C 1.9909179687499987 5.373750000000001  4.399183872767856 9.623632812500002  9.879231305803572 13.1628125  C 15.461422293526786 16.767968749999998  18.395753348214285 21.215625000000003  18.59948381696429 26.427070312500007  C 17.94248548865929 26.89209748084465  17.24959648834205 27.306111482193433  16.52711077008929 27.6653515625  C 16.767500000000005 22.624375000000004  14.20802664620536 18.389296875000007  8.743565150669642 14.860156250000001  C 3.161732003348215 11.255234375000004  0.3498221261160724 6.791406250000004  0.3955461774553557 1.564023437500006  Z " stroke-width="0" stroke-dasharray="0" stroke="rgba(255, 255, 255, 0)" fill="none" transform="matrix(1 0 0 1 -1072 1435 )" class="stroke" mask="url(#Clip5283)" />
    <path d="M 7.484444056919644 19.774999999999995  L 11.521003069196427 19.774999999999995  C 12.121141183035716 20.432343749999998  12.627684151785706 21.108710937499996  13.042540457589283 21.806249999999995  L 5.9629464285714295 21.806249999999995  C 6.377802734375002 21.108710937499996  6.884305943080358 20.432343749999998  7.484444056919644 19.774999999999995  Z " stroke-width="0" stroke-dasharray="0" stroke="rgba(255, 255, 255, 0)" fill="none" transform="matrix(1 0 0 1 -1072 1435 )" class="stroke" mask="url(#Clip5283)" />
  </g>
</svg>