<?xml version="1.0" encoding="utf-8"?>
<svg version="1.1" xmlns:xlink="http://www.w3.org/1999/xlink" width="12px" height="11px" xmlns="http://www.w3.org/2000/svg">
  <defs>
    <linearGradient gradientUnits="userSpaceOnUse" x1="0" y1="0" x2="12" y2="11" id="LinearGradient14098">
      <stop id="Stop14099" stop-color="#d9001b" offset="0" />
      <stop id="Stop14100" stop-color="#ec808d" offset="1" />
    </linearGradient>
    <pattern id="BGPattern" patternUnits="userSpaceOnUse" alignment="0 0" imageRepeat="None" />
    <mask fill="white" id="Clip14101">
      <path d="M 11.99457421875 4.347854352678572  C 11.99457421875 4.445811593191965  11.987121093750002 4.544712611607142  11.97778125 4.643924386160714  C 11.9644453125 4.642715890066964  11.95292578125 4.636293596540178  11.939261718750002 4.636293596540178  L 6.993515625 4.636293596540178  C 6.9783046875 4.627742047991071  6.967453124999999 4.614632742745536  6.950976562499999 4.607600446428571  C 6.707906250000001 4.507168666294643  6.428214843749999 4.619190499441965  6.325675781249999 4.857897251674107  L 6.047812499999999 5.505628138950894  L 5.063203125 3.3444918387276794  C 5.01905859375 3.2474323381696433  4.941363281249999 3.179353724888393  4.8530859374999995 3.131738978794643  C 4.81456640625 3.0978550502232145  4.77352734375 3.0658011300223222  4.723183593749999 3.044761788504465  C 4.480124999999999 2.9443300083705357  4.20043359375 3.0563403320312497  4.0978828125 3.2950585937500008  L 3.52287890625 4.636305106026787  L 0.16381640625000002 4.636305106026787  C 0.11376562499999998 4.636305106026787  0.068109375 4.650035923549107  0.022734374999999998 4.664089006696428  C 0.012140624999999995 4.558167201450893  0.004675781249999996 4.45255615234375  0.004675781249999996 4.347854352678572  C 0.004675781249999996 1.8881734793526788  1.4912226562500002 0.06068568638392868  3.8106914062499997 0.06068568638392868  C 4.648582031249999 0.06068568638392868  5.2167421874999995 0.34821568080357146  5.9996015625000005 1.000838099888393  C 6.783164062500001 0.34853794642857155  7.3509609375 0.06068568638392868  8.18855859375 0.06068568638392868  C 10.508062500000001 0.06068568638392868  11.99457421875 1.8881734793526788  11.99457421875 4.347854352678572  Z M 3.9828515625 5.573994489397323  C 4.24641796875 5.573994489397323  4.4602382812500005 5.364003906250001  4.460238281250001 5.10514404296875  C 4.460238281250001 5.047757742745535  4.445988281250002 4.994365234375  4.42700390625 4.943665945870535  L 4.5814804687500015 4.583177315848214  L 5.468179687500001 6.529132254464285  C 5.535621093750001 6.677489536830356  5.6739492187500025 6.765997488839286  5.825917968750002 6.791617606026786  C 5.867531250000001 6.831624581473213  5.915425781250001 6.866130022321428  5.972613281250002 6.889609374999999  C 6.215625000000001 6.99007568359375  6.49536328125 6.878341587611606  6.59790234375 6.63961181640625  L 7.05479296875 5.573994489397322  L 11.758980468749998 5.573994489397322  C 11.17904296875 7.149079241071427  9.511312499999999 8.853588169642856  6.77384765625 10.72074916294643  C 6.308273437499999 11.037582310267858  5.6913164062499995 11.037582310267858  5.225437499999999 10.72074916294643  C 2.4879375 8.853588169642856  0.82051171875 7.149067731584822  0.2402578125000001 5.573994489397323  L 3.9828515625 5.573994489397323  Z " fill-rule="evenodd" />
    </mask>
  </defs>
  <g transform="matrix(1 0 0 1 -390 -1970 )">
    <path d="M 11.99457421875 4.347854352678572  C 11.99457421875 4.445811593191965  11.987121093750002 4.544712611607142  11.97778125 4.643924386160714  C 11.9644453125 4.642715890066964  11.95292578125 4.636293596540178  11.939261718750002 4.636293596540178  L 6.993515625 4.636293596540178  C 6.9783046875 4.627742047991071  6.967453124999999 4.614632742745536  6.950976562499999 4.607600446428571  C 6.707906250000001 4.507168666294643  6.428214843749999 4.619190499441965  6.325675781249999 4.857897251674107  L 6.047812499999999 5.505628138950894  L 5.063203125 3.3444918387276794  C 5.01905859375 3.2474323381696433  4.941363281249999 3.179353724888393  4.8530859374999995 3.131738978794643  C 4.81456640625 3.0978550502232145  4.77352734375 3.0658011300223222  4.723183593749999 3.044761788504465  C 4.480124999999999 2.9443300083705357  4.20043359375 3.0563403320312497  4.0978828125 3.2950585937500008  L 3.52287890625 4.636305106026787  L 0.16381640625000002 4.636305106026787  C 0.11376562499999998 4.636305106026787  0.068109375 4.650035923549107  0.022734374999999998 4.664089006696428  C 0.012140624999999995 4.558167201450893  0.004675781249999996 4.45255615234375  0.004675781249999996 4.347854352678572  C 0.004675781249999996 1.8881734793526788  1.4912226562500002 0.06068568638392868  3.8106914062499997 0.06068568638392868  C 4.648582031249999 0.06068568638392868  5.2167421874999995 0.34821568080357146  5.9996015625000005 1.000838099888393  C 6.783164062500001 0.34853794642857155  7.3509609375 0.06068568638392868  8.18855859375 0.06068568638392868  C 10.508062500000001 0.06068568638392868  11.99457421875 1.8881734793526788  11.99457421875 4.347854352678572  Z M 3.9828515625 5.573994489397323  C 4.24641796875 5.573994489397323  4.4602382812500005 5.364003906250001  4.460238281250001 5.10514404296875  C 4.460238281250001 5.047757742745535  4.445988281250002 4.994365234375  4.42700390625 4.943665945870535  L 4.5814804687500015 4.583177315848214  L 5.468179687500001 6.529132254464285  C 5.535621093750001 6.677489536830356  5.6739492187500025 6.765997488839286  5.825917968750002 6.791617606026786  C 5.867531250000001 6.831624581473213  5.915425781250001 6.866130022321428  5.972613281250002 6.889609374999999  C 6.215625000000001 6.99007568359375  6.49536328125 6.878341587611606  6.59790234375 6.63961181640625  L 7.05479296875 5.573994489397322  L 11.758980468749998 5.573994489397322  C 11.17904296875 7.149079241071427  9.511312499999999 8.853588169642856  6.77384765625 10.72074916294643  C 6.308273437499999 11.037582310267858  5.6913164062499995 11.037582310267858  5.225437499999999 10.72074916294643  C 2.4879375 8.853588169642856  0.82051171875 7.149067731584822  0.2402578125000001 5.573994489397323  L 3.9828515625 5.573994489397323  Z " fill-rule="nonzero" fill="url(#LinearGradient14098)" stroke="none" transform="matrix(1 0 0 1 390 1970 )" class="fill" />
    <path d="M 11.99457421875 4.347854352678572  C 11.99457421875 4.445811593191965  11.987121093750002 4.544712611607142  11.97778125 4.643924386160714  C 11.9644453125 4.642715890066964  11.95292578125 4.636293596540178  11.939261718750002 4.636293596540178  L 6.993515625 4.636293596540178  C 6.9783046875 4.627742047991071  6.967453124999999 4.614632742745536  6.950976562499999 4.607600446428571  C 6.707906250000001 4.507168666294643  6.428214843749999 4.619190499441965  6.325675781249999 4.857897251674107  L 6.047812499999999 5.505628138950894  L 5.063203125 3.3444918387276794  C 5.01905859375 3.2474323381696433  4.941363281249999 3.179353724888393  4.8530859374999995 3.131738978794643  C 4.81456640625 3.0978550502232145  4.77352734375 3.0658011300223222  4.723183593749999 3.044761788504465  C 4.480124999999999 2.9443300083705357  4.20043359375 3.0563403320312497  4.0978828125 3.2950585937500008  L 3.52287890625 4.636305106026787  L 0.16381640625000002 4.636305106026787  C 0.11376562499999998 4.636305106026787  0.068109375 4.650035923549107  0.022734374999999998 4.664089006696428  C 0.012140624999999995 4.558167201450893  0.004675781249999996 4.45255615234375  0.004675781249999996 4.347854352678572  C 0.004675781249999996 1.8881734793526788  1.4912226562500002 0.06068568638392868  3.8106914062499997 0.06068568638392868  C 4.648582031249999 0.06068568638392868  5.2167421874999995 0.34821568080357146  5.9996015625000005 1.000838099888393  C 6.783164062500001 0.34853794642857155  7.3509609375 0.06068568638392868  8.18855859375 0.06068568638392868  C 10.508062500000001 0.06068568638392868  11.99457421875 1.8881734793526788  11.99457421875 4.347854352678572  Z " stroke-width="0" stroke-dasharray="0" stroke="rgba(255, 255, 255, 0)" fill="none" transform="matrix(1 0 0 1 390 1970 )" class="stroke" mask="url(#Clip14101)" />
    <path d="M 3.9828515625 5.573994489397323  C 4.24641796875 5.573994489397323  4.4602382812500005 5.364003906250001  4.460238281250001 5.10514404296875  C 4.460238281250001 5.047757742745535  4.445988281250002 4.994365234375  4.42700390625 4.943665945870535  L 4.5814804687500015 4.583177315848214  L 5.468179687500001 6.529132254464285  C 5.535621093750001 6.677489536830356  5.6739492187500025 6.765997488839286  5.825917968750002 6.791617606026786  C 5.867531250000001 6.831624581473213  5.915425781250001 6.866130022321428  5.972613281250002 6.889609374999999  C 6.215625000000001 6.99007568359375  6.49536328125 6.878341587611606  6.59790234375 6.63961181640625  L 7.05479296875 5.573994489397322  L 11.758980468749998 5.573994489397322  C 11.17904296875 7.149079241071427  9.511312499999999 8.853588169642856  6.77384765625 10.72074916294643  C 6.308273437499999 11.037582310267858  5.6913164062499995 11.037582310267858  5.225437499999999 10.72074916294643  C 2.4879375 8.853588169642856  0.82051171875 7.149067731584822  0.2402578125000001 5.573994489397323  L 3.9828515625 5.573994489397323  Z " stroke-width="0" stroke-dasharray="0" stroke="rgba(255, 255, 255, 0)" fill="none" transform="matrix(1 0 0 1 390 1970 )" class="stroke" mask="url(#Clip14101)" />
  </g>
</svg>