<?xml version="1.0" encoding="utf-8"?>
<svg version="1.1" xmlns:xlink="http://www.w3.org/1999/xlink" width="40px" height="37px" xmlns="http://www.w3.org/2000/svg">
  <defs>
    <pattern id="BGPattern" patternUnits="userSpaceOnUse" alignment="0 0" imageRepeat="None" />
    <mask fill="white" id="Clip6562">
      <path d="M 39.9819140625 14.624601004464287  C 39.9819140625 14.954093540736608  39.9570703125 15.286760602678571  39.9259375 15.620472935267857  C 39.881484375 15.616407993861605  39.8430859375 15.594805733816962  39.79753906250001 16  L 23.311718749999997 16  C 23.261015625 15.566041434151785  23.224843749999998 15.521946498325894  23.169921875 15.498292410714285  C 22.3596875 15.16047642299107  21.4273828125 15.537277134486608  21.0855859375 16.340199846540177  L 20.159374999999997 18.518931012834823  L 16.87734375 11.249654366629466  C 16.730195312499998 10.923181501116073  16.471210937499997 10.694189801897322  16.176953124999997 10.534031110491071  C 16.048554687499998 10.420057896205357  15.911757812499998 10.312240164620539  15.7439453125 10.24147147042411  C 14.93375 9.903655482700893  14.001445312499998 10.28041748046875  13.659609374999999 11.083378906250003  L 11.742929687499998 16  L 0.5460546875000001 16  C 0.37921874999999994 15.594844447544645  0.22703124999999996 15.64102992466518  0.07578125 15.688299386160713  C 0.040468749999999984 15.332016950334824  0.015585937499999985 14.976779785156248  0.015585937499999985 14.624601004464287  C 0.015585937499999985 6.351128976004465  4.9707421875 0.20412458147321466  12.7023046875 0.20412458147321466  C 15.4952734375 0.20412458147321466  17.389140625 1.1712709263392858  19.998671875 3.366455426897322  C 22.610546875 1.172354910714286  24.503203125000002 0.20412458147321466  27.295195312500002 0.20412458147321466  C 35.026875000000004 0.20412458147321466  39.9819140625 6.351128976004465  39.9819140625 14.624601004464287  Z M 13.276171875 18.74889055524554  C 14.154726562499999 18.74889055524554  14.8674609375 18.04255859375  14.867460937500002 17.17184814453125  C 14.867460937500002 16.978821498325892  14.819960937500005 16.799228515625  14.756679687500004 16.62869454520089  L 15.271601562500003 15.416141880580357  L 18.227265625000005 21.96162667410714  C 18.452070312500005 22.460646623883925  18.91316406250001 22.758355189732143  19.419726562500003 22.844531947544642  C 19.558437500000004 22.979100864955356  19.718085937500003 23.095164620535712  19.908710937500004 23.174140624999996  C 20.718750000000004 23.51207275390625  21.651210937500004 23.136239885602677  21.993007812500004 22.33323974609375  L 23.5159765625 18.748890555245538  L 39.19660156249999 18.748890555245538  C 37.2634765625 24.04690290178571  31.704375 29.78025111607143  22.579492187499998 36.06070172991072  C 21.027578124999998 37.126413225446434  18.9710546875 37.126413225446434  17.418124999999996 36.06070172991072  C 8.293125 29.78025111607143  2.7350390625 24.046864188058038  0.8008593750000004 18.74889055524554  L 13.276171875 18.74889055524554  Z " fill-rule="evenodd" />
    </mask>
  </defs>
  <g transform="matrix(1 0 0 1 1006 -1431 )">
    <path d="M 39.9819140625 14.624601004464287  C 39.9819140625 14.954093540736608  39.9570703125 15.286760602678571  39.9259375 15.620472935267857  C 39.881484375 15.616407993861605  39.8430859375 15.594805733816962  39.79753906250001 16  L 23.311718749999997 16  C 23.261015625 15.566041434151785  23.224843749999998 15.521946498325894  23.169921875 15.498292410714285  C 22.3596875 15.16047642299107  21.4273828125 15.537277134486608  21.0855859375 16.340199846540177  L 20.159374999999997 18.518931012834823  L 16.87734375 11.249654366629466  C 16.730195312499998 10.923181501116073  16.471210937499997 10.694189801897322  16.176953124999997 10.534031110491071  C 16.048554687499998 10.420057896205357  15.911757812499998 10.312240164620539  15.7439453125 10.24147147042411  C 14.93375 9.903655482700893  14.001445312499998 10.28041748046875  13.659609374999999 11.083378906250003  L 11.742929687499998 16  L 0.5460546875000001 16  C 0.37921874999999994 15.594844447544645  0.22703124999999996 15.64102992466518  0.07578125 15.688299386160713  C 0.040468749999999984 15.332016950334824  0.015585937499999985 14.976779785156248  0.015585937499999985 14.624601004464287  C 0.015585937499999985 6.351128976004465  4.9707421875 0.20412458147321466  12.7023046875 0.20412458147321466  C 15.4952734375 0.20412458147321466  17.389140625 1.1712709263392858  19.998671875 3.366455426897322  C 22.610546875 1.172354910714286  24.503203125000002 0.20412458147321466  27.295195312500002 0.20412458147321466  C 35.026875000000004 0.20412458147321466  39.9819140625 6.351128976004465  39.9819140625 14.624601004464287  Z M 13.276171875 18.74889055524554  C 14.154726562499999 18.74889055524554  14.8674609375 18.04255859375  14.867460937500002 17.17184814453125  C 14.867460937500002 16.978821498325892  14.819960937500005 16.799228515625  14.756679687500004 16.62869454520089  L 15.271601562500003 15.416141880580357  L 18.227265625000005 21.96162667410714  C 18.452070312500005 22.460646623883925  18.91316406250001 22.758355189732143  19.419726562500003 22.844531947544642  C 19.558437500000004 22.979100864955356  19.718085937500003 23.095164620535712  19.908710937500004 23.174140624999996  C 20.718750000000004 23.51207275390625  21.651210937500004 23.136239885602677  21.993007812500004 22.33323974609375  L 23.5159765625 18.748890555245538  L 39.19660156249999 18.748890555245538  C 37.2634765625 24.04690290178571  31.704375 29.78025111607143  22.579492187499998 36.06070172991072  C 21.027578124999998 37.126413225446434  18.9710546875 37.126413225446434  17.418124999999996 36.06070172991072  C 8.293125 29.78025111607143  2.7350390625 24.046864188058038  0.8008593750000004 18.74889055524554  L 13.276171875 18.74889055524554  Z " fill-rule="nonzero" fill="rgba(255, 255, 255, 1)" stroke="none" transform="matrix(1 0 0 1 -1006 1431 )" class="fill" />
    <path d="M 39.9819140625 14.624601004464287  C 39.9819140625 14.954093540736608  39.9570703125 15.286760602678571  39.9259375 15.620472935267857  C 39.881484375 15.616407993861605  39.8430859375 15.594805733816962  39.79753906250001 16  L 23.311718749999997 16  C 23.261015625 15.566041434151785  23.224843749999998 15.521946498325894  23.169921875 15.498292410714285  C 22.3596875 15.16047642299107  21.4273828125 15.537277134486608  21.0855859375 16.340199846540177  L 20.159374999999997 18.518931012834823  L 16.87734375 11.249654366629466  C 16.730195312499998 10.923181501116073  16.471210937499997 10.694189801897322  16.176953124999997 10.534031110491071  C 16.048554687499998 10.420057896205357  15.911757812499998 10.312240164620539  15.7439453125 10.24147147042411  C 14.93375 9.903655482700893  14.001445312499998 10.28041748046875  13.659609374999999 11.083378906250003  L 11.742929687499998 16  L 0.5460546875000001 16  C 0.37921874999999994 15.594844447544645  0.22703124999999996 15.64102992466518  0.07578125 15.688299386160713  C 0.040468749999999984 15.332016950334824  0.015585937499999985 14.976779785156248  0.015585937499999985 14.624601004464287  C 0.015585937499999985 6.351128976004465  4.9707421875 0.20412458147321466  12.7023046875 0.20412458147321466  C 15.4952734375 0.20412458147321466  17.389140625 1.1712709263392858  19.998671875 3.366455426897322  C 22.610546875 1.172354910714286  24.503203125000002 0.20412458147321466  27.295195312500002 0.20412458147321466  C 35.026875000000004 0.20412458147321466  39.9819140625 6.351128976004465  39.9819140625 14.624601004464287  Z " stroke-width="0" stroke-dasharray="0" stroke="rgba(255, 255, 255, 0)" fill="none" transform="matrix(1 0 0 1 -1006 1431 )" class="stroke" mask="url(#Clip6562)" />
    <path d="M 13.276171875 18.74889055524554  C 14.154726562499999 18.74889055524554  14.8674609375 18.04255859375  14.867460937500002 17.17184814453125  C 14.867460937500002 16.978821498325892  14.819960937500005 16.799228515625  14.756679687500004 16.62869454520089  L 15.271601562500003 15.416141880580357  L 18.227265625000005 21.96162667410714  C 18.452070312500005 22.460646623883925  18.91316406250001 22.758355189732143  19.419726562500003 22.844531947544642  C 19.558437500000004 22.979100864955356  19.718085937500003 23.095164620535712  19.908710937500004 23.174140624999996  C 20.718750000000004 23.51207275390625  21.651210937500004 23.136239885602677  21.993007812500004 22.33323974609375  L 23.5159765625 18.748890555245538  L 39.19660156249999 18.748890555245538  C 37.2634765625 24.04690290178571  31.704375 29.78025111607143  22.579492187499998 36.06070172991072  C 21.027578124999998 37.126413225446434  18.9710546875 37.126413225446434  17.418124999999996 36.06070172991072  C 8.293125 29.78025111607143  2.7350390625 24.046864188058038  0.8008593750000004 18.74889055524554  L 13.276171875 18.74889055524554  Z " stroke-width="0" stroke-dasharray="0" stroke="rgba(255, 255, 255, 0)" fill="none" transform="matrix(1 0 0 1 -1006 1431 )" class="stroke" mask="url(#Clip6562)" />
  </g>
</svg>