<?xml version="1.0" encoding="utf-8"?>
<svg version="1.1" xmlns:xlink="http://www.w3.org/1999/xlink" width="101px" height="28px" xmlns="http://www.w3.org/2000/svg">
  <defs>
    <linearGradient gradientUnits="userSpaceOnUse" x1="0" y1="0" x2="101" y2="28" id="LinearGradient918">
      <stop id="Stop919" stop-color="#ec91ff" offset="0" />
      <stop id="Stop920" stop-color="#9b6dfc" offset="1" />
    </linearGradient>
    <pattern id="BGPattern" patternUnits="userSpaceOnUse" alignment="0 0" imageRepeat="None" />
    <mask fill="white" id="Clip921">
      <path d="M 14.000000000000002 28  C 6.16 28  0 21.84  0 14  C 0 6.159999999999999  6.16 0  14.000000000000002 0  L 87 0  C 94.83999999999999 0  101 6.159999999999999  101 14  C 101 21.84  94.83999999999999 28  87 28  L 14.000000000000002 28  Z " fill-rule="evenodd" />
    </mask>
  </defs>
  <g transform="matrix(1 0 0 1 929 -1526 )">
    <path d="M 14.000000000000002 28  C 6.16 28  0 21.84  0 14  C 0 6.159999999999999  6.16 0  14.000000000000002 0  L 87 0  C 94.83999999999999 0  101 6.159999999999999  101 14  C 101 21.84  94.83999999999999 28  87 28  L 14.000000000000002 28  Z " fill-rule="nonzero" fill="url(#LinearGradient918)" stroke="none" transform="matrix(1 0 0 1 -929 1526 )" class="fill" />
    <path d="M 14.000000000000002 28  C 6.16 28  0 21.84  0 14  C 0 6.159999999999999  6.16 0  14.000000000000002 0  L 87 0  C 94.83999999999999 0  101 6.159999999999999  101 14  C 101 21.84  94.83999999999999 28  87 28  L 14.000000000000002 28  Z " stroke-width="0" stroke-dasharray="0" stroke="rgba(121, 121, 121, 1)" fill="none" transform="matrix(1 0 0 1 -929 1526 )" class="stroke" mask="url(#Clip921)" />
  </g>
</svg>