<?xml version="1.0" encoding="utf-8"?>
<svg version="1.1" xmlns:xlink="http://www.w3.org/1999/xlink" width="120px" height="10px" xmlns="http://www.w3.org/2000/svg">
  <defs>
    <linearGradient gradientUnits="userSpaceOnUse" x1="0" y1="0" x2="120" y2="10" id="LinearGradient8852">
      <stop id="Stop8853" stop-color="#d9001b" stop-opacity="0.8" offset="0" />
      <stop id="Stop8854" stop-color="#02a7f0" stop-opacity="0.8" offset="1" />
    </linearGradient>
    <pattern id="BGPattern" patternUnits="userSpaceOnUse" alignment="0 0" imageRepeat="None" />
    <mask fill="white" id="Clip8855">
      <path d="M 0 10  L 0 5  C 0 2.1999999999999997  2.1999999999999997 0  5 0  L 115 0  C 117.8 0  120 2.1999999999999997  120 5  L 120 10  L 0 10  Z " fill-rule="evenodd" />
    </mask>
  </defs>
  <g transform="matrix(1 0 0 1 -540 -4002 )">
    <path d="M 0 10  L 0 5  C 0 2.1999999999999997  2.1999999999999997 0  5 0  L 115 0  C 117.8 0  120 2.1999999999999997  120 5  L 120 10  L 0 10  Z " fill-rule="nonzero" fill="url(#LinearGradient8852)" stroke="none" transform="matrix(1 0 0 1 540 4002 )" class="fill" />
    <path d="M 0 10  L 0 5  C 0 2.1999999999999997  2.1999999999999997 0  5 0  L 115 0  C 117.8 0  120 2.1999999999999997  120 5  L 120 10  L 0 10  Z " stroke-width="0" stroke-dasharray="0" stroke="rgba(121, 121, 121, 1)" fill="none" transform="matrix(1 0 0 1 540 4002 )" class="stroke" mask="url(#Clip8855)" />
  </g>
</svg>