<?xml version="1.0" encoding="utf-8"?>
<svg version="1.1" xmlns:xlink="http://www.w3.org/1999/xlink" width="4px" height="7px" xmlns="http://www.w3.org/2000/svg">
  <defs>
    <pattern id="BGPattern" patternUnits="userSpaceOnUse" alignment="0 0" imageRepeat="None" />
    <mask fill="white" id="Clip1940">
      <path d="M 3.3958333300781254 0.7083333300781254  C 3.062500000000001 0.40833333007812556  2.629166660156251 0.2666666601562504  2.0875000000000004 0.2666666699218747  C 1.4791666699218755 0.2666666699218747  0.9958333300781259 0.441666669921875  0.6458333300781254 0.7999999999999998  C 0.28750000000000053 1.1499999999999995  0.11250000000000027 1.625  0.11250000000000027 2.233333330078125  L 0.995833330078125 2.233333330078125  C 0.995833330078125 1.86666666015625  1.0708333300781252 1.5750000000000002  1.2208333300781256 1.375  C 1.3875000000000002 1.1416666699218752  1.6625000000000005 1.025  2.0375000000000005 1.025  C 2.3375000000000004 1.025  2.570833330078125 1.1083333300781253  2.7375 1.2750000000000004  C 2.8958333300781254 1.441666669921875  2.9791666699218746 1.6666666699218755  2.9791666699218746 1.9583333300781252  C 2.9791666699218746 2.1750000000000007  2.9041666699218753 2.375000000000001  2.754166669921875 2.566666669921876  L 2.6125000000000007 2.7250000000000005  C 2.0958333300781256 3.183333330078125  1.7791666699218753 3.525000000000001  1.6625000000000005 3.758333330078125  C 1.5541666699218757 3.9749999999999996  1.5041666699218759 4.24166666015625  1.5041666699218759 4.550000000000001  L 1.5041666699218759 4.691666669921875  L 2.3958333300781263 4.691666669921875  L 2.3958333300781263 4.550000000000001  C 2.3958333300781263 4.341666669921874  2.437500000000001 4.158333330078126  2.5291666699218753 3.9916666699218757  C 2.6041666699218755 3.8416666699218753  2.7208333398437503 3.700000000000001  2.870833330078126 3.566666669921876  C 3.2708333300781263 3.2250000000000005  3.504166660156251 3.0083333398437517  3.579166669921875 2.9166666699218755  C 3.7791666699218753 2.6500000000000004  3.887500000000001 2.3083333398437507  3.887500000000001 1.9000000000000006  C 3.887500000000001 1.4000000000000008  3.7208333300781256 1.0000000000000004  3.3958333300781254 0.7083333300781254  Z M 2.387500000000001 5.308333330078124  C 2.2708333300781254 5.1916666601562484  2.120833330078126 5.141666660156249  1.9458333300781252 5.141666669921874  C 1.7708333300781254 5.141666669921874  1.6291666601562502 5.191666669921874  1.5208333300781254 5.308333330078125  C 1.3958333300781254 5.416666660156251  1.3375000000000004 5.558333330078125  1.3375000000000004 5.733333330078125  C 1.3375000000000004 5.9  1.3958333300781263 6.041666660156251  1.5208333300781254 6.158333330078126  C 1.6291666601562502 6.275  1.7708333300781263 6.3333333300781245  1.9458333300781252 6.3333333300781245  C 2.1125000000000007 6.3333333300781245  2.2625 6.274999999999999  2.387500000000001 6.166666669921874  C 2.504166669921876 6.049999999999999  2.5625 5.9083333398437485  2.5625 5.733333330078124  C 2.5625 5.558333330078124  2.504166669921875 5.416666660156249  2.387500000000001 5.308333330078124  Z " fill-rule="evenodd" />
    </mask>
  </defs>
  <g transform="matrix(1 0 0 1 895 -1484 )">
    <path d="M 3.3958333300781254 0.7083333300781254  C 3.062500000000001 0.40833333007812556  2.629166660156251 0.2666666601562504  2.0875000000000004 0.2666666699218747  C 1.4791666699218755 0.2666666699218747  0.9958333300781259 0.441666669921875  0.6458333300781254 0.7999999999999998  C 0.28750000000000053 1.1499999999999995  0.11250000000000027 1.625  0.11250000000000027 2.233333330078125  L 0.995833330078125 2.233333330078125  C 0.995833330078125 1.86666666015625  1.0708333300781252 1.5750000000000002  1.2208333300781256 1.375  C 1.3875000000000002 1.1416666699218752  1.6625000000000005 1.025  2.0375000000000005 1.025  C 2.3375000000000004 1.025  2.570833330078125 1.1083333300781253  2.7375 1.2750000000000004  C 2.8958333300781254 1.441666669921875  2.9791666699218746 1.6666666699218755  2.9791666699218746 1.9583333300781252  C 2.9791666699218746 2.1750000000000007  2.9041666699218753 2.375000000000001  2.754166669921875 2.566666669921876  L 2.6125000000000007 2.7250000000000005  C 2.0958333300781256 3.183333330078125  1.7791666699218753 3.525000000000001  1.6625000000000005 3.758333330078125  C 1.5541666699218757 3.9749999999999996  1.5041666699218759 4.24166666015625  1.5041666699218759 4.550000000000001  L 1.5041666699218759 4.691666669921875  L 2.3958333300781263 4.691666669921875  L 2.3958333300781263 4.550000000000001  C 2.3958333300781263 4.341666669921874  2.437500000000001 4.158333330078126  2.5291666699218753 3.9916666699218757  C 2.6041666699218755 3.8416666699218753  2.7208333398437503 3.700000000000001  2.870833330078126 3.566666669921876  C 3.2708333300781263 3.2250000000000005  3.504166660156251 3.0083333398437517  3.579166669921875 2.9166666699218755  C 3.7791666699218753 2.6500000000000004  3.887500000000001 2.3083333398437507  3.887500000000001 1.9000000000000006  C 3.887500000000001 1.4000000000000008  3.7208333300781256 1.0000000000000004  3.3958333300781254 0.7083333300781254  Z M 2.387500000000001 5.308333330078124  C 2.2708333300781254 5.1916666601562484  2.120833330078126 5.141666660156249  1.9458333300781252 5.141666669921874  C 1.7708333300781254 5.141666669921874  1.6291666601562502 5.191666669921874  1.5208333300781254 5.308333330078125  C 1.3958333300781254 5.416666660156251  1.3375000000000004 5.558333330078125  1.3375000000000004 5.733333330078125  C 1.3375000000000004 5.9  1.3958333300781263 6.041666660156251  1.5208333300781254 6.158333330078126  C 1.6291666601562502 6.275  1.7708333300781263 6.3333333300781245  1.9458333300781252 6.3333333300781245  C 2.1125000000000007 6.3333333300781245  2.2625 6.274999999999999  2.387500000000001 6.166666669921874  C 2.504166669921876 6.049999999999999  2.5625 5.9083333398437485  2.5625 5.733333330078124  C 2.5625 5.558333330078124  2.504166669921875 5.416666660156249  2.387500000000001 5.308333330078124  Z " fill-rule="nonzero" fill="rgba(255, 255, 255, 1)" stroke="none" transform="matrix(1 0 0 1 -895 1484 )" class="fill" />
    <path d="M 3.3958333300781254 0.7083333300781254  C 3.062500000000001 0.40833333007812556  2.629166660156251 0.2666666601562504  2.0875000000000004 0.2666666699218747  C 1.4791666699218755 0.2666666699218747  0.9958333300781259 0.441666669921875  0.6458333300781254 0.7999999999999998  C 0.28750000000000053 1.1499999999999995  0.11250000000000027 1.625  0.11250000000000027 2.233333330078125  L 0.995833330078125 2.233333330078125  C 0.995833330078125 1.86666666015625  1.0708333300781252 1.5750000000000002  1.2208333300781256 1.375  C 1.3875000000000002 1.1416666699218752  1.6625000000000005 1.025  2.0375000000000005 1.025  C 2.3375000000000004 1.025  2.570833330078125 1.1083333300781253  2.7375 1.2750000000000004  C 2.8958333300781254 1.441666669921875  2.9791666699218746 1.6666666699218755  2.9791666699218746 1.9583333300781252  C 2.9791666699218746 2.1750000000000007  2.9041666699218753 2.375000000000001  2.754166669921875 2.566666669921876  L 2.6125000000000007 2.7250000000000005  C 2.0958333300781256 3.183333330078125  1.7791666699218753 3.525000000000001  1.6625000000000005 3.758333330078125  C 1.5541666699218757 3.9749999999999996  1.5041666699218759 4.24166666015625  1.5041666699218759 4.550000000000001  L 1.5041666699218759 4.691666669921875  L 2.3958333300781263 4.691666669921875  L 2.3958333300781263 4.550000000000001  C 2.3958333300781263 4.341666669921874  2.437500000000001 4.158333330078126  2.5291666699218753 3.9916666699218757  C 2.6041666699218755 3.8416666699218753  2.7208333398437503 3.700000000000001  2.870833330078126 3.566666669921876  C 3.2708333300781263 3.2250000000000005  3.504166660156251 3.0083333398437517  3.579166669921875 2.9166666699218755  C 3.7791666699218753 2.6500000000000004  3.887500000000001 2.3083333398437507  3.887500000000001 1.9000000000000006  C 3.887500000000001 1.4000000000000008  3.7208333300781256 1.0000000000000004  3.3958333300781254 0.7083333300781254  Z " stroke-width="0" stroke-dasharray="0" stroke="rgba(255, 255, 255, 0)" fill="none" transform="matrix(1 0 0 1 -895 1484 )" class="stroke" mask="url(#Clip1940)" />
    <path d="M 2.387500000000001 5.308333330078124  C 2.2708333300781254 5.1916666601562484  2.120833330078126 5.141666660156249  1.9458333300781252 5.141666669921874  C 1.7708333300781254 5.141666669921874  1.6291666601562502 5.191666669921874  1.5208333300781254 5.308333330078125  C 1.3958333300781254 5.416666660156251  1.3375000000000004 5.558333330078125  1.3375000000000004 5.733333330078125  C 1.3375000000000004 5.9  1.3958333300781263 6.041666660156251  1.5208333300781254 6.158333330078126  C 1.6291666601562502 6.275  1.7708333300781263 6.3333333300781245  1.9458333300781252 6.3333333300781245  C 2.1125000000000007 6.3333333300781245  2.2625 6.274999999999999  2.387500000000001 6.166666669921874  C 2.504166669921876 6.049999999999999  2.5625 5.9083333398437485  2.5625 5.733333330078124  C 2.5625 5.558333330078124  2.504166669921875 5.416666660156249  2.387500000000001 5.308333330078124  Z " stroke-width="0" stroke-dasharray="0" stroke="rgba(255, 255, 255, 0)" fill="none" transform="matrix(1 0 0 1 -895 1484 )" class="stroke" mask="url(#Clip1940)" />
  </g>
</svg>