<?xml version="1.0" encoding="utf-8"?>
<svg version="1.1" xmlns:xlink="http://www.w3.org/1999/xlink" width="135px" height="30px" xmlns="http://www.w3.org/2000/svg">
  <defs>
    <linearGradient gradientUnits="userSpaceOnUse" x1="0" y1="0" x2="135" y2="30" id="LinearGradient5113">
      <stop id="Stop5114" stop-color="#ec91ff" offset="0" />
      <stop id="Stop5115" stop-color="#9b6dfc" offset="1" />
    </linearGradient>
    <pattern id="BGPattern" patternUnits="userSpaceOnUse" alignment="0 0" imageRepeat="None" />
    <mask fill="white" id="Clip5116">
      <path d="M 15 30  C 6.599999999999999 30  0 23.400000000000002  0 15  C 0 6.6  6.599999999999999 0  15 0  L 120 0  C 128.4 0  135 6.6  135 15  C 135 23.400000000000002  128.4 30  120 30  L 15 30  Z " fill-rule="evenodd" />
    </mask>
  </defs>
  <g transform="matrix(1 0 0 1 -1408 -2649 )">
    <path d="M 15 30  C 6.599999999999999 30  0 23.400000000000002  0 15  C 0 6.6  6.599999999999999 0  15 0  L 120 0  C 128.4 0  135 6.6  135 15  C 135 23.400000000000002  128.4 30  120 30  L 15 30  Z " fill-rule="nonzero" fill="url(#LinearGradient5113)" stroke="none" transform="matrix(1 0 0 1 1408 2649 )" class="fill" />
    <path d="M 15 30  C 6.599999999999999 30  0 23.400000000000002  0 15  C 0 6.6  6.599999999999999 0  15 0  L 120 0  C 128.4 0  135 6.6  135 15  C 135 23.400000000000002  128.4 30  120 30  L 15 30  Z " stroke-width="0" stroke-dasharray="0" stroke="rgba(121, 121, 121, 1)" fill="none" transform="matrix(1 0 0 1 1408 2649 )" class="stroke" mask="url(#Clip5116)" />
  </g>
</svg>