<?xml version="1.0" encoding="utf-8"?>
<svg version="1.1" xmlns:xlink="http://www.w3.org/1999/xlink" width="56px" height="56px" xmlns="http://www.w3.org/2000/svg">
  <defs>
    <linearGradient gradientUnits="userSpaceOnUse" x1="0" y1="0" x2="56" y2="56" id="LinearGradient20075">
      <stop id="Stop20076" stop-color="#ec91ff" offset="0" />
      <stop id="Stop20077" stop-color="#9b6dfc" offset="1" />
    </linearGradient>
    <pattern id="BGPattern" patternUnits="userSpaceOnUse" alignment="0 0" imageRepeat="None" />
    <mask fill="white" id="Clip20078">
      <path d="M 28 56  C 12.319999999999999 56  0 43.68  0 28  C 0 12.319999999999999  12.319999999999999 0  28 0  C 43.68 0  56 12.319999999999999  56 28  C 56 43.68  43.68 56  28 56  Z " fill-rule="evenodd" />
    </mask>
  </defs>
  <g transform="matrix(1 0 0 1 1153 -648 )">
    <path d="M 28 56  C 12.319999999999999 56  0 43.68  0 28  C 0 12.319999999999999  12.319999999999999 0  28 0  C 43.68 0  56 12.319999999999999  56 28  C 56 43.68  43.68 56  28 56  Z " fill-rule="nonzero" fill="url(#LinearGradient20075)" stroke="none" transform="matrix(1 0 0 1 -1153 648 )" class="fill" />
    <path d="M 28 56  C 12.319999999999999 56  0 43.68  0 28  C 0 12.319999999999999  12.319999999999999 0  28 0  C 43.68 0  56 12.319999999999999  56 28  C 56 43.68  43.68 56  28 56  Z " stroke-width="0" stroke-dasharray="0" stroke="rgba(121, 121, 121, 1)" fill="none" transform="matrix(1 0 0 1 -1153 648 )" class="stroke" mask="url(#Clip20078)" />
  </g>
</svg>