<?xml version="1.0" encoding="utf-8"?>
<svg version="1.1" xmlns:xlink="http://www.w3.org/1999/xlink" width="20px" height="20px" xmlns="http://www.w3.org/2000/svg">
  <defs>
    <pattern id="BGPattern" patternUnits="userSpaceOnUse" alignment="0 0" imageRepeat="None" />
    <mask fill="white" id="Clip21492">
      <path d="M 3.333333333333332 6.666666640624996  L 6.666666666666668 6.666666640624996  L 6.666666666666668 3.333333359375004  C 6.666666666666668 1.3333333789062536  8.000000023437503 0  10.000000000000004 0  C 11.999999976562506 0  13.333333333333336 1.3333333789062536  13.333333333333336 3.333333359375004  L 13.333333333333336 6.666666640624996  L 16.666666666666668 6.666666640624996  C 18.666666643229167 6.666666640624996  20 7.999999999999993  20 9.999999980468743  C 20 11.999999960937494  18.666666643229167 13.33333332031249  16.666666666666668 13.33333332031249  L 13.333333333333336 13.33333332031249  L 13.333333333333336 16.66666666015624  C 13.333333333333336 18.66666664062499  11.999999976562506 19.999999999999986  10 19.999999999999986  C 8.000000023437494 19.999999999999986  6.666666666666664 18.66666664062499  6.666666666666664 16.66666666015624  L 6.666666666666664 13.33333332031249  L 3.333333333333332 13.33333332031249  C 1.3333333567708343 13.33333332031249  0 11.999999960937494  0 9.999999980468743  C 0 7.999999999999993  1.3333333567708343 6.666666640624996  3.333333333333332 6.666666640624996  Z " fill-rule="evenodd" />
    </mask>
  </defs>
  <g transform="matrix(1 0 0 1 1160 -485 )">
    <path d="M 3.333333333333332 6.666666640624996  L 6.666666666666668 6.666666640624996  L 6.666666666666668 3.333333359375004  C 6.666666666666668 1.3333333789062536  8.000000023437503 0  10.000000000000004 0  C 11.999999976562506 0  13.333333333333336 1.3333333789062536  13.333333333333336 3.333333359375004  L 13.333333333333336 6.666666640624996  L 16.666666666666668 6.666666640624996  C 18.666666643229167 6.666666640624996  20 7.999999999999993  20 9.999999980468743  C 20 11.999999960937494  18.666666643229167 13.33333332031249  16.666666666666668 13.33333332031249  L 13.333333333333336 13.33333332031249  L 13.333333333333336 16.66666666015624  C 13.333333333333336 18.66666664062499  11.999999976562506 19.999999999999986  10 19.999999999999986  C 8.000000023437494 19.999999999999986  6.666666666666664 18.66666664062499  6.666666666666664 16.66666666015624  L 6.666666666666664 13.33333332031249  L 3.333333333333332 13.33333332031249  C 1.3333333567708343 13.33333332031249  0 11.999999960937494  0 9.999999980468743  C 0 7.999999999999993  1.3333333567708343 6.666666640624996  3.333333333333332 6.666666640624996  Z " fill-rule="nonzero" fill="rgba(255, 255, 255, 1)" stroke="none" transform="matrix(1 0 0 1 -1160 485 )" class="fill" />
    <path d="M 3.333333333333332 6.666666640624996  L 6.666666666666668 6.666666640624996  L 6.666666666666668 3.333333359375004  C 6.666666666666668 1.3333333789062536  8.000000023437503 0  10.000000000000004 0  C 11.999999976562506 0  13.333333333333336 1.3333333789062536  13.333333333333336 3.333333359375004  L 13.333333333333336 6.666666640624996  L 16.666666666666668 6.666666640624996  C 18.666666643229167 6.666666640624996  20 7.999999999999993  20 9.999999980468743  C 20 11.999999960937494  18.666666643229167 13.33333332031249  16.666666666666668 13.33333332031249  L 13.333333333333336 13.33333332031249  L 13.333333333333336 16.66666666015624  C 13.333333333333336 18.66666664062499  11.999999976562506 19.999999999999986  10 19.999999999999986  C 8.000000023437494 19.999999999999986  6.666666666666664 18.66666664062499  6.666666666666664 16.66666666015624  L 6.666666666666664 13.33333332031249  L 3.333333333333332 13.33333332031249  C 1.3333333567708343 13.33333332031249  0 11.999999960937494  0 9.999999980468743  C 0 7.999999999999993  1.3333333567708343 6.666666640624996  3.333333333333332 6.666666640624996  Z " stroke-width="0" stroke-dasharray="0" stroke="rgba(255, 255, 255, 0)" fill="none" transform="matrix(1 0 0 1 -1160 485 )" class="stroke" mask="url(#Clip21492)" />
  </g>
</svg>