<?xml version="1.0" encoding="utf-8"?>
<svg version="1.1" xmlns:xlink="http://www.w3.org/1999/xlink" width="130px" height="30px" xmlns="http://www.w3.org/2000/svg">
  <defs>
    <linearGradient gradientUnits="userSpaceOnUse" x1="0" y1="0" x2="120" y2="20" id="LinearGradient4858">
      <stop id="Stop4859" stop-color="#d9001b" stop-opacity="0.4980392156862745" offset="0" />
      <stop id="Stop4860" stop-color="#02a7f0" stop-opacity="0.4980392156862745" offset="1" />
    </linearGradient>
    <pattern id="BGPattern" patternUnits="userSpaceOnUse" alignment="0 0" imageRepeat="None" />
    <mask fill="white" id="Clip4861">
      <path d="M 0 15  L 0 0  L 120 0  L 120 15  C 120 17.8  117.8 20  115 20  L 5 20  C 2.1999999999999997 20  0 17.8  0 15  Z " fill-rule="evenodd" />
    </mask>
  </defs>
  <g transform="matrix(1 0 0 1 -535 -4007 )">
    <path d="M 0 15  L 0 0  L 120 0  L 120 15  C 120 17.8  117.8 20  115 20  L 5 20  C 2.1999999999999997 20  0 17.8  0 15  Z " fill-rule="nonzero" fill="url(#LinearGradient4858)" stroke="none" transform="matrix(1 0 0 1 540 4012 )" class="fill" />
    <path d="M 0 15  L 0 0  L 120 0  L 120 15  C 120 17.8  117.8 20  115 20  L 5 20  C 2.1999999999999997 20  0 17.8  0 15  Z " stroke-width="0" stroke-dasharray="0" stroke="rgba(121, 121, 121, 1)" fill="none" transform="matrix(1 0 0 1 540 4012 )" class="stroke" mask="url(#Clip4861)" />
  </g>
  <style>svg { filter: drop-shadow(0px 0px 2.5px rgba(0, 0, 0, 0.34901960784313724)); }</style>
</svg>