<?xml version="1.0" encoding="utf-8"?>
<svg version="1.1" xmlns:xlink="http://www.w3.org/1999/xlink" width="147px" height="19px" xmlns="http://www.w3.org/2000/svg">
  <defs>
    <linearGradient gradientUnits="userSpaceOnUse" x1="0" y1="9.5" x2="147" y2="9.5" id="LinearGradient2641">
      <stop id="Stop2642" stop-color="#ff4975" offset="0" />
      <stop id="Stop2643" stop-color="#319eff" offset="1" />
    </linearGradient>
    <pattern id="BGPattern" patternUnits="userSpaceOnUse" alignment="0 0" imageRepeat="None" />
    <mask fill="white" id="Clip2644">
      <path d="M 9.5 19  C 4.18 19  0 14.82  0 9.5  C 0 4.18  4.18 0  9.5 0  L 137.5 0  C 142.82 0  147 4.18  147 9.5  C 147 14.82  142.82 19  137.5 19  L 9.5 19  Z " fill-rule="evenodd" />
    </mask>
  </defs>
  <g transform="matrix(1 0 0 1 -430 -881 )">
    <path d="M 9.5 19  C 4.18 19  0 14.82  0 9.5  C 0 4.18  4.18 0  9.5 0  L 137.5 0  C 142.82 0  147 4.18  147 9.5  C 147 14.82  142.82 19  137.5 19  L 9.5 19  Z " fill-rule="nonzero" fill="url(#LinearGradient2641)" stroke="none" transform="matrix(1 0 0 1 430 881 )" class="fill" />
    <path d="M 9.5 19  C 4.18 19  0 14.82  0 9.5  C 0 4.18  4.18 0  9.5 0  L 137.5 0  C 142.82 0  147 4.18  147 9.5  C 147 14.82  142.82 19  137.5 19  L 9.5 19  Z " stroke-width="0" stroke-dasharray="0" stroke="rgba(121, 121, 121, 1)" fill="none" transform="matrix(1 0 0 1 430 881 )" class="stroke" mask="url(#Clip2644)" />
  </g>
</svg>