<?xml version="1.0" encoding="utf-8"?>
<svg version="1.1" xmlns:xlink="http://www.w3.org/1999/xlink" width="2px" height="4px" xmlns="http://www.w3.org/2000/svg">
  <defs>
    <pattern id="BGPattern" patternUnits="userSpaceOnUse" alignment="0 0" imageRepeat="None" />
    <mask fill="white" id="Clip2368">
      <path d="M 0.4784999980468734 1.5444999980468754  C 0.4785179379711817 1.548438658378652  0.4781832704280129 1.5523710186789645  0.4775000019531248 1.5562500019531251  L 0.4775000019531248 1.5602499980468747  C 0.47545815928313084 1.6623421315465743  0.3921125518380899 1.7440374942976247  0.2900000019531248 1.7440374942976247  C 0.18642590275238646 1.7440374942976247  0.10246250570237514 1.6600740972476133  0.10246250570237514 1.556499998046875  C 0.10246250570237514 1.5552499043171872  0.10247500507740659 1.5539998418327974  0.10250000195312481 1.5527499980468753  C 0.10224527745283973 1.5500078671467605  0.10216178147006172 1.5472525212412163  0.10224999999999973 1.544499998046875  C 0.10224999999999973 1.2674999960937496  0.17999999804687494 1.0394999960937499  0.3340000000000001 0.859749998046875  C 0.5027500000000003 0.6657500000000001  0.7352500000000002 0.5707499960937499  1.0297499980468747 0.5707500019531249  C 1.2917499999999995 0.5707500019531249  1.5039999999999996 0.6467500039062499  1.6657499980468744 0.7999999999999998  C 1.8207499960937499 0.945999998046875  1.8977499999999994 1.1435  1.8977499999999994 1.388  C 1.8977499999999994 1.5654999980468753  1.8427499980468744 1.7285000000000004  1.7352500019531245 1.870749998046875  C 1.6902500019531246 1.9274999960937498  1.593249999999999 2.0219999960937503  1.4174999980468743 2.181000001953125  C 1.3324999960937491 2.255250001953125  1.2724999960937495 2.32450000390625  1.2350000019531242 2.3877500000000005  C 1.1857500039062492 2.472750001953125  1.1619999999999995 2.559249998046875  1.161749998046874 2.6522499980468757  L 1.1684999980468742 2.7657500000000006  C 1.1685814845077278 2.767081813552946  1.1686222562764241 2.7684158061007658  1.1686222562764241 2.7697501101827173  C 1.1686222562764241 2.8059247623753154  1.1392969065158969 2.8352501121358413  1.1031222543232988 2.8352501121358413  L 0.8574999999999995 2.8352499980468755  C 0.821075351711956 2.8352504751329324  0.7917500019514292 2.805925125372406  0.7917500019514292 2.7697504731798075  L 0.7917500019531243 2.65625  C 0.7917500019531243 2.5322499980468747  0.8177499999999993 2.416500001953125  0.8684999980468744 2.3152500019531255  C 0.929999998046874 2.1835000039062504  1.0572499960937494 2.031000001953125  1.241750001953124 1.8699999980468753  C 1.3565000019531235 1.7549999960937503  1.392500001953124 1.7180000000000004  1.416249999999999 1.6882500019531252  C 1.491249999999999 1.5917500039062502  1.5277499980468736 1.4960000000000004  1.5277499980468736 1.3957500019531253  C 1.5277499980468736 1.2465000019531254  1.4844999999999988 1.1287500019531254  1.4022500019531234 1.0430000000000001  C 1.3157499999999986 0.9564999980468749  1.1892500019531238 0.9132500000000001  1.017999999999999 0.9132500000000001  C 0.8267499999999988 0.9132500000000001  0.6897500019531235 0.97475  0.5954999980468738 1.1  C 0.5162499999999985 1.1992500019531254  0.4784999980468734 1.3442499980468754  0.4784999980468734 1.5444999980468754  Z M 1 3.4745  C 0.896446609406726 3.4745  0.8125 3.390553390593274  0.8125 3.287  C 0.8125 3.183446609406726  0.896446609406726 3.0995  1 3.0995  C 1.103553390593274 3.0995  1.1875 3.183446609406726  1.1875 3.287  C 1.1875 3.390553390593274  1.103553390593274 3.4745  1 3.4745  Z " fill-rule="evenodd" />
    </mask>
  </defs>
  <g transform="matrix(1 0 0 1 -2668 703 )">
    <path d="M 0.4784999980468734 1.5444999980468754  C 0.4785179379711817 1.548438658378652  0.4781832704280129 1.5523710186789645  0.4775000019531248 1.5562500019531251  L 0.4775000019531248 1.5602499980468747  C 0.47545815928313084 1.6623421315465743  0.3921125518380899 1.7440374942976247  0.2900000019531248 1.7440374942976247  C 0.18642590275238646 1.7440374942976247  0.10246250570237514 1.6600740972476133  0.10246250570237514 1.556499998046875  C 0.10246250570237514 1.5552499043171872  0.10247500507740659 1.5539998418327974  0.10250000195312481 1.5527499980468753  C 0.10224527745283973 1.5500078671467605  0.10216178147006172 1.5472525212412163  0.10224999999999973 1.544499998046875  C 0.10224999999999973 1.2674999960937496  0.17999999804687494 1.0394999960937499  0.3340000000000001 0.859749998046875  C 0.5027500000000003 0.6657500000000001  0.7352500000000002 0.5707499960937499  1.0297499980468747 0.5707500019531249  C 1.2917499999999995 0.5707500019531249  1.5039999999999996 0.6467500039062499  1.6657499980468744 0.7999999999999998  C 1.8207499960937499 0.945999998046875  1.8977499999999994 1.1435  1.8977499999999994 1.388  C 1.8977499999999994 1.5654999980468753  1.8427499980468744 1.7285000000000004  1.7352500019531245 1.870749998046875  C 1.6902500019531246 1.9274999960937498  1.593249999999999 2.0219999960937503  1.4174999980468743 2.181000001953125  C 1.3324999960937491 2.255250001953125  1.2724999960937495 2.32450000390625  1.2350000019531242 2.3877500000000005  C 1.1857500039062492 2.472750001953125  1.1619999999999995 2.559249998046875  1.161749998046874 2.6522499980468757  L 1.1684999980468742 2.7657500000000006  C 1.1685814845077278 2.767081813552946  1.1686222562764241 2.7684158061007658  1.1686222562764241 2.7697501101827173  C 1.1686222562764241 2.8059247623753154  1.1392969065158969 2.8352501121358413  1.1031222543232988 2.8352501121358413  L 0.8574999999999995 2.8352499980468755  C 0.821075351711956 2.8352504751329324  0.7917500019514292 2.805925125372406  0.7917500019514292 2.7697504731798075  L 0.7917500019531243 2.65625  C 0.7917500019531243 2.5322499980468747  0.8177499999999993 2.416500001953125  0.8684999980468744 2.3152500019531255  C 0.929999998046874 2.1835000039062504  1.0572499960937494 2.031000001953125  1.241750001953124 1.8699999980468753  C 1.3565000019531235 1.7549999960937503  1.392500001953124 1.7180000000000004  1.416249999999999 1.6882500019531252  C 1.491249999999999 1.5917500039062502  1.5277499980468736 1.4960000000000004  1.5277499980468736 1.3957500019531253  C 1.5277499980468736 1.2465000019531254  1.4844999999999988 1.1287500019531254  1.4022500019531234 1.0430000000000001  C 1.3157499999999986 0.9564999980468749  1.1892500019531238 0.9132500000000001  1.017999999999999 0.9132500000000001  C 0.8267499999999988 0.9132500000000001  0.6897500019531235 0.97475  0.5954999980468738 1.1  C 0.5162499999999985 1.1992500019531254  0.4784999980468734 1.3442499980468754  0.4784999980468734 1.5444999980468754  Z M 1 3.4745  C 0.896446609406726 3.4745  0.8125 3.390553390593274  0.8125 3.287  C 0.8125 3.183446609406726  0.896446609406726 3.0995  1 3.0995  C 1.103553390593274 3.0995  1.1875 3.183446609406726  1.1875 3.287  C 1.1875 3.390553390593274  1.103553390593274 3.4745  1 3.4745  Z " fill-rule="nonzero" fill="rgba(255, 255, 255, 1)" stroke="none" transform="matrix(1 0 0 1 2668 -703 )" class="fill" />
    <path d="M 0.4784999980468734 1.5444999980468754  C 0.4785179379711817 1.548438658378652  0.4781832704280129 1.5523710186789645  0.4775000019531248 1.5562500019531251  L 0.4775000019531248 1.5602499980468747  C 0.47545815928313084 1.6623421315465743  0.3921125518380899 1.7440374942976247  0.2900000019531248 1.7440374942976247  C 0.18642590275238646 1.7440374942976247  0.10246250570237514 1.6600740972476133  0.10246250570237514 1.556499998046875  C 0.10246250570237514 1.5552499043171872  0.10247500507740659 1.5539998418327974  0.10250000195312481 1.5527499980468753  C 0.10224527745283973 1.5500078671467605  0.10216178147006172 1.5472525212412163  0.10224999999999973 1.544499998046875  C 0.10224999999999973 1.2674999960937496  0.17999999804687494 1.0394999960937499  0.3340000000000001 0.859749998046875  C 0.5027500000000003 0.6657500000000001  0.7352500000000002 0.5707499960937499  1.0297499980468747 0.5707500019531249  C 1.2917499999999995 0.5707500019531249  1.5039999999999996 0.6467500039062499  1.6657499980468744 0.7999999999999998  C 1.8207499960937499 0.945999998046875  1.8977499999999994 1.1435  1.8977499999999994 1.388  C 1.8977499999999994 1.5654999980468753  1.8427499980468744 1.7285000000000004  1.7352500019531245 1.870749998046875  C 1.6902500019531246 1.9274999960937498  1.593249999999999 2.0219999960937503  1.4174999980468743 2.181000001953125  C 1.3324999960937491 2.255250001953125  1.2724999960937495 2.32450000390625  1.2350000019531242 2.3877500000000005  C 1.1857500039062492 2.472750001953125  1.1619999999999995 2.559249998046875  1.161749998046874 2.6522499980468757  L 1.1684999980468742 2.7657500000000006  C 1.1685814845077278 2.767081813552946  1.1686222562764241 2.7684158061007658  1.1686222562764241 2.7697501101827173  C 1.1686222562764241 2.8059247623753154  1.1392969065158969 2.8352501121358413  1.1031222543232988 2.8352501121358413  L 0.8574999999999995 2.8352499980468755  C 0.821075351711956 2.8352504751329324  0.7917500019514292 2.805925125372406  0.7917500019514292 2.7697504731798075  L 0.7917500019531243 2.65625  C 0.7917500019531243 2.5322499980468747  0.8177499999999993 2.416500001953125  0.8684999980468744 2.3152500019531255  C 0.929999998046874 2.1835000039062504  1.0572499960937494 2.031000001953125  1.241750001953124 1.8699999980468753  C 1.3565000019531235 1.7549999960937503  1.392500001953124 1.7180000000000004  1.416249999999999 1.6882500019531252  C 1.491249999999999 1.5917500039062502  1.5277499980468736 1.4960000000000004  1.5277499980468736 1.3957500019531253  C 1.5277499980468736 1.2465000019531254  1.4844999999999988 1.1287500019531254  1.4022500019531234 1.0430000000000001  C 1.3157499999999986 0.9564999980468749  1.1892500019531238 0.9132500000000001  1.017999999999999 0.9132500000000001  C 0.8267499999999988 0.9132500000000001  0.6897500019531235 0.97475  0.5954999980468738 1.1  C 0.5162499999999985 1.1992500019531254  0.4784999980468734 1.3442499980468754  0.4784999980468734 1.5444999980468754  Z " stroke-width="0" stroke-dasharray="0" stroke="rgba(255, 255, 255, 0)" fill="none" transform="matrix(1 0 0 1 2668 -703 )" class="stroke" mask="url(#Clip2368)" />
    <path d="M 1 3.4745  C 0.896446609406726 3.4745  0.8125 3.390553390593274  0.8125 3.287  C 0.8125 3.183446609406726  0.896446609406726 3.0995  1 3.0995  C 1.103553390593274 3.0995  1.1875 3.183446609406726  1.1875 3.287  C 1.1875 3.390553390593274  1.103553390593274 3.4745  1 3.4745  Z " stroke-width="0" stroke-dasharray="0" stroke="rgba(255, 255, 255, 0)" fill="none" transform="matrix(1 0 0 1 2668 -703 )" class="stroke" mask="url(#Clip2368)" />
  </g>
</svg>