<?xml version="1.0" encoding="utf-8"?>
<svg version="1.1" xmlns:xlink="http://www.w3.org/1999/xlink" width="6px" height="6px" xmlns="http://www.w3.org/2000/svg">
  <defs>
    <pattern id="BGPattern" patternUnits="userSpaceOnUse" alignment="0 0" imageRepeat="None" />
    <mask fill="white" id="Clip4810">
      <path d="M 0.511249998046875 3  C 0.511249998046875 4.374499998046875  1.6255000019531252 5.488750001953125  3 5.488750001953125  C 4.374499998046875 5.488750001953125  5.488750001953125 4.37450000390625  5.488750001953125 3  C 5.488750001953125 1.6254999960937502  4.374499998046875 0.511249998046875  3 0.511249998046875  C 1.6255000019531252 0.511249998046875  0.511249998046875 1.6255000019531252  0.511249998046875 3  Z M 5.863750001953125 3  C 5.863750001953125 4.581499998046875  4.58150000390625 5.863750001953125  3 5.863750001953125  C 1.418500001953125 5.863750001953125  0.13624999804687501 4.5814999980468745  0.13624999804687501 3  C 0.13624999804687501 1.418500001953125  1.418500001953125 0.13624999804687501  3 0.13624999804687501  C 4.5814999980468745 0.13624999804687501  5.863750001953125 1.418500001953125  5.863750001953125 3  Z " fill-rule="evenodd" />
    </mask>
  </defs>
  <g transform="matrix(1 0 0 1 -2666 704 )">
    <path d="M 0.511249998046875 3  C 0.511249998046875 4.374499998046875  1.6255000019531252 5.488750001953125  3 5.488750001953125  C 4.374499998046875 5.488750001953125  5.488750001953125 4.37450000390625  5.488750001953125 3  C 5.488750001953125 1.6254999960937502  4.374499998046875 0.511249998046875  3 0.511249998046875  C 1.6255000019531252 0.511249998046875  0.511249998046875 1.6255000019531252  0.511249998046875 3  Z M 5.863750001953125 3  C 5.863750001953125 4.581499998046875  4.58150000390625 5.863750001953125  3 5.863750001953125  C 1.418500001953125 5.863750001953125  0.13624999804687501 4.5814999980468745  0.13624999804687501 3  C 0.13624999804687501 1.418500001953125  1.418500001953125 0.13624999804687501  3 0.13624999804687501  C 4.5814999980468745 0.13624999804687501  5.863750001953125 1.418500001953125  5.863750001953125 3  Z " fill-rule="nonzero" fill="rgba(255, 255, 255, 1)" stroke="none" transform="matrix(1 0 0 1 2666 -704 )" class="fill" />
    <path d="M 0.511249998046875 3  C 0.511249998046875 4.374499998046875  1.6255000019531252 5.488750001953125  3 5.488750001953125  C 4.374499998046875 5.488750001953125  5.488750001953125 4.37450000390625  5.488750001953125 3  C 5.488750001953125 1.6254999960937502  4.374499998046875 0.511249998046875  3 0.511249998046875  C 1.6255000019531252 0.511249998046875  0.511249998046875 1.6255000019531252  0.511249998046875 3  Z " stroke-width="0" stroke-dasharray="0" stroke="rgba(255, 255, 255, 0)" fill="none" transform="matrix(1 0 0 1 2666 -704 )" class="stroke" mask="url(#Clip4810)" />
    <path d="M 5.863750001953125 3  C 5.863750001953125 4.581499998046875  4.58150000390625 5.863750001953125  3 5.863750001953125  C 1.418500001953125 5.863750001953125  0.13624999804687501 4.5814999980468745  0.13624999804687501 3  C 0.13624999804687501 1.418500001953125  1.418500001953125 0.13624999804687501  3 0.13624999804687501  C 4.5814999980468745 0.13624999804687501  5.863750001953125 1.418500001953125  5.863750001953125 3  Z " stroke-width="0" stroke-dasharray="0" stroke="rgba(255, 255, 255, 0)" fill="none" transform="matrix(1 0 0 1 2666 -704 )" class="stroke" mask="url(#Clip4810)" />
  </g>
</svg>