<?xml version="1.0" encoding="utf-8"?>
<svg version="1.1" xmlns:xlink="http://www.w3.org/1999/xlink" width="52px" height="52px" xmlns="http://www.w3.org/2000/svg">
  <defs>
    <pattern id="BGPattern" patternUnits="userSpaceOnUse" alignment="0 0" imageRepeat="None" />
    <mask fill="white" id="Clip5132">
      <path d="M 51.399999980468735 40.30000001953125  C 51.38761600974357 39.05824358046884  50.88429887361661 37.87185317161836  49.99999999999999 37.00000001953125  C 49.141368083497824 36.096436232216604  47.94642119936667 35.58948905510714  46.699999999999996 35  L 35.49999998046875 35  L 35.49999998046875 27.6  C 35.50312469925016 26.32576644449916  34.99946010202926 25.10258097001445  34.1 24.199999980468753  C 33.19096338063079 23.385802597376113  32.02010734908286 22.924556295777414  30.799999999999994 22.90000001953125  L 21.199999999999992 22.900000019531255  C 19.979892650917126 22.924556295777414  18.809036619369206 23.385802597376113  17.899999999999995 24.199999980468757  C 17.00053989797074 25.10258097001445  16.496875300749835 26.32576644449916  16.500000019531246 27.6  L 16.500000019531246 35  L 5.300000000000001 35  C 4.0535788006333355 35.58948905510714  2.8586319165021763 36.096436232216604  1.9999999999999991 37.00000001953124  C 1.1157011263833834 37.87185317161836  0.6123839902564239 39.05824358046884  0.60000001953125 40.300000019531254  L 0.60000001953125 49.90000001953126  C 0.60000001953125 50.728427144277454  1.2715728947850602 51.40000001953126  2.100000019531251 51  L 49.89999998046875 51  C 50.72842710521495 51.40000001953126  51.39999998046875 50.728427144277454  51.39999998046875 49.900000019531255  L 51.399999980468735 40.30000001953125  Z M 3.6000000195312514 48  L 3.600000019531249 40.30000001953125  C 3.611359281635753 39.85168002872931  3.7896648213713995 39.42374671664762  4.1 39.100000019531244  C 4.4179609614163144 38.78093421008313  4.8495547246629 38.60110346134778  5.300000000000001 38  L 17 38  L 17 48  L 3.6000000195312514 48  Z M 20 48  L 20 37.09999998046875  L 19.50000001953125 27.599999999999994  C 19.501103484879977 27.149554733075693  19.680934212047475 26.717960971014563  20.000000000000007 26.400000000000006  C 20.30324653603156 26.059653683764868  20.744805351349545 25.875670851235867  21.200000000000006 25.900000019531248  L 30.800000000000004 25.90000001953125  C 31.255194648650466 25.875670851235867  31.696753463968463 26.059653683764868  32 26.39999999999999  C 32.319065787952525 26.717960971014563  32.49889651512002 27.149554733075693  32 27.6  L 32 48  L 20 48  Z M 48.39999998046874 40.30000001953125  L 48.399999980468756 48  L 35.49999998046875 48  L 35.49999998046875 38  L 46.69999999999999 38  C 47.1504452753371 38.60110346134778  47.58203903858367 38.78093421008313  47.9 39.100000019531244  C 48.2103351786286 39.42374671664762  48.38864071836424 39.85168002872931  48.39999998046874 40.30000001953125  Z M 19.234534568114857 19.352011980591676  C 19.587764912847607 19.352011980591676  19.929663839972946 19.227354473153458  20.199999980468753 19.000000019531253  C 20.90372227489552 18.144726718504756  21.7928331197456 17.46079529630669  22.80000001953125 16.99999998046875  C 24.83781436888204 16.09717374364446  27.162185631117964 16.09717374364446  29.19999998046876 16.99999998046875  C 30.207166880254412 17.460795296306692  31.096277725104475 18.144726718504753  31.800000019531254 19.00000001953125  C 32.08722149717594 19.30403372728453  32.48207554968909 19.483512838239104  32.900000000000006 19.5  C 33.72137162115999 19.490176764141253  34.382061956181396 18.82153762144557  34.382061956181396 18.000107261640366  C 34.382061956181396 17.631091472546565  34.24603689882875 17.27502450192899  33.99999998046874 16.999999980468747  C 33.0256746563121 15.832943687827122  31.793185112168565 14.908576529719479  30.39999998046875 14.299999980468753  L 29.400000019531245 13.900000019531252  L 30.999999980468736 12.600000000000001  C 32.33401301534815 11.276855138562908  33.08916305914475 9.478878850832455  33.09999998046875 7.600000019531251  C 33.06801247468988 5.725508229988808  32.316072901834 3.93517589967832  30.999999980468736 2.599999980468751  C 28.210324924309198 -0.09235527600413374  23.789675075690795 -0.09235527600413018  21.00000001953125 2.599999980468753  C 19.683927098165995 3.9351758996783235  18.931987525310117 5.7255082299888045  18.900000019531245 7.600000019531249  C 18.91083694085524 9.478878850832457  19.665986984651834 11.276855138562906  21.00000001953125 12.600000000000001  L 22.59999998046875 13.900000019531252  L 21.600000019531244 14.299999980468753  C 20.206814887831428 14.908576529719475  18.97432534368789 15.832943687827125  18.00000001953125 16.99999998046875  C 17.82712159446771 17.250494560844228  17.73453456811486 17.547652842976365  17.73453456811486 17.852011980591673  C 17.73453456811486 18.680439105337864  18.406107443368665 19.352011980591676  19.234534568114857 19.352011980591676  Z M 21.900000019531248 7.600000019531247  C 21.865942261919212 6.535075614582184  22.30535975911052 5.509768113983821  23.10000001953125 4.799999999999999  C 23.868969160401395 4.030573278583413  24.912189805508127 3.59827536068243  26 3.59827536068243  C 27.087810194491873 3.59827536068243  28.131030839598612 4.030573278583413  28.899999980468742 4.799999999999999  C 29.694640240889477 5.509768113983821  30.13405773808078 6.535075614582183  30.099999980468745 7.600000019531247  C 30.11177025413564 8.689777798234552  29.67836466909724 9.737174621689885  28.89999998046875 10.5  C 28.131030839598612 11.269426721416586  27.087810194491873 11.701724639317568  26 11.701724639317568  C 24.912189805508127 11.701724639317568  23.868969160401395 11.269426721416586  23.100000019531247 10.499999999999998  C 22.32163533090275 9.737174621689885  21.888229745864358 8.689777798234552  21.900000019531248 7.600000019531247  Z " fill-rule="evenodd" />
    </mask>
  </defs>
  <g transform="matrix(1 0 0 1 -154 -303 )">
    <path d="M 51.399999980468735 40.30000001953125  C 51.38761600974357 39.05824358046884  50.88429887361661 37.87185317161836  49.99999999999999 37.00000001953125  C 49.141368083497824 36.096436232216604  47.94642119936667 35.58948905510714  46.699999999999996 35  L 35.49999998046875 35  L 35.49999998046875 27.6  C 35.50312469925016 26.32576644449916  34.99946010202926 25.10258097001445  34.1 24.199999980468753  C 33.19096338063079 23.385802597376113  32.02010734908286 22.924556295777414  30.799999999999994 22.90000001953125  L 21.199999999999992 22.900000019531255  C 19.979892650917126 22.924556295777414  18.809036619369206 23.385802597376113  17.899999999999995 24.199999980468757  C 17.00053989797074 25.10258097001445  16.496875300749835 26.32576644449916  16.500000019531246 27.6  L 16.500000019531246 35  L 5.300000000000001 35  C 4.0535788006333355 35.58948905510714  2.8586319165021763 36.096436232216604  1.9999999999999991 37.00000001953124  C 1.1157011263833834 37.87185317161836  0.6123839902564239 39.05824358046884  0.60000001953125 40.300000019531254  L 0.60000001953125 49.90000001953126  C 0.60000001953125 50.728427144277454  1.2715728947850602 51.40000001953126  2.100000019531251 51  L 49.89999998046875 51  C 50.72842710521495 51.40000001953126  51.39999998046875 50.728427144277454  51.39999998046875 49.900000019531255  L 51.399999980468735 40.30000001953125  Z M 3.6000000195312514 48  L 3.600000019531249 40.30000001953125  C 3.611359281635753 39.85168002872931  3.7896648213713995 39.42374671664762  4.1 39.100000019531244  C 4.4179609614163144 38.78093421008313  4.8495547246629 38.60110346134778  5.300000000000001 38  L 17 38  L 17 48  L 3.6000000195312514 48  Z M 20 48  L 20 37.09999998046875  L 19.50000001953125 27.599999999999994  C 19.501103484879977 27.149554733075693  19.680934212047475 26.717960971014563  20.000000000000007 26.400000000000006  C 20.30324653603156 26.059653683764868  20.744805351349545 25.875670851235867  21.200000000000006 25.900000019531248  L 30.800000000000004 25.90000001953125  C 31.255194648650466 25.875670851235867  31.696753463968463 26.059653683764868  32 26.39999999999999  C 32.319065787952525 26.717960971014563  32.49889651512002 27.149554733075693  32 27.6  L 32 48  L 20 48  Z M 48.39999998046874 40.30000001953125  L 48.399999980468756 48  L 35.49999998046875 48  L 35.49999998046875 38  L 46.69999999999999 38  C 47.1504452753371 38.60110346134778  47.58203903858367 38.78093421008313  47.9 39.100000019531244  C 48.2103351786286 39.42374671664762  48.38864071836424 39.85168002872931  48.39999998046874 40.30000001953125  Z M 19.234534568114857 19.352011980591676  C 19.587764912847607 19.352011980591676  19.929663839972946 19.227354473153458  20.199999980468753 19.000000019531253  C 20.90372227489552 18.144726718504756  21.7928331197456 17.46079529630669  22.80000001953125 16.99999998046875  C 24.83781436888204 16.09717374364446  27.162185631117964 16.09717374364446  29.19999998046876 16.99999998046875  C 30.207166880254412 17.460795296306692  31.096277725104475 18.144726718504753  31.800000019531254 19.00000001953125  C 32.08722149717594 19.30403372728453  32.48207554968909 19.483512838239104  32.900000000000006 19.5  C 33.72137162115999 19.490176764141253  34.382061956181396 18.82153762144557  34.382061956181396 18.000107261640366  C 34.382061956181396 17.631091472546565  34.24603689882875 17.27502450192899  33.99999998046874 16.999999980468747  C 33.0256746563121 15.832943687827122  31.793185112168565 14.908576529719479  30.39999998046875 14.299999980468753  L 29.400000019531245 13.900000019531252  L 30.999999980468736 12.600000000000001  C 32.33401301534815 11.276855138562908  33.08916305914475 9.478878850832455  33.09999998046875 7.600000019531251  C 33.06801247468988 5.725508229988808  32.316072901834 3.93517589967832  30.999999980468736 2.599999980468751  C 28.210324924309198 -0.09235527600413374  23.789675075690795 -0.09235527600413018  21.00000001953125 2.599999980468753  C 19.683927098165995 3.9351758996783235  18.931987525310117 5.7255082299888045  18.900000019531245 7.600000019531249  C 18.91083694085524 9.478878850832457  19.665986984651834 11.276855138562906  21.00000001953125 12.600000000000001  L 22.59999998046875 13.900000019531252  L 21.600000019531244 14.299999980468753  C 20.206814887831428 14.908576529719475  18.97432534368789 15.832943687827125  18.00000001953125 16.99999998046875  C 17.82712159446771 17.250494560844228  17.73453456811486 17.547652842976365  17.73453456811486 17.852011980591673  C 17.73453456811486 18.680439105337864  18.406107443368665 19.352011980591676  19.234534568114857 19.352011980591676  Z M 21.900000019531248 7.600000019531247  C 21.865942261919212 6.535075614582184  22.30535975911052 5.509768113983821  23.10000001953125 4.799999999999999  C 23.868969160401395 4.030573278583413  24.912189805508127 3.59827536068243  26 3.59827536068243  C 27.087810194491873 3.59827536068243  28.131030839598612 4.030573278583413  28.899999980468742 4.799999999999999  C 29.694640240889477 5.509768113983821  30.13405773808078 6.535075614582183  30.099999980468745 7.600000019531247  C 30.11177025413564 8.689777798234552  29.67836466909724 9.737174621689885  28.89999998046875 10.5  C 28.131030839598612 11.269426721416586  27.087810194491873 11.701724639317568  26 11.701724639317568  C 24.912189805508127 11.701724639317568  23.868969160401395 11.269426721416586  23.100000019531247 10.499999999999998  C 22.32163533090275 9.737174621689885  21.888229745864358 8.689777798234552  21.900000019531248 7.600000019531247  Z " fill-rule="nonzero" fill="rgba(255, 255, 255, 1)" stroke="none" transform="matrix(1 0 0 1 154 303 )" class="fill" />
    <path d="M 51.399999980468735 40.30000001953125  C 51.38761600974357 39.05824358046884  50.88429887361661 37.87185317161836  49.99999999999999 37.00000001953125  C 49.141368083497824 36.096436232216604  47.94642119936667 35.58948905510714  46.699999999999996 35  L 35.49999998046875 35  L 35.49999998046875 27.6  C 35.50312469925016 26.32576644449916  34.99946010202926 25.10258097001445  34.1 24.199999980468753  C 33.19096338063079 23.385802597376113  32.02010734908286 22.924556295777414  30.799999999999994 22.90000001953125  L 21.199999999999992 22.900000019531255  C 19.979892650917126 22.924556295777414  18.809036619369206 23.385802597376113  17.899999999999995 24.199999980468757  C 17.00053989797074 25.10258097001445  16.496875300749835 26.32576644449916  16.500000019531246 27.6  L 16.500000019531246 35  L 5.300000000000001 35  C 4.0535788006333355 35.58948905510714  2.8586319165021763 36.096436232216604  1.9999999999999991 37.00000001953124  C 1.1157011263833834 37.87185317161836  0.6123839902564239 39.05824358046884  0.60000001953125 40.300000019531254  L 0.60000001953125 49.90000001953126  C 0.60000001953125 50.728427144277454  1.2715728947850602 51.40000001953126  2.100000019531251 51  L 49.89999998046875 51  C 50.72842710521495 51.40000001953126  51.39999998046875 50.728427144277454  51.39999998046875 49.900000019531255  L 51.399999980468735 40.30000001953125  Z " stroke-width="0" stroke-dasharray="0" stroke="rgba(255, 255, 255, 0)" fill="none" transform="matrix(1 0 0 1 154 303 )" class="stroke" mask="url(#Clip5132)" />
    <path d="M 3.6000000195312514 48  L 3.600000019531249 40.30000001953125  C 3.611359281635753 39.85168002872931  3.7896648213713995 39.42374671664762  4.1 39.100000019531244  C 4.4179609614163144 38.78093421008313  4.8495547246629 38.60110346134778  5.300000000000001 38  L 17 38  L 17 48  L 3.6000000195312514 48  Z " stroke-width="0" stroke-dasharray="0" stroke="rgba(255, 255, 255, 0)" fill="none" transform="matrix(1 0 0 1 154 303 )" class="stroke" mask="url(#Clip5132)" />
    <path d="M 20 48  L 20 37.09999998046875  L 19.50000001953125 27.599999999999994  C 19.501103484879977 27.149554733075693  19.680934212047475 26.717960971014563  20.000000000000007 26.400000000000006  C 20.30324653603156 26.059653683764868  20.744805351349545 25.875670851235867  21.200000000000006 25.900000019531248  L 30.800000000000004 25.90000001953125  C 31.255194648650466 25.875670851235867  31.696753463968463 26.059653683764868  32 26.39999999999999  C 32.319065787952525 26.717960971014563  32.49889651512002 27.149554733075693  32 27.6  L 32 48  L 20 48  Z " stroke-width="0" stroke-dasharray="0" stroke="rgba(255, 255, 255, 0)" fill="none" transform="matrix(1 0 0 1 154 303 )" class="stroke" mask="url(#Clip5132)" />
    <path d="M 48.39999998046874 40.30000001953125  L 48.399999980468756 48  L 35.49999998046875 48  L 35.49999998046875 38  L 46.69999999999999 38  C 47.1504452753371 38.60110346134778  47.58203903858367 38.78093421008313  47.9 39.100000019531244  C 48.2103351786286 39.42374671664762  48.38864071836424 39.85168002872931  48.39999998046874 40.30000001953125  Z " stroke-width="0" stroke-dasharray="0" stroke="rgba(255, 255, 255, 0)" fill="none" transform="matrix(1 0 0 1 154 303 )" class="stroke" mask="url(#Clip5132)" />
    <path d="M 19.234534568114857 19.352011980591676  C 19.587764912847607 19.352011980591676  19.929663839972946 19.227354473153458  20.199999980468753 19.000000019531253  C 20.90372227489552 18.144726718504756  21.7928331197456 17.46079529630669  22.80000001953125 16.99999998046875  C 24.83781436888204 16.09717374364446  27.162185631117964 16.09717374364446  29.19999998046876 16.99999998046875  C 30.207166880254412 17.460795296306692  31.096277725104475 18.144726718504753  31.800000019531254 19.00000001953125  C 32.08722149717594 19.30403372728453  32.48207554968909 19.483512838239104  32.900000000000006 19.5  C 33.72137162115999 19.490176764141253  34.382061956181396 18.82153762144557  34.382061956181396 18.000107261640366  C 34.382061956181396 17.631091472546565  34.24603689882875 17.27502450192899  33.99999998046874 16.999999980468747  C 33.0256746563121 15.832943687827122  31.793185112168565 14.908576529719479  30.39999998046875 14.299999980468753  L 29.400000019531245 13.900000019531252  L 30.999999980468736 12.600000000000001  C 32.33401301534815 11.276855138562908  33.08916305914475 9.478878850832455  33.09999998046875 7.600000019531251  C 33.06801247468988 5.725508229988808  32.316072901834 3.93517589967832  30.999999980468736 2.599999980468751  C 28.210324924309198 -0.09235527600413374  23.789675075690795 -0.09235527600413018  21.00000001953125 2.599999980468753  C 19.683927098165995 3.9351758996783235  18.931987525310117 5.7255082299888045  18.900000019531245 7.600000019531249  C 18.91083694085524 9.478878850832457  19.665986984651834 11.276855138562906  21.00000001953125 12.600000000000001  L 22.59999998046875 13.900000019531252  L 21.600000019531244 14.299999980468753  C 20.206814887831428 14.908576529719475  18.97432534368789 15.832943687827125  18.00000001953125 16.99999998046875  C 17.82712159446771 17.250494560844228  17.73453456811486 17.547652842976365  17.73453456811486 17.852011980591673  C 17.73453456811486 18.680439105337864  18.406107443368665 19.352011980591676  19.234534568114857 19.352011980591676  Z " stroke-width="0" stroke-dasharray="0" stroke="rgba(255, 255, 255, 0)" fill="none" transform="matrix(1 0 0 1 154 303 )" class="stroke" mask="url(#Clip5132)" />
    <path d="M 21.900000019531248 7.600000019531247  C 21.865942261919212 6.535075614582184  22.30535975911052 5.509768113983821  23.10000001953125 4.799999999999999  C 23.868969160401395 4.030573278583413  24.912189805508127 3.59827536068243  26 3.59827536068243  C 27.087810194491873 3.59827536068243  28.131030839598612 4.030573278583413  28.899999980468742 4.799999999999999  C 29.694640240889477 5.509768113983821  30.13405773808078 6.535075614582183  30.099999980468745 7.600000019531247  C 30.11177025413564 8.689777798234552  29.67836466909724 9.737174621689885  28.89999998046875 10.5  C 28.131030839598612 11.269426721416586  27.087810194491873 11.701724639317568  26 11.701724639317568  C 24.912189805508127 11.701724639317568  23.868969160401395 11.269426721416586  23.100000019531247 10.499999999999998  C 22.32163533090275 9.737174621689885  21.888229745864358 8.689777798234552  21.900000019531248 7.600000019531247  Z " stroke-width="0" stroke-dasharray="0" stroke="rgba(255, 255, 255, 0)" fill="none" transform="matrix(1 0 0 1 154 303 )" class="stroke" mask="url(#Clip5132)" />
  </g>
</svg>