<?xml version="1.0" encoding="utf-8"?>
<svg version="1.1" xmlns:xlink="http://www.w3.org/1999/xlink" width="18px" height="18px" xmlns="http://www.w3.org/2000/svg">
  <defs>
    <pattern id="BGPattern" patternUnits="userSpaceOnUse" alignment="0 0" imageRepeat="None" />
    <mask fill="white" id="Clip3641">
      <path d="M 15.064374999999998 8.241249999999999  L 16.08104166015625 8.81333333984375  C 15.98166666015625 4.987500000000001  12.84958333984375 1.9166666601562503  9 1.9166666601562503  C 5.0879166601562495 1.9166666601562503  1.9166666601562499 5.0879166601562495  1.9166666601562499 9  C 1.9166666601562499 12.91208333984375  5.0879166601562495 16.083333339843747  9 16.083333339843747  C 11.39333333984375 16.083333339843747  13.582916660156249 14.888124999999999  14.890208339843749 12.935833339843748  C 15.005984980927067 12.76114874145868  15.201605075678405 12.656116215850766  15.411173535933013 12.656116215850766  C 15.756351504577257 12.656116215850766  16.036173535933013 12.935938247206519  16.036173535933013 13.281116215850766  C 16.036173535933013 13.406006911275098  15.998757154403073 13.528033564591603  15.92875 13.631458339843748  C 14.391874999999999 15.926458339843752  11.814791660156251 17.333333339843747  9 17.333333339843747  C 4.397708339843749 17.333333339843747  0.6666666601562499 13.60229166015625  0.6666666601562499 9  C 0.6666666601562499 4.397708339843749  4.397708339843749 0.6666666601562499  9 0.6666666601562499  C 13.60229166015625 0.6666666601562499  17.333333339843747 4.3977083203125  17.333333339843747 9  C 17.333333339843747 9.21395833984375  17.3166666796875 9.51479166015625  17.28416666015625 9.908750000000001  C 17.2464583203125 10.36270833984375  16.751458320312498 10.625208339843752  16.35458333984375 10.401875  L 14.451250000000002 9.330625000000001  C 14.254463157206313 9.219890071724407  14.13268968804821 9.011636974505997  14.13268968804821 8.785833330078127  C 14.13268968804821 8.44058753426581  14.412566704187682 8.160710518126333  14.757812500000002 8.160710518126333  C 14.865203736462464 8.160710518126333  14.97078402886796 8.188376607308104  15.064375000000002 8.241041660156252  Z M 5.433125 11.682916660156248  L 8.375 8.741458339843751  L 8.375 5.25  C 8.375 4.904822031355755  8.654822031355755 4.625  9 4.625  C 9.345177968644245 4.625  9.625 4.904822031355755  9.625 5.25  L 9.625 9  C 9.624964601621565 9.165746758424259  9.559093359256845 9.324692042901589  9.441875 9.441875  L 6.3168750000000005 12.566875  C 6.199102267540743 12.688814109300626  6.0368473408403585 12.757680128579642  5.867319871420358 12.757680128579642  C 5.522141902776113 12.757680128579642  5.242319871420358 12.477858097223887  5.242319871420358 12.132680128579642  C 5.242319871420358 11.96315265915964  5.311185890699377 11.800897732459259  5.433125 11.683125  Z " fill-rule="evenodd" />
    </mask>
  </defs>
  <g transform="matrix(1 0 0 1 -325 -16 )">
    <path d="M 15.064374999999998 8.241249999999999  L 16.08104166015625 8.81333333984375  C 15.98166666015625 4.987500000000001  12.84958333984375 1.9166666601562503  9 1.9166666601562503  C 5.0879166601562495 1.9166666601562503  1.9166666601562499 5.0879166601562495  1.9166666601562499 9  C 1.9166666601562499 12.91208333984375  5.0879166601562495 16.083333339843747  9 16.083333339843747  C 11.39333333984375 16.083333339843747  13.582916660156249 14.888124999999999  14.890208339843749 12.935833339843748  C 15.005984980927067 12.76114874145868  15.201605075678405 12.656116215850766  15.411173535933013 12.656116215850766  C 15.756351504577257 12.656116215850766  16.036173535933013 12.935938247206519  16.036173535933013 13.281116215850766  C 16.036173535933013 13.406006911275098  15.998757154403073 13.528033564591603  15.92875 13.631458339843748  C 14.391874999999999 15.926458339843752  11.814791660156251 17.333333339843747  9 17.333333339843747  C 4.397708339843749 17.333333339843747  0.6666666601562499 13.60229166015625  0.6666666601562499 9  C 0.6666666601562499 4.397708339843749  4.397708339843749 0.6666666601562499  9 0.6666666601562499  C 13.60229166015625 0.6666666601562499  17.333333339843747 4.3977083203125  17.333333339843747 9  C 17.333333339843747 9.21395833984375  17.3166666796875 9.51479166015625  17.28416666015625 9.908750000000001  C 17.2464583203125 10.36270833984375  16.751458320312498 10.625208339843752  16.35458333984375 10.401875  L 14.451250000000002 9.330625000000001  C 14.254463157206313 9.219890071724407  14.13268968804821 9.011636974505997  14.13268968804821 8.785833330078127  C 14.13268968804821 8.44058753426581  14.412566704187682 8.160710518126333  14.757812500000002 8.160710518126333  C 14.865203736462464 8.160710518126333  14.97078402886796 8.188376607308104  15.064375000000002 8.241041660156252  Z M 5.433125 11.682916660156248  L 8.375 8.741458339843751  L 8.375 5.25  C 8.375 4.904822031355755  8.654822031355755 4.625  9 4.625  C 9.345177968644245 4.625  9.625 4.904822031355755  9.625 5.25  L 9.625 9  C 9.624964601621565 9.165746758424259  9.559093359256845 9.324692042901589  9.441875 9.441875  L 6.3168750000000005 12.566875  C 6.199102267540743 12.688814109300626  6.0368473408403585 12.757680128579642  5.867319871420358 12.757680128579642  C 5.522141902776113 12.757680128579642  5.242319871420358 12.477858097223887  5.242319871420358 12.132680128579642  C 5.242319871420358 11.96315265915964  5.311185890699377 11.800897732459259  5.433125 11.683125  Z " fill-rule="nonzero" fill="rgba(0, 0, 0, 1)" stroke="none" transform="matrix(1 0 0 1 325 16 )" class="fill" />
    <path d="M 15.064374999999998 8.241249999999999  L 16.08104166015625 8.81333333984375  C 15.98166666015625 4.987500000000001  12.84958333984375 1.9166666601562503  9 1.9166666601562503  C 5.0879166601562495 1.9166666601562503  1.9166666601562499 5.0879166601562495  1.9166666601562499 9  C 1.9166666601562499 12.91208333984375  5.0879166601562495 16.083333339843747  9 16.083333339843747  C 11.39333333984375 16.083333339843747  13.582916660156249 14.888124999999999  14.890208339843749 12.935833339843748  C 15.005984980927067 12.76114874145868  15.201605075678405 12.656116215850766  15.411173535933013 12.656116215850766  C 15.756351504577257 12.656116215850766  16.036173535933013 12.935938247206519  16.036173535933013 13.281116215850766  C 16.036173535933013 13.406006911275098  15.998757154403073 13.528033564591603  15.92875 13.631458339843748  C 14.391874999999999 15.926458339843752  11.814791660156251 17.333333339843747  9 17.333333339843747  C 4.397708339843749 17.333333339843747  0.6666666601562499 13.60229166015625  0.6666666601562499 9  C 0.6666666601562499 4.397708339843749  4.397708339843749 0.6666666601562499  9 0.6666666601562499  C 13.60229166015625 0.6666666601562499  17.333333339843747 4.3977083203125  17.333333339843747 9  C 17.333333339843747 9.21395833984375  17.3166666796875 9.51479166015625  17.28416666015625 9.908750000000001  C 17.2464583203125 10.36270833984375  16.751458320312498 10.625208339843752  16.35458333984375 10.401875  L 14.451250000000002 9.330625000000001  C 14.254463157206313 9.219890071724407  14.13268968804821 9.011636974505997  14.13268968804821 8.785833330078127  C 14.13268968804821 8.44058753426581  14.412566704187682 8.160710518126333  14.757812500000002 8.160710518126333  C 14.865203736462464 8.160710518126333  14.97078402886796 8.188376607308104  15.064375000000002 8.241041660156252  Z " stroke-width="0" stroke-dasharray="0" stroke="rgba(255, 255, 255, 0)" fill="none" transform="matrix(1 0 0 1 325 16 )" class="stroke" mask="url(#Clip3641)" />
    <path d="M 5.433125 11.682916660156248  L 8.375 8.741458339843751  L 8.375 5.25  C 8.375 4.904822031355755  8.654822031355755 4.625  9 4.625  C 9.345177968644245 4.625  9.625 4.904822031355755  9.625 5.25  L 9.625 9  C 9.624964601621565 9.165746758424259  9.559093359256845 9.324692042901589  9.441875 9.441875  L 6.3168750000000005 12.566875  C 6.199102267540743 12.688814109300626  6.0368473408403585 12.757680128579642  5.867319871420358 12.757680128579642  C 5.522141902776113 12.757680128579642  5.242319871420358 12.477858097223887  5.242319871420358 12.132680128579642  C 5.242319871420358 11.96315265915964  5.311185890699377 11.800897732459259  5.433125 11.683125  Z " stroke-width="0" stroke-dasharray="0" stroke="rgba(255, 255, 255, 0)" fill="none" transform="matrix(1 0 0 1 325 16 )" class="stroke" mask="url(#Clip3641)" />
  </g>
</svg>