<svg t="1764905959815" class="icon" viewBox="0 0 1024 1024" version="1.1" xmlns="http://www.w3.org/2000/svg" p-id="6923" width="200" height="200"><path d="M512 512m-512 0a512 512 0 1 0 1024 0 512 512 0 1 0-1024 0Z" fill="#FFC25A" fill-opacity=".2" p-id="6924"></path><path d="M512 182.857143v201.618286l-105.947429 205.458285-113.481142 23.04z" fill="#FFC25A" p-id="6925"></path><path d="M512 182.857143v201.618286l105.947429 205.458285 113.481142 23.04z" fill="#FF9843" p-id="6926"></path><path d="M512 384.548571v322.925715l-105.947429-117.540572z" fill="#FFF48A" p-id="6927"></path><path d="M617.874286 589.933714L512 707.474286v-322.925715l105.874286 205.385143z m-211.821715 0L292.571429 612.973714 512 841.142857v-133.668571l-105.947429-117.540572z" fill="#FFE572" p-id="6928"></path><path d="M617.947429 589.933714L512 707.474286V841.142857l219.428571-228.169143z" fill="#FFC25A" p-id="6929"></path><path d="M653.238857 583.753143a41.106286 41.106286 0 0 1-30.646857-31.122286c-0.292571-1.206857-1.755429-1.206857-2.048 0a41.106286 41.106286 0 0 1-30.646857 31.085714c-1.206857 0.329143-1.206857 1.828571 0 2.121143 15.250286 3.510857 27.172571 15.725714 30.646857 31.085715 0.292571 1.206857 1.755429 1.206857 2.048 0 3.474286-15.469714 15.469714-27.574857 30.646857-31.085715 1.097143-0.292571 1.097143-1.865143 0-2.084571z m-65.060571 62.537143a34.523429 34.523429 0 0 1-24.466286-24.868572c-0.292571-1.170286-1.828571-1.170286-2.194286 0a34.523429 34.523429 0 0 1-24.466285 24.868572c-1.170286 0.292571-1.170286 1.828571 0 2.230857a34.523429 34.523429 0 0 1 24.466285 24.832c0.292571 1.206857 1.828571 1.206857 2.194286 0a34.523429 34.523429 0 0 1 24.502857-24.832c1.170286-0.365714 1.170286-1.938286 0-2.230857z" fill="#FFFFFF" p-id="6930"></path></svg>