<?xml version="1.0" encoding="utf-8"?>
<svg version="1.1" xmlns:xlink="http://www.w3.org/1999/xlink" width="9px" height="23px" xmlns="http://www.w3.org/2000/svg">
  <defs>
    <pattern id="BGPattern" patternUnits="userSpaceOnUse" alignment="0 0" imageRepeat="None" />
    <mask fill="white" id="Clip3974">
      <path d="M 7.4062500000000036 16.166666650390624  C 7.4062500000000036 17.029611572001244  6.706694921610616 17.729166650390624  5.8437500000000036 17.729166650390624  C 4.980805078389388 17.729166650390624  4.2812500000000036 17.029611572001244  4.2812500000000036 16.166666650390624  L 4.2812500000000036 1.7395833496093758  C 4.2812500000000036 0.8766384279987598  4.980805078389388 0.17708334960937577  5.8437500000000036 0.17708334960937577  C 6.706694921610616 0.17708334960937577  7.4062500000000036 0.8766384279987598  7.4062500000000036 1.7395833496093758  L 7.4062500000000036 16.166666650390624  Z " fill-rule="evenodd" />
    </mask>
  </defs>
  <g transform="matrix(1 0 0 1 -988 -320 )">
    <path d="M 7.4062500000000036 16.166666650390624  C 7.4062500000000036 17.029611572001244  6.706694921610616 17.729166650390624  5.8437500000000036 17.729166650390624  C 4.980805078389388 17.729166650390624  4.2812500000000036 17.029611572001244  4.2812500000000036 16.166666650390624  L 4.2812500000000036 1.7395833496093758  C 4.2812500000000036 0.8766384279987598  4.980805078389388 0.17708334960937577  5.8437500000000036 0.17708334960937577  C 6.706694921610616 0.17708334960937577  7.4062500000000036 0.8766384279987598  7.4062500000000036 1.7395833496093758  L 7.4062500000000036 16.166666650390624  Z M 0.35416665039063133 21.791666650390624  L 5.8437500000000036 16.302083349609383  C 5.843749973032974 19.333896497455108  3.3859797982363666 21.791666650390624  0.35416665039063133 21.791666650390624  Z " fill-rule="nonzero" fill="rgba(244, 234, 42, 1)" stroke="none" transform="matrix(1 0 0 1 988 320 )" class="fill" />
    <path d="M 7.4062500000000036 16.166666650390624  C 7.4062500000000036 17.029611572001244  6.706694921610616 17.729166650390624  5.8437500000000036 17.729166650390624  C 4.980805078389388 17.729166650390624  4.2812500000000036 17.029611572001244  4.2812500000000036 16.166666650390624  L 4.2812500000000036 1.7395833496093758  C 4.2812500000000036 0.8766384279987598  4.980805078389388 0.17708334960937577  5.8437500000000036 0.17708334960937577  C 6.706694921610616 0.17708334960937577  7.4062500000000036 0.8766384279987598  7.4062500000000036 1.7395833496093758  L 7.4062500000000036 16.166666650390624  Z " stroke-width="0" stroke-dasharray="0" stroke="rgba(255, 255, 255, 0)" fill="none" transform="matrix(1 0 0 1 988 320 )" class="stroke" mask="url(#Clip3974)" />
    <path d="M 5.8437500000000036 16.302083349609383  C 5.843749973032974 19.333896497455108  3.3859797982363666 21.791666650390624  0.35416665039063133 21.791666650390624  " stroke-width="0" stroke-dasharray="0" stroke="rgba(255, 255, 255, 0)" fill="none" transform="matrix(1 0 0 1 988 320 )" class="stroke" />
  </g>
</svg>