<?xml version="1.0" encoding="utf-8"?>
<svg version="1.1" xmlns:xlink="http://www.w3.org/1999/xlink" width="13px" height="19px" xmlns="http://www.w3.org/2000/svg">
  <defs>
    <pattern id="BGPattern" patternUnits="userSpaceOnUse" alignment="0 0" imageRepeat="None" />
    <mask fill="white" id="Clip10832">
      <path d="M 10.677083349995193 18.03128472282762  C 10.673611087857669 18.03128472282762  10.670138835365421 18.03127314848745  10.666666650390624 18.03125  C 9.803721728780008 18.03125  9.104166650390624 17.331694921610612  9 16.46875  L 9 3.96875  L 4 3.96875  L 4 15.291666650390626  C 3.989583349609374 15.291666650390626  3.989583349609374 15.291666650390626  3.989583349609374 15.291666650390626  C 3.989583349609374 16.154611572001237  3.290028271219988 16.854166650390624  2.427083349609374 16.854166650390624  C 1.5641384279987598 16.854166650390624  0.864583349609374 16.154611572001237  1 15.291666650390626  L 1 2.364583349609372  C 0.864583349609374 1.5016384279987598  1.5641384279987598 0.8020833496093722  2.427083349609374 0.8020833496093722  L 10.677083349609376 0.8020833496093722  C 11.540028271219988 0.8020833496093722  12.239583349609376 1.5016384279987598  12 2.364583349609372  L 12 16.46875  C 12.239583349866585 16.468761574247928  12.239583349995193 16.468773148579693  12.239583349995193 16.46878472282762  C 12.239583349995193 17.33172964443824  11.540028271605806 18.03128472282762  10.677083349995193 18.03128472282762  Z " fill-rule="evenodd" />
    </mask>
  </defs>
  <g transform="matrix(1 0 0 1 -495 -461 )">
    <path d="M 10.677083349995193 18.03128472282762  C 10.673611087857669 18.03128472282762  10.670138835365421 18.03127314848745  10.666666650390624 18.03125  C 9.803721728780008 18.03125  9.104166650390624 17.331694921610612  9 16.46875  L 9 3.96875  L 4 3.96875  L 4 15.291666650390626  C 3.989583349609374 15.291666650390626  3.989583349609374 15.291666650390626  3.989583349609374 15.291666650390626  C 3.989583349609374 16.154611572001237  3.290028271219988 16.854166650390624  2.427083349609374 16.854166650390624  C 1.5641384279987598 16.854166650390624  0.864583349609374 16.154611572001237  1 15.291666650390626  L 1 2.364583349609372  C 0.864583349609374 1.5016384279987598  1.5641384279987598 0.8020833496093722  2.427083349609374 0.8020833496093722  L 10.677083349609376 0.8020833496093722  C 11.540028271219988 0.8020833496093722  12.239583349609376 1.5016384279987598  12 2.364583349609372  L 12 16.46875  C 12.239583349866585 16.468761574247928  12.239583349995193 16.468773148579693  12.239583349995193 16.46878472282762  C 12.239583349995193 17.33172964443824  11.540028271605806 18.03128472282762  10.677083349995193 18.03128472282762  Z " fill-rule="nonzero" fill="rgba(244, 234, 42, 1)" stroke="none" transform="matrix(1 0 0 1 495 461 )" class="fill" />
    <path d="M 10.677083349995193 18.03128472282762  C 10.673611087857669 18.03128472282762  10.670138835365421 18.03127314848745  10.666666650390624 18.03125  C 9.803721728780008 18.03125  9.104166650390624 17.331694921610612  9 16.46875  L 9 3.96875  L 4 3.96875  L 4 15.291666650390626  C 3.989583349609374 15.291666650390626  3.989583349609374 15.291666650390626  3.989583349609374 15.291666650390626  C 3.989583349609374 16.154611572001237  3.290028271219988 16.854166650390624  2.427083349609374 16.854166650390624  C 1.5641384279987598 16.854166650390624  0.864583349609374 16.154611572001237  1 15.291666650390626  L 1 2.364583349609372  C 0.864583349609374 1.5016384279987598  1.5641384279987598 0.8020833496093722  2.427083349609374 0.8020833496093722  L 10.677083349609376 0.8020833496093722  C 11.540028271219988 0.8020833496093722  12.239583349609376 1.5016384279987598  12 2.364583349609372  L 12 16.46875  C 12.239583349866585 16.468761574247928  12.239583349995193 16.468773148579693  12.239583349995193 16.46878472282762  C 12.239583349995193 17.33172964443824  11.540028271605806 18.03128472282762  10.677083349995193 18.03128472282762  Z " stroke-width="0" stroke-dasharray="0" stroke="rgba(255, 255, 255, 0)" fill="none" transform="matrix(1 0 0 1 495 461 )" class="stroke" mask="url(#Clip10832)" />
  </g>
</svg>