<?xml version="1.0" encoding="utf-8"?>
<svg version="1.1" xmlns:xlink="http://www.w3.org/1999/xlink" width="17px" height="10px" xmlns="http://www.w3.org/2000/svg">
  <defs>
    <pattern id="BGPattern" patternUnits="userSpaceOnUse" alignment="0 0" imageRepeat="None" />
    <mask fill="white" id="Clip2357">
      <path d="M 16.65625 1.7395833496093616  C 16.650502207815826 6.2630992070284535  12.98185285873317 9.927087001315549  8.458333349609376 9.927083349609369  C 3.9388812601817342 9.921344364841609  0.27657233437712136 6.259035439037007  0.27083334960936867 1.7395833496093687  C 0.27083334960936867 0.8766384279987562  0.9703884279987562 0.17708334960936867  1.8333333496093687 0.17708334960936867  C 2.6962782712199846 0.17708334960936867  3.3958333496093687 0.8766384279987562  3.3958333496093687 1.7395833496093687  C 3.3958333496093687 4.5384013742053  5.664723650208764 6.807291674804681  8.463541674804688 6.807291674804681  C 11.262359699400605 6.807291674804681  13.53125 4.538401374205293  13.53125 1.7395833496093687  C 13.53125 0.8766384279987562  14.23080507838938 0.17708334960936867  15.09375 0.17708334960936867  C 15.956694921610612 0.17708334960936867  16.65625 0.8766384279987562  16.65625 1.7395833496093687  Z " fill-rule="evenodd" />
    </mask>
  </defs>
  <g transform="matrix(1 0 0 1 -514 -468 )">
    <path d="M 16.65625 1.7395833496093616  C 16.650502207815826 6.2630992070284535  12.98185285873317 9.927087001315549  8.458333349609376 9.927083349609369  C 3.9388812601817342 9.921344364841609  0.27657233437712136 6.259035439037007  0.27083334960936867 1.7395833496093687  C 0.27083334960936867 0.8766384279987562  0.9703884279987562 0.17708334960936867  1.8333333496093687 0.17708334960936867  C 2.6962782712199846 0.17708334960936867  3.3958333496093687 0.8766384279987562  3.3958333496093687 1.7395833496093687  C 3.3958333496093687 4.5384013742053  5.664723650208764 6.807291674804681  8.463541674804688 6.807291674804681  C 11.262359699400605 6.807291674804681  13.53125 4.538401374205293  13.53125 1.7395833496093687  C 13.53125 0.8766384279987562  14.23080507838938 0.17708334960936867  15.09375 0.17708334960936867  C 15.956694921610612 0.17708334960936867  16.65625 0.8766384279987562  16.65625 1.7395833496093687  Z " fill-rule="nonzero" fill="rgba(244, 234, 42, 1)" stroke="none" transform="matrix(1 0 0 1 514 468 )" class="fill" />
    <path d="M 16.65625 1.7395833496093616  C 16.650502207815826 6.2630992070284535  12.98185285873317 9.927087001315549  8.458333349609376 9.927083349609369  C 3.9388812601817342 9.921344364841609  0.27657233437712136 6.259035439037007  0.27083334960936867 1.7395833496093687  C 0.27083334960936867 0.8766384279987562  0.9703884279987562 0.17708334960936867  1.8333333496093687 0.17708334960936867  C 2.6962782712199846 0.17708334960936867  3.3958333496093687 0.8766384279987562  3.3958333496093687 1.7395833496093687  C 3.3958333496093687 4.5384013742053  5.664723650208764 6.807291674804681  8.463541674804688 6.807291674804681  C 11.262359699400605 6.807291674804681  13.53125 4.538401374205293  13.53125 1.7395833496093687  C 13.53125 0.8766384279987562  14.23080507838938 0.17708334960936867  15.09375 0.17708334960936867  C 15.956694921610612 0.17708334960936867  16.65625 0.8766384279987562  16.65625 1.7395833496093687  Z " stroke-width="0" stroke-dasharray="0" stroke="rgba(255, 255, 255, 0)" fill="none" transform="matrix(1 0 0 1 514 468 )" class="stroke" mask="url(#Clip2357)" />
  </g>
</svg>