<?xml version="1.0" encoding="utf-8"?>
<svg version="1.1" xmlns:xlink="http://www.w3.org/1999/xlink" width="34px" height="38px" xmlns="http://www.w3.org/2000/svg">
  <defs>
    <pattern id="BGPattern" patternUnits="userSpaceOnUse" alignment="0 0" imageRepeat="None" />
    <mask fill="white" id="Clip3336">
      <path d="M 0.2744140625 33.393408203125  L 25.827832031250004 0.6866210937499986  C 30.65341796875 4.48642578125  33.751953125 10.38134765625  33.751953125 17  C 33.751953125 28.460986328125003  24.460986328125003 37.751953125  13 37.751953125  C 8.204296875 37.751953125  3.7885742187500018 36.1251953125  0.2744140625 33.393408203125  Z " fill-rule="evenodd" />
    </mask>
  </defs>
  <g transform="matrix(1 0 0 1 -738 -444 )">
    <path d="M 0.2744140625 33.393408203125  L 25.827832031250004 0.6866210937499986  C 30.65341796875 4.48642578125  33.751953125 10.38134765625  33.751953125 17  C 33.751953125 28.460986328125003  24.460986328125003 37.751953125  13 37.751953125  C 8.204296875 37.751953125  3.7885742187500018 36.1251953125  0.2744140625 33.393408203125  Z " fill-rule="nonzero" fill="rgba(238, 208, 157, 1)" stroke="none" transform="matrix(1 0 0 1 738 444 )" class="fill" />
    <path d="M 0.2744140625 33.393408203125  L 25.827832031250004 0.6866210937499986  C 30.65341796875 4.48642578125  33.751953125 10.38134765625  33.751953125 17  C 33.751953125 28.460986328125003  24.460986328125003 37.751953125  13 37.751953125  C 8.204296875 37.751953125  3.7885742187500018 36.1251953125  0.2744140625 33.393408203125  Z " stroke-width="0" stroke-dasharray="0" stroke="rgba(255, 255, 255, 0)" fill="none" transform="matrix(1 0 0 1 738 444 )" class="stroke" mask="url(#Clip3336)" />
  </g>
</svg>