<?xml version="1.0" encoding="utf-8"?>
<svg version="1.1" xmlns:xlink="http://www.w3.org/1999/xlink" width="5px" height="5px" xmlns="http://www.w3.org/2000/svg">
  <defs>
    <pattern id="BGPattern" patternUnits="userSpaceOnUse" alignment="0 0" imageRepeat="None" />
    <mask fill="white" id="Clip1393">
      <path d="M 0.6872866510040403 2.124786675414571  C 0.6872866510040403 2.6774255693637805  0.9068628994277859 3.207420990629158  1.297694189453125 3.598139111328127  C 1.6884123121338241 3.9889704162901207  2.2184077438635654 4.208546674194807  2.771046649777208 4.208546674194807  C 3.921639887580369 4.208546674194807  4.85437999938658 3.2758065623885937  4.85437999938658 2.1252133245854328  C 4.85437999938658 1.5725744306362266  4.634803750962838 1.0425790093708436  4.243972460937503 0.6518608886718766  C 3.8532543382567965 0.2610295837098775  3.323258906527059 0.04145332580519678  2.7706200006134125 0.04145332580519678  C 1.6200267628102516 0.04145332580519678  0.6872866510040403 0.9741934376114099  0.6872866510040403 2.124786675414571  Z " fill-rule="evenodd" />
    </mask>
  </defs>
  <g transform="matrix(1 0 0 1 -504 -447 )">
    <path d="M 0.6872866510040403 2.124786675414571  C 0.6872866510040403 2.6774255693637805  0.9068628994277859 3.207420990629158  1.297694189453125 3.598139111328127  C 1.6884123121338241 3.9889704162901207  2.2184077438635654 4.208546674194807  2.771046649777208 4.208546674194807  C 3.921639887580369 4.208546674194807  4.85437999938658 3.2758065623885937  4.85437999938658 2.1252133245854328  C 4.85437999938658 1.5725744306362266  4.634803750962838 1.0425790093708436  4.243972460937503 0.6518608886718766  C 3.8532543382567965 0.2610295837098775  3.323258906527059 0.04145332580519678  2.7706200006134125 0.04145332580519678  C 1.6200267628102516 0.04145332580519678  0.6872866510040403 0.9741934376114099  0.6872866510040403 2.124786675414571  Z " fill-rule="nonzero" fill="rgba(244, 234, 42, 1)" stroke="none" transform="matrix(1 0 0 1 504 447 )" class="fill" />
    <path d="M 0.6872866510040403 2.124786675414571  C 0.6872866510040403 2.6774255693637805  0.9068628994277859 3.207420990629158  1.297694189453125 3.598139111328127  C 1.6884123121338241 3.9889704162901207  2.2184077438635654 4.208546674194807  2.771046649777208 4.208546674194807  C 3.921639887580369 4.208546674194807  4.85437999938658 3.2758065623885937  4.85437999938658 2.1252133245854328  C 4.85437999938658 1.5725744306362266  4.634803750962838 1.0425790093708436  4.243972460937503 0.6518608886718766  C 3.8532543382567965 0.2610295837098775  3.323258906527059 0.04145332580519678  2.7706200006134125 0.04145332580519678  C 1.6200267628102516 0.04145332580519678  0.6872866510040403 0.9741934376114099  0.6872866510040403 2.124786675414571  Z " stroke-width="0" stroke-dasharray="0" stroke="rgba(255, 255, 255, 0)" fill="none" transform="matrix(1 0 0 1 504 447 )" class="stroke" mask="url(#Clip1393)" />
  </g>
</svg>