<?xml version="1.0" encoding="utf-8"?>
<svg version="1.1" xmlns:xlink="http://www.w3.org/1999/xlink" width="67px" height="16px" xmlns="http://www.w3.org/2000/svg">
  <defs>
    <pattern id="BGPattern" patternUnits="userSpaceOnUse" alignment="0 0" imageRepeat="None" />
    <mask fill="white" id="Clip5978">
      <path d="M 0.6874999999999929 3.729166723632815  C 0.6874999999999929 1.5902778727213551  1.756944425455714 0.5208333902994795  3.895833276367185 0.5208332763671883  L 63.1041667236328 0.5208332763671883  C 65.24305557454427 0.5208332763671883  66.3125 1.590277758789064  66.31249999999999 3.729166723632815  L 66.31249999999999 11.895833276367192  C 66.3125 14.034722127278656  65.24305557454427 15.104166609700528  63.1041667236328 15  L 3.8958332763671777 15  C 1.756944425455714 15.104166723632815  0.6874999999999929 14.034722241210943  0.6874999999999929 11.895833276367192  L 0.6874999999999929 3.729166723632815  Z " fill-rule="evenodd" />
    </mask>
  </defs>
  <g transform="matrix(1 0 0 1 -79 -42 )">
    <path d="M 0.6874999999999929 3.729166723632815  C 0.6874999999999929 1.5902778727213551  1.756944425455714 0.5208333902994795  3.895833276367185 0.5208332763671883  L 63.1041667236328 0.5208332763671883  C 65.24305557454427 0.5208332763671883  66.3125 1.590277758789064  66.31249999999999 3.729166723632815  L 66.31249999999999 11.895833276367192  C 66.3125 14.034722127278656  65.24305557454427 15.104166609700528  63.1041667236328 15  L 3.8958332763671777 15  C 1.756944425455714 15.104166723632815  0.6874999999999929 14.034722241210943  0.6874999999999929 11.895833276367192  L 0.6874999999999929 3.729166723632815  Z " fill-rule="nonzero" fill="rgba(209, 0, 25, 1)" stroke="none" transform="matrix(1 0 0 1 79 42 )" class="fill" />
    <path d="M 0.6874999999999929 3.729166723632815  C 0.6874999999999929 1.5902778727213551  1.756944425455714 0.5208333902994795  3.895833276367185 0.5208332763671883  L 63.1041667236328 0.5208332763671883  C 65.24305557454427 0.5208332763671883  66.3125 1.590277758789064  66.31249999999999 3.729166723632815  L 66.31249999999999 11.895833276367192  C 66.3125 14.034722127278656  65.24305557454427 15.104166609700528  63.1041667236328 15  L 3.8958332763671777 15  C 1.756944425455714 15.104166723632815  0.6874999999999929 14.034722241210943  0.6874999999999929 11.895833276367192  L 0.6874999999999929 3.729166723632815  Z " stroke-width="0" stroke-dasharray="0" stroke="rgba(255, 255, 255, 0)" fill="none" transform="matrix(1 0 0 1 79 42 )" class="stroke" mask="url(#Clip5978)" />
  </g>
</svg>