<?xml version="1.0" encoding="utf-8"?>
<svg version="1.1" xmlns:xlink="http://www.w3.org/1999/xlink" width="111px" height="12px" xmlns="http://www.w3.org/2000/svg">
  <defs>
    <pattern id="BGPattern" patternUnits="userSpaceOnUse" alignment="0 0" imageRepeat="None" />
    <mask fill="white" id="Clip9246">
      <path d="M 0.8124999999999929 4.041666723632829  C 0.8125 1.9027778727213729  1.881944425455728 0.8333333902994866  4.020833276367192 1  L 106.97916672363283 1  C 109.11805557454429 0.833333276367199  110.1875 1.9027777587890853  110.1875 4.041666723632829  L 110.1875 8.5625  C 110.1875 10.701388850911485  109.11805557454429 11.770833276367227  106.97916672363283 11.770833276367199  L 4.020833276367185 11.770833276367199  C 1.881944425455728 11.770833276367227  0.8125 10.701388850911485  0.8124999999999929 8.5625  L 0.8124999999999929 4.041666723632829  Z " fill-rule="evenodd" />
    </mask>
  </defs>
  <g transform="matrix(1 0 0 1 -57 -84 )">
    <path d="M 0.8124999999999929 4.041666723632829  C 0.8125 1.9027778727213729  1.881944425455728 0.8333333902994866  4.020833276367192 1  L 106.97916672363283 1  C 109.11805557454429 0.833333276367199  110.1875 1.9027777587890853  110.1875 4.041666723632829  L 110.1875 8.5625  C 110.1875 10.701388850911485  109.11805557454429 11.770833276367227  106.97916672363283 11.770833276367199  L 4.020833276367185 11.770833276367199  C 1.881944425455728 11.770833276367227  0.8125 10.701388850911485  0.8124999999999929 8.5625  L 0.8124999999999929 4.041666723632829  Z " fill-rule="nonzero" fill="rgba(255, 139, 0, 1)" stroke="none" transform="matrix(1 0 0 1 57 84 )" class="fill" />
    <path d="M 0.8124999999999929 4.041666723632829  C 0.8125 1.9027778727213729  1.881944425455728 0.8333333902994866  4.020833276367192 1  L 106.97916672363283 1  C 109.11805557454429 0.833333276367199  110.1875 1.9027777587890853  110.1875 4.041666723632829  L 110.1875 8.5625  C 110.1875 10.701388850911485  109.11805557454429 11.770833276367227  106.97916672363283 11.770833276367199  L 4.020833276367185 11.770833276367199  C 1.881944425455728 11.770833276367227  0.8125 10.701388850911485  0.8124999999999929 8.5625  L 0.8124999999999929 4.041666723632829  Z " stroke-width="0" stroke-dasharray="0" stroke="rgba(255, 255, 255, 0)" fill="none" transform="matrix(1 0 0 1 57 84 )" class="stroke" mask="url(#Clip9246)" />
  </g>
</svg>