<?xml version="1.0" encoding="utf-8"?>
<svg version="1.1" xmlns:xlink="http://www.w3.org/1999/xlink" width="25px" height="22px" xmlns="http://www.w3.org/2000/svg">
  <defs>
    <pattern id="BGPattern" patternUnits="userSpaceOnUse" alignment="0 0" imageRepeat="None" />
    <mask fill="white" id="Clip13608">
      <path d="M 4.114583349609376 14.052083349609376  C 4.114583349609376 14.915028271219986  3.4150282712199878 15.614583349609374  2.552083349609374 15.614583349609374  C 1.6891384279987598 15.614583349609374  0.989583349609374 14.915028271219986  1 14.052083349609376  L 1 1.9166666503906242  C 0.989583349609374 1.9166666503906242  0.989583349609374 1.9166666503906242  0.989583349609374 1.9166666503906242  C 0.989583349609374 1.05372172878001  1.6891384279987598 0.3541666503906242  2.552083349609374 0.3541666503906242  C 3.4150282712199878 0.3541666503906242  4.114583349609376 1.05372172878001  4.114583349609376 1.9166666503906242  L 4.114583349609376 14.052083349609376  Z M 22.875 21.697916650390628  L 22.864583349609376 21.65625  C 22.01369645352034 21.656420194063276  21.3191010708505 20.97571671904684  21 20.125  L 21 6.802083349609375  L 14 6.802083349609375  L 14 17.947916650390624  C 13.927083349609374 17.947916650390624  13.927083349609374 17.947916650390624  13.927083349609374 17.947916650390624  C 13.927083349609374 18.810861572001237  13.227528271219985 19.510416650390624  12.364583349609372 19.510416650390624  C 11.501638427998756 19.510416650390624  10.802083349609372 18.810861572001237  11 17.947916650390624  L 11 5.208333349609374  C 10.802083349609372 4.34538842799876  11.501638427998756 3.645833349609374  12.364583349609372 4  L 22.78125 4  C 23.64014326150253 3.6458142627624928  24.338024027240373 4.339042475522897  24 5.197916650390626  L 24 20.125  C 24.427106651422484 20.128483664712633  24.427118302426777 20.13196739761426  24.427118302426777 20.13545114025753  C 24.427118302426777 20.994344510861797  23.733874411808728 21.69220991680902  22.875 21.697916650390628  Z " fill-rule="evenodd" />
    </mask>
  </defs>
  <g transform="matrix(1 0 0 1 -499 -444 )">
    <path d="M 4.114583349609376 14.052083349609376  C 4.114583349609376 14.915028271219986  3.4150282712199878 15.614583349609374  2.552083349609374 15.614583349609374  C 1.6891384279987598 15.614583349609374  0.989583349609374 14.915028271219986  1 14.052083349609376  L 1 1.9166666503906242  C 0.989583349609374 1.9166666503906242  0.989583349609374 1.9166666503906242  0.989583349609374 1.9166666503906242  C 0.989583349609374 1.05372172878001  1.6891384279987598 0.3541666503906242  2.552083349609374 0.3541666503906242  C 3.4150282712199878 0.3541666503906242  4.114583349609376 1.05372172878001  4.114583349609376 1.9166666503906242  L 4.114583349609376 14.052083349609376  Z M 22.875 21.697916650390628  L 22.864583349609376 21.65625  C 22.01369645352034 21.656420194063276  21.3191010708505 20.97571671904684  21 20.125  L 21 6.802083349609375  L 14 6.802083349609375  L 14 17.947916650390624  C 13.927083349609374 17.947916650390624  13.927083349609374 17.947916650390624  13.927083349609374 17.947916650390624  C 13.927083349609374 18.810861572001237  13.227528271219985 19.510416650390624  12.364583349609372 19.510416650390624  C 11.501638427998756 19.510416650390624  10.802083349609372 18.810861572001237  11 17.947916650390624  L 11 5.208333349609374  C 10.802083349609372 4.34538842799876  11.501638427998756 3.645833349609374  12.364583349609372 4  L 22.78125 4  C 23.64014326150253 3.6458142627624928  24.338024027240373 4.339042475522897  24 5.197916650390626  L 24 20.125  C 24.427106651422484 20.128483664712633  24.427118302426777 20.13196739761426  24.427118302426777 20.13545114025753  C 24.427118302426777 20.994344510861797  23.733874411808728 21.69220991680902  22.875 21.697916650390628  Z " fill-rule="nonzero" fill="rgba(244, 234, 42, 1)" stroke="none" transform="matrix(1 0 0 1 499 444 )" class="fill" />
    <path d="M 4.114583349609376 14.052083349609376  C 4.114583349609376 14.915028271219986  3.4150282712199878 15.614583349609374  2.552083349609374 15.614583349609374  C 1.6891384279987598 15.614583349609374  0.989583349609374 14.915028271219986  1 14.052083349609376  L 1 1.9166666503906242  C 0.989583349609374 1.9166666503906242  0.989583349609374 1.9166666503906242  0.989583349609374 1.9166666503906242  C 0.989583349609374 1.05372172878001  1.6891384279987598 0.3541666503906242  2.552083349609374 0.3541666503906242  C 3.4150282712199878 0.3541666503906242  4.114583349609376 1.05372172878001  4.114583349609376 1.9166666503906242  L 4.114583349609376 14.052083349609376  Z " stroke-width="0" stroke-dasharray="0" stroke="rgba(255, 255, 255, 0)" fill="none" transform="matrix(1 0 0 1 499 444 )" class="stroke" mask="url(#Clip13608)" />
    <path d="M 22.875 21.697916650390628  L 22.864583349609376 21.65625  C 22.01369645352034 21.656420194063276  21.3191010708505 20.97571671904684  21 20.125  L 21 6.802083349609375  L 14 6.802083349609375  L 14 17.947916650390624  C 13.927083349609374 17.947916650390624  13.927083349609374 17.947916650390624  13.927083349609374 17.947916650390624  C 13.927083349609374 18.810861572001237  13.227528271219985 19.510416650390624  12.364583349609372 19.510416650390624  C 11.501638427998756 19.510416650390624  10.802083349609372 18.810861572001237  11 17.947916650390624  L 11 5.208333349609374  C 10.802083349609372 4.34538842799876  11.501638427998756 3.645833349609374  12.364583349609372 4  L 22.78125 4  C 23.64014326150253 3.6458142627624928  24.338024027240373 4.339042475522897  24 5.197916650390626  L 24 20.125  C 24.427106651422484 20.128483664712633  24.427118302426777 20.13196739761426  24.427118302426777 20.13545114025753  C 24.427118302426777 20.994344510861797  23.733874411808728 21.69220991680902  22.875 21.697916650390628  Z " stroke-width="0" stroke-dasharray="0" stroke="rgba(255, 255, 255, 0)" fill="none" transform="matrix(1 0 0 1 499 444 )" class="stroke" mask="url(#Clip13608)" />
  </g>
</svg>