<?xml version="1.0" encoding="utf-8"?>
<svg version="1.1" xmlns:xlink="http://www.w3.org/1999/xlink" width="42px" height="42px" xmlns="http://www.w3.org/2000/svg">
  <defs>
    <pattern id="BGPattern" patternUnits="userSpaceOnUse" alignment="0 0" imageRepeat="None" />
    <mask fill="white" id="Clip13612">
      <path d="M 0.248046875 21  C 0.248046875 32.46098724014097  9.539012759859023 41.75195312500001  21 41.75195312500001  C 32.46098724014098 41.75195312500001  41.75195312500001 32.46098724014098  41.75195312500001 21  C 41.75195312500001 9.539012759859023  32.46098724014098 0.2480468749999982  21 0.2480468749999982  C 9.539012759859023 0.2480468749999982  0.2480468749999982 9.539012759859023  0.2480468749999982 21  Z " fill-rule="evenodd" />
    </mask>
  </defs>
  <g transform="matrix(1 0 0 1 -730 -440 )">
    <path d="M 0.248046875 21  C 0.248046875 32.46098724014097  9.539012759859023 41.75195312500001  21 41.75195312500001  C 32.46098724014098 41.75195312500001  41.75195312500001 32.46098724014098  41.75195312500001 21  C 41.75195312500001 9.539012759859023  32.46098724014098 0.2480468749999982  21 0.2480468749999982  C 9.539012759859023 0.2480468749999982  0.2480468749999982 9.539012759859023  0.2480468749999982 21  Z " fill-rule="nonzero" fill="rgba(245, 228, 190, 1)" stroke="none" transform="matrix(1 0 0 1 730 440 )" class="fill" />
    <path d="M 0.248046875 21  C 0.248046875 32.46098724014097  9.539012759859023 41.75195312500001  21 41.75195312500001  C 32.46098724014098 41.75195312500001  41.75195312500001 32.46098724014098  41.75195312500001 21  C 41.75195312500001 9.539012759859023  32.46098724014098 0.2480468749999982  21 0.2480468749999982  C 9.539012759859023 0.2480468749999982  0.2480468749999982 9.539012759859023  0.2480468749999982 21  Z " stroke-width="0" stroke-dasharray="0" stroke="rgba(255, 255, 255, 0)" fill="none" transform="matrix(1 0 0 1 730 440 )" class="stroke" mask="url(#Clip13612)" />
  </g>
</svg>