<?xml version="1.0" encoding="utf-8"?>
<svg version="1.1" xmlns:xlink="http://www.w3.org/1999/xlink" width="17px" height="14px" xmlns="http://www.w3.org/2000/svg">
  <defs>
    <pattern id="BGPattern" patternUnits="userSpaceOnUse" alignment="0 0" imageRepeat="None" />
    <mask fill="white" id="Clip2549">
      <path d="M 8.520833349609374 3.6875  L 4.354166650390626 3.6875  C 3.491221728780012 3.6875  2.791666650390626 2.987944921610614  2.791666650390626 2.125  C 2.791666650390626 1.2620550783893858  3.491221728780012 0.5625  4.354166650390626 0.5625  L 8.520833349609374 0.5625  C 9.383778271219988 0.5625  10.083333349609376 1.2620550783893858  10.083333349609376 2.125  C 10.083333349609376 2.987944921610614  9.383778271219988 3.6875  8.520833349609374 3.6875  Z M 14.770833349609376 8.5625  L 4.354166650390624 8.5625  C 3.49122172878001 8.5625  2.7916666503906242 7.862944921610613  2.7916666503906242 7  C 2.7916666503906242 6.137055078389384  3.49122172878001 5.4375  4.354166650390624 5.4375  L 14.770833349609376 5.4375  C 15.633778271219988 5.4375  16.333333349609376 6.137055078389384  16.333333349609376 7  C 16.333333349609376 7.862944921610613  15.633778271219988 8.5625  14.770833349609376 8.5625  Z M 14.770833349609376 13.583333349609372  L 2.270833349609374 13.583333349609372  C 1.4078884279987598 13.583333349609372  0.708333349609374 12.883778271219988  0.708333349609374 12.020833349609372  C 0.708333349609374 11.15788842799876  1.4078884279987598 10.458333349609372  2.270833349609374 10.458333349609372  L 14.770833349609376 10.458333349609372  C 15.633778271219988 10.458333349609372  16.333333349609376 11.15788842799876  16.333333349609376 12.020833349609372  C 16.333333349609376 12.883778271219988  15.633778271219988 13.583333349609372  14.770833349609376 13.583333349609372  Z " fill-rule="evenodd" />
    </mask>
  </defs>
  <g transform="matrix(1 0 0 1 -970 -313 )">
    <path d="M 8.520833349609374 3.6875  L 4.354166650390626 3.6875  C 3.491221728780012 3.6875  2.791666650390626 2.987944921610614  2.791666650390626 2.125  C 2.791666650390626 1.2620550783893858  3.491221728780012 0.5625  4.354166650390626 0.5625  L 8.520833349609374 0.5625  C 9.383778271219988 0.5625  10.083333349609376 1.2620550783893858  10.083333349609376 2.125  C 10.083333349609376 2.987944921610614  9.383778271219988 3.6875  8.520833349609374 3.6875  Z M 14.770833349609376 8.5625  L 4.354166650390624 8.5625  C 3.49122172878001 8.5625  2.7916666503906242 7.862944921610613  2.7916666503906242 7  C 2.7916666503906242 6.137055078389384  3.49122172878001 5.4375  4.354166650390624 5.4375  L 14.770833349609376 5.4375  C 15.633778271219988 5.4375  16.333333349609376 6.137055078389384  16.333333349609376 7  C 16.333333349609376 7.862944921610613  15.633778271219988 8.5625  14.770833349609376 8.5625  Z M 14.770833349609376 13.583333349609372  L 2.270833349609374 13.583333349609372  C 1.4078884279987598 13.583333349609372  0.708333349609374 12.883778271219988  0.708333349609374 12.020833349609372  C 0.708333349609374 11.15788842799876  1.4078884279987598 10.458333349609372  2.270833349609374 10.458333349609372  L 14.770833349609376 10.458333349609372  C 15.633778271219988 10.458333349609372  16.333333349609376 11.15788842799876  16.333333349609376 12.020833349609372  C 16.333333349609376 12.883778271219988  15.633778271219988 13.583333349609372  14.770833349609376 13.583333349609372  Z " fill-rule="nonzero" fill="rgba(244, 234, 42, 1)" stroke="none" transform="matrix(1 0 0 1 970 313 )" class="fill" />
    <path d="M 8.520833349609374 3.6875  L 4.354166650390626 3.6875  C 3.491221728780012 3.6875  2.791666650390626 2.987944921610614  2.791666650390626 2.125  C 2.791666650390626 1.2620550783893858  3.491221728780012 0.5625  4.354166650390626 0.5625  L 8.520833349609374 0.5625  C 9.383778271219988 0.5625  10.083333349609376 1.2620550783893858  10.083333349609376 2.125  C 10.083333349609376 2.987944921610614  9.383778271219988 3.6875  8.520833349609374 3.6875  Z " stroke-width="0" stroke-dasharray="0" stroke="rgba(255, 255, 255, 0)" fill="none" transform="matrix(1 0 0 1 970 313 )" class="stroke" mask="url(#Clip2549)" />
    <path d="M 14.770833349609376 8.5625  L 4.354166650390624 8.5625  C 3.49122172878001 8.5625  2.7916666503906242 7.862944921610613  2.7916666503906242 7  C 2.7916666503906242 6.137055078389384  3.49122172878001 5.4375  4.354166650390624 5.4375  L 14.770833349609376 5.4375  C 15.633778271219988 5.4375  16.333333349609376 6.137055078389384  16.333333349609376 7  C 16.333333349609376 7.862944921610613  15.633778271219988 8.5625  14.770833349609376 8.5625  Z " stroke-width="0" stroke-dasharray="0" stroke="rgba(255, 255, 255, 0)" fill="none" transform="matrix(1 0 0 1 970 313 )" class="stroke" mask="url(#Clip2549)" />
    <path d="M 14.770833349609376 13.583333349609372  L 2.270833349609374 13.583333349609372  C 1.4078884279987598 13.583333349609372  0.708333349609374 12.883778271219988  0.708333349609374 12.020833349609372  C 0.708333349609374 11.15788842799876  1.4078884279987598 10.458333349609372  2.270833349609374 10.458333349609372  L 14.770833349609376 10.458333349609372  C 15.633778271219988 10.458333349609372  16.333333349609376 11.15788842799876  16.333333349609376 12.020833349609372  C 16.333333349609376 12.883778271219988  15.633778271219988 13.583333349609372  14.770833349609376 13.583333349609372  Z " stroke-width="0" stroke-dasharray="0" stroke="rgba(255, 255, 255, 0)" fill="none" transform="matrix(1 0 0 1 970 313 )" class="stroke" mask="url(#Clip2549)" />
  </g>
</svg>