<?xml version="1.0" encoding="utf-8"?>
<svg version="1.1" xmlns:xlink="http://www.w3.org/1999/xlink" width="42px" height="42px" xmlns="http://www.w3.org/2000/svg">
  <defs>
    <pattern id="BGPattern" patternUnits="userSpaceOnUse" alignment="0 0" imageRepeat="None" />
    <mask fill="white" id="Clip15080">
      <path d="M 0.248046875 21  C 0.248046875 9.539013671875  9.539013671875 0.248046875  21 0.248046875  C 32.460986328125 0.248046875  41.751953125 9.539013671875  41.751953125 21  C 41.751953125 32.460986328125  32.460986328125 41.751953125  21 41.751953125  C 9.539013671875 41.751953125  0.248046875 32.460986328125  0.248046875 21  Z M 40.9833984375 21  C 40.9833984375 9.963525390624998  32.036474609375006 1.0166015625  21 1.0166015625  C 9.963476562499999 1.0166015625  1.0166015625 9.963525390625001  1.0166015625 21  C 1.0166015625 32.036474609375006  9.963525390625001 40.9833984375  21 40.9833984375  C 32.036474609375006 40.9833984375  40.9833984375 32.036474609375006  40.9833984375 21  Z " fill-rule="evenodd" />
    </mask>
  </defs>
  <g transform="matrix(1 0 0 1 -730 -440 )">
    <path d="M 0.248046875 21  C 0.248046875 9.539013671875  9.539013671875 0.248046875  21 0.248046875  C 32.460986328125 0.248046875  41.751953125 9.539013671875  41.751953125 21  C 41.751953125 32.460986328125  32.460986328125 41.751953125  21 41.751953125  C 9.539013671875 41.751953125  0.248046875 32.460986328125  0.248046875 21  Z M 40.9833984375 21  C 40.9833984375 9.963525390624998  32.036474609375006 1.0166015625  21 1.0166015625  C 9.963476562499999 1.0166015625  1.0166015625 9.963525390625001  1.0166015625 21  C 1.0166015625 32.036474609375006  9.963525390625001 40.9833984375  21 40.9833984375  C 32.036474609375006 40.9833984375  40.9833984375 32.036474609375006  40.9833984375 21  Z " fill-rule="nonzero" fill="rgba(0, 0, 0, 1)" stroke="none" transform="matrix(1 0 0 1 730 440 )" class="fill" />
    <path d="M 0.248046875 21  C 0.248046875 9.539013671875  9.539013671875 0.248046875  21 0.248046875  C 32.460986328125 0.248046875  41.751953125 9.539013671875  41.751953125 21  C 41.751953125 32.460986328125  32.460986328125 41.751953125  21 41.751953125  C 9.539013671875 41.751953125  0.248046875 32.460986328125  0.248046875 21  Z " stroke-width="0" stroke-dasharray="0" stroke="rgba(255, 255, 255, 0)" fill="none" transform="matrix(1 0 0 1 730 440 )" class="stroke" mask="url(#Clip15080)" />
    <path d="M 40.9833984375 21  C 40.9833984375 9.963525390624998  32.036474609375006 1.0166015625  21 1.0166015625  C 9.963476562499999 1.0166015625  1.0166015625 9.963525390625001  1.0166015625 21  C 1.0166015625 32.036474609375006  9.963525390625001 40.9833984375  21 40.9833984375  C 32.036474609375006 40.9833984375  40.9833984375 32.036474609375006  40.9833984375 21  Z " stroke-width="0" stroke-dasharray="0" stroke="rgba(255, 255, 255, 0)" fill="none" transform="matrix(1 0 0 1 730 440 )" class="stroke" mask="url(#Clip15080)" />
  </g>
</svg>