<?xml version="1.0" encoding="utf-8"?>
<svg version="1.1" xmlns:xlink="http://www.w3.org/1999/xlink" width="10px" height="8px" xmlns="http://www.w3.org/2000/svg">
  <defs>
    <pattern id="BGPattern" patternUnits="userSpaceOnUse" alignment="0 0" imageRepeat="None" />
    <mask fill="white" id="Clip16564">
      <path d="M 0.96875 3.3854166503906242  L 0.96875 0.2604166503906242  L 9.583333349609376 0.2604166503906242  L 9.583333349609376 3.3854166503906242  L 0.96875 3.3854166503906242  Z M 0.3333333496093722 7.677083349609376  L 0.333333349609374 4.552083349609376  L 8.124999999999996 4.552083349609376  L 8.124999999999996 7.677083349609376  L 0.3333333496093722 7.677083349609376  Z " fill-rule="evenodd" />
    </mask>
  </defs>
  <g transform="matrix(1 0 0 1 -497 -466 )">
    <path d="M 0.96875 3.3854166503906242  L 0.96875 0.2604166503906242  L 9.583333349609376 0.2604166503906242  L 9.583333349609376 3.3854166503906242  L 0.96875 3.3854166503906242  Z M 0.3333333496093722 7.677083349609376  L 0.333333349609374 4.552083349609376  L 8.124999999999996 4.552083349609376  L 8.124999999999996 7.677083349609376  L 0.3333333496093722 7.677083349609376  Z " fill-rule="nonzero" fill="rgba(244, 234, 42, 1)" stroke="none" transform="matrix(1 0 0 1 497 466 )" class="fill" />
    <path d="M 0.96875 3.3854166503906242  L 0.96875 0.2604166503906242  L 9.583333349609376 0.2604166503906242  L 9.583333349609376 3.3854166503906242  L 0.96875 3.3854166503906242  Z " stroke-width="0" stroke-dasharray="0" stroke="rgba(255, 255, 255, 0)" fill="none" transform="matrix(1 0 0 1 497 466 )" class="stroke" mask="url(#Clip16564)" />
    <path d="M 0.3333333496093722 7.677083349609376  L 0.333333349609374 4.552083349609376  L 8.124999999999996 4.552083349609376  L 8.124999999999996 7.677083349609376  L 0.3333333496093722 7.677083349609376  Z " stroke-width="0" stroke-dasharray="0" stroke="rgba(255, 255, 255, 0)" fill="none" transform="matrix(1 0 0 1 497 466 )" class="stroke" mask="url(#Clip16564)" />
  </g>
</svg>