<?xml version="1.0" encoding="utf-8"?>
<svg version="1.1" xmlns:xlink="http://www.w3.org/1999/xlink" width="50px" height="50px" xmlns="http://www.w3.org/2000/svg">
  <defs>
    <pattern id="BGPattern" patternUnits="userSpaceOnUse" alignment="0 0" imageRepeat="None" />
    <mask fill="white" id="Clip10801">
      <path d="M 49.10555062402344 25.31099862841797  C 49.10555062402344 11.801758335937501  38.155272174804686 0.8514799604492187  24.646031955078122 0.8514799604492187  C 11.136791663085937 0.8514799604492187  0.18651328613281115 11.801758337402344  0.18651328613281115 25.31099862841797  C 0.18651328613281115 38.82023891943359  11.136791663085937 49.770517297363284  24.646031955078122 49.77051729785156  C 38.15527224707031 49.77051729785156  49.10555062402344 38.82023892089844  49.10555062402344 25.31099862841797  Z M 39.47372207958984 29.876862009765638  C 39.85042207226562 34.20891164257814  37.49279983837891 37.1380786357422  34.28435527050781 39.580133677246096  C 32.76456575732421 40.742707724609375  31.017457265136716 41.45713872753906  29.20540049414062 42.02218864648437  L 28.211691988769527 42.02218864648437  C 30.803127971679682 38.450033770507815  30.640757271972653 35.67674263330078  27.77653855810546 32.53974111621094  C 26.022935223632803 30.62376715478516  24.685000865234368 28.512948354980473  25.58778186621093 25.505843467773442  C 24.75644398828124 26.077388227050786  24.061497510253897 26.506046816406254  23.425004470214837 27.006148453125007  C 18.89161515624999 30.57180848681641  18.170689382324213 35.11818741308594  21.379133950195307 39.9048750029297  C 21.86624597509765 40.632295619140635  22.418306280761712 41.320747325683605  22.937892445312492 42.02218864648438  L 22.6066562055664 42.02218864648438  C 21.02191841308593 41.42466458984376  19.37872718261718 40.9440473334961  17.865432511230463 40.19714218994142  C 15.007708638671868 38.7747750966797  12.95534327636718 36.579523489257824  12.21493297558593 33.38406867773438  C 11.40957439453124 29.896346536132825  12.409777814453117 26.90223126318361  14.92977067529296 24.427702155273447  C 16.475539485351554 22.907912642089855  18.14471008496093 21.50503000439454  19.722953036132804 20.01121978857423  C 21.48954598339843 18.34854403125001  22.98335619921874 16.504013192382825  23.496447520507804 14.042473696289074  C 23.840673373046865 12.392787624023448  23.684797518066397 10.762586006835948  23.275623384277335 9.138879302734386  C 25.327988747070307 9.411662034179697  28.744267766113275 11.918665282714855  30.277046963867182 14.26329783203126  C 31.80982616162109 16.60143553857423  32.12157787548828 18.634316447265636  31.712403742187494 22.862448817871105  C 32.50477263867187 22.011626483886733  33.29064669238281 21.160804150878917  34.14146909912109 20.24503353808595  C 37.01867749804687 22.810490223632822  39.11650661376953 25.86955377734376  39.47372207958984 29.876862009765638  Z " fill-rule="evenodd" />
    </mask>
  </defs>
  <g transform="matrix(1 0 0 1 -722 -113 )">
    <path d="M 49.10555062402344 25.31099862841797  C 49.10555062402344 11.801758335937501  38.155272174804686 0.8514799604492187  24.646031955078122 0.8514799604492187  C 11.136791663085937 0.8514799604492187  0.18651328613281115 11.801758337402344  0.18651328613281115 25.31099862841797  C 0.18651328613281115 38.82023891943359  11.136791663085937 49.770517297363284  24.646031955078122 49.77051729785156  C 38.15527224707031 49.77051729785156  49.10555062402344 38.82023892089844  49.10555062402344 25.31099862841797  Z M 39.47372207958984 29.876862009765638  C 39.85042207226562 34.20891164257814  37.49279983837891 37.1380786357422  34.28435527050781 39.580133677246096  C 32.76456575732421 40.742707724609375  31.017457265136716 41.45713872753906  29.20540049414062 42.02218864648437  L 28.211691988769527 42.02218864648437  C 30.803127971679682 38.450033770507815  30.640757271972653 35.67674263330078  27.77653855810546 32.53974111621094  C 26.022935223632803 30.62376715478516  24.685000865234368 28.512948354980473  25.58778186621093 25.505843467773442  C 24.75644398828124 26.077388227050786  24.061497510253897 26.506046816406254  23.425004470214837 27.006148453125007  C 18.89161515624999 30.57180848681641  18.170689382324213 35.11818741308594  21.379133950195307 39.9048750029297  C 21.86624597509765 40.632295619140635  22.418306280761712 41.320747325683605  22.937892445312492 42.02218864648438  L 22.6066562055664 42.02218864648438  C 21.02191841308593 41.42466458984376  19.37872718261718 40.9440473334961  17.865432511230463 40.19714218994142  C 15.007708638671868 38.7747750966797  12.95534327636718 36.579523489257824  12.21493297558593 33.38406867773438  C 11.40957439453124 29.896346536132825  12.409777814453117 26.90223126318361  14.92977067529296 24.427702155273447  C 16.475539485351554 22.907912642089855  18.14471008496093 21.50503000439454  19.722953036132804 20.01121978857423  C 21.48954598339843 18.34854403125001  22.98335619921874 16.504013192382825  23.496447520507804 14.042473696289074  C 23.840673373046865 12.392787624023448  23.684797518066397 10.762586006835948  23.275623384277335 9.138879302734386  C 25.327988747070307 9.411662034179697  28.744267766113275 11.918665282714855  30.277046963867182 14.26329783203126  C 31.80982616162109 16.60143553857423  32.12157787548828 18.634316447265636  31.712403742187494 22.862448817871105  C 32.50477263867187 22.011626483886733  33.29064669238281 21.160804150878917  34.14146909912109 20.24503353808595  C 37.01867749804687 22.810490223632822  39.11650661376953 25.86955377734376  39.47372207958984 29.876862009765638  Z " fill-rule="nonzero" fill="rgba(255, 255, 255, 1)" stroke="none" transform="matrix(1 0 0 1 722 113 )" class="fill" />
    <path d="M 49.10555062402344 25.31099862841797  C 49.10555062402344 11.801758335937501  38.155272174804686 0.8514799604492187  24.646031955078122 0.8514799604492187  C 11.136791663085937 0.8514799604492187  0.18651328613281115 11.801758337402344  0.18651328613281115 25.31099862841797  C 0.18651328613281115 38.82023891943359  11.136791663085937 49.770517297363284  24.646031955078122 49.77051729785156  C 38.15527224707031 49.77051729785156  49.10555062402344 38.82023892089844  49.10555062402344 25.31099862841797  Z " stroke-width="0" stroke-dasharray="0" stroke="rgba(255, 255, 255, 0)" fill="none" transform="matrix(1 0 0 1 722 113 )" class="stroke" mask="url(#Clip10801)" />
    <path d="M 39.47372207958984 29.876862009765638  C 39.85042207226562 34.20891164257814  37.49279983837891 37.1380786357422  34.28435527050781 39.580133677246096  C 32.76456575732421 40.742707724609375  31.017457265136716 41.45713872753906  29.20540049414062 42.02218864648437  L 28.211691988769527 42.02218864648437  C 30.803127971679682 38.450033770507815  30.640757271972653 35.67674263330078  27.77653855810546 32.53974111621094  C 26.022935223632803 30.62376715478516  24.685000865234368 28.512948354980473  25.58778186621093 25.505843467773442  C 24.75644398828124 26.077388227050786  24.061497510253897 26.506046816406254  23.425004470214837 27.006148453125007  C 18.89161515624999 30.57180848681641  18.170689382324213 35.11818741308594  21.379133950195307 39.9048750029297  C 21.86624597509765 40.632295619140635  22.418306280761712 41.320747325683605  22.937892445312492 42.02218864648438  L 22.6066562055664 42.02218864648438  C 21.02191841308593 41.42466458984376  19.37872718261718 40.9440473334961  17.865432511230463 40.19714218994142  C 15.007708638671868 38.7747750966797  12.95534327636718 36.579523489257824  12.21493297558593 33.38406867773438  C 11.40957439453124 29.896346536132825  12.409777814453117 26.90223126318361  14.92977067529296 24.427702155273447  C 16.475539485351554 22.907912642089855  18.14471008496093 21.50503000439454  19.722953036132804 20.01121978857423  C 21.48954598339843 18.34854403125001  22.98335619921874 16.504013192382825  23.496447520507804 14.042473696289074  C 23.840673373046865 12.392787624023448  23.684797518066397 10.762586006835948  23.275623384277335 9.138879302734386  C 25.327988747070307 9.411662034179697  28.744267766113275 11.918665282714855  30.277046963867182 14.26329783203126  C 31.80982616162109 16.60143553857423  32.12157787548828 18.634316447265636  31.712403742187494 22.862448817871105  C 32.50477263867187 22.011626483886733  33.29064669238281 21.160804150878917  34.14146909912109 20.24503353808595  C 37.01867749804687 22.810490223632822  39.11650661376953 25.86955377734376  39.47372207958984 29.876862009765638  Z " stroke-width="0" stroke-dasharray="0" stroke="rgba(255, 255, 255, 0)" fill="none" transform="matrix(1 0 0 1 722 113 )" class="stroke" mask="url(#Clip10801)" />
  </g>
</svg>