<?xml version="1.0" encoding="utf-8"?>
<svg version="1.1" xmlns:xlink="http://www.w3.org/1999/xlink" width="10px" height="10px" xmlns="http://www.w3.org/2000/svg">
  <defs>
    <pattern id="BGPattern" patternUnits="userSpaceOnUse" alignment="0 0" imageRepeat="None" />
    <mask fill="white" id="Clip4426">
      <path d="M 9.406250000000004 2.302083349609383  C 9.406249973032967 6.196841419065727  6.2489247198469755 9.354166650390631  2.3541666503906242 9.354166650390624  C 1.4912217287800082 9.354166650390624  0.7916666503906242 8.654611572001237  0.7916666503906242 7.791666650390624  C 0.7916666503906242 6.928721728780005  1.4912217287800082 6.229166650390624  2.3541666503906242 6.229166650390624  C 4.52303487662574 6.229166650390624  6.281249973032963 4.470951575844488  6.2812499999999964 2.3020833496093758  C 6.2812499999999964 1.4391384279987633  6.9808050783893805 0.7395833496093758  7.8437499999999964 0.7395833496093758  C 8.706694921610612 0.7395833496093758  9.406249999999996 1.4391384279987633  9.406249999999996 2.3020833496093758  Z " fill-rule="evenodd" />
    </mask>
  </defs>
  <g transform="matrix(1 0 0 1 -508 -468 )">
    <path d="M 9.406250000000004 2.302083349609383  C 9.406249973032967 6.196841419065727  6.2489247198469755 9.354166650390631  2.3541666503906242 9.354166650390624  C 1.4912217287800082 9.354166650390624  0.7916666503906242 8.654611572001237  0.7916666503906242 7.791666650390624  C 0.7916666503906242 6.928721728780005  1.4912217287800082 6.229166650390624  2.3541666503906242 6.229166650390624  C 4.52303487662574 6.229166650390624  6.281249973032963 4.470951575844488  6.2812499999999964 2.3020833496093758  C 6.2812499999999964 1.4391384279987633  6.9808050783893805 0.7395833496093758  7.8437499999999964 0.7395833496093758  C 8.706694921610612 0.7395833496093758  9.406249999999996 1.4391384279987633  9.406249999999996 2.3020833496093758  Z " fill-rule="nonzero" fill="rgba(244, 234, 42, 1)" stroke="none" transform="matrix(1 0 0 1 508 468 )" class="fill" />
    <path d="M 9.406250000000004 2.302083349609383  C 9.406249973032967 6.196841419065727  6.2489247198469755 9.354166650390631  2.3541666503906242 9.354166650390624  C 1.4912217287800082 9.354166650390624  0.7916666503906242 8.654611572001237  0.7916666503906242 7.791666650390624  C 0.7916666503906242 6.928721728780005  1.4912217287800082 6.229166650390624  2.3541666503906242 6.229166650390624  C 4.52303487662574 6.229166650390624  6.281249973032963 4.470951575844488  6.2812499999999964 2.3020833496093758  C 6.2812499999999964 1.4391384279987633  6.9808050783893805 0.7395833496093758  7.8437499999999964 0.7395833496093758  C 8.706694921610612 0.7395833496093758  9.406249999999996 1.4391384279987633  9.406249999999996 2.3020833496093758  Z " stroke-width="0" stroke-dasharray="0" stroke="rgba(255, 255, 255, 0)" fill="none" transform="matrix(1 0 0 1 508 468 )" class="stroke" mask="url(#Clip4426)" />
  </g>
</svg>