<?xml version="1.0" encoding="utf-8"?>
<svg version="1.1" xmlns:xlink="http://www.w3.org/1999/xlink" width="89px" height="12px" xmlns="http://www.w3.org/2000/svg">
  <defs>
    <pattern id="BGPattern" patternUnits="userSpaceOnUse" alignment="0 0" imageRepeat="None" />
    <mask fill="white" id="Clip8610">
      <path d="M 0.7499999999999858 3.4374999999999964  C 0.7499999999999929 1.29861114908854  1.819444425455714 0.22916672363281165  3.958333276367185 0.22916672363281165  L 85.0416667236328 0.22916672363281165  C 87.18055557454426 0.22916672363281165  88.25 1.2986111490885435  88.24999999999997 3.4375  L 88.24999999999997 7.958333276367185  C 88.25 10.097222127278645  87.18055557454426 11.166666609700524  85.0416667236328 11  L 3.9583332763671777 11  C 1.819444425455714 11.166666723632815  0.7499999999999929 10.097222241210936  0.7499999999999858 7.958333276367185  L 0.7499999999999858 3.4374999999999964  Z " fill-rule="evenodd" />
    </mask>
  </defs>
  <g transform="matrix(1 0 0 1 -68 -35 )">
    <path d="M 0.7499999999999858 3.4374999999999964  C 0.7499999999999929 1.29861114908854  1.819444425455714 0.22916672363281165  3.958333276367185 0.22916672363281165  L 85.0416667236328 0.22916672363281165  C 87.18055557454426 0.22916672363281165  88.25 1.2986111490885435  88.24999999999997 3.4375  L 88.24999999999997 7.958333276367185  C 88.25 10.097222127278645  87.18055557454426 11.166666609700524  85.0416667236328 11  L 3.9583332763671777 11  C 1.819444425455714 11.166666723632815  0.7499999999999929 10.097222241210936  0.7499999999999858 7.958333276367185  L 0.7499999999999858 3.4374999999999964  Z " fill-rule="nonzero" fill="rgba(229, 28, 35, 1)" stroke="none" transform="matrix(1 0 0 1 68 35 )" class="fill" />
    <path d="M 0.7499999999999858 3.4374999999999964  C 0.7499999999999929 1.29861114908854  1.819444425455714 0.22916672363281165  3.958333276367185 0.22916672363281165  L 85.0416667236328 0.22916672363281165  C 87.18055557454426 0.22916672363281165  88.25 1.2986111490885435  88.24999999999997 3.4375  L 88.24999999999997 7.958333276367185  C 88.25 10.097222127278645  87.18055557454426 11.166666609700524  85.0416667236328 11  L 3.9583332763671777 11  C 1.819444425455714 11.166666723632815  0.7499999999999929 10.097222241210936  0.7499999999999858 7.958333276367185  L 0.7499999999999858 3.4374999999999964  Z " stroke-width="0" stroke-dasharray="0" stroke="rgba(255, 255, 255, 0)" fill="none" transform="matrix(1 0 0 1 68 35 )" class="stroke" mask="url(#Clip8610)" />
  </g>
</svg>