<?xml version="1.0" encoding="utf-8"?>
<svg version="1.1" xmlns:xlink="http://www.w3.org/1999/xlink" width="34px" height="20px" xmlns="http://www.w3.org/2000/svg">
  <defs>
    <pattern id="BGPattern" patternUnits="userSpaceOnUse" alignment="0 0" imageRepeat="None" />
    <mask fill="white" id="Clip14663">
      <path d="M 17 19.42578125  L 16.962841796874997 19.425488281250004  C 15.74091796875 19.407421875000004  14.974218749999999 18.499365234375006  13.806542968749998 17.791162109375  C 12.69013671875 17.112841796874996  7.037011718749998 17.392822265625  4.347949218749999 14.857470703125003  C -0.5034667968750002 10.290869140625002  1.3553710937500014 3.6449218750000014  0.3984375 0.96875  C 2.7828125000000004 2.7073242187499993  5.098291015625 2.458740234375  9.87548828125 2.658935546875  C 12.625097656250002 2.7750488281250014  14.999951171875 3.8072753906250014  17 5.755615234375  C 19.000048828125 3.8072753906250014  21.37490234375 2.7750488281250014  24.12451171875 2.658935546875  C 28.901708984375 2.458740234375  31.2171875 2.7073242187499993  33.6015625 0.96875  C 32.644628906250006 3.6449218750000014  34.50341796875 10.290869140625002  29.652050781250004 14.857470703125003  C 26.963037109375 17.392822265625  21.309863281250003 17.112841796875003  20.193457031250002 17.791162109375  C 19.014013671875 18.506494140625  18.24365234375 19.42578125  17 19.42578125  Z M 8.366601562499998 7.490576171874999  C 7.396874999999998 7.400830078125001  6.41884765625 7.297900390624999  5.427490234375 6.926611328124999  C 5.271728515625 12.5421875  10.293896484375 13.088134765625004  13.975927734374999 12.451562500000001  C 13.975927734374999 10.372167968749999  12.932373046875 8.572314453125  11.389599609375 8.021777343750003  C 10.431689453125 7.679980468750003  9.470800781250002 7.592089843749999  8.501855468749998 7.503027343749999  L 8.366601562499998 7.490576171874999  Z M 28.572509765625 6.926611328124999  C 27.58115234375 7.297900390624999  26.603125 7.400830078125001  25.6333984375 7.490576171874999  L 25.49814453125 7.503027343749999  C 24.52919921875 7.592138671874999  23.568310546875 7.679931640625  22.610449218750002 8.021777343750003  C 21.067626953125004 8.572314453125  20.024023437500002 10.372167968749999  20.024023437500002 12.451562500000001  C 23.706103515625 13.088134765625004  28.728271484375 12.5421875  28.572509765625 6.926660156250001  Z " fill-rule="evenodd" />
    </mask>
  </defs>
  <g transform="matrix(1 0 0 1 -734 -453 )">
    <path d="M 17 19.42578125  L 16.962841796874997 19.425488281250004  C 15.74091796875 19.407421875000004  14.974218749999999 18.499365234375006  13.806542968749998 17.791162109375  C 12.69013671875 17.112841796874996  7.037011718749998 17.392822265625  4.347949218749999 14.857470703125003  C -0.5034667968750002 10.290869140625002  1.3553710937500014 3.6449218750000014  0.3984375 0.96875  C 2.7828125000000004 2.7073242187499993  5.098291015625 2.458740234375  9.87548828125 2.658935546875  C 12.625097656250002 2.7750488281250014  14.999951171875 3.8072753906250014  17 5.755615234375  C 19.000048828125 3.8072753906250014  21.37490234375 2.7750488281250014  24.12451171875 2.658935546875  C 28.901708984375 2.458740234375  31.2171875 2.7073242187499993  33.6015625 0.96875  C 32.644628906250006 3.6449218750000014  34.50341796875 10.290869140625002  29.652050781250004 14.857470703125003  C 26.963037109375 17.392822265625  21.309863281250003 17.112841796875003  20.193457031250002 17.791162109375  C 19.014013671875 18.506494140625  18.24365234375 19.42578125  17 19.42578125  Z M 8.366601562499998 7.490576171874999  C 7.396874999999998 7.400830078125001  6.41884765625 7.297900390624999  5.427490234375 6.926611328124999  C 5.271728515625 12.5421875  10.293896484375 13.088134765625004  13.975927734374999 12.451562500000001  C 13.975927734374999 10.372167968749999  12.932373046875 8.572314453125  11.389599609375 8.021777343750003  C 10.431689453125 7.679980468750003  9.470800781250002 7.592089843749999  8.501855468749998 7.503027343749999  L 8.366601562499998 7.490576171874999  Z M 28.572509765625 6.926611328124999  C 27.58115234375 7.297900390624999  26.603125 7.400830078125001  25.6333984375 7.490576171874999  L 25.49814453125 7.503027343749999  C 24.52919921875 7.592138671874999  23.568310546875 7.679931640625  22.610449218750002 8.021777343750003  C 21.067626953125004 8.572314453125  20.024023437500002 10.372167968749999  20.024023437500002 12.451562500000001  C 23.706103515625 13.088134765625004  28.728271484375 12.5421875  28.572509765625 6.926660156250001  Z " fill-rule="nonzero" fill="rgba(51, 51, 51, 1)" stroke="none" transform="matrix(1 0 0 1 734 453 )" class="fill" />
    <path d="M 17 19.42578125  L 16.962841796874997 19.425488281250004  C 15.74091796875 19.407421875000004  14.974218749999999 18.499365234375006  13.806542968749998 17.791162109375  C 12.69013671875 17.112841796874996  7.037011718749998 17.392822265625  4.347949218749999 14.857470703125003  C -0.5034667968750002 10.290869140625002  1.3553710937500014 3.6449218750000014  0.3984375 0.96875  C 2.7828125000000004 2.7073242187499993  5.098291015625 2.458740234375  9.87548828125 2.658935546875  C 12.625097656250002 2.7750488281250014  14.999951171875 3.8072753906250014  17 5.755615234375  C 19.000048828125 3.8072753906250014  21.37490234375 2.7750488281250014  24.12451171875 2.658935546875  C 28.901708984375 2.458740234375  31.2171875 2.7073242187499993  33.6015625 0.96875  C 32.644628906250006 3.6449218750000014  34.50341796875 10.290869140625002  29.652050781250004 14.857470703125003  C 26.963037109375 17.392822265625  21.309863281250003 17.112841796875003  20.193457031250002 17.791162109375  C 19.014013671875 18.506494140625  18.24365234375 19.42578125  17 19.42578125  Z " stroke-width="0" stroke-dasharray="0" stroke="rgba(255, 255, 255, 0)" fill="none" transform="matrix(1 0 0 1 734 453 )" class="stroke" mask="url(#Clip14663)" />
    <path d="M 8.366601562499998 7.490576171874999  C 7.396874999999998 7.400830078125001  6.41884765625 7.297900390624999  5.427490234375 6.926611328124999  C 5.271728515625 12.5421875  10.293896484375 13.088134765625004  13.975927734374999 12.451562500000001  C 13.975927734374999 10.372167968749999  12.932373046875 8.572314453125  11.389599609375 8.021777343750003  C 10.431689453125 7.679980468750003  9.470800781250002 7.592089843749999  8.501855468749998 7.503027343749999  L 8.366601562499998 7.490576171874999  Z " stroke-width="0" stroke-dasharray="0" stroke="rgba(255, 255, 255, 0)" fill="none" transform="matrix(1 0 0 1 734 453 )" class="stroke" mask="url(#Clip14663)" />
    <path d="M 28.572509765625 6.926611328124999  C 27.58115234375 7.297900390624999  26.603125 7.400830078125001  25.6333984375 7.490576171874999  L 25.49814453125 7.503027343749999  C 24.52919921875 7.592138671874999  23.568310546875 7.679931640625  22.610449218750002 8.021777343750003  C 21.067626953125004 8.572314453125  20.024023437500002 10.372167968749999  20.024023437500002 12.451562500000001  C 23.706103515625 13.088134765625004  28.728271484375 12.5421875  28.572509765625 6.926660156250001  Z " stroke-width="0" stroke-dasharray="0" stroke="rgba(255, 255, 255, 0)" fill="none" transform="matrix(1 0 0 1 734 453 )" class="stroke" mask="url(#Clip14663)" />
  </g>
</svg>