<?xml version="1.0" encoding="utf-8"?>
<svg version="1.1" xmlns:xlink="http://www.w3.org/1999/xlink" width="13px" height="13px" xmlns="http://www.w3.org/2000/svg">
  <defs>
    <pattern id="BGPattern" patternUnits="userSpaceOnUse" alignment="0 0" imageRepeat="None" />
  </defs>
  <g transform="matrix(1 0 0 1 -460 -544 )">
    <path d="M 0 5.000000000000001  A 5 5 0 0 1 4.999999999999999 0 L 8 0  A 5 5 0 0 1 13 5 L 13 8  A 5 5 0 0 1 8 13 L 5 13  A 5 5 0 0 1 0 8 L 0 5  Z " fill-rule="nonzero" fill="rgba(240, 240, 240, 1)" stroke="none" transform="matrix(1 0 0 1 460 544 )" class="fill" />
    <path d="M 0.5 5.000000000000001  A 4.5 4.5 0 0 1 4.999999999999999 0.5 L 8 0.5  A 4.5 4.5 0 0 1 12.5 5 L 12.5 8  A 4.5 4.5 0 0 1 8 12.5 L 5 12.5  A 4.5 4.5 0 0 1 0.5 8 L 0.5 5  Z " stroke-width="1" stroke-dasharray="0" stroke="rgba(121, 121, 121, 1)" fill="none" transform="matrix(1 0 0 1 460 544 )" class="stroke" stroke-dashoffset="0.5" />
  </g>
</svg>