<?xml version="1.0" encoding="utf-8"?>
<svg version="1.1" xmlns:xlink="http://www.w3.org/1999/xlink" width="14px" height="14px" xmlns="http://www.w3.org/2000/svg">
  <defs>
    <pattern id="BGPattern" patternUnits="userSpaceOnUse" alignment="0 0" imageRepeat="None" />
    <mask fill="white" id="Clip3870">
      <path d="M 0 7  C 0 10.865993248815556  3.1340067511844456 14  7 14  C 10.865993248815554 14  14 10.865993248815556  14 7  C 14 3.134006751184444  10.865993248815554 0  7 0  C 3.1340067511844456 0  0 3.134006751184444  0 7  Z " fill-rule="evenodd" />
    </mask>
  </defs>
  <g transform="matrix(1 0 0 1 -75 -822 )">
    <path d="M 0 7  C 0 10.865993248815556  3.1340067511844456 14  7 14  C 10.865993248815554 14  14 10.865993248815556  14 7  C 14 3.134006751184444  10.865993248815554 0  7 0  C 3.1340067511844456 0  0 3.134006751184444  0 7  Z " fill-rule="nonzero" fill="rgba(255, 117, 29, 1)" stroke="none" transform="matrix(1 0 0 1 75 822 )" class="fill" />
    <path d="M 0 7  C 0 10.865993248815556  3.1340067511844456 14  7 14  C 10.865993248815554 14  14 10.865993248815556  14 7  C 14 3.134006751184444  10.865993248815554 0  7 0  C 3.1340067511844456 0  0 3.134006751184444  0 7  Z " stroke-width="0" stroke-dasharray="0" stroke="rgba(255, 255, 255, 0)" fill="none" transform="matrix(1 0 0 1 75 822 )" class="stroke" mask="url(#Clip3870)" />
  </g>
</svg>