<?xml version="1.0" encoding="utf-8"?>
<svg version="1.1" xmlns:xlink="http://www.w3.org/1999/xlink" width="21px" height="21px" xmlns="http://www.w3.org/2000/svg">
  <defs>
    <pattern id="BGPattern" patternUnits="userSpaceOnUse" alignment="0 0" imageRepeat="None" />
    <mask fill="white" id="Clip1956">
      <path d="M 17.154687499999998 0.5257812499999999  L 0.5281250000000002 17.15234375  C 0.7718749999999999 18.589062499999997  1.6015625000000002 19.8359375  2.7640624999999996 20.628124999999997  L 20.63046875 2.76171875  C 19.8359375 1.6015625000000002  18.59140625 0.76953125  17.154687499999998 0.5257812499999999  Z " fill-rule="evenodd" />
    </mask>
  </defs>
  <g transform="matrix(1 0 0 1 -92 -1343 )">
    <path d="M 17.154687499999998 0.5257812499999999  L 0.5281250000000002 17.15234375  C 0.7718749999999999 18.589062499999997  1.6015625000000002 19.8359375  2.7640624999999996 20.628124999999997  L 20.63046875 2.76171875  C 19.8359375 1.6015625000000002  18.59140625 0.76953125  17.154687499999998 0.5257812499999999  Z " fill-rule="nonzero" fill="rgba(255, 99, 91, 1)" stroke="none" transform="matrix(1 0 0 1 92 1343 )" class="fill" />
    <path d="M 17.154687499999998 0.5257812499999999  L 0.5281250000000002 17.15234375  C 0.7718749999999999 18.589062499999997  1.6015625000000002 19.8359375  2.7640624999999996 20.628124999999997  L 20.63046875 2.76171875  C 19.8359375 1.6015625000000002  18.59140625 0.76953125  17.154687499999998 0.5257812499999999  Z " stroke-width="0" stroke-dasharray="0" stroke="rgba(255, 255, 255, 0)" fill="none" transform="matrix(1 0 0 1 92 1343 )" class="stroke" mask="url(#Clip1956)" />
  </g>
</svg>