<?xml version="1.0" encoding="utf-8"?>
<svg version="1.1" xmlns:xlink="http://www.w3.org/1999/xlink" width="9px" height="9px" xmlns="http://www.w3.org/2000/svg">
  <defs>
    <pattern id="BGPattern" patternUnits="userSpaceOnUse" alignment="0 0" imageRepeat="None" />
    <mask fill="white" id="Clip19187">
      <path d="M 8.202857142857141 6.93  C 8.540357142857141 7.293461538461538  8.540357142857141 7.885384615384615  8.202857142857141 8.248846153846154  C 7.8653571428571425 8.612307692307692  7.315714285714282 8.612307692307692  6.978214285714284 8.248846153846154  L 0.7971428571428574 1.5923076923076922  C 0.459642857142857 1.228846153846154  0.459642857142857 0.6369230769230763  0.7971428571428574 0.27346153846153815  C 1.1346428571428575 -0.08999999999999993  1.6842857142857137 -0.08999999999999993  2.021785714285714 0.27346153846153815  L 8.202857142857141 6.93  Z " fill-rule="evenodd" />
    </mask>
  </defs>
  <g transform="matrix(1 0 0 1 -1276 -2163 )">
    <path d="M 8.202857142857141 6.93  C 8.540357142857141 7.293461538461538  8.540357142857141 7.885384615384615  8.202857142857141 8.248846153846154  C 7.8653571428571425 8.612307692307692  7.315714285714282 8.612307692307692  6.978214285714284 8.248846153846154  L 0.7971428571428574 1.5923076923076922  C 0.459642857142857 1.228846153846154  0.459642857142857 0.6369230769230763  0.7971428571428574 0.27346153846153815  C 1.1346428571428575 -0.08999999999999993  1.6842857142857137 -0.08999999999999993  2.021785714285714 0.27346153846153815  L 8.202857142857141 6.93  Z " fill-rule="nonzero" fill="rgba(255, 255, 255, 1)" stroke="none" transform="matrix(1 0 0 1 1276 2163 )" class="fill" />
    <path d="M 8.202857142857141 6.93  C 8.540357142857141 7.293461538461538  8.540357142857141 7.885384615384615  8.202857142857141 8.248846153846154  C 7.8653571428571425 8.612307692307692  7.315714285714282 8.612307692307692  6.978214285714284 8.248846153846154  L 0.7971428571428574 1.5923076923076922  C 0.459642857142857 1.228846153846154  0.459642857142857 0.6369230769230763  0.7971428571428574 0.27346153846153815  C 1.1346428571428575 -0.08999999999999993  1.6842857142857137 -0.08999999999999993  2.021785714285714 0.27346153846153815  L 8.202857142857141 6.93  Z " stroke-width="0" stroke-dasharray="0" stroke="rgba(255, 255, 255, 0)" fill="none" transform="matrix(1 0 0 1 1276 2163 )" class="stroke" mask="url(#Clip19187)" />
  </g>
</svg>