<?xml version="1.0" encoding="utf-8"?>
<svg version="1.1" xmlns:xlink="http://www.w3.org/1999/xlink" width="17px" height="17px" xmlns="http://www.w3.org/2000/svg">
  <defs>
    <linearGradient gradientUnits="userSpaceOnUse" x1="10.692105263157945" y1="6.8447368421054335" x2="3.019806626980426E-14" y2="17.00000000000012" id="LinearGradient10532">
      <stop id="Stop10533" stop-color="#477f98" offset="0" />
      <stop id="Stop10534" stop-color="#ff4025" offset="1" />
    </linearGradient>
    <pattern id="BGPattern" patternUnits="userSpaceOnUse" alignment="0 0" imageRepeat="None" />
    <mask fill="white" id="Clip10535">
      <path d="M 8.5 17  C 3.7399999999999993 17  0 13.26  0 8.5  C 0 3.7399999999999993  3.7399999999999993 0  8.5 0  C 13.26 0  17 3.7399999999999993  17 8.5  C 17 13.26  13.26 17  8.5 17  Z " fill-rule="evenodd" />
    </mask>
  </defs>
  <g transform="matrix(1 0 0 1 -141 -109 )">
    <path d="M 8.5 17  C 3.7399999999999993 17  0 13.26  0 8.5  C 0 3.7399999999999993  3.7399999999999993 0  8.5 0  C 13.26 0  17 3.7399999999999993  17 8.5  C 17 13.26  13.26 17  8.5 17  Z " fill-rule="nonzero" fill="url(#LinearGradient10532)" stroke="none" transform="matrix(1 0 0 1 141 109 )" class="fill" />
    <path d="M 8.5 17  C 3.7399999999999993 17  0 13.26  0 8.5  C 0 3.7399999999999993  3.7399999999999993 0  8.5 0  C 13.26 0  17 3.7399999999999993  17 8.5  C 17 13.26  13.26 17  8.5 17  Z " stroke-width="0" stroke-dasharray="0" stroke="rgba(121, 121, 121, 1)" fill="none" transform="matrix(1 0 0 1 141 109 )" class="stroke" mask="url(#Clip10535)" />
  </g>
</svg>