<?xml version="1.0" encoding="utf-8"?>
<svg version="1.1" xmlns:xlink="http://www.w3.org/1999/xlink" width="47px" height="35px" xmlns="http://www.w3.org/2000/svg">
  <defs>
    <pattern id="BGPattern" patternUnits="userSpaceOnUse" alignment="0 0" imageRepeat="None" />
    <mask fill="white" id="Clip14830">
      <path d="M 27.750000000000004 33.68333334960937  C 26.333333349609376 34.06666669921874  24.844444433593754 34.266666699218746  23.316666650390626 34.26666665039062  C 19.855555517578125 34.26666665039062  16.516666650390626 33.22777778320312  13.655555566406251 31.272222216796877  C 11.788888916015626 29.988888867187498  10.211111132812501 28.37222221679687  8.9611111328125 26.461111132812505  L 8.866666650390625 26.3111111328125  L 8.6888888671875 26.3111111328125  C 6.377777734375 26.27777778320312  4.5055555175781254 26.005555566406244  3.1277777832031255 25.505555566406244  C 1.7277777832031258 24.994444433593742  0.8777777832031259 24.255555566406244  0.6055555664062509 23.3111111328125  L 0.6055555664062509 23.299999999999983  L 0.5944444335937509 23.255555566406244  C 0.538888867187501 23.066666699218743  0.511111083984376 22.855555566406238  0.5111111328125011 22.62222221679687  C 0.5111111328125011 22.088888867187478  0.6722222656250012 21.53888886718748  0.9833333496093757 20.97777778320311  C 1.288888916015626 20.438888916015614  1.711111132812501 19.89999999999999  2.244444433593751 19.377777783203115  C 3.2111110839843757 18.427777783203112  4.494444433593751 17.47777778320311  6.066666650390627 16.549999999999983  L 6.222222216796877 16.46111113281249  L 6.233333349609376 16.283333349609364  C 6.327777783203126 14.505555566406244  6.7 12.755555566406244  7.34444443359375 11.083333349609376  C 7.977777783203126 9.43333334960937  8.85555556640625 7.894444482421875  9.95555556640625 6.511111132812488  C 12.24444443359375 3.638888916015617  15.333333349609376 1.6166666992187402  18.883333349609376 0.6666666503906242  C 20.327777783203125 0.2833333007812371  21.81666669921875 0.08888886718749234  23.30555556640625 0.08888886718749234  C 25.84444443359375 0.08888886718749234  28.4 0.6666666503906242  30.688888867187504 1.7666666503906185  C 35.2 3.9333333007812428  38.527777734375 7.944444433593745  39.81666665039063 12.761111132812488  C 40.08888886718751 13.755555566406244  40.272222216796884 14.833333349609362  40.3611111328125 15.972222216796865  L 40.40555556640626 16.533333349609364  L 40.87777778320313 16.227777783203123  C 43.76666665039063 14.344444433593736  45.19444443359376 12.644444433593748  44.91111113281251 11.43333334960937  L 44.91111113281251 11.41666665039061  L 44.9 11.372222216796871  C 44.6888888671875 10.661111083984366  43.81666665039062 10.077777783203118  42.37777778320312 9.688888867187488  C 42.15 9.622222216796871  41.93333334960938 9.566666650390616  41.733333349609374 9.533333349609364  C 41.4111111328125 9.46111113281249  41.2111111328125 9.161111132812493  41.27222221679688 8.838888867187492  C 41.3388888671875 8.555555517578114  41.56666665039063 8.361111083984369  41.8388888671875 8.361111132812482  C 41.877777734375 8.361111132812482  41.92222221679688 8.36666669921874  41.961111132812505 8.372222216796871  C 42.233333349609374 8.43333334960937  42.461111132812505 8.483333349609367  42.677777783203126 8.544444433593739  L 42.68333334960938 8.544444433593739  C 44.59444448242188 9.049999999999983  45.71666669921875 9.88888886718749  46.02777778320313 11.044444433593739  C 46.03333334960938 11.077777783203118  46.04444443359375 11.111111083984369  46.061111132812506 11.144444433593748  C 46.28333334960938 12.094444433593736  45.91666669921876 13.149999999999991  44.961111132812505 14.288888867187497  C 44.01666669921875 15.41666665039061  42.53888891601563 16.58333330078125  40.561111132812506 17.76666665039062  L 40.41111113281251 17.855555566406238  L 40.400000000000006 18.033333349609364  C 40.305555566406255 19.816666699218732  39.93333334960938 21.56666669921873  39.29444443359375 23.24444443359374  C 38.66111108398437 24.899999999999977  37.78333330078125 26.438888867187487  36.68333334960938 27.827777783203118  C 34.394444482421875 30.705555566406247  31.305555566406255 32.73333334960937  27.750000000000004 33.68333334960937  Z M 39.166666650390624 18.527777783203135  L 38.605555566406245 18.822222216796874  C 34.87777778320312 20.772222216796877  30.083333349609372 22.583333349609376  25.1 23.916666650390624  C 20.1888888671875 25.238888867187498  15.133333349609373 26.072222216796874  10.866666650390625 26.255555566406258  L 10.227777783203125 26.283333349609364  L 10.616666650390625 26.788888867187495  C 11.65 28.144444433593748  12.888888867187498 29.31666665039063  14.294444433593751 30.28333334960938  C 16.966666650390625 32.11111113281251  20.07777778320313 33.07777778320313  23.3 33.07777778320313  C 24.688888867187494 33.07777778320313  26.07777778320312 32.89444443359375  27.42222221679688 32.53333334960938  C 33.69444443359375 30.85000000000001  38.27222221679688 25.60000000000001  39.0888888671875 19.161111132812508  L 39.166666650390624 18.527777783203135  Z M 30.199999999999996 2.7944444335937533  C 28.061111132812496 1.7666666503906185  25.683333349609363 1.2277777832031234  23.3111111328125 1.2277777832031234  C 21.916666699218748 1.2277777832031234  20.533333349609375 1.4111111328124935  19.194444433593752 1.7666666503906185  C 15.0888888671875 2.866666650390627  11.655555566406251 5.505555517578131  9.522222216796875 9.194444433593745  C 7.3888888671875 12.883333300781246  6.822222216796876 17.172222216796868  7.922222216796875 21.27777778320312  C 8.266666650390626 22.5611111328125  8.777777783203126 23.805555566406255  9.438888867187499 24.98333334960938  L 9.533333349609375 25.15555556640625  L 9.733333349609374 25.150000000000006  C 12.766666699218748 25.105555566406252  17.844444482421874 24.661111132812493  24.816666650390623 22.788888867187495  C 31.833333300781252 20.905555517578122  36.4388888671875 18.761111083984375  39.072222216796874 17.294444433593753  L 39.24444443359375 17.200000000000003  L 39.24444443359375 17  C 39.23333330078124 15.622222216796871  39.05 14.288888867187497  38.70555556640625 13.033333349609379  C 37.49444443359375 8.538888916015622  34.39444443359375 4.805555566406255  30.199999999999996 2.7944444335937533  Z M 1.6555555664062496 22.61666665039064  C 1.6666666992187495 22.722222216796894  1.6833333496093745 22.833333300781263  1.7166666503906247 22.955555566406247  C 2.05555556640625 24.161111132812493  4.1499999999999995 24.927777783203112  7.611111132812499 25.111111132812496  L 8.177777783203126 25.144444433593748  L 7.927777783203124 24.633333349609387  C 7.438888916015626 23.64444448242187  7.055555566406251 22.616666699218754  6.783333349609375 21.583333349609376  C 6.505555566406251 20.55555556640624  6.327777783203125 19.5  6.2388888671875 18.355555566406252  L 6.19444443359375 17.794444433593753  L 5.722222216796875 18.105555566406252  C 5.205555566406249 18.44444443359376  4.733333349609375 18.777777783203135  4.327777783203125 19.088888867187507  C 3.2277777832031256 19.94444443359376  2.39444443359375 20.81666665039063  1.9833333496093746 21.53888886718751  L 1.9777777832031247 21.55000000000001  C 1.7611111328124998 21.966666650390636  1.6555555664062496 22.311111132812513  1.6555555664062496 22.61666665039064  Z " fill-rule="evenodd" />
    </mask>
  </defs>
  <g transform="matrix(1 0 0 1 -156 -209 )">
    <path d="M 27.750000000000004 33.68333334960937  C 26.333333349609376 34.06666669921874  24.844444433593754 34.266666699218746  23.316666650390626 34.26666665039062  C 19.855555517578125 34.26666665039062  16.516666650390626 33.22777778320312  13.655555566406251 31.272222216796877  C 11.788888916015626 29.988888867187498  10.211111132812501 28.37222221679687  8.9611111328125 26.461111132812505  L 8.866666650390625 26.3111111328125  L 8.6888888671875 26.3111111328125  C 6.377777734375 26.27777778320312  4.5055555175781254 26.005555566406244  3.1277777832031255 25.505555566406244  C 1.7277777832031258 24.994444433593742  0.8777777832031259 24.255555566406244  0.6055555664062509 23.3111111328125  L 0.6055555664062509 23.299999999999983  L 0.5944444335937509 23.255555566406244  C 0.538888867187501 23.066666699218743  0.511111083984376 22.855555566406238  0.5111111328125011 22.62222221679687  C 0.5111111328125011 22.088888867187478  0.6722222656250012 21.53888886718748  0.9833333496093757 20.97777778320311  C 1.288888916015626 20.438888916015614  1.711111132812501 19.89999999999999  2.244444433593751 19.377777783203115  C 3.2111110839843757 18.427777783203112  4.494444433593751 17.47777778320311  6.066666650390627 16.549999999999983  L 6.222222216796877 16.46111113281249  L 6.233333349609376 16.283333349609364  C 6.327777783203126 14.505555566406244  6.7 12.755555566406244  7.34444443359375 11.083333349609376  C 7.977777783203126 9.43333334960937  8.85555556640625 7.894444482421875  9.95555556640625 6.511111132812488  C 12.24444443359375 3.638888916015617  15.333333349609376 1.6166666992187402  18.883333349609376 0.6666666503906242  C 20.327777783203125 0.2833333007812371  21.81666669921875 0.08888886718749234  23.30555556640625 0.08888886718749234  C 25.84444443359375 0.08888886718749234  28.4 0.6666666503906242  30.688888867187504 1.7666666503906185  C 35.2 3.9333333007812428  38.527777734375 7.944444433593745  39.81666665039063 12.761111132812488  C 40.08888886718751 13.755555566406244  40.272222216796884 14.833333349609362  40.3611111328125 15.972222216796865  L 40.40555556640626 16.533333349609364  L 40.87777778320313 16.227777783203123  C 43.76666665039063 14.344444433593736  45.19444443359376 12.644444433593748  44.91111113281251 11.43333334960937  L 44.91111113281251 11.41666665039061  L 44.9 11.372222216796871  C 44.6888888671875 10.661111083984366  43.81666665039062 10.077777783203118  42.37777778320312 9.688888867187488  C 42.15 9.622222216796871  41.93333334960938 9.566666650390616  41.733333349609374 9.533333349609364  C 41.4111111328125 9.46111113281249  41.2111111328125 9.161111132812493  41.27222221679688 8.838888867187492  C 41.3388888671875 8.555555517578114  41.56666665039063 8.361111083984369  41.8388888671875 8.361111132812482  C 41.877777734375 8.361111132812482  41.92222221679688 8.36666669921874  41.961111132812505 8.372222216796871  C 42.233333349609374 8.43333334960937  42.461111132812505 8.483333349609367  42.677777783203126 8.544444433593739  L 42.68333334960938 8.544444433593739  C 44.59444448242188 9.049999999999983  45.71666669921875 9.88888886718749  46.02777778320313 11.044444433593739  C 46.03333334960938 11.077777783203118  46.04444443359375 11.111111083984369  46.061111132812506 11.144444433593748  C 46.28333334960938 12.094444433593736  45.91666669921876 13.149999999999991  44.961111132812505 14.288888867187497  C 44.01666669921875 15.41666665039061  42.53888891601563 16.58333330078125  40.561111132812506 17.76666665039062  L 40.41111113281251 17.855555566406238  L 40.400000000000006 18.033333349609364  C 40.305555566406255 19.816666699218732  39.93333334960938 21.56666669921873  39.29444443359375 23.24444443359374  C 38.66111108398437 24.899999999999977  37.78333330078125 26.438888867187487  36.68333334960938 27.827777783203118  C 34.394444482421875 30.705555566406247  31.305555566406255 32.73333334960937  27.750000000000004 33.68333334960937  Z M 39.166666650390624 18.527777783203135  L 38.605555566406245 18.822222216796874  C 34.87777778320312 20.772222216796877  30.083333349609372 22.583333349609376  25.1 23.916666650390624  C 20.1888888671875 25.238888867187498  15.133333349609373 26.072222216796874  10.866666650390625 26.255555566406258  L 10.227777783203125 26.283333349609364  L 10.616666650390625 26.788888867187495  C 11.65 28.144444433593748  12.888888867187498 29.31666665039063  14.294444433593751 30.28333334960938  C 16.966666650390625 32.11111113281251  20.07777778320313 33.07777778320313  23.3 33.07777778320313  C 24.688888867187494 33.07777778320313  26.07777778320312 32.89444443359375  27.42222221679688 32.53333334960938  C 33.69444443359375 30.85000000000001  38.27222221679688 25.60000000000001  39.0888888671875 19.161111132812508  L 39.166666650390624 18.527777783203135  Z M 30.199999999999996 2.7944444335937533  C 28.061111132812496 1.7666666503906185  25.683333349609363 1.2277777832031234  23.3111111328125 1.2277777832031234  C 21.916666699218748 1.2277777832031234  20.533333349609375 1.4111111328124935  19.194444433593752 1.7666666503906185  C 15.0888888671875 2.866666650390627  11.655555566406251 5.505555517578131  9.522222216796875 9.194444433593745  C 7.3888888671875 12.883333300781246  6.822222216796876 17.172222216796868  7.922222216796875 21.27777778320312  C 8.266666650390626 22.5611111328125  8.777777783203126 23.805555566406255  9.438888867187499 24.98333334960938  L 9.533333349609375 25.15555556640625  L 9.733333349609374 25.150000000000006  C 12.766666699218748 25.105555566406252  17.844444482421874 24.661111132812493  24.816666650390623 22.788888867187495  C 31.833333300781252 20.905555517578122  36.4388888671875 18.761111083984375  39.072222216796874 17.294444433593753  L 39.24444443359375 17.200000000000003  L 39.24444443359375 17  C 39.23333330078124 15.622222216796871  39.05 14.288888867187497  38.70555556640625 13.033333349609379  C 37.49444443359375 8.538888916015622  34.39444443359375 4.805555566406255  30.199999999999996 2.7944444335937533  Z M 1.6555555664062496 22.61666665039064  C 1.6666666992187495 22.722222216796894  1.6833333496093745 22.833333300781263  1.7166666503906247 22.955555566406247  C 2.05555556640625 24.161111132812493  4.1499999999999995 24.927777783203112  7.611111132812499 25.111111132812496  L 8.177777783203126 25.144444433593748  L 7.927777783203124 24.633333349609387  C 7.438888916015626 23.64444448242187  7.055555566406251 22.616666699218754  6.783333349609375 21.583333349609376  C 6.505555566406251 20.55555556640624  6.327777783203125 19.5  6.2388888671875 18.355555566406252  L 6.19444443359375 17.794444433593753  L 5.722222216796875 18.105555566406252  C 5.205555566406249 18.44444443359376  4.733333349609375 18.777777783203135  4.327777783203125 19.088888867187507  C 3.2277777832031256 19.94444443359376  2.39444443359375 20.81666665039063  1.9833333496093746 21.53888886718751  L 1.9777777832031247 21.55000000000001  C 1.7611111328124998 21.966666650390636  1.6555555664062496 22.311111132812513  1.6555555664062496 22.61666665039064  Z " fill-rule="nonzero" fill="rgba(163, 163, 163, 1)" stroke="none" transform="matrix(1 0 0 1 156 209 )" class="fill" />
    <path d="M 27.750000000000004 33.68333334960937  C 26.333333349609376 34.06666669921874  24.844444433593754 34.266666699218746  23.316666650390626 34.26666665039062  C 19.855555517578125 34.26666665039062  16.516666650390626 33.22777778320312  13.655555566406251 31.272222216796877  C 11.788888916015626 29.988888867187498  10.211111132812501 28.37222221679687  8.9611111328125 26.461111132812505  L 8.866666650390625 26.3111111328125  L 8.6888888671875 26.3111111328125  C 6.377777734375 26.27777778320312  4.5055555175781254 26.005555566406244  3.1277777832031255 25.505555566406244  C 1.7277777832031258 24.994444433593742  0.8777777832031259 24.255555566406244  0.6055555664062509 23.3111111328125  L 0.6055555664062509 23.299999999999983  L 0.5944444335937509 23.255555566406244  C 0.538888867187501 23.066666699218743  0.511111083984376 22.855555566406238  0.5111111328125011 22.62222221679687  C 0.5111111328125011 22.088888867187478  0.6722222656250012 21.53888886718748  0.9833333496093757 20.97777778320311  C 1.288888916015626 20.438888916015614  1.711111132812501 19.89999999999999  2.244444433593751 19.377777783203115  C 3.2111110839843757 18.427777783203112  4.494444433593751 17.47777778320311  6.066666650390627 16.549999999999983  L 6.222222216796877 16.46111113281249  L 6.233333349609376 16.283333349609364  C 6.327777783203126 14.505555566406244  6.7 12.755555566406244  7.34444443359375 11.083333349609376  C 7.977777783203126 9.43333334960937  8.85555556640625 7.894444482421875  9.95555556640625 6.511111132812488  C 12.24444443359375 3.638888916015617  15.333333349609376 1.6166666992187402  18.883333349609376 0.6666666503906242  C 20.327777783203125 0.2833333007812371  21.81666669921875 0.08888886718749234  23.30555556640625 0.08888886718749234  C 25.84444443359375 0.08888886718749234  28.4 0.6666666503906242  30.688888867187504 1.7666666503906185  C 35.2 3.9333333007812428  38.527777734375 7.944444433593745  39.81666665039063 12.761111132812488  C 40.08888886718751 13.755555566406244  40.272222216796884 14.833333349609362  40.3611111328125 15.972222216796865  L 40.40555556640626 16.533333349609364  L 40.87777778320313 16.227777783203123  C 43.76666665039063 14.344444433593736  45.19444443359376 12.644444433593748  44.91111113281251 11.43333334960937  L 44.91111113281251 11.41666665039061  L 44.9 11.372222216796871  C 44.6888888671875 10.661111083984366  43.81666665039062 10.077777783203118  42.37777778320312 9.688888867187488  C 42.15 9.622222216796871  41.93333334960938 9.566666650390616  41.733333349609374 9.533333349609364  C 41.4111111328125 9.46111113281249  41.2111111328125 9.161111132812493  41.27222221679688 8.838888867187492  C 41.3388888671875 8.555555517578114  41.56666665039063 8.361111083984369  41.8388888671875 8.361111132812482  C 41.877777734375 8.361111132812482  41.92222221679688 8.36666669921874  41.961111132812505 8.372222216796871  C 42.233333349609374 8.43333334960937  42.461111132812505 8.483333349609367  42.677777783203126 8.544444433593739  L 42.68333334960938 8.544444433593739  C 44.59444448242188 9.049999999999983  45.71666669921875 9.88888886718749  46.02777778320313 11.044444433593739  C 46.03333334960938 11.077777783203118  46.04444443359375 11.111111083984369  46.061111132812506 11.144444433593748  C 46.28333334960938 12.094444433593736  45.91666669921876 13.149999999999991  44.961111132812505 14.288888867187497  C 44.01666669921875 15.41666665039061  42.53888891601563 16.58333330078125  40.561111132812506 17.76666665039062  L 40.41111113281251 17.855555566406238  L 40.400000000000006 18.033333349609364  C 40.305555566406255 19.816666699218732  39.93333334960938 21.56666669921873  39.29444443359375 23.24444443359374  C 38.66111108398437 24.899999999999977  37.78333330078125 26.438888867187487  36.68333334960938 27.827777783203118  C 34.394444482421875 30.705555566406247  31.305555566406255 32.73333334960937  27.750000000000004 33.68333334960937  Z " stroke-width="0" stroke-dasharray="0" stroke="rgba(255, 255, 255, 0)" fill="none" transform="matrix(1 0 0 1 156 209 )" class="stroke" mask="url(#Clip14830)" />
    <path d="M 39.166666650390624 18.527777783203135  L 38.605555566406245 18.822222216796874  C 34.87777778320312 20.772222216796877  30.083333349609372 22.583333349609376  25.1 23.916666650390624  C 20.1888888671875 25.238888867187498  15.133333349609373 26.072222216796874  10.866666650390625 26.255555566406258  L 10.227777783203125 26.283333349609364  L 10.616666650390625 26.788888867187495  C 11.65 28.144444433593748  12.888888867187498 29.31666665039063  14.294444433593751 30.28333334960938  C 16.966666650390625 32.11111113281251  20.07777778320313 33.07777778320313  23.3 33.07777778320313  C 24.688888867187494 33.07777778320313  26.07777778320312 32.89444443359375  27.42222221679688 32.53333334960938  C 33.69444443359375 30.85000000000001  38.27222221679688 25.60000000000001  39.0888888671875 19.161111132812508  L 39.166666650390624 18.527777783203135  Z " stroke-width="0" stroke-dasharray="0" stroke="rgba(255, 255, 255, 0)" fill="none" transform="matrix(1 0 0 1 156 209 )" class="stroke" mask="url(#Clip14830)" />
    <path d="M 30.199999999999996 2.7944444335937533  C 28.061111132812496 1.7666666503906185  25.683333349609363 1.2277777832031234  23.3111111328125 1.2277777832031234  C 21.916666699218748 1.2277777832031234  20.533333349609375 1.4111111328124935  19.194444433593752 1.7666666503906185  C 15.0888888671875 2.866666650390627  11.655555566406251 5.505555517578131  9.522222216796875 9.194444433593745  C 7.3888888671875 12.883333300781246  6.822222216796876 17.172222216796868  7.922222216796875 21.27777778320312  C 8.266666650390626 22.5611111328125  8.777777783203126 23.805555566406255  9.438888867187499 24.98333334960938  L 9.533333349609375 25.15555556640625  L 9.733333349609374 25.150000000000006  C 12.766666699218748 25.105555566406252  17.844444482421874 24.661111132812493  24.816666650390623 22.788888867187495  C 31.833333300781252 20.905555517578122  36.4388888671875 18.761111083984375  39.072222216796874 17.294444433593753  L 39.24444443359375 17.200000000000003  L 39.24444443359375 17  C 39.23333330078124 15.622222216796871  39.05 14.288888867187497  38.70555556640625 13.033333349609379  C 37.49444443359375 8.538888916015622  34.39444443359375 4.805555566406255  30.199999999999996 2.7944444335937533  Z " stroke-width="0" stroke-dasharray="0" stroke="rgba(255, 255, 255, 0)" fill="none" transform="matrix(1 0 0 1 156 209 )" class="stroke" mask="url(#Clip14830)" />
    <path d="M 1.6555555664062496 22.61666665039064  C 1.6666666992187495 22.722222216796894  1.6833333496093745 22.833333300781263  1.7166666503906247 22.955555566406247  C 2.05555556640625 24.161111132812493  4.1499999999999995 24.927777783203112  7.611111132812499 25.111111132812496  L 8.177777783203126 25.144444433593748  L 7.927777783203124 24.633333349609387  C 7.438888916015626 23.64444448242187  7.055555566406251 22.616666699218754  6.783333349609375 21.583333349609376  C 6.505555566406251 20.55555556640624  6.327777783203125 19.5  6.2388888671875 18.355555566406252  L 6.19444443359375 17.794444433593753  L 5.722222216796875 18.105555566406252  C 5.205555566406249 18.44444443359376  4.733333349609375 18.777777783203135  4.327777783203125 19.088888867187507  C 3.2277777832031256 19.94444443359376  2.39444443359375 20.81666665039063  1.9833333496093746 21.53888886718751  L 1.9777777832031247 21.55000000000001  C 1.7611111328124998 21.966666650390636  1.6555555664062496 22.311111132812513  1.6555555664062496 22.61666665039064  Z " stroke-width="0" stroke-dasharray="0" stroke="rgba(255, 255, 255, 0)" fill="none" transform="matrix(1 0 0 1 156 209 )" class="stroke" mask="url(#Clip14830)" />
  </g>
</svg>