<?xml version="1.0" encoding="utf-8"?>
<svg version="1.1" xmlns:xlink="http://www.w3.org/1999/xlink" width="50px" height="50px" xmlns="http://www.w3.org/2000/svg">
  <defs>
    <pattern id="BGPattern" patternUnits="userSpaceOnUse" alignment="0 0" imageRepeat="None" />
    <mask fill="white" id="Clip16050">
      <path d="M 13.866666650390624 47.277777783203135  C 13.861111083984373 47.3111111328125  13.827777783203125 47.36666665039063  13.75555556640625 47.36666665039063  C 13.683333349609375 47.36666665039063  13.649999999999999 47.31111108398437  13.638888867187498 47.277777783203135  L 13.316666650390625 46.305555566406255  L 12.344444433593749 45.98333334960938  C 12.311111083984374 45.97222221679688  12.255555566406247 45.93888891601563  12.255555566406247 45.86666665039063  C 12.255555566406247 45.794444384765626  12.311111132812497 45.76111108398439  12.344444433593749 45.75  L 13.316666650390625 45.42777778320314  L 13.638888867187498 44.45555556640626  C 13.649999999999999 44.42222221679688  13.683333300781248 44.36666669921877  13.75555556640625 44.36666665039064  C 13.827777832031252 44.366666601562514  13.861111132812502 44.42222221679688  13.872222216796876 44.45555556640626  L 14.19444443359375 45.42777778320314  L 15.166666650390626 45.75  C 15.222222216796876 45.76666665039063  15.25 45.805555566406255  15.25 45.86666665039063  C 15.25 45.9388888671875  15.194444433593748 45.97222221679688  15.161111132812499 45.98333334960938  L 14.188888867187499 46.305555566406255  L 13.866666650390624 47.277777783203135  Z M 2.40555556640625 20.677777783203126  C 2.3944444335937503 20.71666665039062  2.3611111328125003 20.76666665039062  2.2888888671875 20.76666665039062  C 2.216666650390625 20.76666665039062  2.18333330078125 20.71666665039062  2.1722222167968748 20.68333334960937  L 1.74444443359375 19.361111132812496  L 0.4333333496093749 18.93333334960937  C 0.3999999999999999 18.922222216796882  0.35 18.888888916015617  0.35 18.81666665039063  C 0.35 18.744444384765615  0.4 18.711111083984378  0.4333333496093749 18.69999999999999  L 1.74444443359375 18.272222216796877  L 2.1777777832031253 16.96111113281249  C 2.188888916015625 16.927777783203126  2.222222216796875 16.872222265625  2.29444443359375 16.87222221679687  C 2.3666666503906253 16.872222167968744  2.4 16.922222216796868  2.4111111328125 16.955555566406247  L 2.8388888671875003 18.26666665039062  L 4.144444433593749 18.71111113281249  C 4.172222216796874 18.722222265624993  4.227777783203124 18.75  4.227777783203124 18.827777783203118  C 4.227777783203124 18.89999999999999  4.177777783203124 18.93333334960937  4.144444433593749 18.944444433593745  L 2.8333333496093753 19.366666650390627  L 2.40555556640625 20.677777783203126  Z M 24.8888888671875 3.25  C 24.872222216796875 3.27777778320312  24.8388888671875 3.3333333496093758  24.766666650390626 3.3333333496093758  C 24.694444433593752 3.3333333496093758  24.661111083984373 3.27777778320312  24.65 3.2444444335937557  L 24.322222216796874 2.2777777832031205  L 23.349999999999998 1.9555555664062467  C 23.294444433593746 1.9388889160156284  23.266666650390626 1.900000000000006  23.266666650390626 1.8388888671875065  C 23.266666650390626 1.7666666503906185  23.322222216796877 1.7333333007812541  23.35555556640625 1.7222222167968795  L 24.327777783203125 1.4000000000000057  L 24.65 0.42777778320312626  C 24.683333349609374 0.33888891601561966  24.74444443359375 0.33888891601561966  24.766666650390626 0.33888886718750655  C 24.8388888671875 0.33888886718750655  24.872222216796878 0.3944444335937476  24.883333349609376 0.42777778320312626  L 25.20555556640625 1.4000000000000057  L 26.177777783203126 1.7222222167968795  C 26.211111132812505 1.7333333496093815  26.266666650390626 1.7666666503906185  26.266666650390626 1.8388888671875065  C 26.266666650390626 1.9111110839843803  26.211111083984374 1.9444444335937445  26.177777783203126 1.9555555664062467  L 25.2111111328125 2.2777777832031205  L 24.8888888671875 3.25  Z M 12.049999999999999 5.966666650390621  C 12.049999999999999 6.288888867187495  11.783333349609375 6.555555517578128  11.4611111328125 6.555555566406255  C 11.138888916015626 6.555555566406255  10.872222265625 6.2888889160156225  10.872222216796876 5.966666650390621  C 10.87222216796875 5.64444438476562  11.133333349609376 5.377777783203129  11.450000000000001 5.377777783203129  L 11.45555556640625 5.377777783203129  C 11.783333349609375 5.377777783203129  12.049999999999999 5.644444433593748  12.049999999999999 5.966666650390621  Z M 24.8888888671875 49.07777778320312  C 24.8888888671875 49.40000004882813  24.622222216796875 49.666666650390624  24.3 49.666666650390624  C 23.977777783203123 49.666666650390624  23.711111132812498 49.400000000000006  23.711111132812498 49.07777778320312  C 23.711111132812498 48.75555556640626  23.977777783203123 48.488888916015625  24.3 48.48888886718751  C 24.622222216796875 48.488888818359385  24.8888888671875 48.75555551757813  24.8888888671875 49.07777778320312  Z M 49.65555556640624 27.977777783203123  C 49.65555561523437 28.30000004882812  49.388888916015624 28.566666650390633  49.06666665039062 28.566666650390633  C 48.74444443359375 28.566666650390633  48.47777778320312 28.300000000000015  48.47777778320312 27.977777783203123  C 48.47777778320312 27.65555556640625  48.74444443359375 27.38888891601563  49.06666665039062 27.388888867187504  C 49.3888888671875 27.388888818359376  49.65555551757812 27.655555517578133  49.65555556640624 27.977777783203123  Z M 33.15 5.966666650390621  C 33.15 6.288888867187495  32.88333334960937 6.555555517578128  32.5611111328125 6.555555566406255  C 32.238888916015625 6.555555566406255  31.972222265625 6.2888889160156225  31.972222216796876 5.966666650390621  C 31.97222216796875 5.64444438476562  32.2388888671875 5.377777783203129  32.5611111328125 5.377777783203129  C 32.8833333984375 5.377777783203129  33.15 5.644444433593748  33.15 5.966666650390621  Z M 44.62777778320313 39.92222221679687  C 44.61666665039063 39.96111108398438  44.583333349609376 40.01111108398436  44.511111132812495 40.0111111328125  C 44.43888891601562 40.0111111328125  44.40555556640625 39.961111132812505  44.39444443359375 39.92777778320311  L 43.96666665039062 38.61666665039063  L 42.65555556640625 38.1888888671875  C 42.62222221679687 38.177777734375  42.572222216796874 38.14444443359375  42.572222216796874 38.072222216796874  C 42.572222216796874 38  42.62222221679687 37.96666665039062  42.65555556640625 37.95555556640625  L 43.96666665039062 37.527777783203135  L 44.39444443359375 36.216666650390636  C 44.40555556640625 36.18333330078124  44.4388888671875 36.13333330078126  44.511111132812495 36.13333334960937  C 44.583333398437496 36.1333333984375  44.61666669921875 36.18333334960937  44.62777778320312 36.216666650390636  L 45.05555556640625 37.527777783203135  L 46.355555566406245 37.95555556640625  C 46.40555556640625 37.97777778320312  46.45555556640625 38.02222221679688  46.45555556640625 38.07777778320312  C 46.45555556640625 38.150000000000006  46.40555556640625 38.18333334960937  46.37222221679687 38.19444443359376  L 45.055555566406255 38.611111132812496  L 44.62777778320313 39.92222221679687  Z " fill-rule="evenodd" />
    </mask>
  </defs>
  <g transform="matrix(1 0 0 1 -155 -200 )">
    <path d="M 13.866666650390624 47.277777783203135  C 13.861111083984373 47.3111111328125  13.827777783203125 47.36666665039063  13.75555556640625 47.36666665039063  C 13.683333349609375 47.36666665039063  13.649999999999999 47.31111108398437  13.638888867187498 47.277777783203135  L 13.316666650390625 46.305555566406255  L 12.344444433593749 45.98333334960938  C 12.311111083984374 45.97222221679688  12.255555566406247 45.93888891601563  12.255555566406247 45.86666665039063  C 12.255555566406247 45.794444384765626  12.311111132812497 45.76111108398439  12.344444433593749 45.75  L 13.316666650390625 45.42777778320314  L 13.638888867187498 44.45555556640626  C 13.649999999999999 44.42222221679688  13.683333300781248 44.36666669921877  13.75555556640625 44.36666665039064  C 13.827777832031252 44.366666601562514  13.861111132812502 44.42222221679688  13.872222216796876 44.45555556640626  L 14.19444443359375 45.42777778320314  L 15.166666650390626 45.75  C 15.222222216796876 45.76666665039063  15.25 45.805555566406255  15.25 45.86666665039063  C 15.25 45.9388888671875  15.194444433593748 45.97222221679688  15.161111132812499 45.98333334960938  L 14.188888867187499 46.305555566406255  L 13.866666650390624 47.277777783203135  Z M 2.40555556640625 20.677777783203126  C 2.3944444335937503 20.71666665039062  2.3611111328125003 20.76666665039062  2.2888888671875 20.76666665039062  C 2.216666650390625 20.76666665039062  2.18333330078125 20.71666665039062  2.1722222167968748 20.68333334960937  L 1.74444443359375 19.361111132812496  L 0.4333333496093749 18.93333334960937  C 0.3999999999999999 18.922222216796882  0.35 18.888888916015617  0.35 18.81666665039063  C 0.35 18.744444384765615  0.4 18.711111083984378  0.4333333496093749 18.69999999999999  L 1.74444443359375 18.272222216796877  L 2.1777777832031253 16.96111113281249  C 2.188888916015625 16.927777783203126  2.222222216796875 16.872222265625  2.29444443359375 16.87222221679687  C 2.3666666503906253 16.872222167968744  2.4 16.922222216796868  2.4111111328125 16.955555566406247  L 2.8388888671875003 18.26666665039062  L 4.144444433593749 18.71111113281249  C 4.172222216796874 18.722222265624993  4.227777783203124 18.75  4.227777783203124 18.827777783203118  C 4.227777783203124 18.89999999999999  4.177777783203124 18.93333334960937  4.144444433593749 18.944444433593745  L 2.8333333496093753 19.366666650390627  L 2.40555556640625 20.677777783203126  Z M 24.8888888671875 3.25  C 24.872222216796875 3.27777778320312  24.8388888671875 3.3333333496093758  24.766666650390626 3.3333333496093758  C 24.694444433593752 3.3333333496093758  24.661111083984373 3.27777778320312  24.65 3.2444444335937557  L 24.322222216796874 2.2777777832031205  L 23.349999999999998 1.9555555664062467  C 23.294444433593746 1.9388889160156284  23.266666650390626 1.900000000000006  23.266666650390626 1.8388888671875065  C 23.266666650390626 1.7666666503906185  23.322222216796877 1.7333333007812541  23.35555556640625 1.7222222167968795  L 24.327777783203125 1.4000000000000057  L 24.65 0.42777778320312626  C 24.683333349609374 0.33888891601561966  24.74444443359375 0.33888891601561966  24.766666650390626 0.33888886718750655  C 24.8388888671875 0.33888886718750655  24.872222216796878 0.3944444335937476  24.883333349609376 0.42777778320312626  L 25.20555556640625 1.4000000000000057  L 26.177777783203126 1.7222222167968795  C 26.211111132812505 1.7333333496093815  26.266666650390626 1.7666666503906185  26.266666650390626 1.8388888671875065  C 26.266666650390626 1.9111110839843803  26.211111083984374 1.9444444335937445  26.177777783203126 1.9555555664062467  L 25.2111111328125 2.2777777832031205  L 24.8888888671875 3.25  Z M 12.049999999999999 5.966666650390621  C 12.049999999999999 6.288888867187495  11.783333349609375 6.555555517578128  11.4611111328125 6.555555566406255  C 11.138888916015626 6.555555566406255  10.872222265625 6.2888889160156225  10.872222216796876 5.966666650390621  C 10.87222216796875 5.64444438476562  11.133333349609376 5.377777783203129  11.450000000000001 5.377777783203129  L 11.45555556640625 5.377777783203129  C 11.783333349609375 5.377777783203129  12.049999999999999 5.644444433593748  12.049999999999999 5.966666650390621  Z M 24.8888888671875 49.07777778320312  C 24.8888888671875 49.40000004882813  24.622222216796875 49.666666650390624  24.3 49.666666650390624  C 23.977777783203123 49.666666650390624  23.711111132812498 49.400000000000006  23.711111132812498 49.07777778320312  C 23.711111132812498 48.75555556640626  23.977777783203123 48.488888916015625  24.3 48.48888886718751  C 24.622222216796875 48.488888818359385  24.8888888671875 48.75555551757813  24.8888888671875 49.07777778320312  Z M 49.65555556640624 27.977777783203123  C 49.65555561523437 28.30000004882812  49.388888916015624 28.566666650390633  49.06666665039062 28.566666650390633  C 48.74444443359375 28.566666650390633  48.47777778320312 28.300000000000015  48.47777778320312 27.977777783203123  C 48.47777778320312 27.65555556640625  48.74444443359375 27.38888891601563  49.06666665039062 27.388888867187504  C 49.3888888671875 27.388888818359376  49.65555551757812 27.655555517578133  49.65555556640624 27.977777783203123  Z M 33.15 5.966666650390621  C 33.15 6.288888867187495  32.88333334960937 6.555555517578128  32.5611111328125 6.555555566406255  C 32.238888916015625 6.555555566406255  31.972222265625 6.2888889160156225  31.972222216796876 5.966666650390621  C 31.97222216796875 5.64444438476562  32.2388888671875 5.377777783203129  32.5611111328125 5.377777783203129  C 32.8833333984375 5.377777783203129  33.15 5.644444433593748  33.15 5.966666650390621  Z M 44.62777778320313 39.92222221679687  C 44.61666665039063 39.96111108398438  44.583333349609376 40.01111108398436  44.511111132812495 40.0111111328125  C 44.43888891601562 40.0111111328125  44.40555556640625 39.961111132812505  44.39444443359375 39.92777778320311  L 43.96666665039062 38.61666665039063  L 42.65555556640625 38.1888888671875  C 42.62222221679687 38.177777734375  42.572222216796874 38.14444443359375  42.572222216796874 38.072222216796874  C 42.572222216796874 38  42.62222221679687 37.96666665039062  42.65555556640625 37.95555556640625  L 43.96666665039062 37.527777783203135  L 44.39444443359375 36.216666650390636  C 44.40555556640625 36.18333330078124  44.4388888671875 36.13333330078126  44.511111132812495 36.13333334960937  C 44.583333398437496 36.1333333984375  44.61666669921875 36.18333334960937  44.62777778320312 36.216666650390636  L 45.05555556640625 37.527777783203135  L 46.355555566406245 37.95555556640625  C 46.40555556640625 37.97777778320312  46.45555556640625 38.02222221679688  46.45555556640625 38.07777778320312  C 46.45555556640625 38.150000000000006  46.40555556640625 38.18333334960937  46.37222221679687 38.19444443359376  L 45.055555566406255 38.611111132812496  L 44.62777778320313 39.92222221679687  Z " fill-rule="nonzero" fill="rgba(229, 229, 229, 1)" stroke="none" transform="matrix(1 0 0 1 155 200 )" class="fill" />
    <path d="M 13.866666650390624 47.277777783203135  C 13.861111083984373 47.3111111328125  13.827777783203125 47.36666665039063  13.75555556640625 47.36666665039063  C 13.683333349609375 47.36666665039063  13.649999999999999 47.31111108398437  13.638888867187498 47.277777783203135  L 13.316666650390625 46.305555566406255  L 12.344444433593749 45.98333334960938  C 12.311111083984374 45.97222221679688  12.255555566406247 45.93888891601563  12.255555566406247 45.86666665039063  C 12.255555566406247 45.794444384765626  12.311111132812497 45.76111108398439  12.344444433593749 45.75  L 13.316666650390625 45.42777778320314  L 13.638888867187498 44.45555556640626  C 13.649999999999999 44.42222221679688  13.683333300781248 44.36666669921877  13.75555556640625 44.36666665039064  C 13.827777832031252 44.366666601562514  13.861111132812502 44.42222221679688  13.872222216796876 44.45555556640626  L 14.19444443359375 45.42777778320314  L 15.166666650390626 45.75  C 15.222222216796876 45.76666665039063  15.25 45.805555566406255  15.25 45.86666665039063  C 15.25 45.9388888671875  15.194444433593748 45.97222221679688  15.161111132812499 45.98333334960938  L 14.188888867187499 46.305555566406255  L 13.866666650390624 47.277777783203135  Z " stroke-width="0" stroke-dasharray="0" stroke="rgba(255, 255, 255, 0)" fill="none" transform="matrix(1 0 0 1 155 200 )" class="stroke" mask="url(#Clip16050)" />
    <path d="M 2.40555556640625 20.677777783203126  C 2.3944444335937503 20.71666665039062  2.3611111328125003 20.76666665039062  2.2888888671875 20.76666665039062  C 2.216666650390625 20.76666665039062  2.18333330078125 20.71666665039062  2.1722222167968748 20.68333334960937  L 1.74444443359375 19.361111132812496  L 0.4333333496093749 18.93333334960937  C 0.3999999999999999 18.922222216796882  0.35 18.888888916015617  0.35 18.81666665039063  C 0.35 18.744444384765615  0.4 18.711111083984378  0.4333333496093749 18.69999999999999  L 1.74444443359375 18.272222216796877  L 2.1777777832031253 16.96111113281249  C 2.188888916015625 16.927777783203126  2.222222216796875 16.872222265625  2.29444443359375 16.87222221679687  C 2.3666666503906253 16.872222167968744  2.4 16.922222216796868  2.4111111328125 16.955555566406247  L 2.8388888671875003 18.26666665039062  L 4.144444433593749 18.71111113281249  C 4.172222216796874 18.722222265624993  4.227777783203124 18.75  4.227777783203124 18.827777783203118  C 4.227777783203124 18.89999999999999  4.177777783203124 18.93333334960937  4.144444433593749 18.944444433593745  L 2.8333333496093753 19.366666650390627  L 2.40555556640625 20.677777783203126  Z " stroke-width="0" stroke-dasharray="0" stroke="rgba(255, 255, 255, 0)" fill="none" transform="matrix(1 0 0 1 155 200 )" class="stroke" mask="url(#Clip16050)" />
    <path d="M 24.8888888671875 3.25  C 24.872222216796875 3.27777778320312  24.8388888671875 3.3333333496093758  24.766666650390626 3.3333333496093758  C 24.694444433593752 3.3333333496093758  24.661111083984373 3.27777778320312  24.65 3.2444444335937557  L 24.322222216796874 2.2777777832031205  L 23.349999999999998 1.9555555664062467  C 23.294444433593746 1.9388889160156284  23.266666650390626 1.900000000000006  23.266666650390626 1.8388888671875065  C 23.266666650390626 1.7666666503906185  23.322222216796877 1.7333333007812541  23.35555556640625 1.7222222167968795  L 24.327777783203125 1.4000000000000057  L 24.65 0.42777778320312626  C 24.683333349609374 0.33888891601561966  24.74444443359375 0.33888891601561966  24.766666650390626 0.33888886718750655  C 24.8388888671875 0.33888886718750655  24.872222216796878 0.3944444335937476  24.883333349609376 0.42777778320312626  L 25.20555556640625 1.4000000000000057  L 26.177777783203126 1.7222222167968795  C 26.211111132812505 1.7333333496093815  26.266666650390626 1.7666666503906185  26.266666650390626 1.8388888671875065  C 26.266666650390626 1.9111110839843803  26.211111083984374 1.9444444335937445  26.177777783203126 1.9555555664062467  L 25.2111111328125 2.2777777832031205  L 24.8888888671875 3.25  Z " stroke-width="0" stroke-dasharray="0" stroke="rgba(255, 255, 255, 0)" fill="none" transform="matrix(1 0 0 1 155 200 )" class="stroke" mask="url(#Clip16050)" />
    <path d="M 12.049999999999999 5.966666650390621  C 12.049999999999999 6.288888867187495  11.783333349609375 6.555555517578128  11.4611111328125 6.555555566406255  C 11.138888916015626 6.555555566406255  10.872222265625 6.2888889160156225  10.872222216796876 5.966666650390621  C 10.87222216796875 5.64444438476562  11.133333349609376 5.377777783203129  11.450000000000001 5.377777783203129  L 11.45555556640625 5.377777783203129  C 11.783333349609375 5.377777783203129  12.049999999999999 5.644444433593748  12.049999999999999 5.966666650390621  Z " stroke-width="0" stroke-dasharray="0" stroke="rgba(255, 255, 255, 0)" fill="none" transform="matrix(1 0 0 1 155 200 )" class="stroke" mask="url(#Clip16050)" />
    <path d="M 24.8888888671875 49.07777778320312  C 24.8888888671875 49.40000004882813  24.622222216796875 49.666666650390624  24.3 49.666666650390624  C 23.977777783203123 49.666666650390624  23.711111132812498 49.400000000000006  23.711111132812498 49.07777778320312  C 23.711111132812498 48.75555556640626  23.977777783203123 48.488888916015625  24.3 48.48888886718751  C 24.622222216796875 48.488888818359385  24.8888888671875 48.75555551757813  24.8888888671875 49.07777778320312  Z " stroke-width="0" stroke-dasharray="0" stroke="rgba(255, 255, 255, 0)" fill="none" transform="matrix(1 0 0 1 155 200 )" class="stroke" mask="url(#Clip16050)" />
    <path d="M 49.65555556640624 27.977777783203123  C 49.65555561523437 28.30000004882812  49.388888916015624 28.566666650390633  49.06666665039062 28.566666650390633  C 48.74444443359375 28.566666650390633  48.47777778320312 28.300000000000015  48.47777778320312 27.977777783203123  C 48.47777778320312 27.65555556640625  48.74444443359375 27.38888891601563  49.06666665039062 27.388888867187504  C 49.3888888671875 27.388888818359376  49.65555551757812 27.655555517578133  49.65555556640624 27.977777783203123  Z " stroke-width="0" stroke-dasharray="0" stroke="rgba(255, 255, 255, 0)" fill="none" transform="matrix(1 0 0 1 155 200 )" class="stroke" mask="url(#Clip16050)" />
    <path d="M 33.15 5.966666650390621  C 33.15 6.288888867187495  32.88333334960937 6.555555517578128  32.5611111328125 6.555555566406255  C 32.238888916015625 6.555555566406255  31.972222265625 6.2888889160156225  31.972222216796876 5.966666650390621  C 31.97222216796875 5.64444438476562  32.2388888671875 5.377777783203129  32.5611111328125 5.377777783203129  C 32.8833333984375 5.377777783203129  33.15 5.644444433593748  33.15 5.966666650390621  Z " stroke-width="0" stroke-dasharray="0" stroke="rgba(255, 255, 255, 0)" fill="none" transform="matrix(1 0 0 1 155 200 )" class="stroke" mask="url(#Clip16050)" />
    <path d="M 44.62777778320313 39.92222221679687  C 44.61666665039063 39.96111108398438  44.583333349609376 40.01111108398436  44.511111132812495 40.0111111328125  C 44.43888891601562 40.0111111328125  44.40555556640625 39.961111132812505  44.39444443359375 39.92777778320311  L 43.96666665039062 38.61666665039063  L 42.65555556640625 38.1888888671875  C 42.62222221679687 38.177777734375  42.572222216796874 38.14444443359375  42.572222216796874 38.072222216796874  C 42.572222216796874 38  42.62222221679687 37.96666665039062  42.65555556640625 37.95555556640625  L 43.96666665039062 37.527777783203135  L 44.39444443359375 36.216666650390636  C 44.40555556640625 36.18333330078124  44.4388888671875 36.13333330078126  44.511111132812495 36.13333334960937  C 44.583333398437496 36.1333333984375  44.61666669921875 36.18333334960937  44.62777778320312 36.216666650390636  L 45.05555556640625 37.527777783203135  L 46.355555566406245 37.95555556640625  C 46.40555556640625 37.97777778320312  46.45555556640625 38.02222221679688  46.45555556640625 38.07777778320312  C 46.45555556640625 38.150000000000006  46.40555556640625 38.18333334960937  46.37222221679687 38.19444443359376  L 45.055555566406255 38.611111132812496  L 44.62777778320313 39.92222221679687  Z " stroke-width="0" stroke-dasharray="0" stroke="rgba(255, 255, 255, 0)" fill="none" transform="matrix(1 0 0 1 155 200 )" class="stroke" mask="url(#Clip16050)" />
  </g>
</svg>