<?xml version="1.0" encoding="utf-8"?>
<svg version="1.1" xmlns:xlink="http://www.w3.org/1999/xlink" width="100px" height="107px" xmlns="http://www.w3.org/2000/svg">
  <defs>
    <linearGradient gradientUnits="userSpaceOnUse" x1="50" y1="0" x2="50" y2="107" id="LinearGradient3597">
      <stop id="Stop3598" stop-color="#000000" offset="0" />
      <stop id="Stop3599" stop-color="#333333" stop-opacity="0" offset="1" />
    </linearGradient>
    <pattern id="BGPattern" patternUnits="userSpaceOnUse" alignment="0 0" imageRepeat="None" />
    <mask fill="white" id="Clip3600">
      <path d="M 0 102  L 0 5  C 0 2.1999999999999997  2.1999999999999997 0  5 0  L 95 0  C 97.8 0  100 2.1999999999999997  100 5  L 100 102  C 100 104.8  97.8 107  95 107  L 5 107  C 2.1999999999999997 107  0 104.8  0 102  Z " fill-rule="evenodd" />
    </mask>
  </defs>
  <g transform="matrix(1 0 0 1 -15 -803 )">
    <path d="M 0 102  L 0 5  C 0 2.1999999999999997  2.1999999999999997 0  5 0  L 95 0  C 97.8 0  100 2.1999999999999997  100 5  L 100 102  C 100 104.8  97.8 107  95 107  L 5 107  C 2.1999999999999997 107  0 104.8  0 102  Z " fill-rule="nonzero" fill="url(#LinearGradient3597)" stroke="none" transform="matrix(1 0 0 1 15 803 )" class="fill" />
    <path d="M 0 102  L 0 5  C 0 2.1999999999999997  2.1999999999999997 0  5 0  L 95 0  C 97.8 0  100 2.1999999999999997  100 5  L 100 102  C 100 104.8  97.8 107  95 107  L 5 107  C 2.1999999999999997 107  0 104.8  0 102  Z " stroke-width="0" stroke-dasharray="0" stroke="rgba(121, 121, 121, 1)" fill="none" transform="matrix(1 0 0 1 15 803 )" class="stroke" mask="url(#Clip3600)" />
  </g>
</svg>