<?xml version="1.0" encoding="utf-8"?>
<svg version="1.1" xmlns:xlink="http://www.w3.org/1999/xlink" width="330px" height="60px" xmlns="http://www.w3.org/2000/svg">
  <defs>
    <linearGradient gradientUnits="userSpaceOnUse" x1="165" y1="0" x2="165" y2="60" id="LinearGradient5914">
      <stop id="Stop5915" stop-color="#333333" offset="0" />
      <stop id="Stop5916" stop-color="#333333" stop-opacity="0" offset="1" />
    </linearGradient>
    <pattern id="BGPattern" patternUnits="userSpaceOnUse" alignment="0 0" imageRepeat="None" />
    <mask fill="white" id="Clip5917">
      <path d="M 0 60  L 0 5  C 0 2.1999999999999997  2.1999999999999997 0  5 0  L 325 0  C 327.8 0  330 2.1999999999999997  330 5  L 330 60  L 0 60  Z " fill-rule="evenodd" />
    </mask>
  </defs>
  <g transform="matrix(1 0 0 1 -15 -636 )">
    <path d="M 0 60  L 0 5  C 0 2.1999999999999997  2.1999999999999997 0  5 0  L 325 0  C 327.8 0  330 2.1999999999999997  330 5  L 330 60  L 0 60  Z " fill-rule="nonzero" fill="url(#LinearGradient5914)" stroke="none" transform="matrix(1 0 0 1 15 636 )" class="fill" />
    <path d="M 0 60  L 0 5  C 0 2.1999999999999997  2.1999999999999997 0  5 0  L 325 0  C 327.8 0  330 2.1999999999999997  330 5  L 330 60  L 0 60  Z " stroke-width="0" stroke-dasharray="0" stroke="rgba(121, 121, 121, 1)" fill="none" transform="matrix(1 0 0 1 15 636 )" class="stroke" mask="url(#Clip5917)" />
  </g>
</svg>