<?xml version="1.0" encoding="utf-8"?>
<svg version="1.1" xmlns:xlink="http://www.w3.org/1999/xlink" width="330px" height="508px" xmlns="http://www.w3.org/2000/svg">
  <defs>
    <linearGradient gradientUnits="userSpaceOnUse" x1="165" y1="0" x2="165" y2="508" id="LinearGradient14657">
      <stop id="Stop14658" stop-color="#333333" offset="0" />
      <stop id="Stop14659" stop-color="#333333" stop-opacity="0" offset="1" />
    </linearGradient>
    <pattern id="BGPattern" patternUnits="userSpaceOnUse" alignment="0 0" imageRepeat="None" />
    <mask fill="white" id="Clip14660">
      <path d="M 0 503  L 0 5  C 0 2.1999999999999997  2.1999999999999997 0  5 0  L 325 0  C 327.8 0  330 2.1999999999999997  330 5  L 330 503  C 330 505.8  327.8 508  325 508  L 5 508  C 2.1999999999999997 508  0 505.8  0 503  Z " fill-rule="evenodd" />
    </mask>
  </defs>
  <g transform="matrix(1 0 0 1 -15 -290 )">
    <path d="M 0 503  L 0 5  C 0 2.1999999999999997  2.1999999999999997 0  5 0  L 325 0  C 327.8 0  330 2.1999999999999997  330 5  L 330 503  C 330 505.8  327.8 508  325 508  L 5 508  C 2.1999999999999997 508  0 505.8  0 503  Z " fill-rule="nonzero" fill="url(#LinearGradient14657)" stroke="none" transform="matrix(1 0 0 1 15 290 )" class="fill" />
    <path d="M 0 503  L 0 5  C 0 2.1999999999999997  2.1999999999999997 0  5 0  L 325 0  C 327.8 0  330 2.1999999999999997  330 5  L 330 503  C 330 505.8  327.8 508  325 508  L 5 508  C 2.1999999999999997 508  0 505.8  0 503  Z " stroke-width="0" stroke-dasharray="0" stroke="rgba(121, 121, 121, 1)" fill="none" transform="matrix(1 0 0 1 15 290 )" class="stroke" mask="url(#Clip14660)" />
  </g>
</svg>