<?xml version="1.0" encoding="utf-8"?>
<svg version="1.1" xmlns:xlink="http://www.w3.org/1999/xlink" width="330px" height="150px" xmlns="http://www.w3.org/2000/svg">
  <defs>
    <linearGradient gradientUnits="userSpaceOnUse" x1="165" y1="0" x2="165" y2="150" id="LinearGradient17786">
      <stop id="Stop17787" stop-color="#333333" offset="0" />
      <stop id="Stop17788" stop-color="#333333" stop-opacity="0" offset="1" />
    </linearGradient>
    <pattern id="BGPattern" patternUnits="userSpaceOnUse" alignment="0 0" imageRepeat="None" />
    <mask fill="white" id="Clip17789">
      <path d="M 0 145  L 0 5  C 0 2.1999999999999997  2.1999999999999997 0  5 0  L 325 0  C 327.8 0  330 2.1999999999999997  330 5  L 330 145  C 330 147.79999999999998  327.8 150  325 150  L 5 150  C 2.1999999999999997 150  0 147.79999999999998  0 145  Z " fill-rule="evenodd" />
    </mask>
  </defs>
  <g transform="matrix(1 0 0 1 -15 -200 )">
    <path d="M 0 145  L 0 5  C 0 2.1999999999999997  2.1999999999999997 0  5 0  L 325 0  C 327.8 0  330 2.1999999999999997  330 5  L 330 145  C 330 147.79999999999998  327.8 150  325 150  L 5 150  C 2.1999999999999997 150  0 147.79999999999998  0 145  Z " fill-rule="nonzero" fill="url(#LinearGradient17786)" stroke="none" transform="matrix(1 0 0 1 15 200 )" class="fill" />
    <path d="M 0 145  L 0 5  C 0 2.1999999999999997  2.1999999999999997 0  5 0  L 325 0  C 327.8 0  330 2.1999999999999997  330 5  L 330 145  C 330 147.79999999999998  327.8 150  325 150  L 5 150  C 2.1999999999999997 150  0 147.79999999999998  0 145  Z " stroke-width="0" stroke-dasharray="0" stroke="rgba(121, 121, 121, 1)" fill="none" transform="matrix(1 0 0 1 15 200 )" class="stroke" mask="url(#Clip17789)" />
  </g>
</svg>