<?xml version="1.0" encoding="utf-8"?>
<svg version="1.1" xmlns:xlink="http://www.w3.org/1999/xlink" width="106px" height="107px" xmlns="http://www.w3.org/2000/svg">
  <defs>
    <linearGradient gradientUnits="userSpaceOnUse" x1="53" y1="0" x2="53" y2="107" id="LinearGradient8778">
      <stop id="Stop8779" stop-color="#000000" offset="0" />
      <stop id="Stop8780" stop-color="#333333" stop-opacity="0" offset="1" />
    </linearGradient>
    <pattern id="BGPattern" patternUnits="userSpaceOnUse" alignment="0 0" imageRepeat="None" />
    <mask fill="white" id="Clip8781">
      <path d="M 0 102  L 0 5  C 0 2.1999999999999997  2.1999999999999997 0  5 0  L 101 0  C 103.8 0  106 2.1999999999999997  106 5  L 106 102  C 106 104.8  103.8 107  101 107  L 5 107  C 2.1999999999999997 107  0 104.8  0 102  Z " fill-rule="evenodd" />
    </mask>
  </defs>
  <g transform="matrix(1 0 0 1 -15 -391 )">
    <path d="M 0 102  L 0 5  C 0 2.1999999999999997  2.1999999999999997 0  5 0  L 101 0  C 103.8 0  106 2.1999999999999997  106 5  L 106 102  C 106 104.8  103.8 107  101 107  L 5 107  C 2.1999999999999997 107  0 104.8  0 102  Z " fill-rule="nonzero" fill="url(#LinearGradient8778)" stroke="none" transform="matrix(1 0 0 1 15 391 )" class="fill" />
    <path d="M 0 102  L 0 5  C 0 2.1999999999999997  2.1999999999999997 0  5 0  L 101 0  C 103.8 0  106 2.1999999999999997  106 5  L 106 102  C 106 104.8  103.8 107  101 107  L 5 107  C 2.1999999999999997 107  0 104.8  0 102  Z " stroke-width="0" stroke-dasharray="0" stroke="rgba(121, 121, 121, 1)" fill="none" transform="matrix(1 0 0 1 15 391 )" class="stroke" mask="url(#Clip8781)" />
  </g>
</svg>