<?xml version="1.0" encoding="utf-8"?>
<svg version="1.1" xmlns:xlink="http://www.w3.org/1999/xlink" width="40px" height="40px" xmlns="http://www.w3.org/2000/svg">
  <defs>
    <pattern id="BGPattern" patternUnits="userSpaceOnUse" alignment="0 0" imageRepeat="None" />
    <mask fill="white" id="Clip416">
      <path d="M 20 10  C 20 15.522857148437499  15.5228571484375 20  10.000000000000002 20  C 4.477142851562502 20  0 15.5228571484375  0 10  C 0 4.477142851562499  4.477142851562502 0  10.000000000000002 0  C 15.5228571484375 0  20 4.4771428515625  20 10  Z M 18.57142857421875 9.999999999999998  C 18.57142857421875 5.5290476171875  14.470952382812502 1.42857142578125  10.000000000000002 1.428571425781251  C 5.529047617187502 1.42857142578125  1.4285714257812518 5.5290476171875005  1.4285714257812518 10  C 1.4285714257812518 14.470952382812499  5.529047617187502 18.57142857421875  10.000000000000002 18.57142857421875  C 14.4709523828125 18.57142857421875  18.57142857421875 14.470952382812499  18.57142857421875 9.999999999999998  Z M 14.48142857421875 13.206190468750002  C 14.853220902551495 13.57809509176661  14.853220902551495 14.180952525420892  14.48142857421875 14.552857148437502  C 14.302954824853648 14.731634630078075  14.060710103470363 14.832096345734964  13.808095244140626 14.832096345734964  C 13.55548038481089 14.832096345734964  13.313235663427605 14.731634630078075  13.134761914062503 14.552857148437502  L 10.104285722656252 11.522857148437502  L 7.073809531250001 14.552857148437502  C 6.895189180590103 14.731540660588841  6.6528900839886 14.831929323765632  6.400238095703125 14.831929323765632  C 5.8742390540189575 14.831929323765632  5.447832580531245 14.40552285027792  5.447832580531245 13.87952380859375  C 5.447832580531245 13.626988500578122  5.548128800320416 13.384791460907907  5.726666660156251 13.206190468750002  L 8.757142851562502 10.17571427734375  L 5.726666660156251 7.1452380859375  C 5.548128804601796 6.966637095472165  5.447832587435364 6.724440059651106  5.447832587435364 6.4719047558593745  C 5.447832587435364 5.945905717988243  5.874239057831996 5.519499247591613  6.400238095703125 5.519499247591613  C 6.652890084550408 5.519499247591613  6.895189181488675 5.619887911937279  7.073809531250001 5.798571425781249  L 10.104285722656252 8.8290476171875  L 13.134761914062503 5.798571425781249  C 13.314225150825365 5.612759215518583  13.561470915174542 5.507820369254597  13.819798673714153 5.507820369254597  C 14.345784152311769 5.507820369254597  14.772179630745404 5.934215847688231  14.772179630745404 6.460201326285847  C 14.772179630745404 6.718529084825457  14.667240784481418 6.965774849174639  14.48142857421875 7.1452380859375  L 11.450952382812503 10.17571427734375  L 14.48142857421875 13.206190468750002  Z " fill-rule="evenodd" />
    </mask>
  </defs>
  <g transform="matrix(1 0 0 1 -162 -5494 )">
    <path d="M 20 10  C 20 15.522857148437499  15.5228571484375 20  10.000000000000002 20  C 4.477142851562502 20  0 15.5228571484375  0 10  C 0 4.477142851562499  4.477142851562502 0  10.000000000000002 0  C 15.5228571484375 0  20 4.4771428515625  20 10  Z M 18.57142857421875 9.999999999999998  C 18.57142857421875 5.5290476171875  14.470952382812502 1.42857142578125  10.000000000000002 1.428571425781251  C 5.529047617187502 1.42857142578125  1.4285714257812518 5.5290476171875005  1.4285714257812518 10  C 1.4285714257812518 14.470952382812499  5.529047617187502 18.57142857421875  10.000000000000002 18.57142857421875  C 14.4709523828125 18.57142857421875  18.57142857421875 14.470952382812499  18.57142857421875 9.999999999999998  Z M 14.48142857421875 13.206190468750002  C 14.853220902551495 13.57809509176661  14.853220902551495 14.180952525420892  14.48142857421875 14.552857148437502  C 14.302954824853648 14.731634630078075  14.060710103470363 14.832096345734964  13.808095244140626 14.832096345734964  C 13.55548038481089 14.832096345734964  13.313235663427605 14.731634630078075  13.134761914062503 14.552857148437502  L 10.104285722656252 11.522857148437502  L 7.073809531250001 14.552857148437502  C 6.895189180590103 14.731540660588841  6.6528900839886 14.831929323765632  6.400238095703125 14.831929323765632  C 5.8742390540189575 14.831929323765632  5.447832580531245 14.40552285027792  5.447832580531245 13.87952380859375  C 5.447832580531245 13.626988500578122  5.548128800320416 13.384791460907907  5.726666660156251 13.206190468750002  L 8.757142851562502 10.17571427734375  L 5.726666660156251 7.1452380859375  C 5.548128804601796 6.966637095472165  5.447832587435364 6.724440059651106  5.447832587435364 6.4719047558593745  C 5.447832587435364 5.945905717988243  5.874239057831996 5.519499247591613  6.400238095703125 5.519499247591613  C 6.652890084550408 5.519499247591613  6.895189181488675 5.619887911937279  7.073809531250001 5.798571425781249  L 10.104285722656252 8.8290476171875  L 13.134761914062503 5.798571425781249  C 13.314225150825365 5.612759215518583  13.561470915174542 5.507820369254597  13.819798673714153 5.507820369254597  C 14.345784152311769 5.507820369254597  14.772179630745404 5.934215847688231  14.772179630745404 6.460201326285847  C 14.772179630745404 6.718529084825457  14.667240784481418 6.965774849174639  14.48142857421875 7.1452380859375  L 11.450952382812503 10.17571427734375  L 14.48142857421875 13.206190468750002  Z " fill-rule="nonzero" fill="rgba(255, 255, 255, 1)" stroke="none" transform="matrix(1 0 0 1 172 5504 )" class="fill" />
    <path d="M 20 10  C 20 15.522857148437499  15.5228571484375 20  10.000000000000002 20  C 4.477142851562502 20  0 15.5228571484375  0 10  C 0 4.477142851562499  4.477142851562502 0  10.000000000000002 0  C 15.5228571484375 0  20 4.4771428515625  20 10  Z " stroke-width="0" stroke-dasharray="0" stroke="rgba(255, 255, 255, 0)" fill="none" transform="matrix(1 0 0 1 172 5504 )" class="stroke" mask="url(#Clip416)" />
    <path d="M 18.57142857421875 9.999999999999998  C 18.57142857421875 5.5290476171875  14.470952382812502 1.42857142578125  10.000000000000002 1.428571425781251  C 5.529047617187502 1.42857142578125  1.4285714257812518 5.5290476171875005  1.4285714257812518 10  C 1.4285714257812518 14.470952382812499  5.529047617187502 18.57142857421875  10.000000000000002 18.57142857421875  C 14.4709523828125 18.57142857421875  18.57142857421875 14.470952382812499  18.57142857421875 9.999999999999998  Z " stroke-width="0" stroke-dasharray="0" stroke="rgba(255, 255, 255, 0)" fill="none" transform="matrix(1 0 0 1 172 5504 )" class="stroke" mask="url(#Clip416)" />
    <path d="M 14.48142857421875 13.206190468750002  C 14.853220902551495 13.57809509176661  14.853220902551495 14.180952525420892  14.48142857421875 14.552857148437502  C 14.302954824853648 14.731634630078075  14.060710103470363 14.832096345734964  13.808095244140626 14.832096345734964  C 13.55548038481089 14.832096345734964  13.313235663427605 14.731634630078075  13.134761914062503 14.552857148437502  L 10.104285722656252 11.522857148437502  L 7.073809531250001 14.552857148437502  C 6.895189180590103 14.731540660588841  6.6528900839886 14.831929323765632  6.400238095703125 14.831929323765632  C 5.8742390540189575 14.831929323765632  5.447832580531245 14.40552285027792  5.447832580531245 13.87952380859375  C 5.447832580531245 13.626988500578122  5.548128800320416 13.384791460907907  5.726666660156251 13.206190468750002  L 8.757142851562502 10.17571427734375  L 5.726666660156251 7.1452380859375  C 5.548128804601796 6.966637095472165  5.447832587435364 6.724440059651106  5.447832587435364 6.4719047558593745  C 5.447832587435364 5.945905717988243  5.874239057831996 5.519499247591613  6.400238095703125 5.519499247591613  C 6.652890084550408 5.519499247591613  6.895189181488675 5.619887911937279  7.073809531250001 5.798571425781249  L 10.104285722656252 8.8290476171875  L 13.134761914062503 5.798571425781249  C 13.314225150825365 5.612759215518583  13.561470915174542 5.507820369254597  13.819798673714153 5.507820369254597  C 14.345784152311769 5.507820369254597  14.772179630745404 5.934215847688231  14.772179630745404 6.460201326285847  C 14.772179630745404 6.718529084825457  14.667240784481418 6.965774849174639  14.48142857421875 7.1452380859375  L 11.450952382812503 10.17571427734375  L 14.48142857421875 13.206190468750002  Z " stroke-width="0" stroke-dasharray="0" stroke="rgba(255, 255, 255, 0)" fill="none" transform="matrix(1 0 0 1 172 5504 )" class="stroke" mask="url(#Clip416)" />
  </g>
  <style>svg { filter: drop-shadow(0px 0px 5px rgba(0, 0, 0, 0.3137254901960784)); }</style>
</svg>