<?xml version="1.0" encoding="utf-8"?>
<svg version="1.1" xmlns:xlink="http://www.w3.org/1999/xlink" width="35px" height="35px" xmlns="http://www.w3.org/2000/svg">
  <defs>
    <linearGradient gradientUnits="userSpaceOnUse" x1="17.5" y1="0" x2="17.5" y2="35" id="LinearGradient4006">
      <stop id="Stop4007" stop-color="#000000" offset="0" />
      <stop id="Stop4008" stop-color="#333333" stop-opacity="0" offset="1" />
    </linearGradient>
    <pattern id="BGPattern" patternUnits="userSpaceOnUse" alignment="0 0" imageRepeat="None" />
    <mask fill="white" id="Clip4009">
      <path d="M 0 30.000000000000004  L 0 5  C 0 2.1999999999999997  2.1999999999999997 0  5 0  L 30.000000000000004 0  C 32.800000000000004 0  35 2.1999999999999997  35 5  L 35 30.000000000000004  C 35 32.800000000000004  32.800000000000004 35  30.000000000000004 35  L 5 35  C 2.1999999999999997 35  0 32.800000000000004  0 30.000000000000004  Z " fill-rule="evenodd" />
    </mask>
  </defs>
  <g transform="matrix(1 0 0 1 -62 -301 )">
    <path d="M 0 30.000000000000004  L 0 5  C 0 2.1999999999999997  2.1999999999999997 0  5 0  L 30.000000000000004 0  C 32.800000000000004 0  35 2.1999999999999997  35 5  L 35 30.000000000000004  C 35 32.800000000000004  32.800000000000004 35  30.000000000000004 35  L 5 35  C 2.1999999999999997 35  0 32.800000000000004  0 30.000000000000004  Z " fill-rule="nonzero" fill="url(#LinearGradient4006)" stroke="none" transform="matrix(1 0 0 1 62 301 )" class="fill" />
    <path d="M 0 30.000000000000004  L 0 5  C 0 2.1999999999999997  2.1999999999999997 0  5 0  L 30.000000000000004 0  C 32.800000000000004 0  35 2.1999999999999997  35 5  L 35 30.000000000000004  C 35 32.800000000000004  32.800000000000004 35  30.000000000000004 35  L 5 35  C 2.1999999999999997 35  0 32.800000000000004  0 30.000000000000004  Z " stroke-width="0" stroke-dasharray="0" stroke="rgba(121, 121, 121, 1)" fill="none" transform="matrix(1 0 0 1 62 301 )" class="stroke" mask="url(#Clip4009)" />
  </g>
</svg>