<?xml version="1.0" encoding="utf-8"?>
<svg version="1.1" xmlns:xlink="http://www.w3.org/1999/xlink" width="75px" height="35px" xmlns="http://www.w3.org/2000/svg">
  <defs>
    <pattern id="BGPattern" patternUnits="userSpaceOnUse" alignment="0 0" imageRepeat="None" />
    <mask fill="white" id="Clip8202">
      <path d="M 0 30  L 0 5  C 0 2.2000000000000455  2.2000000000000455 0  5 0  L 75 0  L 65 35  L 5 35  C 2.2000000000000455 35  0 32.799999999999955  0 30  Z " fill-rule="evenodd" />
    </mask>
  </defs>
  <g transform="matrix(1 0 0 1 -72 -83 )">
    <path d="M 0 30  L 0 5  C 0 2.2000000000000455  2.2000000000000455 0  5 0  L 75 0  L 65 35  L 5 35  C 2.2000000000000455 35  0 32.799999999999955  0 30  Z " fill-rule="nonzero" fill="rgba(255, 255, 255, 0.8)" stroke="none" transform="matrix(1 0 0 1 72 83 )" class="fill" />
    <path d="M 0 30  L 0 5  C 0 2.2000000000000455  2.2000000000000455 0  5 0  L 75 0  L 65 35  L 5 35  C 2.2000000000000455 35  0 32.799999999999955  0 30  Z " stroke-width="0" stroke-dasharray="0" stroke="rgba(121, 121, 121, 1)" fill="none" transform="matrix(1 0 0 1 72 83 )" class="stroke" mask="url(#Clip8202)" />
  </g>
</svg>