<?xml version="1.0" encoding="utf-8"?>
<svg version="1.1" xmlns:xlink="http://www.w3.org/1999/xlink" width="16px" height="16px" xmlns="http://www.w3.org/2000/svg">
  <defs>
    <pattern id="BGPattern" patternUnits="userSpaceOnUse" alignment="0 0" imageRepeat="None" />
    <mask fill="white" id="Clip3469">
      <path d="M 14.419713525161617 2.521039109958364  C 12.739585752313348 0.6446435055627598  9.939356572442643 0.7116707391986891  8.197005450627456 2.4540293495324548  C 6.45463810368868 0.711688212408709  3.654425148941564 0.6446609787727796  1.9742973760932934 2.521039109958364  C -1.9460007605526697 6.809908402156849  3.9033347699328167 13.243247286874615  7.699169983521356 15.722748208313426  C 7.885856255545694 15.789757968739336  8.010302953479526 15.856785202375265  8.196989225503865 15.856785202375265  C 8.383675497528202 15.856785202375265  8.508122195462034 15.789775441949356  8.632585118519456 15.722748208313426  C 12.490676131322092 13.243247286874615  18.34001166180758 6.8099258753668686  14.419697300038024 2.521039109958365  Z M 10.686069210292812 3.7272846904648143  C 10.686069210292812 3.3922184151252472  10.934962606160477 3.258181421063408  11.18388845227532 3.1911716606374987  C 12.490659906198504 3.0571346665756605  13.548505514006846 4.26338024708211  13.735191786031184 5.46964330079858  C 13.7974151349981 5.804709576138148  13.61072886297376 6.005756330625896  13.361819241982506 6.072766091051805  C 13.17513296995817 6.072766091051805  12.926223348966916 5.9387290969899675  12.864 5.670672582076309  C 12.552867030041828 4.799493276909426  12.055047788059323 4.1963704866562015  11.121632653061225 4.1963704866562015  C 10.87273925719356 4.1963704866562015  10.686036760045635 3.928331444952563  10.686036760045635 3.7272672172547945  Z " fill-rule="evenodd" />
    </mask>
  </defs>
  <g transform="matrix(1 0 0 1 -218 -646 )">
    <path d="M 14.419713525161617 2.521039109958364  C 12.739585752313348 0.6446435055627598  9.939356572442643 0.7116707391986891  8.197005450627456 2.4540293495324548  C 6.45463810368868 0.711688212408709  3.654425148941564 0.6446609787727796  1.9742973760932934 2.521039109958364  C -1.9460007605526697 6.809908402156849  3.9033347699328167 13.243247286874615  7.699169983521356 15.722748208313426  C 7.885856255545694 15.789757968739336  8.010302953479526 15.856785202375265  8.196989225503865 15.856785202375265  C 8.383675497528202 15.856785202375265  8.508122195462034 15.789775441949356  8.632585118519456 15.722748208313426  C 12.490676131322092 13.243247286874615  18.34001166180758 6.8099258753668686  14.419697300038024 2.521039109958365  Z M 10.686069210292812 3.7272846904648143  C 10.686069210292812 3.3922184151252472  10.934962606160477 3.258181421063408  11.18388845227532 3.1911716606374987  C 12.490659906198504 3.0571346665756605  13.548505514006846 4.26338024708211  13.735191786031184 5.46964330079858  C 13.7974151349981 5.804709576138148  13.61072886297376 6.005756330625896  13.361819241982506 6.072766091051805  C 13.17513296995817 6.072766091051805  12.926223348966916 5.9387290969899675  12.864 5.670672582076309  C 12.552867030041828 4.799493276909426  12.055047788059323 4.1963704866562015  11.121632653061225 4.1963704866562015  C 10.87273925719356 4.1963704866562015  10.686036760045635 3.928331444952563  10.686036760045635 3.7272672172547945  Z " fill-rule="nonzero" fill="rgba(51, 51, 51, 0.4980392156862745)" stroke="none" transform="matrix(1 0 0 1 218 646 )" class="fill" />
    <path d="M 14.419713525161617 2.521039109958364  C 12.739585752313348 0.6446435055627598  9.939356572442643 0.7116707391986891  8.197005450627456 2.4540293495324548  C 6.45463810368868 0.711688212408709  3.654425148941564 0.6446609787727796  1.9742973760932934 2.521039109958364  C -1.9460007605526697 6.809908402156849  3.9033347699328167 13.243247286874615  7.699169983521356 15.722748208313426  C 7.885856255545694 15.789757968739336  8.010302953479526 15.856785202375265  8.196989225503865 15.856785202375265  C 8.383675497528202 15.856785202375265  8.508122195462034 15.789775441949356  8.632585118519456 15.722748208313426  C 12.490676131322092 13.243247286874615  18.34001166180758 6.8099258753668686  14.419697300038024 2.521039109958365  Z " stroke-width="0" stroke-dasharray="0" stroke="rgba(255, 255, 255, 0)" fill="none" transform="matrix(1 0 0 1 218 646 )" class="stroke" mask="url(#Clip3469)" />
    <path d="M 10.686069210292812 3.7272846904648143  C 10.686069210292812 3.3922184151252472  10.934962606160477 3.258181421063408  11.18388845227532 3.1911716606374987  C 12.490659906198504 3.0571346665756605  13.548505514006846 4.26338024708211  13.735191786031184 5.46964330079858  C 13.7974151349981 5.804709576138148  13.61072886297376 6.005756330625896  13.361819241982506 6.072766091051805  C 13.17513296995817 6.072766091051805  12.926223348966916 5.9387290969899675  12.864 5.670672582076309  C 12.552867030041828 4.799493276909426  12.055047788059323 4.1963704866562015  11.121632653061225 4.1963704866562015  C 10.87273925719356 4.1963704866562015  10.686036760045635 3.928331444952563  10.686036760045635 3.7272672172547945  Z " stroke-width="0" stroke-dasharray="0" stroke="rgba(255, 255, 255, 0)" fill="none" transform="matrix(1 0 0 1 218 646 )" class="stroke" mask="url(#Clip3469)" />
  </g>
</svg>