<?xml version="1.0" encoding="utf-8"?>
<svg version="1.1" xmlns:xlink="http://www.w3.org/1999/xlink" width="47px" height="4px" xmlns="http://www.w3.org/2000/svg">
  <defs>
    <linearGradient gradientUnits="userSpaceOnUse" x1="47" y1="0" x2="0" y2="4" id="LinearGradient10971">
      <stop id="Stop10972" stop-color="#d7b685" offset="0" />
      <stop id="Stop10973" stop-color="#fae4c5" offset="0.53" />
      <stop id="Stop10974" stop-color="#e4c79f" offset="1" />
    </linearGradient>
    <pattern id="BGPattern" patternUnits="userSpaceOnUse" alignment="0 0" imageRepeat="None" />
    <mask fill="white" id="Clip10975">
      <path d="M 2 4  C 0.8799999999999999 4  0 3.12  0 2  C 0 0.8799999999999999  0.8799999999999999 0  2 0  L 45 0  C 46.12 0  47 0.8799999999999999  47 2  C 47 3.12  46.12 4  45 4  L 2 4  Z " fill-rule="evenodd" />
    </mask>
  </defs>
  <g transform="matrix(1 0 0 1 -35 -128 )">
    <path d="M 2 4  C 0.8799999999999999 4  0 3.12  0 2  C 0 0.8799999999999999  0.8799999999999999 0  2 0  L 45 0  C 46.12 0  47 0.8799999999999999  47 2  C 47 3.12  46.12 4  45 4  L 2 4  Z " fill-rule="nonzero" fill="url(#LinearGradient10971)" stroke="none" transform="matrix(1 0 0 1 35 128 )" class="fill" />
    <path d="M 2 4  C 0.8799999999999999 4  0 3.12  0 2  C 0 0.8799999999999999  0.8799999999999999 0  2 0  L 45 0  C 46.12 0  47 0.8799999999999999  47 2  C 47 3.12  46.12 4  45 4  L 2 4  Z " stroke-width="0" stroke-dasharray="0" stroke="rgba(121, 121, 121, 1)" fill="none" transform="matrix(1 0 0 1 35 128 )" class="stroke" mask="url(#Clip10975)" />
  </g>
</svg>