<?xml version="1.0" encoding="utf-8"?>
<svg version="1.1" xmlns:xlink="http://www.w3.org/1999/xlink" width="29px" height="28px" xmlns="http://www.w3.org/2000/svg">
  <defs>
    <pattern id="BGPattern" patternUnits="userSpaceOnUse" alignment="0 0" imageRepeat="None" />
    <mask fill="white" id="Clip9528">
      <path d="M 0.8964843750000004 14.046874999999998  C 0.8964843750000004 21.559889223772416  6.9869857762275895 27.650390625  14.500000000000004 27.650390625  C 22.01301422377242 27.650390625  28.103515625000004 21.559889223772416  28.103515625000004 14.046874999999998  C 28.103515625000004 6.533860776227584  22.01301422377242 0.443359375  14.500000000000004 0.443359375  C 6.986985776227588 0.443359375  0.8964843750000036 6.533860776227584  0.8964843750000036 14.046874999999998  Z " fill-rule="evenodd" />
    </mask>
  </defs>
  <g transform="matrix(1 0 0 1 -35 -215 )">
    <path d="M 0.8964843750000004 14.046874999999998  C 0.8964843750000004 21.559889223772416  6.9869857762275895 27.650390625  14.500000000000004 27.650390625  C 22.01301422377242 27.650390625  28.103515625000004 21.559889223772416  28.103515625000004 14.046874999999998  C 28.103515625000004 6.533860776227584  22.01301422377242 0.443359375  14.500000000000004 0.443359375  C 6.986985776227588 0.443359375  0.8964843750000036 6.533860776227584  0.8964843750000036 14.046874999999998  Z " fill-rule="nonzero" fill="rgba(242, 129, 78, 1)" stroke="none" transform="matrix(1 0 0 1 35 215 )" class="fill" />
    <path d="M 0.8964843750000004 14.046874999999998  C 0.8964843750000004 21.559889223772416  6.9869857762275895 27.650390625  14.500000000000004 27.650390625  C 22.01301422377242 27.650390625  28.103515625000004 21.559889223772416  28.103515625000004 14.046874999999998  C 28.103515625000004 6.533860776227584  22.01301422377242 0.443359375  14.500000000000004 0.443359375  C 6.986985776227588 0.443359375  0.8964843750000036 6.533860776227584  0.8964843750000036 14.046874999999998  Z " stroke-width="0" stroke-dasharray="0" stroke="rgba(255, 255, 255, 0)" fill="none" transform="matrix(1 0 0 1 35 215 )" class="stroke" mask="url(#Clip9528)" />
  </g>
</svg>