<?xml version="1.0" encoding="utf-8"?>
<svg version="1.1" xmlns:xlink="http://www.w3.org/1999/xlink" width="22px" height="8px" xmlns="http://www.w3.org/2000/svg">
  <defs>
    <pattern id="BGPattern" patternUnits="userSpaceOnUse" alignment="0 0" imageRepeat="None" />
    <mask fill="white" id="Clip8811">
      <path d="M 22 4.405045454545455  C 22 6.02509090909091  20.625 7.343272727272728  18.935125000000003 7.343272727272728  C 17.899942941061003 7.341820777699592  17.061139533606465 6.537678668073749  17.059625 5.545272727272726  L 17.059625 1.965090909090909  C 17.059625 0.9738181818181821  17.901125 0.16709090909090982  18.935125 0.16709090909090982  C 20.62695785732078 0.1678175764710142  21.998482830762587 1.4820780807036817  22 3.1040000000000005  L 22 4.405045454545455  Z M 20.625 3.103999999999999  C 20.623484141038933 2.210089682995839  19.86756685911025 1.4859983033471478  18.935125 1.4852727272727266  C 18.65901999389525 1.4859969329992437  18.435380421490592 1.7003952007590781  18.434625 1.9650909090909077  L 18.434625 5.545272727272726  C 18.434625 5.810227272727275  18.65875 6.02509090909091  18.935125 6.02509090909091  C 19.868102949940898 6.024364029298133  20.624241789181674 5.299470596637561  20.625 4.405045454545455  L 20.625 3.103999999999999  Z M 4.9403749999999995 5.543954545454545  C 4.9403749999999995 6.536545454545453  4.098875 7.343272727272725  3.0648750000000002 7.343272727272725  C 1.375 7.343272727272725  0 6.025090909090907  0 4.405045454545455  L 0 3.1040000000000005  C 0 1.483954545454545  1.375 0.16577272727272688  3.0648750000000002 0.16577272727272688  C 4.098875 0.16577272727272688  4.9403749999999995 0.9725000000000005  4.9403749999999995 1.9637727272727274  L 4.9403749999999995 5.543954545454545  Z M 3.5653749999999995 1.965090909090909  C 3.5646195785094092 1.7003952007590781  3.3409800061047537 1.4859969329992437  3.0648750000000002 1.4852727272727255  C 2.1324331408897503 1.4859983033471424  1.3765158589610635 2.210089682995839  1.375 3.1040000000000005  L 1.375 4.405045454545455  C 1.3757582108183257 5.299470596637563  2.1318970500590955 6.024364029298136  3.0648750000000002 6.02509090909091  C 3.3412935172903127 6.02509090909091  3.565375 5.81026899178245  3.565375 5.545272727272726  L 3.5653749999999995 1.965090909090909  Z " fill-rule="evenodd" />
    </mask>
  </defs>
  <g transform="matrix(1 0 0 1 -284 -374 )">
    <path d="M 22 4.405045454545455  C 22 6.02509090909091  20.625 7.343272727272728  18.935125000000003 7.343272727272728  C 17.899942941061003 7.341820777699592  17.061139533606465 6.537678668073749  17.059625 5.545272727272726  L 17.059625 1.965090909090909  C 17.059625 0.9738181818181821  17.901125 0.16709090909090982  18.935125 0.16709090909090982  C 20.62695785732078 0.1678175764710142  21.998482830762587 1.4820780807036817  22 3.1040000000000005  L 22 4.405045454545455  Z M 20.625 3.103999999999999  C 20.623484141038933 2.210089682995839  19.86756685911025 1.4859983033471478  18.935125 1.4852727272727266  C 18.65901999389525 1.4859969329992437  18.435380421490592 1.7003952007590781  18.434625 1.9650909090909077  L 18.434625 5.545272727272726  C 18.434625 5.810227272727275  18.65875 6.02509090909091  18.935125 6.02509090909091  C 19.868102949940898 6.024364029298133  20.624241789181674 5.299470596637561  20.625 4.405045454545455  L 20.625 3.103999999999999  Z M 4.9403749999999995 5.543954545454545  C 4.9403749999999995 6.536545454545453  4.098875 7.343272727272725  3.0648750000000002 7.343272727272725  C 1.375 7.343272727272725  0 6.025090909090907  0 4.405045454545455  L 0 3.1040000000000005  C 0 1.483954545454545  1.375 0.16577272727272688  3.0648750000000002 0.16577272727272688  C 4.098875 0.16577272727272688  4.9403749999999995 0.9725000000000005  4.9403749999999995 1.9637727272727274  L 4.9403749999999995 5.543954545454545  Z M 3.5653749999999995 1.965090909090909  C 3.5646195785094092 1.7003952007590781  3.3409800061047537 1.4859969329992437  3.0648750000000002 1.4852727272727255  C 2.1324331408897503 1.4859983033471424  1.3765158589610635 2.210089682995839  1.375 3.1040000000000005  L 1.375 4.405045454545455  C 1.3757582108183257 5.299470596637563  2.1318970500590955 6.024364029298136  3.0648750000000002 6.02509090909091  C 3.3412935172903127 6.02509090909091  3.565375 5.81026899178245  3.565375 5.545272727272726  L 3.5653749999999995 1.965090909090909  Z " fill-rule="nonzero" fill="rgba(85, 85, 85, 1)" stroke="none" transform="matrix(1 0 0 1 284 374 )" class="fill" />
    <path d="M 22 4.405045454545455  C 22 6.02509090909091  20.625 7.343272727272728  18.935125000000003 7.343272727272728  C 17.899942941061003 7.341820777699592  17.061139533606465 6.537678668073749  17.059625 5.545272727272726  L 17.059625 1.965090909090909  C 17.059625 0.9738181818181821  17.901125 0.16709090909090982  18.935125 0.16709090909090982  C 20.62695785732078 0.1678175764710142  21.998482830762587 1.4820780807036817  22 3.1040000000000005  L 22 4.405045454545455  Z " stroke-width="0" stroke-dasharray="0" stroke="rgba(255, 255, 255, 0)" fill="none" transform="matrix(1 0 0 1 284 374 )" class="stroke" mask="url(#Clip8811)" />
    <path d="M 20.625 3.103999999999999  C 20.623484141038933 2.210089682995839  19.86756685911025 1.4859983033471478  18.935125 1.4852727272727266  C 18.65901999389525 1.4859969329992437  18.435380421490592 1.7003952007590781  18.434625 1.9650909090909077  L 18.434625 5.545272727272726  C 18.434625 5.810227272727275  18.65875 6.02509090909091  18.935125 6.02509090909091  C 19.868102949940898 6.024364029298133  20.624241789181674 5.299470596637561  20.625 4.405045454545455  L 20.625 3.103999999999999  Z " stroke-width="0" stroke-dasharray="0" stroke="rgba(255, 255, 255, 0)" fill="none" transform="matrix(1 0 0 1 284 374 )" class="stroke" mask="url(#Clip8811)" />
    <path d="M 4.9403749999999995 5.543954545454545  C 4.9403749999999995 6.536545454545453  4.098875 7.343272727272725  3.0648750000000002 7.343272727272725  C 1.375 7.343272727272725  0 6.025090909090907  0 4.405045454545455  L 0 3.1040000000000005  C 0 1.483954545454545  1.375 0.16577272727272688  3.0648750000000002 0.16577272727272688  C 4.098875 0.16577272727272688  4.9403749999999995 0.9725000000000005  4.9403749999999995 1.9637727272727274  L 4.9403749999999995 5.543954545454545  Z " stroke-width="0" stroke-dasharray="0" stroke="rgba(255, 255, 255, 0)" fill="none" transform="matrix(1 0 0 1 284 374 )" class="stroke" mask="url(#Clip8811)" />
    <path d="M 3.5653749999999995 1.965090909090909  C 3.5646195785094092 1.7003952007590781  3.3409800061047537 1.4859969329992437  3.0648750000000002 1.4852727272727255  C 2.1324331408897503 1.4859983033471424  1.3765158589610635 2.210089682995839  1.375 3.1040000000000005  L 1.375 4.405045454545455  C 1.3757582108183257 5.299470596637563  2.1318970500590955 6.024364029298136  3.0648750000000002 6.02509090909091  C 3.3412935172903127 6.02509090909091  3.565375 5.81026899178245  3.565375 5.545272727272726  L 3.5653749999999995 1.965090909090909  Z " stroke-width="0" stroke-dasharray="0" stroke="rgba(255, 255, 255, 0)" fill="none" transform="matrix(1 0 0 1 284 374 )" class="stroke" mask="url(#Clip8811)" />
  </g>
</svg>