<?xml version="1.0" encoding="utf-8"?>
<svg version="1.1" xmlns:xlink="http://www.w3.org/1999/xlink" width="15px" height="13px" xmlns="http://www.w3.org/2000/svg">
  <defs>
    <pattern id="BGPattern" patternUnits="userSpaceOnUse" alignment="0 0" imageRepeat="None" />
    <mask fill="white" id="Clip297">
      <path d="M 3.4825403474506573 3.297598693847656  L 3.4825403474506573 0.22915832519531246  L 4.2537844366776305 0.22915832519531246  L 4.2537844366776305 3.297598693847656  L 3.4825403474506573 3.297598693847656  Z M 6.963054584703946 3.297598693847656  L 6.963054584703946 0.22915832519531246  L 7.734253957648026 0.22915832519531246  L 7.734253957648026 3.297598693847656  L 6.963054584703946 3.297598693847656  Z M 10.40710269325658 3.297598693847656  L 10.40710269325658 0.22915832519531246  L 11.178302066200661 0.22915832519531246  L 11.178302066200661 3.297598693847656  L 10.40710269325658 3.297598693847656  Z M 13.876750873766447 3.297598693847656  L 13.876750873766447 0.22915832519531246  L 14.64795024671053 0.22915832519531246  L 14.64795024671053 3.297598693847656  L 13.876750873766447 3.297598693847656  Z M 5.292610762746709 6.264218688964843  L 5.189964535361842 6.9591513671875  L 2.2981401624177633 6.983036010742187  L 2.045470805921053 8.693664306640624  L 4.5725444592927635 8.67277099609375  L 4.47385562294408 9.34098876953125  L 1.9467596114309202 9.361882080078125  L 1.591444027549342 11.767489074707031  L 0.7577760074013153 11.774369140624998  L 1.5671183696546047 6.294983398437498  L 5.292610762746709 6.264218688964843  Z M 9.39224429481908 7.7520386962890635  L 8.81187165912829 11.681131591796875  L 8.030320466694079 11.687574462890623  L 8.129009303042764 11.019356689453128  C 7.777338096217106 11.5203359375  7.313764391447368 11.782330688476563  6.737952816611842 11.805064819335938  C 5.7825670744243425 11.812934326171876  5.381372584292762 11.300265869140626  5.534056332236841 10.266622253417967  L 5.901221731085526 7.780847534179687  L 6.682795281661185 7.774381652832031  L 6.327479697779605 10.179988647460938  C 6.224833470394737 10.874921325683593  6.477167454769736 11.2199140625  7.085308902138158 11.214897827148436  C 7.718469109786184 11.156267700195311  8.113716334292764 10.770500793457032  8.271117650082237 10.057159912109375  L 8.61067074424342 7.758504577636719  L 9.39224429481908 7.7520386962890635  Z M 13.652185701069081 9.211786193847658  L 13.288977693256578 11.670869018554686  L 12.507404142680922 11.677311889648438  L 12.854849660773024 9.325180725097656  C 12.960111790707234 8.61269122314453  12.71582673725329 8.267675476074219  12.123022974917761 8.290110473632813  C 11.509560289884869 8.33104571533203  11.108410516036185 8.698933654785154  10.91908177425987 9.394602661132813  L 10.579528680098687 11.693257995605471  L 9.797932771381582 11.69970086669922  L 10.382285156250001 7.7438470458984385  L 11.163881064967104 7.737381164550781  L 11.061234837582235 8.432336853027344  C 11.447494089226973 7.9311044921875  11.929870990953948 7.660181762695312  12.508320826480263 7.619499633789063  C 13.448793688322366 7.594211364746095  13.829821134868418 8.124988891601562  13.652185701069081 9.211786193847658  Z M 5.927917351973683 6.305291992187501  L 5.927917351973683 5.819200378417969  L 7.5613584498355255 5.819200378417969  L 7.5613584498355255 6.305291992187501  L 5.927917351973683 6.305291992187501  Z M 2.7791308593750004 12.460834045410156  L 2.7791308593749995 11.974765441894531  L 4.412571957236843 11.974765441894531  L 4.412571957236843 12.460834045410156  L 2.7791308593750004 12.460834045410156  Z M 9.204614771792766 6.305291992187501  L 9.204614771792766 5.819200378417969  L 10.838055869654607 5.819200378417969  L 10.838055869654607 6.305291992187501  L 9.204614771792766 6.305291992187501  Z M 12.628920641447369 6.305291992187501  L 12.628920641447369 5.819200378417969  L 14.26236173930921 5.819200378417969  L 14.26236173930921 6.305291992187501  L 12.628920641447369 6.305291992187501  Z " fill-rule="evenodd" />
    </mask>
  </defs>
  <g transform="matrix(1 0 0 1 -62 -440 )">
    <path d="M 3.4825403474506573 3.297598693847656  L 3.4825403474506573 0.22915832519531246  L 4.2537844366776305 0.22915832519531246  L 4.2537844366776305 3.297598693847656  L 3.4825403474506573 3.297598693847656  Z M 6.963054584703946 3.297598693847656  L 6.963054584703946 0.22915832519531246  L 7.734253957648026 0.22915832519531246  L 7.734253957648026 3.297598693847656  L 6.963054584703946 3.297598693847656  Z M 10.40710269325658 3.297598693847656  L 10.40710269325658 0.22915832519531246  L 11.178302066200661 0.22915832519531246  L 11.178302066200661 3.297598693847656  L 10.40710269325658 3.297598693847656  Z M 13.876750873766447 3.297598693847656  L 13.876750873766447 0.22915832519531246  L 14.64795024671053 0.22915832519531246  L 14.64795024671053 3.297598693847656  L 13.876750873766447 3.297598693847656  Z M 5.292610762746709 6.264218688964843  L 5.189964535361842 6.9591513671875  L 2.2981401624177633 6.983036010742187  L 2.045470805921053 8.693664306640624  L 4.5725444592927635 8.67277099609375  L 4.47385562294408 9.34098876953125  L 1.9467596114309202 9.361882080078125  L 1.591444027549342 11.767489074707031  L 0.7577760074013153 11.774369140624998  L 1.5671183696546047 6.294983398437498  L 5.292610762746709 6.264218688964843  Z M 9.39224429481908 7.7520386962890635  L 8.81187165912829 11.681131591796875  L 8.030320466694079 11.687574462890623  L 8.129009303042764 11.019356689453128  C 7.777338096217106 11.5203359375  7.313764391447368 11.782330688476563  6.737952816611842 11.805064819335938  C 5.7825670744243425 11.812934326171876  5.381372584292762 11.300265869140626  5.534056332236841 10.266622253417967  L 5.901221731085526 7.780847534179687  L 6.682795281661185 7.774381652832031  L 6.327479697779605 10.179988647460938  C 6.224833470394737 10.874921325683593  6.477167454769736 11.2199140625  7.085308902138158 11.214897827148436  C 7.718469109786184 11.156267700195311  8.113716334292764 10.770500793457032  8.271117650082237 10.057159912109375  L 8.61067074424342 7.758504577636719  L 9.39224429481908 7.7520386962890635  Z M 13.652185701069081 9.211786193847658  L 13.288977693256578 11.670869018554686  L 12.507404142680922 11.677311889648438  L 12.854849660773024 9.325180725097656  C 12.960111790707234 8.61269122314453  12.71582673725329 8.267675476074219  12.123022974917761 8.290110473632813  C 11.509560289884869 8.33104571533203  11.108410516036185 8.698933654785154  10.91908177425987 9.394602661132813  L 10.579528680098687 11.693257995605471  L 9.797932771381582 11.69970086669922  L 10.382285156250001 7.7438470458984385  L 11.163881064967104 7.737381164550781  L 11.061234837582235 8.432336853027344  C 11.447494089226973 7.9311044921875  11.929870990953948 7.660181762695312  12.508320826480263 7.619499633789063  C 13.448793688322366 7.594211364746095  13.829821134868418 8.124988891601562  13.652185701069081 9.211786193847658  Z M 5.927917351973683 6.305291992187501  L 5.927917351973683 5.819200378417969  L 7.5613584498355255 5.819200378417969  L 7.5613584498355255 6.305291992187501  L 5.927917351973683 6.305291992187501  Z M 2.7791308593750004 12.460834045410156  L 2.7791308593749995 11.974765441894531  L 4.412571957236843 11.974765441894531  L 4.412571957236843 12.460834045410156  L 2.7791308593750004 12.460834045410156  Z M 9.204614771792766 6.305291992187501  L 9.204614771792766 5.819200378417969  L 10.838055869654607 5.819200378417969  L 10.838055869654607 6.305291992187501  L 9.204614771792766 6.305291992187501  Z M 12.628920641447369 6.305291992187501  L 12.628920641447369 5.819200378417969  L 14.26236173930921 5.819200378417969  L 14.26236173930921 6.305291992187501  L 12.628920641447369 6.305291992187501  Z " fill-rule="nonzero" fill="rgba(85, 85, 85, 1)" stroke="none" transform="matrix(1 0 0 1 62 440 )" class="fill" />
    <path d="M 3.4825403474506573 3.297598693847656  L 3.4825403474506573 0.22915832519531246  L 4.2537844366776305 0.22915832519531246  L 4.2537844366776305 3.297598693847656  L 3.4825403474506573 3.297598693847656  Z " stroke-width="0" stroke-dasharray="0" stroke="rgba(255, 255, 255, 0)" fill="none" transform="matrix(1 0 0 1 62 440 )" class="stroke" mask="url(#Clip297)" />
    <path d="M 6.963054584703946 3.297598693847656  L 6.963054584703946 0.22915832519531246  L 7.734253957648026 0.22915832519531246  L 7.734253957648026 3.297598693847656  L 6.963054584703946 3.297598693847656  Z " stroke-width="0" stroke-dasharray="0" stroke="rgba(255, 255, 255, 0)" fill="none" transform="matrix(1 0 0 1 62 440 )" class="stroke" mask="url(#Clip297)" />
    <path d="M 10.40710269325658 3.297598693847656  L 10.40710269325658 0.22915832519531246  L 11.178302066200661 0.22915832519531246  L 11.178302066200661 3.297598693847656  L 10.40710269325658 3.297598693847656  Z " stroke-width="0" stroke-dasharray="0" stroke="rgba(255, 255, 255, 0)" fill="none" transform="matrix(1 0 0 1 62 440 )" class="stroke" mask="url(#Clip297)" />
    <path d="M 13.876750873766447 3.297598693847656  L 13.876750873766447 0.22915832519531246  L 14.64795024671053 0.22915832519531246  L 14.64795024671053 3.297598693847656  L 13.876750873766447 3.297598693847656  Z " stroke-width="0" stroke-dasharray="0" stroke="rgba(255, 255, 255, 0)" fill="none" transform="matrix(1 0 0 1 62 440 )" class="stroke" mask="url(#Clip297)" />
    <path d="M 5.292610762746709 6.264218688964843  L 5.189964535361842 6.9591513671875  L 2.2981401624177633 6.983036010742187  L 2.045470805921053 8.693664306640624  L 4.5725444592927635 8.67277099609375  L 4.47385562294408 9.34098876953125  L 1.9467596114309202 9.361882080078125  L 1.591444027549342 11.767489074707031  L 0.7577760074013153 11.774369140624998  L 1.5671183696546047 6.294983398437498  L 5.292610762746709 6.264218688964843  Z " stroke-width="0" stroke-dasharray="0" stroke="rgba(255, 255, 255, 0)" fill="none" transform="matrix(1 0 0 1 62 440 )" class="stroke" mask="url(#Clip297)" />
    <path d="M 9.39224429481908 7.7520386962890635  L 8.81187165912829 11.681131591796875  L 8.030320466694079 11.687574462890623  L 8.129009303042764 11.019356689453128  C 7.777338096217106 11.5203359375  7.313764391447368 11.782330688476563  6.737952816611842 11.805064819335938  C 5.7825670744243425 11.812934326171876  5.381372584292762 11.300265869140626  5.534056332236841 10.266622253417967  L 5.901221731085526 7.780847534179687  L 6.682795281661185 7.774381652832031  L 6.327479697779605 10.179988647460938  C 6.224833470394737 10.874921325683593  6.477167454769736 11.2199140625  7.085308902138158 11.214897827148436  C 7.718469109786184 11.156267700195311  8.113716334292764 10.770500793457032  8.271117650082237 10.057159912109375  L 8.61067074424342 7.758504577636719  L 9.39224429481908 7.7520386962890635  Z " stroke-width="0" stroke-dasharray="0" stroke="rgba(255, 255, 255, 0)" fill="none" transform="matrix(1 0 0 1 62 440 )" class="stroke" mask="url(#Clip297)" />
    <path d="M 13.652185701069081 9.211786193847658  L 13.288977693256578 11.670869018554686  L 12.507404142680922 11.677311889648438  L 12.854849660773024 9.325180725097656  C 12.960111790707234 8.61269122314453  12.71582673725329 8.267675476074219  12.123022974917761 8.290110473632813  C 11.509560289884869 8.33104571533203  11.108410516036185 8.698933654785154  10.91908177425987 9.394602661132813  L 10.579528680098687 11.693257995605471  L 9.797932771381582 11.69970086669922  L 10.382285156250001 7.7438470458984385  L 11.163881064967104 7.737381164550781  L 11.061234837582235 8.432336853027344  C 11.447494089226973 7.9311044921875  11.929870990953948 7.660181762695312  12.508320826480263 7.619499633789063  C 13.448793688322366 7.594211364746095  13.829821134868418 8.124988891601562  13.652185701069081 9.211786193847658  Z " stroke-width="0" stroke-dasharray="0" stroke="rgba(255, 255, 255, 0)" fill="none" transform="matrix(1 0 0 1 62 440 )" class="stroke" mask="url(#Clip297)" />
    <path d="M 5.927917351973683 6.305291992187501  L 5.927917351973683 5.819200378417969  L 7.5613584498355255 5.819200378417969  L 7.5613584498355255 6.305291992187501  L 5.927917351973683 6.305291992187501  Z " stroke-width="0" stroke-dasharray="0" stroke="rgba(255, 255, 255, 0)" fill="none" transform="matrix(1 0 0 1 62 440 )" class="stroke" mask="url(#Clip297)" />
    <path d="M 2.7791308593750004 12.460834045410156  L 2.7791308593749995 11.974765441894531  L 4.412571957236843 11.974765441894531  L 4.412571957236843 12.460834045410156  L 2.7791308593750004 12.460834045410156  Z " stroke-width="0" stroke-dasharray="0" stroke="rgba(255, 255, 255, 0)" fill="none" transform="matrix(1 0 0 1 62 440 )" class="stroke" mask="url(#Clip297)" />
    <path d="M 9.204614771792766 6.305291992187501  L 9.204614771792766 5.819200378417969  L 10.838055869654607 5.819200378417969  L 10.838055869654607 6.305291992187501  L 9.204614771792766 6.305291992187501  Z " stroke-width="0" stroke-dasharray="0" stroke="rgba(255, 255, 255, 0)" fill="none" transform="matrix(1 0 0 1 62 440 )" class="stroke" mask="url(#Clip297)" />
    <path d="M 12.628920641447369 6.305291992187501  L 12.628920641447369 5.819200378417969  L 14.26236173930921 5.819200378417969  L 14.26236173930921 6.305291992187501  L 12.628920641447369 6.305291992187501  Z " stroke-width="0" stroke-dasharray="0" stroke="rgba(255, 255, 255, 0)" fill="none" transform="matrix(1 0 0 1 62 440 )" class="stroke" mask="url(#Clip297)" />
  </g>
</svg>