<?xml version="1.0" encoding="utf-8"?>
<svg version="1.1" xmlns:xlink="http://www.w3.org/1999/xlink" width="20px" height="22px" xmlns="http://www.w3.org/2000/svg">
  <defs>
    <pattern id="BGPattern" patternUnits="userSpaceOnUse" alignment="0 0" imageRepeat="None" />
    <mask fill="white" id="Clip327">
      <path d="M 19.186718750000004 9.117968750000003  C 19.184570312500004 7.513085937500002  17.156445312500004 6.256250000000002  14.419335937500001 6.25625  C 12.831640625000002 6.25625  11.392187500000002 6.681640625  10.50703125 7.351953125  L 10.50703125 3.1646484375000004  C 10.509179687500001 1.5576171875  8.41875 0.30078125  5.683789062500001 0.30078125  C 2.9488281250000012 0.30078125  0.8154296875 1.5576171875  1 3.1646484375000004  L 1 15.63203125  L 0.8240234375000002 15.63203125  C 0.912109375 17.1875  3.0068359375 18.394921875  5.683789062500001 18.394921875  L 5.685937500000001 18.394921875  L 5.688085937500001 17.733203125000003  L 5.6837890625000025 18.831054687500004  L 5.6837890625000025 18.936328125000003  L 5.692382812500001 18.936328125000003  C 5.780468750000002 20.493945312500003  7.885937500000001 21.699218750000004  10.562890625000001 21.699218750000004  C 13.272070312500002 21.699218750000004  15.3947265625 20.466015625000004  15.4376953125 18.882617187500003  L 15.441992187500002 18.882617187500003  L 15.441992187500002 18.102734375000004  C 17.646289062500003 17.838476562500006  19.143750000000004 16.725585937500004  19.182421875000003 15.348437500000003  L 19.186718750000004 15.348437500000003  L 19.186718750000004 9.117968750000003  Z M 10.5607421875 9.1201171875  C 10.562890625000001 8.2521484375  12.1462890625 7.2875  14.419335937500001 7.2875  C 16.6923828125 7.2875  18.277929687500002 8.252148437499999  18.277929687500002 9.1201171875  C 18.277929687500002 9.9859375  16.692382812500004 10.952734375  14.419335937500001 10.952734375  C 12.260156250000001 10.952734375  10.724023437500001 10.0826171875  10.575781250000002 9.251171875  L 10.575781250000002 9.1201171875  L 10.5607421875 9.1201171875  Z M 6.7042968750000025 14.7146484375  C 6.7042968750000025 13.8466796875  8.287695312500002 12.88203125  10.562890625000001 12.88203125  C 12.8359375 12.88203125  14.421484375000002 13.848828125  14.421484375000002 14.7146484375  C 14.421484375000002 15.580468749999998  12.8359375 16.547265624999998  10.562890625000001 16.547265624999998  C 8.4015625 16.547265624999998  6.865429687500001 15.674999999999997  6.719335937500002 14.8435546875  L 6.719335937500002 14.7146484375  L 6.7042968750000025 14.7146484375  Z M 1.8337890625000002 7.195117187499999  C 1.8423828125000004 7.141406249999999  1.8552734375000002 7.085546874999999  1.8746093750000004 7.0296875  C 2.7619140625000007 7.678515624999999  4.126171875000001 8.08671875  5.683789062500001 8.08671875  C 7.241406250000001 8.08671875  8.6056640625 7.678515624999999  9.492968750000001 7.0296875  C 9.520898437500001 7.115625  9.540234375 7.199414062499999  9.540234375 7.285351562499999  C 9.540234375 8.151171875  7.956835937500001 9.11796875  5.681640625 9.11796875  C 3.4859375000000004 9.11796875  1.9369140624999996 8.2177734375  1.8337890625000002 7.375585937499999  L 1.8337890625000002 7.195117187499999  Z M 1.8316406250000004 9.270507812499998  C 1.8402343750000005 9.210351562499998  1.8531250000000004 9.150195312499998  1.8724609375000005 9.0900390625  C 2.759765625 9.7388671875  4.1240234375 10.149218750000001  5.683789062500001 10.149218750000001  C 7.241406250000001 10.149218750000001  8.6056640625 9.741015625000001  9.492968750000001 9.092187500000001  C 9.520898437500001 9.1759765625  9.540234375 9.2619140625  9.540234375 9.3478515625  C 9.540234375 10.213671875000001  7.956835937500001 11.18046875  5.681640625 11.18046875  C 3.4666015625 11.18046875  1.9111328125 10.2630859375  1.8316406250000004 9.416601562499999  L 1.8316406250000004 9.270507812499998  Z M 9.542382812500001 5.225  C 9.542382812500001 6.0908203125  7.956835937500001 7.0576171875  5.683789062500001 7.0576171875  C 3.5074218750000004 7.0576171875  1.9669921875000007 6.1724609375  1.8380859375000007 5.33671875  L 1.8380859375000007 5.1240234375  C 1.8445312500000006 5.0724609375  1.8552734375000006 5.0208984375  1.8746093750000004 4.9693359375  C 2.7619140625000007 5.6181640625  4.126171875000001 6.0263671875  5.683789062500001 6.0263671875  C 7.243554687500001 6.0263671875  8.6099609375 5.616015624999999  9.497265625 4.9671875  C 9.525195312500001 5.048828125  9.542382812500001 5.134765625  9.542382812500001 5.225  Z M 1.8251953125000004 3.1667968750000006  C 1.8251953125000004 2.2966796875000006  3.4107421875000004 1.3320312500000007  5.683789062500001 1.33203125  C 7.956835937500001 1.33203125  9.542382812500001 2.2966796875  9.542382812500001 3.1646484375000004  C 9.542382812500001 4.030468750000001  7.958984375000002 4.997265625000001  5.683789062500001 4.997265625000001  C 3.5267578125000005 4.997265625000001  1.9927734375000004 4.1292968750000005  1.8402343750000005 3.3000000000000007  L 1.8402343750000005 3.1667968750000006  L 1.8251953125000004 3.1667968750000006  Z M 5.6923828125 16.334570312499995  L 5.6923828125 16.7041015625  C 5.6923828125 16.727734375  5.683789062500001 16.7513671875  5.683789062500001 16.775  C 5.683789062500001 16.805078124999998  5.690234375000001 16.8330078125  5.690234375000001 16.8630859375  L 5.6880859375 17.363671874999998  L 5.683789062500001 17.363671874999998  C 3.4107421875000004 17.363671874999998  1.8273437500000007 16.3990234375  1.8251953125000004 15.533203124999998  L 1.8251953125000004 15.531054687499998  C 1.8251953125000004 15.440820312499996  1.8445312500000006 15.354882812499996  1.8724609375000005 15.275390624999998  C 2.759765625 15.924218749999998  4.1240234375 16.334570312499995  5.683789062500001 16.334570312499995  L 5.6923828125 16.334570312499995  Z M 5.6966796875 14.884375000000002  L 5.694531250000001 16.1626953125  L 5.696679687500001 15.303320312499999  L 5.683789062500001 15.303320312499999  C 3.4300781250000005 15.303320312499999  1.8552734375000006 14.353710937499997  1.8273437500000007 13.494335937499997  L 1.8273437500000007 13.44921875  C 1.8294921875000005 13.371875  1.8466796875000004 13.292382812500001  1.8724609375000005 13.2150390625  C 2.759765625 13.863867187500002  4.1240234375 14.272070312500002  5.681640625 14.272070312500002  C 5.703125 14.272070312500002  5.722460937499999 14.269921875000001  5.743945312499999 14.269921875000001  C 5.707421875 14.413867187500003  5.681640625 14.562109375000002  5.681640625 14.712500000000002  C 5.681640625 14.770507812500002  5.690234374999999 14.8263671875  5.6966796875 14.884375000000002  Z M 6.4013671875 13.204296874999997  C 6.1693359375 13.227929687499998  5.930859375000001 13.240820312499999  5.683789062500001 13.240820312499999  C 3.4494140625000007 13.240820312499999  1.8853515625000004 12.3083984375  1.8316406250000004 11.453320312499997  L 1.8316406250000004 11.358789062499998  C 1.8359375 11.290039062499998  1.8509765625000005 11.221289062499999  1.8746093750000004 11.150390624999998  C 2.7619140625000007 11.799218749999998  4.126171875000001 12.207421874999998  5.685937500000001 12.207421874999998  C 7.245703125000002 12.207421874999998  8.609960937500002 11.799218749999998  9.497265625 11.150390624999998  C 9.525195312500001 11.236328124999998  9.54453125 11.320117187499998  9.54453125 11.406054687499998  C 9.54453125 11.582226562499997  9.47578125 11.760546874999998  9.353320312500001 11.936718749999997  C 8.096484375000001 12.119335937499997  7.050195312500001 12.576953124999998  6.4013671875 13.204296874999997  Z M 14.419335937500001 18.8375  C 14.419335937500001 19.703320312499997  12.8359375 20.66796875  10.562890625000001 20.66796875  C 8.291992187500002 20.66796875  6.708593750000001 19.70546875  6.704296875000001 18.8396484375  L 6.704296875000001 18.833203125  C 6.704296875000001 18.7494140625  6.7236328125 18.665625000000002  6.7515625 18.5818359375  C 7.638867187500001 19.2306640625  9.003125 19.6388671875  10.5607421875 19.6388671875  C 12.120507812500001 19.6388671875  13.4826171875 19.2306640625  14.369921875000003 18.5818359375  C 14.397851562500001 18.6677734375  14.419335937500001 18.7515625  14.419335937500001 18.8375  Z M 14.421484375000002 16.775000000000002  C 14.419335937500001 17.6408203125  12.8359375 18.6076171875  10.562890625000001 18.6076171875  C 8.345703125000002 18.6076171875  6.790234375000001 17.690234375  6.712890625000001 16.8416015625  L 6.712890625000001 16.7126953125  C 6.717187500000001 16.6482421875  6.732226562500001 16.5837890625  6.753710937500001 16.5193359375  C 7.641015625000001 17.1681640625  9.005273437500001 17.5763671875  10.562890625000001 17.5763671875  C 12.122656250000002 17.5763671875  13.489062500000003 17.166015625  14.376367187500001 16.517187500000002  C 14.404296875 16.598828125  14.421484375000002 16.684765625  14.421484375000002 16.775000000000002  Z M 18.277929687500002 11.1826171875  C 18.277929687500002 12.035546875000001  16.731054687500002 12.9873046875  14.5009765625 13.0087890625  C 13.678125000000001 12.349218749999999  12.384765625 11.9130859375  10.880859375 11.859375  C 10.7068359375 11.6681640625  10.595117187500001 11.466210937500001  10.571484375 11.2685546875  L 10.571484375 11.100976562500001  C 10.5779296875 11.04296875  10.5908203125 10.984960937500002  10.61015625 10.926953125  C 11.497460937499998 11.573632812500001  12.861718749999998 11.983984375000002  14.419335937500001 11.983984375000002  C 15.979101562500002 11.983984375000002  17.345507812500003 11.573632812500001  18.2328125 10.924804687500002  C 18.2607421875 11.006445312500002  18.277929687500002 11.092382812500002  18.277929687500002 11.1826171875  Z M 15.439843750000001 14.712499999999999  C 15.439843750000001 14.463281249999998  15.383984375 14.224804687499997  15.28515625 13.994921875  C 16.4775390625 13.874609374999999  17.5109375 13.509374999999999  18.2306640625 12.98515625  C 18.25859375 13.07109375  18.277929687500002 13.154882812499999  18.277929687500002 13.240820312499999  C 18.277929687500002 13.971289062499999  17.152148437500003 14.768359375  15.439843750000001 15.002539062499999  L 15.439843750000001 14.712499999999999  Z M 18.277929687500002 15.303320312499997  C 18.277929687500002 16.031640624999994  17.152148437500003 16.830859374999996  15.439843750000001 17.0650390625  L 15.439843750000001 16.040234374999997  C 16.5677734375 15.904882812499999  17.5431640625 15.548242187499998  18.2306640625 15.047656249999998  C 18.25859375 15.133593749999998  18.277929687500002 15.217382812499997  18.277929687500002 15.303320312499997  Z " fill-rule="evenodd" />
    </mask>
  </defs>
  <g transform="matrix(1 0 0 1 -286 -438 )">
    <path d="M 19.186718750000004 9.117968750000003  C 19.184570312500004 7.513085937500002  17.156445312500004 6.256250000000002  14.419335937500001 6.25625  C 12.831640625000002 6.25625  11.392187500000002 6.681640625  10.50703125 7.351953125  L 10.50703125 3.1646484375000004  C 10.509179687500001 1.5576171875  8.41875 0.30078125  5.683789062500001 0.30078125  C 2.9488281250000012 0.30078125  0.8154296875 1.5576171875  1 3.1646484375000004  L 1 15.63203125  L 0.8240234375000002 15.63203125  C 0.912109375 17.1875  3.0068359375 18.394921875  5.683789062500001 18.394921875  L 5.685937500000001 18.394921875  L 5.688085937500001 17.733203125000003  L 5.6837890625000025 18.831054687500004  L 5.6837890625000025 18.936328125000003  L 5.692382812500001 18.936328125000003  C 5.780468750000002 20.493945312500003  7.885937500000001 21.699218750000004  10.562890625000001 21.699218750000004  C 13.272070312500002 21.699218750000004  15.3947265625 20.466015625000004  15.4376953125 18.882617187500003  L 15.441992187500002 18.882617187500003  L 15.441992187500002 18.102734375000004  C 17.646289062500003 17.838476562500006  19.143750000000004 16.725585937500004  19.182421875000003 15.348437500000003  L 19.186718750000004 15.348437500000003  L 19.186718750000004 9.117968750000003  Z M 10.5607421875 9.1201171875  C 10.562890625000001 8.2521484375  12.1462890625 7.2875  14.419335937500001 7.2875  C 16.6923828125 7.2875  18.277929687500002 8.252148437499999  18.277929687500002 9.1201171875  C 18.277929687500002 9.9859375  16.692382812500004 10.952734375  14.419335937500001 10.952734375  C 12.260156250000001 10.952734375  10.724023437500001 10.0826171875  10.575781250000002 9.251171875  L 10.575781250000002 9.1201171875  L 10.5607421875 9.1201171875  Z M 6.7042968750000025 14.7146484375  C 6.7042968750000025 13.8466796875  8.287695312500002 12.88203125  10.562890625000001 12.88203125  C 12.8359375 12.88203125  14.421484375000002 13.848828125  14.421484375000002 14.7146484375  C 14.421484375000002 15.580468749999998  12.8359375 16.547265624999998  10.562890625000001 16.547265624999998  C 8.4015625 16.547265624999998  6.865429687500001 15.674999999999997  6.719335937500002 14.8435546875  L 6.719335937500002 14.7146484375  L 6.7042968750000025 14.7146484375  Z M 1.8337890625000002 7.195117187499999  C 1.8423828125000004 7.141406249999999  1.8552734375000002 7.085546874999999  1.8746093750000004 7.0296875  C 2.7619140625000007 7.678515624999999  4.126171875000001 8.08671875  5.683789062500001 8.08671875  C 7.241406250000001 8.08671875  8.6056640625 7.678515624999999  9.492968750000001 7.0296875  C 9.520898437500001 7.115625  9.540234375 7.199414062499999  9.540234375 7.285351562499999  C 9.540234375 8.151171875  7.956835937500001 9.11796875  5.681640625 9.11796875  C 3.4859375000000004 9.11796875  1.9369140624999996 8.2177734375  1.8337890625000002 7.375585937499999  L 1.8337890625000002 7.195117187499999  Z M 1.8316406250000004 9.270507812499998  C 1.8402343750000005 9.210351562499998  1.8531250000000004 9.150195312499998  1.8724609375000005 9.0900390625  C 2.759765625 9.7388671875  4.1240234375 10.149218750000001  5.683789062500001 10.149218750000001  C 7.241406250000001 10.149218750000001  8.6056640625 9.741015625000001  9.492968750000001 9.092187500000001  C 9.520898437500001 9.1759765625  9.540234375 9.2619140625  9.540234375 9.3478515625  C 9.540234375 10.213671875000001  7.956835937500001 11.18046875  5.681640625 11.18046875  C 3.4666015625 11.18046875  1.9111328125 10.2630859375  1.8316406250000004 9.416601562499999  L 1.8316406250000004 9.270507812499998  Z M 9.542382812500001 5.225  C 9.542382812500001 6.0908203125  7.956835937500001 7.0576171875  5.683789062500001 7.0576171875  C 3.5074218750000004 7.0576171875  1.9669921875000007 6.1724609375  1.8380859375000007 5.33671875  L 1.8380859375000007 5.1240234375  C 1.8445312500000006 5.0724609375  1.8552734375000006 5.0208984375  1.8746093750000004 4.9693359375  C 2.7619140625000007 5.6181640625  4.126171875000001 6.0263671875  5.683789062500001 6.0263671875  C 7.243554687500001 6.0263671875  8.6099609375 5.616015624999999  9.497265625 4.9671875  C 9.525195312500001 5.048828125  9.542382812500001 5.134765625  9.542382812500001 5.225  Z M 1.8251953125000004 3.1667968750000006  C 1.8251953125000004 2.2966796875000006  3.4107421875000004 1.3320312500000007  5.683789062500001 1.33203125  C 7.956835937500001 1.33203125  9.542382812500001 2.2966796875  9.542382812500001 3.1646484375000004  C 9.542382812500001 4.030468750000001  7.958984375000002 4.997265625000001  5.683789062500001 4.997265625000001  C 3.5267578125000005 4.997265625000001  1.9927734375000004 4.1292968750000005  1.8402343750000005 3.3000000000000007  L 1.8402343750000005 3.1667968750000006  L 1.8251953125000004 3.1667968750000006  Z M 5.6923828125 16.334570312499995  L 5.6923828125 16.7041015625  C 5.6923828125 16.727734375  5.683789062500001 16.7513671875  5.683789062500001 16.775  C 5.683789062500001 16.805078124999998  5.690234375000001 16.8330078125  5.690234375000001 16.8630859375  L 5.6880859375 17.363671874999998  L 5.683789062500001 17.363671874999998  C 3.4107421875000004 17.363671874999998  1.8273437500000007 16.3990234375  1.8251953125000004 15.533203124999998  L 1.8251953125000004 15.531054687499998  C 1.8251953125000004 15.440820312499996  1.8445312500000006 15.354882812499996  1.8724609375000005 15.275390624999998  C 2.759765625 15.924218749999998  4.1240234375 16.334570312499995  5.683789062500001 16.334570312499995  L 5.6923828125 16.334570312499995  Z M 5.6966796875 14.884375000000002  L 5.694531250000001 16.1626953125  L 5.696679687500001 15.303320312499999  L 5.683789062500001 15.303320312499999  C 3.4300781250000005 15.303320312499999  1.8552734375000006 14.353710937499997  1.8273437500000007 13.494335937499997  L 1.8273437500000007 13.44921875  C 1.8294921875000005 13.371875  1.8466796875000004 13.292382812500001  1.8724609375000005 13.2150390625  C 2.759765625 13.863867187500002  4.1240234375 14.272070312500002  5.681640625 14.272070312500002  C 5.703125 14.272070312500002  5.722460937499999 14.269921875000001  5.743945312499999 14.269921875000001  C 5.707421875 14.413867187500003  5.681640625 14.562109375000002  5.681640625 14.712500000000002  C 5.681640625 14.770507812500002  5.690234374999999 14.8263671875  5.6966796875 14.884375000000002  Z M 6.4013671875 13.204296874999997  C 6.1693359375 13.227929687499998  5.930859375000001 13.240820312499999  5.683789062500001 13.240820312499999  C 3.4494140625000007 13.240820312499999  1.8853515625000004 12.3083984375  1.8316406250000004 11.453320312499997  L 1.8316406250000004 11.358789062499998  C 1.8359375 11.290039062499998  1.8509765625000005 11.221289062499999  1.8746093750000004 11.150390624999998  C 2.7619140625000007 11.799218749999998  4.126171875000001 12.207421874999998  5.685937500000001 12.207421874999998  C 7.245703125000002 12.207421874999998  8.609960937500002 11.799218749999998  9.497265625 11.150390624999998  C 9.525195312500001 11.236328124999998  9.54453125 11.320117187499998  9.54453125 11.406054687499998  C 9.54453125 11.582226562499997  9.47578125 11.760546874999998  9.353320312500001 11.936718749999997  C 8.096484375000001 12.119335937499997  7.050195312500001 12.576953124999998  6.4013671875 13.204296874999997  Z M 14.419335937500001 18.8375  C 14.419335937500001 19.703320312499997  12.8359375 20.66796875  10.562890625000001 20.66796875  C 8.291992187500002 20.66796875  6.708593750000001 19.70546875  6.704296875000001 18.8396484375  L 6.704296875000001 18.833203125  C 6.704296875000001 18.7494140625  6.7236328125 18.665625000000002  6.7515625 18.5818359375  C 7.638867187500001 19.2306640625  9.003125 19.6388671875  10.5607421875 19.6388671875  C 12.120507812500001 19.6388671875  13.4826171875 19.2306640625  14.369921875000003 18.5818359375  C 14.397851562500001 18.6677734375  14.419335937500001 18.7515625  14.419335937500001 18.8375  Z M 14.421484375000002 16.775000000000002  C 14.419335937500001 17.6408203125  12.8359375 18.6076171875  10.562890625000001 18.6076171875  C 8.345703125000002 18.6076171875  6.790234375000001 17.690234375  6.712890625000001 16.8416015625  L 6.712890625000001 16.7126953125  C 6.717187500000001 16.6482421875  6.732226562500001 16.5837890625  6.753710937500001 16.5193359375  C 7.641015625000001 17.1681640625  9.005273437500001 17.5763671875  10.562890625000001 17.5763671875  C 12.122656250000002 17.5763671875  13.489062500000003 17.166015625  14.376367187500001 16.517187500000002  C 14.404296875 16.598828125  14.421484375000002 16.684765625  14.421484375000002 16.775000000000002  Z M 18.277929687500002 11.1826171875  C 18.277929687500002 12.035546875000001  16.731054687500002 12.9873046875  14.5009765625 13.0087890625  C 13.678125000000001 12.349218749999999  12.384765625 11.9130859375  10.880859375 11.859375  C 10.7068359375 11.6681640625  10.595117187500001 11.466210937500001  10.571484375 11.2685546875  L 10.571484375 11.100976562500001  C 10.5779296875 11.04296875  10.5908203125 10.984960937500002  10.61015625 10.926953125  C 11.497460937499998 11.573632812500001  12.861718749999998 11.983984375000002  14.419335937500001 11.983984375000002  C 15.979101562500002 11.983984375000002  17.345507812500003 11.573632812500001  18.2328125 10.924804687500002  C 18.2607421875 11.006445312500002  18.277929687500002 11.092382812500002  18.277929687500002 11.1826171875  Z M 15.439843750000001 14.712499999999999  C 15.439843750000001 14.463281249999998  15.383984375 14.224804687499997  15.28515625 13.994921875  C 16.4775390625 13.874609374999999  17.5109375 13.509374999999999  18.2306640625 12.98515625  C 18.25859375 13.07109375  18.277929687500002 13.154882812499999  18.277929687500002 13.240820312499999  C 18.277929687500002 13.971289062499999  17.152148437500003 14.768359375  15.439843750000001 15.002539062499999  L 15.439843750000001 14.712499999999999  Z M 18.277929687500002 15.303320312499997  C 18.277929687500002 16.031640624999994  17.152148437500003 16.830859374999996  15.439843750000001 17.0650390625  L 15.439843750000001 16.040234374999997  C 16.5677734375 15.904882812499999  17.5431640625 15.548242187499998  18.2306640625 15.047656249999998  C 18.25859375 15.133593749999998  18.277929687500002 15.217382812499997  18.277929687500002 15.303320312499997  Z " fill-rule="nonzero" fill="rgba(85, 85, 85, 1)" stroke="none" transform="matrix(1 0 0 1 286 438 )" class="fill" />
    <path d="M 19.186718750000004 9.117968750000003  C 19.184570312500004 7.513085937500002  17.156445312500004 6.256250000000002  14.419335937500001 6.25625  C 12.831640625000002 6.25625  11.392187500000002 6.681640625  10.50703125 7.351953125  L 10.50703125 3.1646484375000004  C 10.509179687500001 1.5576171875  8.41875 0.30078125  5.683789062500001 0.30078125  C 2.9488281250000012 0.30078125  0.8154296875 1.5576171875  1 3.1646484375000004  L 1 15.63203125  L 0.8240234375000002 15.63203125  C 0.912109375 17.1875  3.0068359375 18.394921875  5.683789062500001 18.394921875  L 5.685937500000001 18.394921875  L 5.688085937500001 17.733203125000003  L 5.6837890625000025 18.831054687500004  L 5.6837890625000025 18.936328125000003  L 5.692382812500001 18.936328125000003  C 5.780468750000002 20.493945312500003  7.885937500000001 21.699218750000004  10.562890625000001 21.699218750000004  C 13.272070312500002 21.699218750000004  15.3947265625 20.466015625000004  15.4376953125 18.882617187500003  L 15.441992187500002 18.882617187500003  L 15.441992187500002 18.102734375000004  C 17.646289062500003 17.838476562500006  19.143750000000004 16.725585937500004  19.182421875000003 15.348437500000003  L 19.186718750000004 15.348437500000003  L 19.186718750000004 9.117968750000003  Z " stroke-width="0" stroke-dasharray="0" stroke="rgba(255, 255, 255, 0)" fill="none" transform="matrix(1 0 0 1 286 438 )" class="stroke" mask="url(#Clip327)" />
    <path d="M 10.5607421875 9.1201171875  C 10.562890625000001 8.2521484375  12.1462890625 7.2875  14.419335937500001 7.2875  C 16.6923828125 7.2875  18.277929687500002 8.252148437499999  18.277929687500002 9.1201171875  C 18.277929687500002 9.9859375  16.692382812500004 10.952734375  14.419335937500001 10.952734375  C 12.260156250000001 10.952734375  10.724023437500001 10.0826171875  10.575781250000002 9.251171875  L 10.575781250000002 9.1201171875  L 10.5607421875 9.1201171875  Z " stroke-width="0" stroke-dasharray="0" stroke="rgba(255, 255, 255, 0)" fill="none" transform="matrix(1 0 0 1 286 438 )" class="stroke" mask="url(#Clip327)" />
    <path d="M 6.7042968750000025 14.7146484375  C 6.7042968750000025 13.8466796875  8.287695312500002 12.88203125  10.562890625000001 12.88203125  C 12.8359375 12.88203125  14.421484375000002 13.848828125  14.421484375000002 14.7146484375  C 14.421484375000002 15.580468749999998  12.8359375 16.547265624999998  10.562890625000001 16.547265624999998  C 8.4015625 16.547265624999998  6.865429687500001 15.674999999999997  6.719335937500002 14.8435546875  L 6.719335937500002 14.7146484375  L 6.7042968750000025 14.7146484375  Z " stroke-width="0" stroke-dasharray="0" stroke="rgba(255, 255, 255, 0)" fill="none" transform="matrix(1 0 0 1 286 438 )" class="stroke" mask="url(#Clip327)" />
    <path d="M 1.8337890625000002 7.195117187499999  C 1.8423828125000004 7.141406249999999  1.8552734375000002 7.085546874999999  1.8746093750000004 7.0296875  C 2.7619140625000007 7.678515624999999  4.126171875000001 8.08671875  5.683789062500001 8.08671875  C 7.241406250000001 8.08671875  8.6056640625 7.678515624999999  9.492968750000001 7.0296875  C 9.520898437500001 7.115625  9.540234375 7.199414062499999  9.540234375 7.285351562499999  C 9.540234375 8.151171875  7.956835937500001 9.11796875  5.681640625 9.11796875  C 3.4859375000000004 9.11796875  1.9369140624999996 8.2177734375  1.8337890625000002 7.375585937499999  L 1.8337890625000002 7.195117187499999  Z " stroke-width="0" stroke-dasharray="0" stroke="rgba(255, 255, 255, 0)" fill="none" transform="matrix(1 0 0 1 286 438 )" class="stroke" mask="url(#Clip327)" />
    <path d="M 1.8316406250000004 9.270507812499998  C 1.8402343750000005 9.210351562499998  1.8531250000000004 9.150195312499998  1.8724609375000005 9.0900390625  C 2.759765625 9.7388671875  4.1240234375 10.149218750000001  5.683789062500001 10.149218750000001  C 7.241406250000001 10.149218750000001  8.6056640625 9.741015625000001  9.492968750000001 9.092187500000001  C 9.520898437500001 9.1759765625  9.540234375 9.2619140625  9.540234375 9.3478515625  C 9.540234375 10.213671875000001  7.956835937500001 11.18046875  5.681640625 11.18046875  C 3.4666015625 11.18046875  1.9111328125 10.2630859375  1.8316406250000004 9.416601562499999  L 1.8316406250000004 9.270507812499998  Z " stroke-width="0" stroke-dasharray="0" stroke="rgba(255, 255, 255, 0)" fill="none" transform="matrix(1 0 0 1 286 438 )" class="stroke" mask="url(#Clip327)" />
    <path d="M 9.542382812500001 5.225  C 9.542382812500001 6.0908203125  7.956835937500001 7.0576171875  5.683789062500001 7.0576171875  C 3.5074218750000004 7.0576171875  1.9669921875000007 6.1724609375  1.8380859375000007 5.33671875  L 1.8380859375000007 5.1240234375  C 1.8445312500000006 5.0724609375  1.8552734375000006 5.0208984375  1.8746093750000004 4.9693359375  C 2.7619140625000007 5.6181640625  4.126171875000001 6.0263671875  5.683789062500001 6.0263671875  C 7.243554687500001 6.0263671875  8.6099609375 5.616015624999999  9.497265625 4.9671875  C 9.525195312500001 5.048828125  9.542382812500001 5.134765625  9.542382812500001 5.225  Z " stroke-width="0" stroke-dasharray="0" stroke="rgba(255, 255, 255, 0)" fill="none" transform="matrix(1 0 0 1 286 438 )" class="stroke" mask="url(#Clip327)" />
    <path d="M 1.8251953125000004 3.1667968750000006  C 1.8251953125000004 2.2966796875000006  3.4107421875000004 1.3320312500000007  5.683789062500001 1.33203125  C 7.956835937500001 1.33203125  9.542382812500001 2.2966796875  9.542382812500001 3.1646484375000004  C 9.542382812500001 4.030468750000001  7.958984375000002 4.997265625000001  5.683789062500001 4.997265625000001  C 3.5267578125000005 4.997265625000001  1.9927734375000004 4.1292968750000005  1.8402343750000005 3.3000000000000007  L 1.8402343750000005 3.1667968750000006  L 1.8251953125000004 3.1667968750000006  Z " stroke-width="0" stroke-dasharray="0" stroke="rgba(255, 255, 255, 0)" fill="none" transform="matrix(1 0 0 1 286 438 )" class="stroke" mask="url(#Clip327)" />
    <path d="M 5.6923828125 16.334570312499995  L 5.6923828125 16.7041015625  C 5.6923828125 16.727734375  5.683789062500001 16.7513671875  5.683789062500001 16.775  C 5.683789062500001 16.805078124999998  5.690234375000001 16.8330078125  5.690234375000001 16.8630859375  L 5.6880859375 17.363671874999998  L 5.683789062500001 17.363671874999998  C 3.4107421875000004 17.363671874999998  1.8273437500000007 16.3990234375  1.8251953125000004 15.533203124999998  L 1.8251953125000004 15.531054687499998  C 1.8251953125000004 15.440820312499996  1.8445312500000006 15.354882812499996  1.8724609375000005 15.275390624999998  C 2.759765625 15.924218749999998  4.1240234375 16.334570312499995  5.683789062500001 16.334570312499995  L 5.6923828125 16.334570312499995  Z " stroke-width="0" stroke-dasharray="0" stroke="rgba(255, 255, 255, 0)" fill="none" transform="matrix(1 0 0 1 286 438 )" class="stroke" mask="url(#Clip327)" />
    <path d="M 5.6966796875 14.884375000000002  L 5.694531250000001 16.1626953125  L 5.696679687500001 15.303320312499999  L 5.683789062500001 15.303320312499999  C 3.4300781250000005 15.303320312499999  1.8552734375000006 14.353710937499997  1.8273437500000007 13.494335937499997  L 1.8273437500000007 13.44921875  C 1.8294921875000005 13.371875  1.8466796875000004 13.292382812500001  1.8724609375000005 13.2150390625  C 2.759765625 13.863867187500002  4.1240234375 14.272070312500002  5.681640625 14.272070312500002  C 5.703125 14.272070312500002  5.722460937499999 14.269921875000001  5.743945312499999 14.269921875000001  C 5.707421875 14.413867187500003  5.681640625 14.562109375000002  5.681640625 14.712500000000002  C 5.681640625 14.770507812500002  5.690234374999999 14.8263671875  5.6966796875 14.884375000000002  Z " stroke-width="0" stroke-dasharray="0" stroke="rgba(255, 255, 255, 0)" fill="none" transform="matrix(1 0 0 1 286 438 )" class="stroke" mask="url(#Clip327)" />
    <path d="M 6.4013671875 13.204296874999997  C 6.1693359375 13.227929687499998  5.930859375000001 13.240820312499999  5.683789062500001 13.240820312499999  C 3.4494140625000007 13.240820312499999  1.8853515625000004 12.3083984375  1.8316406250000004 11.453320312499997  L 1.8316406250000004 11.358789062499998  C 1.8359375 11.290039062499998  1.8509765625000005 11.221289062499999  1.8746093750000004 11.150390624999998  C 2.7619140625000007 11.799218749999998  4.126171875000001 12.207421874999998  5.685937500000001 12.207421874999998  C 7.245703125000002 12.207421874999998  8.609960937500002 11.799218749999998  9.497265625 11.150390624999998  C 9.525195312500001 11.236328124999998  9.54453125 11.320117187499998  9.54453125 11.406054687499998  C 9.54453125 11.582226562499997  9.47578125 11.760546874999998  9.353320312500001 11.936718749999997  C 8.096484375000001 12.119335937499997  7.050195312500001 12.576953124999998  6.4013671875 13.204296874999997  Z " stroke-width="0" stroke-dasharray="0" stroke="rgba(255, 255, 255, 0)" fill="none" transform="matrix(1 0 0 1 286 438 )" class="stroke" mask="url(#Clip327)" />
    <path d="M 14.419335937500001 18.8375  C 14.419335937500001 19.703320312499997  12.8359375 20.66796875  10.562890625000001 20.66796875  C 8.291992187500002 20.66796875  6.708593750000001 19.70546875  6.704296875000001 18.8396484375  L 6.704296875000001 18.833203125  C 6.704296875000001 18.7494140625  6.7236328125 18.665625000000002  6.7515625 18.5818359375  C 7.638867187500001 19.2306640625  9.003125 19.6388671875  10.5607421875 19.6388671875  C 12.120507812500001 19.6388671875  13.4826171875 19.2306640625  14.369921875000003 18.5818359375  C 14.397851562500001 18.6677734375  14.419335937500001 18.7515625  14.419335937500001 18.8375  Z " stroke-width="0" stroke-dasharray="0" stroke="rgba(255, 255, 255, 0)" fill="none" transform="matrix(1 0 0 1 286 438 )" class="stroke" mask="url(#Clip327)" />
    <path d="M 14.421484375000002 16.775000000000002  C 14.419335937500001 17.6408203125  12.8359375 18.6076171875  10.562890625000001 18.6076171875  C 8.345703125000002 18.6076171875  6.790234375000001 17.690234375  6.712890625000001 16.8416015625  L 6.712890625000001 16.7126953125  C 6.717187500000001 16.6482421875  6.732226562500001 16.5837890625  6.753710937500001 16.5193359375  C 7.641015625000001 17.1681640625  9.005273437500001 17.5763671875  10.562890625000001 17.5763671875  C 12.122656250000002 17.5763671875  13.489062500000003 17.166015625  14.376367187500001 16.517187500000002  C 14.404296875 16.598828125  14.421484375000002 16.684765625  14.421484375000002 16.775000000000002  Z " stroke-width="0" stroke-dasharray="0" stroke="rgba(255, 255, 255, 0)" fill="none" transform="matrix(1 0 0 1 286 438 )" class="stroke" mask="url(#Clip327)" />
    <path d="M 18.277929687500002 11.1826171875  C 18.277929687500002 12.035546875000001  16.731054687500002 12.9873046875  14.5009765625 13.0087890625  C 13.678125000000001 12.349218749999999  12.384765625 11.9130859375  10.880859375 11.859375  C 10.7068359375 11.6681640625  10.595117187500001 11.466210937500001  10.571484375 11.2685546875  L 10.571484375 11.100976562500001  C 10.5779296875 11.04296875  10.5908203125 10.984960937500002  10.61015625 10.926953125  C 11.497460937499998 11.573632812500001  12.861718749999998 11.983984375000002  14.419335937500001 11.983984375000002  C 15.979101562500002 11.983984375000002  17.345507812500003 11.573632812500001  18.2328125 10.924804687500002  C 18.2607421875 11.006445312500002  18.277929687500002 11.092382812500002  18.277929687500002 11.1826171875  Z " stroke-width="0" stroke-dasharray="0" stroke="rgba(255, 255, 255, 0)" fill="none" transform="matrix(1 0 0 1 286 438 )" class="stroke" mask="url(#Clip327)" />
    <path d="M 15.439843750000001 14.712499999999999  C 15.439843750000001 14.463281249999998  15.383984375 14.224804687499997  15.28515625 13.994921875  C 16.4775390625 13.874609374999999  17.5109375 13.509374999999999  18.2306640625 12.98515625  C 18.25859375 13.07109375  18.277929687500002 13.154882812499999  18.277929687500002 13.240820312499999  C 18.277929687500002 13.971289062499999  17.152148437500003 14.768359375  15.439843750000001 15.002539062499999  L 15.439843750000001 14.712499999999999  Z " stroke-width="0" stroke-dasharray="0" stroke="rgba(255, 255, 255, 0)" fill="none" transform="matrix(1 0 0 1 286 438 )" class="stroke" mask="url(#Clip327)" />
    <path d="M 18.277929687500002 15.303320312499997  C 18.277929687500002 16.031640624999994  17.152148437500003 16.830859374999996  15.439843750000001 17.0650390625  L 15.439843750000001 16.040234374999997  C 16.5677734375 15.904882812499999  17.5431640625 15.548242187499998  18.2306640625 15.047656249999998  C 18.25859375 15.133593749999998  18.277929687500002 15.217382812499997  18.277929687500002 15.303320312499997  Z " stroke-width="0" stroke-dasharray="0" stroke="rgba(255, 255, 255, 0)" fill="none" transform="matrix(1 0 0 1 286 438 )" class="stroke" mask="url(#Clip327)" />
  </g>
</svg>