<?xml version="1.0" encoding="utf-8"?>
<svg version="1.1" xmlns:xlink="http://www.w3.org/1999/xlink" width="18px" height="18px" xmlns="http://www.w3.org/2000/svg">
  <defs>
    <pattern id="BGPattern" patternUnits="userSpaceOnUse" alignment="0 0" imageRepeat="None" />
    <mask fill="white" id="Clip9030">
      <path d="M 17.75 16.5  L 17.75 11.5  L 17.75 2.075  C 17.723470549992626 1.0588742165775593  16.89211076610319 0.24893663232543384  15.87563872051927 0.24893663232543384  C 15.854588003309935 0.24893663232543384  15.833538778728151 0.24929113847967455  15.8125 0.25  L 2.062499999999999 0.25  C 1.0731975114661347 0.28882229916544433  0.28202213274371246 1.0854540598100901  0.25 2.075  L 0.25 16.5  C 0.25 17.19035593728849  0.8096440627115082 17.75  1.5 17.75  L 16.5 17.75  C 17.19035593728849 17.75  17.75 17.19035593728849  17.75 16.5  Z M 7.75 10.25  L 1.5 10.25  L 1.5 2.075  C 1.5066501322196317 1.7326144343210395  1.7826144343210397 1.4566501322196315  2.125 1.4500000000000002  L 15.875 1.4500000000000002  C 16.220177968644247 1.4500000000000002  16.5 1.729822031355754  16.5 2.075  L 16.5 10.25  L 10.25 10.25  L 9 11.424999999999999  L 7.75 10.25  Z M 5.1875 13.787500000000001  L 5.25 15.712500000000002  C 5.252153931640279 15.737489243201278  5.253232391462591 15.762559544861698  5.253232391462591 15.787641444655844  C 5.253232391462591 16.270890600757788  4.861481547564535 16.662641444655844  4.378232391462591 16.662641444655844  C 4.372987943058928 16.662641444655844  4.36774360063315 16.66259429453176  4.3625 16.6625  L 2.4499999999999993 16.662499999999998  C 2.2495164321033867 16.673522308677217  2.0512198727729114 16.616236635981746  1.8874999999999993 16.5  C 1.6100469416387782 16.305225702326855  1.461363653210956 15.97428547969718  1.4999999999999996 15.6375  L 1.4999999999999996 11.137500000000001  L 2.2624999999999993 11.137500000000001  L 2.2624999999999993 12.962500000000002  L 4.1375 12.962500000000002  C 4.422667083542202 12.938987753856365  4.7056110183382565 13.028811225220192  4.924999999999999 13.212500000000002  C 5.088956185819715 13.359100522301635  5.184134494392363 13.567586341079812  5.1875 13.787500000000001  Z M 9 13.849999999999998  L 9 15.712500000000002  C 9.008212592701097 15.987160973400918  8.904438517572002 16.253364035688598  8.712499999999999 16.45  C 8.504042132597476 16.625774107946544  8.234138474787905 16.71124359958624  7.9625 16.6875  L 6.6125 16.6875  C 6.340861525212093 16.71124359958624  6.070957867402524 16.625774107946544  5.862500000000001 16.450000000000003  C 5.6738715978202245 16.252095137790697  5.574496645892198 15.98558958489281  5.5875 15.712500000000002  L 5.5874999999999995 13.849999999999998  C 5.582927939264229 13.611389528746097  5.683491852814377 13.382835179768488  5.862500000000001 13.225000000000003  C 6.0735115191706655 13.053913690138396  6.341471699803521 12.969059632937991  6.6125 12.9875  L 7.962499999999999 12.9875  C 8.23701761436337 12.97190775675427  8.507891630471013 13.056278351935338  8.725 13.224999999999998  C 8.904008147185621 13.382835179768488  9.00457206073577 13.611389528746098  9 13.849999999999998  Z M 12.6625 15.237500000000004  L 12.6625 15.8125  C 12.670706451134993 16.050393565834728  12.580232513579126 16.281102106602184  12.412500000000001 16.450000000000003  C 12.203963396273723 16.626701657446645  11.935350277449011 16.71623936372155  11.662500000000001 16.7  L 9.375 16.7  L 9.375 16.0125  L 11.575000000000001 16.0125  C 11.787500000000001 16.0125  11.9 15.9375  11.9 15.7625  L 11.9 15.375  C 11.9 15.1875  11.787500000000001 15.099999999999998  11.575000000000001 15.099999999999998  L 10.325000000000001 15.099999999999998  C 10.067604166442251 15.113760693994088  9.815444300358386 15.023703598964136  9.624999999999998 14.85  C 9.463130277877834 14.69152059382624  9.369032309847977 14.476439524043714  9.362499999999999 14.25  L 9.362499999999999 13.874999999999998  C 9.356024672763823 13.634961126033861  9.451380678873898 13.403382254052257  9.625 13.237499999999999  C 9.792166817787937 13.067131462877231  10.02408414472453 12.97618349152955  10.2625 12.9875  L 12.575 12.9875  L 12.575 13.662500000000001  L 10.474999999999998 13.662500000000003  C 10.389737159207806 13.660684000109793  10.306256612802256 13.687046277922072  10.2375 13.737500000000004  C 10.176862639480479 13.77530889470463  10.139288695481769 13.841063296702373  10.1375 13.912500000000001  L 10.1375 14.187500000000004  C 10.140878384038581 14.24566772181634  10.16799285297008 14.299896659679334  10.2125 14.337499999999999  C 10.304438593496005 14.39974688787458  10.414105280994363 14.43045356037412  10.525 14.425000000000002  L 11.7125 14.425  C 11.975937370708703 14.411162271767985  12.233508234264885 14.506056800446576  12.425 14.687500000000004  C 12.572415024301012 14.833152139441973  12.657558026176368 15.0303254069428  12.6625 15.237500000000004  Z M 16.349999999999998 15.237500000000004  L 16.4125 15.8125  C 16.42223987944382 16.05312767982244  16.32635194930253 16.285998367308416  16.149999999999995 16.450000000000003  C 15.945951819342657 16.62592996651598  15.681468607467913 16.715585292575216  15.412499999999998 16.7  L 13.049999999999997 16.7  L 13.049999999999997 16.0125  L 15.25 16.0125  C 15.475000000000001 16.0125  15.575 15.9375  15.575 15.7625  L 15.575 15.375  C 15.575 15.1875  15.475000000000001 15.099999999999998  15.25 15.099999999999998  L 14 15.099999999999998  C 13.738361945722964 15.117194288540912  13.481033526654429 15.026903615183528  13.287499999999998 14.85  C 13.125630277877834 14.69152059382624  13.031532309847979 14.476439524043712  13.024999999999999 14.25  L 13.024999999999999 13.874999999999998  C 13.018524672763824 13.634961126033861  13.113880678873901 13.403382254052257  13.287500000000001 13.237499999999999  C 13.459396733452097 13.066509686682265  13.695325410575224 12.975767887788756  13.9375 12.9875  L 16.237499999999997 12.9875  L 16.237499999999997 13.662500000000001  L 14.162499999999998 13.662500000000001  C 14.07336278657121 13.660658726019122  13.985903761313459 13.68689643359645  13.912500000000001 13.737500000000004  C 13.851862639480476 13.77530889470463  13.814288695481768 13.841063296702375  13.8125 13.912500000000001  L 13.8125 14.187500000000004  C 13.815878384038584 14.24566772181634  13.842992852970077 14.299896659679334  13.8875 14.337500000000002  C 13.983672478364749 14.400707381788166  14.097592922888845 14.431378270698499  14.212499999999999 14.425000000000002  L 15.387500000000003 14.425  C 15.650937370708704 14.411162271767985  15.908508234264882 14.506056800446576  16.1 14.687500000000004  C 16.249878434605222 14.832628187796871  16.339207048386616 15.029151138115939  16.349999999999998 15.237500000000004  Z " fill-rule="evenodd" />
    </mask>
  </defs>
  <g transform="matrix(1 0 0 1 -213 -440 )">
    <path d="M 17.75 16.5  L 17.75 11.5  L 17.75 2.075  C 17.723470549992626 1.0588742165775593  16.89211076610319 0.24893663232543384  15.87563872051927 0.24893663232543384  C 15.854588003309935 0.24893663232543384  15.833538778728151 0.24929113847967455  15.8125 0.25  L 2.062499999999999 0.25  C 1.0731975114661347 0.28882229916544433  0.28202213274371246 1.0854540598100901  0.25 2.075  L 0.25 16.5  C 0.25 17.19035593728849  0.8096440627115082 17.75  1.5 17.75  L 16.5 17.75  C 17.19035593728849 17.75  17.75 17.19035593728849  17.75 16.5  Z M 7.75 10.25  L 1.5 10.25  L 1.5 2.075  C 1.5066501322196317 1.7326144343210395  1.7826144343210397 1.4566501322196315  2.125 1.4500000000000002  L 15.875 1.4500000000000002  C 16.220177968644247 1.4500000000000002  16.5 1.729822031355754  16.5 2.075  L 16.5 10.25  L 10.25 10.25  L 9 11.424999999999999  L 7.75 10.25  Z M 5.1875 13.787500000000001  L 5.25 15.712500000000002  C 5.252153931640279 15.737489243201278  5.253232391462591 15.762559544861698  5.253232391462591 15.787641444655844  C 5.253232391462591 16.270890600757788  4.861481547564535 16.662641444655844  4.378232391462591 16.662641444655844  C 4.372987943058928 16.662641444655844  4.36774360063315 16.66259429453176  4.3625 16.6625  L 2.4499999999999993 16.662499999999998  C 2.2495164321033867 16.673522308677217  2.0512198727729114 16.616236635981746  1.8874999999999993 16.5  C 1.6100469416387782 16.305225702326855  1.461363653210956 15.97428547969718  1.4999999999999996 15.6375  L 1.4999999999999996 11.137500000000001  L 2.2624999999999993 11.137500000000001  L 2.2624999999999993 12.962500000000002  L 4.1375 12.962500000000002  C 4.422667083542202 12.938987753856365  4.7056110183382565 13.028811225220192  4.924999999999999 13.212500000000002  C 5.088956185819715 13.359100522301635  5.184134494392363 13.567586341079812  5.1875 13.787500000000001  Z M 9 13.849999999999998  L 9 15.712500000000002  C 9.008212592701097 15.987160973400918  8.904438517572002 16.253364035688598  8.712499999999999 16.45  C 8.504042132597476 16.625774107946544  8.234138474787905 16.71124359958624  7.9625 16.6875  L 6.6125 16.6875  C 6.340861525212093 16.71124359958624  6.070957867402524 16.625774107946544  5.862500000000001 16.450000000000003  C 5.6738715978202245 16.252095137790697  5.574496645892198 15.98558958489281  5.5875 15.712500000000002  L 5.5874999999999995 13.849999999999998  C 5.582927939264229 13.611389528746097  5.683491852814377 13.382835179768488  5.862500000000001 13.225000000000003  C 6.0735115191706655 13.053913690138396  6.341471699803521 12.969059632937991  6.6125 12.9875  L 7.962499999999999 12.9875  C 8.23701761436337 12.97190775675427  8.507891630471013 13.056278351935338  8.725 13.224999999999998  C 8.904008147185621 13.382835179768488  9.00457206073577 13.611389528746098  9 13.849999999999998  Z M 12.6625 15.237500000000004  L 12.6625 15.8125  C 12.670706451134993 16.050393565834728  12.580232513579126 16.281102106602184  12.412500000000001 16.450000000000003  C 12.203963396273723 16.626701657446645  11.935350277449011 16.71623936372155  11.662500000000001 16.7  L 9.375 16.7  L 9.375 16.0125  L 11.575000000000001 16.0125  C 11.787500000000001 16.0125  11.9 15.9375  11.9 15.7625  L 11.9 15.375  C 11.9 15.1875  11.787500000000001 15.099999999999998  11.575000000000001 15.099999999999998  L 10.325000000000001 15.099999999999998  C 10.067604166442251 15.113760693994088  9.815444300358386 15.023703598964136  9.624999999999998 14.85  C 9.463130277877834 14.69152059382624  9.369032309847977 14.476439524043714  9.362499999999999 14.25  L 9.362499999999999 13.874999999999998  C 9.356024672763823 13.634961126033861  9.451380678873898 13.403382254052257  9.625 13.237499999999999  C 9.792166817787937 13.067131462877231  10.02408414472453 12.97618349152955  10.2625 12.9875  L 12.575 12.9875  L 12.575 13.662500000000001  L 10.474999999999998 13.662500000000003  C 10.389737159207806 13.660684000109793  10.306256612802256 13.687046277922072  10.2375 13.737500000000004  C 10.176862639480479 13.77530889470463  10.139288695481769 13.841063296702373  10.1375 13.912500000000001  L 10.1375 14.187500000000004  C 10.140878384038581 14.24566772181634  10.16799285297008 14.299896659679334  10.2125 14.337499999999999  C 10.304438593496005 14.39974688787458  10.414105280994363 14.43045356037412  10.525 14.425000000000002  L 11.7125 14.425  C 11.975937370708703 14.411162271767985  12.233508234264885 14.506056800446576  12.425 14.687500000000004  C 12.572415024301012 14.833152139441973  12.657558026176368 15.0303254069428  12.6625 15.237500000000004  Z M 16.349999999999998 15.237500000000004  L 16.4125 15.8125  C 16.42223987944382 16.05312767982244  16.32635194930253 16.285998367308416  16.149999999999995 16.450000000000003  C 15.945951819342657 16.62592996651598  15.681468607467913 16.715585292575216  15.412499999999998 16.7  L 13.049999999999997 16.7  L 13.049999999999997 16.0125  L 15.25 16.0125  C 15.475000000000001 16.0125  15.575 15.9375  15.575 15.7625  L 15.575 15.375  C 15.575 15.1875  15.475000000000001 15.099999999999998  15.25 15.099999999999998  L 14 15.099999999999998  C 13.738361945722964 15.117194288540912  13.481033526654429 15.026903615183528  13.287499999999998 14.85  C 13.125630277877834 14.69152059382624  13.031532309847979 14.476439524043712  13.024999999999999 14.25  L 13.024999999999999 13.874999999999998  C 13.018524672763824 13.634961126033861  13.113880678873901 13.403382254052257  13.287500000000001 13.237499999999999  C 13.459396733452097 13.066509686682265  13.695325410575224 12.975767887788756  13.9375 12.9875  L 16.237499999999997 12.9875  L 16.237499999999997 13.662500000000001  L 14.162499999999998 13.662500000000001  C 14.07336278657121 13.660658726019122  13.985903761313459 13.68689643359645  13.912500000000001 13.737500000000004  C 13.851862639480476 13.77530889470463  13.814288695481768 13.841063296702375  13.8125 13.912500000000001  L 13.8125 14.187500000000004  C 13.815878384038584 14.24566772181634  13.842992852970077 14.299896659679334  13.8875 14.337500000000002  C 13.983672478364749 14.400707381788166  14.097592922888845 14.431378270698499  14.212499999999999 14.425000000000002  L 15.387500000000003 14.425  C 15.650937370708704 14.411162271767985  15.908508234264882 14.506056800446576  16.1 14.687500000000004  C 16.249878434605222 14.832628187796871  16.339207048386616 15.029151138115939  16.349999999999998 15.237500000000004  Z " fill-rule="nonzero" fill="rgba(85, 85, 85, 1)" stroke="none" transform="matrix(1 0 0 1 213 440 )" class="fill" />
    <path d="M 17.75 16.5  L 17.75 11.5  L 17.75 2.075  C 17.723470549992626 1.0588742165775593  16.89211076610319 0.24893663232543384  15.87563872051927 0.24893663232543384  C 15.854588003309935 0.24893663232543384  15.833538778728151 0.24929113847967455  15.8125 0.25  L 2.062499999999999 0.25  C 1.0731975114661347 0.28882229916544433  0.28202213274371246 1.0854540598100901  0.25 2.075  L 0.25 16.5  C 0.25 17.19035593728849  0.8096440627115082 17.75  1.5 17.75  L 16.5 17.75  C 17.19035593728849 17.75  17.75 17.19035593728849  17.75 16.5  Z " stroke-width="0" stroke-dasharray="0" stroke="rgba(255, 255, 255, 0)" fill="none" transform="matrix(1 0 0 1 213 440 )" class="stroke" mask="url(#Clip9030)" />
    <path d="M 7.75 10.25  L 1.5 10.25  L 1.5 2.075  C 1.5066501322196317 1.7326144343210395  1.7826144343210397 1.4566501322196315  2.125 1.4500000000000002  L 15.875 1.4500000000000002  C 16.220177968644247 1.4500000000000002  16.5 1.729822031355754  16.5 2.075  L 16.5 10.25  L 10.25 10.25  L 9 11.424999999999999  L 7.75 10.25  Z " stroke-width="0" stroke-dasharray="0" stroke="rgba(255, 255, 255, 0)" fill="none" transform="matrix(1 0 0 1 213 440 )" class="stroke" mask="url(#Clip9030)" />
    <path d="M 5.1875 13.787500000000001  L 5.25 15.712500000000002  C 5.252153931640279 15.737489243201278  5.253232391462591 15.762559544861698  5.253232391462591 15.787641444655844  C 5.253232391462591 16.270890600757788  4.861481547564535 16.662641444655844  4.378232391462591 16.662641444655844  C 4.372987943058928 16.662641444655844  4.36774360063315 16.66259429453176  4.3625 16.6625  L 2.4499999999999993 16.662499999999998  C 2.2495164321033867 16.673522308677217  2.0512198727729114 16.616236635981746  1.8874999999999993 16.5  C 1.6100469416387782 16.305225702326855  1.461363653210956 15.97428547969718  1.4999999999999996 15.6375  L 1.4999999999999996 11.137500000000001  L 2.2624999999999993 11.137500000000001  L 2.2624999999999993 12.962500000000002  L 4.1375 12.962500000000002  C 4.422667083542202 12.938987753856365  4.7056110183382565 13.028811225220192  4.924999999999999 13.212500000000002  C 5.088956185819715 13.359100522301635  5.184134494392363 13.567586341079812  5.1875 13.787500000000001  Z " stroke-width="0" stroke-dasharray="0" stroke="rgba(255, 255, 255, 0)" fill="none" transform="matrix(1 0 0 1 213 440 )" class="stroke" mask="url(#Clip9030)" />
    <path d="M 9 13.849999999999998  L 9 15.712500000000002  C 9.008212592701097 15.987160973400918  8.904438517572002 16.253364035688598  8.712499999999999 16.45  C 8.504042132597476 16.625774107946544  8.234138474787905 16.71124359958624  7.9625 16.6875  L 6.6125 16.6875  C 6.340861525212093 16.71124359958624  6.070957867402524 16.625774107946544  5.862500000000001 16.450000000000003  C 5.6738715978202245 16.252095137790697  5.574496645892198 15.98558958489281  5.5875 15.712500000000002  L 5.5874999999999995 13.849999999999998  C 5.582927939264229 13.611389528746097  5.683491852814377 13.382835179768488  5.862500000000001 13.225000000000003  C 6.0735115191706655 13.053913690138396  6.341471699803521 12.969059632937991  6.6125 12.9875  L 7.962499999999999 12.9875  C 8.23701761436337 12.97190775675427  8.507891630471013 13.056278351935338  8.725 13.224999999999998  C 8.904008147185621 13.382835179768488  9.00457206073577 13.611389528746098  9 13.849999999999998  Z " stroke-width="0" stroke-dasharray="0" stroke="rgba(255, 255, 255, 0)" fill="none" transform="matrix(1 0 0 1 213 440 )" class="stroke" mask="url(#Clip9030)" />
    <path d="M 12.6625 15.237500000000004  L 12.6625 15.8125  C 12.670706451134993 16.050393565834728  12.580232513579126 16.281102106602184  12.412500000000001 16.450000000000003  C 12.203963396273723 16.626701657446645  11.935350277449011 16.71623936372155  11.662500000000001 16.7  L 9.375 16.7  L 9.375 16.0125  L 11.575000000000001 16.0125  C 11.787500000000001 16.0125  11.9 15.9375  11.9 15.7625  L 11.9 15.375  C 11.9 15.1875  11.787500000000001 15.099999999999998  11.575000000000001 15.099999999999998  L 10.325000000000001 15.099999999999998  C 10.067604166442251 15.113760693994088  9.815444300358386 15.023703598964136  9.624999999999998 14.85  C 9.463130277877834 14.69152059382624  9.369032309847977 14.476439524043714  9.362499999999999 14.25  L 9.362499999999999 13.874999999999998  C 9.356024672763823 13.634961126033861  9.451380678873898 13.403382254052257  9.625 13.237499999999999  C 9.792166817787937 13.067131462877231  10.02408414472453 12.97618349152955  10.2625 12.9875  L 12.575 12.9875  L 12.575 13.662500000000001  L 10.474999999999998 13.662500000000003  C 10.389737159207806 13.660684000109793  10.306256612802256 13.687046277922072  10.2375 13.737500000000004  C 10.176862639480479 13.77530889470463  10.139288695481769 13.841063296702373  10.1375 13.912500000000001  L 10.1375 14.187500000000004  C 10.140878384038581 14.24566772181634  10.16799285297008 14.299896659679334  10.2125 14.337499999999999  C 10.304438593496005 14.39974688787458  10.414105280994363 14.43045356037412  10.525 14.425000000000002  L 11.7125 14.425  C 11.975937370708703 14.411162271767985  12.233508234264885 14.506056800446576  12.425 14.687500000000004  C 12.572415024301012 14.833152139441973  12.657558026176368 15.0303254069428  12.6625 15.237500000000004  Z " stroke-width="0" stroke-dasharray="0" stroke="rgba(255, 255, 255, 0)" fill="none" transform="matrix(1 0 0 1 213 440 )" class="stroke" mask="url(#Clip9030)" />
    <path d="M 16.349999999999998 15.237500000000004  L 16.4125 15.8125  C 16.42223987944382 16.05312767982244  16.32635194930253 16.285998367308416  16.149999999999995 16.450000000000003  C 15.945951819342657 16.62592996651598  15.681468607467913 16.715585292575216  15.412499999999998 16.7  L 13.049999999999997 16.7  L 13.049999999999997 16.0125  L 15.25 16.0125  C 15.475000000000001 16.0125  15.575 15.9375  15.575 15.7625  L 15.575 15.375  C 15.575 15.1875  15.475000000000001 15.099999999999998  15.25 15.099999999999998  L 14 15.099999999999998  C 13.738361945722964 15.117194288540912  13.481033526654429 15.026903615183528  13.287499999999998 14.85  C 13.125630277877834 14.69152059382624  13.031532309847979 14.476439524043712  13.024999999999999 14.25  L 13.024999999999999 13.874999999999998  C 13.018524672763824 13.634961126033861  13.113880678873901 13.403382254052257  13.287500000000001 13.237499999999999  C 13.459396733452097 13.066509686682265  13.695325410575224 12.975767887788756  13.9375 12.9875  L 16.237499999999997 12.9875  L 16.237499999999997 13.662500000000001  L 14.162499999999998 13.662500000000001  C 14.07336278657121 13.660658726019122  13.985903761313459 13.68689643359645  13.912500000000001 13.737500000000004  C 13.851862639480476 13.77530889470463  13.814288695481768 13.841063296702375  13.8125 13.912500000000001  L 13.8125 14.187500000000004  C 13.815878384038584 14.24566772181634  13.842992852970077 14.299896659679334  13.8875 14.337500000000002  C 13.983672478364749 14.400707381788166  14.097592922888845 14.431378270698499  14.212499999999999 14.425000000000002  L 15.387500000000003 14.425  C 15.650937370708704 14.411162271767985  15.908508234264882 14.506056800446576  16.1 14.687500000000004  C 16.249878434605222 14.832628187796871  16.339207048386616 15.029151138115939  16.349999999999998 15.237500000000004  Z " stroke-width="0" stroke-dasharray="0" stroke="rgba(255, 255, 255, 0)" fill="none" transform="matrix(1 0 0 1 213 440 )" class="stroke" mask="url(#Clip9030)" />
  </g>
</svg>