<?xml version="1.0" encoding="utf-8"?>
<svg version="1.1" xmlns:xlink="http://www.w3.org/1999/xlink" width="22px" height="19px" xmlns="http://www.w3.org/2000/svg">
  <defs>
    <pattern id="BGPattern" patternUnits="userSpaceOnUse" alignment="0 0" imageRepeat="None" />
    <mask fill="white" id="Clip9032">
      <path d="M 11.876265424406832 1.946708325534986  C 14.096958333333335 -0.29222826086956577  17.697523148148147 -0.29222826086956577  19.91870833333333 1.9467083255349866  C 22.094895010304082 4.135267140497657  22.144996324913446 7.6864402987184395  20.031441350332752 9.93720652173913  L 19.918216057074652 10.05399456521739  L 11.526743834852432 18.514140390752377  C 11.257133213926897 18.785503023810552  10.829280733021386 18.80765397368848  10.533807091073497 18.56554710924762  L 10.477686720703126 18.514140390752377  L 9.465550925925925 17.493991847826084  C 9.326448515106499 17.354164737153248  9.24820135313936 17.16379702656202  9.24820135313936 16.965201543754247  C 9.24820135313936 16.766606060946472  9.326448515106499 16.576238350355244  9.465550925925925 16.436411239682403  C 9.735161543703086 16.165048620425992  10.163014008634569 16.142897670860286  10.45848764662905 16.385004521187163  L 10.514608016999423 16.436411239682403  L 11.001969128110531 16.92751993533458  L 18.869651242259835 8.99691304347826  C 20.472287010278738 7.385293228683008  20.515962453398213 4.772350741516812  18.968108016999423 3.1066032608695644  L 18.869651242259838 3.003789847274116  C 17.22788425925926 1.3492925646654204  14.567089521556712 1.3492925646654204  12.925322538556133 3.003789847274116  L 8.520858016999423 7.44423097826087  C 8.230540410498017 7.735912808305749  7.762610808686012 7.735912808305749  7.4722932021846065 7.444230978260867  C 7.333039015916461 7.304384531695366  7.254695249668657 7.113909508526172  7.254695249668657 6.915191119289232  C 7.254695249668657 6.71647273005229  7.333039015916461 6.525997706883096  7.4722932021846065 6.386151260317595  L 11.876265424406832 1.946708325534986  Z M 2.0807993904079862 1.946708325534986  C 3.900280871889468 0.11203804347826095  6.697438279296875 -0.2503043478260869  8.902870370370369 1.0094094124915087  C 9.259776242259836 1.212540760869566  9.385308649667245 1.6692119565217391  9.183472222222223 2.028559782608696  C 8.98114351851852 2.387907608695652  8.528734575593173 2.5141784342306392  8.172320979962384 2.31054799944803  C 6.527486229002193 1.3740537935063644  4.469496913302819 1.6572190740218231  3.130348757740161 3.004288957073708  C 1.5283499113450003 4.615791063841721  1.4846796035704872 7.227983574093562  3.0318919830005795 8.893600543478263  L 3.1303487577401623 8.996413957073711  L 7.567796296296297 13.46979528205673  L 7.914856481481482 13.10745289075238  C 8.585264824042596 12.419656364580748  9.266342497901261 11.742633890618654  9.957834868851275 11.076638586956523  L 13.537723757740162 7.65584691249151  C 14.216091033998843 7.0035307815047565  14.634040108072917 6.587785326086959  14.86689042440683 6.328755434782611  C 15.143496046610121 6.022811209030965  15.611793447580048 6.000521267747901  15.915455239221645 6.278846022291103  C 16.218209868851275 6.556342391304351  16.240362646629052 7.029483695652176  15.964683649667249 7.33492934782609  L 15.818967592592596 7.492643108143685  C 15.48443971256562 7.84045380453818  15.14271877658186 8.181078051599435  14.794032407407412 8.514288957073711  L 11.552834868851276 11.608173913043482  L 11.186575609592019 11.96053441249151  C 9.837717592592597 13.263170282056725  8.839365740740746 14.267846912491512  8.134907407407415 15.048929347826089  C 7.868630474810327 15.343366600897419  7.4222325249833 15.376615110183758  7.116371905888316 15.124791674465015  L 7.062220686704288 15.074882238578466  L 2.0807993904079862 10.05399456521739  C 1.0148854116538817 8.981864746917807  0.41534880916743755 7.522615549651396  0.41534880916743755 6.000351445376189  C 0.41534880916743755 4.478087341100981  1.0148854116538817 3.018838143834571  2.0807993904079862 1.946708325534986  Z " fill-rule="evenodd" />
    </mask>
  </defs>
  <g transform="matrix(1 0 0 1 -134 -368 )">
    <path d="M 11.876265424406832 1.946708325534986  C 14.096958333333335 -0.29222826086956577  17.697523148148147 -0.29222826086956577  19.91870833333333 1.9467083255349866  C 22.094895010304082 4.135267140497657  22.144996324913446 7.6864402987184395  20.031441350332752 9.93720652173913  L 19.918216057074652 10.05399456521739  L 11.526743834852432 18.514140390752377  C 11.257133213926897 18.785503023810552  10.829280733021386 18.80765397368848  10.533807091073497 18.56554710924762  L 10.477686720703126 18.514140390752377  L 9.465550925925925 17.493991847826084  C 9.326448515106499 17.354164737153248  9.24820135313936 17.16379702656202  9.24820135313936 16.965201543754247  C 9.24820135313936 16.766606060946472  9.326448515106499 16.576238350355244  9.465550925925925 16.436411239682403  C 9.735161543703086 16.165048620425992  10.163014008634569 16.142897670860286  10.45848764662905 16.385004521187163  L 10.514608016999423 16.436411239682403  L 11.001969128110531 16.92751993533458  L 18.869651242259835 8.99691304347826  C 20.472287010278738 7.385293228683008  20.515962453398213 4.772350741516812  18.968108016999423 3.1066032608695644  L 18.869651242259838 3.003789847274116  C 17.22788425925926 1.3492925646654204  14.567089521556712 1.3492925646654204  12.925322538556133 3.003789847274116  L 8.520858016999423 7.44423097826087  C 8.230540410498017 7.735912808305749  7.762610808686012 7.735912808305749  7.4722932021846065 7.444230978260867  C 7.333039015916461 7.304384531695366  7.254695249668657 7.113909508526172  7.254695249668657 6.915191119289232  C 7.254695249668657 6.71647273005229  7.333039015916461 6.525997706883096  7.4722932021846065 6.386151260317595  L 11.876265424406832 1.946708325534986  Z M 2.0807993904079862 1.946708325534986  C 3.900280871889468 0.11203804347826095  6.697438279296875 -0.2503043478260869  8.902870370370369 1.0094094124915087  C 9.259776242259836 1.212540760869566  9.385308649667245 1.6692119565217391  9.183472222222223 2.028559782608696  C 8.98114351851852 2.387907608695652  8.528734575593173 2.5141784342306392  8.172320979962384 2.31054799944803  C 6.527486229002193 1.3740537935063644  4.469496913302819 1.6572190740218231  3.130348757740161 3.004288957073708  C 1.5283499113450003 4.615791063841721  1.4846796035704872 7.227983574093562  3.0318919830005795 8.893600543478263  L 3.1303487577401623 8.996413957073711  L 7.567796296296297 13.46979528205673  L 7.914856481481482 13.10745289075238  C 8.585264824042596 12.419656364580748  9.266342497901261 11.742633890618654  9.957834868851275 11.076638586956523  L 13.537723757740162 7.65584691249151  C 14.216091033998843 7.0035307815047565  14.634040108072917 6.587785326086959  14.86689042440683 6.328755434782611  C 15.143496046610121 6.022811209030965  15.611793447580048 6.000521267747901  15.915455239221645 6.278846022291103  C 16.218209868851275 6.556342391304351  16.240362646629052 7.029483695652176  15.964683649667249 7.33492934782609  L 15.818967592592596 7.492643108143685  C 15.48443971256562 7.84045380453818  15.14271877658186 8.181078051599435  14.794032407407412 8.514288957073711  L 11.552834868851276 11.608173913043482  L 11.186575609592019 11.96053441249151  C 9.837717592592597 13.263170282056725  8.839365740740746 14.267846912491512  8.134907407407415 15.048929347826089  C 7.868630474810327 15.343366600897419  7.4222325249833 15.376615110183758  7.116371905888316 15.124791674465015  L 7.062220686704288 15.074882238578466  L 2.0807993904079862 10.05399456521739  C 1.0148854116538817 8.981864746917807  0.41534880916743755 7.522615549651396  0.41534880916743755 6.000351445376189  C 0.41534880916743755 4.478087341100981  1.0148854116538817 3.018838143834571  2.0807993904079862 1.946708325534986  Z " fill-rule="nonzero" fill="rgba(85, 85, 85, 1)" stroke="none" transform="matrix(1 0 0 1 134 368 )" class="fill" />
    <path d="M 11.876265424406832 1.946708325534986  C 14.096958333333335 -0.29222826086956577  17.697523148148147 -0.29222826086956577  19.91870833333333 1.9467083255349866  C 22.094895010304082 4.135267140497657  22.144996324913446 7.6864402987184395  20.031441350332752 9.93720652173913  L 19.918216057074652 10.05399456521739  L 11.526743834852432 18.514140390752377  C 11.257133213926897 18.785503023810552  10.829280733021386 18.80765397368848  10.533807091073497 18.56554710924762  L 10.477686720703126 18.514140390752377  L 9.465550925925925 17.493991847826084  C 9.326448515106499 17.354164737153248  9.24820135313936 17.16379702656202  9.24820135313936 16.965201543754247  C 9.24820135313936 16.766606060946472  9.326448515106499 16.576238350355244  9.465550925925925 16.436411239682403  C 9.735161543703086 16.165048620425992  10.163014008634569 16.142897670860286  10.45848764662905 16.385004521187163  L 10.514608016999423 16.436411239682403  L 11.001969128110531 16.92751993533458  L 18.869651242259835 8.99691304347826  C 20.472287010278738 7.385293228683008  20.515962453398213 4.772350741516812  18.968108016999423 3.1066032608695644  L 18.869651242259838 3.003789847274116  C 17.22788425925926 1.3492925646654204  14.567089521556712 1.3492925646654204  12.925322538556133 3.003789847274116  L 8.520858016999423 7.44423097826087  C 8.230540410498017 7.735912808305749  7.762610808686012 7.735912808305749  7.4722932021846065 7.444230978260867  C 7.333039015916461 7.304384531695366  7.254695249668657 7.113909508526172  7.254695249668657 6.915191119289232  C 7.254695249668657 6.71647273005229  7.333039015916461 6.525997706883096  7.4722932021846065 6.386151260317595  L 11.876265424406832 1.946708325534986  Z " stroke-width="0" stroke-dasharray="0" stroke="rgba(255, 255, 255, 0)" fill="none" transform="matrix(1 0 0 1 134 368 )" class="stroke" mask="url(#Clip9032)" />
    <path d="M 2.0807993904079862 1.946708325534986  C 3.900280871889468 0.11203804347826095  6.697438279296875 -0.2503043478260869  8.902870370370369 1.0094094124915087  C 9.259776242259836 1.212540760869566  9.385308649667245 1.6692119565217391  9.183472222222223 2.028559782608696  C 8.98114351851852 2.387907608695652  8.528734575593173 2.5141784342306392  8.172320979962384 2.31054799944803  C 6.527486229002193 1.3740537935063644  4.469496913302819 1.6572190740218231  3.130348757740161 3.004288957073708  C 1.5283499113450003 4.615791063841721  1.4846796035704872 7.227983574093562  3.0318919830005795 8.893600543478263  L 3.1303487577401623 8.996413957073711  L 7.567796296296297 13.46979528205673  L 7.914856481481482 13.10745289075238  C 8.585264824042596 12.419656364580748  9.266342497901261 11.742633890618654  9.957834868851275 11.076638586956523  L 13.537723757740162 7.65584691249151  C 14.216091033998843 7.0035307815047565  14.634040108072917 6.587785326086959  14.86689042440683 6.328755434782611  C 15.143496046610121 6.022811209030965  15.611793447580048 6.000521267747901  15.915455239221645 6.278846022291103  C 16.218209868851275 6.556342391304351  16.240362646629052 7.029483695652176  15.964683649667249 7.33492934782609  L 15.818967592592596 7.492643108143685  C 15.48443971256562 7.84045380453818  15.14271877658186 8.181078051599435  14.794032407407412 8.514288957073711  L 11.552834868851276 11.608173913043482  L 11.186575609592019 11.96053441249151  C 9.837717592592597 13.263170282056725  8.839365740740746 14.267846912491512  8.134907407407415 15.048929347826089  C 7.868630474810327 15.343366600897419  7.4222325249833 15.376615110183758  7.116371905888316 15.124791674465015  L 7.062220686704288 15.074882238578466  L 2.0807993904079862 10.05399456521739  C 1.0148854116538817 8.981864746917807  0.41534880916743755 7.522615549651396  0.41534880916743755 6.000351445376189  C 0.41534880916743755 4.478087341100981  1.0148854116538817 3.018838143834571  2.0807993904079862 1.946708325534986  Z " stroke-width="0" stroke-dasharray="0" stroke="rgba(255, 255, 255, 0)" fill="none" transform="matrix(1 0 0 1 134 368 )" class="stroke" mask="url(#Clip9032)" />
  </g>
</svg>