<?xml version="1.0" encoding="utf-8"?>
<svg version="1.1" xmlns:xlink="http://www.w3.org/1999/xlink" width="13px" height="13px" xmlns="http://www.w3.org/2000/svg">
  <defs>
    <pattern id="BGPattern" patternUnits="userSpaceOnUse" alignment="0 0" imageRepeat="None" />
    <mask fill="white" id="Clip3921">
      <path d="M 2.4625000000000004 11  C 2.4625000000000004 10.762500000000001  2.3500000000000005 10.637500000000001  2.1375 10.637500000000001  L 0.4249999999999998 10.6375  C 0.3313414872698024 10.691567990501902  0.27403194689246035 10.79185968616225  0.27500000000000036 10.900000000000002  L 0.27500000000000036 12.537500000000001  C 0.27500000000000036 12.787500000000001  0.40000000000000036 12.925000000000004  0.6250000000000004 12.925000000000004  L 2.075000000000001 12.925000000000004  C 2.186102611797539 12.932377457477894  2.2963827978069444 12.901499005395259  2.387500000000001 12.837500000000002  C 2.443440265167114 12.75252390024204  2.4698011454764393 12.651473859056289  2.4625000000000004 12.550000000000004  L 2.4625000000000004 11  Z M 5.879052554226426 10.670947445773574  C 5.860959147776551 10.670947445773574  5.842891131937382 10.672302083218558  5.824999999999999 10.675  L 4.762499999999999 10.675  C 4.651184030596133 10.665464843991957  4.540179070881029 10.696546232712189  4.45 10.762500000000001  C 4.37660705814171 10.854204914713229  4.340855086626257 10.970398822138453  4.35 11.0875  L 4.35 12.537500000000001  C 4.35 12.8  4.475 12.9375  4.7125 12.9375  L 5.875 12.9375  C 6.112500000000001 12.9375  6.237499999999999 12.8  6.237499999999999 12.537500000000001  L 6.237499999999999 11.0875  C 6.240197916781442 11.069608868062616  6.241552554226425 11.051540852223456  6.241552554226425 11.033447445773575  C 6.241552554226425 10.833244223959912  6.079255776040089 10.670947445773574  5.879052554226426 10.670947445773574  Z M 1.375 1.4874999999999998  C 1.375 1.8326779686442451  1.6548220313557547 2.1125  2 2.1125  L 12 2.1125  C 12.345177968644245 2.1125  12.625 1.8326779686442451  12.625 1.4874999999999998  C 12.625 1.1423220313557536  12.345177968644245 0.8624999999999998  12 1  L 2 1  C 1.6576144343210384 0.8691501322196302  1.3816501322196313 1.145114434321039  1.375 1.4874999999999998  Z M 12 5  C 12.33038482756644 4.717133458571173  12.577411373235506 4.431680561353588  12.5625 4.100000000000001  C 12.551537963658973 3.787428953266634  12.311214717890735 3.531084157780515  12 3.5  L 2 3.5  C 1.6576144343210393 3.5066501322196317  1.3816501322196313 3.7826144343210393  1.375 4.125  C 1.375 4.470177968644245  1.6548220313557547 4.75  2 5  L 12 5  Z " fill-rule="evenodd" />
    </mask>
  </defs>
  <g transform="matrix(1 0 0 1 -215 -443 )">
    <path d="M 2.4625000000000004 11  C 2.4625000000000004 10.762500000000001  2.3500000000000005 10.637500000000001  2.1375 10.637500000000001  L 0.4249999999999998 10.6375  C 0.3313414872698024 10.691567990501902  0.27403194689246035 10.79185968616225  0.27500000000000036 10.900000000000002  L 0.27500000000000036 12.537500000000001  C 0.27500000000000036 12.787500000000001  0.40000000000000036 12.925000000000004  0.6250000000000004 12.925000000000004  L 2.075000000000001 12.925000000000004  C 2.186102611797539 12.932377457477894  2.2963827978069444 12.901499005395259  2.387500000000001 12.837500000000002  C 2.443440265167114 12.75252390024204  2.4698011454764393 12.651473859056289  2.4625000000000004 12.550000000000004  L 2.4625000000000004 11  Z M 5.879052554226426 10.670947445773574  C 5.860959147776551 10.670947445773574  5.842891131937382 10.672302083218558  5.824999999999999 10.675  L 4.762499999999999 10.675  C 4.651184030596133 10.665464843991957  4.540179070881029 10.696546232712189  4.45 10.762500000000001  C 4.37660705814171 10.854204914713229  4.340855086626257 10.970398822138453  4.35 11.0875  L 4.35 12.537500000000001  C 4.35 12.8  4.475 12.9375  4.7125 12.9375  L 5.875 12.9375  C 6.112500000000001 12.9375  6.237499999999999 12.8  6.237499999999999 12.537500000000001  L 6.237499999999999 11.0875  C 6.240197916781442 11.069608868062616  6.241552554226425 11.051540852223456  6.241552554226425 11.033447445773575  C 6.241552554226425 10.833244223959912  6.079255776040089 10.670947445773574  5.879052554226426 10.670947445773574  Z M 1.375 1.4874999999999998  C 1.375 1.8326779686442451  1.6548220313557547 2.1125  2 2.1125  L 12 2.1125  C 12.345177968644245 2.1125  12.625 1.8326779686442451  12.625 1.4874999999999998  C 12.625 1.1423220313557536  12.345177968644245 0.8624999999999998  12 1  L 2 1  C 1.6576144343210384 0.8691501322196302  1.3816501322196313 1.145114434321039  1.375 1.4874999999999998  Z M 12 5  C 12.33038482756644 4.717133458571173  12.577411373235506 4.431680561353588  12.5625 4.100000000000001  C 12.551537963658973 3.787428953266634  12.311214717890735 3.531084157780515  12 3.5  L 2 3.5  C 1.6576144343210393 3.5066501322196317  1.3816501322196313 3.7826144343210393  1.375 4.125  C 1.375 4.470177968644245  1.6548220313557547 4.75  2 5  L 12 5  Z " fill-rule="nonzero" fill="rgba(85, 85, 85, 1)" stroke="none" transform="matrix(1 0 0 1 215 443 )" class="fill" />
    <path d="M 2.4625000000000004 11  C 2.4625000000000004 10.762500000000001  2.3500000000000005 10.637500000000001  2.1375 10.637500000000001  L 0.4249999999999998 10.6375  C 0.3313414872698024 10.691567990501902  0.27403194689246035 10.79185968616225  0.27500000000000036 10.900000000000002  L 0.27500000000000036 12.537500000000001  C 0.27500000000000036 12.787500000000001  0.40000000000000036 12.925000000000004  0.6250000000000004 12.925000000000004  L 2.075000000000001 12.925000000000004  C 2.186102611797539 12.932377457477894  2.2963827978069444 12.901499005395259  2.387500000000001 12.837500000000002  C 2.443440265167114 12.75252390024204  2.4698011454764393 12.651473859056289  2.4625000000000004 12.550000000000004  L 2.4625000000000004 11  Z " stroke-width="0" stroke-dasharray="0" stroke="rgba(255, 255, 255, 0)" fill="none" transform="matrix(1 0 0 1 215 443 )" class="stroke" mask="url(#Clip3921)" />
    <path d="M 5.879052554226426 10.670947445773574  C 5.860959147776551 10.670947445773574  5.842891131937382 10.672302083218558  5.824999999999999 10.675  L 4.762499999999999 10.675  C 4.651184030596133 10.665464843991957  4.540179070881029 10.696546232712189  4.45 10.762500000000001  C 4.37660705814171 10.854204914713229  4.340855086626257 10.970398822138453  4.35 11.0875  L 4.35 12.537500000000001  C 4.35 12.8  4.475 12.9375  4.7125 12.9375  L 5.875 12.9375  C 6.112500000000001 12.9375  6.237499999999999 12.8  6.237499999999999 12.537500000000001  L 6.237499999999999 11.0875  C 6.240197916781442 11.069608868062616  6.241552554226425 11.051540852223456  6.241552554226425 11.033447445773575  C 6.241552554226425 10.833244223959912  6.079255776040089 10.670947445773574  5.879052554226426 10.670947445773574  Z " stroke-width="0" stroke-dasharray="0" stroke="rgba(255, 255, 255, 0)" fill="none" transform="matrix(1 0 0 1 215 443 )" class="stroke" mask="url(#Clip3921)" />
    <path d="M 1.375 1.4874999999999998  C 1.375 1.8326779686442451  1.6548220313557547 2.1125  2 2.1125  L 12 2.1125  C 12.345177968644245 2.1125  12.625 1.8326779686442451  12.625 1.4874999999999998  C 12.625 1.1423220313557536  12.345177968644245 0.8624999999999998  12 1  L 2 1  C 1.6576144343210384 0.8691501322196302  1.3816501322196313 1.145114434321039  1.375 1.4874999999999998  Z " stroke-width="0" stroke-dasharray="0" stroke="rgba(255, 255, 255, 0)" fill="none" transform="matrix(1 0 0 1 215 443 )" class="stroke" mask="url(#Clip3921)" />
    <path d="M 12 5  C 12.33038482756644 4.717133458571173  12.577411373235506 4.431680561353588  12.5625 4.100000000000001  C 12.551537963658973 3.787428953266634  12.311214717890735 3.531084157780515  12 3.5  L 2 3.5  C 1.6576144343210393 3.5066501322196317  1.3816501322196313 3.7826144343210393  1.375 4.125  C 1.375 4.470177968644245  1.6548220313557547 4.75  2 5  L 12 5  Z " stroke-width="0" stroke-dasharray="0" stroke="rgba(255, 255, 255, 0)" fill="none" transform="matrix(1 0 0 1 215 443 )" class="stroke" mask="url(#Clip3921)" />
  </g>
</svg>