<?xml version="1.0" encoding="utf-8"?>
<svg version="1.1" xmlns:xlink="http://www.w3.org/1999/xlink" width="14px" height="16px" xmlns="http://www.w3.org/2000/svg">
  <defs>
    <pattern id="BGPattern" patternUnits="userSpaceOnUse" alignment="0 0" imageRepeat="None" />
    <mask fill="white" id="Clip5034">
      <path d="M 5.835546875 12.823046875  C 5.83984375 12.896093749999999  5.8763671875 12.9626953125  5.934374999999999 13.0099609375  L 6.697070312499999 13.635156250000001  L 6.697070312499999 13.753320312500001  L 5.934374999999999 14.378515625000002  C 5.8763671875 14.425781250000002  5.83984375 14.494531250000001  5.831249999999999 14.571875000000002  C 5.824804687499999 14.647070312500002  5.846289062499999 14.71796875  5.893554687499998 14.775976562500002  C 5.940820312499998 14.833984375000002  6.0095703124999975 14.870507812500001  6.0847656249999975 14.8791015625  C 6.1599609374999975 14.8876953125  6.233007812499999 14.8640625  6.291015624999998 14.816796875000001  L 6.6970703124999975 14.483789062500001  L 6.6970703124999975 14.8232421875  C 6.6970703124999975 14.977929687500001  6.823828124999999 15.1046875  6.978515624999998 15.1046875  C 7.133203124999998 15.1046875  7.259960937499997 14.977929687500001  7.259960937499997 14.8232421875  L 7.259960937499997 13.974609375  L 7.6316406249999975 13.974609375  L 7.6316406249999975 15.012304687499999  C 7.6316406249999975 15.1669921875  7.758398437499997 15.29375  7.913085937499997 15.29375  C 8.067773437499998 15.29375  8.194531249999997 15.1669921875  8.194531249999997 15.012304687499999  L 8.194531249999997 13.976757812499997  L 9.176367187499999 13.976757812499997  C 9.3310546875 13.976757812499997  9.4578125 13.849999999999998  9.4578125 13.695312499999998  C 9.4578125 13.540624999999997  9.333203125 13.413867187499998  9.178515625 13.413867187499998  L 8.1923828125 13.413867187499998  L 8.1923828125 12.384765625  C 8.1923828125 12.230078124999999  8.065625 12.1033203125  7.910937499999999 12.1033203125  C 7.756249999999998 12.10546875  7.6294921874999995 12.230078124999999  7.6294921874999995 12.384765625  L 7.6294921874999995 13.4138671875  L 7.2578125 13.4138671875  L 7.2578125 12.56953125  C 7.2578125 12.41484375  7.1310546875 12.2880859375  6.976367187499999 12.2880859375  C 6.8216796875 12.2880859375  6.694921874999999 12.41484375  6.694921874999999 12.56953125  L 6.694921874999999 12.908984375  L 6.291015625 12.5759765625  C 6.235156249999999 12.528710937499998  6.159960937499999 12.507226562499998  6.0869140625 12.513671875  C 6.013867187500001 12.520117187499999  5.94296875 12.556640625  5.895703125000001 12.616796874999999  C 5.8462890625 12.679101562499998  5.8248046875 12.754296874999998  5.835546875 12.823046875  Z M 9.769335937500005 7.252148437500001  C 9.775781250000003 7.3251953125  9.812304687500005 7.391796875000001  9.8703125 7.4390625  L 10.6330078125 8.064257812500001  L 10.6330078125 8.182421875000001  L 9.8703125 8.807617187500002  C 9.8123046875 8.854882812500001  9.775781250000001 8.923632812500001  9.767187500000002 9.000976562500002  C 9.760742187500002 9.076171875000002  9.782226562500002 9.147070312500002  9.829492187500001 9.205078125000002  C 9.8767578125 9.263085937500001  9.9455078125 9.299609375000001  10.020703125 9.308203125000002  C 10.0958984375 9.316796875000001  10.1689453125 9.293164062500002  10.226953125000001 9.245898437500003  L 10.6330078125 8.912890625000003  L 10.6330078125 9.252343750000001  C 10.6330078125 9.407031250000003  10.759765625 9.533789062500002  10.914453125000001 9.533789062500002  C 11.069140625000003 9.533789062500002  11.195898437500002 9.407031250000003  11.195898437500002 9.252343750000001  L 11.195898437500002 8.408007812500003  L 11.567578125 8.408007812500003  L 11.567578125 9.44140625  C 11.567578125 9.59609375  11.6943359375 9.7228515625  11.849023437500001 9.7228515625  C 12.003710937500003 9.7228515625  12.130468750000002 9.596093750000001  12.130468750000002 9.44140625  L 12.130468750000002 8.405859375  L 13.112304687500004 8.405859375  C 13.266992187500005 8.405859375  13.393750000000004 8.279101562500001  13.393750000000004 8.1244140625  C 13.393750000000004 7.969726562499998  13.269140625000006 7.842968749999999  13.114453125000004 7.842968749999999  L 12.128320312500005 7.842968749999999  L 12.128320312500005 6.8138671875  C 12.128320312500005 6.6591796875  12.001562500000006 6.532421874999999  11.846875000000002 6.532421874999999  C 11.692187500000003 6.5345703125  11.565429687500002 6.659179687499999  11.565429687500002 6.8138671875  L 11.565429687500002 7.842968749999999  L 11.193750000000003 7.842968749999999  L 11.193750000000003 6.998632812499999  C 11.193750000000003 6.843945312499999  11.066992187500004 6.717187499999999  10.912304687500002 6.717187499999999  C 10.757617187500003 6.717187499999999  10.630859375000002 6.843945312499998  10.630859375000002 6.998632812499999  L 10.630859375000002 7.338085937499999  L 10.224804687500002 7.005078124999999  C 10.168945312500002 6.957812499999999  10.093750000000002 6.936328124999999  10.020703125000002 6.9427734375  C 9.947656250000003 6.94921875  9.876757812500003 6.9857421875  9.829492187500003 7.0458984375  C 9.780078125000005 7.108203124999999  9.758593750000005 7.183398437499999  9.769335937500005 7.252148437500001  Z M 0.8748046875000011 1.3052734374999995  C 0.8812500000000013 1.3783203124999996  0.9177734375000011 1.4449218749999995  0.9757812499999997 1.4921875  L 1.7384765625000007 2.1173828125  L 1.7384765625000007 2.235546875  L 0.9757812500000007 2.8607421874999996  C 0.9177734375000011 2.9080078124999993  0.8812500000000005 2.9767578125  0.8726562500000004 3.0541015624999996  C 0.8662109375 3.1292968749999996  0.8876953125 3.2001953125  0.9349609375000005 3.2582031249999996  C 0.9822265625000012 3.3162109374999993  1.0509765625000007 3.352734375  1.1261718750000007 3.361328125  C 1.2013671875000007 3.369921875  1.2744140625000009 3.3462890625000004  1.3324218750000005 3.2990234375  L 1.7384765625000007 2.966015625  L 1.7384765625000007 3.30546875  C 1.7384765625000007 3.46015625  1.8652343749999998 3.5869140625  2.0199218750000014 3.5869140625  C 2.174609375000001 3.5869140625  2.3013671875000012 3.46015625  2.3013671875000012 3.30546875  L 2.3013671875000012 2.4611328125000007  L 2.6730468750000016 2.4611328125000007  L 2.6730468750000016 3.498828125000001  C 2.6730468750000016 3.6535156250000007  2.799804687500001 3.780273437500001  2.9544921875000023 3.780273437500001  C 3.109179687500002 3.780273437500001  3.235937500000003 3.6535156250000007  3.235937500000003 3.498828125000001  L 3.235937500000003 2.458984375  L 4.217773437500002 2.458984375  C 4.372460937500001 2.458984375  4.4992187500000025 2.3322265625  4.4992187500000025 2.1775390625  C 4.4992187500000025 2.0228515625000005  4.374609375000002 1.8960937500000004  4.2199218750000025 1.8960937500000004  L 3.233789062500003 1.8960937500000004  L 3.233789062500003 0.8648437500000004  C 3.233789062500003 0.7101562500000003  3.107031250000004 0.5833984375000003  2.9523437500000025 0.5833984375000003  C 2.797656250000003 0.5855468750000004  2.6708984375000027 0.7101562500000005  2.6708984375000027 0.8648437500000004  L 2.6708984375000027 1.8939453125000005  L 2.2992187500000023 1.8939453125000005  L 2.2992187500000023 1.0517578125  C 2.2992187500000023 0.8970703124999999  2.172460937500003 0.7703125000000002  2.0177734375000016 0.7703125000000002  C 1.863085937500002 0.7703125000000002  1.7363281250000009 0.8970703125000004  1.7363281250000009 1.0517578125  L 1.7363281250000009 1.3912109375  L 1.3302734375000007 1.058203125  C 1.2744140625000009 1.0109374999999998  1.1992187500000009 0.9894531249999998  1.1261718750000007 0.9958984374999997  C 1.0531250000000014 1.0023437499999996  0.9822265625000012 1.0388671874999997  0.9349609375000014 1.0990234374999996  C 0.885546875000001 1.1613281249999998  0.8640625000000011 1.2365234374999998  0.8748046875000011 1.3052734374999995  Z " fill-rule="evenodd" />
    </mask>
  </defs>
  <g transform="matrix(1 0 0 1 -289 -439 )">
    <path d="M 5.835546875 12.823046875  C 5.83984375 12.896093749999999  5.8763671875 12.9626953125  5.934374999999999 13.0099609375  L 6.697070312499999 13.635156250000001  L 6.697070312499999 13.753320312500001  L 5.934374999999999 14.378515625000002  C 5.8763671875 14.425781250000002  5.83984375 14.494531250000001  5.831249999999999 14.571875000000002  C 5.824804687499999 14.647070312500002  5.846289062499999 14.71796875  5.893554687499998 14.775976562500002  C 5.940820312499998 14.833984375000002  6.0095703124999975 14.870507812500001  6.0847656249999975 14.8791015625  C 6.1599609374999975 14.8876953125  6.233007812499999 14.8640625  6.291015624999998 14.816796875000001  L 6.6970703124999975 14.483789062500001  L 6.6970703124999975 14.8232421875  C 6.6970703124999975 14.977929687500001  6.823828124999999 15.1046875  6.978515624999998 15.1046875  C 7.133203124999998 15.1046875  7.259960937499997 14.977929687500001  7.259960937499997 14.8232421875  L 7.259960937499997 13.974609375  L 7.6316406249999975 13.974609375  L 7.6316406249999975 15.012304687499999  C 7.6316406249999975 15.1669921875  7.758398437499997 15.29375  7.913085937499997 15.29375  C 8.067773437499998 15.29375  8.194531249999997 15.1669921875  8.194531249999997 15.012304687499999  L 8.194531249999997 13.976757812499997  L 9.176367187499999 13.976757812499997  C 9.3310546875 13.976757812499997  9.4578125 13.849999999999998  9.4578125 13.695312499999998  C 9.4578125 13.540624999999997  9.333203125 13.413867187499998  9.178515625 13.413867187499998  L 8.1923828125 13.413867187499998  L 8.1923828125 12.384765625  C 8.1923828125 12.230078124999999  8.065625 12.1033203125  7.910937499999999 12.1033203125  C 7.756249999999998 12.10546875  7.6294921874999995 12.230078124999999  7.6294921874999995 12.384765625  L 7.6294921874999995 13.4138671875  L 7.2578125 13.4138671875  L 7.2578125 12.56953125  C 7.2578125 12.41484375  7.1310546875 12.2880859375  6.976367187499999 12.2880859375  C 6.8216796875 12.2880859375  6.694921874999999 12.41484375  6.694921874999999 12.56953125  L 6.694921874999999 12.908984375  L 6.291015625 12.5759765625  C 6.235156249999999 12.528710937499998  6.159960937499999 12.507226562499998  6.0869140625 12.513671875  C 6.013867187500001 12.520117187499999  5.94296875 12.556640625  5.895703125000001 12.616796874999999  C 5.8462890625 12.679101562499998  5.8248046875 12.754296874999998  5.835546875 12.823046875  Z M 9.769335937500005 7.252148437500001  C 9.775781250000003 7.3251953125  9.812304687500005 7.391796875000001  9.8703125 7.4390625  L 10.6330078125 8.064257812500001  L 10.6330078125 8.182421875000001  L 9.8703125 8.807617187500002  C 9.8123046875 8.854882812500001  9.775781250000001 8.923632812500001  9.767187500000002 9.000976562500002  C 9.760742187500002 9.076171875000002  9.782226562500002 9.147070312500002  9.829492187500001 9.205078125000002  C 9.8767578125 9.263085937500001  9.9455078125 9.299609375000001  10.020703125 9.308203125000002  C 10.0958984375 9.316796875000001  10.1689453125 9.293164062500002  10.226953125000001 9.245898437500003  L 10.6330078125 8.912890625000003  L 10.6330078125 9.252343750000001  C 10.6330078125 9.407031250000003  10.759765625 9.533789062500002  10.914453125000001 9.533789062500002  C 11.069140625000003 9.533789062500002  11.195898437500002 9.407031250000003  11.195898437500002 9.252343750000001  L 11.195898437500002 8.408007812500003  L 11.567578125 8.408007812500003  L 11.567578125 9.44140625  C 11.567578125 9.59609375  11.6943359375 9.7228515625  11.849023437500001 9.7228515625  C 12.003710937500003 9.7228515625  12.130468750000002 9.596093750000001  12.130468750000002 9.44140625  L 12.130468750000002 8.405859375  L 13.112304687500004 8.405859375  C 13.266992187500005 8.405859375  13.393750000000004 8.279101562500001  13.393750000000004 8.1244140625  C 13.393750000000004 7.969726562499998  13.269140625000006 7.842968749999999  13.114453125000004 7.842968749999999  L 12.128320312500005 7.842968749999999  L 12.128320312500005 6.8138671875  C 12.128320312500005 6.6591796875  12.001562500000006 6.532421874999999  11.846875000000002 6.532421874999999  C 11.692187500000003 6.5345703125  11.565429687500002 6.659179687499999  11.565429687500002 6.8138671875  L 11.565429687500002 7.842968749999999  L 11.193750000000003 7.842968749999999  L 11.193750000000003 6.998632812499999  C 11.193750000000003 6.843945312499999  11.066992187500004 6.717187499999999  10.912304687500002 6.717187499999999  C 10.757617187500003 6.717187499999999  10.630859375000002 6.843945312499998  10.630859375000002 6.998632812499999  L 10.630859375000002 7.338085937499999  L 10.224804687500002 7.005078124999999  C 10.168945312500002 6.957812499999999  10.093750000000002 6.936328124999999  10.020703125000002 6.9427734375  C 9.947656250000003 6.94921875  9.876757812500003 6.9857421875  9.829492187500003 7.0458984375  C 9.780078125000005 7.108203124999999  9.758593750000005 7.183398437499999  9.769335937500005 7.252148437500001  Z M 0.8748046875000011 1.3052734374999995  C 0.8812500000000013 1.3783203124999996  0.9177734375000011 1.4449218749999995  0.9757812499999997 1.4921875  L 1.7384765625000007 2.1173828125  L 1.7384765625000007 2.235546875  L 0.9757812500000007 2.8607421874999996  C 0.9177734375000011 2.9080078124999993  0.8812500000000005 2.9767578125  0.8726562500000004 3.0541015624999996  C 0.8662109375 3.1292968749999996  0.8876953125 3.2001953125  0.9349609375000005 3.2582031249999996  C 0.9822265625000012 3.3162109374999993  1.0509765625000007 3.352734375  1.1261718750000007 3.361328125  C 1.2013671875000007 3.369921875  1.2744140625000009 3.3462890625000004  1.3324218750000005 3.2990234375  L 1.7384765625000007 2.966015625  L 1.7384765625000007 3.30546875  C 1.7384765625000007 3.46015625  1.8652343749999998 3.5869140625  2.0199218750000014 3.5869140625  C 2.174609375000001 3.5869140625  2.3013671875000012 3.46015625  2.3013671875000012 3.30546875  L 2.3013671875000012 2.4611328125000007  L 2.6730468750000016 2.4611328125000007  L 2.6730468750000016 3.498828125000001  C 2.6730468750000016 3.6535156250000007  2.799804687500001 3.780273437500001  2.9544921875000023 3.780273437500001  C 3.109179687500002 3.780273437500001  3.235937500000003 3.6535156250000007  3.235937500000003 3.498828125000001  L 3.235937500000003 2.458984375  L 4.217773437500002 2.458984375  C 4.372460937500001 2.458984375  4.4992187500000025 2.3322265625  4.4992187500000025 2.1775390625  C 4.4992187500000025 2.0228515625000005  4.374609375000002 1.8960937500000004  4.2199218750000025 1.8960937500000004  L 3.233789062500003 1.8960937500000004  L 3.233789062500003 0.8648437500000004  C 3.233789062500003 0.7101562500000003  3.107031250000004 0.5833984375000003  2.9523437500000025 0.5833984375000003  C 2.797656250000003 0.5855468750000004  2.6708984375000027 0.7101562500000005  2.6708984375000027 0.8648437500000004  L 2.6708984375000027 1.8939453125000005  L 2.2992187500000023 1.8939453125000005  L 2.2992187500000023 1.0517578125  C 2.2992187500000023 0.8970703124999999  2.172460937500003 0.7703125000000002  2.0177734375000016 0.7703125000000002  C 1.863085937500002 0.7703125000000002  1.7363281250000009 0.8970703125000004  1.7363281250000009 1.0517578125  L 1.7363281250000009 1.3912109375  L 1.3302734375000007 1.058203125  C 1.2744140625000009 1.0109374999999998  1.1992187500000009 0.9894531249999998  1.1261718750000007 0.9958984374999997  C 1.0531250000000014 1.0023437499999996  0.9822265625000012 1.0388671874999997  0.9349609375000014 1.0990234374999996  C 0.885546875000001 1.1613281249999998  0.8640625000000011 1.2365234374999998  0.8748046875000011 1.3052734374999995  Z " fill-rule="nonzero" fill="rgba(85, 85, 85, 1)" stroke="none" transform="matrix(1 0 0 1 289 439 )" class="fill" />
    <path d="M 5.835546875 12.823046875  C 5.83984375 12.896093749999999  5.8763671875 12.9626953125  5.934374999999999 13.0099609375  L 6.697070312499999 13.635156250000001  L 6.697070312499999 13.753320312500001  L 5.934374999999999 14.378515625000002  C 5.8763671875 14.425781250000002  5.83984375 14.494531250000001  5.831249999999999 14.571875000000002  C 5.824804687499999 14.647070312500002  5.846289062499999 14.71796875  5.893554687499998 14.775976562500002  C 5.940820312499998 14.833984375000002  6.0095703124999975 14.870507812500001  6.0847656249999975 14.8791015625  C 6.1599609374999975 14.8876953125  6.233007812499999 14.8640625  6.291015624999998 14.816796875000001  L 6.6970703124999975 14.483789062500001  L 6.6970703124999975 14.8232421875  C 6.6970703124999975 14.977929687500001  6.823828124999999 15.1046875  6.978515624999998 15.1046875  C 7.133203124999998 15.1046875  7.259960937499997 14.977929687500001  7.259960937499997 14.8232421875  L 7.259960937499997 13.974609375  L 7.6316406249999975 13.974609375  L 7.6316406249999975 15.012304687499999  C 7.6316406249999975 15.1669921875  7.758398437499997 15.29375  7.913085937499997 15.29375  C 8.067773437499998 15.29375  8.194531249999997 15.1669921875  8.194531249999997 15.012304687499999  L 8.194531249999997 13.976757812499997  L 9.176367187499999 13.976757812499997  C 9.3310546875 13.976757812499997  9.4578125 13.849999999999998  9.4578125 13.695312499999998  C 9.4578125 13.540624999999997  9.333203125 13.413867187499998  9.178515625 13.413867187499998  L 8.1923828125 13.413867187499998  L 8.1923828125 12.384765625  C 8.1923828125 12.230078124999999  8.065625 12.1033203125  7.910937499999999 12.1033203125  C 7.756249999999998 12.10546875  7.6294921874999995 12.230078124999999  7.6294921874999995 12.384765625  L 7.6294921874999995 13.4138671875  L 7.2578125 13.4138671875  L 7.2578125 12.56953125  C 7.2578125 12.41484375  7.1310546875 12.2880859375  6.976367187499999 12.2880859375  C 6.8216796875 12.2880859375  6.694921874999999 12.41484375  6.694921874999999 12.56953125  L 6.694921874999999 12.908984375  L 6.291015625 12.5759765625  C 6.235156249999999 12.528710937499998  6.159960937499999 12.507226562499998  6.0869140625 12.513671875  C 6.013867187500001 12.520117187499999  5.94296875 12.556640625  5.895703125000001 12.616796874999999  C 5.8462890625 12.679101562499998  5.8248046875 12.754296874999998  5.835546875 12.823046875  Z " stroke-width="0" stroke-dasharray="0" stroke="rgba(255, 255, 255, 0)" fill="none" transform="matrix(1 0 0 1 289 439 )" class="stroke" mask="url(#Clip5034)" />
    <path d="M 9.769335937500005 7.252148437500001  C 9.775781250000003 7.3251953125  9.812304687500005 7.391796875000001  9.8703125 7.4390625  L 10.6330078125 8.064257812500001  L 10.6330078125 8.182421875000001  L 9.8703125 8.807617187500002  C 9.8123046875 8.854882812500001  9.775781250000001 8.923632812500001  9.767187500000002 9.000976562500002  C 9.760742187500002 9.076171875000002  9.782226562500002 9.147070312500002  9.829492187500001 9.205078125000002  C 9.8767578125 9.263085937500001  9.9455078125 9.299609375000001  10.020703125 9.308203125000002  C 10.0958984375 9.316796875000001  10.1689453125 9.293164062500002  10.226953125000001 9.245898437500003  L 10.6330078125 8.912890625000003  L 10.6330078125 9.252343750000001  C 10.6330078125 9.407031250000003  10.759765625 9.533789062500002  10.914453125000001 9.533789062500002  C 11.069140625000003 9.533789062500002  11.195898437500002 9.407031250000003  11.195898437500002 9.252343750000001  L 11.195898437500002 8.408007812500003  L 11.567578125 8.408007812500003  L 11.567578125 9.44140625  C 11.567578125 9.59609375  11.6943359375 9.7228515625  11.849023437500001 9.7228515625  C 12.003710937500003 9.7228515625  12.130468750000002 9.596093750000001  12.130468750000002 9.44140625  L 12.130468750000002 8.405859375  L 13.112304687500004 8.405859375  C 13.266992187500005 8.405859375  13.393750000000004 8.279101562500001  13.393750000000004 8.1244140625  C 13.393750000000004 7.969726562499998  13.269140625000006 7.842968749999999  13.114453125000004 7.842968749999999  L 12.128320312500005 7.842968749999999  L 12.128320312500005 6.8138671875  C 12.128320312500005 6.6591796875  12.001562500000006 6.532421874999999  11.846875000000002 6.532421874999999  C 11.692187500000003 6.5345703125  11.565429687500002 6.659179687499999  11.565429687500002 6.8138671875  L 11.565429687500002 7.842968749999999  L 11.193750000000003 7.842968749999999  L 11.193750000000003 6.998632812499999  C 11.193750000000003 6.843945312499999  11.066992187500004 6.717187499999999  10.912304687500002 6.717187499999999  C 10.757617187500003 6.717187499999999  10.630859375000002 6.843945312499998  10.630859375000002 6.998632812499999  L 10.630859375000002 7.338085937499999  L 10.224804687500002 7.005078124999999  C 10.168945312500002 6.957812499999999  10.093750000000002 6.936328124999999  10.020703125000002 6.9427734375  C 9.947656250000003 6.94921875  9.876757812500003 6.9857421875  9.829492187500003 7.0458984375  C 9.780078125000005 7.108203124999999  9.758593750000005 7.183398437499999  9.769335937500005 7.252148437500001  Z " stroke-width="0" stroke-dasharray="0" stroke="rgba(255, 255, 255, 0)" fill="none" transform="matrix(1 0 0 1 289 439 )" class="stroke" mask="url(#Clip5034)" />
    <path d="M 0.8748046875000011 1.3052734374999995  C 0.8812500000000013 1.3783203124999996  0.9177734375000011 1.4449218749999995  0.9757812499999997 1.4921875  L 1.7384765625000007 2.1173828125  L 1.7384765625000007 2.235546875  L 0.9757812500000007 2.8607421874999996  C 0.9177734375000011 2.9080078124999993  0.8812500000000005 2.9767578125  0.8726562500000004 3.0541015624999996  C 0.8662109375 3.1292968749999996  0.8876953125 3.2001953125  0.9349609375000005 3.2582031249999996  C 0.9822265625000012 3.3162109374999993  1.0509765625000007 3.352734375  1.1261718750000007 3.361328125  C 1.2013671875000007 3.369921875  1.2744140625000009 3.3462890625000004  1.3324218750000005 3.2990234375  L 1.7384765625000007 2.966015625  L 1.7384765625000007 3.30546875  C 1.7384765625000007 3.46015625  1.8652343749999998 3.5869140625  2.0199218750000014 3.5869140625  C 2.174609375000001 3.5869140625  2.3013671875000012 3.46015625  2.3013671875000012 3.30546875  L 2.3013671875000012 2.4611328125000007  L 2.6730468750000016 2.4611328125000007  L 2.6730468750000016 3.498828125000001  C 2.6730468750000016 3.6535156250000007  2.799804687500001 3.780273437500001  2.9544921875000023 3.780273437500001  C 3.109179687500002 3.780273437500001  3.235937500000003 3.6535156250000007  3.235937500000003 3.498828125000001  L 3.235937500000003 2.458984375  L 4.217773437500002 2.458984375  C 4.372460937500001 2.458984375  4.4992187500000025 2.3322265625  4.4992187500000025 2.1775390625  C 4.4992187500000025 2.0228515625000005  4.374609375000002 1.8960937500000004  4.2199218750000025 1.8960937500000004  L 3.233789062500003 1.8960937500000004  L 3.233789062500003 0.8648437500000004  C 3.233789062500003 0.7101562500000003  3.107031250000004 0.5833984375000003  2.9523437500000025 0.5833984375000003  C 2.797656250000003 0.5855468750000004  2.6708984375000027 0.7101562500000005  2.6708984375000027 0.8648437500000004  L 2.6708984375000027 1.8939453125000005  L 2.2992187500000023 1.8939453125000005  L 2.2992187500000023 1.0517578125  C 2.2992187500000023 0.8970703124999999  2.172460937500003 0.7703125000000002  2.0177734375000016 0.7703125000000002  C 1.863085937500002 0.7703125000000002  1.7363281250000009 0.8970703125000004  1.7363281250000009 1.0517578125  L 1.7363281250000009 1.3912109375  L 1.3302734375000007 1.058203125  C 1.2744140625000009 1.0109374999999998  1.1992187500000009 0.9894531249999998  1.1261718750000007 0.9958984374999997  C 1.0531250000000014 1.0023437499999996  0.9822265625000012 1.0388671874999997  0.9349609375000014 1.0990234374999996  C 0.885546875000001 1.1613281249999998  0.8640625000000011 1.2365234374999998  0.8748046875000011 1.3052734374999995  Z " stroke-width="0" stroke-dasharray="0" stroke="rgba(255, 255, 255, 0)" fill="none" transform="matrix(1 0 0 1 289 439 )" class="stroke" mask="url(#Clip5034)" />
  </g>
</svg>