<?xml version="1.0" encoding="utf-8"?>
<svg version="1.1" xmlns:xlink="http://www.w3.org/1999/xlink" width="22px" height="22px" xmlns="http://www.w3.org/2000/svg">
  <defs>
    <pattern id="BGPattern" patternUnits="userSpaceOnUse" alignment="0 0" imageRepeat="None" />
    <mask fill="white" id="Clip10514">
      <path d="M 10.992136718749997 2.365109214521069  C 11.518810544095553 2.365109214521069  11.998652134790946 2.6676451426783925  12.225705078125001 3.14286328125  L 14.268568359375003 7.338568359375001  C 14.461734725597694 7.7463055018548825  14.85631245145462 8.021318182887782  15.305705078125001 8.061431640625  L 19.925705078125 8.752863281249997  C 20.569404069305843 8.852159024565053  21.0444647036391 9.406120513010258  21.0444647036391 10.057433061551833  C 21.0444647036391 10.412045160219998  20.90178475344949 10.751743684282248  20.648568359375 11  L 17.285705078125005 14.252863281249999  C 16.96230907042274 14.565475826008134  16.82532558269785 15.024096086896598  16.924294921875003 15.462863281250002  L 17.71 20.019999999999996  C 17.720661712515973 20.089039484152096  17.72601609140477 20.15879460822315  17.72601609140477 20.228652481693224  C 17.72601609140477 20.98370124239256  17.113928133354108 21.595789200443225  16.35887937265477 21.595789200443225  C 16.13400609621182 21.595789200443225  15.912604836329086 21.540319297786397  15.714294921875002 21.434294921875  L 11.644294921875002 19.328568359374998  C 11.250093254372567 19.124471249889496  10.781338386252434 19.124471249889496  10.38713671875 19.328568359374998  L 6.285705078125001 21.481431640625  C 6.087395163670916 21.5874560165364  5.865993903788184 21.642925919193228  5.641120627345232 21.642925919193228  C 4.886071866645897 21.642925919193228  4.273983908595232 21.030837961142563  4.273983908595232 20.275789200443228  C 4.273983908595232 20.205931326973158  4.279338287484029 20.1361762029021  4.29 20.067136718750003  L 5.075705078125001 15.510000000000003  C 5.1424032356429885 15.07290372647654  5.00978976442194 14.628914266295263  4.714294921875 14.3  L 1.3199999999999998 11  C 1.0555539212602847 10.745260130275348  0.9061458929621963 10.393882534910144  0.9061458929621963 10.026698480533947  C 0.9061458929621963 9.35718362858471  1.3963524851917042 8.788591444660566  2.058568359375 8.690000000000001  L 6.662863281249999 8.014294921874999  C 7.103100417514276 7.929554260393715  7.486182604015277 7.660814347986176  7.715705078125 7.275705078125  L 9.758568359374998 3.14286328125  C 9.985621302709049 2.6676451426783934  10.465462893404444 2.365109214521069  10.992136718749997 2.365109214521069  Z M 6.917170945370524 3.661431640625  C 6.917170945370524 3.54559064238248  6.8564311577383465 3.438232010451789  6.75713671875 3.378568359375  L 4.95 2.325705078125  L 3.912863281250001 0.5185683593749999  C 3.849238894417105 0.4196945809677849  3.739723337104259 0.35993629603685434  3.6221474609375 0.35993629603685434  C 3.504571584770741 0.35993629603685434  3.3950560274578963 0.41969458096778517  3.3314316406250004 0.5185683593749999  L 2.294294921875 2.325705078125  L 0.47143164062500026 3.36286328125  C 0.37255786221778514 3.4264876680828955  0.3127995772868546 3.5360032253957416  0.3127995772868546 3.6535791015625003  C 0.3127995772868546 3.771154977729259  0.3725578622177854 3.8806705350421034  0.47143164062500026 3.9442949218750005  L 2.294294921875 4.981431640625  L 3.3314316406249995 6.804294921874999  C 3.3910977377577534 6.9035792183671045  3.498450615134787 6.964311272232168  3.6142841796875 6.964311272232168  C 3.730117744240213 6.964311272232168  3.8374706216172467 6.903579218367105  3.89713671875 6.804294921875  L 4.95 4.981431640625  L 6.75713671875 3.9442949218750005  C 6.8564311577383465 3.884631270798211  6.917170945370524 3.7772726388675206  6.917170945370524 3.661431640625  Z M 21.688602585995522 3.661431640625  C 21.688602585995522 3.54559064238248  21.627862798363346 3.438232010451789  21.528568359375 3.378568359375  L 19.705705078125 2.325705078125  L 18.668568359375 0.5185683593749999  C 18.604943972542106 0.4196945809677843  18.495428415229263 0.3599362960368548  18.377852539062502 0.3599362960368548  C 18.26027666289574 0.3599362960368548  18.150761105582898 0.4196945809677855  18.087136718750003 0.5185683593749999  L 17.05 2.325705078125  L 15.242863281250003 3.36286328125  C 15.143989502842787 3.4264876680828955  15.084231217911855 3.5360032253957416  15.084231217911855 3.6535791015625003  C 15.084231217911855 3.7711549777292603  15.143989502842787 3.8806705350421034  15.242863281250003 3.9442949218750005  L 17.05 4.981431640625  L 18.102863281250002 6.804294921874999  C 18.158218949495474 6.904331822436076  18.263532045444688 6.9664179083728985  18.37786328125 6.9664179083728985  C 18.49219451705531 6.9664179083728985  18.597507613004524 6.904331822436076  18.65286328125 6.804294921875  L 19.705705078125 4.981431640625  L 21.528568359375 3.9442949218750005  C 21.627862798363346 3.884631270798211  21.688602585995522 3.7772726388675206  21.688602585995522 3.661431640625  Z " fill-rule="evenodd" />
    </mask>
  </defs>
  <g transform="matrix(1 0 0 1 -52 -278 )">
    <path d="M 10.992136718749997 2.365109214521069  C 11.518810544095553 2.365109214521069  11.998652134790946 2.6676451426783925  12.225705078125001 3.14286328125  L 14.268568359375003 7.338568359375001  C 14.461734725597694 7.7463055018548825  14.85631245145462 8.021318182887782  15.305705078125001 8.061431640625  L 19.925705078125 8.752863281249997  C 20.569404069305843 8.852159024565053  21.0444647036391 9.406120513010258  21.0444647036391 10.057433061551833  C 21.0444647036391 10.412045160219998  20.90178475344949 10.751743684282248  20.648568359375 11  L 17.285705078125005 14.252863281249999  C 16.96230907042274 14.565475826008134  16.82532558269785 15.024096086896598  16.924294921875003 15.462863281250002  L 17.71 20.019999999999996  C 17.720661712515973 20.089039484152096  17.72601609140477 20.15879460822315  17.72601609140477 20.228652481693224  C 17.72601609140477 20.98370124239256  17.113928133354108 21.595789200443225  16.35887937265477 21.595789200443225  C 16.13400609621182 21.595789200443225  15.912604836329086 21.540319297786397  15.714294921875002 21.434294921875  L 11.644294921875002 19.328568359374998  C 11.250093254372567 19.124471249889496  10.781338386252434 19.124471249889496  10.38713671875 19.328568359374998  L 6.285705078125001 21.481431640625  C 6.087395163670916 21.5874560165364  5.865993903788184 21.642925919193228  5.641120627345232 21.642925919193228  C 4.886071866645897 21.642925919193228  4.273983908595232 21.030837961142563  4.273983908595232 20.275789200443228  C 4.273983908595232 20.205931326973158  4.279338287484029 20.1361762029021  4.29 20.067136718750003  L 5.075705078125001 15.510000000000003  C 5.1424032356429885 15.07290372647654  5.00978976442194 14.628914266295263  4.714294921875 14.3  L 1.3199999999999998 11  C 1.0555539212602847 10.745260130275348  0.9061458929621963 10.393882534910144  0.9061458929621963 10.026698480533947  C 0.9061458929621963 9.35718362858471  1.3963524851917042 8.788591444660566  2.058568359375 8.690000000000001  L 6.662863281249999 8.014294921874999  C 7.103100417514276 7.929554260393715  7.486182604015277 7.660814347986176  7.715705078125 7.275705078125  L 9.758568359374998 3.14286328125  C 9.985621302709049 2.6676451426783934  10.465462893404444 2.365109214521069  10.992136718749997 2.365109214521069  Z M 6.917170945370524 3.661431640625  C 6.917170945370524 3.54559064238248  6.8564311577383465 3.438232010451789  6.75713671875 3.378568359375  L 4.95 2.325705078125  L 3.912863281250001 0.5185683593749999  C 3.849238894417105 0.4196945809677849  3.739723337104259 0.35993629603685434  3.6221474609375 0.35993629603685434  C 3.504571584770741 0.35993629603685434  3.3950560274578963 0.41969458096778517  3.3314316406250004 0.5185683593749999  L 2.294294921875 2.325705078125  L 0.47143164062500026 3.36286328125  C 0.37255786221778514 3.4264876680828955  0.3127995772868546 3.5360032253957416  0.3127995772868546 3.6535791015625003  C 0.3127995772868546 3.771154977729259  0.3725578622177854 3.8806705350421034  0.47143164062500026 3.9442949218750005  L 2.294294921875 4.981431640625  L 3.3314316406249995 6.804294921874999  C 3.3910977377577534 6.9035792183671045  3.498450615134787 6.964311272232168  3.6142841796875 6.964311272232168  C 3.730117744240213 6.964311272232168  3.8374706216172467 6.903579218367105  3.89713671875 6.804294921875  L 4.95 4.981431640625  L 6.75713671875 3.9442949218750005  C 6.8564311577383465 3.884631270798211  6.917170945370524 3.7772726388675206  6.917170945370524 3.661431640625  Z M 21.688602585995522 3.661431640625  C 21.688602585995522 3.54559064238248  21.627862798363346 3.438232010451789  21.528568359375 3.378568359375  L 19.705705078125 2.325705078125  L 18.668568359375 0.5185683593749999  C 18.604943972542106 0.4196945809677843  18.495428415229263 0.3599362960368548  18.377852539062502 0.3599362960368548  C 18.26027666289574 0.3599362960368548  18.150761105582898 0.4196945809677855  18.087136718750003 0.5185683593749999  L 17.05 2.325705078125  L 15.242863281250003 3.36286328125  C 15.143989502842787 3.4264876680828955  15.084231217911855 3.5360032253957416  15.084231217911855 3.6535791015625003  C 15.084231217911855 3.7711549777292603  15.143989502842787 3.8806705350421034  15.242863281250003 3.9442949218750005  L 17.05 4.981431640625  L 18.102863281250002 6.804294921874999  C 18.158218949495474 6.904331822436076  18.263532045444688 6.9664179083728985  18.37786328125 6.9664179083728985  C 18.49219451705531 6.9664179083728985  18.597507613004524 6.904331822436076  18.65286328125 6.804294921875  L 19.705705078125 4.981431640625  L 21.528568359375 3.9442949218750005  C 21.627862798363346 3.884631270798211  21.688602585995522 3.7772726388675206  21.688602585995522 3.661431640625  Z " fill-rule="nonzero" fill="rgba(2, 167, 240, 1)" stroke="none" transform="matrix(1 0 0 1 52 278 )" class="fill" />
    <path d="M 10.992136718749997 2.365109214521069  C 11.518810544095553 2.365109214521069  11.998652134790946 2.6676451426783925  12.225705078125001 3.14286328125  L 14.268568359375003 7.338568359375001  C 14.461734725597694 7.7463055018548825  14.85631245145462 8.021318182887782  15.305705078125001 8.061431640625  L 19.925705078125 8.752863281249997  C 20.569404069305843 8.852159024565053  21.0444647036391 9.406120513010258  21.0444647036391 10.057433061551833  C 21.0444647036391 10.412045160219998  20.90178475344949 10.751743684282248  20.648568359375 11  L 17.285705078125005 14.252863281249999  C 16.96230907042274 14.565475826008134  16.82532558269785 15.024096086896598  16.924294921875003 15.462863281250002  L 17.71 20.019999999999996  C 17.720661712515973 20.089039484152096  17.72601609140477 20.15879460822315  17.72601609140477 20.228652481693224  C 17.72601609140477 20.98370124239256  17.113928133354108 21.595789200443225  16.35887937265477 21.595789200443225  C 16.13400609621182 21.595789200443225  15.912604836329086 21.540319297786397  15.714294921875002 21.434294921875  L 11.644294921875002 19.328568359374998  C 11.250093254372567 19.124471249889496  10.781338386252434 19.124471249889496  10.38713671875 19.328568359374998  L 6.285705078125001 21.481431640625  C 6.087395163670916 21.5874560165364  5.865993903788184 21.642925919193228  5.641120627345232 21.642925919193228  C 4.886071866645897 21.642925919193228  4.273983908595232 21.030837961142563  4.273983908595232 20.275789200443228  C 4.273983908595232 20.205931326973158  4.279338287484029 20.1361762029021  4.29 20.067136718750003  L 5.075705078125001 15.510000000000003  C 5.1424032356429885 15.07290372647654  5.00978976442194 14.628914266295263  4.714294921875 14.3  L 1.3199999999999998 11  C 1.0555539212602847 10.745260130275348  0.9061458929621963 10.393882534910144  0.9061458929621963 10.026698480533947  C 0.9061458929621963 9.35718362858471  1.3963524851917042 8.788591444660566  2.058568359375 8.690000000000001  L 6.662863281249999 8.014294921874999  C 7.103100417514276 7.929554260393715  7.486182604015277 7.660814347986176  7.715705078125 7.275705078125  L 9.758568359374998 3.14286328125  C 9.985621302709049 2.6676451426783934  10.465462893404444 2.365109214521069  10.992136718749997 2.365109214521069  Z " stroke-width="0" stroke-dasharray="0" stroke="rgba(255, 255, 255, 0)" fill="none" transform="matrix(1 0 0 1 52 278 )" class="stroke" mask="url(#Clip10514)" />
    <path d="M 6.917170945370524 3.661431640625  C 6.917170945370524 3.54559064238248  6.8564311577383465 3.438232010451789  6.75713671875 3.378568359375  L 4.95 2.325705078125  L 3.912863281250001 0.5185683593749999  C 3.849238894417105 0.4196945809677849  3.739723337104259 0.35993629603685434  3.6221474609375 0.35993629603685434  C 3.504571584770741 0.35993629603685434  3.3950560274578963 0.41969458096778517  3.3314316406250004 0.5185683593749999  L 2.294294921875 2.325705078125  L 0.47143164062500026 3.36286328125  C 0.37255786221778514 3.4264876680828955  0.3127995772868546 3.5360032253957416  0.3127995772868546 3.6535791015625003  C 0.3127995772868546 3.771154977729259  0.3725578622177854 3.8806705350421034  0.47143164062500026 3.9442949218750005  L 2.294294921875 4.981431640625  L 3.3314316406249995 6.804294921874999  C 3.3910977377577534 6.9035792183671045  3.498450615134787 6.964311272232168  3.6142841796875 6.964311272232168  C 3.730117744240213 6.964311272232168  3.8374706216172467 6.903579218367105  3.89713671875 6.804294921875  L 4.95 4.981431640625  L 6.75713671875 3.9442949218750005  C 6.8564311577383465 3.884631270798211  6.917170945370524 3.7772726388675206  6.917170945370524 3.661431640625  Z " stroke-width="0" stroke-dasharray="0" stroke="rgba(255, 255, 255, 0)" fill="none" transform="matrix(1 0 0 1 52 278 )" class="stroke" mask="url(#Clip10514)" />
    <path d="M 21.688602585995522 3.661431640625  C 21.688602585995522 3.54559064238248  21.627862798363346 3.438232010451789  21.528568359375 3.378568359375  L 19.705705078125 2.325705078125  L 18.668568359375 0.5185683593749999  C 18.604943972542106 0.4196945809677843  18.495428415229263 0.3599362960368548  18.377852539062502 0.3599362960368548  C 18.26027666289574 0.3599362960368548  18.150761105582898 0.4196945809677855  18.087136718750003 0.5185683593749999  L 17.05 2.325705078125  L 15.242863281250003 3.36286328125  C 15.143989502842787 3.4264876680828955  15.084231217911855 3.5360032253957416  15.084231217911855 3.6535791015625003  C 15.084231217911855 3.7711549777292603  15.143989502842787 3.8806705350421034  15.242863281250003 3.9442949218750005  L 17.05 4.981431640625  L 18.102863281250002 6.804294921874999  C 18.158218949495474 6.904331822436076  18.263532045444688 6.9664179083728985  18.37786328125 6.9664179083728985  C 18.49219451705531 6.9664179083728985  18.597507613004524 6.904331822436076  18.65286328125 6.804294921875  L 19.705705078125 4.981431640625  L 21.528568359375 3.9442949218750005  C 21.627862798363346 3.884631270798211  21.688602585995522 3.7772726388675206  21.688602585995522 3.661431640625  Z " stroke-width="0" stroke-dasharray="0" stroke="rgba(255, 255, 255, 0)" fill="none" transform="matrix(1 0 0 1 52 278 )" class="stroke" mask="url(#Clip10514)" />
  </g>
</svg>