<?xml version="1.0" encoding="utf-8"?>
<svg version="1.1" xmlns:xlink="http://www.w3.org/1999/xlink" width="18px" height="21px" xmlns="http://www.w3.org/2000/svg">
  <defs>
    <pattern id="BGPattern" patternUnits="userSpaceOnUse" alignment="0 0" imageRepeat="None" />
    <mask fill="white" id="Clip11605">
      <path d="M 8.210336538461538 6.879687499999999  L 8.210336538461538 6.881875000000001  C 8.714423076923078 6.881875000000001  9.123317307692307 6.4684375  9.123317307692307 5.958750000000001  C 9.123317307692307 5.449062500000001  8.714423076923078 5.0356250000000005  8.210336538461538 5.0356250000000005  L 6.075 5.0356250000000005  L 6.075 1.185625000000001  C 6.075 0.6759375000000011  5.66610576923077 0.2625000000000009  5.162019230769231 0.2625000000000009  C 4.657932692307693 0.2625000000000009  4.249038461538462 0.6759375000000009  4.249038461538462 1.185625000000001  L 4.249038461538462 2.156875000000001  L 2.1288461538461547 2.156875000000001  C 1.6247596153846162 2.156875000000001  1.2158653846153853 2.5703125000000013  1.2158653846153853 3.080000000000002  C 1.2158653846153853 3.5896875000000015  1.6247596153846158 4.003125000000002  2.1288461538461547 4.003125000000002  L 4.251201923076923 4.003125000000002  L 4.251201923076923 5.0356250000000005  L 2.128846153846154 5.0356250000000005  C 1.6247596153846156 5.0356250000000005  1.2158653846153848 5.449062500000001  1.2158653846153848 5.958750000000001  C 1.2158653846153848 6.4684375  1.6247596153846153 6.881875000000001  2.128846153846154 6.881875000000001  L 4.251201923076923 6.881875000000001  L 4.251201923076923 8.001875  L 0.9129807692307692 8.001875  C 0.40889423076923076 7.999687499999999  0 8.413125  0 8.9228125  C 0 9.4325  0.40889423076923076 9.8459375  0.9129807692307692 9.8459375  L 8.210336538461538 9.8459375  C 8.714423076923078 9.8459375  9.123317307692307 9.4325  9.123317307692307 8.9228125  C 9.123317307692307 8.413124999999999  8.714423076923078 7.999687499999999  8.210336538461538 7.999687499999999  L 6.075 7.999687499999999  L 6.075 6.879687499999999  L 8.210336538461538 6.879687499999999  Z M 8.482932692307692 11.4865625  C 8.482932692307692 10.976875000000001  8.07403846153846 10.565625  7.572115384615385 10.565625  L 2.754086538461538 10.565625  C 2.25 10.565625  1.841105769230769 10.9790625  1.841105769230769 11.488750000000001  L 1.841105769230769 19.11875  C 1.841105769230769 19.6284375  2.25 20.041875  2.754086538461538 20.041875  C 3.258173076923077 20.041875  3.6670673076923075 19.628437500000004  3.6670673076923075 19.11875  L 3.6670673076923075 17.574375  L 6.652644230769231 17.574375  L 6.652644230769231 19.8121875  C 6.652644230769231 20.321874999999995  7.061538461538461 20.7353125  7.565625 20.7353125  C 7.807932692307692 20.7375  8.041586538461539 20.64125  8.21466346153846 20.4684375  C 8.387740384615384 20.295625  8.485096153846154 20.059374999999996  8.482932692307692 19.814375  L 8.482932692307692 11.4865625  Z M 6.652644230769231 15.041250000000002  L 6.652644230769231 15.730312500000002  L 3.6670673076923075 15.730312500000002  L 3.6670673076923075 15.041250000000002  L 6.652644230769231 15.041250000000002  Z M 6.652644230769231 12.433750000000002  L 6.652644230769231 13.197187500000002  L 3.6670673076923075 13.197187500000002  L 3.6670673076923075 12.433750000000002  L 6.652644230769231 12.433750000000002  Z M 9.977884615384616 10.650937500000003  C 9.980048076923078 11.160625000000001  10.386778846153845 11.571875000000002  10.890865384615385 11.571875  C 11.394951923076922 11.571875  11.803846153846154 11.1584375  11.803846153846154 10.64875  L 11.803846153846154 4.070937499999999  L 16.061538461538465 4.070937499999999  L 16.111298076923077 11.935  C 16.122115384615384 12.438125  16.526682692307695 12.8384375  17.024278846153848 12.8384375  L 17.03076923076923 12.8625  C 17.273076923076925 12.860312500000001  17.50456730769231 12.761875  17.673317307692308 12.5890625  C 17.84423076923077 12.4140625  17.93725961538462 12.18  17.93725961538462 11.935  L 17.887500000000003 3.1237500000000002  C 17.88317307692308 2.6162500000000004  17.476442307692313 2.2071875000000003  16.974519230769232 2.2071875000000003  L 10.890865384615385 2.2071875000000003  C 10.386778846153845 2.2071875000000003  9.977884615384616 2.620625  9.977884615384616 3.1303125000000005  L 9.977884615384616 10.650937500000003  Z " fill-rule="evenodd" />
    </mask>
  </defs>
  <g transform="matrix(1 0 0 1 -129 -279 )">
    <path d="M 8.210336538461538 6.879687499999999  L 8.210336538461538 6.881875000000001  C 8.714423076923078 6.881875000000001  9.123317307692307 6.4684375  9.123317307692307 5.958750000000001  C 9.123317307692307 5.449062500000001  8.714423076923078 5.0356250000000005  8.210336538461538 5.0356250000000005  L 6.075 5.0356250000000005  L 6.075 1.185625000000001  C 6.075 0.6759375000000011  5.66610576923077 0.2625000000000009  5.162019230769231 0.2625000000000009  C 4.657932692307693 0.2625000000000009  4.249038461538462 0.6759375000000009  4.249038461538462 1.185625000000001  L 4.249038461538462 2.156875000000001  L 2.1288461538461547 2.156875000000001  C 1.6247596153846162 2.156875000000001  1.2158653846153853 2.5703125000000013  1.2158653846153853 3.080000000000002  C 1.2158653846153853 3.5896875000000015  1.6247596153846158 4.003125000000002  2.1288461538461547 4.003125000000002  L 4.251201923076923 4.003125000000002  L 4.251201923076923 5.0356250000000005  L 2.128846153846154 5.0356250000000005  C 1.6247596153846156 5.0356250000000005  1.2158653846153848 5.449062500000001  1.2158653846153848 5.958750000000001  C 1.2158653846153848 6.4684375  1.6247596153846153 6.881875000000001  2.128846153846154 6.881875000000001  L 4.251201923076923 6.881875000000001  L 4.251201923076923 8.001875  L 0.9129807692307692 8.001875  C 0.40889423076923076 7.999687499999999  0 8.413125  0 8.9228125  C 0 9.4325  0.40889423076923076 9.8459375  0.9129807692307692 9.8459375  L 8.210336538461538 9.8459375  C 8.714423076923078 9.8459375  9.123317307692307 9.4325  9.123317307692307 8.9228125  C 9.123317307692307 8.413124999999999  8.714423076923078 7.999687499999999  8.210336538461538 7.999687499999999  L 6.075 7.999687499999999  L 6.075 6.879687499999999  L 8.210336538461538 6.879687499999999  Z M 8.482932692307692 11.4865625  C 8.482932692307692 10.976875000000001  8.07403846153846 10.565625  7.572115384615385 10.565625  L 2.754086538461538 10.565625  C 2.25 10.565625  1.841105769230769 10.9790625  1.841105769230769 11.488750000000001  L 1.841105769230769 19.11875  C 1.841105769230769 19.6284375  2.25 20.041875  2.754086538461538 20.041875  C 3.258173076923077 20.041875  3.6670673076923075 19.628437500000004  3.6670673076923075 19.11875  L 3.6670673076923075 17.574375  L 6.652644230769231 17.574375  L 6.652644230769231 19.8121875  C 6.652644230769231 20.321874999999995  7.061538461538461 20.7353125  7.565625 20.7353125  C 7.807932692307692 20.7375  8.041586538461539 20.64125  8.21466346153846 20.4684375  C 8.387740384615384 20.295625  8.485096153846154 20.059374999999996  8.482932692307692 19.814375  L 8.482932692307692 11.4865625  Z M 6.652644230769231 15.041250000000002  L 6.652644230769231 15.730312500000002  L 3.6670673076923075 15.730312500000002  L 3.6670673076923075 15.041250000000002  L 6.652644230769231 15.041250000000002  Z M 6.652644230769231 12.433750000000002  L 6.652644230769231 13.197187500000002  L 3.6670673076923075 13.197187500000002  L 3.6670673076923075 12.433750000000002  L 6.652644230769231 12.433750000000002  Z M 9.977884615384616 10.650937500000003  C 9.980048076923078 11.160625000000001  10.386778846153845 11.571875000000002  10.890865384615385 11.571875  C 11.394951923076922 11.571875  11.803846153846154 11.1584375  11.803846153846154 10.64875  L 11.803846153846154 4.070937499999999  L 16.061538461538465 4.070937499999999  L 16.111298076923077 11.935  C 16.122115384615384 12.438125  16.526682692307695 12.8384375  17.024278846153848 12.8384375  L 17.03076923076923 12.8625  C 17.273076923076925 12.860312500000001  17.50456730769231 12.761875  17.673317307692308 12.5890625  C 17.84423076923077 12.4140625  17.93725961538462 12.18  17.93725961538462 11.935  L 17.887500000000003 3.1237500000000002  C 17.88317307692308 2.6162500000000004  17.476442307692313 2.2071875000000003  16.974519230769232 2.2071875000000003  L 10.890865384615385 2.2071875000000003  C 10.386778846153845 2.2071875000000003  9.977884615384616 2.620625  9.977884615384616 3.1303125000000005  L 9.977884615384616 10.650937500000003  Z " fill-rule="nonzero" fill="rgba(245, 154, 35, 1)" stroke="none" transform="matrix(1 0 0 1 129 279 )" class="fill" />
    <path d="M 8.210336538461538 6.879687499999999  L 8.210336538461538 6.881875000000001  C 8.714423076923078 6.881875000000001  9.123317307692307 6.4684375  9.123317307692307 5.958750000000001  C 9.123317307692307 5.449062500000001  8.714423076923078 5.0356250000000005  8.210336538461538 5.0356250000000005  L 6.075 5.0356250000000005  L 6.075 1.185625000000001  C 6.075 0.6759375000000011  5.66610576923077 0.2625000000000009  5.162019230769231 0.2625000000000009  C 4.657932692307693 0.2625000000000009  4.249038461538462 0.6759375000000009  4.249038461538462 1.185625000000001  L 4.249038461538462 2.156875000000001  L 2.1288461538461547 2.156875000000001  C 1.6247596153846162 2.156875000000001  1.2158653846153853 2.5703125000000013  1.2158653846153853 3.080000000000002  C 1.2158653846153853 3.5896875000000015  1.6247596153846158 4.003125000000002  2.1288461538461547 4.003125000000002  L 4.251201923076923 4.003125000000002  L 4.251201923076923 5.0356250000000005  L 2.128846153846154 5.0356250000000005  C 1.6247596153846156 5.0356250000000005  1.2158653846153848 5.449062500000001  1.2158653846153848 5.958750000000001  C 1.2158653846153848 6.4684375  1.6247596153846153 6.881875000000001  2.128846153846154 6.881875000000001  L 4.251201923076923 6.881875000000001  L 4.251201923076923 8.001875  L 0.9129807692307692 8.001875  C 0.40889423076923076 7.999687499999999  0 8.413125  0 8.9228125  C 0 9.4325  0.40889423076923076 9.8459375  0.9129807692307692 9.8459375  L 8.210336538461538 9.8459375  C 8.714423076923078 9.8459375  9.123317307692307 9.4325  9.123317307692307 8.9228125  C 9.123317307692307 8.413124999999999  8.714423076923078 7.999687499999999  8.210336538461538 7.999687499999999  L 6.075 7.999687499999999  L 6.075 6.879687499999999  L 8.210336538461538 6.879687499999999  Z " stroke-width="0" stroke-dasharray="0" stroke="rgba(255, 255, 255, 0)" fill="none" transform="matrix(1 0 0 1 129 279 )" class="stroke" mask="url(#Clip11605)" />
    <path d="M 8.482932692307692 11.4865625  C 8.482932692307692 10.976875000000001  8.07403846153846 10.565625  7.572115384615385 10.565625  L 2.754086538461538 10.565625  C 2.25 10.565625  1.841105769230769 10.9790625  1.841105769230769 11.488750000000001  L 1.841105769230769 19.11875  C 1.841105769230769 19.6284375  2.25 20.041875  2.754086538461538 20.041875  C 3.258173076923077 20.041875  3.6670673076923075 19.628437500000004  3.6670673076923075 19.11875  L 3.6670673076923075 17.574375  L 6.652644230769231 17.574375  L 6.652644230769231 19.8121875  C 6.652644230769231 20.321874999999995  7.061538461538461 20.7353125  7.565625 20.7353125  C 7.807932692307692 20.7375  8.041586538461539 20.64125  8.21466346153846 20.4684375  C 8.387740384615384 20.295625  8.485096153846154 20.059374999999996  8.482932692307692 19.814375  L 8.482932692307692 11.4865625  Z " stroke-width="0" stroke-dasharray="0" stroke="rgba(255, 255, 255, 0)" fill="none" transform="matrix(1 0 0 1 129 279 )" class="stroke" mask="url(#Clip11605)" />
    <path d="M 6.652644230769231 15.041250000000002  L 6.652644230769231 15.730312500000002  L 3.6670673076923075 15.730312500000002  L 3.6670673076923075 15.041250000000002  L 6.652644230769231 15.041250000000002  Z " stroke-width="0" stroke-dasharray="0" stroke="rgba(255, 255, 255, 0)" fill="none" transform="matrix(1 0 0 1 129 279 )" class="stroke" mask="url(#Clip11605)" />
    <path d="M 6.652644230769231 12.433750000000002  L 6.652644230769231 13.197187500000002  L 3.6670673076923075 13.197187500000002  L 3.6670673076923075 12.433750000000002  L 6.652644230769231 12.433750000000002  Z " stroke-width="0" stroke-dasharray="0" stroke="rgba(255, 255, 255, 0)" fill="none" transform="matrix(1 0 0 1 129 279 )" class="stroke" mask="url(#Clip11605)" />
    <path d="M 9.977884615384616 10.650937500000003  C 9.980048076923078 11.160625000000001  10.386778846153845 11.571875000000002  10.890865384615385 11.571875  C 11.394951923076922 11.571875  11.803846153846154 11.1584375  11.803846153846154 10.64875  L 11.803846153846154 4.070937499999999  L 16.061538461538465 4.070937499999999  L 16.111298076923077 11.935  C 16.122115384615384 12.438125  16.526682692307695 12.8384375  17.024278846153848 12.8384375  L 17.03076923076923 12.8625  C 17.273076923076925 12.860312500000001  17.50456730769231 12.761875  17.673317307692308 12.5890625  C 17.84423076923077 12.4140625  17.93725961538462 12.18  17.93725961538462 11.935  L 17.887500000000003 3.1237500000000002  C 17.88317307692308 2.6162500000000004  17.476442307692313 2.2071875000000003  16.974519230769232 2.2071875000000003  L 10.890865384615385 2.2071875000000003  C 10.386778846153845 2.2071875000000003  9.977884615384616 2.620625  9.977884615384616 3.1303125000000005  L 9.977884615384616 10.650937500000003  Z " stroke-width="0" stroke-dasharray="0" stroke="rgba(255, 255, 255, 0)" fill="none" transform="matrix(1 0 0 1 129 279 )" class="stroke" mask="url(#Clip11605)" />
  </g>
</svg>