<?xml version="1.0" encoding="utf-8"?>
<svg version="1.1" xmlns:xlink="http://www.w3.org/1999/xlink" width="7px" height="9px" xmlns="http://www.w3.org/2000/svg">
  <defs>
    <pattern id="BGPattern" patternUnits="userSpaceOnUse" alignment="0 0" imageRepeat="None" />
    <mask fill="white" id="Clip12659">
      <path d="M 0.47232421874999986 7.210390624999999  C 2.696191406249998 5.867265624999998  4.334765624999999 3.6513281249999956  4.911992187500001 1.0386328124999977  C 4.970194956788475 0.7654931695087406  5.211445886982993 0.5702335323386407  5.490717845701084 0.5702335323386407  C 5.549330827778693 0.5702335323386407  5.607618554399238 0.5789421751574189  5.663671875000002 0.596074218750001  C 5.676523437499998 0.6003125000000011  5.689374999999998 0.6041406249999994  5.702089843750006 0.6082421875000037  C 5.948560575076989 0.6859285416530483  6.096397797488052 0.9373817086852796  6.04443359375 1.1905273437500021  C 5.414843750000003 4.170859375000003  3.5515039062499976 6.6982421875  1.0149609374999997 8.21322265625  C 0.7710309628634562 8.356800508792073  0.4578395765249539 8.290353387613983  0.29322265624999844 8.060097656249997  L 0.2937695312499997 8.059550781249996  C 0.2223698034458579 7.9596058115799515  0.18398678016326286 7.839847212025571  0.18398678016326286 7.717018395810275  C 0.18398678016326286 7.509099526378982  0.29356125439920433 7.316569996076023  0.47232421874999986 7.210390624999999  Z " fill-rule="evenodd" />
    </mask>
  </defs>
  <g transform="matrix(1 0 0 1 -54 -229 )">
    <path d="M 0.47232421874999986 7.210390624999999  C 2.696191406249998 5.867265624999998  4.334765624999999 3.6513281249999956  4.911992187500001 1.0386328124999977  C 4.970194956788475 0.7654931695087406  5.211445886982993 0.5702335323386407  5.490717845701084 0.5702335323386407  C 5.549330827778693 0.5702335323386407  5.607618554399238 0.5789421751574189  5.663671875000002 0.596074218750001  C 5.676523437499998 0.6003125000000011  5.689374999999998 0.6041406249999994  5.702089843750006 0.6082421875000037  C 5.948560575076989 0.6859285416530483  6.096397797488052 0.9373817086852796  6.04443359375 1.1905273437500021  C 5.414843750000003 4.170859375000003  3.5515039062499976 6.6982421875  1.0149609374999997 8.21322265625  C 0.7710309628634562 8.356800508792073  0.4578395765249539 8.290353387613983  0.29322265624999844 8.060097656249997  L 0.2937695312499997 8.059550781249996  C 0.2223698034458579 7.9596058115799515  0.18398678016326286 7.839847212025571  0.18398678016326286 7.717018395810275  C 0.18398678016326286 7.509099526378982  0.29356125439920433 7.316569996076023  0.47232421874999986 7.210390624999999  Z " fill-rule="nonzero" fill="rgba(255, 237, 140, 1)" stroke="none" transform="matrix(1 0 0 1 54 229 )" class="fill" />
    <path d="M 0.47232421874999986 7.210390624999999  C 2.696191406249998 5.867265624999998  4.334765624999999 3.6513281249999956  4.911992187500001 1.0386328124999977  C 4.970194956788475 0.7654931695087406  5.211445886982993 0.5702335323386407  5.490717845701084 0.5702335323386407  C 5.549330827778693 0.5702335323386407  5.607618554399238 0.5789421751574189  5.663671875000002 0.596074218750001  C 5.676523437499998 0.6003125000000011  5.689374999999998 0.6041406249999994  5.702089843750006 0.6082421875000037  C 5.948560575076989 0.6859285416530483  6.096397797488052 0.9373817086852796  6.04443359375 1.1905273437500021  C 5.414843750000003 4.170859375000003  3.5515039062499976 6.6982421875  1.0149609374999997 8.21322265625  C 0.7710309628634562 8.356800508792073  0.4578395765249539 8.290353387613983  0.29322265624999844 8.060097656249997  L 0.2937695312499997 8.059550781249996  C 0.2223698034458579 7.9596058115799515  0.18398678016326286 7.839847212025571  0.18398678016326286 7.717018395810275  C 0.18398678016326286 7.509099526378982  0.29356125439920433 7.316569996076023  0.47232421874999986 7.210390624999999  Z " stroke-width="0" stroke-dasharray="0" stroke="rgba(255, 255, 255, 0)" fill="none" transform="matrix(1 0 0 1 54 229 )" class="stroke" mask="url(#Clip12659)" />
  </g>
</svg>