<?xml version="1.0" encoding="utf-8"?>
<svg version="1.1" xmlns:xlink="http://www.w3.org/1999/xlink" width="22px" height="22px" xmlns="http://www.w3.org/2000/svg">
  <defs>
    <pattern id="BGPattern" patternUnits="userSpaceOnUse" alignment="0 0" imageRepeat="None" />
    <mask fill="white" id="Clip13756">
      <path d="M 21.515185185185178 18.325185185185187  C 21.515185185185178 19.979259259259262  20.156481481481478 21.337962962962962  18.44333333333333 21  L 3.556666666666667 21  C 1.9025925925925926 21.337962962962962  0.5438888888888889 19.97925925925926  0.5438888888888889 18.325185185185187  L 0.5438888888888889 3.7338888888888895  C 0.5438888888888889 2.0798148148148146  1.9025925925925926 0.7211111111111111  3.556666666666667 1  L 18.502407407407404 1  C 20.156481481481478 0.7211111111111111  21.515185185185178 2.0798148148148146  21.515185185185178 3.7338888888888895  L 21.515185185185178 18.325185185185187  Z M 18.502407407407404 2.138888888888889  L 3.556666666666667 2.138888888888889  C 2.6705555555555556 2.138888888888889  1.9616666666666664 2.847777777777778  2 3.7338888888888895  L 2 18.325185185185187  C 1.9616666666666664 19.211296296296297  2.6705555555555556 19.920185185185186  3.556666666666667 20  L 18.502407407407404 20  C 19.388518518518516 19.920185185185186  20.097407407407406 19.211296296296297  20 18.325185185185187  L 20 3.7338888888888895  C 20.097407407407406 2.847777777777778  19.388518518518516 2.138888888888889  18.502407407407404 2.138888888888889  Z " fill-rule="evenodd" />
    </mask>
  </defs>
  <g transform="matrix(1 0 0 1 -209 -366 )">
    <path d="M 21.515185185185178 18.325185185185187  C 21.515185185185178 19.979259259259262  20.156481481481478 21.337962962962962  18.44333333333333 21  L 3.556666666666667 21  C 1.9025925925925926 21.337962962962962  0.5438888888888889 19.97925925925926  0.5438888888888889 18.325185185185187  L 0.5438888888888889 3.7338888888888895  C 0.5438888888888889 2.0798148148148146  1.9025925925925926 0.7211111111111111  3.556666666666667 1  L 18.502407407407404 1  C 20.156481481481478 0.7211111111111111  21.515185185185178 2.0798148148148146  21.515185185185178 3.7338888888888895  L 21.515185185185178 18.325185185185187  Z M 18.502407407407404 2.138888888888889  L 3.556666666666667 2.138888888888889  C 2.6705555555555556 2.138888888888889  1.9616666666666664 2.847777777777778  2 3.7338888888888895  L 2 18.325185185185187  C 1.9616666666666664 19.211296296296297  2.6705555555555556 19.920185185185186  3.556666666666667 20  L 18.502407407407404 20  C 19.388518518518516 19.920185185185186  20.097407407407406 19.211296296296297  20 18.325185185185187  L 20 3.7338888888888895  C 20.097407407407406 2.847777777777778  19.388518518518516 2.138888888888889  18.502407407407404 2.138888888888889  Z " fill-rule="nonzero" fill="rgba(85, 85, 85, 1)" stroke="none" transform="matrix(1 0 0 1 209 366 )" class="fill" />
    <path d="M 21.515185185185178 18.325185185185187  C 21.515185185185178 19.979259259259262  20.156481481481478 21.337962962962962  18.44333333333333 21  L 3.556666666666667 21  C 1.9025925925925926 21.337962962962962  0.5438888888888889 19.97925925925926  0.5438888888888889 18.325185185185187  L 0.5438888888888889 3.7338888888888895  C 0.5438888888888889 2.0798148148148146  1.9025925925925926 0.7211111111111111  3.556666666666667 1  L 18.502407407407404 1  C 20.156481481481478 0.7211111111111111  21.515185185185178 2.0798148148148146  21.515185185185178 3.7338888888888895  L 21.515185185185178 18.325185185185187  Z " stroke-width="0" stroke-dasharray="0" stroke="rgba(255, 255, 255, 0)" fill="none" transform="matrix(1 0 0 1 209 366 )" class="stroke" mask="url(#Clip13756)" />
    <path d="M 18.502407407407404 2.138888888888889  L 3.556666666666667 2.138888888888889  C 2.6705555555555556 2.138888888888889  1.9616666666666664 2.847777777777778  2 3.7338888888888895  L 2 18.325185185185187  C 1.9616666666666664 19.211296296296297  2.6705555555555556 19.920185185185186  3.556666666666667 20  L 18.502407407407404 20  C 19.388518518518516 19.920185185185186  20.097407407407406 19.211296296296297  20 18.325185185185187  L 20 3.7338888888888895  C 20.097407407407406 2.847777777777778  19.388518518518516 2.138888888888889  18.502407407407404 2.138888888888889  Z " stroke-width="0" stroke-dasharray="0" stroke="rgba(255, 255, 255, 0)" fill="none" transform="matrix(1 0 0 1 209 366 )" class="stroke" mask="url(#Clip13756)" />
  </g>
</svg>