<?xml version="1.0" encoding="utf-8"?>
<svg version="1.1" xmlns:xlink="http://www.w3.org/1999/xlink" width="19px" height="15px" xmlns="http://www.w3.org/2000/svg">
  <defs>
    <pattern id="BGPattern" patternUnits="userSpaceOnUse" alignment="0 0" imageRepeat="None" />
    <mask fill="white" id="Clip8501">
      <path d="M 18 1.0499067125822348  C 18.259067774143315 0.7770031045894524  18.172782502276007 0.5109907253159899  18.012216471354165 0.2899982010690782  L 16.245792439778644 11.79511770148026  C 16.245792439778644 12.51245631167763  15.662641805013019 13.093991570723682  14.943310587565101 13  L 0.7344563802083334 13  L 0.7344563802083334 13.389186112253288  C 0.7344563802083334 14.106524722450656  1.3176070149739585 14.68805998149671  2.0369382324218748 14.68805998149671  L 16.956222819010414 14.68805998149671  C 17.675554036458337 14.68805998149671  18.258704671223956 14.106547080592103  18 13.389186112253288  L 18 1.0499067125822348  Z " fill-rule="evenodd" />
    </mask>
  </defs>
  <g transform="matrix(1 0 0 1 -62 -443 )">
    <path d="M 18 1.0499067125822348  C 18.259067774143315 0.7770031045894524  18.172782502276007 0.5109907253159899  18.012216471354165 0.2899982010690782  L 16.245792439778644 11.79511770148026  C 16.245792439778644 12.51245631167763  15.662641805013019 13.093991570723682  14.943310587565101 13  L 0.7344563802083334 13  L 0.7344563802083334 13.389186112253288  C 0.7344563802083334 14.106524722450656  1.3176070149739585 14.68805998149671  2.0369382324218748 14.68805998149671  L 16.956222819010414 14.68805998149671  C 17.675554036458337 14.68805998149671  18.258704671223956 14.106547080592103  18 13.389186112253288  L 18 1.0499067125822348  Z " fill-rule="nonzero" fill="rgba(85, 85, 85, 1)" stroke="none" transform="matrix(1 0 0 1 62 443 )" class="fill" />
    <path d="M 18 1.0499067125822348  C 18.259067774143315 0.7770031045894524  18.172782502276007 0.5109907253159899  18.012216471354165 0.2899982010690782  L 16.245792439778644 11.79511770148026  C 16.245792439778644 12.51245631167763  15.662641805013019 13.093991570723682  14.943310587565101 13  L 0.7344563802083334 13  L 0.7344563802083334 13.389186112253288  C 0.7344563802083334 14.106524722450656  1.3176070149739585 14.68805998149671  2.0369382324218748 14.68805998149671  L 16.956222819010414 14.68805998149671  C 17.675554036458337 14.68805998149671  18.258704671223956 14.106547080592103  18 13.389186112253288  L 18 1.0499067125822348  Z " stroke-width="0" stroke-dasharray="0" stroke="rgba(255, 255, 255, 0)" fill="none" transform="matrix(1 0 0 1 62 443 )" class="stroke" mask="url(#Clip8501)" />
  </g>
</svg>