<?xml version="1.0" encoding="utf-8"?>
<svg version="1.1" xmlns:xlink="http://www.w3.org/1999/xlink" width="19px" height="20px" xmlns="http://www.w3.org/2000/svg">
  <defs>
    <pattern id="BGPattern" patternUnits="userSpaceOnUse" alignment="0 0" imageRepeat="None" />
    <mask fill="white" id="Clip774">
      <path d="M 17.138671875 8.953125  C 17.138671875 6.3799414062499995  16.128183593750002 4.0409570312500005  14.4827734375 2.3116015625  C 14.103392719143283 1.9165605178019458  14.09996702106083 1.2935642665256264  14.474980468750005 0.8943750000000001  C 14.517363281250002 0.8435156250000002  14.541015625000004 0.818359375  14.541015625000004 0.818359375  L 14.541015625000004 0.8134374999999991  C 14.539433402338023 0.8107050100152442  14.540070877817886 0.8072278710341685  14.542519531250004 0.8052343749999995  C 14.54492190747629 0.8031853463188305  14.548456998773716 0.8031853463188323  14.550859375000005 0.8052343749999995  C 16.833515625000004 2.781367187500001  18.277949218750003 5.699902343749999  18.277949218750003 8.953125  C 18.277949218750003 14.901621093750002  13.448496093750002 19.73107421875  7.5000000000000036 19.73107421875  C 5.013085937500006 19.73107421875  2.7216796875000036 18.88697265625  0.8971679687500044 17.469882812499993  C 0.6897917928977222 17.305490050988237  0.6421103999792468 17.010031469495885  0.787246093750003 16.788749999999997  L 0.7860156250000028 16.78806640625  C 0.9008311872716437 16.613110334001213  1.0960292585251494 16.507732255100485  1.305295215040955 16.507732255100485  C 1.4419195256609427 16.507732255100485  1.5747320588934635 16.55277983039992  1.683164062500003 16.6358984375  C 3.2997265625 17.86349609375  5.315507812499999 18.591796875  7.5 18.591796875  C 12.819726562499998 18.591796875  17.138671875 14.272851562499998  17.138671875 8.953125  Z " fill-rule="evenodd" />
    </mask>
  </defs>
  <g transform="matrix(1 0 0 1 -42 -219 )">
    <path d="M 17.138671875 8.953125  C 17.138671875 6.3799414062499995  16.128183593750002 4.0409570312500005  14.4827734375 2.3116015625  C 14.103392719143283 1.9165605178019458  14.09996702106083 1.2935642665256264  14.474980468750005 0.8943750000000001  C 14.517363281250002 0.8435156250000002  14.541015625000004 0.818359375  14.541015625000004 0.818359375  L 14.541015625000004 0.8134374999999991  C 14.539433402338023 0.8107050100152442  14.540070877817886 0.8072278710341685  14.542519531250004 0.8052343749999995  C 14.54492190747629 0.8031853463188305  14.548456998773716 0.8031853463188323  14.550859375000005 0.8052343749999995  C 16.833515625000004 2.781367187500001  18.277949218750003 5.699902343749999  18.277949218750003 8.953125  C 18.277949218750003 14.901621093750002  13.448496093750002 19.73107421875  7.5000000000000036 19.73107421875  C 5.013085937500006 19.73107421875  2.7216796875000036 18.88697265625  0.8971679687500044 17.469882812499993  C 0.6897917928977222 17.305490050988237  0.6421103999792468 17.010031469495885  0.787246093750003 16.788749999999997  L 0.7860156250000028 16.78806640625  C 0.9008311872716437 16.613110334001213  1.0960292585251494 16.507732255100485  1.305295215040955 16.507732255100485  C 1.4419195256609427 16.507732255100485  1.5747320588934635 16.55277983039992  1.683164062500003 16.6358984375  C 3.2997265625 17.86349609375  5.315507812499999 18.591796875  7.5 18.591796875  C 12.819726562499998 18.591796875  17.138671875 14.272851562499998  17.138671875 8.953125  Z " fill-rule="nonzero" fill="rgba(255, 186, 88, 1)" stroke="none" transform="matrix(1 0 0 1 42 219 )" class="fill" />
    <path d="M 17.138671875 8.953125  C 17.138671875 6.3799414062499995  16.128183593750002 4.0409570312500005  14.4827734375 2.3116015625  C 14.103392719143283 1.9165605178019458  14.09996702106083 1.2935642665256264  14.474980468750005 0.8943750000000001  C 14.517363281250002 0.8435156250000002  14.541015625000004 0.818359375  14.541015625000004 0.818359375  L 14.541015625000004 0.8134374999999991  C 14.539433402338023 0.8107050100152442  14.540070877817886 0.8072278710341685  14.542519531250004 0.8052343749999995  C 14.54492190747629 0.8031853463188305  14.548456998773716 0.8031853463188323  14.550859375000005 0.8052343749999995  C 16.833515625000004 2.781367187500001  18.277949218750003 5.699902343749999  18.277949218750003 8.953125  C 18.277949218750003 14.901621093750002  13.448496093750002 19.73107421875  7.5000000000000036 19.73107421875  C 5.013085937500006 19.73107421875  2.7216796875000036 18.88697265625  0.8971679687500044 17.469882812499993  C 0.6897917928977222 17.305490050988237  0.6421103999792468 17.010031469495885  0.787246093750003 16.788749999999997  L 0.7860156250000028 16.78806640625  C 0.9008311872716437 16.613110334001213  1.0960292585251494 16.507732255100485  1.305295215040955 16.507732255100485  C 1.4419195256609427 16.507732255100485  1.5747320588934635 16.55277983039992  1.683164062500003 16.6358984375  C 3.2997265625 17.86349609375  5.315507812499999 18.591796875  7.5 18.591796875  C 12.819726562499998 18.591796875  17.138671875 14.272851562499998  17.138671875 8.953125  Z " stroke-width="0" stroke-dasharray="0" stroke="rgba(255, 255, 255, 0)" fill="none" transform="matrix(1 0 0 1 42 219 )" class="stroke" mask="url(#Clip774)" />
  </g>
</svg>