<?xml version="1.0" encoding="utf-8"?>
<svg version="1.1" xmlns:xlink="http://www.w3.org/1999/xlink" width="21px" height="20px" xmlns="http://www.w3.org/2000/svg">
  <defs>
    <pattern id="BGPattern" patternUnits="userSpaceOnUse" alignment="0 0" imageRepeat="None" />
    <mask fill="white" id="Clip8475">
      <path d="M 0.861328125 9.953124999999996  C 0.861328125 15.276416485185479  5.1767085148145195 19.591796875  10.5 19.591796875  C 15.823291485185479 19.591796875  20.138671875 15.276416485185479  20.138671875 9.953124999999996  C 20.138671875 4.6298335148145195  15.823291485185479 0.3144531249999991  10.5 0.3144531249999991  C 5.1767085148145195 0.3144531249999991  0.861328125 4.6298335148145195  0.861328125 9.953124999999996  Z " fill-rule="evenodd" />
    </mask>
  </defs>
  <g transform="matrix(1 0 0 1 -39 -218 )">
    <path d="M 0.861328125 9.953124999999996  C 0.861328125 15.276416485185479  5.1767085148145195 19.591796875  10.5 19.591796875  C 15.823291485185479 19.591796875  20.138671875 15.276416485185479  20.138671875 9.953124999999996  C 20.138671875 4.6298335148145195  15.823291485185479 0.3144531249999991  10.5 0.3144531249999991  C 5.1767085148145195 0.3144531249999991  0.861328125 4.6298335148145195  0.861328125 9.953124999999996  Z " fill-rule="nonzero" fill="rgba(255, 188, 84, 1)" stroke="none" transform="matrix(1 0 0 1 39 218 )" class="fill" />
    <path d="M 0.861328125 9.953124999999996  C 0.861328125 15.276416485185479  5.1767085148145195 19.591796875  10.5 19.591796875  C 15.823291485185479 19.591796875  20.138671875 15.276416485185479  20.138671875 9.953124999999996  C 20.138671875 4.6298335148145195  15.823291485185479 0.3144531249999991  10.5 0.3144531249999991  C 5.1767085148145195 0.3144531249999991  0.861328125 4.6298335148145195  0.861328125 9.953124999999996  Z " stroke-width="0" stroke-dasharray="0" stroke="rgba(255, 255, 255, 0)" fill="none" transform="matrix(1 0 0 1 39 218 )" class="stroke" mask="url(#Clip8475)" />
  </g>
</svg>