<?xml version="1.0" encoding="utf-8"?>
<svg version="1.1" xmlns:xlink="http://www.w3.org/1999/xlink" width="22px" height="22px" xmlns="http://www.w3.org/2000/svg">
  <defs>
    <pattern id="BGPattern" patternUnits="userSpaceOnUse" alignment="0 0" imageRepeat="None" />
    <mask fill="white" id="Clip8489">
      <path d="M 21.786637931034484 11  C 21.786637931034484 16.957295631256727  16.957295631256727 21.786637931034484  11 21.786637931034484  C 5.042704368743273 21.786637931034484  0.2133620689655179 16.957295631256727  0.2133620689655179 11  C 0.2133620689655179 5.042704368743273  5.042704368743273 0.2133620689655179  11 0.2133620689655179  C 16.957295631256727 0.2133620689655179  21.786637931034484 5.042704368743273  21.786637931034484 11  Z M 20.127155172413794 11  C 20.127155172413794 5.959211388936616  16.040788611063384 1.8728448275862069  11 1.8728448275862069  C 5.959211388936616 1.8728448275862069  1.8728448275862069 5.959211388936616  1.8728448275862069 11  C 1.8728448275862069 16.040788611063384  5.959211388936616 20.127155172413794  11 20.127155172413794  C 16.040788611063384 20.127155172413794  20.127155172413794 16.040788611063384  20.127155172413794 11  Z M 15.97844827586207 13.489224137931034  L 11 13.489224137931034  C 10.541746489903328 13.489224137931034  10.170258620689655 13.117736268717362  10.170258620689655 12.65948275862069  L 10.170258620689655 6.0215517241379315  C 10.170258620689655 5.563298214041261  10.541746489903328 5.191810344827586  11 5.191810344827586  C 11.458253510096672 5.191810344827586  11.829741379310345 5.563298214041261  11.829741379310345 6.0215517241379315  L 11.829741379310345 11.829741379310345  L 15.97844827586207 11.829741379310345  C 16.436701785958743 11.829741379310345  16.808189655172413 12.201229248524017  16.808189655172413 12.65948275862069  C 16.808189655172413 13.117736268717362  16.436701785958743 13.489224137931034  15.97844827586207 13.489224137931034  Z " fill-rule="evenodd" />
    </mask>
  </defs>
  <g transform="matrix(1 0 0 1 -59 -366 )">
    <path d="M 21.786637931034484 11  C 21.786637931034484 16.957295631256727  16.957295631256727 21.786637931034484  11 21.786637931034484  C 5.042704368743273 21.786637931034484  0.2133620689655179 16.957295631256727  0.2133620689655179 11  C 0.2133620689655179 5.042704368743273  5.042704368743273 0.2133620689655179  11 0.2133620689655179  C 16.957295631256727 0.2133620689655179  21.786637931034484 5.042704368743273  21.786637931034484 11  Z M 20.127155172413794 11  C 20.127155172413794 5.959211388936616  16.040788611063384 1.8728448275862069  11 1.8728448275862069  C 5.959211388936616 1.8728448275862069  1.8728448275862069 5.959211388936616  1.8728448275862069 11  C 1.8728448275862069 16.040788611063384  5.959211388936616 20.127155172413794  11 20.127155172413794  C 16.040788611063384 20.127155172413794  20.127155172413794 16.040788611063384  20.127155172413794 11  Z M 15.97844827586207 13.489224137931034  L 11 13.489224137931034  C 10.541746489903328 13.489224137931034  10.170258620689655 13.117736268717362  10.170258620689655 12.65948275862069  L 10.170258620689655 6.0215517241379315  C 10.170258620689655 5.563298214041261  10.541746489903328 5.191810344827586  11 5.191810344827586  C 11.458253510096672 5.191810344827586  11.829741379310345 5.563298214041261  11.829741379310345 6.0215517241379315  L 11.829741379310345 11.829741379310345  L 15.97844827586207 11.829741379310345  C 16.436701785958743 11.829741379310345  16.808189655172413 12.201229248524017  16.808189655172413 12.65948275862069  C 16.808189655172413 13.117736268717362  16.436701785958743 13.489224137931034  15.97844827586207 13.489224137931034  Z " fill-rule="nonzero" fill="rgba(85, 85, 85, 1)" stroke="none" transform="matrix(1 0 0 1 59 366 )" class="fill" />
    <path d="M 21.786637931034484 11  C 21.786637931034484 16.957295631256727  16.957295631256727 21.786637931034484  11 21.786637931034484  C 5.042704368743273 21.786637931034484  0.2133620689655179 16.957295631256727  0.2133620689655179 11  C 0.2133620689655179 5.042704368743273  5.042704368743273 0.2133620689655179  11 0.2133620689655179  C 16.957295631256727 0.2133620689655179  21.786637931034484 5.042704368743273  21.786637931034484 11  Z " stroke-width="0" stroke-dasharray="0" stroke="rgba(255, 255, 255, 0)" fill="none" transform="matrix(1 0 0 1 59 366 )" class="stroke" mask="url(#Clip8489)" />
    <path d="M 20.127155172413794 11  C 20.127155172413794 5.959211388936616  16.040788611063384 1.8728448275862069  11 1.8728448275862069  C 5.959211388936616 1.8728448275862069  1.8728448275862069 5.959211388936616  1.8728448275862069 11  C 1.8728448275862069 16.040788611063384  5.959211388936616 20.127155172413794  11 20.127155172413794  C 16.040788611063384 20.127155172413794  20.127155172413794 16.040788611063384  20.127155172413794 11  Z " stroke-width="0" stroke-dasharray="0" stroke="rgba(255, 255, 255, 0)" fill="none" transform="matrix(1 0 0 1 59 366 )" class="stroke" mask="url(#Clip8489)" />
    <path d="M 15.97844827586207 13.489224137931034  L 11 13.489224137931034  C 10.541746489903328 13.489224137931034  10.170258620689655 13.117736268717362  10.170258620689655 12.65948275862069  L 10.170258620689655 6.0215517241379315  C 10.170258620689655 5.563298214041261  10.541746489903328 5.191810344827586  11 5.191810344827586  C 11.458253510096672 5.191810344827586  11.829741379310345 5.563298214041261  11.829741379310345 6.0215517241379315  L 11.829741379310345 11.829741379310345  L 15.97844827586207 11.829741379310345  C 16.436701785958743 11.829741379310345  16.808189655172413 12.201229248524017  16.808189655172413 12.65948275862069  C 16.808189655172413 13.117736268717362  16.436701785958743 13.489224137931034  15.97844827586207 13.489224137931034  Z " stroke-width="0" stroke-dasharray="0" stroke="rgba(255, 255, 255, 0)" fill="none" transform="matrix(1 0 0 1 59 366 )" class="stroke" mask="url(#Clip8489)" />
  </g>
</svg>