<?xml version="1.0" encoding="utf-8"?>
<svg version="1.1" xmlns:xlink="http://www.w3.org/1999/xlink" width="13px" height="15px" xmlns="http://www.w3.org/2000/svg">
  <defs>
    <pattern id="BGPattern" patternUnits="userSpaceOnUse" alignment="0 0" imageRepeat="None" />
    <mask fill="white" id="Clip8518">
      <path d="M 12.995723684210525 9.850446428571429  C 13 9.328125000000004  12.595888157894734 8.906250000000004  12.097697368421052 8.90625  C 11.59950657894737 8.90625  11.195394736842104 9.328125  11.195394736842104 9.848214285714288  C 11.195394736842104 11.533482142857144  9.886842105263156 12.901785714285715  8.270394736842103 12.901785714285715  C 6.696710526315788 12.901785714285715  5.41595394736842 11.60267857142857  5.351809210526315 9.975446428571427  L 5.351809210526315 1.415178571428571  C 5.351809210526315 0.8950892857142849  4.947697368421052 0.4732142857142855  4.449506578947366 0.4732142857142855  C 3.9513157894736834 0.4732142857142855  3.547203947368418 0.8950892857142849  3.547203947368418 1.415178571428571  L 3.547203947368418 9.785714285714286  C 3.545065789473681 9.805803571428571  3.5407894736842085 9.825892857142856  3.5407894736842085 9.845982142857144  C 3.5407894736842085 9.886160714285714  3.5450657894736834 9.926339285714286  3.547203947368418 9.966517857142858  L 3.547203947368418 10.104910714285715  C 3.547203947368418 10.118303571428573  3.551480263157893 10.13169642857143  3.551480263157893 10.145089285714285  C 3.551480263157893 10.158482142857142  3.547203947368418 10.171875000000002  3.547203947368418 10.185267857142858  C 3.547203947368418 10.714285714285715  3.3782894736842084 11.203125  3.096052631578944 11.598214285714285  L 2.6342105263157856 12.080357142857142  C 2.2557565789473637 12.375  1.789638157894733 12.551339285714285  1.2807565789473643 12.551339285714285  C 0.7825657894736798 12.551339285714285  0.3784539473684172 12.973214285714285  0.3784539473684172 13.493303571428571  C 0.3784539473684172 14.013392857142856  0.7825657894736798 14.435267857142858  1.2807565789473643 14.435267857142858  C 2.5850328947368393 14.435267857142858  3.741776315789469 13.792410714285715  4.487993421052629 12.796875000000002  C 5.3496710526315745 13.997767857142858  6.718092105263153 14.779017857142858  8.26611842105263 14.78125  C 10.876809210526314 14.78125  12.993585526315787 12.573660714285715  12.995723684210525 9.850446428571429  Z " fill-rule="evenodd" />
    </mask>
  </defs>
  <g transform="matrix(1 0 0 1 -138 -285 )">
    <path d="M 12.995723684210525 9.850446428571429  C 13 9.328125000000004  12.595888157894734 8.906250000000004  12.097697368421052 8.90625  C 11.59950657894737 8.90625  11.195394736842104 9.328125  11.195394736842104 9.848214285714288  C 11.195394736842104 11.533482142857144  9.886842105263156 12.901785714285715  8.270394736842103 12.901785714285715  C 6.696710526315788 12.901785714285715  5.41595394736842 11.60267857142857  5.351809210526315 9.975446428571427  L 5.351809210526315 1.415178571428571  C 5.351809210526315 0.8950892857142849  4.947697368421052 0.4732142857142855  4.449506578947366 0.4732142857142855  C 3.9513157894736834 0.4732142857142855  3.547203947368418 0.8950892857142849  3.547203947368418 1.415178571428571  L 3.547203947368418 9.785714285714286  C 3.545065789473681 9.805803571428571  3.5407894736842085 9.825892857142856  3.5407894736842085 9.845982142857144  C 3.5407894736842085 9.886160714285714  3.5450657894736834 9.926339285714286  3.547203947368418 9.966517857142858  L 3.547203947368418 10.104910714285715  C 3.547203947368418 10.118303571428573  3.551480263157893 10.13169642857143  3.551480263157893 10.145089285714285  C 3.551480263157893 10.158482142857142  3.547203947368418 10.171875000000002  3.547203947368418 10.185267857142858  C 3.547203947368418 10.714285714285715  3.3782894736842084 11.203125  3.096052631578944 11.598214285714285  L 2.6342105263157856 12.080357142857142  C 2.2557565789473637 12.375  1.789638157894733 12.551339285714285  1.2807565789473643 12.551339285714285  C 0.7825657894736798 12.551339285714285  0.3784539473684172 12.973214285714285  0.3784539473684172 13.493303571428571  C 0.3784539473684172 14.013392857142856  0.7825657894736798 14.435267857142858  1.2807565789473643 14.435267857142858  C 2.5850328947368393 14.435267857142858  3.741776315789469 13.792410714285715  4.487993421052629 12.796875000000002  C 5.3496710526315745 13.997767857142858  6.718092105263153 14.779017857142858  8.26611842105263 14.78125  C 10.876809210526314 14.78125  12.993585526315787 12.573660714285715  12.995723684210525 9.850446428571429  Z " fill-rule="nonzero" fill="rgba(245, 154, 35, 1)" stroke="none" transform="matrix(1 0 0 1 138 285 )" class="fill" />
    <path d="M 12.995723684210525 9.850446428571429  C 13 9.328125000000004  12.595888157894734 8.906250000000004  12.097697368421052 8.90625  C 11.59950657894737 8.90625  11.195394736842104 9.328125  11.195394736842104 9.848214285714288  C 11.195394736842104 11.533482142857144  9.886842105263156 12.901785714285715  8.270394736842103 12.901785714285715  C 6.696710526315788 12.901785714285715  5.41595394736842 11.60267857142857  5.351809210526315 9.975446428571427  L 5.351809210526315 1.415178571428571  C 5.351809210526315 0.8950892857142849  4.947697368421052 0.4732142857142855  4.449506578947366 0.4732142857142855  C 3.9513157894736834 0.4732142857142855  3.547203947368418 0.8950892857142849  3.547203947368418 1.415178571428571  L 3.547203947368418 9.785714285714286  C 3.545065789473681 9.805803571428571  3.5407894736842085 9.825892857142856  3.5407894736842085 9.845982142857144  C 3.5407894736842085 9.886160714285714  3.5450657894736834 9.926339285714286  3.547203947368418 9.966517857142858  L 3.547203947368418 10.104910714285715  C 3.547203947368418 10.118303571428573  3.551480263157893 10.13169642857143  3.551480263157893 10.145089285714285  C 3.551480263157893 10.158482142857142  3.547203947368418 10.171875000000002  3.547203947368418 10.185267857142858  C 3.547203947368418 10.714285714285715  3.3782894736842084 11.203125  3.096052631578944 11.598214285714285  L 2.6342105263157856 12.080357142857142  C 2.2557565789473637 12.375  1.789638157894733 12.551339285714285  1.2807565789473643 12.551339285714285  C 0.7825657894736798 12.551339285714285  0.3784539473684172 12.973214285714285  0.3784539473684172 13.493303571428571  C 0.3784539473684172 14.013392857142856  0.7825657894736798 14.435267857142858  1.2807565789473643 14.435267857142858  C 2.5850328947368393 14.435267857142858  3.741776315789469 13.792410714285715  4.487993421052629 12.796875000000002  C 5.3496710526315745 13.997767857142858  6.718092105263153 14.779017857142858  8.26611842105263 14.78125  C 10.876809210526314 14.78125  12.993585526315787 12.573660714285715  12.995723684210525 9.850446428571429  Z " stroke-width="0" stroke-dasharray="0" stroke="rgba(255, 255, 255, 0)" fill="none" transform="matrix(1 0 0 1 138 285 )" class="stroke" mask="url(#Clip8518)" />
  </g>
</svg>