<?xml version="1.0" encoding="utf-8"?>
<svg version="1.1" xmlns:xlink="http://www.w3.org/1999/xlink" width="22px" height="20px" xmlns="http://www.w3.org/2000/svg">
  <defs>
    <pattern id="BGPattern" patternUnits="userSpaceOnUse" alignment="0 0" imageRepeat="None" />
    <mask fill="white" id="Clip15239">
      <path d="M 5.543650802176337 17.675438605057565  C 6.198412706938244 17.675438605057565  6.634920651971726 17.236842105263154  7 16.578947368421055  L 7 1.2280701840049337  C 6.634920626395089 0.5701754471628289  6.1984126813616065 0.13157894736842105  5.543650802176337 0.13157894736842105  L 1.1785714285714286 0.13157894736842105  C 0.5238095238095237 0.13157894736842105  0.08730157877604172 0.5701754471628289  0 1.2280701840049337  L 0 16.578947368421055  C 0.08730157877604172 17.236842105263158  0.5238095238095237 17.675438605057565  1.1785714285714286 17.675438605057565  L 5.543650802176337 17.675438605057565  Z M 1.1785714285714286 8.355263157894736  L 1.1785714285714286 1.2280701840049337  L 5.543650802176337 1.2280701840049337  L 5.543650802176337 8.355263157894736  L 1.1785714285714286 8.355263157894736  Z M 5.543650802176337 16.578947368421055  L 1.1785714285714286 16.578947368421055  L 1.1785714285714286 9.45175439453125  L 5.543650802176337 9.45175439453125  L 5.543650802176337 16.578947368421055  Z M 21.912698421223958 14.93421052631579  C 21.912698421223958 14.605263157894736  21.694444461495532 14.38596492084704  21.367063483537947 14.38596492084704  C 21.039682531157 14.38596492084704  20.82142857142857 14.605263157894736  20.82142857142857 14.93421052631579  L 20.82142857142857 18.223684210526315  C 20.82142857142857 18.55263157894737  20.603174611700148 18.771929815995065  20.2757936593192 18.771929815995065  L 13.728174611700146 18.771929815995065  C 13.400793659319197 18.771929815995065  13.18253969959077 18.55263157894737  13.182539674014134 18.223684210526315  L 13.182539674014134 14.824561394942435  L 13.400793659319193 14.824561394942435  C 16.565476190476186 14.166666658100329  19.293650802176337 12.08333331620066  20.712301578776035 9.232456131784538  C 20.82142857142857 9.013157894736842  20.712301578776035 8.68421052631579  20.49404761904762 8.464912289268092  C 20.2757936593192 8.355263157894736  19.948412706938242 8.464912289268092  19.730158721633185 8.68421052631579  C 18.42063491210937 11.315789473684212  16.01984125279018 13.179824552837172  13.182539674014134 13.728070184004935  L 13.182539674014134 7.258771921258224  C 13.182539674014134 6.929824552837171  12.964285714285712 6.7105263157894735  12.63690476190476 6.7105263157894735  C 12.309523809523805 6.7105263157894735  12.091269849795383 6.9298245528371725  12 7.258771921258224  L 12 18.223684210526315  C 12.091269849795383 19.10087718441612  12.855158747209819 19.86842105263158  13.728174611700146 19.86842105263158  L 20.27579365931919 19.86842105263158  C 21.14880952380952 19.86842105263158  21.912698421223958 19.10087718441612  21.912698421223958 18.223684210526315  L 21.912698421223958 14.93421052631579  Z " fill-rule="evenodd" />
    </mask>
  </defs>
  <g transform="matrix(1 0 0 1 -282 -280 )">
    <path d="M 5.543650802176337 17.675438605057565  C 6.198412706938244 17.675438605057565  6.634920651971726 17.236842105263154  7 16.578947368421055  L 7 1.2280701840049337  C 6.634920626395089 0.5701754471628289  6.1984126813616065 0.13157894736842105  5.543650802176337 0.13157894736842105  L 1.1785714285714286 0.13157894736842105  C 0.5238095238095237 0.13157894736842105  0.08730157877604172 0.5701754471628289  0 1.2280701840049337  L 0 16.578947368421055  C 0.08730157877604172 17.236842105263158  0.5238095238095237 17.675438605057565  1.1785714285714286 17.675438605057565  L 5.543650802176337 17.675438605057565  Z M 1.1785714285714286 8.355263157894736  L 1.1785714285714286 1.2280701840049337  L 5.543650802176337 1.2280701840049337  L 5.543650802176337 8.355263157894736  L 1.1785714285714286 8.355263157894736  Z M 5.543650802176337 16.578947368421055  L 1.1785714285714286 16.578947368421055  L 1.1785714285714286 9.45175439453125  L 5.543650802176337 9.45175439453125  L 5.543650802176337 16.578947368421055  Z M 21.912698421223958 14.93421052631579  C 21.912698421223958 14.605263157894736  21.694444461495532 14.38596492084704  21.367063483537947 14.38596492084704  C 21.039682531157 14.38596492084704  20.82142857142857 14.605263157894736  20.82142857142857 14.93421052631579  L 20.82142857142857 18.223684210526315  C 20.82142857142857 18.55263157894737  20.603174611700148 18.771929815995065  20.2757936593192 18.771929815995065  L 13.728174611700146 18.771929815995065  C 13.400793659319197 18.771929815995065  13.18253969959077 18.55263157894737  13.182539674014134 18.223684210526315  L 13.182539674014134 14.824561394942435  L 13.400793659319193 14.824561394942435  C 16.565476190476186 14.166666658100329  19.293650802176337 12.08333331620066  20.712301578776035 9.232456131784538  C 20.82142857142857 9.013157894736842  20.712301578776035 8.68421052631579  20.49404761904762 8.464912289268092  C 20.2757936593192 8.355263157894736  19.948412706938242 8.464912289268092  19.730158721633185 8.68421052631579  C 18.42063491210937 11.315789473684212  16.01984125279018 13.179824552837172  13.182539674014134 13.728070184004935  L 13.182539674014134 7.258771921258224  C 13.182539674014134 6.929824552837171  12.964285714285712 6.7105263157894735  12.63690476190476 6.7105263157894735  C 12.309523809523805 6.7105263157894735  12.091269849795383 6.9298245528371725  12 7.258771921258224  L 12 18.223684210526315  C 12.091269849795383 19.10087718441612  12.855158747209819 19.86842105263158  13.728174611700146 19.86842105263158  L 20.27579365931919 19.86842105263158  C 21.14880952380952 19.86842105263158  21.912698421223958 19.10087718441612  21.912698421223958 18.223684210526315  L 21.912698421223958 14.93421052631579  Z " fill-rule="nonzero" fill="rgba(255, 64, 37, 1)" stroke="none" transform="matrix(1 0 0 1 282 280 )" class="fill" />
    <path d="M 5.543650802176337 17.675438605057565  C 6.198412706938244 17.675438605057565  6.634920651971726 17.236842105263154  7 16.578947368421055  L 7 1.2280701840049337  C 6.634920626395089 0.5701754471628289  6.1984126813616065 0.13157894736842105  5.543650802176337 0.13157894736842105  L 1.1785714285714286 0.13157894736842105  C 0.5238095238095237 0.13157894736842105  0.08730157877604172 0.5701754471628289  0 1.2280701840049337  L 0 16.578947368421055  C 0.08730157877604172 17.236842105263158  0.5238095238095237 17.675438605057565  1.1785714285714286 17.675438605057565  L 5.543650802176337 17.675438605057565  Z " stroke-width="0" stroke-dasharray="0" stroke="rgba(255, 255, 255, 0)" fill="none" transform="matrix(1 0 0 1 282 280 )" class="stroke" mask="url(#Clip15239)" />
    <path d="M 1.1785714285714286 8.355263157894736  L 1.1785714285714286 1.2280701840049337  L 5.543650802176337 1.2280701840049337  L 5.543650802176337 8.355263157894736  L 1.1785714285714286 8.355263157894736  Z " stroke-width="0" stroke-dasharray="0" stroke="rgba(255, 255, 255, 0)" fill="none" transform="matrix(1 0 0 1 282 280 )" class="stroke" mask="url(#Clip15239)" />
    <path d="M 5.543650802176337 16.578947368421055  L 1.1785714285714286 16.578947368421055  L 1.1785714285714286 9.45175439453125  L 5.543650802176337 9.45175439453125  L 5.543650802176337 16.578947368421055  Z " stroke-width="0" stroke-dasharray="0" stroke="rgba(255, 255, 255, 0)" fill="none" transform="matrix(1 0 0 1 282 280 )" class="stroke" mask="url(#Clip15239)" />
    <path d="M 21.912698421223958 14.93421052631579  C 21.912698421223958 14.605263157894736  21.694444461495532 14.38596492084704  21.367063483537947 14.38596492084704  C 21.039682531157 14.38596492084704  20.82142857142857 14.605263157894736  20.82142857142857 14.93421052631579  L 20.82142857142857 18.223684210526315  C 20.82142857142857 18.55263157894737  20.603174611700148 18.771929815995065  20.2757936593192 18.771929815995065  L 13.728174611700146 18.771929815995065  C 13.400793659319197 18.771929815995065  13.18253969959077 18.55263157894737  13.182539674014134 18.223684210526315  L 13.182539674014134 14.824561394942435  L 13.400793659319193 14.824561394942435  C 16.565476190476186 14.166666658100329  19.293650802176337 12.08333331620066  20.712301578776035 9.232456131784538  C 20.82142857142857 9.013157894736842  20.712301578776035 8.68421052631579  20.49404761904762 8.464912289268092  C 20.2757936593192 8.355263157894736  19.948412706938242 8.464912289268092  19.730158721633185 8.68421052631579  C 18.42063491210937 11.315789473684212  16.01984125279018 13.179824552837172  13.182539674014134 13.728070184004935  L 13.182539674014134 7.258771921258224  C 13.182539674014134 6.929824552837171  12.964285714285712 6.7105263157894735  12.63690476190476 6.7105263157894735  C 12.309523809523805 6.7105263157894735  12.091269849795383 6.9298245528371725  12 7.258771921258224  L 12 18.223684210526315  C 12.091269849795383 19.10087718441612  12.855158747209819 19.86842105263158  13.728174611700146 19.86842105263158  L 20.27579365931919 19.86842105263158  C 21.14880952380952 19.86842105263158  21.912698421223958 19.10087718441612  21.912698421223958 18.223684210526315  L 21.912698421223958 14.93421052631579  Z " stroke-width="0" stroke-dasharray="0" stroke="rgba(255, 255, 255, 0)" fill="none" transform="matrix(1 0 0 1 282 280 )" class="stroke" mask="url(#Clip15239)" />
  </g>
</svg>