<?xml version="1.0" encoding="utf-8"?>
<svg version="1.1" xmlns:xlink="http://www.w3.org/1999/xlink" width="17px" height="10px" xmlns="http://www.w3.org/2000/svg">
  <defs>
    <pattern id="BGPattern" patternUnits="userSpaceOnUse" alignment="0 0" imageRepeat="None" />
    <mask fill="white" id="Clip15210">
      <path d="M 16.738289473684212 7.25681818181818  L 16.790184210526316 1.2986363636363631  C 16.790184210526316 0.8900000000000009  16.46584210526316 0.5604545454545441  16.063657894736842 0.5604545454545441  C 15.661473684210527 0.5604545454545441  15.337131578947364 0.8899999999999976  15.337131578947364 1.2986363636363631  L 15.337131578947364 7.441363636363637  C 15.337131578947364 7.49409090909091  15.337131578947364 7.533636363636362  15.350105263157895 7.586363636363636  C 15.363078947368418 7.639090909090908  15.363078947368418 7.8236363636363615  15.298210526315785 7.9027272727272715  C 15.259289473684207 7.942272727272723  15.155499999999998 7.9949999999999966  14.93494736842105 7.9949999999999966  L 10.874184210526314 7.9949999999999966  L 10.84823684210526 3.631818181818179  C 10.874184210526314 3.4077272727272727  10.91310526315789 2.669545454545453  10.471999999999998 2.1290909090909045  C 10.277394736842105 1.891818181818178  9.91413157894737 1.6149999999999987  9.30436842105263 1.6149999999999987  L 7.721578947368419 1.6149999999999987  C 7.111815789473684 1.6149999999999987  6.7485526315789475 1.891818181818178  6.553947368421052 2.1290909090909045  C 6.112842105263157 2.656363636363634  6.151763157894735 3.3945454545454528  6.1777105263157885 3.631818181818179  L 6.151763157894735 7.98181818181818  L 2.0780263157894736 7.98181818181818  C 1.8704473684210523 7.98181818181818  1.7536842105263157 7.9422727272727265  1.7147631578947369 7.9027272727272715  C 1.662868421052631 7.836818181818181  1.6498947368421046 7.678636363636365  1.662868421052631 7.586363636363636  C 1.6758421052631574 7.533636363636362  1.6758421052631574 7.49409090909091  1.6758421052631574 7.454545454545453  L 1.6758421052631574 1.3118181818181798  C 1.6758421052631574 0.9031818181818174  1.3514999999999995 0.5736363636363622  0.9493157894736842 0.5736363636363622  C 0.5471315789473687 0.5736363636363622  0.22278947368421023 0.9031818181818158  0.22278947368421023 1.3118181818181798  L 0.22278947368421023 7.25681818181818  C 0.1838684210526314 7.5204545454545455  0.15792105263157882 8.179545454545455  0.5860526315789476 8.706818181818182  C 0.8195789473684214 8.996818181818181  1.2606842105263154 9.326363636363638  2.065052631578947 9.326363636363638  L 6.8523421052631575 9.326363636363638  C 7.254526315789474 9.326363636363638  7.578868421052633 8.996818181818181  7.578868421052633 8.851818181818182  L 7.604815789473685 3.842727272727273  C 7.604815789473685 3.5395454545454577  7.604815789473685 3.5000000000000013  7.591842105263159 3.460454545454548  C 7.578868421052633 3.3286363636363667  7.591842105263159 3.15727272727273  7.630763157894738 3.091363636363637  L 9.330315789473685 3.091363636363637  C 9.356263157894738 3.1440909090909095  9.38221052631579 3.3286363636363667  9.369236842105263 3.460454545454548  C 9.356263157894738 3.5000000000000013  9.356263157894738 3.5395454545454577  9.356263157894738 3.842727272727273  L 9.38221052631579 8.851818181818182  C 9.38221052631579 8.996818181818181  9.706552631578948 9.326363636363638  10.108736842105264 9.326363636363638  L 14.896026315789477 9.326363636363638  C 15.700394736842108 9.326363636363638  16.1415 8.98363636363636  16.375026315789476 8.706818181818182  C 16.80315789473684 8.179545454545455  16.77721052631579 7.5204545454545455  16.738289473684212 7.25681818181818  Z " fill-rule="evenodd" />
    </mask>
  </defs>
  <g transform="matrix(1 0 0 1 -62 -521 )">
    <path d="M 16.738289473684212 7.25681818181818  L 16.790184210526316 1.2986363636363631  C 16.790184210526316 0.8900000000000009  16.46584210526316 0.5604545454545441  16.063657894736842 0.5604545454545441  C 15.661473684210527 0.5604545454545441  15.337131578947364 0.8899999999999976  15.337131578947364 1.2986363636363631  L 15.337131578947364 7.441363636363637  C 15.337131578947364 7.49409090909091  15.337131578947364 7.533636363636362  15.350105263157895 7.586363636363636  C 15.363078947368418 7.639090909090908  15.363078947368418 7.8236363636363615  15.298210526315785 7.9027272727272715  C 15.259289473684207 7.942272727272723  15.155499999999998 7.9949999999999966  14.93494736842105 7.9949999999999966  L 10.874184210526314 7.9949999999999966  L 10.84823684210526 3.631818181818179  C 10.874184210526314 3.4077272727272727  10.91310526315789 2.669545454545453  10.471999999999998 2.1290909090909045  C 10.277394736842105 1.891818181818178  9.91413157894737 1.6149999999999987  9.30436842105263 1.6149999999999987  L 7.721578947368419 1.6149999999999987  C 7.111815789473684 1.6149999999999987  6.7485526315789475 1.891818181818178  6.553947368421052 2.1290909090909045  C 6.112842105263157 2.656363636363634  6.151763157894735 3.3945454545454528  6.1777105263157885 3.631818181818179  L 6.151763157894735 7.98181818181818  L 2.0780263157894736 7.98181818181818  C 1.8704473684210523 7.98181818181818  1.7536842105263157 7.9422727272727265  1.7147631578947369 7.9027272727272715  C 1.662868421052631 7.836818181818181  1.6498947368421046 7.678636363636365  1.662868421052631 7.586363636363636  C 1.6758421052631574 7.533636363636362  1.6758421052631574 7.49409090909091  1.6758421052631574 7.454545454545453  L 1.6758421052631574 1.3118181818181798  C 1.6758421052631574 0.9031818181818174  1.3514999999999995 0.5736363636363622  0.9493157894736842 0.5736363636363622  C 0.5471315789473687 0.5736363636363622  0.22278947368421023 0.9031818181818158  0.22278947368421023 1.3118181818181798  L 0.22278947368421023 7.25681818181818  C 0.1838684210526314 7.5204545454545455  0.15792105263157882 8.179545454545455  0.5860526315789476 8.706818181818182  C 0.8195789473684214 8.996818181818181  1.2606842105263154 9.326363636363638  2.065052631578947 9.326363636363638  L 6.8523421052631575 9.326363636363638  C 7.254526315789474 9.326363636363638  7.578868421052633 8.996818181818181  7.578868421052633 8.851818181818182  L 7.604815789473685 3.842727272727273  C 7.604815789473685 3.5395454545454577  7.604815789473685 3.5000000000000013  7.591842105263159 3.460454545454548  C 7.578868421052633 3.3286363636363667  7.591842105263159 3.15727272727273  7.630763157894738 3.091363636363637  L 9.330315789473685 3.091363636363637  C 9.356263157894738 3.1440909090909095  9.38221052631579 3.3286363636363667  9.369236842105263 3.460454545454548  C 9.356263157894738 3.5000000000000013  9.356263157894738 3.5395454545454577  9.356263157894738 3.842727272727273  L 9.38221052631579 8.851818181818182  C 9.38221052631579 8.996818181818181  9.706552631578948 9.326363636363638  10.108736842105264 9.326363636363638  L 14.896026315789477 9.326363636363638  C 15.700394736842108 9.326363636363638  16.1415 8.98363636363636  16.375026315789476 8.706818181818182  C 16.80315789473684 8.179545454545455  16.77721052631579 7.5204545454545455  16.738289473684212 7.25681818181818  Z " fill-rule="nonzero" fill="rgba(85, 85, 85, 1)" stroke="none" transform="matrix(1 0 0 1 62 521 )" class="fill" />
    <path d="M 16.738289473684212 7.25681818181818  L 16.790184210526316 1.2986363636363631  C 16.790184210526316 0.8900000000000009  16.46584210526316 0.5604545454545441  16.063657894736842 0.5604545454545441  C 15.661473684210527 0.5604545454545441  15.337131578947364 0.8899999999999976  15.337131578947364 1.2986363636363631  L 15.337131578947364 7.441363636363637  C 15.337131578947364 7.49409090909091  15.337131578947364 7.533636363636362  15.350105263157895 7.586363636363636  C 15.363078947368418 7.639090909090908  15.363078947368418 7.8236363636363615  15.298210526315785 7.9027272727272715  C 15.259289473684207 7.942272727272723  15.155499999999998 7.9949999999999966  14.93494736842105 7.9949999999999966  L 10.874184210526314 7.9949999999999966  L 10.84823684210526 3.631818181818179  C 10.874184210526314 3.4077272727272727  10.91310526315789 2.669545454545453  10.471999999999998 2.1290909090909045  C 10.277394736842105 1.891818181818178  9.91413157894737 1.6149999999999987  9.30436842105263 1.6149999999999987  L 7.721578947368419 1.6149999999999987  C 7.111815789473684 1.6149999999999987  6.7485526315789475 1.891818181818178  6.553947368421052 2.1290909090909045  C 6.112842105263157 2.656363636363634  6.151763157894735 3.3945454545454528  6.1777105263157885 3.631818181818179  L 6.151763157894735 7.98181818181818  L 2.0780263157894736 7.98181818181818  C 1.8704473684210523 7.98181818181818  1.7536842105263157 7.9422727272727265  1.7147631578947369 7.9027272727272715  C 1.662868421052631 7.836818181818181  1.6498947368421046 7.678636363636365  1.662868421052631 7.586363636363636  C 1.6758421052631574 7.533636363636362  1.6758421052631574 7.49409090909091  1.6758421052631574 7.454545454545453  L 1.6758421052631574 1.3118181818181798  C 1.6758421052631574 0.9031818181818174  1.3514999999999995 0.5736363636363622  0.9493157894736842 0.5736363636363622  C 0.5471315789473687 0.5736363636363622  0.22278947368421023 0.9031818181818158  0.22278947368421023 1.3118181818181798  L 0.22278947368421023 7.25681818181818  C 0.1838684210526314 7.5204545454545455  0.15792105263157882 8.179545454545455  0.5860526315789476 8.706818181818182  C 0.8195789473684214 8.996818181818181  1.2606842105263154 9.326363636363638  2.065052631578947 9.326363636363638  L 6.8523421052631575 9.326363636363638  C 7.254526315789474 9.326363636363638  7.578868421052633 8.996818181818181  7.578868421052633 8.851818181818182  L 7.604815789473685 3.842727272727273  C 7.604815789473685 3.5395454545454577  7.604815789473685 3.5000000000000013  7.591842105263159 3.460454545454548  C 7.578868421052633 3.3286363636363667  7.591842105263159 3.15727272727273  7.630763157894738 3.091363636363637  L 9.330315789473685 3.091363636363637  C 9.356263157894738 3.1440909090909095  9.38221052631579 3.3286363636363667  9.369236842105263 3.460454545454548  C 9.356263157894738 3.5000000000000013  9.356263157894738 3.5395454545454577  9.356263157894738 3.842727272727273  L 9.38221052631579 8.851818181818182  C 9.38221052631579 8.996818181818181  9.706552631578948 9.326363636363638  10.108736842105264 9.326363636363638  L 14.896026315789477 9.326363636363638  C 15.700394736842108 9.326363636363638  16.1415 8.98363636363636  16.375026315789476 8.706818181818182  C 16.80315789473684 8.179545454545455  16.77721052631579 7.5204545454545455  16.738289473684212 7.25681818181818  Z " stroke-width="0" stroke-dasharray="0" stroke="rgba(255, 255, 255, 0)" fill="none" transform="matrix(1 0 0 1 62 521 )" class="stroke" mask="url(#Clip15210)" />
  </g>
</svg>