<?xml version="1.0" encoding="utf-8"?>
<svg version="1.1" xmlns:xlink="http://www.w3.org/1999/xlink" width="16px" height="16px" xmlns="http://www.w3.org/2000/svg">
  <defs>
    <pattern id="BGPattern" patternUnits="userSpaceOnUse" alignment="0 0" imageRepeat="None" />
    <mask fill="white" id="Clip2128">
      <path d="M 8.817617773828125 1.058939278125  C 8.37511064013913 0.6575408102003708  7.700205788962434 0.6575408102003713  7.257698655273437 1.058939278125  L 0.9499477148437498 7.048405885742188  C 0.8300171415605919 7.158602147651539  0.761758831808411 7.314017272912995  0.761758831808411 7.476887032373803  C 0.761758831808411 7.798257018550181  1.0222806800070323 8.058778866748803  1.343650666183411 8.058778866748803  C 1.4856781829073107 8.058778866748803  1.6228019506759663 8.006834655054774  1.7291830779296875 7.912734329492189  L 1.829484283984375 7.8175024986328125  L 1.8294842839843746 14.068766116992187  C 1.8294836831158863 14.069248914414896  1.829483382681555 14.069731712164668  1.829483382681555 14.070214509961286  C 1.829483382681555 14.712954482745513  2.350527079428576 15.233998179492534  2.993267052212805 15.233998179492534  L 6.379972576953126 15.233998179492186  L 6.379972576953126 11.730335831835937  C 6.379972096857761 11.729973707018619  6.379971856809998 11.729611581922363  6.379971856809998 11.729249456786796  C 6.379971856809998 11.276691722317548  6.746842387575125 10.90982119155242  7.1994001220443735 10.90982119155242  L 8.793357193554687 10.909821271875002  C 9.246277746018624 10.909821191552593  9.61314827678375 11.27669172231772  9.61314827678375 11.729249456786967  C 9.61314827678375 11.729611581922956  9.61314803673599 11.729973707018196  9.613147556640623 11.730335831835937  L 9.613147556640623 15.233998179492186  L 13.080237984765624 15.233998179492186  C 13.723340956970002 15.233998236104334  14.244384653717024 14.712954539357312  14.244384653717024 14.070214566573082  C 14.244384653717024 14.069731749906047  14.244384353259203 14.06924893328527  14.244383752343747 14.068766116992187  L 14.244383752343747 7.893905222460937  C 14.50292187929687 8.127820670507813  14.86972737304687 8.110077858007811  15.084813713867185 7.870368838476564  C 15.181380674769613 7.763431328844485  15.234838375675757 7.624469247104477  15.234838375675757 7.480383130825906  C 15.234838375675757 7.315705412524618  15.165061610358219 7.15873889589934  15.042810320898433 7.048405885742186  L 8.817617773828125 1.0593013763671872  Z " fill-rule="evenodd" />
    </mask>
  </defs>
  <g transform="matrix(1 0 0 1 -35 -646 )">
    <path d="M 8.817617773828125 1.058939278125  C 8.37511064013913 0.6575408102003708  7.700205788962434 0.6575408102003713  7.257698655273437 1.058939278125  L 0.9499477148437498 7.048405885742188  C 0.8300171415605919 7.158602147651539  0.761758831808411 7.314017272912995  0.761758831808411 7.476887032373803  C 0.761758831808411 7.798257018550181  1.0222806800070323 8.058778866748803  1.343650666183411 8.058778866748803  C 1.4856781829073107 8.058778866748803  1.6228019506759663 8.006834655054774  1.7291830779296875 7.912734329492189  L 1.829484283984375 7.8175024986328125  L 1.8294842839843746 14.068766116992187  C 1.8294836831158863 14.069248914414896  1.829483382681555 14.069731712164668  1.829483382681555 14.070214509961286  C 1.829483382681555 14.712954482745513  2.350527079428576 15.233998179492534  2.993267052212805 15.233998179492534  L 6.379972576953126 15.233998179492186  L 6.379972576953126 11.730335831835937  C 6.379972096857761 11.729973707018619  6.379971856809998 11.729611581922363  6.379971856809998 11.729249456786796  C 6.379971856809998 11.276691722317548  6.746842387575125 10.90982119155242  7.1994001220443735 10.90982119155242  L 8.793357193554687 10.909821271875002  C 9.246277746018624 10.909821191552593  9.61314827678375 11.27669172231772  9.61314827678375 11.729249456786967  C 9.61314827678375 11.729611581922956  9.61314803673599 11.729973707018196  9.613147556640623 11.730335831835937  L 9.613147556640623 15.233998179492186  L 13.080237984765624 15.233998179492186  C 13.723340956970002 15.233998236104334  14.244384653717024 14.712954539357312  14.244384653717024 14.070214566573082  C 14.244384653717024 14.069731749906047  14.244384353259203 14.06924893328527  14.244383752343747 14.068766116992187  L 14.244383752343747 7.893905222460937  C 14.50292187929687 8.127820670507813  14.86972737304687 8.110077858007811  15.084813713867185 7.870368838476564  C 15.181380674769613 7.763431328844485  15.234838375675757 7.624469247104477  15.234838375675757 7.480383130825906  C 15.234838375675757 7.315705412524618  15.165061610358219 7.15873889589934  15.042810320898433 7.048405885742186  L 8.817617773828125 1.0593013763671872  Z " fill-rule="nonzero" fill="rgba(0, 0, 0, 0.4980392156862745)" stroke="none" transform="matrix(1 0 0 1 35 646 )" class="fill" />
    <path d="M 8.817617773828125 1.058939278125  C 8.37511064013913 0.6575408102003708  7.700205788962434 0.6575408102003713  7.257698655273437 1.058939278125  L 0.9499477148437498 7.048405885742188  C 0.8300171415605919 7.158602147651539  0.761758831808411 7.314017272912995  0.761758831808411 7.476887032373803  C 0.761758831808411 7.798257018550181  1.0222806800070323 8.058778866748803  1.343650666183411 8.058778866748803  C 1.4856781829073107 8.058778866748803  1.6228019506759663 8.006834655054774  1.7291830779296875 7.912734329492189  L 1.829484283984375 7.8175024986328125  L 1.8294842839843746 14.068766116992187  C 1.8294836831158863 14.069248914414896  1.829483382681555 14.069731712164668  1.829483382681555 14.070214509961286  C 1.829483382681555 14.712954482745513  2.350527079428576 15.233998179492534  2.993267052212805 15.233998179492534  L 6.379972576953126 15.233998179492186  L 6.379972576953126 11.730335831835937  C 6.379972096857761 11.729973707018619  6.379971856809998 11.729611581922363  6.379971856809998 11.729249456786796  C 6.379971856809998 11.276691722317548  6.746842387575125 10.90982119155242  7.1994001220443735 10.90982119155242  L 8.793357193554687 10.909821271875002  C 9.246277746018624 10.909821191552593  9.61314827678375 11.27669172231772  9.61314827678375 11.729249456786967  C 9.61314827678375 11.729611581922956  9.61314803673599 11.729973707018196  9.613147556640623 11.730335831835937  L 9.613147556640623 15.233998179492186  L 13.080237984765624 15.233998179492186  C 13.723340956970002 15.233998236104334  14.244384653717024 14.712954539357312  14.244384653717024 14.070214566573082  C 14.244384653717024 14.069731749906047  14.244384353259203 14.06924893328527  14.244383752343747 14.068766116992187  L 14.244383752343747 7.893905222460937  C 14.50292187929687 8.127820670507813  14.86972737304687 8.110077858007811  15.084813713867185 7.870368838476564  C 15.181380674769613 7.763431328844485  15.234838375675757 7.624469247104477  15.234838375675757 7.480383130825906  C 15.234838375675757 7.315705412524618  15.165061610358219 7.15873889589934  15.042810320898433 7.048405885742186  L 8.817617773828125 1.0593013763671872  Z " stroke-width="0" stroke-dasharray="0" stroke="rgba(255, 255, 255, 0)" fill="none" transform="matrix(1 0 0 1 35 646 )" class="stroke" mask="url(#Clip2128)" />
  </g>
</svg>