<?xml version="1.0" encoding="utf-8"?>
<svg version="1.1" xmlns:xlink="http://www.w3.org/1999/xlink" width="23px" height="22px" xmlns="http://www.w3.org/2000/svg">
  <defs>
    <pattern id="BGPattern" patternUnits="userSpaceOnUse" alignment="0 0" imageRepeat="None" />
    <mask fill="white" id="Clip6148">
      <path d="M 0.7220507812500001 10.953125  C 0.7220507812500001 5.004628906250002  5.55150390625 0.17517578125000008  11.5 0.17517578125000008  C 17.448496093750002 0.17517578125000008  22.27794921875 5.00462890625  22.27794921875 10.953125  C 22.27794921875 16.901621093750002  17.44849609375 21.73107421875  11.5 21.73107421875  C 5.551503906250002 21.73107421875  0.7220507812500001 16.90162109375  0.7220507812500001 10.953125  Z M 21.138671875 10.953125  C 21.138671875 5.6333984375  16.819726562499998 1.314453125  11.5 1.314453125  C 6.1802734374999995 1.314453125  1.8613281249999998 5.6333984375  1.8613281249999998 10.953125  C 1.8613281249999998 16.272851562499998  6.1802734374999995 20.591796875  11.5 20.591796875  C 16.819726562499998 20.591796875  21.138671875 16.272851562499998  21.138671875 10.953125  Z " fill-rule="evenodd" />
    </mask>
  </defs>
  <g transform="matrix(1 0 0 1 -38 -217 )">
    <path d="M 0.7220507812500001 10.953125  C 0.7220507812500001 5.004628906250002  5.55150390625 0.17517578125000008  11.5 0.17517578125000008  C 17.448496093750002 0.17517578125000008  22.27794921875 5.00462890625  22.27794921875 10.953125  C 22.27794921875 16.901621093750002  17.44849609375 21.73107421875  11.5 21.73107421875  C 5.551503906250002 21.73107421875  0.7220507812500001 16.90162109375  0.7220507812500001 10.953125  Z M 21.138671875 10.953125  C 21.138671875 5.6333984375  16.819726562499998 1.314453125  11.5 1.314453125  C 6.1802734374999995 1.314453125  1.8613281249999998 5.6333984375  1.8613281249999998 10.953125  C 1.8613281249999998 16.272851562499998  6.1802734374999995 20.591796875  11.5 20.591796875  C 16.819726562499998 20.591796875  21.138671875 16.272851562499998  21.138671875 10.953125  Z " fill-rule="nonzero" fill="rgba(250, 123, 77, 1)" stroke="none" transform="matrix(1 0 0 1 38 217 )" class="fill" />
    <path d="M 0.7220507812500001 10.953125  C 0.7220507812500001 5.004628906250002  5.55150390625 0.17517578125000008  11.5 0.17517578125000008  C 17.448496093750002 0.17517578125000008  22.27794921875 5.00462890625  22.27794921875 10.953125  C 22.27794921875 16.901621093750002  17.44849609375 21.73107421875  11.5 21.73107421875  C 5.551503906250002 21.73107421875  0.7220507812500001 16.90162109375  0.7220507812500001 10.953125  Z " stroke-width="0" stroke-dasharray="0" stroke="rgba(255, 255, 255, 0)" fill="none" transform="matrix(1 0 0 1 38 217 )" class="stroke" mask="url(#Clip6148)" />
    <path d="M 21.138671875 10.953125  C 21.138671875 5.6333984375  16.819726562499998 1.314453125  11.5 1.314453125  C 6.1802734374999995 1.314453125  1.8613281249999998 5.6333984375  1.8613281249999998 10.953125  C 1.8613281249999998 16.272851562499998  6.1802734374999995 20.591796875  11.5 20.591796875  C 16.819726562499998 20.591796875  21.138671875 16.272851562499998  21.138671875 10.953125  Z " stroke-width="0" stroke-dasharray="0" stroke="rgba(255, 255, 255, 0)" fill="none" transform="matrix(1 0 0 1 38 217 )" class="stroke" mask="url(#Clip6148)" />
  </g>
</svg>