<?xml version="1.0" encoding="utf-8"?>
<svg version="1.1" xmlns:xlink="http://www.w3.org/1999/xlink" width="24px" height="26px" xmlns="http://www.w3.org/2000/svg">
  <defs>
    <pattern id="BGPattern" patternUnits="userSpaceOnUse" alignment="0 0" imageRepeat="None" />
    <mask fill="white" id="Clip835">
      <path d="M 9.5 25.556640625  C 6.19140625 25.556640625  3.1572070312499996 24.3729296875  0.7978515625 22.40623046875  C 1.2821093749999992 22.162734375  1.8616601562500001 21.913359375  2.048828125 21.181640625  C 2.736933593750001 18.49251953125  16.541015625 3.818359375  16.541015625 3.818359375  C 16.541015625 3.818359375  16.553730468749997 2.01900390625  17.56134765625 0.9973046874999998  C 20.92189453125 3.475195312500001  23.103515625 7.4613671875000005  23.103515625 11.953125  C 23.103515625 19.461171874999998  17.008046874999998 25.556640625  9.5 25.556640625  Z " fill-rule="evenodd" />
    </mask>
  </defs>
  <g transform="matrix(1 0 0 1 -40 -216 )">
    <path d="M 9.5 25.556640625  C 6.19140625 25.556640625  3.1572070312499996 24.3729296875  0.7978515625 22.40623046875  C 1.2821093749999992 22.162734375  1.8616601562500001 21.913359375  2.048828125 21.181640625  C 2.736933593750001 18.49251953125  16.541015625 3.818359375  16.541015625 3.818359375  C 16.541015625 3.818359375  16.553730468749997 2.01900390625  17.56134765625 0.9973046874999998  C 20.92189453125 3.475195312500001  23.103515625 7.4613671875000005  23.103515625 11.953125  C 23.103515625 19.461171874999998  17.008046874999998 25.556640625  9.5 25.556640625  Z " fill-rule="nonzero" fill="rgba(244, 122, 56, 0.4980392156862745)" stroke="none" transform="matrix(1 0 0 1 40 216 )" class="fill" />
    <path d="M 9.5 25.556640625  C 6.19140625 25.556640625  3.1572070312499996 24.3729296875  0.7978515625 22.40623046875  C 1.2821093749999992 22.162734375  1.8616601562500001 21.913359375  2.048828125 21.181640625  C 2.736933593750001 18.49251953125  16.541015625 3.818359375  16.541015625 3.818359375  C 16.541015625 3.818359375  16.553730468749997 2.01900390625  17.56134765625 0.9973046874999998  C 20.92189453125 3.475195312500001  23.103515625 7.4613671875000005  23.103515625 11.953125  C 23.103515625 19.461171874999998  17.008046874999998 25.556640625  9.5 25.556640625  Z " stroke-width="0" stroke-dasharray="0" stroke="rgba(255, 255, 255, 0)" fill="none" transform="matrix(1 0 0 1 40 216 )" class="stroke" mask="url(#Clip835)" />
  </g>
</svg>