<?xml version="1.0" encoding="utf-8"?>
<svg version="1.1" xmlns:xlink="http://www.w3.org/1999/xlink" width="13px" height="13px" xmlns="http://www.w3.org/2000/svg">
  <defs>
    <pattern id="BGPattern" patternUnits="userSpaceOnUse" alignment="0 0" imageRepeat="None" />
    <mask fill="white" id="Clip6151">
      <path d="M 4.163339843750007 3.3845898437499984  L 5.953671875000001 0.8871484375000005  C 6.079892449862907 0.7110018918603487  6.283299194603472 0.6065190642840932  6.5 0.6065190642840932  C 6.71670080539653 0.6065190642840932  6.9201075501370966 0.7110018918603451  7.046328125000002 0.8871484375000005  L 8.836660156250002 3.3845898437499997  C 8.921093725002216 3.5023491669537368  9.04131674906479 3.589675105054237  9.179414062500001 3.633554687499998  L 12.107792968750005 4.564472656249999  C 12.386841156348783 4.653184286748269  12.576370932800792 4.912314056506194  12.576370932800792 5.205123968202887  C 12.576370932800792 5.34853296986218  12.530509760673326 5.488183824563663  12.445488281250004 5.603671875  L 10.623437500000005 8.078144531249997  C 10.5375418557948 8.194837412835525  10.491649090304403 8.336160275845142  10.492597656250005 8.481054687499999  L 10.512148437500006 11.553671874999996  C 10.512157574516753 11.555102739578395  10.512162143060056 11.556533629682072  10.512162143060056 11.557964523433117  C 10.512162143060056 11.92923578914456  10.211187315021498 12.230210617183118  9.839916049310055 12.230210617183118  C 9.767941594617508 12.230210617183118  9.696434163900026 12.218652105615199  9.628125000000004 12.195976562499997  L 6.711777343750004 11.227871093749993  C 6.57428553083638 11.182202394301797  6.42571446916363 11.182202394301797  6.2882226562500065 11.22787109375  L 3.3718750000000033 12.195976562499997  C 3.3035254343650866 12.218687055705626  3.2319698024682104 12.230263778507503  3.1599459895718827 12.230263778507503  C 2.7887502315410764 12.230263778507503  2.487836614571883 11.92935016153831  2.487836614571883 11.558154403507501  C 2.487836614571883 11.556660214876828  2.4878415972422925 11.555166030399437  2.487851562500005 11.553671874999996  L 2.5074023437500053 8.481054687499999  C 2.508350909695608 8.336160275845142  2.4624581442052094 8.194837412835525  2.3765625000000057 8.078144531249997  L 0.5545117187500068 5.603671874999996  C 0.46949023932668155 5.488183824563659  0.42362906719921867 5.348532969862184  0.42362906719921867 5.205123968202887  C 0.42362906719921867 4.912314056506194  0.6131588436512292 4.653184286748271  0.8922070312500062 4.564472656249997  L 3.820585937500006 3.6335546874999967  C 3.958683250935218 3.5896751050542335  4.078906274997793 3.5023491669537368  4.163339843750007 3.3845898437499984  Z " fill-rule="evenodd" />
    </mask>
  </defs>
  <g transform="matrix(1 0 0 1 -43 -222 )">
    <path d="M 4.163339843750007 3.3845898437499984  L 5.953671875000001 0.8871484375000005  C 6.079892449862907 0.7110018918603487  6.283299194603472 0.6065190642840932  6.5 0.6065190642840932  C 6.71670080539653 0.6065190642840932  6.9201075501370966 0.7110018918603451  7.046328125000002 0.8871484375000005  L 8.836660156250002 3.3845898437499997  C 8.921093725002216 3.5023491669537368  9.04131674906479 3.589675105054237  9.179414062500001 3.633554687499998  L 12.107792968750005 4.564472656249999  C 12.386841156348783 4.653184286748269  12.576370932800792 4.912314056506194  12.576370932800792 5.205123968202887  C 12.576370932800792 5.34853296986218  12.530509760673326 5.488183824563663  12.445488281250004 5.603671875  L 10.623437500000005 8.078144531249997  C 10.5375418557948 8.194837412835525  10.491649090304403 8.336160275845142  10.492597656250005 8.481054687499999  L 10.512148437500006 11.553671874999996  C 10.512157574516753 11.555102739578395  10.512162143060056 11.556533629682072  10.512162143060056 11.557964523433117  C 10.512162143060056 11.92923578914456  10.211187315021498 12.230210617183118  9.839916049310055 12.230210617183118  C 9.767941594617508 12.230210617183118  9.696434163900026 12.218652105615199  9.628125000000004 12.195976562499997  L 6.711777343750004 11.227871093749993  C 6.57428553083638 11.182202394301797  6.42571446916363 11.182202394301797  6.2882226562500065 11.22787109375  L 3.3718750000000033 12.195976562499997  C 3.3035254343650866 12.218687055705626  3.2319698024682104 12.230263778507503  3.1599459895718827 12.230263778507503  C 2.7887502315410764 12.230263778507503  2.487836614571883 11.92935016153831  2.487836614571883 11.558154403507501  C 2.487836614571883 11.556660214876828  2.4878415972422925 11.555166030399437  2.487851562500005 11.553671874999996  L 2.5074023437500053 8.481054687499999  C 2.508350909695608 8.336160275845142  2.4624581442052094 8.194837412835525  2.3765625000000057 8.078144531249997  L 0.5545117187500068 5.603671874999996  C 0.46949023932668155 5.488183824563659  0.42362906719921867 5.348532969862184  0.42362906719921867 5.205123968202887  C 0.42362906719921867 4.912314056506194  0.6131588436512292 4.653184286748271  0.8922070312500062 4.564472656249997  L 3.820585937500006 3.6335546874999967  C 3.958683250935218 3.5896751050542335  4.078906274997793 3.5023491669537368  4.163339843750007 3.3845898437499984  Z " fill-rule="nonzero" fill="rgba(250, 127, 75, 1)" stroke="none" transform="matrix(1 0 0 1 43 222 )" class="fill" />
    <path d="M 4.163339843750007 3.3845898437499984  L 5.953671875000001 0.8871484375000005  C 6.079892449862907 0.7110018918603487  6.283299194603472 0.6065190642840932  6.5 0.6065190642840932  C 6.71670080539653 0.6065190642840932  6.9201075501370966 0.7110018918603451  7.046328125000002 0.8871484375000005  L 8.836660156250002 3.3845898437499997  C 8.921093725002216 3.5023491669537368  9.04131674906479 3.589675105054237  9.179414062500001 3.633554687499998  L 12.107792968750005 4.564472656249999  C 12.386841156348783 4.653184286748269  12.576370932800792 4.912314056506194  12.576370932800792 5.205123968202887  C 12.576370932800792 5.34853296986218  12.530509760673326 5.488183824563663  12.445488281250004 5.603671875  L 10.623437500000005 8.078144531249997  C 10.5375418557948 8.194837412835525  10.491649090304403 8.336160275845142  10.492597656250005 8.481054687499999  L 10.512148437500006 11.553671874999996  C 10.512157574516753 11.555102739578395  10.512162143060056 11.556533629682072  10.512162143060056 11.557964523433117  C 10.512162143060056 11.92923578914456  10.211187315021498 12.230210617183118  9.839916049310055 12.230210617183118  C 9.767941594617508 12.230210617183118  9.696434163900026 12.218652105615199  9.628125000000004 12.195976562499997  L 6.711777343750004 11.227871093749993  C 6.57428553083638 11.182202394301797  6.42571446916363 11.182202394301797  6.2882226562500065 11.22787109375  L 3.3718750000000033 12.195976562499997  C 3.3035254343650866 12.218687055705626  3.2319698024682104 12.230263778507503  3.1599459895718827 12.230263778507503  C 2.7887502315410764 12.230263778507503  2.487836614571883 11.92935016153831  2.487836614571883 11.558154403507501  C 2.487836614571883 11.556660214876828  2.4878415972422925 11.555166030399437  2.487851562500005 11.553671874999996  L 2.5074023437500053 8.481054687499999  C 2.508350909695608 8.336160275845142  2.4624581442052094 8.194837412835525  2.3765625000000057 8.078144531249997  L 0.5545117187500068 5.603671874999996  C 0.46949023932668155 5.488183824563659  0.42362906719921867 5.348532969862184  0.42362906719921867 5.205123968202887  C 0.42362906719921867 4.912314056506194  0.6131588436512292 4.653184286748271  0.8922070312500062 4.564472656249997  L 3.820585937500006 3.6335546874999967  C 3.958683250935218 3.5896751050542335  4.078906274997793 3.5023491669537368  4.163339843750007 3.3845898437499984  Z " stroke-width="0" stroke-dasharray="0" stroke="rgba(255, 255, 255, 0)" fill="none" transform="matrix(1 0 0 1 43 222 )" class="stroke" mask="url(#Clip6151)" />
  </g>
</svg>