<?xml version="1.0" encoding="utf-8"?>
<svg version="1.1" xmlns:xlink="http://www.w3.org/1999/xlink" width="13px" height="13px" xmlns="http://www.w3.org/2000/svg">
  <defs>
    <pattern id="BGPattern" patternUnits="userSpaceOnUse" alignment="0 0" imageRepeat="None" />
    <mask fill="white" id="Clip653">
      <path d="M 4.16333984375 3.6743359375000004  L 5.953671875000001 1.1768945312500012  C 6.079892449862907 1.0007479856103494  6.283299194603472 0.8962651580340957  6.5 0.8962651580340957  C 6.71670080539653 0.8962651580340957  6.9201075501370966 1.0007479856103476  7.046328125000002 1.1768945312500012  L 8.836660156250002 3.6743359375000004  C 8.921093725002216 3.7920952607037375  9.04131674906479 3.879421198804236  9.179414062500001 3.923300781249999  L 12.107792968750005 4.854218749999999  C 12.386776242232244 4.943131875679425  12.576193425024254 5.202304266917759  12.576193425024254 5.495113438223836  C 12.576193425024254 5.638461470954649  12.530399064792928 5.778060889718818  12.445488281250004 5.8935546875  L 10.623437500000005 8.367890625000001  C 10.5375418557948 8.48458350658553  10.491649090304403 8.625906369595146  10.492597656250005 8.770800781250003  L 10.512148437500006 11.843554687500003  C 10.51215840275772 11.845048842899889  10.512163385428128 11.846543027376384  10.512163385428128 11.848037216007505  C 10.512163385428128 12.21923297403831  10.211249768458934 12.520146591007506  9.840054010428126 12.520146591007506  C 9.7680301975318 12.520146591007506  9.696474565634919 12.508569868205633  9.628125000000004 12.485859375000004  L 6.711777343750004 11.5176171875  C 6.57428553083638 11.471948488051801  6.42571446916363 11.471948488051801  6.2882226562500065 11.517617187500004  L 3.371875000000006 12.485859375000008  C 3.30356583609999 12.508534918115199  3.232058405382496 12.520093429683122  3.1600839506899554 12.520093429683122  C 2.7888126849785113 12.520093429683122  2.487837856939956 12.219118601644574  2.487837856939956 11.847847335933121  C 2.487837856939956 11.846416442182328  2.48784242548326 11.84498555207815  2.487851562500005 11.843554687500003  L 2.5074023437500053 8.770800781250003  C 2.508350909695608 8.625906369595146  2.4624581442052094 8.48458350658553  2.3765625000000057 8.367890625000001  L 0.5545117187500015 5.8935546875  C 0.4696009352070761 5.778060889718814  0.4238065749757478 5.6384614709546526  0.4238065749757478 5.495113438223836  C 0.4238065749757478 5.202304266917759  0.6132237577677593 4.943131875679425  0.8922070312500008 4.854218749999999  L 3.8205859375000024 3.923300781249999  C 3.9586832509352146 3.879421198804236  4.078906274997788 3.7920952607037393  4.16333984375 3.6743359375000004  Z " fill-rule="evenodd" />
    </mask>
  </defs>
  <g transform="matrix(1 0 0 1 -43 -221 )">
    <path d="M 4.16333984375 3.6743359375000004  L 5.953671875000001 1.1768945312500012  C 6.079892449862907 1.0007479856103494  6.283299194603472 0.8962651580340957  6.5 0.8962651580340957  C 6.71670080539653 0.8962651580340957  6.9201075501370966 1.0007479856103476  7.046328125000002 1.1768945312500012  L 8.836660156250002 3.6743359375000004  C 8.921093725002216 3.7920952607037375  9.04131674906479 3.879421198804236  9.179414062500001 3.923300781249999  L 12.107792968750005 4.854218749999999  C 12.386776242232244 4.943131875679425  12.576193425024254 5.202304266917759  12.576193425024254 5.495113438223836  C 12.576193425024254 5.638461470954649  12.530399064792928 5.778060889718818  12.445488281250004 5.8935546875  L 10.623437500000005 8.367890625000001  C 10.5375418557948 8.48458350658553  10.491649090304403 8.625906369595146  10.492597656250005 8.770800781250003  L 10.512148437500006 11.843554687500003  C 10.51215840275772 11.845048842899889  10.512163385428128 11.846543027376384  10.512163385428128 11.848037216007505  C 10.512163385428128 12.21923297403831  10.211249768458934 12.520146591007506  9.840054010428126 12.520146591007506  C 9.7680301975318 12.520146591007506  9.696474565634919 12.508569868205633  9.628125000000004 12.485859375000004  L 6.711777343750004 11.5176171875  C 6.57428553083638 11.471948488051801  6.42571446916363 11.471948488051801  6.2882226562500065 11.517617187500004  L 3.371875000000006 12.485859375000008  C 3.30356583609999 12.508534918115199  3.232058405382496 12.520093429683122  3.1600839506899554 12.520093429683122  C 2.7888126849785113 12.520093429683122  2.487837856939956 12.219118601644574  2.487837856939956 11.847847335933121  C 2.487837856939956 11.846416442182328  2.48784242548326 11.84498555207815  2.487851562500005 11.843554687500003  L 2.5074023437500053 8.770800781250003  C 2.508350909695608 8.625906369595146  2.4624581442052094 8.48458350658553  2.3765625000000057 8.367890625000001  L 0.5545117187500015 5.8935546875  C 0.4696009352070761 5.778060889718814  0.4238065749757478 5.6384614709546526  0.4238065749757478 5.495113438223836  C 0.4238065749757478 5.202304266917759  0.6132237577677593 4.943131875679425  0.8922070312500008 4.854218749999999  L 3.8205859375000024 3.923300781249999  C 3.9586832509352146 3.879421198804236  4.078906274997788 3.7920952607037393  4.16333984375 3.6743359375000004  Z " fill-rule="nonzero" fill="rgba(255, 188, 84, 1)" stroke="none" transform="matrix(1 0 0 1 43 221 )" class="fill" />
    <path d="M 4.16333984375 3.6743359375000004  L 5.953671875000001 1.1768945312500012  C 6.079892449862907 1.0007479856103494  6.283299194603472 0.8962651580340957  6.5 0.8962651580340957  C 6.71670080539653 0.8962651580340957  6.9201075501370966 1.0007479856103476  7.046328125000002 1.1768945312500012  L 8.836660156250002 3.6743359375000004  C 8.921093725002216 3.7920952607037375  9.04131674906479 3.879421198804236  9.179414062500001 3.923300781249999  L 12.107792968750005 4.854218749999999  C 12.386776242232244 4.943131875679425  12.576193425024254 5.202304266917759  12.576193425024254 5.495113438223836  C 12.576193425024254 5.638461470954649  12.530399064792928 5.778060889718818  12.445488281250004 5.8935546875  L 10.623437500000005 8.367890625000001  C 10.5375418557948 8.48458350658553  10.491649090304403 8.625906369595146  10.492597656250005 8.770800781250003  L 10.512148437500006 11.843554687500003  C 10.51215840275772 11.845048842899889  10.512163385428128 11.846543027376384  10.512163385428128 11.848037216007505  C 10.512163385428128 12.21923297403831  10.211249768458934 12.520146591007506  9.840054010428126 12.520146591007506  C 9.7680301975318 12.520146591007506  9.696474565634919 12.508569868205633  9.628125000000004 12.485859375000004  L 6.711777343750004 11.5176171875  C 6.57428553083638 11.471948488051801  6.42571446916363 11.471948488051801  6.2882226562500065 11.517617187500004  L 3.371875000000006 12.485859375000008  C 3.30356583609999 12.508534918115199  3.232058405382496 12.520093429683122  3.1600839506899554 12.520093429683122  C 2.7888126849785113 12.520093429683122  2.487837856939956 12.219118601644574  2.487837856939956 11.847847335933121  C 2.487837856939956 11.846416442182328  2.48784242548326 11.84498555207815  2.487851562500005 11.843554687500003  L 2.5074023437500053 8.770800781250003  C 2.508350909695608 8.625906369595146  2.4624581442052094 8.48458350658553  2.3765625000000057 8.367890625000001  L 0.5545117187500015 5.8935546875  C 0.4696009352070761 5.778060889718814  0.4238065749757478 5.6384614709546526  0.4238065749757478 5.495113438223836  C 0.4238065749757478 5.202304266917759  0.6132237577677593 4.943131875679425  0.8922070312500008 4.854218749999999  L 3.8205859375000024 3.923300781249999  C 3.9586832509352146 3.879421198804236  4.078906274997788 3.7920952607037393  4.16333984375 3.6743359375000004  Z " stroke-width="0" stroke-dasharray="0" stroke="rgba(255, 255, 255, 0)" fill="none" transform="matrix(1 0 0 1 43 221 )" class="stroke" mask="url(#Clip653)" />
  </g>
</svg>