<?xml version="1.0" encoding="utf-8"?>
<svg version="1.1" xmlns:xlink="http://www.w3.org/1999/xlink" width="13px" height="6px" xmlns="http://www.w3.org/2000/svg">
  <defs>
    <pattern id="BGPattern" patternUnits="userSpaceOnUse" alignment="0 0" imageRepeat="None" />
    <mask fill="white" id="Clip2263">
      <path d="M 6.7868359374999985 5.451777343749999  C 4.519628906249999 5.451777343749999  2.394472656249997 5.204863281249999  0.5679101562500009 4.7743359375  C 0.4796942249303822 4.337525455293585  0.7345458795099375 3.9043660303654235  1.1592187500000009 3.7693164062500006  L 3.7571484375 2.9435351562499985  C 3.936430905870676 2.8864776266955747  4.092508102245233 2.7730759156584543  4.20216796875 2.6201953125  L 5.790429687500001 0.404667968750001  C 5.95436865143617 0.1758947979981027  6.2185516964834555 0.04019717642032283  6.5 0.04019717642032283  C 6.7814483035165445 0.04019717642032283  7.04563134856383 0.17589479799810093  7.209570312499999 0.404667968750001  L 8.79783203125 2.6201953125  C 8.907491897754763 2.7730759156584526  9.063569094129324 2.8864776266955747  9.242851562499997 2.9435351562499985  L 11.84078125 3.769316406249999  C 12.20317285169882 3.884600693107025  12.449285751335367 4.221160551446761  12.449285751335367 4.601447469152291  C 12.449285751335367 4.706693805717867  12.430259566596401 4.811073294867722  12.393124999999998 4.909550781250001  C 10.710527343749998 5.256132812499999  8.804941406249998 5.451777343749999  6.7868359374999985 5.451777343749999  Z " fill-rule="evenodd" />
    </mask>
  </defs>
  <g transform="matrix(1 0 0 1 -43 -222 )">
    <path d="M 6.7868359374999985 5.451777343749999  C 4.519628906249999 5.451777343749999  2.394472656249997 5.204863281249999  0.5679101562500009 4.7743359375  C 0.4796942249303822 4.337525455293585  0.7345458795099375 3.9043660303654235  1.1592187500000009 3.7693164062500006  L 3.7571484375 2.9435351562499985  C 3.936430905870676 2.8864776266955747  4.092508102245233 2.7730759156584543  4.20216796875 2.6201953125  L 5.790429687500001 0.404667968750001  C 5.95436865143617 0.1758947979981027  6.2185516964834555 0.04019717642032283  6.5 0.04019717642032283  C 6.7814483035165445 0.04019717642032283  7.04563134856383 0.17589479799810093  7.209570312499999 0.404667968750001  L 8.79783203125 2.6201953125  C 8.907491897754763 2.7730759156584526  9.063569094129324 2.8864776266955747  9.242851562499997 2.9435351562499985  L 11.84078125 3.769316406249999  C 12.20317285169882 3.884600693107025  12.449285751335367 4.221160551446761  12.449285751335367 4.601447469152291  C 12.449285751335367 4.706693805717867  12.430259566596401 4.811073294867722  12.393124999999998 4.909550781250001  C 10.710527343749998 5.256132812499999  8.804941406249998 5.451777343749999  6.7868359374999985 5.451777343749999  Z " fill-rule="nonzero" fill="rgba(255, 234, 141, 1)" stroke="none" transform="matrix(1 0 0 1 43 222 )" class="fill" />
    <path d="M 6.7868359374999985 5.451777343749999  C 4.519628906249999 5.451777343749999  2.394472656249997 5.204863281249999  0.5679101562500009 4.7743359375  C 0.4796942249303822 4.337525455293585  0.7345458795099375 3.9043660303654235  1.1592187500000009 3.7693164062500006  L 3.7571484375 2.9435351562499985  C 3.936430905870676 2.8864776266955747  4.092508102245233 2.7730759156584543  4.20216796875 2.6201953125  L 5.790429687500001 0.404667968750001  C 5.95436865143617 0.1758947979981027  6.2185516964834555 0.04019717642032283  6.5 0.04019717642032283  C 6.7814483035165445 0.04019717642032283  7.04563134856383 0.17589479799810093  7.209570312499999 0.404667968750001  L 8.79783203125 2.6201953125  C 8.907491897754763 2.7730759156584526  9.063569094129324 2.8864776266955747  9.242851562499997 2.9435351562499985  L 11.84078125 3.769316406249999  C 12.20317285169882 3.884600693107025  12.449285751335367 4.221160551446761  12.449285751335367 4.601447469152291  C 12.449285751335367 4.706693805717867  12.430259566596401 4.811073294867722  12.393124999999998 4.909550781250001  C 10.710527343749998 5.256132812499999  8.804941406249998 5.451777343749999  6.7868359374999985 5.451777343749999  Z " stroke-width="0" stroke-dasharray="0" stroke="rgba(255, 255, 255, 0)" fill="none" transform="matrix(1 0 0 1 43 222 )" class="stroke" mask="url(#Clip2263)" />
  </g>
</svg>