<?xml version="1.0" encoding="utf-8"?>
<svg version="1.1" xmlns:xlink="http://www.w3.org/1999/xlink" width="45px" height="31px" xmlns="http://www.w3.org/2000/svg">
  <defs>
    <pattern id="BGPattern" patternUnits="userSpaceOnUse" alignment="0 0" imageRepeat="None" />
    <mask fill="white" id="Clip3393">
      <path d="M 43.7346 12.594205882352943  C 45.3384 9.202441176470588  43.9263 5.132323529411769  40.578300000000006 3.507558823529413  L 35.1513 1  L 6.399 1  C 5.9211 0.8707352941176472  5.451299999999999 0.9172352941176473  4.995000000000001 0.999294117647059  L 1.0664999999999996 9.295441176470588  C -0.5400000000000005 12.68720588235294  0.8747999999999997 16.754588235294115  4.2228 18.38208823529412  L 28.058400000000002 29.960588235294118  C 31.406399999999998 31.58808823529412  35.421299999999995 30.154794117647064  37.0278 26.763029411764705  L 43.7346 12.594205882352943  Z " fill-rule="evenodd" />
    </mask>
  </defs>
  <g transform="matrix(1 0 0 1 -277 -106 )">
    <path d="M 43.7346 12.594205882352943  C 45.3384 9.202441176470588  43.9263 5.132323529411769  40.578300000000006 3.507558823529413  L 35.1513 1  L 6.399 1  C 5.9211 0.8707352941176472  5.451299999999999 0.9172352941176473  4.995000000000001 0.999294117647059  L 1.0664999999999996 9.295441176470588  C -0.5400000000000005 12.68720588235294  0.8747999999999997 16.754588235294115  4.2228 18.38208823529412  L 28.058400000000002 29.960588235294118  C 31.406399999999998 31.58808823529412  35.421299999999995 30.154794117647064  37.0278 26.763029411764705  L 43.7346 12.594205882352943  Z " fill-rule="nonzero" fill="rgba(222, 192, 145, 1)" stroke="none" transform="matrix(1 0 0 1 277 106 )" class="fill" />
    <path d="M 43.7346 12.594205882352943  C 45.3384 9.202441176470588  43.9263 5.132323529411769  40.578300000000006 3.507558823529413  L 35.1513 1  L 6.399 1  C 5.9211 0.8707352941176472  5.451299999999999 0.9172352941176473  4.995000000000001 0.999294117647059  L 1.0664999999999996 9.295441176470588  C -0.5400000000000005 12.68720588235294  0.8747999999999997 16.754588235294115  4.2228 18.38208823529412  L 28.058400000000002 29.960588235294118  C 31.406399999999998 31.58808823529412  35.421299999999995 30.154794117647064  37.0278 26.763029411764705  L 43.7346 12.594205882352943  Z " stroke-width="0" stroke-dasharray="0" stroke="rgba(255, 255, 255, 0)" fill="none" transform="matrix(1 0 0 1 277 106 )" class="stroke" mask="url(#Clip3393)" />
  </g>
</svg>