<?xml version="1.0" encoding="utf-8"?>
<svg version="1.1" xmlns:xlink="http://www.w3.org/1999/xlink" width="22px" height="16px" xmlns="http://www.w3.org/2000/svg">
  <defs>
    <pattern id="BGPattern" patternUnits="userSpaceOnUse" alignment="0 0" imageRepeat="None" />
    <mask fill="white" id="Clip3381">
      <path d="M 1 12.833333324448532  L 1 2.59803920680147  C 0.5978260869565217 1.1848399939991463  1.762129060901985 0.03921567738970566  3.1983695652173916 0  L 18.801630434782606 0  C 20.23787093909801 0.03921567738970566  21.402173913043477 1.1848399939991463  21 2.59803920680147  L 21 12.833333324448532  C 21.402173913043477 14.24653253725085  20.23787093909801 15.392156853860296  18.80163043478261 15.392156853860296  L 3.1983695652173902 15.392156853860296  C 1.7621290609019842 15.392156853860296  0.5978260869565217 14.24653253725085  1 12.833333324448532  Z M 18.80163043478261 2  L 3.1983695652173916 2  C 2.719622730445589 1.745098030330882  2.3315217391304346 2.126972802534029  2.3315217391304346 2.59803920680147  L 2.3315217391304346 3.4509803832720585  L 19.668478260869566 3.4509803832720585  L 19.668478260869566 2.59803920680147  C 19.668478260869566 2.126972802534029  19.28037726955441 1.745098030330882  18.80163043478261 2  Z M 19.668478260869566 12.833333324448532  L 19.668478260869566 5.156862736213235  L 2.3315217391304346 5.156862736213235  L 2.3315217391304346 12.833333324448532  C 2.3315217391304346 13.304156853860293  2.719869565217392 13.686274500919119  3.1983695652173916 13.686274500919119  L 18.80163043478261 13.686274500919119  C 19.28037726955441 13.686274500919119  19.668478260869566 13.304399728715971  19.668478260869566 12.833333324448532  Z M 4.932065217391305 11.980392147977943  C 4.453318382619503 11.980392147977943  4.065217391304348 11.598517375774794  4.065217391304348 11.127450971507354  C 4.065217391304348 10.656384567239911  4.453318382619503 10.274509795036765  4.932065217391305 10.274509795036765  L 10.133152173913043 10.274509795036765  C 10.611899008684846 10.274509795036765  11 10.656384567239911  11 11.127450971507354  C 11 11.598517375774794  10.611899008684846 11.980392147977943  10.133152173913043 11.980392147977943  L 4.932065217391305 11.980392147977943  Z " fill-rule="evenodd" />
    </mask>
  </defs>
  <g transform="matrix(1 0 0 1 -136 -441 )">
    <path d="M 1 12.833333324448532  L 1 2.59803920680147  C 0.5978260869565217 1.1848399939991463  1.762129060901985 0.03921567738970566  3.1983695652173916 0  L 18.801630434782606 0  C 20.23787093909801 0.03921567738970566  21.402173913043477 1.1848399939991463  21 2.59803920680147  L 21 12.833333324448532  C 21.402173913043477 14.24653253725085  20.23787093909801 15.392156853860296  18.80163043478261 15.392156853860296  L 3.1983695652173902 15.392156853860296  C 1.7621290609019842 15.392156853860296  0.5978260869565217 14.24653253725085  1 12.833333324448532  Z M 18.80163043478261 2  L 3.1983695652173916 2  C 2.719622730445589 1.745098030330882  2.3315217391304346 2.126972802534029  2.3315217391304346 2.59803920680147  L 2.3315217391304346 3.4509803832720585  L 19.668478260869566 3.4509803832720585  L 19.668478260869566 2.59803920680147  C 19.668478260869566 2.126972802534029  19.28037726955441 1.745098030330882  18.80163043478261 2  Z M 19.668478260869566 12.833333324448532  L 19.668478260869566 5.156862736213235  L 2.3315217391304346 5.156862736213235  L 2.3315217391304346 12.833333324448532  C 2.3315217391304346 13.304156853860293  2.719869565217392 13.686274500919119  3.1983695652173916 13.686274500919119  L 18.80163043478261 13.686274500919119  C 19.28037726955441 13.686274500919119  19.668478260869566 13.304399728715971  19.668478260869566 12.833333324448532  Z M 4.932065217391305 11.980392147977943  C 4.453318382619503 11.980392147977943  4.065217391304348 11.598517375774794  4.065217391304348 11.127450971507354  C 4.065217391304348 10.656384567239911  4.453318382619503 10.274509795036765  4.932065217391305 10.274509795036765  L 10.133152173913043 10.274509795036765  C 10.611899008684846 10.274509795036765  11 10.656384567239911  11 11.127450971507354  C 11 11.598517375774794  10.611899008684846 11.980392147977943  10.133152173913043 11.980392147977943  L 4.932065217391305 11.980392147977943  Z " fill-rule="nonzero" fill="rgba(85, 85, 85, 1)" stroke="none" transform="matrix(1 0 0 1 136 441 )" class="fill" />
    <path d="M 1 12.833333324448532  L 1 2.59803920680147  C 0.5978260869565217 1.1848399939991463  1.762129060901985 0.03921567738970566  3.1983695652173916 0  L 18.801630434782606 0  C 20.23787093909801 0.03921567738970566  21.402173913043477 1.1848399939991463  21 2.59803920680147  L 21 12.833333324448532  C 21.402173913043477 14.24653253725085  20.23787093909801 15.392156853860296  18.80163043478261 15.392156853860296  L 3.1983695652173902 15.392156853860296  C 1.7621290609019842 15.392156853860296  0.5978260869565217 14.24653253725085  1 12.833333324448532  Z " stroke-width="0" stroke-dasharray="0" stroke="rgba(255, 255, 255, 0)" fill="none" transform="matrix(1 0 0 1 136 441 )" class="stroke" mask="url(#Clip3381)" />
    <path d="M 18.80163043478261 2  L 3.1983695652173916 2  C 2.719622730445589 1.745098030330882  2.3315217391304346 2.126972802534029  2.3315217391304346 2.59803920680147  L 2.3315217391304346 3.4509803832720585  L 19.668478260869566 3.4509803832720585  L 19.668478260869566 2.59803920680147  C 19.668478260869566 2.126972802534029  19.28037726955441 1.745098030330882  18.80163043478261 2  Z " stroke-width="0" stroke-dasharray="0" stroke="rgba(255, 255, 255, 0)" fill="none" transform="matrix(1 0 0 1 136 441 )" class="stroke" mask="url(#Clip3381)" />
    <path d="M 19.668478260869566 12.833333324448532  L 19.668478260869566 5.156862736213235  L 2.3315217391304346 5.156862736213235  L 2.3315217391304346 12.833333324448532  C 2.3315217391304346 13.304156853860293  2.719869565217392 13.686274500919119  3.1983695652173916 13.686274500919119  L 18.80163043478261 13.686274500919119  C 19.28037726955441 13.686274500919119  19.668478260869566 13.304399728715971  19.668478260869566 12.833333324448532  Z " stroke-width="0" stroke-dasharray="0" stroke="rgba(255, 255, 255, 0)" fill="none" transform="matrix(1 0 0 1 136 441 )" class="stroke" mask="url(#Clip3381)" />
    <path d="M 4.932065217391305 11.980392147977943  C 4.453318382619503 11.980392147977943  4.065217391304348 11.598517375774794  4.065217391304348 11.127450971507354  C 4.065217391304348 10.656384567239911  4.453318382619503 10.274509795036765  4.932065217391305 10.274509795036765  L 10.133152173913043 10.274509795036765  C 10.611899008684846 10.274509795036765  11 10.656384567239911  11 11.127450971507354  C 11 11.598517375774794  10.611899008684846 11.980392147977943  10.133152173913043 11.980392147977943  L 4.932065217391305 11.980392147977943  Z " stroke-width="0" stroke-dasharray="0" stroke="rgba(255, 255, 255, 0)" fill="none" transform="matrix(1 0 0 1 136 441 )" class="stroke" mask="url(#Clip3381)" />
  </g>
</svg>