<?xml version="1.0" encoding="utf-8"?>
<svg version="1.1" xmlns:xlink="http://www.w3.org/1999/xlink" width="45px" height="25px" xmlns="http://www.w3.org/2000/svg">
  <defs>
    <linearGradient gradientUnits="userSpaceOnUse" x1="45" y1="0" x2="0" y2="25" id="LinearGradient4072">
      <stop id="Stop4073" stop-color="#d7b685" offset="0" />
      <stop id="Stop4074" stop-color="#fae4c5" offset="0.53" />
      <stop id="Stop4075" stop-color="#e4c79f" offset="1" />
    </linearGradient>
    <pattern id="BGPattern" patternUnits="userSpaceOnUse" alignment="0 0" imageRepeat="None" />
    <mask fill="white" id="Clip4076">
      <path d="M 12.5 25  C 5.5 25  0 19.5  0 12.5  C 0 5.499999999999999  5.5 0  12.5 0  L 32.5 0  C 39.5 0  45 5.499999999999999  45 12.5  C 45 19.5  39.5 25  32.5 25  L 12.5 25  Z " fill-rule="evenodd" />
    </mask>
  </defs>
  <g transform="matrix(1 0 0 1 -280 -217 )">
    <path d="M 12.5 25  C 5.5 25  0 19.5  0 12.5  C 0 5.499999999999999  5.5 0  12.5 0  L 32.5 0  C 39.5 0  45 5.499999999999999  45 12.5  C 45 19.5  39.5 25  32.5 25  L 12.5 25  Z " fill-rule="nonzero" fill="url(#LinearGradient4072)" stroke="none" transform="matrix(1 0 0 1 280 217 )" class="fill" />
    <path d="M 12.5 25  C 5.5 25  0 19.5  0 12.5  C 0 5.499999999999999  5.5 0  12.5 0  L 32.5 0  C 39.5 0  45 5.499999999999999  45 12.5  C 45 19.5  39.5 25  32.5 25  L 12.5 25  Z " stroke-width="0" stroke-dasharray="0" stroke="rgba(121, 121, 121, 1)" fill="none" transform="matrix(1 0 0 1 280 217 )" class="stroke" mask="url(#Clip4076)" />
  </g>
</svg>