<?xml version="1.0" encoding="utf-8"?>
<svg version="1.1" xmlns:xlink="http://www.w3.org/1999/xlink" width="10px" height="3px" xmlns="http://www.w3.org/2000/svg">
  <defs>
    <pattern id="BGPattern" patternUnits="userSpaceOnUse" alignment="0 0" imageRepeat="None" />
    <mask fill="white" id="Clip16853">
      <path d="M 8.571428571428571 0.12499998779297083  C 9.226190464564732 0.12499995117187535  9.761904750279017 0.6874999877929708  9.761904750279017 1.3750000122070318  C 9.761904750279017 2.0625  9.226190464564732 2.625  8.571428571428571 2.625  C 7.916666678292411 2.625  7.380952392578125 2.0625  7.380952392578125 1.3750000122070318  C 7.380952392578125 0.6875000244140637  7.916666678292411 0.12500002441406366  8.571428571428571 0.12499998779297083  Z M 1.4285714285714284 0.12499998779297083  C 2.0833333217075887 0.12499995117187535  2.6190476074218743 0.6874999877929708  2.6190476074218743 1.3750000122070318  C 2.6190476074218743 2.0625  2.0833333217075887 2.625  1.4285714285714284 2.625  C 0.7738095354352683 2.625  0.23809524972098267 2.0625  0.23809524972098267 1.3750000122070318  C 0.23809524972098267 0.6875000244140637  0.7738095354352683 0.12500002441406366  1.4285714285714284 0.12499998779297083  Z " fill-rule="evenodd" />
    </mask>
  </defs>
  <g transform="matrix(1 0 0 1 -212 -285 )">
    <path d="M 8.571428571428571 0.12499998779297083  C 9.226190464564732 0.12499995117187535  9.761904750279017 0.6874999877929708  9.761904750279017 1.3750000122070318  C 9.761904750279017 2.0625  9.226190464564732 2.625  8.571428571428571 2.625  C 7.916666678292411 2.625  7.380952392578125 2.0625  7.380952392578125 1.3750000122070318  C 7.380952392578125 0.6875000244140637  7.916666678292411 0.12500002441406366  8.571428571428571 0.12499998779297083  Z M 1.4285714285714284 0.12499998779297083  C 2.0833333217075887 0.12499995117187535  2.6190476074218743 0.6874999877929708  2.6190476074218743 1.3750000122070318  C 2.6190476074218743 2.0625  2.0833333217075887 2.625  1.4285714285714284 2.625  C 0.7738095354352683 2.625  0.23809524972098267 2.0625  0.23809524972098267 1.3750000122070318  C 0.23809524972098267 0.6875000244140637  0.7738095354352683 0.12500002441406366  1.4285714285714284 0.12499998779297083  Z " fill-rule="nonzero" fill="rgba(85, 85, 85, 1)" stroke="none" transform="matrix(1 0 0 1 212 285 )" class="fill" />
    <path d="M 8.571428571428571 0.12499998779297083  C 9.226190464564732 0.12499995117187535  9.761904750279017 0.6874999877929708  9.761904750279017 1.3750000122070318  C 9.761904750279017 2.0625  9.226190464564732 2.625  8.571428571428571 2.625  C 7.916666678292411 2.625  7.380952392578125 2.0625  7.380952392578125 1.3750000122070318  C 7.380952392578125 0.6875000244140637  7.916666678292411 0.12500002441406366  8.571428571428571 0.12499998779297083  Z " stroke-width="0" stroke-dasharray="0" stroke="rgba(255, 255, 255, 0)" fill="none" transform="matrix(1 0 0 1 212 285 )" class="stroke" mask="url(#Clip16853)" />
    <path d="M 1.4285714285714284 0.12499998779297083  C 2.0833333217075887 0.12499995117187535  2.6190476074218743 0.6874999877929708  2.6190476074218743 1.3750000122070318  C 2.6190476074218743 2.0625  2.0833333217075887 2.625  1.4285714285714284 2.625  C 0.7738095354352683 2.625  0.23809524972098267 2.0625  0.23809524972098267 1.3750000122070318  C 0.23809524972098267 0.6875000244140637  0.7738095354352683 0.12500002441406366  1.4285714285714284 0.12499998779297083  Z " stroke-width="0" stroke-dasharray="0" stroke="rgba(255, 255, 255, 0)" fill="none" transform="matrix(1 0 0 1 212 285 )" class="stroke" mask="url(#Clip16853)" />
  </g>
</svg>