<?xml version="1.0" encoding="utf-8"?>
<svg version="1.1" xmlns:xlink="http://www.w3.org/1999/xlink" width="20px" height="20px" xmlns="http://www.w3.org/2000/svg">
  <defs>
    <pattern id="BGPattern" patternUnits="userSpaceOnUse" alignment="0 0" imageRepeat="None" />
    <mask fill="white" id="Clip3868">
      <path d="M 20 10  C 20 15.522499999999999  15.522499999999999 20  10 20  C 4.4775 20  0 15.522499999999999  0 10  C 0 4.477500000000001  4.4775 0  10 0  C 15.522499999999999 0  20 4.4775  20 10  Z M 11.01 10  L 13.535 7.4750000000000005  C 13.669117059007052 7.340993508269067  13.74447253987464 7.159175327121078  13.74447253987464 6.969583330078127  C 13.74447253987464 6.57499104213249  13.424592287945638 6.255110790203488  13.030000000000001 6.255110790203488  C 12.840612194631086 6.255110790203488  12.658972614161161 6.330304494189617  12.524999999999999 6.464166660156251  L 10 8.98916666015625  L 7.4750000000000005 6.464166660156251  C 7.340955164896931 6.33012182505318  7.159151353846954 6.254816220825164  6.969583330078127 6.254816220825164  C 6.5748283559570755 6.254816220825164  6.254816220825164 6.5748283559570755  6.254816220825164 6.969583330078127  C 6.254816220825164 7.159151353846954  6.33012182505318 7.340955164896931  6.46416666015625 7.4750000000000005  L 8.989166660156249 10  L 6.464166660156251 12.525000000000002  C 6.33012182505318 12.659044835103073  6.254816220825164 12.840848646153049  6.254816220825164 13.030416669921873  C 6.254816220825164 13.425171644042926  6.5748283559570755 13.745183779174834  6.969583330078125 13.745183779174834  C 7.159151353846952 13.745183779174834  7.340955164896929 13.66987817494682  7.475 13.53583333984375  L 10 11.010833339843751  L 12.525000000000002 13.53583333984375  C 12.659044835103073 13.66987817494682  12.840848646153049 13.745183779174834  13.030416669921873 13.745183779174834  C 13.425171644042926 13.745183779174834  13.745183779174834 13.425171644042926  13.745183779174834 13.030416669921873  C 13.745183779174834 12.840848646153049  13.66987817494682 12.659044835103073  13.53583333984375 12.524999999999999  L 11.010833339843751 10  Z " fill-rule="evenodd" />
    </mask>
  </defs>
  <g transform="matrix(1 0 0 1 -325 -1330 )">
    <path d="M 20 10  C 20 15.522499999999999  15.522499999999999 20  10 20  C 4.4775 20  0 15.522499999999999  0 10  C 0 4.477500000000001  4.4775 0  10 0  C 15.522499999999999 0  20 4.4775  20 10  Z M 11.01 10  L 13.535 7.4750000000000005  C 13.669117059007052 7.340993508269067  13.74447253987464 7.159175327121078  13.74447253987464 6.969583330078127  C 13.74447253987464 6.57499104213249  13.424592287945638 6.255110790203488  13.030000000000001 6.255110790203488  C 12.840612194631086 6.255110790203488  12.658972614161161 6.330304494189617  12.524999999999999 6.464166660156251  L 10 8.98916666015625  L 7.4750000000000005 6.464166660156251  C 7.340955164896931 6.33012182505318  7.159151353846954 6.254816220825164  6.969583330078127 6.254816220825164  C 6.5748283559570755 6.254816220825164  6.254816220825164 6.5748283559570755  6.254816220825164 6.969583330078127  C 6.254816220825164 7.159151353846954  6.33012182505318 7.340955164896931  6.46416666015625 7.4750000000000005  L 8.989166660156249 10  L 6.464166660156251 12.525000000000002  C 6.33012182505318 12.659044835103073  6.254816220825164 12.840848646153049  6.254816220825164 13.030416669921873  C 6.254816220825164 13.425171644042926  6.5748283559570755 13.745183779174834  6.969583330078125 13.745183779174834  C 7.159151353846952 13.745183779174834  7.340955164896929 13.66987817494682  7.475 13.53583333984375  L 10 11.010833339843751  L 12.525000000000002 13.53583333984375  C 12.659044835103073 13.66987817494682  12.840848646153049 13.745183779174834  13.030416669921873 13.745183779174834  C 13.425171644042926 13.745183779174834  13.745183779174834 13.425171644042926  13.745183779174834 13.030416669921873  C 13.745183779174834 12.840848646153049  13.66987817494682 12.659044835103073  13.53583333984375 12.524999999999999  L 11.010833339843751 10  Z " fill-rule="nonzero" fill="rgba(255, 95, 24, 1)" stroke="none" transform="matrix(1 0 0 1 325 1330 )" class="fill" />
    <path d="M 20 10  C 20 15.522499999999999  15.522499999999999 20  10 20  C 4.4775 20  0 15.522499999999999  0 10  C 0 4.477500000000001  4.4775 0  10 0  C 15.522499999999999 0  20 4.4775  20 10  Z " stroke-width="0" stroke-dasharray="0" stroke="rgba(255, 255, 255, 0)" fill="none" transform="matrix(1 0 0 1 325 1330 )" class="stroke" mask="url(#Clip3868)" />
    <path d="M 11.01 10  L 13.535 7.4750000000000005  C 13.669117059007052 7.340993508269067  13.74447253987464 7.159175327121078  13.74447253987464 6.969583330078127  C 13.74447253987464 6.57499104213249  13.424592287945638 6.255110790203488  13.030000000000001 6.255110790203488  C 12.840612194631086 6.255110790203488  12.658972614161161 6.330304494189617  12.524999999999999 6.464166660156251  L 10 8.98916666015625  L 7.4750000000000005 6.464166660156251  C 7.340955164896931 6.33012182505318  7.159151353846954 6.254816220825164  6.969583330078127 6.254816220825164  C 6.5748283559570755 6.254816220825164  6.254816220825164 6.5748283559570755  6.254816220825164 6.969583330078127  C 6.254816220825164 7.159151353846954  6.33012182505318 7.340955164896931  6.46416666015625 7.4750000000000005  L 8.989166660156249 10  L 6.464166660156251 12.525000000000002  C 6.33012182505318 12.659044835103073  6.254816220825164 12.840848646153049  6.254816220825164 13.030416669921873  C 6.254816220825164 13.425171644042926  6.5748283559570755 13.745183779174834  6.969583330078125 13.745183779174834  C 7.159151353846952 13.745183779174834  7.340955164896929 13.66987817494682  7.475 13.53583333984375  L 10 11.010833339843751  L 12.525000000000002 13.53583333984375  C 12.659044835103073 13.66987817494682  12.840848646153049 13.745183779174834  13.030416669921873 13.745183779174834  C 13.425171644042926 13.745183779174834  13.745183779174834 13.425171644042926  13.745183779174834 13.030416669921873  C 13.745183779174834 12.840848646153049  13.66987817494682 12.659044835103073  13.53583333984375 12.524999999999999  L 11.010833339843751 10  Z " stroke-width="0" stroke-dasharray="0" stroke="rgba(255, 255, 255, 0)" fill="none" transform="matrix(1 0 0 1 325 1330 )" class="stroke" mask="url(#Clip3868)" />
  </g>
</svg>