<?xml version="1.0" encoding="utf-8"?>
<svg version="1.1" xmlns:xlink="http://www.w3.org/1999/xlink" width="7px" height="14px" xmlns="http://www.w3.org/2000/svg">
  <defs>
    <pattern id="BGPattern" patternUnits="userSpaceOnUse" alignment="0 0" imageRepeat="None" />
    <mask fill="white" id="Clip9162">
      <path d="M 6.441944444444443 13.341176470588234  C 6.385555555555554 13.341176470588234  6.329166666666664 13.400882352941174  6.216388888888888 13.400882352941178  C 5.990833333333333 13.400882352941178  5.70888888888889 13.221764705882352  5.59611111111111 12.982941176470588  L 0.6902777777777773 1.6985294117647058  C 0.5211111111111111 1.3402941176470584  0.6902777777777773 0.9223529411764715  1.0286111111111111 0.8029411764705887  C 1.3669444444444445 0.623823529411765  1.761666666666667 0.8029411764705887  1.8744444444444444 1.1611764705882353  L 6.780277777777778 12.445588235294116  C 6.949444444444442 12.803823529411765  6.780277777777778 13.221764705882352  6.441944444444443 13.341176470588234  Z " fill-rule="evenodd" />
    </mask>
  </defs>
  <g transform="matrix(1 0 0 1 -213 -371 )">
    <path d="M 6.441944444444443 13.341176470588234  C 6.385555555555554 13.341176470588234  6.329166666666664 13.400882352941174  6.216388888888888 13.400882352941178  C 5.990833333333333 13.400882352941178  5.70888888888889 13.221764705882352  5.59611111111111 12.982941176470588  L 0.6902777777777773 1.6985294117647058  C 0.5211111111111111 1.3402941176470584  0.6902777777777773 0.9223529411764715  1.0286111111111111 0.8029411764705887  C 1.3669444444444445 0.623823529411765  1.761666666666667 0.8029411764705887  1.8744444444444444 1.1611764705882353  L 6.780277777777778 12.445588235294116  C 6.949444444444442 12.803823529411765  6.780277777777778 13.221764705882352  6.441944444444443 13.341176470588234  Z " fill-rule="nonzero" fill="rgba(85, 85, 85, 1)" stroke="none" transform="matrix(1 0 0 1 213 371 )" class="fill" />
    <path d="M 6.441944444444443 13.341176470588234  C 6.385555555555554 13.341176470588234  6.329166666666664 13.400882352941174  6.216388888888888 13.400882352941178  C 5.990833333333333 13.400882352941178  5.70888888888889 13.221764705882352  5.59611111111111 12.982941176470588  L 0.6902777777777773 1.6985294117647058  C 0.5211111111111111 1.3402941176470584  0.6902777777777773 0.9223529411764715  1.0286111111111111 0.8029411764705887  C 1.3669444444444445 0.623823529411765  1.761666666666667 0.8029411764705887  1.8744444444444444 1.1611764705882353  L 6.780277777777778 12.445588235294116  C 6.949444444444442 12.803823529411765  6.780277777777778 13.221764705882352  6.441944444444443 13.341176470588234  Z " stroke-width="0" stroke-dasharray="0" stroke="rgba(255, 255, 255, 0)" fill="none" transform="matrix(1 0 0 1 213 371 )" class="stroke" mask="url(#Clip9162)" />
  </g>
</svg>