<?xml version="1.0" encoding="utf-8"?>
<svg version="1.1" xmlns:xlink="http://www.w3.org/1999/xlink" width="47px" height="36px" xmlns="http://www.w3.org/2000/svg">
  <defs>
    <pattern id="BGPattern" patternUnits="userSpaceOnUse" alignment="0 0" imageRepeat="None" />
    <mask fill="white" id="Clip1727">
      <path d="M 46 27.503100000000003  C 46.62128846153846 31.901400000000002  43.042057692307694 35.4654  38.62496153846154 35  L 8.23403846153846 35  C 3.816942307692308 35.4654  0.23771153846153836 31.901400000000002  1 27.503100000000003  L 1 8.8218  C 0.23771153846153836 4.423500000000002  3.816942307692308 0.8595  8.23403846153846 1  L 38.627673076923074 1  C 43.044769230769234 0.8595  46.624 4.423500000000002  46 8.8218  L 46 27.503100000000003  Z " fill-rule="evenodd" />
    </mask>
  </defs>
  <g transform="matrix(1 0 0 1 -275 -106 )">
    <path d="M 46 27.503100000000003  C 46.62128846153846 31.901400000000002  43.042057692307694 35.4654  38.62496153846154 35  L 8.23403846153846 35  C 3.816942307692308 35.4654  0.23771153846153836 31.901400000000002  1 27.503100000000003  L 1 8.8218  C 0.23771153846153836 4.423500000000002  3.816942307692308 0.8595  8.23403846153846 1  L 38.627673076923074 1  C 43.044769230769234 0.8595  46.624 4.423500000000002  46 8.8218  L 46 27.503100000000003  Z " fill-rule="nonzero" fill="rgba(250, 228, 196, 1)" stroke="none" transform="matrix(1 0 0 1 275 106 )" class="fill" />
    <path d="M 46 27.503100000000003  C 46.62128846153846 31.901400000000002  43.042057692307694 35.4654  38.62496153846154 35  L 8.23403846153846 35  C 3.816942307692308 35.4654  0.23771153846153836 31.901400000000002  1 27.503100000000003  L 1 8.8218  C 0.23771153846153836 4.423500000000002  3.816942307692308 0.8595  8.23403846153846 1  L 38.627673076923074 1  C 43.044769230769234 0.8595  46.624 4.423500000000002  46 8.8218  L 46 27.503100000000003  Z " stroke-width="0" stroke-dasharray="0" stroke="rgba(255, 255, 255, 0)" fill="none" transform="matrix(1 0 0 1 275 106 )" class="stroke" mask="url(#Clip1727)" />
  </g>
</svg>