<?xml version="1.0" encoding="utf-8"?>
<svg version="1.1" xmlns:xlink="http://www.w3.org/1999/xlink" width="21px" height="15px" xmlns="http://www.w3.org/2000/svg">
  <defs>
    <pattern id="BGPattern" patternUnits="userSpaceOnUse" alignment="0 0" imageRepeat="None" />
    <mask fill="white" id="Clip5717">
      <path d="M 18.690143554687502 13.425898951480264  C 18.67957572115385 14.221982935855264  17.993878868689908 14.8665234375  17.15256952373798 14.8665234375  L 2.1963859299879807 14.8665234375  C 1.3484888446514423 14.8665234375  0.6587204026442305 14.211921772203947  0.6587204026442305 13.407274619654606  L 0.6587204026442305 13.389410464638159  L 0.6616025390624999 13.371792249177634  L 2.5580711763822115 1.680205849095396  C 2.5686390099158656 0.8841665810032918  3.2543358623798078 0.2396260793585538  4.095622333233173 0.2396260793585538  L 5.518528508112981 0.2396260793585538  L 5.518528508112981 2.827961040296054  C 5.518528508112981 3.0935534025493436  5.73958379657452 3.309667197779607  6.011350961538463 3.309667197779607  L 6.736185396634617 3.309667197779607  C 7.007906813401442 3.309667197779607  7.229007850060097 3.0935534025493436  7.229007850060097 2.827961040296054  L 7.229007850060097 0.23960372121710538  L 9.052050631009616 0.23960372121710538  L 9.052050631009616 2.8279386821546058  C 9.052050631009616 3.093553402549342  9.273105919471154 3.309644839638159  9.544873084435098 3.309644839638159  L 10.26970751953125 3.309644839638159  C 10.541474684495194 3.309644839638159  10.762552847055288 3.093531044407896  10.762552847055288 2.8279386821546058  L 10.762552847055288 0.23960372121710538  L 12.585549879807692 0.23960372121710538  L 12.585549879807692 2.8279386821546058  C 12.585549879807692 3.093553402549342  12.806650916466348 3.309644839638159  13.07839520733173 3.309644839638159  L 13.803206768329327 3.309644839638159  C 14.074973933293268 3.309644839638159  14.296052095853367 3.093531044407896  14.296052095853367 2.8279386821546058  L 14.296052095853367 0.23960372121710538  L 16.088855318509616 0.23960372121710538  L 16.088855318509616 2.8279386821546058  C 16.088855318509616 3.093553402549342  16.30995635516827 3.309644839638159  16.581700646033656 3.309644839638159  L 17.306489332932692 3.309644839638159  C 17.578256497896636 3.309644839638159  17.799334660456736 3.093531044407896  17.799334660456736 2.8279386821546058  L 17.799334660456736 0.23960372121710538  L 19.05178305288462 0.23960372121710538  C 19.8996572641226 0.23960372121710538  20.589448580228368 0.894205386513158  20.589448580228368 1.6988301809210526  L 20.589448580228368 1.7166943359374995  L 20.586589317908658 1.7343349095394736  L 18.690143554687502 13.425898951480264  Z M 3.0190528846153852 1.7343349095394742  L 1.1228358623798076 13.424222090871712  C 1.1325116060697114 13.970990439967107  1.6103743990384611 14.413010896381579  2.196408804086538 14.413010896381579  L 17.152592397836536 14.413010896381579  C 17.744619816706727 14.413010896381579  18.226279710036057 13.961823601973686  18.226279710036057 13.407252261513158  L 18.226279710036057 13.38938810649671  L 18.229138972355766 13.371747532894735  L 20.12531024639423 1.6818827097039475  C 20.115657376802883 1.135114360608553  19.637794583834133 0.693116262335527  19.051783052884613 0.693116262335527  L 18.263312875600956 0.693116262335527  L 18.263312875600956 2.8279386821546058  C 18.263312875600956 3.343606856496711  17.83408041616586 3.7631573807565797  17.30648933293269 3.7631573807565797  L 16.58170064603365 3.7631573807565797  C 16.054109562800477 3.7631573807565797  15.624877103365378 3.343606856496711  15.624877103365378 2.8279386821546058  L 15.624877103365378 0.693116262335527  L 14.76003031099759 0.693116262335527  L 14.76003031099759 2.8279386821546058  C 14.76003031099759 3.343606856496711  14.330797851562496 3.7631573807565797  13.80320676832932 3.7631573807565797  L 13.078395207331724 3.7631573807565797  C 12.550804124098548 3.7631573807565797  12.121571664663453 3.343606856496711  12.121571664663453 2.8279386821546058  L 12.121571664663453 0.693116262335527  L 11.226508188100954 0.693116262335527  L 11.226508188100954 2.8279386821546058  C 11.226508188100954 3.343606856496711  10.797275728665857 3.7631573807565797  10.269684645432685 3.7631573807565797  L 9.54485021033653 3.7631573807565797  C 9.017259127103358 3.7631573807565797  8.58804954176682 3.343606856496711  8.58804954176682 2.8279386821546058  L 8.58804954176682 0.693116262335527  L 7.692940317007204 0.693116262335527  L 7.692940317007204 2.8279386821546058  C 7.692940317007204 3.343606856496711  7.263730731670666 3.7631573807565797  6.736139648437493 3.7631573807565797  L 6.0113052133413465 3.7631573807565797  C 5.483737004206731 3.7631573807565797  5.054504544771635 3.343606856496711  5.054504544771635 2.8279386821546058  L 5.054504544771635 0.693116262335527  L 4.095599459134616 0.693116262335527  C 3.503572040264423 0.693116262335527  3.0219121469350965 1.1442364823190794  3.0219121469350965 1.6988301809210526  L 3.0219121469350965 1.7166943359375004  L 3.0190528846153852 1.7343349095394742  Z " fill-rule="evenodd" />
    </mask>
  </defs>
  <g transform="matrix(1 0 0 1 -59 -441 )">
    <path d="M 18.690143554687502 13.425898951480264  C 18.67957572115385 14.221982935855264  17.993878868689908 14.8665234375  17.15256952373798 14.8665234375  L 2.1963859299879807 14.8665234375  C 1.3484888446514423 14.8665234375  0.6587204026442305 14.211921772203947  0.6587204026442305 13.407274619654606  L 0.6587204026442305 13.389410464638159  L 0.6616025390624999 13.371792249177634  L 2.5580711763822115 1.680205849095396  C 2.5686390099158656 0.8841665810032918  3.2543358623798078 0.2396260793585538  4.095622333233173 0.2396260793585538  L 5.518528508112981 0.2396260793585538  L 5.518528508112981 2.827961040296054  C 5.518528508112981 3.0935534025493436  5.73958379657452 3.309667197779607  6.011350961538463 3.309667197779607  L 6.736185396634617 3.309667197779607  C 7.007906813401442 3.309667197779607  7.229007850060097 3.0935534025493436  7.229007850060097 2.827961040296054  L 7.229007850060097 0.23960372121710538  L 9.052050631009616 0.23960372121710538  L 9.052050631009616 2.8279386821546058  C 9.052050631009616 3.093553402549342  9.273105919471154 3.309644839638159  9.544873084435098 3.309644839638159  L 10.26970751953125 3.309644839638159  C 10.541474684495194 3.309644839638159  10.762552847055288 3.093531044407896  10.762552847055288 2.8279386821546058  L 10.762552847055288 0.23960372121710538  L 12.585549879807692 0.23960372121710538  L 12.585549879807692 2.8279386821546058  C 12.585549879807692 3.093553402549342  12.806650916466348 3.309644839638159  13.07839520733173 3.309644839638159  L 13.803206768329327 3.309644839638159  C 14.074973933293268 3.309644839638159  14.296052095853367 3.093531044407896  14.296052095853367 2.8279386821546058  L 14.296052095853367 0.23960372121710538  L 16.088855318509616 0.23960372121710538  L 16.088855318509616 2.8279386821546058  C 16.088855318509616 3.093553402549342  16.30995635516827 3.309644839638159  16.581700646033656 3.309644839638159  L 17.306489332932692 3.309644839638159  C 17.578256497896636 3.309644839638159  17.799334660456736 3.093531044407896  17.799334660456736 2.8279386821546058  L 17.799334660456736 0.23960372121710538  L 19.05178305288462 0.23960372121710538  C 19.8996572641226 0.23960372121710538  20.589448580228368 0.894205386513158  20.589448580228368 1.6988301809210526  L 20.589448580228368 1.7166943359374995  L 20.586589317908658 1.7343349095394736  L 18.690143554687502 13.425898951480264  Z M 3.0190528846153852 1.7343349095394742  L 1.1228358623798076 13.424222090871712  C 1.1325116060697114 13.970990439967107  1.6103743990384611 14.413010896381579  2.196408804086538 14.413010896381579  L 17.152592397836536 14.413010896381579  C 17.744619816706727 14.413010896381579  18.226279710036057 13.961823601973686  18.226279710036057 13.407252261513158  L 18.226279710036057 13.38938810649671  L 18.229138972355766 13.371747532894735  L 20.12531024639423 1.6818827097039475  C 20.115657376802883 1.135114360608553  19.637794583834133 0.693116262335527  19.051783052884613 0.693116262335527  L 18.263312875600956 0.693116262335527  L 18.263312875600956 2.8279386821546058  C 18.263312875600956 3.343606856496711  17.83408041616586 3.7631573807565797  17.30648933293269 3.7631573807565797  L 16.58170064603365 3.7631573807565797  C 16.054109562800477 3.7631573807565797  15.624877103365378 3.343606856496711  15.624877103365378 2.8279386821546058  L 15.624877103365378 0.693116262335527  L 14.76003031099759 0.693116262335527  L 14.76003031099759 2.8279386821546058  C 14.76003031099759 3.343606856496711  14.330797851562496 3.7631573807565797  13.80320676832932 3.7631573807565797  L 13.078395207331724 3.7631573807565797  C 12.550804124098548 3.7631573807565797  12.121571664663453 3.343606856496711  12.121571664663453 2.8279386821546058  L 12.121571664663453 0.693116262335527  L 11.226508188100954 0.693116262335527  L 11.226508188100954 2.8279386821546058  C 11.226508188100954 3.343606856496711  10.797275728665857 3.7631573807565797  10.269684645432685 3.7631573807565797  L 9.54485021033653 3.7631573807565797  C 9.017259127103358 3.7631573807565797  8.58804954176682 3.343606856496711  8.58804954176682 2.8279386821546058  L 8.58804954176682 0.693116262335527  L 7.692940317007204 0.693116262335527  L 7.692940317007204 2.8279386821546058  C 7.692940317007204 3.343606856496711  7.263730731670666 3.7631573807565797  6.736139648437493 3.7631573807565797  L 6.0113052133413465 3.7631573807565797  C 5.483737004206731 3.7631573807565797  5.054504544771635 3.343606856496711  5.054504544771635 2.8279386821546058  L 5.054504544771635 0.693116262335527  L 4.095599459134616 0.693116262335527  C 3.503572040264423 0.693116262335527  3.0219121469350965 1.1442364823190794  3.0219121469350965 1.6988301809210526  L 3.0219121469350965 1.7166943359375004  L 3.0190528846153852 1.7343349095394742  Z " fill-rule="nonzero" fill="rgba(85, 85, 85, 1)" stroke="none" transform="matrix(1 0 0 1 59 441 )" class="fill" />
    <path d="M 18.690143554687502 13.425898951480264  C 18.67957572115385 14.221982935855264  17.993878868689908 14.8665234375  17.15256952373798 14.8665234375  L 2.1963859299879807 14.8665234375  C 1.3484888446514423 14.8665234375  0.6587204026442305 14.211921772203947  0.6587204026442305 13.407274619654606  L 0.6587204026442305 13.389410464638159  L 0.6616025390624999 13.371792249177634  L 2.5580711763822115 1.680205849095396  C 2.5686390099158656 0.8841665810032918  3.2543358623798078 0.2396260793585538  4.095622333233173 0.2396260793585538  L 5.518528508112981 0.2396260793585538  L 5.518528508112981 2.827961040296054  C 5.518528508112981 3.0935534025493436  5.73958379657452 3.309667197779607  6.011350961538463 3.309667197779607  L 6.736185396634617 3.309667197779607  C 7.007906813401442 3.309667197779607  7.229007850060097 3.0935534025493436  7.229007850060097 2.827961040296054  L 7.229007850060097 0.23960372121710538  L 9.052050631009616 0.23960372121710538  L 9.052050631009616 2.8279386821546058  C 9.052050631009616 3.093553402549342  9.273105919471154 3.309644839638159  9.544873084435098 3.309644839638159  L 10.26970751953125 3.309644839638159  C 10.541474684495194 3.309644839638159  10.762552847055288 3.093531044407896  10.762552847055288 2.8279386821546058  L 10.762552847055288 0.23960372121710538  L 12.585549879807692 0.23960372121710538  L 12.585549879807692 2.8279386821546058  C 12.585549879807692 3.093553402549342  12.806650916466348 3.309644839638159  13.07839520733173 3.309644839638159  L 13.803206768329327 3.309644839638159  C 14.074973933293268 3.309644839638159  14.296052095853367 3.093531044407896  14.296052095853367 2.8279386821546058  L 14.296052095853367 0.23960372121710538  L 16.088855318509616 0.23960372121710538  L 16.088855318509616 2.8279386821546058  C 16.088855318509616 3.093553402549342  16.30995635516827 3.309644839638159  16.581700646033656 3.309644839638159  L 17.306489332932692 3.309644839638159  C 17.578256497896636 3.309644839638159  17.799334660456736 3.093531044407896  17.799334660456736 2.8279386821546058  L 17.799334660456736 0.23960372121710538  L 19.05178305288462 0.23960372121710538  C 19.8996572641226 0.23960372121710538  20.589448580228368 0.894205386513158  20.589448580228368 1.6988301809210526  L 20.589448580228368 1.7166943359374995  L 20.586589317908658 1.7343349095394736  L 18.690143554687502 13.425898951480264  Z " stroke-width="0" stroke-dasharray="0" stroke="rgba(255, 255, 255, 0)" fill="none" transform="matrix(1 0 0 1 59 441 )" class="stroke" mask="url(#Clip5717)" />
    <path d="M 3.0190528846153852 1.7343349095394742  L 1.1228358623798076 13.424222090871712  C 1.1325116060697114 13.970990439967107  1.6103743990384611 14.413010896381579  2.196408804086538 14.413010896381579  L 17.152592397836536 14.413010896381579  C 17.744619816706727 14.413010896381579  18.226279710036057 13.961823601973686  18.226279710036057 13.407252261513158  L 18.226279710036057 13.38938810649671  L 18.229138972355766 13.371747532894735  L 20.12531024639423 1.6818827097039475  C 20.115657376802883 1.135114360608553  19.637794583834133 0.693116262335527  19.051783052884613 0.693116262335527  L 18.263312875600956 0.693116262335527  L 18.263312875600956 2.8279386821546058  C 18.263312875600956 3.343606856496711  17.83408041616586 3.7631573807565797  17.30648933293269 3.7631573807565797  L 16.58170064603365 3.7631573807565797  C 16.054109562800477 3.7631573807565797  15.624877103365378 3.343606856496711  15.624877103365378 2.8279386821546058  L 15.624877103365378 0.693116262335527  L 14.76003031099759 0.693116262335527  L 14.76003031099759 2.8279386821546058  C 14.76003031099759 3.343606856496711  14.330797851562496 3.7631573807565797  13.80320676832932 3.7631573807565797  L 13.078395207331724 3.7631573807565797  C 12.550804124098548 3.7631573807565797  12.121571664663453 3.343606856496711  12.121571664663453 2.8279386821546058  L 12.121571664663453 0.693116262335527  L 11.226508188100954 0.693116262335527  L 11.226508188100954 2.8279386821546058  C 11.226508188100954 3.343606856496711  10.797275728665857 3.7631573807565797  10.269684645432685 3.7631573807565797  L 9.54485021033653 3.7631573807565797  C 9.017259127103358 3.7631573807565797  8.58804954176682 3.343606856496711  8.58804954176682 2.8279386821546058  L 8.58804954176682 0.693116262335527  L 7.692940317007204 0.693116262335527  L 7.692940317007204 2.8279386821546058  C 7.692940317007204 3.343606856496711  7.263730731670666 3.7631573807565797  6.736139648437493 3.7631573807565797  L 6.0113052133413465 3.7631573807565797  C 5.483737004206731 3.7631573807565797  5.054504544771635 3.343606856496711  5.054504544771635 2.8279386821546058  L 5.054504544771635 0.693116262335527  L 4.095599459134616 0.693116262335527  C 3.503572040264423 0.693116262335527  3.0219121469350965 1.1442364823190794  3.0219121469350965 1.6988301809210526  L 3.0219121469350965 1.7166943359375004  L 3.0190528846153852 1.7343349095394742  Z " stroke-width="0" stroke-dasharray="0" stroke="rgba(255, 255, 255, 0)" fill="none" transform="matrix(1 0 0 1 59 441 )" class="stroke" mask="url(#Clip5717)" />
  </g>
</svg>