<?xml version="1.0" encoding="utf-8"?>
<svg version="1.1" xmlns:xlink="http://www.w3.org/1999/xlink" width="3px" height="4px" xmlns="http://www.w3.org/2000/svg">
  <defs>
    <pattern id="BGPattern" patternUnits="userSpaceOnUse" alignment="0 0" imageRepeat="None" />
    <mask fill="white" id="Clip9113">
      <path d="M 0.1195312499999992 1.5574999999999988  C 0 2.042499999999999  0.12890624999999867 2.5599999999999987  0.46171874999999973 2.915  C 0.7945312499999995 3.2699999999999996  1.2796874999999992 3.41  1.734375 3.28  C 2.1890624999999995 3.15  2.5453125000000005 2.7699999999999996  2.6671875000000003 2.2849999999999993  C 2.7890625 1.7999999999999994  2.657812500000001 1.2824999999999995  2.3249999999999997 0.9274999999999991  C 1.9921875 0.5724999999999991  1.5070312500000003 0.4324999999999992  1.0523437499999995 0.5624999999999993  C 0.59765625 0.6924999999999993  0.24140624999999893 1.0699999999999996  0.1195312499999992 1.5574999999999988  Z " fill-rule="evenodd" />
    </mask>
  </defs>
  <g transform="matrix(1 0 0 1 -136 -280 )">
    <path d="M 0.1195312499999992 1.5574999999999988  C 0 2.042499999999999  0.12890624999999867 2.5599999999999987  0.46171874999999973 2.915  C 0.7945312499999995 3.2699999999999996  1.2796874999999992 3.41  1.734375 3.28  C 2.1890624999999995 3.15  2.5453125000000005 2.7699999999999996  2.6671875000000003 2.2849999999999993  C 2.7890625 1.7999999999999994  2.657812500000001 1.2824999999999995  2.3249999999999997 0.9274999999999991  C 1.9921875 0.5724999999999991  1.5070312500000003 0.4324999999999992  1.0523437499999995 0.5624999999999993  C 0.59765625 0.6924999999999993  0.24140624999999893 1.0699999999999996  0.1195312499999992 1.5574999999999988  Z " fill-rule="nonzero" fill="rgba(245, 154, 35, 1)" stroke="none" transform="matrix(1 0 0 1 136 280 )" class="fill" />
    <path d="M 0.1195312499999992 1.5574999999999988  C 0 2.042499999999999  0.12890624999999867 2.5599999999999987  0.46171874999999973 2.915  C 0.7945312499999995 3.2699999999999996  1.2796874999999992 3.41  1.734375 3.28  C 2.1890624999999995 3.15  2.5453125000000005 2.7699999999999996  2.6671875000000003 2.2849999999999993  C 2.7890625 1.7999999999999994  2.657812500000001 1.2824999999999995  2.3249999999999997 0.9274999999999991  C 1.9921875 0.5724999999999991  1.5070312500000003 0.4324999999999992  1.0523437499999995 0.5624999999999993  C 0.59765625 0.6924999999999993  0.24140624999999893 1.0699999999999996  0.1195312499999992 1.5574999999999988  Z " stroke-width="0" stroke-dasharray="0" stroke="rgba(255, 255, 255, 0)" fill="none" transform="matrix(1 0 0 1 136 280 )" class="stroke" mask="url(#Clip9113)" />
  </g>
</svg>