<?xml version="1.0" encoding="utf-8"?>
<svg version="1.1" xmlns:xlink="http://www.w3.org/1999/xlink" width="45px" height="40px" xmlns="http://www.w3.org/2000/svg">
  <defs>
    <pattern id="BGPattern" patternUnits="userSpaceOnUse" alignment="0 0" imageRepeat="None" />
    <mask fill="white" id="Clip7433">
      <path d="M 37.0278 35.77545454545455  C 35.42130000000001 39.15727272727273  31.40640000000001 40.583636363636366  28.058400000000002 38.96363636363637  L 4.222800000000001 27.41909090909091  C 0.8748000000000012 25.79636363636364  -0.5372999999999988 21.740909090909092  1.0665000000000011 18.35909090909091  L 7.773300000000002 4.231818181818181  C 9.379800000000003 0.8499999999999996  13.394700000000002 -0.5763636363636375  16.742700000000003 1.0436363636363635  L 40.578300000000006 12.588181818181818  C 43.9263 14.21090909090909  45.3384 18.266363636363636  43.7346 21.648181818181822  L 37.0278 35.77545454545455  Z " fill-rule="evenodd" />
    </mask>
  </defs>
  <g transform="matrix(1 0 0 1 -277 -97 )">
    <path d="M 37.0278 35.77545454545455  C 35.42130000000001 39.15727272727273  31.40640000000001 40.583636363636366  28.058400000000002 38.96363636363637  L 4.222800000000001 27.41909090909091  C 0.8748000000000012 25.79636363636364  -0.5372999999999988 21.740909090909092  1.0665000000000011 18.35909090909091  L 7.773300000000002 4.231818181818181  C 9.379800000000003 0.8499999999999996  13.394700000000002 -0.5763636363636375  16.742700000000003 1.0436363636363635  L 40.578300000000006 12.588181818181818  C 43.9263 14.21090909090909  45.3384 18.266363636363636  43.7346 21.648181818181822  L 37.0278 35.77545454545455  Z " fill-rule="nonzero" fill="rgba(250, 228, 196, 1)" stroke="none" transform="matrix(1 0 0 1 277 97 )" class="fill" />
    <path d="M 37.0278 35.77545454545455  C 35.42130000000001 39.15727272727273  31.40640000000001 40.583636363636366  28.058400000000002 38.96363636363637  L 4.222800000000001 27.41909090909091  C 0.8748000000000012 25.79636363636364  -0.5372999999999988 21.740909090909092  1.0665000000000011 18.35909090909091  L 7.773300000000002 4.231818181818181  C 9.379800000000003 0.8499999999999996  13.394700000000002 -0.5763636363636375  16.742700000000003 1.0436363636363635  L 40.578300000000006 12.588181818181818  C 43.9263 14.21090909090909  45.3384 18.266363636363636  43.7346 21.648181818181822  L 37.0278 35.77545454545455  Z " stroke-width="0" stroke-dasharray="0" stroke="rgba(255, 255, 255, 0)" fill="none" transform="matrix(1 0 0 1 277 97 )" class="stroke" mask="url(#Clip7433)" />
  </g>
</svg>