<?xml version="1.0" encoding="utf-8"?>
<svg version="1.1" xmlns:xlink="http://www.w3.org/1999/xlink" width="22px" height="22px" xmlns="http://www.w3.org/2000/svg">
  <defs>
    <pattern id="BGPattern" patternUnits="userSpaceOnUse" alignment="0 0" imageRepeat="None" />
    <mask fill="white" id="Clip5320">
      <path d="M 11.171875 1.8333333221435528  C 16.15625 1.9479166778564445  20.166666677856448 6.015625  20.166666677856448 11  L 20.166666677856448 18.734375  C 20.166666677856448 19.536458322143552  19.53645835571289 20.16666667785644  18.734375000000004 20.16666667785644  C 17.932291644287112 20.16666667785644  17.302083322143552 19.536458322143552  17.302083322143552 18.734375  L 17.302083322143552 17.015625  C 17.302083322143552 15.583333322143554  16.15625 14.4375  14.723958322143556 14.4375  C 13.291666644287114 14.4375  12.145833322143554 15.583333322143554  12.145833322143554 17.015625  L 12.145833322143554 19.307291677856448  C 12.145833322143554 19.765625  11.744791644287108 20.166666677856448  11.286458322143554 20.166666677856448  C 10.828125 20.166666677856448  10.427083322143554 19.765625  10.427083322143554 19.307291677856448  L 10.427083322143554 18.447916677856448  C 10.427083322143554 16.84375  9.166666644287108 15.58333335571289  7.5625 15.583333322143554  C 5.958333355712892 15.583333288574217  4.697916677856445 16.84375  4.697916677856445 18.447916677856448  L 4.697916677856445 18.734375  C 4.697916677856445 19.536458322143552  4.067708355712891 20.16666667785644  3.2656249999999987 20.16666667785644  C 2.463541644287107 20.16666667785644  1.8333333221435555 19.536458322143552  1.8333333221435555 18.734375  L 1.8333333221435555 11.286458322143554  C 1.8333333221435555 6.072916644287108  6.072916644287111 1.7760416442871083  11.171875 1.8333333221435528  Z M 21.885416677856448 18.734375000000004  L 21.88541667785645 11  C 21.88541667785645 5.041666677856446  17.130208355712895 0.22916667785644462  11.229166677856446 0.11458332214355538  C 5.15625 0  0.11458332214355416 5.098958322143554  0.11458332214355416 11.286458322143554  L 0.11458332214355416 18.734375  C 0.11458332214355416 20.453125  1.5468749999999987 21.885416677856448  3.2656250000000013 21.885416677856448  C 4.984375000000003 21.885416677856448  6.416666677856446 20.453125  6.416666677856446 18.734375  L 6.416666677856446 18.447916677856448  C 6.416666677856446 17.81770835571289  6.932291677856446 17.30208335571289  7.5625 17.302083322143552  C 8.192708322143554 17.30208328857422  8.708333322143554 17.817708322143552  8.708333322143554 18.447916677856448  L 8.708333322143554 19.307291677856448  C 8.708333322143554 20.73958335571289  9.85416664428711 21.885416677856448  11.286458322143554 21.885416677856448  C 12.718749999999998 21.885416677856448  13.864583322143552 20.73958335571289  13.864583322143552 19.307291677856448  L 13.864583322143552 17.015625  C 13.864583322143552 16.557291677856448  14.265625 16.15625  14.723958322143554 16.15625  C 15.182291644287107 16.15625  15.583333322143554 16.557291677856448  15.583333322143554 17.015625  L 15.583333322143554 18.734375000000004  C 15.583333322143554 20.453125000000004  17.015625 21.88541667785645  18.734375 21.88541667785645  C 20.453125 21.88541667785645  21.885416677856448 20.453125000000004  21.885416677856448 18.734375000000004  Z " fill-rule="evenodd" />
    </mask>
  </defs>
  <g transform="matrix(1 0 0 1 -205 -278 )">
    <path d="M 11.171875 1.8333333221435528  C 16.15625 1.9479166778564445  20.166666677856448 6.015625  20.166666677856448 11  L 20.166666677856448 18.734375  C 20.166666677856448 19.536458322143552  19.53645835571289 20.16666667785644  18.734375000000004 20.16666667785644  C 17.932291644287112 20.16666667785644  17.302083322143552 19.536458322143552  17.302083322143552 18.734375  L 17.302083322143552 17.015625  C 17.302083322143552 15.583333322143554  16.15625 14.4375  14.723958322143556 14.4375  C 13.291666644287114 14.4375  12.145833322143554 15.583333322143554  12.145833322143554 17.015625  L 12.145833322143554 19.307291677856448  C 12.145833322143554 19.765625  11.744791644287108 20.166666677856448  11.286458322143554 20.166666677856448  C 10.828125 20.166666677856448  10.427083322143554 19.765625  10.427083322143554 19.307291677856448  L 10.427083322143554 18.447916677856448  C 10.427083322143554 16.84375  9.166666644287108 15.58333335571289  7.5625 15.583333322143554  C 5.958333355712892 15.583333288574217  4.697916677856445 16.84375  4.697916677856445 18.447916677856448  L 4.697916677856445 18.734375  C 4.697916677856445 19.536458322143552  4.067708355712891 20.16666667785644  3.2656249999999987 20.16666667785644  C 2.463541644287107 20.16666667785644  1.8333333221435555 19.536458322143552  1.8333333221435555 18.734375  L 1.8333333221435555 11.286458322143554  C 1.8333333221435555 6.072916644287108  6.072916644287111 1.7760416442871083  11.171875 1.8333333221435528  Z M 21.885416677856448 18.734375000000004  L 21.88541667785645 11  C 21.88541667785645 5.041666677856446  17.130208355712895 0.22916667785644462  11.229166677856446 0.11458332214355538  C 5.15625 0  0.11458332214355416 5.098958322143554  0.11458332214355416 11.286458322143554  L 0.11458332214355416 18.734375  C 0.11458332214355416 20.453125  1.5468749999999987 21.885416677856448  3.2656250000000013 21.885416677856448  C 4.984375000000003 21.885416677856448  6.416666677856446 20.453125  6.416666677856446 18.734375  L 6.416666677856446 18.447916677856448  C 6.416666677856446 17.81770835571289  6.932291677856446 17.30208335571289  7.5625 17.302083322143552  C 8.192708322143554 17.30208328857422  8.708333322143554 17.817708322143552  8.708333322143554 18.447916677856448  L 8.708333322143554 19.307291677856448  C 8.708333322143554 20.73958335571289  9.85416664428711 21.885416677856448  11.286458322143554 21.885416677856448  C 12.718749999999998 21.885416677856448  13.864583322143552 20.73958335571289  13.864583322143552 19.307291677856448  L 13.864583322143552 17.015625  C 13.864583322143552 16.557291677856448  14.265625 16.15625  14.723958322143554 16.15625  C 15.182291644287107 16.15625  15.583333322143554 16.557291677856448  15.583333322143554 17.015625  L 15.583333322143554 18.734375000000004  C 15.583333322143554 20.453125000000004  17.015625 21.88541667785645  18.734375 21.88541667785645  C 20.453125 21.88541667785645  21.885416677856448 20.453125000000004  21.885416677856448 18.734375000000004  Z " fill-rule="nonzero" fill="rgba(85, 85, 85, 1)" stroke="none" transform="matrix(1 0 0 1 205 278 )" class="fill" />
    <path d="M 11.171875 1.8333333221435528  C 16.15625 1.9479166778564445  20.166666677856448 6.015625  20.166666677856448 11  L 20.166666677856448 18.734375  C 20.166666677856448 19.536458322143552  19.53645835571289 20.16666667785644  18.734375000000004 20.16666667785644  C 17.932291644287112 20.16666667785644  17.302083322143552 19.536458322143552  17.302083322143552 18.734375  L 17.302083322143552 17.015625  C 17.302083322143552 15.583333322143554  16.15625 14.4375  14.723958322143556 14.4375  C 13.291666644287114 14.4375  12.145833322143554 15.583333322143554  12.145833322143554 17.015625  L 12.145833322143554 19.307291677856448  C 12.145833322143554 19.765625  11.744791644287108 20.166666677856448  11.286458322143554 20.166666677856448  C 10.828125 20.166666677856448  10.427083322143554 19.765625  10.427083322143554 19.307291677856448  L 10.427083322143554 18.447916677856448  C 10.427083322143554 16.84375  9.166666644287108 15.58333335571289  7.5625 15.583333322143554  C 5.958333355712892 15.583333288574217  4.697916677856445 16.84375  4.697916677856445 18.447916677856448  L 4.697916677856445 18.734375  C 4.697916677856445 19.536458322143552  4.067708355712891 20.16666667785644  3.2656249999999987 20.16666667785644  C 2.463541644287107 20.16666667785644  1.8333333221435555 19.536458322143552  1.8333333221435555 18.734375  L 1.8333333221435555 11.286458322143554  C 1.8333333221435555 6.072916644287108  6.072916644287111 1.7760416442871083  11.171875 1.8333333221435528  Z " stroke-width="0" stroke-dasharray="0" stroke="rgba(255, 255, 255, 0)" fill="none" transform="matrix(1 0 0 1 205 278 )" class="stroke" mask="url(#Clip5320)" />
    <path d="M 21.885416677856448 18.734375000000004  L 21.88541667785645 11  C 21.88541667785645 5.041666677856446  17.130208355712895 0.22916667785644462  11.229166677856446 0.11458332214355538  C 5.15625 0  0.11458332214355416 5.098958322143554  0.11458332214355416 11.286458322143554  L 0.11458332214355416 18.734375  C 0.11458332214355416 20.453125  1.5468749999999987 21.885416677856448  3.2656250000000013 21.885416677856448  C 4.984375000000003 21.885416677856448  6.416666677856446 20.453125  6.416666677856446 18.734375  L 6.416666677856446 18.447916677856448  C 6.416666677856446 17.81770835571289  6.932291677856446 17.30208335571289  7.5625 17.302083322143552  C 8.192708322143554 17.30208328857422  8.708333322143554 17.817708322143552  8.708333322143554 18.447916677856448  L 8.708333322143554 19.307291677856448  C 8.708333322143554 20.73958335571289  9.85416664428711 21.885416677856448  11.286458322143554 21.885416677856448  C 12.718749999999998 21.885416677856448  13.864583322143552 20.73958335571289  13.864583322143552 19.307291677856448  L 13.864583322143552 17.015625  C 13.864583322143552 16.557291677856448  14.265625 16.15625  14.723958322143554 16.15625  C 15.182291644287107 16.15625  15.583333322143554 16.557291677856448  15.583333322143554 17.015625  L 15.583333322143554 18.734375000000004  C 15.583333322143554 20.453125000000004  17.015625 21.88541667785645  18.734375 21.88541667785645  C 20.453125 21.88541667785645  21.885416677856448 20.453125000000004  21.885416677856448 18.734375000000004  Z " stroke-width="0" stroke-dasharray="0" stroke="rgba(255, 255, 255, 0)" fill="none" transform="matrix(1 0 0 1 205 278 )" class="stroke" mask="url(#Clip5320)" />
  </g>
</svg>