<?xml version="1.0" encoding="utf-8"?>
<svg version="1.1" xmlns:xlink="http://www.w3.org/1999/xlink" width="6px" height="4px" xmlns="http://www.w3.org/2000/svg">
  <defs>
    <pattern id="BGPattern" patternUnits="userSpaceOnUse" alignment="0 0" imageRepeat="None" />
    <mask fill="white" id="Clip74">
      <path d="M 2.9999999999999973 1.6666666796875007  L 4.437499987792968 3.2  C 4.687500000000003 3.4666666796875036  5.062500000000003 3.4666666796875036  5.312500012207032 3.2  C 5.562500024414064 2.9333333203124994  5.562500024414064 2.5333333203124995  5.312500012207032 2.266666679687501  L 3.437500012207029 0.26666667968750063  C 3.1874999999999947 0  2.8124999999999973 0  2.562499987792968 0.26666667968750063  L 0.6874999877929682 2.266666679687501  C 0.43749997558593634 2.5333333593750043  0.43749997558593634 2.933333359375004  0.6874999877929682 3.2  C 0.9374999999999973 3.4666666796875036  1.3124999999999973 3.4666666796875036  1.5625000122070292 3.2  L 2.9999999999999973 1.6666666796875007  Z " fill-rule="evenodd" />
    </mask>
  </defs>
  <g transform="matrix(1 0 0 1 -214 -287 )">
    <path d="M 2.9999999999999973 1.6666666796875007  L 4.437499987792968 3.2  C 4.687500000000003 3.4666666796875036  5.062500000000003 3.4666666796875036  5.312500012207032 3.2  C 5.562500024414064 2.9333333203124994  5.562500024414064 2.5333333203124995  5.312500012207032 2.266666679687501  L 3.437500012207029 0.26666667968750063  C 3.1874999999999947 0  2.8124999999999973 0  2.562499987792968 0.26666667968750063  L 0.6874999877929682 2.266666679687501  C 0.43749997558593634 2.5333333593750043  0.43749997558593634 2.933333359375004  0.6874999877929682 3.2  C 0.9374999999999973 3.4666666796875036  1.3124999999999973 3.4666666796875036  1.5625000122070292 3.2  L 2.9999999999999973 1.6666666796875007  Z " fill-rule="nonzero" fill="rgba(85, 85, 85, 1)" stroke="none" transform="matrix(1 0 0 1 214 287 )" class="fill" />
    <path d="M 2.9999999999999973 1.6666666796875007  L 4.437499987792968 3.2  C 4.687500000000003 3.4666666796875036  5.062500000000003 3.4666666796875036  5.312500012207032 3.2  C 5.562500024414064 2.9333333203124994  5.562500024414064 2.5333333203124995  5.312500012207032 2.266666679687501  L 3.437500012207029 0.26666667968750063  C 3.1874999999999947 0  2.8124999999999973 0  2.562499987792968 0.26666667968750063  L 0.6874999877929682 2.266666679687501  C 0.43749997558593634 2.5333333593750043  0.43749997558593634 2.933333359375004  0.6874999877929682 3.2  C 0.9374999999999973 3.4666666796875036  1.3124999999999973 3.4666666796875036  1.5625000122070292 3.2  L 2.9999999999999973 1.6666666796875007  Z " stroke-width="0" stroke-dasharray="0" stroke="rgba(255, 255, 255, 0)" fill="none" transform="matrix(1 0 0 1 214 287 )" class="stroke" mask="url(#Clip74)" />
  </g>
</svg>