<?xml version="1.0" encoding="utf-8"?>
<svg version="1.1" xmlns:xlink="http://www.w3.org/1999/xlink" width="29px" height="28px" xmlns="http://www.w3.org/2000/svg">
  <defs>
    <pattern id="BGPattern" patternUnits="userSpaceOnUse" alignment="0 0" imageRepeat="None" />
    <mask fill="white" id="Clip1308">
      <path d="M 0.8964843750000004 13.953125  C 0.8964843750000004 21.466139223772416  6.9869857762275895 27.556640625  14.500000000000004 27.556640625  C 22.01301422377242 27.556640625  28.103515625000004 21.466139223772416  28.103515625000004 13.953125  C 28.103515625000004 6.440110776227586  22.01301422377242 0.3496093750000009  14.500000000000004 0.3496093750000009  C 6.986985776227588 0.3496093750000009  0.8964843750000036 6.440110776227586  0.8964843750000036 13.953125  Z " fill-rule="evenodd" />
    </mask>
  </defs>
  <g transform="matrix(1 0 0 1 -35 -214 )">
    <path d="M 0.8964843750000004 13.953125  C 0.8964843750000004 21.466139223772416  6.9869857762275895 27.556640625  14.500000000000004 27.556640625  C 22.01301422377242 27.556640625  28.103515625000004 21.466139223772416  28.103515625000004 13.953125  C 28.103515625000004 6.440110776227586  22.01301422377242 0.3496093750000009  14.500000000000004 0.3496093750000009  C 6.986985776227588 0.3496093750000009  0.8964843750000036 6.440110776227586  0.8964843750000036 13.953125  Z " fill-rule="nonzero" fill="rgba(255, 220, 136, 1)" stroke="none" transform="matrix(1 0 0 1 35 214 )" class="fill" />
    <path d="M 0.8964843750000004 13.953125  C 0.8964843750000004 21.466139223772416  6.9869857762275895 27.556640625  14.500000000000004 27.556640625  C 22.01301422377242 27.556640625  28.103515625000004 21.466139223772416  28.103515625000004 13.953125  C 28.103515625000004 6.440110776227586  22.01301422377242 0.3496093750000009  14.500000000000004 0.3496093750000009  C 6.986985776227588 0.3496093750000009  0.8964843750000036 6.440110776227586  0.8964843750000036 13.953125  Z " stroke-width="0" stroke-dasharray="0" stroke="rgba(255, 255, 255, 0)" fill="none" transform="matrix(1 0 0 1 35 214 )" class="stroke" mask="url(#Clip1308)" />
  </g>
</svg>