<?xml version="1.0" encoding="utf-8"?>
<svg version="1.1" xmlns:xlink="http://www.w3.org/1999/xlink" width="16px" height="22px" xmlns="http://www.w3.org/2000/svg">
  <defs>
    <pattern id="BGPattern" patternUnits="userSpaceOnUse" alignment="0 0" imageRepeat="None" />
    <mask fill="white" id="Clip694">
      <path d="M 4.7555555468750015 5.54365080217634  L 14.755555546875 5.54365080217634  C 15.42222221354167 5.54365080217634  15.866666666666667 5.107142857142858  15.866666666666667 4.4523809523809526  L 15.866666666666667 1.1785714285714286  C 15.866666666666667 0.5238095238095237  15.422222213541666 0.08730157877604172  14.755555546875 0.08730157877604172  L 4.7555555468750015 0.08730157877604172  C 4.088888880208333 0.08730157877604172  3.6444444270833345 0.5238095238095237  3.644444453125 1.1785714285714286  L 3.644444453125 9.581349197823663  C 3.644444453125 13.619047619047622  2.533333333333333 17.65674601469494  0.4222222135416672 21.148809523809526  C 0.3111110937500001 21.367063483537947  0.3111110937500001 21.694444435918896  0.6444444531250004 21.912698421223958  L 0.8666666666666686 21.912698421223958  C 1.0888888802083347 21.912698421223958  1.200000000000002 21.80357142857143  1.3111111197916672 21.694444435918896  C 3.533333333333333 18.093253959728422  4.755555572916667 13.837301578776042  4.7555555468750015 9.58134919782366  L 4.7555555468750015 5.54365080217634  Z M 4.7555555468750015 1.1785714285714286  L 14.755555546875 1.1785714285714295  L 14.755555546875 4.4523809523809526  L 4.7555555468750015 4.4523809523809526  L 4.7555555468750015 1.1785714285714286  Z " fill-rule="evenodd" />
    </mask>
  </defs>
  <g transform="matrix(1 0 0 1 -288 -278 )">
    <path d="M 4.7555555468750015 5.54365080217634  L 14.755555546875 5.54365080217634  C 15.42222221354167 5.54365080217634  15.866666666666667 5.107142857142858  15.866666666666667 4.4523809523809526  L 15.866666666666667 1.1785714285714286  C 15.866666666666667 0.5238095238095237  15.422222213541666 0.08730157877604172  14.755555546875 0.08730157877604172  L 4.7555555468750015 0.08730157877604172  C 4.088888880208333 0.08730157877604172  3.6444444270833345 0.5238095238095237  3.644444453125 1.1785714285714286  L 3.644444453125 9.581349197823663  C 3.644444453125 13.619047619047622  2.533333333333333 17.65674601469494  0.4222222135416672 21.148809523809526  C 0.3111110937500001 21.367063483537947  0.3111110937500001 21.694444435918896  0.6444444531250004 21.912698421223958  L 0.8666666666666686 21.912698421223958  C 1.0888888802083347 21.912698421223958  1.200000000000002 21.80357142857143  1.3111111197916672 21.694444435918896  C 3.533333333333333 18.093253959728422  4.755555572916667 13.837301578776042  4.7555555468750015 9.58134919782366  L 4.7555555468750015 5.54365080217634  Z M 4.7555555468750015 1.1785714285714286  L 14.755555546875 1.1785714285714295  L 14.755555546875 4.4523809523809526  L 4.7555555468750015 4.4523809523809526  L 4.7555555468750015 1.1785714285714286  Z " fill-rule="nonzero" fill="rgba(255, 64, 37, 1)" stroke="none" transform="matrix(1 0 0 1 288 278 )" class="fill" />
    <path d="M 4.7555555468750015 5.54365080217634  L 14.755555546875 5.54365080217634  C 15.42222221354167 5.54365080217634  15.866666666666667 5.107142857142858  15.866666666666667 4.4523809523809526  L 15.866666666666667 1.1785714285714286  C 15.866666666666667 0.5238095238095237  15.422222213541666 0.08730157877604172  14.755555546875 0.08730157877604172  L 4.7555555468750015 0.08730157877604172  C 4.088888880208333 0.08730157877604172  3.6444444270833345 0.5238095238095237  3.644444453125 1.1785714285714286  L 3.644444453125 9.581349197823663  C 3.644444453125 13.619047619047622  2.533333333333333 17.65674601469494  0.4222222135416672 21.148809523809526  C 0.3111110937500001 21.367063483537947  0.3111110937500001 21.694444435918896  0.6444444531250004 21.912698421223958  L 0.8666666666666686 21.912698421223958  C 1.0888888802083347 21.912698421223958  1.200000000000002 21.80357142857143  1.3111111197916672 21.694444435918896  C 3.533333333333333 18.093253959728422  4.755555572916667 13.837301578776042  4.7555555468750015 9.58134919782366  L 4.7555555468750015 5.54365080217634  Z " stroke-width="0" stroke-dasharray="0" stroke="rgba(255, 255, 255, 0)" fill="none" transform="matrix(1 0 0 1 288 278 )" class="stroke" mask="url(#Clip694)" />
    <path d="M 4.7555555468750015 1.1785714285714286  L 14.755555546875 1.1785714285714295  L 14.755555546875 4.4523809523809526  L 4.7555555468750015 4.4523809523809526  L 4.7555555468750015 1.1785714285714286  Z " stroke-width="0" stroke-dasharray="0" stroke="rgba(255, 255, 255, 0)" fill="none" transform="matrix(1 0 0 1 288 278 )" class="stroke" mask="url(#Clip694)" />
  </g>
</svg>