<?xml version="1.0" encoding="utf-8"?>
<svg version="1.1" xmlns:xlink="http://www.w3.org/1999/xlink" width="13px" height="11px" xmlns="http://www.w3.org/2000/svg">
  <defs>
    <pattern id="BGPattern" patternUnits="userSpaceOnUse" alignment="0 0" imageRepeat="None" />
    <mask fill="white" id="Clip18767">
      <path d="M 4.562187499999993 10.492307692307692  C 4.444374999999994 10.614999999999998  4.1498437499999925 10.737692307692308  3.914218749999999 10.737692307692308  C 3.7964062499999995 10.737692307692308  3.7375 10.737692307692308  3.6196874999999986 10.676346153846152  C 3.266249999999998 10.492307692307694  3.1484374999999987 10.062884615384617  3.3251562499999996 9.694807692307691  C 3.3840624999999993 9.633461538461539  4.267656249999998 7.670384615384616  7.036249999999999 7.486346153846154  C 7.625312499999998 7.425000000000001  8.273281249999998 7.609038461538463  8.862343749999999 7.7930769230769235  C 9.333593749999999 7.915769230769232  9.863749999999998 8.038461538461538  10.158281250000002 8.038461538461538  C 10.51171875 8.038461538461538  10.747343749999999 7.854423076923078  10.9240625 7.731730769230769  L 10.9240625 2.640000000000001  C 10.62953125 2.824038461538462  10.2171875 3.0080769230769246  9.745937499999998 3.130769230769232  C 8.803437499999998 3.4375000000000013  7.743124999999998 3.130769230769232  6.741718749999997 2.824038461538462  C 6.093749999999996 2.7013461538461545  5.386874999999996 2.5173076923076927  4.7978124999999965 2.5173076923076927  C 3.560781249999996 2.578653846153847  2.500468749999996 3.9282692307692306  2.500468749999996 3.9282692307692306  C 2.382656249999995 4.112307692307693  2.147031249999996 4.235  1.8524999999999952 4.235  L 0.6154687499999951 4.112307692307693  C 0.2620312499999948 4.05096153846154  -0.03250000000000508 3.74423076923077  0.026406249999995468 3.3148076923076926  C 0.0853124999999953 2.9467307692307694  0.37984374999999515 2.6399999999999992  0.7921874999999954 2.701346153846153  L 1.6757812499999942 2.82403846153846  C 2.147031249999996 2.271923076923076  3.2662499999999954 1.2290384615384613  4.738906249999995 1.1676923076923067  C 5.5635937499999955 1.1676923076923067  6.388281249999993 1.3517307692307685  7.154062499999996 1.597115384615384  C 7.978749999999997 1.8425  8.803437499999994 2.0878846153846156  9.333593749999999 1.9038461538461537  C 10.511718749999996 1.4744230769230768  11.159687499999997 0.8609615384615384  11.159687499999997 0.8609615384615384  C 11.336406249999994 0.6769230769230768  11.630937499999998 0.6155769230769224  11.925468749999997 0.7382692307692305  C 12.161093749999996 0.8609615384615384  12.337812499999997 1.1063461538461532  12.337812499999997 1.4130769230769231  L 12.337812499999997 8.161153846153846  C 12.337812499999997 8.345192307692308  12.278906249999999 8.467884615384614  12.219999999999994 8.590576923076924  C 12.161093749999996 8.71326923076923  11.454218749999994 9.572115384615385  10.276093749999994 9.633461538461537  C 9.745937499999995 9.633461538461537  9.156874999999994 9.51076923076923  8.567812499999995 9.32673076923077  C 8.037656249999996 9.204038461538461  7.507499999999993 9.020000000000001  7.154062499999992 9.081346153846154  C 5.210156249999993 9.204038461538461  4.621093749999993 10.43096153846154  4.562187499999993 10.492307692307692  Z " fill-rule="evenodd" />
    </mask>
  </defs>
  <g transform="matrix(1 0 0 1 -214 -370 )">
    <path d="M 4.562187499999993 10.492307692307692  C 4.444374999999994 10.614999999999998  4.1498437499999925 10.737692307692308  3.914218749999999 10.737692307692308  C 3.7964062499999995 10.737692307692308  3.7375 10.737692307692308  3.6196874999999986 10.676346153846152  C 3.266249999999998 10.492307692307694  3.1484374999999987 10.062884615384617  3.3251562499999996 9.694807692307691  C 3.3840624999999993 9.633461538461539  4.267656249999998 7.670384615384616  7.036249999999999 7.486346153846154  C 7.625312499999998 7.425000000000001  8.273281249999998 7.609038461538463  8.862343749999999 7.7930769230769235  C 9.333593749999999 7.915769230769232  9.863749999999998 8.038461538461538  10.158281250000002 8.038461538461538  C 10.51171875 8.038461538461538  10.747343749999999 7.854423076923078  10.9240625 7.731730769230769  L 10.9240625 2.640000000000001  C 10.62953125 2.824038461538462  10.2171875 3.0080769230769246  9.745937499999998 3.130769230769232  C 8.803437499999998 3.4375000000000013  7.743124999999998 3.130769230769232  6.741718749999997 2.824038461538462  C 6.093749999999996 2.7013461538461545  5.386874999999996 2.5173076923076927  4.7978124999999965 2.5173076923076927  C 3.560781249999996 2.578653846153847  2.500468749999996 3.9282692307692306  2.500468749999996 3.9282692307692306  C 2.382656249999995 4.112307692307693  2.147031249999996 4.235  1.8524999999999952 4.235  L 0.6154687499999951 4.112307692307693  C 0.2620312499999948 4.05096153846154  -0.03250000000000508 3.74423076923077  0.026406249999995468 3.3148076923076926  C 0.0853124999999953 2.9467307692307694  0.37984374999999515 2.6399999999999992  0.7921874999999954 2.701346153846153  L 1.6757812499999942 2.82403846153846  C 2.147031249999996 2.271923076923076  3.2662499999999954 1.2290384615384613  4.738906249999995 1.1676923076923067  C 5.5635937499999955 1.1676923076923067  6.388281249999993 1.3517307692307685  7.154062499999996 1.597115384615384  C 7.978749999999997 1.8425  8.803437499999994 2.0878846153846156  9.333593749999999 1.9038461538461537  C 10.511718749999996 1.4744230769230768  11.159687499999997 0.8609615384615384  11.159687499999997 0.8609615384615384  C 11.336406249999994 0.6769230769230768  11.630937499999998 0.6155769230769224  11.925468749999997 0.7382692307692305  C 12.161093749999996 0.8609615384615384  12.337812499999997 1.1063461538461532  12.337812499999997 1.4130769230769231  L 12.337812499999997 8.161153846153846  C 12.337812499999997 8.345192307692308  12.278906249999999 8.467884615384614  12.219999999999994 8.590576923076924  C 12.161093749999996 8.71326923076923  11.454218749999994 9.572115384615385  10.276093749999994 9.633461538461537  C 9.745937499999995 9.633461538461537  9.156874999999994 9.51076923076923  8.567812499999995 9.32673076923077  C 8.037656249999996 9.204038461538461  7.507499999999993 9.020000000000001  7.154062499999992 9.081346153846154  C 5.210156249999993 9.204038461538461  4.621093749999993 10.43096153846154  4.562187499999993 10.492307692307692  Z " fill-rule="nonzero" fill="rgba(85, 85, 85, 1)" stroke="none" transform="matrix(1 0 0 1 214 370 )" class="fill" />
    <path d="M 4.562187499999993 10.492307692307692  C 4.444374999999994 10.614999999999998  4.1498437499999925 10.737692307692308  3.914218749999999 10.737692307692308  C 3.7964062499999995 10.737692307692308  3.7375 10.737692307692308  3.6196874999999986 10.676346153846152  C 3.266249999999998 10.492307692307694  3.1484374999999987 10.062884615384617  3.3251562499999996 9.694807692307691  C 3.3840624999999993 9.633461538461539  4.267656249999998 7.670384615384616  7.036249999999999 7.486346153846154  C 7.625312499999998 7.425000000000001  8.273281249999998 7.609038461538463  8.862343749999999 7.7930769230769235  C 9.333593749999999 7.915769230769232  9.863749999999998 8.038461538461538  10.158281250000002 8.038461538461538  C 10.51171875 8.038461538461538  10.747343749999999 7.854423076923078  10.9240625 7.731730769230769  L 10.9240625 2.640000000000001  C 10.62953125 2.824038461538462  10.2171875 3.0080769230769246  9.745937499999998 3.130769230769232  C 8.803437499999998 3.4375000000000013  7.743124999999998 3.130769230769232  6.741718749999997 2.824038461538462  C 6.093749999999996 2.7013461538461545  5.386874999999996 2.5173076923076927  4.7978124999999965 2.5173076923076927  C 3.560781249999996 2.578653846153847  2.500468749999996 3.9282692307692306  2.500468749999996 3.9282692307692306  C 2.382656249999995 4.112307692307693  2.147031249999996 4.235  1.8524999999999952 4.235  L 0.6154687499999951 4.112307692307693  C 0.2620312499999948 4.05096153846154  -0.03250000000000508 3.74423076923077  0.026406249999995468 3.3148076923076926  C 0.0853124999999953 2.9467307692307694  0.37984374999999515 2.6399999999999992  0.7921874999999954 2.701346153846153  L 1.6757812499999942 2.82403846153846  C 2.147031249999996 2.271923076923076  3.2662499999999954 1.2290384615384613  4.738906249999995 1.1676923076923067  C 5.5635937499999955 1.1676923076923067  6.388281249999993 1.3517307692307685  7.154062499999996 1.597115384615384  C 7.978749999999997 1.8425  8.803437499999994 2.0878846153846156  9.333593749999999 1.9038461538461537  C 10.511718749999996 1.4744230769230768  11.159687499999997 0.8609615384615384  11.159687499999997 0.8609615384615384  C 11.336406249999994 0.6769230769230768  11.630937499999998 0.6155769230769224  11.925468749999997 0.7382692307692305  C 12.161093749999996 0.8609615384615384  12.337812499999997 1.1063461538461532  12.337812499999997 1.4130769230769231  L 12.337812499999997 8.161153846153846  C 12.337812499999997 8.345192307692308  12.278906249999999 8.467884615384614  12.219999999999994 8.590576923076924  C 12.161093749999996 8.71326923076923  11.454218749999994 9.572115384615385  10.276093749999994 9.633461538461537  C 9.745937499999995 9.633461538461537  9.156874999999994 9.51076923076923  8.567812499999995 9.32673076923077  C 8.037656249999996 9.204038461538461  7.507499999999993 9.020000000000001  7.154062499999992 9.081346153846154  C 5.210156249999993 9.204038461538461  4.621093749999993 10.43096153846154  4.562187499999993 10.492307692307692  Z " stroke-width="0" stroke-dasharray="0" stroke="rgba(255, 255, 255, 0)" fill="none" transform="matrix(1 0 0 1 214 370 )" class="stroke" mask="url(#Clip18767)" />
  </g>
</svg>