<?xml version="1.0" encoding="utf-8"?>
<svg version="1.1" xmlns:xlink="http://www.w3.org/1999/xlink" width="16px" height="16px" xmlns="http://www.w3.org/2000/svg">
  <defs>
    <pattern id="BGPattern" patternUnits="userSpaceOnUse" alignment="0 0" imageRepeat="None" />
    <mask fill="white" id="Clip86">
      <path d="M 15.994578125 7.156687499999999  C 15.994578125 3.2253124999999994  12.4354375 0.038906249999999254  8.012890625 0.03890625  C 3.5903125 0.03890625  0.005421875 3.2253125  0.005421875 7.1566875  C 0.005421875 9.46590625  1.1329687499999999 11.518218749999999  3.0496406250000003 12.818765625000001  C 3.0610000000000004 12.826343750000001  2.85234375 15.961078125  2.85234375 15.961078125  L 6.071390625 14.081796875  C 6.661765625 14.205203125  7.328234375 14.2745  7.960734375 14.2745  C 12.38328125 14.2745  15.994578125 11.088093749999999  15.994578125 7.156687499999999  Z M 5.1159375 7.188124999999999  C 5.1159375 7.740015625  4.6685625 8.1874375  4.116609375 8.1874375  C 3.5647812500000002 8.1874375  3.117296875 7.739999999999999  3.117296875 7.188124999999999  C 3.117296875 6.636203125  3.564796875 6.1887968749999995  4.116609375 6.1887968749999995  C 4.6685625 6.1887968749999995  5.1159375 6.636203125  5.1159375 7.188124999999999  Z M 8.999328125 7.188124999999999  C 8.999328125 7.740015625  8.551828125 8.1874375  8 8.1874375  C 7.448046875 8.1874375  7.000671875 7.739999999999999  7.000671875 7.188124999999999  C 7.000671875 6.636203125  7.448046875 6.1887968749999995  8 6.1887968749999995  C 8.551828125 6.1887968749999995  8.999328125 6.636203125  8.999328125 7.188124999999999  Z M 12.882578125 7.188124999999999  C 12.882578125 7.740015625  12.435203125000001 8.1874375  11.88325 8.1874375  C 11.331312500000001 8.1874375  10.8839375 7.739999999999999  10.8839375 7.188124999999999  C 10.8839375 6.636203125  11.3313125 6.1887968749999995  11.88325 6.1887968749999995  C 12.435187500000001 6.1887968749999995  12.882578125 6.636203125  12.882578125 7.188124999999999  Z " fill-rule="evenodd" />
    </mask>
  </defs>
  <g transform="matrix(1 0 0 1 -126 -646 )">
    <path d="M 15.994578125 7.156687499999999  C 15.994578125 3.2253124999999994  12.4354375 0.038906249999999254  8.012890625 0.03890625  C 3.5903125 0.03890625  0.005421875 3.2253125  0.005421875 7.1566875  C 0.005421875 9.46590625  1.1329687499999999 11.518218749999999  3.0496406250000003 12.818765625000001  C 3.0610000000000004 12.826343750000001  2.85234375 15.961078125  2.85234375 15.961078125  L 6.071390625 14.081796875  C 6.661765625 14.205203125  7.328234375 14.2745  7.960734375 14.2745  C 12.38328125 14.2745  15.994578125 11.088093749999999  15.994578125 7.156687499999999  Z M 5.1159375 7.188124999999999  C 5.1159375 7.740015625  4.6685625 8.1874375  4.116609375 8.1874375  C 3.5647812500000002 8.1874375  3.117296875 7.739999999999999  3.117296875 7.188124999999999  C 3.117296875 6.636203125  3.564796875 6.1887968749999995  4.116609375 6.1887968749999995  C 4.6685625 6.1887968749999995  5.1159375 6.636203125  5.1159375 7.188124999999999  Z M 8.999328125 7.188124999999999  C 8.999328125 7.740015625  8.551828125 8.1874375  8 8.1874375  C 7.448046875 8.1874375  7.000671875 7.739999999999999  7.000671875 7.188124999999999  C 7.000671875 6.636203125  7.448046875 6.1887968749999995  8 6.1887968749999995  C 8.551828125 6.1887968749999995  8.999328125 6.636203125  8.999328125 7.188124999999999  Z M 12.882578125 7.188124999999999  C 12.882578125 7.740015625  12.435203125000001 8.1874375  11.88325 8.1874375  C 11.331312500000001 8.1874375  10.8839375 7.739999999999999  10.8839375 7.188124999999999  C 10.8839375 6.636203125  11.3313125 6.1887968749999995  11.88325 6.1887968749999995  C 12.435187500000001 6.1887968749999995  12.882578125 6.636203125  12.882578125 7.188124999999999  Z " fill-rule="nonzero" fill="rgba(0, 0, 0, 0.4980392156862745)" stroke="none" transform="matrix(1 0 0 1 126 646 )" class="fill" />
    <path d="M 15.994578125 7.156687499999999  C 15.994578125 3.2253124999999994  12.4354375 0.038906249999999254  8.012890625 0.03890625  C 3.5903125 0.03890625  0.005421875 3.2253125  0.005421875 7.1566875  C 0.005421875 9.46590625  1.1329687499999999 11.518218749999999  3.0496406250000003 12.818765625000001  C 3.0610000000000004 12.826343750000001  2.85234375 15.961078125  2.85234375 15.961078125  L 6.071390625 14.081796875  C 6.661765625 14.205203125  7.328234375 14.2745  7.960734375 14.2745  C 12.38328125 14.2745  15.994578125 11.088093749999999  15.994578125 7.156687499999999  Z " stroke-width="0" stroke-dasharray="0" stroke="rgba(255, 255, 255, 0)" fill="none" transform="matrix(1 0 0 1 126 646 )" class="stroke" mask="url(#Clip86)" />
    <path d="M 5.1159375 7.188124999999999  C 5.1159375 7.740015625  4.6685625 8.1874375  4.116609375 8.1874375  C 3.5647812500000002 8.1874375  3.117296875 7.739999999999999  3.117296875 7.188124999999999  C 3.117296875 6.636203125  3.564796875 6.1887968749999995  4.116609375 6.1887968749999995  C 4.6685625 6.1887968749999995  5.1159375 6.636203125  5.1159375 7.188124999999999  Z " stroke-width="0" stroke-dasharray="0" stroke="rgba(255, 255, 255, 0)" fill="none" transform="matrix(1 0 0 1 126 646 )" class="stroke" mask="url(#Clip86)" />
    <path d="M 8.999328125 7.188124999999999  C 8.999328125 7.740015625  8.551828125 8.1874375  8 8.1874375  C 7.448046875 8.1874375  7.000671875 7.739999999999999  7.000671875 7.188124999999999  C 7.000671875 6.636203125  7.448046875 6.1887968749999995  8 6.1887968749999995  C 8.551828125 6.1887968749999995  8.999328125 6.636203125  8.999328125 7.188124999999999  Z " stroke-width="0" stroke-dasharray="0" stroke="rgba(255, 255, 255, 0)" fill="none" transform="matrix(1 0 0 1 126 646 )" class="stroke" mask="url(#Clip86)" />
    <path d="M 12.882578125 7.188124999999999  C 12.882578125 7.740015625  12.435203125000001 8.1874375  11.88325 8.1874375  C 11.331312500000001 8.1874375  10.8839375 7.739999999999999  10.8839375 7.188124999999999  C 10.8839375 6.636203125  11.3313125 6.1887968749999995  11.88325 6.1887968749999995  C 12.435187500000001 6.1887968749999995  12.882578125 6.636203125  12.882578125 7.188124999999999  Z " stroke-width="0" stroke-dasharray="0" stroke="rgba(255, 255, 255, 0)" fill="none" transform="matrix(1 0 0 1 126 646 )" class="stroke" mask="url(#Clip86)" />
  </g>
</svg>