<?xml version="1.0" encoding="utf-8"?>
<svg version="1.1" xmlns:xlink="http://www.w3.org/1999/xlink" width="22px" height="12px" xmlns="http://www.w3.org/2000/svg">
  <defs>
    <pattern id="BGPattern" patternUnits="userSpaceOnUse" alignment="0 0" imageRepeat="None" />
    <mask fill="white" id="Clip50">
      <path d="M 21.475959999999997 11.211857142857143  C 21.76944 10.93842857142857  21.79496 10.503428571428572  21.526999999999997 10.217571428571429  L 13.424399999999999 1.7288571428571426  C 13.258520000000003 1.554857142857142  12.429119999999998 0.6848571428571424  11.17864 0.6351428571428572  C 10.272680000000001 0.6102857142857144  9.405 1.008  8.613879999999998 1.8282857142857143  C 7.439959999999999 3.0214285714285705  4.836919999999999 5.718428571428571  0.8430399999999993 9.832285714285714  C 0.6133599999999997 10.068428571428571  0.4857599999999997 10.205142857142857  0.47299999999999964 10.217571428571429  C 0.2050399999999997 10.491  0.21779999999999966 10.93842857142857  0.49851999999999963 11.211857142857143  C 0.6261199999999996 11.336142857142857  0.8047599999999995 11.398285714285713  0.9961599999999997 11.398285714285713  L 1.0216799999999995 11.398285714285713  C 1.21308 11.398285714285713  1.3917199999999996 11.311285714285715  1.5193199999999993 11.174571428571427  C 1.5320799999999992 11.162142857142857  1.6724399999999997 11.013  1.9148799999999992 10.76442857142857  C 5.895999999999998 6.6629999999999985  8.486279999999999 3.9784285714285703  9.63468 2.797714285714285  C 10.13232 2.288142857142857  10.629959999999997 2.0271428571428567  11.102079999999999 2.0395714285714277  C 11.77836 2.0519999999999996  12.276000000000002 2.6112857142857138  12.31428 2.6485714285714277  L 12.339800000000002 2.6734285714285706  L 20.46792 11.174571428571427  C 20.608279999999997 11.311285714285711  20.79968 11.398285714285713  20.99108 11.398285714285713  C 21.16972 11.398285714285713  21.34836 11.336142857142857  21.475959999999997 11.211857142857143  Z " fill-rule="evenodd" />
    </mask>
  </defs>
  <g transform="matrix(1 0 0 1 -59 -510 )">
    <path d="M 21.475959999999997 11.211857142857143  C 21.76944 10.93842857142857  21.79496 10.503428571428572  21.526999999999997 10.217571428571429  L 13.424399999999999 1.7288571428571426  C 13.258520000000003 1.554857142857142  12.429119999999998 0.6848571428571424  11.17864 0.6351428571428572  C 10.272680000000001 0.6102857142857144  9.405 1.008  8.613879999999998 1.8282857142857143  C 7.439959999999999 3.0214285714285705  4.836919999999999 5.718428571428571  0.8430399999999993 9.832285714285714  C 0.6133599999999997 10.068428571428571  0.4857599999999997 10.205142857142857  0.47299999999999964 10.217571428571429  C 0.2050399999999997 10.491  0.21779999999999966 10.93842857142857  0.49851999999999963 11.211857142857143  C 0.6261199999999996 11.336142857142857  0.8047599999999995 11.398285714285713  0.9961599999999997 11.398285714285713  L 1.0216799999999995 11.398285714285713  C 1.21308 11.398285714285713  1.3917199999999996 11.311285714285715  1.5193199999999993 11.174571428571427  C 1.5320799999999992 11.162142857142857  1.6724399999999997 11.013  1.9148799999999992 10.76442857142857  C 5.895999999999998 6.6629999999999985  8.486279999999999 3.9784285714285703  9.63468 2.797714285714285  C 10.13232 2.288142857142857  10.629959999999997 2.0271428571428567  11.102079999999999 2.0395714285714277  C 11.77836 2.0519999999999996  12.276000000000002 2.6112857142857138  12.31428 2.6485714285714277  L 12.339800000000002 2.6734285714285706  L 20.46792 11.174571428571427  C 20.608279999999997 11.311285714285711  20.79968 11.398285714285713  20.99108 11.398285714285713  C 21.16972 11.398285714285713  21.34836 11.336142857142857  21.475959999999997 11.211857142857143  Z " fill-rule="nonzero" fill="rgba(85, 85, 85, 1)" stroke="none" transform="matrix(1 0 0 1 59 510 )" class="fill" />
    <path d="M 21.475959999999997 11.211857142857143  C 21.76944 10.93842857142857  21.79496 10.503428571428572  21.526999999999997 10.217571428571429  L 13.424399999999999 1.7288571428571426  C 13.258520000000003 1.554857142857142  12.429119999999998 0.6848571428571424  11.17864 0.6351428571428572  C 10.272680000000001 0.6102857142857144  9.405 1.008  8.613879999999998 1.8282857142857143  C 7.439959999999999 3.0214285714285705  4.836919999999999 5.718428571428571  0.8430399999999993 9.832285714285714  C 0.6133599999999997 10.068428571428571  0.4857599999999997 10.205142857142857  0.47299999999999964 10.217571428571429  C 0.2050399999999997 10.491  0.21779999999999966 10.93842857142857  0.49851999999999963 11.211857142857143  C 0.6261199999999996 11.336142857142857  0.8047599999999995 11.398285714285713  0.9961599999999997 11.398285714285713  L 1.0216799999999995 11.398285714285713  C 1.21308 11.398285714285713  1.3917199999999996 11.311285714285715  1.5193199999999993 11.174571428571427  C 1.5320799999999992 11.162142857142857  1.6724399999999997 11.013  1.9148799999999992 10.76442857142857  C 5.895999999999998 6.6629999999999985  8.486279999999999 3.9784285714285703  9.63468 2.797714285714285  C 10.13232 2.288142857142857  10.629959999999997 2.0271428571428567  11.102079999999999 2.0395714285714277  C 11.77836 2.0519999999999996  12.276000000000002 2.6112857142857138  12.31428 2.6485714285714277  L 12.339800000000002 2.6734285714285706  L 20.46792 11.174571428571427  C 20.608279999999997 11.311285714285711  20.79968 11.398285714285713  20.99108 11.398285714285713  C 21.16972 11.398285714285713  21.34836 11.336142857142857  21.475959999999997 11.211857142857143  Z " stroke-width="0" stroke-dasharray="0" stroke="rgba(255, 255, 255, 0)" fill="none" transform="matrix(1 0 0 1 59 510 )" class="stroke" mask="url(#Clip50)" />
  </g>
</svg>