<?xml version="1.0" encoding="utf-8"?>
<svg version="1.1" xmlns:xlink="http://www.w3.org/1999/xlink" width="320px" height="93px" xmlns="http://www.w3.org/2000/svg">
  <defs>
    <linearGradient gradientUnits="userSpaceOnUse" x1="312.809917355372" y1="6.513842975206559" x2="5.371900826446421" y2="88.17706611570247" id="LinearGradient1995">
      <stop id="Stop1996" stop-color="#555555" offset="0" />
      <stop id="Stop1997" stop-color="#333333" offset="1" />
    </linearGradient>
    <pattern id="BGPattern" patternUnits="userSpaceOnUse" alignment="0 0" imageRepeat="None" />
    <mask fill="white" id="Clip1998">
      <path d="M 0 88  L 0 5  C 0 2.1999999999999997  2.1999999999999997 0  5 0  L 315 0  C 317.8 0  320 2.1999999999999997  320 5  L 320 88  C 320 90.8  317.8 93  315 93  L 5 93  C 2.1999999999999997 93  0 90.8  0 88  Z " fill-rule="evenodd" />
    </mask>
  </defs>
  <g transform="matrix(1 0 0 1 -20 -73 )">
    <path d="M 0 88  L 0 5  C 0 2.1999999999999997  2.1999999999999997 0  5 0  L 315 0  C 317.8 0  320 2.1999999999999997  320 5  L 320 88  C 320 90.8  317.8 93  315 93  L 5 93  C 2.1999999999999997 93  0 90.8  0 88  Z " fill-rule="nonzero" fill="url(#LinearGradient1995)" stroke="none" transform="matrix(1 0 0 1 20 73 )" class="fill" />
    <path d="M 0 88  L 0 5  C 0 2.1999999999999997  2.1999999999999997 0  5 0  L 315 0  C 317.8 0  320 2.1999999999999997  320 5  L 320 88  C 320 90.8  317.8 93  315 93  L 5 93  C 2.1999999999999997 93  0 90.8  0 88  Z " stroke-width="0" stroke-dasharray="0" stroke="rgba(121, 121, 121, 1)" fill="none" transform="matrix(1 0 0 1 20 73 )" class="stroke" mask="url(#Clip1998)" />
  </g>
</svg>