<?xml version="1.0" encoding="utf-8"?>
<svg version="1.1" xmlns:xlink="http://www.w3.org/1999/xlink" width="20px" height="20px" xmlns="http://www.w3.org/2000/svg">
  <defs>
    <pattern id="BGPattern" patternUnits="userSpaceOnUse" alignment="0 0" imageRepeat="None" />
    <mask fill="white" id="Clip1457">
      <path d="M 20 10  C 20 15.522499999999999  15.522499999999999 20  10 20  C 4.4775 20  0 15.522499999999999  0 10  C 0 4.477500000000001  4.4775 0  10 0  C 15.522499999999999 0  20 4.4775  20 10  Z M 13.58666666015625 7.1066666601562485  L 9.04083333984375 11.6525  L 6.51583333984375 9.1275  C 6.3818268481128175 8.993382940992946  6.200008666964827 8.918027460125362  6.010416669921876 8.918027460125362  C 5.61582438197624 8.918027460125362  5.295944130047237 9.237907712054364  5.295944130047237 9.6325  C 5.295944130047237 9.821887805368913  5.371137834033367 10.00352738583884  5.505000000000001 10.1375  L 8.535833339843752 13.167499999999999  C 8.669766212111217 13.301437069016123  8.851420687862838 13.376682483692539  9.04083333984375 13.376682483692539  C 9.230245991824665 13.376682483692539  9.411900467576286 13.301437069016123  9.54583333984375 13.167499999999999  L 14.595833339843754 8.1175  C 14.730022683593857 7.983531907393685  14.805428098994078 7.801699336292414  14.805428098994078 7.612083330078123  C 14.805428098994078 7.217653657340547  14.485679672737575 6.897905231084048  14.091249999999999 6.897905231084048  C 13.9020423723877 6.897905231084048  13.720566998470069 6.972987096474588  13.58666666015625 7.1066666601562485  Z " fill-rule="evenodd" />
    </mask>
  </defs>
  <g transform="matrix(1 0 0 1 -1085 -390 )">
    <path d="M 20 10  C 20 15.522499999999999  15.522499999999999 20  10 20  C 4.4775 20  0 15.522499999999999  0 10  C 0 4.477500000000001  4.4775 0  10 0  C 15.522499999999999 0  20 4.4775  20 10  Z M 13.58666666015625 7.1066666601562485  L 9.04083333984375 11.6525  L 6.51583333984375 9.1275  C 6.3818268481128175 8.993382940992946  6.200008666964827 8.918027460125362  6.010416669921876 8.918027460125362  C 5.61582438197624 8.918027460125362  5.295944130047237 9.237907712054364  5.295944130047237 9.6325  C 5.295944130047237 9.821887805368913  5.371137834033367 10.00352738583884  5.505000000000001 10.1375  L 8.535833339843752 13.167499999999999  C 8.669766212111217 13.301437069016123  8.851420687862838 13.376682483692539  9.04083333984375 13.376682483692539  C 9.230245991824665 13.376682483692539  9.411900467576286 13.301437069016123  9.54583333984375 13.167499999999999  L 14.595833339843754 8.1175  C 14.730022683593857 7.983531907393685  14.805428098994078 7.801699336292414  14.805428098994078 7.612083330078123  C 14.805428098994078 7.217653657340547  14.485679672737575 6.897905231084048  14.091249999999999 6.897905231084048  C 13.9020423723877 6.897905231084048  13.720566998470069 6.972987096474588  13.58666666015625 7.1066666601562485  Z " fill-rule="nonzero" fill="rgba(43, 194, 103, 1)" stroke="none" transform="matrix(1 0 0 1 1085 390 )" class="fill" />
    <path d="M 20 10  C 20 15.522499999999999  15.522499999999999 20  10 20  C 4.4775 20  0 15.522499999999999  0 10  C 0 4.477500000000001  4.4775 0  10 0  C 15.522499999999999 0  20 4.4775  20 10  Z " stroke-width="0" stroke-dasharray="0" stroke="rgba(255, 255, 255, 0)" fill="none" transform="matrix(1 0 0 1 1085 390 )" class="stroke" mask="url(#Clip1457)" />
    <path d="M 13.58666666015625 7.1066666601562485  L 9.04083333984375 11.6525  L 6.51583333984375 9.1275  C 6.3818268481128175 8.993382940992946  6.200008666964827 8.918027460125362  6.010416669921876 8.918027460125362  C 5.61582438197624 8.918027460125362  5.295944130047237 9.237907712054364  5.295944130047237 9.6325  C 5.295944130047237 9.821887805368913  5.371137834033367 10.00352738583884  5.505000000000001 10.1375  L 8.535833339843752 13.167499999999999  C 8.669766212111217 13.301437069016123  8.851420687862838 13.376682483692539  9.04083333984375 13.376682483692539  C 9.230245991824665 13.376682483692539  9.411900467576286 13.301437069016123  9.54583333984375 13.167499999999999  L 14.595833339843754 8.1175  C 14.730022683593857 7.983531907393685  14.805428098994078 7.801699336292414  14.805428098994078 7.612083330078123  C 14.805428098994078 7.217653657340547  14.485679672737575 6.897905231084048  14.091249999999999 6.897905231084048  C 13.9020423723877 6.897905231084048  13.720566998470069 6.972987096474588  13.58666666015625 7.1066666601562485  Z " stroke-width="0" stroke-dasharray="0" stroke="rgba(255, 255, 255, 0)" fill="none" transform="matrix(1 0 0 1 1085 390 )" class="stroke" mask="url(#Clip1457)" />
  </g>
</svg>