<?xml version="1.0" encoding="utf-8"?>
<svg version="1.1" xmlns:xlink="http://www.w3.org/1999/xlink" width="12px" height="12px" xmlns="http://www.w3.org/2000/svg">
  <defs>
    <pattern id="BGPattern" patternUnits="userSpaceOnUse" alignment="0 0" imageRepeat="None" />
    <mask fill="white" id="Clip1817">
      <path d="M 3.706666666666667 0.5133333333333306  C 4.426666666666668 0.1977777777777779  5.2 0.04000000000000152  6.0266666666666655 0.04000000000000152  C 6.8533333333333335 0.04000000000000152  7.628888888888889 0.1977777777777779  8.353333333333333 0.5133333333333306  C 9.07777777777778 0.828888888888893  9.71111111111111 1.25555555555556  10.253333333333332 1.793333333333332  C 10.795555555555556 2.331111111111113  11.222222222222221 2.9622222222222185  11.533333333333331 3.6866666666666674  C 11.844444444444443 4.411111111111117  12 5.186666666666667  12 6.01333333333333  C 12 6.8399999999999945  11.844444444444443 7.613333333333335  11.533333333333331 8.333333333333332  C 11.222222222222221 9.053333333333333  10.795555555555556 9.684444444444447  10.253333333333332 10.22666666666667  C 9.71111111111111 10.76888888888889  9.07777777777778 11.195555555555558  8.353333333333333 11.50666666666667  C 7.628888888888889 11.817777777777783  6.8533333333333335 11.973333333333338  6.0266666666666655 11.973333333333338  C 5.2 11.973333333333338  4.426666666666668 11.817777777777783  3.706666666666667 11.50666666666667  C 2.986666666666667 11.195555555555558  2.3555555555555556 10.76888888888889  1.8133333333333337 10.22666666666667  C 1.2711111111111122 9.684444444444447  0.8444444444444453 9.053333333333333  0.5333333333333337 8.333333333333332  C 0.22222222222222232 7.613333333333335  0.06666666666666672 6.840000000000003  0.06666666666666703 6.013333333333341  C 0.06666666666666717 5.186666666666667  0.22222222222222276 4.411111111111117  0.5333333333333337 3.6866666666666674  C 0.8444444444444443 2.9622222222222185  1.271111111111111 2.331111111111113  1.8133333333333337 1.793333333333332  C 2.355555555555556 1.25555555555556  2.986666666666667 0.828888888888893  3.706666666666667 0.5133333333333306  Z M 5.460000000000001 9.860000000000003  C 5.615555555555557 10.015555555555562  5.80888888888889 10.093333333333334  6.040000000000001 10.093333333333334  C 6.271111111111113 10.093333333333334  6.464444444444444 10.015555555555562  6.619999999999999 9.860000000000003  C 6.775555555555556 9.704444444444448  6.8533333333333335 9.51555555555556  6.8533333333333335 9.293333333333331  C 6.8533333333333335 9.062222222222221  6.775555555555556 8.868888888888895  6.619999999999999 8.713333333333338  C 6.464444444444444 8.557777777777783  6.271111111111113 8.479999999999999  6.040000000000001 8.479999999999999  C 5.80888888888889 8.479999999999999  5.615555555555556 8.557777777777783  5.460000000000001 8.713333333333338  C 5.304444444444446 8.868888888888895  5.2266666666666675 9.062222222222221  5.226666666666667 9.293333333333331  C 5.226666666666667 9.51555555555556  5.304444444444445 9.704444444444448  5.460000000000001 9.860000000000003  Z M 6.719999999999999 7.133333333333335  L 6.720000000000001 6.813333333333333  C 6.711111111111114 6.671111111111108  6.800000000000001 6.520000000000001  6.986666666666666 6.360000000000005  C 7.173333333333334 6.1999999999999975  7.382222222222223 6.022222222222221  7.613333333333335 5.8266666666666636  C 7.844444444444447 5.631111111111116  8.05777777777778 5.411111111111116  8.253333333333336 5.166666666666667  C 8.448888888888892 4.922222222222217  8.555555555555559 4.640000000000005  8.573333333333336 4.320000000000002  C 8.591111111111113 3.973333333333339  8.555555555555559 3.648888888888886  8.466666666666669 3.346666666666664  C 8.37777777777778 3.0444444444444416  8.231111111111113 2.7844444444444414  8.026666666666669 2.566666666666663  C 7.822222222222225 2.3488888888888937  7.55777777777778 2.175555555555557  7.233333333333336 2.0466666666666713  C 6.908888888888891 1.917777777777777  6.528888888888892 1.853333333333334  6.093333333333335 1.853333333333334  C 5.551111111111114 1.853333333333334  5.100000000000001 1.948888888888888  4.740000000000001 2.1400000000000055  C 4.380000000000001 2.331111111111113  4.0888888888888895 2.5622222222222226  3.8666666666666676 2.833333333333333  C 3.6444444444444466 3.104444444444444  3.4888888888888903 3.384444444444445  3.4000000000000012 3.6733333333333364  C 3.311111111111111 3.962222222222219  3.271111111111111 4.204444444444448  3.2800000000000002 4.399999999999997  C 3.2888888888888905 4.631111111111115  3.3622222222222224 4.800000000000002  3.500000000000001 4.906666666666666  C 3.6377777777777793 5.013333333333331  3.786666666666668 5.0688888888888926  3.946666666666668 5.073333333333333  C 4.106666666666667 5.077777777777783  4.253333333333335 5.033333333333331  4.386666666666668 4.939999999999998  C 4.520000000000001 4.846666666666664  4.586666666666668 4.711111111111109  4.586666666666668 4.533333333333331  C 4.586666666666668 4.426666666666668  4.620000000000001 4.295555555555552  4.686666666666668 4.140000000000005  C 4.753333333333335 3.984444444444449  4.844444444444446 3.835555555555554  4.960000000000002 3.693333333333338  C 5.075555555555558 3.551111111111112  5.215555555555557 3.431111111111117  5.380000000000002 3.3333333333333335  C 5.544444444444446 3.2355555555555595  5.72888888888889 3.1866666666666674  5.933333333333335 3.1866666666666674  C 6.333333333333336 3.1866666666666674  6.653333333333336 3.2866666666666715  6.893333333333334 3.4866666666666695  C 7.133333333333333 3.6866666666666674  7.244444444444445 3.937777777777778  7.226666666666668 4.239999999999999  C 7.226666666666668 4.391111111111115  7.182222222222224 4.531111111111111  7.093333333333334 4.660000000000006  C 7.004444444444446 4.788888888888891  6.891111111111112 4.913333333333337  6.753333333333336 5.033333333333331  C 6.615555555555557 5.153333333333336  6.468888888888891 5.273333333333331  6.313333333333334 5.393333333333336  C 6.157777777777779 5.51333333333334  6.011111111111112 5.637777777777785  5.873333333333333 5.76666666666667  C 5.735555555555557 5.895555555555556  5.620000000000001 6.035555555555561  5.526666666666667 6.186666666666667  C 5.433333333333334 6.337777777777783  5.3822222222222225 6.502222222222221  5.373333333333334 6.680000000000007  L 5.386666666666667 7.186666666666667  C 5.386666666666667 7.320000000000002  5.448888888888889 7.446666666666667  5.573333333333334 7.566666666666672  C 5.697777777777778 7.686666666666667  5.862222222222223 7.7511111111111095  6.066666666666666 7.760000000000001  C 6.271111111111111 7.7511111111111095  6.433333333333332 7.684444444444447  6.553333333333333 7.560000000000002  C 6.673333333333334 7.435555555555557  6.728888888888889 7.293333333333331  6.719999999999999 7.133333333333335  Z " fill-rule="evenodd" />
    </mask>
  </defs>
  <g transform="matrix(1 0 0 1 -861 -130 )">
    <path d="M 3.706666666666667 0.5133333333333306  C 4.426666666666668 0.1977777777777779  5.2 0.04000000000000152  6.0266666666666655 0.04000000000000152  C 6.8533333333333335 0.04000000000000152  7.628888888888889 0.1977777777777779  8.353333333333333 0.5133333333333306  C 9.07777777777778 0.828888888888893  9.71111111111111 1.25555555555556  10.253333333333332 1.793333333333332  C 10.795555555555556 2.331111111111113  11.222222222222221 2.9622222222222185  11.533333333333331 3.6866666666666674  C 11.844444444444443 4.411111111111117  12 5.186666666666667  12 6.01333333333333  C 12 6.8399999999999945  11.844444444444443 7.613333333333335  11.533333333333331 8.333333333333332  C 11.222222222222221 9.053333333333333  10.795555555555556 9.684444444444447  10.253333333333332 10.22666666666667  C 9.71111111111111 10.76888888888889  9.07777777777778 11.195555555555558  8.353333333333333 11.50666666666667  C 7.628888888888889 11.817777777777783  6.8533333333333335 11.973333333333338  6.0266666666666655 11.973333333333338  C 5.2 11.973333333333338  4.426666666666668 11.817777777777783  3.706666666666667 11.50666666666667  C 2.986666666666667 11.195555555555558  2.3555555555555556 10.76888888888889  1.8133333333333337 10.22666666666667  C 1.2711111111111122 9.684444444444447  0.8444444444444453 9.053333333333333  0.5333333333333337 8.333333333333332  C 0.22222222222222232 7.613333333333335  0.06666666666666672 6.840000000000003  0.06666666666666703 6.013333333333341  C 0.06666666666666717 5.186666666666667  0.22222222222222276 4.411111111111117  0.5333333333333337 3.6866666666666674  C 0.8444444444444443 2.9622222222222185  1.271111111111111 2.331111111111113  1.8133333333333337 1.793333333333332  C 2.355555555555556 1.25555555555556  2.986666666666667 0.828888888888893  3.706666666666667 0.5133333333333306  Z M 5.460000000000001 9.860000000000003  C 5.615555555555557 10.015555555555562  5.80888888888889 10.093333333333334  6.040000000000001 10.093333333333334  C 6.271111111111113 10.093333333333334  6.464444444444444 10.015555555555562  6.619999999999999 9.860000000000003  C 6.775555555555556 9.704444444444448  6.8533333333333335 9.51555555555556  6.8533333333333335 9.293333333333331  C 6.8533333333333335 9.062222222222221  6.775555555555556 8.868888888888895  6.619999999999999 8.713333333333338  C 6.464444444444444 8.557777777777783  6.271111111111113 8.479999999999999  6.040000000000001 8.479999999999999  C 5.80888888888889 8.479999999999999  5.615555555555556 8.557777777777783  5.460000000000001 8.713333333333338  C 5.304444444444446 8.868888888888895  5.2266666666666675 9.062222222222221  5.226666666666667 9.293333333333331  C 5.226666666666667 9.51555555555556  5.304444444444445 9.704444444444448  5.460000000000001 9.860000000000003  Z M 6.719999999999999 7.133333333333335  L 6.720000000000001 6.813333333333333  C 6.711111111111114 6.671111111111108  6.800000000000001 6.520000000000001  6.986666666666666 6.360000000000005  C 7.173333333333334 6.1999999999999975  7.382222222222223 6.022222222222221  7.613333333333335 5.8266666666666636  C 7.844444444444447 5.631111111111116  8.05777777777778 5.411111111111116  8.253333333333336 5.166666666666667  C 8.448888888888892 4.922222222222217  8.555555555555559 4.640000000000005  8.573333333333336 4.320000000000002  C 8.591111111111113 3.973333333333339  8.555555555555559 3.648888888888886  8.466666666666669 3.346666666666664  C 8.37777777777778 3.0444444444444416  8.231111111111113 2.7844444444444414  8.026666666666669 2.566666666666663  C 7.822222222222225 2.3488888888888937  7.55777777777778 2.175555555555557  7.233333333333336 2.0466666666666713  C 6.908888888888891 1.917777777777777  6.528888888888892 1.853333333333334  6.093333333333335 1.853333333333334  C 5.551111111111114 1.853333333333334  5.100000000000001 1.948888888888888  4.740000000000001 2.1400000000000055  C 4.380000000000001 2.331111111111113  4.0888888888888895 2.5622222222222226  3.8666666666666676 2.833333333333333  C 3.6444444444444466 3.104444444444444  3.4888888888888903 3.384444444444445  3.4000000000000012 3.6733333333333364  C 3.311111111111111 3.962222222222219  3.271111111111111 4.204444444444448  3.2800000000000002 4.399999999999997  C 3.2888888888888905 4.631111111111115  3.3622222222222224 4.800000000000002  3.500000000000001 4.906666666666666  C 3.6377777777777793 5.013333333333331  3.786666666666668 5.0688888888888926  3.946666666666668 5.073333333333333  C 4.106666666666667 5.077777777777783  4.253333333333335 5.033333333333331  4.386666666666668 4.939999999999998  C 4.520000000000001 4.846666666666664  4.586666666666668 4.711111111111109  4.586666666666668 4.533333333333331  C 4.586666666666668 4.426666666666668  4.620000000000001 4.295555555555552  4.686666666666668 4.140000000000005  C 4.753333333333335 3.984444444444449  4.844444444444446 3.835555555555554  4.960000000000002 3.693333333333338  C 5.075555555555558 3.551111111111112  5.215555555555557 3.431111111111117  5.380000000000002 3.3333333333333335  C 5.544444444444446 3.2355555555555595  5.72888888888889 3.1866666666666674  5.933333333333335 3.1866666666666674  C 6.333333333333336 3.1866666666666674  6.653333333333336 3.2866666666666715  6.893333333333334 3.4866666666666695  C 7.133333333333333 3.6866666666666674  7.244444444444445 3.937777777777778  7.226666666666668 4.239999999999999  C 7.226666666666668 4.391111111111115  7.182222222222224 4.531111111111111  7.093333333333334 4.660000000000006  C 7.004444444444446 4.788888888888891  6.891111111111112 4.913333333333337  6.753333333333336 5.033333333333331  C 6.615555555555557 5.153333333333336  6.468888888888891 5.273333333333331  6.313333333333334 5.393333333333336  C 6.157777777777779 5.51333333333334  6.011111111111112 5.637777777777785  5.873333333333333 5.76666666666667  C 5.735555555555557 5.895555555555556  5.620000000000001 6.035555555555561  5.526666666666667 6.186666666666667  C 5.433333333333334 6.337777777777783  5.3822222222222225 6.502222222222221  5.373333333333334 6.680000000000007  L 5.386666666666667 7.186666666666667  C 5.386666666666667 7.320000000000002  5.448888888888889 7.446666666666667  5.573333333333334 7.566666666666672  C 5.697777777777778 7.686666666666667  5.862222222222223 7.7511111111111095  6.066666666666666 7.760000000000001  C 6.271111111111111 7.7511111111111095  6.433333333333332 7.684444444444447  6.553333333333333 7.560000000000002  C 6.673333333333334 7.435555555555557  6.728888888888889 7.293333333333331  6.719999999999999 7.133333333333335  Z " fill-rule="nonzero" fill="rgba(255, 255, 255, 1)" stroke="none" transform="matrix(1 0 0 1 861 130 )" class="fill" />
    <path d="M 3.706666666666667 0.5133333333333306  C 4.426666666666668 0.1977777777777779  5.2 0.04000000000000152  6.0266666666666655 0.04000000000000152  C 6.8533333333333335 0.04000000000000152  7.628888888888889 0.1977777777777779  8.353333333333333 0.5133333333333306  C 9.07777777777778 0.828888888888893  9.71111111111111 1.25555555555556  10.253333333333332 1.793333333333332  C 10.795555555555556 2.331111111111113  11.222222222222221 2.9622222222222185  11.533333333333331 3.6866666666666674  C 11.844444444444443 4.411111111111117  12 5.186666666666667  12 6.01333333333333  C 12 6.8399999999999945  11.844444444444443 7.613333333333335  11.533333333333331 8.333333333333332  C 11.222222222222221 9.053333333333333  10.795555555555556 9.684444444444447  10.253333333333332 10.22666666666667  C 9.71111111111111 10.76888888888889  9.07777777777778 11.195555555555558  8.353333333333333 11.50666666666667  C 7.628888888888889 11.817777777777783  6.8533333333333335 11.973333333333338  6.0266666666666655 11.973333333333338  C 5.2 11.973333333333338  4.426666666666668 11.817777777777783  3.706666666666667 11.50666666666667  C 2.986666666666667 11.195555555555558  2.3555555555555556 10.76888888888889  1.8133333333333337 10.22666666666667  C 1.2711111111111122 9.684444444444447  0.8444444444444453 9.053333333333333  0.5333333333333337 8.333333333333332  C 0.22222222222222232 7.613333333333335  0.06666666666666672 6.840000000000003  0.06666666666666703 6.013333333333341  C 0.06666666666666717 5.186666666666667  0.22222222222222276 4.411111111111117  0.5333333333333337 3.6866666666666674  C 0.8444444444444443 2.9622222222222185  1.271111111111111 2.331111111111113  1.8133333333333337 1.793333333333332  C 2.355555555555556 1.25555555555556  2.986666666666667 0.828888888888893  3.706666666666667 0.5133333333333306  Z " stroke-width="0" stroke-dasharray="0" stroke="rgba(255, 255, 255, 0)" fill="none" transform="matrix(1 0 0 1 861 130 )" class="stroke" mask="url(#Clip1817)" />
    <path d="M 5.460000000000001 9.860000000000003  C 5.615555555555557 10.015555555555562  5.80888888888889 10.093333333333334  6.040000000000001 10.093333333333334  C 6.271111111111113 10.093333333333334  6.464444444444444 10.015555555555562  6.619999999999999 9.860000000000003  C 6.775555555555556 9.704444444444448  6.8533333333333335 9.51555555555556  6.8533333333333335 9.293333333333331  C 6.8533333333333335 9.062222222222221  6.775555555555556 8.868888888888895  6.619999999999999 8.713333333333338  C 6.464444444444444 8.557777777777783  6.271111111111113 8.479999999999999  6.040000000000001 8.479999999999999  C 5.80888888888889 8.479999999999999  5.615555555555556 8.557777777777783  5.460000000000001 8.713333333333338  C 5.304444444444446 8.868888888888895  5.2266666666666675 9.062222222222221  5.226666666666667 9.293333333333331  C 5.226666666666667 9.51555555555556  5.304444444444445 9.704444444444448  5.460000000000001 9.860000000000003  Z " stroke-width="0" stroke-dasharray="0" stroke="rgba(255, 255, 255, 0)" fill="none" transform="matrix(1 0 0 1 861 130 )" class="stroke" mask="url(#Clip1817)" />
    <path d="M 6.719999999999999 7.133333333333335  L 6.720000000000001 6.813333333333333  C 6.711111111111114 6.671111111111108  6.800000000000001 6.520000000000001  6.986666666666666 6.360000000000005  C 7.173333333333334 6.1999999999999975  7.382222222222223 6.022222222222221  7.613333333333335 5.8266666666666636  C 7.844444444444447 5.631111111111116  8.05777777777778 5.411111111111116  8.253333333333336 5.166666666666667  C 8.448888888888892 4.922222222222217  8.555555555555559 4.640000000000005  8.573333333333336 4.320000000000002  C 8.591111111111113 3.973333333333339  8.555555555555559 3.648888888888886  8.466666666666669 3.346666666666664  C 8.37777777777778 3.0444444444444416  8.231111111111113 2.7844444444444414  8.026666666666669 2.566666666666663  C 7.822222222222225 2.3488888888888937  7.55777777777778 2.175555555555557  7.233333333333336 2.0466666666666713  C 6.908888888888891 1.917777777777777  6.528888888888892 1.853333333333334  6.093333333333335 1.853333333333334  C 5.551111111111114 1.853333333333334  5.100000000000001 1.948888888888888  4.740000000000001 2.1400000000000055  C 4.380000000000001 2.331111111111113  4.0888888888888895 2.5622222222222226  3.8666666666666676 2.833333333333333  C 3.6444444444444466 3.104444444444444  3.4888888888888903 3.384444444444445  3.4000000000000012 3.6733333333333364  C 3.311111111111111 3.962222222222219  3.271111111111111 4.204444444444448  3.2800000000000002 4.399999999999997  C 3.2888888888888905 4.631111111111115  3.3622222222222224 4.800000000000002  3.500000000000001 4.906666666666666  C 3.6377777777777793 5.013333333333331  3.786666666666668 5.0688888888888926  3.946666666666668 5.073333333333333  C 4.106666666666667 5.077777777777783  4.253333333333335 5.033333333333331  4.386666666666668 4.939999999999998  C 4.520000000000001 4.846666666666664  4.586666666666668 4.711111111111109  4.586666666666668 4.533333333333331  C 4.586666666666668 4.426666666666668  4.620000000000001 4.295555555555552  4.686666666666668 4.140000000000005  C 4.753333333333335 3.984444444444449  4.844444444444446 3.835555555555554  4.960000000000002 3.693333333333338  C 5.075555555555558 3.551111111111112  5.215555555555557 3.431111111111117  5.380000000000002 3.3333333333333335  C 5.544444444444446 3.2355555555555595  5.72888888888889 3.1866666666666674  5.933333333333335 3.1866666666666674  C 6.333333333333336 3.1866666666666674  6.653333333333336 3.2866666666666715  6.893333333333334 3.4866666666666695  C 7.133333333333333 3.6866666666666674  7.244444444444445 3.937777777777778  7.226666666666668 4.239999999999999  C 7.226666666666668 4.391111111111115  7.182222222222224 4.531111111111111  7.093333333333334 4.660000000000006  C 7.004444444444446 4.788888888888891  6.891111111111112 4.913333333333337  6.753333333333336 5.033333333333331  C 6.615555555555557 5.153333333333336  6.468888888888891 5.273333333333331  6.313333333333334 5.393333333333336  C 6.157777777777779 5.51333333333334  6.011111111111112 5.637777777777785  5.873333333333333 5.76666666666667  C 5.735555555555557 5.895555555555556  5.620000000000001 6.035555555555561  5.526666666666667 6.186666666666667  C 5.433333333333334 6.337777777777783  5.3822222222222225 6.502222222222221  5.373333333333334 6.680000000000007  L 5.386666666666667 7.186666666666667  C 5.386666666666667 7.320000000000002  5.448888888888889 7.446666666666667  5.573333333333334 7.566666666666672  C 5.697777777777778 7.686666666666667  5.862222222222223 7.7511111111111095  6.066666666666666 7.760000000000001  C 6.271111111111111 7.7511111111111095  6.433333333333332 7.684444444444447  6.553333333333333 7.560000000000002  C 6.673333333333334 7.435555555555557  6.728888888888889 7.293333333333331  6.719999999999999 7.133333333333335  Z " stroke-width="0" stroke-dasharray="0" stroke="rgba(255, 255, 255, 0)" fill="none" transform="matrix(1 0 0 1 861 130 )" class="stroke" mask="url(#Clip1817)" />
  </g>
</svg>