<?xml version="1.0" encoding="utf-8"?>
<svg version="1.1" xmlns:xlink="http://www.w3.org/1999/xlink" width="351px" height="551px" xmlns="http://www.w3.org/2000/svg">
  <defs>
    <pattern id="BGPattern" patternUnits="userSpaceOnUse" alignment="0 0" imageRepeat="None" />
    <mask fill="white" id="Clip3901">
      <path d="M 0 551  L 0 0  L 351 0  L 351 551  L 0 551  Z " fill-rule="evenodd" />
    </mask>
    <mask fill="white" id="Clip3902">
      <path d="M 76 239  L 277 239  L 277 313  L 76 313  Z M 0 0  L 351 0  L 351 551  L 0 551  Z " fill-rule="evenodd" />
    </mask>
  </defs>
  <g transform="matrix(1 0 0 1 -880 0 )">
    <path d="M 0 551  L 0 0  L 351 0  L 351 551  L 0 551  Z " fill-rule="nonzero" fill="rgba(217, 0, 27, 0.09803921568627451)" stroke="none" transform="matrix(1 0 0 1 880 0 )" class="fill" />
    <path d="M 0 551  L 0 0  L 351 0  L 351 551  L 0 551  Z " stroke-width="10" stroke-dasharray="5,5" stroke="rgba(217, 0, 27, 1)" fill="none" transform="matrix(1 0 0 1 880 0 )" class="stroke" mask="url(#Clip3901)" />
    <path d="M 348.89147679666183 3.3099609260379856  L 2.1085232033381724 547.690039073962  M 2.1085232033381724 3.3099609260379856  L 348.89147679666183 547.690039073962  " stroke-width="5" stroke-dasharray="5,5" stroke="rgba(217, 0, 27, 1)" fill="none" transform="matrix(1 0 0 1 880 0 )" class="stroke" mask="url(#Clip3902)" />
  </g>
</svg>