<svg t="1682322339977" class="icon" viewBox="0 0 1024 1024" version="1.1" xmlns="http://www.w3.org/2000/svg" p-id="5518" width="200" height="200"><path d="M512 133.12c-213.504 0-386.56 173.056-386.56 386.56S298.496 906.24 512 906.24s386.56-173.056 386.56-386.56S725.504 133.12 512 133.12z m158.208 487.424c15.872 15.872 15.872 41.472 0 57.344-8.192 8.192-18.432 11.776-28.672 11.776-10.24 0-20.992-4.096-28.672-11.776L512 577.024l-100.864 100.864c-8.192 8.192-18.432 11.776-28.672 11.776-10.24 0-20.992-4.096-28.672-11.776-15.872-15.872-15.872-41.472 0-57.344l100.864-100.864-100.864-100.864c-15.872-15.872-15.872-41.472 0-57.344 15.872-15.872 41.472-15.872 57.344 0L512 462.336l100.864-100.864c15.872-15.872 41.472-15.872 57.344 0 15.872 15.872 15.872 41.472 0 57.344l-100.864 100.864 100.864 100.864z" fill="#FF5F57" p-id="5519"></path></svg>