<?xml version="1.0" encoding="utf-8"?>
<svg version="1.1" xmlns:xlink="http://www.w3.org/1999/xlink" width="12px" height="12px" xmlns="http://www.w3.org/2000/svg">
  <defs>
    <pattern id="BGPattern" patternUnits="userSpaceOnUse" alignment="0 0" imageRepeat="None" />
    <mask fill="white" id="Clip4550">
      <path d="M 11.21706 11.139  C 11.12334 11.2329  10.99758 11.284500000000001  10.863 11.2845  C 10.72842 11.2845  10.60266 11.2329  10.508939999999999 11.139059999999999  L 6.0600000000000005 6.69018  L 1.6111199999999999 11.13906  C 1.51734 11.232840000000001  1.3915799999999998 11.284500000000001  1.2570599999999998 11.284500000000001  C 1.12248 11.284500000000001  0.9967199999999999 11.2329  0.9029999999999998 11.13906  L 0.8789999999999998 11.11506  C 0.7852199999999998 11.02128  0.7336199999999997 10.89558  0.7336199999999997 10.761000000000001  C 0.7336199999999997 10.62648  0.7852199999999998 10.50066  0.8789999999999998 10.40694  L 5.32782 5.958  L 0.87888 1.50906  C 0.78198 1.4146800000000002  0.72894 1.2891599999999999  0.72894 1.155  C 0.72894 1.0208400000000002  0.78192 0.8952600000000001  0.8781599999999999 0.8016  L 0.90282 0.77694  C 0.9965999999999999 0.68316  1.12236 0.6315  1.2569400000000002 0.6315  C 1.39152 0.6315  1.5172200000000002 0.68316  1.6110000000000002 0.77694  L 6.0600000000000005 5.23188  L 10.50888 0.7768799999999996  C 10.60266 0.6830999999999996  10.72836 0.6314999999999995  10.86294 0.6314999999999995  C 10.99752 0.6314999999999995  11.12328 0.6831599999999995  11.216999999999999 0.7769399999999996  L 11.241060000000001 0.8009399999999997  C 11.33484 0.8947199999999997  11.38644 1.0204199999999997  11.38644 1.1549999999999998  C 11.38644 1.2895799999999997  11.33484 1.4152799999999996  11.241 1.5090599999999998  L 6.79218 5.958  L 11.241060000000001 10.406880000000001  C 11.33484 10.50066  11.3865 10.62642  11.3865 10.76094  C 11.3865 10.89552  11.334900000000001 11.02128  11.241060000000001 11.115  L 11.21706 11.139  Z " fill-rule="evenodd" />
    </mask>
  </defs>
  <g transform="matrix(1 0 0 1 -469 -59 )">
    <path d="M 11.21706 11.139  C 11.12334 11.2329  10.99758 11.284500000000001  10.863 11.2845  C 10.72842 11.2845  10.60266 11.2329  10.508939999999999 11.139059999999999  L 6.0600000000000005 6.69018  L 1.6111199999999999 11.13906  C 1.51734 11.232840000000001  1.3915799999999998 11.284500000000001  1.2570599999999998 11.284500000000001  C 1.12248 11.284500000000001  0.9967199999999999 11.2329  0.9029999999999998 11.13906  L 0.8789999999999998 11.11506  C 0.7852199999999998 11.02128  0.7336199999999997 10.89558  0.7336199999999997 10.761000000000001  C 0.7336199999999997 10.62648  0.7852199999999998 10.50066  0.8789999999999998 10.40694  L 5.32782 5.958  L 0.87888 1.50906  C 0.78198 1.4146800000000002  0.72894 1.2891599999999999  0.72894 1.155  C 0.72894 1.0208400000000002  0.78192 0.8952600000000001  0.8781599999999999 0.8016  L 0.90282 0.77694  C 0.9965999999999999 0.68316  1.12236 0.6315  1.2569400000000002 0.6315  C 1.39152 0.6315  1.5172200000000002 0.68316  1.6110000000000002 0.77694  L 6.0600000000000005 5.23188  L 10.50888 0.7768799999999996  C 10.60266 0.6830999999999996  10.72836 0.6314999999999995  10.86294 0.6314999999999995  C 10.99752 0.6314999999999995  11.12328 0.6831599999999995  11.216999999999999 0.7769399999999996  L 11.241060000000001 0.8009399999999997  C 11.33484 0.8947199999999997  11.38644 1.0204199999999997  11.38644 1.1549999999999998  C 11.38644 1.2895799999999997  11.33484 1.4152799999999996  11.241 1.5090599999999998  L 6.79218 5.958  L 11.241060000000001 10.406880000000001  C 11.33484 10.50066  11.3865 10.62642  11.3865 10.76094  C 11.3865 10.89552  11.334900000000001 11.02128  11.241060000000001 11.115  L 11.21706 11.139  Z " fill-rule="nonzero" fill="rgba(127, 127, 127, 1)" stroke="none" transform="matrix(1 0 0 1 469 59 )" class="fill" />
    <path d="M 11.21706 11.139  C 11.12334 11.2329  10.99758 11.284500000000001  10.863 11.2845  C 10.72842 11.2845  10.60266 11.2329  10.508939999999999 11.139059999999999  L 6.0600000000000005 6.69018  L 1.6111199999999999 11.13906  C 1.51734 11.232840000000001  1.3915799999999998 11.284500000000001  1.2570599999999998 11.284500000000001  C 1.12248 11.284500000000001  0.9967199999999999 11.2329  0.9029999999999998 11.13906  L 0.8789999999999998 11.11506  C 0.7852199999999998 11.02128  0.7336199999999997 10.89558  0.7336199999999997 10.761000000000001  C 0.7336199999999997 10.62648  0.7852199999999998 10.50066  0.8789999999999998 10.40694  L 5.32782 5.958  L 0.87888 1.50906  C 0.78198 1.4146800000000002  0.72894 1.2891599999999999  0.72894 1.155  C 0.72894 1.0208400000000002  0.78192 0.8952600000000001  0.8781599999999999 0.8016  L 0.90282 0.77694  C 0.9965999999999999 0.68316  1.12236 0.6315  1.2569400000000002 0.6315  C 1.39152 0.6315  1.5172200000000002 0.68316  1.6110000000000002 0.77694  L 6.0600000000000005 5.23188  L 10.50888 0.7768799999999996  C 10.60266 0.6830999999999996  10.72836 0.6314999999999995  10.86294 0.6314999999999995  C 10.99752 0.6314999999999995  11.12328 0.6831599999999995  11.216999999999999 0.7769399999999996  L 11.241060000000001 0.8009399999999997  C 11.33484 0.8947199999999997  11.38644 1.0204199999999997  11.38644 1.1549999999999998  C 11.38644 1.2895799999999997  11.33484 1.4152799999999996  11.241 1.5090599999999998  L 6.79218 5.958  L 11.241060000000001 10.406880000000001  C 11.33484 10.50066  11.3865 10.62642  11.3865 10.76094  C 11.3865 10.89552  11.334900000000001 11.02128  11.241060000000001 11.115  L 11.21706 11.139  Z " stroke-width="0" stroke-dasharray="0" stroke="rgba(255, 255, 255, 0)" fill="none" transform="matrix(1 0 0 1 469 59 )" class="stroke" mask="url(#Clip4550)" />
  </g>
</svg>