<?xml version="1.0" encoding="utf-8"?>
<svg version="1.1" xmlns:xlink="http://www.w3.org/1999/xlink" width="468px" height="261px" xmlns="http://www.w3.org/2000/svg">
  <defs>
    <pattern id="BGPattern" patternUnits="userSpaceOnUse" alignment="0 0" imageRepeat="None" />
    <mask fill="white" id="Clip4075">
      <path d="M 0 261  L 0 0  L 468 0  L 468 261  L 0 261  Z " fill-rule="evenodd" />
    </mask>
    <mask fill="white" id="Clip4076">
      <path d="M 134.5 95  L 335.5 95  L 335.5 169  L 134.5 169  Z M 0 0  L 468 0  L 468 261  L 0 261  Z " fill-rule="evenodd" />
    </mask>
  </defs>
  <g transform="matrix(1 0 0 1 -6 -1609 )">
    <path d="M 0 261  L 0 0  L 468 0  L 468 261  L 0 261  Z " fill-rule="nonzero" fill="rgba(217, 0, 27, 0.09803921568627451)" stroke="none" transform="matrix(1 0 0 1 6 1609 )" class="fill" />
    <path d="M 0 261  L 0 0  L 468 0  L 468 261  L 0 261  Z " stroke-width="10" stroke-dasharray="5,5" stroke="rgba(217, 0, 27, 1)" fill="none" transform="matrix(1 0 0 1 6 1609 )" class="stroke" mask="url(#Clip4075)" />
    <path d="M 464.0849205633561 2.1834096858206435  L 3.915079436643912 258.8165903141794  M 3.915079436643912 2.1834096858206435  L 464.0849205633561 258.8165903141794  " stroke-width="5" stroke-dasharray="5,5" stroke="rgba(217, 0, 27, 1)" fill="none" transform="matrix(1 0 0 1 6 1609 )" class="stroke" mask="url(#Clip4076)" />
  </g>
</svg>