<?xml version="1.0" encoding="utf-8"?>
<svg version="1.1" xmlns:xlink="http://www.w3.org/1999/xlink" width="18px" height="18px" xmlns="http://www.w3.org/2000/svg">
  <defs>
    <pattern id="BGPattern" patternUnits="userSpaceOnUse" alignment="0 0" imageRepeat="None" />
    <mask fill="white" id="Clip9306">
      <path d="M 10.875 16.49958333984375  C 10.875 16.8454166796875  10.59583333984375 17.125  10.25 17.125  L 2.75 17.125  C 1.7150000000000003 17.125  0.875 16.28333333984375  1 15.25  L 1 2.75  C 0.875 1.7150000000000003  1.7166666601562501 0.875  2.75 1  L 15.25 1  C 16.285 0.875  17.125 1.7166666601562501  17.125 2.75  L 17.125 10.251250000000002  C 17.125 10.597083339843753  16.84583333984375 10.876250000000002  16.5 10.876250000000002  C 16.15416666015625 10.876250000000002  15.875 10.597083339843753  15.875 10.251250000000002  L 15.875 2.75041666015625  C 15.875 2.4045833203124998  15.59375 2.12541666015625  15.25 2.12541666015625  L 2.75 2.12541666015625  C 2.4041666601562497 2.12541666015625  2.125 2.40625  2.125 2.75041666015625  L 2.125 15.249583339843749  C 2.125 15.5954166796875  2.40625 15.874583339843749  2.75 15.874583339843749  L 10.25 15.874583339843749  C 10.59583333984375 15.874583339843749  10.875 16.1541666796875  10.875 16.49958333984375  Z M 1.5 12.54125  C 1.154873906179323 12.54020448368746  0.8756471373016779 12.260130551010896  0.8756471373016779 11.915002873563433  C 0.8756471373016779 11.749273066548454  0.9413403453017044 11.590300680198617  1.0583333398437502 11.472916660156251  L 4.17166666015625 8.36083333984375  C 4.741395841717516 7.789790788897026  5.612988875037418 7.648219897357782  6.334166660156249 8.00958333984375  L 9.72458333984375 9.705  C 9.965 9.825833339843747  10.25375 9.77916666015625  10.443333339843749 9.58791666015625  L 16.05666666015625 3.97375  C 16.173009157678415 3.8630729663870023  16.32744259333536 3.8013502171301328  16.48801962313436 3.8013502171301328  C 16.833657832665732 3.8013502171301328  17.113852962978108 4.081545347442508  17.113852962978108 4.427183556973883  C 17.113852962978108 4.58786246472193  17.05205206226063 4.742385854345521  16.941249999999997 4.858749999999999  L 11.328333339843748 10.4725  C 10.758702511358855 11.043683536881748  9.887098130009512 11.185424208218937  9.165833339843749 10.824166660156251  L 5.775416660156248 9.128333339843751  C 5.535777012782418 9.00701006849291  5.245195995943725 9.054513747767409  5.056666660156248 9.245833339843749  L 1.941249999999998 12.357499999999998  C 1.8204166601562481 12.480833339843748  1.659999999999998 12.540833339843747  1.4999999999999982 12.540833339843747  Z M 9.625 5.24833333984375  C 9.625 6.2816666796875  8.78333333984375 7.123750000000001  7.75 7.123750000000001  C 6.716666660156251 7.123750000000001  5.875 6.28208333984375  5.875 5.248750000000001  C 5.875 4.215416660156251  6.716666660156251 3.373333339843751  7.75 3.373333339843751  C 8.78333333984375 3.373333339843751  9.625 4.215000000000001  9.625 5.24833333984375  Z M 8.375 5.248750000000001  C 8.375 4.904583339843751  8.09375 4.623750000000001  7.75 4.623750000000001  C 7.40625 4.623750000000001  7.125 4.904583339843751  7.125 5.248750000000001  C 7.125 5.592500000000001  7.40625 5.873750000000001  7.75 5.873750000000001  C 8.09375 5.873750000000001  8.375 5.592500000000001  8.375 5.248750000000001  Z M 14.625 16.49958333984375  C 14.625 16.8454166796875  14.34583333984375 17.125  14 17.125  C 13.65416666015625 17.125  13.375 16.84583333984375  13.375 16.5  L 13.375 12.749583339843749  C 13.375 12.403749999999999  13.65416666015625 12.124583339843749  14 12.124583339843749  C 14.34583333984375 12.124583339843749  14.625 12.403749999999999  14.625 12.749583339843749  L 14.625 16.49958333984375  Z M 16.5 14.625  C 16.34583333984375 14.625  16.19333333984375 14.56791666015625  16.07208333984375 14.45458333984375  L 14 12.50916666015625  L 11.927916660156251 14.456666660156252  C 11.812162746727774 14.565838537805622  11.659063382704833 14.62664631330717  11.499948746849117 14.62664631330717  C 11.32737768234487 14.62664631330717  11.162518293787382 14.555151258192845  11.04458333984375 14.429166660156248  C 10.935643548851726 14.313390812160394  10.874985219521735 14.160409862510303  10.874985219521735 14.001438402680103  C 10.874985219521735 13.828996707524958  10.946326126612476 13.664238395820455  11.07208333984375 13.54625  L 13.263750000000002 11.487916660156248  C 13.443861776548982 11.266181946675394  13.714331428127556 11.137452477093337  14 11.137500000000001  C 14.287500000000001 11.137500000000001  14.55666666015625 11.26666666015625  14.73625 11.4875  L 16.92791666015625 13.54583333984375  C 17.053552276736635 13.663811696261993  17.124814419291514 13.82848751054058  17.124814419291514 14.000833675965525  C 17.124814419291514 14.345551403722641  16.84536548689238 14.625000336121776  16.500647759135262 14.625000336121776  Z " fill-rule="evenodd" />
    </mask>
  </defs>
  <g transform="matrix(1 0 0 1 -436 -1930 )">
    <path d="M 10.875 16.49958333984375  C 10.875 16.8454166796875  10.59583333984375 17.125  10.25 17.125  L 2.75 17.125  C 1.7150000000000003 17.125  0.875 16.28333333984375  1 15.25  L 1 2.75  C 0.875 1.7150000000000003  1.7166666601562501 0.875  2.75 1  L 15.25 1  C 16.285 0.875  17.125 1.7166666601562501  17.125 2.75  L 17.125 10.251250000000002  C 17.125 10.597083339843753  16.84583333984375 10.876250000000002  16.5 10.876250000000002  C 16.15416666015625 10.876250000000002  15.875 10.597083339843753  15.875 10.251250000000002  L 15.875 2.75041666015625  C 15.875 2.4045833203124998  15.59375 2.12541666015625  15.25 2.12541666015625  L 2.75 2.12541666015625  C 2.4041666601562497 2.12541666015625  2.125 2.40625  2.125 2.75041666015625  L 2.125 15.249583339843749  C 2.125 15.5954166796875  2.40625 15.874583339843749  2.75 15.874583339843749  L 10.25 15.874583339843749  C 10.59583333984375 15.874583339843749  10.875 16.1541666796875  10.875 16.49958333984375  Z M 1.5 12.54125  C 1.154873906179323 12.54020448368746  0.8756471373016779 12.260130551010896  0.8756471373016779 11.915002873563433  C 0.8756471373016779 11.749273066548454  0.9413403453017044 11.590300680198617  1.0583333398437502 11.472916660156251  L 4.17166666015625 8.36083333984375  C 4.741395841717516 7.789790788897026  5.612988875037418 7.648219897357782  6.334166660156249 8.00958333984375  L 9.72458333984375 9.705  C 9.965 9.825833339843747  10.25375 9.77916666015625  10.443333339843749 9.58791666015625  L 16.05666666015625 3.97375  C 16.173009157678415 3.8630729663870023  16.32744259333536 3.8013502171301328  16.48801962313436 3.8013502171301328  C 16.833657832665732 3.8013502171301328  17.113852962978108 4.081545347442508  17.113852962978108 4.427183556973883  C 17.113852962978108 4.58786246472193  17.05205206226063 4.742385854345521  16.941249999999997 4.858749999999999  L 11.328333339843748 10.4725  C 10.758702511358855 11.043683536881748  9.887098130009512 11.185424208218937  9.165833339843749 10.824166660156251  L 5.775416660156248 9.128333339843751  C 5.535777012782418 9.00701006849291  5.245195995943725 9.054513747767409  5.056666660156248 9.245833339843749  L 1.941249999999998 12.357499999999998  C 1.8204166601562481 12.480833339843748  1.659999999999998 12.540833339843747  1.4999999999999982 12.540833339843747  Z M 9.625 5.24833333984375  C 9.625 6.2816666796875  8.78333333984375 7.123750000000001  7.75 7.123750000000001  C 6.716666660156251 7.123750000000001  5.875 6.28208333984375  5.875 5.248750000000001  C 5.875 4.215416660156251  6.716666660156251 3.373333339843751  7.75 3.373333339843751  C 8.78333333984375 3.373333339843751  9.625 4.215000000000001  9.625 5.24833333984375  Z M 8.375 5.248750000000001  C 8.375 4.904583339843751  8.09375 4.623750000000001  7.75 4.623750000000001  C 7.40625 4.623750000000001  7.125 4.904583339843751  7.125 5.248750000000001  C 7.125 5.592500000000001  7.40625 5.873750000000001  7.75 5.873750000000001  C 8.09375 5.873750000000001  8.375 5.592500000000001  8.375 5.248750000000001  Z M 14.625 16.49958333984375  C 14.625 16.8454166796875  14.34583333984375 17.125  14 17.125  C 13.65416666015625 17.125  13.375 16.84583333984375  13.375 16.5  L 13.375 12.749583339843749  C 13.375 12.403749999999999  13.65416666015625 12.124583339843749  14 12.124583339843749  C 14.34583333984375 12.124583339843749  14.625 12.403749999999999  14.625 12.749583339843749  L 14.625 16.49958333984375  Z M 16.5 14.625  C 16.34583333984375 14.625  16.19333333984375 14.56791666015625  16.07208333984375 14.45458333984375  L 14 12.50916666015625  L 11.927916660156251 14.456666660156252  C 11.812162746727774 14.565838537805622  11.659063382704833 14.62664631330717  11.499948746849117 14.62664631330717  C 11.32737768234487 14.62664631330717  11.162518293787382 14.555151258192845  11.04458333984375 14.429166660156248  C 10.935643548851726 14.313390812160394  10.874985219521735 14.160409862510303  10.874985219521735 14.001438402680103  C 10.874985219521735 13.828996707524958  10.946326126612476 13.664238395820455  11.07208333984375 13.54625  L 13.263750000000002 11.487916660156248  C 13.443861776548982 11.266181946675394  13.714331428127556 11.137452477093337  14 11.137500000000001  C 14.287500000000001 11.137500000000001  14.55666666015625 11.26666666015625  14.73625 11.4875  L 16.92791666015625 13.54583333984375  C 17.053552276736635 13.663811696261993  17.124814419291514 13.82848751054058  17.124814419291514 14.000833675965525  C 17.124814419291514 14.345551403722641  16.84536548689238 14.625000336121776  16.500647759135262 14.625000336121776  Z " fill-rule="nonzero" fill="rgba(230, 230, 230, 1)" stroke="none" transform="matrix(1 0 0 1 436 1930 )" class="fill" />
    <path d="M 10.875 16.49958333984375  C 10.875 16.8454166796875  10.59583333984375 17.125  10.25 17.125  L 2.75 17.125  C 1.7150000000000003 17.125  0.875 16.28333333984375  1 15.25  L 1 2.75  C 0.875 1.7150000000000003  1.7166666601562501 0.875  2.75 1  L 15.25 1  C 16.285 0.875  17.125 1.7166666601562501  17.125 2.75  L 17.125 10.251250000000002  C 17.125 10.597083339843753  16.84583333984375 10.876250000000002  16.5 10.876250000000002  C 16.15416666015625 10.876250000000002  15.875 10.597083339843753  15.875 10.251250000000002  L 15.875 2.75041666015625  C 15.875 2.4045833203124998  15.59375 2.12541666015625  15.25 2.12541666015625  L 2.75 2.12541666015625  C 2.4041666601562497 2.12541666015625  2.125 2.40625  2.125 2.75041666015625  L 2.125 15.249583339843749  C 2.125 15.5954166796875  2.40625 15.874583339843749  2.75 15.874583339843749  L 10.25 15.874583339843749  C 10.59583333984375 15.874583339843749  10.875 16.1541666796875  10.875 16.49958333984375  Z " stroke-width="0" stroke-dasharray="0" stroke="rgba(255, 255, 255, 0)" fill="none" transform="matrix(1 0 0 1 436 1930 )" class="stroke" mask="url(#Clip9306)" />
    <path d="M 1.5 12.54125  C 1.154873906179323 12.54020448368746  0.8756471373016779 12.260130551010896  0.8756471373016779 11.915002873563433  C 0.8756471373016779 11.749273066548454  0.9413403453017044 11.590300680198617  1.0583333398437502 11.472916660156251  L 4.17166666015625 8.36083333984375  C 4.741395841717516 7.789790788897026  5.612988875037418 7.648219897357782  6.334166660156249 8.00958333984375  L 9.72458333984375 9.705  C 9.965 9.825833339843747  10.25375 9.77916666015625  10.443333339843749 9.58791666015625  L 16.05666666015625 3.97375  C 16.173009157678415 3.8630729663870023  16.32744259333536 3.8013502171301328  16.48801962313436 3.8013502171301328  C 16.833657832665732 3.8013502171301328  17.113852962978108 4.081545347442508  17.113852962978108 4.427183556973883  C 17.113852962978108 4.58786246472193  17.05205206226063 4.742385854345521  16.941249999999997 4.858749999999999  L 11.328333339843748 10.4725  C 10.758702511358855 11.043683536881748  9.887098130009512 11.185424208218937  9.165833339843749 10.824166660156251  L 5.775416660156248 9.128333339843751  C 5.535777012782418 9.00701006849291  5.245195995943725 9.054513747767409  5.056666660156248 9.245833339843749  L 1.941249999999998 12.357499999999998  C 1.8204166601562481 12.480833339843748  1.659999999999998 12.540833339843747  1.4999999999999982 12.540833339843747  Z " stroke-width="0" stroke-dasharray="0" stroke="rgba(255, 255, 255, 0)" fill="none" transform="matrix(1 0 0 1 436 1930 )" class="stroke" mask="url(#Clip9306)" />
    <path d="M 9.625 5.24833333984375  C 9.625 6.2816666796875  8.78333333984375 7.123750000000001  7.75 7.123750000000001  C 6.716666660156251 7.123750000000001  5.875 6.28208333984375  5.875 5.248750000000001  C 5.875 4.215416660156251  6.716666660156251 3.373333339843751  7.75 3.373333339843751  C 8.78333333984375 3.373333339843751  9.625 4.215000000000001  9.625 5.24833333984375  Z " stroke-width="0" stroke-dasharray="0" stroke="rgba(255, 255, 255, 0)" fill="none" transform="matrix(1 0 0 1 436 1930 )" class="stroke" mask="url(#Clip9306)" />
    <path d="M 8.375 5.248750000000001  C 8.375 4.904583339843751  8.09375 4.623750000000001  7.75 4.623750000000001  C 7.40625 4.623750000000001  7.125 4.904583339843751  7.125 5.248750000000001  C 7.125 5.592500000000001  7.40625 5.873750000000001  7.75 5.873750000000001  C 8.09375 5.873750000000001  8.375 5.592500000000001  8.375 5.248750000000001  Z " stroke-width="0" stroke-dasharray="0" stroke="rgba(255, 255, 255, 0)" fill="none" transform="matrix(1 0 0 1 436 1930 )" class="stroke" mask="url(#Clip9306)" />
    <path d="M 14.625 16.49958333984375  C 14.625 16.8454166796875  14.34583333984375 17.125  14 17.125  C 13.65416666015625 17.125  13.375 16.84583333984375  13.375 16.5  L 13.375 12.749583339843749  C 13.375 12.403749999999999  13.65416666015625 12.124583339843749  14 12.124583339843749  C 14.34583333984375 12.124583339843749  14.625 12.403749999999999  14.625 12.749583339843749  L 14.625 16.49958333984375  Z " stroke-width="0" stroke-dasharray="0" stroke="rgba(255, 255, 255, 0)" fill="none" transform="matrix(1 0 0 1 436 1930 )" class="stroke" mask="url(#Clip9306)" />
    <path d="M 16.5 14.625  C 16.34583333984375 14.625  16.19333333984375 14.56791666015625  16.07208333984375 14.45458333984375  L 14 12.50916666015625  L 11.927916660156251 14.456666660156252  C 11.812162746727774 14.565838537805622  11.659063382704833 14.62664631330717  11.499948746849117 14.62664631330717  C 11.32737768234487 14.62664631330717  11.162518293787382 14.555151258192845  11.04458333984375 14.429166660156248  C 10.935643548851726 14.313390812160394  10.874985219521735 14.160409862510303  10.874985219521735 14.001438402680103  C 10.874985219521735 13.828996707524958  10.946326126612476 13.664238395820455  11.07208333984375 13.54625  L 13.263750000000002 11.487916660156248  C 13.443861776548982 11.266181946675394  13.714331428127556 11.137452477093337  14 11.137500000000001  C 14.287500000000001 11.137500000000001  14.55666666015625 11.26666666015625  14.73625 11.4875  L 16.92791666015625 13.54583333984375  C 17.053552276736635 13.663811696261993  17.124814419291514 13.82848751054058  17.124814419291514 14.000833675965525  C 17.124814419291514 14.345551403722641  16.84536548689238 14.625000336121776  16.500647759135262 14.625000336121776  Z " stroke-width="0" stroke-dasharray="0" stroke="rgba(255, 255, 255, 0)" fill="none" transform="matrix(1 0 0 1 436 1930 )" class="stroke" mask="url(#Clip9306)" />
  </g>
</svg>