<?xml version="1.0" encoding="utf-8"?>
<svg version="1.1" xmlns:xlink="http://www.w3.org/1999/xlink" width="30px" height="30px" xmlns="http://www.w3.org/2000/svg">
  <defs>
    <pattern id="BGPattern" patternUnits="userSpaceOnUse" alignment="0 0" imageRepeat="None" />
    <mask fill="white" id="Clip1267">
      <path d="M 0 15  C 0 23.284271247461902  6.715728752538098 30  15 30  C 23.284271247461902 30  30 23.284271247461902  30 15  C 30 6.715728752538098  23.284271247461902 0  15 0  C 6.715728752538098 0  0 6.715728752538098  0 15  Z " fill-rule="evenodd" />
    </mask>
  </defs>
  <g transform="matrix(1 0 0 1 -43 -509 )">
    <path d="M 0 15  C 0 23.284271247461902  6.715728752538098 30  15 30  C 23.284271247461902 30  30 23.284271247461902  30 15  C 30 6.715728752538098  23.284271247461902 0  15 0  C 6.715728752538098 0  0 6.715728752538098  0 15  Z " fill-rule="nonzero" fill="rgba(245, 177, 22, 1)" stroke="none" transform="matrix(1 0 0 1 43 509 )" class="fill" />
    <path d="M 0 15  C 0 23.284271247461902  6.715728752538098 30  15 30  C 23.284271247461902 30  30 23.284271247461902  30 15  C 30 6.715728752538098  23.284271247461902 0  15 0  C 6.715728752538098 0  0 6.715728752538098  0 15  Z " stroke-width="0" stroke-dasharray="0" stroke="rgba(255, 255, 255, 0)" fill="none" transform="matrix(1 0 0 1 43 509 )" class="stroke" mask="url(#Clip1267)" />
  </g>
</svg>