<?xml version="1.0" encoding="utf-8"?>
<svg version="1.1" xmlns:xlink="http://www.w3.org/1999/xlink" width="20px" height="20px" xmlns="http://www.w3.org/2000/svg">
  <defs>
    <pattern id="BGPattern" patternUnits="userSpaceOnUse" alignment="0 0" imageRepeat="None" />
    <mask fill="white" id="Clip6811">
      <path d="M 18.763661972656248 15.329295781249996  C 18.763661972656248 13.219436621093749  17.043943671875 11.503380292968757  14.9295774609375 11.5033802734375  C 13.11098591796875 11.5033802734375  11.599436621093751 12.771549296874994  11.2050704296875 14.46563380859375  C 10.284788730468751 14.072112675781256  9.430422539062501 14.181408457031253  8.7949295703125 14.454647890624997  C 8.389577460937499 12.760563378906255  6.878028164062499 11.5033802734375  5.0704225390625 11.5033802734375  C 2.9560563476562502 11.5033802734375  1.2363380273437503 13.219436621093749  1.2363380273437503 15.329295781249996  C 1.23633802734375 17.438873242187498  2.9560563476562502 19.154929570312504  5.0704225390625 19.154929570312504  C 7.086197187500001 19.154929570312504  8.71830986328125 17.60281689453126  8.871549296875001 15.635211269531254  C 9.20028169921875 15.405633808593748  10.065915488281252 14.979436621093754  11.128450703125 15.657183105468746  C 11.303661972656249 17.613802812499998  12.92478873046875 19.154929570312504  14.9295774609375 19.154929570312504  C 17.04394365234375 19.154929570312504  18.763661972656248 17.438873222656255  18.763661972656248 15.329295781249996  Z M 2.3318309765625003 15.329295781249996  C 2.3318309765625003 13.820845078125004  3.55859154296875 12.596338027343748  5.0704225390625 12.596338027343748  C 6.582253515625 12.596338027343748  7.809014082031251 13.820845078125004  7.809014082031251 15.329295781249996  C 7.809014082031251 16.837746484375003  6.582253515625 18.061690156249995  5.0704225390625 18.061690136718752  C 3.5585915625 18.061690136718752  2.3318309960937498 16.837746484375003  2.3318309765625003 15.329295781249996  Z M 12.19098591796875 15.329295781249996  C 12.19098591796875 13.820845078125004  13.417746484375 12.596338027343748  14.9295774609375 12.596338027343748  C 16.4414084375 12.596338027343748  17.66816900390625 13.820845078125004  17.6681690234375 15.329295781249996  C 17.6681690234375 16.837746484375003  16.441408457031248 18.061690156249995  14.9295774609375 18.061690136718752  C 13.417746484375 18.061690136718752  12.19098591796875 16.837746484375003  12.19098591796875 15.329295781249996  Z M 19.859154921875 10.422535214843748  L 19.859154921875 9.2957746484375  L 0.140845078125 9.2957746484375  L 0.140845078125 10.422535214843748  L 19.859154921875 10.422535214843748  Z M 13.64788732421875 1.5566197265625021  L 13.6264788671875 1.5042253515624964  C 13.401126757812499 0.991549296874993  12.819154921875 0.7211267578124989  12.278591542968748 0.9005633789062557  L 10 1.665915488281243  L 7.710422539062501 0.9005633789062557  L 7.65633802734375 0.884225351562506  C 7.113239433593749 0.7340845117187484  6.54253521484375 1.027887324218753  6.3411267578125 1.5566197265625021  L 3.8433802734375 8.169014082031254  L 16.1566197265625 8.169014082031254  L 13.64788732421875 1.5566197265625021  Z " fill-rule="evenodd" />
    </mask>
  </defs>
  <g transform="matrix(1 0 0 1 -292 -1058 )">
    <path d="M 18.763661972656248 15.329295781249996  C 18.763661972656248 13.219436621093749  17.043943671875 11.503380292968757  14.9295774609375 11.5033802734375  C 13.11098591796875 11.5033802734375  11.599436621093751 12.771549296874994  11.2050704296875 14.46563380859375  C 10.284788730468751 14.072112675781256  9.430422539062501 14.181408457031253  8.7949295703125 14.454647890624997  C 8.389577460937499 12.760563378906255  6.878028164062499 11.5033802734375  5.0704225390625 11.5033802734375  C 2.9560563476562502 11.5033802734375  1.2363380273437503 13.219436621093749  1.2363380273437503 15.329295781249996  C 1.23633802734375 17.438873242187498  2.9560563476562502 19.154929570312504  5.0704225390625 19.154929570312504  C 7.086197187500001 19.154929570312504  8.71830986328125 17.60281689453126  8.871549296875001 15.635211269531254  C 9.20028169921875 15.405633808593748  10.065915488281252 14.979436621093754  11.128450703125 15.657183105468746  C 11.303661972656249 17.613802812499998  12.92478873046875 19.154929570312504  14.9295774609375 19.154929570312504  C 17.04394365234375 19.154929570312504  18.763661972656248 17.438873222656255  18.763661972656248 15.329295781249996  Z M 2.3318309765625003 15.329295781249996  C 2.3318309765625003 13.820845078125004  3.55859154296875 12.596338027343748  5.0704225390625 12.596338027343748  C 6.582253515625 12.596338027343748  7.809014082031251 13.820845078125004  7.809014082031251 15.329295781249996  C 7.809014082031251 16.837746484375003  6.582253515625 18.061690156249995  5.0704225390625 18.061690136718752  C 3.5585915625 18.061690136718752  2.3318309960937498 16.837746484375003  2.3318309765625003 15.329295781249996  Z M 12.19098591796875 15.329295781249996  C 12.19098591796875 13.820845078125004  13.417746484375 12.596338027343748  14.9295774609375 12.596338027343748  C 16.4414084375 12.596338027343748  17.66816900390625 13.820845078125004  17.6681690234375 15.329295781249996  C 17.6681690234375 16.837746484375003  16.441408457031248 18.061690156249995  14.9295774609375 18.061690136718752  C 13.417746484375 18.061690136718752  12.19098591796875 16.837746484375003  12.19098591796875 15.329295781249996  Z M 19.859154921875 10.422535214843748  L 19.859154921875 9.2957746484375  L 0.140845078125 9.2957746484375  L 0.140845078125 10.422535214843748  L 19.859154921875 10.422535214843748  Z M 13.64788732421875 1.5566197265625021  L 13.6264788671875 1.5042253515624964  C 13.401126757812499 0.991549296874993  12.819154921875 0.7211267578124989  12.278591542968748 0.9005633789062557  L 10 1.665915488281243  L 7.710422539062501 0.9005633789062557  L 7.65633802734375 0.884225351562506  C 7.113239433593749 0.7340845117187484  6.54253521484375 1.027887324218753  6.3411267578125 1.5566197265625021  L 3.8433802734375 8.169014082031254  L 16.1566197265625 8.169014082031254  L 13.64788732421875 1.5566197265625021  Z " fill-rule="nonzero" fill="rgba(255, 255, 255, 1)" stroke="none" transform="matrix(1 0 0 1 292 1058 )" class="fill" />
    <path d="M 18.763661972656248 15.329295781249996  C 18.763661972656248 13.219436621093749  17.043943671875 11.503380292968757  14.9295774609375 11.5033802734375  C 13.11098591796875 11.5033802734375  11.599436621093751 12.771549296874994  11.2050704296875 14.46563380859375  C 10.284788730468751 14.072112675781256  9.430422539062501 14.181408457031253  8.7949295703125 14.454647890624997  C 8.389577460937499 12.760563378906255  6.878028164062499 11.5033802734375  5.0704225390625 11.5033802734375  C 2.9560563476562502 11.5033802734375  1.2363380273437503 13.219436621093749  1.2363380273437503 15.329295781249996  C 1.23633802734375 17.438873242187498  2.9560563476562502 19.154929570312504  5.0704225390625 19.154929570312504  C 7.086197187500001 19.154929570312504  8.71830986328125 17.60281689453126  8.871549296875001 15.635211269531254  C 9.20028169921875 15.405633808593748  10.065915488281252 14.979436621093754  11.128450703125 15.657183105468746  C 11.303661972656249 17.613802812499998  12.92478873046875 19.154929570312504  14.9295774609375 19.154929570312504  C 17.04394365234375 19.154929570312504  18.763661972656248 17.438873222656255  18.763661972656248 15.329295781249996  Z " stroke-width="0" stroke-dasharray="0" stroke="rgba(255, 255, 255, 0)" fill="none" transform="matrix(1 0 0 1 292 1058 )" class="stroke" mask="url(#Clip6811)" />
    <path d="M 2.3318309765625003 15.329295781249996  C 2.3318309765625003 13.820845078125004  3.55859154296875 12.596338027343748  5.0704225390625 12.596338027343748  C 6.582253515625 12.596338027343748  7.809014082031251 13.820845078125004  7.809014082031251 15.329295781249996  C 7.809014082031251 16.837746484375003  6.582253515625 18.061690156249995  5.0704225390625 18.061690136718752  C 3.5585915625 18.061690136718752  2.3318309960937498 16.837746484375003  2.3318309765625003 15.329295781249996  Z " stroke-width="0" stroke-dasharray="0" stroke="rgba(255, 255, 255, 0)" fill="none" transform="matrix(1 0 0 1 292 1058 )" class="stroke" mask="url(#Clip6811)" />
    <path d="M 12.19098591796875 15.329295781249996  C 12.19098591796875 13.820845078125004  13.417746484375 12.596338027343748  14.9295774609375 12.596338027343748  C 16.4414084375 12.596338027343748  17.66816900390625 13.820845078125004  17.6681690234375 15.329295781249996  C 17.6681690234375 16.837746484375003  16.441408457031248 18.061690156249995  14.9295774609375 18.061690136718752  C 13.417746484375 18.061690136718752  12.19098591796875 16.837746484375003  12.19098591796875 15.329295781249996  Z " stroke-width="0" stroke-dasharray="0" stroke="rgba(255, 255, 255, 0)" fill="none" transform="matrix(1 0 0 1 292 1058 )" class="stroke" mask="url(#Clip6811)" />
    <path d="M 19.859154921875 10.422535214843748  L 19.859154921875 9.2957746484375  L 0.140845078125 9.2957746484375  L 0.140845078125 10.422535214843748  L 19.859154921875 10.422535214843748  Z " stroke-width="0" stroke-dasharray="0" stroke="rgba(255, 255, 255, 0)" fill="none" transform="matrix(1 0 0 1 292 1058 )" class="stroke" mask="url(#Clip6811)" />
    <path d="M 13.64788732421875 1.5566197265625021  L 13.6264788671875 1.5042253515624964  C 13.401126757812499 0.991549296874993  12.819154921875 0.7211267578124989  12.278591542968748 0.9005633789062557  L 10 1.665915488281243  L 7.710422539062501 0.9005633789062557  L 7.65633802734375 0.884225351562506  C 7.113239433593749 0.7340845117187484  6.54253521484375 1.027887324218753  6.3411267578125 1.5566197265625021  L 3.8433802734375 8.169014082031254  L 16.1566197265625 8.169014082031254  L 13.64788732421875 1.5566197265625021  Z " stroke-width="0" stroke-dasharray="0" stroke="rgba(255, 255, 255, 0)" fill="none" transform="matrix(1 0 0 1 292 1058 )" class="stroke" mask="url(#Clip6811)" />
  </g>
</svg>