<?xml version="1.0" encoding="utf-8"?>
<svg version="1.1" xmlns:xlink="http://www.w3.org/1999/xlink" width="10px" height="6px" xmlns="http://www.w3.org/2000/svg">
  <defs>
    <pattern id="BGPattern" patternUnits="userSpaceOnUse" alignment="0 0" imageRepeat="None" />
    <mask fill="white" id="Clip2301">
      <path d="M 9.448140005698006 0.5010565754985752  L 9.5181570997151 0.5577370769230767  C 9.691351257411963 0.7264308885953077  9.719071967315678 0.9948655991782656  9.584006512820514 1.1953927578347576  L 9.527326005698006 1.2654098518518517  L 5.596366301994301 5.297227515669515  C 5.425430473422537 5.472472183880212  5.152762832250111 5.498222167792834  4.95204233048433 5.358075703703703  L 4.8820252364672365 5.298894586894587  L 0.9135563703703702 1.2662433846153842  C 0.8218136632570596 1.1727402427893594  0.7704185996529188 1.046974702455592  0.7704185996529188 0.9159801917316064  C 0.7704185996529188 0.6397703814321405  0.9943308919175555 0.4158580891675041  1.2705407022170214 0.4158580891675041  C 1.3730289288654243 0.4158580891675041  1.47304287857279 0.4473451283338168  1.5570468034188034 0.5060577948717948  L 1.6262303646723648 0.564405373219373  L 5.236278387464388 4.231967441595442  L 8.81048433048433 0.5669059829059826  C 8.979178142796576 0.3937118301213163  9.247612849560582 0.36599112276296264  9.448140005698006 0.5010565754985752  Z " fill-rule="evenodd" />
    </mask>
  </defs>
  <g transform="matrix(1 0 0 1 -1732 -401 )">
    <path d="M 9.448140005698006 0.5010565754985752  L 9.5181570997151 0.5577370769230767  C 9.691351257411963 0.7264308885953077  9.719071967315678 0.9948655991782656  9.584006512820514 1.1953927578347576  L 9.527326005698006 1.2654098518518517  L 5.596366301994301 5.297227515669515  C 5.425430473422537 5.472472183880212  5.152762832250111 5.498222167792834  4.95204233048433 5.358075703703703  L 4.8820252364672365 5.298894586894587  L 0.9135563703703702 1.2662433846153842  C 0.8218136632570596 1.1727402427893594  0.7704185996529188 1.046974702455592  0.7704185996529188 0.9159801917316064  C 0.7704185996529188 0.6397703814321405  0.9943308919175555 0.4158580891675041  1.2705407022170214 0.4158580891675041  C 1.3730289288654243 0.4158580891675041  1.47304287857279 0.4473451283338168  1.5570468034188034 0.5060577948717948  L 1.6262303646723648 0.564405373219373  L 5.236278387464388 4.231967441595442  L 8.81048433048433 0.5669059829059826  C 8.979178142796576 0.3937118301213163  9.247612849560582 0.36599112276296264  9.448140005698006 0.5010565754985752  Z " fill-rule="nonzero" fill="rgba(255, 255, 255, 1)" stroke="none" transform="matrix(1 0 0 1 1732 401 )" class="fill" />
    <path d="M 9.448140005698006 0.5010565754985752  L 9.5181570997151 0.5577370769230767  C 9.691351257411963 0.7264308885953077  9.719071967315678 0.9948655991782656  9.584006512820514 1.1953927578347576  L 9.527326005698006 1.2654098518518517  L 5.596366301994301 5.297227515669515  C 5.425430473422537 5.472472183880212  5.152762832250111 5.498222167792834  4.95204233048433 5.358075703703703  L 4.8820252364672365 5.298894586894587  L 0.9135563703703702 1.2662433846153842  C 0.8218136632570596 1.1727402427893594  0.7704185996529188 1.046974702455592  0.7704185996529188 0.9159801917316064  C 0.7704185996529188 0.6397703814321405  0.9943308919175555 0.4158580891675041  1.2705407022170214 0.4158580891675041  C 1.3730289288654243 0.4158580891675041  1.47304287857279 0.4473451283338168  1.5570468034188034 0.5060577948717948  L 1.6262303646723648 0.564405373219373  L 5.236278387464388 4.231967441595442  L 8.81048433048433 0.5669059829059826  C 8.979178142796576 0.3937118301213163  9.247612849560582 0.36599112276296264  9.448140005698006 0.5010565754985752  Z " stroke-width="0" stroke-dasharray="0" stroke="rgba(255, 255, 255, 0)" fill="none" transform="matrix(1 0 0 1 1732 401 )" class="stroke" mask="url(#Clip2301)" />
  </g>
</svg>