<svg t="1752818275907" class="icon" viewBox="0 0 1024 1024" version="1.1" xmlns="http://www.w3.org/2000/svg" p-id="2972" width="200" height="200"><path d="M525.648195 8.266003a28.304224 28.304224 0 0 0-3.876289-2.852363 37.812102 37.812102 0 0 0-43.151142 2.998639l-68.749277 62.386311-181.600483 73.576354a27.060886 27.060886 0 0 0-18.796345 23.769697c0 14.627506 16.017119 26.987748 35.764251 26.987748h513.498588a38.836028 38.836028 0 0 0 31.522275-14.115543 24.062247 24.062247 0 0 0-14.627506-36.568764L596.664735 71.895653 525.50192 8.339141z m-218.681211 235.722255a48.782732 48.782732 0 0 0-48.782731 48.782732v97.492325a48.782732 48.782732 0 0 0 48.782731 48.782732H697.009424a48.782732 48.782732 0 0 0 48.782732-48.782732V292.624714a48.782732 48.782732 0 0 0-48.782732-48.782731zM697.009424 1024.073138h209.53902a97.492326 97.492326 0 0 0 93.250348-126.015962l-59.607085-195.057789a97.492326 97.492326 0 0 0-93.250349-69.041827H157.035051a97.492326 97.492326 0 0 0-93.250349 69.041827l-59.607086 195.057789a97.492326 97.492326 0 0 0 93.250349 126.015962h209.539019q0-243.767383 195.057789-243.767383T697.009424 1024z m-511.9627-536.317497a24.354797 24.354797 0 0 0-24.354797 24.354797v48.782731a24.354797 24.354797 0 0 0 48.782732 0V512.0373a24.354797 24.354797 0 0 0-24.354797-24.354797z m105.683729 0a24.354797 24.354797 0 0 0-24.354797 24.354797v48.782731a24.354797 24.354797 0 0 0 48.782732 0V512.0373a24.354797 24.354797 0 0 0-24.427935-24.354797z m105.610591 0a24.354797 24.354797 0 0 0-24.354797 24.354797v48.782731a24.354797 24.354797 0 0 0 48.782732 0V512.0373a24.354797 24.354797 0 0 0-24.427935-24.354797z m105.683729 0a24.354797 24.354797 0 0 0-24.354797 24.354797v48.782731a24.354797 24.354797 0 1 0 48.782732 0V512.0373a24.354797 24.354797 0 0 0-24.427935-24.354797z m105.683729 0a24.354797 24.354797 0 0 0-24.354797 24.354797v48.782731a24.354797 24.354797 0 1 0 48.782731 0V512.0373a24.354797 24.354797 0 0 0-24.427934-24.354797z m105.610591 0a24.354797 24.354797 0 0 0-24.354797 24.354797v48.782731a24.354797 24.354797 0 1 0 48.782732 0V512.0373a24.354797 24.354797 0 0 0-24.501072-24.354797z m105.683729 0a24.354797 24.354797 0 0 0-24.354797 24.354797v48.782731a24.354797 24.354797 0 0 0 48.782731 0V512.0373a24.354797 24.354797 0 0 0-24.501072-24.354797z" fill="#ffffff" p-id="2973"></path></svg>