<?xml version="1.0" encoding="utf-8"?>
<svg version="1.1" xmlns:xlink="http://www.w3.org/1999/xlink" width="16px" height="16px" xmlns="http://www.w3.org/2000/svg">
  <defs>
    <pattern id="BGPattern" patternUnits="userSpaceOnUse" alignment="0 0" imageRepeat="None" />
    <mask fill="white" id="Clip11119">
      <path d="M 15.34375 8  C 15.34375 12.046875  12.046875 15.34375  8 15.34375  C 7.734375 15.34375  7.53125 15.140625  7.53125 14.875  C 7.53125 14.609375  7.734375 14.40625  8 14.40625  C 11.53125 14.40625  14.40625 11.53125  14.40625 8  C 14.40625 6.375  13.796875 4.828125  12.6875 3.625  C 12.515625 3.4375  12.53125 3.140625  12.71875 2.96875  C 12.90625 2.796875  13.203125 2.8125  13.375 3  C 14.640625 4.375  15.34375 6.15625  15.34375 8  Z M 3.343749999999999 13.0625  C 3.249999999999999 13.15625  3.125 13.203125000000002  3.015625 13.203125  C 2.890625 13.203125  2.765625 13.15625  2.671875 13.062499999999998  C 1.375 11.6875  0.65625 9.890625  0.65625 8  C 0.65625 3.953125  3.953125 0.65625  8 0.65625  C 8.265625 0.65625  8.46875 0.859375  8.46875 1.125  C 8.46875 1.390625  8.265625 1.59375  8 1.59375  C 4.46875 1.59375  1.59375 4.46875  1.59375 8  C 1.59375 9.640625  2.21875 11.21875  3.359375 12.40625  C 3.53125 12.59375  3.53125 12.890625  3.343749999999999 13.0625  Z " fill-rule="evenodd" />
    </mask>
  </defs>
  <g transform="matrix(1 0 0 1 -315 -221 )">
    <path d="M 15.34375 8  C 15.34375 12.046875  12.046875 15.34375  8 15.34375  C 7.734375 15.34375  7.53125 15.140625  7.53125 14.875  C 7.53125 14.609375  7.734375 14.40625  8 14.40625  C 11.53125 14.40625  14.40625 11.53125  14.40625 8  C 14.40625 6.375  13.796875 4.828125  12.6875 3.625  C 12.515625 3.4375  12.53125 3.140625  12.71875 2.96875  C 12.90625 2.796875  13.203125 2.8125  13.375 3  C 14.640625 4.375  15.34375 6.15625  15.34375 8  Z M 3.343749999999999 13.0625  C 3.249999999999999 13.15625  3.125 13.203125000000002  3.015625 13.203125  C 2.890625 13.203125  2.765625 13.15625  2.671875 13.062499999999998  C 1.375 11.6875  0.65625 9.890625  0.65625 8  C 0.65625 3.953125  3.953125 0.65625  8 0.65625  C 8.265625 0.65625  8.46875 0.859375  8.46875 1.125  C 8.46875 1.390625  8.265625 1.59375  8 1.59375  C 4.46875 1.59375  1.59375 4.46875  1.59375 8  C 1.59375 9.640625  2.21875 11.21875  3.359375 12.40625  C 3.53125 12.59375  3.53125 12.890625  3.343749999999999 13.0625  Z " fill-rule="nonzero" fill="rgba(255, 255, 255, 1)" stroke="none" transform="matrix(1 0 0 1 315 221 )" class="fill" />
    <path d="M 15.34375 8  C 15.34375 12.046875  12.046875 15.34375  8 15.34375  C 7.734375 15.34375  7.53125 15.140625  7.53125 14.875  C 7.53125 14.609375  7.734375 14.40625  8 14.40625  C 11.53125 14.40625  14.40625 11.53125  14.40625 8  C 14.40625 6.375  13.796875 4.828125  12.6875 3.625  C 12.515625 3.4375  12.53125 3.140625  12.71875 2.96875  C 12.90625 2.796875  13.203125 2.8125  13.375 3  C 14.640625 4.375  15.34375 6.15625  15.34375 8  Z " stroke-width="0" stroke-dasharray="0" stroke="rgba(255, 255, 255, 0)" fill="none" transform="matrix(1 0 0 1 315 221 )" class="stroke" mask="url(#Clip11119)" />
    <path d="M 3.343749999999999 13.0625  C 3.249999999999999 13.15625  3.125 13.203125000000002  3.015625 13.203125  C 2.890625 13.203125  2.765625 13.15625  2.671875 13.062499999999998  C 1.375 11.6875  0.65625 9.890625  0.65625 8  C 0.65625 3.953125  3.953125 0.65625  8 0.65625  C 8.265625 0.65625  8.46875 0.859375  8.46875 1.125  C 8.46875 1.390625  8.265625 1.59375  8 1.59375  C 4.46875 1.59375  1.59375 4.46875  1.59375 8  C 1.59375 9.640625  2.21875 11.21875  3.359375 12.40625  C 3.53125 12.59375  3.53125 12.890625  3.343749999999999 13.0625  Z " stroke-width="0" stroke-dasharray="0" stroke="rgba(255, 255, 255, 0)" fill="none" transform="matrix(1 0 0 1 315 221 )" class="stroke" mask="url(#Clip11119)" />
  </g>
</svg>