<?xml version="1.0" encoding="utf-8"?>
<svg version="1.1" xmlns:xlink="http://www.w3.org/1999/xlink" width="330px" height="753px" xmlns="http://www.w3.org/2000/svg">
  <defs>
    <linearGradient gradientUnits="userSpaceOnUse" x1="165" y1="0" x2="165" y2="753" id="LinearGradient5827">
      <stop id="Stop5828" stop-color="#333333" offset="0" />
      <stop id="Stop5829" stop-color="#333333" stop-opacity="0" offset="1" />
    </linearGradient>
    <pattern id="BGPattern" patternUnits="userSpaceOnUse" alignment="0 0" imageRepeat="None" />
    <mask fill="white" id="Clip5830">
      <path d="M 0 753  L 0 10  C 0 4.3999999999999995  4.3999999999999995 0  10 0  L 320 0  C 325.6 0  330 4.3999999999999995  330 10  L 330 753  L 0 753  Z " fill-rule="evenodd" />
    </mask>
  </defs>
  <g transform="matrix(1 0 0 1 -15 -160 )">
    <path d="M 0 753  L 0 10  C 0 4.3999999999999995  4.3999999999999995 0  10 0  L 320 0  C 325.6 0  330 4.3999999999999995  330 10  L 330 753  L 0 753  Z " fill-rule="nonzero" fill="url(#LinearGradient5827)" stroke="none" transform="matrix(1 0 0 1 15 160 )" class="fill" />
    <path d="M 0 753  L 0 10  C 0 4.3999999999999995  4.3999999999999995 0  10 0  L 320 0  C 325.6 0  330 4.3999999999999995  330 10  L 330 753  L 0 753  Z " stroke-width="0" stroke-dasharray="0" stroke="rgba(121, 121, 121, 1)" fill="none" transform="matrix(1 0 0 1 15 160 )" class="stroke" mask="url(#Clip5830)" />
  </g>
</svg>