<?xml version="1.0" encoding="utf-8"?>
<svg version="1.1" xmlns:xlink="http://www.w3.org/1999/xlink" width="6px" height="9px" xmlns="http://www.w3.org/2000/svg">
  <defs>
    <pattern id="BGPattern" patternUnits="userSpaceOnUse" alignment="0 0" imageRepeat="None" />
    <mask fill="white" id="Clip8122">
      <path d="M 4.954166662109376 0.7916666621093782  C 4.487500000000001 0.3716666621093765  3.8808333242187505 0.1733333242187456  3.1225000000000005 0.17333333789062522  C 2.2708333378906254 0.17333333789062522  1.5941666621093757 0.41833333789062976  1.1041666621093755 0.9200000000000017  C 0.6025000000000009 1.4099999999999966  0.35749999999999993 2.075000000000003  0.35749999999999993 2.926666662109369  L 1.5941666621093749 2.926666662109369  C 1.5941666621093749 2.4133333242187547  1.6991666621093753 2.0049999999999955  1.9091666621093752 1.7249999999999943  C 2.1425 1.3983333378906195  2.5275000000000007 1.2349999999999994  3.0525 1.2349999999999994  C 3.472500000000001 1.2349999999999994  3.799166662109376 1.3516666621093805  4.032499999999999 1.5849999999999937  C 4.254166662109375 1.8183333378906212  4.370833337890625 2.133333337890619  4.370833337890625 2.541666662109378  C 4.370833337890625 2.844999999999999  4.265833337890626 3.125  4.0558333378906255 3.393333337890624  L 3.8575 3.614999999999995  C 3.134166662109376 4.256666662109382  2.6908333378906253 4.734999999999999  2.5275000000000007 5.061666662109374  C 2.375833337890626 5.364999999999995  2.3058333378906264 5.7383333242187575  2.3058333378906264 6.170000000000002  L 2.3058333378906264 6.368333337890618  L 3.5541666621093757 6.368333337890618  L 3.5541666621093757 6.170000000000002  C 3.5541666621093757 5.8783333378906235  3.6125000000000007 5.6216666621093765  3.740833337890626 5.388333337890629  C 3.8458333378906246 5.178333337890621  4.00916667578125 4.980000000000004  4.219166662109377 4.79333333789063  C 4.779166662109377 4.314999999999998  5.105833324218752 4.011666675781257  5.210833337890625 3.883333337890633  C 5.490833337890626 3.510000000000005  5.642500000000002 3.0316666757812527  5.642500000000002 2.460000000000008  C 5.642500000000002 1.7600000000000051  5.409166662109376 1.2000000000000028  4.954166662109376 0.7916666621093782  Z M 3.5425000000000004 7.231666662109376  C 3.379166662109375 7.068333324218742  3.169166662109377 6.998333324218748  2.924166662109376 6.998333337890628  C 2.6791666621093757 6.998333337890628  2.48083332421875 7.068333337890621  2.329166662109376 7.231666662109376  C 2.1541666621093754 7.3833333242187535  2.0725000000000016 7.58166666210937  2.0725000000000016 7.826666662109375  C 2.0725000000000016 8.060000000000002  2.1541666621093762 8.258333324218754  2.329166662109376 8.421666662109374  C 2.48083332421875 8.585000000000008  2.6791666621093757 8.666666662109378  2.924166662109376 8.666666662109378  C 3.1575000000000015 8.666666662109378  3.3674999999999997 8.584999999999994  3.5425000000000004 8.433333337890616  C 3.7058333378906267 8.269999999999996  3.7875000000000005 8.071666675781245  3.7875000000000005 7.826666662109375  C 3.7875000000000005 7.58166666210937  3.705833337890625 7.3833333242187535  3.5425000000000004 7.231666662109376  Z " fill-rule="evenodd" />
    </mask>
  </defs>
  <g transform="matrix(1 0 0 1 -1329 -973 )">
    <path d="M 4.954166662109376 0.7916666621093782  C 4.487500000000001 0.3716666621093765  3.8808333242187505 0.1733333242187456  3.1225000000000005 0.17333333789062522  C 2.2708333378906254 0.17333333789062522  1.5941666621093757 0.41833333789062976  1.1041666621093755 0.9200000000000017  C 0.6025000000000009 1.4099999999999966  0.35749999999999993 2.075000000000003  0.35749999999999993 2.926666662109369  L 1.5941666621093749 2.926666662109369  C 1.5941666621093749 2.4133333242187547  1.6991666621093753 2.0049999999999955  1.9091666621093752 1.7249999999999943  C 2.1425 1.3983333378906195  2.5275000000000007 1.2349999999999994  3.0525 1.2349999999999994  C 3.472500000000001 1.2349999999999994  3.799166662109376 1.3516666621093805  4.032499999999999 1.5849999999999937  C 4.254166662109375 1.8183333378906212  4.370833337890625 2.133333337890619  4.370833337890625 2.541666662109378  C 4.370833337890625 2.844999999999999  4.265833337890626 3.125  4.0558333378906255 3.393333337890624  L 3.8575 3.614999999999995  C 3.134166662109376 4.256666662109382  2.6908333378906253 4.734999999999999  2.5275000000000007 5.061666662109374  C 2.375833337890626 5.364999999999995  2.3058333378906264 5.7383333242187575  2.3058333378906264 6.170000000000002  L 2.3058333378906264 6.368333337890618  L 3.5541666621093757 6.368333337890618  L 3.5541666621093757 6.170000000000002  C 3.5541666621093757 5.8783333378906235  3.6125000000000007 5.6216666621093765  3.740833337890626 5.388333337890629  C 3.8458333378906246 5.178333337890621  4.00916667578125 4.980000000000004  4.219166662109377 4.79333333789063  C 4.779166662109377 4.314999999999998  5.105833324218752 4.011666675781257  5.210833337890625 3.883333337890633  C 5.490833337890626 3.510000000000005  5.642500000000002 3.0316666757812527  5.642500000000002 2.460000000000008  C 5.642500000000002 1.7600000000000051  5.409166662109376 1.2000000000000028  4.954166662109376 0.7916666621093782  Z M 3.5425000000000004 7.231666662109376  C 3.379166662109375 7.068333324218742  3.169166662109377 6.998333324218748  2.924166662109376 6.998333337890628  C 2.6791666621093757 6.998333337890628  2.48083332421875 7.068333337890621  2.329166662109376 7.231666662109376  C 2.1541666621093754 7.3833333242187535  2.0725000000000016 7.58166666210937  2.0725000000000016 7.826666662109375  C 2.0725000000000016 8.060000000000002  2.1541666621093762 8.258333324218754  2.329166662109376 8.421666662109374  C 2.48083332421875 8.585000000000008  2.6791666621093757 8.666666662109378  2.924166662109376 8.666666662109378  C 3.1575000000000015 8.666666662109378  3.3674999999999997 8.584999999999994  3.5425000000000004 8.433333337890616  C 3.7058333378906267 8.269999999999996  3.7875000000000005 8.071666675781245  3.7875000000000005 7.826666662109375  C 3.7875000000000005 7.58166666210937  3.705833337890625 7.3833333242187535  3.5425000000000004 7.231666662109376  Z " fill-rule="nonzero" fill="rgba(61, 61, 61, 1)" stroke="none" transform="matrix(1 0 0 1 1329 973 )" class="fill" />
    <path d="M 4.954166662109376 0.7916666621093782  C 4.487500000000001 0.3716666621093765  3.8808333242187505 0.1733333242187456  3.1225000000000005 0.17333333789062522  C 2.2708333378906254 0.17333333789062522  1.5941666621093757 0.41833333789062976  1.1041666621093755 0.9200000000000017  C 0.6025000000000009 1.4099999999999966  0.35749999999999993 2.075000000000003  0.35749999999999993 2.926666662109369  L 1.5941666621093749 2.926666662109369  C 1.5941666621093749 2.4133333242187547  1.6991666621093753 2.0049999999999955  1.9091666621093752 1.7249999999999943  C 2.1425 1.3983333378906195  2.5275000000000007 1.2349999999999994  3.0525 1.2349999999999994  C 3.472500000000001 1.2349999999999994  3.799166662109376 1.3516666621093805  4.032499999999999 1.5849999999999937  C 4.254166662109375 1.8183333378906212  4.370833337890625 2.133333337890619  4.370833337890625 2.541666662109378  C 4.370833337890625 2.844999999999999  4.265833337890626 3.125  4.0558333378906255 3.393333337890624  L 3.8575 3.614999999999995  C 3.134166662109376 4.256666662109382  2.6908333378906253 4.734999999999999  2.5275000000000007 5.061666662109374  C 2.375833337890626 5.364999999999995  2.3058333378906264 5.7383333242187575  2.3058333378906264 6.170000000000002  L 2.3058333378906264 6.368333337890618  L 3.5541666621093757 6.368333337890618  L 3.5541666621093757 6.170000000000002  C 3.5541666621093757 5.8783333378906235  3.6125000000000007 5.6216666621093765  3.740833337890626 5.388333337890629  C 3.8458333378906246 5.178333337890621  4.00916667578125 4.980000000000004  4.219166662109377 4.79333333789063  C 4.779166662109377 4.314999999999998  5.105833324218752 4.011666675781257  5.210833337890625 3.883333337890633  C 5.490833337890626 3.510000000000005  5.642500000000002 3.0316666757812527  5.642500000000002 2.460000000000008  C 5.642500000000002 1.7600000000000051  5.409166662109376 1.2000000000000028  4.954166662109376 0.7916666621093782  Z " stroke-width="0" stroke-dasharray="0" stroke="rgba(255, 255, 255, 0)" fill="none" transform="matrix(1 0 0 1 1329 973 )" class="stroke" mask="url(#Clip8122)" />
    <path d="M 3.5425000000000004 7.231666662109376  C 3.379166662109375 7.068333324218742  3.169166662109377 6.998333324218748  2.924166662109376 6.998333337890628  C 2.6791666621093757 6.998333337890628  2.48083332421875 7.068333337890621  2.329166662109376 7.231666662109376  C 2.1541666621093754 7.3833333242187535  2.0725000000000016 7.58166666210937  2.0725000000000016 7.826666662109375  C 2.0725000000000016 8.060000000000002  2.1541666621093762 8.258333324218754  2.329166662109376 8.421666662109374  C 2.48083332421875 8.585000000000008  2.6791666621093757 8.666666662109378  2.924166662109376 8.666666662109378  C 3.1575000000000015 8.666666662109378  3.3674999999999997 8.584999999999994  3.5425000000000004 8.433333337890616  C 3.7058333378906267 8.269999999999996  3.7875000000000005 8.071666675781245  3.7875000000000005 7.826666662109375  C 3.7875000000000005 7.58166666210937  3.705833337890625 7.3833333242187535  3.5425000000000004 7.231666662109376  Z " stroke-width="0" stroke-dasharray="0" stroke="rgba(255, 255, 255, 0)" fill="none" transform="matrix(1 0 0 1 1329 973 )" class="stroke" mask="url(#Clip8122)" />
  </g>
</svg>