<?xml version="1.0" encoding="utf-8"?>
<svg version="1.1" xmlns:xlink="http://www.w3.org/1999/xlink" width="14px" height="14px" xmlns="http://www.w3.org/2000/svg">
  <defs>
    <pattern id="BGPattern" patternUnits="userSpaceOnUse" alignment="0 0" imageRepeat="None" />
    <mask fill="white" id="Clip10964">
      <path d="M 1.1666666621093749 7  C 1.1666666621093749 10.22175  3.77825 12.833333337890622  7 12.833333337890622  C 10.22175 12.833333337890622  12.833333337890625 10.22175  12.833333337890625 7  C 12.833333337890625 3.77825  10.22175 1.1666666621093782  7 1.1666666621093782  C 3.77825 1.1666666621093782  1.1666666621093749 3.77825  1.1666666621093749 7  Z M 14 7  C 14 10.865749999999991  10.865749999999998 14  7 14  C 3.1342499999999998 14  0 10.865749999999991  0 7  C 0 3.1342499999999944  3.1342499999999998 0  7 0  C 10.865749999999998 0  14 3.1342499999999944  14 7  Z " fill-rule="evenodd" />
    </mask>
  </defs>
  <g transform="matrix(1 0 0 1 -1325 -970 )">
    <path d="M 1.1666666621093749 7  C 1.1666666621093749 10.22175  3.77825 12.833333337890622  7 12.833333337890622  C 10.22175 12.833333337890622  12.833333337890625 10.22175  12.833333337890625 7  C 12.833333337890625 3.77825  10.22175 1.1666666621093782  7 1.1666666621093782  C 3.77825 1.1666666621093782  1.1666666621093749 3.77825  1.1666666621093749 7  Z M 14 7  C 14 10.865749999999991  10.865749999999998 14  7 14  C 3.1342499999999998 14  0 10.865749999999991  0 7  C 0 3.1342499999999944  3.1342499999999998 0  7 0  C 10.865749999999998 0  14 3.1342499999999944  14 7  Z " fill-rule="nonzero" fill="rgba(61, 61, 61, 1)" stroke="none" transform="matrix(1 0 0 1 1325 970 )" class="fill" />
    <path d="M 1.1666666621093749 7  C 1.1666666621093749 10.22175  3.77825 12.833333337890622  7 12.833333337890622  C 10.22175 12.833333337890622  12.833333337890625 10.22175  12.833333337890625 7  C 12.833333337890625 3.77825  10.22175 1.1666666621093782  7 1.1666666621093782  C 3.77825 1.1666666621093782  1.1666666621093749 3.77825  1.1666666621093749 7  Z " stroke-width="0" stroke-dasharray="0" stroke="rgba(255, 255, 255, 0)" fill="none" transform="matrix(1 0 0 1 1325 970 )" class="stroke" mask="url(#Clip10964)" />
    <path d="M 14 7  C 14 10.865749999999991  10.865749999999998 14  7 14  C 3.1342499999999998 14  0 10.865749999999991  0 7  C 0 3.1342499999999944  3.1342499999999998 0  7 0  C 10.865749999999998 0  14 3.1342499999999944  14 7  Z " stroke-width="0" stroke-dasharray="0" stroke="rgba(255, 255, 255, 0)" fill="none" transform="matrix(1 0 0 1 1325 970 )" class="stroke" mask="url(#Clip10964)" />
  </g>
</svg>