<?xml version="1.0" encoding="utf-8"?>
<svg version="1.1" xmlns:xlink="http://www.w3.org/1999/xlink" width="8px" height="8px" xmlns="http://www.w3.org/2000/svg">
  <defs>
    <linearGradient gradientUnits="userSpaceOnUse" x1="0" y1="3.552713678800501E-15" x2="8" y2="8.000000000000004" id="LinearGradient1308">
      <stop id="Stop1309" stop-color="#8800f2" offset="0" />
      <stop id="Stop1310" stop-color="#5800aa" offset="1" />
    </linearGradient>
    <pattern id="BGPattern" patternUnits="userSpaceOnUse" alignment="0 0" imageRepeat="None" />
    <mask fill="white" id="Clip1311">
      <path d="M 0.3999999999999986 4.1275  C 0.3999999999999986 6.0598062684704885  1.9664437315295107 7.626250000000001  3.898749999999998 7.626250000000001  C 5.8310562684704905 7.626250000000001  7.397499999999997 6.0598062684704885  7.397499999999997 4.1275  C 7.397499999999997 2.1951937315295114  5.831056268470487 0.6287500000000006  3.898749999999998 0.6287500000000006  C 1.9664437315295107 0.6287500000000006  0.3999999999999986 2.1951937315295114  0.3999999999999986 4.1275  Z M 3.2549999999999972 4.1275  L 2.219999999999999 3.09375  C 2.1397069876243844 3.009002036473192  2.0949552426732456 2.896699343844535  2.0949552426732456 2.779955242673249  C 2.0949552426732456 2.527975325562949  2.2992253255629436 2.323705242673249  2.5512052426732446 2.323705242673249  C 2.6679493438445316 2.323705242673249  2.780252036473188 2.3684569876243864  2.8649999999999984 2.4487500000000004  L 3.898749999999998 3.4837500000000006  L 4.933749999999998 2.4487500000000004  C 5.01876060214137 2.3627157206735774  5.134675838383821 2.3142951766259  5.255624999999998 2.3142951766259  C 5.376574161616173 2.3142951766259  5.492489397858627 2.3627157206735774  5.577499999999997 2.4487500000000004  C 5.663921318075619 2.5338077115939774  5.712588595037921 2.649992181614825  5.712588595037921 2.77125  C 5.712588595037921 2.8925078183851767  5.663921318075619 3.0086922884060217  5.577499999999997 3.09375  L 4.543749999999999 4.1275  L 5.577500000000001 5.162500000000001  C 5.663223610220157 5.247676608227821  5.711428883006455 5.363529677631394  5.711428883006455 5.484375000000001  C 5.711428883006455 5.605220322368609  5.663223610220157 5.72107339177218  5.577499999999997 5.80625  C 5.492657534896505 5.8925976425414  5.376679364883284 5.941235795773534  5.255625000000002 5.941235795773534  C 5.134570635116717 5.941235795773534  5.018592465103495 5.892597642541402  4.933749999999998 5.80625  L 3.898749999999998 4.772500000000001  L 2.8649999999999984 5.80625  C 2.7799422884060228 5.892671318075623  2.6637578183851733 5.941338595037923  2.542499999999997 5.941338595037923  C 2.421242181614822 5.941338595037923  2.3050577115939745 5.892671318075623  2.219999999999999 5.80625  C 2.1339657206735723 5.721239397858627  2.0855451766258994 5.605324161616175  2.0855451766258994 5.484375  C 2.0855451766258994 5.363425838383826  2.133965720673576 5.247510602141373  2.219999999999999 5.1625000000000005  L 3.2549999999999972 4.1275  Z " fill-rule="evenodd" />
    </mask>
  </defs>
  <g transform="matrix(1 0 0 1 -296 -387 )">
    <path d="M 0.3999999999999986 4.1275  C 0.3999999999999986 6.0598062684704885  1.9664437315295107 7.626250000000001  3.898749999999998 7.626250000000001  C 5.8310562684704905 7.626250000000001  7.397499999999997 6.0598062684704885  7.397499999999997 4.1275  C 7.397499999999997 2.1951937315295114  5.831056268470487 0.6287500000000006  3.898749999999998 0.6287500000000006  C 1.9664437315295107 0.6287500000000006  0.3999999999999986 2.1951937315295114  0.3999999999999986 4.1275  Z M 3.2549999999999972 4.1275  L 2.219999999999999 3.09375  C 2.1397069876243844 3.009002036473192  2.0949552426732456 2.896699343844535  2.0949552426732456 2.779955242673249  C 2.0949552426732456 2.527975325562949  2.2992253255629436 2.323705242673249  2.5512052426732446 2.323705242673249  C 2.6679493438445316 2.323705242673249  2.780252036473188 2.3684569876243864  2.8649999999999984 2.4487500000000004  L 3.898749999999998 3.4837500000000006  L 4.933749999999998 2.4487500000000004  C 5.01876060214137 2.3627157206735774  5.134675838383821 2.3142951766259  5.255624999999998 2.3142951766259  C 5.376574161616173 2.3142951766259  5.492489397858627 2.3627157206735774  5.577499999999997 2.4487500000000004  C 5.663921318075619 2.5338077115939774  5.712588595037921 2.649992181614825  5.712588595037921 2.77125  C 5.712588595037921 2.8925078183851767  5.663921318075619 3.0086922884060217  5.577499999999997 3.09375  L 4.543749999999999 4.1275  L 5.577500000000001 5.162500000000001  C 5.663223610220157 5.247676608227821  5.711428883006455 5.363529677631394  5.711428883006455 5.484375000000001  C 5.711428883006455 5.605220322368609  5.663223610220157 5.72107339177218  5.577499999999997 5.80625  C 5.492657534896505 5.8925976425414  5.376679364883284 5.941235795773534  5.255625000000002 5.941235795773534  C 5.134570635116717 5.941235795773534  5.018592465103495 5.892597642541402  4.933749999999998 5.80625  L 3.898749999999998 4.772500000000001  L 2.8649999999999984 5.80625  C 2.7799422884060228 5.892671318075623  2.6637578183851733 5.941338595037923  2.542499999999997 5.941338595037923  C 2.421242181614822 5.941338595037923  2.3050577115939745 5.892671318075623  2.219999999999999 5.80625  C 2.1339657206735723 5.721239397858627  2.0855451766258994 5.605324161616175  2.0855451766258994 5.484375  C 2.0855451766258994 5.363425838383826  2.133965720673576 5.247510602141373  2.219999999999999 5.1625000000000005  L 3.2549999999999972 4.1275  Z " fill-rule="nonzero" fill="url(#LinearGradient1308)" stroke="none" transform="matrix(1 0 0 1 296 387 )" class="fill" />
    <path d="M 0.3999999999999986 4.1275  C 0.3999999999999986 6.0598062684704885  1.9664437315295107 7.626250000000001  3.898749999999998 7.626250000000001  C 5.8310562684704905 7.626250000000001  7.397499999999997 6.0598062684704885  7.397499999999997 4.1275  C 7.397499999999997 2.1951937315295114  5.831056268470487 0.6287500000000006  3.898749999999998 0.6287500000000006  C 1.9664437315295107 0.6287500000000006  0.3999999999999986 2.1951937315295114  0.3999999999999986 4.1275  Z " stroke-width="0" stroke-dasharray="0" stroke="rgba(255, 255, 255, 0)" fill="none" transform="matrix(1 0 0 1 296 387 )" class="stroke" mask="url(#Clip1311)" />
    <path d="M 3.2549999999999972 4.1275  L 2.219999999999999 3.09375  C 2.1397069876243844 3.009002036473192  2.0949552426732456 2.896699343844535  2.0949552426732456 2.779955242673249  C 2.0949552426732456 2.527975325562949  2.2992253255629436 2.323705242673249  2.5512052426732446 2.323705242673249  C 2.6679493438445316 2.323705242673249  2.780252036473188 2.3684569876243864  2.8649999999999984 2.4487500000000004  L 3.898749999999998 3.4837500000000006  L 4.933749999999998 2.4487500000000004  C 5.01876060214137 2.3627157206735774  5.134675838383821 2.3142951766259  5.255624999999998 2.3142951766259  C 5.376574161616173 2.3142951766259  5.492489397858627 2.3627157206735774  5.577499999999997 2.4487500000000004  C 5.663921318075619 2.5338077115939774  5.712588595037921 2.649992181614825  5.712588595037921 2.77125  C 5.712588595037921 2.8925078183851767  5.663921318075619 3.0086922884060217  5.577499999999997 3.09375  L 4.543749999999999 4.1275  L 5.577500000000001 5.162500000000001  C 5.663223610220157 5.247676608227821  5.711428883006455 5.363529677631394  5.711428883006455 5.484375000000001  C 5.711428883006455 5.605220322368609  5.663223610220157 5.72107339177218  5.577499999999997 5.80625  C 5.492657534896505 5.8925976425414  5.376679364883284 5.941235795773534  5.255625000000002 5.941235795773534  C 5.134570635116717 5.941235795773534  5.018592465103495 5.892597642541402  4.933749999999998 5.80625  L 3.898749999999998 4.772500000000001  L 2.8649999999999984 5.80625  C 2.7799422884060228 5.892671318075623  2.6637578183851733 5.941338595037923  2.542499999999997 5.941338595037923  C 2.421242181614822 5.941338595037923  2.3050577115939745 5.892671318075623  2.219999999999999 5.80625  C 2.1339657206735723 5.721239397858627  2.0855451766258994 5.605324161616175  2.0855451766258994 5.484375  C 2.0855451766258994 5.363425838383826  2.133965720673576 5.247510602141373  2.219999999999999 5.1625000000000005  L 3.2549999999999972 4.1275  Z " stroke-width="0" stroke-dasharray="0" stroke="rgba(255, 255, 255, 0)" fill="none" transform="matrix(1 0 0 1 296 387 )" class="stroke" mask="url(#Clip1311)" />
  </g>
</svg>