<?xml version="1.0" encoding="utf-8"?>
<svg version="1.1" xmlns:xlink="http://www.w3.org/1999/xlink" width="18px" height="18px" xmlns="http://www.w3.org/2000/svg">
  <defs>
    <linearGradient gradientUnits="userSpaceOnUse" x1="0" y1="7.993605777301127E-15" x2="18" y2="18.000000000000007" id="LinearGradient2350">
      <stop id="Stop2351" stop-color="#8800f2" offset="0" />
      <stop id="Stop2352" stop-color="#5800aa" offset="1" />
    </linearGradient>
    <pattern id="BGPattern" patternUnits="userSpaceOnUse" alignment="0 0" imageRepeat="None" />
    <mask fill="white" id="Clip2353">
      <path d="M 17.7 5.975  C 16.966733223250795 7.397493878507557  15.500365270012928 8.291303028951557  13.899999999999999 8.291249999999998  C 13.898576669380216 8.291251421248774  13.897153338144385 8.291252131873291  13.895730006815015 8.291252131873291  C 11.534022345351087 8.291252131873291  9.619480006815017 6.3767097933372225  9.619480006815017 4.015002131873293  C 9.619480006815017 2.3961170814368713  10.533669722218281 0.9160259280660032  11.98125 0.19124999999999925  L 2.58125 0.19124999999999925  C 1.3227754781821202 0.1946837831986441  0.3034337831986442 1.2140254781821191  0.30000000000000004 2.4725  L 0.30000000000000004 15.527500000000003  C 0.3034337831986462 16.78597452181788  1.3227754781821206 17.80531621680135  2.5812500000000003 17.80875  L 15.418749999999996 17.80875  C 16.677224521817877 17.80531621680135  17.696566216801354 16.78597452181788  17.7 15.527500000000003  L 17.7 5.975  Z M 4.6674999999999995 5.3325  L 4.666250000000001 5.3325  L 7.1625 5.3325  C 7.506987612706956 5.3325  7.786249999999999 5.611762387293042  7.786249999999999 5.956249999999999  C 7.786249999999999 6.300737612706957  7.506987612706956 6.58  7.1625 6.58  L 4.6674999999999995 6.58  C 4.323012387293042 6.58  4.043749999999999 6.300737612706957  4.043749999999999 5.956249999999999  C 4.043749999999999 5.611762387293042  4.323012387293042 5.3325  4.6674999999999995 5.3325  Z M 13.435 11.57  L 13.43375 11.57  L 4.6674999999999995 11.57  C 4.323012387293042 11.57  4.043749999999999 11.290737612706959  4.043749999999999 10.946250000000001  C 4.043749999999999 10.601762387293045  4.323012387293042 10.322500000000002  4.6674999999999995 10.322500000000002  L 13.435 10.322500000000002  C 13.779487612706957 10.322500000000002  14.058749999999998 10.601762387293045  14.058749999999998 10.946250000000001  C 14.058749999999998 11.290737612706959  13.779487612706957 11.57  13.435 11.57  Z " fill-rule="evenodd" />
    </mask>
  </defs>
  <g transform="matrix(1 0 0 1 -286 -387 )">
    <path d="M 17.7 5.975  C 16.966733223250795 7.397493878507557  15.500365270012928 8.291303028951557  13.899999999999999 8.291249999999998  C 13.898576669380216 8.291251421248774  13.897153338144385 8.291252131873291  13.895730006815015 8.291252131873291  C 11.534022345351087 8.291252131873291  9.619480006815017 6.3767097933372225  9.619480006815017 4.015002131873293  C 9.619480006815017 2.3961170814368713  10.533669722218281 0.9160259280660032  11.98125 0.19124999999999925  L 2.58125 0.19124999999999925  C 1.3227754781821202 0.1946837831986441  0.3034337831986442 1.2140254781821191  0.30000000000000004 2.4725  L 0.30000000000000004 15.527500000000003  C 0.3034337831986462 16.78597452181788  1.3227754781821206 17.80531621680135  2.5812500000000003 17.80875  L 15.418749999999996 17.80875  C 16.677224521817877 17.80531621680135  17.696566216801354 16.78597452181788  17.7 15.527500000000003  L 17.7 5.975  Z M 4.6674999999999995 5.3325  L 4.666250000000001 5.3325  L 7.1625 5.3325  C 7.506987612706956 5.3325  7.786249999999999 5.611762387293042  7.786249999999999 5.956249999999999  C 7.786249999999999 6.300737612706957  7.506987612706956 6.58  7.1625 6.58  L 4.6674999999999995 6.58  C 4.323012387293042 6.58  4.043749999999999 6.300737612706957  4.043749999999999 5.956249999999999  C 4.043749999999999 5.611762387293042  4.323012387293042 5.3325  4.6674999999999995 5.3325  Z M 13.435 11.57  L 13.43375 11.57  L 4.6674999999999995 11.57  C 4.323012387293042 11.57  4.043749999999999 11.290737612706959  4.043749999999999 10.946250000000001  C 4.043749999999999 10.601762387293045  4.323012387293042 10.322500000000002  4.6674999999999995 10.322500000000002  L 13.435 10.322500000000002  C 13.779487612706957 10.322500000000002  14.058749999999998 10.601762387293045  14.058749999999998 10.946250000000001  C 14.058749999999998 11.290737612706959  13.779487612706957 11.57  13.435 11.57  Z " fill-rule="nonzero" fill="url(#LinearGradient2350)" stroke="none" transform="matrix(1 0 0 1 286 387 )" class="fill" />
    <path d="M 17.7 5.975  C 16.966733223250795 7.397493878507557  15.500365270012928 8.291303028951557  13.899999999999999 8.291249999999998  C 13.898576669380216 8.291251421248774  13.897153338144385 8.291252131873291  13.895730006815015 8.291252131873291  C 11.534022345351087 8.291252131873291  9.619480006815017 6.3767097933372225  9.619480006815017 4.015002131873293  C 9.619480006815017 2.3961170814368713  10.533669722218281 0.9160259280660032  11.98125 0.19124999999999925  L 2.58125 0.19124999999999925  C 1.3227754781821202 0.1946837831986441  0.3034337831986442 1.2140254781821191  0.30000000000000004 2.4725  L 0.30000000000000004 15.527500000000003  C 0.3034337831986462 16.78597452181788  1.3227754781821206 17.80531621680135  2.5812500000000003 17.80875  L 15.418749999999996 17.80875  C 16.677224521817877 17.80531621680135  17.696566216801354 16.78597452181788  17.7 15.527500000000003  L 17.7 5.975  Z " stroke-width="0" stroke-dasharray="0" stroke="rgba(255, 255, 255, 0)" fill="none" transform="matrix(1 0 0 1 286 387 )" class="stroke" mask="url(#Clip2353)" />
    <path d="M 4.6674999999999995 5.3325  L 4.666250000000001 5.3325  L 7.1625 5.3325  C 7.506987612706956 5.3325  7.786249999999999 5.611762387293042  7.786249999999999 5.956249999999999  C 7.786249999999999 6.300737612706957  7.506987612706956 6.58  7.1625 6.58  L 4.6674999999999995 6.58  C 4.323012387293042 6.58  4.043749999999999 6.300737612706957  4.043749999999999 5.956249999999999  C 4.043749999999999 5.611762387293042  4.323012387293042 5.3325  4.6674999999999995 5.3325  Z " stroke-width="0" stroke-dasharray="0" stroke="rgba(255, 255, 255, 0)" fill="none" transform="matrix(1 0 0 1 286 387 )" class="stroke" mask="url(#Clip2353)" />
    <path d="M 13.435 11.57  L 13.43375 11.57  L 4.6674999999999995 11.57  C 4.323012387293042 11.57  4.043749999999999 11.290737612706959  4.043749999999999 10.946250000000001  C 4.043749999999999 10.601762387293045  4.323012387293042 10.322500000000002  4.6674999999999995 10.322500000000002  L 13.435 10.322500000000002  C 13.779487612706957 10.322500000000002  14.058749999999998 10.601762387293045  14.058749999999998 10.946250000000001  C 14.058749999999998 11.290737612706959  13.779487612706957 11.57  13.435 11.57  Z " stroke-width="0" stroke-dasharray="0" stroke="rgba(255, 255, 255, 0)" fill="none" transform="matrix(1 0 0 1 286 387 )" class="stroke" mask="url(#Clip2353)" />
  </g>
</svg>