<?xml version="1.0" encoding="utf-8"?>
<svg version="1.1" xmlns:xlink="http://www.w3.org/1999/xlink" width="4px" height="4px" xmlns="http://www.w3.org/2000/svg">
  <defs>
    <pattern id="BGPattern" patternUnits="userSpaceOnUse" alignment="0 0" imageRepeat="None" />
    <mask fill="white" id="Clip7177">
      <path d="M 0.125 2  C 0.125 3.0355339059327378  0.9644660940672622 3.875  2 3.875  C 3.0355339059327378 3.875  3.875 3.0355339059327378  3.875 2  C 3.875 0.9644660940672622  3.0355339059327378 0.125  2 0.125  C 0.9644660940672622 0.125  0.125 0.9644660940672622  0.125 2  Z " fill-rule="evenodd" />
    </mask>
  </defs>
  <g transform="matrix(1 0 0 1 -324 263 )">
    <path d="M 0.125 2  C 0.125 3.0355339059327378  0.9644660940672622 3.875  2 3.875  C 3.0355339059327378 3.875  3.875 3.0355339059327378  3.875 2  C 3.875 0.9644660940672622  3.0355339059327378 0.125  2 0.125  C 0.9644660940672622 0.125  0.125 0.9644660940672622  0.125 2  Z " fill-rule="nonzero" fill="rgba(255, 255, 255, 1)" stroke="none" transform="matrix(1 0 0 1 324 -263 )" class="fill" />
    <path d="M 0.125 2  C 0.125 3.0355339059327378  0.9644660940672622 3.875  2 3.875  C 3.0355339059327378 3.875  3.875 3.0355339059327378  3.875 2  C 3.875 0.9644660940672622  3.0355339059327378 0.125  2 0.125  C 0.9644660940672622 0.125  0.125 0.9644660940672622  0.125 2  Z " stroke-width="0" stroke-dasharray="0" stroke="rgba(255, 255, 255, 0)" fill="none" transform="matrix(1 0 0 1 324 -263 )" class="stroke" mask="url(#Clip7177)" />
  </g>
</svg>