<?xml version="1.0" encoding="utf-8"?>
<svg version="1.1" xmlns:xlink="http://www.w3.org/1999/xlink" width="333px" height="336px" xmlns="http://www.w3.org/2000/svg">
  <defs>
    <linearGradient gradientUnits="userSpaceOnUse" x1="0" y1="168" x2="333" y2="168" id="LinearGradient18460">
      <stop id="Stop18461" stop-color="#63a103" stop-opacity="0.4980392156862745" offset="0" />
      <stop id="Stop18462" stop-color="#aaaa00" stop-opacity="0.4980392156862745" offset="1" />
    </linearGradient>
    <pattern id="BGPattern" patternUnits="userSpaceOnUse" alignment="0 0" imageRepeat="None" />
    <mask fill="white" id="Clip18463">
      <path d="M 0 331  L 0 5  C 0 2.1999999999999993  2.1999999999999997 0  5 0  L 328 0  C 330.8 0  333 2.1999999999999993  333 5  L 333 331  C 333 333.8  330.8 336  328 336  L 5 336  C 2.1999999999999997 336  0 333.8  0 331  Z " fill-rule="evenodd" />
    </mask>
  </defs>
  <g transform="matrix(1 0 0 1 -13 -98 )">
    <path d="M 0 331  L 0 5  C 0 2.1999999999999993  2.1999999999999997 0  5 0  L 328 0  C 330.8 0  333 2.1999999999999993  333 5  L 333 331  C 333 333.8  330.8 336  328 336  L 5 336  C 2.1999999999999997 336  0 333.8  0 331  Z " fill-rule="nonzero" fill="url(#LinearGradient18460)" stroke="none" transform="matrix(1 0 0 1 13 98 )" class="fill" />
    <path d="M 0 331  L 0 5  C 0 2.1999999999999993  2.1999999999999997 0  5 0  L 328 0  C 330.8 0  333 2.1999999999999993  333 5  L 333 331  C 333 333.8  330.8 336  328 336  L 5 336  C 2.1999999999999997 336  0 333.8  0 331  Z " stroke-width="0" stroke-dasharray="0" stroke="rgba(121, 121, 121, 1)" fill="none" transform="matrix(1 0 0 1 13 98 )" class="stroke" mask="url(#Clip18463)" />
  </g>
</svg>