<?xml version="1.0" encoding="utf-8"?>
<svg version="1.1" xmlns:xlink="http://www.w3.org/1999/xlink" width="333px" height="333px" xmlns="http://www.w3.org/2000/svg">
  <defs>
    <linearGradient gradientUnits="userSpaceOnUse" x1="333" y1="166.5" x2="0" y2="166.5" id="LinearGradient18452">
      <stop id="Stop18453" stop-color="#02a7f0" stop-opacity="0.4980392156862745" offset="0" />
      <stop id="Stop18454" stop-color="#8080ff" stop-opacity="0.4980392156862745" offset="1" />
    </linearGradient>
    <pattern id="BGPattern" patternUnits="userSpaceOnUse" alignment="0 0" imageRepeat="None" />
    <mask fill="white" id="Clip18455">
      <path d="M 0 328  L 0 5  C 0 2.1999999999999997  2.1999999999999997 0  5 0  L 328 0  C 330.8 0  333 2.1999999999999997  333 5  L 333 328  C 333 330.8  330.8 333  328 333  L 5 333  C 2.1999999999999997 333  0 330.8  0 328  Z " fill-rule="evenodd" />
    </mask>
  </defs>
  <g transform="matrix(1 0 0 1 -13 -476 )">
    <path d="M 0 328  L 0 5  C 0 2.1999999999999997  2.1999999999999997 0  5 0  L 328 0  C 330.8 0  333 2.1999999999999997  333 5  L 333 328  C 333 330.8  330.8 333  328 333  L 5 333  C 2.1999999999999997 333  0 330.8  0 328  Z " fill-rule="nonzero" fill="url(#LinearGradient18452)" stroke="none" transform="matrix(1 0 0 1 13 476 )" class="fill" />
    <path d="M 0 328  L 0 5  C 0 2.1999999999999997  2.1999999999999997 0  5 0  L 328 0  C 330.8 0  333 2.1999999999999997  333 5  L 333 328  C 333 330.8  330.8 333  328 333  L 5 333  C 2.1999999999999997 333  0 330.8  0 328  Z " stroke-width="0" stroke-dasharray="0" stroke="rgba(121, 121, 121, 1)" fill="none" transform="matrix(1 0 0 1 13 476 )" class="stroke" mask="url(#Clip18455)" />
  </g>
</svg>