<?xml version="1.0" encoding="utf-8"?>
<svg version="1.1" xmlns:xlink="http://www.w3.org/1999/xlink" width="290px" height="40px" xmlns="http://www.w3.org/2000/svg">
  <defs>
    <linearGradient gradientUnits="userSpaceOnUse" x1="145" y1="40" x2="145" y2="0" id="LinearGradient18476">
      <stop id="Stop18477" stop-color="#ffffff" stop-opacity="0.2" offset="0" />
      <stop id="Stop18478" stop-color="#ffffff" stop-opacity="0.4980392156862745" offset="1" />
    </linearGradient>
    <pattern id="BGPattern" patternUnits="userSpaceOnUse" alignment="0 0" imageRepeat="None" />
    <mask fill="white" id="Clip18479">
      <path d="M 0 35  L 0 5  C 0 2.1999999999999997  2.1999999999999997 0  5 0  L 285 0  C 287.8 0  290 2.1999999999999997  290 5  L 290 35  C 290 37.800000000000004  287.8 40  285 40  L 5 40  C 2.1999999999999997 40  0 37.800000000000004  0 35  Z " fill-rule="evenodd" />
    </mask>
  </defs>
  <g transform="matrix(1 0 0 1 -33 -26 )">
    <path d="M 0 35  L 0 5  C 0 2.1999999999999997  2.1999999999999997 0  5 0  L 285 0  C 287.8 0  290 2.1999999999999997  290 5  L 290 35  C 290 37.800000000000004  287.8 40  285 40  L 5 40  C 2.1999999999999997 40  0 37.800000000000004  0 35  Z " fill-rule="nonzero" fill="url(#LinearGradient18476)" stroke="none" transform="matrix(1 0 0 1 33 26 )" class="fill" />
    <path d="M 0 35  L 0 5  C 0 2.1999999999999997  2.1999999999999997 0  5 0  L 285 0  C 287.8 0  290 2.1999999999999997  290 5  L 290 35  C 290 37.800000000000004  287.8 40  285 40  L 5 40  C 2.1999999999999997 40  0 37.800000000000004  0 35  Z " stroke-width="0" stroke-dasharray="0" stroke="rgba(121, 121, 121, 1)" fill="none" transform="matrix(1 0 0 1 33 26 )" class="stroke" mask="url(#Clip18479)" />
  </g>
</svg>