<?xml version="1.0" encoding="utf-8"?>
<svg version="1.1" xmlns:xlink="http://www.w3.org/1999/xlink" width="310px" height="294px" xmlns="http://www.w3.org/2000/svg">
  <defs>
    <linearGradient gradientUnits="userSpaceOnUse" x1="155" y1="294" x2="155" y2="0" id="LinearGradient18448">
      <stop id="Stop18449" stop-color="#ffffff" stop-opacity="0.2" offset="0" />
      <stop id="Stop18450" stop-color="#ffffff" stop-opacity="0.4980392156862745" offset="1" />
    </linearGradient>
    <pattern id="BGPattern" patternUnits="userSpaceOnUse" alignment="0 0" imageRepeat="None" />
    <mask fill="white" id="Clip18451">
      <path d="M 0 289  L 0 5.000000000000001  C 0 2.1999999999999997  2.1999999999999997 0  5 0  L 305 0  C 307.8 0  310 2.1999999999999997  310 5.000000000000001  L 310 289  C 310 291.8  307.8 294  305 294  L 5 294  C 2.1999999999999997 294  0 291.8  0 289  Z " fill-rule="evenodd" />
    </mask>
  </defs>
  <g transform="matrix(1 0 0 1 -25 216 )">
    <path d="M 0 289  L 0 5.000000000000001  C 0 2.1999999999999997  2.1999999999999997 0  5 0  L 305 0  C 307.8 0  310 2.1999999999999997  310 5.000000000000001  L 310 289  C 310 291.8  307.8 294  305 294  L 5 294  C 2.1999999999999997 294  0 291.8  0 289  Z " fill-rule="nonzero" fill="url(#LinearGradient18448)" stroke="none" transform="matrix(1 0 0 1 25 -216 )" class="fill" />
    <path d="M 0 289  L 0 5.000000000000001  C 0 2.1999999999999997  2.1999999999999997 0  5 0  L 305 0  C 307.8 0  310 2.1999999999999997  310 5.000000000000001  L 310 289  C 310 291.8  307.8 294  305 294  L 5 294  C 2.1999999999999997 294  0 291.8  0 289  Z " stroke-width="0" stroke-dasharray="0" stroke="rgba(121, 121, 121, 1)" fill="none" transform="matrix(1 0 0 1 25 -216 )" class="stroke" mask="url(#Clip18451)" />
  </g>
</svg>