<?xml version="1.0" encoding="utf-8"?>
<svg version="1.1" xmlns:xlink="http://www.w3.org/1999/xlink" width="310px" height="258px" xmlns="http://www.w3.org/2000/svg">
  <defs>
    <linearGradient gradientUnits="userSpaceOnUse" x1="155" y1="258" x2="155" y2="0" id="LinearGradient18464">
      <stop id="Stop18465" stop-color="#ffffff" stop-opacity="0.2" offset="0" />
      <stop id="Stop18466" stop-color="#ffffff" stop-opacity="0.4980392156862745" offset="1" />
    </linearGradient>
    <pattern id="BGPattern" patternUnits="userSpaceOnUse" alignment="0 0" imageRepeat="None" />
    <mask fill="white" id="Clip18467">
      <path d="M 0 253  L 0 5  C 0 2.1999999999999997  2.1999999999999997 0  5 0  L 305 0  C 307.8 0  310 2.1999999999999997  310 5  L 310 253  C 310 255.8  307.8 258  305 258  L 5 258  C 2.1999999999999997 258  0 255.8  0 253  Z " fill-rule="evenodd" />
    </mask>
  </defs>
  <g transform="matrix(1 0 0 1 -25 -162 )">
    <path d="M 0 253  L 0 5  C 0 2.1999999999999997  2.1999999999999997 0  5 0  L 305 0  C 307.8 0  310 2.1999999999999997  310 5  L 310 253  C 310 255.8  307.8 258  305 258  L 5 258  C 2.1999999999999997 258  0 255.8  0 253  Z " fill-rule="nonzero" fill="url(#LinearGradient18464)" stroke="none" transform="matrix(1 0 0 1 25 162 )" class="fill" />
    <path d="M 0 253  L 0 5  C 0 2.1999999999999997  2.1999999999999997 0  5 0  L 305 0  C 307.8 0  310 2.1999999999999997  310 5  L 310 253  C 310 255.8  307.8 258  305 258  L 5 258  C 2.1999999999999997 258  0 255.8  0 253  Z " stroke-width="0" stroke-dasharray="0" stroke="rgba(121, 121, 121, 1)" fill="none" transform="matrix(1 0 0 1 25 162 )" class="stroke" mask="url(#Clip18467)" />
  </g>
</svg>