<?xml version="1.0" encoding="utf-8"?>
<svg version="1.1" xmlns:xlink="http://www.w3.org/1999/xlink" width="10px" height="74px" xmlns="http://www.w3.org/2000/svg">
  <defs>
    <pattern id="BGPattern" patternUnits="userSpaceOnUse" alignment="0 0" imageRepeat="None" />
    <mask fill="white" id="Clip14914">
      <path d="M 8.817715738932291 68.99835266219429  C 8.817715738932291 71.07501413580324  7.073583523650306 72.75848088272758  4.922087402343749 72.75848088272758  C 2.77059131281814 72.75848083934584  1.0264591471354183 71.07501410512769  1 68.99835266219429  L 1 48.30448705417799  C 1.026770080131314 46.2280378361997  2.7708112037392674 44.54490230077887  4.922087443033861 44.54490230077887  C 7.073363682328436 44.54490230077887  8.817404805936397 46.2280378361997  8.817715738932291 48.30448705417799  L 8.817715738932291 68.99835266219429  Z M 8.817715738932291 7.159284145720109  C 8.817715693987248 9.235945588653522  7.073583491869352 10.919412287703807  4.922087402343749 10.919412287703803  C 2.7705913445990937 10.919412244322059  1.0264591920804615 9.23594555797799  1.0264591471354183 7.1592841457201075  L 1.0264591471354183 3.760128220533288  C 1.026770080131314 1.6836790025549924  2.770811203739279 0.000543467134173267  4.922087443033861 0.000543467134173267  C 7.073363682328436 0.000543467134173267  8.817404805936397 1.683679002554996  8.817715738932291 3.760128220533288  L 8.817715738932291 7.159284145720109  Z " fill-rule="evenodd" />
    </mask>
  </defs>
  <g transform="matrix(1 0 0 1 -175 -162 )">
    <path d="M 8.817715738932291 68.99835266219429  C 8.817715738932291 71.07501413580324  7.073583523650306 72.75848088272758  4.922087402343749 72.75848088272758  C 2.77059131281814 72.75848083934584  1.0264591471354183 71.07501410512769  1 68.99835266219429  L 1 48.30448705417799  C 1.026770080131314 46.2280378361997  2.7708112037392674 44.54490230077887  4.922087443033861 44.54490230077887  C 7.073363682328436 44.54490230077887  8.817404805936397 46.2280378361997  8.817715738932291 48.30448705417799  L 8.817715738932291 68.99835266219429  Z M 8.817715738932291 7.159284145720109  C 8.817715693987248 9.235945588653522  7.073583491869352 10.919412287703807  4.922087402343749 10.919412287703803  C 2.7705913445990937 10.919412244322059  1.0264591920804615 9.23594555797799  1.0264591471354183 7.1592841457201075  L 1.0264591471354183 3.760128220533288  C 1.026770080131314 1.6836790025549924  2.770811203739279 0.000543467134173267  4.922087443033861 0.000543467134173267  C 7.073363682328436 0.000543467134173267  8.817404805936397 1.683679002554996  8.817715738932291 3.760128220533288  L 8.817715738932291 7.159284145720109  Z " fill-rule="nonzero" fill="rgba(255, 255, 255, 1)" stroke="none" transform="matrix(1 0 0 1 175 162 )" class="fill" />
    <path d="M 8.817715738932291 68.99835266219429  C 8.817715738932291 71.07501413580324  7.073583523650306 72.75848088272758  4.922087402343749 72.75848088272758  C 2.77059131281814 72.75848083934584  1.0264591471354183 71.07501410512769  1 68.99835266219429  L 1 48.30448705417799  C 1.026770080131314 46.2280378361997  2.7708112037392674 44.54490230077887  4.922087443033861 44.54490230077887  C 7.073363682328436 44.54490230077887  8.817404805936397 46.2280378361997  8.817715738932291 48.30448705417799  L 8.817715738932291 68.99835266219429  Z " stroke-width="0" stroke-dasharray="0" stroke="rgba(255, 255, 255, 0)" fill="none" transform="matrix(1 0 0 1 175 162 )" class="stroke" mask="url(#Clip14914)" />
    <path d="M 8.817715738932291 7.159284145720109  C 8.817715693987248 9.235945588653522  7.073583491869352 10.919412287703807  4.922087402343749 10.919412287703803  C 2.7705913445990937 10.919412244322059  1.0264591920804615 9.23594555797799  1.0264591471354183 7.1592841457201075  L 1.0264591471354183 3.760128220533288  C 1.026770080131314 1.6836790025549924  2.770811203739279 0.000543467134173267  4.922087443033861 0.000543467134173267  C 7.073363682328436 0.000543467134173267  8.817404805936397 1.683679002554996  8.817715738932291 3.760128220533288  L 8.817715738932291 7.159284145720109  Z " stroke-width="0" stroke-dasharray="0" stroke="rgba(255, 255, 255, 0)" fill="none" transform="matrix(1 0 0 1 175 162 )" class="stroke" mask="url(#Clip14914)" />
  </g>
</svg>