<?xml version="1.0" encoding="utf-8"?>
<svg version="1.1" xmlns:xlink="http://www.w3.org/1999/xlink" width="77px" height="48px" xmlns="http://www.w3.org/2000/svg">
  <defs>
    <pattern id="BGPattern" patternUnits="userSpaceOnUse" alignment="0 0" imageRepeat="None" />
    <mask fill="white" id="Clip12518">
      <path d="M 7.9412305572509885 34.25786875  C 7.9412305572509885 21.434083593749996  21.627059806315117 8.309244296874997  38.5 8.309244296875  C 55.37294019368489 8.309244296875  69.05876944274902 21.434083593750003  69.05876944274902 34.25786875  C 69.05876944274902 39.233676875  59.859267523193374 39.78903765625  48.59751731770834 39.789037734375  C 45.34666416829428 39.789037734375  41.92333208414714 39.744160078125  38.50000000000001 39.744160078125  C 35.076667915852866 39.744160078125  31.653335831705736 39.789037734375  28.40248268229168 39.789037734375  C 17.142607268269867 39.789037734375  7.9412305572509885 39.228067265625  7.9412305572509885 34.25786875  Z M 65.08050511678061 10.884098828124996  C 57.74169426899462 4.419039130188518  48.29147077688798 0.8443552859094672  38.500000000000014 0.8296379687499964  C 28.709748926395132 0.8417733306215198  19.259672857627407 4.413077403022048  11.9194948832194 10.874749296875002  C 4.62663520304362 17.3165603125  0.44214600931803394 25.839571796875006  0.44214600931803394 34.25786875  C 0.44214600931803394 37.874258437499996  2.1144418223063153 41.07553  5.149696303304037 43.272664375  C 7.024467401123047 44.630212968749994  9.409176293945313 45.59321226562499  12.436931687418618 46.215889453124994  C 16.949505784098307 47.150840234374996  22.778169232177735 47.2686440625  28.40248268229167 47.2686440625  C 30.033533553059897 47.2686440625  31.732076211547852 47.257424687500006  33.372500961303714 47.246205234375  C 35.05979494934082 47.234985859375  36.79208354085287 47.223766406249986  38.5 47.223766484375  C 40.207916459147135 47.22376656250001  41.94582934672037 47.234985859375  43.627499038696286 47.246205234375  C 45.26979857991535 47.25742460937499  46.96646644694011 47.2686440625  48.59751731770833 47.2686440625  C 54.221830689493814 47.2686440625  60.05049413757324 47.14149078125  64.56306831258138 46.215889453124994  C 67.5926984975179 45.5932121875  69.97553259887695 44.63208281249999  71.85030369669596 43.272664375  C 74.8855581776937 41.07553  76.55785399068196 37.874258437499996  76.55785399068196 34.25786875  C 76.55785399068196 25.843311562499995  72.3733647969564 17.3165603125  65.08050511678061 10.884098828124996  Z " fill-rule="evenodd" />
    </mask>
  </defs>
  <g transform="matrix(1 0 0 1 -141 -165 )">
    <path d="M 7.9412305572509885 34.25786875  C 7.9412305572509885 21.434083593749996  21.627059806315117 8.309244296874997  38.5 8.309244296875  C 55.37294019368489 8.309244296875  69.05876944274902 21.434083593750003  69.05876944274902 34.25786875  C 69.05876944274902 39.233676875  59.859267523193374 39.78903765625  48.59751731770834 39.789037734375  C 45.34666416829428 39.789037734375  41.92333208414714 39.744160078125  38.50000000000001 39.744160078125  C 35.076667915852866 39.744160078125  31.653335831705736 39.789037734375  28.40248268229168 39.789037734375  C 17.142607268269867 39.789037734375  7.9412305572509885 39.228067265625  7.9412305572509885 34.25786875  Z M 65.08050511678061 10.884098828124996  C 57.74169426899462 4.419039130188518  48.29147077688798 0.8443552859094672  38.500000000000014 0.8296379687499964  C 28.709748926395132 0.8417733306215198  19.259672857627407 4.413077403022048  11.9194948832194 10.874749296875002  C 4.62663520304362 17.3165603125  0.44214600931803394 25.839571796875006  0.44214600931803394 34.25786875  C 0.44214600931803394 37.874258437499996  2.1144418223063153 41.07553  5.149696303304037 43.272664375  C 7.024467401123047 44.630212968749994  9.409176293945313 45.59321226562499  12.436931687418618 46.215889453124994  C 16.949505784098307 47.150840234374996  22.778169232177735 47.2686440625  28.40248268229167 47.2686440625  C 30.033533553059897 47.2686440625  31.732076211547852 47.257424687500006  33.372500961303714 47.246205234375  C 35.05979494934082 47.234985859375  36.79208354085287 47.223766406249986  38.5 47.223766484375  C 40.207916459147135 47.22376656250001  41.94582934672037 47.234985859375  43.627499038696286 47.246205234375  C 45.26979857991535 47.25742460937499  46.96646644694011 47.2686440625  48.59751731770833 47.2686440625  C 54.221830689493814 47.2686440625  60.05049413757324 47.14149078125  64.56306831258138 46.215889453124994  C 67.5926984975179 45.5932121875  69.97553259887695 44.63208281249999  71.85030369669596 43.272664375  C 74.8855581776937 41.07553  76.55785399068196 37.874258437499996  76.55785399068196 34.25786875  C 76.55785399068196 25.843311562499995  72.3733647969564 17.3165603125  65.08050511678061 10.884098828124996  Z " fill-rule="nonzero" fill="rgba(255, 255, 255, 1)" stroke="none" transform="matrix(1 0 0 1 141 165 )" class="fill" />
    <path d="M 7.9412305572509885 34.25786875  C 7.9412305572509885 21.434083593749996  21.627059806315117 8.309244296874997  38.5 8.309244296875  C 55.37294019368489 8.309244296875  69.05876944274902 21.434083593750003  69.05876944274902 34.25786875  C 69.05876944274902 39.233676875  59.859267523193374 39.78903765625  48.59751731770834 39.789037734375  C 45.34666416829428 39.789037734375  41.92333208414714 39.744160078125  38.50000000000001 39.744160078125  C 35.076667915852866 39.744160078125  31.653335831705736 39.789037734375  28.40248268229168 39.789037734375  C 17.142607268269867 39.789037734375  7.9412305572509885 39.228067265625  7.9412305572509885 34.25786875  Z " stroke-width="0" stroke-dasharray="0" stroke="rgba(255, 255, 255, 0)" fill="none" transform="matrix(1 0 0 1 141 165 )" class="stroke" mask="url(#Clip12518)" />
    <path d="M 65.08050511678061 10.884098828124996  C 57.74169426899462 4.419039130188518  48.29147077688798 0.8443552859094672  38.500000000000014 0.8296379687499964  C 28.709748926395132 0.8417733306215198  19.259672857627407 4.413077403022048  11.9194948832194 10.874749296875002  C 4.62663520304362 17.3165603125  0.44214600931803394 25.839571796875006  0.44214600931803394 34.25786875  C 0.44214600931803394 37.874258437499996  2.1144418223063153 41.07553  5.149696303304037 43.272664375  C 7.024467401123047 44.630212968749994  9.409176293945313 45.59321226562499  12.436931687418618 46.215889453124994  C 16.949505784098307 47.150840234374996  22.778169232177735 47.2686440625  28.40248268229167 47.2686440625  C 30.033533553059897 47.2686440625  31.732076211547852 47.257424687500006  33.372500961303714 47.246205234375  C 35.05979494934082 47.234985859375  36.79208354085287 47.223766406249986  38.5 47.223766484375  C 40.207916459147135 47.22376656250001  41.94582934672037 47.234985859375  43.627499038696286 47.246205234375  C 45.26979857991535 47.25742460937499  46.96646644694011 47.2686440625  48.59751731770833 47.2686440625  C 54.221830689493814 47.2686440625  60.05049413757324 47.14149078125  64.56306831258138 46.215889453124994  C 67.5926984975179 45.5932121875  69.97553259887695 44.63208281249999  71.85030369669596 43.272664375  C 74.8855581776937 41.07553  76.55785399068196 37.874258437499996  76.55785399068196 34.25786875  C 76.55785399068196 25.843311562499995  72.3733647969564 17.3165603125  65.08050511678061 10.884098828124996  Z " stroke-width="0" stroke-dasharray="0" stroke="rgba(255, 255, 255, 0)" fill="none" transform="matrix(1 0 0 1 141 165 )" class="stroke" mask="url(#Clip12518)" />
  </g>
</svg>