<?xml version="1.0" encoding="utf-8"?>
<svg version="1.1" xmlns:xlink="http://www.w3.org/1999/xlink" width="24px" height="24px" xmlns="http://www.w3.org/2000/svg">
  <defs>
    <pattern id="BGPattern" patternUnits="userSpaceOnUse" alignment="0 0" imageRepeat="None" />
    <mask fill="white" id="Clip1498">
      <path d="M 21.876499658203123 6.3366266894531265  C 18.67960482421875 0.832039541015626  11.629498945312498 -1.0522229882812497  6.124911796875001 2.123500341796875  C 0.6203246484375007 5.299223701171876  -1.2851093847656243 12.349329550781249  1.9117854492187512 17.875088203125  C 5.108680283203126 23.40084685546875  12.137614658203127 25.285109384765626  17.663373310546874 22.08821455078125  C 23.18913196289062 18.891319716796875  25.073394492187496 11.862385341796875  21.876499658203123 6.3366266894531265  Z M 22.1729005078125 6.188426250000001  C 25.45448129882812 11.8623853125  23.50670431640625 19.103034580078123  17.832745224609376 22.405786875  C 13.661961884765624 24.819336621093754  8.474947060546876 24.459421318359382  4.664079052734375 21.537755830078126  C 0.8532110449218755 18.616090341796877  -0.8193366210937496 13.683133388671877  0.4297812304687505 9.046577285156252  C 1.657727607421875 4.388849677734376  5.574453076171874 0.9590684472656248  10.338038115234376 0.34509527343750035  C 15.101623154296874 -0.29004940429687487  19.780522236328125 2.0176429101562503  22.1729005078125 6.188426250000001  Z " fill-rule="evenodd" />
    </mask>
  </defs>
  <g transform="matrix(1 0 0 1 -140 -363 )">
    <path d="M 21.876499658203123 6.3366266894531265  C 18.67960482421875 0.832039541015626  11.629498945312498 -1.0522229882812497  6.124911796875001 2.123500341796875  C 0.6203246484375007 5.299223701171876  -1.2851093847656243 12.349329550781249  1.9117854492187512 17.875088203125  C 5.108680283203126 23.40084685546875  12.137614658203127 25.285109384765626  17.663373310546874 22.08821455078125  C 23.18913196289062 18.891319716796875  25.073394492187496 11.862385341796875  21.876499658203123 6.3366266894531265  Z M 22.1729005078125 6.188426250000001  C 25.45448129882812 11.8623853125  23.50670431640625 19.103034580078123  17.832745224609376 22.405786875  C 13.661961884765624 24.819336621093754  8.474947060546876 24.459421318359382  4.664079052734375 21.537755830078126  C 0.8532110449218755 18.616090341796877  -0.8193366210937496 13.683133388671877  0.4297812304687505 9.046577285156252  C 1.657727607421875 4.388849677734376  5.574453076171874 0.9590684472656248  10.338038115234376 0.34509527343750035  C 15.101623154296874 -0.29004940429687487  19.780522236328125 2.0176429101562503  22.1729005078125 6.188426250000001  Z " fill-rule="nonzero" fill="rgba(255, 74, 74, 1)" stroke="none" transform="matrix(1 0 0 1 140 363 )" class="fill" />
    <path d="M 21.876499658203123 6.3366266894531265  C 18.67960482421875 0.832039541015626  11.629498945312498 -1.0522229882812497  6.124911796875001 2.123500341796875  C 0.6203246484375007 5.299223701171876  -1.2851093847656243 12.349329550781249  1.9117854492187512 17.875088203125  C 5.108680283203126 23.40084685546875  12.137614658203127 25.285109384765626  17.663373310546874 22.08821455078125  C 23.18913196289062 18.891319716796875  25.073394492187496 11.862385341796875  21.876499658203123 6.3366266894531265  Z " stroke-width="0" stroke-dasharray="0" stroke="rgba(255, 255, 255, 0)" fill="none" transform="matrix(1 0 0 1 140 363 )" class="stroke" mask="url(#Clip1498)" />
    <path d="M 22.1729005078125 6.188426250000001  C 25.45448129882812 11.8623853125  23.50670431640625 19.103034580078123  17.832745224609376 22.405786875  C 13.661961884765624 24.819336621093754  8.474947060546876 24.459421318359382  4.664079052734375 21.537755830078126  C 0.8532110449218755 18.616090341796877  -0.8193366210937496 13.683133388671877  0.4297812304687505 9.046577285156252  C 1.657727607421875 4.388849677734376  5.574453076171874 0.9590684472656248  10.338038115234376 0.34509527343750035  C 15.101623154296874 -0.29004940429687487  19.780522236328125 2.0176429101562503  22.1729005078125 6.188426250000001  Z " stroke-width="0" stroke-dasharray="0" stroke="rgba(255, 255, 255, 0)" fill="none" transform="matrix(1 0 0 1 140 363 )" class="stroke" mask="url(#Clip1498)" />
  </g>
</svg>