<?xml version="1.0" encoding="utf-8"?>
<svg version="1.1" xmlns:xlink="http://www.w3.org/1999/xlink" width="145px" height="270px" xmlns="http://www.w3.org/2000/svg">
  <defs>
    <linearGradient gradientUnits="userSpaceOnUse" x1="72.5" y1="0" x2="72.5" y2="270" id="LinearGradient1501">
      <stop id="Stop1502" stop-color="#000000" offset="0" />
      <stop id="Stop1503" stop-color="#333333" stop-opacity="0" offset="1" />
    </linearGradient>
    <pattern id="BGPattern" patternUnits="userSpaceOnUse" alignment="0 0" imageRepeat="None" />
    <mask fill="white" id="Clip1504">
      <path d="M 0 265  L 0 5  C 0 2.1999999999999997  2.1999999999999997 0  5 0  L 140 0  C 142.8 0  145 2.1999999999999997  145 5  L 145 265  C 145 267.8  142.8 270  140 270  L 5 270  C 2.1999999999999997 270  0 267.8  0 265  Z " fill-rule="evenodd" />
    </mask>
  </defs>
  <g transform="matrix(1 0 0 1 -30 -326 )">
    <path d="M 0 265  L 0 5  C 0 2.1999999999999997  2.1999999999999997 0  5 0  L 140 0  C 142.8 0  145 2.1999999999999997  145 5  L 145 265  C 145 267.8  142.8 270  140 270  L 5 270  C 2.1999999999999997 270  0 267.8  0 265  Z " fill-rule="nonzero" fill="url(#LinearGradient1501)" stroke="none" transform="matrix(1 0 0 1 30 326 )" class="fill" />
    <path d="M 0 265  L 0 5  C 0 2.1999999999999997  2.1999999999999997 0  5 0  L 140 0  C 142.8 0  145 2.1999999999999997  145 5  L 145 265  C 145 267.8  142.8 270  140 270  L 5 270  C 2.1999999999999997 270  0 267.8  0 265  Z " stroke-width="0" stroke-dasharray="0" stroke="rgba(121, 121, 121, 1)" fill="none" transform="matrix(1 0 0 1 30 326 )" class="stroke" mask="url(#Clip1504)" />
  </g>
</svg>