<?xml version="1.0" encoding="utf-8"?>
<svg version="1.1" xmlns:xlink="http://www.w3.org/1999/xlink" width="19px" height="21px" xmlns="http://www.w3.org/2000/svg">
  <defs>
    <pattern id="BGPattern" patternUnits="userSpaceOnUse" alignment="0 0" imageRepeat="None" />
    <mask fill="white" id="Clip1856">
      <path d="M 5.630204658203127 18.455751582031247  L 5.460832744140625 18.162314755859374  L 18.03839095703125 10.900494013671874  L 18.207762871093752 11.19393083984375  L 5.630204658203127 18.455751582031247  Z M 1.2669724902343757 10.869160185546875  L 1.0973888476562497 10.575935087890626  L 13.674947060546874 3.314114316406251  L 13.844318974609378 3.6073394433593755  L 1.2669724902343757 10.869160185546875  Z M 7.38532111328125 2.626676064453126  L 6.517290039062501 3.6005645703125007  L 4.908256884765624 2.4784756542968758  L 5.056457294921874 4.447424140625001  L 3.7861679687499983 4.7226534863281255  L 4.8447424023437495 5.781227949218751  L 7.7875793945312495 4.087508808593752  L 7.38532111328125 2.626676064453126  Z M 13.440366982421876 18.16654903320313  L 13.376852500000002 17.12914607421875  L 14.223712070312502 17.7219477734375  L 15.19760057617188 17.319689492187496  L 14.922371201171877 18.335920947265624  L 15.578687353515626 19.140437539062496  L 14.54128439453125 19.16160904296875  L 13.990825673828127 20.050811562499998  L 13.630910371093748 19.0769230859375  L 12.61467888671875 18.822865214843752  L 13.440366982421876 18.16654903320313  Z M 16.42554692382813 15.350741005859366  L 15.832745224609376 14.503881435546877  L 16.870148212890626 14.546224414062502  L 17.48412138671875 13.699364843749997  L 17.780522236328128 14.69442485351562  L 18.75441071289063 15.011997177734369  L 17.907551171875003 15.604798876953119  L 17.907551171875003 16.642201835937495  L 17.081863105468752 16.007057158203118  L 16.08680309570313 16.324629511718744  L 16.42554692382813 15.350741005859366  Z M 10.137614687500001 18.99223712890625  L 9.6930133984375 18.039520126953125  L 9.20606916015625 18.949894150390627  L 8.168666201171874 19.0769230859375  L 8.888496835937499 19.8179251953125  L 8.676781943359373 20.8341566796875  L 9.60832744140625 20.389555390625002  L 10.518701494140625 20.91884263671875  L 10.39167255859375 19.8814396484375  L 11.153846142578125 19.182780517578124  L 10.137614687500001 18.99223712890625  Z M 9.693013398437508 2.9230769140625004  L 10.11644318359375 3.875793945312499  L 10.603387451171876 2.9442484179687494  L 11.640790410156253 2.8383909570312493  L 10.920959775390628 2.076217373046874  L 11.132674667968754 1.059985888671875  L 10.201129140625003 1.5257586523437503  L 9.290755117187505 0.9964714062499995  L 9.438955527343756 2.0338743945312494  L 8.655610439453131 2.7325335253906253  L 9.693013398437508 2.9230769140625004  Z M 2.7275935058593754 6.924488369140622  L 3.341566679687501 7.7713479101562495  L 2.3041637207031256 7.7501764355468765  L 1.6901905468750007 8.575864501953125  L 1.3937896972656247 7.580804521484376  L 0.39872971679687463 7.26323216796875  L 1.26676076171875 6.6704304980468745  L 1.26676076171875 5.633027509765624  L 2.092448828124999 6.268172187499998  L 3.0875088085937494 5.950599863281248  L 2.7275935058593754 6.924488369140622  Z " fill-rule="evenodd" />
    </mask>
  </defs>
  <g transform="matrix(1 0 0 1 -142 -364 )">
    <path d="M 5.630204658203127 18.455751582031247  L 5.460832744140625 18.162314755859374  L 18.03839095703125 10.900494013671874  L 18.207762871093752 11.19393083984375  L 5.630204658203127 18.455751582031247  Z M 1.2669724902343757 10.869160185546875  L 1.0973888476562497 10.575935087890626  L 13.674947060546874 3.314114316406251  L 13.844318974609378 3.6073394433593755  L 1.2669724902343757 10.869160185546875  Z M 7.38532111328125 2.626676064453126  L 6.517290039062501 3.6005645703125007  L 4.908256884765624 2.4784756542968758  L 5.056457294921874 4.447424140625001  L 3.7861679687499983 4.7226534863281255  L 4.8447424023437495 5.781227949218751  L 7.7875793945312495 4.087508808593752  L 7.38532111328125 2.626676064453126  Z M 13.440366982421876 18.16654903320313  L 13.376852500000002 17.12914607421875  L 14.223712070312502 17.7219477734375  L 15.19760057617188 17.319689492187496  L 14.922371201171877 18.335920947265624  L 15.578687353515626 19.140437539062496  L 14.54128439453125 19.16160904296875  L 13.990825673828127 20.050811562499998  L 13.630910371093748 19.0769230859375  L 12.61467888671875 18.822865214843752  L 13.440366982421876 18.16654903320313  Z M 16.42554692382813 15.350741005859366  L 15.832745224609376 14.503881435546877  L 16.870148212890626 14.546224414062502  L 17.48412138671875 13.699364843749997  L 17.780522236328128 14.69442485351562  L 18.75441071289063 15.011997177734369  L 17.907551171875003 15.604798876953119  L 17.907551171875003 16.642201835937495  L 17.081863105468752 16.007057158203118  L 16.08680309570313 16.324629511718744  L 16.42554692382813 15.350741005859366  Z M 10.137614687500001 18.99223712890625  L 9.6930133984375 18.039520126953125  L 9.20606916015625 18.949894150390627  L 8.168666201171874 19.0769230859375  L 8.888496835937499 19.8179251953125  L 8.676781943359373 20.8341566796875  L 9.60832744140625 20.389555390625002  L 10.518701494140625 20.91884263671875  L 10.39167255859375 19.8814396484375  L 11.153846142578125 19.182780517578124  L 10.137614687500001 18.99223712890625  Z M 9.693013398437508 2.9230769140625004  L 10.11644318359375 3.875793945312499  L 10.603387451171876 2.9442484179687494  L 11.640790410156253 2.8383909570312493  L 10.920959775390628 2.076217373046874  L 11.132674667968754 1.059985888671875  L 10.201129140625003 1.5257586523437503  L 9.290755117187505 0.9964714062499995  L 9.438955527343756 2.0338743945312494  L 8.655610439453131 2.7325335253906253  L 9.693013398437508 2.9230769140625004  Z M 2.7275935058593754 6.924488369140622  L 3.341566679687501 7.7713479101562495  L 2.3041637207031256 7.7501764355468765  L 1.6901905468750007 8.575864501953125  L 1.3937896972656247 7.580804521484376  L 0.39872971679687463 7.26323216796875  L 1.26676076171875 6.6704304980468745  L 1.26676076171875 5.633027509765624  L 2.092448828124999 6.268172187499998  L 3.0875088085937494 5.950599863281248  L 2.7275935058593754 6.924488369140622  Z " fill-rule="nonzero" fill="rgba(255, 74, 74, 1)" stroke="none" transform="matrix(1 0 0 1 142 364 )" class="fill" />
    <path d="M 5.630204658203127 18.455751582031247  L 5.460832744140625 18.162314755859374  L 18.03839095703125 10.900494013671874  L 18.207762871093752 11.19393083984375  L 5.630204658203127 18.455751582031247  Z " stroke-width="0" stroke-dasharray="0" stroke="rgba(255, 255, 255, 0)" fill="none" transform="matrix(1 0 0 1 142 364 )" class="stroke" mask="url(#Clip1856)" />
    <path d="M 1.2669724902343757 10.869160185546875  L 1.0973888476562497 10.575935087890626  L 13.674947060546874 3.314114316406251  L 13.844318974609378 3.6073394433593755  L 1.2669724902343757 10.869160185546875  Z " stroke-width="0" stroke-dasharray="0" stroke="rgba(255, 255, 255, 0)" fill="none" transform="matrix(1 0 0 1 142 364 )" class="stroke" mask="url(#Clip1856)" />
    <path d="M 7.38532111328125 2.626676064453126  L 6.517290039062501 3.6005645703125007  L 4.908256884765624 2.4784756542968758  L 5.056457294921874 4.447424140625001  L 3.7861679687499983 4.7226534863281255  L 4.8447424023437495 5.781227949218751  L 7.7875793945312495 4.087508808593752  L 7.38532111328125 2.626676064453126  Z " stroke-width="0" stroke-dasharray="0" stroke="rgba(255, 255, 255, 0)" fill="none" transform="matrix(1 0 0 1 142 364 )" class="stroke" mask="url(#Clip1856)" />
    <path d="M 13.440366982421876 18.16654903320313  L 13.376852500000002 17.12914607421875  L 14.223712070312502 17.7219477734375  L 15.19760057617188 17.319689492187496  L 14.922371201171877 18.335920947265624  L 15.578687353515626 19.140437539062496  L 14.54128439453125 19.16160904296875  L 13.990825673828127 20.050811562499998  L 13.630910371093748 19.0769230859375  L 12.61467888671875 18.822865214843752  L 13.440366982421876 18.16654903320313  Z " stroke-width="0" stroke-dasharray="0" stroke="rgba(255, 255, 255, 0)" fill="none" transform="matrix(1 0 0 1 142 364 )" class="stroke" mask="url(#Clip1856)" />
    <path d="M 16.42554692382813 15.350741005859366  L 15.832745224609376 14.503881435546877  L 16.870148212890626 14.546224414062502  L 17.48412138671875 13.699364843749997  L 17.780522236328128 14.69442485351562  L 18.75441071289063 15.011997177734369  L 17.907551171875003 15.604798876953119  L 17.907551171875003 16.642201835937495  L 17.081863105468752 16.007057158203118  L 16.08680309570313 16.324629511718744  L 16.42554692382813 15.350741005859366  Z " stroke-width="0" stroke-dasharray="0" stroke="rgba(255, 255, 255, 0)" fill="none" transform="matrix(1 0 0 1 142 364 )" class="stroke" mask="url(#Clip1856)" />
    <path d="M 10.137614687500001 18.99223712890625  L 9.6930133984375 18.039520126953125  L 9.20606916015625 18.949894150390627  L 8.168666201171874 19.0769230859375  L 8.888496835937499 19.8179251953125  L 8.676781943359373 20.8341566796875  L 9.60832744140625 20.389555390625002  L 10.518701494140625 20.91884263671875  L 10.39167255859375 19.8814396484375  L 11.153846142578125 19.182780517578124  L 10.137614687500001 18.99223712890625  Z " stroke-width="0" stroke-dasharray="0" stroke="rgba(255, 255, 255, 0)" fill="none" transform="matrix(1 0 0 1 142 364 )" class="stroke" mask="url(#Clip1856)" />
    <path d="M 9.693013398437508 2.9230769140625004  L 10.11644318359375 3.875793945312499  L 10.603387451171876 2.9442484179687494  L 11.640790410156253 2.8383909570312493  L 10.920959775390628 2.076217373046874  L 11.132674667968754 1.059985888671875  L 10.201129140625003 1.5257586523437503  L 9.290755117187505 0.9964714062499995  L 9.438955527343756 2.0338743945312494  L 8.655610439453131 2.7325335253906253  L 9.693013398437508 2.9230769140625004  Z " stroke-width="0" stroke-dasharray="0" stroke="rgba(255, 255, 255, 0)" fill="none" transform="matrix(1 0 0 1 142 364 )" class="stroke" mask="url(#Clip1856)" />
    <path d="M 2.7275935058593754 6.924488369140622  L 3.341566679687501 7.7713479101562495  L 2.3041637207031256 7.7501764355468765  L 1.6901905468750007 8.575864501953125  L 1.3937896972656247 7.580804521484376  L 0.39872971679687463 7.26323216796875  L 1.26676076171875 6.6704304980468745  L 1.26676076171875 5.633027509765624  L 2.092448828124999 6.268172187499998  L 3.0875088085937494 5.950599863281248  L 2.7275935058593754 6.924488369140622  Z " stroke-width="0" stroke-dasharray="0" stroke="rgba(255, 255, 255, 0)" fill="none" transform="matrix(1 0 0 1 142 364 )" class="stroke" mask="url(#Clip1856)" />
  </g>
</svg>