<?xml version="1.0" encoding="utf-8"?>
<svg version="1.1" xmlns:xlink="http://www.w3.org/1999/xlink" width="16px" height="12px" xmlns="http://www.w3.org/2000/svg">
  <defs>
    <pattern id="BGPattern" patternUnits="userSpaceOnUse" alignment="0 0" imageRepeat="None" />
    <mask fill="white" id="Clip4575">
      <path d="M 0.7064220312499989 6.434015537109374  L 5.724064912109375 3.5335215234375  L 6.0839802441406245 4.147494697265627  L 4.538461542968749 5.036697246093752  L 5.258292177734374 6.285815097656252  L 7.03669724609375 5.269583613281252  L 7.396612548828124 5.883556816406253  L 1.913196904296873 9.05928017578125  L 1.5532815722656235 8.445306972656251  L 3.331686669921874 7.407904013671875  L 2.611856035156249 6.158786162109374  L 1.0663373339843734 7.047988710937499  L 0.7064220312499989 6.434015537109374  Z M 1.9343683789062496 6.645730429687504  C 2.27311220703125 6.836273818359377  2.611856035156249 7.026817236328128  2.9294283593750006 7.280875078125  L 2.5271700781249997 7.831333798828126  C 2.167254775390626 7.556104453125002  1.8285109472656256 7.344389560546876  1.4685956152343742 7.175017646484378  L 1.9343683789062496 6.645730429687504  Z M 6.930839814453128 6.60338745117188  L 8.539872968750002 9.376852500000002  L 7.904728291015626 9.736767832031251  L 7.756527880859377 9.482709960937502  L 4.8560338671875005 11.176429072265627  L 5.004234306640626 11.430486943359377  L 4.369089628906252 11.790402246093752  L 2.760056445312502 9.016937197265626  L 6.930839814453128 6.60338745117188  Z M 4.6443189746093765 6.666901904296877  L 3.903316865234375 5.396612548828125  L 3.225829208984374 5.7776993554687515  L 3.9456598437500006 7.02681720703125  L 4.6443189746093765 6.666901904296877  Z M 3.9880028222656243 9.652081874999997  L 6.86732533203125 7.958362734375001  L 6.6132674609375 7.513761474609375  L 3.7127734765625 9.186309111328121  L 3.9880028222656243 9.652081874999997  Z M 4.538461542968751 10.64714185546875  L 7.438955527343749 8.95342271484375  L 7.184897685546876 8.508821455078127  L 4.284403671874999 10.181369091796874  L 4.538461542968751 10.64714185546875  Z M 5.237120673828125 4.740296396484375  L 5.914608330078124 4.570924482421875  C 5.999294287109375 5.015525742187499  6.041637265624999 5.438955527343751  6.02046576171875 5.820042333984375  L 5.342978134765625 5.925899794921875  C 5.364149609375 5.587155966796875  5.32180666015625 5.184897685546876  5.237120673828125 4.740296396484375  Z M 7.502470009765624 2.220889189453125  L 8.285815097656249 2.09386025390625  C 8.391672529296873 2.9618912988281245  8.412844033203124 3.724064912109375  8.3705010546875 4.359209589843751  C 8.561044443359375 4.211009179687501  8.772759335937499 4.062808740234377  8.963302753906248 3.914608330078126  C 8.963302753906248 3.6605504589843747  8.963302753906248 3.3641496093750014  8.942131249999997 3.0677487597656263  L 9.64079041015625 2.9618913281250006  C 9.64079041015625 4.168666201171877  9.598447431640626 5.079040224609377  9.471418496093747 5.714184902343751  C 9.810162324218748 5.417784052734376  10.127734648437496 5.121383203125001  10.445306972656248 4.761467900390626  L 10.784050800781248 5.354269570312502  C 10.212420605468747 5.947071269531252  9.66196188476562 6.455187011718751  9.090331689453123 6.878616796875001  L 8.582215947265622 6.391672558593751  C 8.666901904296873 6.285815126953127  8.730416357421873 6.15878619140625  8.772759365234371 6.031757226562499  C 8.857445322265622 5.756527880859375  8.920959775390621 5.311926591796874  8.942131249999994 4.697953417968749  C 8.688073378906246 4.909668310546875  8.39167252929687 5.121383203125001  8.116443183593745 5.333098095703123  L 7.608327441406249 4.846153857421875  C 7.6930133984375 4.761467900390624  7.735356376953124 4.613267490234374  7.735356376953124 4.465067050781251  C 7.735356376953124 3.745236416015624  7.650670419921873 3.0042343066406243  7.502470009765624 2.220889189453125  Z M 10.911079736328126 6.052928730468745  L 11.2074805859375 6.603387451171876  C 11.228652060546874 5.396612578125001  10.784050800781248 3.9569513085937515  9.831333798828123 2.284403671875001  L 9.683133388671873 2.0515173046875006  L 9.132674667968747 2.369089628906252  L 8.772759365234371 1.7551164550781273  L 11.652081875 0.10374029296874987  L 11.884968242187501 0.5059985742187489  C 12.075511630859378 1.0564572949218736  12.244883544921876 1.5645730371093745  12.371912480468751 1.9880028222656243  L 13.134086093750003 1.543401562499998  L 13.345800986328129 1.9033168652343733  C 13.705716289062504 2.8136908886718714  13.83274522460938 3.6817219335937477  13.76923077148438 4.486238525390622  C 14.25617500976563 4.613267460937497  14.764290751953126 4.676781914062497  15.293577968750007 4.697953417968748  L 15.208892011718756 5.481298505859373  C 14.65843329101563 5.438955527343747  14.129146074218756 5.354269570312498  13.642201835937506 5.2060691601562485  C 13.494001425781253 5.798870859374999  13.218772050781254 6.349329580078123  12.858856748046883 6.857445292968746  L 12.160197587890629 6.476358515624998  C 12.520112890625008 5.968242773437499  12.752999287109379 5.438955556640622  12.901199726562506 4.9096683105468735  C 12.393083984375004 4.655610439453122  11.906139746093757 4.359209589843747  11.461538457031253 3.9781227832031227  C 11.927311220703128 5.269583613281247  12.075511630859381 6.412844033203124  11.906139746093753 7.386732539062496  L 11.16513760742188 7.2385320996093725  L 11.228652089843752 6.730416386718744  C 10.805222304687504 7.238532128906247  10.31827806640625 7.767819345703121  9.704304863281251 8.27593508789062  L 9.238532099609376 7.68313338867187  C 9.916019755859377 7.132674667968743  10.466478476562504 6.5822159472656185  10.911079736328126 6.052928730468745  Z M 12.964714179687501 4.232180654296876  C 13.049400136718752 3.6605504589843747  12.98588565429688 3.088920234375001  12.795342265624999 2.496118564453125  L 11.927311220703125 2.9830628027343753  C 11.80028228515625 2.5384615429687507  11.609738896484377 1.9033168652343768  11.313338046875 1.0988002734375009  L 10.31827806640625 1.6704304980468763  L 10.445306972656251 1.9033168652343768  C 10.614678886718753 2.178546210937501  10.741707822265628 2.4537755859375014  10.868736757812503 2.707833457031251  C 11.482709931640628 3.3853211132812504  12.181369091796878 3.8934368554687495  12.964714179687501 4.232180654296876  Z " fill-rule="evenodd" />
    </mask>
  </defs>
  <g transform="matrix(1 0 0 1 -144 -369 )">
    <path d="M 0.7064220312499989 6.434015537109374  L 5.724064912109375 3.5335215234375  L 6.0839802441406245 4.147494697265627  L 4.538461542968749 5.036697246093752  L 5.258292177734374 6.285815097656252  L 7.03669724609375 5.269583613281252  L 7.396612548828124 5.883556816406253  L 1.913196904296873 9.05928017578125  L 1.5532815722656235 8.445306972656251  L 3.331686669921874 7.407904013671875  L 2.611856035156249 6.158786162109374  L 1.0663373339843734 7.047988710937499  L 0.7064220312499989 6.434015537109374  Z M 1.9343683789062496 6.645730429687504  C 2.27311220703125 6.836273818359377  2.611856035156249 7.026817236328128  2.9294283593750006 7.280875078125  L 2.5271700781249997 7.831333798828126  C 2.167254775390626 7.556104453125002  1.8285109472656256 7.344389560546876  1.4685956152343742 7.175017646484378  L 1.9343683789062496 6.645730429687504  Z M 6.930839814453128 6.60338745117188  L 8.539872968750002 9.376852500000002  L 7.904728291015626 9.736767832031251  L 7.756527880859377 9.482709960937502  L 4.8560338671875005 11.176429072265627  L 5.004234306640626 11.430486943359377  L 4.369089628906252 11.790402246093752  L 2.760056445312502 9.016937197265626  L 6.930839814453128 6.60338745117188  Z M 4.6443189746093765 6.666901904296877  L 3.903316865234375 5.396612548828125  L 3.225829208984374 5.7776993554687515  L 3.9456598437500006 7.02681720703125  L 4.6443189746093765 6.666901904296877  Z M 3.9880028222656243 9.652081874999997  L 6.86732533203125 7.958362734375001  L 6.6132674609375 7.513761474609375  L 3.7127734765625 9.186309111328121  L 3.9880028222656243 9.652081874999997  Z M 4.538461542968751 10.64714185546875  L 7.438955527343749 8.95342271484375  L 7.184897685546876 8.508821455078127  L 4.284403671874999 10.181369091796874  L 4.538461542968751 10.64714185546875  Z M 5.237120673828125 4.740296396484375  L 5.914608330078124 4.570924482421875  C 5.999294287109375 5.015525742187499  6.041637265624999 5.438955527343751  6.02046576171875 5.820042333984375  L 5.342978134765625 5.925899794921875  C 5.364149609375 5.587155966796875  5.32180666015625 5.184897685546876  5.237120673828125 4.740296396484375  Z M 7.502470009765624 2.220889189453125  L 8.285815097656249 2.09386025390625  C 8.391672529296873 2.9618912988281245  8.412844033203124 3.724064912109375  8.3705010546875 4.359209589843751  C 8.561044443359375 4.211009179687501  8.772759335937499 4.062808740234377  8.963302753906248 3.914608330078126  C 8.963302753906248 3.6605504589843747  8.963302753906248 3.3641496093750014  8.942131249999997 3.0677487597656263  L 9.64079041015625 2.9618913281250006  C 9.64079041015625 4.168666201171877  9.598447431640626 5.079040224609377  9.471418496093747 5.714184902343751  C 9.810162324218748 5.417784052734376  10.127734648437496 5.121383203125001  10.445306972656248 4.761467900390626  L 10.784050800781248 5.354269570312502  C 10.212420605468747 5.947071269531252  9.66196188476562 6.455187011718751  9.090331689453123 6.878616796875001  L 8.582215947265622 6.391672558593751  C 8.666901904296873 6.285815126953127  8.730416357421873 6.15878619140625  8.772759365234371 6.031757226562499  C 8.857445322265622 5.756527880859375  8.920959775390621 5.311926591796874  8.942131249999994 4.697953417968749  C 8.688073378906246 4.909668310546875  8.39167252929687 5.121383203125001  8.116443183593745 5.333098095703123  L 7.608327441406249 4.846153857421875  C 7.6930133984375 4.761467900390624  7.735356376953124 4.613267490234374  7.735356376953124 4.465067050781251  C 7.735356376953124 3.745236416015624  7.650670419921873 3.0042343066406243  7.502470009765624 2.220889189453125  Z M 10.911079736328126 6.052928730468745  L 11.2074805859375 6.603387451171876  C 11.228652060546874 5.396612578125001  10.784050800781248 3.9569513085937515  9.831333798828123 2.284403671875001  L 9.683133388671873 2.0515173046875006  L 9.132674667968747 2.369089628906252  L 8.772759365234371 1.7551164550781273  L 11.652081875 0.10374029296874987  L 11.884968242187501 0.5059985742187489  C 12.075511630859378 1.0564572949218736  12.244883544921876 1.5645730371093745  12.371912480468751 1.9880028222656243  L 13.134086093750003 1.543401562499998  L 13.345800986328129 1.9033168652343733  C 13.705716289062504 2.8136908886718714  13.83274522460938 3.6817219335937477  13.76923077148438 4.486238525390622  C 14.25617500976563 4.613267460937497  14.764290751953126 4.676781914062497  15.293577968750007 4.697953417968748  L 15.208892011718756 5.481298505859373  C 14.65843329101563 5.438955527343747  14.129146074218756 5.354269570312498  13.642201835937506 5.2060691601562485  C 13.494001425781253 5.798870859374999  13.218772050781254 6.349329580078123  12.858856748046883 6.857445292968746  L 12.160197587890629 6.476358515624998  C 12.520112890625008 5.968242773437499  12.752999287109379 5.438955556640622  12.901199726562506 4.9096683105468735  C 12.393083984375004 4.655610439453122  11.906139746093757 4.359209589843747  11.461538457031253 3.9781227832031227  C 11.927311220703128 5.269583613281247  12.075511630859381 6.412844033203124  11.906139746093753 7.386732539062496  L 11.16513760742188 7.2385320996093725  L 11.228652089843752 6.730416386718744  C 10.805222304687504 7.238532128906247  10.31827806640625 7.767819345703121  9.704304863281251 8.27593508789062  L 9.238532099609376 7.68313338867187  C 9.916019755859377 7.132674667968743  10.466478476562504 6.5822159472656185  10.911079736328126 6.052928730468745  Z M 12.964714179687501 4.232180654296876  C 13.049400136718752 3.6605504589843747  12.98588565429688 3.088920234375001  12.795342265624999 2.496118564453125  L 11.927311220703125 2.9830628027343753  C 11.80028228515625 2.5384615429687507  11.609738896484377 1.9033168652343768  11.313338046875 1.0988002734375009  L 10.31827806640625 1.6704304980468763  L 10.445306972656251 1.9033168652343768  C 10.614678886718753 2.178546210937501  10.741707822265628 2.4537755859375014  10.868736757812503 2.707833457031251  C 11.482709931640628 3.3853211132812504  12.181369091796878 3.8934368554687495  12.964714179687501 4.232180654296876  Z " fill-rule="nonzero" fill="rgba(255, 74, 74, 1)" stroke="none" transform="matrix(1 0 0 1 144 369 )" class="fill" />
    <path d="M 0.7064220312499989 6.434015537109374  L 5.724064912109375 3.5335215234375  L 6.0839802441406245 4.147494697265627  L 4.538461542968749 5.036697246093752  L 5.258292177734374 6.285815097656252  L 7.03669724609375 5.269583613281252  L 7.396612548828124 5.883556816406253  L 1.913196904296873 9.05928017578125  L 1.5532815722656235 8.445306972656251  L 3.331686669921874 7.407904013671875  L 2.611856035156249 6.158786162109374  L 1.0663373339843734 7.047988710937499  L 0.7064220312499989 6.434015537109374  Z " stroke-width="0" stroke-dasharray="0" stroke="rgba(255, 255, 255, 0)" fill="none" transform="matrix(1 0 0 1 144 369 )" class="stroke" mask="url(#Clip4575)" />
    <path d="M 1.9343683789062496 6.645730429687504  C 2.27311220703125 6.836273818359377  2.611856035156249 7.026817236328128  2.9294283593750006 7.280875078125  L 2.5271700781249997 7.831333798828126  C 2.167254775390626 7.556104453125002  1.8285109472656256 7.344389560546876  1.4685956152343742 7.175017646484378  L 1.9343683789062496 6.645730429687504  Z " stroke-width="0" stroke-dasharray="0" stroke="rgba(255, 255, 255, 0)" fill="none" transform="matrix(1 0 0 1 144 369 )" class="stroke" mask="url(#Clip4575)" />
    <path d="M 6.930839814453128 6.60338745117188  L 8.539872968750002 9.376852500000002  L 7.904728291015626 9.736767832031251  L 7.756527880859377 9.482709960937502  L 4.8560338671875005 11.176429072265627  L 5.004234306640626 11.430486943359377  L 4.369089628906252 11.790402246093752  L 2.760056445312502 9.016937197265626  L 6.930839814453128 6.60338745117188  Z " stroke-width="0" stroke-dasharray="0" stroke="rgba(255, 255, 255, 0)" fill="none" transform="matrix(1 0 0 1 144 369 )" class="stroke" mask="url(#Clip4575)" />
    <path d="M 4.6443189746093765 6.666901904296877  L 3.903316865234375 5.396612548828125  L 3.225829208984374 5.7776993554687515  L 3.9456598437500006 7.02681720703125  L 4.6443189746093765 6.666901904296877  Z " stroke-width="0" stroke-dasharray="0" stroke="rgba(255, 255, 255, 0)" fill="none" transform="matrix(1 0 0 1 144 369 )" class="stroke" mask="url(#Clip4575)" />
    <path d="M 3.9880028222656243 9.652081874999997  L 6.86732533203125 7.958362734375001  L 6.6132674609375 7.513761474609375  L 3.7127734765625 9.186309111328121  L 3.9880028222656243 9.652081874999997  Z " stroke-width="0" stroke-dasharray="0" stroke="rgba(255, 255, 255, 0)" fill="none" transform="matrix(1 0 0 1 144 369 )" class="stroke" mask="url(#Clip4575)" />
    <path d="M 4.538461542968751 10.64714185546875  L 7.438955527343749 8.95342271484375  L 7.184897685546876 8.508821455078127  L 4.284403671874999 10.181369091796874  L 4.538461542968751 10.64714185546875  Z " stroke-width="0" stroke-dasharray="0" stroke="rgba(255, 255, 255, 0)" fill="none" transform="matrix(1 0 0 1 144 369 )" class="stroke" mask="url(#Clip4575)" />
    <path d="M 5.237120673828125 4.740296396484375  L 5.914608330078124 4.570924482421875  C 5.999294287109375 5.015525742187499  6.041637265624999 5.438955527343751  6.02046576171875 5.820042333984375  L 5.342978134765625 5.925899794921875  C 5.364149609375 5.587155966796875  5.32180666015625 5.184897685546876  5.237120673828125 4.740296396484375  Z " stroke-width="0" stroke-dasharray="0" stroke="rgba(255, 255, 255, 0)" fill="none" transform="matrix(1 0 0 1 144 369 )" class="stroke" mask="url(#Clip4575)" />
    <path d="M 7.502470009765624 2.220889189453125  L 8.285815097656249 2.09386025390625  C 8.391672529296873 2.9618912988281245  8.412844033203124 3.724064912109375  8.3705010546875 4.359209589843751  C 8.561044443359375 4.211009179687501  8.772759335937499 4.062808740234377  8.963302753906248 3.914608330078126  C 8.963302753906248 3.6605504589843747  8.963302753906248 3.3641496093750014  8.942131249999997 3.0677487597656263  L 9.64079041015625 2.9618913281250006  C 9.64079041015625 4.168666201171877  9.598447431640626 5.079040224609377  9.471418496093747 5.714184902343751  C 9.810162324218748 5.417784052734376  10.127734648437496 5.121383203125001  10.445306972656248 4.761467900390626  L 10.784050800781248 5.354269570312502  C 10.212420605468747 5.947071269531252  9.66196188476562 6.455187011718751  9.090331689453123 6.878616796875001  L 8.582215947265622 6.391672558593751  C 8.666901904296873 6.285815126953127  8.730416357421873 6.15878619140625  8.772759365234371 6.031757226562499  C 8.857445322265622 5.756527880859375  8.920959775390621 5.311926591796874  8.942131249999994 4.697953417968749  C 8.688073378906246 4.909668310546875  8.39167252929687 5.121383203125001  8.116443183593745 5.333098095703123  L 7.608327441406249 4.846153857421875  C 7.6930133984375 4.761467900390624  7.735356376953124 4.613267490234374  7.735356376953124 4.465067050781251  C 7.735356376953124 3.745236416015624  7.650670419921873 3.0042343066406243  7.502470009765624 2.220889189453125  Z " stroke-width="0" stroke-dasharray="0" stroke="rgba(255, 255, 255, 0)" fill="none" transform="matrix(1 0 0 1 144 369 )" class="stroke" mask="url(#Clip4575)" />
    <path d="M 10.911079736328126 6.052928730468745  L 11.2074805859375 6.603387451171876  C 11.228652060546874 5.396612578125001  10.784050800781248 3.9569513085937515  9.831333798828123 2.284403671875001  L 9.683133388671873 2.0515173046875006  L 9.132674667968747 2.369089628906252  L 8.772759365234371 1.7551164550781273  L 11.652081875 0.10374029296874987  L 11.884968242187501 0.5059985742187489  C 12.075511630859378 1.0564572949218736  12.244883544921876 1.5645730371093745  12.371912480468751 1.9880028222656243  L 13.134086093750003 1.543401562499998  L 13.345800986328129 1.9033168652343733  C 13.705716289062504 2.8136908886718714  13.83274522460938 3.6817219335937477  13.76923077148438 4.486238525390622  C 14.25617500976563 4.613267460937497  14.764290751953126 4.676781914062497  15.293577968750007 4.697953417968748  L 15.208892011718756 5.481298505859373  C 14.65843329101563 5.438955527343747  14.129146074218756 5.354269570312498  13.642201835937506 5.2060691601562485  C 13.494001425781253 5.798870859374999  13.218772050781254 6.349329580078123  12.858856748046883 6.857445292968746  L 12.160197587890629 6.476358515624998  C 12.520112890625008 5.968242773437499  12.752999287109379 5.438955556640622  12.901199726562506 4.9096683105468735  C 12.393083984375004 4.655610439453122  11.906139746093757 4.359209589843747  11.461538457031253 3.9781227832031227  C 11.927311220703128 5.269583613281247  12.075511630859381 6.412844033203124  11.906139746093753 7.386732539062496  L 11.16513760742188 7.2385320996093725  L 11.228652089843752 6.730416386718744  C 10.805222304687504 7.238532128906247  10.31827806640625 7.767819345703121  9.704304863281251 8.27593508789062  L 9.238532099609376 7.68313338867187  C 9.916019755859377 7.132674667968743  10.466478476562504 6.5822159472656185  10.911079736328126 6.052928730468745  Z " stroke-width="0" stroke-dasharray="0" stroke="rgba(255, 255, 255, 0)" fill="none" transform="matrix(1 0 0 1 144 369 )" class="stroke" mask="url(#Clip4575)" />
    <path d="M 12.964714179687501 4.232180654296876  C 13.049400136718752 3.6605504589843747  12.98588565429688 3.088920234375001  12.795342265624999 2.496118564453125  L 11.927311220703125 2.9830628027343753  C 11.80028228515625 2.5384615429687507  11.609738896484377 1.9033168652343768  11.313338046875 1.0988002734375009  L 10.31827806640625 1.6704304980468763  L 10.445306972656251 1.9033168652343768  C 10.614678886718753 2.178546210937501  10.741707822265628 2.4537755859375014  10.868736757812503 2.707833457031251  C 11.482709931640628 3.3853211132812504  12.181369091796878 3.8934368554687495  12.964714179687501 4.232180654296876  Z " stroke-width="0" stroke-dasharray="0" stroke="rgba(255, 255, 255, 0)" fill="none" transform="matrix(1 0 0 1 144 369 )" class="stroke" mask="url(#Clip4575)" />
  </g>
</svg>