<?xml version="1.0" encoding="utf-8"?>
<svg version="1.1" xmlns:xlink="http://www.w3.org/1999/xlink" width="26px" height="26px" xmlns="http://www.w3.org/2000/svg">
  <defs>
    <pattern id="BGPattern" patternUnits="userSpaceOnUse" alignment="0 0" imageRepeat="None" />
    <mask fill="white" id="Clip1904">
      <path d="M 23.405786875 7.0402258398437505  C 20.0606916015625 1.2392378417968746  12.629498945312502 -0.7508821484375003  6.807339443359375 2.5942131250000005  C 1.0063514453124998 5.9393083984375  -0.9837685449218752 13.3705010546875  2.3613267578125 19.192660556640625  C 5.727593505859374 24.9936485546875  13.137614687499998 27.004940019531247  18.95977416015625 23.6386732421875  C 24.781933632812503 20.27240646484375  26.7508821484375 12.8623853125  23.405786875 7.0402258398437505  Z M 23.702187724609377 6.849682421874996  C 27.153140429687497 12.841213837890622  25.099506015625 20.484121386718744  19.129146074218752 23.93507409179687  C 13.158786162109378 27.386026796874997  5.515878613281251 25.332392382812497  2.0649259082031275 19.36203247070312  C -1.3860267968749975 13.370501054687498  0.6676076171875023 5.727593505859372  6.637967529296878 2.276640800781246  C 12.608327441406253 -1.1743119042968788  20.25123499023438 0.879322509765621  23.702187724609377 6.849682421874996  Z " fill-rule="evenodd" />
    </mask>
  </defs>
  <g transform="matrix(1 0 0 1 -139 -362 )">
    <path d="M 23.405786875 7.0402258398437505  C 20.0606916015625 1.2392378417968746  12.629498945312502 -0.7508821484375003  6.807339443359375 2.5942131250000005  C 1.0063514453124998 5.9393083984375  -0.9837685449218752 13.3705010546875  2.3613267578125 19.192660556640625  C 5.727593505859374 24.9936485546875  13.137614687499998 27.004940019531247  18.95977416015625 23.6386732421875  C 24.781933632812503 20.27240646484375  26.7508821484375 12.8623853125  23.405786875 7.0402258398437505  Z M 23.702187724609377 6.849682421874996  C 27.153140429687497 12.841213837890622  25.099506015625 20.484121386718744  19.129146074218752 23.93507409179687  C 13.158786162109378 27.386026796874997  5.515878613281251 25.332392382812497  2.0649259082031275 19.36203247070312  C -1.3860267968749975 13.370501054687498  0.6676076171875023 5.727593505859372  6.637967529296878 2.276640800781246  C 12.608327441406253 -1.1743119042968788  20.25123499023438 0.879322509765621  23.702187724609377 6.849682421874996  Z " fill-rule="nonzero" fill="rgba(255, 74, 74, 1)" stroke="none" transform="matrix(1 0 0 1 139 362 )" class="fill" />
    <path d="M 23.405786875 7.0402258398437505  C 20.0606916015625 1.2392378417968746  12.629498945312502 -0.7508821484375003  6.807339443359375 2.5942131250000005  C 1.0063514453124998 5.9393083984375  -0.9837685449218752 13.3705010546875  2.3613267578125 19.192660556640625  C 5.727593505859374 24.9936485546875  13.137614687499998 27.004940019531247  18.95977416015625 23.6386732421875  C 24.781933632812503 20.27240646484375  26.7508821484375 12.8623853125  23.405786875 7.0402258398437505  Z " stroke-width="0" stroke-dasharray="0" stroke="rgba(255, 255, 255, 0)" fill="none" transform="matrix(1 0 0 1 139 362 )" class="stroke" mask="url(#Clip1904)" />
    <path d="M 23.702187724609377 6.849682421874996  C 27.153140429687497 12.841213837890622  25.099506015625 20.484121386718744  19.129146074218752 23.93507409179687  C 13.158786162109378 27.386026796874997  5.515878613281251 25.332392382812497  2.0649259082031275 19.36203247070312  C -1.3860267968749975 13.370501054687498  0.6676076171875023 5.727593505859372  6.637967529296878 2.276640800781246  C 12.608327441406253 -1.1743119042968788  20.25123499023438 0.879322509765621  23.702187724609377 6.849682421874996  Z " stroke-width="0" stroke-dasharray="0" stroke="rgba(255, 255, 255, 0)" fill="none" transform="matrix(1 0 0 1 139 362 )" class="stroke" mask="url(#Clip1904)" />
  </g>
</svg>