<?xml version="1.0" encoding="utf-8"?>
<svg version="1.1" xmlns:xlink="http://www.w3.org/1999/xlink" width="145px" height="233px" xmlns="http://www.w3.org/2000/svg">
  <defs>
    <linearGradient gradientUnits="userSpaceOnUse" x1="72.5" y1="0" x2="72.5" y2="233" id="LinearGradient3496">
      <stop id="Stop3497" stop-color="#000000" offset="0" />
      <stop id="Stop3498" stop-color="#333333" stop-opacity="0" offset="1" />
    </linearGradient>
    <pattern id="BGPattern" patternUnits="userSpaceOnUse" alignment="0 0" imageRepeat="None" />
    <mask fill="white" id="Clip3499">
      <path d="M 0 228  L 0 5  C 0 2.1999999999999997  2.1999999999999997 0  5 0  L 140 0  C 142.8 0  145 2.1999999999999997  145 5  L 145 228  C 145 230.79999999999998  142.8 233  140 233  L 5 233  C 2.1999999999999997 233  0 230.79999999999998  0 228  Z " fill-rule="evenodd" />
    </mask>
  </defs>
  <g transform="matrix(1 0 0 1 -30 -326 )">
    <path d="M 0 228  L 0 5  C 0 2.1999999999999997  2.1999999999999997 0  5 0  L 140 0  C 142.8 0  145 2.1999999999999997  145 5  L 145 228  C 145 230.79999999999998  142.8 233  140 233  L 5 233  C 2.1999999999999997 233  0 230.79999999999998  0 228  Z " fill-rule="nonzero" fill="url(#LinearGradient3496)" stroke="none" transform="matrix(1 0 0 1 30 326 )" class="fill" />
    <path d="M 0 228  L 0 5  C 0 2.1999999999999997  2.1999999999999997 0  5 0  L 140 0  C 142.8 0  145 2.1999999999999997  145 5  L 145 228  C 145 230.79999999999998  142.8 233  140 233  L 5 233  C 2.1999999999999997 233  0 230.79999999999998  0 228  Z " stroke-width="0" stroke-dasharray="0" stroke="rgba(121, 121, 121, 1)" fill="none" transform="matrix(1 0 0 1 30 326 )" class="stroke" mask="url(#Clip3499)" />
  </g>
</svg>