<?xml version="1.0" encoding="utf-8"?>
<svg version="1.1" xmlns:xlink="http://www.w3.org/1999/xlink" width="30px" height="30px" xmlns="http://www.w3.org/2000/svg">
  <defs>
    <pattern id="BGPattern" patternUnits="userSpaceOnUse" alignment="0 0" imageRepeat="None" />
    <mask fill="white" id="Clip3890">
      <path d="M 20.070571640625 27.755822167968745  C 20.515172900390624 27.332392382812497  21.00211716796875 26.951305576171873  21.531404384765622 26.633733251953124  C 22.08186310546875 26.337332402343748  22.653493300781246 26.10444603515625  23.246295 25.93507409179687  C 23.796753720703123 25.765702177734372  24.3260409375 25.55398728515625  24.855328154296874 25.278757939453122  C 25.109386025390624 25.130557529296873  25.342272392578124 24.940014111328125  25.55398728515625 24.72829921875  C 26.12561748046875 24.093154541015622  26.337332373046873 23.161609013671875  26.549047294921873 22.251234990234373  C 26.718419208984376 21.044460117187498  27.22653495117187 19.92237120117187  27.98870853515625 18.990825673828123  C 28.539167255859372 18.2074805859375  29.06845447265625 17.466478447265622  29.153140429687497 16.619618906249997  C 29.237826386718748 15.793930839843748  28.877911083984372 14.947071269531248  28.496824277343748 14.079040224609374  C 28.242766406250002 13.528581503906247  28.031051513671876 12.956951308593748  27.882851103515623 12.364149609374998  C 27.776993671875 11.792519414062498  27.734650693359374 11.199717714843747  27.75582216796875 10.606916015624998  C 27.75582216796875 9.675370488281247  27.734650693359374 8.722653486328122  27.290049404296877 7.960479873046873  C 26.845448115234376 7.198306259765625  26.019760048828125 6.711362021484374  25.215243486328127 6.2455892871093734  C 24.707127744140625 5.970359941406248  24.220183505859378 5.631616113281249  23.754410712890625 5.250529277343749  C 23.309809453125002 4.827099492187499  22.928722646484374 4.361326728515624  22.56880734375 3.853211015624999  C 21.997177148437498 3.091037402343749  21.44671842773437 2.3712067675781237  20.684544814453126 2.0112914648437483  C 19.943542705078126 1.6513761621093737  19.05434015625 1.7360621191406236  18.080451650390625 1.8419195507812485  C 16.89484825195312 2.032462939453124  15.666901904296873 1.8842625292968735  14.54481298828125 1.4396612695312487  C 13.655610439453124 1.1644319238281238  12.745236416015624 0.8892025488281237  11.898376845703124 1.0585744628906235  C 11.601975996093751 1.1220889160156235  11.326746650390625 1.2279463769531236  11.072688779296874 1.3973182910156234  C 10.585744541015623 1.7148906152343735  10.11997177734375 2.0536344433593734  9.696541992187498 2.455892724609374  C 8.807339443359373 3.345095273437499  7.706422031249998 3.9802399511718733  6.499647128906249 4.297812275390624  C 5.949188408203123 4.467184189453124  5.4199011914062485 4.678899082031249  4.890613974609374 4.954128427734374  C 4.636556103515624 5.1023288378906235  4.4036697363281245 5.292872255859374  4.191954843749999 5.504587148437499  C 3.6203246484374985 6.139731826171874  3.4086097558593735 7.071277353515624  3.196894833984374 7.981651376953124  C 3.091037402343749 8.574453076171874  2.921665488281249 9.146083271484375  2.6887791210937486 9.6965419921875  C 2.413549775390624 10.247000712890625  2.095977421874999 10.755116455078126  1.7360620898437489 11.242060693359376  C 1.185603369140624 12.02540578125  0.6563161523437488 12.766407919921875  0.5716301953124989 13.6132674609375  C 0.4869442382812489 14.46012703125  0.8468595410156239 15.285815097656249  1.2279463769531238 16.153846142578125  C 1.4820042480468751 16.704304863281248  1.693719111328125 17.275935087890623  1.84191955078125 17.8687367578125  C 1.9477769824218751 18.440366953125  1.9901199609375 19.03316865234375  1.9689484863281252 19.625970351562497  C 1.9689484863281252 20.557515878906248  1.9901199609375 21.510232880859373  2.43472125 22.272406494140622  C 2.8793225390625 23.034580107421874  3.70501060546875 23.521524345703124  4.50952716796875 23.987297109375  C 5.01764291015625 24.262526455078124  5.5045871484374995 24.601270283203124  5.970359912109375 24.98235708984375  C 6.414961171875 25.405786874999997  6.796047978515625 25.871559638671872  7.155963310546875 26.37967538085937  C 7.727593505859375 27.14184899414062  8.2780522265625 27.88285110351562  9.04022583984375 28.22159493164062  C 9.823570927734375 28.56033875976562  10.7127734765625 28.47565280273437  11.686661953125 28.390966845703122  C 12.872265351562499 28.20042345703125  14.100211699218749 28.327452392578124  15.243472119140625 28.772053623046872  C 16.13267466796875 29.047282968749997  17.0218771875 29.343683818359374  17.88990826171875 29.153140429687497  C 18.186309111328125 29.089625976562495  18.461538457031253 28.983768515624995  18.715596328125 28.814396601562496  C 19.202540566406253 28.51799575195312  19.668313330078124 28.158080449218748  20.070571640625 27.755822167968745  Z M 25.829216660156245 24.982357089843752  C 25.596330292968744 25.194071982421878  25.321100917968742 25.405786875000004  25.024700068359376 25.5751587890625  C 24.4954128515625 25.850388134765623  23.944954130859376 26.08327453125  23.373323935546875 26.2526464453125  C 22.208892041015623 26.549047294921877  21.150317578124998 27.163020468750002  20.303458007812498 28.031051513671876  C 19.858856748046875 28.433309794921875  19.393083984374996 28.8143966015625  18.884968242187497 29.131968955078126  C 18.588567392578124 29.301340869140628  18.29216654296875 29.428369804687502  17.95342271484375 29.4918842578125  C 17.0218771875 29.682427646484378  16.069160185546878 29.38602682617188  15.137614687499998 29.089625976562502  C 14.587155966796873 28.89908258789063  14.036697246093748 28.7508821484375  13.465067050781249 28.68736766601563  C 12.893436855468748 28.645024687500005  12.300635156249998 28.66619619140625  11.729004931640624 28.7508821484375  C 10.776287929687498 28.835568105468752  9.781227949218747 28.941425537109378  8.913196904296873 28.560338730468754  C 8.066337333984373 28.17925192382813  7.473535634765623 27.37473533203125  6.901905439453123 26.61256174804688  C 6.563161611328123 26.12561750976563  6.182074804687498 25.68101622070313  5.758645019531248 25.27875793945313  C 5.335215234374998 24.918842636718754  4.848270996093747 24.60127028320313  4.361326757812498 24.326040937500004  C 3.514467187499998 23.839096699218754  2.646436142578123 23.330980957031258  2.159491874999998 22.484121386718755  C 1.6725476074218728 21.637261816406255  1.6725476367187477 20.621030361328128  1.651376132812498 19.647141855468757  C 1.672547607421873 19.075511660156256  1.630204658203123 18.525052939453133  1.524347226562498 17.953422714843757  C 1.376146816406248 17.381792519531256  1.185603398437498 16.83133379882813  0.9315455273437481 16.302046582031256  C 0.550458720703123 15.41284403320313  0.169371914062498 14.50247000976563  0.25405787109374806 13.57092448242188  C 0.3599153027343731 12.63937895507813  0.9315455273437481 11.81369088867188  1.482004248046873 11.030345800781255  C 1.841919550781248 10.564573037109382  2.138320400390623 10.07762879882813  2.392378271484373 9.54834155273438  C 2.604093164062498 9.019054335937506  2.773465078124998 8.46859561523438  2.858151035156248 7.89696541992188  C 3.069865927734373 6.944248417968756  3.281580820312498 5.970359912109381  3.916725468749998 5.250529277343755  C 4.149611835937497 4.996471406250006  4.403669707031248 4.805928017578131  4.700070585937498 4.63655610351563  C 5.229357802734373 4.361326757812505  5.779816523437498 4.12844036132813  6.372618193359372 3.9590684472656306  C 7.537050087890623 3.662667597656256  8.595624550781247 3.0486944238281306  9.442484121093747 2.1806633789062557  C 9.887085380859373 1.7784050976562555  10.352858144531247 1.3973182910156305  10.860973886718748 1.0797459375000056  C 11.157374736328121 0.9103740234375056  11.453775585937498 0.7833450878906307  11.792519414062498 0.7198306347656307  C 12.72406494140625 0.5292872460937557  13.676781943359371 0.8256880664062557  14.608327441406248 1.1220889160156307  C 15.15878616210937 1.3126323046875057  15.709244882812497 1.4608327441406306  16.280875078124996 1.5455187011718807  C 16.8525052734375 1.5878616796875058  17.445306972656248 1.5666901757812557  18.01693719726562 1.4820042480468807  C 18.969654199218745 1.3973182910156308  19.964714179687494 1.2914608593750057  20.832745224609372 1.6725476367187557  C 21.679604794921875 2.0536344433593805  22.272406494140622 2.8369795312500057  22.84403668945312 3.620324619140631  C 23.18278051757812 4.1072688574218805  23.563867324218744 4.55187014648438  23.987297109374996 4.954128427734381  C 24.43189836914062 5.314043730468756  24.897671132812498 5.631616083984381  25.384615371093744 5.906845458984381  C 26.231474941406244 6.393789697265631  27.09950598632812 6.901905439453132  27.586450253906246 7.769936484375005  C 28.073394492187496 8.616796054687505  28.094565996093745 9.63302750976563  28.094565996093745 10.606916015625007  C 28.07339452148437 11.178546210937506  28.115737470703124 11.729004931640631  28.22159493164062 12.300635156250006  C 28.369795341796873 12.872265351562506  28.56033875976562 13.42272407226563  28.814396601562496 13.952011289062506  C 29.19548340820312 14.841213837890631  29.576570214843745 15.75158786132813  29.491884257812494 16.68313338867188  C 29.38602682617187 17.614678916015627  28.814396601562496 18.440366982421878  28.263937910156244 19.223712070312505  C 27.90402260742187 19.68948483398438  27.607621757812495 20.17642907226563  27.353563857421868 20.705716289062504  C 27.141848964843742 21.23500350585938  26.972477050781244 21.785462226562505  26.887791093749993 22.35709245117188  C 26.67607620117187 23.309809453125006  26.464361308593745 24.28369795898438  25.829216660156245 24.982357089843752  Z " fill-rule="evenodd" />
    </mask>
  </defs>
  <g transform="matrix(1 0 0 1 -137 -360 )">
    <path d="M 20.070571640625 27.755822167968745  C 20.515172900390624 27.332392382812497  21.00211716796875 26.951305576171873  21.531404384765622 26.633733251953124  C 22.08186310546875 26.337332402343748  22.653493300781246 26.10444603515625  23.246295 25.93507409179687  C 23.796753720703123 25.765702177734372  24.3260409375 25.55398728515625  24.855328154296874 25.278757939453122  C 25.109386025390624 25.130557529296873  25.342272392578124 24.940014111328125  25.55398728515625 24.72829921875  C 26.12561748046875 24.093154541015622  26.337332373046873 23.161609013671875  26.549047294921873 22.251234990234373  C 26.718419208984376 21.044460117187498  27.22653495117187 19.92237120117187  27.98870853515625 18.990825673828123  C 28.539167255859372 18.2074805859375  29.06845447265625 17.466478447265622  29.153140429687497 16.619618906249997  C 29.237826386718748 15.793930839843748  28.877911083984372 14.947071269531248  28.496824277343748 14.079040224609374  C 28.242766406250002 13.528581503906247  28.031051513671876 12.956951308593748  27.882851103515623 12.364149609374998  C 27.776993671875 11.792519414062498  27.734650693359374 11.199717714843747  27.75582216796875 10.606916015624998  C 27.75582216796875 9.675370488281247  27.734650693359374 8.722653486328122  27.290049404296877 7.960479873046873  C 26.845448115234376 7.198306259765625  26.019760048828125 6.711362021484374  25.215243486328127 6.2455892871093734  C 24.707127744140625 5.970359941406248  24.220183505859378 5.631616113281249  23.754410712890625 5.250529277343749  C 23.309809453125002 4.827099492187499  22.928722646484374 4.361326728515624  22.56880734375 3.853211015624999  C 21.997177148437498 3.091037402343749  21.44671842773437 2.3712067675781237  20.684544814453126 2.0112914648437483  C 19.943542705078126 1.6513761621093737  19.05434015625 1.7360621191406236  18.080451650390625 1.8419195507812485  C 16.89484825195312 2.032462939453124  15.666901904296873 1.8842625292968735  14.54481298828125 1.4396612695312487  C 13.655610439453124 1.1644319238281238  12.745236416015624 0.8892025488281237  11.898376845703124 1.0585744628906235  C 11.601975996093751 1.1220889160156235  11.326746650390625 1.2279463769531236  11.072688779296874 1.3973182910156234  C 10.585744541015623 1.7148906152343735  10.11997177734375 2.0536344433593734  9.696541992187498 2.455892724609374  C 8.807339443359373 3.345095273437499  7.706422031249998 3.9802399511718733  6.499647128906249 4.297812275390624  C 5.949188408203123 4.467184189453124  5.4199011914062485 4.678899082031249  4.890613974609374 4.954128427734374  C 4.636556103515624 5.1023288378906235  4.4036697363281245 5.292872255859374  4.191954843749999 5.504587148437499  C 3.6203246484374985 6.139731826171874  3.4086097558593735 7.071277353515624  3.196894833984374 7.981651376953124  C 3.091037402343749 8.574453076171874  2.921665488281249 9.146083271484375  2.6887791210937486 9.6965419921875  C 2.413549775390624 10.247000712890625  2.095977421874999 10.755116455078126  1.7360620898437489 11.242060693359376  C 1.185603369140624 12.02540578125  0.6563161523437488 12.766407919921875  0.5716301953124989 13.6132674609375  C 0.4869442382812489 14.46012703125  0.8468595410156239 15.285815097656249  1.2279463769531238 16.153846142578125  C 1.4820042480468751 16.704304863281248  1.693719111328125 17.275935087890623  1.84191955078125 17.8687367578125  C 1.9477769824218751 18.440366953125  1.9901199609375 19.03316865234375  1.9689484863281252 19.625970351562497  C 1.9689484863281252 20.557515878906248  1.9901199609375 21.510232880859373  2.43472125 22.272406494140622  C 2.8793225390625 23.034580107421874  3.70501060546875 23.521524345703124  4.50952716796875 23.987297109375  C 5.01764291015625 24.262526455078124  5.5045871484374995 24.601270283203124  5.970359912109375 24.98235708984375  C 6.414961171875 25.405786874999997  6.796047978515625 25.871559638671872  7.155963310546875 26.37967538085937  C 7.727593505859375 27.14184899414062  8.2780522265625 27.88285110351562  9.04022583984375 28.22159493164062  C 9.823570927734375 28.56033875976562  10.7127734765625 28.47565280273437  11.686661953125 28.390966845703122  C 12.872265351562499 28.20042345703125  14.100211699218749 28.327452392578124  15.243472119140625 28.772053623046872  C 16.13267466796875 29.047282968749997  17.0218771875 29.343683818359374  17.88990826171875 29.153140429687497  C 18.186309111328125 29.089625976562495  18.461538457031253 28.983768515624995  18.715596328125 28.814396601562496  C 19.202540566406253 28.51799575195312  19.668313330078124 28.158080449218748  20.070571640625 27.755822167968745  Z M 25.829216660156245 24.982357089843752  C 25.596330292968744 25.194071982421878  25.321100917968742 25.405786875000004  25.024700068359376 25.5751587890625  C 24.4954128515625 25.850388134765623  23.944954130859376 26.08327453125  23.373323935546875 26.2526464453125  C 22.208892041015623 26.549047294921877  21.150317578124998 27.163020468750002  20.303458007812498 28.031051513671876  C 19.858856748046875 28.433309794921875  19.393083984374996 28.8143966015625  18.884968242187497 29.131968955078126  C 18.588567392578124 29.301340869140628  18.29216654296875 29.428369804687502  17.95342271484375 29.4918842578125  C 17.0218771875 29.682427646484378  16.069160185546878 29.38602682617188  15.137614687499998 29.089625976562502  C 14.587155966796873 28.89908258789063  14.036697246093748 28.7508821484375  13.465067050781249 28.68736766601563  C 12.893436855468748 28.645024687500005  12.300635156249998 28.66619619140625  11.729004931640624 28.7508821484375  C 10.776287929687498 28.835568105468752  9.781227949218747 28.941425537109378  8.913196904296873 28.560338730468754  C 8.066337333984373 28.17925192382813  7.473535634765623 27.37473533203125  6.901905439453123 26.61256174804688  C 6.563161611328123 26.12561750976563  6.182074804687498 25.68101622070313  5.758645019531248 25.27875793945313  C 5.335215234374998 24.918842636718754  4.848270996093747 24.60127028320313  4.361326757812498 24.326040937500004  C 3.514467187499998 23.839096699218754  2.646436142578123 23.330980957031258  2.159491874999998 22.484121386718755  C 1.6725476074218728 21.637261816406255  1.6725476367187477 20.621030361328128  1.651376132812498 19.647141855468757  C 1.672547607421873 19.075511660156256  1.630204658203123 18.525052939453133  1.524347226562498 17.953422714843757  C 1.376146816406248 17.381792519531256  1.185603398437498 16.83133379882813  0.9315455273437481 16.302046582031256  C 0.550458720703123 15.41284403320313  0.169371914062498 14.50247000976563  0.25405787109374806 13.57092448242188  C 0.3599153027343731 12.63937895507813  0.9315455273437481 11.81369088867188  1.482004248046873 11.030345800781255  C 1.841919550781248 10.564573037109382  2.138320400390623 10.07762879882813  2.392378271484373 9.54834155273438  C 2.604093164062498 9.019054335937506  2.773465078124998 8.46859561523438  2.858151035156248 7.89696541992188  C 3.069865927734373 6.944248417968756  3.281580820312498 5.970359912109381  3.916725468749998 5.250529277343755  C 4.149611835937497 4.996471406250006  4.403669707031248 4.805928017578131  4.700070585937498 4.63655610351563  C 5.229357802734373 4.361326757812505  5.779816523437498 4.12844036132813  6.372618193359372 3.9590684472656306  C 7.537050087890623 3.662667597656256  8.595624550781247 3.0486944238281306  9.442484121093747 2.1806633789062557  C 9.887085380859373 1.7784050976562555  10.352858144531247 1.3973182910156305  10.860973886718748 1.0797459375000056  C 11.157374736328121 0.9103740234375056  11.453775585937498 0.7833450878906307  11.792519414062498 0.7198306347656307  C 12.72406494140625 0.5292872460937557  13.676781943359371 0.8256880664062557  14.608327441406248 1.1220889160156307  C 15.15878616210937 1.3126323046875057  15.709244882812497 1.4608327441406306  16.280875078124996 1.5455187011718807  C 16.8525052734375 1.5878616796875058  17.445306972656248 1.5666901757812557  18.01693719726562 1.4820042480468807  C 18.969654199218745 1.3973182910156308  19.964714179687494 1.2914608593750057  20.832745224609372 1.6725476367187557  C 21.679604794921875 2.0536344433593805  22.272406494140622 2.8369795312500057  22.84403668945312 3.620324619140631  C 23.18278051757812 4.1072688574218805  23.563867324218744 4.55187014648438  23.987297109374996 4.954128427734381  C 24.43189836914062 5.314043730468756  24.897671132812498 5.631616083984381  25.384615371093744 5.906845458984381  C 26.231474941406244 6.393789697265631  27.09950598632812 6.901905439453132  27.586450253906246 7.769936484375005  C 28.073394492187496 8.616796054687505  28.094565996093745 9.63302750976563  28.094565996093745 10.606916015625007  C 28.07339452148437 11.178546210937506  28.115737470703124 11.729004931640631  28.22159493164062 12.300635156250006  C 28.369795341796873 12.872265351562506  28.56033875976562 13.42272407226563  28.814396601562496 13.952011289062506  C 29.19548340820312 14.841213837890631  29.576570214843745 15.75158786132813  29.491884257812494 16.68313338867188  C 29.38602682617187 17.614678916015627  28.814396601562496 18.440366982421878  28.263937910156244 19.223712070312505  C 27.90402260742187 19.68948483398438  27.607621757812495 20.17642907226563  27.353563857421868 20.705716289062504  C 27.141848964843742 21.23500350585938  26.972477050781244 21.785462226562505  26.887791093749993 22.35709245117188  C 26.67607620117187 23.309809453125006  26.464361308593745 24.28369795898438  25.829216660156245 24.982357089843752  Z " fill-rule="nonzero" fill="rgba(255, 74, 74, 1)" stroke="none" transform="matrix(1 0 0 1 137 360 )" class="fill" />
    <path d="M 20.070571640625 27.755822167968745  C 20.515172900390624 27.332392382812497  21.00211716796875 26.951305576171873  21.531404384765622 26.633733251953124  C 22.08186310546875 26.337332402343748  22.653493300781246 26.10444603515625  23.246295 25.93507409179687  C 23.796753720703123 25.765702177734372  24.3260409375 25.55398728515625  24.855328154296874 25.278757939453122  C 25.109386025390624 25.130557529296873  25.342272392578124 24.940014111328125  25.55398728515625 24.72829921875  C 26.12561748046875 24.093154541015622  26.337332373046873 23.161609013671875  26.549047294921873 22.251234990234373  C 26.718419208984376 21.044460117187498  27.22653495117187 19.92237120117187  27.98870853515625 18.990825673828123  C 28.539167255859372 18.2074805859375  29.06845447265625 17.466478447265622  29.153140429687497 16.619618906249997  C 29.237826386718748 15.793930839843748  28.877911083984372 14.947071269531248  28.496824277343748 14.079040224609374  C 28.242766406250002 13.528581503906247  28.031051513671876 12.956951308593748  27.882851103515623 12.364149609374998  C 27.776993671875 11.792519414062498  27.734650693359374 11.199717714843747  27.75582216796875 10.606916015624998  C 27.75582216796875 9.675370488281247  27.734650693359374 8.722653486328122  27.290049404296877 7.960479873046873  C 26.845448115234376 7.198306259765625  26.019760048828125 6.711362021484374  25.215243486328127 6.2455892871093734  C 24.707127744140625 5.970359941406248  24.220183505859378 5.631616113281249  23.754410712890625 5.250529277343749  C 23.309809453125002 4.827099492187499  22.928722646484374 4.361326728515624  22.56880734375 3.853211015624999  C 21.997177148437498 3.091037402343749  21.44671842773437 2.3712067675781237  20.684544814453126 2.0112914648437483  C 19.943542705078126 1.6513761621093737  19.05434015625 1.7360621191406236  18.080451650390625 1.8419195507812485  C 16.89484825195312 2.032462939453124  15.666901904296873 1.8842625292968735  14.54481298828125 1.4396612695312487  C 13.655610439453124 1.1644319238281238  12.745236416015624 0.8892025488281237  11.898376845703124 1.0585744628906235  C 11.601975996093751 1.1220889160156235  11.326746650390625 1.2279463769531236  11.072688779296874 1.3973182910156234  C 10.585744541015623 1.7148906152343735  10.11997177734375 2.0536344433593734  9.696541992187498 2.455892724609374  C 8.807339443359373 3.345095273437499  7.706422031249998 3.9802399511718733  6.499647128906249 4.297812275390624  C 5.949188408203123 4.467184189453124  5.4199011914062485 4.678899082031249  4.890613974609374 4.954128427734374  C 4.636556103515624 5.1023288378906235  4.4036697363281245 5.292872255859374  4.191954843749999 5.504587148437499  C 3.6203246484374985 6.139731826171874  3.4086097558593735 7.071277353515624  3.196894833984374 7.981651376953124  C 3.091037402343749 8.574453076171874  2.921665488281249 9.146083271484375  2.6887791210937486 9.6965419921875  C 2.413549775390624 10.247000712890625  2.095977421874999 10.755116455078126  1.7360620898437489 11.242060693359376  C 1.185603369140624 12.02540578125  0.6563161523437488 12.766407919921875  0.5716301953124989 13.6132674609375  C 0.4869442382812489 14.46012703125  0.8468595410156239 15.285815097656249  1.2279463769531238 16.153846142578125  C 1.4820042480468751 16.704304863281248  1.693719111328125 17.275935087890623  1.84191955078125 17.8687367578125  C 1.9477769824218751 18.440366953125  1.9901199609375 19.03316865234375  1.9689484863281252 19.625970351562497  C 1.9689484863281252 20.557515878906248  1.9901199609375 21.510232880859373  2.43472125 22.272406494140622  C 2.8793225390625 23.034580107421874  3.70501060546875 23.521524345703124  4.50952716796875 23.987297109375  C 5.01764291015625 24.262526455078124  5.5045871484374995 24.601270283203124  5.970359912109375 24.98235708984375  C 6.414961171875 25.405786874999997  6.796047978515625 25.871559638671872  7.155963310546875 26.37967538085937  C 7.727593505859375 27.14184899414062  8.2780522265625 27.88285110351562  9.04022583984375 28.22159493164062  C 9.823570927734375 28.56033875976562  10.7127734765625 28.47565280273437  11.686661953125 28.390966845703122  C 12.872265351562499 28.20042345703125  14.100211699218749 28.327452392578124  15.243472119140625 28.772053623046872  C 16.13267466796875 29.047282968749997  17.0218771875 29.343683818359374  17.88990826171875 29.153140429687497  C 18.186309111328125 29.089625976562495  18.461538457031253 28.983768515624995  18.715596328125 28.814396601562496  C 19.202540566406253 28.51799575195312  19.668313330078124 28.158080449218748  20.070571640625 27.755822167968745  Z " stroke-width="0" stroke-dasharray="0" stroke="rgba(255, 255, 255, 0)" fill="none" transform="matrix(1 0 0 1 137 360 )" class="stroke" mask="url(#Clip3890)" />
    <path d="M 25.829216660156245 24.982357089843752  C 25.596330292968744 25.194071982421878  25.321100917968742 25.405786875000004  25.024700068359376 25.5751587890625  C 24.4954128515625 25.850388134765623  23.944954130859376 26.08327453125  23.373323935546875 26.2526464453125  C 22.208892041015623 26.549047294921877  21.150317578124998 27.163020468750002  20.303458007812498 28.031051513671876  C 19.858856748046875 28.433309794921875  19.393083984374996 28.8143966015625  18.884968242187497 29.131968955078126  C 18.588567392578124 29.301340869140628  18.29216654296875 29.428369804687502  17.95342271484375 29.4918842578125  C 17.0218771875 29.682427646484378  16.069160185546878 29.38602682617188  15.137614687499998 29.089625976562502  C 14.587155966796873 28.89908258789063  14.036697246093748 28.7508821484375  13.465067050781249 28.68736766601563  C 12.893436855468748 28.645024687500005  12.300635156249998 28.66619619140625  11.729004931640624 28.7508821484375  C 10.776287929687498 28.835568105468752  9.781227949218747 28.941425537109378  8.913196904296873 28.560338730468754  C 8.066337333984373 28.17925192382813  7.473535634765623 27.37473533203125  6.901905439453123 26.61256174804688  C 6.563161611328123 26.12561750976563  6.182074804687498 25.68101622070313  5.758645019531248 25.27875793945313  C 5.335215234374998 24.918842636718754  4.848270996093747 24.60127028320313  4.361326757812498 24.326040937500004  C 3.514467187499998 23.839096699218754  2.646436142578123 23.330980957031258  2.159491874999998 22.484121386718755  C 1.6725476074218728 21.637261816406255  1.6725476367187477 20.621030361328128  1.651376132812498 19.647141855468757  C 1.672547607421873 19.075511660156256  1.630204658203123 18.525052939453133  1.524347226562498 17.953422714843757  C 1.376146816406248 17.381792519531256  1.185603398437498 16.83133379882813  0.9315455273437481 16.302046582031256  C 0.550458720703123 15.41284403320313  0.169371914062498 14.50247000976563  0.25405787109374806 13.57092448242188  C 0.3599153027343731 12.63937895507813  0.9315455273437481 11.81369088867188  1.482004248046873 11.030345800781255  C 1.841919550781248 10.564573037109382  2.138320400390623 10.07762879882813  2.392378271484373 9.54834155273438  C 2.604093164062498 9.019054335937506  2.773465078124998 8.46859561523438  2.858151035156248 7.89696541992188  C 3.069865927734373 6.944248417968756  3.281580820312498 5.970359912109381  3.916725468749998 5.250529277343755  C 4.149611835937497 4.996471406250006  4.403669707031248 4.805928017578131  4.700070585937498 4.63655610351563  C 5.229357802734373 4.361326757812505  5.779816523437498 4.12844036132813  6.372618193359372 3.9590684472656306  C 7.537050087890623 3.662667597656256  8.595624550781247 3.0486944238281306  9.442484121093747 2.1806633789062557  C 9.887085380859373 1.7784050976562555  10.352858144531247 1.3973182910156305  10.860973886718748 1.0797459375000056  C 11.157374736328121 0.9103740234375056  11.453775585937498 0.7833450878906307  11.792519414062498 0.7198306347656307  C 12.72406494140625 0.5292872460937557  13.676781943359371 0.8256880664062557  14.608327441406248 1.1220889160156307  C 15.15878616210937 1.3126323046875057  15.709244882812497 1.4608327441406306  16.280875078124996 1.5455187011718807  C 16.8525052734375 1.5878616796875058  17.445306972656248 1.5666901757812557  18.01693719726562 1.4820042480468807  C 18.969654199218745 1.3973182910156308  19.964714179687494 1.2914608593750057  20.832745224609372 1.6725476367187557  C 21.679604794921875 2.0536344433593805  22.272406494140622 2.8369795312500057  22.84403668945312 3.620324619140631  C 23.18278051757812 4.1072688574218805  23.563867324218744 4.55187014648438  23.987297109374996 4.954128427734381  C 24.43189836914062 5.314043730468756  24.897671132812498 5.631616083984381  25.384615371093744 5.906845458984381  C 26.231474941406244 6.393789697265631  27.09950598632812 6.901905439453132  27.586450253906246 7.769936484375005  C 28.073394492187496 8.616796054687505  28.094565996093745 9.63302750976563  28.094565996093745 10.606916015625007  C 28.07339452148437 11.178546210937506  28.115737470703124 11.729004931640631  28.22159493164062 12.300635156250006  C 28.369795341796873 12.872265351562506  28.56033875976562 13.42272407226563  28.814396601562496 13.952011289062506  C 29.19548340820312 14.841213837890631  29.576570214843745 15.75158786132813  29.491884257812494 16.68313338867188  C 29.38602682617187 17.614678916015627  28.814396601562496 18.440366982421878  28.263937910156244 19.223712070312505  C 27.90402260742187 19.68948483398438  27.607621757812495 20.17642907226563  27.353563857421868 20.705716289062504  C 27.141848964843742 21.23500350585938  26.972477050781244 21.785462226562505  26.887791093749993 22.35709245117188  C 26.67607620117187 23.309809453125006  26.464361308593745 24.28369795898438  25.829216660156245 24.982357089843752  Z " stroke-width="0" stroke-dasharray="0" stroke="rgba(255, 255, 255, 0)" fill="none" transform="matrix(1 0 0 1 137 360 )" class="stroke" mask="url(#Clip3890)" />
  </g>
</svg>