<?xml version="1.0" encoding="utf-8"?>
<svg version="1.1" xmlns:xlink="http://www.w3.org/1999/xlink" width="18px" height="18px" xmlns="http://www.w3.org/2000/svg">
  <defs>
    <pattern id="BGPattern" patternUnits="userSpaceOnUse" alignment="0 0" imageRepeat="None" />
    <mask fill="white" id="Clip4434">
      <path d="M 9 17.75  C 13.832491561019443 17.75  17.75 13.832491561019443  17.75 9  C 17.75 4.167508438980557  13.832491561019443 0.24999999999999956  9 0.24999999999999956  C 4.167508438980557 0.24999999999999956  0.24999999999999956 4.167508438980557  0.24999999999999956 9  C 0.24999999999999956 13.832491561019443  4.167508438980557 17.75  9 17.75  Z M 12.80125 4.324936865465882  C 13.033329898382954 4.324936865465882  13.255903103007784 4.417136357572053  13.42 4.581249999999999  C 13.584113642427942 4.745346896992216  13.676313134534118 4.967920101617047  13.676313134534118 5.199999999999999  C 13.676313134534118 5.432079898382954  13.584113642427944 5.654653103007782  13.42 5.81875  L 10.23875 9.001249999999999  L 13.42 12.1825  C 13.584102703088215 12.346602703088218  13.676294641718354 12.569173731670556  13.676294641718354 12.80125  C 13.676294641718354 13.284523811042195  13.284523811042195 13.676294641718354  12.80125 13.676294641718354  C 12.569173731670553 13.676294641718354  12.346602703088218 13.584102703088217  12.1825 13.42  L 9.001249999999999 10.23875  L 5.818749999999998 13.42  C 5.654647296911782 13.584102703088215  5.432076268329442 13.676294641718354  5.199999999999999 13.676294641718354  C 4.716726188957802 13.676294641718354  4.324955358281647 13.284523811042195  4.324955358281647 12.80125  C 4.324955358281647 12.569173731670556  4.417147296911782 12.346602703088218  4.58125 12.1825  L 7.763749999999998 9.001249999999999  L 4.581249999999999 5.818749999999998  C 4.417147296911782 5.654647296911782  4.324955358281647 5.432076268329442  4.324955358281647 5.199999999999999  C 4.324955358281647 4.716726188957804  4.716726188957804 4.324955358281647  5.199999999999999 4.324955358281647  C 5.432076268329442 4.324955358281647  5.654647296911782 4.417147296911782  5.81875 4.58125  L 9.001249999999999 7.763749999999998  L 12.1825 4.581249999999999  C 12.346596896992216 4.417136357572053  12.569170101617045 4.324936865465882  12.80125 4.324936865465882  Z " fill-rule="evenodd" />
    </mask>
  </defs>
  <g transform="matrix(1 0 0 1 -67 -309 )">
    <path d="M 9 17.75  C 13.832491561019443 17.75  17.75 13.832491561019443  17.75 9  C 17.75 4.167508438980557  13.832491561019443 0.24999999999999956  9 0.24999999999999956  C 4.167508438980557 0.24999999999999956  0.24999999999999956 4.167508438980557  0.24999999999999956 9  C 0.24999999999999956 13.832491561019443  4.167508438980557 17.75  9 17.75  Z M 12.80125 4.324936865465882  C 13.033329898382954 4.324936865465882  13.255903103007784 4.417136357572053  13.42 4.581249999999999  C 13.584113642427942 4.745346896992216  13.676313134534118 4.967920101617047  13.676313134534118 5.199999999999999  C 13.676313134534118 5.432079898382954  13.584113642427944 5.654653103007782  13.42 5.81875  L 10.23875 9.001249999999999  L 13.42 12.1825  C 13.584102703088215 12.346602703088218  13.676294641718354 12.569173731670556  13.676294641718354 12.80125  C 13.676294641718354 13.284523811042195  13.284523811042195 13.676294641718354  12.80125 13.676294641718354  C 12.569173731670553 13.676294641718354  12.346602703088218 13.584102703088217  12.1825 13.42  L 9.001249999999999 10.23875  L 5.818749999999998 13.42  C 5.654647296911782 13.584102703088215  5.432076268329442 13.676294641718354  5.199999999999999 13.676294641718354  C 4.716726188957802 13.676294641718354  4.324955358281647 13.284523811042195  4.324955358281647 12.80125  C 4.324955358281647 12.569173731670556  4.417147296911782 12.346602703088218  4.58125 12.1825  L 7.763749999999998 9.001249999999999  L 4.581249999999999 5.818749999999998  C 4.417147296911782 5.654647296911782  4.324955358281647 5.432076268329442  4.324955358281647 5.199999999999999  C 4.324955358281647 4.716726188957804  4.716726188957804 4.324955358281647  5.199999999999999 4.324955358281647  C 5.432076268329442 4.324955358281647  5.654647296911782 4.417147296911782  5.81875 4.58125  L 9.001249999999999 7.763749999999998  L 12.1825 4.581249999999999  C 12.346596896992216 4.417136357572053  12.569170101617045 4.324936865465882  12.80125 4.324936865465882  Z " fill-rule="nonzero" fill="rgba(242, 29, 29, 1)" stroke="none" transform="matrix(1 0 0 1 67 309 )" class="fill" />
    <path d="M 9 17.75  C 13.832491561019443 17.75  17.75 13.832491561019443  17.75 9  C 17.75 4.167508438980557  13.832491561019443 0.24999999999999956  9 0.24999999999999956  C 4.167508438980557 0.24999999999999956  0.24999999999999956 4.167508438980557  0.24999999999999956 9  C 0.24999999999999956 13.832491561019443  4.167508438980557 17.75  9 17.75  Z " stroke-width="0" stroke-dasharray="0" stroke="rgba(255, 255, 255, 0)" fill="none" transform="matrix(1 0 0 1 67 309 )" class="stroke" mask="url(#Clip4434)" />
    <path d="M 12.80125 4.324936865465882  C 13.033329898382954 4.324936865465882  13.255903103007784 4.417136357572053  13.42 4.581249999999999  C 13.584113642427942 4.745346896992216  13.676313134534118 4.967920101617047  13.676313134534118 5.199999999999999  C 13.676313134534118 5.432079898382954  13.584113642427944 5.654653103007782  13.42 5.81875  L 10.23875 9.001249999999999  L 13.42 12.1825  C 13.584102703088215 12.346602703088218  13.676294641718354 12.569173731670556  13.676294641718354 12.80125  C 13.676294641718354 13.284523811042195  13.284523811042195 13.676294641718354  12.80125 13.676294641718354  C 12.569173731670553 13.676294641718354  12.346602703088218 13.584102703088217  12.1825 13.42  L 9.001249999999999 10.23875  L 5.818749999999998 13.42  C 5.654647296911782 13.584102703088215  5.432076268329442 13.676294641718354  5.199999999999999 13.676294641718354  C 4.716726188957802 13.676294641718354  4.324955358281647 13.284523811042195  4.324955358281647 12.80125  C 4.324955358281647 12.569173731670556  4.417147296911782 12.346602703088218  4.58125 12.1825  L 7.763749999999998 9.001249999999999  L 4.581249999999999 5.818749999999998  C 4.417147296911782 5.654647296911782  4.324955358281647 5.432076268329442  4.324955358281647 5.199999999999999  C 4.324955358281647 4.716726188957804  4.716726188957804 4.324955358281647  5.199999999999999 4.324955358281647  C 5.432076268329442 4.324955358281647  5.654647296911782 4.417147296911782  5.81875 4.58125  L 9.001249999999999 7.763749999999998  L 12.1825 4.581249999999999  C 12.346596896992216 4.417136357572053  12.569170101617045 4.324936865465882  12.80125 4.324936865465882  Z " stroke-width="0" stroke-dasharray="0" stroke="rgba(255, 255, 255, 0)" fill="none" transform="matrix(1 0 0 1 67 309 )" class="stroke" mask="url(#Clip4434)" />
  </g>
</svg>