<?xml version="1.0" encoding="utf-8"?>
<svg version="1.1" xmlns:xlink="http://www.w3.org/1999/xlink" width="18px" height="18px" xmlns="http://www.w3.org/2000/svg">
  <defs>
    <pattern id="BGPattern" patternUnits="userSpaceOnUse" alignment="0 0" imageRepeat="None" />
    <mask fill="white" id="Clip18246">
      <path d="M 9 0.24999999999999956  C 13.832491561019443 0.24999999999999956  17.75 4.167508438980557  17.75 9  C 17.75 13.832491561019443  13.832491561019443 17.75  9 17.75  C 4.167508438980557 17.75  0.24999999999999956 13.832491561019443  0.24999999999999956 9  C 0.24999999999999956 4.167508438980557  4.167508438980557 0.24999999999999956  9 0.24999999999999956  Z M 12.157499999999999 5.452500000000001  L 12.157499999999999 5.45125  L 8.2525 9.87875  C 8.034094465923614 10.12645063912485  7.660675890962047 10.16149285143796  7.4 9.958749999999998  L 5.5625 8.531249999999998  C 5.428249908121424 8.426987519130494  5.263106622790435 8.370391681821811  5.093124999999999 8.370391681821811  C 4.670498308307771 8.370391681821811  4.327891681821812 8.712998308307771  4.327891681821812 9.135625  C 4.327891681821812 9.37196119701898  4.437093609484491 9.595037280995712  4.623749999999999 9.74  L 7.1325 11.690000000000001  C 7.653851781924093 12.09548570287592  8.400688931847226 12.025401278249703  8.8375 11.530000000000001  L 13.306250000000002 6.465000000000002  C 13.41723353129316 6.328412765241873  13.477816291511761 6.157784270309808  13.477816291511761 5.981791608766288  C 13.477816291511761 5.558603419208442  13.134754481069606 5.215541608766287  12.711566291511762 5.215541608766287  C 12.50226615719436 5.215541608766287  12.302075275442553 5.3011575540174185  12.157499999999999 5.452500000000001  Z " fill-rule="evenodd" />
    </mask>
  </defs>
  <g transform="matrix(1 0 0 1 -171 -309 )">
    <path d="M 9 0.24999999999999956  C 13.832491561019443 0.24999999999999956  17.75 4.167508438980557  17.75 9  C 17.75 13.832491561019443  13.832491561019443 17.75  9 17.75  C 4.167508438980557 17.75  0.24999999999999956 13.832491561019443  0.24999999999999956 9  C 0.24999999999999956 4.167508438980557  4.167508438980557 0.24999999999999956  9 0.24999999999999956  Z M 12.157499999999999 5.452500000000001  L 12.157499999999999 5.45125  L 8.2525 9.87875  C 8.034094465923614 10.12645063912485  7.660675890962047 10.16149285143796  7.4 9.958749999999998  L 5.5625 8.531249999999998  C 5.428249908121424 8.426987519130494  5.263106622790435 8.370391681821811  5.093124999999999 8.370391681821811  C 4.670498308307771 8.370391681821811  4.327891681821812 8.712998308307771  4.327891681821812 9.135625  C 4.327891681821812 9.37196119701898  4.437093609484491 9.595037280995712  4.623749999999999 9.74  L 7.1325 11.690000000000001  C 7.653851781924093 12.09548570287592  8.400688931847226 12.025401278249703  8.8375 11.530000000000001  L 13.306250000000002 6.465000000000002  C 13.41723353129316 6.328412765241873  13.477816291511761 6.157784270309808  13.477816291511761 5.981791608766288  C 13.477816291511761 5.558603419208442  13.134754481069606 5.215541608766287  12.711566291511762 5.215541608766287  C 12.50226615719436 5.215541608766287  12.302075275442553 5.3011575540174185  12.157499999999999 5.452500000000001  Z " fill-rule="nonzero" fill="rgba(1, 191, 26, 1)" stroke="none" transform="matrix(1 0 0 1 171 309 )" class="fill" />
    <path d="M 9 0.24999999999999956  C 13.832491561019443 0.24999999999999956  17.75 4.167508438980557  17.75 9  C 17.75 13.832491561019443  13.832491561019443 17.75  9 17.75  C 4.167508438980557 17.75  0.24999999999999956 13.832491561019443  0.24999999999999956 9  C 0.24999999999999956 4.167508438980557  4.167508438980557 0.24999999999999956  9 0.24999999999999956  Z " stroke-width="0" stroke-dasharray="0" stroke="rgba(255, 255, 255, 0)" fill="none" transform="matrix(1 0 0 1 171 309 )" class="stroke" mask="url(#Clip18246)" />
    <path d="M 12.157499999999999 5.452500000000001  L 12.157499999999999 5.45125  L 8.2525 9.87875  C 8.034094465923614 10.12645063912485  7.660675890962047 10.16149285143796  7.4 9.958749999999998  L 5.5625 8.531249999999998  C 5.428249908121424 8.426987519130494  5.263106622790435 8.370391681821811  5.093124999999999 8.370391681821811  C 4.670498308307771 8.370391681821811  4.327891681821812 8.712998308307771  4.327891681821812 9.135625  C 4.327891681821812 9.37196119701898  4.437093609484491 9.595037280995712  4.623749999999999 9.74  L 7.1325 11.690000000000001  C 7.653851781924093 12.09548570287592  8.400688931847226 12.025401278249703  8.8375 11.530000000000001  L 13.306250000000002 6.465000000000002  C 13.41723353129316 6.328412765241873  13.477816291511761 6.157784270309808  13.477816291511761 5.981791608766288  C 13.477816291511761 5.558603419208442  13.134754481069606 5.215541608766287  12.711566291511762 5.215541608766287  C 12.50226615719436 5.215541608766287  12.302075275442553 5.3011575540174185  12.157499999999999 5.452500000000001  Z " stroke-width="0" stroke-dasharray="0" stroke="rgba(255, 255, 255, 0)" fill="none" transform="matrix(1 0 0 1 171 309 )" class="stroke" mask="url(#Clip18246)" />
  </g>
</svg>