<?xml version="1.0" encoding="utf-8"?>
<svg version="1.1" xmlns:xlink="http://www.w3.org/1999/xlink" width="360px" height="50px" xmlns="http://www.w3.org/2000/svg">
  <defs>
    <linearGradient gradientUnits="userSpaceOnUse" x1="180" y1="0" x2="180" y2="50" id="LinearGradient13971">
      <stop id="Stop13972" stop-color="#111111" stop-opacity="0.4980392156862745" offset="0" />
      <stop id="Stop13973" stop-color="#555555" stop-opacity="0" offset="1" />
    </linearGradient>
    <pattern id="BGPattern" patternUnits="userSpaceOnUse" alignment="0 0" imageRepeat="None" />
    <mask fill="white" id="Clip13974">
      <path d="M 0 50  L 0 5  C 0 2.1999999999999997  2.1999999999999993 0  5 0  L 355 0  C 357.8 0  360 2.1999999999999997  360 5  L 360 50  L 0 50  Z " fill-rule="evenodd" />
    </mask>
  </defs>
  <g transform="matrix(1 0 0 1 0 -98 )">
    <path d="M 0 50  L 0 5  C 0 2.1999999999999997  2.1999999999999993 0  5 0  L 355 0  C 357.8 0  360 2.1999999999999997  360 5  L 360 50  L 0 50  Z " fill-rule="nonzero" fill="url(#LinearGradient13971)" stroke="none" transform="matrix(1 0 0 1 0 98 )" class="fill" />
    <path d="M 0 50  L 0 5  C 0 2.1999999999999997  2.1999999999999993 0  5 0  L 355 0  C 357.8 0  360 2.1999999999999997  360 5  L 360 50  L 0 50  Z " stroke-width="0" stroke-dasharray="0" stroke="rgba(121, 121, 121, 1)" fill="none" transform="matrix(1 0 0 1 0 98 )" class="stroke" mask="url(#Clip13974)" />
  </g>
</svg>