<?xml version="1.0" encoding="utf-8"?>
<svg version="1.1" xmlns:xlink="http://www.w3.org/1999/xlink" width="30px" height="30px" xmlns="http://www.w3.org/2000/svg">
  <defs>
    <pattern id="BGPattern" patternUnits="userSpaceOnUse" alignment="0 0" imageRepeat="None" />
    <linearGradient gradientUnits="userSpaceOnUse" x1="30" y1="29.999999999999986" x2="0" y2="-1.3322676295501878E-14" id="LinearGradient3010">
      <stop id="Stop3011" stop-color="#333333" stop-opacity="0.2980392156862745" offset="0" />
      <stop id="Stop3012" stop-color="#ffffff" stop-opacity="0.09803921568627451" offset="0.53" />
      <stop id="Stop3013" stop-color="#000000" stop-opacity="0.2980392156862745" offset="1" />
    </linearGradient>
    <mask fill="white" id="Clip3014">
      <path d="M 15 30  C 6.6 30  0 23.400000000000002  0 15  C 0 6.6  6.6 0  15 0  C 23.400000000000002 0  30 6.6  30 15  C 30 23.400000000000002  23.400000000000002 30  15 30  Z " fill-rule="evenodd" />
    </mask>
  </defs>
  <g transform="matrix(1 0 0 1 -1078 -17 )">
    <path d="M 15 30  C 6.6 30  0 23.400000000000002  0 15  C 0 6.6  6.6 0  15 0  C 23.400000000000002 0  30 6.6  30 15  C 30 23.400000000000002  23.400000000000002 30  15 30  Z " fill-rule="nonzero" fill="rgba(255, 255, 255, 0.09803921568627451)" stroke="none" transform="matrix(1 0 0 1 1078 17 )" class="fill" />
    <path d="M 15 30  C 6.6 30  0 23.400000000000002  0 15  C 0 6.6  6.6 0  15 0  C 23.400000000000002 0  30 6.6  30 15  C 30 23.400000000000002  23.400000000000002 30  15 30  Z " stroke-width="2" stroke-dasharray="0" stroke="url(#LinearGradient3010)" fill="none" transform="matrix(1 0 0 1 1078 17 )" class="stroke" mask="url(#Clip3014)" />
  </g>
</svg>