<?xml version="1.0" encoding="utf-8"?>
<svg version="1.1" xmlns:xlink="http://www.w3.org/1999/xlink" width="14px" height="11px" xmlns="http://www.w3.org/2000/svg">
  <defs>
    <pattern id="BGPattern" patternUnits="userSpaceOnUse" alignment="0 0" imageRepeat="None" />
    <mask fill="white" id="Clip12532">
      <path d="M 5.580926397019692 10.997665098456626  L 5.532099531665779 10.997665098456626  C 5.325766684406599 10.997665098456626  5.127309132517295 10.920487163384779  4.977678445981905 10.780306833422033  L 0.7076910271420971 6.798555369877594  C 0.3879538690792974 6.500869047365619  0.37692844065992537 6.00630023416711  0.6824900691857367 5.694438382118146  C 0.9880516977115484 5.382576530069187  1.4967960404470464 5.373126162852582  1.8165332091538042 5.670812474720595  L 5.462796902607771 9.071366822778074  L 12.076473464608835 1.2448941245343272  C 12.358409185737095 0.9125564874933474  12.864003416711016 0.8637296221394362  13.205791420968602 1.1377900585417775  C 13.547579425226186 1.4118504843001605  13.596406279936136 1.9032691750931345  13.316045620010641 2.2371818733368816  L 6.152673145290047 10.7141543161256  C 6.010917754124534 10.882685726450239  5.8030098456625865 10.985064619478447  5.580926397019692 10.997665098456626  Z " fill-rule="evenodd" />
    </mask>
  </defs>
  <g transform="matrix(1 0 0 1 -1456 -546 )">
    <path d="M 5.580926397019692 10.997665098456626  L 5.532099531665779 10.997665098456626  C 5.325766684406599 10.997665098456626  5.127309132517295 10.920487163384779  4.977678445981905 10.780306833422033  L 0.7076910271420971 6.798555369877594  C 0.3879538690792974 6.500869047365619  0.37692844065992537 6.00630023416711  0.6824900691857367 5.694438382118146  C 0.9880516977115484 5.382576530069187  1.4967960404470464 5.373126162852582  1.8165332091538042 5.670812474720595  L 5.462796902607771 9.071366822778074  L 12.076473464608835 1.2448941245343272  C 12.358409185737095 0.9125564874933474  12.864003416711016 0.8637296221394362  13.205791420968602 1.1377900585417775  C 13.547579425226186 1.4118504843001605  13.596406279936136 1.9032691750931345  13.316045620010641 2.2371818733368816  L 6.152673145290047 10.7141543161256  C 6.010917754124534 10.882685726450239  5.8030098456625865 10.985064619478447  5.580926397019692 10.997665098456626  Z " fill-rule="nonzero" fill="rgba(216, 30, 6, 1)" stroke="none" transform="matrix(1 0 0 1 1456 546 )" class="fill" />
    <path d="M 5.580926397019692 10.997665098456626  L 5.532099531665779 10.997665098456626  C 5.325766684406599 10.997665098456626  5.127309132517295 10.920487163384779  4.977678445981905 10.780306833422033  L 0.7076910271420971 6.798555369877594  C 0.3879538690792974 6.500869047365619  0.37692844065992537 6.00630023416711  0.6824900691857367 5.694438382118146  C 0.9880516977115484 5.382576530069187  1.4967960404470464 5.373126162852582  1.8165332091538042 5.670812474720595  L 5.462796902607771 9.071366822778074  L 12.076473464608835 1.2448941245343272  C 12.358409185737095 0.9125564874933474  12.864003416711016 0.8637296221394362  13.205791420968602 1.1377900585417775  C 13.547579425226186 1.4118504843001605  13.596406279936136 1.9032691750931345  13.316045620010641 2.2371818733368816  L 6.152673145290047 10.7141543161256  C 6.010917754124534 10.882685726450239  5.8030098456625865 10.985064619478447  5.580926397019692 10.997665098456626  Z " stroke-width="0" stroke-dasharray="0" stroke="rgba(255, 255, 255, 0)" fill="none" transform="matrix(1 0 0 1 1456 546 )" class="stroke" mask="url(#Clip12532)" />
  </g>
</svg>