<?xml version="1.0" encoding="utf-8"?>
<svg version="1.1" xmlns:xlink="http://www.w3.org/1999/xlink" width="310px" height="295px" xmlns="http://www.w3.org/2000/svg">
  <defs>
    <linearGradient gradientUnits="userSpaceOnUse" x1="155" y1="295" x2="155" y2="0" id="LinearGradient12563">
      <stop id="Stop12564" stop-color="#ffffff" stop-opacity="0.2" offset="0" />
      <stop id="Stop12565" stop-color="#ffffff" stop-opacity="0.4980392156862745" offset="1" />
    </linearGradient>
    <pattern id="BGPattern" patternUnits="userSpaceOnUse" alignment="0 0" imageRepeat="None" />
    <mask fill="white" id="Clip12566">
      <path d="M 0 290  L 0 5  C 0 2.1999999999999997  2.1999999999999997 0  5 0  L 305 0  C 307.8 0  310 2.1999999999999997  310 5  L 310 290  C 310 292.8  307.8 295  305 295  L 5 295  C 2.1999999999999997 295  0 292.8  0 290  Z " fill-rule="evenodd" />
    </mask>
  </defs>
  <g transform="matrix(1 0 0 1 -12 -64 )">
    <path d="M 0 290  L 0 5  C 0 2.1999999999999997  2.1999999999999997 0  5 0  L 305 0  C 307.8 0  310 2.1999999999999997  310 5  L 310 290  C 310 292.8  307.8 295  305 295  L 5 295  C 2.1999999999999997 295  0 292.8  0 290  Z " fill-rule="nonzero" fill="url(#LinearGradient12563)" stroke="none" transform="matrix(1 0 0 1 12 64 )" class="fill" />
    <path d="M 0 290  L 0 5  C 0 2.1999999999999997  2.1999999999999997 0  5 0  L 305 0  C 307.8 0  310 2.1999999999999997  310 5  L 310 290  C 310 292.8  307.8 295  305 295  L 5 295  C 2.1999999999999997 295  0 292.8  0 290  Z " stroke-width="0" stroke-dasharray="0" stroke="rgba(121, 121, 121, 1)" fill="none" transform="matrix(1 0 0 1 12 64 )" class="stroke" mask="url(#Clip12566)" />
  </g>
</svg>