<?xml version="1.0" encoding="utf-8"?>
<svg version="1.1" xmlns:xlink="http://www.w3.org/1999/xlink" width="310px" height="205px" xmlns="http://www.w3.org/2000/svg">
  <defs>
    <linearGradient gradientUnits="userSpaceOnUse" x1="155" y1="205" x2="155" y2="0" id="LinearGradient18564">
      <stop id="Stop18565" stop-color="#ffffff" stop-opacity="0.2" offset="0" />
      <stop id="Stop18566" stop-color="#ffffff" stop-opacity="0.4980392156862745" offset="1" />
    </linearGradient>
    <pattern id="BGPattern" patternUnits="userSpaceOnUse" alignment="0 0" imageRepeat="None" />
    <mask fill="white" id="Clip18567">
      <path d="M 0 200  L 0 5  C 0 2.1999999999999997  2.1999999999999997 0  5 0  L 305 0  C 307.8 0  310 2.1999999999999997  310 5  L 310 200  C 310 202.8  307.8 205  305 205  L 5 205  C 2.1999999999999997 205  0 202.8  0 200  Z " fill-rule="evenodd" />
    </mask>
  </defs>
  <g transform="matrix(1 0 0 1 -25 -917 )">
    <path d="M 0 200  L 0 5  C 0 2.1999999999999997  2.1999999999999997 0  5 0  L 305 0  C 307.8 0  310 2.1999999999999997  310 5  L 310 200  C 310 202.8  307.8 205  305 205  L 5 205  C 2.1999999999999997 205  0 202.8  0 200  Z " fill-rule="nonzero" fill="url(#LinearGradient18564)" stroke="none" transform="matrix(1 0 0 1 25 917 )" class="fill" />
    <path d="M 0 200  L 0 5  C 0 2.1999999999999997  2.1999999999999997 0  5 0  L 305 0  C 307.8 0  310 2.1999999999999997  310 5  L 310 200  C 310 202.8  307.8 205  305 205  L 5 205  C 2.1999999999999997 205  0 202.8  0 200  Z " stroke-width="0" stroke-dasharray="0" stroke="rgba(121, 121, 121, 1)" fill="none" transform="matrix(1 0 0 1 25 917 )" class="stroke" mask="url(#Clip18567)" />
  </g>
</svg>