<?xml version="1.0" encoding="utf-8"?>
<svg version="1.1" xmlns:xlink="http://www.w3.org/1999/xlink" width="18px" height="12px" xmlns="http://www.w3.org/2000/svg">
  <defs>
    <pattern id="BGPattern" patternUnits="userSpaceOnUse" alignment="0 0" imageRepeat="None" />
    <mask fill="white" id="Clip8405">
      <path d="M 17.11494806640625 6.22676626953125  C 17.12554087890625 6.17424185546875  17.14145009765625 6.0956951171875  17.14145009765625 6.0017787890625005  C 17.14145009765625 5.904005078125001  17.124921308593752 5.822220527343751  17.1202244921875 5.812487128906252  C 17.11666689453125 5.76403998046875  17.10013810546875 5.6757398437500015  17.08476853515625 5.629391269531251  C 17.080651328125 5.617859082031252  17.07531494140625 5.605767285156251  17.070618125 5.5942350976562505  C 17.06232375 5.567653125000001  17.05348974609375 5.541670742187501  17.043456542968748 5.521004746093752  C 15.5420544921875 2.2370712500000014  12.3095461328125 0.029907714843750988  9.000829453125 0.029907714843750988  C 5.692712363281251 0.029907714843750988  2.4604838085937493 2.235032636718751  0.9658971289062499 5.5011981835937505  C 0.9478893359375 5.536654140625  0.9351779492187497 5.570611113281251  0.927203359375 5.600151093750002  C 0.92366576171875 5.609884492187501  0.9195285546874998 5.619038281250001  0.9162907617187499 5.627612480468752  C 0.88675078125 5.7141538085937515  0.8861711914062498 5.774372968750001  0.88852958984375 5.758723593750002  C 0.8746589843749997 5.822220546875002  0.8619476171875 5.948614843750002  0.8619476171875 5.948614843750002  C 0.8584100195312501 5.986689023437501  0.8584100195312501 6.017108398437502  0.8625472070312499 6.054922773437502  C 0.8625472070312499 6.054922773437502  0.8752385937499998 6.165367890625003  0.8814543945312499 6.187792695312503  C 0.883213203125 6.219091484375003  0.8908880078124999 6.264580625000004  0.9000417968749996 6.305932597656254  C 0.9074167968749998 6.341368574218752  0.9183493945312495 6.375625351562503  0.9333991796874996 6.409282519531253  C 0.9410939648437497 6.435264902343754  0.9502477539062495 6.459488476562504  0.9582223437499997 6.477796074218752  C 2.4616630078124997 9.762289179687501  5.693311953125 11.970052324218752  9.000829453125 11.970052324218752  C 12.310145742187501 11.970052324218752  15.542654101562498 9.764087968750003  17.02692775390625 6.514411250000002  C 17.0499321484375 6.471880078125002  17.06472212890625 6.431727304687502  17.07475533203125 6.396870937500003  C 17.07947212890625 6.386258125000003  17.08362931640625 6.376804550781253  17.08656732421875 6.3673509570312525  C 17.1125696875 6.2917222265625  17.11786611328125 6.226186660156252  17.115507695312502 6.226186660156252  L 17.11494806640625 6.22676626953125  Z M 16.052348515625 6.0088739843750005  C 16.0488108984375 6.020086386718749  16.04705208984375 6.0307191796875  16.04527330078125 6.0419315625  C 16.04469369140625 6.044309941406249  16.043494511718748 6.04724794921875  16.0423153125 6.049626347656249  C 16.04055650390625 6.056701542968749  16.03761849609375 6.064975937499998  16.03581970703125 6.07325033203125  C 14.69980552734375 8.9525581640625  11.878978046875 10.88452828125  9.00082943359375 10.88452828125  C 6.129776015625 10.88452828125  3.3139451367187496 8.957914531250001  1.9646399609374994 6.06853353515625  C 1.9613821679687495 6.058500332031251  1.9590237695312496 6.0490267578125  1.9554861718749996 6.039593164062499  C 1.95488658203125 6.0301395703125  1.9531277734375 6.022464785156249  1.9525481640624998 6.017128398437498  C 1.9513689648437498 6.011252382812499  1.9501897656249998 6.002977988281248  1.9492903710937495 5.995862812499999  L 1.9492903710937495 5.988487812499999  C 1.9525481640624998 5.976376015625  1.95488658203125 5.964284218749999  1.9560857617187497 5.950993242187499  C 1.9584441601562492 5.943918046874998  1.9602229492187497 5.937122636718749  1.96288115234375 5.9294478515625  C 3.2994549609375 3.048641015625  6.12266083984375 1.1157914843749994  9.000809453125001 1.1157914843749994  C 11.880117285156249 1.1157914843749994  14.702763535156251 3.050399824218749  16.0352201171875 5.926769648437499  C 16.03639931640625 5.93238583984375  16.03759849609375 5.937122636718749  16.0393773046875 5.940960019531248  C 16.04055650390625 5.945676816406248  16.04171572265625 5.950413613281249  16.04407412109375 5.95543021484375  C 16.047032109375 5.9769955859375  16.0493905078125 5.998261171874999  16.052348515625 6.0088739843750005  Z " fill-rule="evenodd" />
    </mask>
  </defs>
  <g transform="matrix(1 0 0 1 -1826 -688 )">
    <path d="M 17.11494806640625 6.22676626953125  C 17.12554087890625 6.17424185546875  17.14145009765625 6.0956951171875  17.14145009765625 6.0017787890625005  C 17.14145009765625 5.904005078125001  17.124921308593752 5.822220527343751  17.1202244921875 5.812487128906252  C 17.11666689453125 5.76403998046875  17.10013810546875 5.6757398437500015  17.08476853515625 5.629391269531251  C 17.080651328125 5.617859082031252  17.07531494140625 5.605767285156251  17.070618125 5.5942350976562505  C 17.06232375 5.567653125000001  17.05348974609375 5.541670742187501  17.043456542968748 5.521004746093752  C 15.5420544921875 2.2370712500000014  12.3095461328125 0.029907714843750988  9.000829453125 0.029907714843750988  C 5.692712363281251 0.029907714843750988  2.4604838085937493 2.235032636718751  0.9658971289062499 5.5011981835937505  C 0.9478893359375 5.536654140625  0.9351779492187497 5.570611113281251  0.927203359375 5.600151093750002  C 0.92366576171875 5.609884492187501  0.9195285546874998 5.619038281250001  0.9162907617187499 5.627612480468752  C 0.88675078125 5.7141538085937515  0.8861711914062498 5.774372968750001  0.88852958984375 5.758723593750002  C 0.8746589843749997 5.822220546875002  0.8619476171875 5.948614843750002  0.8619476171875 5.948614843750002  C 0.8584100195312501 5.986689023437501  0.8584100195312501 6.017108398437502  0.8625472070312499 6.054922773437502  C 0.8625472070312499 6.054922773437502  0.8752385937499998 6.165367890625003  0.8814543945312499 6.187792695312503  C 0.883213203125 6.219091484375003  0.8908880078124999 6.264580625000004  0.9000417968749996 6.305932597656254  C 0.9074167968749998 6.341368574218752  0.9183493945312495 6.375625351562503  0.9333991796874996 6.409282519531253  C 0.9410939648437497 6.435264902343754  0.9502477539062495 6.459488476562504  0.9582223437499997 6.477796074218752  C 2.4616630078124997 9.762289179687501  5.693311953125 11.970052324218752  9.000829453125 11.970052324218752  C 12.310145742187501 11.970052324218752  15.542654101562498 9.764087968750003  17.02692775390625 6.514411250000002  C 17.0499321484375 6.471880078125002  17.06472212890625 6.431727304687502  17.07475533203125 6.396870937500003  C 17.07947212890625 6.386258125000003  17.08362931640625 6.376804550781253  17.08656732421875 6.3673509570312525  C 17.1125696875 6.2917222265625  17.11786611328125 6.226186660156252  17.115507695312502 6.226186660156252  L 17.11494806640625 6.22676626953125  Z M 16.052348515625 6.0088739843750005  C 16.0488108984375 6.020086386718749  16.04705208984375 6.0307191796875  16.04527330078125 6.0419315625  C 16.04469369140625 6.044309941406249  16.043494511718748 6.04724794921875  16.0423153125 6.049626347656249  C 16.04055650390625 6.056701542968749  16.03761849609375 6.064975937499998  16.03581970703125 6.07325033203125  C 14.69980552734375 8.9525581640625  11.878978046875 10.88452828125  9.00082943359375 10.88452828125  C 6.129776015625 10.88452828125  3.3139451367187496 8.957914531250001  1.9646399609374994 6.06853353515625  C 1.9613821679687495 6.058500332031251  1.9590237695312496 6.0490267578125  1.9554861718749996 6.039593164062499  C 1.95488658203125 6.0301395703125  1.9531277734375 6.022464785156249  1.9525481640624998 6.017128398437498  C 1.9513689648437498 6.011252382812499  1.9501897656249998 6.002977988281248  1.9492903710937495 5.995862812499999  L 1.9492903710937495 5.988487812499999  C 1.9525481640624998 5.976376015625  1.95488658203125 5.964284218749999  1.9560857617187497 5.950993242187499  C 1.9584441601562492 5.943918046874998  1.9602229492187497 5.937122636718749  1.96288115234375 5.9294478515625  C 3.2994549609375 3.048641015625  6.12266083984375 1.1157914843749994  9.000809453125001 1.1157914843749994  C 11.880117285156249 1.1157914843749994  14.702763535156251 3.050399824218749  16.0352201171875 5.926769648437499  C 16.03639931640625 5.93238583984375  16.03759849609375 5.937122636718749  16.0393773046875 5.940960019531248  C 16.04055650390625 5.945676816406248  16.04171572265625 5.950413613281249  16.04407412109375 5.95543021484375  C 16.047032109375 5.9769955859375  16.0493905078125 5.998261171874999  16.052348515625 6.0088739843750005  Z " fill-rule="nonzero" fill="rgba(255, 255, 255, 1)" stroke="none" transform="matrix(1 0 0 1 1826 688 )" class="fill" />
    <path d="M 17.11494806640625 6.22676626953125  C 17.12554087890625 6.17424185546875  17.14145009765625 6.0956951171875  17.14145009765625 6.0017787890625005  C 17.14145009765625 5.904005078125001  17.124921308593752 5.822220527343751  17.1202244921875 5.812487128906252  C 17.11666689453125 5.76403998046875  17.10013810546875 5.6757398437500015  17.08476853515625 5.629391269531251  C 17.080651328125 5.617859082031252  17.07531494140625 5.605767285156251  17.070618125 5.5942350976562505  C 17.06232375 5.567653125000001  17.05348974609375 5.541670742187501  17.043456542968748 5.521004746093752  C 15.5420544921875 2.2370712500000014  12.3095461328125 0.029907714843750988  9.000829453125 0.029907714843750988  C 5.692712363281251 0.029907714843750988  2.4604838085937493 2.235032636718751  0.9658971289062499 5.5011981835937505  C 0.9478893359375 5.536654140625  0.9351779492187497 5.570611113281251  0.927203359375 5.600151093750002  C 0.92366576171875 5.609884492187501  0.9195285546874998 5.619038281250001  0.9162907617187499 5.627612480468752  C 0.88675078125 5.7141538085937515  0.8861711914062498 5.774372968750001  0.88852958984375 5.758723593750002  C 0.8746589843749997 5.822220546875002  0.8619476171875 5.948614843750002  0.8619476171875 5.948614843750002  C 0.8584100195312501 5.986689023437501  0.8584100195312501 6.017108398437502  0.8625472070312499 6.054922773437502  C 0.8625472070312499 6.054922773437502  0.8752385937499998 6.165367890625003  0.8814543945312499 6.187792695312503  C 0.883213203125 6.219091484375003  0.8908880078124999 6.264580625000004  0.9000417968749996 6.305932597656254  C 0.9074167968749998 6.341368574218752  0.9183493945312495 6.375625351562503  0.9333991796874996 6.409282519531253  C 0.9410939648437497 6.435264902343754  0.9502477539062495 6.459488476562504  0.9582223437499997 6.477796074218752  C 2.4616630078124997 9.762289179687501  5.693311953125 11.970052324218752  9.000829453125 11.970052324218752  C 12.310145742187501 11.970052324218752  15.542654101562498 9.764087968750003  17.02692775390625 6.514411250000002  C 17.0499321484375 6.471880078125002  17.06472212890625 6.431727304687502  17.07475533203125 6.396870937500003  C 17.07947212890625 6.386258125000003  17.08362931640625 6.376804550781253  17.08656732421875 6.3673509570312525  C 17.1125696875 6.2917222265625  17.11786611328125 6.226186660156252  17.115507695312502 6.226186660156252  L 17.11494806640625 6.22676626953125  Z " stroke-width="0" stroke-dasharray="0" stroke="rgba(255, 255, 255, 0)" fill="none" transform="matrix(1 0 0 1 1826 688 )" class="stroke" mask="url(#Clip8405)" />
    <path d="M 16.052348515625 6.0088739843750005  C 16.0488108984375 6.020086386718749  16.04705208984375 6.0307191796875  16.04527330078125 6.0419315625  C 16.04469369140625 6.044309941406249  16.043494511718748 6.04724794921875  16.0423153125 6.049626347656249  C 16.04055650390625 6.056701542968749  16.03761849609375 6.064975937499998  16.03581970703125 6.07325033203125  C 14.69980552734375 8.9525581640625  11.878978046875 10.88452828125  9.00082943359375 10.88452828125  C 6.129776015625 10.88452828125  3.3139451367187496 8.957914531250001  1.9646399609374994 6.06853353515625  C 1.9613821679687495 6.058500332031251  1.9590237695312496 6.0490267578125  1.9554861718749996 6.039593164062499  C 1.95488658203125 6.0301395703125  1.9531277734375 6.022464785156249  1.9525481640624998 6.017128398437498  C 1.9513689648437498 6.011252382812499  1.9501897656249998 6.002977988281248  1.9492903710937495 5.995862812499999  L 1.9492903710937495 5.988487812499999  C 1.9525481640624998 5.976376015625  1.95488658203125 5.964284218749999  1.9560857617187497 5.950993242187499  C 1.9584441601562492 5.943918046874998  1.9602229492187497 5.937122636718749  1.96288115234375 5.9294478515625  C 3.2994549609375 3.048641015625  6.12266083984375 1.1157914843749994  9.000809453125001 1.1157914843749994  C 11.880117285156249 1.1157914843749994  14.702763535156251 3.050399824218749  16.0352201171875 5.926769648437499  C 16.03639931640625 5.93238583984375  16.03759849609375 5.937122636718749  16.0393773046875 5.940960019531248  C 16.04055650390625 5.945676816406248  16.04171572265625 5.950413613281249  16.04407412109375 5.95543021484375  C 16.047032109375 5.9769955859375  16.0493905078125 5.998261171874999  16.052348515625 6.0088739843750005  Z " stroke-width="0" stroke-dasharray="0" stroke="rgba(255, 255, 255, 0)" fill="none" transform="matrix(1 0 0 1 1826 688 )" class="stroke" mask="url(#Clip8405)" />
  </g>
</svg>