<?xml version="1.0" encoding="utf-8"?>
<svg version="1.1" xmlns:xlink="http://www.w3.org/1999/xlink" width="7px" height="5px" xmlns="http://www.w3.org/2000/svg">
  <defs>
    <pattern id="BGPattern" patternUnits="userSpaceOnUse" alignment="0 0" imageRepeat="None" />
    <mask fill="white" id="Clip12764">
      <path d="M 6.908278187890625 2.5850373510742193  C 6.9127271691406245 2.565340695800782  6.9194090410156255 2.5358856689453124  6.9194090410156255 2.500667045898438  C 6.9194090410156255 2.4640019042968753  6.912466949609375 2.4333326977539067  6.91049428671875 2.429682673339844  C 6.909000095703125 2.411514992675782  6.902058004296875 2.3784024414062506  6.895602784765625 2.3610217260742195  C 6.893873557812501 2.3566971557617196  6.8916322753906245 2.352162731933594  6.8896596125 2.347838161621094  C 6.886175975 2.3378699218750003  6.882465693359374 2.328126528320312  6.878251748046875 2.3203767797851564  C 6.247662886718749 1.0889017187500005  4.89000937578125 0.26121539306640684  3.5003483703124996 0.26121539306640684  C 2.1109391925781247 0.26121539306640684  0.753403199609375 1.0881372387695318  0.12567679414062496 2.312949318847657  C 0.11811352109374987 2.3262453027343755  0.11277473867187503 2.3389791674804696  0.10942541093749988 2.3500566601562505  C 0.10793961992187495 2.353706684570313  0.10620199296874999 2.3571393554687505  0.10484211992187502 2.360354680175782  C 0.0924353281250001 2.392807678222657  0.09219190039062497 2.4153898632812503  0.09318242773437486 2.4095213476562503  C 0.08735677343749992 2.4333327050781257  0.08201799921874987 2.4807305664062507  0.08201799921874987 2.4807305664062507  C 0.08053220820312497 2.495008383789063  0.08053220820312497 2.5064156494140635  0.08226982695312494 2.520596040039064  C 0.08226982695312494 2.520596040039064  0.08760020937500003 2.5620129589843765  0.09021084570312488 2.570422260742189  C 0.09094954531249987 2.5821593066406257  0.0941729632812499 2.599217734375001  0.09801755468749991 2.6147247241210945  C 0.10111505468749983 2.6280132153320324  0.10570674570312492 2.6408595068359384  0.11202765546874992 2.6534809448242203  C 0.1152594652343749 2.663224338378907  0.11910405664062493 2.6723081787109395  0.12245338437499975 2.6791735278320323  C 0.7538984632812501 3.910858442382813  2.1111910203125 4.738769621582033  3.5003483703124996 4.738769621582033  C 4.89026121171875 4.738769621582033  6.247914722656249 3.911532988281251  6.8713096566406255 2.6929042187500007  C 6.88097150234375 2.6769550292968756  6.887183294140624 2.661897739257813  6.891397239453125 2.648826601562501  C 6.893378294140625 2.644846796875001  6.8951243128906246 2.6413017065429703  6.896358276171874 2.6377566088867193  C 6.90727926875 2.609395834960938  6.9095037675781255 2.584819997558594  6.90851323203125 2.584819997558594  Z M 6.461986376562501 2.5033277441406248  C 6.46050057734375 2.507532395019531  6.459761877734374 2.5115196923828123  6.459014786328124 2.5157243359374997  C 6.4587713503906246 2.5166162280273427  6.458267694921875 2.517717980957031  6.45777243125 2.518609880371093  C 6.4570337316406246 2.5212630786132806  6.455799768359374 2.5243659765624993  6.455044276953125 2.5274688745117184  C 5.893918321484376 3.6072093115234374  4.709170779687501 4.33169810546875  3.500348362109375 4.33169810546875  C 2.2945059265625 4.33169810546875  1.111856957421875 3.6092179492187504  0.5451487835937499 2.5257000756835932  C 0.5437805105468749 2.5219376245117187  0.5427899832031247 2.518385034179688  0.5413041921875 2.5148474365234375  C 0.5410523644531249 2.5113023388671873  0.54031366484375 2.5084242944335933  0.5400702289062498 2.5064231494140623  C 0.5395749652343748 2.504219643554687  0.5390797015624998 2.5011167456054677  0.538701955859375 2.4984485546874993  L 0.538701955859375 2.4956829296874994  C 0.5400702289062498 2.4911410058593746  0.5410523644531249 2.48660658203125  0.5415560199218749 2.4816224658203123  C 0.5425465472656248 2.4789692675781243  0.5432936386718751 2.476420988769531  0.5444100839843748 2.4735429443359376  C 1.1057710835937498 1.3932403808593752  2.291517552734375 0.668421806640625  3.500339970312499 0.668421806640625  C 4.709649259765626 0.668421806640625  5.895160684765624 1.3938999340820313  6.45479244921875 2.472538618164062  C 6.455287712890625 2.474644689941406  6.455791368359375 2.476420988769531  6.45653846796875 2.4778600073242183  C 6.4570337316406246 2.479628806152343  6.457520603515625 2.481405104980468  6.4585111308593754 2.483286330566406  C 6.4597534859375 2.4913733447265622  6.460744013281251 2.499347939453125  6.461986376562501 2.5033277441406248  Z " fill-rule="evenodd" />
    </mask>
  </defs>
  <g transform="matrix(1 0 0 1 -1012 -3126 )">
    <path d="M 6.908278187890625 2.5850373510742193  C 6.9127271691406245 2.565340695800782  6.9194090410156255 2.5358856689453124  6.9194090410156255 2.500667045898438  C 6.9194090410156255 2.4640019042968753  6.912466949609375 2.4333326977539067  6.91049428671875 2.429682673339844  C 6.909000095703125 2.411514992675782  6.902058004296875 2.3784024414062506  6.895602784765625 2.3610217260742195  C 6.893873557812501 2.3566971557617196  6.8916322753906245 2.352162731933594  6.8896596125 2.347838161621094  C 6.886175975 2.3378699218750003  6.882465693359374 2.328126528320312  6.878251748046875 2.3203767797851564  C 6.247662886718749 1.0889017187500005  4.89000937578125 0.26121539306640684  3.5003483703124996 0.26121539306640684  C 2.1109391925781247 0.26121539306640684  0.753403199609375 1.0881372387695318  0.12567679414062496 2.312949318847657  C 0.11811352109374987 2.3262453027343755  0.11277473867187503 2.3389791674804696  0.10942541093749988 2.3500566601562505  C 0.10793961992187495 2.353706684570313  0.10620199296874999 2.3571393554687505  0.10484211992187502 2.360354680175782  C 0.0924353281250001 2.392807678222657  0.09219190039062497 2.4153898632812503  0.09318242773437486 2.4095213476562503  C 0.08735677343749992 2.4333327050781257  0.08201799921874987 2.4807305664062507  0.08201799921874987 2.4807305664062507  C 0.08053220820312497 2.495008383789063  0.08053220820312497 2.5064156494140635  0.08226982695312494 2.520596040039064  C 0.08226982695312494 2.520596040039064  0.08760020937500003 2.5620129589843765  0.09021084570312488 2.570422260742189  C 0.09094954531249987 2.5821593066406257  0.0941729632812499 2.599217734375001  0.09801755468749991 2.6147247241210945  C 0.10111505468749983 2.6280132153320324  0.10570674570312492 2.6408595068359384  0.11202765546874992 2.6534809448242203  C 0.1152594652343749 2.663224338378907  0.11910405664062493 2.6723081787109395  0.12245338437499975 2.6791735278320323  C 0.7538984632812501 3.910858442382813  2.1111910203125 4.738769621582033  3.5003483703124996 4.738769621582033  C 4.89026121171875 4.738769621582033  6.247914722656249 3.911532988281251  6.8713096566406255 2.6929042187500007  C 6.88097150234375 2.6769550292968756  6.887183294140624 2.661897739257813  6.891397239453125 2.648826601562501  C 6.893378294140625 2.644846796875001  6.8951243128906246 2.6413017065429703  6.896358276171874 2.6377566088867193  C 6.90727926875 2.609395834960938  6.9095037675781255 2.584819997558594  6.90851323203125 2.584819997558594  Z M 6.461986376562501 2.5033277441406248  C 6.46050057734375 2.507532395019531  6.459761877734374 2.5115196923828123  6.459014786328124 2.5157243359374997  C 6.4587713503906246 2.5166162280273427  6.458267694921875 2.517717980957031  6.45777243125 2.518609880371093  C 6.4570337316406246 2.5212630786132806  6.455799768359374 2.5243659765624993  6.455044276953125 2.5274688745117184  C 5.893918321484376 3.6072093115234374  4.709170779687501 4.33169810546875  3.500348362109375 4.33169810546875  C 2.2945059265625 4.33169810546875  1.111856957421875 3.6092179492187504  0.5451487835937499 2.5257000756835932  C 0.5437805105468749 2.5219376245117187  0.5427899832031247 2.518385034179688  0.5413041921875 2.5148474365234375  C 0.5410523644531249 2.5113023388671873  0.54031366484375 2.5084242944335933  0.5400702289062498 2.5064231494140623  C 0.5395749652343748 2.504219643554687  0.5390797015624998 2.5011167456054677  0.538701955859375 2.4984485546874993  L 0.538701955859375 2.4956829296874994  C 0.5400702289062498 2.4911410058593746  0.5410523644531249 2.48660658203125  0.5415560199218749 2.4816224658203123  C 0.5425465472656248 2.4789692675781243  0.5432936386718751 2.476420988769531  0.5444100839843748 2.4735429443359376  C 1.1057710835937498 1.3932403808593752  2.291517552734375 0.668421806640625  3.500339970312499 0.668421806640625  C 4.709649259765626 0.668421806640625  5.895160684765624 1.3938999340820313  6.45479244921875 2.472538618164062  C 6.455287712890625 2.474644689941406  6.455791368359375 2.476420988769531  6.45653846796875 2.4778600073242183  C 6.4570337316406246 2.479628806152343  6.457520603515625 2.481405104980468  6.4585111308593754 2.483286330566406  C 6.4597534859375 2.4913733447265622  6.460744013281251 2.499347939453125  6.461986376562501 2.5033277441406248  Z " fill-rule="nonzero" fill="rgba(18, 150, 219, 1)" stroke="none" transform="matrix(1 0 0 1 1012 3126 )" class="fill" />
    <path d="M 6.908278187890625 2.5850373510742193  C 6.9127271691406245 2.565340695800782  6.9194090410156255 2.5358856689453124  6.9194090410156255 2.500667045898438  C 6.9194090410156255 2.4640019042968753  6.912466949609375 2.4333326977539067  6.91049428671875 2.429682673339844  C 6.909000095703125 2.411514992675782  6.902058004296875 2.3784024414062506  6.895602784765625 2.3610217260742195  C 6.893873557812501 2.3566971557617196  6.8916322753906245 2.352162731933594  6.8896596125 2.347838161621094  C 6.886175975 2.3378699218750003  6.882465693359374 2.328126528320312  6.878251748046875 2.3203767797851564  C 6.247662886718749 1.0889017187500005  4.89000937578125 0.26121539306640684  3.5003483703124996 0.26121539306640684  C 2.1109391925781247 0.26121539306640684  0.753403199609375 1.0881372387695318  0.12567679414062496 2.312949318847657  C 0.11811352109374987 2.3262453027343755  0.11277473867187503 2.3389791674804696  0.10942541093749988 2.3500566601562505  C 0.10793961992187495 2.353706684570313  0.10620199296874999 2.3571393554687505  0.10484211992187502 2.360354680175782  C 0.0924353281250001 2.392807678222657  0.09219190039062497 2.4153898632812503  0.09318242773437486 2.4095213476562503  C 0.08735677343749992 2.4333327050781257  0.08201799921874987 2.4807305664062507  0.08201799921874987 2.4807305664062507  C 0.08053220820312497 2.495008383789063  0.08053220820312497 2.5064156494140635  0.08226982695312494 2.520596040039064  C 0.08226982695312494 2.520596040039064  0.08760020937500003 2.5620129589843765  0.09021084570312488 2.570422260742189  C 0.09094954531249987 2.5821593066406257  0.0941729632812499 2.599217734375001  0.09801755468749991 2.6147247241210945  C 0.10111505468749983 2.6280132153320324  0.10570674570312492 2.6408595068359384  0.11202765546874992 2.6534809448242203  C 0.1152594652343749 2.663224338378907  0.11910405664062493 2.6723081787109395  0.12245338437499975 2.6791735278320323  C 0.7538984632812501 3.910858442382813  2.1111910203125 4.738769621582033  3.5003483703124996 4.738769621582033  C 4.89026121171875 4.738769621582033  6.247914722656249 3.911532988281251  6.8713096566406255 2.6929042187500007  C 6.88097150234375 2.6769550292968756  6.887183294140624 2.661897739257813  6.891397239453125 2.648826601562501  C 6.893378294140625 2.644846796875001  6.8951243128906246 2.6413017065429703  6.896358276171874 2.6377566088867193  C 6.90727926875 2.609395834960938  6.9095037675781255 2.584819997558594  6.90851323203125 2.584819997558594  Z " stroke-width="0" stroke-dasharray="0" stroke="rgba(255, 255, 255, 0)" fill="none" transform="matrix(1 0 0 1 1012 3126 )" class="stroke" mask="url(#Clip12764)" />
    <path d="M 6.461986376562501 2.5033277441406248  C 6.46050057734375 2.507532395019531  6.459761877734374 2.5115196923828123  6.459014786328124 2.5157243359374997  C 6.4587713503906246 2.5166162280273427  6.458267694921875 2.517717980957031  6.45777243125 2.518609880371093  C 6.4570337316406246 2.5212630786132806  6.455799768359374 2.5243659765624993  6.455044276953125 2.5274688745117184  C 5.893918321484376 3.6072093115234374  4.709170779687501 4.33169810546875  3.500348362109375 4.33169810546875  C 2.2945059265625 4.33169810546875  1.111856957421875 3.6092179492187504  0.5451487835937499 2.5257000756835932  C 0.5437805105468749 2.5219376245117187  0.5427899832031247 2.518385034179688  0.5413041921875 2.5148474365234375  C 0.5410523644531249 2.5113023388671873  0.54031366484375 2.5084242944335933  0.5400702289062498 2.5064231494140623  C 0.5395749652343748 2.504219643554687  0.5390797015624998 2.5011167456054677  0.538701955859375 2.4984485546874993  L 0.538701955859375 2.4956829296874994  C 0.5400702289062498 2.4911410058593746  0.5410523644531249 2.48660658203125  0.5415560199218749 2.4816224658203123  C 0.5425465472656248 2.4789692675781243  0.5432936386718751 2.476420988769531  0.5444100839843748 2.4735429443359376  C 1.1057710835937498 1.3932403808593752  2.291517552734375 0.668421806640625  3.500339970312499 0.668421806640625  C 4.709649259765626 0.668421806640625  5.895160684765624 1.3938999340820313  6.45479244921875 2.472538618164062  C 6.455287712890625 2.474644689941406  6.455791368359375 2.476420988769531  6.45653846796875 2.4778600073242183  C 6.4570337316406246 2.479628806152343  6.457520603515625 2.481405104980468  6.4585111308593754 2.483286330566406  C 6.4597534859375 2.4913733447265622  6.460744013281251 2.499347939453125  6.461986376562501 2.5033277441406248  Z " stroke-width="0" stroke-dasharray="0" stroke="rgba(255, 255, 255, 0)" fill="none" transform="matrix(1 0 0 1 1012 3126 )" class="stroke" mask="url(#Clip12764)" />
  </g>
</svg>