<?xml version="1.0" encoding="utf-8"?>
<svg version="1.1" xmlns:xlink="http://www.w3.org/1999/xlink" width="16px" height="16px" xmlns="http://www.w3.org/2000/svg">
  <defs>
    <pattern id="BGPattern" patternUnits="userSpaceOnUse" alignment="0 0" imageRepeat="None" />
    <mask fill="white" id="Clip699">
      <path d="M 15 15.630000000000003  L 1 15.630000000000003  C 0.6852066888939068 15.59010188815856  0.4492148975887744 15.322311657594945  0.4492148975887744 15.005000000000003  C 0.4492148975887744 14.687688342405057  0.6852066888939055 14.41989811184144  1 14.379999999999999  L 15 14.379999999999999  C 15.314793311106097 14.41989811184144  15.550785102411226 14.687688342405057  15.550785102411226 15.005000000000003  C 15.550785102411226 15.322311657594945  15.314793311106094 15.59010188815856  15 15.630000000000003  Z M 13.370000000000001 7.390000000000001  L 8.629999999999999 2.629999999999999  L 8.629999999999999 12.29  C 8.59010188815856 12.604793311106093  8.322311657594945 12.840785102411225  8.004999999999999 12.840785102411225  C 7.687688342405057 12.840785102411225  7.419898111841441 12.604793311106093  7.379999999999999 12.29  L 7.379999999999999 2.63  L 2.610000000000001 7.4  C 2.493304744470601 7.516695255529401  2.3350320130342714 7.582253967444162  2.17 7.582253967444162  C 1.826338623258883 7.582253967444162  1.5477460325558385 7.303661376741118  1.5477460325558385 6.960000000000001  C 1.5477460325558385 6.79496798696573  1.6133047444706006 6.6366952555294  1.73 6.52  L 7.49 0.7499999999999996  C 7.768967506115391 0.48076447183939264  8.211032493884606 0.48076447183939264  8.489999999999998 0.75  L 14.250000000000004 6.51  C 14.3666952555294 6.6266952555294  14.432253967444165 6.7849679869657304  14.432253967444165 6.949999999999999  C 14.432253967444165 7.293661376741117  14.15366137674112 7.572253967444162  13.810000000000002 7.572253967444162  C 13.64496798696573 7.572253967444162  13.4866952555294 7.506695255529399  13.370000000000001 7.390000000000001  Z " fill-rule="evenodd" />
    </mask>
  </defs>
  <g transform="matrix(1 0 0 1 -1852 -686 )">
    <path d="M 15 15.630000000000003  L 1 15.630000000000003  C 0.6852066888939068 15.59010188815856  0.4492148975887744 15.322311657594945  0.4492148975887744 15.005000000000003  C 0.4492148975887744 14.687688342405057  0.6852066888939055 14.41989811184144  1 14.379999999999999  L 15 14.379999999999999  C 15.314793311106097 14.41989811184144  15.550785102411226 14.687688342405057  15.550785102411226 15.005000000000003  C 15.550785102411226 15.322311657594945  15.314793311106094 15.59010188815856  15 15.630000000000003  Z M 13.370000000000001 7.390000000000001  L 8.629999999999999 2.629999999999999  L 8.629999999999999 12.29  C 8.59010188815856 12.604793311106093  8.322311657594945 12.840785102411225  8.004999999999999 12.840785102411225  C 7.687688342405057 12.840785102411225  7.419898111841441 12.604793311106093  7.379999999999999 12.29  L 7.379999999999999 2.63  L 2.610000000000001 7.4  C 2.493304744470601 7.516695255529401  2.3350320130342714 7.582253967444162  2.17 7.582253967444162  C 1.826338623258883 7.582253967444162  1.5477460325558385 7.303661376741118  1.5477460325558385 6.960000000000001  C 1.5477460325558385 6.79496798696573  1.6133047444706006 6.6366952555294  1.73 6.52  L 7.49 0.7499999999999996  C 7.768967506115391 0.48076447183939264  8.211032493884606 0.48076447183939264  8.489999999999998 0.75  L 14.250000000000004 6.51  C 14.3666952555294 6.6266952555294  14.432253967444165 6.7849679869657304  14.432253967444165 6.949999999999999  C 14.432253967444165 7.293661376741117  14.15366137674112 7.572253967444162  13.810000000000002 7.572253967444162  C 13.64496798696573 7.572253967444162  13.4866952555294 7.506695255529399  13.370000000000001 7.390000000000001  Z " fill-rule="nonzero" fill="rgba(255, 255, 255, 1)" stroke="none" transform="matrix(1 0 0 1 1852 686 )" class="fill" />
    <path d="M 15 15.630000000000003  L 1 15.630000000000003  C 0.6852066888939068 15.59010188815856  0.4492148975887744 15.322311657594945  0.4492148975887744 15.005000000000003  C 0.4492148975887744 14.687688342405057  0.6852066888939055 14.41989811184144  1 14.379999999999999  L 15 14.379999999999999  C 15.314793311106097 14.41989811184144  15.550785102411226 14.687688342405057  15.550785102411226 15.005000000000003  C 15.550785102411226 15.322311657594945  15.314793311106094 15.59010188815856  15 15.630000000000003  Z " stroke-width="0" stroke-dasharray="0" stroke="rgba(255, 255, 255, 0)" fill="none" transform="matrix(1 0 0 1 1852 686 )" class="stroke" mask="url(#Clip699)" />
    <path d="M 13.370000000000001 7.390000000000001  L 8.629999999999999 2.629999999999999  L 8.629999999999999 12.29  C 8.59010188815856 12.604793311106093  8.322311657594945 12.840785102411225  8.004999999999999 12.840785102411225  C 7.687688342405057 12.840785102411225  7.419898111841441 12.604793311106093  7.379999999999999 12.29  L 7.379999999999999 2.63  L 2.610000000000001 7.4  C 2.493304744470601 7.516695255529401  2.3350320130342714 7.582253967444162  2.17 7.582253967444162  C 1.826338623258883 7.582253967444162  1.5477460325558385 7.303661376741118  1.5477460325558385 6.960000000000001  C 1.5477460325558385 6.79496798696573  1.6133047444706006 6.6366952555294  1.73 6.52  L 7.49 0.7499999999999996  C 7.768967506115391 0.48076447183939264  8.211032493884606 0.48076447183939264  8.489999999999998 0.75  L 14.250000000000004 6.51  C 14.3666952555294 6.6266952555294  14.432253967444165 6.7849679869657304  14.432253967444165 6.949999999999999  C 14.432253967444165 7.293661376741117  14.15366137674112 7.572253967444162  13.810000000000002 7.572253967444162  C 13.64496798696573 7.572253967444162  13.4866952555294 7.506695255529399  13.370000000000001 7.390000000000001  Z " stroke-width="0" stroke-dasharray="0" stroke="rgba(255, 255, 255, 0)" fill="none" transform="matrix(1 0 0 1 1852 686 )" class="stroke" mask="url(#Clip699)" />
  </g>
</svg>