<?xml version="1.0" encoding="utf-8"?>
<svg version="1.1" xmlns:xlink="http://www.w3.org/1999/xlink" width="16px" height="16px" xmlns="http://www.w3.org/2000/svg">
  <defs>
    <pattern id="BGPattern" patternUnits="userSpaceOnUse" alignment="0 0" imageRepeat="None" />
    <mask fill="white" id="Clip2938">
      <path d="M 8.958984375 11.836992187499998  L 8.958984375 6.081992187499999  C 8.958984375 5.160996093750001  9.9180078125 5.160996093750001  9.9180078125 6.081992187499999  L 9.9180078125 11.838007812500003  C 9.918984374999999 12.504003906250002  8.95900390625 12.593007812500002  8.95900390625 11.836992187500002  Z M 6.081992187499999 11.836992187499998  L 6.081992187499999 6.081992187499999  C 6.081992187499999 5.160996093750001  7.04099609375 5.160996093750001  7.04099609375 6.081992187499999  L 7.04099609375 11.838007812500003  C 7.04099609375 12.593007812500002  6.08201171875 12.504003906250002  6.08201171875 11.836992187500002  Z M 14.715 3.203984374999999  L 11.836992187499998 3.203984374999999  L 11.836992187499998 2.244003906249999  C 11.836992187499998 0.8430078124999989  11.388007812499998 0.32499999999999885  9.9180078125 0.32499999999999885  L 6.081992187499999 0.32499999999999885  C 4.63599609375 0.32499999999999885  4.1630078125 0.796992187499999  4.1630078125 2.244003906249999  L 4.1630078125 3.2040039062499988  L 1.2850000000000001 3.2040039062499988  C 0.24800781250000004 3.2040039062499988  0.24800781250000004 4.16298828125  1.2850000000000001 4.16298828125  L 14.715 4.16298828125  C 15.7519921875 4.16298828125  15.7519921875 3.2040039062499988  14.715 3.2040039062499988  Z M 5.1219921875 3.2040039062499988  L 5.1219921875 2.244003906249999  C 5.1219921875 1.313007812499999  5.180000000000001 1.2849999999999993  6.0809960937500005 1.2849999999999993  L 9.9180078125 1.2849999999999993  C 10.818007812500001 1.2849999999999993  10.8769921875 1.3069921874999992  10.8769921875 2.2439843749999993  L 10.8769921875 3.2040039062499988  L 5.1219921875 3.2040039062499988  Z M 11.838984375 15.674003906249997  L 4.163007812500001 15.674003906249997  C 2.776992187500001 15.674003906249997  2.2440039062500015 15.141992187499998  2.2440039062500015 13.754999999999997  L 2.2440039062500015 6.081992187499999  C 2.2440039062500015 5.113007812499999  3.2029882812500015 5.113007812499999  3.2029882812500015 6.081992187499999  L 3.2029882812500015 13.756015625000002  C 3.2029882812500015 14.6880078125  3.2009960937500024 14.71599609375  4.161992187500002 14.71599609375  L 11.836015625000002 14.71599609375  C 12.768007812500002 14.71599609375  12.795000000000002 14.719003906250002  12.795000000000002 13.75599609375  L 12.795000000000002 6.081992187499999  C 12.795000000000002 5.135  13.753984375000003 5.135  13.753984375000003 6.081992187499999  L 13.753984375000003 13.756015625000002  C 13.755996093750003 15.111992187500004  13.286015625000003 15.673984375000003  11.839003906250003 15.673984375000003  Z " fill-rule="evenodd" />
    </mask>
  </defs>
  <g transform="matrix(1 0 0 1 -1876 -686 )">
    <path d="M 8.958984375 11.836992187499998  L 8.958984375 6.081992187499999  C 8.958984375 5.160996093750001  9.9180078125 5.160996093750001  9.9180078125 6.081992187499999  L 9.9180078125 11.838007812500003  C 9.918984374999999 12.504003906250002  8.95900390625 12.593007812500002  8.95900390625 11.836992187500002  Z M 6.081992187499999 11.836992187499998  L 6.081992187499999 6.081992187499999  C 6.081992187499999 5.160996093750001  7.04099609375 5.160996093750001  7.04099609375 6.081992187499999  L 7.04099609375 11.838007812500003  C 7.04099609375 12.593007812500002  6.08201171875 12.504003906250002  6.08201171875 11.836992187500002  Z M 14.715 3.203984374999999  L 11.836992187499998 3.203984374999999  L 11.836992187499998 2.244003906249999  C 11.836992187499998 0.8430078124999989  11.388007812499998 0.32499999999999885  9.9180078125 0.32499999999999885  L 6.081992187499999 0.32499999999999885  C 4.63599609375 0.32499999999999885  4.1630078125 0.796992187499999  4.1630078125 2.244003906249999  L 4.1630078125 3.2040039062499988  L 1.2850000000000001 3.2040039062499988  C 0.24800781250000004 3.2040039062499988  0.24800781250000004 4.16298828125  1.2850000000000001 4.16298828125  L 14.715 4.16298828125  C 15.7519921875 4.16298828125  15.7519921875 3.2040039062499988  14.715 3.2040039062499988  Z M 5.1219921875 3.2040039062499988  L 5.1219921875 2.244003906249999  C 5.1219921875 1.313007812499999  5.180000000000001 1.2849999999999993  6.0809960937500005 1.2849999999999993  L 9.9180078125 1.2849999999999993  C 10.818007812500001 1.2849999999999993  10.8769921875 1.3069921874999992  10.8769921875 2.2439843749999993  L 10.8769921875 3.2040039062499988  L 5.1219921875 3.2040039062499988  Z M 11.838984375 15.674003906249997  L 4.163007812500001 15.674003906249997  C 2.776992187500001 15.674003906249997  2.2440039062500015 15.141992187499998  2.2440039062500015 13.754999999999997  L 2.2440039062500015 6.081992187499999  C 2.2440039062500015 5.113007812499999  3.2029882812500015 5.113007812499999  3.2029882812500015 6.081992187499999  L 3.2029882812500015 13.756015625000002  C 3.2029882812500015 14.6880078125  3.2009960937500024 14.71599609375  4.161992187500002 14.71599609375  L 11.836015625000002 14.71599609375  C 12.768007812500002 14.71599609375  12.795000000000002 14.719003906250002  12.795000000000002 13.75599609375  L 12.795000000000002 6.081992187499999  C 12.795000000000002 5.135  13.753984375000003 5.135  13.753984375000003 6.081992187499999  L 13.753984375000003 13.756015625000002  C 13.755996093750003 15.111992187500004  13.286015625000003 15.673984375000003  11.839003906250003 15.673984375000003  Z " fill-rule="nonzero" fill="rgba(255, 255, 255, 1)" stroke="none" transform="matrix(1 0 0 1 1876 686 )" class="fill" />
    <path d="M 8.958984375 11.836992187499998  L 8.958984375 6.081992187499999  C 8.958984375 5.160996093750001  9.9180078125 5.160996093750001  9.9180078125 6.081992187499999  L 9.9180078125 11.838007812500003  C 9.918984374999999 12.504003906250002  8.95900390625 12.593007812500002  8.95900390625 11.836992187500002  Z " stroke-width="0" stroke-dasharray="0" stroke="rgba(255, 255, 255, 0)" fill="none" transform="matrix(1 0 0 1 1876 686 )" class="stroke" mask="url(#Clip2938)" />
    <path d="M 6.081992187499999 11.836992187499998  L 6.081992187499999 6.081992187499999  C 6.081992187499999 5.160996093750001  7.04099609375 5.160996093750001  7.04099609375 6.081992187499999  L 7.04099609375 11.838007812500003  C 7.04099609375 12.593007812500002  6.08201171875 12.504003906250002  6.08201171875 11.836992187500002  Z " stroke-width="0" stroke-dasharray="0" stroke="rgba(255, 255, 255, 0)" fill="none" transform="matrix(1 0 0 1 1876 686 )" class="stroke" mask="url(#Clip2938)" />
    <path d="M 14.715 3.203984374999999  L 11.836992187499998 3.203984374999999  L 11.836992187499998 2.244003906249999  C 11.836992187499998 0.8430078124999989  11.388007812499998 0.32499999999999885  9.9180078125 0.32499999999999885  L 6.081992187499999 0.32499999999999885  C 4.63599609375 0.32499999999999885  4.1630078125 0.796992187499999  4.1630078125 2.244003906249999  L 4.1630078125 3.2040039062499988  L 1.2850000000000001 3.2040039062499988  C 0.24800781250000004 3.2040039062499988  0.24800781250000004 4.16298828125  1.2850000000000001 4.16298828125  L 14.715 4.16298828125  C 15.7519921875 4.16298828125  15.7519921875 3.2040039062499988  14.715 3.2040039062499988  Z " stroke-width="0" stroke-dasharray="0" stroke="rgba(255, 255, 255, 0)" fill="none" transform="matrix(1 0 0 1 1876 686 )" class="stroke" mask="url(#Clip2938)" />
    <path d="M 5.1219921875 3.2040039062499988  L 5.1219921875 2.244003906249999  C 5.1219921875 1.313007812499999  5.180000000000001 1.2849999999999993  6.0809960937500005 1.2849999999999993  L 9.9180078125 1.2849999999999993  C 10.818007812500001 1.2849999999999993  10.8769921875 1.3069921874999992  10.8769921875 2.2439843749999993  L 10.8769921875 3.2040039062499988  L 5.1219921875 3.2040039062499988  Z " stroke-width="0" stroke-dasharray="0" stroke="rgba(255, 255, 255, 0)" fill="none" transform="matrix(1 0 0 1 1876 686 )" class="stroke" mask="url(#Clip2938)" />
    <path d="M 11.838984375 15.674003906249997  L 4.163007812500001 15.674003906249997  C 2.776992187500001 15.674003906249997  2.2440039062500015 15.141992187499998  2.2440039062500015 13.754999999999997  L 2.2440039062500015 6.081992187499999  C 2.2440039062500015 5.113007812499999  3.2029882812500015 5.113007812499999  3.2029882812500015 6.081992187499999  L 3.2029882812500015 13.756015625000002  C 3.2029882812500015 14.6880078125  3.2009960937500024 14.71599609375  4.161992187500002 14.71599609375  L 11.836015625000002 14.71599609375  C 12.768007812500002 14.71599609375  12.795000000000002 14.719003906250002  12.795000000000002 13.75599609375  L 12.795000000000002 6.081992187499999  C 12.795000000000002 5.135  13.753984375000003 5.135  13.753984375000003 6.081992187499999  L 13.753984375000003 13.756015625000002  C 13.755996093750003 15.111992187500004  13.286015625000003 15.673984375000003  11.839003906250003 15.673984375000003  Z " stroke-width="0" stroke-dasharray="0" stroke="rgba(255, 255, 255, 0)" fill="none" transform="matrix(1 0 0 1 1876 686 )" class="stroke" mask="url(#Clip2938)" />
  </g>
</svg>