<?xml version="1.0" encoding="utf-8"?>
<svg version="1.1" xmlns:xlink="http://www.w3.org/1999/xlink" width="10px" height="8px" xmlns="http://www.w3.org/2000/svg">
  <defs>
    <pattern id="BGPattern" patternUnits="userSpaceOnUse" alignment="0 0" imageRepeat="None" />
    <mask fill="white" id="Clip2201">
      <path d="M 9.86896883984375 4.136059761718751  C 9.87532452734375 4.104545113281251  9.884870058593751 4.0574170703125  9.884870058593751 4.001067273437501  C 9.884870058593751 3.9424030468750004  9.87495278515625 3.8933323164062505  9.8721346953125 3.8874922773437506  C 9.870000136718751 3.8584239882812508  9.86008286328125 3.8054439062500007  9.85086112109375 3.777634761718751  C 9.848390796875002 3.770715449218751  9.84518896484375 3.7634603710937506  9.842370875 3.7565410585937506  C 9.83739425 3.7405918750000007  9.83209384765625 3.7250024453124997  9.82607392578125 3.7126028476562505  C 8.925232695312499 1.7422427500000008  6.9857276796875 0.41794462890625095  5.000497671874999 0.41794462890625095  C 3.0156274179687497 0.41794462890625095  1.07629028515625 1.7410195820312508  0.17953827734374994 3.700718910156251  C 0.16873360156249984 3.7219924843750007  0.16110676953125003 3.742366667968751  0.1563220156249998 3.760090656250001  C 0.15419945703124993 3.765930695312501  0.1517171328125 3.7714229687500005  0.14977445703125003 3.776567488281251  C 0.13205046875000015 3.8284922851562513  0.13170271484374996 3.8646237812500006  0.1331177539062498 3.8552341562500008  C 0.12479539062499989 3.893332328125001  0.11716857031249983 3.969168906250001  0.11716857031249983 3.969168906250001  C 0.11504601171874995 3.9920134140625008  0.11504601171874995 4.010265039062501  0.11752832421874992 4.032953664062502  C 0.11752832421874992 4.032953664062502  0.12514315625000005 4.0992207343750025  0.12887263671874982 4.112675617187502  C 0.1299279218749998 4.131454890625001  0.13453280468749984 4.158748375000002  0.14002507812499987 4.1835595585937515  C 0.14445007812499977 4.204821144531252  0.1510096367187499 4.225375210937502  0.16003950781249987 4.245569511718752  C 0.16465637890624985 4.261158941406252  0.17014865234374987 4.275693085937503  0.17493340624999965 4.2866776445312516  C 1.0769978046875002 6.257373507812501  3.0159871718749995 7.582031394531253  5.000497671874999 7.582031394531253  C 6.9860874453125 7.582031394531253  8.9255924609375 6.258452781250002  9.81615665234375 4.308646750000001  C 9.8299592890625 4.283128046875001  9.838833277343749 4.259036382812501  9.84485319921875 4.238122562500001  C 9.84768327734375 4.231754875000002  9.85017758984375 4.226082730468752  9.85194039453125 4.220410574218751  C 9.8675418125 4.175033335937501  9.87071966796875 4.13571199609375  9.8693046171875 4.13571199609375  Z M 9.231409109375 4.005324390625  C 9.2292865390625 4.01205183203125  9.22823125390625 4.018431507812499  9.227163980468749 4.0251589375  C 9.22681621484375 4.026585964843749  9.22609670703125 4.02834876953125  9.2253891875 4.029775808593749  C 9.22433390234375 4.034020925781249  9.22257109765625 4.038985562499999  9.22149182421875 4.04395019921875  C 8.419883316406251 5.7715348984374995  6.727386828125001 6.93071696875  5.00049766015625 6.93071696875  C 3.2778656093750005 6.93071696875  1.58836708203125 5.774748718750001  0.7787839765624998 4.0411201210937495  C 0.7768293007812499 4.03510019921875  0.7754142617187496 4.0294160546875  0.773291703125 4.0237558984375  C 0.7729319492187499 4.0180837421875  0.7718766640624999 4.013478871093749  0.7715288984374997 4.010277039062499  C 0.7708213789062497 4.006751429687499  0.7701138593749999 4.0017867929687485  0.7695742226562499 3.9975176874999985  L 0.7695742226562499 3.993092687499999  C 0.7715288984374997 3.9858256093749995  0.7729319492187499 3.97857053125  0.7736514570312498 3.9705959453124997  C 0.7750664960937497 3.966350828124999  0.77613376953125 3.9622735820312496  0.7777286914062498 3.9576687109375  C 1.5796729765624997 2.2291846093750003  3.2735965039062496 1.069474890625  5.0004856718749995 1.069474890625  C 6.72807037109375 1.069474890625  8.42165812109375 2.23023989453125  9.2211320703125 3.956061789062499  C 9.22183958984375 3.9594315039062495  9.22255909765625 3.9622735820312496  9.2236263828125 3.9645760117187496  C 9.22433390234375 3.967406089843749  9.22502943359375 3.970248167968749  9.226444472656251 3.9732581289062496  C 9.228219265625 3.9861973515624998  9.229634304687501 3.9989567031249997  9.231409109375 4.005324390625  Z " fill-rule="evenodd" />
    </mask>
  </defs>
  <g transform="matrix(1 0 0 1 -1007 -5321 )">
    <path d="M 9.86896883984375 4.136059761718751  C 9.87532452734375 4.104545113281251  9.884870058593751 4.0574170703125  9.884870058593751 4.001067273437501  C 9.884870058593751 3.9424030468750004  9.87495278515625 3.8933323164062505  9.8721346953125 3.8874922773437506  C 9.870000136718751 3.8584239882812508  9.86008286328125 3.8054439062500007  9.85086112109375 3.777634761718751  C 9.848390796875002 3.770715449218751  9.84518896484375 3.7634603710937506  9.842370875 3.7565410585937506  C 9.83739425 3.7405918750000007  9.83209384765625 3.7250024453124997  9.82607392578125 3.7126028476562505  C 8.925232695312499 1.7422427500000008  6.9857276796875 0.41794462890625095  5.000497671874999 0.41794462890625095  C 3.0156274179687497 0.41794462890625095  1.07629028515625 1.7410195820312508  0.17953827734374994 3.700718910156251  C 0.16873360156249984 3.7219924843750007  0.16110676953125003 3.742366667968751  0.1563220156249998 3.760090656250001  C 0.15419945703124993 3.765930695312501  0.1517171328125 3.7714229687500005  0.14977445703125003 3.776567488281251  C 0.13205046875000015 3.8284922851562513  0.13170271484374996 3.8646237812500006  0.1331177539062498 3.8552341562500008  C 0.12479539062499989 3.893332328125001  0.11716857031249983 3.969168906250001  0.11716857031249983 3.969168906250001  C 0.11504601171874995 3.9920134140625008  0.11504601171874995 4.010265039062501  0.11752832421874992 4.032953664062502  C 0.11752832421874992 4.032953664062502  0.12514315625000005 4.0992207343750025  0.12887263671874982 4.112675617187502  C 0.1299279218749998 4.131454890625001  0.13453280468749984 4.158748375000002  0.14002507812499987 4.1835595585937515  C 0.14445007812499977 4.204821144531252  0.1510096367187499 4.225375210937502  0.16003950781249987 4.245569511718752  C 0.16465637890624985 4.261158941406252  0.17014865234374987 4.275693085937503  0.17493340624999965 4.2866776445312516  C 1.0769978046875002 6.257373507812501  3.0159871718749995 7.582031394531253  5.000497671874999 7.582031394531253  C 6.9860874453125 7.582031394531253  8.9255924609375 6.258452781250002  9.81615665234375 4.308646750000001  C 9.8299592890625 4.283128046875001  9.838833277343749 4.259036382812501  9.84485319921875 4.238122562500001  C 9.84768327734375 4.231754875000002  9.85017758984375 4.226082730468752  9.85194039453125 4.220410574218751  C 9.8675418125 4.175033335937501  9.87071966796875 4.13571199609375  9.8693046171875 4.13571199609375  Z M 9.231409109375 4.005324390625  C 9.2292865390625 4.01205183203125  9.22823125390625 4.018431507812499  9.227163980468749 4.0251589375  C 9.22681621484375 4.026585964843749  9.22609670703125 4.02834876953125  9.2253891875 4.029775808593749  C 9.22433390234375 4.034020925781249  9.22257109765625 4.038985562499999  9.22149182421875 4.04395019921875  C 8.419883316406251 5.7715348984374995  6.727386828125001 6.93071696875  5.00049766015625 6.93071696875  C 3.2778656093750005 6.93071696875  1.58836708203125 5.774748718750001  0.7787839765624998 4.0411201210937495  C 0.7768293007812499 4.03510019921875  0.7754142617187496 4.0294160546875  0.773291703125 4.0237558984375  C 0.7729319492187499 4.0180837421875  0.7718766640624999 4.013478871093749  0.7715288984374997 4.010277039062499  C 0.7708213789062497 4.006751429687499  0.7701138593749999 4.0017867929687485  0.7695742226562499 3.9975176874999985  L 0.7695742226562499 3.993092687499999  C 0.7715288984374997 3.9858256093749995  0.7729319492187499 3.97857053125  0.7736514570312498 3.9705959453124997  C 0.7750664960937497 3.966350828124999  0.77613376953125 3.9622735820312496  0.7777286914062498 3.9576687109375  C 1.5796729765624997 2.2291846093750003  3.2735965039062496 1.069474890625  5.0004856718749995 1.069474890625  C 6.72807037109375 1.069474890625  8.42165812109375 2.23023989453125  9.2211320703125 3.956061789062499  C 9.22183958984375 3.9594315039062495  9.22255909765625 3.9622735820312496  9.2236263828125 3.9645760117187496  C 9.22433390234375 3.967406089843749  9.22502943359375 3.970248167968749  9.226444472656251 3.9732581289062496  C 9.228219265625 3.9861973515624998  9.229634304687501 3.9989567031249997  9.231409109375 4.005324390625  Z " fill-rule="nonzero" fill="rgba(18, 150, 219, 1)" stroke="none" transform="matrix(1 0 0 1 1007 5321 )" class="fill" />
    <path d="M 9.86896883984375 4.136059761718751  C 9.87532452734375 4.104545113281251  9.884870058593751 4.0574170703125  9.884870058593751 4.001067273437501  C 9.884870058593751 3.9424030468750004  9.87495278515625 3.8933323164062505  9.8721346953125 3.8874922773437506  C 9.870000136718751 3.8584239882812508  9.86008286328125 3.8054439062500007  9.85086112109375 3.777634761718751  C 9.848390796875002 3.770715449218751  9.84518896484375 3.7634603710937506  9.842370875 3.7565410585937506  C 9.83739425 3.7405918750000007  9.83209384765625 3.7250024453124997  9.82607392578125 3.7126028476562505  C 8.925232695312499 1.7422427500000008  6.9857276796875 0.41794462890625095  5.000497671874999 0.41794462890625095  C 3.0156274179687497 0.41794462890625095  1.07629028515625 1.7410195820312508  0.17953827734374994 3.700718910156251  C 0.16873360156249984 3.7219924843750007  0.16110676953125003 3.742366667968751  0.1563220156249998 3.760090656250001  C 0.15419945703124993 3.765930695312501  0.1517171328125 3.7714229687500005  0.14977445703125003 3.776567488281251  C 0.13205046875000015 3.8284922851562513  0.13170271484374996 3.8646237812500006  0.1331177539062498 3.8552341562500008  C 0.12479539062499989 3.893332328125001  0.11716857031249983 3.969168906250001  0.11716857031249983 3.969168906250001  C 0.11504601171874995 3.9920134140625008  0.11504601171874995 4.010265039062501  0.11752832421874992 4.032953664062502  C 0.11752832421874992 4.032953664062502  0.12514315625000005 4.0992207343750025  0.12887263671874982 4.112675617187502  C 0.1299279218749998 4.131454890625001  0.13453280468749984 4.158748375000002  0.14002507812499987 4.1835595585937515  C 0.14445007812499977 4.204821144531252  0.1510096367187499 4.225375210937502  0.16003950781249987 4.245569511718752  C 0.16465637890624985 4.261158941406252  0.17014865234374987 4.275693085937503  0.17493340624999965 4.2866776445312516  C 1.0769978046875002 6.257373507812501  3.0159871718749995 7.582031394531253  5.000497671874999 7.582031394531253  C 6.9860874453125 7.582031394531253  8.9255924609375 6.258452781250002  9.81615665234375 4.308646750000001  C 9.8299592890625 4.283128046875001  9.838833277343749 4.259036382812501  9.84485319921875 4.238122562500001  C 9.84768327734375 4.231754875000002  9.85017758984375 4.226082730468752  9.85194039453125 4.220410574218751  C 9.8675418125 4.175033335937501  9.87071966796875 4.13571199609375  9.8693046171875 4.13571199609375  Z " stroke-width="0" stroke-dasharray="0" stroke="rgba(255, 255, 255, 0)" fill="none" transform="matrix(1 0 0 1 1007 5321 )" class="stroke" mask="url(#Clip2201)" />
    <path d="M 9.231409109375 4.005324390625  C 9.2292865390625 4.01205183203125  9.22823125390625 4.018431507812499  9.227163980468749 4.0251589375  C 9.22681621484375 4.026585964843749  9.22609670703125 4.02834876953125  9.2253891875 4.029775808593749  C 9.22433390234375 4.034020925781249  9.22257109765625 4.038985562499999  9.22149182421875 4.04395019921875  C 8.419883316406251 5.7715348984374995  6.727386828125001 6.93071696875  5.00049766015625 6.93071696875  C 3.2778656093750005 6.93071696875  1.58836708203125 5.774748718750001  0.7787839765624998 4.0411201210937495  C 0.7768293007812499 4.03510019921875  0.7754142617187496 4.0294160546875  0.773291703125 4.0237558984375  C 0.7729319492187499 4.0180837421875  0.7718766640624999 4.013478871093749  0.7715288984374997 4.010277039062499  C 0.7708213789062497 4.006751429687499  0.7701138593749999 4.0017867929687485  0.7695742226562499 3.9975176874999985  L 0.7695742226562499 3.993092687499999  C 0.7715288984374997 3.9858256093749995  0.7729319492187499 3.97857053125  0.7736514570312498 3.9705959453124997  C 0.7750664960937497 3.966350828124999  0.77613376953125 3.9622735820312496  0.7777286914062498 3.9576687109375  C 1.5796729765624997 2.2291846093750003  3.2735965039062496 1.069474890625  5.0004856718749995 1.069474890625  C 6.72807037109375 1.069474890625  8.42165812109375 2.23023989453125  9.2211320703125 3.956061789062499  C 9.22183958984375 3.9594315039062495  9.22255909765625 3.9622735820312496  9.2236263828125 3.9645760117187496  C 9.22433390234375 3.967406089843749  9.22502943359375 3.970248167968749  9.226444472656251 3.9732581289062496  C 9.228219265625 3.9861973515624998  9.229634304687501 3.9989567031249997  9.231409109375 4.005324390625  Z " stroke-width="0" stroke-dasharray="0" stroke="rgba(255, 255, 255, 0)" fill="none" transform="matrix(1 0 0 1 1007 5321 )" class="stroke" mask="url(#Clip2201)" />
  </g>
</svg>