<?xml version="1.0" encoding="utf-8"?>
<svg version="1.1" xmlns:xlink="http://www.w3.org/1999/xlink" width="3px" height="3px" xmlns="http://www.w3.org/2000/svg">
  <defs>
    <pattern id="BGPattern" patternUnits="userSpaceOnUse" alignment="0 0" imageRepeat="None" />
    <mask fill="white" id="Clip6838">
      <path d="M 2.721646227539062 1.5  C 2.721646227539062 0.8266355390624998  2.1735938027343744 0.27885293847656234  1.5003642539062496 0.27885293847656234  C 0.8271347050781248 0.27885293847656234  0.2790822802734372 0.8266355390625004  0.2790822802734372 1.5  C 0.2790822802734372 2.173229548828125  0.8271347050781248 2.7212819736328124  1.5003642539062496 2.7212819736328124  C 2.1735938027343744 2.7212819736328124  2.721646227539062 2.173229548828125  2.721646227539062 1.5  Z M 2.233142434570312 1.5000089912109378  C 2.2331334345703127 1.903997088867188  1.9043523515624998 2.2327691806640626  1.5003642539062496 2.2327691806640626  C 1.096636980468749 2.2327691806640626  0.7676040644531248 1.9039970888671873  0.7676040644531248 1.5000089912109378  C 0.7676040644531248 1.096146805664063  1.096636980468749 0.7673837138671877  1.5003642539062496 0.7673837138671877  C 1.9043523515624998 0.7673837138671877  2.233142434570312 1.096155805664063  2.233142434570312 1.5000089912109378  Z " fill-rule="evenodd" />
    </mask>
  </defs>
  <g transform="matrix(1 0 0 1 -1014 -3127 )">
    <path d="M 2.721646227539062 1.5  C 2.721646227539062 0.8266355390624998  2.1735938027343744 0.27885293847656234  1.5003642539062496 0.27885293847656234  C 0.8271347050781248 0.27885293847656234  0.2790822802734372 0.8266355390625004  0.2790822802734372 1.5  C 0.2790822802734372 2.173229548828125  0.8271347050781248 2.7212819736328124  1.5003642539062496 2.7212819736328124  C 2.1735938027343744 2.7212819736328124  2.721646227539062 2.173229548828125  2.721646227539062 1.5  Z M 2.233142434570312 1.5000089912109378  C 2.2331334345703127 1.903997088867188  1.9043523515624998 2.2327691806640626  1.5003642539062496 2.2327691806640626  C 1.096636980468749 2.2327691806640626  0.7676040644531248 1.9039970888671873  0.7676040644531248 1.5000089912109378  C 0.7676040644531248 1.096146805664063  1.096636980468749 0.7673837138671877  1.5003642539062496 0.7673837138671877  C 1.9043523515624998 0.7673837138671877  2.233142434570312 1.096155805664063  2.233142434570312 1.5000089912109378  Z " fill-rule="nonzero" fill="rgba(18, 150, 219, 1)" stroke="none" transform="matrix(1 0 0 1 1014 3127 )" class="fill" />
    <path d="M 2.721646227539062 1.5  C 2.721646227539062 0.8266355390624998  2.1735938027343744 0.27885293847656234  1.5003642539062496 0.27885293847656234  C 0.8271347050781248 0.27885293847656234  0.2790822802734372 0.8266355390625004  0.2790822802734372 1.5  C 0.2790822802734372 2.173229548828125  0.8271347050781248 2.7212819736328124  1.5003642539062496 2.7212819736328124  C 2.1735938027343744 2.7212819736328124  2.721646227539062 2.173229548828125  2.721646227539062 1.5  Z " stroke-width="0" stroke-dasharray="0" stroke="rgba(255, 255, 255, 0)" fill="none" transform="matrix(1 0 0 1 1014 3127 )" class="stroke" mask="url(#Clip6838)" />
    <path d="M 2.233142434570312 1.5000089912109378  C 2.2331334345703127 1.903997088867188  1.9043523515624998 2.2327691806640626  1.5003642539062496 2.2327691806640626  C 1.096636980468749 2.2327691806640626  0.7676040644531248 1.9039970888671873  0.7676040644531248 1.5000089912109378  C 0.7676040644531248 1.096146805664063  1.096636980468749 0.7673837138671877  1.5003642539062496 0.7673837138671877  C 1.9043523515624998 0.7673837138671877  2.233142434570312 1.096155805664063  2.233142434570312 1.5000089912109378  Z " stroke-width="0" stroke-dasharray="0" stroke="rgba(255, 255, 255, 0)" fill="none" transform="matrix(1 0 0 1 1014 3127 )" class="stroke" mask="url(#Clip6838)" />
  </g>
</svg>