<?xml version="1.0" encoding="utf-8"?>
<svg version="1.1" xmlns:xlink="http://www.w3.org/1999/xlink" width="6px" height="6px" xmlns="http://www.w3.org/2000/svg">
  <defs>
    <pattern id="BGPattern" patternUnits="userSpaceOnUse" alignment="0 0" imageRepeat="None" />
    <mask fill="white" id="Clip7537">
      <path d="M 5.714769394531249 3  C 5.714769394531249 1.5036345312500004  4.4968751171875 0.28633986328125083  3.000809453124999 0.28633986328125083  C 1.5047437890624984 0.28633986328125083  0.2868495117187493 1.5036345312500004  0.2868495117187493 3  C 0.2868495117187493 4.496065664062501  1.5047437890624984 5.71395994140625  3.000809453124999 5.71395994140625  C 4.4968751171875 5.71395994140625  5.714769394531249 4.496065664062501  5.714769394531249 3  Z M 4.629205410156249 3.0000199804687497  C 4.62918541015625 3.89777130859375  3.8985607812499996 4.628375957031249  3.000809453124999 4.628375957031249  C 2.103637734374999 4.628375957031249  1.3724534765624998 3.8977713085937484  1.3724534765624998 3.0000199804687497  C 1.3724534765624998 2.1025484570312507  2.103637734374999 1.371963808593751  3.000809453124999 1.371963808593751  C 3.8985607812499996 1.371963808593751  4.629205410156249 2.10256845703125  4.629205410156249 3.0000199804687497  Z " fill-rule="evenodd" />
    </mask>
  </defs>
  <g transform="matrix(1 0 0 1 -1832 -691 )">
    <path d="M 5.714769394531249 3  C 5.714769394531249 1.5036345312500004  4.4968751171875 0.28633986328125083  3.000809453124999 0.28633986328125083  C 1.5047437890624984 0.28633986328125083  0.2868495117187493 1.5036345312500004  0.2868495117187493 3  C 0.2868495117187493 4.496065664062501  1.5047437890624984 5.71395994140625  3.000809453124999 5.71395994140625  C 4.4968751171875 5.71395994140625  5.714769394531249 4.496065664062501  5.714769394531249 3  Z M 4.629205410156249 3.0000199804687497  C 4.62918541015625 3.89777130859375  3.8985607812499996 4.628375957031249  3.000809453124999 4.628375957031249  C 2.103637734374999 4.628375957031249  1.3724534765624998 3.8977713085937484  1.3724534765624998 3.0000199804687497  C 1.3724534765624998 2.1025484570312507  2.103637734374999 1.371963808593751  3.000809453124999 1.371963808593751  C 3.8985607812499996 1.371963808593751  4.629205410156249 2.10256845703125  4.629205410156249 3.0000199804687497  Z " fill-rule="nonzero" fill="rgba(255, 255, 255, 1)" stroke="none" transform="matrix(1 0 0 1 1832 691 )" class="fill" />
    <path d="M 5.714769394531249 3  C 5.714769394531249 1.5036345312500004  4.4968751171875 0.28633986328125083  3.000809453124999 0.28633986328125083  C 1.5047437890624984 0.28633986328125083  0.2868495117187493 1.5036345312500004  0.2868495117187493 3  C 0.2868495117187493 4.496065664062501  1.5047437890624984 5.71395994140625  3.000809453124999 5.71395994140625  C 4.4968751171875 5.71395994140625  5.714769394531249 4.496065664062501  5.714769394531249 3  Z " stroke-width="0" stroke-dasharray="0" stroke="rgba(255, 255, 255, 0)" fill="none" transform="matrix(1 0 0 1 1832 691 )" class="stroke" mask="url(#Clip7537)" />
    <path d="M 4.629205410156249 3.0000199804687497  C 4.62918541015625 3.89777130859375  3.8985607812499996 4.628375957031249  3.000809453124999 4.628375957031249  C 2.103637734374999 4.628375957031249  1.3724534765624998 3.8977713085937484  1.3724534765624998 3.0000199804687497  C 1.3724534765624998 2.1025484570312507  2.103637734374999 1.371963808593751  3.000809453124999 1.371963808593751  C 3.8985607812499996 1.371963808593751  4.629205410156249 2.10256845703125  4.629205410156249 3.0000199804687497  Z " stroke-width="0" stroke-dasharray="0" stroke="rgba(255, 255, 255, 0)" fill="none" transform="matrix(1 0 0 1 1832 691 )" class="stroke" mask="url(#Clip7537)" />
  </g>
</svg>