<?xml version="1.0" encoding="utf-8"?>
<svg version="1.1" xmlns:xlink="http://www.w3.org/1999/xlink" width="38px" height="41px" xmlns="http://www.w3.org/2000/svg">
  <defs>
    <pattern id="BGPattern" patternUnits="userSpaceOnUse" alignment="0 0" imageRepeat="None" />
    <mask fill="white" id="Clip3435">
      <path d="M 11.260409316406253 35.911503164062495  L 10.92166548828125 35.32462951171875  L 36.0767819140625 20.80098802734375  L 36.415525742187505 21.3878616796875  L 11.260409316406253 35.911503164062495  Z M 2.5339449804687515 20.73832037109375  L 2.1947776953124993 20.15187017578125  L 27.349894121093747 5.628228632812501  L 27.688637949218755 6.214678886718751  L 2.5339449804687515 20.73832037109375  Z M 14.7706422265625 4.253352128906252  L 13.034580078125002 6.201129140625001  L 9.816513769531248 3.9569513085937515  L 10.112914589843747 7.8948482812500025  L 7.572335937499997 8.445306972656251  L 9.689484804687499 10.5624558984375  L 15.575158789062499 7.175017617187503  L 14.7706422265625 4.253352128906252  Z M 26.880733964843753 35.33309806640626  L 26.753705000000004 33.2582921484375  L 28.447424140625003 34.443895546875  L 30.39520115234376 33.63937898437499  L 29.844742402343755 35.67184189453125  L 31.157374707031252 37.28087507812499  L 29.0825687890625 37.3232180859375  L 27.981651347656253 39.101623124999996  L 27.261820742187496 37.153846171875  L 25.2293577734375 36.645730429687504  L 26.880733964843753 35.33309806640626  Z M 32.85109384765626 29.70148201171873  L 31.66549044921875 28.007762871093753  L 33.74029642578125 28.092448828125  L 34.9682427734375 26.398729687499994  L 35.561044472656256 28.38884970703124  L 37.50882142578126 29.023994355468737  L 35.815102343750006 30.209597753906237  L 35.815102343750006 32.28440367187499  L 34.163726210937504 31.014114316406232  L 32.17360619140626 31.649259023437487  L 32.85109384765626 29.70148201171873  Z M 20.275229375000002 36.9844742578125  L 19.386026796875 35.07904025390625  L 18.4121383203125 36.89978830078125  L 16.337332402343748 37.153846171875  L 17.776993671874997 38.635850390625  L 17.353563886718746 40.668313359375  L 19.2166548828125 39.779110781250004  L 21.03740298828125 40.8376852734375  L 20.7833451171875 38.762879296875  L 22.30769228515625 37.36556103515625  L 20.275229375000002 36.9844742578125  Z M 19.386026796875015 4.846153828125001  L 20.2328863671875 6.7515878906249975  L 21.206774902343753 4.888496835937499  L 23.281580820312506 4.676781914062499  L 21.841919550781256 3.1524347460937476  L 22.265349335937508 1.1199717773437499  L 20.402258281250006 2.0515173046875006  L 18.58151023437501 0.992942812499999  L 18.877911054687512 3.0677487890624984  L 17.311220878906262 4.465067050781251  L 19.386026796875015 4.846153828125001  Z M 5.455187011718751 12.848976738281243  L 6.683133359375002 14.542695820312499  L 4.608327441406251 14.500352871093753  L 3.3803810937500014 16.15172900390625  L 2.7875793945312495 14.161609042968754  L 0.7974594335937493 13.5264643359375  L 2.5335215234375 12.340860996093749  L 2.5335215234375 10.266055019531247  L 4.184897656249998 11.536344374999995  L 6.175017617187499 10.901199726562496  L 5.455187011718751 12.848976738281243  Z " fill-rule="evenodd" />
    </mask>
  </defs>
  <g transform="matrix(1 0 0 1 -540 -1075 )">
    <path d="M 11.260409316406253 35.911503164062495  L 10.92166548828125 35.32462951171875  L 36.0767819140625 20.80098802734375  L 36.415525742187505 21.3878616796875  L 11.260409316406253 35.911503164062495  Z M 2.5339449804687515 20.73832037109375  L 2.1947776953124993 20.15187017578125  L 27.349894121093747 5.628228632812501  L 27.688637949218755 6.214678886718751  L 2.5339449804687515 20.73832037109375  Z M 14.7706422265625 4.253352128906252  L 13.034580078125002 6.201129140625001  L 9.816513769531248 3.9569513085937515  L 10.112914589843747 7.8948482812500025  L 7.572335937499997 8.445306972656251  L 9.689484804687499 10.5624558984375  L 15.575158789062499 7.175017617187503  L 14.7706422265625 4.253352128906252  Z M 26.880733964843753 35.33309806640626  L 26.753705000000004 33.2582921484375  L 28.447424140625003 34.443895546875  L 30.39520115234376 33.63937898437499  L 29.844742402343755 35.67184189453125  L 31.157374707031252 37.28087507812499  L 29.0825687890625 37.3232180859375  L 27.981651347656253 39.101623124999996  L 27.261820742187496 37.153846171875  L 25.2293577734375 36.645730429687504  L 26.880733964843753 35.33309806640626  Z M 32.85109384765626 29.70148201171873  L 31.66549044921875 28.007762871093753  L 33.74029642578125 28.092448828125  L 34.9682427734375 26.398729687499994  L 35.561044472656256 28.38884970703124  L 37.50882142578126 29.023994355468737  L 35.815102343750006 30.209597753906237  L 35.815102343750006 32.28440367187499  L 34.163726210937504 31.014114316406232  L 32.17360619140626 31.649259023437487  L 32.85109384765626 29.70148201171873  Z M 20.275229375000002 36.9844742578125  L 19.386026796875 35.07904025390625  L 18.4121383203125 36.89978830078125  L 16.337332402343748 37.153846171875  L 17.776993671874997 38.635850390625  L 17.353563886718746 40.668313359375  L 19.2166548828125 39.779110781250004  L 21.03740298828125 40.8376852734375  L 20.7833451171875 38.762879296875  L 22.30769228515625 37.36556103515625  L 20.275229375000002 36.9844742578125  Z M 19.386026796875015 4.846153828125001  L 20.2328863671875 6.7515878906249975  L 21.206774902343753 4.888496835937499  L 23.281580820312506 4.676781914062499  L 21.841919550781256 3.1524347460937476  L 22.265349335937508 1.1199717773437499  L 20.402258281250006 2.0515173046875006  L 18.58151023437501 0.992942812499999  L 18.877911054687512 3.0677487890624984  L 17.311220878906262 4.465067050781251  L 19.386026796875015 4.846153828125001  Z M 5.455187011718751 12.848976738281243  L 6.683133359375002 14.542695820312499  L 4.608327441406251 14.500352871093753  L 3.3803810937500014 16.15172900390625  L 2.7875793945312495 14.161609042968754  L 0.7974594335937493 13.5264643359375  L 2.5335215234375 12.340860996093749  L 2.5335215234375 10.266055019531247  L 4.184897656249998 11.536344374999995  L 6.175017617187499 10.901199726562496  L 5.455187011718751 12.848976738281243  Z " fill-rule="nonzero" fill="rgba(132, 0, 255, 1)" stroke="none" transform="matrix(1 0 0 1 540 1075 )" class="fill" />
    <path d="M 11.260409316406253 35.911503164062495  L 10.92166548828125 35.32462951171875  L 36.0767819140625 20.80098802734375  L 36.415525742187505 21.3878616796875  L 11.260409316406253 35.911503164062495  Z " stroke-width="0" stroke-dasharray="0" stroke="rgba(255, 255, 255, 0)" fill="none" transform="matrix(1 0 0 1 540 1075 )" class="stroke" mask="url(#Clip3435)" />
    <path d="M 2.5339449804687515 20.73832037109375  L 2.1947776953124993 20.15187017578125  L 27.349894121093747 5.628228632812501  L 27.688637949218755 6.214678886718751  L 2.5339449804687515 20.73832037109375  Z " stroke-width="0" stroke-dasharray="0" stroke="rgba(255, 255, 255, 0)" fill="none" transform="matrix(1 0 0 1 540 1075 )" class="stroke" mask="url(#Clip3435)" />
    <path d="M 14.7706422265625 4.253352128906252  L 13.034580078125002 6.201129140625001  L 9.816513769531248 3.9569513085937515  L 10.112914589843747 7.8948482812500025  L 7.572335937499997 8.445306972656251  L 9.689484804687499 10.5624558984375  L 15.575158789062499 7.175017617187503  L 14.7706422265625 4.253352128906252  Z " stroke-width="0" stroke-dasharray="0" stroke="rgba(255, 255, 255, 0)" fill="none" transform="matrix(1 0 0 1 540 1075 )" class="stroke" mask="url(#Clip3435)" />
    <path d="M 26.880733964843753 35.33309806640626  L 26.753705000000004 33.2582921484375  L 28.447424140625003 34.443895546875  L 30.39520115234376 33.63937898437499  L 29.844742402343755 35.67184189453125  L 31.157374707031252 37.28087507812499  L 29.0825687890625 37.3232180859375  L 27.981651347656253 39.101623124999996  L 27.261820742187496 37.153846171875  L 25.2293577734375 36.645730429687504  L 26.880733964843753 35.33309806640626  Z " stroke-width="0" stroke-dasharray="0" stroke="rgba(255, 255, 255, 0)" fill="none" transform="matrix(1 0 0 1 540 1075 )" class="stroke" mask="url(#Clip3435)" />
    <path d="M 32.85109384765626 29.70148201171873  L 31.66549044921875 28.007762871093753  L 33.74029642578125 28.092448828125  L 34.9682427734375 26.398729687499994  L 35.561044472656256 28.38884970703124  L 37.50882142578126 29.023994355468737  L 35.815102343750006 30.209597753906237  L 35.815102343750006 32.28440367187499  L 34.163726210937504 31.014114316406232  L 32.17360619140626 31.649259023437487  L 32.85109384765626 29.70148201171873  Z " stroke-width="0" stroke-dasharray="0" stroke="rgba(255, 255, 255, 0)" fill="none" transform="matrix(1 0 0 1 540 1075 )" class="stroke" mask="url(#Clip3435)" />
    <path d="M 20.275229375000002 36.9844742578125  L 19.386026796875 35.07904025390625  L 18.4121383203125 36.89978830078125  L 16.337332402343748 37.153846171875  L 17.776993671874997 38.635850390625  L 17.353563886718746 40.668313359375  L 19.2166548828125 39.779110781250004  L 21.03740298828125 40.8376852734375  L 20.7833451171875 38.762879296875  L 22.30769228515625 37.36556103515625  L 20.275229375000002 36.9844742578125  Z " stroke-width="0" stroke-dasharray="0" stroke="rgba(255, 255, 255, 0)" fill="none" transform="matrix(1 0 0 1 540 1075 )" class="stroke" mask="url(#Clip3435)" />
    <path d="M 19.386026796875015 4.846153828125001  L 20.2328863671875 6.7515878906249975  L 21.206774902343753 4.888496835937499  L 23.281580820312506 4.676781914062499  L 21.841919550781256 3.1524347460937476  L 22.265349335937508 1.1199717773437499  L 20.402258281250006 2.0515173046875006  L 18.58151023437501 0.992942812499999  L 18.877911054687512 3.0677487890624984  L 17.311220878906262 4.465067050781251  L 19.386026796875015 4.846153828125001  Z " stroke-width="0" stroke-dasharray="0" stroke="rgba(255, 255, 255, 0)" fill="none" transform="matrix(1 0 0 1 540 1075 )" class="stroke" mask="url(#Clip3435)" />
    <path d="M 5.455187011718751 12.848976738281243  L 6.683133359375002 14.542695820312499  L 4.608327441406251 14.500352871093753  L 3.3803810937500014 16.15172900390625  L 2.7875793945312495 14.161609042968754  L 0.7974594335937493 13.5264643359375  L 2.5335215234375 12.340860996093749  L 2.5335215234375 10.266055019531247  L 4.184897656249998 11.536344374999995  L 6.175017617187499 10.901199726562496  L 5.455187011718751 12.848976738281243  Z " stroke-width="0" stroke-dasharray="0" stroke="rgba(255, 255, 255, 0)" fill="none" transform="matrix(1 0 0 1 540 1075 )" class="stroke" mask="url(#Clip3435)" />
  </g>
</svg>