<?xml version="1.0" encoding="utf-8"?>
<svg version="1.1" xmlns:xlink="http://www.w3.org/1999/xlink" width="30px" height="24px" xmlns="http://www.w3.org/2000/svg">
  <defs>
    <pattern id="BGPattern" patternUnits="userSpaceOnUse" alignment="0 0" imageRepeat="None" />
    <mask fill="white" id="Clip3285">
      <path d="M 0.41284406249999783 12.868031074218749  L 10.44812982421875 7.067043046875  L 11.167960488281249 8.294989394531253  L 8.076923085937498 10.073394492187504  L 9.516584355468748 12.571630195312505  L 13.0733944921875 10.539167226562505  L 13.793225097656247 11.767113632812507  L 2.826393808593746 18.1185603515625  L 2.106563144531247 16.890613945312502  L 5.663373339843748 14.81580802734375  L 4.223712070312498 12.317572324218748  L 1.1326746679687467 14.095977421874998  L 0.41284406249999783 12.868031074218749  Z M 2.868736757812499 13.291460859375007  C 3.5462244140625003 13.672547636718754  4.223712070312498 14.053634472656256  4.858856718750001 14.56175015625  L 4.054340156249999 15.662667597656252  C 3.3345095507812523 15.112208906250004  2.657021894531251 14.688779121093752  1.9371912304687484 14.350035292968755  L 2.868736757812499 13.291460859375007  Z M 12.861679628906256 13.20677490234376  L 16.079745937500004 18.753705000000004  L 14.809456582031252 19.473535664062503  L 14.513055761718753 18.965419921875004  L 8.712067734375001 22.352858144531254  L 9.008468613281252 22.860973886718753  L 7.738179257812504 23.580804492187504  L 4.520112890625004 18.033874394531253  L 12.861679628906256 13.20677490234376  Z M 8.288637949218753 13.333803808593753  L 6.80663373046875 10.79322509765625  L 5.451658417968748 11.555398710937503  L 6.891319687500001 14.0536344140625  L 8.288637949218753 13.333803808593753  Z M 6.976005644531249 19.304163749999994  L 12.7346506640625 15.916725468750002  L 12.226534921875 15.02752294921875  L 6.425546953125 18.372618222656243  L 6.976005644531249 19.304163749999994  Z M 8.076923085937501 21.2942837109375  L 13.877911054687498 17.9068454296875  L 13.369795371093751 17.017642910156255  L 7.568807343749999 20.36273818359375  L 8.076923085937501 21.2942837109375  Z M 9.47424134765625 9.48059279296875  L 10.829216660156249 9.14184896484375  C 10.99858857421875 10.031051484374998  11.083274531249998 10.877911054687502  11.0409315234375 11.64008466796875  L 9.68595626953125 11.85179958984375  C 9.72829921875 11.17431193359375  9.6436133203125 10.369795371093751  9.47424134765625 9.48059279296875  Z M 14.004940019531247 4.44177837890625  L 15.571630195312498 4.1877205078125  C 15.783345058593746 5.923782597656249  15.825688066406247 7.44812982421875  15.741002109375 8.718419179687501  C 16.12208888671875 8.422018359375002  16.545518671874998 8.125617480468755  16.926605507812496 7.829216660156252  C 16.926605507812496 7.321100917968749  16.926605507812496 6.728299218750003  16.884262499999995 6.135497519531253  L 18.2815808203125 5.923782656250001  C 18.2815808203125 8.337332402343755  18.19689486328125 10.158080449218755  17.942836992187495 11.428369804687502  C 18.620324648437496 10.835568105468752  19.255469296874992 10.242766406250002  19.890613945312495 9.522935800781251  L 20.568101601562496 10.708539140625003  C 19.424841210937494 11.894142539062504  18.32392376953124 12.910374023437502  17.180663378906246 13.757233593750001  L 16.164431894531244 12.783345117187501  C 16.333803808593746 12.571630253906253  16.460832714843747 12.3175723828125  16.545518730468743 12.063514453124998  C 16.714890644531245 11.51305576171875  16.841919550781242 10.623853183593749  16.884262499999988 9.395906835937499  C 16.376146757812492 9.81933662109375  15.783345058593738 10.242766406250002  15.232886367187492 10.666196191406247  L 14.216654882812499 9.69230771484375  C 14.386026796875 9.522935800781248  14.470712753906248 9.226534980468749  14.470712753906248 8.930134101562501  C 14.470712753906248 7.490472832031248  14.301340839843746 6.008468613281249  14.004940019531247 4.44177837890625  Z M 20.822159472656253 12.10585746093749  L 21.414961171875 13.206774902343753  C 21.45730412109375 10.793225156250003  20.568101601562496 7.913902617187503  18.662667597656245 4.568807343750002  L 18.366266777343746 4.103034609375001  L 17.265349335937493 4.738179257812504  L 16.545518730468743 3.5102329101562546  L 22.30416375 0.20748058593749974  L 22.769936484375002 1.0119971484374979  C 23.151023261718755 2.112914589843747  23.489767089843753 3.129146074218749  23.743824960937502 3.9760056445312486  L 25.268172187500006 3.086803124999996  L 25.691601972656258 3.8066337304687465  C 26.41143257812501 5.627381777343743  26.66549044921876 7.363443867187495  26.53846154296876 8.972477050781244  C 27.51235001953126 9.226534921874993  28.528581503906253 9.353563828124994  29.587155937500015 9.395906835937495  L 29.417784023437513 10.962597011718746  C 28.31686658203126 10.877911054687495  27.258292148437512 10.708539140624996  26.284403671875012 10.412138320312497  C 25.988002851562506 11.597741718749997  25.43754410156251 12.698659160156247  24.717713496093765 13.714890585937493  L 23.320395175781258 12.952717031249996  C 24.040225781250015 11.936485546874998  24.505998574218758 10.877911113281243  24.802399453125012 9.819336621093747  C 23.786167968750007 9.311220878906244  22.812279492187514 8.718419179687494  21.923076914062506 7.9562455664062455  C 22.854622441406256 10.539167226562494  23.151023261718763 12.825688066406247  22.812279492187507 14.773465078124993  L 21.33027521484376 14.477064199218745  L 21.457304179687505 13.460832773437488  C 20.61044460937501 14.477064257812494  19.6365561328125 15.535638691406241  18.408609726562503 16.55187017578124  L 17.477064199218752 15.36626677734374  C 18.832039511718754 14.265349335937486  19.932956953125007 13.164431894531237  20.822159472656253 12.10585746093749  Z M 24.929428359375002 8.464361308593752  C 25.098800273437504 7.321100917968749  24.97177130859376 6.177840468750002  24.590684531249998 4.99223712890625  L 22.85462244140625 5.966125605468751  C 22.6005645703125 5.076923085937501  22.219477792968753 3.8066337304687536  21.62667609375 2.1976005468750017  L 19.6365561328125 3.3408609960937525  L 19.890613945312502 3.8066337304687536  C 20.229357773437506 4.357092421875002  20.483415644531256 4.907551171875003  20.737473515625005 5.415666914062502  C 21.965419863281255 6.770642226562501  23.362738183593756 7.786873710937499  24.929428359375002 8.464361308593752  Z " fill-rule="evenodd" />
    </mask>
  </defs>
  <g transform="matrix(1 0 0 1 -545 -1084 )">
    <path d="M 0.41284406249999783 12.868031074218749  L 10.44812982421875 7.067043046875  L 11.167960488281249 8.294989394531253  L 8.076923085937498 10.073394492187504  L 9.516584355468748 12.571630195312505  L 13.0733944921875 10.539167226562505  L 13.793225097656247 11.767113632812507  L 2.826393808593746 18.1185603515625  L 2.106563144531247 16.890613945312502  L 5.663373339843748 14.81580802734375  L 4.223712070312498 12.317572324218748  L 1.1326746679687467 14.095977421874998  L 0.41284406249999783 12.868031074218749  Z M 2.868736757812499 13.291460859375007  C 3.5462244140625003 13.672547636718754  4.223712070312498 14.053634472656256  4.858856718750001 14.56175015625  L 4.054340156249999 15.662667597656252  C 3.3345095507812523 15.112208906250004  2.657021894531251 14.688779121093752  1.9371912304687484 14.350035292968755  L 2.868736757812499 13.291460859375007  Z M 12.861679628906256 13.20677490234376  L 16.079745937500004 18.753705000000004  L 14.809456582031252 19.473535664062503  L 14.513055761718753 18.965419921875004  L 8.712067734375001 22.352858144531254  L 9.008468613281252 22.860973886718753  L 7.738179257812504 23.580804492187504  L 4.520112890625004 18.033874394531253  L 12.861679628906256 13.20677490234376  Z M 8.288637949218753 13.333803808593753  L 6.80663373046875 10.79322509765625  L 5.451658417968748 11.555398710937503  L 6.891319687500001 14.0536344140625  L 8.288637949218753 13.333803808593753  Z M 6.976005644531249 19.304163749999994  L 12.7346506640625 15.916725468750002  L 12.226534921875 15.02752294921875  L 6.425546953125 18.372618222656243  L 6.976005644531249 19.304163749999994  Z M 8.076923085937501 21.2942837109375  L 13.877911054687498 17.9068454296875  L 13.369795371093751 17.017642910156255  L 7.568807343749999 20.36273818359375  L 8.076923085937501 21.2942837109375  Z M 9.47424134765625 9.48059279296875  L 10.829216660156249 9.14184896484375  C 10.99858857421875 10.031051484374998  11.083274531249998 10.877911054687502  11.0409315234375 11.64008466796875  L 9.68595626953125 11.85179958984375  C 9.72829921875 11.17431193359375  9.6436133203125 10.369795371093751  9.47424134765625 9.48059279296875  Z M 14.004940019531247 4.44177837890625  L 15.571630195312498 4.1877205078125  C 15.783345058593746 5.923782597656249  15.825688066406247 7.44812982421875  15.741002109375 8.718419179687501  C 16.12208888671875 8.422018359375002  16.545518671874998 8.125617480468755  16.926605507812496 7.829216660156252  C 16.926605507812496 7.321100917968749  16.926605507812496 6.728299218750003  16.884262499999995 6.135497519531253  L 18.2815808203125 5.923782656250001  C 18.2815808203125 8.337332402343755  18.19689486328125 10.158080449218755  17.942836992187495 11.428369804687502  C 18.620324648437496 10.835568105468752  19.255469296874992 10.242766406250002  19.890613945312495 9.522935800781251  L 20.568101601562496 10.708539140625003  C 19.424841210937494 11.894142539062504  18.32392376953124 12.910374023437502  17.180663378906246 13.757233593750001  L 16.164431894531244 12.783345117187501  C 16.333803808593746 12.571630253906253  16.460832714843747 12.3175723828125  16.545518730468743 12.063514453124998  C 16.714890644531245 11.51305576171875  16.841919550781242 10.623853183593749  16.884262499999988 9.395906835937499  C 16.376146757812492 9.81933662109375  15.783345058593738 10.242766406250002  15.232886367187492 10.666196191406247  L 14.216654882812499 9.69230771484375  C 14.386026796875 9.522935800781248  14.470712753906248 9.226534980468749  14.470712753906248 8.930134101562501  C 14.470712753906248 7.490472832031248  14.301340839843746 6.008468613281249  14.004940019531247 4.44177837890625  Z M 20.822159472656253 12.10585746093749  L 21.414961171875 13.206774902343753  C 21.45730412109375 10.793225156250003  20.568101601562496 7.913902617187503  18.662667597656245 4.568807343750002  L 18.366266777343746 4.103034609375001  L 17.265349335937493 4.738179257812504  L 16.545518730468743 3.5102329101562546  L 22.30416375 0.20748058593749974  L 22.769936484375002 1.0119971484374979  C 23.151023261718755 2.112914589843747  23.489767089843753 3.129146074218749  23.743824960937502 3.9760056445312486  L 25.268172187500006 3.086803124999996  L 25.691601972656258 3.8066337304687465  C 26.41143257812501 5.627381777343743  26.66549044921876 7.363443867187495  26.53846154296876 8.972477050781244  C 27.51235001953126 9.226534921874993  28.528581503906253 9.353563828124994  29.587155937500015 9.395906835937495  L 29.417784023437513 10.962597011718746  C 28.31686658203126 10.877911054687495  27.258292148437512 10.708539140624996  26.284403671875012 10.412138320312497  C 25.988002851562506 11.597741718749997  25.43754410156251 12.698659160156247  24.717713496093765 13.714890585937493  L 23.320395175781258 12.952717031249996  C 24.040225781250015 11.936485546874998  24.505998574218758 10.877911113281243  24.802399453125012 9.819336621093747  C 23.786167968750007 9.311220878906244  22.812279492187514 8.718419179687494  21.923076914062506 7.9562455664062455  C 22.854622441406256 10.539167226562494  23.151023261718763 12.825688066406247  22.812279492187507 14.773465078124993  L 21.33027521484376 14.477064199218745  L 21.457304179687505 13.460832773437488  C 20.61044460937501 14.477064257812494  19.6365561328125 15.535638691406241  18.408609726562503 16.55187017578124  L 17.477064199218752 15.36626677734374  C 18.832039511718754 14.265349335937486  19.932956953125007 13.164431894531237  20.822159472656253 12.10585746093749  Z M 24.929428359375002 8.464361308593752  C 25.098800273437504 7.321100917968749  24.97177130859376 6.177840468750002  24.590684531249998 4.99223712890625  L 22.85462244140625 5.966125605468751  C 22.6005645703125 5.076923085937501  22.219477792968753 3.8066337304687536  21.62667609375 2.1976005468750017  L 19.6365561328125 3.3408609960937525  L 19.890613945312502 3.8066337304687536  C 20.229357773437506 4.357092421875002  20.483415644531256 4.907551171875003  20.737473515625005 5.415666914062502  C 21.965419863281255 6.770642226562501  23.362738183593756 7.786873710937499  24.929428359375002 8.464361308593752  Z " fill-rule="nonzero" fill="rgba(132, 0, 255, 1)" stroke="none" transform="matrix(1 0 0 1 545 1084 )" class="fill" />
    <path d="M 0.41284406249999783 12.868031074218749  L 10.44812982421875 7.067043046875  L 11.167960488281249 8.294989394531253  L 8.076923085937498 10.073394492187504  L 9.516584355468748 12.571630195312505  L 13.0733944921875 10.539167226562505  L 13.793225097656247 11.767113632812507  L 2.826393808593746 18.1185603515625  L 2.106563144531247 16.890613945312502  L 5.663373339843748 14.81580802734375  L 4.223712070312498 12.317572324218748  L 1.1326746679687467 14.095977421874998  L 0.41284406249999783 12.868031074218749  Z " stroke-width="0" stroke-dasharray="0" stroke="rgba(255, 255, 255, 0)" fill="none" transform="matrix(1 0 0 1 545 1084 )" class="stroke" mask="url(#Clip3285)" />
    <path d="M 2.868736757812499 13.291460859375007  C 3.5462244140625003 13.672547636718754  4.223712070312498 14.053634472656256  4.858856718750001 14.56175015625  L 4.054340156249999 15.662667597656252  C 3.3345095507812523 15.112208906250004  2.657021894531251 14.688779121093752  1.9371912304687484 14.350035292968755  L 2.868736757812499 13.291460859375007  Z " stroke-width="0" stroke-dasharray="0" stroke="rgba(255, 255, 255, 0)" fill="none" transform="matrix(1 0 0 1 545 1084 )" class="stroke" mask="url(#Clip3285)" />
    <path d="M 12.861679628906256 13.20677490234376  L 16.079745937500004 18.753705000000004  L 14.809456582031252 19.473535664062503  L 14.513055761718753 18.965419921875004  L 8.712067734375001 22.352858144531254  L 9.008468613281252 22.860973886718753  L 7.738179257812504 23.580804492187504  L 4.520112890625004 18.033874394531253  L 12.861679628906256 13.20677490234376  Z " stroke-width="0" stroke-dasharray="0" stroke="rgba(255, 255, 255, 0)" fill="none" transform="matrix(1 0 0 1 545 1084 )" class="stroke" mask="url(#Clip3285)" />
    <path d="M 8.288637949218753 13.333803808593753  L 6.80663373046875 10.79322509765625  L 5.451658417968748 11.555398710937503  L 6.891319687500001 14.0536344140625  L 8.288637949218753 13.333803808593753  Z " stroke-width="0" stroke-dasharray="0" stroke="rgba(255, 255, 255, 0)" fill="none" transform="matrix(1 0 0 1 545 1084 )" class="stroke" mask="url(#Clip3285)" />
    <path d="M 6.976005644531249 19.304163749999994  L 12.7346506640625 15.916725468750002  L 12.226534921875 15.02752294921875  L 6.425546953125 18.372618222656243  L 6.976005644531249 19.304163749999994  Z " stroke-width="0" stroke-dasharray="0" stroke="rgba(255, 255, 255, 0)" fill="none" transform="matrix(1 0 0 1 545 1084 )" class="stroke" mask="url(#Clip3285)" />
    <path d="M 8.076923085937501 21.2942837109375  L 13.877911054687498 17.9068454296875  L 13.369795371093751 17.017642910156255  L 7.568807343749999 20.36273818359375  L 8.076923085937501 21.2942837109375  Z " stroke-width="0" stroke-dasharray="0" stroke="rgba(255, 255, 255, 0)" fill="none" transform="matrix(1 0 0 1 545 1084 )" class="stroke" mask="url(#Clip3285)" />
    <path d="M 9.47424134765625 9.48059279296875  L 10.829216660156249 9.14184896484375  C 10.99858857421875 10.031051484374998  11.083274531249998 10.877911054687502  11.0409315234375 11.64008466796875  L 9.68595626953125 11.85179958984375  C 9.72829921875 11.17431193359375  9.6436133203125 10.369795371093751  9.47424134765625 9.48059279296875  Z " stroke-width="0" stroke-dasharray="0" stroke="rgba(255, 255, 255, 0)" fill="none" transform="matrix(1 0 0 1 545 1084 )" class="stroke" mask="url(#Clip3285)" />
    <path d="M 14.004940019531247 4.44177837890625  L 15.571630195312498 4.1877205078125  C 15.783345058593746 5.923782597656249  15.825688066406247 7.44812982421875  15.741002109375 8.718419179687501  C 16.12208888671875 8.422018359375002  16.545518671874998 8.125617480468755  16.926605507812496 7.829216660156252  C 16.926605507812496 7.321100917968749  16.926605507812496 6.728299218750003  16.884262499999995 6.135497519531253  L 18.2815808203125 5.923782656250001  C 18.2815808203125 8.337332402343755  18.19689486328125 10.158080449218755  17.942836992187495 11.428369804687502  C 18.620324648437496 10.835568105468752  19.255469296874992 10.242766406250002  19.890613945312495 9.522935800781251  L 20.568101601562496 10.708539140625003  C 19.424841210937494 11.894142539062504  18.32392376953124 12.910374023437502  17.180663378906246 13.757233593750001  L 16.164431894531244 12.783345117187501  C 16.333803808593746 12.571630253906253  16.460832714843747 12.3175723828125  16.545518730468743 12.063514453124998  C 16.714890644531245 11.51305576171875  16.841919550781242 10.623853183593749  16.884262499999988 9.395906835937499  C 16.376146757812492 9.81933662109375  15.783345058593738 10.242766406250002  15.232886367187492 10.666196191406247  L 14.216654882812499 9.69230771484375  C 14.386026796875 9.522935800781248  14.470712753906248 9.226534980468749  14.470712753906248 8.930134101562501  C 14.470712753906248 7.490472832031248  14.301340839843746 6.008468613281249  14.004940019531247 4.44177837890625  Z " stroke-width="0" stroke-dasharray="0" stroke="rgba(255, 255, 255, 0)" fill="none" transform="matrix(1 0 0 1 545 1084 )" class="stroke" mask="url(#Clip3285)" />
    <path d="M 20.822159472656253 12.10585746093749  L 21.414961171875 13.206774902343753  C 21.45730412109375 10.793225156250003  20.568101601562496 7.913902617187503  18.662667597656245 4.568807343750002  L 18.366266777343746 4.103034609375001  L 17.265349335937493 4.738179257812504  L 16.545518730468743 3.5102329101562546  L 22.30416375 0.20748058593749974  L 22.769936484375002 1.0119971484374979  C 23.151023261718755 2.112914589843747  23.489767089843753 3.129146074218749  23.743824960937502 3.9760056445312486  L 25.268172187500006 3.086803124999996  L 25.691601972656258 3.8066337304687465  C 26.41143257812501 5.627381777343743  26.66549044921876 7.363443867187495  26.53846154296876 8.972477050781244  C 27.51235001953126 9.226534921874993  28.528581503906253 9.353563828124994  29.587155937500015 9.395906835937495  L 29.417784023437513 10.962597011718746  C 28.31686658203126 10.877911054687495  27.258292148437512 10.708539140624996  26.284403671875012 10.412138320312497  C 25.988002851562506 11.597741718749997  25.43754410156251 12.698659160156247  24.717713496093765 13.714890585937493  L 23.320395175781258 12.952717031249996  C 24.040225781250015 11.936485546874998  24.505998574218758 10.877911113281243  24.802399453125012 9.819336621093747  C 23.786167968750007 9.311220878906244  22.812279492187514 8.718419179687494  21.923076914062506 7.9562455664062455  C 22.854622441406256 10.539167226562494  23.151023261718763 12.825688066406247  22.812279492187507 14.773465078124993  L 21.33027521484376 14.477064199218745  L 21.457304179687505 13.460832773437488  C 20.61044460937501 14.477064257812494  19.6365561328125 15.535638691406241  18.408609726562503 16.55187017578124  L 17.477064199218752 15.36626677734374  C 18.832039511718754 14.265349335937486  19.932956953125007 13.164431894531237  20.822159472656253 12.10585746093749  Z " stroke-width="0" stroke-dasharray="0" stroke="rgba(255, 255, 255, 0)" fill="none" transform="matrix(1 0 0 1 545 1084 )" class="stroke" mask="url(#Clip3285)" />
    <path d="M 24.929428359375002 8.464361308593752  C 25.098800273437504 7.321100917968749  24.97177130859376 6.177840468750002  24.590684531249998 4.99223712890625  L 22.85462244140625 5.966125605468751  C 22.6005645703125 5.076923085937501  22.219477792968753 3.8066337304687536  21.62667609375 2.1976005468750017  L 19.6365561328125 3.3408609960937525  L 19.890613945312502 3.8066337304687536  C 20.229357773437506 4.357092421875002  20.483415644531256 4.907551171875003  20.737473515625005 5.415666914062502  C 21.965419863281255 6.770642226562501  23.362738183593756 7.786873710937499  24.929428359375002 8.464361308593752  Z " stroke-width="0" stroke-dasharray="0" stroke="rgba(255, 255, 255, 0)" fill="none" transform="matrix(1 0 0 1 545 1084 )" class="stroke" mask="url(#Clip3285)" />
  </g>
</svg>