<?xml version="1.0" encoding="utf-8"?>
<svg version="1.1" xmlns:xlink="http://www.w3.org/1999/xlink" width="60px" height="59px" xmlns="http://www.w3.org/2000/svg">
  <defs>
    <pattern id="BGPattern" patternUnits="userSpaceOnUse" alignment="0 0" imageRepeat="None" />
    <mask fill="white" id="Clip3688">
      <path d="M 40.14114328125 54.51164433593749  C 41.03034580078125 53.664784765624994  42.0042343359375 52.902611152343745  43.062808769531244 52.26746650390625  C 44.1637262109375 51.674664804687495  45.30698660156249 51.2088920703125  46.49259 50.87014818359374  C 47.593507441406246 50.531404355468744  48.652081875 50.1079745703125  49.71065630859375 49.557515878906244  C 50.21877205078125 49.261115058593745  50.68454478515625 48.88002822265625  51.1079745703125 48.4565984375  C 52.2512349609375 47.186309082031244  52.67466474609375 45.32321802734375  53.09809458984375 43.502469980468746  C 53.43683841796875 41.088920234374996  54.45306990234374 38.84474240234374  55.9774170703125 36.981651347656246  C 57.078334511718744 35.414961171875  58.1369089453125 33.932956894531245  58.30628085937499 32.239237812499994  C 58.475652773437496 30.587861679687496  57.755822167968745 28.894142539062496  56.993648554687496 27.158080449218748  C 56.485532812500004 26.057163007812495  56.06210302734375 24.913902617187496  55.76570220703125 23.728299218749996  C 55.55398734375 22.585038828124997  55.46930138671875 21.399435429687493  55.5116443359375 20.213832031249996  C 55.5116443359375 18.350740976562495  55.46930138671875 16.445306972656244  54.58009880859375 14.920959746093748  C 53.69089623046875 13.39661251953125  52.03952009765625 12.422724042968747  50.430486972656254 11.491178574218747  C 49.41425548828125 10.940719882812497  48.440367011718756 10.263232226562497  47.50882142578125 9.501058554687498  C 46.619618906250004 8.654198984374998  45.85744529296875 7.722653457031249  45.1376146875 6.706422031249998  C 43.994354296874995 5.182074804687498  42.89343685546874 3.7424135351562473  41.36908962890625 3.0225829296874966  C 39.88708541015625 2.3027523242187473  38.1086803125 2.472124238281247  36.16090330078125 2.683839101562497  C 33.78969650390624 3.064925878906248  31.333803808593746 2.768525058593747  29.0896259765625 1.8793225390624977  C 27.311220878906248 1.3288638476562475  25.490472832031248 0.7784050976562473  23.79675369140625 1.117148925781247  C 23.203951992187502 1.244177832031247  22.65349330078125 1.4558927539062472  22.145377558593747 1.7946365820312469  C 21.171489082031247 2.429781230468747  20.2399435546875 3.107268886718747  19.393083984374996 3.911785449218747  C 17.614678886718746 5.690190546874998  15.412844062499996 6.960479902343747  12.999294257812497 7.595624550781248  C 11.898376816406246 7.934368378906248  10.839802382812497 8.357798164062498  9.781227949218747 8.908256855468748  C 9.273112207031248 9.204657675781247  8.807339472656249 9.585744511718747  8.383909687499997 10.009174296874997  C 7.240649296874997 11.279463652343749  6.817219511718747 13.142554707031248  6.393789667968748 14.96330275390625  C 6.182074804687498 16.14890615234375  5.843330976562498 17.29216654296875  5.377558242187497 18.393083984375  C 4.827099550781248 19.49400142578125  4.191954843749998 20.51023291015625  3.4721241796874978 21.48412138671875  C 2.371206738281248 23.0508115625  1.3126323046874977 24.53281583984375  1.1432603906249978 26.226534921875  C 0.9738884765624978 27.9202540625  1.6937190820312478 29.571630195312494  2.4558927539062476 31.30769228515625  C 2.9640084960937503 32.408609726562496  3.38743822265625 33.55187017578125  3.6838391015625 34.737473515625  C 3.8955539648437503 35.88073390625  3.980239921875 37.0663373046875  3.9378969726562505 38.251940703124994  C 3.9378969726562505 40.115031757812496  3.980239921875 42.02046576171875  4.8694425 43.544812988281244  C 5.758645078125 45.06916021484375  7.4100212109375 46.04304869140625  9.0190543359375 46.97459421875  C 10.0352858203125 47.52505291015625  11.009174296874999 48.20254056640625  11.94071982421875 48.9647141796875  C 12.82992234375 49.811573749999994  13.59209595703125 50.743119277343744  14.31192662109375 51.75935076171874  C 15.45518701171875 53.28369798828124  16.556104453125 54.76570220703124  18.0804516796875 55.44318986328124  C 19.64714185546875 56.12067751953124  21.425546953125 55.95130560546874  23.37332390625 55.781933691406245  C 25.744530703124997 55.4008469140625  28.200423398437497 55.65490478515625  30.48694423828125 56.544107246093745  C 32.2653493359375 57.09456593749999  34.043754375 57.68736763671875  35.7798165234375 57.30628085937499  C 36.37261822265625 57.17925195312499  36.923076914062506 56.96753703124999  37.43119265625 56.62879320312499  C 38.405081132812505 56.03599150390624  39.33662666015625 55.316160898437495  40.14114328125 54.51164433593749  Z M 51.65843332031249 48.964714179687505  C 51.19266058593749 49.388143964843756  50.642201835937485 49.81157375000001  50.04940013671875 50.150317578125  C 48.990825703125 50.70077626953125  47.88990826171875 51.1665490625  46.74664787109375 51.505292890625  C 44.41778408203125 52.098094589843754  42.300635156249996 53.326040937500004  40.606916015624996 55.06210302734375  C 39.71771349609375 55.86661958984375  38.78616796874999 56.628793203125  37.769936484374995 57.26393791015625  C 37.17713478515625 57.602681738281255  36.5843330859375 57.856739609375005  35.9068454296875 57.983768515625  C 34.043754375 58.364855292968755  32.138320371093755 57.77205365234376  30.275229374999995 57.179251953125004  C 29.174311933593746 56.79816517578126  28.073394492187496 56.501764296875  26.930134101562498 56.37473533203126  C 25.786873710937495 56.29004937500001  24.601270312499995 56.3323923828125  23.458009863281248 56.501764296875  C 21.552575859374997 56.671136210937505  19.562455898437495 56.882851074218756  17.826393808593746 56.12067746093751  C 16.132674667968747 55.35850384765626  14.947071269531246 53.7494706640625  13.803810878906246 52.22512349609376  C 13.126323222656247 51.25123501953126  12.364149609374996 50.36203244140626  11.517290039062496 49.55751587890626  C 10.670430468749997 48.83768527343751  9.696541992187495 48.20254056640626  8.722653515624996 47.65208187500001  C 7.028934374999996 46.67819339843751  5.292872285156246 45.661961914062516  4.318983749999996 43.96824277343751  C 3.3450952148437456 42.27452363281251  3.3450952734374955 40.242060722656255  3.302752265624996 38.29428371093751  C 3.345095214843746 37.15102332031251  3.260409316406246 36.050105878906265  3.048694453124996 34.906845429687515  C 2.752293632812496 33.76358503906251  2.371206796874996 32.66266759765626  1.8630910546874961 31.60409316406251  C 1.100917441406246 29.82568806640626  0.338743828124996 28.00494001953126  0.5081157421874961 26.14184896484376  C 0.7198306054687462 24.27875791015626  1.8630910546874961 22.62738177734376  2.964008496093746 21.06069160156251  C 3.683839101562496 20.129146074218763  4.276640800781246 19.15525759765626  4.784756542968746 18.09668310546876  C 5.208186328124996 17.038108671875012  5.546930156249996 15.937191230468757  5.716302070312496 14.793930839843759  C 6.139731855468746 12.888496835937511  6.563161640624996 10.940719824218762  7.833450937499996 9.50105855468751  C 8.299223671874994 8.992942812500011  8.807339414062495 8.611856035156261  9.400141171874996 8.27311220703126  C 10.458715605468745 7.7226535156250105  11.559633046874996 7.256880722656261  12.745236386718744 6.918136894531261  C 15.074100175781245 6.325335195312512  17.191249101562494 5.097388847656261  18.884968242187494 3.3613267578125114  C 19.774170761718747 2.556810195312511  20.705716289062494 1.794636582031261  21.721947773437495 1.1594918750000112  C 22.314749472656242 0.8207480468750112  22.907551171874996 0.5666901757812615  23.585038828124997 0.4396612695312614  C 25.4481298828125 0.05857449218751132  27.353563886718742 0.6513761328125114  29.216654882812495 1.2441778320312613  C 30.31757232421874 1.6252646093750114  31.418489765624994 1.9216654882812612  32.56175015624999 2.0910374023437615  C 33.705010546875 2.1757233593750116  34.890613945312495 2.1333803515625114  36.03387439453124 1.9640084960937616  C 37.93930839843749 1.7946365820312615  39.92942835937499 1.5829217187500113  41.665490449218744 2.3450952734375115  C 43.35920958984375 3.107268886718761  44.544812988281244 4.673959062500011  45.68807337890624 6.240649238281262  C 46.36556103515624 7.214537714843761  47.12773464843749 8.10374029296876  47.97459421874999 8.908256855468762  C 48.86379673828124 9.628087460937513  49.795342265624996 10.263232167968763  50.76923074218749 10.813690917968762  C 52.46294988281249 11.787579394531262  54.19901197265624 12.803810878906264  55.17290050781249 14.53987296875001  C 56.14678898437499 16.23359210937501  56.18913199218749 18.26605501953126  56.18913199218749 20.213832031250014  C 56.14678904296874 21.357092421875013  56.23147494140625 22.458009863281262  56.44318986328124 23.601270312500013  C 56.73959068359375 24.74453070312501  57.12067751953124 25.84544814453126  57.62879320312499 26.904022578125012  C 58.39096681640624 28.682427675781263  59.15314042968749 30.50317572265626  58.98376851562499 32.36626677734376  C 58.77205365234374 34.229357832031255  57.62879320312499 35.880733964843756  56.52787582031249 37.44742414062501  C 55.80804521484374 38.37896966796876  55.21524351562499 39.35285814453126  54.707127714843736 40.41143257812501  C 54.283697929687484 41.47000701171876  53.94495410156249 42.57092445312501  53.775582187499985 43.71418490234376  C 53.35215240234374 45.61961890625001  52.92872261718749 47.56739591796876  51.65843332031249 48.964714179687505  Z " fill-rule="evenodd" />
    </mask>
  </defs>
  <g transform="matrix(1 0 0 1 -530 -1067 )">
    <path d="M 40.14114328125 54.51164433593749  C 41.03034580078125 53.664784765624994  42.0042343359375 52.902611152343745  43.062808769531244 52.26746650390625  C 44.1637262109375 51.674664804687495  45.30698660156249 51.2088920703125  46.49259 50.87014818359374  C 47.593507441406246 50.531404355468744  48.652081875 50.1079745703125  49.71065630859375 49.557515878906244  C 50.21877205078125 49.261115058593745  50.68454478515625 48.88002822265625  51.1079745703125 48.4565984375  C 52.2512349609375 47.186309082031244  52.67466474609375 45.32321802734375  53.09809458984375 43.502469980468746  C 53.43683841796875 41.088920234374996  54.45306990234374 38.84474240234374  55.9774170703125 36.981651347656246  C 57.078334511718744 35.414961171875  58.1369089453125 33.932956894531245  58.30628085937499 32.239237812499994  C 58.475652773437496 30.587861679687496  57.755822167968745 28.894142539062496  56.993648554687496 27.158080449218748  C 56.485532812500004 26.057163007812495  56.06210302734375 24.913902617187496  55.76570220703125 23.728299218749996  C 55.55398734375 22.585038828124997  55.46930138671875 21.399435429687493  55.5116443359375 20.213832031249996  C 55.5116443359375 18.350740976562495  55.46930138671875 16.445306972656244  54.58009880859375 14.920959746093748  C 53.69089623046875 13.39661251953125  52.03952009765625 12.422724042968747  50.430486972656254 11.491178574218747  C 49.41425548828125 10.940719882812497  48.440367011718756 10.263232226562497  47.50882142578125 9.501058554687498  C 46.619618906250004 8.654198984374998  45.85744529296875 7.722653457031249  45.1376146875 6.706422031249998  C 43.994354296874995 5.182074804687498  42.89343685546874 3.7424135351562473  41.36908962890625 3.0225829296874966  C 39.88708541015625 2.3027523242187473  38.1086803125 2.472124238281247  36.16090330078125 2.683839101562497  C 33.78969650390624 3.064925878906248  31.333803808593746 2.768525058593747  29.0896259765625 1.8793225390624977  C 27.311220878906248 1.3288638476562475  25.490472832031248 0.7784050976562473  23.79675369140625 1.117148925781247  C 23.203951992187502 1.244177832031247  22.65349330078125 1.4558927539062472  22.145377558593747 1.7946365820312469  C 21.171489082031247 2.429781230468747  20.2399435546875 3.107268886718747  19.393083984374996 3.911785449218747  C 17.614678886718746 5.690190546874998  15.412844062499996 6.960479902343747  12.999294257812497 7.595624550781248  C 11.898376816406246 7.934368378906248  10.839802382812497 8.357798164062498  9.781227949218747 8.908256855468748  C 9.273112207031248 9.204657675781247  8.807339472656249 9.585744511718747  8.383909687499997 10.009174296874997  C 7.240649296874997 11.279463652343749  6.817219511718747 13.142554707031248  6.393789667968748 14.96330275390625  C 6.182074804687498 16.14890615234375  5.843330976562498 17.29216654296875  5.377558242187497 18.393083984375  C 4.827099550781248 19.49400142578125  4.191954843749998 20.51023291015625  3.4721241796874978 21.48412138671875  C 2.371206738281248 23.0508115625  1.3126323046874977 24.53281583984375  1.1432603906249978 26.226534921875  C 0.9738884765624978 27.9202540625  1.6937190820312478 29.571630195312494  2.4558927539062476 31.30769228515625  C 2.9640084960937503 32.408609726562496  3.38743822265625 33.55187017578125  3.6838391015625 34.737473515625  C 3.8955539648437503 35.88073390625  3.980239921875 37.0663373046875  3.9378969726562505 38.251940703124994  C 3.9378969726562505 40.115031757812496  3.980239921875 42.02046576171875  4.8694425 43.544812988281244  C 5.758645078125 45.06916021484375  7.4100212109375 46.04304869140625  9.0190543359375 46.97459421875  C 10.0352858203125 47.52505291015625  11.009174296874999 48.20254056640625  11.94071982421875 48.9647141796875  C 12.82992234375 49.811573749999994  13.59209595703125 50.743119277343744  14.31192662109375 51.75935076171874  C 15.45518701171875 53.28369798828124  16.556104453125 54.76570220703124  18.0804516796875 55.44318986328124  C 19.64714185546875 56.12067751953124  21.425546953125 55.95130560546874  23.37332390625 55.781933691406245  C 25.744530703124997 55.4008469140625  28.200423398437497 55.65490478515625  30.48694423828125 56.544107246093745  C 32.2653493359375 57.09456593749999  34.043754375 57.68736763671875  35.7798165234375 57.30628085937499  C 36.37261822265625 57.17925195312499  36.923076914062506 56.96753703124999  37.43119265625 56.62879320312499  C 38.405081132812505 56.03599150390624  39.33662666015625 55.316160898437495  40.14114328125 54.51164433593749  Z M 51.65843332031249 48.964714179687505  C 51.19266058593749 49.388143964843756  50.642201835937485 49.81157375000001  50.04940013671875 50.150317578125  C 48.990825703125 50.70077626953125  47.88990826171875 51.1665490625  46.74664787109375 51.505292890625  C 44.41778408203125 52.098094589843754  42.300635156249996 53.326040937500004  40.606916015624996 55.06210302734375  C 39.71771349609375 55.86661958984375  38.78616796874999 56.628793203125  37.769936484374995 57.26393791015625  C 37.17713478515625 57.602681738281255  36.5843330859375 57.856739609375005  35.9068454296875 57.983768515625  C 34.043754375 58.364855292968755  32.138320371093755 57.77205365234376  30.275229374999995 57.179251953125004  C 29.174311933593746 56.79816517578126  28.073394492187496 56.501764296875  26.930134101562498 56.37473533203126  C 25.786873710937495 56.29004937500001  24.601270312499995 56.3323923828125  23.458009863281248 56.501764296875  C 21.552575859374997 56.671136210937505  19.562455898437495 56.882851074218756  17.826393808593746 56.12067746093751  C 16.132674667968747 55.35850384765626  14.947071269531246 53.7494706640625  13.803810878906246 52.22512349609376  C 13.126323222656247 51.25123501953126  12.364149609374996 50.36203244140626  11.517290039062496 49.55751587890626  C 10.670430468749997 48.83768527343751  9.696541992187495 48.20254056640626  8.722653515624996 47.65208187500001  C 7.028934374999996 46.67819339843751  5.292872285156246 45.661961914062516  4.318983749999996 43.96824277343751  C 3.3450952148437456 42.27452363281251  3.3450952734374955 40.242060722656255  3.302752265624996 38.29428371093751  C 3.345095214843746 37.15102332031251  3.260409316406246 36.050105878906265  3.048694453124996 34.906845429687515  C 2.752293632812496 33.76358503906251  2.371206796874996 32.66266759765626  1.8630910546874961 31.60409316406251  C 1.100917441406246 29.82568806640626  0.338743828124996 28.00494001953126  0.5081157421874961 26.14184896484376  C 0.7198306054687462 24.27875791015626  1.8630910546874961 22.62738177734376  2.964008496093746 21.06069160156251  C 3.683839101562496 20.129146074218763  4.276640800781246 19.15525759765626  4.784756542968746 18.09668310546876  C 5.208186328124996 17.038108671875012  5.546930156249996 15.937191230468757  5.716302070312496 14.793930839843759  C 6.139731855468746 12.888496835937511  6.563161640624996 10.940719824218762  7.833450937499996 9.50105855468751  C 8.299223671874994 8.992942812500011  8.807339414062495 8.611856035156261  9.400141171874996 8.27311220703126  C 10.458715605468745 7.7226535156250105  11.559633046874996 7.256880722656261  12.745236386718744 6.918136894531261  C 15.074100175781245 6.325335195312512  17.191249101562494 5.097388847656261  18.884968242187494 3.3613267578125114  C 19.774170761718747 2.556810195312511  20.705716289062494 1.794636582031261  21.721947773437495 1.1594918750000112  C 22.314749472656242 0.8207480468750112  22.907551171874996 0.5666901757812615  23.585038828124997 0.4396612695312614  C 25.4481298828125 0.05857449218751132  27.353563886718742 0.6513761328125114  29.216654882812495 1.2441778320312613  C 30.31757232421874 1.6252646093750114  31.418489765624994 1.9216654882812612  32.56175015624999 2.0910374023437615  C 33.705010546875 2.1757233593750116  34.890613945312495 2.1333803515625114  36.03387439453124 1.9640084960937616  C 37.93930839843749 1.7946365820312615  39.92942835937499 1.5829217187500113  41.665490449218744 2.3450952734375115  C 43.35920958984375 3.107268886718761  44.544812988281244 4.673959062500011  45.68807337890624 6.240649238281262  C 46.36556103515624 7.214537714843761  47.12773464843749 8.10374029296876  47.97459421874999 8.908256855468762  C 48.86379673828124 9.628087460937513  49.795342265624996 10.263232167968763  50.76923074218749 10.813690917968762  C 52.46294988281249 11.787579394531262  54.19901197265624 12.803810878906264  55.17290050781249 14.53987296875001  C 56.14678898437499 16.23359210937501  56.18913199218749 18.26605501953126  56.18913199218749 20.213832031250014  C 56.14678904296874 21.357092421875013  56.23147494140625 22.458009863281262  56.44318986328124 23.601270312500013  C 56.73959068359375 24.74453070312501  57.12067751953124 25.84544814453126  57.62879320312499 26.904022578125012  C 58.39096681640624 28.682427675781263  59.15314042968749 30.50317572265626  58.98376851562499 32.36626677734376  C 58.77205365234374 34.229357832031255  57.62879320312499 35.880733964843756  56.52787582031249 37.44742414062501  C 55.80804521484374 38.37896966796876  55.21524351562499 39.35285814453126  54.707127714843736 40.41143257812501  C 54.283697929687484 41.47000701171876  53.94495410156249 42.57092445312501  53.775582187499985 43.71418490234376  C 53.35215240234374 45.61961890625001  52.92872261718749 47.56739591796876  51.65843332031249 48.964714179687505  Z " fill-rule="nonzero" fill="rgba(132, 0, 255, 1)" stroke="none" transform="matrix(1 0 0 1 530 1067 )" class="fill" />
    <path d="M 40.14114328125 54.51164433593749  C 41.03034580078125 53.664784765624994  42.0042343359375 52.902611152343745  43.062808769531244 52.26746650390625  C 44.1637262109375 51.674664804687495  45.30698660156249 51.2088920703125  46.49259 50.87014818359374  C 47.593507441406246 50.531404355468744  48.652081875 50.1079745703125  49.71065630859375 49.557515878906244  C 50.21877205078125 49.261115058593745  50.68454478515625 48.88002822265625  51.1079745703125 48.4565984375  C 52.2512349609375 47.186309082031244  52.67466474609375 45.32321802734375  53.09809458984375 43.502469980468746  C 53.43683841796875 41.088920234374996  54.45306990234374 38.84474240234374  55.9774170703125 36.981651347656246  C 57.078334511718744 35.414961171875  58.1369089453125 33.932956894531245  58.30628085937499 32.239237812499994  C 58.475652773437496 30.587861679687496  57.755822167968745 28.894142539062496  56.993648554687496 27.158080449218748  C 56.485532812500004 26.057163007812495  56.06210302734375 24.913902617187496  55.76570220703125 23.728299218749996  C 55.55398734375 22.585038828124997  55.46930138671875 21.399435429687493  55.5116443359375 20.213832031249996  C 55.5116443359375 18.350740976562495  55.46930138671875 16.445306972656244  54.58009880859375 14.920959746093748  C 53.69089623046875 13.39661251953125  52.03952009765625 12.422724042968747  50.430486972656254 11.491178574218747  C 49.41425548828125 10.940719882812497  48.440367011718756 10.263232226562497  47.50882142578125 9.501058554687498  C 46.619618906250004 8.654198984374998  45.85744529296875 7.722653457031249  45.1376146875 6.706422031249998  C 43.994354296874995 5.182074804687498  42.89343685546874 3.7424135351562473  41.36908962890625 3.0225829296874966  C 39.88708541015625 2.3027523242187473  38.1086803125 2.472124238281247  36.16090330078125 2.683839101562497  C 33.78969650390624 3.064925878906248  31.333803808593746 2.768525058593747  29.0896259765625 1.8793225390624977  C 27.311220878906248 1.3288638476562475  25.490472832031248 0.7784050976562473  23.79675369140625 1.117148925781247  C 23.203951992187502 1.244177832031247  22.65349330078125 1.4558927539062472  22.145377558593747 1.7946365820312469  C 21.171489082031247 2.429781230468747  20.2399435546875 3.107268886718747  19.393083984374996 3.911785449218747  C 17.614678886718746 5.690190546874998  15.412844062499996 6.960479902343747  12.999294257812497 7.595624550781248  C 11.898376816406246 7.934368378906248  10.839802382812497 8.357798164062498  9.781227949218747 8.908256855468748  C 9.273112207031248 9.204657675781247  8.807339472656249 9.585744511718747  8.383909687499997 10.009174296874997  C 7.240649296874997 11.279463652343749  6.817219511718747 13.142554707031248  6.393789667968748 14.96330275390625  C 6.182074804687498 16.14890615234375  5.843330976562498 17.29216654296875  5.377558242187497 18.393083984375  C 4.827099550781248 19.49400142578125  4.191954843749998 20.51023291015625  3.4721241796874978 21.48412138671875  C 2.371206738281248 23.0508115625  1.3126323046874977 24.53281583984375  1.1432603906249978 26.226534921875  C 0.9738884765624978 27.9202540625  1.6937190820312478 29.571630195312494  2.4558927539062476 31.30769228515625  C 2.9640084960937503 32.408609726562496  3.38743822265625 33.55187017578125  3.6838391015625 34.737473515625  C 3.8955539648437503 35.88073390625  3.980239921875 37.0663373046875  3.9378969726562505 38.251940703124994  C 3.9378969726562505 40.115031757812496  3.980239921875 42.02046576171875  4.8694425 43.544812988281244  C 5.758645078125 45.06916021484375  7.4100212109375 46.04304869140625  9.0190543359375 46.97459421875  C 10.0352858203125 47.52505291015625  11.009174296874999 48.20254056640625  11.94071982421875 48.9647141796875  C 12.82992234375 49.811573749999994  13.59209595703125 50.743119277343744  14.31192662109375 51.75935076171874  C 15.45518701171875 53.28369798828124  16.556104453125 54.76570220703124  18.0804516796875 55.44318986328124  C 19.64714185546875 56.12067751953124  21.425546953125 55.95130560546874  23.37332390625 55.781933691406245  C 25.744530703124997 55.4008469140625  28.200423398437497 55.65490478515625  30.48694423828125 56.544107246093745  C 32.2653493359375 57.09456593749999  34.043754375 57.68736763671875  35.7798165234375 57.30628085937499  C 36.37261822265625 57.17925195312499  36.923076914062506 56.96753703124999  37.43119265625 56.62879320312499  C 38.405081132812505 56.03599150390624  39.33662666015625 55.316160898437495  40.14114328125 54.51164433593749  Z " stroke-width="0" stroke-dasharray="0" stroke="rgba(255, 255, 255, 0)" fill="none" transform="matrix(1 0 0 1 530 1067 )" class="stroke" mask="url(#Clip3688)" />
    <path d="M 51.65843332031249 48.964714179687505  C 51.19266058593749 49.388143964843756  50.642201835937485 49.81157375000001  50.04940013671875 50.150317578125  C 48.990825703125 50.70077626953125  47.88990826171875 51.1665490625  46.74664787109375 51.505292890625  C 44.41778408203125 52.098094589843754  42.300635156249996 53.326040937500004  40.606916015624996 55.06210302734375  C 39.71771349609375 55.86661958984375  38.78616796874999 56.628793203125  37.769936484374995 57.26393791015625  C 37.17713478515625 57.602681738281255  36.5843330859375 57.856739609375005  35.9068454296875 57.983768515625  C 34.043754375 58.364855292968755  32.138320371093755 57.77205365234376  30.275229374999995 57.179251953125004  C 29.174311933593746 56.79816517578126  28.073394492187496 56.501764296875  26.930134101562498 56.37473533203126  C 25.786873710937495 56.29004937500001  24.601270312499995 56.3323923828125  23.458009863281248 56.501764296875  C 21.552575859374997 56.671136210937505  19.562455898437495 56.882851074218756  17.826393808593746 56.12067746093751  C 16.132674667968747 55.35850384765626  14.947071269531246 53.7494706640625  13.803810878906246 52.22512349609376  C 13.126323222656247 51.25123501953126  12.364149609374996 50.36203244140626  11.517290039062496 49.55751587890626  C 10.670430468749997 48.83768527343751  9.696541992187495 48.20254056640626  8.722653515624996 47.65208187500001  C 7.028934374999996 46.67819339843751  5.292872285156246 45.661961914062516  4.318983749999996 43.96824277343751  C 3.3450952148437456 42.27452363281251  3.3450952734374955 40.242060722656255  3.302752265624996 38.29428371093751  C 3.345095214843746 37.15102332031251  3.260409316406246 36.050105878906265  3.048694453124996 34.906845429687515  C 2.752293632812496 33.76358503906251  2.371206796874996 32.66266759765626  1.8630910546874961 31.60409316406251  C 1.100917441406246 29.82568806640626  0.338743828124996 28.00494001953126  0.5081157421874961 26.14184896484376  C 0.7198306054687462 24.27875791015626  1.8630910546874961 22.62738177734376  2.964008496093746 21.06069160156251  C 3.683839101562496 20.129146074218763  4.276640800781246 19.15525759765626  4.784756542968746 18.09668310546876  C 5.208186328124996 17.038108671875012  5.546930156249996 15.937191230468757  5.716302070312496 14.793930839843759  C 6.139731855468746 12.888496835937511  6.563161640624996 10.940719824218762  7.833450937499996 9.50105855468751  C 8.299223671874994 8.992942812500011  8.807339414062495 8.611856035156261  9.400141171874996 8.27311220703126  C 10.458715605468745 7.7226535156250105  11.559633046874996 7.256880722656261  12.745236386718744 6.918136894531261  C 15.074100175781245 6.325335195312512  17.191249101562494 5.097388847656261  18.884968242187494 3.3613267578125114  C 19.774170761718747 2.556810195312511  20.705716289062494 1.794636582031261  21.721947773437495 1.1594918750000112  C 22.314749472656242 0.8207480468750112  22.907551171874996 0.5666901757812615  23.585038828124997 0.4396612695312614  C 25.4481298828125 0.05857449218751132  27.353563886718742 0.6513761328125114  29.216654882812495 1.2441778320312613  C 30.31757232421874 1.6252646093750114  31.418489765624994 1.9216654882812612  32.56175015624999 2.0910374023437615  C 33.705010546875 2.1757233593750116  34.890613945312495 2.1333803515625114  36.03387439453124 1.9640084960937616  C 37.93930839843749 1.7946365820312615  39.92942835937499 1.5829217187500113  41.665490449218744 2.3450952734375115  C 43.35920958984375 3.107268886718761  44.544812988281244 4.673959062500011  45.68807337890624 6.240649238281262  C 46.36556103515624 7.214537714843761  47.12773464843749 8.10374029296876  47.97459421874999 8.908256855468762  C 48.86379673828124 9.628087460937513  49.795342265624996 10.263232167968763  50.76923074218749 10.813690917968762  C 52.46294988281249 11.787579394531262  54.19901197265624 12.803810878906264  55.17290050781249 14.53987296875001  C 56.14678898437499 16.23359210937501  56.18913199218749 18.26605501953126  56.18913199218749 20.213832031250014  C 56.14678904296874 21.357092421875013  56.23147494140625 22.458009863281262  56.44318986328124 23.601270312500013  C 56.73959068359375 24.74453070312501  57.12067751953124 25.84544814453126  57.62879320312499 26.904022578125012  C 58.39096681640624 28.682427675781263  59.15314042968749 30.50317572265626  58.98376851562499 32.36626677734376  C 58.77205365234374 34.229357832031255  57.62879320312499 35.880733964843756  56.52787582031249 37.44742414062501  C 55.80804521484374 38.37896966796876  55.21524351562499 39.35285814453126  54.707127714843736 40.41143257812501  C 54.283697929687484 41.47000701171876  53.94495410156249 42.57092445312501  53.775582187499985 43.71418490234376  C 53.35215240234374 45.61961890625001  52.92872261718749 47.56739591796876  51.65843332031249 48.964714179687505  Z " stroke-width="0" stroke-dasharray="0" stroke="rgba(255, 255, 255, 0)" fill="none" transform="matrix(1 0 0 1 530 1067 )" class="stroke" mask="url(#Clip3688)" />
  </g>
</svg>