<?xml version="1.0" encoding="utf-8"?>
<svg version="1.1" xmlns:xlink="http://www.w3.org/1999/xlink" width="9px" height="40px" xmlns="http://www.w3.org/2000/svg">
  <defs>
    <pattern id="BGPattern" patternUnits="userSpaceOnUse" alignment="0 0" imageRepeat="None" />
    <mask fill="white" id="Clip13574">
      <path d="M 7.580674671240729 38.065256317895944  L 7.5806746712407005 38.06403659233848  L 8.316180674671216 38.83491520869069  L 7.358681132075475 39.2459691252144  L 5.126548484848485 37.0479893081761  L 6.413379073756431 37.0479893081761  L 7.580674671240729 38.065256317895944  Z M 0.7220507146940918 8.386430360205836  L 0.7220507146940918 8.385210577472847  L 7.119611206403647 0.3434343624928573  L 7.119611206403647 4.716218810748998  L 0.7220507146940918 11.17842578616353  L 0.7220507146940918 8.386430360205836  Z " fill-rule="evenodd" />
    </mask>
  </defs>
  <g transform="matrix(1 0 0 1 -1779 -1890 )">
    <path d="M 7.580674671240729 38.065256317895944  L 7.5806746712407005 38.06403659233848  L 8.316180674671216 38.83491520869069  L 7.358681132075475 39.2459691252144  L 5.126548484848485 37.0479893081761  L 6.413379073756431 37.0479893081761  L 7.580674671240729 38.065256317895944  Z M 0.7220507146940918 8.386430360205836  L 0.7220507146940918 8.385210577472847  L 7.119611206403647 0.3434343624928573  L 7.119611206403647 4.716218810748998  L 0.7220507146940918 11.17842578616353  L 0.7220507146940918 8.386430360205836  Z " fill-rule="nonzero" fill="rgba(255, 225, 0, 1)" stroke="none" transform="matrix(1 0 0 1 1779 1890 )" class="fill" />
    <path d="M 7.580674671240729 38.065256317895944  L 7.5806746712407005 38.06403659233848  L 8.316180674671216 38.83491520869069  L 7.358681132075475 39.2459691252144  L 5.126548484848485 37.0479893081761  L 6.413379073756431 37.0479893081761  L 7.580674671240729 38.065256317895944  Z " stroke-width="0" stroke-dasharray="0" stroke="rgba(255, 255, 255, 0)" fill="none" transform="matrix(1 0 0 1 1779 1890 )" class="stroke" mask="url(#Clip13574)" />
    <path d="M 0.7220507146940918 8.386430360205836  L 0.7220507146940918 8.385210577472847  L 7.119611206403647 0.3434343624928573  L 7.119611206403647 4.716218810748998  L 0.7220507146940918 11.17842578616353  L 0.7220507146940918 8.386430360205836  Z " stroke-width="0" stroke-dasharray="0" stroke="rgba(255, 255, 255, 0)" fill="none" transform="matrix(1 0 0 1 1779 1890 )" class="stroke" mask="url(#Clip13574)" />
  </g>
</svg>