<?xml version="1.0" encoding="utf-8"?>
<svg version="1.1" xmlns:xlink="http://www.w3.org/1999/xlink" width="51px" height="51px" xmlns="http://www.w3.org/2000/svg">
  <defs>
    <pattern id="BGPattern" patternUnits="userSpaceOnUse" alignment="0 0" imageRepeat="None" />
    <mask fill="white" id="Clip1270">
      <path d="M 46.81157375 13.080451679687497  C 40.121383203125 1.4784756835937491  25.258997890625004 -2.5017642968750007  13.614678886718748 4.188426250000001  C 2.0127028906249995 10.878616796875  -1.9675370898437503 25.741002109375  4.722653515625 37.38532111328125  C 11.455187011718747 48.987297109375  26.275229374999995 53.0098800390625  37.9195483203125 46.277346484375  C 49.56386726562501 39.5448129296875  53.50176429687501 24.724770625  46.81157375 13.080451679687497  Z M 47.404375449218755 12.699364843749994  C 54.30628085937499 24.682427675781245  50.19901203125 39.96824277343749  38.258292148437505 46.87014818359374  C 26.317572324218755 53.772053593749995  11.031757226562503 49.664784765624994  4.129851816406255 37.72406494140624  C -2.772053593749995 25.741002109374996  1.3352152343750046 10.455187011718744  13.275935058593756 3.553281601562492  C 25.216654882812506 -3.3486238085937576  40.50246998046876 0.758645019531242  47.404375449218755 12.699364843749994  Z " fill-rule="evenodd" />
    </mask>
  </defs>
  <g transform="matrix(1 0 0 1 -154 -232 )">
    <path d="M 46.81157375 13.080451679687497  C 40.121383203125 1.4784756835937491  25.258997890625004 -2.5017642968750007  13.614678886718748 4.188426250000001  C 2.0127028906249995 10.878616796875  -1.9675370898437503 25.741002109375  4.722653515625 37.38532111328125  C 11.455187011718747 48.987297109375  26.275229374999995 53.0098800390625  37.9195483203125 46.277346484375  C 49.56386726562501 39.5448129296875  53.50176429687501 24.724770625  46.81157375 13.080451679687497  Z M 47.404375449218755 12.699364843749994  C 54.30628085937499 24.682427675781245  50.19901203125 39.96824277343749  38.258292148437505 46.87014818359374  C 26.317572324218755 53.772053593749995  11.031757226562503 49.664784765624994  4.129851816406255 37.72406494140624  C -2.772053593749995 25.741002109374996  1.3352152343750046 10.455187011718744  13.275935058593756 3.553281601562492  C 25.216654882812506 -3.3486238085937576  40.50246998046876 0.758645019531242  47.404375449218755 12.699364843749994  Z " fill-rule="nonzero" fill="rgba(132, 0, 255, 1)" stroke="none" transform="matrix(1 0 0 1 154 232 )" class="fill" />
    <path d="M 46.81157375 13.080451679687497  C 40.121383203125 1.4784756835937491  25.258997890625004 -2.5017642968750007  13.614678886718748 4.188426250000001  C 2.0127028906249995 10.878616796875  -1.9675370898437503 25.741002109375  4.722653515625 37.38532111328125  C 11.455187011718747 48.987297109375  26.275229374999995 53.0098800390625  37.9195483203125 46.277346484375  C 49.56386726562501 39.5448129296875  53.50176429687501 24.724770625  46.81157375 13.080451679687497  Z " stroke-width="0" stroke-dasharray="0" stroke="rgba(255, 255, 255, 0)" fill="none" transform="matrix(1 0 0 1 154 232 )" class="stroke" mask="url(#Clip1270)" />
    <path d="M 47.404375449218755 12.699364843749994  C 54.30628085937499 24.682427675781245  50.19901203125 39.96824277343749  38.258292148437505 46.87014818359374  C 26.317572324218755 53.772053593749995  11.031757226562503 49.664784765624994  4.129851816406255 37.72406494140624  C -2.772053593749995 25.741002109374996  1.3352152343750046 10.455187011718744  13.275935058593756 3.553281601562492  C 25.216654882812506 -3.3486238085937576  40.50246998046876 0.758645019531242  47.404375449218755 12.699364843749994  Z " stroke-width="0" stroke-dasharray="0" stroke="rgba(255, 255, 255, 0)" fill="none" transform="matrix(1 0 0 1 154 232 )" class="stroke" mask="url(#Clip1270)" />
  </g>
</svg>