<?xml version="1.0" encoding="utf-8"?>
<svg version="1.1" xmlns:xlink="http://www.w3.org/1999/xlink" width="48px" height="48px" xmlns="http://www.w3.org/2000/svg">
  <defs>
    <pattern id="BGPattern" patternUnits="userSpaceOnUse" alignment="0 0" imageRepeat="None" />
    <mask fill="white" id="Clip1439">
      <path d="M 43.752999316406246 12.673253378906253  C 37.3592096484375 1.664079082031252  23.258997890624997 -2.1044459765624994  12.249823593750001 4.24700068359375  C 1.2406492968750014 10.598447402343751  -2.5702187695312486 24.698659101562498  3.8235708984375023 35.75017640625  C 10.217360566406253 46.8016937109375  24.275229316406254 50.57021876953125  35.32674662109375 44.1764291015625  C 46.37826392578124 37.78263943359375  50.14678898437499 23.72477068359375  43.752999316406246 12.673253378906253  Z M 44.345801015625 12.376852500000002  C 50.90896259765624 23.724770625  47.0134086328125 38.20606916015625  35.66549044921875 44.81157375  C 27.32392376953125 49.63867324218751  16.949894121093752 48.918842636718765  9.32815810546875 43.07551166015625  C 1.706422089843751 37.232180683593754  -1.6386732421874992 27.366266777343753  0.859562460937501 18.093154570312503  C 3.31545521484375 8.777699355468751  11.148906152343748 1.9181368945312496  20.67607623046875 0.6901905468750007  C 30.203246308593748 -0.5800988085937497  39.56104447265625 4.035285820312501  44.345801015625 12.376852500000002  Z " fill-rule="evenodd" />
    </mask>
  </defs>
  <g transform="matrix(1 0 0 1 -536 -1072 )">
    <path d="M 43.752999316406246 12.673253378906253  C 37.3592096484375 1.664079082031252  23.258997890624997 -2.1044459765624994  12.249823593750001 4.24700068359375  C 1.2406492968750014 10.598447402343751  -2.5702187695312486 24.698659101562498  3.8235708984375023 35.75017640625  C 10.217360566406253 46.8016937109375  24.275229316406254 50.57021876953125  35.32674662109375 44.1764291015625  C 46.37826392578124 37.78263943359375  50.14678898437499 23.72477068359375  43.752999316406246 12.673253378906253  Z M 44.345801015625 12.376852500000002  C 50.90896259765624 23.724770625  47.0134086328125 38.20606916015625  35.66549044921875 44.81157375  C 27.32392376953125 49.63867324218751  16.949894121093752 48.918842636718765  9.32815810546875 43.07551166015625  C 1.706422089843751 37.232180683593754  -1.6386732421874992 27.366266777343753  0.859562460937501 18.093154570312503  C 3.31545521484375 8.777699355468751  11.148906152343748 1.9181368945312496  20.67607623046875 0.6901905468750007  C 30.203246308593748 -0.5800988085937497  39.56104447265625 4.035285820312501  44.345801015625 12.376852500000002  Z " fill-rule="nonzero" fill="rgba(132, 0, 255, 1)" stroke="none" transform="matrix(1 0 0 1 536 1072 )" class="fill" />
    <path d="M 43.752999316406246 12.673253378906253  C 37.3592096484375 1.664079082031252  23.258997890624997 -2.1044459765624994  12.249823593750001 4.24700068359375  C 1.2406492968750014 10.598447402343751  -2.5702187695312486 24.698659101562498  3.8235708984375023 35.75017640625  C 10.217360566406253 46.8016937109375  24.275229316406254 50.57021876953125  35.32674662109375 44.1764291015625  C 46.37826392578124 37.78263943359375  50.14678898437499 23.72477068359375  43.752999316406246 12.673253378906253  Z " stroke-width="0" stroke-dasharray="0" stroke="rgba(255, 255, 255, 0)" fill="none" transform="matrix(1 0 0 1 536 1072 )" class="stroke" mask="url(#Clip1439)" />
    <path d="M 44.345801015625 12.376852500000002  C 50.90896259765624 23.724770625  47.0134086328125 38.20606916015625  35.66549044921875 44.81157375  C 27.32392376953125 49.63867324218751  16.949894121093752 48.918842636718765  9.32815810546875 43.07551166015625  C 1.706422089843751 37.232180683593754  -1.6386732421874992 27.366266777343753  0.859562460937501 18.093154570312503  C 3.31545521484375 8.777699355468751  11.148906152343748 1.9181368945312496  20.67607623046875 0.6901905468750007  C 30.203246308593748 -0.5800988085937497  39.56104447265625 4.035285820312501  44.345801015625 12.376852500000002  Z " stroke-width="0" stroke-dasharray="0" stroke="rgba(255, 255, 255, 0)" fill="none" transform="matrix(1 0 0 1 536 1072 )" class="stroke" mask="url(#Clip1439)" />
  </g>
</svg>