<svg t="1742989470850" class="icon" viewBox="0 0 1024 1024" version="1.1" xmlns="http://www.w3.org/2000/svg" p-id="4717" width="200" height="200"><path d="M734.939 909.098c18.789-10.117 38.3-18.066 58.535-23.847 18.789-5.782 36.855-13.008 54.921-22.403 8.672-5.058 16.621-11.562 23.848-18.789 19.511-21.68 26.738-53.476 33.964-84.55 5.782-41.191 23.125-79.492 49.14-111.289 18.79-26.738 36.856-52.03 39.747-80.937 2.89-28.183-9.395-57.09-22.402-86.718-8.672-18.79-15.899-38.301-20.957-58.535-3.614-19.512-5.059-39.746-4.336-59.98 0-31.797-0.723-64.317-15.899-90.332s-43.359-42.637-70.82-58.535c-17.343-9.395-33.964-20.957-49.863-33.965-15.176-14.453-28.183-30.351-40.468-47.695-19.512-26.016-38.301-50.586-64.317-62.87-25.292-12.286-55.644-9.395-88.886-5.782-40.469 6.504-82.382 1.445-120.683-13.73-30.351-9.395-61.426-18.79-90.332-13.008-10.117 2.168-19.511 5.78-28.183 11.562-16.621 10.84-32.52 22.402-46.973 36.133-30.351 30.351-67.93 52.03-109.12 62.87-18.79 5.782-36.856 13.008-54.922 22.403-8.672 5.058-16.621 11.562-23.848 18.789-19.511 21.68-26.738 53.476-33.964 84.55-3.614 20.235-9.395 39.746-17.344 58.535-9.395 18.79-20.234 36.133-32.52 52.754-18.788 26.738-36.855 52.031-39.745 80.937-2.891 28.906 9.394 57.09 22.402 86.719 8.672 18.789 15.898 38.3 20.957 58.535 3.613 19.511 5.058 39.745 4.336 59.98 0 31.797 0.722 64.316 15.898 90.331s43.36 42.637 70.82 58.535c17.344 9.395 33.965 20.957 49.863 33.965 15.176 14.453 28.184 30.352 40.469 47.695 19.512 26.016 38.3 51.309 64.316 62.871 26.738 11.563 57.09 8.672 90.332 5.781 40.468-6.504 82.382-2.168 121.406 13.008 30.351 9.395 60.702 19.512 90.331 13.008 10.117-2.168 19.512-5.781 28.184-11.563 16.62-10.117 32.52-22.402 46.25-36.132 15.175-14.453 31.796-27.461 49.863-38.3z m119.237-36.133c-18.066 9.395-36.855 17.344-56.367 23.125-39.745 10.117-75.878 31.074-104.784 60.703-15.176 13.73-31.074 26.738-48.418 37.578-10.117 5.781-20.234 10.117-31.797 12.285-31.797 6.504-64.316-3.613-96.113-13.73-18.789-6.504-37.578-11.563-57.09-13.73-19.511-1.446-39.745-0.723-59.257 2.167-32.52 2.891-66.484 6.504-96.113-6.503-28.906-13.008-49.14-40.469-68.652-66.485-11.562-16.62-24.57-31.796-39.023-45.527-14.453-12.285-31.074-23.125-47.695-32.52-28.907-16.62-58.535-33.964-75.156-62.87s-16.621-63.593-17.344-96.836c0.723-19.511-0.723-38.3-4.336-57.812-5.059-19.511-11.562-38.3-20.234-56.367-13.008-30.351-26.016-61.425-23.125-93.222 3.613-31.797 23.125-59.98 41.914-86.719 12.285-15.898 22.402-32.519 31.074-50.585 7.226-18.067 13.008-36.856 15.898-56.367 7.227-32.52 14.453-65.762 36.133-90.332 7.95-8.672 16.62-15.176 26.738-20.957 18.066-9.394 36.855-17.344 57.09-23.125 39.746-10.117 75.878-31.074 104.784-60.703 15.176-13.73 31.075-26.738 48.418-37.578 10.117-5.78 20.235-10.117 31.797-12.285 31.797-6.504 64.316 3.613 96.113 13.73 18.789 6.505 37.578 11.563 57.09 14.454 19.511 1.445 39.745 0.722 59.257-2.168 32.52-2.89 66.484-6.504 96.113 6.504 28.906 13.007 49.14 39.746 68.652 66.484 11.563 16.62 24.57 31.797 39.023 45.527 15.176 12.285 31.075 23.125 47.696 32.52 28.906 16.62 58.534 33.964 75.156 63.593 16.62 28.906 17.343 63.593 17.343 96.835-0.722 19.512 0.723 38.301 4.336 57.813 5.059 19.511 11.563 38.3 20.234 56.367 13.008 30.351 26.016 61.425 23.125 93.222-3.613 31.797-23.125 59.98-41.914 86.718-12.285 15.899-22.402 32.52-31.074 50.586-7.226 18.066-13.007 36.855-15.898 56.367-7.227 32.52-14.453 65.762-36.133 89.61-7.949 7.226-17.343 14.452-27.46 20.233z" fill="#ffffff" p-id="4718"></path><path d="M300.624 156.816c-198.007 114.18-265.937 367.83-151.757 566.56 114.902 198.007 367.83 266.66 566.56 151.757s265.936-367.83 151.757-566.56c-114.18-198.007-367.83-265.936-566.56-151.757zM721.208 885.25C517.42 1003.043 256.542 932.946 138.75 729.157 20.957 524.647 91.054 263.77 294.843 145.976 498.63 28.183 759.509 98.281 877.3 302.069c117.793 204.511 47.695 465.389-156.093 583.182z" fill="#ffffff" p-id="4719"></path><path d="M311.464 174.882C123.574 283.28 58.534 523.924 167.656 712.536s349.041 252.93 537.654 143.808S958.239 507.303 849.118 318.69C739.998 130.8 499.354 66.484 311.464 174.882zM711.09 867.184c-142.363 82.383-319.413 70.098-449.49-29.629S74.433 569.451 117.07 411.19c41.914-158.984 175.605-276.054 338.202-297.01 162.597-21.68 322.303 57.089 403.963 199.452 112.011 193.67 45.527 440.818-148.144 553.552z" fill="#ffffff" p-id="4720"></path><path d="M357.049 756.474l429.314-247.87 5.78 10.008-429.313 247.87zM208.124 497.518l429.314-247.87 5.781 10.016-429.306 247.87z m185-238.085l-54.922-38.301 5.058 67.207-43.359 9.394 36.133 36.133 100.449-57.812-13.73-49.863z m234.14 461.775l28.905 20.234 33.242-13.73-9.394 34.687 22.402 27.461-35.41 0.723-18.789 30.351-12.285-33.242-34.687-8.672 28.183-22.402zM711.09 631.6l35.41 1.445 20.957-28.906 10.117 33.965 33.242 10.84-28.906 20.234v35.41l-28.183-21.68-33.965 10.84 11.562-33.242z m-209.57 120.683l-16.62 31.074-35.41 4.336 24.57 25.293-7.227 34.688 31.797-15.176 31.074 18.066-4.336-35.41 26.016-23.847-34.688-6.504z m14.454-483.455l16.62-31.797 35.41-3.613-24.57-26.015 7.227-34.688-31.797 15.899-31.074-18.067 5.059 35.41-26.738 23.848 35.41 6.504z m-231.25 132.968l-35.41-0.722-20.956 28.183-10.118-33.965-33.964-10.84 29.628-20.234v-35.41l28.184 21.68 33.965-10.84-12.285 33.242zM315.8 526.092l-6.504 23.847c-13.73-4.336-31.074-6.504-52.754-8.672l6.504-23.847c20.234 2.168 37.578 5.058 52.754 8.672z m30.351 55.644l-6.504 23.848c-14.453-5.059-32.52-7.95-54.199-10.118l6.504-23.847c20.957 2.168 39.023 5.781 54.199 10.117z m0-112.734c2.168 7.227 3.613 14.453 4.336 21.68l96.113-55.645c46.972 80.938 74.433 131.523 83.105 151.758 7.95 20.234 2.89 36.132-17.344 47.695-5.78 3.613-15.898 8.672-30.351 15.898l-16.621-16.62c12.285-6.505 23.125-11.563 31.074-16.622 10.117-5.781 12.285-15.176 7.226-27.46s-27.46-52.754-67.206-122.13l-86.719 49.864c-0.722 17.344-3.613 34.687-9.394 51.308l-23.125-9.394c9.394-26.738 10.84-53.477 4.336-80.215l24.57-10.117z m23.125 144.53c5.781 32.52 9.394 63.594 11.562 94.668l-25.292 2.891c-1.446-31.797-4.336-62.87-10.118-93.945l23.848-3.613z m8.672-42.636l-23.125-1.445c5.058-17.344 5.781-33.965 3.613-49.14l20.957-6.504c0.723 5.058 1.445 9.394 1.445 13.73l55.645-32.52 10.84 18.79-32.52 18.789 9.395 15.898 39.023-22.402 10.84 18.789-39.024 22.402 20.235 34.687 15.175-8.671-14.453-25.293 18.79-10.84 24.57 43.36-89.61 52.03-25.292-43.36 19.511-10.839 14.453 25.293 16.621-9.395-20.234-34.687-43.36 25.293-10.839-18.789 43.36-25.293-9.395-15.898-13.73 7.949c-0.723 6.504-2.169 12.285-2.891 18.066z m154.648-169.823l-6.504 23.847c-13.008-4.336-28.906-7.226-48.418-9.394l6.504-23.848c18.066 2.168 33.965 5.781 48.418 9.395z m27.46 57.09l-6.503 23.847c-13.73-5.059-31.797-8.672-53.477-11.563l6.504-23.847c20.234 2.89 37.578 6.504 53.476 11.562z m37.578-70.82c-10.84-20.235-19.511-36.133-26.015-46.973l21.68-12.285c7.226 12.285 15.175 27.46 25.292 44.082l1.446 2.168 56.367-32.52 13.007 21.68-52.753 30.351c37.578 41.914 80.214 67.207 125.741 75.879l-5.78 26.015c-44.083-10.84-82.383-33.242-114.903-66.484 5.059 20.234 6.504 39.746 6.504 58.535 13.008 2.89 28.184 7.95 45.527 15.176l-5.78 24.57c-13.731-5.781-26.74-11.562-40.47-15.898-2.167 18.789-6.503 37.578-13.007 54.921l-24.57-7.949c19.511-54.199 18.789-103.34 0-148.144l-53.477 31.074-13.008-21.68 54.2-32.519z m-9.394 101.893c5.059 32.52 8.672 64.317 9.394 95.39l-26.015 2.891c-0.723-31.796-2.89-63.593-7.227-94.667l23.848-3.614z" fill="#ffffff" p-id="4721"></path></svg>