<?xml version="1.0" encoding="utf-8"?>
<svg version="1.1" xmlns:xlink="http://www.w3.org/1999/xlink" width="14px" height="13px" xmlns="http://www.w3.org/2000/svg">
  <defs>
    <pattern id="BGPattern" patternUnits="userSpaceOnUse" alignment="0 0" imageRepeat="None" />
    <mask fill="white" id="Clip7644">
      <path d="M 7.265176694982193 12.143294229844038  L 8.48400022439396 10.922764818079331  L 9.70282375380572 9.702176582785214  L 12.140529636158663 7.261058935726391  C 12.145510028315526 7.256078543569529  12.150353165570428 7.250941288667567  12.155059047923368 7.245647171020508  C 12.829686498903763 6.489051092589138  13.152470812629254 5.604117759255804  13.12341198909984 4.590847171020508  C 13.094392381256704 3.577572661216587  12.721451204786115 2.7125707004322734  12.004588459688076 1.9958412886675667  C 11.287098263609645 1.2782322690597239  10.42111787145278 0.9053963867067828  9.406647283217488 0.8773336416087433  C 8.502098263609644 0.8523101121969789  7.700219832237095 1.1075487396479593  7.001011989099839 1.6430495239616842  C 6.302145322433173 1.1075012886675664  5.500535518511606 0.8519528572950179  4.596182577335134 0.8764042298440371  C 3.581978655766507 0.9038257984714893  2.71583355772729 1.2759028572950184  1.9977472832174863 1.9926354063146254  C 1.2796574792959179 2.7093687396479593  0.905944145962584 3.5748099161185474  0.8766072832174863 4.5889589357263905  C 0.8472704204723884 5.6031079553342344  1.1703288518449382 6.488709916118548  1.8457825773351333 7.24576481807933  C 1.8504531655704275 7.250980504353842  1.8552649302763102 7.256078543569529  1.8602178714527797 7.261058935726391  L 4.297317871452781 9.702176582785214  L 5.51586493027631 10.92270599454992  L 6.734417871452781 12.143294229844038  C 6.769551204786115 12.178470700432275  6.81008061655082 12.205607955334234  6.856006106746898 12.224705994549922  C 6.901935518511605 12.243764818079335  6.949762969491996 12.253313837687177  6.999488459688074 12.253353053373448  C 7.049217871452781 12.253392269059727  7.09705512635474 12.243921680824432  7.1430002243939565 12.224941288667566  C 7.1889610087076825 12.205921680824432  7.2295492440018005 12.178843249451884  7.26476493027631 12.143705994549922  Z M 11.602117871452782 6.738811876902862  L 9.172117871452778 9.172235406314627  L 7.9532943420410165 10.392823641608743  L 6.999829636158662 11.347588347491097  L 6.046635518511604 10.392823641608743  L 4.828082577335135 9.172294229844038  L 2.3985884596880744 6.738764818079333  C 1.860240224393958 6.131870700432273  1.6028086557665064 5.4224981514126664  1.6262937538057214 4.610647171020508  C 1.6498772832174868 3.7953726612165877  1.9503049302763102 3.0996452102361953  2.5275766949821925 2.523464818079331  C 3.10484336164886 1.9472856023930578  3.801135518511605 1.6481740337656074  4.6164531655704275 1.626130112196979  C 5.431766891060624 1.604086190628352  6.143204145962585 1.865136974942076  6.750764930276311 2.409282465138155  C 6.76781198909984 2.424549131804823  6.786104145962586 2.4381432494518807  6.805641400864545 2.4500648180793316  C 6.825174734197878 2.4619824651381546  6.845629636158662 2.472027563177371  6.8670061067468975 2.480200112196979  C 6.888378655766507 2.4883765827852153  6.910317871452781 2.4945432494518816  6.932823753805723 2.4987001121969783  C 6.955325714590037 2.5028569749420777  6.978019832237095 2.5049373670989397  7.000906106746897 2.504941288667567  C 7.023788459688076 2.504945210236194  7.046482577335135 2.5028707004322728  7.068988459688074 2.4987177592558023  C 7.091494342041017 2.4945648180793327  7.113439440080231 2.4884040337656073  7.134823753805723 2.480235406314626  C 7.156196302825331 2.4720667788636455  7.176647283217488 2.462025602393057  7.196176694982192 2.4501118769028603  C 7.215706106746898 2.4381981514126645  7.234000224393957 2.4246099161185475  7.251059047923367 2.4093471710205083  C 7.858862969491998 1.8652557984714893  8.570490420472389 1.6044891318048222  9.385941400864546 1.627047171020508  C 10.201392381256703 1.6496048180793323  10.897510028315528 1.9493244259224698  11.474294342041016 2.5262059945499207  C 12.05056885184494 3.1023863867067822  12.350372773413566 3.7977608965107037  12.373706106746898 4.612329523961684  C 12.396961008707683 5.423455014157762  12.139764930276312 6.132282465138156  11.602117871452782 6.738811876902862  Z " fill-rule="evenodd" />
    </mask>
  </defs>
  <g transform="matrix(1 0 0 1 -173 -112 )">
    <path d="M 7.265176694982193 12.143294229844038  L 8.48400022439396 10.922764818079331  L 9.70282375380572 9.702176582785214  L 12.140529636158663 7.261058935726391  C 12.145510028315526 7.256078543569529  12.150353165570428 7.250941288667567  12.155059047923368 7.245647171020508  C 12.829686498903763 6.489051092589138  13.152470812629254 5.604117759255804  13.12341198909984 4.590847171020508  C 13.094392381256704 3.577572661216587  12.721451204786115 2.7125707004322734  12.004588459688076 1.9958412886675667  C 11.287098263609645 1.2782322690597239  10.42111787145278 0.9053963867067828  9.406647283217488 0.8773336416087433  C 8.502098263609644 0.8523101121969789  7.700219832237095 1.1075487396479593  7.001011989099839 1.6430495239616842  C 6.302145322433173 1.1075012886675664  5.500535518511606 0.8519528572950179  4.596182577335134 0.8764042298440371  C 3.581978655766507 0.9038257984714893  2.71583355772729 1.2759028572950184  1.9977472832174863 1.9926354063146254  C 1.2796574792959179 2.7093687396479593  0.905944145962584 3.5748099161185474  0.8766072832174863 4.5889589357263905  C 0.8472704204723884 5.6031079553342344  1.1703288518449382 6.488709916118548  1.8457825773351333 7.24576481807933  C 1.8504531655704275 7.250980504353842  1.8552649302763102 7.256078543569529  1.8602178714527797 7.261058935726391  L 4.297317871452781 9.702176582785214  L 5.51586493027631 10.92270599454992  L 6.734417871452781 12.143294229844038  C 6.769551204786115 12.178470700432275  6.81008061655082 12.205607955334234  6.856006106746898 12.224705994549922  C 6.901935518511605 12.243764818079335  6.949762969491996 12.253313837687177  6.999488459688074 12.253353053373448  C 7.049217871452781 12.253392269059727  7.09705512635474 12.243921680824432  7.1430002243939565 12.224941288667566  C 7.1889610087076825 12.205921680824432  7.2295492440018005 12.178843249451884  7.26476493027631 12.143705994549922  Z M 11.602117871452782 6.738811876902862  L 9.172117871452778 9.172235406314627  L 7.9532943420410165 10.392823641608743  L 6.999829636158662 11.347588347491097  L 6.046635518511604 10.392823641608743  L 4.828082577335135 9.172294229844038  L 2.3985884596880744 6.738764818079333  C 1.860240224393958 6.131870700432273  1.6028086557665064 5.4224981514126664  1.6262937538057214 4.610647171020508  C 1.6498772832174868 3.7953726612165877  1.9503049302763102 3.0996452102361953  2.5275766949821925 2.523464818079331  C 3.10484336164886 1.9472856023930578  3.801135518511605 1.6481740337656074  4.6164531655704275 1.626130112196979  C 5.431766891060624 1.604086190628352  6.143204145962585 1.865136974942076  6.750764930276311 2.409282465138155  C 6.76781198909984 2.424549131804823  6.786104145962586 2.4381432494518807  6.805641400864545 2.4500648180793316  C 6.825174734197878 2.4619824651381546  6.845629636158662 2.472027563177371  6.8670061067468975 2.480200112196979  C 6.888378655766507 2.4883765827852153  6.910317871452781 2.4945432494518816  6.932823753805723 2.4987001121969783  C 6.955325714590037 2.5028569749420777  6.978019832237095 2.5049373670989397  7.000906106746897 2.504941288667567  C 7.023788459688076 2.504945210236194  7.046482577335135 2.5028707004322728  7.068988459688074 2.4987177592558023  C 7.091494342041017 2.4945648180793327  7.113439440080231 2.4884040337656073  7.134823753805723 2.480235406314626  C 7.156196302825331 2.4720667788636455  7.176647283217488 2.462025602393057  7.196176694982192 2.4501118769028603  C 7.215706106746898 2.4381981514126645  7.234000224393957 2.4246099161185475  7.251059047923367 2.4093471710205083  C 7.858862969491998 1.8652557984714893  8.570490420472389 1.6044891318048222  9.385941400864546 1.627047171020508  C 10.201392381256703 1.6496048180793323  10.897510028315528 1.9493244259224698  11.474294342041016 2.5262059945499207  C 12.05056885184494 3.1023863867067822  12.350372773413566 3.7977608965107037  12.373706106746898 4.612329523961684  C 12.396961008707683 5.423455014157762  12.139764930276312 6.132282465138156  11.602117871452782 6.738811876902862  Z " fill-rule="nonzero" fill="rgba(255, 255, 255, 1)" stroke="none" transform="matrix(1 0 0 1 173 112 )" class="fill" />
    <path d="M 7.265176694982193 12.143294229844038  L 8.48400022439396 10.922764818079331  L 9.70282375380572 9.702176582785214  L 12.140529636158663 7.261058935726391  C 12.145510028315526 7.256078543569529  12.150353165570428 7.250941288667567  12.155059047923368 7.245647171020508  C 12.829686498903763 6.489051092589138  13.152470812629254 5.604117759255804  13.12341198909984 4.590847171020508  C 13.094392381256704 3.577572661216587  12.721451204786115 2.7125707004322734  12.004588459688076 1.9958412886675667  C 11.287098263609645 1.2782322690597239  10.42111787145278 0.9053963867067828  9.406647283217488 0.8773336416087433  C 8.502098263609644 0.8523101121969789  7.700219832237095 1.1075487396479593  7.001011989099839 1.6430495239616842  C 6.302145322433173 1.1075012886675664  5.500535518511606 0.8519528572950179  4.596182577335134 0.8764042298440371  C 3.581978655766507 0.9038257984714893  2.71583355772729 1.2759028572950184  1.9977472832174863 1.9926354063146254  C 1.2796574792959179 2.7093687396479593  0.905944145962584 3.5748099161185474  0.8766072832174863 4.5889589357263905  C 0.8472704204723884 5.6031079553342344  1.1703288518449382 6.488709916118548  1.8457825773351333 7.24576481807933  C 1.8504531655704275 7.250980504353842  1.8552649302763102 7.256078543569529  1.8602178714527797 7.261058935726391  L 4.297317871452781 9.702176582785214  L 5.51586493027631 10.92270599454992  L 6.734417871452781 12.143294229844038  C 6.769551204786115 12.178470700432275  6.81008061655082 12.205607955334234  6.856006106746898 12.224705994549922  C 6.901935518511605 12.243764818079335  6.949762969491996 12.253313837687177  6.999488459688074 12.253353053373448  C 7.049217871452781 12.253392269059727  7.09705512635474 12.243921680824432  7.1430002243939565 12.224941288667566  C 7.1889610087076825 12.205921680824432  7.2295492440018005 12.178843249451884  7.26476493027631 12.143705994549922  Z " stroke-width="0" stroke-dasharray="0" stroke="rgba(255, 255, 255, 0)" fill="none" transform="matrix(1 0 0 1 173 112 )" class="stroke" mask="url(#Clip7644)" />
    <path d="M 11.602117871452782 6.738811876902862  L 9.172117871452778 9.172235406314627  L 7.9532943420410165 10.392823641608743  L 6.999829636158662 11.347588347491097  L 6.046635518511604 10.392823641608743  L 4.828082577335135 9.172294229844038  L 2.3985884596880744 6.738764818079333  C 1.860240224393958 6.131870700432273  1.6028086557665064 5.4224981514126664  1.6262937538057214 4.610647171020508  C 1.6498772832174868 3.7953726612165877  1.9503049302763102 3.0996452102361953  2.5275766949821925 2.523464818079331  C 3.10484336164886 1.9472856023930578  3.801135518511605 1.6481740337656074  4.6164531655704275 1.626130112196979  C 5.431766891060624 1.604086190628352  6.143204145962585 1.865136974942076  6.750764930276311 2.409282465138155  C 6.76781198909984 2.424549131804823  6.786104145962586 2.4381432494518807  6.805641400864545 2.4500648180793316  C 6.825174734197878 2.4619824651381546  6.845629636158662 2.472027563177371  6.8670061067468975 2.480200112196979  C 6.888378655766507 2.4883765827852153  6.910317871452781 2.4945432494518816  6.932823753805723 2.4987001121969783  C 6.955325714590037 2.5028569749420777  6.978019832237095 2.5049373670989397  7.000906106746897 2.504941288667567  C 7.023788459688076 2.504945210236194  7.046482577335135 2.5028707004322728  7.068988459688074 2.4987177592558023  C 7.091494342041017 2.4945648180793327  7.113439440080231 2.4884040337656073  7.134823753805723 2.480235406314626  C 7.156196302825331 2.4720667788636455  7.176647283217488 2.462025602393057  7.196176694982192 2.4501118769028603  C 7.215706106746898 2.4381981514126645  7.234000224393957 2.4246099161185475  7.251059047923367 2.4093471710205083  C 7.858862969491998 1.8652557984714893  8.570490420472389 1.6044891318048222  9.385941400864546 1.627047171020508  C 10.201392381256703 1.6496048180793323  10.897510028315528 1.9493244259224698  11.474294342041016 2.5262059945499207  C 12.05056885184494 3.1023863867067822  12.350372773413566 3.7977608965107037  12.373706106746898 4.612329523961684  C 12.396961008707683 5.423455014157762  12.139764930276312 6.132282465138156  11.602117871452782 6.738811876902862  Z " stroke-width="0" stroke-dasharray="0" stroke="rgba(255, 255, 255, 0)" fill="none" transform="matrix(1 0 0 1 173 112 )" class="stroke" mask="url(#Clip7644)" />
  </g>
</svg>