<?xml version="1.0" encoding="utf-8"?>
<svg version="1.1" xmlns:xlink="http://www.w3.org/1999/xlink" width="5px" height="6px" xmlns="http://www.w3.org/2000/svg">
  <defs>
    <pattern id="BGPattern" patternUnits="userSpaceOnUse" alignment="0 0" imageRepeat="None" />
    <mask fill="white" id="Clip10913">
      <path d="M 1.3600885213964125 2.11140291871183  L 0.2625002861022949 5.764973506947124  L 1.6118944037493543 5.003308801064772  L 1.9312649919846478 3.6595617422412428  L 4.015947344925824 3.6595617422412428  L 4.821000286102295 0.9307617422412422  L 1.5880826390434715 0.9307617422412422  L 1.3884944037493536 1.8626499775353604  L 3.423247344925823 1.8626499775353604  L 3.1118944037493534 2.9560793893000668  L 2.123053227278765 2.9560793893000668  L 2.3455885213964134 2.11140291871183  L 1.3600885213964125 2.11140291871183  Z " fill-rule="evenodd" />
    </mask>
  </defs>
  <g transform="matrix(1 0 0 1 -176 -115 )">
    <path d="M 1.3600885213964125 2.11140291871183  L 0.2625002861022949 5.764973506947124  L 1.6118944037493543 5.003308801064772  L 1.9312649919846478 3.6595617422412428  L 4.015947344925824 3.6595617422412428  L 4.821000286102295 0.9307617422412422  L 1.5880826390434715 0.9307617422412422  L 1.3884944037493536 1.8626499775353604  L 3.423247344925823 1.8626499775353604  L 3.1118944037493534 2.9560793893000668  L 2.123053227278765 2.9560793893000668  L 2.3455885213964134 2.11140291871183  L 1.3600885213964125 2.11140291871183  Z " fill-rule="nonzero" fill="rgba(255, 255, 255, 1)" stroke="none" transform="matrix(1 0 0 1 176 115 )" class="fill" />
    <path d="M 1.3600885213964125 2.11140291871183  L 0.2625002861022949 5.764973506947124  L 1.6118944037493543 5.003308801064772  L 1.9312649919846478 3.6595617422412428  L 4.015947344925824 3.6595617422412428  L 4.821000286102295 0.9307617422412422  L 1.5880826390434715 0.9307617422412422  L 1.3884944037493536 1.8626499775353604  L 3.423247344925823 1.8626499775353604  L 3.1118944037493534 2.9560793893000668  L 2.123053227278765 2.9560793893000668  L 2.3455885213964134 2.11140291871183  L 1.3600885213964125 2.11140291871183  Z " stroke-width="0" stroke-dasharray="0" stroke="rgba(255, 255, 255, 0)" fill="none" transform="matrix(1 0 0 1 176 115 )" class="stroke" mask="url(#Clip10913)" />
  </g>
</svg>