<?xml version="1.0" encoding="utf-8"?>
<svg version="1.1" xmlns:xlink="http://www.w3.org/1999/xlink" width="100px" height="15px" xmlns="http://www.w3.org/2000/svg">
  <defs>
    <linearGradient gradientUnits="userSpaceOnUse" x1="2.220446049250313E-14" y1="7.5" x2="100.00000000000003" y2="7.5" id="LinearGradient13121">
      <stop id="Stop13122" stop-color="#ff4975" offset="0" />
      <stop id="Stop13123" stop-color="#319eff" offset="1" />
    </linearGradient>
    <pattern id="BGPattern" patternUnits="userSpaceOnUse" alignment="0 0" imageRepeat="None" />
    <linearGradient gradientUnits="userSpaceOnUse" x1="100.00000000000003" y1="7.5" x2="2.220446049250313E-14" y2="7.5" id="LinearGradient13124">
      <stop id="Stop13125" stop-color="#ff4975" offset="0" />
      <stop id="Stop13126" stop-color="#319eff" offset="1" />
    </linearGradient>
    <mask fill="white" id="Clip13127">
      <path d="M 0 0  L 38 0  L 62.00538406809506 0  L 100 0  L 90.86070552637625 13.392544243589327  C 89.94677607901383 14.73179866794817  89.08856442110095 15  86.36070552637625 15  L 60.5 15  L 39.67857142857133 15  L 39.49999998581393 15  L 13.63929447362375 15  C 10.911435578899045 15  10.05322392098617 14.73179866794817  9.13929447362375 13.392544243589327  L 0 0  Z " fill-rule="evenodd" />
    </mask>
  </defs>
  <g transform="matrix(1 0 0 1 -2546 -1162 )">
    <path d="M 0 0  L 38 0  L 62.00538406809506 0  L 100 0  L 90.86070552637625 13.392544243589327  C 89.94677607901383 14.73179866794817  89.08856442110095 15  86.36070552637625 15  L 60.5 15  L 39.67857142857133 15  L 39.49999998581393 15  L 13.63929447362375 15  C 10.911435578899045 15  10.05322392098617 14.73179866794817  9.13929447362375 13.392544243589327  L 0 0  Z " fill-rule="nonzero" fill="url(#LinearGradient13121)" stroke="none" transform="matrix(1 0 0 1 2546 1162 )" class="fill" />
    <path d="M 0 0  L 38 0  L 62.00538406809506 0  L 100 0  L 90.86070552637625 13.392544243589327  C 89.94677607901383 14.73179866794817  89.08856442110095 15  86.36070552637625 15  L 60.5 15  L 39.67857142857133 15  L 39.49999998581393 15  L 13.63929447362375 15  C 10.911435578899045 15  10.05322392098617 14.73179866794817  9.13929447362375 13.392544243589327  L 0 0  Z " stroke-width="0" stroke-dasharray="0" stroke="url(#LinearGradient13124)" fill="none" transform="matrix(1 0 0 1 2546 1162 )" class="stroke" mask="url(#Clip13127)" />
  </g>
</svg>