<?xml version="1.0" encoding="utf-8"?>
<svg version="1.1" xmlns:xlink="http://www.w3.org/1999/xlink" width="100px" height="15px" xmlns="http://www.w3.org/2000/svg">
  <defs>
    <linearGradient gradientUnits="userSpaceOnUse" x1="50" y1="14.999999999999787" x2="50" y2="-2.1316282072803006E-13" id="LinearGradient8920">
      <stop id="Stop8921" stop-color="#000000" stop-opacity="0.4980392156862745" offset="0" />
      <stop id="Stop8922" stop-color="#000000" stop-opacity="0" offset="1" />
    </linearGradient>
    <pattern id="BGPattern" patternUnits="userSpaceOnUse" alignment="0 0" imageRepeat="None" />
    <linearGradient gradientUnits="userSpaceOnUse" x1="100.00000000000003" y1="7.5" x2="2.220446049250313E-14" y2="7.5" id="LinearGradient8923">
      <stop id="Stop8924" stop-color="#ff4975" offset="0" />
      <stop id="Stop8925" stop-color="#319eff" offset="1" />
    </linearGradient>
    <mask fill="white" id="Clip8926">
      <path d="M 0 0  L 38 0  L 62.00538406809506 0  L 100 0  L 90.86070552637625 13.392544243589327  C 89.94677607901383 14.73179866794817  89.08856442110095 15  86.36070552637625 15  L 60.5 15  L 39.67857142857133 15  L 39.49999998581393 15  L 13.63929447362375 15  C 10.911435578899045 15  10.05322392098617 14.73179866794817  9.13929447362375 13.392544243589327  L 0 0  Z " fill-rule="evenodd" />
    </mask>
  </defs>
  <g transform="matrix(1 0 0 1 -2158 -1162 )">
    <path d="M 0 0  L 38 0  L 62.00538406809506 0  L 100 0  L 90.86070552637625 13.392544243589327  C 89.94677607901383 14.73179866794817  89.08856442110095 15  86.36070552637625 15  L 60.5 15  L 39.67857142857133 15  L 39.49999998581393 15  L 13.63929447362375 15  C 10.911435578899045 15  10.05322392098617 14.73179866794817  9.13929447362375 13.392544243589327  L 0 0  Z " fill-rule="nonzero" fill="url(#LinearGradient8920)" stroke="none" transform="matrix(1 0 0 1 2158 1162 )" class="fill" />
    <path d="M 0 0  L 38 0  L 62.00538406809506 0  L 100 0  L 90.86070552637625 13.392544243589327  C 89.94677607901383 14.73179866794817  89.08856442110095 15  86.36070552637625 15  L 60.5 15  L 39.67857142857133 15  L 39.49999998581393 15  L 13.63929447362375 15  C 10.911435578899045 15  10.05322392098617 14.73179866794817  9.13929447362375 13.392544243589327  L 0 0  Z " stroke-width="0" stroke-dasharray="0" stroke="url(#LinearGradient8923)" fill="none" transform="matrix(1 0 0 1 2158 1162 )" class="stroke" mask="url(#Clip8926)" />
  </g>
</svg>