<?xml version="1.0" encoding="utf-8"?>
<svg version="1.1" xmlns:xlink="http://www.w3.org/1999/xlink" width="6px" height="6px" xmlns="http://www.w3.org/2000/svg">
  <defs>
    <pattern id="BGPattern" patternUnits="userSpaceOnUse" alignment="0 0" imageRepeat="None" />
    <mask fill="white" id="Clip4939">
      <path d="M 5.587873335580266 0.8375000112196984  C 5.587873335580266 0.8375000112196984  3.485832159109677 2.855429422984404  3.485832159109677 2.855429422984404  C 3.485832159109677 2.855429422984404  4.467814512050854 4.828988246513816  4.467814512050854 4.828988246513816  C 4.467814512050854 4.828988246513816  2.7290321591096784 4.828988246513816  2.7290321591096784 4.828988246513816  C 2.7290321591096784 4.828988246513816  2.3472498061684988 3.8928411876902853  2.3472498061684988 3.8928411876902853  C 2.3472498061684988 3.8928411876902853  0.6299380414626174 5.764652952396169  0.6299380414626174 5.764652952396169  C 0.6299380414626174 5.764652952396169  2.1028909826390887 0.9304653053373455  2.1028909826390887 0.9304653053373455  C 2.1028909826390887 0.9304653053373455  3.3333203944037937 0.9304653053373455  3.3333203944037937 0.9304653053373455  C 3.3333203944037937 0.9304653053373455  2.814873335580266 2.1070941288667573  2.814873335580266 2.1070941288667573  C 2.814873335580266 2.1070941288667573  4.0748498061684995 0.8375000112196984  4.0748498061684995 0.8375000112196984  C 4.0748498061684995 0.8375000112196984  5.587873335580266 0.8375000112196984  5.587873335580266 0.8375000112196984  Z " fill-rule="evenodd" />
    </mask>
  </defs>
  <g transform="matrix(1 0 0 1 -179 -115 )">
    <path d="M 5.587873335580266 0.8375000112196984  C 5.587873335580266 0.8375000112196984  3.485832159109677 2.855429422984404  3.485832159109677 2.855429422984404  C 3.485832159109677 2.855429422984404  4.467814512050854 4.828988246513816  4.467814512050854 4.828988246513816  C 4.467814512050854 4.828988246513816  2.7290321591096784 4.828988246513816  2.7290321591096784 4.828988246513816  C 2.7290321591096784 4.828988246513816  2.3472498061684988 3.8928411876902853  2.3472498061684988 3.8928411876902853  C 2.3472498061684988 3.8928411876902853  0.6299380414626174 5.764652952396169  0.6299380414626174 5.764652952396169  C 0.6299380414626174 5.764652952396169  2.1028909826390887 0.9304653053373455  2.1028909826390887 0.9304653053373455  C 2.1028909826390887 0.9304653053373455  3.3333203944037937 0.9304653053373455  3.3333203944037937 0.9304653053373455  C 3.3333203944037937 0.9304653053373455  2.814873335580266 2.1070941288667573  2.814873335580266 2.1070941288667573  C 2.814873335580266 2.1070941288667573  4.0748498061684995 0.8375000112196984  4.0748498061684995 0.8375000112196984  C 4.0748498061684995 0.8375000112196984  5.587873335580266 0.8375000112196984  5.587873335580266 0.8375000112196984  Z " fill-rule="nonzero" fill="rgba(255, 255, 255, 1)" stroke="none" transform="matrix(1 0 0 1 179 115 )" class="fill" />
    <path d="M 5.587873335580266 0.8375000112196984  C 5.587873335580266 0.8375000112196984  3.485832159109677 2.855429422984404  3.485832159109677 2.855429422984404  C 3.485832159109677 2.855429422984404  4.467814512050854 4.828988246513816  4.467814512050854 4.828988246513816  C 4.467814512050854 4.828988246513816  2.7290321591096784 4.828988246513816  2.7290321591096784 4.828988246513816  C 2.7290321591096784 4.828988246513816  2.3472498061684988 3.8928411876902853  2.3472498061684988 3.8928411876902853  C 2.3472498061684988 3.8928411876902853  0.6299380414626174 5.764652952396169  0.6299380414626174 5.764652952396169  C 0.6299380414626174 5.764652952396169  2.1028909826390887 0.9304653053373455  2.1028909826390887 0.9304653053373455  C 2.1028909826390887 0.9304653053373455  3.3333203944037937 0.9304653053373455  3.3333203944037937 0.9304653053373455  C 3.3333203944037937 0.9304653053373455  2.814873335580266 2.1070941288667573  2.814873335580266 2.1070941288667573  C 2.814873335580266 2.1070941288667573  4.0748498061684995 0.8375000112196984  4.0748498061684995 0.8375000112196984  C 4.0748498061684995 0.8375000112196984  5.587873335580266 0.8375000112196984  5.587873335580266 0.8375000112196984  Z " stroke-width="0" stroke-dasharray="0" stroke="rgba(255, 255, 255, 0)" fill="none" transform="matrix(1 0 0 1 179 115 )" class="stroke" mask="url(#Clip4939)" />
  </g>
</svg>