<?xml version="1.0" encoding="utf-8"?>
<svg version="1.1" xmlns:xlink="http://www.w3.org/1999/xlink" width="50px" height="50px" xmlns="http://www.w3.org/2000/svg">
  <defs>
    <pattern id="BGPattern" patternUnits="userSpaceOnUse" alignment="0 0" imageRepeat="None" />
    <mask fill="white" id="Clip14671">
      <path d="M 0 20  C 0 8.799999999999999  8.799999999999999 0  20 0  C 31.200000000000003 0  40 8.799999999999999  40 20  C 40 31.200000000000003  31.200000000000003 40  20 40  C 8.799999999999999 40  0 31.200000000000003  0 20  Z " fill-rule="evenodd" />
    </mask>
  </defs>
  <g transform="matrix(1 0 0 1 -154 -459 )">
    <path d="M 0 20  C 0 8.799999999999999  8.799999999999999 0  20 0  C 31.200000000000003 0  40 8.799999999999999  40 20  C 40 31.200000000000003  31.200000000000003 40  20 40  C 8.799999999999999 40  0 31.200000000000003  0 20  Z " fill-rule="nonzero" fill="rgba(102, 102, 102, 1)" stroke="none" transform="matrix(1 0 0 1 159 464 )" class="fill" />
    <path d="M 0 20  C 0 8.799999999999999  8.799999999999999 0  20 0  C 31.200000000000003 0  40 8.799999999999999  40 20  C 40 31.200000000000003  31.200000000000003 40  20 40  C 8.799999999999999 40  0 31.200000000000003  0 20  Z " stroke-width="0" stroke-dasharray="0" stroke="rgba(121, 121, 121, 1)" fill="none" transform="matrix(1 0 0 1 159 464 )" class="stroke" mask="url(#Clip14671)" />
  </g>
  <style>svg { filter: drop-shadow(0px 0px 2.5px rgba(0, 0, 0, 0.34901960784313724)); }</style>
</svg>