<?xml version="1.0" encoding="utf-8"?>
<svg version="1.1" xmlns:xlink="http://www.w3.org/1999/xlink" width="50px" height="50px" xmlns="http://www.w3.org/2000/svg">
  <defs>
    <pattern id="BGPattern" patternUnits="userSpaceOnUse" alignment="0 0" imageRepeat="None" />
    <mask fill="white" id="Clip849">
      <path d="M 25 0  L 25 25  L 49.9976076845092 25.345846861149052  C 49.80846755662889 39.016784045431145  38.6722455172719 50  25 50  C 11.192881254230164 50  0 38.807118745769834  0 25  C 0 11.192881254230164  11.192881254230164 0  25 0  Z " fill-rule="evenodd" />
    </mask>
  </defs>
  <g transform="matrix(1 0 0 1 -280 -1852 )">
    <path d="M 25 0  L 25 25  L 49.9976076845092 25.345846861149052  C 49.80846755662889 39.016784045431145  38.6722455172719 50  25 50  C 11.192881254230164 50  0 38.807118745769834  0 25  C 0 11.192881254230164  11.192881254230164 0  25 0  Z " fill-rule="nonzero" fill="rgba(0, 0, 0, 0.09803921568627451)" stroke="none" transform="matrix(1 0 0 1 280 1852 )" class="fill" />
    <path d="M 25 0  L 25 25  L 49.9976076845092 25.345846861149052  C 49.80846755662889 39.016784045431145  38.6722455172719 50  25 50  C 11.192881254230164 50  0 38.807118745769834  0 25  C 0 11.192881254230164  11.192881254230164 0  25 0  Z " stroke-width="0" stroke-dasharray="0" stroke="rgba(121, 121, 121, 1)" fill="none" transform="matrix(1 0 0 1 280 1852 )" class="stroke" mask="url(#Clip849)" />
  </g>
</svg>