<?xml version="1.0" encoding="utf-8"?>
<svg version="1.1" xmlns:xlink="http://www.w3.org/1999/xlink" width="50px" height="50px" xmlns="http://www.w3.org/2000/svg">
  <defs>
    <pattern id="BGPattern" patternUnits="userSpaceOnUse" alignment="0 0" imageRepeat="None" />
    <mask fill="white" id="Clip16403">
      <path d="M 25 0  C 38.80711874576983 0  50 11.192881254230164  50 25  C 50 25.08169689257652  49.99959953706462 25.16339329440139  49.998798625627025 25.245086261035787  L 25 25  L 25 0  Z " fill-rule="evenodd" />
    </mask>
  </defs>
  <g transform="matrix(1 0 0 1 -154 -459 )">
    <path d="M 25 0  C 38.80711874576983 0  50 11.192881254230164  50 25  C 50 25.08169689257652  49.99959953706462 25.16339329440139  49.998798625627025 25.245086261035787  L 25 25  L 25 0  Z " fill-rule="nonzero" fill="rgba(255, 255, 255, 1)" stroke="none" transform="matrix(1 0 0 1 154 459 )" class="fill" />
    <path d="M 25 0  C 38.80711874576983 0  50 11.192881254230164  50 25  C 50 25.08169689257652  49.99959953706462 25.16339329440139  49.998798625627025 25.245086261035787  L 25 25  L 25 0  Z " stroke-width="0" stroke-dasharray="0" stroke="rgba(121, 121, 121, 1)" fill="none" transform="matrix(1 0 0 1 154 459 )" class="stroke" mask="url(#Clip16403)" />
  </g>
</svg>