<?xml version="1.0" encoding="utf-8"?>
<svg version="1.1" xmlns:xlink="http://www.w3.org/1999/xlink" width="50px" height="50px" xmlns="http://www.w3.org/2000/svg">
  <defs>
    <pattern id="BGPattern" patternUnits="userSpaceOnUse" alignment="0 0" imageRepeat="None" />
    <mask fill="white" id="Clip16405">
      <path d="M 25 0  C 38.80711874576983 0  50 11.192881254230164  50 25  C 50 38.807118745769834  38.807118745769834 50  25 50  C 11.192881254230164 50  0 38.807118745769834  0 25  C 0 20.638107929320107  1.1412425984205306 16.35212178110509  3.310358015978729 12.567806685665564  L 25 25  L 25 0  Z " fill-rule="evenodd" />
    </mask>
  </defs>
  <g transform="matrix(1 0 0 1 -537 -459 )">
    <path d="M 25 0  C 38.80711874576983 0  50 11.192881254230164  50 25  C 50 38.807118745769834  38.807118745769834 50  25 50  C 11.192881254230164 50  0 38.807118745769834  0 25  C 0 20.638107929320107  1.1412425984205306 16.35212178110509  3.310358015978729 12.567806685665564  L 25 25  L 25 0  Z " fill-rule="nonzero" fill="rgba(255, 255, 255, 1)" stroke="none" transform="matrix(1 0 0 1 537 459 )" class="fill" />
    <path d="M 25 0  C 38.80711874576983 0  50 11.192881254230164  50 25  C 50 38.807118745769834  38.807118745769834 50  25 50  C 11.192881254230164 50  0 38.807118745769834  0 25  C 0 20.638107929320107  1.1412425984205306 16.35212178110509  3.310358015978729 12.567806685665564  L 25 25  L 25 0  Z " stroke-width="0" stroke-dasharray="0" stroke="rgba(121, 121, 121, 1)" fill="none" transform="matrix(1 0 0 1 537 459 )" class="stroke" mask="url(#Clip16405)" />
  </g>
</svg>