<?xml version="1.0" encoding="utf-8"?>
<svg version="1.1" xmlns:xlink="http://www.w3.org/1999/xlink" width="6px" height="6px" xmlns="http://www.w3.org/2000/svg">
  <defs>
    <pattern id="BGPattern" patternUnits="userSpaceOnUse" alignment="0 0" imageRepeat="None" />
    <mask fill="white" id="Clip8697">
      <path d="M 2.4297187499999993 1.2394531250000007  C 2.622140625 0.8660468750000003  3.152906250000001 0.8660468750000003  3.3453281250000018 1.2394531250000007  L 3.8167734375 2.15403125  L 4.8334453125 2.3554062499999997  C 5.2261640625000005 2.4332421875000003  5.3849765625 2.912187499999999  5.117226562500001 3.2117421874999987  L 4.3911328125 4.0242734375  L 4.523179687500001 5.1008984375  C 4.573570312499999 5.511710937499998  4.149117187500002 5.8138671875  3.7808203125000013 5.628781249999999  L 2.8875234375000023 5.180187499999999  L 1.9942265625000024 5.628781249999999  C 1.6259296875000029 5.81384375  1.2014765625000017 5.511710937499998  1.251867187500003 5.1008984375  L 1.3839140625000033 4.0242734375  L 0.6578203125000028 3.2117421874999987  C 0.39007031250000335 2.912187499999999  0.5488828125000023 2.4332421874999994  0.9416015625000025 2.3554062499999997  L 1.9582734375000026 2.15403125  L 2.429718750000003 1.2394765625000002  Z " fill-rule="evenodd" />
    </mask>
  </defs>
  <g transform="matrix(1 0 0 1 -33 -535 )">
    <path d="M 2.4297187499999993 1.2394531250000007  C 2.622140625 0.8660468750000003  3.152906250000001 0.8660468750000003  3.3453281250000018 1.2394531250000007  L 3.8167734375 2.15403125  L 4.8334453125 2.3554062499999997  C 5.2261640625000005 2.4332421875000003  5.3849765625 2.912187499999999  5.117226562500001 3.2117421874999987  L 4.3911328125 4.0242734375  L 4.523179687500001 5.1008984375  C 4.573570312499999 5.511710937499998  4.149117187500002 5.8138671875  3.7808203125000013 5.628781249999999  L 2.8875234375000023 5.180187499999999  L 1.9942265625000024 5.628781249999999  C 1.6259296875000029 5.81384375  1.2014765625000017 5.511710937499998  1.251867187500003 5.1008984375  L 1.3839140625000033 4.0242734375  L 0.6578203125000028 3.2117421874999987  C 0.39007031250000335 2.912187499999999  0.5488828125000023 2.4332421874999994  0.9416015625000025 2.3554062499999997  L 1.9582734375000026 2.15403125  L 2.429718750000003 1.2394765625000002  Z " fill-rule="nonzero" fill="rgba(252, 218, 110, 1)" stroke="none" transform="matrix(1 0 0 1 33 535 )" class="fill" />
    <path d="M 2.4297187499999993 1.2394531250000007  C 2.622140625 0.8660468750000003  3.152906250000001 0.8660468750000003  3.3453281250000018 1.2394531250000007  L 3.8167734375 2.15403125  L 4.8334453125 2.3554062499999997  C 5.2261640625000005 2.4332421875000003  5.3849765625 2.912187499999999  5.117226562500001 3.2117421874999987  L 4.3911328125 4.0242734375  L 4.523179687500001 5.1008984375  C 4.573570312499999 5.511710937499998  4.149117187500002 5.8138671875  3.7808203125000013 5.628781249999999  L 2.8875234375000023 5.180187499999999  L 1.9942265625000024 5.628781249999999  C 1.6259296875000029 5.81384375  1.2014765625000017 5.511710937499998  1.251867187500003 5.1008984375  L 1.3839140625000033 4.0242734375  L 0.6578203125000028 3.2117421874999987  C 0.39007031250000335 2.912187499999999  0.5488828125000023 2.4332421874999994  0.9416015625000025 2.3554062499999997  L 1.9582734375000026 2.15403125  L 2.429718750000003 1.2394765625000002  Z " stroke-width="0" stroke-dasharray="0" stroke="rgba(255, 255, 255, 0)" fill="none" transform="matrix(1 0 0 1 33 535 )" class="stroke" mask="url(#Clip8697)" />
  </g>
</svg>