<?xml version="1.0" encoding="utf-8"?>
<svg version="1.1" xmlns:xlink="http://www.w3.org/1999/xlink" width="12px" height="12px" xmlns="http://www.w3.org/2000/svg">
  <defs>
    <pattern id="BGPattern" patternUnits="userSpaceOnUse" alignment="0 0" imageRepeat="None" />
    <mask fill="white" id="Clip3494">
      <path d="M 5.310140625 1.3066875  C 5.6070234375000005 0.7519218750000001  6.392953125 0.7519218750000001  6.689859375000001 1.3066875  L 7.9710937500000005 3.699796875  L 10.609781250000001 4.2031875  C 11.21878125 4.3193906250000005  11.460796875 5.071523437500001  11.03634375 5.529046875000001  L 9.189375000000002 7.5193125  L 9.534562500000002 10.2299296875  C 9.614109375000002 10.854679687500001  8.97909375 11.320617187500002  8.417882812500002 11.0491875  L 6 9.8800078125  L 3.5820937500000003 11.0491875  C 3.0208593750000006 11.320617187500002  2.3858671875 10.85465625  2.4654140625 10.2299296875  L 2.8106015625 7.5193125  L 0.9636328124999999 5.529023437500001  C 0.5391796874999999 5.0715  0.7811953125 4.3194140625  1.3901953125 4.203164062500001  L 4.02890625 3.6998203125  L 5.3101640625 1.3067109375000003  Z " fill-rule="evenodd" />
    </mask>
  </defs>
  <g transform="matrix(1 0 0 1 -27 -531 )">
    <path d="M 5.310140625 1.3066875  C 5.6070234375000005 0.7519218750000001  6.392953125 0.7519218750000001  6.689859375000001 1.3066875  L 7.9710937500000005 3.699796875  L 10.609781250000001 4.2031875  C 11.21878125 4.3193906250000005  11.460796875 5.071523437500001  11.03634375 5.529046875000001  L 9.189375000000002 7.5193125  L 9.534562500000002 10.2299296875  C 9.614109375000002 10.854679687500001  8.97909375 11.320617187500002  8.417882812500002 11.0491875  L 6 9.8800078125  L 3.5820937500000003 11.0491875  C 3.0208593750000006 11.320617187500002  2.3858671875 10.85465625  2.4654140625 10.2299296875  L 2.8106015625 7.5193125  L 0.9636328124999999 5.529023437500001  C 0.5391796874999999 5.0715  0.7811953125 4.3194140625  1.3901953125 4.203164062500001  L 4.02890625 3.6998203125  L 5.3101640625 1.3067109375000003  Z " fill-rule="nonzero" fill="rgba(255, 147, 74, 1)" stroke="none" transform="matrix(1 0 0 1 27 531 )" class="fill" />
    <path d="M 5.310140625 1.3066875  C 5.6070234375000005 0.7519218750000001  6.392953125 0.7519218750000001  6.689859375000001 1.3066875  L 7.9710937500000005 3.699796875  L 10.609781250000001 4.2031875  C 11.21878125 4.3193906250000005  11.460796875 5.071523437500001  11.03634375 5.529046875000001  L 9.189375000000002 7.5193125  L 9.534562500000002 10.2299296875  C 9.614109375000002 10.854679687500001  8.97909375 11.320617187500002  8.417882812500002 11.0491875  L 6 9.8800078125  L 3.5820937500000003 11.0491875  C 3.0208593750000006 11.320617187500002  2.3858671875 10.85465625  2.4654140625 10.2299296875  L 2.8106015625 7.5193125  L 0.9636328124999999 5.529023437500001  C 0.5391796874999999 5.0715  0.7811953125 4.3194140625  1.3901953125 4.203164062500001  L 4.02890625 3.6998203125  L 5.3101640625 1.3067109375000003  Z " stroke-width="0" stroke-dasharray="0" stroke="rgba(255, 255, 255, 0)" fill="none" transform="matrix(1 0 0 1 27 531 )" class="stroke" mask="url(#Clip3494)" />
  </g>
</svg>