<?xml version="1.0" encoding="utf-8"?>
<svg version="1.1" xmlns:xlink="http://www.w3.org/1999/xlink" width="8px" height="29px" xmlns="http://www.w3.org/2000/svg">
  <defs>
    <pattern id="BGPattern" patternUnits="userSpaceOnUse" alignment="0 0" imageRepeat="None" />
    <mask fill="white" id="Clip17354">
      <path d="M 4.354282087053581 28.689060914294565  C 4.237161495535718 28.72963343517946  4.11570100446428 28.748915362004954  3.998466183035719 28.748915362004954  C 3.546715345982144 28.748915362004954  3.122659988839286 28.46410448445235  2.96710831473214 28.010174626779087  L 0.21617343750000373 19.99426686068998  C 0.041434765625004796 19.487828059251243  0.25877310267856857 18.930028043780943  0.7254281808035736 18.673107178217826  C 2.046589564732147 17.952558065826118  3.1546383370535733 16.954715800974633  4.023991741071435 15.709593690052603  C 5.161848828125009 14.075790543780949  5.764925669642862 12.152929875077351  5.764925669642862 10.151908340423889  C 5.764925669642862 6.956035548808789  4.196617578125013 3.965722352645426  1.571368917410723 2.153159206760525  C 1.0749055245535797 1.810559806234538  0.9491622209821458 1.1274842995823051  1.290073939732151 0.6285631671565662  C 1.630985658482148 0.12964203473082306  2.3086405133928616 0.0033336092203053664  2.8072738281250054 0.34593300974629254  C 6.02486372767858 2.568582468285897  7.946931975446432 6.233420511680083  7.946931975446432 10.15196571008664  C 7.946931975446432 12.60588411200496  7.207547544642864 14.962359721147902  5.8096953125000095 16.96768527034344  C 4.92749347098215 18.235303074721536  3.838631696428576 19.293114582688744  2.568635602678577 20.121780441676986  L 5.029766964285719 27.2950773147432  C 5.225805468750009 27.86785529857674  4.923210658482154 28.492051922184412  4.354282087053581 28.689060914294565  Z " fill-rule="evenodd" />
    </mask>
  </defs>
  <g transform="matrix(1 0 0 1 -197 -424 )">
    <path d="M 4.354282087053581 28.689060914294565  C 4.237161495535718 28.72963343517946  4.11570100446428 28.748915362004954  3.998466183035719 28.748915362004954  C 3.546715345982144 28.748915362004954  3.122659988839286 28.46410448445235  2.96710831473214 28.010174626779087  L 0.21617343750000373 19.99426686068998  C 0.041434765625004796 19.487828059251243  0.25877310267856857 18.930028043780943  0.7254281808035736 18.673107178217826  C 2.046589564732147 17.952558065826118  3.1546383370535733 16.954715800974633  4.023991741071435 15.709593690052603  C 5.161848828125009 14.075790543780949  5.764925669642862 12.152929875077351  5.764925669642862 10.151908340423889  C 5.764925669642862 6.956035548808789  4.196617578125013 3.965722352645426  1.571368917410723 2.153159206760525  C 1.0749055245535797 1.810559806234538  0.9491622209821458 1.1274842995823051  1.290073939732151 0.6285631671565662  C 1.630985658482148 0.12964203473082306  2.3086405133928616 0.0033336092203053664  2.8072738281250054 0.34593300974629254  C 6.02486372767858 2.568582468285897  7.946931975446432 6.233420511680083  7.946931975446432 10.15196571008664  C 7.946931975446432 12.60588411200496  7.207547544642864 14.962359721147902  5.8096953125000095 16.96768527034344  C 4.92749347098215 18.235303074721536  3.838631696428576 19.293114582688744  2.568635602678577 20.121780441676986  L 5.029766964285719 27.2950773147432  C 5.225805468750009 27.86785529857674  4.923210658482154 28.492051922184412  4.354282087053581 28.689060914294565  Z " fill-rule="nonzero" fill="rgba(255, 255, 255, 1)" stroke="none" transform="matrix(1 0 0 1 197 424 )" class="fill" />
    <path d="M 4.354282087053581 28.689060914294565  C 4.237161495535718 28.72963343517946  4.11570100446428 28.748915362004954  3.998466183035719 28.748915362004954  C 3.546715345982144 28.748915362004954  3.122659988839286 28.46410448445235  2.96710831473214 28.010174626779087  L 0.21617343750000373 19.99426686068998  C 0.041434765625004796 19.487828059251243  0.25877310267856857 18.930028043780943  0.7254281808035736 18.673107178217826  C 2.046589564732147 17.952558065826118  3.1546383370535733 16.954715800974633  4.023991741071435 15.709593690052603  C 5.161848828125009 14.075790543780949  5.764925669642862 12.152929875077351  5.764925669642862 10.151908340423889  C 5.764925669642862 6.956035548808789  4.196617578125013 3.965722352645426  1.571368917410723 2.153159206760525  C 1.0749055245535797 1.810559806234538  0.9491622209821458 1.1274842995823051  1.290073939732151 0.6285631671565662  C 1.630985658482148 0.12964203473082306  2.3086405133928616 0.0033336092203053664  2.8072738281250054 0.34593300974629254  C 6.02486372767858 2.568582468285897  7.946931975446432 6.233420511680083  7.946931975446432 10.15196571008664  C 7.946931975446432 12.60588411200496  7.207547544642864 14.962359721147902  5.8096953125000095 16.96768527034344  C 4.92749347098215 18.235303074721536  3.838631696428576 19.293114582688744  2.568635602678577 20.121780441676986  L 5.029766964285719 27.2950773147432  C 5.225805468750009 27.86785529857674  4.923210658482154 28.492051922184412  4.354282087053581 28.689060914294565  Z " stroke-width="0" stroke-dasharray="0" stroke="rgba(255, 255, 255, 0)" fill="none" transform="matrix(1 0 0 1 197 424 )" class="stroke" mask="url(#Clip17354)" />
  </g>
</svg>