<?xml version="1.0" encoding="utf-8"?>
<svg version="1.1" xmlns:xlink="http://www.w3.org/1999/xlink" width="40px" height="23px" xmlns="http://www.w3.org/2000/svg">
  <defs>
    <pattern id="BGPattern" patternUnits="userSpaceOnUse" alignment="0 0" imageRepeat="None" />
    <mask fill="white" id="Clip10195">
      <path d="M 33.64705882352942 0.8658823529411764  C 30.352941176470587 -0.15497326203208575  24.614241486068114 3.667700534759358  20.175851393188857 3.667700534759358  C 15.715170278637771 3.667700534759358  9.954179566563468 -0.15005347593582982  6.65015479876161 0.880641711229946  C 1.884829721362229 2.3688770053475934  0.4532507739938081 -0.587914438502674  0.4532507739938081 2.06139037433155  C 0.4532507739938081 2.06139037433155  -0.02476780185758505 16.938823529411764  8.740557275541795 19.000213903743315  C 13.694117647058823 19.70374331550802  17.273065015479876 22.677754010695185  20.175851393188857 22.677754010695185  C 23.128173374613006 22.677754010695185  25.597523219814242 20.02352941176471  31.734984520123838 18.975614973262033  C 39.695356037151704 17.89572192513369  39.90340557275542 2.06139037433155  39.90340557275542 2.06139037433155  C 39.90340557275542 -0.6002139037433156  38.44210526315789 2.351657754010696  33.64705882352942 0.8658823529411764  Z M 29.671826625387002 11.745989304812833  C 27.55665634674923 12.471657754010694  25.495975232198145 12.579893048128342  24.084210526315786 12.151871657754008  C 23.207430340557277 11.88620320855615  22.560990712074304 12.331443850267382  22.087925696594425 12.515935828877003  C 21.619814241486072 12.700427807486632  21.619814241486072 9.318074866310162  23.57151702786378 7.714224598930481  C 24.5374613003096 6.914759358288769  24.941176470588236 6.66385026737968  26.526315789473685 6.120213903743317  C 29.956656346749227 4.946844919786097  34.91269349845201 6.745026737967916  34.91269349845201 6.745026737967916  C 34.91269349845201 6.745026737967916  33.09473684210526 10.575080213903743  29.671826625387002 11.745989304812833  Z M 5.3671826625387 6.745026737967916  C 5.3671826625387 6.745026737967916  10.323219814241487 4.949304812834223  13.753560371517025 6.120213903743317  C 15.343653250773997 6.666310160427806  15.747368421052633 6.914759358288769  16.708359133126937 7.714224598930481  C 18.6625386996904 9.318074866310162  18.6625386996904 12.700427807486632  18.194427244582045 12.515935828877003  C 17.72383900928793 12.331443850267382  17.074922600619196 11.883743315508022  16.20061919504644 12.151871657754008  C 14.783900928792573 12.579893048128342  12.725696594427248 12.471657754010694  10.608049535603715 11.745989304812833  C 7.185139318885449 10.575080213903743  5.3671826625387 6.745026737967916  5.3671826625387 6.745026737967916  Z " fill-rule="evenodd" />
    </mask>
  </defs>
  <g transform="matrix(1 0 0 1 -54 -536 )">
    <path d="M 33.64705882352942 0.8658823529411764  C 30.352941176470587 -0.15497326203208575  24.614241486068114 3.667700534759358  20.175851393188857 3.667700534759358  C 15.715170278637771 3.667700534759358  9.954179566563468 -0.15005347593582982  6.65015479876161 0.880641711229946  C 1.884829721362229 2.3688770053475934  0.4532507739938081 -0.587914438502674  0.4532507739938081 2.06139037433155  C 0.4532507739938081 2.06139037433155  -0.02476780185758505 16.938823529411764  8.740557275541795 19.000213903743315  C 13.694117647058823 19.70374331550802  17.273065015479876 22.677754010695185  20.175851393188857 22.677754010695185  C 23.128173374613006 22.677754010695185  25.597523219814242 20.02352941176471  31.734984520123838 18.975614973262033  C 39.695356037151704 17.89572192513369  39.90340557275542 2.06139037433155  39.90340557275542 2.06139037433155  C 39.90340557275542 -0.6002139037433156  38.44210526315789 2.351657754010696  33.64705882352942 0.8658823529411764  Z M 29.671826625387002 11.745989304812833  C 27.55665634674923 12.471657754010694  25.495975232198145 12.579893048128342  24.084210526315786 12.151871657754008  C 23.207430340557277 11.88620320855615  22.560990712074304 12.331443850267382  22.087925696594425 12.515935828877003  C 21.619814241486072 12.700427807486632  21.619814241486072 9.318074866310162  23.57151702786378 7.714224598930481  C 24.5374613003096 6.914759358288769  24.941176470588236 6.66385026737968  26.526315789473685 6.120213903743317  C 29.956656346749227 4.946844919786097  34.91269349845201 6.745026737967916  34.91269349845201 6.745026737967916  C 34.91269349845201 6.745026737967916  33.09473684210526 10.575080213903743  29.671826625387002 11.745989304812833  Z M 5.3671826625387 6.745026737967916  C 5.3671826625387 6.745026737967916  10.323219814241487 4.949304812834223  13.753560371517025 6.120213903743317  C 15.343653250773997 6.666310160427806  15.747368421052633 6.914759358288769  16.708359133126937 7.714224598930481  C 18.6625386996904 9.318074866310162  18.6625386996904 12.700427807486632  18.194427244582045 12.515935828877003  C 17.72383900928793 12.331443850267382  17.074922600619196 11.883743315508022  16.20061919504644 12.151871657754008  C 14.783900928792573 12.579893048128342  12.725696594427248 12.471657754010694  10.608049535603715 11.745989304812833  C 7.185139318885449 10.575080213903743  5.3671826625387 6.745026737967916  5.3671826625387 6.745026737967916  Z " fill-rule="nonzero" fill="rgba(255, 255, 255, 1)" stroke="none" transform="matrix(1 0 0 1 54 536 )" class="fill" />
    <path d="M 33.64705882352942 0.8658823529411764  C 30.352941176470587 -0.15497326203208575  24.614241486068114 3.667700534759358  20.175851393188857 3.667700534759358  C 15.715170278637771 3.667700534759358  9.954179566563468 -0.15005347593582982  6.65015479876161 0.880641711229946  C 1.884829721362229 2.3688770053475934  0.4532507739938081 -0.587914438502674  0.4532507739938081 2.06139037433155  C 0.4532507739938081 2.06139037433155  -0.02476780185758505 16.938823529411764  8.740557275541795 19.000213903743315  C 13.694117647058823 19.70374331550802  17.273065015479876 22.677754010695185  20.175851393188857 22.677754010695185  C 23.128173374613006 22.677754010695185  25.597523219814242 20.02352941176471  31.734984520123838 18.975614973262033  C 39.695356037151704 17.89572192513369  39.90340557275542 2.06139037433155  39.90340557275542 2.06139037433155  C 39.90340557275542 -0.6002139037433156  38.44210526315789 2.351657754010696  33.64705882352942 0.8658823529411764  Z " stroke-width="0" stroke-dasharray="0" stroke="rgba(255, 255, 255, 0)" fill="none" transform="matrix(1 0 0 1 54 536 )" class="stroke" mask="url(#Clip10195)" />
    <path d="M 29.671826625387002 11.745989304812833  C 27.55665634674923 12.471657754010694  25.495975232198145 12.579893048128342  24.084210526315786 12.151871657754008  C 23.207430340557277 11.88620320855615  22.560990712074304 12.331443850267382  22.087925696594425 12.515935828877003  C 21.619814241486072 12.700427807486632  21.619814241486072 9.318074866310162  23.57151702786378 7.714224598930481  C 24.5374613003096 6.914759358288769  24.941176470588236 6.66385026737968  26.526315789473685 6.120213903743317  C 29.956656346749227 4.946844919786097  34.91269349845201 6.745026737967916  34.91269349845201 6.745026737967916  C 34.91269349845201 6.745026737967916  33.09473684210526 10.575080213903743  29.671826625387002 11.745989304812833  Z " stroke-width="0" stroke-dasharray="0" stroke="rgba(255, 255, 255, 0)" fill="none" transform="matrix(1 0 0 1 54 536 )" class="stroke" mask="url(#Clip10195)" />
    <path d="M 5.3671826625387 6.745026737967916  C 5.3671826625387 6.745026737967916  10.323219814241487 4.949304812834223  13.753560371517025 6.120213903743317  C 15.343653250773997 6.666310160427806  15.747368421052633 6.914759358288769  16.708359133126937 7.714224598930481  C 18.6625386996904 9.318074866310162  18.6625386996904 12.700427807486632  18.194427244582045 12.515935828877003  C 17.72383900928793 12.331443850267382  17.074922600619196 11.883743315508022  16.20061919504644 12.151871657754008  C 14.783900928792573 12.579893048128342  12.725696594427248 12.471657754010694  10.608049535603715 11.745989304812833  C 7.185139318885449 10.575080213903743  5.3671826625387 6.745026737967916  5.3671826625387 6.745026737967916  Z " stroke-width="0" stroke-dasharray="0" stroke="rgba(255, 255, 255, 0)" fill="none" transform="matrix(1 0 0 1 54 536 )" class="stroke" mask="url(#Clip10195)" />
  </g>
</svg>