<?xml version="1.0" encoding="utf-8"?>
<svg version="1.1" xmlns:xlink="http://www.w3.org/1999/xlink" width="40px" height="33px" xmlns="http://www.w3.org/2000/svg">
  <defs>
    <pattern id="BGPattern" patternUnits="userSpaceOnUse" alignment="0 0" imageRepeat="None" />
    <mask fill="white" id="Clip82">
      <path d="M 8.362690104166667 9.31799958203125  C 8.362690104166667 14.223793424479853  12.379792810263407 18.20072510351562  17.335140125868055 18.20072510351562  C 22.2904874414727 18.20072510351562  26.307590147569442 14.223793424479853  26.307590147569442 9.31799958203125  C 26.307590147569442 4.4122057395826495  22.2904874414727 0.43527406054687373  17.335140125868055 0.43527406054687373  C 12.379792810263408 0.43527406054687373  8.362690104166665 4.4122057395826495  8.362690104166665 9.31799958203125  Z M 25.846302864583333 31.06086190625  C 24.931234418402774 29.7250916015625  24.396441449652777 28.1132763828125  24.396441449652777 26.377641167968747  C 24.396441449652777 23.60101171484375  25.765069097222216 21.14127541796875  27.870441623263886 19.622149378906247  C 27.871907291666666 19.621094109375004  27.871996137152774 19.618895570312503  27.870530468749998 19.61779634375  C 26.77536189236111 18.75338639453125  25.569690451388887 18.020359414062504  24.277411067708332 17.44377834375  C 24.27643394097222 17.443338644531252  24.27527916666666 17.443514515625  24.274479730902772 17.444174085937505  C 22.401927083333334 19.012986437500004  19.980368923611106 19.95953265625  17.33514014756944 19.95953265625  C 14.689911371527772 19.95953265625  12.268397612847215 19.013030394531253  10.395800564236106 17.444174085937505  C 10.39500108506944 17.443470558593752  10.39384635416666 17.443338644531252  10.39286922743055 17.44377834375  C 4.996927647569445 19.8513659609375  1.1060101128472224 24.97908140234375  0.5029967447916666 31.062093089843756  C 0.5028190972222222 31.063719972656255  0.5041515190972223 31.065127027343756  0.5057948350694443 31  L 25.84403771701389 31  C 25.84625842013889 31.065127027343756  25.84759084201389 31.06270866015625  25.846302864583333 31.06086190625  Z M 39.49731414930555 26.377641167968743  C 39.49731414930555 22.735018839843743  36.51458090277778 19.78211292578125  32.83516440972222 19.78211292578125  C 29.155747960069448 19.78211292578125  26.173014670138883 22.735018839843747  26.173014670138883 26.377641167968743  C 26.173014670138883 30.020263496093744  29.155747916666662 32.973169410156245  32.83516440972222 32.973169410156245  C 36.51458090277778 32.973169410156245  39.49731414930555 30.020263496093744  39.49731414930555 26.377641167968743  Z M 37.27215616319444 26.470374261718746  C 37.22436631944444 26.97110680859375  36.78253255208333 27.34498529296875  36.27452144097222 27.34498529296875  L 33.81507782118056 27.34498529296875  C 33.81352330729167 27.34498529296875  33.81227973090277 27.3462164765625  33.81227973090277 27.34775540234375  L 33.81227973090277 29.782604585937502  C 33.81227973090277 30.285579585937505  33.43462465277777 30.722995015625  32.92883424479166 30.770306917968753  C 32.34980460069445 30.824478179687507  31.85804913194444 30.370002308593754  31.85804913194444 29.807359785156255  L 31.85804913194444 27.347799359375  C 31.85804913194444 27.346260390625005  31.856805512152775 27.345029250000003  31.855251041666666 27.345029250000003  L 29.39585182291667 27.345029250000003  C 28.88779626736111 27.345029250000003  28.4459625 26.971150722656247  28.398172699652775 26.47041821875  C 28.343454253472217 25.897178871093754  28.802520789930554 25.410340957031252  29.37084657118055 25.410340957031252  L 31.855251041666666 25.410340957031252  C 31.85680555555555 25.410340957031252  31.85804913194444 25.409109773437503  31.85804913194444 25.40757084765625  L 31.85804913194444 22.972721664062497  C 31.85804913194444 22.4697466640625  32.23570421006944 22.032331234375  32.741494618055555 21.985019332031246  C 33.32052426215277 21.9308480703125  33.81227973090277 22.385323941406252  33.81227973090277 22.947966464843745  L 33.81227973090277 25.407526890624997  C 33.81227973090277 25.409065859374994  33.81352335069444 25.410297  33.81507782118056 25.410297  L 36.29948229166666 25.410297  C 36.867808072916674 25.410297  37.326874609375 25.8971349140625  37.27215616319444 26.470374261718746  Z " fill-rule="evenodd" />
    </mask>
  </defs>
  <g transform="matrix(1 0 0 1 -54 -419 )">
    <path d="M 8.362690104166667 9.31799958203125  C 8.362690104166667 14.223793424479853  12.379792810263407 18.20072510351562  17.335140125868055 18.20072510351562  C 22.2904874414727 18.20072510351562  26.307590147569442 14.223793424479853  26.307590147569442 9.31799958203125  C 26.307590147569442 4.4122057395826495  22.2904874414727 0.43527406054687373  17.335140125868055 0.43527406054687373  C 12.379792810263408 0.43527406054687373  8.362690104166665 4.4122057395826495  8.362690104166665 9.31799958203125  Z M 25.846302864583333 31.06086190625  C 24.931234418402774 29.7250916015625  24.396441449652777 28.1132763828125  24.396441449652777 26.377641167968747  C 24.396441449652777 23.60101171484375  25.765069097222216 21.14127541796875  27.870441623263886 19.622149378906247  C 27.871907291666666 19.621094109375004  27.871996137152774 19.618895570312503  27.870530468749998 19.61779634375  C 26.77536189236111 18.75338639453125  25.569690451388887 18.020359414062504  24.277411067708332 17.44377834375  C 24.27643394097222 17.443338644531252  24.27527916666666 17.443514515625  24.274479730902772 17.444174085937505  C 22.401927083333334 19.012986437500004  19.980368923611106 19.95953265625  17.33514014756944 19.95953265625  C 14.689911371527772 19.95953265625  12.268397612847215 19.013030394531253  10.395800564236106 17.444174085937505  C 10.39500108506944 17.443470558593752  10.39384635416666 17.443338644531252  10.39286922743055 17.44377834375  C 4.996927647569445 19.8513659609375  1.1060101128472224 24.97908140234375  0.5029967447916666 31.062093089843756  C 0.5028190972222222 31.063719972656255  0.5041515190972223 31.065127027343756  0.5057948350694443 31  L 25.84403771701389 31  C 25.84625842013889 31.065127027343756  25.84759084201389 31.06270866015625  25.846302864583333 31.06086190625  Z M 39.49731414930555 26.377641167968743  C 39.49731414930555 22.735018839843743  36.51458090277778 19.78211292578125  32.83516440972222 19.78211292578125  C 29.155747960069448 19.78211292578125  26.173014670138883 22.735018839843747  26.173014670138883 26.377641167968743  C 26.173014670138883 30.020263496093744  29.155747916666662 32.973169410156245  32.83516440972222 32.973169410156245  C 36.51458090277778 32.973169410156245  39.49731414930555 30.020263496093744  39.49731414930555 26.377641167968743  Z M 37.27215616319444 26.470374261718746  C 37.22436631944444 26.97110680859375  36.78253255208333 27.34498529296875  36.27452144097222 27.34498529296875  L 33.81507782118056 27.34498529296875  C 33.81352330729167 27.34498529296875  33.81227973090277 27.3462164765625  33.81227973090277 27.34775540234375  L 33.81227973090277 29.782604585937502  C 33.81227973090277 30.285579585937505  33.43462465277777 30.722995015625  32.92883424479166 30.770306917968753  C 32.34980460069445 30.824478179687507  31.85804913194444 30.370002308593754  31.85804913194444 29.807359785156255  L 31.85804913194444 27.347799359375  C 31.85804913194444 27.346260390625005  31.856805512152775 27.345029250000003  31.855251041666666 27.345029250000003  L 29.39585182291667 27.345029250000003  C 28.88779626736111 27.345029250000003  28.4459625 26.971150722656247  28.398172699652775 26.47041821875  C 28.343454253472217 25.897178871093754  28.802520789930554 25.410340957031252  29.37084657118055 25.410340957031252  L 31.855251041666666 25.410340957031252  C 31.85680555555555 25.410340957031252  31.85804913194444 25.409109773437503  31.85804913194444 25.40757084765625  L 31.85804913194444 22.972721664062497  C 31.85804913194444 22.4697466640625  32.23570421006944 22.032331234375  32.741494618055555 21.985019332031246  C 33.32052426215277 21.9308480703125  33.81227973090277 22.385323941406252  33.81227973090277 22.947966464843745  L 33.81227973090277 25.407526890624997  C 33.81227973090277 25.409065859374994  33.81352335069444 25.410297  33.81507782118056 25.410297  L 36.29948229166666 25.410297  C 36.867808072916674 25.410297  37.326874609375 25.8971349140625  37.27215616319444 26.470374261718746  Z " fill-rule="nonzero" fill="rgba(255, 255, 255, 1)" stroke="none" transform="matrix(1 0 0 1 54 419 )" class="fill" />
    <path d="M 8.362690104166667 9.31799958203125  C 8.362690104166667 14.223793424479853  12.379792810263407 18.20072510351562  17.335140125868055 18.20072510351562  C 22.2904874414727 18.20072510351562  26.307590147569442 14.223793424479853  26.307590147569442 9.31799958203125  C 26.307590147569442 4.4122057395826495  22.2904874414727 0.43527406054687373  17.335140125868055 0.43527406054687373  C 12.379792810263408 0.43527406054687373  8.362690104166665 4.4122057395826495  8.362690104166665 9.31799958203125  Z " stroke-width="0" stroke-dasharray="0" stroke="rgba(255, 255, 255, 0)" fill="none" transform="matrix(1 0 0 1 54 419 )" class="stroke" mask="url(#Clip82)" />
    <path d="M 25.846302864583333 31.06086190625  C 24.931234418402774 29.7250916015625  24.396441449652777 28.1132763828125  24.396441449652777 26.377641167968747  C 24.396441449652777 23.60101171484375  25.765069097222216 21.14127541796875  27.870441623263886 19.622149378906247  C 27.871907291666666 19.621094109375004  27.871996137152774 19.618895570312503  27.870530468749998 19.61779634375  C 26.77536189236111 18.75338639453125  25.569690451388887 18.020359414062504  24.277411067708332 17.44377834375  C 24.27643394097222 17.443338644531252  24.27527916666666 17.443514515625  24.274479730902772 17.444174085937505  C 22.401927083333334 19.012986437500004  19.980368923611106 19.95953265625  17.33514014756944 19.95953265625  C 14.689911371527772 19.95953265625  12.268397612847215 19.013030394531253  10.395800564236106 17.444174085937505  C 10.39500108506944 17.443470558593752  10.39384635416666 17.443338644531252  10.39286922743055 17.44377834375  C 4.996927647569445 19.8513659609375  1.1060101128472224 24.97908140234375  0.5029967447916666 31.062093089843756  C 0.5028190972222222 31.063719972656255  0.5041515190972223 31.065127027343756  0.5057948350694443 31  L 25.84403771701389 31  C 25.84625842013889 31.065127027343756  25.84759084201389 31.06270866015625  25.846302864583333 31.06086190625  Z " stroke-width="0" stroke-dasharray="0" stroke="rgba(255, 255, 255, 0)" fill="none" transform="matrix(1 0 0 1 54 419 )" class="stroke" mask="url(#Clip82)" />
    <path d="M 39.49731414930555 26.377641167968743  C 39.49731414930555 22.735018839843743  36.51458090277778 19.78211292578125  32.83516440972222 19.78211292578125  C 29.155747960069448 19.78211292578125  26.173014670138883 22.735018839843747  26.173014670138883 26.377641167968743  C 26.173014670138883 30.020263496093744  29.155747916666662 32.973169410156245  32.83516440972222 32.973169410156245  C 36.51458090277778 32.973169410156245  39.49731414930555 30.020263496093744  39.49731414930555 26.377641167968743  Z " stroke-width="0" stroke-dasharray="0" stroke="rgba(255, 255, 255, 0)" fill="none" transform="matrix(1 0 0 1 54 419 )" class="stroke" mask="url(#Clip82)" />
    <path d="M 37.27215616319444 26.470374261718746  C 37.22436631944444 26.97110680859375  36.78253255208333 27.34498529296875  36.27452144097222 27.34498529296875  L 33.81507782118056 27.34498529296875  C 33.81352330729167 27.34498529296875  33.81227973090277 27.3462164765625  33.81227973090277 27.34775540234375  L 33.81227973090277 29.782604585937502  C 33.81227973090277 30.285579585937505  33.43462465277777 30.722995015625  32.92883424479166 30.770306917968753  C 32.34980460069445 30.824478179687507  31.85804913194444 30.370002308593754  31.85804913194444 29.807359785156255  L 31.85804913194444 27.347799359375  C 31.85804913194444 27.346260390625005  31.856805512152775 27.345029250000003  31.855251041666666 27.345029250000003  L 29.39585182291667 27.345029250000003  C 28.88779626736111 27.345029250000003  28.4459625 26.971150722656247  28.398172699652775 26.47041821875  C 28.343454253472217 25.897178871093754  28.802520789930554 25.410340957031252  29.37084657118055 25.410340957031252  L 31.855251041666666 25.410340957031252  C 31.85680555555555 25.410340957031252  31.85804913194444 25.409109773437503  31.85804913194444 25.40757084765625  L 31.85804913194444 22.972721664062497  C 31.85804913194444 22.4697466640625  32.23570421006944 22.032331234375  32.741494618055555 21.985019332031246  C 33.32052426215277 21.9308480703125  33.81227973090277 22.385323941406252  33.81227973090277 22.947966464843745  L 33.81227973090277 25.407526890624997  C 33.81227973090277 25.409065859374994  33.81352335069444 25.410297  33.81507782118056 25.410297  L 36.29948229166666 25.410297  C 36.867808072916674 25.410297  37.326874609375 25.8971349140625  37.27215616319444 26.470374261718746  Z " stroke-width="0" stroke-dasharray="0" stroke="rgba(255, 255, 255, 0)" fill="none" transform="matrix(1 0 0 1 54 419 )" class="stroke" mask="url(#Clip82)" />
  </g>
</svg>