<?xml version="1.0" encoding="utf-8"?>
<svg version="1.1" xmlns:xlink="http://www.w3.org/1999/xlink" width="13px" height="13px" xmlns="http://www.w3.org/2000/svg">
  <defs>
    <pattern id="BGPattern" patternUnits="userSpaceOnUse" alignment="0 0" imageRepeat="None" />
    <mask fill="white" id="Clip13943">
      <path d="M 0.8749999999999996 6.500000083819031  C 0.8749999999999996 9.606601801617243  3.3933982822017867 12.12500008381903  6.5 12.12500008381903  C 9.606601717798211 12.12500008381903  12.124999999999998 9.606601801617243  12.124999999999998 6.500000083819031  C 12.124999999999998 3.393398198382757  9.606601717798211 0.8749999161809678  6.5 0.8749999161809678  C 3.3933982822017867 0.8749999161809678  0.8749999999999996 3.3933981983827546  0.8749999999999996 6.499999916180968  Z " fill-rule="evenodd" />
    </mask>
  </defs>
  <g transform="matrix(1 0 0 1 -769 -102 )">
    <path d="M 0.8749999999999996 6.500000083819031  C 0.8749999999999996 9.606601801617243  3.3933982822017867 12.12500008381903  6.5 12.12500008381903  C 9.606601717798211 12.12500008381903  12.124999999999998 9.606601801617243  12.124999999999998 6.500000083819031  C 12.124999999999998 3.393398198382757  9.606601717798211 0.8749999161809678  6.5 0.8749999161809678  C 3.3933982822017867 0.8749999161809678  0.8749999999999996 3.3933981983827546  0.8749999999999996 6.499999916180968  Z " fill-rule="nonzero" fill="rgba(255, 193, 2, 1)" stroke="none" transform="matrix(1 0 0 1 769 102 )" class="fill" />
    <path d="M 0.8749999999999996 6.500000083819031  C 0.8749999999999996 9.606601801617243  3.3933982822017867 12.12500008381903  6.5 12.12500008381903  C 9.606601717798211 12.12500008381903  12.124999999999998 9.606601801617243  12.124999999999998 6.500000083819031  C 12.124999999999998 3.393398198382757  9.606601717798211 0.8749999161809678  6.5 0.8749999161809678  C 3.3933982822017867 0.8749999161809678  0.8749999999999996 3.3933981983827546  0.8749999999999996 6.499999916180968  Z " stroke-width="0" stroke-dasharray="0" stroke="rgba(255, 255, 255, 0)" fill="none" transform="matrix(1 0 0 1 769 102 )" class="stroke" mask="url(#Clip13943)" />
  </g>
</svg>