<?xml version="1.0" encoding="utf-8"?>
<svg version="1.1" xmlns:xlink="http://www.w3.org/1999/xlink" width="20px" height="20px" xmlns="http://www.w3.org/2000/svg">
  <defs>
    <pattern id="BGPattern" patternUnits="userSpaceOnUse" alignment="0 0" imageRepeat="None" />
    <mask fill="white" id="Clip20373">
      <path d="M 10.069565214843747 0.5  C 4.786841525499989 0.5  0.5043478320312499 4.782493693468741  0.5043478320312499 10.065217382812499  C 0.5043478320312493 15.347941091687506  4.78684152549999 19.630434785156247  10.069565214843747 19.630434785156247  C 15.352288923718758 19.630434785156247  19.634782617187497 15.347941091687506  19.634782617187497 10.065217402343748  C 19.634782617187497 4.782493693468738  15.352288923718758 0.4999999999999974  10.069565234375 0.4999999999999974  Z M 10.069565214843749 1.1521739062499967  C 14.992103201528055 1.1521739062499978  18.98260869140625 5.142679396128194  18.98260869140625 10.065217382812499  C 18.98260869140625 14.987755389028052  14.992103201528055 18.978260878906248  10.069565214843747 18.978260878906248  C 5.147027228159445 18.978260878906248  1.1565217382812507 14.987755389028052  1.1565217382812507 10.065217402343746  C 1.15652173828125 5.142679396128193  5.147027228159445 1.1521739062499967  10.069565214843749 1.1521739062499967  Z " fill-rule="evenodd" />
    </mask>
  </defs>
  <g transform="matrix(1 0 0 1 -1014 -98 )">
    <path d="M 10.069565214843747 0.5  C 4.786841525499989 0.5  0.5043478320312499 4.782493693468741  0.5043478320312499 10.065217382812499  C 0.5043478320312493 15.347941091687506  4.78684152549999 19.630434785156247  10.069565214843747 19.630434785156247  C 15.352288923718758 19.630434785156247  19.634782617187497 15.347941091687506  19.634782617187497 10.065217402343748  C 19.634782617187497 4.782493693468738  15.352288923718758 0.4999999999999974  10.069565234375 0.4999999999999974  Z M 10.069565214843749 1.1521739062499967  C 14.992103201528055 1.1521739062499978  18.98260869140625 5.142679396128194  18.98260869140625 10.065217382812499  C 18.98260869140625 14.987755389028052  14.992103201528055 18.978260878906248  10.069565214843747 18.978260878906248  C 5.147027228159445 18.978260878906248  1.1565217382812507 14.987755389028052  1.1565217382812507 10.065217402343746  C 1.15652173828125 5.142679396128193  5.147027228159445 1.1521739062499967  10.069565214843749 1.1521739062499967  Z " fill-rule="nonzero" fill="rgba(255, 255, 255, 0.8980392156862745)" stroke="none" transform="matrix(1 0 0 1 1014 98 )" class="fill" />
    <path d="M 10.069565214843747 0.5  C 4.786841525499989 0.5  0.5043478320312499 4.782493693468741  0.5043478320312499 10.065217382812499  C 0.5043478320312493 15.347941091687506  4.78684152549999 19.630434785156247  10.069565214843747 19.630434785156247  C 15.352288923718758 19.630434785156247  19.634782617187497 15.347941091687506  19.634782617187497 10.065217402343748  C 19.634782617187497 4.782493693468738  15.352288923718758 0.4999999999999974  10.069565234375 0.4999999999999974  Z " stroke-width="0" stroke-dasharray="0" stroke="rgba(255, 255, 255, 0)" fill="none" transform="matrix(1 0 0 1 1014 98 )" class="stroke" mask="url(#Clip20373)" />
    <path d="M 10.069565214843749 1.1521739062499967  C 14.992103201528055 1.1521739062499978  18.98260869140625 5.142679396128194  18.98260869140625 10.065217382812499  C 18.98260869140625 14.987755389028052  14.992103201528055 18.978260878906248  10.069565214843747 18.978260878906248  C 5.147027228159445 18.978260878906248  1.1565217382812507 14.987755389028052  1.1565217382812507 10.065217402343746  C 1.15652173828125 5.142679396128193  5.147027228159445 1.1521739062499967  10.069565214843749 1.1521739062499967  Z " stroke-width="0" stroke-dasharray="0" stroke="rgba(255, 255, 255, 0)" fill="none" transform="matrix(1 0 0 1 1014 98 )" class="stroke" mask="url(#Clip20373)" />
  </g>
</svg>