<?xml version="1.0" encoding="utf-8"?>
<svg version="1.1" xmlns:xlink="http://www.w3.org/1999/xlink" width="18px" height="18px" xmlns="http://www.w3.org/2000/svg">
  <defs>
    <pattern id="BGPattern" patternUnits="userSpaceOnUse" alignment="0 0" imageRepeat="None" />
    <mask fill="white" id="Clip113">
      <path d="M 17.33043478515625 9.065217382812502  C 17.330434774369436 4.502865106415077  13.631917491241174 0.8043478320312512  9.069565214843749 0.80434783203125  C 4.507212938446323 0.80434783203125  0.80869565531806 4.502865106415075  0.8086956445312496 9.065217382812502  C 0.8086956445312496 13.627569666837353  4.507212930818897 17.326086953125  9.069565214843749 17.326086953125  C 13.631917498868601 17.326086953125  17.33043478515625 13.627569666837353  17.33043478515625 9.065217382812502  Z M 9.099999999999998 4.243478261718748  L 9.1 11.04782609375  L 9.1 14.12173912109375  L 6.117391308593749 11.230434785156252  C 6.003051756118975 11.112836087889193  5.846616665826575 11.045568999766196  5.68260869140625 11.04347826171875  L 4.0391304296875 11.04347826171875  C 3.6974441797450623 11.04348661636379  3.419780715396562 10.767764848524536  3.417391308593749 10.426086953125  L 3.41739130859375 7.9391304296874985  C 3.4197608827205643 7.596739707586744  3.696739707586744 7.319760882720562  4.0391304296875 7.3173913085937485  L 5.682608691406248 7.3173913085937485  C 5.849593821955601 7.331161987672772  6.01251596293014 7.2611054677855975  6.117391308593749 7.130434785156249  L 9.099999999999998 4.243478261718748  Z M 13.37826087890625 9.1652173828125  L 14.721739121093751 10.469565214843751  L 13.852173906249998 11.369565214843751  L 12.478260878906248 10.0347826171875  L 11.139130429687498 11.36956521484375  L 10.269565214843748 10.46956521484375  L 11.608695644531249 9.1652173828125  L 10.269565214843748 7.860869570312499  L 11.139130429687498 6.991304355468749  L 12.478260878906248 8.295652167968749  L 13.84347826171875 6.991304355468749  L 14.7130434765625 7.860869570312499  L 13.37826087890625 9.1652173828125  Z " fill-rule="evenodd" />
    </mask>
  </defs>
  <g transform="matrix(1 0 0 1 -1015 -99 )">
    <path d="M 17.33043478515625 9.065217382812502  C 17.330434774369436 4.502865106415077  13.631917491241174 0.8043478320312512  9.069565214843749 0.80434783203125  C 4.507212938446323 0.80434783203125  0.80869565531806 4.502865106415075  0.8086956445312496 9.065217382812502  C 0.8086956445312496 13.627569666837353  4.507212930818897 17.326086953125  9.069565214843749 17.326086953125  C 13.631917498868601 17.326086953125  17.33043478515625 13.627569666837353  17.33043478515625 9.065217382812502  Z M 9.099999999999998 4.243478261718748  L 9.1 11.04782609375  L 9.1 14.12173912109375  L 6.117391308593749 11.230434785156252  C 6.003051756118975 11.112836087889193  5.846616665826575 11.045568999766196  5.68260869140625 11.04347826171875  L 4.0391304296875 11.04347826171875  C 3.6974441797450623 11.04348661636379  3.419780715396562 10.767764848524536  3.417391308593749 10.426086953125  L 3.41739130859375 7.9391304296874985  C 3.4197608827205643 7.596739707586744  3.696739707586744 7.319760882720562  4.0391304296875 7.3173913085937485  L 5.682608691406248 7.3173913085937485  C 5.849593821955601 7.331161987672772  6.01251596293014 7.2611054677855975  6.117391308593749 7.130434785156249  L 9.099999999999998 4.243478261718748  Z M 13.37826087890625 9.1652173828125  L 14.721739121093751 10.469565214843751  L 13.852173906249998 11.369565214843751  L 12.478260878906248 10.0347826171875  L 11.139130429687498 11.36956521484375  L 10.269565214843748 10.46956521484375  L 11.608695644531249 9.1652173828125  L 10.269565214843748 7.860869570312499  L 11.139130429687498 6.991304355468749  L 12.478260878906248 8.295652167968749  L 13.84347826171875 6.991304355468749  L 14.7130434765625 7.860869570312499  L 13.37826087890625 9.1652173828125  Z " fill-rule="nonzero" fill="rgba(255, 255, 255, 0.8980392156862745)" stroke="none" transform="matrix(1 0 0 1 1015 99 )" class="fill" />
    <path d="M 17.33043478515625 9.065217382812502  C 17.330434774369436 4.502865106415077  13.631917491241174 0.8043478320312512  9.069565214843749 0.80434783203125  C 4.507212938446323 0.80434783203125  0.80869565531806 4.502865106415075  0.8086956445312496 9.065217382812502  C 0.8086956445312496 13.627569666837353  4.507212930818897 17.326086953125  9.069565214843749 17.326086953125  C 13.631917498868601 17.326086953125  17.33043478515625 13.627569666837353  17.33043478515625 9.065217382812502  Z " stroke-width="0" stroke-dasharray="0" stroke="rgba(255, 255, 255, 0)" fill="none" transform="matrix(1 0 0 1 1015 99 )" class="stroke" mask="url(#Clip113)" />
    <path d="M 9.099999999999998 4.243478261718748  L 9.1 11.04782609375  L 9.1 14.12173912109375  L 6.117391308593749 11.230434785156252  C 6.003051756118975 11.112836087889193  5.846616665826575 11.045568999766196  5.68260869140625 11.04347826171875  L 4.0391304296875 11.04347826171875  C 3.6974441797450623 11.04348661636379  3.419780715396562 10.767764848524536  3.417391308593749 10.426086953125  L 3.41739130859375 7.9391304296874985  C 3.4197608827205643 7.596739707586744  3.696739707586744 7.319760882720562  4.0391304296875 7.3173913085937485  L 5.682608691406248 7.3173913085937485  C 5.849593821955601 7.331161987672772  6.01251596293014 7.2611054677855975  6.117391308593749 7.130434785156249  L 9.099999999999998 4.243478261718748  Z " stroke-width="0" stroke-dasharray="0" stroke="rgba(255, 255, 255, 0)" fill="none" transform="matrix(1 0 0 1 1015 99 )" class="stroke" mask="url(#Clip113)" />
    <path d="M 13.37826087890625 9.1652173828125  L 14.721739121093751 10.469565214843751  L 13.852173906249998 11.369565214843751  L 12.478260878906248 10.0347826171875  L 11.139130429687498 11.36956521484375  L 10.269565214843748 10.46956521484375  L 11.608695644531249 9.1652173828125  L 10.269565214843748 7.860869570312499  L 11.139130429687498 6.991304355468749  L 12.478260878906248 8.295652167968749  L 13.84347826171875 6.991304355468749  L 14.7130434765625 7.860869570312499  L 13.37826087890625 9.1652173828125  Z " stroke-width="0" stroke-dasharray="0" stroke="rgba(255, 255, 255, 0)" fill="none" transform="matrix(1 0 0 1 1015 99 )" class="stroke" mask="url(#Clip113)" />
  </g>
</svg>