<?xml version="1.0" encoding="utf-8"?>
<svg version="1.1" xmlns:xlink="http://www.w3.org/1999/xlink" width="32px" height="39px" xmlns="http://www.w3.org/2000/svg">
  <defs>
    <pattern id="BGPattern" patternUnits="userSpaceOnUse" alignment="0 0" imageRepeat="None" />
    <mask fill="white" id="Clip17630">
      <path d="M 31.79157907366071 16.09960023839614  C 31.791693247767853 11.866267464671417  30.148921316964284 7.886148318301932  27.16637204241072 4.892805791877296  C 24.18353727678572 1.899348615579044  20.218054408482143 0.25076632582720554  15.999828683035714 0.25076632582720554  C 11.781602957589289 0.25076632582720554  7.816005859375005 1.8993485595703117  4.833285323660713 4.892805791877296  C 1.8506218750000016 7.886148374310662  0.20796417410714088 11.866267464671417  0.20796417410714088 16.09960023839614  C 0.20796417410714088 19.371775794175093  1.1937529575892845 22.513046062155333  3.058659988839285 25.183996896541817  C 4.617774330357142 27.41695351275275  6.691511216517857 29.188073329790903  9.108957868303568 30.36335590533088  L 6.619046037946426 38.86578538028493  L 25.380497209821435 38.86578538028493  L 22.890585379464284 30.36335590533088  C 25.307917857142854 29.188073329790903  27.381768917410714 27.41695356876149  28.940883258928572 25.183996896541817  C 30.805790290178567 22.513046062155325  31.79157907366071 19.37177579417509  31.79157907366071 16.09960023839614  Z M 26.66168565848214 15.672667632697612  C 26.66174274553572 21.57298044433594  21.87795758928571 26.373034824505968  15.998915011160713 26.373034824505968  C 10.119872433035713 26.373034824505968  5.338200111607143 21.572980444335933  5.338200111607143 15.672667632697612  C 5.338200111607143 15.067430949850642  5.826154966517854 14.577739384191178  6.429174720982145 14.577739384191178  C 7.032194419642857 14.577739384191178  7.520149330357144 15.067488190774355  7.520149330357144 15.672667632697612  C 7.520149330357144 20.3657739559398  11.323741908482143 24.183121086569397  15.998857924107146 24.183121086569397  C 20.67608677455357 24.183121086569397  24.479679352678577 20.3657739559398  24.479679352678577 15.672667632697612  C 24.479679352678577 15.067430949850648  24.967634207589292 14.577739384191181  25.570711049107143 14.577739384191181  C 26.17373074776786 14.577739384191181  26.66168565848214 15.067488190774359  26.66168565848214 15.672667632697612  Z " fill-rule="evenodd" />
    </mask>
  </defs>
  <g transform="matrix(1 0 0 1 -164 -413 )">
    <path d="M 31.79157907366071 16.09960023839614  C 31.791693247767853 11.866267464671417  30.148921316964284 7.886148318301932  27.16637204241072 4.892805791877296  C 24.18353727678572 1.899348615579044  20.218054408482143 0.25076632582720554  15.999828683035714 0.25076632582720554  C 11.781602957589289 0.25076632582720554  7.816005859375005 1.8993485595703117  4.833285323660713 4.892805791877296  C 1.8506218750000016 7.886148374310662  0.20796417410714088 11.866267464671417  0.20796417410714088 16.09960023839614  C 0.20796417410714088 19.371775794175093  1.1937529575892845 22.513046062155333  3.058659988839285 25.183996896541817  C 4.617774330357142 27.41695351275275  6.691511216517857 29.188073329790903  9.108957868303568 30.36335590533088  L 6.619046037946426 38.86578538028493  L 25.380497209821435 38.86578538028493  L 22.890585379464284 30.36335590533088  C 25.307917857142854 29.188073329790903  27.381768917410714 27.41695356876149  28.940883258928572 25.183996896541817  C 30.805790290178567 22.513046062155325  31.79157907366071 19.37177579417509  31.79157907366071 16.09960023839614  Z M 26.66168565848214 15.672667632697612  C 26.66174274553572 21.57298044433594  21.87795758928571 26.373034824505968  15.998915011160713 26.373034824505968  C 10.119872433035713 26.373034824505968  5.338200111607143 21.572980444335933  5.338200111607143 15.672667632697612  C 5.338200111607143 15.067430949850642  5.826154966517854 14.577739384191178  6.429174720982145 14.577739384191178  C 7.032194419642857 14.577739384191178  7.520149330357144 15.067488190774355  7.520149330357144 15.672667632697612  C 7.520149330357144 20.3657739559398  11.323741908482143 24.183121086569397  15.998857924107146 24.183121086569397  C 20.67608677455357 24.183121086569397  24.479679352678577 20.3657739559398  24.479679352678577 15.672667632697612  C 24.479679352678577 15.067430949850648  24.967634207589292 14.577739384191181  25.570711049107143 14.577739384191181  C 26.17373074776786 14.577739384191181  26.66168565848214 15.067488190774359  26.66168565848214 15.672667632697612  Z " fill-rule="nonzero" fill="rgba(255, 255, 255, 1)" stroke="none" transform="matrix(1 0 0 1 164 413 )" class="fill" />
    <path d="M 31.79157907366071 16.09960023839614  C 31.791693247767853 11.866267464671417  30.148921316964284 7.886148318301932  27.16637204241072 4.892805791877296  C 24.18353727678572 1.899348615579044  20.218054408482143 0.25076632582720554  15.999828683035714 0.25076632582720554  C 11.781602957589289 0.25076632582720554  7.816005859375005 1.8993485595703117  4.833285323660713 4.892805791877296  C 1.8506218750000016 7.886148374310662  0.20796417410714088 11.866267464671417  0.20796417410714088 16.09960023839614  C 0.20796417410714088 19.371775794175093  1.1937529575892845 22.513046062155333  3.058659988839285 25.183996896541817  C 4.617774330357142 27.41695351275275  6.691511216517857 29.188073329790903  9.108957868303568 30.36335590533088  L 6.619046037946426 38.86578538028493  L 25.380497209821435 38.86578538028493  L 22.890585379464284 30.36335590533088  C 25.307917857142854 29.188073329790903  27.381768917410714 27.41695356876149  28.940883258928572 25.183996896541817  C 30.805790290178567 22.513046062155325  31.79157907366071 19.37177579417509  31.79157907366071 16.09960023839614  Z " stroke-width="0" stroke-dasharray="0" stroke="rgba(255, 255, 255, 0)" fill="none" transform="matrix(1 0 0 1 164 413 )" class="stroke" mask="url(#Clip17630)" />
    <path d="M 26.66168565848214 15.672667632697612  C 26.66174274553572 21.57298044433594  21.87795758928571 26.373034824505968  15.998915011160713 26.373034824505968  C 10.119872433035713 26.373034824505968  5.338200111607143 21.572980444335933  5.338200111607143 15.672667632697612  C 5.338200111607143 15.067430949850642  5.826154966517854 14.577739384191178  6.429174720982145 14.577739384191178  C 7.032194419642857 14.577739384191178  7.520149330357144 15.067488190774355  7.520149330357144 15.672667632697612  C 7.520149330357144 20.3657739559398  11.323741908482143 24.183121086569397  15.998857924107146 24.183121086569397  C 20.67608677455357 24.183121086569397  24.479679352678577 20.3657739559398  24.479679352678577 15.672667632697612  C 24.479679352678577 15.067430949850648  24.967634207589292 14.577739384191181  25.570711049107143 14.577739384191181  C 26.17373074776786 14.577739384191181  26.66168565848214 15.067488190774359  26.66168565848214 15.672667632697612  Z " stroke-width="0" stroke-dasharray="0" stroke="rgba(255, 255, 255, 0)" fill="none" transform="matrix(1 0 0 1 164 413 )" class="stroke" mask="url(#Clip17630)" />
  </g>
</svg>