<?xml version="1.0" encoding="utf-8"?>
<svg version="1.1" xmlns:xlink="http://www.w3.org/1999/xlink" width="7px" height="7px" xmlns="http://www.w3.org/2000/svg">
  <defs>
    <pattern id="BGPattern" patternUnits="userSpaceOnUse" alignment="0 0" imageRepeat="None" />
    <mask fill="white" id="Clip3843">
      <path d="M 0.8956250000000008 2.4228125  L 3.4831250000000002 0.6875  L 6.102499999999999 2.42375  C 6.2333806320164005 2.5103918405204197  6.312210370950696 2.6567899271126825  6.3125 2.8137500000000006  L 6.3125 5.84375  C 6.3125 6.102633476483184  6.102633476483184 6.3125  5.84375 6.3125  L 4.4375 6.3125  L 4.4375 4.4375  C 4.4375 3.9197330470336316  4.017766952966369 3.5  3.5 3.5  C 2.982233047033631 3.5  2.5625 3.9197330470336316  2.5625 4.4375  L 2.5625 6.3125  L 1.15625 6.3125  C 0.8973665235168156 6.3125  0.6875 6.102633476483184  0.6875 5.84375  L 0.6875 2.8128125000000006  C 0.6873719781592706 2.6562082319795595  0.7654582273107939 2.509884449785715  0.8956250000000008 2.4228125  Z " fill-rule="evenodd" />
    </mask>
  </defs>
  <g transform="matrix(1 0 0 1 -772 -105 )">
    <path d="M 0.8956250000000008 2.4228125  L 3.4831250000000002 0.6875  L 6.102499999999999 2.42375  C 6.2333806320164005 2.5103918405204197  6.312210370950696 2.6567899271126825  6.3125 2.8137500000000006  L 6.3125 5.84375  C 6.3125 6.102633476483184  6.102633476483184 6.3125  5.84375 6.3125  L 4.4375 6.3125  L 4.4375 4.4375  C 4.4375 3.9197330470336316  4.017766952966369 3.5  3.5 3.5  C 2.982233047033631 3.5  2.5625 3.9197330470336316  2.5625 4.4375  L 2.5625 6.3125  L 1.15625 6.3125  C 0.8973665235168156 6.3125  0.6875 6.102633476483184  0.6875 5.84375  L 0.6875 2.8128125000000006  C 0.6873719781592706 2.6562082319795595  0.7654582273107939 2.509884449785715  0.8956250000000008 2.4228125  Z " fill-rule="nonzero" fill="rgba(255, 255, 255, 1)" stroke="none" transform="matrix(1 0 0 1 772 105 )" class="fill" />
    <path d="M 0.8956250000000008 2.4228125  L 3.4831250000000002 0.6875  L 6.102499999999999 2.42375  C 6.2333806320164005 2.5103918405204197  6.312210370950696 2.6567899271126825  6.3125 2.8137500000000006  L 6.3125 5.84375  C 6.3125 6.102633476483184  6.102633476483184 6.3125  5.84375 6.3125  L 4.4375 6.3125  L 4.4375 4.4375  C 4.4375 3.9197330470336316  4.017766952966369 3.5  3.5 3.5  C 2.982233047033631 3.5  2.5625 3.9197330470336316  2.5625 4.4375  L 2.5625 6.3125  L 1.15625 6.3125  C 0.8973665235168156 6.3125  0.6875 6.102633476483184  0.6875 5.84375  L 0.6875 2.8128125000000006  C 0.6873719781592706 2.6562082319795595  0.7654582273107939 2.509884449785715  0.8956250000000008 2.4228125  Z " stroke-width="0" stroke-dasharray="0" stroke="rgba(255, 255, 255, 0)" fill="none" transform="matrix(1 0 0 1 772 105 )" class="stroke" mask="url(#Clip3843)" />
  </g>
</svg>