<?xml version="1.0" encoding="utf-8"?>
<svg version="1.1" xmlns:xlink="http://www.w3.org/1999/xlink" width="50px" height="50px" xmlns="http://www.w3.org/2000/svg">
  <defs>
    <linearGradient gradientUnits="userSpaceOnUse" x1="0" y1="0" x2="50" y2="50" id="LinearGradient15830">
      <stop id="Stop15831" stop-color="#fd47a0" offset="0" />
      <stop id="Stop15832" stop-color="#d90076" offset="1" />
    </linearGradient>
    <pattern id="BGPattern" patternUnits="userSpaceOnUse" alignment="0 0" imageRepeat="None" />
    <mask fill="white" id="Clip15833">
      <path d="M 25 50  C 10.999999999999998 50  0 39  0 25  C 0 10.999999999999998  10.999999999999998 0  25 0  C 39 0  50 10.999999999999998  50 25  C 50 39  39 50  25 50  Z " fill-rule="evenodd" />
    </mask>
  </defs>
  <g transform="matrix(1 0 0 1 -1377 -260 )">
    <path d="M 25 50  C 10.999999999999998 50  0 39  0 25  C 0 10.999999999999998  10.999999999999998 0  25 0  C 39 0  50 10.999999999999998  50 25  C 50 39  39 50  25 50  Z " fill-rule="nonzero" fill="url(#LinearGradient15830)" stroke="none" transform="matrix(1 0 0 1 1377 260 )" class="fill" />
    <path d="M 25 50  C 10.999999999999998 50  0 39  0 25  C 0 10.999999999999998  10.999999999999998 0  25 0  C 39 0  50 10.999999999999998  50 25  C 50 39  39 50  25 50  Z " stroke-width="0" stroke-dasharray="0" stroke="rgba(121, 121, 121, 1)" fill="none" transform="matrix(1 0 0 1 1377 260 )" class="stroke" mask="url(#Clip15833)" />
  </g>
</svg>