<?xml version="1.0" encoding="utf-8"?>
<svg version="1.1" xmlns:xlink="http://www.w3.org/1999/xlink" width="11px" height="11px" xmlns="http://www.w3.org/2000/svg">
  <defs>
    <pattern id="BGPattern" patternUnits="userSpaceOnUse" alignment="0 0" imageRepeat="None" />
    <mask fill="white" id="Clip904">
      <path d="M 10.415625000000002 6.438281250000003  C 10.502343750000001 6.063281250000003  10.546875000000004 5.674218750000001  10.546875 5.2734375  L 10.546875 0.5953124999999986  L 0.5953124999999986 10.546875  L 5.2734375 10.546875  C 5.674218750000001 10.546875  6.063281250000003 10.502343750000001  6.438281250000003 10.415624999999999  L 10.415625000000002 6.438281250000003  Z " fill-rule="evenodd" />
    </mask>
  </defs>
  <g transform="matrix(1 0 0 1 -103 -1354 )">
    <path d="M 10.415625000000002 6.438281250000003  C 10.502343750000001 6.063281250000003  10.546875000000004 5.674218750000001  10.546875 5.2734375  L 10.546875 0.5953124999999986  L 0.5953124999999986 10.546875  L 5.2734375 10.546875  C 5.674218750000001 10.546875  6.063281250000003 10.502343750000001  6.438281250000003 10.415624999999999  L 10.415625000000002 6.438281250000003  Z " fill-rule="nonzero" fill="rgba(255, 95, 81, 1)" stroke="none" transform="matrix(1 0 0 1 103 1354 )" class="fill" />
    <path d="M 10.415625000000002 6.438281250000003  C 10.502343750000001 6.063281250000003  10.546875000000004 5.674218750000001  10.546875 5.2734375  L 10.546875 0.5953124999999986  L 0.5953124999999986 10.546875  L 5.2734375 10.546875  C 5.674218750000001 10.546875  6.063281250000003 10.502343750000001  6.438281250000003 10.415624999999999  L 10.415625000000002 6.438281250000003  Z " stroke-width="0" stroke-dasharray="0" stroke="rgba(255, 255, 255, 0)" fill="none" transform="matrix(1 0 0 1 103 1354 )" class="stroke" mask="url(#Clip904)" />
  </g>
</svg>