<?xml version="1.0" encoding="utf-8"?>
<svg version="1.1" xmlns:xlink="http://www.w3.org/1999/xlink" width="10px" height="6px" xmlns="http://www.w3.org/2000/svg">
  <defs>
    <pattern id="BGPattern" patternUnits="userSpaceOnUse" alignment="0 0" imageRepeat="None" />
    <mask fill="white" id="Clip8136">
      <path d="M 4.7509765625 5.942988281249999  C 7.401943361687808 5.942988281249999  9.5509765625 3.7939550804378115  9.5509765625 1.142988281250001  L 9.550976562499999 0.9449999999999994  L 2.999023437499999 0.9449999999999985  C 1.8041293350012113 0.9482833577587471  0.8362878007497745 1.9161118013951173  0.8329882812500005 3.111005859375  L 0.8329882812500005 3.8999999999999986  C 1.7268553462357747 5.180127846292216  3.1896841038285144 5.942896759306549  4.751005859375001 5.942988281249999  Z " fill-rule="evenodd" />
    </mask>
  </defs>
  <g transform="matrix(1 0 0 1 -92 -1484 )">
    <path d="M 4.7509765625 5.942988281249999  C 7.401943361687808 5.942988281249999  9.5509765625 3.7939550804378115  9.5509765625 1.142988281250001  L 9.550976562499999 0.9449999999999994  L 2.999023437499999 0.9449999999999985  C 1.8041293350012113 0.9482833577587471  0.8362878007497745 1.9161118013951173  0.8329882812500005 3.111005859375  L 0.8329882812500005 3.8999999999999986  C 1.7268553462357747 5.180127846292216  3.1896841038285144 5.942896759306549  4.751005859375001 5.942988281249999  Z " fill-rule="nonzero" fill="rgba(253, 151, 63, 1)" stroke="none" transform="matrix(1 0 0 1 92 1484 )" class="fill" />
    <path d="M 4.7509765625 5.942988281249999  C 7.401943361687808 5.942988281249999  9.5509765625 3.7939550804378115  9.5509765625 1.142988281250001  L 9.550976562499999 0.9449999999999994  L 2.999023437499999 0.9449999999999985  C 1.8041293350012113 0.9482833577587471  0.8362878007497745 1.9161118013951173  0.8329882812500005 3.111005859375  L 0.8329882812500005 3.8999999999999986  C 1.7268553462357747 5.180127846292216  3.1896841038285144 5.942896759306549  4.751005859375001 5.942988281249999  Z " stroke-width="0" stroke-dasharray="0" stroke="rgba(255, 255, 255, 0)" fill="none" transform="matrix(1 0 0 1 92 1484 )" class="stroke" mask="url(#Clip8136)" />
  </g>
</svg>