<?xml version="1.0" encoding="utf-8"?>
<svg version="1.1" xmlns:xlink="http://www.w3.org/1999/xlink" width="38px" height="38px" xmlns="http://www.w3.org/2000/svg">
  <defs>
    <pattern id="BGPattern" patternUnits="userSpaceOnUse" alignment="0 0" imageRepeat="None" />
    <mask fill="white" id="Clip310">
      <path d="M 37.180059523809526 9.159300595238097  L 37.180059523809526 8.552827380952381  C 37.180059523809526 5.880952380952381  36.0688988095238 3.459300595238096  34.28340773809524 1.7204613095238104  L 1.7204613095238104 34.28340773809524  C 3.459300595238096 36.0688988095238  5.880952380952381 37.180059523809526  8.552827380952381 37.180059523809526  L 9.159300595238097 37.180059523809526  L 37.180059523809526 9.159300595238097  Z " fill-rule="evenodd" />
    </mask>
  </defs>
  <g transform="matrix(1 0 0 1 -162 -1242 )">
    <path d="M 37.180059523809526 9.159300595238097  L 37.180059523809526 8.552827380952381  C 37.180059523809526 5.880952380952381  36.0688988095238 3.459300595238096  34.28340773809524 1.7204613095238104  L 1.7204613095238104 34.28340773809524  C 3.459300595238096 36.0688988095238  5.880952380952381 37.180059523809526  8.552827380952381 37.180059523809526  L 9.159300595238097 37.180059523809526  L 37.180059523809526 9.159300595238097  Z " fill-rule="nonzero" fill="rgba(255, 98, 89, 1)" stroke="none" transform="matrix(1 0 0 1 162 1242 )" class="fill" />
    <path d="M 37.180059523809526 9.159300595238097  L 37.180059523809526 8.552827380952381  C 37.180059523809526 5.880952380952381  36.0688988095238 3.459300595238096  34.28340773809524 1.7204613095238104  L 1.7204613095238104 34.28340773809524  C 3.459300595238096 36.0688988095238  5.880952380952381 37.180059523809526  8.552827380952381 37.180059523809526  L 9.159300595238097 37.180059523809526  L 37.180059523809526 9.159300595238097  Z " stroke-width="0" stroke-dasharray="0" stroke="rgba(255, 255, 255, 0)" fill="none" transform="matrix(1 0 0 1 162 1242 )" class="stroke" mask="url(#Clip310)" />
  </g>
</svg>