<?xml version="1.0" encoding="utf-8"?>
<svg version="1.1" xmlns:xlink="http://www.w3.org/1999/xlink" width="13px" height="13px" xmlns="http://www.w3.org/2000/svg">
  <defs>
    <pattern id="BGPattern" patternUnits="userSpaceOnUse" alignment="0 0" imageRepeat="None" />
    <mask fill="white" id="Clip2099">
      <path d="M 12.158482142857142 2.364955357142857  L 12.158482142857142 1.5074776785714232  L 1.5074776785714232 12.158482142857142  L 2.364955357142857 12.158482142857142  C 7.753571428571423 12.158482142857142  12.158482142857142 7.749218750000005  12.158482142857142 2.364955357142857  Z " fill-rule="evenodd" />
    </mask>
  </defs>
  <g transform="matrix(1 0 0 1 -187 -1267 )">
    <path d="M 12.158482142857142 2.364955357142857  L 12.158482142857142 1.5074776785714232  L 1.5074776785714232 12.158482142857142  L 2.364955357142857 12.158482142857142  C 7.753571428571423 12.158482142857142  12.158482142857142 7.749218750000005  12.158482142857142 2.364955357142857  Z " fill-rule="nonzero" fill="rgba(255, 94, 78, 1)" stroke="none" transform="matrix(1 0 0 1 187 1267 )" class="fill" />
    <path d="M 12.158482142857142 2.364955357142857  L 12.158482142857142 1.5074776785714232  L 1.5074776785714232 12.158482142857142  L 2.364955357142857 12.158482142857142  C 7.753571428571423 12.158482142857142  12.158482142857142 7.749218750000005  12.158482142857142 2.364955357142857  Z " stroke-width="0" stroke-dasharray="0" stroke="rgba(255, 255, 255, 0)" fill="none" transform="matrix(1 0 0 1 187 1267 )" class="stroke" mask="url(#Clip2099)" />
  </g>
</svg>