<?xml version="1.0" encoding="utf-8"?>
<svg version="1.1" xmlns:xlink="http://www.w3.org/1999/xlink" width="38px" height="38px" xmlns="http://www.w3.org/2000/svg">
  <defs>
    <pattern id="BGPattern" patternUnits="userSpaceOnUse" alignment="0 0" imageRepeat="None" />
    <mask fill="white" id="Clip1434">
      <path d="M 31.04181547619047 0.9514136904761903  L 0.9556547619047622 31.037574404761905  C 1.3967261904761903 33.63735119047619  2.8980654761904763 35.89360119047619  5.001636904761904 37.32708333333333  L 37.3313244047619 4.997395833333333  C 35.89360119047619 2.8980654761904763  33.64159226190476 1.392485119047619  31.04181547619047 0.9514136904761903  Z " fill-rule="evenodd" />
    </mask>
  </defs>
  <g transform="matrix(1 0 0 1 -160 -1240 )">
    <path d="M 31.04181547619047 0.9514136904761903  L 0.9556547619047622 31.037574404761905  C 1.3967261904761903 33.63735119047619  2.8980654761904763 35.89360119047619  5.001636904761904 37.32708333333333  L 37.3313244047619 4.997395833333333  C 35.89360119047619 2.8980654761904763  33.64159226190476 1.392485119047619  31.04181547619047 0.9514136904761903  Z " fill-rule="nonzero" fill="rgba(255, 99, 91, 1)" stroke="none" transform="matrix(1 0 0 1 160 1240 )" class="fill" />
    <path d="M 31.04181547619047 0.9514136904761903  L 0.9556547619047622 31.037574404761905  C 1.3967261904761903 33.63735119047619  2.8980654761904763 35.89360119047619  5.001636904761904 37.32708333333333  L 37.3313244047619 4.997395833333333  C 35.89360119047619 2.8980654761904763  33.64159226190476 1.392485119047619  31.04181547619047 0.9514136904761903  Z " stroke-width="0" stroke-dasharray="0" stroke="rgba(255, 255, 255, 0)" fill="none" transform="matrix(1 0 0 1 160 1240 )" class="stroke" mask="url(#Clip1434)" />
  </g>
</svg>