<?xml version="1.0" encoding="utf-8"?>
<svg version="1.1" xmlns:xlink="http://www.w3.org/1999/xlink" width="9px" height="7px" xmlns="http://www.w3.org/2000/svg">
  <defs>
    <pattern id="BGPattern" patternUnits="userSpaceOnUse" alignment="0 0" imageRepeat="None" />
    <mask fill="white" id="Clip1451">
      <path d="M 8.634375 5.1474609374999964  C 8.634375 5.5535156249999975  8.292656249999999 5.8857421874999964  7.875 5.8857421875  L 1.8 5.8857421875  C 1.4920312499999986 5.8857421875  1.2178124999999989 5.7052734375000025  1.0996874999999975 5.4304687499999975  C 0.9815624999999993 5.155664062499999  1.0490624999999987 4.8357421874999975  1.264218749999998 4.626562499999999  L 4.301718749999998 1.6734374999999981  C 4.445156249999999 1.533984374999999  4.639218749999999 1.456054687499997  4.8374999999999995 1.456054687499997  C 6.930000000000002 1.456054687499997  8.634375 3.1130859374999975  8.634375 5.1474609374999964  Z M 5.137031250000002 2.9490234374999993  L 3.63515625 4.4091796875  L 6.9890625 4.4091796875  C 6.706406249999998 3.6380859374999988  5.9976562499999995 3.0597656250000007  5.137031250000002 2.9490234374999993  Z " fill-rule="evenodd" />
    </mask>
  </defs>
  <g transform="matrix(1 0 0 1 -178 -1249 )">
    <path d="M 8.634375 5.1474609374999964  C 8.634375 5.5535156249999975  8.292656249999999 5.8857421874999964  7.875 5.8857421875  L 1.8 5.8857421875  C 1.4920312499999986 5.8857421875  1.2178124999999989 5.7052734375000025  1.0996874999999975 5.4304687499999975  C 0.9815624999999993 5.155664062499999  1.0490624999999987 4.8357421874999975  1.264218749999998 4.626562499999999  L 4.301718749999998 1.6734374999999981  C 4.445156249999999 1.533984374999999  4.639218749999999 1.456054687499997  4.8374999999999995 1.456054687499997  C 6.930000000000002 1.456054687499997  8.634375 3.1130859374999975  8.634375 5.1474609374999964  Z M 5.137031250000002 2.9490234374999993  L 3.63515625 4.4091796875  L 6.9890625 4.4091796875  C 6.706406249999998 3.6380859374999988  5.9976562499999995 3.0597656250000007  5.137031250000002 2.9490234374999993  Z " fill-rule="nonzero" fill="rgba(255, 255, 255, 1)" stroke="none" transform="matrix(1 0 0 1 178 1249 )" class="fill" />
    <path d="M 8.634375 5.1474609374999964  C 8.634375 5.5535156249999975  8.292656249999999 5.8857421874999964  7.875 5.8857421875  L 1.8 5.8857421875  C 1.4920312499999986 5.8857421875  1.2178124999999989 5.7052734375000025  1.0996874999999975 5.4304687499999975  C 0.9815624999999993 5.155664062499999  1.0490624999999987 4.8357421874999975  1.264218749999998 4.626562499999999  L 4.301718749999998 1.6734374999999981  C 4.445156249999999 1.533984374999999  4.639218749999999 1.456054687499997  4.8374999999999995 1.456054687499997  C 6.930000000000002 1.456054687499997  8.634375 3.1130859374999975  8.634375 5.1474609374999964  Z " stroke-width="0" stroke-dasharray="0" stroke="rgba(255, 255, 255, 0)" fill="none" transform="matrix(1 0 0 1 178 1249 )" class="stroke" mask="url(#Clip1451)" />
    <path d="M 5.137031250000002 2.9490234374999993  L 3.63515625 4.4091796875  L 6.9890625 4.4091796875  C 6.706406249999998 3.6380859374999988  5.9976562499999995 3.0597656250000007  5.137031250000002 2.9490234374999993  Z " stroke-width="0" stroke-dasharray="0" stroke="rgba(255, 255, 255, 0)" fill="none" transform="matrix(1 0 0 1 178 1249 )" class="stroke" mask="url(#Clip1451)" />
  </g>
</svg>