<?xml version="1.0" encoding="utf-8"?>
<svg version="1.1" xmlns:xlink="http://www.w3.org/1999/xlink" width="24px" height="24px" xmlns="http://www.w3.org/2000/svg">
  <defs>
    <pattern id="BGPattern" patternUnits="userSpaceOnUse" alignment="0 0" imageRepeat="None" />
    <mask fill="white" id="Clip2506">
      <path d="M 0 12  C 0 18.627416997969522  5.372583002030479 24  12 24  C 18.627416997969522 24  24 18.627416997969522  24 12  C 24 5.372583002030479  18.627416997969522 0  12 0  C 5.372583002030479 0  0 5.372583002030479  0 12  Z " fill-rule="evenodd" />
    </mask>
  </defs>
  <g transform="matrix(1 0 0 1 -91 -1619 )">
    <path d="M 0 12  C 0 18.627416997969522  5.372583002030479 24  12 24  C 18.627416997969522 24  24 18.627416997969522  24 12  C 24 5.372583002030479  18.627416997969522 0  12 0  C 5.372583002030479 0  0 5.372583002030479  0 12  Z " fill-rule="nonzero" fill="rgba(254, 184, 51, 1)" stroke="none" transform="matrix(1 0 0 1 91 1619 )" class="fill" />
    <path d="M 0 12  C 0 18.627416997969522  5.372583002030479 24  12 24  C 18.627416997969522 24  24 18.627416997969522  24 12  C 24 5.372583002030479  18.627416997969522 0  12 0  C 5.372583002030479 0  0 5.372583002030479  0 12  Z " stroke-width="0" stroke-dasharray="0" stroke="rgba(255, 255, 255, 0)" fill="none" transform="matrix(1 0 0 1 91 1619 )" class="stroke" mask="url(#Clip2506)" />
  </g>
</svg>