<?xml version="1.0" encoding="utf-8"?>
<svg version="1.1" xmlns:xlink="http://www.w3.org/1999/xlink" width="5px" height="4px" xmlns="http://www.w3.org/2000/svg">
  <defs>
    <pattern id="BGPattern" patternUnits="userSpaceOnUse" alignment="0 0" imageRepeat="None" />
    <mask fill="white" id="Clip2493">
      <path d="M 4.796875 2.9414062499999982  C 4.796875 3.1734374999999986  4.607031249999999 3.3632812499999982  4.375 3.36328125  L 1 3.36328125  C 0.8289062499999993 3.36328125  0.6765624999999993 3.2601562500000014  0.6109374999999986 3.1031249999999986  C 0.5453124999999996 2.9460937499999993  0.5828124999999993 2.7632812499999986  0.7023437499999989 2.643749999999999  L 2.389843749999999 0.9562499999999989  C 2.4695312499999993 0.8765624999999995  2.577343749999999 0.8320312499999982  2.6875 0.8320312499999982  C 3.8500000000000014 0.8320312499999982  4.796875 1.7789062499999986  4.796875 2.9414062499999982  Z M 2.8539062500000014 1.6851562499999995  L 2.01953125 2.51953125  L 3.8828125 2.51953125  C 3.725781249999999 2.0789062499999993  3.33203125 1.7484375000000005  2.8539062500000014 1.6851562499999995  Z " fill-rule="evenodd" />
    </mask>
  </defs>
  <g transform="matrix(1 0 0 1 -102 -1348 )">
    <path d="M 4.796875 2.9414062499999982  C 4.796875 3.1734374999999986  4.607031249999999 3.3632812499999982  4.375 3.36328125  L 1 3.36328125  C 0.8289062499999993 3.36328125  0.6765624999999993 3.2601562500000014  0.6109374999999986 3.1031249999999986  C 0.5453124999999996 2.9460937499999993  0.5828124999999993 2.7632812499999986  0.7023437499999989 2.643749999999999  L 2.389843749999999 0.9562499999999989  C 2.4695312499999993 0.8765624999999995  2.577343749999999 0.8320312499999982  2.6875 0.8320312499999982  C 3.8500000000000014 0.8320312499999982  4.796875 1.7789062499999986  4.796875 2.9414062499999982  Z M 2.8539062500000014 1.6851562499999995  L 2.01953125 2.51953125  L 3.8828125 2.51953125  C 3.725781249999999 2.0789062499999993  3.33203125 1.7484375000000005  2.8539062500000014 1.6851562499999995  Z " fill-rule="nonzero" fill="rgba(255, 255, 255, 1)" stroke="none" transform="matrix(1 0 0 1 102 1348 )" class="fill" />
    <path d="M 4.796875 2.9414062499999982  C 4.796875 3.1734374999999986  4.607031249999999 3.3632812499999982  4.375 3.36328125  L 1 3.36328125  C 0.8289062499999993 3.36328125  0.6765624999999993 3.2601562500000014  0.6109374999999986 3.1031249999999986  C 0.5453124999999996 2.9460937499999993  0.5828124999999993 2.7632812499999986  0.7023437499999989 2.643749999999999  L 2.389843749999999 0.9562499999999989  C 2.4695312499999993 0.8765624999999995  2.577343749999999 0.8320312499999982  2.6875 0.8320312499999982  C 3.8500000000000014 0.8320312499999982  4.796875 1.7789062499999986  4.796875 2.9414062499999982  Z " stroke-width="0" stroke-dasharray="0" stroke="rgba(255, 255, 255, 0)" fill="none" transform="matrix(1 0 0 1 102 1348 )" class="stroke" mask="url(#Clip2493)" />
    <path d="M 2.8539062500000014 1.6851562499999995  L 2.01953125 2.51953125  L 3.8828125 2.51953125  C 3.725781249999999 2.0789062499999993  3.33203125 1.7484375000000005  2.8539062500000014 1.6851562499999995  Z " stroke-width="0" stroke-dasharray="0" stroke="rgba(255, 255, 255, 0)" fill="none" transform="matrix(1 0 0 1 102 1348 )" class="stroke" mask="url(#Clip2493)" />
  </g>
</svg>