<?xml version="1.0" encoding="utf-8"?>
<svg version="1.1" xmlns:xlink="http://www.w3.org/1999/xlink" width="24px" height="24px" xmlns="http://www.w3.org/2000/svg">
  <defs>
    <pattern id="BGPattern" patternUnits="userSpaceOnUse" alignment="0 0" imageRepeat="None" />
    <mask fill="white" id="Clip5690">
      <path d="M 2.745 2.745  C 4.9095 0.5820000000000001  9 0  12 0  C 15 0  19.0905 0.5820000000000001  21.255 2.745  C 23.418 4.9095  24 9  24 12  C 24 15  23.418 19.0905  21.255 21.255  C 19.0905 23.418  15 24  12 24  C 9 24  4.9094999999999995 23.418  2.745 21.255  C 0.5820000000000001 19.0905  0 15  0 12  C 0 9  0.5820000000000001 4.9094999999999995  2.745 2.745  Z " fill-rule="evenodd" />
    </mask>
  </defs>
  <g transform="matrix(1 0 0 1 -246 -1343 )">
    <path d="M 2.745 2.745  C 4.9095 0.5820000000000001  9 0  12 0  C 15 0  19.0905 0.5820000000000001  21.255 2.745  C 23.418 4.9095  24 9  24 12  C 24 15  23.418 19.0905  21.255 21.255  C 19.0905 23.418  15 24  12 24  C 9 24  4.9094999999999995 23.418  2.745 21.255  C 0.5820000000000001 19.0905  0 15  0 12  C 0 9  0.5820000000000001 4.9094999999999995  2.745 2.745  Z " fill-rule="nonzero" fill="rgba(255, 58, 82, 1)" stroke="none" transform="matrix(1 0 0 1 246 1343 )" class="fill" />
    <path d="M 2.745 2.745  C 4.9095 0.5820000000000001  9 0  12 0  C 15 0  19.0905 0.5820000000000001  21.255 2.745  C 23.418 4.9095  24 9  24 12  C 24 15  23.418 19.0905  21.255 21.255  C 19.0905 23.418  15 24  12 24  C 9 24  4.9094999999999995 23.418  2.745 21.255  C 0.5820000000000001 19.0905  0 15  0 12  C 0 9  0.5820000000000001 4.9094999999999995  2.745 2.745  Z " stroke-width="0" stroke-dasharray="0" stroke="rgba(255, 255, 255, 0)" fill="none" transform="matrix(1 0 0 1 246 1343 )" class="stroke" mask="url(#Clip5690)" />
  </g>
</svg>