<?xml version="1.0" encoding="utf-8"?>
<svg version="1.1" xmlns:xlink="http://www.w3.org/1999/xlink" width="20px" height="18px" xmlns="http://www.w3.org/2000/svg">
  <defs>
    <pattern id="BGPattern" patternUnits="userSpaceOnUse" alignment="0 0" imageRepeat="None" />
    <mask fill="white" id="Clip5700">
      <path d="M 1.0927236875000013 15.8138380078125  C 3.0459349062500003 17.191158210937502  5.428511726562499 18  8 18  C 14.627342914062499 18  20 12.627342914062499  20 6  C 20 5.255491289062499  19.9322331640625 4.5268614609375  19.8023315703125 3.8198697890624995  C 17.7513398984375 1.8773414062500002  14.9814383046875 0.6858440624999993  11.9333837890625 0.6858440624999993  C 5.612027234375001 0.6858440624999993  0.4875094531250008 5.8103436796875005  0.4875094531250008 12.1317183984375  C 0.4875094531250008 13.4198334609375  0.7004208828125016 14.658349734375001  1.0927236875000013 15.8138380078125  Z " fill-rule="evenodd" />
    </mask>
  </defs>
  <g transform="matrix(1 0 0 1 -95 -1625 )">
    <path d="M 1.0927236875000013 15.8138380078125  C 3.0459349062500003 17.191158210937502  5.428511726562499 18  8 18  C 14.627342914062499 18  20 12.627342914062499  20 6  C 20 5.255491289062499  19.9322331640625 4.5268614609375  19.8023315703125 3.8198697890624995  C 17.7513398984375 1.8773414062500002  14.9814383046875 0.6858440624999993  11.9333837890625 0.6858440624999993  C 5.612027234375001 0.6858440624999993  0.4875094531250008 5.8103436796875005  0.4875094531250008 12.1317183984375  C 0.4875094531250008 13.4198334609375  0.7004208828125016 14.658349734375001  1.0927236875000013 15.8138380078125  Z " fill-rule="nonzero" fill="rgba(255, 255, 255, 0.14901960784313725)" stroke="none" transform="matrix(1 0 0 1 95 1625 )" class="fill" />
    <path d="M 1.0927236875000013 15.8138380078125  C 3.0459349062500003 17.191158210937502  5.428511726562499 18  8 18  C 14.627342914062499 18  20 12.627342914062499  20 6  C 20 5.255491289062499  19.9322331640625 4.5268614609375  19.8023315703125 3.8198697890624995  C 17.7513398984375 1.8773414062500002  14.9814383046875 0.6858440624999993  11.9333837890625 0.6858440624999993  C 5.612027234375001 0.6858440624999993  0.4875094531250008 5.8103436796875005  0.4875094531250008 12.1317183984375  C 0.4875094531250008 13.4198334609375  0.7004208828125016 14.658349734375001  1.0927236875000013 15.8138380078125  Z " stroke-width="0" stroke-dasharray="0" stroke="rgba(255, 255, 255, 0)" fill="none" transform="matrix(1 0 0 1 95 1625 )" class="stroke" mask="url(#Clip5700)" />
  </g>
</svg>