<?xml version="1.0" encoding="utf-8"?>
<svg version="1.1" xmlns:xlink="http://www.w3.org/1999/xlink" width="20px" height="20px" xmlns="http://www.w3.org/2000/svg">
  <defs>
    <pattern id="BGPattern" patternUnits="userSpaceOnUse" alignment="0 0" imageRepeat="None" />
    <mask fill="white" id="Clip6879">
      <path d="M 1.9953124999999998 19.990625  L 19.990625 1.9953124999999998  C 19.03671875 1.0437500000000002  17.719531250000003 0.453125  16.2734375 0.453125  L 15.821093750000003 0.453125  L 0.453125 15.821093750000003  L 0.453125 16.2734375  C 0.453125 17.719531250000003  1.0437500000000002 19.03671875  1.9953124999999998 19.990625  Z " fill-rule="evenodd" />
    </mask>
  </defs>
  <g transform="matrix(1 0 0 1 -92 -1343 )">
    <path d="M 1.9953124999999998 19.990625  L 19.990625 1.9953124999999998  C 19.03671875 1.0437500000000002  17.719531250000003 0.453125  16.2734375 0.453125  L 15.821093750000003 0.453125  L 0.453125 15.821093750000003  L 0.453125 16.2734375  C 0.453125 17.719531250000003  1.0437500000000002 19.03671875  1.9953124999999998 19.990625  Z " fill-rule="nonzero" fill="rgba(255, 100, 92, 1)" stroke="none" transform="matrix(1 0 0 1 92 1343 )" class="fill" />
    <path d="M 1.9953124999999998 19.990625  L 19.990625 1.9953124999999998  C 19.03671875 1.0437500000000002  17.719531250000003 0.453125  16.2734375 0.453125  L 15.821093750000003 0.453125  L 0.453125 15.821093750000003  L 0.453125 16.2734375  C 0.453125 17.719531250000003  1.0437500000000002 19.03671875  1.9953124999999998 19.990625  Z " stroke-width="0" stroke-dasharray="0" stroke="rgba(255, 255, 255, 0)" fill="none" transform="matrix(1 0 0 1 92 1343 )" class="stroke" mask="url(#Clip6879)" />
  </g>
</svg>