<?xml version="1.0" encoding="utf-8"?>
<svg version="1.1" xmlns:xlink="http://www.w3.org/1999/xlink" width="40px" height="35px" xmlns="http://www.w3.org/2000/svg">
  <defs>
    <pattern id="BGPattern" patternUnits="userSpaceOnUse" alignment="0 0" imageRepeat="None" />
    <mask fill="white" id="Clip5741">
      <path d="M 26.805000000000003 0.9995833333333333  C 26.805000000000003 0.9995833333333333  26.821250000000006 3.362083333333333  29.4375 3.759583333333333  C 29.4375 3.759583333333333  29.16625 1.3995833333333336  26.805000000000003 0.9995833333333333  Z M 37.53625 9.718333333333332  C 37.53625 9.718333333333332  33.97 10.99333333333333  34.6925 14.622083333333332  C 34.6925 14.622083333333332  38.1275 13.014583333333333  37.53625 9.718333333333332  Z M 38.94 14.203333333333331  C 38.94 14.203333333333331  35.393750000000004 15.075833333333332  35.1425 18.488333333333333  L 35.53125 18.10083333333333  C 35.67616030938917 17.991510454002523  35.85350588541971 17.933862140205996  36.035 17.93708333333333  C 36.2575 17.93708333333333  36.472500000000004 18.03083333333333  36.69375 18.22208333333333  C 36.7475 18.269583333333333  36.798750000000005 18.32208333333333  36.85 18.378333333333327  C 37.91375 17.58208333333333  39.06125 16.24083333333333  38.94 14.203333333333331  Z M 34.41125 10.680833333333334  C 34.41125 10.680833333333334  36.5675 7.718333333333334  34.307500000000005 5.130833333333332  C 34.307500000000005 5.130833333333332  31.860000000000003 7.8620833333333335  34.41125 10.680833333333334  Z M 31.66375 6.543333333333332  C 31.66375 6.543333333333332  33.4325 4.1133333333333315  31.5775 1.9895833333333321  C 31.5775 1.9895833333333321  29.56875 4.230833333333332  31.66375 6.543333333333332  Z M 10.562500000000002 3.7595833333333326  C 12.006923213028708 3.6277489494810755  13.13157851153598 2.4486231664307154  13.195 0.9995833333333323  C 10.8325 1.3995833333333318  10.562500000000002 3.7595833333333326  10.562500000000002 3.7595833333333326  Z M 40 19.288333333333338  C 40 19.288333333333338  38.8025 19.079583333333336  37.442499999999995 19.478333333333328  C 37.4525 19.50833333333333  37.4625 19.535833333333326  37.47125 19.567083333333333  C 37.561249999999994 19.875833333333333  37.606249999999996 20.21958333333333  37.606249999999996 20.58958333333333  C 37.606249999999996 20.917083333333334  37.52125 21.255833333333335  37.35125 21.597083333333334  C 37.291250000000005 21.71708333333333  37.22624999999999 21.833333333333336  37.15375 21.94708333333333  C 38.239999999999995 21.524583333333336  39.36 20.742083333333333  40 19.288333333333338  Z M 31.244999999999997 32.87708333333333  C 31.244999999999997 32.87708333333333  27.319999999999997 29.995833333333337  23.69125 33.14583333333334  C 23.69125 33.14583333333334  27.903749999999995 35.66708333333333  31.244999999999997 32.87708333333333  Z M 16.305000000000003 32.87708333333333  C 16.305000000000003 32.87708333333333  12.379999999999999 29.995833333333337  8.75 33.14583333333334  C 8.75 33.14583333333334  12.962500000000002 35.66708333333333  16.305000000000003 32.87708333333333  Z M 31.026249999999997 30.61333333333333  L 31.02625 30.61208333333333  L 30.823750000000004 30.608333333333334  L 30.865000000000006 30.595833333333328  C 30.24028675552053 30.533496679199423  29.630745305368173 30.36525985731271  29.062500000000004 30.09833333333333  C 29.062500000000004 30.09833333333333  29.70125000000001 29.303333333333335  30.808750000000003 28.644583333333333  C 33.33375 27.034583333333334  36.24 28.164583333333333  36.24 28.164583333333333  C 34.98375000000001 29.94958333333333  33.167500000000004 30.493333333333332  31.675 30.59458333333333  L 31.669999999999995 30.61333333333333  C 31.485531396440333 30.62253707258602  31.300718603559655 30.62253707258602  31.116249999999997 30.61333333333333  L 31.026249999999997 30.61333333333333  Z M 5.0637500000000015 29.54333333333333  C 4.546103754755461 29.175215205564193  4.09576434194867 28.720647253670013  3.732500000000001 28.199583333333337  C 3.732500000000001 28.199583333333337  4.923750000000001 27.735833333333336  6.44625 27.824583333333333  C 7.005 27.84583333333333  7.52125 27.95583333333333  7.99125 28.114583333333332  C 8.20875 28.187083333333334  8.42625 28.27458333333333  8.64375 28.380833333333335  C 10.09 29.065833333333334  10.943750000000001 30.129583333333336  10.943750000000001 30.129583333333336  C 8.948750000000002 31.054583333333337  7.090000000000001 30.603333333333335  5.745000000000001 29.935833333333335  L 5.732500000000002 29.948333333333334  C 5.5618158546303365 29.861150569302286  5.395760234126596 29.765188778558915  5.235000000000002 29.660833333333336  C 5.166460483981683 29.62061766772803  5.098535977353334 29.579362906033513  5.031250000000002 29.537083333333335  L 5.0637500000000015 29.54333333333333  Z M 38.212500000000006 23.568333333333342  C 38.212500000000006 23.568333333333342  36.96875 23.352083333333344  35.5025 23.72458333333333  C 34.93922372980393 24.20090831901589  34.33571438686543 24.62750535976243  33.69875 24.999583333333337  L 33.70125 25.03708333333334  C 33.71125 25.170833333333338  33.71625 25.299583333333334  33.71625 25.419583333333335  C 33.71625 25.750833333333343  33.684999999999995 26.03083333333334  33.62 26.274583333333336  C 33.56163258965101 26.509408548615454  33.46126658082246 26.731738315007817  33.323750000000004 26.93083333333334  C 33.28625 26.980833333333337  33.2475 27.030833333333337  33.205000000000005 27.07708333333334  C 34.7925 26.839583333333337  37.11625 26.058333333333337  38.212500000000006 23.568333333333342  Z M 6.441249999999999 27.015833333333337  C 6.3125 26.890833333333333  6.191249999999999 26.760833333333334  6.07375 26.625833333333333  C 5.897390442366146 26.422016052564874  5.73612942590063 26.205608781764003  5.59125 25.978333333333335  C 5.449461255849448 25.756141451954758  5.330123861615626 25.52039775738057  5.234999999999999 25.274583333333336  C 5.137150788134015 25.02989744119917  5.085037609098386 24.76933154602102  5.081249999999999 24.505833333333335  C 5.081249999999999 24.32958333333334  5.11375 24.139583333333334  5.172499999999999 23.93583333333334  C 3.4349999999999996 23.280833333333337  1.7874999999999996 23.568333333333335  1.7874999999999996 23.568333333333335  C 2.8049999999999997 25.879583333333336  4.8774999999999995 26.718333333333337  6.441249999999999 27.015833333333337  Z M 8.4225 1.9895833333333328  L 8.4225 1.9883333333333326  C 6.567499999999999 4.113333333333333  8.33625 6.543333333333333  8.33625 6.543333333333333  C 10.431249999999999 4.230833333333333  8.4225 1.9895833333333328  8.4225 1.9895833333333328  Z M 5.786249999999999 22.418333333333333  C 5.786249999999999 22.418333333333333  1.5274999999999994 22.755833333333335  0 19.289583333333336  C 0 19.289583333333336  4.171250000000001 18.559583333333336  5.786249999999999 22.418333333333333  Z M 1.06 14.202083333333334  L 1.06 14.203333333333337  C 1.06 14.203333333333337  5.18 15.215833333333336  4.856249999999999 19.328333333333333  L 4.81625 19.313333333333333  C 4.397499999999999 19.154583333333335  0.8500000000000001 17.710833333333333  1.06 14.202083333333334  Z M 5.307500000000001 14.623333333333335  C 5.307500000000001 14.623333333333335  1.8725000000000003 13.015833333333337  2.46375 9.719583333333336  C 2.46375 9.719583333333336  6.029999999999999 10.994583333333336  5.307500000000001 14.623333333333335  Z M 5.58875 10.682083333333335  C 5.58875 10.682083333333335  3.4325 7.719583333333335  5.692500000000001 5.132083333333337  C 5.692500000000001 5.132083333333337  8.14 7.863333333333336  5.58875 10.682083333333335  Z M 29 21.648333333333337  L 29 23.945833333333333  C 29 24.258333333333333  28.852500000000006 24.41333333333333  28.55625 24.41333333333333  L 22.2275 24.41333333333333  L 22.2275 27.17833333333333  C 22.2275 27.50333333333333  22.065 27.66583333333333  21.74375 27.66583333333333  L 19.20375 27.66583333333333  C 18.881249999999998 27.66583333333333  18.72 27.50333333333333  18.72 27.17833333333333  L 18.72 24.41333333333333  L 11.44375 24.41333333333333  C 11.147499999999999 24.41333333333333  10.999999999999998 24.25708333333333  10.999999999999998 23.945833333333333  L 10.999999999999998 21.648333333333326  C 10.999999999999998 21.33583333333333  11.147499999999999 21.17958333333333  11.44375 21.17958333333333  L 12.531249999999998 21.17958333333333  L 12.531249999999998 16.320833333333333  C 12.531249999999998 15.995833333333334  12.68625 15.833333333333334  12.995 15.833333333333334  L 18.72 15.812083333333334  L 18.72 13.962083333333334  L 12.007499999999997 13.962083333333334  C 11.712499999999997 13.962083333333334  11.564999999999998 13.845833333333335  11.564999999999998 13.615833333333335  L 11.604999999999999 13.433333333333334  C 11.792499999999999 12.823333333333334  11.971249999999998 12.189583333333333  12.138749999999998 11.532083333333336  C 12.306249999999999 10.874583333333335  12.484999999999998 10.172083333333333  12.672499999999998 9.427083333333337  C 12.726249999999997 9.142083333333336  12.8875 8.999583333333334  13.156249999999998 8.999583333333334  L 15.938749999999997 8.999583333333334  C 16.288749999999997 8.999583333333334  16.428749999999994 9.175833333333335  16.361249999999995 9.528333333333334  C 16.321249999999996 9.690833333333336  16.27125 9.874583333333335  16.21125 10.078333333333333  C 16.149999999999995 10.280833333333335  16.086249999999996 10.504583333333333  16.018749999999997 11  L 28.093749999999996 11  C 28.415 10.748333333333333  28.57625 10.904583333333333  28.57625 11.215833333333334  L 28.57625 13.493333333333334  C 28.57625 13.805833333333332  28.414999999999996 13.962083333333334  28.0925 13.962083333333334  L 22.227499999999996 13.962083333333334  L 22.227499999999996 15.792083333333334  L 27.58999999999999 15.770833333333334  C 27.884999999999994 15.770833333333334  28.0325 15.927083333333334  28.0325 16.238333333333337  L 28.0325 18.515833333333333  C 28.0325 18.828333333333333  27.884999999999994 18.984583333333333  27.588749999999994 18.984583333333333  L 22.226249999999993 18.984583333333333  L 22.226249999999993 21.179583333333333  L 28.556249999999995 21.179583333333333  C 28.852499999999992 21.179583333333333  29 21.335833333333333  29 21.648333333333337  Z M 18.72 18.984583333333333  L 18.72 18.983333333333334  L 16.019999999999996 18.983333333333334  L 16.019999999999996 21.179583333333333  L 18.72 21.179583333333333  L 18.72 18.984583333333333  Z " fill-rule="evenodd" />
    </mask>
  </defs>
  <g transform="matrix(1 0 0 1 -160 -922 )">
    <path d="M 26.805000000000003 0.9995833333333333  C 26.805000000000003 0.9995833333333333  26.821250000000006 3.362083333333333  29.4375 3.759583333333333  C 29.4375 3.759583333333333  29.16625 1.3995833333333336  26.805000000000003 0.9995833333333333  Z M 37.53625 9.718333333333332  C 37.53625 9.718333333333332  33.97 10.99333333333333  34.6925 14.622083333333332  C 34.6925 14.622083333333332  38.1275 13.014583333333333  37.53625 9.718333333333332  Z M 38.94 14.203333333333331  C 38.94 14.203333333333331  35.393750000000004 15.075833333333332  35.1425 18.488333333333333  L 35.53125 18.10083333333333  C 35.67616030938917 17.991510454002523  35.85350588541971 17.933862140205996  36.035 17.93708333333333  C 36.2575 17.93708333333333  36.472500000000004 18.03083333333333  36.69375 18.22208333333333  C 36.7475 18.269583333333333  36.798750000000005 18.32208333333333  36.85 18.378333333333327  C 37.91375 17.58208333333333  39.06125 16.24083333333333  38.94 14.203333333333331  Z M 34.41125 10.680833333333334  C 34.41125 10.680833333333334  36.5675 7.718333333333334  34.307500000000005 5.130833333333332  C 34.307500000000005 5.130833333333332  31.860000000000003 7.8620833333333335  34.41125 10.680833333333334  Z M 31.66375 6.543333333333332  C 31.66375 6.543333333333332  33.4325 4.1133333333333315  31.5775 1.9895833333333321  C 31.5775 1.9895833333333321  29.56875 4.230833333333332  31.66375 6.543333333333332  Z M 10.562500000000002 3.7595833333333326  C 12.006923213028708 3.6277489494810755  13.13157851153598 2.4486231664307154  13.195 0.9995833333333323  C 10.8325 1.3995833333333318  10.562500000000002 3.7595833333333326  10.562500000000002 3.7595833333333326  Z M 40 19.288333333333338  C 40 19.288333333333338  38.8025 19.079583333333336  37.442499999999995 19.478333333333328  C 37.4525 19.50833333333333  37.4625 19.535833333333326  37.47125 19.567083333333333  C 37.561249999999994 19.875833333333333  37.606249999999996 20.21958333333333  37.606249999999996 20.58958333333333  C 37.606249999999996 20.917083333333334  37.52125 21.255833333333335  37.35125 21.597083333333334  C 37.291250000000005 21.71708333333333  37.22624999999999 21.833333333333336  37.15375 21.94708333333333  C 38.239999999999995 21.524583333333336  39.36 20.742083333333333  40 19.288333333333338  Z M 31.244999999999997 32.87708333333333  C 31.244999999999997 32.87708333333333  27.319999999999997 29.995833333333337  23.69125 33.14583333333334  C 23.69125 33.14583333333334  27.903749999999995 35.66708333333333  31.244999999999997 32.87708333333333  Z M 16.305000000000003 32.87708333333333  C 16.305000000000003 32.87708333333333  12.379999999999999 29.995833333333337  8.75 33.14583333333334  C 8.75 33.14583333333334  12.962500000000002 35.66708333333333  16.305000000000003 32.87708333333333  Z M 31.026249999999997 30.61333333333333  L 31.02625 30.61208333333333  L 30.823750000000004 30.608333333333334  L 30.865000000000006 30.595833333333328  C 30.24028675552053 30.533496679199423  29.630745305368173 30.36525985731271  29.062500000000004 30.09833333333333  C 29.062500000000004 30.09833333333333  29.70125000000001 29.303333333333335  30.808750000000003 28.644583333333333  C 33.33375 27.034583333333334  36.24 28.164583333333333  36.24 28.164583333333333  C 34.98375000000001 29.94958333333333  33.167500000000004 30.493333333333332  31.675 30.59458333333333  L 31.669999999999995 30.61333333333333  C 31.485531396440333 30.62253707258602  31.300718603559655 30.62253707258602  31.116249999999997 30.61333333333333  L 31.026249999999997 30.61333333333333  Z M 5.0637500000000015 29.54333333333333  C 4.546103754755461 29.175215205564193  4.09576434194867 28.720647253670013  3.732500000000001 28.199583333333337  C 3.732500000000001 28.199583333333337  4.923750000000001 27.735833333333336  6.44625 27.824583333333333  C 7.005 27.84583333333333  7.52125 27.95583333333333  7.99125 28.114583333333332  C 8.20875 28.187083333333334  8.42625 28.27458333333333  8.64375 28.380833333333335  C 10.09 29.065833333333334  10.943750000000001 30.129583333333336  10.943750000000001 30.129583333333336  C 8.948750000000002 31.054583333333337  7.090000000000001 30.603333333333335  5.745000000000001 29.935833333333335  L 5.732500000000002 29.948333333333334  C 5.5618158546303365 29.861150569302286  5.395760234126596 29.765188778558915  5.235000000000002 29.660833333333336  C 5.166460483981683 29.62061766772803  5.098535977353334 29.579362906033513  5.031250000000002 29.537083333333335  L 5.0637500000000015 29.54333333333333  Z M 38.212500000000006 23.568333333333342  C 38.212500000000006 23.568333333333342  36.96875 23.352083333333344  35.5025 23.72458333333333  C 34.93922372980393 24.20090831901589  34.33571438686543 24.62750535976243  33.69875 24.999583333333337  L 33.70125 25.03708333333334  C 33.71125 25.170833333333338  33.71625 25.299583333333334  33.71625 25.419583333333335  C 33.71625 25.750833333333343  33.684999999999995 26.03083333333334  33.62 26.274583333333336  C 33.56163258965101 26.509408548615454  33.46126658082246 26.731738315007817  33.323750000000004 26.93083333333334  C 33.28625 26.980833333333337  33.2475 27.030833333333337  33.205000000000005 27.07708333333334  C 34.7925 26.839583333333337  37.11625 26.058333333333337  38.212500000000006 23.568333333333342  Z M 6.441249999999999 27.015833333333337  C 6.3125 26.890833333333333  6.191249999999999 26.760833333333334  6.07375 26.625833333333333  C 5.897390442366146 26.422016052564874  5.73612942590063 26.205608781764003  5.59125 25.978333333333335  C 5.449461255849448 25.756141451954758  5.330123861615626 25.52039775738057  5.234999999999999 25.274583333333336  C 5.137150788134015 25.02989744119917  5.085037609098386 24.76933154602102  5.081249999999999 24.505833333333335  C 5.081249999999999 24.32958333333334  5.11375 24.139583333333334  5.172499999999999 23.93583333333334  C 3.4349999999999996 23.280833333333337  1.7874999999999996 23.568333333333335  1.7874999999999996 23.568333333333335  C 2.8049999999999997 25.879583333333336  4.8774999999999995 26.718333333333337  6.441249999999999 27.015833333333337  Z M 8.4225 1.9895833333333328  L 8.4225 1.9883333333333326  C 6.567499999999999 4.113333333333333  8.33625 6.543333333333333  8.33625 6.543333333333333  C 10.431249999999999 4.230833333333333  8.4225 1.9895833333333328  8.4225 1.9895833333333328  Z M 5.786249999999999 22.418333333333333  C 5.786249999999999 22.418333333333333  1.5274999999999994 22.755833333333335  0 19.289583333333336  C 0 19.289583333333336  4.171250000000001 18.559583333333336  5.786249999999999 22.418333333333333  Z M 1.06 14.202083333333334  L 1.06 14.203333333333337  C 1.06 14.203333333333337  5.18 15.215833333333336  4.856249999999999 19.328333333333333  L 4.81625 19.313333333333333  C 4.397499999999999 19.154583333333335  0.8500000000000001 17.710833333333333  1.06 14.202083333333334  Z M 5.307500000000001 14.623333333333335  C 5.307500000000001 14.623333333333335  1.8725000000000003 13.015833333333337  2.46375 9.719583333333336  C 2.46375 9.719583333333336  6.029999999999999 10.994583333333336  5.307500000000001 14.623333333333335  Z M 5.58875 10.682083333333335  C 5.58875 10.682083333333335  3.4325 7.719583333333335  5.692500000000001 5.132083333333337  C 5.692500000000001 5.132083333333337  8.14 7.863333333333336  5.58875 10.682083333333335  Z M 29 21.648333333333337  L 29 23.945833333333333  C 29 24.258333333333333  28.852500000000006 24.41333333333333  28.55625 24.41333333333333  L 22.2275 24.41333333333333  L 22.2275 27.17833333333333  C 22.2275 27.50333333333333  22.065 27.66583333333333  21.74375 27.66583333333333  L 19.20375 27.66583333333333  C 18.881249999999998 27.66583333333333  18.72 27.50333333333333  18.72 27.17833333333333  L 18.72 24.41333333333333  L 11.44375 24.41333333333333  C 11.147499999999999 24.41333333333333  10.999999999999998 24.25708333333333  10.999999999999998 23.945833333333333  L 10.999999999999998 21.648333333333326  C 10.999999999999998 21.33583333333333  11.147499999999999 21.17958333333333  11.44375 21.17958333333333  L 12.531249999999998 21.17958333333333  L 12.531249999999998 16.320833333333333  C 12.531249999999998 15.995833333333334  12.68625 15.833333333333334  12.995 15.833333333333334  L 18.72 15.812083333333334  L 18.72 13.962083333333334  L 12.007499999999997 13.962083333333334  C 11.712499999999997 13.962083333333334  11.564999999999998 13.845833333333335  11.564999999999998 13.615833333333335  L 11.604999999999999 13.433333333333334  C 11.792499999999999 12.823333333333334  11.971249999999998 12.189583333333333  12.138749999999998 11.532083333333336  C 12.306249999999999 10.874583333333335  12.484999999999998 10.172083333333333  12.672499999999998 9.427083333333337  C 12.726249999999997 9.142083333333336  12.8875 8.999583333333334  13.156249999999998 8.999583333333334  L 15.938749999999997 8.999583333333334  C 16.288749999999997 8.999583333333334  16.428749999999994 9.175833333333335  16.361249999999995 9.528333333333334  C 16.321249999999996 9.690833333333336  16.27125 9.874583333333335  16.21125 10.078333333333333  C 16.149999999999995 10.280833333333335  16.086249999999996 10.504583333333333  16.018749999999997 11  L 28.093749999999996 11  C 28.415 10.748333333333333  28.57625 10.904583333333333  28.57625 11.215833333333334  L 28.57625 13.493333333333334  C 28.57625 13.805833333333332  28.414999999999996 13.962083333333334  28.0925 13.962083333333334  L 22.227499999999996 13.962083333333334  L 22.227499999999996 15.792083333333334  L 27.58999999999999 15.770833333333334  C 27.884999999999994 15.770833333333334  28.0325 15.927083333333334  28.0325 16.238333333333337  L 28.0325 18.515833333333333  C 28.0325 18.828333333333333  27.884999999999994 18.984583333333333  27.588749999999994 18.984583333333333  L 22.226249999999993 18.984583333333333  L 22.226249999999993 21.179583333333333  L 28.556249999999995 21.179583333333333  C 28.852499999999992 21.179583333333333  29 21.335833333333333  29 21.648333333333337  Z M 18.72 18.984583333333333  L 18.72 18.983333333333334  L 16.019999999999996 18.983333333333334  L 16.019999999999996 21.179583333333333  L 18.72 21.179583333333333  L 18.72 18.984583333333333  Z " fill-rule="nonzero" fill="rgba(230, 69, 67, 1)" stroke="none" transform="matrix(1 0 0 1 160 922 )" class="fill" />
    <path d="M 26.805000000000003 0.9995833333333333  C 26.805000000000003 0.9995833333333333  26.821250000000006 3.362083333333333  29.4375 3.759583333333333  C 29.4375 3.759583333333333  29.16625 1.3995833333333336  26.805000000000003 0.9995833333333333  Z " stroke-width="0" stroke-dasharray="0" stroke="rgba(255, 255, 255, 0)" fill="none" transform="matrix(1 0 0 1 160 922 )" class="stroke" mask="url(#Clip5741)" />
    <path d="M 37.53625 9.718333333333332  C 37.53625 9.718333333333332  33.97 10.99333333333333  34.6925 14.622083333333332  C 34.6925 14.622083333333332  38.1275 13.014583333333333  37.53625 9.718333333333332  Z " stroke-width="0" stroke-dasharray="0" stroke="rgba(255, 255, 255, 0)" fill="none" transform="matrix(1 0 0 1 160 922 )" class="stroke" mask="url(#Clip5741)" />
    <path d="M 38.94 14.203333333333331  C 38.94 14.203333333333331  35.393750000000004 15.075833333333332  35.1425 18.488333333333333  L 35.53125 18.10083333333333  C 35.67616030938917 17.991510454002523  35.85350588541971 17.933862140205996  36.035 17.93708333333333  C 36.2575 17.93708333333333  36.472500000000004 18.03083333333333  36.69375 18.22208333333333  C 36.7475 18.269583333333333  36.798750000000005 18.32208333333333  36.85 18.378333333333327  C 37.91375 17.58208333333333  39.06125 16.24083333333333  38.94 14.203333333333331  Z " stroke-width="0" stroke-dasharray="0" stroke="rgba(255, 255, 255, 0)" fill="none" transform="matrix(1 0 0 1 160 922 )" class="stroke" mask="url(#Clip5741)" />
    <path d="M 34.41125 10.680833333333334  C 34.41125 10.680833333333334  36.5675 7.718333333333334  34.307500000000005 5.130833333333332  C 34.307500000000005 5.130833333333332  31.860000000000003 7.8620833333333335  34.41125 10.680833333333334  Z " stroke-width="0" stroke-dasharray="0" stroke="rgba(255, 255, 255, 0)" fill="none" transform="matrix(1 0 0 1 160 922 )" class="stroke" mask="url(#Clip5741)" />
    <path d="M 31.66375 6.543333333333332  C 31.66375 6.543333333333332  33.4325 4.1133333333333315  31.5775 1.9895833333333321  C 31.5775 1.9895833333333321  29.56875 4.230833333333332  31.66375 6.543333333333332  Z " stroke-width="0" stroke-dasharray="0" stroke="rgba(255, 255, 255, 0)" fill="none" transform="matrix(1 0 0 1 160 922 )" class="stroke" mask="url(#Clip5741)" />
    <path d="M 10.562500000000002 3.7595833333333326  C 12.006923213028708 3.6277489494810755  13.13157851153598 2.4486231664307154  13.195 0.9995833333333323  C 10.8325 1.3995833333333318  10.562500000000002 3.7595833333333326  10.562500000000002 3.7595833333333326  Z " stroke-width="0" stroke-dasharray="0" stroke="rgba(255, 255, 255, 0)" fill="none" transform="matrix(1 0 0 1 160 922 )" class="stroke" mask="url(#Clip5741)" />
    <path d="M 40 19.288333333333338  C 40 19.288333333333338  38.8025 19.079583333333336  37.442499999999995 19.478333333333328  C 37.4525 19.50833333333333  37.4625 19.535833333333326  37.47125 19.567083333333333  C 37.561249999999994 19.875833333333333  37.606249999999996 20.21958333333333  37.606249999999996 20.58958333333333  C 37.606249999999996 20.917083333333334  37.52125 21.255833333333335  37.35125 21.597083333333334  C 37.291250000000005 21.71708333333333  37.22624999999999 21.833333333333336  37.15375 21.94708333333333  C 38.239999999999995 21.524583333333336  39.36 20.742083333333333  40 19.288333333333338  Z " stroke-width="0" stroke-dasharray="0" stroke="rgba(255, 255, 255, 0)" fill="none" transform="matrix(1 0 0 1 160 922 )" class="stroke" mask="url(#Clip5741)" />
    <path d="M 31.244999999999997 32.87708333333333  C 31.244999999999997 32.87708333333333  27.319999999999997 29.995833333333337  23.69125 33.14583333333334  C 23.69125 33.14583333333334  27.903749999999995 35.66708333333333  31.244999999999997 32.87708333333333  Z " stroke-width="0" stroke-dasharray="0" stroke="rgba(255, 255, 255, 0)" fill="none" transform="matrix(1 0 0 1 160 922 )" class="stroke" mask="url(#Clip5741)" />
    <path d="M 16.305000000000003 32.87708333333333  C 16.305000000000003 32.87708333333333  12.379999999999999 29.995833333333337  8.75 33.14583333333334  C 8.75 33.14583333333334  12.962500000000002 35.66708333333333  16.305000000000003 32.87708333333333  Z " stroke-width="0" stroke-dasharray="0" stroke="rgba(255, 255, 255, 0)" fill="none" transform="matrix(1 0 0 1 160 922 )" class="stroke" mask="url(#Clip5741)" />
    <path d="M 31.026249999999997 30.61333333333333  L 31.02625 30.61208333333333  L 30.823750000000004 30.608333333333334  L 30.865000000000006 30.595833333333328  C 30.24028675552053 30.533496679199423  29.630745305368173 30.36525985731271  29.062500000000004 30.09833333333333  C 29.062500000000004 30.09833333333333  29.70125000000001 29.303333333333335  30.808750000000003 28.644583333333333  C 33.33375 27.034583333333334  36.24 28.164583333333333  36.24 28.164583333333333  C 34.98375000000001 29.94958333333333  33.167500000000004 30.493333333333332  31.675 30.59458333333333  L 31.669999999999995 30.61333333333333  C 31.485531396440333 30.62253707258602  31.300718603559655 30.62253707258602  31.116249999999997 30.61333333333333  L 31.026249999999997 30.61333333333333  Z " stroke-width="0" stroke-dasharray="0" stroke="rgba(255, 255, 255, 0)" fill="none" transform="matrix(1 0 0 1 160 922 )" class="stroke" mask="url(#Clip5741)" />
    <path d="M 5.0637500000000015 29.54333333333333  C 4.546103754755461 29.175215205564193  4.09576434194867 28.720647253670013  3.732500000000001 28.199583333333337  C 3.732500000000001 28.199583333333337  4.923750000000001 27.735833333333336  6.44625 27.824583333333333  C 7.005 27.84583333333333  7.52125 27.95583333333333  7.99125 28.114583333333332  C 8.20875 28.187083333333334  8.42625 28.27458333333333  8.64375 28.380833333333335  C 10.09 29.065833333333334  10.943750000000001 30.129583333333336  10.943750000000001 30.129583333333336  C 8.948750000000002 31.054583333333337  7.090000000000001 30.603333333333335  5.745000000000001 29.935833333333335  L 5.732500000000002 29.948333333333334  C 5.5618158546303365 29.861150569302286  5.395760234126596 29.765188778558915  5.235000000000002 29.660833333333336  C 5.166460483981683 29.62061766772803  5.098535977353334 29.579362906033513  5.031250000000002 29.537083333333335  L 5.0637500000000015 29.54333333333333  Z " stroke-width="0" stroke-dasharray="0" stroke="rgba(255, 255, 255, 0)" fill="none" transform="matrix(1 0 0 1 160 922 )" class="stroke" mask="url(#Clip5741)" />
    <path d="M 38.212500000000006 23.568333333333342  C 38.212500000000006 23.568333333333342  36.96875 23.352083333333344  35.5025 23.72458333333333  C 34.93922372980393 24.20090831901589  34.33571438686543 24.62750535976243  33.69875 24.999583333333337  L 33.70125 25.03708333333334  C 33.71125 25.170833333333338  33.71625 25.299583333333334  33.71625 25.419583333333335  C 33.71625 25.750833333333343  33.684999999999995 26.03083333333334  33.62 26.274583333333336  C 33.56163258965101 26.509408548615454  33.46126658082246 26.731738315007817  33.323750000000004 26.93083333333334  C 33.28625 26.980833333333337  33.2475 27.030833333333337  33.205000000000005 27.07708333333334  C 34.7925 26.839583333333337  37.11625 26.058333333333337  38.212500000000006 23.568333333333342  Z " stroke-width="0" stroke-dasharray="0" stroke="rgba(255, 255, 255, 0)" fill="none" transform="matrix(1 0 0 1 160 922 )" class="stroke" mask="url(#Clip5741)" />
    <path d="M 6.441249999999999 27.015833333333337  C 6.3125 26.890833333333333  6.191249999999999 26.760833333333334  6.07375 26.625833333333333  C 5.897390442366146 26.422016052564874  5.73612942590063 26.205608781764003  5.59125 25.978333333333335  C 5.449461255849448 25.756141451954758  5.330123861615626 25.52039775738057  5.234999999999999 25.274583333333336  C 5.137150788134015 25.02989744119917  5.085037609098386 24.76933154602102  5.081249999999999 24.505833333333335  C 5.081249999999999 24.32958333333334  5.11375 24.139583333333334  5.172499999999999 23.93583333333334  C 3.4349999999999996 23.280833333333337  1.7874999999999996 23.568333333333335  1.7874999999999996 23.568333333333335  C 2.8049999999999997 25.879583333333336  4.8774999999999995 26.718333333333337  6.441249999999999 27.015833333333337  Z " stroke-width="0" stroke-dasharray="0" stroke="rgba(255, 255, 255, 0)" fill="none" transform="matrix(1 0 0 1 160 922 )" class="stroke" mask="url(#Clip5741)" />
    <path d="M 8.4225 1.9895833333333328  L 8.4225 1.9883333333333326  C 6.567499999999999 4.113333333333333  8.33625 6.543333333333333  8.33625 6.543333333333333  C 10.431249999999999 4.230833333333333  8.4225 1.9895833333333328  8.4225 1.9895833333333328  Z " stroke-width="0" stroke-dasharray="0" stroke="rgba(255, 255, 255, 0)" fill="none" transform="matrix(1 0 0 1 160 922 )" class="stroke" mask="url(#Clip5741)" />
    <path d="M 5.786249999999999 22.418333333333333  C 5.786249999999999 22.418333333333333  1.5274999999999994 22.755833333333335  0 19.289583333333336  C 0 19.289583333333336  4.171250000000001 18.559583333333336  5.786249999999999 22.418333333333333  Z " stroke-width="0" stroke-dasharray="0" stroke="rgba(255, 255, 255, 0)" fill="none" transform="matrix(1 0 0 1 160 922 )" class="stroke" mask="url(#Clip5741)" />
    <path d="M 1.06 14.202083333333334  L 1.06 14.203333333333337  C 1.06 14.203333333333337  5.18 15.215833333333336  4.856249999999999 19.328333333333333  L 4.81625 19.313333333333333  C 4.397499999999999 19.154583333333335  0.8500000000000001 17.710833333333333  1.06 14.202083333333334  Z " stroke-width="0" stroke-dasharray="0" stroke="rgba(255, 255, 255, 0)" fill="none" transform="matrix(1 0 0 1 160 922 )" class="stroke" mask="url(#Clip5741)" />
    <path d="M 5.307500000000001 14.623333333333335  C 5.307500000000001 14.623333333333335  1.8725000000000003 13.015833333333337  2.46375 9.719583333333336  C 2.46375 9.719583333333336  6.029999999999999 10.994583333333336  5.307500000000001 14.623333333333335  Z " stroke-width="0" stroke-dasharray="0" stroke="rgba(255, 255, 255, 0)" fill="none" transform="matrix(1 0 0 1 160 922 )" class="stroke" mask="url(#Clip5741)" />
    <path d="M 5.58875 10.682083333333335  C 5.58875 10.682083333333335  3.4325 7.719583333333335  5.692500000000001 5.132083333333337  C 5.692500000000001 5.132083333333337  8.14 7.863333333333336  5.58875 10.682083333333335  Z " stroke-width="0" stroke-dasharray="0" stroke="rgba(255, 255, 255, 0)" fill="none" transform="matrix(1 0 0 1 160 922 )" class="stroke" mask="url(#Clip5741)" />
    <path d="M 29 21.648333333333337  L 29 23.945833333333333  C 29 24.258333333333333  28.852500000000006 24.41333333333333  28.55625 24.41333333333333  L 22.2275 24.41333333333333  L 22.2275 27.17833333333333  C 22.2275 27.50333333333333  22.065 27.66583333333333  21.74375 27.66583333333333  L 19.20375 27.66583333333333  C 18.881249999999998 27.66583333333333  18.72 27.50333333333333  18.72 27.17833333333333  L 18.72 24.41333333333333  L 11.44375 24.41333333333333  C 11.147499999999999 24.41333333333333  10.999999999999998 24.25708333333333  10.999999999999998 23.945833333333333  L 10.999999999999998 21.648333333333326  C 10.999999999999998 21.33583333333333  11.147499999999999 21.17958333333333  11.44375 21.17958333333333  L 12.531249999999998 21.17958333333333  L 12.531249999999998 16.320833333333333  C 12.531249999999998 15.995833333333334  12.68625 15.833333333333334  12.995 15.833333333333334  L 18.72 15.812083333333334  L 18.72 13.962083333333334  L 12.007499999999997 13.962083333333334  C 11.712499999999997 13.962083333333334  11.564999999999998 13.845833333333335  11.564999999999998 13.615833333333335  L 11.604999999999999 13.433333333333334  C 11.792499999999999 12.823333333333334  11.971249999999998 12.189583333333333  12.138749999999998 11.532083333333336  C 12.306249999999999 10.874583333333335  12.484999999999998 10.172083333333333  12.672499999999998 9.427083333333337  C 12.726249999999997 9.142083333333336  12.8875 8.999583333333334  13.156249999999998 8.999583333333334  L 15.938749999999997 8.999583333333334  C 16.288749999999997 8.999583333333334  16.428749999999994 9.175833333333335  16.361249999999995 9.528333333333334  C 16.321249999999996 9.690833333333336  16.27125 9.874583333333335  16.21125 10.078333333333333  C 16.149999999999995 10.280833333333335  16.086249999999996 10.504583333333333  16.018749999999997 11  L 28.093749999999996 11  C 28.415 10.748333333333333  28.57625 10.904583333333333  28.57625 11.215833333333334  L 28.57625 13.493333333333334  C 28.57625 13.805833333333332  28.414999999999996 13.962083333333334  28.0925 13.962083333333334  L 22.227499999999996 13.962083333333334  L 22.227499999999996 15.792083333333334  L 27.58999999999999 15.770833333333334  C 27.884999999999994 15.770833333333334  28.0325 15.927083333333334  28.0325 16.238333333333337  L 28.0325 18.515833333333333  C 28.0325 18.828333333333333  27.884999999999994 18.984583333333333  27.588749999999994 18.984583333333333  L 22.226249999999993 18.984583333333333  L 22.226249999999993 21.179583333333333  L 28.556249999999995 21.179583333333333  C 28.852499999999992 21.179583333333333  29 21.335833333333333  29 21.648333333333337  Z " stroke-width="0" stroke-dasharray="0" stroke="rgba(255, 255, 255, 0)" fill="none" transform="matrix(1 0 0 1 160 922 )" class="stroke" mask="url(#Clip5741)" />
    <path d="M 18.72 18.984583333333333  L 18.72 18.983333333333334  L 16.019999999999996 18.983333333333334  L 16.019999999999996 21.179583333333333  L 18.72 21.179583333333333  L 18.72 18.984583333333333  Z " stroke-width="0" stroke-dasharray="0" stroke="rgba(255, 255, 255, 0)" fill="none" transform="matrix(1 0 0 1 160 922 )" class="stroke" mask="url(#Clip5741)" />
  </g>
</svg>