<?xml version="1.0" encoding="utf-8"?>
<svg version="1.1" xmlns:xlink="http://www.w3.org/1999/xlink" width="16px" height="16px" xmlns="http://www.w3.org/2000/svg">
  <defs>
    <pattern id="BGPattern" patternUnits="userSpaceOnUse" alignment="0 0" imageRepeat="None" />
    <mask fill="white" id="Clip13154">
      <path d="M 0.8055555555555556 15.788888888888891  L 15.788888888888891 0.8055555555555556  L 10.180555555555555 0.8055555555555556  C 5.0263888888888895 0.8055555555555556  0.8055555555555556 5.0263888888888895  0.8055555555555556 10.180555555555555  L 0.8055555555555556 15.788888888888891  Z " fill-rule="evenodd" />
    </mask>
  </defs>
  <g transform="matrix(1 0 0 1 -160 -1240 )">
    <path d="M 0.8055555555555556 15.788888888888891  L 15.788888888888891 0.8055555555555556  L 10.180555555555555 0.8055555555555556  C 5.0263888888888895 0.8055555555555556  0.8055555555555556 5.0263888888888895  0.8055555555555556 10.180555555555555  L 0.8055555555555556 15.788888888888891  Z " fill-rule="nonzero" fill="rgba(255, 103, 101, 1)" stroke="none" transform="matrix(1 0 0 1 160 1240 )" class="fill" />
    <path d="M 0.8055555555555556 15.788888888888891  L 15.788888888888891 0.8055555555555556  L 10.180555555555555 0.8055555555555556  C 5.0263888888888895 0.8055555555555556  0.8055555555555556 5.0263888888888895  0.8055555555555556 10.180555555555555  L 0.8055555555555556 15.788888888888891  Z " stroke-width="0" stroke-dasharray="0" stroke="rgba(255, 255, 255, 0)" fill="none" transform="matrix(1 0 0 1 160 1240 )" class="stroke" mask="url(#Clip13154)" />
  </g>
</svg>