<?xml version="1.0" encoding="utf-8"?>
<svg version="1.1" xmlns:xlink="http://www.w3.org/1999/xlink" width="3px" height="4px" xmlns="http://www.w3.org/2000/svg">
  <defs>
    <pattern id="BGPattern" patternUnits="userSpaceOnUse" alignment="0 0" imageRepeat="None" />
    <mask fill="white" id="Clip11822">
      <path d="M 0.21237199060242418 1.8748720052487426  C 0.21237199060242418 2.206455341618268  0.3441177396566708 2.524452594377495  0.578616513671875 2.758883466796876  C 0.8130473872802941 2.993382249774072  1.1310446463181378 3.125128004516883  1.4626279898663253 3.125128004516883  C 2.1529839325482207 3.125128004516883  2.7126279996319482 2.5654839374331555  2.7126279996319482 1.87512799475126  C 2.7126279996319482 1.5435446583817365  2.5808822505777016 1.225547405622506  2.346383476562501 0.991116533203126  C 2.1119526029540783 0.756617750225927  1.7939553439162363 0.6248719954831179  1.4623720003680472 0.6248719954831179  C 0.7720160576861517 0.6248719954831179  0.21237199060242418 1.1845160625668454  0.21237199060242418 1.8748720052487426  Z " fill-rule="evenodd" />
    </mask>
  </defs>
  <g transform="matrix(1 0 0 1 -99 -1068 )">
    <path d="M 0.21237199060242418 1.8748720052487426  C 0.21237199060242418 2.206455341618268  0.3441177396566708 2.524452594377495  0.578616513671875 2.758883466796876  C 0.8130473872802941 2.993382249774072  1.1310446463181378 3.125128004516883  1.4626279898663253 3.125128004516883  C 2.1529839325482207 3.125128004516883  2.7126279996319482 2.5654839374331555  2.7126279996319482 1.87512799475126  C 2.7126279996319482 1.5435446583817365  2.5808822505777016 1.225547405622506  2.346383476562501 0.991116533203126  C 2.1119526029540783 0.756617750225927  1.7939553439162363 0.6248719954831179  1.4623720003680472 0.6248719954831179  C 0.7720160576861517 0.6248719954831179  0.21237199060242418 1.1845160625668454  0.21237199060242418 1.8748720052487426  Z " fill-rule="nonzero" fill="rgba(255, 155, 87, 1)" stroke="none" transform="matrix(1 0 0 1 99 1068 )" class="fill" />
    <path d="M 0.21237199060242418 1.8748720052487426  C 0.21237199060242418 2.206455341618268  0.3441177396566708 2.524452594377495  0.578616513671875 2.758883466796876  C 0.8130473872802941 2.993382249774072  1.1310446463181378 3.125128004516883  1.4626279898663253 3.125128004516883  C 2.1529839325482207 3.125128004516883  2.7126279996319482 2.5654839374331555  2.7126279996319482 1.87512799475126  C 2.7126279996319482 1.5435446583817365  2.5808822505777016 1.225547405622506  2.346383476562501 0.991116533203126  C 2.1119526029540783 0.756617750225927  1.7939553439162363 0.6248719954831179  1.4623720003680472 0.6248719954831179  C 0.7720160576861517 0.6248719954831179  0.21237199060242418 1.1845160625668454  0.21237199060242418 1.8748720052487426  Z " stroke-width="0" stroke-dasharray="0" stroke="rgba(255, 255, 255, 0)" fill="none" transform="matrix(1 0 0 1 99 1068 )" class="stroke" mask="url(#Clip11822)" />
  </g>
</svg>