<?xml version="1.0" encoding="utf-8"?>
<svg version="1.1" xmlns:xlink="http://www.w3.org/1999/xlink" width="16px" height="16px" xmlns="http://www.w3.org/2000/svg">
  <defs>
    <pattern id="BGPattern" patternUnits="userSpaceOnUse" alignment="0 0" imageRepeat="None" />
    <mask fill="white" id="Clip8242">
      <path d="M 15.194444444444445 5.819444444444445  L 15.194444444444445 0.0027777777777752513  L 0.0027777777777752513 15.194444444444445  L 5.819444444444445 15.194444444444445  C 10.977777777777773 15.194444444444445  15.194444444444445 10.973611111111117  15.194444444444445 5.819444444444445  Z " fill-rule="evenodd" />
    </mask>
  </defs>
  <g transform="matrix(1 0 0 1 -184 -1264 )">
    <path d="M 15.194444444444445 5.819444444444445  L 15.194444444444445 0.0027777777777752513  L 0.0027777777777752513 15.194444444444445  L 5.819444444444445 15.194444444444445  C 10.977777777777773 15.194444444444445  15.194444444444445 10.973611111111117  15.194444444444445 5.819444444444445  Z " fill-rule="nonzero" fill="rgba(255, 95, 80, 1)" stroke="none" transform="matrix(1 0 0 1 184 1264 )" class="fill" />
    <path d="M 15.194444444444445 5.819444444444445  L 15.194444444444445 0.0027777777777752513  L 0.0027777777777752513 15.194444444444445  L 5.819444444444445 15.194444444444445  C 10.977777777777773 15.194444444444445  15.194444444444445 10.973611111111117  15.194444444444445 5.819444444444445  Z " stroke-width="0" stroke-dasharray="0" stroke="rgba(255, 255, 255, 0)" fill="none" transform="matrix(1 0 0 1 184 1264 )" class="stroke" mask="url(#Clip8242)" />
  </g>
</svg>