<?xml version="1.0" encoding="utf-8"?>
<svg version="1.1" xmlns:xlink="http://www.w3.org/1999/xlink" width="18px" height="30px" xmlns="http://www.w3.org/2000/svg">
  <defs>
    <pattern id="BGPattern" patternUnits="userSpaceOnUse" alignment="0 0" imageRepeat="None" />
    <mask fill="white" id="Clip13191">
      <path d="M 0.14848485085227156 12.912280694901312  L 1.663636352982952 14.374269017269729  C 1.7818295179003285 14.487638499795779  1.9727159188894396 14.487638499795779  2.0909090838068187 14.37426901726974  L 3.6060606178977244 12.912280694901312  C 3.6627837993195858 12.85709974684867  3.6944050784441 12.782398521213908  3.693939385653409 12.70467835115131  L 3.693939385653409 4.2923976562499995  C 3.6944050784441 4.214677486187402  3.6627837993195858 4.13997626055264  3.6060606178977275 4.084795312499998  L 2.090909083806817 2.6228070209703964  C 1.9727159188894396 2.5094375384443577  1.7818295179003285 2.5094375384443577  1.6636363529829536 2.6228070209703964  L 0.14848485085227156 4.084795312499998  C 0.09176165772152457 4.139976255509836  0.06014036683462608 4.214677481763982  0.06060605113636312 4.2923976562499995  L 0.06060605113636167 12.70467835115131  C 0.06014036683462608 12.782398525637328  0.09176165772152603 12.857099751891475  0.14848485085227156 12.912280694901312  Z M 17.636363629261364 4.2923976562499995  C 17.634466667577517 4.217722772091618  17.603023056795394 4.146579926463777  17.54848486150568 4.093567259457236  L 16.033333327414766 2.63157893708882  C 15.915140162497389 2.5182094545627702  15.724253761508283 2.5182094545627702  15.60606059659091 2.63157893708882  L 14.09090909446022 4.093567259457236  C 14.034185901329478 4.1487482024670745  14.002564610442573 4.223449428721221  14.003030294744317 4.301169603207239  L 14.003030294744311 12.713450298108548  C 14.002564610442573 12.791170472594578  14.034185901329474 12.865871698848713  14.090909094460224 12.921052641858552  L 15.606060596590904 14.383040933388152  C 15.724253761508283 14.496410415914191  15.915140162497389 14.496410415914191  16.03333332741477 14.383040933388152  L 17.548484861505678 12.921052641858552  C 17.60520804292754 12.865871693805907  17.636829322052055 12.791170468171158  17.636363629261364 12.71345029810856  L 17.636363629261364 4.2923976562499995  Z M 2.757575742187499 1.9619883120888129  L 4.275757585227271 3.4239766036184256  C 4.332945107982922 3.4787095092708964  4.41036274246449 3.5092212811793044  4.490909105113635 3.5087719366776327  L 13.209090916193176 3.5087719366776327  C 13.289637278842319 3.5092212811793044  13.367054913323887 3.4787095092708964  13.424242436079545 3.4239766036184256  L 14.939393938210223 1.9619883120888129  C 15.056885947373571 1.8479422757650317  15.056885947373571 1.6637536432316804  14.939393938210229 1.5497076069078992  L 13.42424243607954 0.08771928453947153  C 13.367054908097707 0.032986390185045206  13.289637274258057 0.002474629626312052  13.20909091619318 0.002923982319079468  L 4.487878796164773 0.002923982319079468  C 4.407332438099899 0.002474629626312052  4.32991480426024 0.032986390185045206  4.27272727627841 0.08771928453947153  L 2.757575742187499 1.5497076069078992  C 2.6400837330241465 1.6637536432316804  2.6400837330241465 1.8479422757650317  2.757575742187499 1.9619883120888129  Z M 13.206060607244316 13.157894747121707  L 4.487878796164773 13.157894747121707  C 4.407332438099899 13.15744539442894  4.32991480426024 13.187957154987672  4.27272727627841 13.242690049342109  L 2.757575742187499 14.704678371710527  C 2.6400837330241447 14.818724408034306  2.6400837330241465 15.002913040567659  2.757575742187501 15.116959076891451  L 4.272727276278407 16.578947368421055  C 4.329914799034061 16.633680274073523  4.407332433515627 16.66419204598193  4.487878796164773 16.66374270148026  L 13.206060607244316 16.66374270148026  C 13.286606969893457 16.66419204598193  13.364024604375023 16.633680274073523  13.421212127130685 16.578947368421055  L 14.936363629261363 15.116959076891439  C 15.05385563842471 15.002913040567659  15.05385563842471 14.818724408034306  14.936363629261365 14.704678371710527  L 13.421212127130682 13.242690049342109  C 13.364024599148847 13.187957154987672  13.286606965309188 13.15744539442894  13.206060607244316 13.157894747121707  Z M 3.6090908948863603 25.739766087582233  C 3.665814088017109 25.684585144572395  3.6974353789040064 25.609883918318246  3.696969694602273 25.532163743832243  L 3.6969696946022705 17.11988304893092  C 3.6974353789040064 17.0421628744449  3.665814088017109 16.967461648190756  3.6090908948863616 16.91228070518092  L 2.0939393927556798 15.450292382812501  C 1.9757462278383022 15.336922900286464  1.7848598268491926 15.336922900286464  1.6666666619318167 15.450292382812501  L 0.15151515980113425 16.91228070518092  C 0.09479196667038876 16.967461648190756  0.0631706757834888 17.0421628744449  0.06363636008522584 17.11988304893092  L 0.06363636008522584 25.53216374383223  C 0.0631706757834888 25.609883918318246  0.09479196667038876 25.684585144572395  0.15151515980113572 25.739766087582243  L 1.6666666619318151 27.201754379111833  C 1.7848598268491926 27.315123861637872  1.9757462278383022 27.315123861637872  2.093939392755681 27.201754379111847  L 3.6090908948863603 25.739766087582233  Z M 17.548484861505685 16.91228070518092  L 16.03333332741477 15.450292382812501  C 15.915140162497394 15.336922900286464  15.724253761508288 15.336922900286464  15.606060596590911 15.450292382812501  L 14.090909094460226 16.91228070518092  C 14.03418590132948 16.967461648190756  14.002564610442581 17.0421628744449  14.003030294744319 17.11988304893092  L 14.003030294744317 25.53216374383223  C 14.002564610442585 25.609883918318246  14.03418590132948 25.684585144572395  14.090909094460226 25.739766087582243  L 15.606060596590911 27.201754379111833  C 15.724253761508288 27.315123861637872  15.915140162497394 27.315123861637872  16.033333327414773 27.201754379111847  L 17.548484861505685 25.739766087582233  C 17.605208042927547 25.684585139529577  17.636829322052055 25.60988391389483  17.636363629261368 25.532163743832243  L 17.636363629261364 17.11988304893092  C 17.636829322052055 17.042162878868325  17.60520804292754 16.96746165323356  17.548484861505685 16.91228070518092  Z M 14.936363629261363 27.862573087993418  L 13.421212127130682 26.400584796463818  C 13.364024604375023 26.345851890811332  13.286606969893457 26.315340118902924  13.206060607244321 26.31578946340461  L 4.487878796164773 26.3157894634046  C 4.407332433515627 26.315340118902924  4.329914799034061 26.345851890811332  4.27272727627841 26.400584796463818  L 2.757575742187499 27.862573087993418  C 2.640083733024148 27.9766191243172  2.640083733024148 28.16080775685055  2.757575742187501 28.274853793174344  L 4.272727276278407 29.736842115542757  C 4.329914804260242 29.791575009897187  4.407332438099896 29.82208677045592  4.487878796164773 29.82163741776316  L 13.206060607244316 29.82163741776316  C 13.286606965309188 29.82208677045592  13.364024599148847 29.791575009897187  13.421212127130685 29.736842115542757  L 14.936363629261363 28.27485379317433  C 15.05385563842471 28.16080775685055  15.05385563842471 27.9766191243172  14.936363629261363 27.862573087993418  Z " fill-rule="evenodd" />
    </mask>
  </defs>
  <g transform="matrix(1 0 0 1 -63 -1162 )">
    <path d="M 0.14848485085227156 12.912280694901312  L 1.663636352982952 14.374269017269729  C 1.7818295179003285 14.487638499795779  1.9727159188894396 14.487638499795779  2.0909090838068187 14.37426901726974  L 3.6060606178977244 12.912280694901312  C 3.6627837993195858 12.85709974684867  3.6944050784441 12.782398521213908  3.693939385653409 12.70467835115131  L 3.693939385653409 4.2923976562499995  C 3.6944050784441 4.214677486187402  3.6627837993195858 4.13997626055264  3.6060606178977275 4.084795312499998  L 2.090909083806817 2.6228070209703964  C 1.9727159188894396 2.5094375384443577  1.7818295179003285 2.5094375384443577  1.6636363529829536 2.6228070209703964  L 0.14848485085227156 4.084795312499998  C 0.09176165772152457 4.139976255509836  0.06014036683462608 4.214677481763982  0.06060605113636312 4.2923976562499995  L 0.06060605113636167 12.70467835115131  C 0.06014036683462608 12.782398525637328  0.09176165772152603 12.857099751891475  0.14848485085227156 12.912280694901312  Z M 17.636363629261364 4.2923976562499995  C 17.634466667577517 4.217722772091618  17.603023056795394 4.146579926463777  17.54848486150568 4.093567259457236  L 16.033333327414766 2.63157893708882  C 15.915140162497389 2.5182094545627702  15.724253761508283 2.5182094545627702  15.60606059659091 2.63157893708882  L 14.09090909446022 4.093567259457236  C 14.034185901329478 4.1487482024670745  14.002564610442573 4.223449428721221  14.003030294744317 4.301169603207239  L 14.003030294744311 12.713450298108548  C 14.002564610442573 12.791170472594578  14.034185901329474 12.865871698848713  14.090909094460224 12.921052641858552  L 15.606060596590904 14.383040933388152  C 15.724253761508283 14.496410415914191  15.915140162497389 14.496410415914191  16.03333332741477 14.383040933388152  L 17.548484861505678 12.921052641858552  C 17.60520804292754 12.865871693805907  17.636829322052055 12.791170468171158  17.636363629261364 12.71345029810856  L 17.636363629261364 4.2923976562499995  Z M 2.757575742187499 1.9619883120888129  L 4.275757585227271 3.4239766036184256  C 4.332945107982922 3.4787095092708964  4.41036274246449 3.5092212811793044  4.490909105113635 3.5087719366776327  L 13.209090916193176 3.5087719366776327  C 13.289637278842319 3.5092212811793044  13.367054913323887 3.4787095092708964  13.424242436079545 3.4239766036184256  L 14.939393938210223 1.9619883120888129  C 15.056885947373571 1.8479422757650317  15.056885947373571 1.6637536432316804  14.939393938210229 1.5497076069078992  L 13.42424243607954 0.08771928453947153  C 13.367054908097707 0.032986390185045206  13.289637274258057 0.002474629626312052  13.20909091619318 0.002923982319079468  L 4.487878796164773 0.002923982319079468  C 4.407332438099899 0.002474629626312052  4.32991480426024 0.032986390185045206  4.27272727627841 0.08771928453947153  L 2.757575742187499 1.5497076069078992  C 2.6400837330241465 1.6637536432316804  2.6400837330241465 1.8479422757650317  2.757575742187499 1.9619883120888129  Z M 13.206060607244316 13.157894747121707  L 4.487878796164773 13.157894747121707  C 4.407332438099899 13.15744539442894  4.32991480426024 13.187957154987672  4.27272727627841 13.242690049342109  L 2.757575742187499 14.704678371710527  C 2.6400837330241447 14.818724408034306  2.6400837330241465 15.002913040567659  2.757575742187501 15.116959076891451  L 4.272727276278407 16.578947368421055  C 4.329914799034061 16.633680274073523  4.407332433515627 16.66419204598193  4.487878796164773 16.66374270148026  L 13.206060607244316 16.66374270148026  C 13.286606969893457 16.66419204598193  13.364024604375023 16.633680274073523  13.421212127130685 16.578947368421055  L 14.936363629261363 15.116959076891439  C 15.05385563842471 15.002913040567659  15.05385563842471 14.818724408034306  14.936363629261365 14.704678371710527  L 13.421212127130682 13.242690049342109  C 13.364024599148847 13.187957154987672  13.286606965309188 13.15744539442894  13.206060607244316 13.157894747121707  Z M 3.6090908948863603 25.739766087582233  C 3.665814088017109 25.684585144572395  3.6974353789040064 25.609883918318246  3.696969694602273 25.532163743832243  L 3.6969696946022705 17.11988304893092  C 3.6974353789040064 17.0421628744449  3.665814088017109 16.967461648190756  3.6090908948863616 16.91228070518092  L 2.0939393927556798 15.450292382812501  C 1.9757462278383022 15.336922900286464  1.7848598268491926 15.336922900286464  1.6666666619318167 15.450292382812501  L 0.15151515980113425 16.91228070518092  C 0.09479196667038876 16.967461648190756  0.0631706757834888 17.0421628744449  0.06363636008522584 17.11988304893092  L 0.06363636008522584 25.53216374383223  C 0.0631706757834888 25.609883918318246  0.09479196667038876 25.684585144572395  0.15151515980113572 25.739766087582243  L 1.6666666619318151 27.201754379111833  C 1.7848598268491926 27.315123861637872  1.9757462278383022 27.315123861637872  2.093939392755681 27.201754379111847  L 3.6090908948863603 25.739766087582233  Z M 17.548484861505685 16.91228070518092  L 16.03333332741477 15.450292382812501  C 15.915140162497394 15.336922900286464  15.724253761508288 15.336922900286464  15.606060596590911 15.450292382812501  L 14.090909094460226 16.91228070518092  C 14.03418590132948 16.967461648190756  14.002564610442581 17.0421628744449  14.003030294744319 17.11988304893092  L 14.003030294744317 25.53216374383223  C 14.002564610442585 25.609883918318246  14.03418590132948 25.684585144572395  14.090909094460226 25.739766087582243  L 15.606060596590911 27.201754379111833  C 15.724253761508288 27.315123861637872  15.915140162497394 27.315123861637872  16.033333327414773 27.201754379111847  L 17.548484861505685 25.739766087582233  C 17.605208042927547 25.684585139529577  17.636829322052055 25.60988391389483  17.636363629261368 25.532163743832243  L 17.636363629261364 17.11988304893092  C 17.636829322052055 17.042162878868325  17.60520804292754 16.96746165323356  17.548484861505685 16.91228070518092  Z M 14.936363629261363 27.862573087993418  L 13.421212127130682 26.400584796463818  C 13.364024604375023 26.345851890811332  13.286606969893457 26.315340118902924  13.206060607244321 26.31578946340461  L 4.487878796164773 26.3157894634046  C 4.407332433515627 26.315340118902924  4.329914799034061 26.345851890811332  4.27272727627841 26.400584796463818  L 2.757575742187499 27.862573087993418  C 2.640083733024148 27.9766191243172  2.640083733024148 28.16080775685055  2.757575742187501 28.274853793174344  L 4.272727276278407 29.736842115542757  C 4.329914804260242 29.791575009897187  4.407332438099896 29.82208677045592  4.487878796164773 29.82163741776316  L 13.206060607244316 29.82163741776316  C 13.286606965309188 29.82208677045592  13.364024599148847 29.791575009897187  13.421212127130685 29.736842115542757  L 14.936363629261363 28.27485379317433  C 15.05385563842471 28.16080775685055  15.05385563842471 27.9766191243172  14.936363629261363 27.862573087993418  Z " fill-rule="nonzero" fill="rgba(255, 255, 255, 1)" stroke="none" transform="matrix(1 0 0 1 63 1162 )" class="fill" />
    <path d="M 0.14848485085227156 12.912280694901312  L 1.663636352982952 14.374269017269729  C 1.7818295179003285 14.487638499795779  1.9727159188894396 14.487638499795779  2.0909090838068187 14.37426901726974  L 3.6060606178977244 12.912280694901312  C 3.6627837993195858 12.85709974684867  3.6944050784441 12.782398521213908  3.693939385653409 12.70467835115131  L 3.693939385653409 4.2923976562499995  C 3.6944050784441 4.214677486187402  3.6627837993195858 4.13997626055264  3.6060606178977275 4.084795312499998  L 2.090909083806817 2.6228070209703964  C 1.9727159188894396 2.5094375384443577  1.7818295179003285 2.5094375384443577  1.6636363529829536 2.6228070209703964  L 0.14848485085227156 4.084795312499998  C 0.09176165772152457 4.139976255509836  0.06014036683462608 4.214677481763982  0.06060605113636312 4.2923976562499995  L 0.06060605113636167 12.70467835115131  C 0.06014036683462608 12.782398525637328  0.09176165772152603 12.857099751891475  0.14848485085227156 12.912280694901312  Z " stroke-width="0" stroke-dasharray="0" stroke="rgba(255, 255, 255, 0)" fill="none" transform="matrix(1 0 0 1 63 1162 )" class="stroke" mask="url(#Clip13191)" />
    <path d="M 17.636363629261364 4.2923976562499995  C 17.634466667577517 4.217722772091618  17.603023056795394 4.146579926463777  17.54848486150568 4.093567259457236  L 16.033333327414766 2.63157893708882  C 15.915140162497389 2.5182094545627702  15.724253761508283 2.5182094545627702  15.60606059659091 2.63157893708882  L 14.09090909446022 4.093567259457236  C 14.034185901329478 4.1487482024670745  14.002564610442573 4.223449428721221  14.003030294744317 4.301169603207239  L 14.003030294744311 12.713450298108548  C 14.002564610442573 12.791170472594578  14.034185901329474 12.865871698848713  14.090909094460224 12.921052641858552  L 15.606060596590904 14.383040933388152  C 15.724253761508283 14.496410415914191  15.915140162497389 14.496410415914191  16.03333332741477 14.383040933388152  L 17.548484861505678 12.921052641858552  C 17.60520804292754 12.865871693805907  17.636829322052055 12.791170468171158  17.636363629261364 12.71345029810856  L 17.636363629261364 4.2923976562499995  Z " stroke-width="0" stroke-dasharray="0" stroke="rgba(255, 255, 255, 0)" fill="none" transform="matrix(1 0 0 1 63 1162 )" class="stroke" mask="url(#Clip13191)" />
    <path d="M 2.757575742187499 1.9619883120888129  L 4.275757585227271 3.4239766036184256  C 4.332945107982922 3.4787095092708964  4.41036274246449 3.5092212811793044  4.490909105113635 3.5087719366776327  L 13.209090916193176 3.5087719366776327  C 13.289637278842319 3.5092212811793044  13.367054913323887 3.4787095092708964  13.424242436079545 3.4239766036184256  L 14.939393938210223 1.9619883120888129  C 15.056885947373571 1.8479422757650317  15.056885947373571 1.6637536432316804  14.939393938210229 1.5497076069078992  L 13.42424243607954 0.08771928453947153  C 13.367054908097707 0.032986390185045206  13.289637274258057 0.002474629626312052  13.20909091619318 0.002923982319079468  L 4.487878796164773 0.002923982319079468  C 4.407332438099899 0.002474629626312052  4.32991480426024 0.032986390185045206  4.27272727627841 0.08771928453947153  L 2.757575742187499 1.5497076069078992  C 2.6400837330241465 1.6637536432316804  2.6400837330241465 1.8479422757650317  2.757575742187499 1.9619883120888129  Z " stroke-width="0" stroke-dasharray="0" stroke="rgba(255, 255, 255, 0)" fill="none" transform="matrix(1 0 0 1 63 1162 )" class="stroke" mask="url(#Clip13191)" />
    <path d="M 13.206060607244316 13.157894747121707  L 4.487878796164773 13.157894747121707  C 4.407332438099899 13.15744539442894  4.32991480426024 13.187957154987672  4.27272727627841 13.242690049342109  L 2.757575742187499 14.704678371710527  C 2.6400837330241447 14.818724408034306  2.6400837330241465 15.002913040567659  2.757575742187501 15.116959076891451  L 4.272727276278407 16.578947368421055  C 4.329914799034061 16.633680274073523  4.407332433515627 16.66419204598193  4.487878796164773 16.66374270148026  L 13.206060607244316 16.66374270148026  C 13.286606969893457 16.66419204598193  13.364024604375023 16.633680274073523  13.421212127130685 16.578947368421055  L 14.936363629261363 15.116959076891439  C 15.05385563842471 15.002913040567659  15.05385563842471 14.818724408034306  14.936363629261365 14.704678371710527  L 13.421212127130682 13.242690049342109  C 13.364024599148847 13.187957154987672  13.286606965309188 13.15744539442894  13.206060607244316 13.157894747121707  Z " stroke-width="0" stroke-dasharray="0" stroke="rgba(255, 255, 255, 0)" fill="none" transform="matrix(1 0 0 1 63 1162 )" class="stroke" mask="url(#Clip13191)" />
    <path d="M 3.6090908948863603 25.739766087582233  C 3.665814088017109 25.684585144572395  3.6974353789040064 25.609883918318246  3.696969694602273 25.532163743832243  L 3.6969696946022705 17.11988304893092  C 3.6974353789040064 17.0421628744449  3.665814088017109 16.967461648190756  3.6090908948863616 16.91228070518092  L 2.0939393927556798 15.450292382812501  C 1.9757462278383022 15.336922900286464  1.7848598268491926 15.336922900286464  1.6666666619318167 15.450292382812501  L 0.15151515980113425 16.91228070518092  C 0.09479196667038876 16.967461648190756  0.0631706757834888 17.0421628744449  0.06363636008522584 17.11988304893092  L 0.06363636008522584 25.53216374383223  C 0.0631706757834888 25.609883918318246  0.09479196667038876 25.684585144572395  0.15151515980113572 25.739766087582243  L 1.6666666619318151 27.201754379111833  C 1.7848598268491926 27.315123861637872  1.9757462278383022 27.315123861637872  2.093939392755681 27.201754379111847  L 3.6090908948863603 25.739766087582233  Z " stroke-width="0" stroke-dasharray="0" stroke="rgba(255, 255, 255, 0)" fill="none" transform="matrix(1 0 0 1 63 1162 )" class="stroke" mask="url(#Clip13191)" />
    <path d="M 17.548484861505685 16.91228070518092  L 16.03333332741477 15.450292382812501  C 15.915140162497394 15.336922900286464  15.724253761508288 15.336922900286464  15.606060596590911 15.450292382812501  L 14.090909094460226 16.91228070518092  C 14.03418590132948 16.967461648190756  14.002564610442581 17.0421628744449  14.003030294744319 17.11988304893092  L 14.003030294744317 25.53216374383223  C 14.002564610442585 25.609883918318246  14.03418590132948 25.684585144572395  14.090909094460226 25.739766087582243  L 15.606060596590911 27.201754379111833  C 15.724253761508288 27.315123861637872  15.915140162497394 27.315123861637872  16.033333327414773 27.201754379111847  L 17.548484861505685 25.739766087582233  C 17.605208042927547 25.684585139529577  17.636829322052055 25.60988391389483  17.636363629261368 25.532163743832243  L 17.636363629261364 17.11988304893092  C 17.636829322052055 17.042162878868325  17.60520804292754 16.96746165323356  17.548484861505685 16.91228070518092  Z " stroke-width="0" stroke-dasharray="0" stroke="rgba(255, 255, 255, 0)" fill="none" transform="matrix(1 0 0 1 63 1162 )" class="stroke" mask="url(#Clip13191)" />
    <path d="M 14.936363629261363 27.862573087993418  L 13.421212127130682 26.400584796463818  C 13.364024604375023 26.345851890811332  13.286606969893457 26.315340118902924  13.206060607244321 26.31578946340461  L 4.487878796164773 26.3157894634046  C 4.407332433515627 26.315340118902924  4.329914799034061 26.345851890811332  4.27272727627841 26.400584796463818  L 2.757575742187499 27.862573087993418  C 2.640083733024148 27.9766191243172  2.640083733024148 28.16080775685055  2.757575742187501 28.274853793174344  L 4.272727276278407 29.736842115542757  C 4.329914804260242 29.791575009897187  4.407332438099896 29.82208677045592  4.487878796164773 29.82163741776316  L 13.206060607244316 29.82163741776316  C 13.286606965309188 29.82208677045592  13.364024599148847 29.791575009897187  13.421212127130685 29.736842115542757  L 14.936363629261363 28.27485379317433  C 15.05385563842471 28.16080775685055  15.05385563842471 27.9766191243172  14.936363629261363 27.862573087993418  Z " stroke-width="0" stroke-dasharray="0" stroke="rgba(255, 255, 255, 0)" fill="none" transform="matrix(1 0 0 1 63 1162 )" class="stroke" mask="url(#Clip13191)" />
  </g>
</svg>