<?xml version="1.0" encoding="utf-8"?>
<svg version="1.1" xmlns:xlink="http://www.w3.org/1999/xlink" width="20px" height="20px" xmlns="http://www.w3.org/2000/svg">
  <defs>
    <pattern id="BGPattern" patternUnits="userSpaceOnUse" alignment="0 0" imageRepeat="None" />
    <mask fill="white" id="Clip8241">
      <path d="M 18.937500000000004 11.705965909090914  C 19.095170454545457 11.024147727272734  19.17613636363637 10.316761363636367  19.176136363636363 9.588068181818182  L 19.176136363636363 1.082386363636361  L 1.082386363636361 19.176136363636363  L 9.588068181818182 19.176136363636363  C 10.316761363636367 19.176136363636363  11.024147727272734 19.095170454545457  11.705965909090914 18.9375  L 18.937500000000004 11.705965909090914  Z " fill-rule="evenodd" />
    </mask>
  </defs>
  <g transform="matrix(1 0 0 1 -180 -1260 )">
    <path d="M 18.937500000000004 11.705965909090914  C 19.095170454545457 11.024147727272734  19.17613636363637 10.316761363636367  19.176136363636363 9.588068181818182  L 19.176136363636363 1.082386363636361  L 1.082386363636361 19.176136363636363  L 9.588068181818182 19.176136363636363  C 10.316761363636367 19.176136363636363  11.024147727272734 19.095170454545457  11.705965909090914 18.9375  L 18.937500000000004 11.705965909090914  Z " fill-rule="nonzero" fill="rgba(255, 95, 81, 1)" stroke="none" transform="matrix(1 0 0 1 180 1260 )" class="fill" />
    <path d="M 18.937500000000004 11.705965909090914  C 19.095170454545457 11.024147727272734  19.17613636363637 10.316761363636367  19.176136363636363 9.588068181818182  L 19.176136363636363 1.082386363636361  L 1.082386363636361 19.176136363636363  L 9.588068181818182 19.176136363636363  C 10.316761363636367 19.176136363636363  11.024147727272734 19.095170454545457  11.705965909090914 18.9375  L 18.937500000000004 11.705965909090914  Z " stroke-width="0" stroke-dasharray="0" stroke="rgba(255, 255, 255, 0)" fill="none" transform="matrix(1 0 0 1 180 1260 )" class="stroke" mask="url(#Clip8241)" />
  </g>
</svg>