<?xml version="1.0" encoding="utf-8"?>
<svg version="1.1" xmlns:xlink="http://www.w3.org/1999/xlink" width="2px" height="4px" xmlns="http://www.w3.org/2000/svg">
  <defs>
    <pattern id="BGPattern" patternUnits="userSpaceOnUse" alignment="0 0" imageRepeat="None" />
    <mask fill="white" id="Clip10667">
      <path d="M 1.791666673828125 3.270833326171875  L 1.791666673828125 0.9791666738281246  C 1.791666673828125 0.5994709083194545  1.4838624393367956 0.2916666738281246  1.104166673828125 0.2916666738281246  C 0.7244709083194554 0.2916666738281246  0.41666667382812506 0.5994709083194545  0.41666667382812506 0.9791666738281246  L 0.41666667382812506 3.270833326171875  C 0.41666667382812506 3.6505290916805446  0.7244709083194554 3.958333326171875  1.104166673828125 3.958333326171875  C 1.4838624393367956 3.958333326171875  1.791666673828125 3.6505290916805446  1.791666673828125 3.270833326171875  Z " fill-rule="evenodd" />
    </mask>
  </defs>
  <g transform="matrix(1 0 0 1 -31 -228 )">
    <path d="M 1.791666673828125 3.270833326171875  L 1.791666673828125 0.9791666738281246  C 1.791666673828125 0.5994709083194545  1.4838624393367956 0.2916666738281246  1.104166673828125 0.2916666738281246  C 0.7244709083194554 0.2916666738281246  0.41666667382812506 0.5994709083194545  0.41666667382812506 0.9791666738281246  L 0.41666667382812506 3.270833326171875  C 0.41666667382812506 3.6505290916805446  0.7244709083194554 3.958333326171875  1.104166673828125 3.958333326171875  C 1.4838624393367956 3.958333326171875  1.791666673828125 3.6505290916805446  1.791666673828125 3.270833326171875  Z " fill-rule="nonzero" fill="rgba(255, 255, 255, 1)" stroke="none" transform="matrix(1 0 0 1 31 228 )" class="fill" />
    <path d="M 1.791666673828125 3.270833326171875  L 1.791666673828125 0.9791666738281246  C 1.791666673828125 0.5994709083194545  1.4838624393367956 0.2916666738281246  1.104166673828125 0.2916666738281246  C 0.7244709083194554 0.2916666738281246  0.41666667382812506 0.5994709083194545  0.41666667382812506 0.9791666738281246  L 0.41666667382812506 3.270833326171875  C 0.41666667382812506 3.6505290916805446  0.7244709083194554 3.958333326171875  1.104166673828125 3.958333326171875  C 1.4838624393367956 3.958333326171875  1.791666673828125 3.6505290916805446  1.791666673828125 3.270833326171875  Z " stroke-width="0" stroke-dasharray="0" stroke="rgba(255, 255, 255, 0)" fill="none" transform="matrix(1 0 0 1 31 228 )" class="stroke" mask="url(#Clip10667)" />
  </g>
</svg>