<?xml version="1.0" encoding="utf-8"?>
<svg version="1.1" xmlns:xlink="http://www.w3.org/1999/xlink" width="12px" height="13px" xmlns="http://www.w3.org/2000/svg">
  <defs>
    <pattern id="BGPattern" patternUnits="userSpaceOnUse" alignment="0 0" imageRepeat="None" />
    <mask fill="white" id="Clip14958">
      <path d="M 9.83208796875 9.010371820312498  C 9.0446322890625 9.010371820312498  8.356746140625003 8.679008765625  7.96328596875 8.18544375  C 7.5243236015625 8.6832913125  6.8112774140625 9.010371820312498  5.999732343750001 9.010371820312498  C 5.188187273437503 9.010371820312498  4.476211734375001 8.683826648437499  4.036178718750001 8.18544375  C 3.643253859375003 8.679544078124998  2.9548323984375013 9.010371820312498  2.1668413828125015 9.010371820312498  C 1.415252156250002 9.010371820312498  0.7530613593750015 8.709521999999996  0.35157138281250155 8.2528940625  L 0.35157138281250155 10.0820823984375  C 0.35157138281250155 11.169852562499997  1.2541208437500018 12.052059867187499  2.3686570078125015 12.052059867187499  L 9.631342992187502 12.052059867187499  C 10.744808531250001 12.052059867187499  11.648428617187502 11.170387874999996  11.648428617187502 10.0820823984375  L 11.648428617187502 8.251823437499997  C 11.246938640625004 8.708986687499998  10.58528315625 9.010371820312498  9.83208796875 9.010371820312498  Z M 2.315125007812499 2.2300091484374995  C 2.315125007812499 2.6652242812500013  2.677001296874998 3.0185354531250006  3.1223875312499985 3.0185354531250006  C 3.5677737421874998 3.0185354531250006  3.9296500312499987 2.6652242812499995  3.9296500312499987 2.2300091484374995  C 3.9296500312499987 1.7947940156249995  3.1223875312499985 0.2600316796875006  3.1223875312499985 0.2600316796875006  C 3.1223875312499985 0.2600316796875006  2.31512503125 1.794258703125001  2.315125007812499 2.2300091484374995  Z M 8.07034996875 2.2300091484374995  C 8.07034996875 2.6652242812500013  8.4316909453125 3.0185354531250006  8.877612468750002 3.0185354531250006  C 9.322998679687501 3.0185354531250006  9.684874968750002 2.6652242812499995  9.684874992187503 2.2300091484374995  C 9.684874992187503 1.7947940156249995  8.8776124921875 0.2600316796875006  8.877612468750002 0.2600316796875006  C 8.8776124453125 0.2600316796875006  8.07034996875 1.794258703125001  8.07034996875 2.2300091484374995  Z " fill-rule="evenodd" />
    </mask>
  </defs>
  <g transform="matrix(1 0 0 1 -252 -1072 )">
    <path d="M 9.83208796875 9.010371820312498  C 9.0446322890625 9.010371820312498  8.356746140625003 8.679008765625  7.96328596875 8.18544375  C 7.5243236015625 8.6832913125  6.8112774140625 9.010371820312498  5.999732343750001 9.010371820312498  C 5.188187273437503 9.010371820312498  4.476211734375001 8.683826648437499  4.036178718750001 8.18544375  C 3.643253859375003 8.679544078124998  2.9548323984375013 9.010371820312498  2.1668413828125015 9.010371820312498  C 1.415252156250002 9.010371820312498  0.7530613593750015 8.709521999999996  0.35157138281250155 8.2528940625  L 0.35157138281250155 10.0820823984375  C 0.35157138281250155 11.169852562499997  1.2541208437500018 12.052059867187499  2.3686570078125015 12.052059867187499  L 9.631342992187502 12.052059867187499  C 10.744808531250001 12.052059867187499  11.648428617187502 11.170387874999996  11.648428617187502 10.0820823984375  L 11.648428617187502 8.251823437499997  C 11.246938640625004 8.708986687499998  10.58528315625 9.010371820312498  9.83208796875 9.010371820312498  Z M 2.315125007812499 2.2300091484374995  C 2.315125007812499 2.6652242812500013  2.677001296874998 3.0185354531250006  3.1223875312499985 3.0185354531250006  C 3.5677737421874998 3.0185354531250006  3.9296500312499987 2.6652242812499995  3.9296500312499987 2.2300091484374995  C 3.9296500312499987 1.7947940156249995  3.1223875312499985 0.2600316796875006  3.1223875312499985 0.2600316796875006  C 3.1223875312499985 0.2600316796875006  2.31512503125 1.794258703125001  2.315125007812499 2.2300091484374995  Z M 8.07034996875 2.2300091484374995  C 8.07034996875 2.6652242812500013  8.4316909453125 3.0185354531250006  8.877612468750002 3.0185354531250006  C 9.322998679687501 3.0185354531250006  9.684874968750002 2.6652242812499995  9.684874992187503 2.2300091484374995  C 9.684874992187503 1.7947940156249995  8.8776124921875 0.2600316796875006  8.877612468750002 0.2600316796875006  C 8.8776124453125 0.2600316796875006  8.07034996875 1.794258703125001  8.07034996875 2.2300091484374995  Z " fill-rule="nonzero" fill="rgba(254, 228, 170, 1)" stroke="none" transform="matrix(1 0 0 1 252 1072 )" class="fill" />
    <path d="M 9.83208796875 9.010371820312498  C 9.0446322890625 9.010371820312498  8.356746140625003 8.679008765625  7.96328596875 8.18544375  C 7.5243236015625 8.6832913125  6.8112774140625 9.010371820312498  5.999732343750001 9.010371820312498  C 5.188187273437503 9.010371820312498  4.476211734375001 8.683826648437499  4.036178718750001 8.18544375  C 3.643253859375003 8.679544078124998  2.9548323984375013 9.010371820312498  2.1668413828125015 9.010371820312498  C 1.415252156250002 9.010371820312498  0.7530613593750015 8.709521999999996  0.35157138281250155 8.2528940625  L 0.35157138281250155 10.0820823984375  C 0.35157138281250155 11.169852562499997  1.2541208437500018 12.052059867187499  2.3686570078125015 12.052059867187499  L 9.631342992187502 12.052059867187499  C 10.744808531250001 12.052059867187499  11.648428617187502 11.170387874999996  11.648428617187502 10.0820823984375  L 11.648428617187502 8.251823437499997  C 11.246938640625004 8.708986687499998  10.58528315625 9.010371820312498  9.83208796875 9.010371820312498  Z " stroke-width="0" stroke-dasharray="0" stroke="rgba(255, 255, 255, 0)" fill="none" transform="matrix(1 0 0 1 252 1072 )" class="stroke" mask="url(#Clip14958)" />
    <path d="M 2.315125007812499 2.2300091484374995  C 2.315125007812499 2.6652242812500013  2.677001296874998 3.0185354531250006  3.1223875312499985 3.0185354531250006  C 3.5677737421874998 3.0185354531250006  3.9296500312499987 2.6652242812499995  3.9296500312499987 2.2300091484374995  C 3.9296500312499987 1.7947940156249995  3.1223875312499985 0.2600316796875006  3.1223875312499985 0.2600316796875006  C 3.1223875312499985 0.2600316796875006  2.31512503125 1.794258703125001  2.315125007812499 2.2300091484374995  Z " stroke-width="0" stroke-dasharray="0" stroke="rgba(255, 255, 255, 0)" fill="none" transform="matrix(1 0 0 1 252 1072 )" class="stroke" mask="url(#Clip14958)" />
    <path d="M 8.07034996875 2.2300091484374995  C 8.07034996875 2.6652242812500013  8.4316909453125 3.0185354531250006  8.877612468750002 3.0185354531250006  C 9.322998679687501 3.0185354531250006  9.684874968750002 2.6652242812499995  9.684874992187503 2.2300091484374995  C 9.684874992187503 1.7947940156249995  8.8776124921875 0.2600316796875006  8.877612468750002 0.2600316796875006  C 8.8776124453125 0.2600316796875006  8.07034996875 1.794258703125001  8.07034996875 2.2300091484374995  Z " stroke-width="0" stroke-dasharray="0" stroke="rgba(255, 255, 255, 0)" fill="none" transform="matrix(1 0 0 1 252 1072 )" class="stroke" mask="url(#Clip14958)" />
  </g>
</svg>