<?xml version="1.0" encoding="utf-8"?>
<svg version="1.1" xmlns:xlink="http://www.w3.org/1999/xlink" width="6px" height="15px" xmlns="http://www.w3.org/2000/svg">
  <defs>
    <pattern id="BGPattern" patternUnits="userSpaceOnUse" alignment="0 0" imageRepeat="None" />
    <mask fill="white" id="Clip16350">
      <path d="M 4.84375 10.499999990234375  C 4.84375 11.017766943200744  4.424016952966369 11.437499990234375  3.90625 11.437499990234375  C 3.388483047033631 11.437499990234375  2.96875 11.017766943200744  2.96875 10.499999990234375  L 2.96875 1.843750009765625  C 2.96875 1.3259830567992559  3.388483047033631 0.9062500097656248  3.90625 0.9062500097656248  C 4.424016952966369 0.9062500097656248  4.84375 1.3259830567992559  4.84375 1.843750009765625  L 4.84375 10.499999990234375  Z " fill-rule="evenodd" />
    </mask>
  </defs>
  <g transform="matrix(1 0 0 1 -102 -1072 )">
    <path d="M 4.84375 10.499999990234375  C 4.84375 11.017766943200744  4.424016952966369 11.437499990234375  3.90625 11.437499990234375  C 3.388483047033631 11.437499990234375  2.96875 11.017766943200744  2.96875 10.499999990234375  L 2.96875 1.843750009765625  C 2.96875 1.3259830567992559  3.388483047033631 0.9062500097656248  3.90625 0.9062500097656248  C 4.424016952966369 0.9062500097656248  4.84375 1.3259830567992559  4.84375 1.843750009765625  L 4.84375 10.499999990234375  Z M 0.6124999902343777 13.874999990234372  L 3.90625 10.581250009765629  C 3.9062499838197837 12.400337898473065  2.4315878789418193 13.874999990234372  0.6124999902343777 13.874999990234372  Z " fill-rule="nonzero" fill="rgba(253, 143, 158, 1)" stroke="none" transform="matrix(1 0 0 1 102 1072 )" class="fill" />
    <path d="M 4.84375 10.499999990234375  C 4.84375 11.017766943200744  4.424016952966369 11.437499990234375  3.90625 11.437499990234375  C 3.388483047033631 11.437499990234375  2.96875 11.017766943200744  2.96875 10.499999990234375  L 2.96875 1.843750009765625  C 2.96875 1.3259830567992559  3.388483047033631 0.9062500097656248  3.90625 0.9062500097656248  C 4.424016952966369 0.9062500097656248  4.84375 1.3259830567992559  4.84375 1.843750009765625  L 4.84375 10.499999990234375  Z " stroke-width="0" stroke-dasharray="0" stroke="rgba(255, 255, 255, 0)" fill="none" transform="matrix(1 0 0 1 102 1072 )" class="stroke" mask="url(#Clip16350)" />
    <path d="M 3.90625 10.581250009765629  C 3.9062499838197837 12.400337898473065  2.4315878789418193 13.874999990234372  0.6124999902343777 13.874999990234372  " stroke-width="0" stroke-dasharray="0" stroke="rgba(255, 255, 255, 0)" fill="none" transform="matrix(1 0 0 1 102 1072 )" class="stroke" />
  </g>
</svg>