<?xml version="1.0" encoding="utf-8"?>
<svg version="1.1" xmlns:xlink="http://www.w3.org/1999/xlink" width="24px" height="21px" xmlns="http://www.w3.org/2000/svg">
  <defs>
    <pattern id="BGPattern" patternUnits="userSpaceOnUse" alignment="0 0" imageRepeat="None" />
    <mask fill="white" id="Clip16355">
      <path d="M 16.083000000000002 0.59975  C 16.083000000000002 0.59975  16.092750000000002 2.0172499999999998  17.6625 2.25575  C 17.6625 2.25575  17.499750000000002 0.8397500000000002  16.083000000000002 0.59975  Z M 22.52175 5.830999999999999  C 22.52175 5.830999999999999  20.381999999999998 6.595999999999999  20.8155 8.773249999999999  C 20.8155 8.773249999999999  22.8765 7.808749999999999  22.52175 5.830999999999999  Z M 23.364 8.521999999999998  C 23.364 8.521999999999998  21.236250000000002 9.045499999999999  21.0855 11.093000000000002  L 21.318749999999998 10.860499999999998  C 21.405696185633502 10.794906272401512  21.512103531251825 10.760317284123596  21.621 10.762249999999998  C 21.7545 10.762249999999998  21.8835 10.818499999999997  22.01625 10.933249999999997  C 22.0485 10.961749999999999  22.079250000000002 10.993249999999998  22.11 11.026999999999997  C 22.74825 10.549249999999999  23.43675 9.744499999999999  23.364 8.521999999999998  Z M 20.64675 6.408500000000001  C 20.64675 6.408500000000001  21.9405 4.631  20.584500000000002 3.078499999999999  C 20.584500000000002 3.078499999999999  19.116000000000003 4.71725  20.64675 6.408500000000001  Z M 18.99825 3.9259999999999993  C 18.99825 3.9259999999999993  20.0595 2.467999999999999  18.9465 1.1937499999999992  C 18.9465 1.1937499999999992  17.74125 2.538499999999999  18.99825 3.9259999999999993  Z M 6.3375 2.2557499999999995  C 7.2041539278172255 2.1766493696886453  7.878947106921589 1.4691738998584294  7.917000000000001 0.5997499999999993  C 6.4995 0.8397499999999991  6.3375 2.2557499999999995  6.3375 2.2557499999999995  Z M 24 11.573000000000002  C 24 11.573000000000002  23.2815 11.447750000000001  22.4655 11.686999999999998  C 22.4715 11.704999999999998  22.4775 11.721499999999995  22.48275 11.740250000000001  C 22.536749999999998 11.9255  22.56375 12.131749999999997  22.56375 12.35375  C 22.56375 12.550250000000002  22.51275 12.7535  22.41075 12.95825  C 22.374750000000002 13.03025  22.335749999999997 13.100000000000003  22.29225 13.16825  C 22.944 12.914750000000002  23.616 12.445250000000001  24 11.573000000000002  Z M 18.747 19.72625  C 18.747 19.72625  16.392 17.997500000000002  14.214749999999999 19.887500000000003  C 14.214749999999999 19.887500000000003  16.74225 21.400249999999996  18.747 19.72625  Z M 9.783000000000001 19.72625  C 9.783000000000001 19.72625  7.428 17.997500000000002  5.25 19.887500000000003  C 5.25 19.887500000000003  7.777500000000001 21.400249999999996  9.783000000000001 19.72625  Z M 18.615750000000002 18.36725  L 18.49425 18.365000000000002  L 18.519000000000002 18.357499999999998  C 18.144172053312317 18.320098007519654  17.778447183220905 18.219155914387628  17.437500000000004 18.058999999999997  C 17.437500000000004 18.058999999999997  17.820750000000004 17.582  18.48525 17.18675  C 20.00025 16.22075  21.744 16.89875  21.744 16.89875  C 20.990250000000003 17.969749999999998  19.9005 18.296  19.005 18.356749999999998  L 19.001999999999995 18.368  C 18.8913188378642 18.373522243551612  18.780431162135795 18.373522243551612  18.669749999999997 18.368  L 18.61575 18.368  Z M 3.0382500000000006 17.726  C 2.7276622528532766 17.505129123338516  2.4574586051692022 17.23238835220201  2.2395000000000005 16.91975  C 2.2395000000000005 16.91975  2.9542500000000005 16.6415  3.86775 16.69475  C 4.203 16.7075  4.5127500000000005 16.7735  4.79475 16.86875  C 4.92525 16.91225  5.05575 16.96475  5.18625 17.0285  C 6.053999999999999 17.4395  6.56625 18.07775  6.56625 18.07775  C 5.369250000000001 18.63275  4.2540000000000004 18.362000000000002  3.447000000000001 17.9615  L 3.4395000000000007 17.969  C 3.337089512778202 17.916690341581372  3.237456140475958 17.85911326713535  3.141000000000001 17.7965  C 3.09987629038901 17.77237060063682  3.059121586412001 17.747617743620108  3.0187500000000007 17.722250000000003  L 3.0382500000000006 17.726  Z M 22.927500000000002 14.141000000000005  C 22.927500000000002 14.141000000000005  22.18125 14.011250000000008  21.301499999999997 14.234749999999998  C 20.963534237882357 14.520544991409533  20.60142863211926 14.77650321585746  20.21925 14.99975  L 20.22075 15.022250000000001  C 20.22675 15.102500000000004  20.22975 15.179750000000002  20.22975 15.251750000000001  C 20.22975 15.450500000000005  20.211 15.618500000000004  20.171999999999997 15.764750000000003  C 20.136979553790606 15.905645129169272  20.076759948493475 16.03904298900469  19.99425 16.158500000000004  C 19.97175 16.1885  19.9485 16.218500000000002  19.923000000000002 16.246250000000003  C 20.8755 16.10375  22.269750000000002 15.635000000000002  22.927500000000002 14.141000000000005  Z M 3.86475 16.209500000000002  C 3.7874999999999996 16.1345  3.7147499999999996 16.0565  3.64425 15.9755  C 3.5384342654196876 15.853209631538924  3.441677655540378 15.7233652690584  3.35475 15.587  C 3.269676753509669 15.453684871172854  3.198074316969376 15.312238654428342  3.141 15.164750000000002  C 3.082290472880409 15.017938464719503  3.0510225654590317 14.861598927612611  3.0487499999999996 14.703500000000002  C 3.0487499999999996 14.597750000000005  3.0682499999999995 14.48375  3.1035 14.361500000000001  C 2.061 13.968500000000002  1.0724999999999998 14.141  1.0724999999999998 14.141  C 1.6829999999999998 15.527750000000001  2.9265 16.031000000000002  3.86475 16.209500000000002  Z M 5.0535 1.1929999999999996  C 3.9404999999999997 2.468  5.0017499999999995 3.926  5.0017499999999995 3.926  C 6.258749999999999 2.5385  5.0535 1.1937499999999996  5.0535 1.1937499999999996  Z M 3.4717499999999997 13.450999999999999  C 3.4717499999999997 13.450999999999999  0.9164999999999996 13.6535  0 11.57375  C 0 11.57375  2.5027500000000003 11.135750000000003  3.4717499999999997 13.450999999999999  Z M 0.636 8.522000000000002  C 0.636 8.522000000000002  3.108 9.129500000000002  2.91375 11.597  L 2.88975 11.588  C 2.6384999999999996 11.492750000000001  0.51 10.6265  0.636 8.52125  Z M 3.1845000000000003 8.774000000000001  C 3.1845000000000003 8.774000000000001  1.1235000000000002 7.809500000000002  1.47825 5.831750000000001  C 1.47825 5.831750000000001  3.618 6.596750000000002  3.1845000000000003 8.774000000000001  Z M 3.35325 6.409250000000001  C 3.35325 6.409250000000001  2.0595 4.631750000000001  3.4155 3.079250000000002  C 3.4155 3.079250000000002  4.884 4.718000000000002  3.35325 6.409250000000001  Z M 17.4 12.989  L 17.4 14.367500000000001  C 17.4 14.555  17.311500000000002 14.647999999999998  17.13375 14.647999999999998  L 13.336500000000001 14.647999999999998  L 13.336500000000001 16.307  C 13.336500000000001 16.502  13.239 16.5995  13.04625 16.5995  L 11.52225 16.5995  C 11.32875 16.5995  11.232 16.502  11.232 16.307  L 11.232 14.647999999999998  L 6.866249999999999 14.647999999999998  C 6.6884999999999994 14.647999999999998  6.6 14.554249999999998  6.6 14.367500000000001  L 6.6 12.988999999999997  C 6.6 12.801499999999997  6.6884999999999994 12.707749999999997  6.866249999999999 12.707749999999997  L 7.518749999999999 12.707749999999997  L 7.518749999999999 9.7925  C 7.518749999999999 9.5975  7.611749999999999 9.5  7.796999999999999 9.5  L 11.232 9.48725  L 11.232 8.37725  L 7.204499999999999 8.37725  C 7.027499999999998 8.37725  6.938999999999999 8.307500000000001  6.938999999999999 8.169500000000001  L 6.962999999999999 8.06  C 7.0755 7.694000000000001  7.182749999999999 7.313750000000001  7.283249999999999 6.919250000000002  C 7.383749999999999 6.524750000000001  7.490999999999998 6.10325  7.603499999999999 5.656250000000002  C 7.635749999999998 5.4852500000000015  7.732499999999999 5.399750000000001  7.893749999999999 5.399750000000001  L 9.563249999999998 5.399750000000001  C 9.773249999999997 5.399750000000001  9.857249999999997 5.505500000000001  9.816749999999997 5.7170000000000005  C 9.792749999999998 5.814500000000002  9.762749999999999 5.924750000000001  9.72675 6.047000000000001  C 9.689999999999998 6.168500000000002  9.651749999999998 6.3027500000000005  9.611249999999998 6.449  L 16.85625 6.449  C 17.049 6.449  17.14575 6.54275  17.14575 6.729500000000001  L 17.14575 8.096  C 17.14575 8.2835  17.048999999999996 8.37725  16.8555 8.37725  L 13.336499999999997 8.37725  L 13.336499999999997 9.47525  L 16.553999999999995 9.4625  C 16.730999999999998 9.4625  16.819499999999998 9.55625  16.819499999999998 9.743000000000002  L 16.819499999999998 11.1095  C 16.819499999999998 11.297  16.730999999999998 11.39075  16.553249999999995 11.39075  L 13.335749999999997 11.39075  L 13.335749999999997 12.70775  L 17.133749999999996 12.70775  C 17.311499999999995 12.70775  17.4 12.801499999999999  17.4 12.989  Z M 11.232 11.39  L 9.611999999999998 11.39  L 9.611999999999998 12.70775  L 11.232 12.70775  L 11.232 11.39075  Z " fill-rule="evenodd" />
    </mask>
  </defs>
  <g transform="matrix(1 0 0 1 -91 -1205 )">
    <path d="M 16.083000000000002 0.59975  C 16.083000000000002 0.59975  16.092750000000002 2.0172499999999998  17.6625 2.25575  C 17.6625 2.25575  17.499750000000002 0.8397500000000002  16.083000000000002 0.59975  Z M 22.52175 5.830999999999999  C 22.52175 5.830999999999999  20.381999999999998 6.595999999999999  20.8155 8.773249999999999  C 20.8155 8.773249999999999  22.8765 7.808749999999999  22.52175 5.830999999999999  Z M 23.364 8.521999999999998  C 23.364 8.521999999999998  21.236250000000002 9.045499999999999  21.0855 11.093000000000002  L 21.318749999999998 10.860499999999998  C 21.405696185633502 10.794906272401512  21.512103531251825 10.760317284123596  21.621 10.762249999999998  C 21.7545 10.762249999999998  21.8835 10.818499999999997  22.01625 10.933249999999997  C 22.0485 10.961749999999999  22.079250000000002 10.993249999999998  22.11 11.026999999999997  C 22.74825 10.549249999999999  23.43675 9.744499999999999  23.364 8.521999999999998  Z M 20.64675 6.408500000000001  C 20.64675 6.408500000000001  21.9405 4.631  20.584500000000002 3.078499999999999  C 20.584500000000002 3.078499999999999  19.116000000000003 4.71725  20.64675 6.408500000000001  Z M 18.99825 3.9259999999999993  C 18.99825 3.9259999999999993  20.0595 2.467999999999999  18.9465 1.1937499999999992  C 18.9465 1.1937499999999992  17.74125 2.538499999999999  18.99825 3.9259999999999993  Z M 6.3375 2.2557499999999995  C 7.2041539278172255 2.1766493696886453  7.878947106921589 1.4691738998584294  7.917000000000001 0.5997499999999993  C 6.4995 0.8397499999999991  6.3375 2.2557499999999995  6.3375 2.2557499999999995  Z M 24 11.573000000000002  C 24 11.573000000000002  23.2815 11.447750000000001  22.4655 11.686999999999998  C 22.4715 11.704999999999998  22.4775 11.721499999999995  22.48275 11.740250000000001  C 22.536749999999998 11.9255  22.56375 12.131749999999997  22.56375 12.35375  C 22.56375 12.550250000000002  22.51275 12.7535  22.41075 12.95825  C 22.374750000000002 13.03025  22.335749999999997 13.100000000000003  22.29225 13.16825  C 22.944 12.914750000000002  23.616 12.445250000000001  24 11.573000000000002  Z M 18.747 19.72625  C 18.747 19.72625  16.392 17.997500000000002  14.214749999999999 19.887500000000003  C 14.214749999999999 19.887500000000003  16.74225 21.400249999999996  18.747 19.72625  Z M 9.783000000000001 19.72625  C 9.783000000000001 19.72625  7.428 17.997500000000002  5.25 19.887500000000003  C 5.25 19.887500000000003  7.777500000000001 21.400249999999996  9.783000000000001 19.72625  Z M 18.615750000000002 18.36725  L 18.49425 18.365000000000002  L 18.519000000000002 18.357499999999998  C 18.144172053312317 18.320098007519654  17.778447183220905 18.219155914387628  17.437500000000004 18.058999999999997  C 17.437500000000004 18.058999999999997  17.820750000000004 17.582  18.48525 17.18675  C 20.00025 16.22075  21.744 16.89875  21.744 16.89875  C 20.990250000000003 17.969749999999998  19.9005 18.296  19.005 18.356749999999998  L 19.001999999999995 18.368  C 18.8913188378642 18.373522243551612  18.780431162135795 18.373522243551612  18.669749999999997 18.368  L 18.61575 18.368  Z M 3.0382500000000006 17.726  C 2.7276622528532766 17.505129123338516  2.4574586051692022 17.23238835220201  2.2395000000000005 16.91975  C 2.2395000000000005 16.91975  2.9542500000000005 16.6415  3.86775 16.69475  C 4.203 16.7075  4.5127500000000005 16.7735  4.79475 16.86875  C 4.92525 16.91225  5.05575 16.96475  5.18625 17.0285  C 6.053999999999999 17.4395  6.56625 18.07775  6.56625 18.07775  C 5.369250000000001 18.63275  4.2540000000000004 18.362000000000002  3.447000000000001 17.9615  L 3.4395000000000007 17.969  C 3.337089512778202 17.916690341581372  3.237456140475958 17.85911326713535  3.141000000000001 17.7965  C 3.09987629038901 17.77237060063682  3.059121586412001 17.747617743620108  3.0187500000000007 17.722250000000003  L 3.0382500000000006 17.726  Z M 22.927500000000002 14.141000000000005  C 22.927500000000002 14.141000000000005  22.18125 14.011250000000008  21.301499999999997 14.234749999999998  C 20.963534237882357 14.520544991409533  20.60142863211926 14.77650321585746  20.21925 14.99975  L 20.22075 15.022250000000001  C 20.22675 15.102500000000004  20.22975 15.179750000000002  20.22975 15.251750000000001  C 20.22975 15.450500000000005  20.211 15.618500000000004  20.171999999999997 15.764750000000003  C 20.136979553790606 15.905645129169272  20.076759948493475 16.03904298900469  19.99425 16.158500000000004  C 19.97175 16.1885  19.9485 16.218500000000002  19.923000000000002 16.246250000000003  C 20.8755 16.10375  22.269750000000002 15.635000000000002  22.927500000000002 14.141000000000005  Z M 3.86475 16.209500000000002  C 3.7874999999999996 16.1345  3.7147499999999996 16.0565  3.64425 15.9755  C 3.5384342654196876 15.853209631538924  3.441677655540378 15.7233652690584  3.35475 15.587  C 3.269676753509669 15.453684871172854  3.198074316969376 15.312238654428342  3.141 15.164750000000002  C 3.082290472880409 15.017938464719503  3.0510225654590317 14.861598927612611  3.0487499999999996 14.703500000000002  C 3.0487499999999996 14.597750000000005  3.0682499999999995 14.48375  3.1035 14.361500000000001  C 2.061 13.968500000000002  1.0724999999999998 14.141  1.0724999999999998 14.141  C 1.6829999999999998 15.527750000000001  2.9265 16.031000000000002  3.86475 16.209500000000002  Z M 5.0535 1.1929999999999996  C 3.9404999999999997 2.468  5.0017499999999995 3.926  5.0017499999999995 3.926  C 6.258749999999999 2.5385  5.0535 1.1937499999999996  5.0535 1.1937499999999996  Z M 3.4717499999999997 13.450999999999999  C 3.4717499999999997 13.450999999999999  0.9164999999999996 13.6535  0 11.57375  C 0 11.57375  2.5027500000000003 11.135750000000003  3.4717499999999997 13.450999999999999  Z M 0.636 8.522000000000002  C 0.636 8.522000000000002  3.108 9.129500000000002  2.91375 11.597  L 2.88975 11.588  C 2.6384999999999996 11.492750000000001  0.51 10.6265  0.636 8.52125  Z M 3.1845000000000003 8.774000000000001  C 3.1845000000000003 8.774000000000001  1.1235000000000002 7.809500000000002  1.47825 5.831750000000001  C 1.47825 5.831750000000001  3.618 6.596750000000002  3.1845000000000003 8.774000000000001  Z M 3.35325 6.409250000000001  C 3.35325 6.409250000000001  2.0595 4.631750000000001  3.4155 3.079250000000002  C 3.4155 3.079250000000002  4.884 4.718000000000002  3.35325 6.409250000000001  Z M 17.4 12.989  L 17.4 14.367500000000001  C 17.4 14.555  17.311500000000002 14.647999999999998  17.13375 14.647999999999998  L 13.336500000000001 14.647999999999998  L 13.336500000000001 16.307  C 13.336500000000001 16.502  13.239 16.5995  13.04625 16.5995  L 11.52225 16.5995  C 11.32875 16.5995  11.232 16.502  11.232 16.307  L 11.232 14.647999999999998  L 6.866249999999999 14.647999999999998  C 6.6884999999999994 14.647999999999998  6.6 14.554249999999998  6.6 14.367500000000001  L 6.6 12.988999999999997  C 6.6 12.801499999999997  6.6884999999999994 12.707749999999997  6.866249999999999 12.707749999999997  L 7.518749999999999 12.707749999999997  L 7.518749999999999 9.7925  C 7.518749999999999 9.5975  7.611749999999999 9.5  7.796999999999999 9.5  L 11.232 9.48725  L 11.232 8.37725  L 7.204499999999999 8.37725  C 7.027499999999998 8.37725  6.938999999999999 8.307500000000001  6.938999999999999 8.169500000000001  L 6.962999999999999 8.06  C 7.0755 7.694000000000001  7.182749999999999 7.313750000000001  7.283249999999999 6.919250000000002  C 7.383749999999999 6.524750000000001  7.490999999999998 6.10325  7.603499999999999 5.656250000000002  C 7.635749999999998 5.4852500000000015  7.732499999999999 5.399750000000001  7.893749999999999 5.399750000000001  L 9.563249999999998 5.399750000000001  C 9.773249999999997 5.399750000000001  9.857249999999997 5.505500000000001  9.816749999999997 5.7170000000000005  C 9.792749999999998 5.814500000000002  9.762749999999999 5.924750000000001  9.72675 6.047000000000001  C 9.689999999999998 6.168500000000002  9.651749999999998 6.3027500000000005  9.611249999999998 6.449  L 16.85625 6.449  C 17.049 6.449  17.14575 6.54275  17.14575 6.729500000000001  L 17.14575 8.096  C 17.14575 8.2835  17.048999999999996 8.37725  16.8555 8.37725  L 13.336499999999997 8.37725  L 13.336499999999997 9.47525  L 16.553999999999995 9.4625  C 16.730999999999998 9.4625  16.819499999999998 9.55625  16.819499999999998 9.743000000000002  L 16.819499999999998 11.1095  C 16.819499999999998 11.297  16.730999999999998 11.39075  16.553249999999995 11.39075  L 13.335749999999997 11.39075  L 13.335749999999997 12.70775  L 17.133749999999996 12.70775  C 17.311499999999995 12.70775  17.4 12.801499999999999  17.4 12.989  Z M 11.232 11.39  L 9.611999999999998 11.39  L 9.611999999999998 12.70775  L 11.232 12.70775  L 11.232 11.39075  Z " fill-rule="nonzero" fill="rgba(230, 69, 67, 1)" stroke="none" transform="matrix(1 0 0 1 91 1205 )" class="fill" />
    <path d="M 16.083000000000002 0.59975  C 16.083000000000002 0.59975  16.092750000000002 2.0172499999999998  17.6625 2.25575  C 17.6625 2.25575  17.499750000000002 0.8397500000000002  16.083000000000002 0.59975  Z " stroke-width="0" stroke-dasharray="0" stroke="rgba(255, 255, 255, 0)" fill="none" transform="matrix(1 0 0 1 91 1205 )" class="stroke" mask="url(#Clip16355)" />
    <path d="M 22.52175 5.830999999999999  C 22.52175 5.830999999999999  20.381999999999998 6.595999999999999  20.8155 8.773249999999999  C 20.8155 8.773249999999999  22.8765 7.808749999999999  22.52175 5.830999999999999  Z " stroke-width="0" stroke-dasharray="0" stroke="rgba(255, 255, 255, 0)" fill="none" transform="matrix(1 0 0 1 91 1205 )" class="stroke" mask="url(#Clip16355)" />
    <path d="M 23.364 8.521999999999998  C 23.364 8.521999999999998  21.236250000000002 9.045499999999999  21.0855 11.093000000000002  L 21.318749999999998 10.860499999999998  C 21.405696185633502 10.794906272401512  21.512103531251825 10.760317284123596  21.621 10.762249999999998  C 21.7545 10.762249999999998  21.8835 10.818499999999997  22.01625 10.933249999999997  C 22.0485 10.961749999999999  22.079250000000002 10.993249999999998  22.11 11.026999999999997  C 22.74825 10.549249999999999  23.43675 9.744499999999999  23.364 8.521999999999998  Z " stroke-width="0" stroke-dasharray="0" stroke="rgba(255, 255, 255, 0)" fill="none" transform="matrix(1 0 0 1 91 1205 )" class="stroke" mask="url(#Clip16355)" />
    <path d="M 20.64675 6.408500000000001  C 20.64675 6.408500000000001  21.9405 4.631  20.584500000000002 3.078499999999999  C 20.584500000000002 3.078499999999999  19.116000000000003 4.71725  20.64675 6.408500000000001  Z " stroke-width="0" stroke-dasharray="0" stroke="rgba(255, 255, 255, 0)" fill="none" transform="matrix(1 0 0 1 91 1205 )" class="stroke" mask="url(#Clip16355)" />
    <path d="M 18.99825 3.9259999999999993  C 18.99825 3.9259999999999993  20.0595 2.467999999999999  18.9465 1.1937499999999992  C 18.9465 1.1937499999999992  17.74125 2.538499999999999  18.99825 3.9259999999999993  Z " stroke-width="0" stroke-dasharray="0" stroke="rgba(255, 255, 255, 0)" fill="none" transform="matrix(1 0 0 1 91 1205 )" class="stroke" mask="url(#Clip16355)" />
    <path d="M 6.3375 2.2557499999999995  C 7.2041539278172255 2.1766493696886453  7.878947106921589 1.4691738998584294  7.917000000000001 0.5997499999999993  C 6.4995 0.8397499999999991  6.3375 2.2557499999999995  6.3375 2.2557499999999995  Z " stroke-width="0" stroke-dasharray="0" stroke="rgba(255, 255, 255, 0)" fill="none" transform="matrix(1 0 0 1 91 1205 )" class="stroke" mask="url(#Clip16355)" />
    <path d="M 24 11.573000000000002  C 24 11.573000000000002  23.2815 11.447750000000001  22.4655 11.686999999999998  C 22.4715 11.704999999999998  22.4775 11.721499999999995  22.48275 11.740250000000001  C 22.536749999999998 11.9255  22.56375 12.131749999999997  22.56375 12.35375  C 22.56375 12.550250000000002  22.51275 12.7535  22.41075 12.95825  C 22.374750000000002 13.03025  22.335749999999997 13.100000000000003  22.29225 13.16825  C 22.944 12.914750000000002  23.616 12.445250000000001  24 11.573000000000002  Z " stroke-width="0" stroke-dasharray="0" stroke="rgba(255, 255, 255, 0)" fill="none" transform="matrix(1 0 0 1 91 1205 )" class="stroke" mask="url(#Clip16355)" />
    <path d="M 18.747 19.72625  C 18.747 19.72625  16.392 17.997500000000002  14.214749999999999 19.887500000000003  C 14.214749999999999 19.887500000000003  16.74225 21.400249999999996  18.747 19.72625  Z " stroke-width="0" stroke-dasharray="0" stroke="rgba(255, 255, 255, 0)" fill="none" transform="matrix(1 0 0 1 91 1205 )" class="stroke" mask="url(#Clip16355)" />
    <path d="M 9.783000000000001 19.72625  C 9.783000000000001 19.72625  7.428 17.997500000000002  5.25 19.887500000000003  C 5.25 19.887500000000003  7.777500000000001 21.400249999999996  9.783000000000001 19.72625  Z " stroke-width="0" stroke-dasharray="0" stroke="rgba(255, 255, 255, 0)" fill="none" transform="matrix(1 0 0 1 91 1205 )" class="stroke" mask="url(#Clip16355)" />
    <path d="M 18.615750000000002 18.36725  L 18.49425 18.365000000000002  L 18.519000000000002 18.357499999999998  C 18.144172053312317 18.320098007519654  17.778447183220905 18.219155914387628  17.437500000000004 18.058999999999997  C 17.437500000000004 18.058999999999997  17.820750000000004 17.582  18.48525 17.18675  C 20.00025 16.22075  21.744 16.89875  21.744 16.89875  C 20.990250000000003 17.969749999999998  19.9005 18.296  19.005 18.356749999999998  L 19.001999999999995 18.368  C 18.8913188378642 18.373522243551612  18.780431162135795 18.373522243551612  18.669749999999997 18.368  L 18.61575 18.368  Z " stroke-width="0" stroke-dasharray="0" stroke="rgba(255, 255, 255, 0)" fill="none" transform="matrix(1 0 0 1 91 1205 )" class="stroke" mask="url(#Clip16355)" />
    <path d="M 3.0382500000000006 17.726  C 2.7276622528532766 17.505129123338516  2.4574586051692022 17.23238835220201  2.2395000000000005 16.91975  C 2.2395000000000005 16.91975  2.9542500000000005 16.6415  3.86775 16.69475  C 4.203 16.7075  4.5127500000000005 16.7735  4.79475 16.86875  C 4.92525 16.91225  5.05575 16.96475  5.18625 17.0285  C 6.053999999999999 17.4395  6.56625 18.07775  6.56625 18.07775  C 5.369250000000001 18.63275  4.2540000000000004 18.362000000000002  3.447000000000001 17.9615  L 3.4395000000000007 17.969  C 3.337089512778202 17.916690341581372  3.237456140475958 17.85911326713535  3.141000000000001 17.7965  C 3.09987629038901 17.77237060063682  3.059121586412001 17.747617743620108  3.0187500000000007 17.722250000000003  L 3.0382500000000006 17.726  Z " stroke-width="0" stroke-dasharray="0" stroke="rgba(255, 255, 255, 0)" fill="none" transform="matrix(1 0 0 1 91 1205 )" class="stroke" mask="url(#Clip16355)" />
    <path d="M 22.927500000000002 14.141000000000005  C 22.927500000000002 14.141000000000005  22.18125 14.011250000000008  21.301499999999997 14.234749999999998  C 20.963534237882357 14.520544991409533  20.60142863211926 14.77650321585746  20.21925 14.99975  L 20.22075 15.022250000000001  C 20.22675 15.102500000000004  20.22975 15.179750000000002  20.22975 15.251750000000001  C 20.22975 15.450500000000005  20.211 15.618500000000004  20.171999999999997 15.764750000000003  C 20.136979553790606 15.905645129169272  20.076759948493475 16.03904298900469  19.99425 16.158500000000004  C 19.97175 16.1885  19.9485 16.218500000000002  19.923000000000002 16.246250000000003  C 20.8755 16.10375  22.269750000000002 15.635000000000002  22.927500000000002 14.141000000000005  Z " stroke-width="0" stroke-dasharray="0" stroke="rgba(255, 255, 255, 0)" fill="none" transform="matrix(1 0 0 1 91 1205 )" class="stroke" mask="url(#Clip16355)" />
    <path d="M 3.86475 16.209500000000002  C 3.7874999999999996 16.1345  3.7147499999999996 16.0565  3.64425 15.9755  C 3.5384342654196876 15.853209631538924  3.441677655540378 15.7233652690584  3.35475 15.587  C 3.269676753509669 15.453684871172854  3.198074316969376 15.312238654428342  3.141 15.164750000000002  C 3.082290472880409 15.017938464719503  3.0510225654590317 14.861598927612611  3.0487499999999996 14.703500000000002  C 3.0487499999999996 14.597750000000005  3.0682499999999995 14.48375  3.1035 14.361500000000001  C 2.061 13.968500000000002  1.0724999999999998 14.141  1.0724999999999998 14.141  C 1.6829999999999998 15.527750000000001  2.9265 16.031000000000002  3.86475 16.209500000000002  Z " stroke-width="0" stroke-dasharray="0" stroke="rgba(255, 255, 255, 0)" fill="none" transform="matrix(1 0 0 1 91 1205 )" class="stroke" mask="url(#Clip16355)" />
    <path d="M 5.0535 1.1929999999999996  C 3.9404999999999997 2.468  5.0017499999999995 3.926  5.0017499999999995 3.926  C 6.258749999999999 2.5385  5.0535 1.1937499999999996  5.0535 1.1937499999999996  Z " stroke-width="0" stroke-dasharray="0" stroke="rgba(255, 255, 255, 0)" fill="none" transform="matrix(1 0 0 1 91 1205 )" class="stroke" mask="url(#Clip16355)" />
    <path d="M 3.4717499999999997 13.450999999999999  C 3.4717499999999997 13.450999999999999  0.9164999999999996 13.6535  0 11.57375  C 0 11.57375  2.5027500000000003 11.135750000000003  3.4717499999999997 13.450999999999999  Z " stroke-width="0" stroke-dasharray="0" stroke="rgba(255, 255, 255, 0)" fill="none" transform="matrix(1 0 0 1 91 1205 )" class="stroke" mask="url(#Clip16355)" />
    <path d="M 0.636 8.522000000000002  C 0.636 8.522000000000002  3.108 9.129500000000002  2.91375 11.597  L 2.88975 11.588  C 2.6384999999999996 11.492750000000001  0.51 10.6265  0.636 8.52125  Z " stroke-width="0" stroke-dasharray="0" stroke="rgba(255, 255, 255, 0)" fill="none" transform="matrix(1 0 0 1 91 1205 )" class="stroke" mask="url(#Clip16355)" />
    <path d="M 3.1845000000000003 8.774000000000001  C 3.1845000000000003 8.774000000000001  1.1235000000000002 7.809500000000002  1.47825 5.831750000000001  C 1.47825 5.831750000000001  3.618 6.596750000000002  3.1845000000000003 8.774000000000001  Z " stroke-width="0" stroke-dasharray="0" stroke="rgba(255, 255, 255, 0)" fill="none" transform="matrix(1 0 0 1 91 1205 )" class="stroke" mask="url(#Clip16355)" />
    <path d="M 3.35325 6.409250000000001  C 3.35325 6.409250000000001  2.0595 4.631750000000001  3.4155 3.079250000000002  C 3.4155 3.079250000000002  4.884 4.718000000000002  3.35325 6.409250000000001  Z " stroke-width="0" stroke-dasharray="0" stroke="rgba(255, 255, 255, 0)" fill="none" transform="matrix(1 0 0 1 91 1205 )" class="stroke" mask="url(#Clip16355)" />
    <path d="M 17.4 12.989  L 17.4 14.367500000000001  C 17.4 14.555  17.311500000000002 14.647999999999998  17.13375 14.647999999999998  L 13.336500000000001 14.647999999999998  L 13.336500000000001 16.307  C 13.336500000000001 16.502  13.239 16.5995  13.04625 16.5995  L 11.52225 16.5995  C 11.32875 16.5995  11.232 16.502  11.232 16.307  L 11.232 14.647999999999998  L 6.866249999999999 14.647999999999998  C 6.6884999999999994 14.647999999999998  6.6 14.554249999999998  6.6 14.367500000000001  L 6.6 12.988999999999997  C 6.6 12.801499999999997  6.6884999999999994 12.707749999999997  6.866249999999999 12.707749999999997  L 7.518749999999999 12.707749999999997  L 7.518749999999999 9.7925  C 7.518749999999999 9.5975  7.611749999999999 9.5  7.796999999999999 9.5  L 11.232 9.48725  L 11.232 8.37725  L 7.204499999999999 8.37725  C 7.027499999999998 8.37725  6.938999999999999 8.307500000000001  6.938999999999999 8.169500000000001  L 6.962999999999999 8.06  C 7.0755 7.694000000000001  7.182749999999999 7.313750000000001  7.283249999999999 6.919250000000002  C 7.383749999999999 6.524750000000001  7.490999999999998 6.10325  7.603499999999999 5.656250000000002  C 7.635749999999998 5.4852500000000015  7.732499999999999 5.399750000000001  7.893749999999999 5.399750000000001  L 9.563249999999998 5.399750000000001  C 9.773249999999997 5.399750000000001  9.857249999999997 5.505500000000001  9.816749999999997 5.7170000000000005  C 9.792749999999998 5.814500000000002  9.762749999999999 5.924750000000001  9.72675 6.047000000000001  C 9.689999999999998 6.168500000000002  9.651749999999998 6.3027500000000005  9.611249999999998 6.449  L 16.85625 6.449  C 17.049 6.449  17.14575 6.54275  17.14575 6.729500000000001  L 17.14575 8.096  C 17.14575 8.2835  17.048999999999996 8.37725  16.8555 8.37725  L 13.336499999999997 8.37725  L 13.336499999999997 9.47525  L 16.553999999999995 9.4625  C 16.730999999999998 9.4625  16.819499999999998 9.55625  16.819499999999998 9.743000000000002  L 16.819499999999998 11.1095  C 16.819499999999998 11.297  16.730999999999998 11.39075  16.553249999999995 11.39075  L 13.335749999999997 11.39075  L 13.335749999999997 12.70775  L 17.133749999999996 12.70775  C 17.311499999999995 12.70775  17.4 12.801499999999999  17.4 12.989  Z " stroke-width="0" stroke-dasharray="0" stroke="rgba(255, 255, 255, 0)" fill="none" transform="matrix(1 0 0 1 91 1205 )" class="stroke" mask="url(#Clip16355)" />
    <path d="M 11.232 11.39  L 9.611999999999998 11.39  L 9.611999999999998 12.70775  L 11.232 12.70775  L 11.232 11.39075  Z " stroke-width="0" stroke-dasharray="0" stroke="rgba(255, 255, 255, 0)" fill="none" transform="matrix(1 0 0 1 91 1205 )" class="stroke" mask="url(#Clip16355)" />
  </g>
</svg>