<?xml version="1.0" encoding="utf-8"?>
<svg version="1.1" xmlns:xlink="http://www.w3.org/1999/xlink" width="16px" height="16px" xmlns="http://www.w3.org/2000/svg">
  <defs>
    <pattern id="BGPattern" patternUnits="userSpaceOnUse" alignment="0 0" imageRepeat="None" />
    <mask fill="white" id="Clip16403">
      <path d="M 0.21064042968750002 9.7495775859375  C 1.115336859375 12.981565476562501  4.082416359375 15.3520060546875  7.6033308046874994 15.3520060546875  C 11.842737328125 15.3520060546875  15.279333843749999 11.915336859375  15.279333843749999 7.6760030390625  C 15.279333843749999 4.110267984375  12.848084789062499 1.1123936484375  9.5528538984375 0.24973807031249962  C 4.8237638203125 1.2296139375  1.1132111953125001 4.9925995546875  0.21064042968750002 9.7495775859375  Z " fill-rule="evenodd" />
    </mask>
  </defs>
  <g transform="matrix(1 0 0 1 -91 -1619 )">
    <path d="M 0.21064042968750002 9.7495775859375  C 1.115336859375 12.981565476562501  4.082416359375 15.3520060546875  7.6033308046874994 15.3520060546875  C 11.842737328125 15.3520060546875  15.279333843749999 11.915336859375  15.279333843749999 7.6760030390625  C 15.279333843749999 4.110267984375  12.848084789062499 1.1123936484375  9.5528538984375 0.24973807031249962  C 4.8237638203125 1.2296139375  1.1132111953125001 4.9925995546875  0.21064042968750002 9.7495775859375  Z " fill-rule="nonzero" fill="rgba(255, 255, 255, 0.2)" stroke="none" transform="matrix(1 0 0 1 91 1619 )" class="fill" />
    <path d="M 0.21064042968750002 9.7495775859375  C 1.115336859375 12.981565476562501  4.082416359375 15.3520060546875  7.6033308046874994 15.3520060546875  C 11.842737328125 15.3520060546875  15.279333843749999 11.915336859375  15.279333843749999 7.6760030390625  C 15.279333843749999 4.110267984375  12.848084789062499 1.1123936484375  9.5528538984375 0.24973807031249962  C 4.8237638203125 1.2296139375  1.1132111953125001 4.9925995546875  0.21064042968750002 9.7495775859375  Z " stroke-width="0" stroke-dasharray="0" stroke="rgba(255, 255, 255, 0)" fill="none" transform="matrix(1 0 0 1 91 1619 )" class="stroke" mask="url(#Clip16403)" />
  </g>
</svg>