<?xml version="1.0" encoding="utf-8"?>
<svg version="1.1" xmlns:xlink="http://www.w3.org/1999/xlink" width="5px" height="3px" xmlns="http://www.w3.org/2000/svg">
  <defs>
    <pattern id="BGPattern" patternUnits="userSpaceOnUse" alignment="0 0" imageRepeat="None" />
    <mask fill="white" id="Clip20774">
      <path d="M 0.3439941406249982 0.40000000000000213  L 0.34701171875000014 0.3999999999999986  L 0.34701171875000014 2.013994140624998  C 0.3470770985062437 2.0799548807259107  0.36032483668648396 2.1452373439088355  0.3859765624999998 2.206005859374997  C 0.41101265279544386 2.2640690517972786  0.4466278420750349 2.3169702743673817  0.4910058593749991 2.3620117187500007  C 0.5842329964870459 2.454715317391898  0.7105100322215812 2.5065226321360754  0.8419824218749987 2.506005859374998  C 0.9079615930759086 2.5060948453329885  0.9732763891555898 2.4928305802151876  1.0339941406249977 2.4670117187499976  C 1.0921229857223533 2.4421090647523656  1.1450459905067802 2.406489149419521  1.1899999999999977 2.3620117187500007  L 2.3239941406249986 1.2279882812499991  L 3.457988281249996 2.3620117187500007  C 3.5508982529442914 2.455450568032724  3.6772290661672553 2.507988655279288  3.8089981118324427 2.507988655279288  C 4.082379062998685 2.507988655279288  4.303998111832442 2.286369606445529  4.303998111832442 2.0129886552792833  C 4.303998111832442 2.012327721322727  4.303996788093974 2.011666788029121  4.303994140624997 2.0110058593750004  L 4.303994140624999 0.40000000000000213  C 3.1148510586708245 1.2312187000314445  1.5331372225791728 1.2312187000314445  0.3439941406249982 0.40000000000000213  Z " fill-rule="evenodd" />
    </mask>
  </defs>
  <g transform="matrix(1 0 0 1 -98 -1495 )">
    <path d="M 0.3439941406249982 0.40000000000000213  L 0.34701171875000014 0.3999999999999986  L 0.34701171875000014 2.013994140624998  C 0.3470770985062437 2.0799548807259107  0.36032483668648396 2.1452373439088355  0.3859765624999998 2.206005859374997  C 0.41101265279544386 2.2640690517972786  0.4466278420750349 2.3169702743673817  0.4910058593749991 2.3620117187500007  C 0.5842329964870459 2.454715317391898  0.7105100322215812 2.5065226321360754  0.8419824218749987 2.506005859374998  C 0.9079615930759086 2.5060948453329885  0.9732763891555898 2.4928305802151876  1.0339941406249977 2.4670117187499976  C 1.0921229857223533 2.4421090647523656  1.1450459905067802 2.406489149419521  1.1899999999999977 2.3620117187500007  L 2.3239941406249986 1.2279882812499991  L 3.457988281249996 2.3620117187500007  C 3.5508982529442914 2.455450568032724  3.6772290661672553 2.507988655279288  3.8089981118324427 2.507988655279288  C 4.082379062998685 2.507988655279288  4.303998111832442 2.286369606445529  4.303998111832442 2.0129886552792833  C 4.303998111832442 2.012327721322727  4.303996788093974 2.011666788029121  4.303994140624997 2.0110058593750004  L 4.303994140624999 0.40000000000000213  C 3.1148510586708245 1.2312187000314445  1.5331372225791728 1.2312187000314445  0.3439941406249982 0.40000000000000213  Z " fill-rule="nonzero" fill="rgba(255, 255, 255, 1)" stroke="none" transform="matrix(1 0 0 1 98 1495 )" class="fill" />
    <path d="M 0.3439941406249982 0.40000000000000213  L 0.34701171875000014 0.3999999999999986  L 0.34701171875000014 2.013994140624998  C 0.3470770985062437 2.0799548807259107  0.36032483668648396 2.1452373439088355  0.3859765624999998 2.206005859374997  C 0.41101265279544386 2.2640690517972786  0.4466278420750349 2.3169702743673817  0.4910058593749991 2.3620117187500007  C 0.5842329964870459 2.454715317391898  0.7105100322215812 2.5065226321360754  0.8419824218749987 2.506005859374998  C 0.9079615930759086 2.5060948453329885  0.9732763891555898 2.4928305802151876  1.0339941406249977 2.4670117187499976  C 1.0921229857223533 2.4421090647523656  1.1450459905067802 2.406489149419521  1.1899999999999977 2.3620117187500007  L 2.3239941406249986 1.2279882812499991  L 3.457988281249996 2.3620117187500007  C 3.5508982529442914 2.455450568032724  3.6772290661672553 2.507988655279288  3.8089981118324427 2.507988655279288  C 4.082379062998685 2.507988655279288  4.303998111832442 2.286369606445529  4.303998111832442 2.0129886552792833  C 4.303998111832442 2.012327721322727  4.303996788093974 2.011666788029121  4.303994140624997 2.0110058593750004  L 4.303994140624999 0.40000000000000213  C 3.1148510586708245 1.2312187000314445  1.5331372225791728 1.2312187000314445  0.3439941406249982 0.40000000000000213  Z " stroke-width="0" stroke-dasharray="0" stroke="rgba(255, 255, 255, 0)" fill="none" transform="matrix(1 0 0 1 98 1495 )" class="stroke" mask="url(#Clip20774)" />
  </g>
</svg>