<?xml version="1.0" encoding="utf-8"?>
<svg version="1.1" xmlns:xlink="http://www.w3.org/1999/xlink" width="6px" height="6px" xmlns="http://www.w3.org/2000/svg">
  <defs>
    <pattern id="BGPattern" patternUnits="userSpaceOnUse" alignment="0 0" imageRepeat="None" />
    <mask fill="white" id="Clip10577">
      <path d="M 5.84375 1.581250009765629  C 5.84374998381978 3.9181048514394377  3.9493548319081846 5.812499990234375  1.6124999902343742 5.812499990234372  C 1.0947330372680053 5.812499990234372  0.6749999902343742 5.392766943200741  0.6749999902343742 4.874999990234372  C 0.6749999902343742 4.357233037268006  1.0947330372680053 3.9374999902343717  1.6124999902343742 3.9374999902343717  C 2.9138209259754433 3.9374999902343717  3.9687499838197766 2.882570945506693  3.9687499999999964 1.5812500097656255  C 3.9687499999999964 1.0634830567992566  4.388483047033631 0.6437500097656255  4.9062499999999964 0.6437500097656255  C 5.424016952966365 0.6437500097656255  5.8437499999999964 1.0634830567992566  5.8437499999999964 1.5812500097656255  Z " fill-rule="evenodd" />
    </mask>
  </defs>
  <g transform="matrix(1 0 0 1 -101 -1081 )">
    <path d="M 5.84375 1.581250009765629  C 5.84374998381978 3.9181048514394377  3.9493548319081846 5.812499990234375  1.6124999902343742 5.812499990234372  C 1.0947330372680053 5.812499990234372  0.6749999902343742 5.392766943200741  0.6749999902343742 4.874999990234372  C 0.6749999902343742 4.357233037268006  1.0947330372680053 3.9374999902343717  1.6124999902343742 3.9374999902343717  C 2.9138209259754433 3.9374999902343717  3.9687499838197766 2.882570945506693  3.9687499999999964 1.5812500097656255  C 3.9687499999999964 1.0634830567992566  4.388483047033631 0.6437500097656255  4.9062499999999964 0.6437500097656255  C 5.424016952966365 0.6437500097656255  5.8437499999999964 1.0634830567992566  5.8437499999999964 1.5812500097656255  Z " fill-rule="nonzero" fill="rgba(253, 143, 158, 1)" stroke="none" transform="matrix(1 0 0 1 101 1081 )" class="fill" />
    <path d="M 5.84375 1.581250009765629  C 5.84374998381978 3.9181048514394377  3.9493548319081846 5.812499990234375  1.6124999902343742 5.812499990234372  C 1.0947330372680053 5.812499990234372  0.6749999902343742 5.392766943200741  0.6749999902343742 4.874999990234372  C 0.6749999902343742 4.357233037268006  1.0947330372680053 3.9374999902343717  1.6124999902343742 3.9374999902343717  C 2.9138209259754433 3.9374999902343717  3.9687499838197766 2.882570945506693  3.9687499999999964 1.5812500097656255  C 3.9687499999999964 1.0634830567992566  4.388483047033631 0.6437500097656255  4.9062499999999964 0.6437500097656255  C 5.424016952966365 0.6437500097656255  5.8437499999999964 1.0634830567992566  5.8437499999999964 1.5812500097656255  Z " stroke-width="0" stroke-dasharray="0" stroke="rgba(255, 255, 255, 0)" fill="none" transform="matrix(1 0 0 1 101 1081 )" class="stroke" mask="url(#Clip10577)" />
  </g>
</svg>