<?xml version="1.0" encoding="utf-8"?>
<svg version="1.1" xmlns:xlink="http://www.w3.org/1999/xlink" width="21px" height="21px" xmlns="http://www.w3.org/2000/svg">
  <defs>
    <pattern id="BGPattern" patternUnits="userSpaceOnUse" alignment="0 0" imageRepeat="None" />
    <mask fill="white" id="Clip8487">
      <path d="M 20.546875 5.061718750000001  L 20.546875 4.7265625  C 20.546875 3.25  19.932812499999997 1.9117187500000006  18.946093750000003 0.9507812500000004  L 0.9507812500000004 18.946093750000003  C 1.9117187500000006 19.932812499999997  3.25 20.546875  4.7265625 20.546875  L 5.061718750000001 20.546875  L 20.546875 5.061718750000001  Z " fill-rule="evenodd" />
    </mask>
  </defs>
  <g transform="matrix(1 0 0 1 -93 -1344 )">
    <path d="M 20.546875 5.061718750000001  L 20.546875 4.7265625  C 20.546875 3.25  19.932812499999997 1.9117187500000006  18.946093750000003 0.9507812500000004  L 0.9507812500000004 18.946093750000003  C 1.9117187500000006 19.932812499999997  3.25 20.546875  4.7265625 20.546875  L 5.061718750000001 20.546875  L 20.546875 5.061718750000001  Z " fill-rule="nonzero" fill="rgba(255, 98, 89, 1)" stroke="none" transform="matrix(1 0 0 1 93 1344 )" class="fill" />
    <path d="M 20.546875 5.061718750000001  L 20.546875 4.7265625  C 20.546875 3.25  19.932812499999997 1.9117187500000006  18.946093750000003 0.9507812500000004  L 0.9507812500000004 18.946093750000003  C 1.9117187500000006 19.932812499999997  3.25 20.546875  4.7265625 20.546875  L 5.061718750000001 20.546875  L 20.546875 5.061718750000001  Z " stroke-width="0" stroke-dasharray="0" stroke="rgba(255, 255, 255, 0)" fill="none" transform="matrix(1 0 0 1 93 1344 )" class="stroke" mask="url(#Clip8487)" />
  </g>
</svg>