<?xml version="1.0" encoding="utf-8"?>
<svg version="1.1" xmlns:xlink="http://www.w3.org/1999/xlink" width="10px" height="8px" xmlns="http://www.w3.org/2000/svg">
  <defs>
    <pattern id="BGPattern" patternUnits="userSpaceOnUse" alignment="0 0" imageRepeat="None" />
    <mask fill="white" id="Clip14350">
      <path d="M 9.640625 6.32421875  C 9.640625 6.790624999999999  9.263281249999999 7.16796875  8.796875 7.16796875  L 1.203125 7.16796875  C 0.7367187500000005 7.16796875  0.359375 6.790624999999999  0.359375 6.32421875  L 0.359375 0.83984375  L 9.640625 0.83984375  L 9.640625 6.32421875  Z " fill-rule="evenodd" />
    </mask>
  </defs>
  <g transform="matrix(1 0 0 1 -98 -1352 )">
    <path d="M 9.640625 6.32421875  C 9.640625 6.790624999999999  9.263281249999999 7.16796875  8.796875 7.16796875  L 1.203125 7.16796875  C 0.7367187500000005 7.16796875  0.359375 6.790624999999999  0.359375 6.32421875  L 0.359375 0.83984375  L 9.640625 0.83984375  L 9.640625 6.32421875  Z " fill-rule="nonzero" fill="rgba(255, 205, 203, 1)" stroke="none" transform="matrix(1 0 0 1 98 1352 )" class="fill" />
    <path d="M 9.640625 6.32421875  C 9.640625 6.790624999999999  9.263281249999999 7.16796875  8.796875 7.16796875  L 1.203125 7.16796875  C 0.7367187500000005 7.16796875  0.359375 6.790624999999999  0.359375 6.32421875  L 0.359375 0.83984375  L 9.640625 0.83984375  L 9.640625 6.32421875  Z " stroke-width="0" stroke-dasharray="0" stroke="rgba(255, 255, 255, 0)" fill="none" transform="matrix(1 0 0 1 98 1352 )" class="stroke" mask="url(#Clip14350)" />
  </g>
</svg>