<?xml version="1.0" encoding="utf-8"?>
<svg version="1.1" xmlns:xlink="http://www.w3.org/1999/xlink" width="18px" height="16px" xmlns="http://www.w3.org/2000/svg">
  <defs>
    <pattern id="BGPattern" patternUnits="userSpaceOnUse" alignment="0 0" imageRepeat="None" />
    <mask fill="white" id="Clip3892">
      <path d="M 15.713096132812503 15.276305820312501  C 15.713096132812503 14.42349734375  15.021692648437504 13.7320211796875  14.168811515625002 13.732021203125  C 15.021692671875002 13.732021203125  15.71309615625 13.04061771875  15.713096132812503 12.1877365625  C 15.713096132812503 13.04061771875  16.404572296875003 13.732021203125  17.257380773437504 13.732021203125  C 16.857683578125002 13.732021203125  15.713096132812503 14.423497367187501  15.713096132812503 15.276305820312501  Z M 1.8327025078125008 2.8856926484375  C 1.8327025078125008 2.2836578281249995  1.344654070312501 1.7956093671875006  0.7426192265625002 1.7956093906249997  C 1.3446540468750001 1.7956093906249997  1.8327025078125008 1.3075609531249999  1.8327025078125008 0.7055261093750005  C 1.8327025078125008 1.3075609296875008  2.3207509453125006 1.7956093906249997  2.922785765625001 1.7956093906249997  C 2.640690375 1.7956093906249997  1.832702484375 2.2836578281249995  1.8327025078125008 2.8856926484375  Z " fill-rule="evenodd" />
    </mask>
  </defs>
  <g transform="matrix(1 0 0 1 -94 -1623 )">
    <path d="M 15.713096132812503 15.276305820312501  C 15.713096132812503 14.42349734375  15.021692648437504 13.7320211796875  14.168811515625002 13.732021203125  C 15.021692671875002 13.732021203125  15.71309615625 13.04061771875  15.713096132812503 12.1877365625  C 15.713096132812503 13.04061771875  16.404572296875003 13.732021203125  17.257380773437504 13.732021203125  C 16.857683578125002 13.732021203125  15.713096132812503 14.423497367187501  15.713096132812503 15.276305820312501  Z M 1.8327025078125008 2.8856926484375  C 1.8327025078125008 2.2836578281249995  1.344654070312501 1.7956093671875006  0.7426192265625002 1.7956093906249997  C 1.3446540468750001 1.7956093906249997  1.8327025078125008 1.3075609531249999  1.8327025078125008 0.7055261093750005  C 1.8327025078125008 1.3075609296875008  2.3207509453125006 1.7956093906249997  2.922785765625001 1.7956093906249997  C 2.640690375 1.7956093906249997  1.832702484375 2.2836578281249995  1.8327025078125008 2.8856926484375  Z " fill-rule="nonzero" fill="rgba(255, 255, 255, 0.4980392156862745)" stroke="none" transform="matrix(1 0 0 1 94 1623 )" class="fill" />
    <path d="M 15.713096132812503 15.276305820312501  C 15.713096132812503 14.42349734375  15.021692648437504 13.7320211796875  14.168811515625002 13.732021203125  C 15.021692671875002 13.732021203125  15.71309615625 13.04061771875  15.713096132812503 12.1877365625  C 15.713096132812503 13.04061771875  16.404572296875003 13.732021203125  17.257380773437504 13.732021203125  C 16.857683578125002 13.732021203125  15.713096132812503 14.423497367187501  15.713096132812503 15.276305820312501  Z " stroke-width="0" stroke-dasharray="0" stroke="rgba(255, 255, 255, 0)" fill="none" transform="matrix(1 0 0 1 94 1623 )" class="stroke" mask="url(#Clip3892)" />
    <path d="M 1.8327025078125008 2.8856926484375  C 1.8327025078125008 2.2836578281249995  1.344654070312501 1.7956093671875006  0.7426192265625002 1.7956093906249997  C 1.3446540468750001 1.7956093906249997  1.8327025078125008 1.3075609531249999  1.8327025078125008 0.7055261093750005  C 1.8327025078125008 1.3075609296875008  2.3207509453125006 1.7956093906249997  2.922785765625001 1.7956093906249997  C 2.640690375 1.7956093906249997  1.832702484375 2.2836578281249995  1.8327025078125008 2.8856926484375  Z " stroke-width="0" stroke-dasharray="0" stroke="rgba(255, 255, 255, 0)" fill="none" transform="matrix(1 0 0 1 94 1623 )" class="stroke" mask="url(#Clip3892)" />
  </g>
</svg>