<svg t="1750325021094" class="icon" viewBox="0 0 1024 1024" version="1.1" xmlns="http://www.w3.org/2000/svg" p-id="108677" width="200" height="200"><path d="M 427.631 150.163 c -58.267 95.022 -141.511 155.612 -249.73 181.765 c -108.217 26.155 -126.224 81.673 -54.019 166.554 c 72.204 84.883 103.998 182.918 95.387 294.104 s 38.533 145.499 141.43 102.936 c 102.893 -42.562 205.788 -42.562 308.684 0 c 102.891 42.562 150.036 8.25 141.421 -102.936 c -8.608 -111.186 23.188 -209.221 95.393 -294.104 c 72.201 -84.881 54.195 -140.399 -54.021 -166.554 c -108.217 -26.153 -191.463 -86.743 -249.73 -181.765 c -58.272 -95.024 -116.542 -95.024 -174.815 0 Z" fill="#ffa820" p-id="108678"></path><path d="M 866.566 335.734 c 23.802 49.345 37.995 104.195 40.155 162.121 c 68.269 -80.619 54.888 -134.66 -40.155 -162.121 Z M 92.569 453.413 a 406.489 406.489 0 0 1 28.373 -100.714 c -41.618 23.102 -51.081 56.672 -28.373 100.714 Z M 355.737 897.531 c -51.473 -19.016 -98.077 -48.079 -137.43 -84.814 c -1.449 93.431 44.362 121.703 137.43 84.814 Z M 573.729 111.044 c -37.372 -40.921 -74.744 -42.756 -112.116 -5.506 a 414.758 414.758 0 0 1 35.994 -1.564 c 26.012 0 51.456 2.432 76.122 7.07 Z M 656.98 890.605 a 462.555 462.555 0 0 1 12.403 4.917 c 102.891 42.562 150.036 8.25 141.421 -102.936 a 465.55 465.55 0 0 1 -0.891 -14.477 c -41.179 48.53 -93.465 87.341 -152.933 112.496 Z" fill="#feac33" p-id="108679"></path><path d="M 613.07 166.677 a 461.698 461.698 0 0 1 -10.624 -16.514 c -9.572 -15.61 -19.144 -28.638 -28.717 -39.119 c -24.666 -4.638 -50.109 -7.07 -76.122 -7.07 c -12.129 0 -24.133 0.531 -35.994 1.564 c -10.072 10.039 -20.144 22.916 -30.216 38.633 a 356.411 356.411 0 0 1 48.778 -3.343 c 47.008 -0.001 91.87 9.183 132.895 25.849 Z M 164.416 335.479 c -17.11 4.887 -31.599 10.627 -43.473 17.219 A 406.5 406.5 0 0 0 92.57 453.412 c 7.203 13.97 17.636 28.992 31.312 45.069 a 470.582 470.582 0 0 1 3.081 3.663 a 361.655 361.655 0 0 1 -0.094 -8.011 c -0.001 -57.054 13.529 -110.947 37.547 -158.654 Z M 906.196 498.482 c 0.179 -0.21 0.348 -0.417 0.525 -0.626 c -2.159 -57.927 -16.353 -112.776 -40.155 -162.121 a 337.172 337.172 0 0 0 -14.391 -3.806 c -25.257 -6.104 -49.135 -14.109 -71.671 -23.964 c 33.581 54.058 52.977 117.848 52.977 186.17 c 0 195.126 -158.181 353.307 -353.306 353.307 c -102.974 0 -195.654 -44.058 -260.231 -114.346 c 1.116 19.394 0.895 39.223 -0.675 59.491 a 326.777 326.777 0 0 0 -0.963 20.131 c 39.353 36.734 85.957 65.797 137.43 84.814 c 1.64 -0.65 3.293 -1.318 4.962 -2.009 c 98.759 -40.852 197.519 -42.486 296.281 -4.917 c 59.469 -25.156 111.754 -63.966 152.933 -112.497 c -4.86 -105.237 27.23 -198.448 96.284 -279.627 Z" fill="#feb133" p-id="108680"></path><path d="M 480.175 847.44 c 195.126 0 353.306 -158.181 353.306 -353.307 c 0 -68.322 -19.396 -132.112 -52.977 -186.17 c -68.304 -29.87 -124.124 -76.955 -167.434 -141.286 c -41.024 -16.666 -85.887 -25.85 -132.895 -25.85 a 356.4 356.4 0 0 0 -48.778 3.343 a 363.085 363.085 0 0 0 -3.766 5.992 a 451.062 451.062 0 0 1 -22.343 33.089 a 298.622 298.622 0 0 1 57.456 -5.57 c 164.143 0 297.207 133.064 297.207 297.207 S 626.887 772.096 462.744 772.096 S 165.536 639.032 165.536 474.889 c 0 -55.099 15.012 -106.684 41.141 -150.922 a 454.734 454.734 0 0 1 -28.776 7.961 a 337.634 337.634 0 0 0 -13.485 3.552 c -24.017 47.707 -37.547 101.599 -37.547 158.654 c 0 2.678 0.035 5.347 0.094 8.011 c 57.074 68.495 88.064 145.479 92.981 230.949 c 64.577 70.289 157.257 114.346 260.231 114.346 Z" fill="#feb633" p-id="108681"></path><path d="M 462.744 772.096 c 164.143 0 297.207 -133.064 297.207 -297.207 S 626.887 177.681 462.744 177.681 a 298.622 298.622 0 0 0 -57.456 5.57 c -11.787 15.877 -24.419 30.59 -37.883 44.155 c 24.44 -8.34 50.644 -12.872 77.908 -12.872 c 133.16 0 241.108 107.948 241.108 241.108 s -107.948 241.11 -241.109 241.11 s -241.108 -107.948 -241.108 -241.109 c 0 -57.298 20 -109.917 53.382 -151.287 c -16.245 7.536 -33.208 14.082 -50.909 19.611 c -26.13 44.238 -41.141 95.823 -41.141 150.922 c 0 164.143 133.065 297.207 297.208 297.207 Z" fill="#ffbc34" p-id="108682"></path><path d="M 445.312 696.752 c 133.16 0 241.108 -107.948 241.108 -241.108 S 578.473 214.535 445.312 214.535 c -27.264 0 -53.468 4.531 -77.908 12.872 c -31.899 32.14 -68.507 57.787 -109.819 76.95 c -33.382 41.37 -53.382 93.989 -53.382 151.287 c 0.001 133.16 107.949 241.108 241.109 241.108 Z m -17.431 -445.363 c 102.178 0 185.009 82.831 185.009 185.009 s -82.831 185.009 -185.009 185.009 s -185.009 -82.831 -185.009 -185.009 s 82.831 -185.009 185.009 -185.009 Z" fill="#ffc134" p-id="108683"></path><path d="M 427.881 621.407 c 102.178 0 185.009 -82.831 185.009 -185.009 s -82.831 -185.009 -185.009 -185.009 s -185.009 82.831 -185.009 185.009 s 82.831 185.009 185.009 185.009 Z M 410.45 288.243 c 71.195 0 128.91 57.715 128.91 128.91 s -57.715 128.91 -128.91 128.91 s -128.91 -57.715 -128.91 -128.91 s 57.715 -128.91 128.91 -128.91 Z" fill="#ffc634" p-id="108684"></path><path d="M 410.45 417.153 m -128.91 0 a 128.91 128.91 0 1 0 257.82 0 a 128.91 128.91 0 1 0 -257.82 0 Z" fill="#ffcb34" p-id="108685"></path><path d="M 515.039 96.895 c 10.392 0 20.967 4.503 32.329 13.768 c 12.927 10.54 26.295 26.996 39.733 48.91 c 60.575 98.786 148.336 162.661 260.846 189.852 c 24.94 6.028 44.683 13.674 58.679 22.726 c 12.312 7.962 19.864 16.651 23.086 26.56 c 3.226 9.921 2.224 21.407 -3.063 35.114 c -6.01 15.58 -17.504 33.411 -34.163 52.995 c -75.056 88.236 -108.576 191.578 -99.628 307.157 c 3.317 42.811 -2.285 73.386 -16.199 88.42 c -7.971 8.612 -19.303 12.799 -34.643 12.799 c -17.473 0 -39.595 -5.486 -65.753 -16.307 C 622.862 856.8 568.619 845.6 515.039 845.6 c -53.579 0 -107.822 11.2 -161.221 33.289 c -26.159 10.82 -48.283 16.307 -65.756 16.307 c -15.337 0 -26.668 -4.187 -34.64 -12.801 c -13.918 -15.037 -19.522 -45.612 -16.207 -88.419 c 8.952 -115.578 -24.566 -218.921 -99.623 -307.157 c -16.66 -19.585 -28.155 -37.415 -34.165 -52.995 c -5.287 -13.707 -6.29 -25.193 -3.063 -35.114 c 3.222 -9.909 10.774 -18.597 23.086 -26.56 c 13.996 -9.052 33.739 -16.698 58.679 -22.726 c 112.51 -27.19 200.271 -91.066 260.846 -189.852 c 13.439 -21.915 26.807 -38.37 39.734 -48.91 c 11.363 -9.264 21.938 -13.767 32.33 -13.767 m 0 -18 c -29.136 0 -58.271 23.756 -87.408 71.268 c -58.267 95.022 -141.511 155.612 -249.73 181.765 c -108.217 26.155 -126.223 81.673 -54.019 166.554 c 72.204 84.883 103.999 182.918 95.387 294.104 c -6.227 80.404 16.708 120.61 68.793 120.61 c 19.941 0 44.149 -5.89 72.637 -17.674 C 412.145 874.241 463.592 863.6 515.04 863.6 s 102.895 10.641 154.343 31.922 c 28.48 11.781 52.696 17.674 72.633 17.674 c 52.092 0 75.018 -40.2 68.788 -120.61 c -8.608 -111.186 23.188 -209.221 95.393 -294.104 c 72.201 -84.881 54.195 -140.399 -54.021 -166.554 c -108.217 -26.154 -191.463 -86.743 -249.73 -181.765 c -29.136 -47.512 -58.272 -71.268 -87.407 -71.268 Z" fill="#ffa820" p-id="108686"></path><path d="M 477.774 368.748 c -24.6015 40.0087 -59.7411 65.5207 -105.423 76.5334 c -45.6855 11.0101 -53.2863 34.3881 -22.805 70.1262 c 30.4787 35.7398 43.9033 77.0185 40.2681 123.831 c -3.63779 46.8158 16.2633 61.2624 59.7023 43.3424 c 43.4356 -17.9218 86.8737 -17.9218 130.31 0 c 43.4356 17.92 63.3357 3.47431 59.7023 -43.3424 c -3.63427 -46.8149 9.78487 -88.0928 40.2671 -123.831 c 30.4813 -35.7381 22.8815 -59.1161 -22.805 -70.1262 c -45.6829 -11.0135 -80.8251 -36.5255 -105.422 -76.5334 c -24.6006 -40.0113 -49.1985 -40.0113 -73.7947 0 Z" fill="#ffe3b4" p-id="108687"></path><path d="M 316.189 368.714 c -6.422 0 -12.636 -3.445 -15.882 -9.502 c -4.695 -8.763 -1.397 -19.672 7.365 -24.367 c 60.839 -32.598 98.424 -72.405 98.796 -72.804 c 6.792 -7.26 18.181 -7.641 25.442 -0.85 c 7.26 6.791 7.641 18.182 0.85 25.442 c -1.687 1.803 -42.069 44.572 -108.086 79.944 a 17.923 17.923 0 0 1 -8.485 2.137 Z" fill="#ffffff" p-id="108688"></path><path d="M 250.695 396.852 c -7.311 0 -14.186 -4.487 -16.878 -11.742 c -3.458 -9.32 1.293 -19.68 10.613 -23.138 l 10.546 -3.914 c 9.321 -3.459 19.68 1.293 23.138 10.613 c 3.458 9.32 -1.293 19.68 -10.613 23.138 l -10.546 3.914 a 17.963 17.963 0 0 1 -6.26 1.129 Z" fill="#ffffff" p-id="108689"></path></svg>