<?xml version="1.0" encoding="utf-8"?>
<svg version="1.1" xmlns:xlink="http://www.w3.org/1999/xlink" width="20px" height="17px" xmlns="http://www.w3.org/2000/svg">
  <defs>
    <pattern id="BGPattern" patternUnits="userSpaceOnUse" alignment="0 0" imageRepeat="None" />
    <mask fill="white" id="Clip10271">
      <path d="M 2.2083333261718754 11.895833326171875  L 2.2083333261718754 3.1875  C 2.2083333261718754 2.5549999999999997  2.7216666523437505 2.041666673828125  3.354166673828125 2.041666673828125  L 3.583333326171875 2.041666673828125  C 3.9630290916805455 2.041666673828125  4.270833326171875 1.7338624393367947  4.270833326171875 1.354166673828125  C 4.270833326171875 0.9744709083194545  3.9630290916805455 0.6666666738281246  3.583333326171875 0.6666666738281246  L 3.354166673828125 0.6666666738281246  C 1.961948849433789 0.6666666738281246  0.8333333261718749 1.7952821970900388  0.8333333261718749 3.1875  L 0.8333333261718749 11.895833326171878  C 0.8333333261718749 14.300573178348621  2.782760147823256 16.250000000000004  5.1875 16.25  L 14.8125 16.250000000000004  C 17.217239852176746 16.250000000000004  19.166666673828125 14.300573178348621  19.166666673828125 11.895833326171875  L 19.166666673828125 3.187500000000001  C 19.166666673828125 1.7952821970900388  18.03805115056621 0.6666666738281246  16.64583334765625 0.6666666738281246  L 16.416666673828125 0.6666666738281246  C 16.036970908319454 0.6666666738281246  15.729166673828125 0.9744709083194545  15.729166673828125 1.354166673828125  C 15.729166673828125 1.7338624393367947  16.036970908319454 2.041666673828125  16.416666673828125 2.041666673828125  L 16.645833326171875 2.041666673828125  C 17.278333326171875 2.041666673828125  17.79166665234375 2.5549999999999997  17.791666673828125 3.1875  L 17.79166667382812 11.895833326171875  C 17.79166667382812 13.541181647331282  16.457848321159403 14.874999999999996  14.8125 14.875  L 5.1875 14.874999999999996  C 3.5421516788406002 14.874999999999996  2.2083333261718745 13.541181647331278  2.2083333261718754 11.895833326171875  Z " fill-rule="evenodd" />
    </mask>
  </defs>
  <g transform="matrix(1 0 0 1 -26 -229 )">
    <path d="M 2.2083333261718754 11.895833326171875  L 2.2083333261718754 3.1875  C 2.2083333261718754 2.5549999999999997  2.7216666523437505 2.041666673828125  3.354166673828125 2.041666673828125  L 3.583333326171875 2.041666673828125  C 3.9630290916805455 2.041666673828125  4.270833326171875 1.7338624393367947  4.270833326171875 1.354166673828125  C 4.270833326171875 0.9744709083194545  3.9630290916805455 0.6666666738281246  3.583333326171875 0.6666666738281246  L 3.354166673828125 0.6666666738281246  C 1.961948849433789 0.6666666738281246  0.8333333261718749 1.7952821970900388  0.8333333261718749 3.1875  L 0.8333333261718749 11.895833326171878  C 0.8333333261718749 14.300573178348621  2.782760147823256 16.250000000000004  5.1875 16.25  L 14.8125 16.250000000000004  C 17.217239852176746 16.250000000000004  19.166666673828125 14.300573178348621  19.166666673828125 11.895833326171875  L 19.166666673828125 3.187500000000001  C 19.166666673828125 1.7952821970900388  18.03805115056621 0.6666666738281246  16.64583334765625 0.6666666738281246  L 16.416666673828125 0.6666666738281246  C 16.036970908319454 0.6666666738281246  15.729166673828125 0.9744709083194545  15.729166673828125 1.354166673828125  C 15.729166673828125 1.7338624393367947  16.036970908319454 2.041666673828125  16.416666673828125 2.041666673828125  L 16.645833326171875 2.041666673828125  C 17.278333326171875 2.041666673828125  17.79166665234375 2.5549999999999997  17.791666673828125 3.1875  L 17.79166667382812 11.895833326171875  C 17.79166667382812 13.541181647331282  16.457848321159403 14.874999999999996  14.8125 14.875  L 5.1875 14.874999999999996  C 3.5421516788406002 14.874999999999996  2.2083333261718745 13.541181647331278  2.2083333261718754 11.895833326171875  Z " fill-rule="nonzero" fill="rgba(255, 255, 255, 1)" stroke="none" transform="matrix(1 0 0 1 26 229 )" class="fill" />
    <path d="M 2.2083333261718754 11.895833326171875  L 2.2083333261718754 3.1875  C 2.2083333261718754 2.5549999999999997  2.7216666523437505 2.041666673828125  3.354166673828125 2.041666673828125  L 3.583333326171875 2.041666673828125  C 3.9630290916805455 2.041666673828125  4.270833326171875 1.7338624393367947  4.270833326171875 1.354166673828125  C 4.270833326171875 0.9744709083194545  3.9630290916805455 0.6666666738281246  3.583333326171875 0.6666666738281246  L 3.354166673828125 0.6666666738281246  C 1.961948849433789 0.6666666738281246  0.8333333261718749 1.7952821970900388  0.8333333261718749 3.1875  L 0.8333333261718749 11.895833326171878  C 0.8333333261718749 14.300573178348621  2.782760147823256 16.250000000000004  5.1875 16.25  L 14.8125 16.250000000000004  C 17.217239852176746 16.250000000000004  19.166666673828125 14.300573178348621  19.166666673828125 11.895833326171875  L 19.166666673828125 3.187500000000001  C 19.166666673828125 1.7952821970900388  18.03805115056621 0.6666666738281246  16.64583334765625 0.6666666738281246  L 16.416666673828125 0.6666666738281246  C 16.036970908319454 0.6666666738281246  15.729166673828125 0.9744709083194545  15.729166673828125 1.354166673828125  C 15.729166673828125 1.7338624393367947  16.036970908319454 2.041666673828125  16.416666673828125 2.041666673828125  L 16.645833326171875 2.041666673828125  C 17.278333326171875 2.041666673828125  17.79166665234375 2.5549999999999997  17.791666673828125 3.1875  L 17.79166667382812 11.895833326171875  C 17.79166667382812 13.541181647331282  16.457848321159403 14.874999999999996  14.8125 14.875  L 5.1875 14.874999999999996  C 3.5421516788406002 14.874999999999996  2.2083333261718745 13.541181647331278  2.2083333261718754 11.895833326171875  Z " stroke-width="0" stroke-dasharray="0" stroke="rgba(255, 255, 255, 0)" fill="none" transform="matrix(1 0 0 1 26 229 )" class="stroke" mask="url(#Clip10271)" />
  </g>
</svg>