<?xml version="1.0" encoding="utf-8"?>
<svg version="1.1" xmlns:xlink="http://www.w3.org/1999/xlink" width="300px" height="150px" xmlns="http://www.w3.org/2000/svg">
  <defs>
    <linearGradient gradientUnits="userSpaceOnUse" x1="150" y1="0" x2="150" y2="150" id="LinearGradient10273">
      <stop id="Stop10274" stop-color="#000000" offset="0" />
      <stop id="Stop10275" stop-color="#333333" stop-opacity="0" offset="1" />
    </linearGradient>
    <pattern id="BGPattern" patternUnits="userSpaceOnUse" alignment="0 0" imageRepeat="None" />
    <mask fill="white" id="Clip10276">
      <path d="M 0 145  L 0 5  C 0 2.1999999999999997  2.1999999999999997 0  5 0  L 295 0  C 297.8 0  300 2.1999999999999997  300 5  L 300 145  C 300 147.79999999999998  297.8 150  295 150  L 5 150  C 2.1999999999999997 150  0 147.79999999999998  0 145  Z " fill-rule="evenodd" />
    </mask>
  </defs>
  <g transform="matrix(1 0 0 1 -30 -208 )">
    <path d="M 0 145  L 0 5  C 0 2.1999999999999997  2.1999999999999997 0  5 0  L 295 0  C 297.8 0  300 2.1999999999999997  300 5  L 300 145  C 300 147.79999999999998  297.8 150  295 150  L 5 150  C 2.1999999999999997 150  0 147.79999999999998  0 145  Z " fill-rule="nonzero" fill="url(#LinearGradient10273)" stroke="none" transform="matrix(1 0 0 1 30 208 )" class="fill" />
    <path d="M 0 145  L 0 5  C 0 2.1999999999999997  2.1999999999999997 0  5 0  L 295 0  C 297.8 0  300 2.1999999999999997  300 5  L 300 145  C 300 147.79999999999998  297.8 150  295 150  L 5 150  C 2.1999999999999997 150  0 147.79999999999998  0 145  Z " stroke-width="0" stroke-dasharray="0" stroke="rgba(121, 121, 121, 1)" fill="none" transform="matrix(1 0 0 1 30 208 )" class="stroke" mask="url(#Clip10276)" />
  </g>
</svg>