<?xml version="1.0" encoding="utf-8"?>
<svg version="1.1" xmlns:xlink="http://www.w3.org/1999/xlink" width="12px" height="9px" xmlns="http://www.w3.org/2000/svg">
  <defs>
    <pattern id="BGPattern" patternUnits="userSpaceOnUse" alignment="0 0" imageRepeat="None" />
    <mask fill="white" id="Clip19398">
      <path d="M 2.0250000000000004 3.6562499824218757  L 2.0250000000000004 0.28124998242187543  L 10.885714302455359 0.28124998242187543  L 10.885714302455359 3.6562499824218757  L 2.0250000000000004 3.6562499824218757  Z M 1.3714285881696406 8.291250017578124  L 1.3714285881696422 4.916250017578123  L 9.385714285714283 4.916250017578123  L 9.385714285714283 8.291250017578124  L 1.3714285881696406 8.291250017578124  Z " fill-rule="evenodd" />
    </mask>
  </defs>
  <g transform="matrix(1 0 0 1 -163 -628 )">
    <path d="M 2.0250000000000004 3.6562499824218757  L 2.0250000000000004 0.28124998242187543  L 10.885714302455359 0.28124998242187543  L 10.885714302455359 3.6562499824218757  L 2.0250000000000004 3.6562499824218757  Z M 1.3714285881696406 8.291250017578124  L 1.3714285881696422 4.916250017578123  L 9.385714285714283 4.916250017578123  L 9.385714285714283 8.291250017578124  L 1.3714285881696406 8.291250017578124  Z " fill-rule="nonzero" fill="rgba(253, 143, 158, 1)" stroke="none" transform="matrix(1 0 0 1 163 628 )" class="fill" />
    <path d="M 2.0250000000000004 3.6562499824218757  L 2.0250000000000004 0.28124998242187543  L 10.885714302455359 0.28124998242187543  L 10.885714302455359 3.6562499824218757  L 2.0250000000000004 3.6562499824218757  Z " stroke-width="0" stroke-dasharray="0" stroke="rgba(255, 255, 255, 0)" fill="none" transform="matrix(1 0 0 1 163 628 )" class="stroke" mask="url(#Clip19398)" />
    <path d="M 1.3714285881696406 8.291250017578124  L 1.3714285881696422 4.916250017578123  L 9.385714285714283 4.916250017578123  L 9.385714285714283 8.291250017578124  L 1.3714285881696406 8.291250017578124  Z " stroke-width="0" stroke-dasharray="0" stroke="rgba(255, 255, 255, 0)" fill="none" transform="matrix(1 0 0 1 163 628 )" class="stroke" mask="url(#Clip19398)" />
  </g>
</svg>