<?xml version="1.0" encoding="utf-8"?>
<svg version="1.1" xmlns:xlink="http://www.w3.org/1999/xlink" width="19px" height="12px" xmlns="http://www.w3.org/2000/svg">
  <defs>
    <pattern id="BGPattern" patternUnits="userSpaceOnUse" alignment="0 0" imageRepeat="None" />
    <mask fill="white" id="Clip17835">
      <path d="M 18.64375 2.13214287388392  C 18.637793197190945 6.784902041514978  14.835738417232559 10.553575201353134  10.147727289595169 10.553571445312492  C 5.463931487824708 10.547668489551373  1.6684476919908349 6.7807221658666395  1.6625000168678947 2.1321428738839256  C 1.6625000168678947 1.2445423830844362  2.3874934617441665 0.5250000167410686  3.2818181986860764 0.5250000167410686  C 4.176142935627986 0.5250000167410686  4.9011363805042585 1.2445423830844362  4.9011363805042585 2.1321428738839256  C 4.9011363805042585 5.010927127754018  7.252531782943627 7.344642865513391  10.153125008433953 7.344642865513391  C 13.053718233924268 7.344642865513391  15.405113636363634 5.010927127754018  15.405113636363634 2.1321428738839256  C 15.405113636363634 1.2445423830844362  16.130107081239906 0.5250000167410686  17.024431818181817 0.5250000167410686  C 17.918756555123725 0.5250000167410686  18.64375 1.2445423830844362  18.64375 2.1321428738839256  Z " fill-rule="evenodd" />
    </mask>
  </defs>
  <g transform="matrix(1 0 0 1 -181 -629 )">
    <path d="M 18.64375 2.13214287388392  C 18.637793197190945 6.784902041514978  14.835738417232559 10.553575201353134  10.147727289595169 10.553571445312492  C 5.463931487824708 10.547668489551373  1.6684476919908349 6.7807221658666395  1.6625000168678947 2.1321428738839256  C 1.6625000168678947 1.2445423830844362  2.3874934617441665 0.5250000167410686  3.2818181986860764 0.5250000167410686  C 4.176142935627986 0.5250000167410686  4.9011363805042585 1.2445423830844362  4.9011363805042585 2.1321428738839256  C 4.9011363805042585 5.010927127754018  7.252531782943627 7.344642865513391  10.153125008433953 7.344642865513391  C 13.053718233924268 7.344642865513391  15.405113636363634 5.010927127754018  15.405113636363634 2.1321428738839256  C 15.405113636363634 1.2445423830844362  16.130107081239906 0.5250000167410686  17.024431818181817 0.5250000167410686  C 17.918756555123725 0.5250000167410686  18.64375 1.2445423830844362  18.64375 2.1321428738839256  Z " fill-rule="nonzero" fill="rgba(252, 69, 93, 1)" stroke="none" transform="matrix(1 0 0 1 181 629 )" class="fill" />
    <path d="M 18.64375 2.13214287388392  C 18.637793197190945 6.784902041514978  14.835738417232559 10.553575201353134  10.147727289595169 10.553571445312492  C 5.463931487824708 10.547668489551373  1.6684476919908349 6.7807221658666395  1.6625000168678947 2.1321428738839256  C 1.6625000168678947 1.2445423830844362  2.3874934617441665 0.5250000167410686  3.2818181986860764 0.5250000167410686  C 4.176142935627986 0.5250000167410686  4.9011363805042585 1.2445423830844362  4.9011363805042585 2.1321428738839256  C 4.9011363805042585 5.010927127754018  7.252531782943627 7.344642865513391  10.153125008433953 7.344642865513391  C 13.053718233924268 7.344642865513391  15.405113636363634 5.010927127754018  15.405113636363634 2.1321428738839256  C 15.405113636363634 1.2445423830844362  16.130107081239906 0.5250000167410686  17.024431818181817 0.5250000167410686  C 17.918756555123725 0.5250000167410686  18.64375 1.2445423830844362  18.64375 2.1321428738839256  Z " stroke-width="0" stroke-dasharray="0" stroke="rgba(255, 255, 255, 0)" fill="none" transform="matrix(1 0 0 1 181 629 )" class="stroke" mask="url(#Clip17835)" />
  </g>
</svg>