<?xml version="1.0" encoding="utf-8"?>
<svg version="1.1" xmlns:xlink="http://www.w3.org/1999/xlink" width="20px" height="20px" xmlns="http://www.w3.org/2000/svg">
  <defs>
    <pattern id="BGPattern" patternUnits="userSpaceOnUse" alignment="0 0" imageRepeat="None" />
    <mask fill="white" id="Clip4720">
      <path d="M 0.8238636363636364 18.704545454545457  L 18.704545454545457 0.8238636363636364  L 10.411931818181818 0.8238636363636364  C 9.585227272727273 0.8238636363636364  8.779829545454543 0.9303977272727272  8.01278409090909 1.1306818181818183  L 1.1306818181818183 8.01278409090909  C 0.9303977272727272 8.779829545454543  0.8238636363636364 9.585227272727273  0.8238636363636364 10.411931818181818  L 0.8238636363636364 18.704545454545457  Z " fill-rule="evenodd" />
    </mask>
  </defs>
  <g transform="matrix(1 0 0 1 -160 -1240 )">
    <path d="M 0.8238636363636364 18.704545454545457  L 18.704545454545457 0.8238636363636364  L 10.411931818181818 0.8238636363636364  C 9.585227272727273 0.8238636363636364  8.779829545454543 0.9303977272727272  8.01278409090909 1.1306818181818183  L 1.1306818181818183 8.01278409090909  C 0.9303977272727272 8.779829545454543  0.8238636363636364 9.585227272727273  0.8238636363636364 10.411931818181818  L 0.8238636363636364 18.704545454545457  Z " fill-rule="nonzero" fill="rgba(255, 103, 100, 1)" stroke="none" transform="matrix(1 0 0 1 160 1240 )" class="fill" />
    <path d="M 0.8238636363636364 18.704545454545457  L 18.704545454545457 0.8238636363636364  L 10.411931818181818 0.8238636363636364  C 9.585227272727273 0.8238636363636364  8.779829545454543 0.9303977272727272  8.01278409090909 1.1306818181818183  L 1.1306818181818183 8.01278409090909  C 0.9303977272727272 8.779829545454543  0.8238636363636364 9.585227272727273  0.8238636363636364 10.411931818181818  L 0.8238636363636364 18.704545454545457  Z " stroke-width="0" stroke-dasharray="0" stroke="rgba(255, 255, 255, 0)" fill="none" transform="matrix(1 0 0 1 160 1240 )" class="stroke" mask="url(#Clip4720)" />
  </g>
</svg>