<?xml version="1.0" encoding="utf-8"?>
<svg version="1.1" xmlns:xlink="http://www.w3.org/1999/xlink" width="22px" height="5px" xmlns="http://www.w3.org/2000/svg">
  <defs>
    <pattern id="BGPattern" patternUnits="userSpaceOnUse" alignment="0 0" imageRepeat="None" />
    <mask fill="white" id="Clip16481">
      <path d="M 21.0546875 3.06640625  C 21.0546875 3.26171875  20.8828125 3.41796875  20.66796875 3.41796875  L 1.33203125 3.41796875  C 1.1171875 3.41796875  0.9453125 3.26171875  0.9453125 3.06640625  L 0.9453125 0.95703125  C 0.9453125 0.5703125000000023  1.293359375000001 0.25390625  1.71875 0.25390625  L 20.28125 0.25390625  C 20.706640624999995 0.25390625  21.0546875 0.5703125000000023  21.0546875 0.95703125  L 21.0546875 3.06640625  Z " fill-rule="evenodd" />
    </mask>
  </defs>
  <g transform="matrix(1 0 0 1 -169 -1255 )">
    <path d="M 21.0546875 3.06640625  C 21.0546875 3.26171875  20.8828125 3.41796875  20.66796875 3.41796875  L 1.33203125 3.41796875  C 1.1171875 3.41796875  0.9453125 3.26171875  0.9453125 3.06640625  L 0.9453125 0.95703125  C 0.9453125 0.5703125000000023  1.293359375000001 0.25390625  1.71875 0.25390625  L 20.28125 0.25390625  C 20.706640624999995 0.25390625  21.0546875 0.5703125000000023  21.0546875 0.95703125  L 21.0546875 3.06640625  Z " fill-rule="nonzero" fill="rgba(255, 233, 233, 1)" stroke="none" transform="matrix(1 0 0 1 169 1255 )" class="fill" />
    <path d="M 21.0546875 3.06640625  C 21.0546875 3.26171875  20.8828125 3.41796875  20.66796875 3.41796875  L 1.33203125 3.41796875  C 1.1171875 3.41796875  0.9453125 3.26171875  0.9453125 3.06640625  L 0.9453125 0.95703125  C 0.9453125 0.5703125000000023  1.293359375000001 0.25390625  1.71875 0.25390625  L 20.28125 0.25390625  C 20.706640624999995 0.25390625  21.0546875 0.5703125000000023  21.0546875 0.95703125  L 21.0546875 3.06640625  Z " stroke-width="0" stroke-dasharray="0" stroke="rgba(255, 255, 255, 0)" fill="none" transform="matrix(1 0 0 1 169 1255 )" class="stroke" mask="url(#Clip16481)" />
  </g>
</svg>