<?xml version="1.0" encoding="utf-8"?>
<svg version="1.1" xmlns:xlink="http://www.w3.org/1999/xlink" width="18px" height="15px" xmlns="http://www.w3.org/2000/svg">
  <defs>
    <pattern id="BGPattern" patternUnits="userSpaceOnUse" alignment="0 0" imageRepeat="None" />
    <mask fill="white" id="Clip15082">
      <path d="M 17 11.85791015625  C 17.353125000000002 12.732421874999996  16.673906249999998 13.43994140625  15.834375 13.43994140625  L 2.165625 13.43994140625  C 1.326093750000001 13.43994140625  0.646875 12.732421874999996  1 11.85791015625  L 1 1.57470703125  L 17 1.57470703125  L 17 11.85791015625  Z " fill-rule="evenodd" />
    </mask>
  </defs>
  <g transform="matrix(1 0 0 1 -171 -1256 )">
    <path d="M 17 11.85791015625  C 17.353125000000002 12.732421874999996  16.673906249999998 13.43994140625  15.834375 13.43994140625  L 2.165625 13.43994140625  C 1.326093750000001 13.43994140625  0.646875 12.732421874999996  1 11.85791015625  L 1 1.57470703125  L 17 1.57470703125  L 17 11.85791015625  Z " fill-rule="nonzero" fill="rgba(255, 205, 203, 1)" stroke="none" transform="matrix(1 0 0 1 171 1256 )" class="fill" />
    <path d="M 17 11.85791015625  C 17.353125000000002 12.732421874999996  16.673906249999998 13.43994140625  15.834375 13.43994140625  L 2.165625 13.43994140625  C 1.326093750000001 13.43994140625  0.646875 12.732421874999996  1 11.85791015625  L 1 1.57470703125  L 17 1.57470703125  L 17 11.85791015625  Z " stroke-width="0" stroke-dasharray="0" stroke="rgba(255, 255, 255, 0)" fill="none" transform="matrix(1 0 0 1 171 1256 )" class="stroke" mask="url(#Clip15082)" />
  </g>
</svg>