<?xml version="1.0" encoding="utf-8"?>
<svg version="1.1" xmlns:xlink="http://www.w3.org/1999/xlink" width="26px" height="23px" xmlns="http://www.w3.org/2000/svg">
  <defs>
    <pattern id="BGPattern" patternUnits="userSpaceOnUse" alignment="0 0" imageRepeat="None" />
    <mask fill="white" id="Clip14400">
      <path d="M 4 14.562980786508412  C 3.932500016927084 15.47903001098737  3.2049627354021237 16.22163463266226  2.3075000169270843 16.22163463266226  C 1.4100372984520446 16.22163463266226  0.6825000169270842 15.47903001098737  1 14.562980786508412  L 1 1.6807692134915873  C 0.6825000169270842 1.6807692134915873  0.6825000169270842 1.6807692134915873  0.6825000169270842 1.6807692134915873  C 0.6825000169270842 0.764719989012627  1.4100372984520446 0.022115367337741134  2.3075000169270843 0.022115367337741134  C 3.2049627354021237 0.022115367337741134  3.932500016927084 0.764719989012627  3.932500016927084 1.6807692134915873  C 3.932500016927084 1.6807692134915873  3.932500016927084 1.6807692134915873  4 1.6807692134915873  L 4 14.562980786508412  Z M 23.44333333333334 22.679326905799282  L 23.432500016927083 22.635096153846153  C 22.547577644994483 22.635276821390246  21.82519844701785 21.912683901757415  21.807500016927083 21.009615384615383  L 21.720833333333335 6.866826940354566  L 14 6.866826940354566  L 14 18.698557675030045  C 14.137500016927076 18.698557675030045  14.137500016927076 18.698557675030045  14.137500016927076 18.698557675030045  C 14.137500016927076 19.614606899509006  13.409962735402118 20.357211521183892  12.51250001692708 20.357211521183892  C 11.615037298452041 20.357211521183892  10.88750001692708 19.614606899509006  11 18.698557675030045  L 11 5.175000017277643  C 10.88750001692708 4.258950792798684  11.615037298452041 3.5163461711237973  12.51250001692708 3.5163461711237973  L 23.345833333333335 3.5163461711237973  C 24.239082325295968 3.5163259097017225  24.964878321663324 4.252214320170459  25 5.163942290414664  L 25 21.009615384615383  C 25.057524250812722 21.01331342869495  25.05753636785718 21.017011545159754  25.05753636785718 21.020709671965683  C 25.05753636785718 21.932458019222526  24.33656272161441 22.67326898861265  23.44333333333334 22.679326905799282  Z " fill-rule="evenodd" />
    </mask>
  </defs>
  <g transform="matrix(1 0 0 1 -167 -605 )">
    <path d="M 4 14.562980786508412  C 3.932500016927084 15.47903001098737  3.2049627354021237 16.22163463266226  2.3075000169270843 16.22163463266226  C 1.4100372984520446 16.22163463266226  0.6825000169270842 15.47903001098737  1 14.562980786508412  L 1 1.6807692134915873  C 0.6825000169270842 1.6807692134915873  0.6825000169270842 1.6807692134915873  0.6825000169270842 1.6807692134915873  C 0.6825000169270842 0.764719989012627  1.4100372984520446 0.022115367337741134  2.3075000169270843 0.022115367337741134  C 3.2049627354021237 0.022115367337741134  3.932500016927084 0.764719989012627  3.932500016927084 1.6807692134915873  C 3.932500016927084 1.6807692134915873  3.932500016927084 1.6807692134915873  4 1.6807692134915873  L 4 14.562980786508412  Z M 23.44333333333334 22.679326905799282  L 23.432500016927083 22.635096153846153  C 22.547577644994483 22.635276821390246  21.82519844701785 21.912683901757415  21.807500016927083 21.009615384615383  L 21.720833333333335 6.866826940354566  L 14 6.866826940354566  L 14 18.698557675030045  C 14.137500016927076 18.698557675030045  14.137500016927076 18.698557675030045  14.137500016927076 18.698557675030045  C 14.137500016927076 19.614606899509006  13.409962735402118 20.357211521183892  12.51250001692708 20.357211521183892  C 11.615037298452041 20.357211521183892  10.88750001692708 19.614606899509006  11 18.698557675030045  L 11 5.175000017277643  C 10.88750001692708 4.258950792798684  11.615037298452041 3.5163461711237973  12.51250001692708 3.5163461711237973  L 23.345833333333335 3.5163461711237973  C 24.239082325295968 3.5163259097017225  24.964878321663324 4.252214320170459  25 5.163942290414664  L 25 21.009615384615383  C 25.057524250812722 21.01331342869495  25.05753636785718 21.017011545159754  25.05753636785718 21.020709671965683  C 25.05753636785718 21.932458019222526  24.33656272161441 22.67326898861265  23.44333333333334 22.679326905799282  Z " fill-rule="nonzero" fill="rgba(252, 69, 93, 1)" stroke="none" transform="matrix(1 0 0 1 167 605 )" class="fill" />
    <path d="M 4 14.562980786508412  C 3.932500016927084 15.47903001098737  3.2049627354021237 16.22163463266226  2.3075000169270843 16.22163463266226  C 1.4100372984520446 16.22163463266226  0.6825000169270842 15.47903001098737  1 14.562980786508412  L 1 1.6807692134915873  C 0.6825000169270842 1.6807692134915873  0.6825000169270842 1.6807692134915873  0.6825000169270842 1.6807692134915873  C 0.6825000169270842 0.764719989012627  1.4100372984520446 0.022115367337741134  2.3075000169270843 0.022115367337741134  C 3.2049627354021237 0.022115367337741134  3.932500016927084 0.764719989012627  3.932500016927084 1.6807692134915873  C 3.932500016927084 1.6807692134915873  3.932500016927084 1.6807692134915873  4 1.6807692134915873  L 4 14.562980786508412  Z " stroke-width="0" stroke-dasharray="0" stroke="rgba(255, 255, 255, 0)" fill="none" transform="matrix(1 0 0 1 167 605 )" class="stroke" mask="url(#Clip14400)" />
    <path d="M 23.44333333333334 22.679326905799282  L 23.432500016927083 22.635096153846153  C 22.547577644994483 22.635276821390246  21.82519844701785 21.912683901757415  21.807500016927083 21.009615384615383  L 21.720833333333335 6.866826940354566  L 14 6.866826940354566  L 14 18.698557675030045  C 14.137500016927076 18.698557675030045  14.137500016927076 18.698557675030045  14.137500016927076 18.698557675030045  C 14.137500016927076 19.614606899509006  13.409962735402118 20.357211521183892  12.51250001692708 20.357211521183892  C 11.615037298452041 20.357211521183892  10.88750001692708 19.614606899509006  11 18.698557675030045  L 11 5.175000017277643  C 10.88750001692708 4.258950792798684  11.615037298452041 3.5163461711237973  12.51250001692708 3.5163461711237973  L 23.345833333333335 3.5163461711237973  C 24.239082325295968 3.5163259097017225  24.964878321663324 4.252214320170459  25 5.163942290414664  L 25 21.009615384615383  C 25.057524250812722 21.01331342869495  25.05753636785718 21.017011545159754  25.05753636785718 21.020709671965683  C 25.05753636785718 21.932458019222526  24.33656272161441 22.67326898861265  23.44333333333334 22.679326905799282  Z " stroke-width="0" stroke-dasharray="0" stroke="rgba(255, 255, 255, 0)" fill="none" transform="matrix(1 0 0 1 167 605 )" class="stroke" mask="url(#Clip14400)" />
  </g>
</svg>