<?xml version="1.0" encoding="utf-8"?>
<svg version="1.1" xmlns:xlink="http://www.w3.org/1999/xlink" width="40px" height="46px" xmlns="http://www.w3.org/2000/svg">
  <defs>
    <pattern id="BGPattern" patternUnits="userSpaceOnUse" alignment="0 0" imageRepeat="None" />
    <mask fill="white" id="Clip10673">
      <path d="M 33.516190476190474 39.56  C 45.26476190476191 27.485000000000007  31.66476190476191 10.994000000000005  28.83047619047619 8.924000000000001  C 29.836190476190477 11.384999999999998  30.04190476190476 15.042  28.007619047619052 17.089  C 24.556190476190473 3.634000000000001  15.824761904761901 0.7590000000000007  15.824761904761901 0.7590000000000007  C 16.830476190476187 7.705  12.167619047619045 15.249  7.504761904761902 20.953  C 7.2990476190476175 18.101  7.09333333333333 16.261000000000003  5.721904761904759 13.616000000000001  C 5.33333333333333 18.722  1.6761904761904733 22.793000000000003  0.46476190476190177 27.692000000000004  C -0.35809523809524135 31.97  0.2590476190476159 35.857000000000006  3.2990476190476152 39.35300000000001  C 8.167619047619043 44.04500000000001  20.739047619047618 49.956  33.516190476190474 39.56  Z M 14.430476190476188 35.857  L 14.224761904761905 35.857  L 11.984761904761907 35.857  L 11.984761904761907 31.993000000000002  L 7.939047619047619 31.993000000000002  L 7.939047619047619 35.879999999999995  L 5.6990476190476205 35.879999999999995  L 5.6990476190476205 26.266000000000002  L 7.939047619047619 26.266000000000002  L 7.939047619047619 30.130000000000003  L 12.190476190476186 30.130000000000003  L 12.190476190476186 26.243000000000002  L 14.430476190476188 26.243000000000002  L 14.430476190476188 35.857  Z M 24.761904761904763 31.164999999999996  C 24.761904761904763 34.224  23.13904761904762 35.857  20.099047619047617 36.06399999999999  C 17.059047619047618 35.857  15.436190476190479 34.224  15.230476190476192 31.164999999999996  C 15.436190476190479 27.898999999999997  17.013333333333335 26.26599999999999  20.099047619047617 26.058999999999994  C 23.13904761904762 26.26599999999999  24.55619047619048 27.852999999999998  24.761904761904763 31.164999999999996  Z M 34.08761904761905 28.037000000000003  L 31.047619047619044 28.105999999999998  L 31.047619047619044 36.06400000000001  L 28.807619047619045 36.06400000000001  L 28.807619047619045 28.105999999999998  L 25.767619047619043 28.105999999999998  L 25.767619047619043 26.243000000000002  L 34.08761904761905 26.243000000000002  L 34.08761904761905 28.037000000000003  Z " fill-rule="evenodd" />
    </mask>
  </defs>
  <g transform="matrix(1 0 0 1 -160 -1077 )">
    <path d="M 33.516190476190474 39.56  C 45.26476190476191 27.485000000000007  31.66476190476191 10.994000000000005  28.83047619047619 8.924000000000001  C 29.836190476190477 11.384999999999998  30.04190476190476 15.042  28.007619047619052 17.089  C 24.556190476190473 3.634000000000001  15.824761904761901 0.7590000000000007  15.824761904761901 0.7590000000000007  C 16.830476190476187 7.705  12.167619047619045 15.249  7.504761904761902 20.953  C 7.2990476190476175 18.101  7.09333333333333 16.261000000000003  5.721904761904759 13.616000000000001  C 5.33333333333333 18.722  1.6761904761904733 22.793000000000003  0.46476190476190177 27.692000000000004  C -0.35809523809524135 31.97  0.2590476190476159 35.857000000000006  3.2990476190476152 39.35300000000001  C 8.167619047619043 44.04500000000001  20.739047619047618 49.956  33.516190476190474 39.56  Z M 14.430476190476188 35.857  L 14.224761904761905 35.857  L 11.984761904761907 35.857  L 11.984761904761907 31.993000000000002  L 7.939047619047619 31.993000000000002  L 7.939047619047619 35.879999999999995  L 5.6990476190476205 35.879999999999995  L 5.6990476190476205 26.266000000000002  L 7.939047619047619 26.266000000000002  L 7.939047619047619 30.130000000000003  L 12.190476190476186 30.130000000000003  L 12.190476190476186 26.243000000000002  L 14.430476190476188 26.243000000000002  L 14.430476190476188 35.857  Z M 24.761904761904763 31.164999999999996  C 24.761904761904763 34.224  23.13904761904762 35.857  20.099047619047617 36.06399999999999  C 17.059047619047618 35.857  15.436190476190479 34.224  15.230476190476192 31.164999999999996  C 15.436190476190479 27.898999999999997  17.013333333333335 26.26599999999999  20.099047619047617 26.058999999999994  C 23.13904761904762 26.26599999999999  24.55619047619048 27.852999999999998  24.761904761904763 31.164999999999996  Z M 34.08761904761905 28.037000000000003  L 31.047619047619044 28.105999999999998  L 31.047619047619044 36.06400000000001  L 28.807619047619045 36.06400000000001  L 28.807619047619045 28.105999999999998  L 25.767619047619043 28.105999999999998  L 25.767619047619043 26.243000000000002  L 34.08761904761905 26.243000000000002  L 34.08761904761905 28.037000000000003  Z " fill-rule="nonzero" fill="rgba(216, 30, 6, 1)" stroke="none" transform="matrix(1 0 0 1 160 1077 )" class="fill" />
    <path d="M 33.516190476190474 39.56  C 45.26476190476191 27.485000000000007  31.66476190476191 10.994000000000005  28.83047619047619 8.924000000000001  C 29.836190476190477 11.384999999999998  30.04190476190476 15.042  28.007619047619052 17.089  C 24.556190476190473 3.634000000000001  15.824761904761901 0.7590000000000007  15.824761904761901 0.7590000000000007  C 16.830476190476187 7.705  12.167619047619045 15.249  7.504761904761902 20.953  C 7.2990476190476175 18.101  7.09333333333333 16.261000000000003  5.721904761904759 13.616000000000001  C 5.33333333333333 18.722  1.6761904761904733 22.793000000000003  0.46476190476190177 27.692000000000004  C -0.35809523809524135 31.97  0.2590476190476159 35.857000000000006  3.2990476190476152 39.35300000000001  C 8.167619047619043 44.04500000000001  20.739047619047618 49.956  33.516190476190474 39.56  Z " stroke-width="0" stroke-dasharray="0" stroke="rgba(255, 255, 255, 0)" fill="none" transform="matrix(1 0 0 1 160 1077 )" class="stroke" mask="url(#Clip10673)" />
    <path d="M 14.430476190476188 35.857  L 14.224761904761905 35.857  L 11.984761904761907 35.857  L 11.984761904761907 31.993000000000002  L 7.939047619047619 31.993000000000002  L 7.939047619047619 35.879999999999995  L 5.6990476190476205 35.879999999999995  L 5.6990476190476205 26.266000000000002  L 7.939047619047619 26.266000000000002  L 7.939047619047619 30.130000000000003  L 12.190476190476186 30.130000000000003  L 12.190476190476186 26.243000000000002  L 14.430476190476188 26.243000000000002  L 14.430476190476188 35.857  Z " stroke-width="0" stroke-dasharray="0" stroke="rgba(255, 255, 255, 0)" fill="none" transform="matrix(1 0 0 1 160 1077 )" class="stroke" mask="url(#Clip10673)" />
    <path d="M 24.761904761904763 31.164999999999996  C 24.761904761904763 34.224  23.13904761904762 35.857  20.099047619047617 36.06399999999999  C 17.059047619047618 35.857  15.436190476190479 34.224  15.230476190476192 31.164999999999996  C 15.436190476190479 27.898999999999997  17.013333333333335 26.26599999999999  20.099047619047617 26.058999999999994  C 23.13904761904762 26.26599999999999  24.55619047619048 27.852999999999998  24.761904761904763 31.164999999999996  Z " stroke-width="0" stroke-dasharray="0" stroke="rgba(255, 255, 255, 0)" fill="none" transform="matrix(1 0 0 1 160 1077 )" class="stroke" mask="url(#Clip10673)" />
    <path d="M 34.08761904761905 28.037000000000003  L 31.047619047619044 28.105999999999998  L 31.047619047619044 36.06400000000001  L 28.807619047619045 36.06400000000001  L 28.807619047619045 28.105999999999998  L 25.767619047619043 28.105999999999998  L 25.767619047619043 26.243000000000002  L 34.08761904761905 26.243000000000002  L 34.08761904761905 28.037000000000003  Z " stroke-width="0" stroke-dasharray="0" stroke="rgba(255, 255, 255, 0)" fill="none" transform="matrix(1 0 0 1 160 1077 )" class="stroke" mask="url(#Clip10673)" />
  </g>
</svg>