<?xml version="1.0" encoding="utf-8"?>
<svg version="1.1" xmlns:xlink="http://www.w3.org/1999/xlink" width="36px" height="36px" xmlns="http://www.w3.org/2000/svg">
  <defs>
    <pattern id="BGPattern" patternUnits="userSpaceOnUse" alignment="0 0" imageRepeat="None" />
    <mask fill="white" id="Clip14428">
      <path d="M 35.184374999999996 9.842343750000001  L 35.184374999999996 6.7078125  C 35.184374999999996 4.691249999999999  34.547343749999996 2.8181250000000015  33.46734374999999 1.2782812500000005  L 1.278281249999998 33.46734374999999  C 2.8181250000000015 34.547343749999996  4.691249999999999 35.184374999999996  6.7078125 35.184374999999996  L 9.842343750000001 35.184374999999996  L 35.184374999999996 9.842343750000001  Z " fill-rule="evenodd" />
    </mask>
  </defs>
  <g transform="matrix(1 0 0 1 -164 -1244 )">
    <path d="M 35.184374999999996 9.842343750000001  L 35.184374999999996 6.7078125  C 35.184374999999996 4.691249999999999  34.547343749999996 2.8181250000000015  33.46734374999999 1.2782812500000005  L 1.278281249999998 33.46734374999999  C 2.8181250000000015 34.547343749999996  4.691249999999999 35.184374999999996  6.7078125 35.184374999999996  L 9.842343750000001 35.184374999999996  L 35.184374999999996 9.842343750000001  Z " fill-rule="nonzero" fill="rgba(255, 98, 88, 1)" stroke="none" transform="matrix(1 0 0 1 164 1244 )" class="fill" />
    <path d="M 35.184374999999996 9.842343750000001  L 35.184374999999996 6.7078125  C 35.184374999999996 4.691249999999999  34.547343749999996 2.8181250000000015  33.46734374999999 1.2782812500000005  L 1.278281249999998 33.46734374999999  C 2.8181250000000015 34.547343749999996  4.691249999999999 35.184374999999996  6.7078125 35.184374999999996  L 9.842343750000001 35.184374999999996  L 35.184374999999996 9.842343750000001  Z " stroke-width="0" stroke-dasharray="0" stroke="rgba(255, 255, 255, 0)" fill="none" transform="matrix(1 0 0 1 164 1244 )" class="stroke" mask="url(#Clip14428)" />
  </g>
</svg>