<?xml version="1.0" encoding="utf-8"?>
<svg version="1.1" xmlns:xlink="http://www.w3.org/1999/xlink" width="33px" height="33px" xmlns="http://www.w3.org/2000/svg">
  <defs>
    <pattern id="BGPattern" patternUnits="userSpaceOnUse" alignment="0 0" imageRepeat="None" />
    <mask fill="white" id="Clip7479">
      <path d="M 1.2360677083333327 31.975911458333332  C 1.8591145833333342 32.100520833333334  2.5036458333333345 32.16927083333333  3.1653645833333335 32.16927083333333  L 11.509895833333331 32.16927083333333  L 32.16927083333333 11.509895833333331  L 32.16927083333333 3.1653645833333335  C 32.16927083333333 2.5036458333333345  32.100520833333334 1.8591145833333342  31.975911458333332 1.2360677083333327  L 1.2360677083333327 31.975911458333332  Z " fill-rule="evenodd" />
    </mask>
  </defs>
  <g transform="matrix(1 0 0 1 -167 -1247 )">
    <path d="M 1.2360677083333327 31.975911458333332  C 1.8591145833333342 32.100520833333334  2.5036458333333345 32.16927083333333  3.1653645833333335 32.16927083333333  L 11.509895833333331 32.16927083333333  L 32.16927083333333 11.509895833333331  L 32.16927083333333 3.1653645833333335  C 32.16927083333333 2.5036458333333345  32.100520833333334 1.8591145833333342  31.975911458333332 1.2360677083333327  L 1.2360677083333327 31.975911458333332  Z " fill-rule="nonzero" fill="rgba(255, 97, 86, 1)" stroke="none" transform="matrix(1 0 0 1 167 1247 )" class="fill" />
    <path d="M 1.2360677083333327 31.975911458333332  C 1.8591145833333342 32.100520833333334  2.5036458333333345 32.16927083333333  3.1653645833333335 32.16927083333333  L 11.509895833333331 32.16927083333333  L 32.16927083333333 11.509895833333331  L 32.16927083333333 3.1653645833333335  C 32.16927083333333 2.5036458333333345  32.100520833333334 1.8591145833333342  31.975911458333332 1.2360677083333327  L 1.2360677083333327 31.975911458333332  Z " stroke-width="0" stroke-dasharray="0" stroke="rgba(255, 255, 255, 0)" fill="none" transform="matrix(1 0 0 1 167 1247 )" class="stroke" mask="url(#Clip7479)" />
  </g>
</svg>