<?xml version="1.0" encoding="utf-8"?>
<svg version="1.1" xmlns:xlink="http://www.w3.org/1999/xlink" width="20px" height="20px" xmlns="http://www.w3.org/2000/svg">
  <defs>
    <pattern id="BGPattern" patternUnits="userSpaceOnUse" alignment="0 0" imageRepeat="None" />
    <mask fill="white" id="Clip8418">
      <path d="M 1.3601562500000002 19.221874999999997  L 19.221874999999997 1.3601562500000002  C 18.378124999999997 0.7882812499999998  17.36328125 0.453125  16.2734375 0.453125  L 14.414843750000001 0.453125  L 0.453125 14.414843750000001  L 0.453125 16.2734375  C 0.453125 17.36328125  0.7882812499999998 18.378124999999997  1.3601562500000002 19.221874999999997  Z " fill-rule="evenodd" />
    </mask>
  </defs>
  <g transform="matrix(1 0 0 1 -92 -1343 )">
    <path d="M 1.3601562500000002 19.221874999999997  L 19.221874999999997 1.3601562500000002  C 18.378124999999997 0.7882812499999998  17.36328125 0.453125  16.2734375 0.453125  L 14.414843750000001 0.453125  L 0.453125 14.414843750000001  L 0.453125 16.2734375  C 0.453125 17.36328125  0.7882812499999998 18.378124999999997  1.3601562500000002 19.221874999999997  Z " fill-rule="nonzero" fill="rgba(255, 100, 93, 1)" stroke="none" transform="matrix(1 0 0 1 92 1343 )" class="fill" />
    <path d="M 1.3601562500000002 19.221874999999997  L 19.221874999999997 1.3601562500000002  C 18.378124999999997 0.7882812499999998  17.36328125 0.453125  16.2734375 0.453125  L 14.414843750000001 0.453125  L 0.453125 14.414843750000001  L 0.453125 16.2734375  C 0.453125 17.36328125  0.7882812499999998 18.378124999999997  1.3601562500000002 19.221874999999997  Z " stroke-width="0" stroke-dasharray="0" stroke="rgba(255, 255, 255, 0)" fill="none" transform="matrix(1 0 0 1 92 1343 )" class="stroke" mask="url(#Clip8418)" />
  </g>
</svg>