<?xml version="1.0" encoding="utf-8"?>
<svg version="1.1" xmlns:xlink="http://www.w3.org/1999/xlink" width="7px" height="7px" xmlns="http://www.w3.org/2000/svg">
  <defs>
    <pattern id="BGPattern" patternUnits="userSpaceOnUse" alignment="0 0" imageRepeat="None" />
    <mask fill="white" id="Clip14449">
      <path d="M 0.45312500000000006 6.071093749999999  L 6.071093749999999 0.45312500000000006  L 5.7265625 0.45312500000000006  C 2.8273437500000003 0.45312500000000006  0.45312500000000006 2.8273437500000003  0.45312500000000006 5.7265625  L 0.45312500000000006 6.071093749999999  Z " fill-rule="evenodd" />
    </mask>
  </defs>
  <g transform="matrix(1 0 0 1 -92 -1343 )">
    <path d="M 0.45312500000000006 6.071093749999999  L 6.071093749999999 0.45312500000000006  L 5.7265625 0.45312500000000006  C 2.8273437500000003 0.45312500000000006  0.45312500000000006 2.8273437500000003  0.45312500000000006 5.7265625  L 0.45312500000000006 6.071093749999999  Z " fill-rule="nonzero" fill="rgba(255, 104, 103, 1)" stroke="none" transform="matrix(1 0 0 1 92 1343 )" class="fill" />
    <path d="M 0.45312500000000006 6.071093749999999  L 6.071093749999999 0.45312500000000006  L 5.7265625 0.45312500000000006  C 2.8273437500000003 0.45312500000000006  0.45312500000000006 2.8273437500000003  0.45312500000000006 5.7265625  L 0.45312500000000006 6.071093749999999  Z " stroke-width="0" stroke-dasharray="0" stroke="rgba(255, 255, 255, 0)" fill="none" transform="matrix(1 0 0 1 92 1343 )" class="stroke" mask="url(#Clip14449)" />
  </g>
</svg>