<?xml version="1.0" encoding="utf-8"?>
<svg version="1.1" xmlns:xlink="http://www.w3.org/1999/xlink" width="19px" height="19px" xmlns="http://www.w3.org/2000/svg">
  <defs>
    <pattern id="BGPattern" patternUnits="userSpaceOnUse" alignment="0 0" imageRepeat="None" />
    <mask fill="white" id="Clip18039">
      <path d="M 18.31015625 0.8656249999999999  C 17.68203125 0.6007812499999998  16.995312499999997 0.453125  16.2734375 0.453125  L 13.008593750000001 0.453125  L 0.453125 13.008593750000001  L 0.453125 16.2734375  C 0.453125 16.995312499999997  0.6007812499999998 17.68203125  0.8656249999999999 18.31015625  L 18.31015625 0.8656249999999999  Z " fill-rule="evenodd" />
    </mask>
  </defs>
  <g transform="matrix(1 0 0 1 -92 -1343 )">
    <path d="M 18.31015625 0.8656249999999999  C 17.68203125 0.6007812499999998  16.995312499999997 0.453125  16.2734375 0.453125  L 13.008593750000001 0.453125  L 0.453125 13.008593750000001  L 0.453125 16.2734375  C 0.453125 16.995312499999997  0.6007812499999998 17.68203125  0.8656249999999999 18.31015625  L 18.31015625 0.8656249999999999  Z " fill-rule="nonzero" fill="rgba(255, 101, 94, 1)" stroke="none" transform="matrix(1 0 0 1 92 1343 )" class="fill" />
    <path d="M 18.31015625 0.8656249999999999  C 17.68203125 0.6007812499999998  16.995312499999997 0.453125  16.2734375 0.453125  L 13.008593750000001 0.453125  L 0.453125 13.008593750000001  L 0.453125 16.2734375  C 0.453125 16.995312499999997  0.6007812499999998 17.68203125  0.8656249999999999 18.31015625  L 18.31015625 0.8656249999999999  Z " stroke-width="0" stroke-dasharray="0" stroke="rgba(255, 255, 255, 0)" fill="none" transform="matrix(1 0 0 1 92 1343 )" class="stroke" mask="url(#Clip18039)" />
  </g>
</svg>