<?xml version="1.0" encoding="utf-8"?>
<svg version="1.1" xmlns:xlink="http://www.w3.org/1999/xlink" width="10px" height="10px" xmlns="http://www.w3.org/2000/svg">
  <defs>
    <pattern id="BGPattern" patternUnits="userSpaceOnUse" alignment="0 0" imageRepeat="None" />
    <mask fill="white" id="Clip4298">
      <path d="M 9.739583333333334 2.635416682942715  C 9.7395833063663 6.530174752399063  6.582258053180308 9.687499983723958  2.6874999837239573 9.687499983723953  C 1.8245550621133422 9.687499983723953  1.124999983723957 8.987944905334567  1.124999983723957 8.124999983723953  C 1.124999983723957 7.262055062113344  1.8245550621133422 6.562499983723953  2.6874999837239573 6.562499983723953  C 4.856368209959072 6.562499983723953  6.614583306366294 4.804284909177821  6.614583333333327 2.635416682942709  C 6.614583333333327 1.7724717613320942  7.314138411722718 1.072916682942709  8.177083333333327 1.072916682942709  C 9.040028254943943 1.072916682942709  9.739583333333327 1.7724717613320942  9.739583333333327 2.635416682942709  Z " fill-rule="evenodd" />
    </mask>
  </defs>
  <g transform="matrix(1 0 0 1 -176 -629 )">
    <path d="M 9.739583333333334 2.635416682942715  C 9.7395833063663 6.530174752399063  6.582258053180308 9.687499983723958  2.6874999837239573 9.687499983723953  C 1.8245550621133422 9.687499983723953  1.124999983723957 8.987944905334567  1.124999983723957 8.124999983723953  C 1.124999983723957 7.262055062113344  1.8245550621133422 6.562499983723953  2.6874999837239573 6.562499983723953  C 4.856368209959072 6.562499983723953  6.614583306366294 4.804284909177821  6.614583333333327 2.635416682942709  C 6.614583333333327 1.7724717613320942  7.314138411722718 1.072916682942709  8.177083333333327 1.072916682942709  C 9.040028254943943 1.072916682942709  9.739583333333327 1.7724717613320942  9.739583333333327 2.635416682942709  Z " fill-rule="nonzero" fill="rgba(253, 143, 158, 1)" stroke="none" transform="matrix(1 0 0 1 176 629 )" class="fill" />
    <path d="M 9.739583333333334 2.635416682942715  C 9.7395833063663 6.530174752399063  6.582258053180308 9.687499983723958  2.6874999837239573 9.687499983723953  C 1.8245550621133422 9.687499983723953  1.124999983723957 8.987944905334567  1.124999983723957 8.124999983723953  C 1.124999983723957 7.262055062113344  1.8245550621133422 6.562499983723953  2.6874999837239573 6.562499983723953  C 4.856368209959072 6.562499983723953  6.614583306366294 4.804284909177821  6.614583333333327 2.635416682942709  C 6.614583333333327 1.7724717613320942  7.314138411722718 1.072916682942709  8.177083333333327 1.072916682942709  C 9.040028254943943 1.072916682942709  9.739583333333327 1.7724717613320942  9.739583333333327 2.635416682942709  Z " stroke-width="0" stroke-dasharray="0" stroke="rgba(255, 255, 255, 0)" fill="none" transform="matrix(1 0 0 1 176 629 )" class="stroke" mask="url(#Clip4298)" />
  </g>
</svg>