<?xml version="1.0" encoding="utf-8"?>
<svg version="1.1" xmlns:xlink="http://www.w3.org/1999/xlink" width="8px" height="13px" xmlns="http://www.w3.org/2000/svg">
  <defs>
    <pattern id="BGPattern" patternUnits="userSpaceOnUse" alignment="0 0" imageRepeat="None" />
    <mask fill="white" id="Clip14518">
      <path d="M 4.4465 1.6666666738281246  L 1.5534999999999997 1.6666666738281246  C 1.17380423449133 1.6666666738281246  0.8659999999999997 1.9744709083194545  0.8659999999999997 2.354166673828125  C 0.8659999999999997 2.7338624393367947  1.17380423449133 3.041666673828125  1.5534999999999997 3.041666673828125  L 4.4465 3.041666673828125  C 4.82619576550867 3.041666673828125  5.134 2.7338624393367947  5.134 2.354166673828125  C 5.134 1.9744709083194545  4.82619576550867 1.6666666738281246  4.4465 1.6666666738281246  Z M 6.208333326171875 0.9791666738281255  C 6.208333326171875 0.5994709083194549  6.516137560663205 0.2916666738281255  6.895833326171875 0.29166667382812506  C 7.275529091680546 0.29166667382812506  7.583333326171875 0.5994709083194549  7.583333326171875 0.9791666738281255  L 7.583333326171875 3.270833326171876  C 7.583333326171875 3.6505290916805464  7.275529091680546 3.9583333261718754  6.895833326171875 3.9583333261718754  C 6.516137560663205 3.9583333261718754  6.208333326171875 3.6505290916805464  6.208333326171875 3.270833326171876  L 6.208333326171875 0.9791666738281255  Z M 6.162500000000001 8.45  L 2.4958333261718764 5.699999999999999  C 2.3768297087150643 5.610747286907392  2.23208784799289 5.5625  2.0833333261718767 5.5625  C 1.703637560663207 5.5625  1.3958333261718767 5.870304234491329  1.3958333261718767 6.25  L 1.395833326171875 12.208333326171875  C 1.395998352517335 12.587912333926882  1.7037542175685356 12.895534427656775  2.083333261197094 12.895534427656775  C 2.2499126927285413 12.895534427656775  2.4108265189968687 12.835053664287544  2.5361666738281254 12.725333326171874  L 6.202833326171877 9.517  C 6.351853559938673 9.386457020684334  6.437316124002784 9.197974385620743  6.437316124002784 8.99986204496393  C 6.437316124002784 8.783547292077321  6.335508396186324 8.579846706409636  6.162500000000001 8.45  Z M 4.659166673828125 9.04125  L 2.770833326171875 10.693083326171875  L 2.770833326171875 7.625  L 4.659166673828125 9.04125  Z " fill-rule="evenodd" />
    </mask>
  </defs>
  <g transform="matrix(1 0 0 1 -33 -228 )">
    <path d="M 4.4465 1.6666666738281246  L 1.5534999999999997 1.6666666738281246  C 1.17380423449133 1.6666666738281246  0.8659999999999997 1.9744709083194545  0.8659999999999997 2.354166673828125  C 0.8659999999999997 2.7338624393367947  1.17380423449133 3.041666673828125  1.5534999999999997 3.041666673828125  L 4.4465 3.041666673828125  C 4.82619576550867 3.041666673828125  5.134 2.7338624393367947  5.134 2.354166673828125  C 5.134 1.9744709083194545  4.82619576550867 1.6666666738281246  4.4465 1.6666666738281246  Z M 6.208333326171875 0.9791666738281255  C 6.208333326171875 0.5994709083194549  6.516137560663205 0.2916666738281255  6.895833326171875 0.29166667382812506  C 7.275529091680546 0.29166667382812506  7.583333326171875 0.5994709083194549  7.583333326171875 0.9791666738281255  L 7.583333326171875 3.270833326171876  C 7.583333326171875 3.6505290916805464  7.275529091680546 3.9583333261718754  6.895833326171875 3.9583333261718754  C 6.516137560663205 3.9583333261718754  6.208333326171875 3.6505290916805464  6.208333326171875 3.270833326171876  L 6.208333326171875 0.9791666738281255  Z M 6.162500000000001 8.45  L 2.4958333261718764 5.699999999999999  C 2.3768297087150643 5.610747286907392  2.23208784799289 5.5625  2.0833333261718767 5.5625  C 1.703637560663207 5.5625  1.3958333261718767 5.870304234491329  1.3958333261718767 6.25  L 1.395833326171875 12.208333326171875  C 1.395998352517335 12.587912333926882  1.7037542175685356 12.895534427656775  2.083333261197094 12.895534427656775  C 2.2499126927285413 12.895534427656775  2.4108265189968687 12.835053664287544  2.5361666738281254 12.725333326171874  L 6.202833326171877 9.517  C 6.351853559938673 9.386457020684334  6.437316124002784 9.197974385620743  6.437316124002784 8.99986204496393  C 6.437316124002784 8.783547292077321  6.335508396186324 8.579846706409636  6.162500000000001 8.45  Z M 4.659166673828125 9.04125  L 2.770833326171875 10.693083326171875  L 2.770833326171875 7.625  L 4.659166673828125 9.04125  Z " fill-rule="nonzero" fill="rgba(255, 255, 255, 1)" stroke="none" transform="matrix(1 0 0 1 33 228 )" class="fill" />
    <path d="M 4.4465 1.6666666738281246  L 1.5534999999999997 1.6666666738281246  C 1.17380423449133 1.6666666738281246  0.8659999999999997 1.9744709083194545  0.8659999999999997 2.354166673828125  C 0.8659999999999997 2.7338624393367947  1.17380423449133 3.041666673828125  1.5534999999999997 3.041666673828125  L 4.4465 3.041666673828125  C 4.82619576550867 3.041666673828125  5.134 2.7338624393367947  5.134 2.354166673828125  C 5.134 1.9744709083194545  4.82619576550867 1.6666666738281246  4.4465 1.6666666738281246  Z " stroke-width="0" stroke-dasharray="0" stroke="rgba(255, 255, 255, 0)" fill="none" transform="matrix(1 0 0 1 33 228 )" class="stroke" mask="url(#Clip14518)" />
    <path d="M 6.208333326171875 0.9791666738281255  C 6.208333326171875 0.5994709083194549  6.516137560663205 0.2916666738281255  6.895833326171875 0.29166667382812506  C 7.275529091680546 0.29166667382812506  7.583333326171875 0.5994709083194549  7.583333326171875 0.9791666738281255  L 7.583333326171875 3.270833326171876  C 7.583333326171875 3.6505290916805464  7.275529091680546 3.9583333261718754  6.895833326171875 3.9583333261718754  C 6.516137560663205 3.9583333261718754  6.208333326171875 3.6505290916805464  6.208333326171875 3.270833326171876  L 6.208333326171875 0.9791666738281255  Z " stroke-width="0" stroke-dasharray="0" stroke="rgba(255, 255, 255, 0)" fill="none" transform="matrix(1 0 0 1 33 228 )" class="stroke" mask="url(#Clip14518)" />
    <path d="M 6.162500000000001 8.45  L 2.4958333261718764 5.699999999999999  C 2.3768297087150643 5.610747286907392  2.23208784799289 5.5625  2.0833333261718767 5.5625  C 1.703637560663207 5.5625  1.3958333261718767 5.870304234491329  1.3958333261718767 6.25  L 1.395833326171875 12.208333326171875  C 1.395998352517335 12.587912333926882  1.7037542175685356 12.895534427656775  2.083333261197094 12.895534427656775  C 2.2499126927285413 12.895534427656775  2.4108265189968687 12.835053664287544  2.5361666738281254 12.725333326171874  L 6.202833326171877 9.517  C 6.351853559938673 9.386457020684334  6.437316124002784 9.197974385620743  6.437316124002784 8.99986204496393  C 6.437316124002784 8.783547292077321  6.335508396186324 8.579846706409636  6.162500000000001 8.45  Z " stroke-width="0" stroke-dasharray="0" stroke="rgba(255, 255, 255, 0)" fill="none" transform="matrix(1 0 0 1 33 228 )" class="stroke" mask="url(#Clip14518)" />
    <path d="M 4.659166673828125 9.04125  L 2.770833326171875 10.693083326171875  L 2.770833326171875 7.625  L 4.659166673828125 9.04125  Z " stroke-width="0" stroke-dasharray="0" stroke="rgba(255, 255, 255, 0)" fill="none" transform="matrix(1 0 0 1 33 228 )" class="stroke" mask="url(#Clip14518)" />
  </g>
</svg>