<?xml version="1.0" encoding="utf-8"?>
<svg version="1.1" xmlns:xlink="http://www.w3.org/1999/xlink" width="5px" height="7px" xmlns="http://www.w3.org/2000/svg">
  <defs>
    <pattern id="BGPattern" patternUnits="userSpaceOnUse" alignment="0 0" imageRepeat="None" />
    <mask fill="white" id="Clip8485">
      <path d="M 0.3539533176707069 3.2810260091852994  C 0.3539533176707069 3.861296847831969  0.5735295660944514 4.4177920401606166  0.9643608561197918 4.828046066894533  C 1.3550789788004902 5.238418937104626  1.8850744105302297 5.468974007904546  2.4377133164438756 5.468974007904546  C 3.5883065542470343 5.468974007904546  4.521046666053247 4.489596890508022  4.521046666053247 3.281473990814705  C 4.521046666053247 2.7012031521680386  4.301470417629503 2.1447079598393852  3.910639127604168 1.7344539331054705  C 3.5199210049234635 1.3240810628953723  2.9899255731937275 1.0935259920954563  2.4372866672800786 1.0935259920954563  C 1.2866934294769194 1.0935259920954563  0.3539533176707069 2.072903109491979  0.3539533176707069 3.2810260091852994  Z " fill-rule="evenodd" />
    </mask>
  </defs>
  <g transform="matrix(1 0 0 1 -172 -607 )">
    <path d="M 0.3539533176707069 3.2810260091852994  C 0.3539533176707069 3.861296847831969  0.5735295660944514 4.4177920401606166  0.9643608561197918 4.828046066894533  C 1.3550789788004902 5.238418937104626  1.8850744105302297 5.468974007904546  2.4377133164438756 5.468974007904546  C 3.5883065542470343 5.468974007904546  4.521046666053247 4.489596890508022  4.521046666053247 3.281473990814705  C 4.521046666053247 2.7012031521680386  4.301470417629503 2.1447079598393852  3.910639127604168 1.7344539331054705  C 3.5199210049234635 1.3240810628953723  2.9899255731937275 1.0935259920954563  2.4372866672800786 1.0935259920954563  C 1.2866934294769194 1.0935259920954563  0.3539533176707069 2.072903109491979  0.3539533176707069 3.2810260091852994  Z " fill-rule="nonzero" fill="rgba(255, 155, 87, 1)" stroke="none" transform="matrix(1 0 0 1 172 607 )" class="fill" />
    <path d="M 0.3539533176707069 3.2810260091852994  C 0.3539533176707069 3.861296847831969  0.5735295660944514 4.4177920401606166  0.9643608561197918 4.828046066894533  C 1.3550789788004902 5.238418937104626  1.8850744105302297 5.468974007904546  2.4377133164438756 5.468974007904546  C 3.5883065542470343 5.468974007904546  4.521046666053247 4.489596890508022  4.521046666053247 3.281473990814705  C 4.521046666053247 2.7012031521680386  4.301470417629503 2.1447079598393852  3.910639127604168 1.7344539331054705  C 3.5199210049234635 1.3240810628953723  2.9899255731937275 1.0935259920954563  2.4372866672800786 1.0935259920954563  C 1.2866934294769194 1.0935259920954563  0.3539533176707069 2.072903109491979  0.3539533176707069 3.2810260091852994  Z " stroke-width="0" stroke-dasharray="0" stroke="rgba(255, 255, 255, 0)" fill="none" transform="matrix(1 0 0 1 172 607 )" class="stroke" mask="url(#Clip8485)" />
  </g>
</svg>