<?xml version="1.0" encoding="utf-8"?>
<svg version="1.1" xmlns:xlink="http://www.w3.org/1999/xlink" width="36px" height="36px" xmlns="http://www.w3.org/2000/svg">
  <defs>
    <pattern id="BGPattern" patternUnits="userSpaceOnUse" alignment="0 0" imageRepeat="None" />
    <mask fill="white" id="Clip8508">
      <path d="M 2.4482812500000004 34.599374999999995  L 34.599374999999995 2.4482812500000004  C 33.08062499999999 1.4189062499999998  31.25390625 0.8156249999999999  29.2921875 0.8156249999999999  L 25.946718750000002 0.8156249999999999  L 0.8156249999999999 25.946718750000002  L 0.8156249999999999 29.2921875  C 0.8156249999999999 31.25390625  1.4189062499999998 33.08062499999999  2.4482812500000004 34.599374999999995  Z " fill-rule="evenodd" />
    </mask>
  </defs>
  <g transform="matrix(1 0 0 1 -160 -1240 )">
    <path d="M 2.4482812500000004 34.599374999999995  L 34.599374999999995 2.4482812500000004  C 33.08062499999999 1.4189062499999998  31.25390625 0.8156249999999999  29.2921875 0.8156249999999999  L 25.946718750000002 0.8156249999999999  L 0.8156249999999999 25.946718750000002  L 0.8156249999999999 29.2921875  C 0.8156249999999999 31.25390625  1.4189062499999998 33.08062499999999  2.4482812500000004 34.599374999999995  Z " fill-rule="nonzero" fill="rgba(255, 100, 93, 1)" stroke="none" transform="matrix(1 0 0 1 160 1240 )" class="fill" />
    <path d="M 2.4482812500000004 34.599374999999995  L 34.599374999999995 2.4482812500000004  C 33.08062499999999 1.4189062499999998  31.25390625 0.8156249999999999  29.2921875 0.8156249999999999  L 25.946718750000002 0.8156249999999999  L 0.8156249999999999 25.946718750000002  L 0.8156249999999999 29.2921875  C 0.8156249999999999 31.25390625  1.4189062499999998 33.08062499999999  2.4482812500000004 34.599374999999995  Z " stroke-width="0" stroke-dasharray="0" stroke="rgba(255, 255, 255, 0)" fill="none" transform="matrix(1 0 0 1 160 1240 )" class="stroke" mask="url(#Clip8508)" />
  </g>
</svg>