<?xml version="1.0" encoding="utf-8"?>
<svg version="1.1" xmlns:xlink="http://www.w3.org/1999/xlink" width="14px" height="19px" xmlns="http://www.w3.org/2000/svg">
  <defs>
    <pattern id="BGPattern" patternUnits="userSpaceOnUse" alignment="0 0" imageRepeat="None" />
    <mask fill="white" id="Clip16258">
      <path d="M 11.91093751749495 18.686967803657723  C 11.907291642250552 18.686967803657723  11.903645777133693 18.686955808432447  11.899999982910154 18.686931818181815  C 10.993907815219009 18.686931818181815  10.259374982910154 17.961938373305543  10 17.06761363636363  L 10 4.1130681818181785  L 5 4.1130681818181785  L 5 15.847727255859372  C 4.889062517089842 15.847727255859372  4.889062517089842 15.847727255859372  4.889062517089842 15.847727255859372  C 4.889062517089842 16.74205199280128  4.154529684780988 17.46704543767755  3.248437517089842 17.46704543767755  C 2.3423453493986965 17.46704543767755  1.607812517089842 16.74205199280128  1.607812517089842 15.847727255859372  L 1.607812517089842 2.450568198686078  C 1.607812517089842 1.556243461744168  2.3423453493986965 0.831250016867896  3.248437517089842 0.831250016867896  L 11.910937517089843 0.831250016867896  C 12.817029684780989 0.831250016867896  13.551562517089843 1.556243461744168  13.551562517089843 2.450568198686078  L 13.551562517089843 17.06761363636363  C 13.55156251749495 17.961974358781443  12.817029685186096 18.686967803657723  11.91093751749495 18.686967803657723  Z " fill-rule="evenodd" />
    </mask>
  </defs>
  <g transform="matrix(1 0 0 1 -162 -622 )">
    <path d="M 11.91093751749495 18.686967803657723  C 11.907291642250552 18.686967803657723  11.903645777133693 18.686955808432447  11.899999982910154 18.686931818181815  C 10.993907815219009 18.686931818181815  10.259374982910154 17.961938373305543  10 17.06761363636363  L 10 4.1130681818181785  L 5 4.1130681818181785  L 5 15.847727255859372  C 4.889062517089842 15.847727255859372  4.889062517089842 15.847727255859372  4.889062517089842 15.847727255859372  C 4.889062517089842 16.74205199280128  4.154529684780988 17.46704543767755  3.248437517089842 17.46704543767755  C 2.3423453493986965 17.46704543767755  1.607812517089842 16.74205199280128  1.607812517089842 15.847727255859372  L 1.607812517089842 2.450568198686078  C 1.607812517089842 1.556243461744168  2.3423453493986965 0.831250016867896  3.248437517089842 0.831250016867896  L 11.910937517089843 0.831250016867896  C 12.817029684780989 0.831250016867896  13.551562517089843 1.556243461744168  13.551562517089843 2.450568198686078  L 13.551562517089843 17.06761363636363  C 13.55156251749495 17.961974358781443  12.817029685186096 18.686967803657723  11.91093751749495 18.686967803657723  Z " fill-rule="nonzero" fill="rgba(252, 69, 93, 1)" stroke="none" transform="matrix(1 0 0 1 162 622 )" class="fill" />
    <path d="M 11.91093751749495 18.686967803657723  C 11.907291642250552 18.686967803657723  11.903645777133693 18.686955808432447  11.899999982910154 18.686931818181815  C 10.993907815219009 18.686931818181815  10.259374982910154 17.961938373305543  10 17.06761363636363  L 10 4.1130681818181785  L 5 4.1130681818181785  L 5 15.847727255859372  C 4.889062517089842 15.847727255859372  4.889062517089842 15.847727255859372  4.889062517089842 15.847727255859372  C 4.889062517089842 16.74205199280128  4.154529684780988 17.46704543767755  3.248437517089842 17.46704543767755  C 2.3423453493986965 17.46704543767755  1.607812517089842 16.74205199280128  1.607812517089842 15.847727255859372  L 1.607812517089842 2.450568198686078  C 1.607812517089842 1.556243461744168  2.3423453493986965 0.831250016867896  3.248437517089842 0.831250016867896  L 11.910937517089843 0.831250016867896  C 12.817029684780989 0.831250016867896  13.551562517089843 1.556243461744168  13.551562517089843 2.450568198686078  L 13.551562517089843 17.06761363636363  C 13.55156251749495 17.961974358781443  12.817029685186096 18.686967803657723  11.91093751749495 18.686967803657723  Z " stroke-width="0" stroke-dasharray="0" stroke="rgba(255, 255, 255, 0)" fill="none" transform="matrix(1 0 0 1 162 622 )" class="stroke" mask="url(#Clip16258)" />
  </g>
</svg>