<?xml version="1.0" encoding="utf-8"?>
<svg version="1.1" xmlns:xlink="http://www.w3.org/1999/xlink" width="60px" height="34px" xmlns="http://www.w3.org/2000/svg">
  <defs>
    <pattern id="BGPattern" patternUnits="userSpaceOnUse" alignment="0 0" imageRepeat="None" />
    <mask fill="white" id="Clip3538">
      <path d="M 60 30.666666660156253  C 60 32.666666640625  58.666666640625 34  56.66666666015625 34  C 54.6666666796875 34  53.333333320312505 32.666666640625  53.333333320312505 30.666666660156253  C 53.333333320312505 17.666666640625003  42.99999996093751 7.333333339843755  30.000000000000007 7.333333339843755  C 17.000000039062506 7.333333339843755  6.666666679687507 17.66666669921875  6.666666679687507 30.666666660156253  C 6.666666679687507 32.666666640625  5.333333320312508 34  3.3333333398437572 34  C 1.3333333593750074 34  0 32.666666640625  0 30.666666660156253  C 0 14.000000019531257  13.333333359375008 0.6666666601562525  30.000000000000007 0.6666666601562525  C 46.666666640625 0.6666666601562525  60 14.000000019531257  60 30.666666660156253  Z " fill-rule="evenodd" />
    </mask>
  </defs>
  <g transform="matrix(1 0 0 1 1180 -471 )">
    <path d="M 60 30.666666660156253  C 60 32.666666640625  58.666666640625 34  56.66666666015625 34  C 54.6666666796875 34  53.333333320312505 32.666666640625  53.333333320312505 30.666666660156253  C 53.333333320312505 17.666666640625003  42.99999996093751 7.333333339843755  30.000000000000007 7.333333339843755  C 17.000000039062506 7.333333339843755  6.666666679687507 17.66666669921875  6.666666679687507 30.666666660156253  C 6.666666679687507 32.666666640625  5.333333320312508 34  3.3333333398437572 34  C 1.3333333593750074 34  0 32.666666640625  0 30.666666660156253  C 0 14.000000019531257  13.333333359375008 0.6666666601562525  30.000000000000007 0.6666666601562525  C 46.666666640625 0.6666666601562525  60 14.000000019531257  60 30.666666660156253  Z " fill-rule="nonzero" fill="rgba(255, 255, 255, 1)" stroke="none" transform="matrix(1 0 0 1 -1180 471 )" class="fill" />
    <path d="M 60 30.666666660156253  C 60 32.666666640625  58.666666640625 34  56.66666666015625 34  C 54.6666666796875 34  53.333333320312505 32.666666640625  53.333333320312505 30.666666660156253  C 53.333333320312505 17.666666640625003  42.99999996093751 7.333333339843755  30.000000000000007 7.333333339843755  C 17.000000039062506 7.333333339843755  6.666666679687507 17.66666669921875  6.666666679687507 30.666666660156253  C 6.666666679687507 32.666666640625  5.333333320312508 34  3.3333333398437572 34  C 1.3333333593750074 34  0 32.666666640625  0 30.666666660156253  C 0 14.000000019531257  13.333333359375008 0.6666666601562525  30.000000000000007 0.6666666601562525  C 46.666666640625 0.6666666601562525  60 14.000000019531257  60 30.666666660156253  Z " stroke-width="0" stroke-dasharray="0" stroke="rgba(255, 255, 255, 0)" fill="none" transform="matrix(1 0 0 1 -1180 471 )" class="stroke" mask="url(#Clip3538)" />
  </g>
</svg>