<?xml version="1.0" encoding="utf-8"?>
<svg version="1.1" xmlns:xlink="http://www.w3.org/1999/xlink" width="40px" height="40px" xmlns="http://www.w3.org/2000/svg">
  <defs>
    <pattern id="BGPattern" patternUnits="userSpaceOnUse" alignment="0 0" imageRepeat="None" />
    <mask fill="white" id="Clip2572">
      <path d="M 2.34375 20  C 2.34375 29.7512890625  10.248710937499999 37.65625  20 37.65625  C 29.7512890625 37.65625  37.65625 29.7512890625  37.65625 20  C 37.65625 10.248710937499999  29.7512890625 2.34375  20 2.34375  C 10.248710937499999 2.34375  2.34375 10.2487109375  2.34375 20  Z M 40 20  C 40 31.045703125  31.045703125 40  20 40  C 8.954296874999999 40  0 31.045703125  0 20  C 0 8.954296875  8.954296874999999 0  20 0  C 31.045703125 0  40 8.954296874999999  40 20  Z " fill-rule="evenodd" />
    </mask>
  </defs>
  <g transform="matrix(1 0 0 1 1083 -1429 )">
    <path d="M 2.34375 20  C 2.34375 29.7512890625  10.248710937499999 37.65625  20 37.65625  C 29.7512890625 37.65625  37.65625 29.7512890625  37.65625 20  C 37.65625 10.248710937499999  29.7512890625 2.34375  20 2.34375  C 10.248710937499999 2.34375  2.34375 10.2487109375  2.34375 20  Z M 40 20  C 40 31.045703125  31.045703125 40  20 40  C 8.954296874999999 40  0 31.045703125  0 20  C 0 8.954296875  8.954296874999999 0  20 0  C 31.045703125 0  40 8.954296874999999  40 20  Z " fill-rule="nonzero" fill="rgba(255, 255, 255, 1)" stroke="none" transform="matrix(1 0 0 1 -1083 1429 )" class="fill" />
    <path d="M 2.34375 20  C 2.34375 29.7512890625  10.248710937499999 37.65625  20 37.65625  C 29.7512890625 37.65625  37.65625 29.7512890625  37.65625 20  C 37.65625 10.248710937499999  29.7512890625 2.34375  20 2.34375  C 10.248710937499999 2.34375  2.34375 10.2487109375  2.34375 20  Z " stroke-width="0" stroke-dasharray="0" stroke="rgba(255, 255, 255, 0)" fill="none" transform="matrix(1 0 0 1 -1083 1429 )" class="stroke" mask="url(#Clip2572)" />
    <path d="M 40 20  C 40 31.045703125  31.045703125 40  20 40  C 8.954296874999999 40  0 31.045703125  0 20  C 0 8.954296875  8.954296874999999 0  20 0  C 31.045703125 0  40 8.954296874999999  40 20  Z " stroke-width="0" stroke-dasharray="0" stroke="rgba(255, 255, 255, 0)" fill="none" transform="matrix(1 0 0 1 -1083 1429 )" class="stroke" mask="url(#Clip2572)" />
  </g>
</svg>