<?xml version="1.0" encoding="utf-8"?>
<svg version="1.1" xmlns:xlink="http://www.w3.org/1999/xlink" width="60px" height="60px" xmlns="http://www.w3.org/2000/svg">
  <defs>
    <pattern id="BGPattern" patternUnits="userSpaceOnUse" alignment="0 0" imageRepeat="None" />
    <mask fill="white" id="Clip7483">
      <path d="M 3.515625 30  C 3.515625 44.62693359375  15.373066406249997 56.484375  30 56.484375  C 44.62693359375 56.484375  56.484375 44.62693359375  56.484375 30  C 56.484375 15.373066406249997  44.62693359375 3.515625  30 3.515625  C 15.373066406249997 3.515625  3.515625 15.37306640625  3.515625 30  Z M 60 30  C 60 46.5685546875  46.5685546875 60  30 60  C 13.4314453125 60  0 46.5685546875  0 30  C 0 13.431445312500001  13.4314453125 0  30 0  C 46.5685546875 0  60 13.4314453125  60 30  Z " fill-rule="evenodd" />
    </mask>
  </defs>
  <g transform="matrix(1 0 0 1 1065 -445 )">
    <path d="M 3.515625 30  C 3.515625 44.62693359375  15.373066406249997 56.484375  30 56.484375  C 44.62693359375 56.484375  56.484375 44.62693359375  56.484375 30  C 56.484375 15.373066406249997  44.62693359375 3.515625  30 3.515625  C 15.373066406249997 3.515625  3.515625 15.37306640625  3.515625 30  Z M 60 30  C 60 46.5685546875  46.5685546875 60  30 60  C 13.4314453125 60  0 46.5685546875  0 30  C 0 13.431445312500001  13.4314453125 0  30 0  C 46.5685546875 0  60 13.4314453125  60 30  Z " fill-rule="nonzero" fill="rgba(255, 255, 255, 1)" stroke="none" transform="matrix(1 0 0 1 -1065 445 )" class="fill" />
    <path d="M 3.515625 30  C 3.515625 44.62693359375  15.373066406249997 56.484375  30 56.484375  C 44.62693359375 56.484375  56.484375 44.62693359375  56.484375 30  C 56.484375 15.373066406249997  44.62693359375 3.515625  30 3.515625  C 15.373066406249997 3.515625  3.515625 15.37306640625  3.515625 30  Z " stroke-width="0" stroke-dasharray="0" stroke="rgba(255, 255, 255, 0)" fill="none" transform="matrix(1 0 0 1 -1065 445 )" class="stroke" mask="url(#Clip7483)" />
    <path d="M 60 30  C 60 46.5685546875  46.5685546875 60  30 60  C 13.4314453125 60  0 46.5685546875  0 30  C 0 13.431445312500001  13.4314453125 0  30 0  C 46.5685546875 0  60 13.4314453125  60 30  Z " stroke-width="0" stroke-dasharray="0" stroke="rgba(255, 255, 255, 0)" fill="none" transform="matrix(1 0 0 1 -1065 445 )" class="stroke" mask="url(#Clip7483)" />
  </g>
</svg>