<?xml version="1.0" encoding="utf-8"?>
<svg version="1.1" xmlns:xlink="http://www.w3.org/1999/xlink" width="40px" height="23px" xmlns="http://www.w3.org/2000/svg">
  <defs>
    <pattern id="BGPattern" patternUnits="userSpaceOnUse" alignment="0 0" imageRepeat="None" />
    <mask fill="white" id="Clip3780">
      <path d="M 40 20.74509803481158  C 40 22.098039198069856  39.111111093750004 23  37.7777777734375 23  C 36.444444453125 23  35.555555546875006 22.098039198069856  35.555555546875006 20.74509803481158  C 35.555555546875006 11.950980374540443  28.666666640625003 4.9607843181295985  20.000000000000004 4.9607843181295985  C 11.333333359375004 4.9607843181295985  4.444444453125005 11.950980414177392  4.444444453125005 20.74509803481158  C 4.444444453125005 22.098039198069856  3.555555546875005 23  2.222222226562505 23  C 0.8888889062500049 23  0 22.098039198069856  0 20.74509803481158  C 0 9.47058824850644  8.888888906250006 0.4509803877527591  20.000000000000004 0.4509803877527591  C 31.111111093750004 0.4509803877527591  40 9.47058824850644  40 20.74509803481158  Z " fill-rule="evenodd" />
    </mask>
  </defs>
  <g transform="matrix(1 0 0 1 1159 -1446 )">
    <path d="M 40 20.74509803481158  C 40 22.098039198069856  39.111111093750004 23  37.7777777734375 23  C 36.444444453125 23  35.555555546875006 22.098039198069856  35.555555546875006 20.74509803481158  C 35.555555546875006 11.950980374540443  28.666666640625003 4.9607843181295985  20.000000000000004 4.9607843181295985  C 11.333333359375004 4.9607843181295985  4.444444453125005 11.950980414177392  4.444444453125005 20.74509803481158  C 4.444444453125005 22.098039198069856  3.555555546875005 23  2.222222226562505 23  C 0.8888889062500049 23  0 22.098039198069856  0 20.74509803481158  C 0 9.47058824850644  8.888888906250006 0.4509803877527591  20.000000000000004 0.4509803877527591  C 31.111111093750004 0.4509803877527591  40 9.47058824850644  40 20.74509803481158  Z " fill-rule="nonzero" fill="rgba(255, 255, 255, 1)" stroke="none" transform="matrix(1 0 0 1 -1159 1446 )" class="fill" />
    <path d="M 40 20.74509803481158  C 40 22.098039198069856  39.111111093750004 23  37.7777777734375 23  C 36.444444453125 23  35.555555546875006 22.098039198069856  35.555555546875006 20.74509803481158  C 35.555555546875006 11.950980374540443  28.666666640625003 4.9607843181295985  20.000000000000004 4.9607843181295985  C 11.333333359375004 4.9607843181295985  4.444444453125005 11.950980414177392  4.444444453125005 20.74509803481158  C 4.444444453125005 22.098039198069856  3.555555546875005 23  2.222222226562505 23  C 0.8888889062500049 23  0 22.098039198069856  0 20.74509803481158  C 0 9.47058824850644  8.888888906250006 0.4509803877527591  20.000000000000004 0.4509803877527591  C 31.111111093750004 0.4509803877527591  40 9.47058824850644  40 20.74509803481158  Z " stroke-width="0" stroke-dasharray="0" stroke="rgba(255, 255, 255, 0)" fill="none" transform="matrix(1 0 0 1 -1159 1446 )" class="stroke" mask="url(#Clip3780)" />
  </g>
</svg>