<?xml version="1.0" encoding="utf-8"?>
<svg version="1.1" xmlns:xlink="http://www.w3.org/1999/xlink" width="23px" height="23px" xmlns="http://www.w3.org/2000/svg">
  <defs>
    <pattern id="BGPattern" patternUnits="userSpaceOnUse" alignment="0 0" imageRepeat="None" />
    <mask fill="white" id="Clip3779">
      <path d="M 22.774509786305146 11.274509786305147  C 22.774509786305146 17.588235241268382  17.813725454963237 22.549019572610295  11.5 22.549019612247243  C 5.186274505399815 22.549019612247243  0.22549021369485328 17.588235280905327  0.22549021369485328 11.274509786305147  C 0.22549021369485328 4.960784291704963  5.186274545036765 0  11.5 0  C 17.813725454963237 0  22.774509786305146 4.960784331341912  22.774509786305146 11.274509786305147  Z M 18.264705895565257 11.274509786305147  C 18.264705895565257 7.441176457375919  15.333333328929225 4.50980389073989  11.5 4.509803930376837  C 7.66666667107077 4.5098039303768385  4.735294104434742 7.441176457375918  4.735294104434742 11.274509786305147  C 4.735294104434742 15.107843115234372  7.66666667107077 18.039215681870402  11.5 18.039215681870402  C 15.33333332892923 18.039215681870402  18.264705895565257 15.107843115234372  18.264705895565257 11.274509786305147  Z " fill-rule="evenodd" />
    </mask>
  </defs>
  <g transform="matrix(1 0 0 1 1150 -1429 )">
    <path d="M 22.774509786305146 11.274509786305147  C 22.774509786305146 17.588235241268382  17.813725454963237 22.549019572610295  11.5 22.549019612247243  C 5.186274505399815 22.549019612247243  0.22549021369485328 17.588235280905327  0.22549021369485328 11.274509786305147  C 0.22549021369485328 4.960784291704963  5.186274545036765 0  11.5 0  C 17.813725454963237 0  22.774509786305146 4.960784331341912  22.774509786305146 11.274509786305147  Z M 18.264705895565257 11.274509786305147  C 18.264705895565257 7.441176457375919  15.333333328929225 4.50980389073989  11.5 4.509803930376837  C 7.66666667107077 4.5098039303768385  4.735294104434742 7.441176457375918  4.735294104434742 11.274509786305147  C 4.735294104434742 15.107843115234372  7.66666667107077 18.039215681870402  11.5 18.039215681870402  C 15.33333332892923 18.039215681870402  18.264705895565257 15.107843115234372  18.264705895565257 11.274509786305147  Z " fill-rule="nonzero" fill="rgba(255, 255, 255, 1)" stroke="none" transform="matrix(1 0 0 1 -1150 1429 )" class="fill" />
    <path d="M 22.774509786305146 11.274509786305147  C 22.774509786305146 17.588235241268382  17.813725454963237 22.549019572610295  11.5 22.549019612247243  C 5.186274505399815 22.549019612247243  0.22549021369485328 17.588235280905327  0.22549021369485328 11.274509786305147  C 0.22549021369485328 4.960784291704963  5.186274545036765 0  11.5 0  C 17.813725454963237 0  22.774509786305146 4.960784331341912  22.774509786305146 11.274509786305147  Z " stroke-width="0" stroke-dasharray="0" stroke="rgba(255, 255, 255, 0)" fill="none" transform="matrix(1 0 0 1 -1150 1429 )" class="stroke" mask="url(#Clip3779)" />
    <path d="M 18.264705895565257 11.274509786305147  C 18.264705895565257 7.441176457375919  15.333333328929225 4.50980389073989  11.5 4.509803930376837  C 7.66666667107077 4.5098039303768385  4.735294104434742 7.441176457375918  4.735294104434742 11.274509786305147  C 4.735294104434742 15.107843115234372  7.66666667107077 18.039215681870402  11.5 18.039215681870402  C 15.33333332892923 18.039215681870402  18.264705895565257 15.107843115234372  18.264705895565257 11.274509786305147  Z " stroke-width="0" stroke-dasharray="0" stroke="rgba(255, 255, 255, 0)" fill="none" transform="matrix(1 0 0 1 -1150 1429 )" class="stroke" mask="url(#Clip3779)" />
  </g>
</svg>