<?xml version="1.0" encoding="utf-8"?>
<svg version="1.1" xmlns:xlink="http://www.w3.org/1999/xlink" width="225px" height="15px" xmlns="http://www.w3.org/2000/svg">
  <defs>
    <linearGradient gradientUnits="userSpaceOnUse" x1="0" y1="7.5" x2="225" y2="7.5" id="LinearGradient3810">
      <stop id="Stop3811" stop-color="#53c0ff" offset="0" />
      <stop id="Stop3812" stop-color="#2f9cff" offset="1" />
    </linearGradient>
    <pattern id="BGPattern" patternUnits="userSpaceOnUse" alignment="0 0" imageRepeat="None" />
    <mask fill="white" id="Clip3813">
      <path d="M 0 15  L 0 0  L 220 0  C 222.8 0  225 2.1999999999999997  225 5  L 225 15  L 0 15  Z " fill-rule="evenodd" />
    </mask>
  </defs>
  <g transform="matrix(1 0 0 1 -600 -2875 )">
    <path d="M 0 15  L 0 0  L 220 0  C 222.8 0  225 2.1999999999999997  225 5  L 225 15  L 0 15  Z " fill-rule="nonzero" fill="url(#LinearGradient3810)" stroke="none" transform="matrix(1 0 0 1 600 2875 )" class="fill" />
    <path d="M 0 15  L 0 0  L 220 0  C 222.8 0  225 2.1999999999999997  225 5  L 225 15  L 0 15  Z " stroke-width="0" stroke-dasharray="0" stroke="rgba(121, 121, 121, 1)" fill="none" transform="matrix(1 0 0 1 600 2875 )" class="stroke" mask="url(#Clip3813)" />
  </g>
</svg>