<?xml version="1.0" encoding="utf-8"?>
<svg version="1.1" xmlns:xlink="http://www.w3.org/1999/xlink" width="10px" height="10px" xmlns="http://www.w3.org/2000/svg">
  <defs>
    <pattern id="BGPattern" patternUnits="userSpaceOnUse" alignment="0 0" imageRepeat="None" />
    <mask fill="white" id="Clip5735">
      <path d="M 0.8333333300781249 5  C 0.8333333300781249 7.3012500000000005  2.6987499999999995 9.166666669921874  5 9.166666669921874  C 7.3012500000000005 9.166666669921874  9.166666669921874 7.30125  9.166666669921874 4.999999999999999  C 9.166666669921874 2.6987499999999995  7.3012500000000005 0.8333333300781249  5 0.8333333300781249  C 2.6987499999999995 0.8333333300781249  0.8333333300781249 2.6987499999999995  0.8333333300781249 5  Z M 10 5  C 10 7.7612499999999995  7.7612499999999995 10  5 10  C 2.23875 10  0 7.7612499999999995  0 5  C 0 2.2387500000000005  2.23875 0  5 0  C 7.7612499999999995 0  10 2.23875  10 5  Z " fill-rule="evenodd" />
    </mask>
  </defs>
  <g transform="matrix(1 0 0 1 898 -1482 )">
    <path d="M 0.8333333300781249 5  C 0.8333333300781249 7.3012500000000005  2.6987499999999995 9.166666669921874  5 9.166666669921874  C 7.3012500000000005 9.166666669921874  9.166666669921874 7.30125  9.166666669921874 4.999999999999999  C 9.166666669921874 2.6987499999999995  7.3012500000000005 0.8333333300781249  5 0.8333333300781249  C 2.6987499999999995 0.8333333300781249  0.8333333300781249 2.6987499999999995  0.8333333300781249 5  Z M 10 5  C 10 7.7612499999999995  7.7612499999999995 10  5 10  C 2.23875 10  0 7.7612499999999995  0 5  C 0 2.2387500000000005  2.23875 0  5 0  C 7.7612499999999995 0  10 2.23875  10 5  Z " fill-rule="nonzero" fill="rgba(255, 255, 255, 1)" stroke="none" transform="matrix(1 0 0 1 -898 1482 )" class="fill" />
    <path d="M 0.8333333300781249 5  C 0.8333333300781249 7.3012500000000005  2.6987499999999995 9.166666669921874  5 9.166666669921874  C 7.3012500000000005 9.166666669921874  9.166666669921874 7.30125  9.166666669921874 4.999999999999999  C 9.166666669921874 2.6987499999999995  7.3012500000000005 0.8333333300781249  5 0.8333333300781249  C 2.6987499999999995 0.8333333300781249  0.8333333300781249 2.6987499999999995  0.8333333300781249 5  Z " stroke-width="0" stroke-dasharray="0" stroke="rgba(255, 255, 255, 0)" fill="none" transform="matrix(1 0 0 1 -898 1482 )" class="stroke" mask="url(#Clip5735)" />
    <path d="M 10 5  C 10 7.7612499999999995  7.7612499999999995 10  5 10  C 2.23875 10  0 7.7612499999999995  0 5  C 0 2.2387500000000005  2.23875 0  5 0  C 7.7612499999999995 0  10 2.23875  10 5  Z " stroke-width="0" stroke-dasharray="0" stroke="rgba(255, 255, 255, 0)" fill="none" transform="matrix(1 0 0 1 -898 1482 )" class="stroke" mask="url(#Clip5735)" />
  </g>
</svg>