<?xml version="1.0" encoding="utf-8"?>
<svg version="1.1" xmlns:xlink="http://www.w3.org/1999/xlink" width="38px" height="26px" xmlns="http://www.w3.org/2000/svg">
  <defs>
    <pattern id="BGPattern" patternUnits="userSpaceOnUse" alignment="0 0" imageRepeat="None" />
    <mask fill="white" id="Clip4986">
      <path d="M 21.89 12.396666679687502  L 21.888888906250003 12.396666679687499  L 26.66111109375 10.468888906250001  C 27.1076348816497 10.288276867412417  27.607938850033264 10.294280505577277  28.050000000000004 10.485555546875002  C 28.721316415467246 10.775778454287664  29.154627097295524 11.43864324479642  29.151111093750004 12.170000000000002  L 29.151111093750004 21.4177777734375  C 29.151111093750004 21.904444453125  28.960000000000004 22.369999999999997  28.618888906250007 22.714444453124997  C 28.108341244404272 23.231313325865496  27.337613448258256 23.391589661628537  26.663333320312503 23.121111093749995  L 21.8922222265625 21.195555546875  L 21.8922222265625 22.295555546874997  C 21.8922222265625 24.321111093749998  20.266666679687496 25.962222226562496  18.2622222265625 26  L 3.74 26  C 1.7377777734374997 25.9633333203125  0.11111109374999995 24.3222222265625  0.11111109374999995 22.2966666796875  L 0.11111109374999995 11.296666679687501  C 0.11111109374999995 10.324444453125  0.4933333203124999 9.391111132812501  1.1744444531250005 8.703333320312503  C 1.8523137213493053 8.017121427378466  2.7765422185068624 7.630625874788908  3.74111109375 8  L 18.260000000000005 8  C 19.22456888878965 7.630625864356958  20.14879740194112 8.017121417752746  20.826666679687502 8.7033333203125  C 21.507777773437503 9.392222226562502  21.89 10.324444414062501  21.89 11.296666679687501  L 21.89 12.396666679687502  Z M 21.888888906250003 14.371111093750006  L 21.888888906250003 14.370000000000001  L 21.888888906250003 19.2222222265625  L 27.3333333203125 21.418888906250004  L 27.3333333203125 12.171111093750003  L 21.888888906250003 14.371111093750006  Z M 20.074444453125004 22.295555546875  L 20.074444453124997 14.370000000000001  L 20.074444453124997 11.295555546875  C 20.074444453124997 10.809999999999999  19.883333359375 10.3433333203125  19.5422222265625 10  C 19.203629135094236 9.65706310711331  18.74192401694106 9.463819106486152  18.259999999999998 9.4633333203125  L 3.74111109375 9.4633333203125  C 3.26 9.4633333203125  2.796666640625 9.655555546875  2.4566666796875003 9.998888906249999  C 2.1166666796874996 10.343333359374999  1.9255555859375 10.809999999999999  2 11.295555546874997  L 2 22.295555546875  C 1.925555546875 23.3088888671875  2.7377777734375 24.13  3.74111109375 24  L 18.26 24  C 18.74111109375 24.13  19.203333320312495 23.936666679687498  19.543333320312502 23.593333320312503  C 19.883333320312502 23.248888867187503  20.074444414062505 22.7822222265625  20.074444453125004 22.295555546875  Z M 14.41 18.294444453125  L 14.41 18.295555546875  C 14.905555546874998 18.295555546875  17.05 19.835555546875  17.05 20.184444453125  C 17.05 21.1966666796875  16.005555546875 22.073333359375  15.178888906249998 22.0733333203125  C 12.183333359375 22.0733333203125  7.3711111328125 17.045555546875  7.371111093750001 14.4066666796875  C 7.371111093750001 13.5055555859375  8.69111109375 12.517777773437501  9.24 12.517777773437501  C 9.788888906250001 12.517777773437501  11.10888890625 14.704444453125  11.10888890625 15.073333320312504  C 11.10888890625 15.574444414062501  10.67 15.808888867187505  10.67 16.294444453125003  C 10.67 16.778888906250003  12.64888890625 18.73888890625  13.09 18.73888890625  C 13.530000000000001 18.73888890625  13.9066666796875 18.294444453125  14.41 18.294444453125  Z M 36.434444453124996 12.646666679687495  C 37.054444453124994 7.507777773437497  33.57888890624999 2.852222226562496  28.661111093749998 2.2422222265625003  C 28.545555546875 2.226666679687499  28.431111093749998 2.218888906250001  28.318888906249995 2.2088889062499995  C 27.93945713417583 2.1239166429702685  27.68535695786363 1.7662586620064769  27.73 1.3800000000000008  C 27.751683096196867 1.1989087874122735  27.844406647760472 1.033844869785744  27.987777773437497 0.9211110937499996  C 28.130497503887298 0.8091009715077542  28.31237913995726 0.7594240513004902  28.492222226562497 0.7833333203124999  C 28.6066666796875 0.7955555468750006  28.718888906249997 0.8033333203125004  28.836666679687497 0.8166666796874998  C 34.50888890624999 1.5211111328125  38.523333359374995 6.893333359374998  37.80555554687499 12.816666679687497  C 37.69684604466376 13.177150494875086  37.34794585578663 13.410061163503888  36.9733333203125 13.3722222265625  C 36.4577777734375 13.308888906249997  36.422222226562496 12.752222226562498  36.434444453124996 12.646666679687495  Z M 32.615555546875 12.165555546874998  L 32.6166666796875 12.165555546874998  C 32.6166666796875 9.265555546875  30.554444453125004 6.832222226562498  27.794444453125003 6.49  C 27.625824679826835 6.4545193036006765  27.478736593638338 6.3523191383320174  27.386666679687504 6.206666679687501  C 27.294095386939226 6.060383841756362  27.263701104915697 5.883217188190079  27.3022222265625 5.714444453125001  C 27.324433810519476 5.358600136556568  27.610555501685695 5.076306167748337  27.9666666796875 5.058888906250001  C 31.484444453124997 5.495555585937501  34.0911111328125 8.636666679687501  34 12.338888906249998  C 33.92544504193269 12.718047061087372  33.56016589140854 12.96701102528695  33.18 12.8977777734375  C 32.791111093750004 12.849999999999998  32.6022222265625 12.605555546875  32.615555546875 12.165555546874998  Z " fill-rule="evenodd" />
    </mask>
  </defs>
  <g transform="matrix(1 0 0 1 1139 -659 )">
    <path d="M 21.89 12.396666679687502  L 21.888888906250003 12.396666679687499  L 26.66111109375 10.468888906250001  C 27.1076348816497 10.288276867412417  27.607938850033264 10.294280505577277  28.050000000000004 10.485555546875002  C 28.721316415467246 10.775778454287664  29.154627097295524 11.43864324479642  29.151111093750004 12.170000000000002  L 29.151111093750004 21.4177777734375  C 29.151111093750004 21.904444453125  28.960000000000004 22.369999999999997  28.618888906250007 22.714444453124997  C 28.108341244404272 23.231313325865496  27.337613448258256 23.391589661628537  26.663333320312503 23.121111093749995  L 21.8922222265625 21.195555546875  L 21.8922222265625 22.295555546874997  C 21.8922222265625 24.321111093749998  20.266666679687496 25.962222226562496  18.2622222265625 26  L 3.74 26  C 1.7377777734374997 25.9633333203125  0.11111109374999995 24.3222222265625  0.11111109374999995 22.2966666796875  L 0.11111109374999995 11.296666679687501  C 0.11111109374999995 10.324444453125  0.4933333203124999 9.391111132812501  1.1744444531250005 8.703333320312503  C 1.8523137213493053 8.017121427378466  2.7765422185068624 7.630625874788908  3.74111109375 8  L 18.260000000000005 8  C 19.22456888878965 7.630625864356958  20.14879740194112 8.017121417752746  20.826666679687502 8.7033333203125  C 21.507777773437503 9.392222226562502  21.89 10.324444414062501  21.89 11.296666679687501  L 21.89 12.396666679687502  Z M 21.888888906250003 14.371111093750006  L 21.888888906250003 14.370000000000001  L 21.888888906250003 19.2222222265625  L 27.3333333203125 21.418888906250004  L 27.3333333203125 12.171111093750003  L 21.888888906250003 14.371111093750006  Z M 20.074444453125004 22.295555546875  L 20.074444453124997 14.370000000000001  L 20.074444453124997 11.295555546875  C 20.074444453124997 10.809999999999999  19.883333359375 10.3433333203125  19.5422222265625 10  C 19.203629135094236 9.65706310711331  18.74192401694106 9.463819106486152  18.259999999999998 9.4633333203125  L 3.74111109375 9.4633333203125  C 3.26 9.4633333203125  2.796666640625 9.655555546875  2.4566666796875003 9.998888906249999  C 2.1166666796874996 10.343333359374999  1.9255555859375 10.809999999999999  2 11.295555546874997  L 2 22.295555546875  C 1.925555546875 23.3088888671875  2.7377777734375 24.13  3.74111109375 24  L 18.26 24  C 18.74111109375 24.13  19.203333320312495 23.936666679687498  19.543333320312502 23.593333320312503  C 19.883333320312502 23.248888867187503  20.074444414062505 22.7822222265625  20.074444453125004 22.295555546875  Z M 14.41 18.294444453125  L 14.41 18.295555546875  C 14.905555546874998 18.295555546875  17.05 19.835555546875  17.05 20.184444453125  C 17.05 21.1966666796875  16.005555546875 22.073333359375  15.178888906249998 22.0733333203125  C 12.183333359375 22.0733333203125  7.3711111328125 17.045555546875  7.371111093750001 14.4066666796875  C 7.371111093750001 13.5055555859375  8.69111109375 12.517777773437501  9.24 12.517777773437501  C 9.788888906250001 12.517777773437501  11.10888890625 14.704444453125  11.10888890625 15.073333320312504  C 11.10888890625 15.574444414062501  10.67 15.808888867187505  10.67 16.294444453125003  C 10.67 16.778888906250003  12.64888890625 18.73888890625  13.09 18.73888890625  C 13.530000000000001 18.73888890625  13.9066666796875 18.294444453125  14.41 18.294444453125  Z M 36.434444453124996 12.646666679687495  C 37.054444453124994 7.507777773437497  33.57888890624999 2.852222226562496  28.661111093749998 2.2422222265625003  C 28.545555546875 2.226666679687499  28.431111093749998 2.218888906250001  28.318888906249995 2.2088889062499995  C 27.93945713417583 2.1239166429702685  27.68535695786363 1.7662586620064769  27.73 1.3800000000000008  C 27.751683096196867 1.1989087874122735  27.844406647760472 1.033844869785744  27.987777773437497 0.9211110937499996  C 28.130497503887298 0.8091009715077542  28.31237913995726 0.7594240513004902  28.492222226562497 0.7833333203124999  C 28.6066666796875 0.7955555468750006  28.718888906249997 0.8033333203125004  28.836666679687497 0.8166666796874998  C 34.50888890624999 1.5211111328125  38.523333359374995 6.893333359374998  37.80555554687499 12.816666679687497  C 37.69684604466376 13.177150494875086  37.34794585578663 13.410061163503888  36.9733333203125 13.3722222265625  C 36.4577777734375 13.308888906249997  36.422222226562496 12.752222226562498  36.434444453124996 12.646666679687495  Z M 32.615555546875 12.165555546874998  L 32.6166666796875 12.165555546874998  C 32.6166666796875 9.265555546875  30.554444453125004 6.832222226562498  27.794444453125003 6.49  C 27.625824679826835 6.4545193036006765  27.478736593638338 6.3523191383320174  27.386666679687504 6.206666679687501  C 27.294095386939226 6.060383841756362  27.263701104915697 5.883217188190079  27.3022222265625 5.714444453125001  C 27.324433810519476 5.358600136556568  27.610555501685695 5.076306167748337  27.9666666796875 5.058888906250001  C 31.484444453124997 5.495555585937501  34.0911111328125 8.636666679687501  34 12.338888906249998  C 33.92544504193269 12.718047061087372  33.56016589140854 12.96701102528695  33.18 12.8977777734375  C 32.791111093750004 12.849999999999998  32.6022222265625 12.605555546875  32.615555546875 12.165555546874998  Z " fill-rule="nonzero" fill="rgba(255, 255, 255, 1)" stroke="none" transform="matrix(1 0 0 1 -1139 659 )" class="fill" />
    <path d="M 21.89 12.396666679687502  L 21.888888906250003 12.396666679687499  L 26.66111109375 10.468888906250001  C 27.1076348816497 10.288276867412417  27.607938850033264 10.294280505577277  28.050000000000004 10.485555546875002  C 28.721316415467246 10.775778454287664  29.154627097295524 11.43864324479642  29.151111093750004 12.170000000000002  L 29.151111093750004 21.4177777734375  C 29.151111093750004 21.904444453125  28.960000000000004 22.369999999999997  28.618888906250007 22.714444453124997  C 28.108341244404272 23.231313325865496  27.337613448258256 23.391589661628537  26.663333320312503 23.121111093749995  L 21.8922222265625 21.195555546875  L 21.8922222265625 22.295555546874997  C 21.8922222265625 24.321111093749998  20.266666679687496 25.962222226562496  18.2622222265625 26  L 3.74 26  C 1.7377777734374997 25.9633333203125  0.11111109374999995 24.3222222265625  0.11111109374999995 22.2966666796875  L 0.11111109374999995 11.296666679687501  C 0.11111109374999995 10.324444453125  0.4933333203124999 9.391111132812501  1.1744444531250005 8.703333320312503  C 1.8523137213493053 8.017121427378466  2.7765422185068624 7.630625874788908  3.74111109375 8  L 18.260000000000005 8  C 19.22456888878965 7.630625864356958  20.14879740194112 8.017121417752746  20.826666679687502 8.7033333203125  C 21.507777773437503 9.392222226562502  21.89 10.324444414062501  21.89 11.296666679687501  L 21.89 12.396666679687502  Z " stroke-width="0" stroke-dasharray="0" stroke="rgba(255, 255, 255, 0)" fill="none" transform="matrix(1 0 0 1 -1139 659 )" class="stroke" mask="url(#Clip4986)" />
    <path d="M 21.888888906250003 14.371111093750006  L 21.888888906250003 14.370000000000001  L 21.888888906250003 19.2222222265625  L 27.3333333203125 21.418888906250004  L 27.3333333203125 12.171111093750003  L 21.888888906250003 14.371111093750006  Z " stroke-width="0" stroke-dasharray="0" stroke="rgba(255, 255, 255, 0)" fill="none" transform="matrix(1 0 0 1 -1139 659 )" class="stroke" mask="url(#Clip4986)" />
    <path d="M 20.074444453125004 22.295555546875  L 20.074444453124997 14.370000000000001  L 20.074444453124997 11.295555546875  C 20.074444453124997 10.809999999999999  19.883333359375 10.3433333203125  19.5422222265625 10  C 19.203629135094236 9.65706310711331  18.74192401694106 9.463819106486152  18.259999999999998 9.4633333203125  L 3.74111109375 9.4633333203125  C 3.26 9.4633333203125  2.796666640625 9.655555546875  2.4566666796875003 9.998888906249999  C 2.1166666796874996 10.343333359374999  1.9255555859375 10.809999999999999  2 11.295555546874997  L 2 22.295555546875  C 1.925555546875 23.3088888671875  2.7377777734375 24.13  3.74111109375 24  L 18.26 24  C 18.74111109375 24.13  19.203333320312495 23.936666679687498  19.543333320312502 23.593333320312503  C 19.883333320312502 23.248888867187503  20.074444414062505 22.7822222265625  20.074444453125004 22.295555546875  Z " stroke-width="0" stroke-dasharray="0" stroke="rgba(255, 255, 255, 0)" fill="none" transform="matrix(1 0 0 1 -1139 659 )" class="stroke" mask="url(#Clip4986)" />
    <path d="M 14.41 18.294444453125  L 14.41 18.295555546875  C 14.905555546874998 18.295555546875  17.05 19.835555546875  17.05 20.184444453125  C 17.05 21.1966666796875  16.005555546875 22.073333359375  15.178888906249998 22.0733333203125  C 12.183333359375 22.0733333203125  7.3711111328125 17.045555546875  7.371111093750001 14.4066666796875  C 7.371111093750001 13.5055555859375  8.69111109375 12.517777773437501  9.24 12.517777773437501  C 9.788888906250001 12.517777773437501  11.10888890625 14.704444453125  11.10888890625 15.073333320312504  C 11.10888890625 15.574444414062501  10.67 15.808888867187505  10.67 16.294444453125003  C 10.67 16.778888906250003  12.64888890625 18.73888890625  13.09 18.73888890625  C 13.530000000000001 18.73888890625  13.9066666796875 18.294444453125  14.41 18.294444453125  Z " stroke-width="0" stroke-dasharray="0" stroke="rgba(255, 255, 255, 0)" fill="none" transform="matrix(1 0 0 1 -1139 659 )" class="stroke" mask="url(#Clip4986)" />
    <path d="M 36.434444453124996 12.646666679687495  C 37.054444453124994 7.507777773437497  33.57888890624999 2.852222226562496  28.661111093749998 2.2422222265625003  C 28.545555546875 2.226666679687499  28.431111093749998 2.218888906250001  28.318888906249995 2.2088889062499995  C 27.93945713417583 2.1239166429702685  27.68535695786363 1.7662586620064769  27.73 1.3800000000000008  C 27.751683096196867 1.1989087874122735  27.844406647760472 1.033844869785744  27.987777773437497 0.9211110937499996  C 28.130497503887298 0.8091009715077542  28.31237913995726 0.7594240513004902  28.492222226562497 0.7833333203124999  C 28.6066666796875 0.7955555468750006  28.718888906249997 0.8033333203125004  28.836666679687497 0.8166666796874998  C 34.50888890624999 1.5211111328125  38.523333359374995 6.893333359374998  37.80555554687499 12.816666679687497  C 37.69684604466376 13.177150494875086  37.34794585578663 13.410061163503888  36.9733333203125 13.3722222265625  C 36.4577777734375 13.308888906249997  36.422222226562496 12.752222226562498  36.434444453124996 12.646666679687495  Z " stroke-width="0" stroke-dasharray="0" stroke="rgba(255, 255, 255, 0)" fill="none" transform="matrix(1 0 0 1 -1139 659 )" class="stroke" mask="url(#Clip4986)" />
    <path d="M 32.615555546875 12.165555546874998  L 32.6166666796875 12.165555546874998  C 32.6166666796875 9.265555546875  30.554444453125004 6.832222226562498  27.794444453125003 6.49  C 27.625824679826835 6.4545193036006765  27.478736593638338 6.3523191383320174  27.386666679687504 6.206666679687501  C 27.294095386939226 6.060383841756362  27.263701104915697 5.883217188190079  27.3022222265625 5.714444453125001  C 27.324433810519476 5.358600136556568  27.610555501685695 5.076306167748337  27.9666666796875 5.058888906250001  C 31.484444453124997 5.495555585937501  34.0911111328125 8.636666679687501  34 12.338888906249998  C 33.92544504193269 12.718047061087372  33.56016589140854 12.96701102528695  33.18 12.8977777734375  C 32.791111093750004 12.849999999999998  32.6022222265625 12.605555546875  32.615555546875 12.165555546874998  Z " stroke-width="0" stroke-dasharray="0" stroke="rgba(255, 255, 255, 0)" fill="none" transform="matrix(1 0 0 1 -1139 659 )" class="stroke" mask="url(#Clip4986)" />
  </g>
</svg>