<?xml version="1.0" encoding="utf-8"?>
<svg version="1.1" xmlns:xlink="http://www.w3.org/1999/xlink" width="60px" height="56px" xmlns="http://www.w3.org/2000/svg">
  <defs>
    <pattern id="BGPattern" patternUnits="userSpaceOnUse" alignment="0 0" imageRepeat="None" />
    <mask fill="white" id="Clip4154">
      <path d="M 59.97287109375 22.134531250000002  C 59.97287109375 22.633222656250002  59.935605468750005 23.13671875  59.888906250000005 23.641796875  C 59.8222265625 23.635644531249998  59.76462890625 23.60294921875  59.696308593750004 24  L 34.967578124999996 24  C 34.8915234375 23.5594140625  34.83726562499999 23.49267578125  34.7548828125 23.456875  C 33.53953125 22.9455859375  32.14107421875 23.515878906250002  31.628378906249996 24.73111328125  L 30.239062499999996 28.028652343750004  L 25.316015625 17.026503906250003  C 25.095292968749998 16.532382812500003  24.70681640625 16.185800781250002  24.265429687499996 15.9433984375  C 24.072832031249998 15.770898437500001  23.867636718749996 15.607714843750003  23.615917968749997 15.500605468750004  C 22.400624999999998 14.989316406250001  21.002167968749998 15.55955078125  20.4894140625 16.774843750000002  L 17.61439453125 24  L 0.81908203125 24  C 0.5688281249999999 23.603007812500003  0.34054687499999997 23.67291015625  0.11367187499999998 23.744453125  C 0.060703124999999976 23.205214843750003  0.023378906249999977 22.667558593749998  0.023378906249999977 22.134531250000002  C 0.023378906249999977 9.612519531250001  7.45611328125 0.30894531250000057  19.053457031249998 0.30894531250000057  C 23.242910156249998 0.30894531250000057  26.083710937499998 1.7727343750000002  29.9980078125 5.095175781250001  C 33.9158203125 1.7743750000000005  36.754804687500005 0.30894531250000057  40.942792968750005 0.30894531250000057  C 52.540312500000006 0.30894531250000057  59.97287109375 9.612519531250001  59.97287109375 22.134531250000002  Z M 19.9142578125 28  C 21.23208984375 28.376699218750005  22.301191406250002 27.307656250000004  22.301191406250005 25.989824218749998  C 22.301191406250005 25.69767578125  22.229941406250006 25.425859374999998  22.135019531250006 25.16775390625  L 22.907402343750004 23.3325390625  L 27.340898437500005 33.23921875  C 27.678105468750005 33.99449218749999  28.36974609375001 34.445078125  29.129589843750004 34.5755078125  C 29.337656250000006 34.7791796875  29.577128906250003 34.95484375  29.863066406250006 35.074374999999996  C 31.078125000000007 35.58583984375  32.47681640625 35.01701171875  32.98951171875 33.80166015625  L 35.27396484375 28  L 58.794902343749996 28  C 55.895214843750004 36.395312499999996  47.5565625 45.0728125  33.86923828125 54.578359375000005  C 31.541367187499997 56.191328125000005  28.45658203125 56.191328125000005  26.127187499999998 54.578359375000005  C 12.4396875 45.0728125  4.1025585937499995 36.39525390625  1.2012890625000006 28  L 19.9142578125 28  Z " fill-rule="evenodd" />
    </mask>
  </defs>
  <g transform="matrix(1 0 0 1 950 -447 )">
    <path d="M 59.97287109375 22.134531250000002  C 59.97287109375 22.633222656250002  59.935605468750005 23.13671875  59.888906250000005 23.641796875  C 59.8222265625 23.635644531249998  59.76462890625 23.60294921875  59.696308593750004 24  L 34.967578124999996 24  C 34.8915234375 23.5594140625  34.83726562499999 23.49267578125  34.7548828125 23.456875  C 33.53953125 22.9455859375  32.14107421875 23.515878906250002  31.628378906249996 24.73111328125  L 30.239062499999996 28.028652343750004  L 25.316015625 17.026503906250003  C 25.095292968749998 16.532382812500003  24.70681640625 16.185800781250002  24.265429687499996 15.9433984375  C 24.072832031249998 15.770898437500001  23.867636718749996 15.607714843750003  23.615917968749997 15.500605468750004  C 22.400624999999998 14.989316406250001  21.002167968749998 15.55955078125  20.4894140625 16.774843750000002  L 17.61439453125 24  L 0.81908203125 24  C 0.5688281249999999 23.603007812500003  0.34054687499999997 23.67291015625  0.11367187499999998 23.744453125  C 0.060703124999999976 23.205214843750003  0.023378906249999977 22.667558593749998  0.023378906249999977 22.134531250000002  C 0.023378906249999977 9.612519531250001  7.45611328125 0.30894531250000057  19.053457031249998 0.30894531250000057  C 23.242910156249998 0.30894531250000057  26.083710937499998 1.7727343750000002  29.9980078125 5.095175781250001  C 33.9158203125 1.7743750000000005  36.754804687500005 0.30894531250000057  40.942792968750005 0.30894531250000057  C 52.540312500000006 0.30894531250000057  59.97287109375 9.612519531250001  59.97287109375 22.134531250000002  Z M 19.9142578125 28  C 21.23208984375 28.376699218750005  22.301191406250002 27.307656250000004  22.301191406250005 25.989824218749998  C 22.301191406250005 25.69767578125  22.229941406250006 25.425859374999998  22.135019531250006 25.16775390625  L 22.907402343750004 23.3325390625  L 27.340898437500005 33.23921875  C 27.678105468750005 33.99449218749999  28.36974609375001 34.445078125  29.129589843750004 34.5755078125  C 29.337656250000006 34.7791796875  29.577128906250003 34.95484375  29.863066406250006 35.074374999999996  C 31.078125000000007 35.58583984375  32.47681640625 35.01701171875  32.98951171875 33.80166015625  L 35.27396484375 28  L 58.794902343749996 28  C 55.895214843750004 36.395312499999996  47.5565625 45.0728125  33.86923828125 54.578359375000005  C 31.541367187499997 56.191328125000005  28.45658203125 56.191328125000005  26.127187499999998 54.578359375000005  C 12.4396875 45.0728125  4.1025585937499995 36.39525390625  1.2012890625000006 28  L 19.9142578125 28  Z " fill-rule="nonzero" fill="rgba(255, 255, 255, 1)" stroke="none" transform="matrix(1 0 0 1 -950 447 )" class="fill" />
    <path d="M 59.97287109375 22.134531250000002  C 59.97287109375 22.633222656250002  59.935605468750005 23.13671875  59.888906250000005 23.641796875  C 59.8222265625 23.635644531249998  59.76462890625 23.60294921875  59.696308593750004 24  L 34.967578124999996 24  C 34.8915234375 23.5594140625  34.83726562499999 23.49267578125  34.7548828125 23.456875  C 33.53953125 22.9455859375  32.14107421875 23.515878906250002  31.628378906249996 24.73111328125  L 30.239062499999996 28.028652343750004  L 25.316015625 17.026503906250003  C 25.095292968749998 16.532382812500003  24.70681640625 16.185800781250002  24.265429687499996 15.9433984375  C 24.072832031249998 15.770898437500001  23.867636718749996 15.607714843750003  23.615917968749997 15.500605468750004  C 22.400624999999998 14.989316406250001  21.002167968749998 15.55955078125  20.4894140625 16.774843750000002  L 17.61439453125 24  L 0.81908203125 24  C 0.5688281249999999 23.603007812500003  0.34054687499999997 23.67291015625  0.11367187499999998 23.744453125  C 0.060703124999999976 23.205214843750003  0.023378906249999977 22.667558593749998  0.023378906249999977 22.134531250000002  C 0.023378906249999977 9.612519531250001  7.45611328125 0.30894531250000057  19.053457031249998 0.30894531250000057  C 23.242910156249998 0.30894531250000057  26.083710937499998 1.7727343750000002  29.9980078125 5.095175781250001  C 33.9158203125 1.7743750000000005  36.754804687500005 0.30894531250000057  40.942792968750005 0.30894531250000057  C 52.540312500000006 0.30894531250000057  59.97287109375 9.612519531250001  59.97287109375 22.134531250000002  Z " stroke-width="0" stroke-dasharray="0" stroke="rgba(255, 255, 255, 0)" fill="none" transform="matrix(1 0 0 1 -950 447 )" class="stroke" mask="url(#Clip4154)" />
    <path d="M 19.9142578125 28  C 21.23208984375 28.376699218750005  22.301191406250002 27.307656250000004  22.301191406250005 25.989824218749998  C 22.301191406250005 25.69767578125  22.229941406250006 25.425859374999998  22.135019531250006 25.16775390625  L 22.907402343750004 23.3325390625  L 27.340898437500005 33.23921875  C 27.678105468750005 33.99449218749999  28.36974609375001 34.445078125  29.129589843750004 34.5755078125  C 29.337656250000006 34.7791796875  29.577128906250003 34.95484375  29.863066406250006 35.074374999999996  C 31.078125000000007 35.58583984375  32.47681640625 35.01701171875  32.98951171875 33.80166015625  L 35.27396484375 28  L 58.794902343749996 28  C 55.895214843750004 36.395312499999996  47.5565625 45.0728125  33.86923828125 54.578359375000005  C 31.541367187499997 56.191328125000005  28.45658203125 56.191328125000005  26.127187499999998 54.578359375000005  C 12.4396875 45.0728125  4.1025585937499995 36.39525390625  1.2012890625000006 28  L 19.9142578125 28  Z " stroke-width="0" stroke-dasharray="0" stroke="rgba(255, 255, 255, 0)" fill="none" transform="matrix(1 0 0 1 -950 447 )" class="stroke" mask="url(#Clip4154)" />
  </g>
</svg>