<?xml version="1.0" encoding="utf-8"?>
<svg version="1.1" xmlns:xlink="http://www.w3.org/1999/xlink" width="28px" height="42px" xmlns="http://www.w3.org/2000/svg">
  <defs>
    <pattern id="BGPattern" patternUnits="userSpaceOnUse" alignment="0 0" imageRepeat="None" />
    <mask fill="white" id="Clip8874">
      <path d="M 6.69125 3.1781250000000014  L 6.691191406249999 4  L 21.316835937500002 4  C 21.271718750000005 4.2298828125  21.117851562500007 5.244140625  20.855703124999998 7  L 7.152382812500001 7  C 6.890175781250001 5.244140625000002  6.736250000000002 4.229882812500001  6.69125 3.1781250000000014  Z M 20.55353515625 35.6390625  L 20.553476562500002 35  L 7.454550781249999 35  C 7.125722656249999 36.6263671875  6.90236328125 37.64126953125  6.782480468749998 38  L 21.225605468750004 38  C 21.105664062499997 37.64126953125  20.882304687499996 36.6263671875  20.55353515625 35.6390625  Z M 10.393144531249998 12.201562500000001  C 9.550566406249999 11.210859375000002  8.856230468749999 10.1953125  8.306386718750002 9.154687500000001  L 19.701640624999996 9.154687500000001  C 19.151796875000002 10.1953125  18.45751953125 11.210859375000002  17.6148828125 12.201562500000001  L 10.393144531249998 12.201562500000001  Z M 16.5927734375 17.437324218750003  C 22.437382812500005 12.616171875000003  24.959492187500004 6.989121093750004  24.26585937499999 0.4381054687500008  C 25.368856261939015 0.9902559562174035  26.42557552962633 1.6303736115940843  27.425761718749996 2.3522460937500025  C 27.479257812499995 8.791816406250003  24.69195312499999 14.458828125000004  19.135507812499995 19.273886718750003  C 18.329785156249997 18.64587890625  17.482109375 18.033574218750005  16.5927734375 17.437324218750003  Z M 3.6531054687499993 41.502363281250005  C 2.5882810770585216 40.96405275084508  1.5670254302675595 40.34358068398984  0.598613281249996 39.64658203125  C 0.8359765624999973 33.421875  3.6245703124999977 27.923496093750003  8.902812499999996 23.21103515625  C 9.637636718749995 23.765742187500006  10.407324218749999 24.3076171875  11.211523437499995 24.836308593749997  C 11.299121093749996 24.893847656249996  11.386132812499994 24.951562499999994  11.472558593749994 25.009335937499998  C 5.932578124999996 29.723203124999998  3.3561523437499936 35.191874999999996  3.6531054687499953 41.502421874999996  Z M 0.5829101562499979 2.346035156250009  C 1.5832666125952493 1.6247302627796645  2.6401024949648573 0.9851814287264187  3.7431640625 0.43359375  C 2.933984374999998 8.060625000000002  6.483007812499999 14.435449218750001  14.5588671875 19.744218749999998  C 22.78525390625 25.151953125  27.109531249999996 31.823437500000004  27.409765625000006 39.64060546875001  C 26.441557562234742 40.338146221266975  25.420457982819862 40.95916722329015  24.355742187500006 41.49802734375  C 24.710000000000008 33.93656250000001  20.938144531250003 27.583945312500006  12.88525390625 22.290234375  C 4.659394531250001 16.882851562500004  0.5155273437500014 10.187109375000006  0.5829101562499979 2.346035156250009  Z M 11.029707031250002 29.662499999999994  L 16.978320312499996 29.662499999999994  C 17.862734375000002 30.648515624999995  18.60921874999999 31.663066406249996  19.220585937499997 32  L 8.787500000000001 32  C 9.398867187500002 31.663066406249996  10.145292968750002 30.648515624999995  11.029707031250002 29.662499999999994  Z " fill-rule="evenodd" />
    </mask>
  </defs>
  <g transform="matrix(1 0 0 1 1049 -454 )">
    <path d="M 6.69125 3.1781250000000014  L 6.691191406249999 4  L 21.316835937500002 4  C 21.271718750000005 4.2298828125  21.117851562500007 5.244140625  20.855703124999998 7  L 7.152382812500001 7  C 6.890175781250001 5.244140625000002  6.736250000000002 4.229882812500001  6.69125 3.1781250000000014  Z M 20.55353515625 35.6390625  L 20.553476562500002 35  L 7.454550781249999 35  C 7.125722656249999 36.6263671875  6.90236328125 37.64126953125  6.782480468749998 38  L 21.225605468750004 38  C 21.105664062499997 37.64126953125  20.882304687499996 36.6263671875  20.55353515625 35.6390625  Z M 10.393144531249998 12.201562500000001  C 9.550566406249999 11.210859375000002  8.856230468749999 10.1953125  8.306386718750002 9.154687500000001  L 19.701640624999996 9.154687500000001  C 19.151796875000002 10.1953125  18.45751953125 11.210859375000002  17.6148828125 12.201562500000001  L 10.393144531249998 12.201562500000001  Z M 16.5927734375 17.437324218750003  C 22.437382812500005 12.616171875000003  24.959492187500004 6.989121093750004  24.26585937499999 0.4381054687500008  C 25.368856261939015 0.9902559562174035  26.42557552962633 1.6303736115940843  27.425761718749996 2.3522460937500025  C 27.479257812499995 8.791816406250003  24.69195312499999 14.458828125000004  19.135507812499995 19.273886718750003  C 18.329785156249997 18.64587890625  17.482109375 18.033574218750005  16.5927734375 17.437324218750003  Z M 3.6531054687499993 41.502363281250005  C 2.5882810770585216 40.96405275084508  1.5670254302675595 40.34358068398984  0.598613281249996 39.64658203125  C 0.8359765624999973 33.421875  3.6245703124999977 27.923496093750003  8.902812499999996 23.21103515625  C 9.637636718749995 23.765742187500006  10.407324218749999 24.3076171875  11.211523437499995 24.836308593749997  C 11.299121093749996 24.893847656249996  11.386132812499994 24.951562499999994  11.472558593749994 25.009335937499998  C 5.932578124999996 29.723203124999998  3.3561523437499936 35.191874999999996  3.6531054687499953 41.502421874999996  Z M 0.5829101562499979 2.346035156250009  C 1.5832666125952493 1.6247302627796645  2.6401024949648573 0.9851814287264187  3.7431640625 0.43359375  C 2.933984374999998 8.060625000000002  6.483007812499999 14.435449218750001  14.5588671875 19.744218749999998  C 22.78525390625 25.151953125  27.109531249999996 31.823437500000004  27.409765625000006 39.64060546875001  C 26.441557562234742 40.338146221266975  25.420457982819862 40.95916722329015  24.355742187500006 41.49802734375  C 24.710000000000008 33.93656250000001  20.938144531250003 27.583945312500006  12.88525390625 22.290234375  C 4.659394531250001 16.882851562500004  0.5155273437500014 10.187109375000006  0.5829101562499979 2.346035156250009  Z M 11.029707031250002 29.662499999999994  L 16.978320312499996 29.662499999999994  C 17.862734375000002 30.648515624999995  18.60921874999999 31.663066406249996  19.220585937499997 32  L 8.787500000000001 32  C 9.398867187500002 31.663066406249996  10.145292968750002 30.648515624999995  11.029707031250002 29.662499999999994  Z " fill-rule="nonzero" fill="rgba(255, 255, 255, 1)" stroke="none" transform="matrix(1 0 0 1 -1049 454 )" class="fill" />
    <path d="M 6.69125 3.1781250000000014  L 6.691191406249999 4  L 21.316835937500002 4  C 21.271718750000005 4.2298828125  21.117851562500007 5.244140625  20.855703124999998 7  L 7.152382812500001 7  C 6.890175781250001 5.244140625000002  6.736250000000002 4.229882812500001  6.69125 3.1781250000000014  Z " stroke-width="0" stroke-dasharray="0" stroke="rgba(255, 255, 255, 0)" fill="none" transform="matrix(1 0 0 1 -1049 454 )" class="stroke" mask="url(#Clip8874)" />
    <path d="M 20.55353515625 35.6390625  L 20.553476562500002 35  L 7.454550781249999 35  C 7.125722656249999 36.6263671875  6.90236328125 37.64126953125  6.782480468749998 38  L 21.225605468750004 38  C 21.105664062499997 37.64126953125  20.882304687499996 36.6263671875  20.55353515625 35.6390625  Z " stroke-width="0" stroke-dasharray="0" stroke="rgba(255, 255, 255, 0)" fill="none" transform="matrix(1 0 0 1 -1049 454 )" class="stroke" mask="url(#Clip8874)" />
    <path d="M 10.393144531249998 12.201562500000001  C 9.550566406249999 11.210859375000002  8.856230468749999 10.1953125  8.306386718750002 9.154687500000001  L 19.701640624999996 9.154687500000001  C 19.151796875000002 10.1953125  18.45751953125 11.210859375000002  17.6148828125 12.201562500000001  L 10.393144531249998 12.201562500000001  Z " stroke-width="0" stroke-dasharray="0" stroke="rgba(255, 255, 255, 0)" fill="none" transform="matrix(1 0 0 1 -1049 454 )" class="stroke" mask="url(#Clip8874)" />
    <path d="M 16.5927734375 17.437324218750003  C 22.437382812500005 12.616171875000003  24.959492187500004 6.989121093750004  24.26585937499999 0.4381054687500008  C 25.368856261939015 0.9902559562174035  26.42557552962633 1.6303736115940843  27.425761718749996 2.3522460937500025  C 27.479257812499995 8.791816406250003  24.69195312499999 14.458828125000004  19.135507812499995 19.273886718750003  C 18.329785156249997 18.64587890625  17.482109375 18.033574218750005  16.5927734375 17.437324218750003  Z " stroke-width="0" stroke-dasharray="0" stroke="rgba(255, 255, 255, 0)" fill="none" transform="matrix(1 0 0 1 -1049 454 )" class="stroke" mask="url(#Clip8874)" />
    <path d="M 3.6531054687499993 41.502363281250005  C 2.5882810770585216 40.96405275084508  1.5670254302675595 40.34358068398984  0.598613281249996 39.64658203125  C 0.8359765624999973 33.421875  3.6245703124999977 27.923496093750003  8.902812499999996 23.21103515625  C 9.637636718749995 23.765742187500006  10.407324218749999 24.3076171875  11.211523437499995 24.836308593749997  C 11.299121093749996 24.893847656249996  11.386132812499994 24.951562499999994  11.472558593749994 25.009335937499998  C 5.932578124999996 29.723203124999998  3.3561523437499936 35.191874999999996  3.6531054687499953 41.502421874999996  Z " stroke-width="0" stroke-dasharray="0" stroke="rgba(255, 255, 255, 0)" fill="none" transform="matrix(1 0 0 1 -1049 454 )" class="stroke" mask="url(#Clip8874)" />
    <path d="M 0.5829101562499979 2.346035156250009  C 1.5832666125952493 1.6247302627796645  2.6401024949648573 0.9851814287264187  3.7431640625 0.43359375  C 2.933984374999998 8.060625000000002  6.483007812499999 14.435449218750001  14.5588671875 19.744218749999998  C 22.78525390625 25.151953125  27.109531249999996 31.823437500000004  27.409765625000006 39.64060546875001  C 26.441557562234742 40.338146221266975  25.420457982819862 40.95916722329015  24.355742187500006 41.49802734375  C 24.710000000000008 33.93656250000001  20.938144531250003 27.583945312500006  12.88525390625 22.290234375  C 4.659394531250001 16.882851562500004  0.5155273437500014 10.187109375000006  0.5829101562499979 2.346035156250009  Z " stroke-width="0" stroke-dasharray="0" stroke="rgba(255, 255, 255, 0)" fill="none" transform="matrix(1 0 0 1 -1049 454 )" class="stroke" mask="url(#Clip8874)" />
    <path d="M 11.029707031250002 29.662499999999994  L 16.978320312499996 29.662499999999994  C 17.862734375000002 30.648515624999995  18.60921874999999 31.663066406249996  19.220585937499997 32  L 8.787500000000001 32  C 9.398867187500002 31.663066406249996  10.145292968750002 30.648515624999995  11.029707031250002 29.662499999999994  Z " stroke-width="0" stroke-dasharray="0" stroke="rgba(255, 255, 255, 0)" fill="none" transform="matrix(1 0 0 1 -1049 454 )" class="stroke" mask="url(#Clip8874)" />
  </g>
</svg>