<?xml version="1.0" encoding="utf-8"?>
<svg version="1.1" xmlns:xlink="http://www.w3.org/1999/xlink" width="66px" height="86px" xmlns="http://www.w3.org/2000/svg">
  <defs>
    <linearGradient gradientUnits="userSpaceOnUse" x1="0" y1="0" x2="66" y2="86" id="LinearGradient9799">
      <stop id="Stop9800" stop-color="#d9001b" offset="0" />
      <stop id="Stop9801" stop-color="#02a7f0" offset="1" />
    </linearGradient>
    <pattern id="BGPattern" patternUnits="userSpaceOnUse" alignment="0 0" imageRepeat="None" />
    <mask fill="white" id="Clip9802">
      <path d="M 0 76  L 0 10  C 0 4.3999999999999995  4.4 0  10 0  L 56 0  C 61.6 0  66 4.3999999999999995  66 10  L 66 76  C 66 81.60000000000001  61.6 86  56 86  L 10 86  C 4.4 86  0 81.60000000000001  0 76  Z " fill-rule="evenodd" />
    </mask>
  </defs>
  <g transform="matrix(1 0 0 1 -542 -1404 )">
    <path d="M 0 76  L 0 10  C 0 4.3999999999999995  4.4 0  10 0  L 56 0  C 61.6 0  66 4.3999999999999995  66 10  L 66 76  C 66 81.60000000000001  61.6 86  56 86  L 10 86  C 4.4 86  0 81.60000000000001  0 76  Z " fill-rule="nonzero" fill="url(#LinearGradient9799)" stroke="none" transform="matrix(1 0 0 1 542 1404 )" class="fill" />
    <path d="M 0 76  L 0 10  C 0 4.3999999999999995  4.4 0  10 0  L 56 0  C 61.6 0  66 4.3999999999999995  66 10  L 66 76  C 66 81.60000000000001  61.6 86  56 86  L 10 86  C 4.4 86  0 81.60000000000001  0 76  Z " stroke-width="0" stroke-dasharray="0" stroke="rgba(121, 121, 121, 1)" fill="none" transform="matrix(1 0 0 1 542 1404 )" class="stroke" mask="url(#Clip9802)" />
  </g>
</svg>