<?xml version="1.0" encoding="utf-8"?>
<svg version="1.1" xmlns:xlink="http://www.w3.org/1999/xlink" width="8px" height="29px" xmlns="http://www.w3.org/2000/svg">
  <defs>
    <pattern id="BGPattern" patternUnits="userSpaceOnUse" alignment="0 0" imageRepeat="None" />
    <mask fill="white" id="Clip240">
      <path d="M 5.032834598214286 28.01017457069926  C 4.877282924107143 28.46410454053218  4.453227566964286 28.748915362004954  4.001476729910714 28.748915362004954  C 3.8842990513392857 28.748915362004954  3.7628385044642862 28.729633379099628  3.6456037388392866 28.688946118889234  C 3.076675167410715 28.49193712677909  2.774080357142857 27.867740503171415  2.9701188616071437 27.294962519337876  L 5.4312502232142865 20.121665646271666  C 4.161254129464287 19.29403272161201  3.074505245535716 18.236278583307556  2.1901905133928574 16.96860340926671  C 0.7923382812500012 14.966491514542081  0.05295385044642943 12.608925601407796  0.05295385044642943 10.152883849009902  C 0.05295385044642943 6.20862935875619  1.9920391741071444 2.529903707069927  5.241607366071429 0.31259119740099134  C 5.738070758928572 -0.02891784305383493  6.417838448660715 0.09951387685644059  6.758807254464287 0.6038293838954242  C 7.095493247767856 1.104873810720921  6.9676371093750005 1.7858260229733962  6.4690037388392865 2.1263020730198043  C 3.8182295200892873 3.9357089340965374  2.234960156250001 6.935605724009904  2.234960156250001 10.152941218672652  C 2.234960156250001 12.156086047725868  2.837979854910716 14.077913726021043  3.9758940848214297 15.70959363397278  C 4.845304631696429 16.956896465037133  5.9554662388392865 17.95364842589728  7.272344810267858 18.673107122138003  C 7.741112723214286 18.928994997292705  7.958508147321429 19.48788537283417  7.783769475446429 19.994266804610152  L 5.032834598214286 28.01017457069926  Z " fill-rule="evenodd" />
    </mask>
  </defs>
  <g transform="matrix(1 0 0 1 1240 -1440 )">
    <path d="M 5.032834598214286 28.01017457069926  C 4.877282924107143 28.46410454053218  4.453227566964286 28.748915362004954  4.001476729910714 28.748915362004954  C 3.8842990513392857 28.748915362004954  3.7628385044642862 28.729633379099628  3.6456037388392866 28.688946118889234  C 3.076675167410715 28.49193712677909  2.774080357142857 27.867740503171415  2.9701188616071437 27.294962519337876  L 5.4312502232142865 20.121665646271666  C 4.161254129464287 19.29403272161201  3.074505245535716 18.236278583307556  2.1901905133928574 16.96860340926671  C 0.7923382812500012 14.966491514542081  0.05295385044642943 12.608925601407796  0.05295385044642943 10.152883849009902  C 0.05295385044642943 6.20862935875619  1.9920391741071444 2.529903707069927  5.241607366071429 0.31259119740099134  C 5.738070758928572 -0.02891784305383493  6.417838448660715 0.09951387685644059  6.758807254464287 0.6038293838954242  C 7.095493247767856 1.104873810720921  6.9676371093750005 1.7858260229733962  6.4690037388392865 2.1263020730198043  C 3.8182295200892873 3.9357089340965374  2.234960156250001 6.935605724009904  2.234960156250001 10.152941218672652  C 2.234960156250001 12.156086047725868  2.837979854910716 14.077913726021043  3.9758940848214297 15.70959363397278  C 4.845304631696429 16.956896465037133  5.9554662388392865 17.95364842589728  7.272344810267858 18.673107122138003  C 7.741112723214286 18.928994997292705  7.958508147321429 19.48788537283417  7.783769475446429 19.994266804610152  L 5.032834598214286 28.01017457069926  Z " fill-rule="nonzero" fill="rgba(255, 255, 255, 1)" stroke="none" transform="matrix(1 0 0 1 -1240 1440 )" class="fill" />
    <path d="M 5.032834598214286 28.01017457069926  C 4.877282924107143 28.46410454053218  4.453227566964286 28.748915362004954  4.001476729910714 28.748915362004954  C 3.8842990513392857 28.748915362004954  3.7628385044642862 28.729633379099628  3.6456037388392866 28.688946118889234  C 3.076675167410715 28.49193712677909  2.774080357142857 27.867740503171415  2.9701188616071437 27.294962519337876  L 5.4312502232142865 20.121665646271666  C 4.161254129464287 19.29403272161201  3.074505245535716 18.236278583307556  2.1901905133928574 16.96860340926671  C 0.7923382812500012 14.966491514542081  0.05295385044642943 12.608925601407796  0.05295385044642943 10.152883849009902  C 0.05295385044642943 6.20862935875619  1.9920391741071444 2.529903707069927  5.241607366071429 0.31259119740099134  C 5.738070758928572 -0.02891784305383493  6.417838448660715 0.09951387685644059  6.758807254464287 0.6038293838954242  C 7.095493247767856 1.104873810720921  6.9676371093750005 1.7858260229733962  6.4690037388392865 2.1263020730198043  C 3.8182295200892873 3.9357089340965374  2.234960156250001 6.935605724009904  2.234960156250001 10.152941218672652  C 2.234960156250001 12.156086047725868  2.837979854910716 14.077913726021043  3.9758940848214297 15.70959363397278  C 4.845304631696429 16.956896465037133  5.9554662388392865 17.95364842589728  7.272344810267858 18.673107122138003  C 7.741112723214286 18.928994997292705  7.958508147321429 19.48788537283417  7.783769475446429 19.994266804610152  L 5.032834598214286 28.01017457069926  Z " stroke-width="0" stroke-dasharray="0" stroke="rgba(255, 255, 255, 0)" fill="none" transform="matrix(1 0 0 1 -1240 1440 )" class="stroke" mask="url(#Clip240)" />
  </g>
</svg>