<?xml version="1.0" encoding="utf-8"?>
<svg version="1.1" xmlns:xlink="http://www.w3.org/1999/xlink" width="22px" height="22px" xmlns="http://www.w3.org/2000/svg">
  <defs>
    <pattern id="BGPattern" patternUnits="userSpaceOnUse" alignment="0 0" imageRepeat="None" />
    <mask fill="white" id="Clip6032">
      <path d="M 10.933333320312503 20.0666666796875  C 9.666666640625003 21.266666679687503  8.066666640625002 21.933333359375  6.466666679687499 21.9333333203125  L 6.400000000000001 21.9333333203125  C 2.9333333203124994 21.9333333203125  0.06666667968750062 19.066666640625  0.13333332031250045 15.6  C 0.13333332031250045 13.933333320312501  0.8000000000000007 12.333333320312498  2 11.133333320312499  L 4.733333320312502 8.399999999999999  L 6.0666666796875 9.733333320312497  L 3.333333320312501 12.4666666796875  C 2.466666640625 13.333333359375  2 14.399999999999997  2 15.6  C 2 16.8  2.466666679687501 17.9333333203125  3.333333320312501 18.7333333203125  C 4.200000000000001 19.6  5.266666640625001 20.066666640625  6.466666679687503 20.0666666796875  C 7.666666718750001 20.06666671875  8.800000000000004 19.599999999999998  9.600000000000001 18.7333333203125  L 12.333333320312505 16  L 13.666666679687502 17.333333320312498  L 10.933333320312503 20.0666666796875  Z M 5.2666666796875 9.666666679687495  L 4.6666666796875 9.133333320312499  L 2.2666666796875 11.533333320312499  C 1.1999999999999993 12.599999999999998  0.6000000000000014 14.066666640625002  0.6000000000000014 15.6  C 0.6000000000000014 18.799999999999997  3.200000000000003 21.4  6.400000000000001 21.4  C 7.933333320312499 21.466666679687503  9.400000000000002 20.8  10.5333333203125 19.733333320312504  L 12.9333333203125 17.333333320312498  L 12.333333320312498 16.7333333203125  L 9.9333333203125 19.133333320312495  C 9 20.066666640624994  7.7333333203125 20.599999999999994  6.400000000000001 20.599999999999994  C 5.066666679687501 20.599999999999994  3.8000000000000007 20.066666679687497  2.8666666796875013 19.133333320312495  C 1.933333359375002 18.199999999999996  1.4000000000000004 16.933333320312496  1.4000000000000004 15.599999999999996  C 1.4000000000000004 14.266666679687496  1.9333333203124992 12.999999999999993  2.8666666796875013 12.066666679687494  L 5.2666666796875 9.666666679687495  Z M 19.3333333203125 17.799999999999997  L 18 19.133333320312495  L 12.266666679687505 13.399999999999999  L 13.600000000000001 12.066666679687495  L 19.3333333203125 17.799999999999997  Z M 13.600000000000001 12.800000000000002  L 13 13.400000000000004  L 18 18.400000000000002  L 18.6 17.8  L 13.600000000000001 12.800000000000002  Z M 20.2 10.666666679687502  L 17.466666679687503 13.466666679687503  L 16.133333320312502 12.1333333203125  L 18.9333333203125 9.400000000000002  C 20.666666640625003 7.666666679687502  20.6 4.866666679687503  18.866666679687498 3.1333333203125022  C 17.133333359375 1.466666640625002  14.333333359375 1.466666640625002  12.666666679687497 3.1333333203125022  L 9.866666679687498 5.866666679687501  L 8.533333320312497 4.533333320312501  L 11.266666679687496 1.8000000000000007  C 13.799999999999995 -0.5999999999999996  17.799999999999997 -0.4666666796874992  20.2 2.0666666796875006  C 22.466666679687496 4.466666679687499  22.466666679687496 8.2666666796875  20.2 10.666666679687502  Z M 19.46666667968751 9.866666679687505  L 16.933333320312503 12.1333333203125  L 17.533333320312504 12.733333320312502  L 19.933333320312506 10.333333320312505  C 22.000000000000004 8.133333320312506  22.000000000000004 4.666666640625005  19.933333320312506 2.4666666796875045  C 17.733333320312504 0.1333333593750048  14.06666664062501 0  11.800000000000004 2.2000000000000064  L 9.400000000000006 4.600000000000005  L 10.000000000000007 5.200000000000006  L 12.400000000000006 2.866666679687505  C 14.333333320312505 1.0000000000000036  17.466666679687506 1.0000000000000036  19.400000000000006 2.866666679687505  C 21.33333332031251 4.800000000000006  21.40000000000001 7.933333359375006  19.46666667968751 9.866666679687505  Z M 9.933333320312503 8.400000000000002  L 8.600000000000001 9.733333320312504  L 2.866666679687503 4.0000000000000036  L 4.200000000000003 2.666666679687502  L 9.933333320312503 8.400000000000002  Z M 4.200000000000003 3.400000000000002  L 3.6000000000000014 4.0000000000000036  L 8.600000000000001 9.000000000000004  L 9.200000000000003 8.400000000000002  L 4.200000000000003 3.400000000000002  Z " fill-rule="evenodd" />
    </mask>
  </defs>
  <g transform="matrix(1 0 0 1 -488 -1426 )">
    <path d="M 10.933333320312503 20.0666666796875  C 9.666666640625003 21.266666679687503  8.066666640625002 21.933333359375  6.466666679687499 21.9333333203125  L 6.400000000000001 21.9333333203125  C 2.9333333203124994 21.9333333203125  0.06666667968750062 19.066666640625  0.13333332031250045 15.6  C 0.13333332031250045 13.933333320312501  0.8000000000000007 12.333333320312498  2 11.133333320312499  L 4.733333320312502 8.399999999999999  L 6.0666666796875 9.733333320312497  L 3.333333320312501 12.4666666796875  C 2.466666640625 13.333333359375  2 14.399999999999997  2 15.6  C 2 16.8  2.466666679687501 17.9333333203125  3.333333320312501 18.7333333203125  C 4.200000000000001 19.6  5.266666640625001 20.066666640625  6.466666679687503 20.0666666796875  C 7.666666718750001 20.06666671875  8.800000000000004 19.599999999999998  9.600000000000001 18.7333333203125  L 12.333333320312505 16  L 13.666666679687502 17.333333320312498  L 10.933333320312503 20.0666666796875  Z M 5.2666666796875 9.666666679687495  L 4.6666666796875 9.133333320312499  L 2.2666666796875 11.533333320312499  C 1.1999999999999993 12.599999999999998  0.6000000000000014 14.066666640625002  0.6000000000000014 15.6  C 0.6000000000000014 18.799999999999997  3.200000000000003 21.4  6.400000000000001 21.4  C 7.933333320312499 21.466666679687503  9.400000000000002 20.8  10.5333333203125 19.733333320312504  L 12.9333333203125 17.333333320312498  L 12.333333320312498 16.7333333203125  L 9.9333333203125 19.133333320312495  C 9 20.066666640624994  7.7333333203125 20.599999999999994  6.400000000000001 20.599999999999994  C 5.066666679687501 20.599999999999994  3.8000000000000007 20.066666679687497  2.8666666796875013 19.133333320312495  C 1.933333359375002 18.199999999999996  1.4000000000000004 16.933333320312496  1.4000000000000004 15.599999999999996  C 1.4000000000000004 14.266666679687496  1.9333333203124992 12.999999999999993  2.8666666796875013 12.066666679687494  L 5.2666666796875 9.666666679687495  Z M 19.3333333203125 17.799999999999997  L 18 19.133333320312495  L 12.266666679687505 13.399999999999999  L 13.600000000000001 12.066666679687495  L 19.3333333203125 17.799999999999997  Z M 13.600000000000001 12.800000000000002  L 13 13.400000000000004  L 18 18.400000000000002  L 18.6 17.8  L 13.600000000000001 12.800000000000002  Z M 20.2 10.666666679687502  L 17.466666679687503 13.466666679687503  L 16.133333320312502 12.1333333203125  L 18.9333333203125 9.400000000000002  C 20.666666640625003 7.666666679687502  20.6 4.866666679687503  18.866666679687498 3.1333333203125022  C 17.133333359375 1.466666640625002  14.333333359375 1.466666640625002  12.666666679687497 3.1333333203125022  L 9.866666679687498 5.866666679687501  L 8.533333320312497 4.533333320312501  L 11.266666679687496 1.8000000000000007  C 13.799999999999995 -0.5999999999999996  17.799999999999997 -0.4666666796874992  20.2 2.0666666796875006  C 22.466666679687496 4.466666679687499  22.466666679687496 8.2666666796875  20.2 10.666666679687502  Z M 19.46666667968751 9.866666679687505  L 16.933333320312503 12.1333333203125  L 17.533333320312504 12.733333320312502  L 19.933333320312506 10.333333320312505  C 22.000000000000004 8.133333320312506  22.000000000000004 4.666666640625005  19.933333320312506 2.4666666796875045  C 17.733333320312504 0.1333333593750048  14.06666664062501 0  11.800000000000004 2.2000000000000064  L 9.400000000000006 4.600000000000005  L 10.000000000000007 5.200000000000006  L 12.400000000000006 2.866666679687505  C 14.333333320312505 1.0000000000000036  17.466666679687506 1.0000000000000036  19.400000000000006 2.866666679687505  C 21.33333332031251 4.800000000000006  21.40000000000001 7.933333359375006  19.46666667968751 9.866666679687505  Z M 9.933333320312503 8.400000000000002  L 8.600000000000001 9.733333320312504  L 2.866666679687503 4.0000000000000036  L 4.200000000000003 2.666666679687502  L 9.933333320312503 8.400000000000002  Z M 4.200000000000003 3.400000000000002  L 3.6000000000000014 4.0000000000000036  L 8.600000000000001 9.000000000000004  L 9.200000000000003 8.400000000000002  L 4.200000000000003 3.400000000000002  Z " fill-rule="nonzero" fill="rgba(255, 255, 255, 1)" stroke="none" transform="matrix(1 0 0 1 488 1426 )" class="fill" />
    <path d="M 10.933333320312503 20.0666666796875  C 9.666666640625003 21.266666679687503  8.066666640625002 21.933333359375  6.466666679687499 21.9333333203125  L 6.400000000000001 21.9333333203125  C 2.9333333203124994 21.9333333203125  0.06666667968750062 19.066666640625  0.13333332031250045 15.6  C 0.13333332031250045 13.933333320312501  0.8000000000000007 12.333333320312498  2 11.133333320312499  L 4.733333320312502 8.399999999999999  L 6.0666666796875 9.733333320312497  L 3.333333320312501 12.4666666796875  C 2.466666640625 13.333333359375  2 14.399999999999997  2 15.6  C 2 16.8  2.466666679687501 17.9333333203125  3.333333320312501 18.7333333203125  C 4.200000000000001 19.6  5.266666640625001 20.066666640625  6.466666679687503 20.0666666796875  C 7.666666718750001 20.06666671875  8.800000000000004 19.599999999999998  9.600000000000001 18.7333333203125  L 12.333333320312505 16  L 13.666666679687502 17.333333320312498  L 10.933333320312503 20.0666666796875  Z " stroke-width="0" stroke-dasharray="0" stroke="rgba(255, 255, 255, 0)" fill="none" transform="matrix(1 0 0 1 488 1426 )" class="stroke" mask="url(#Clip6032)" />
    <path d="M 5.2666666796875 9.666666679687495  L 4.6666666796875 9.133333320312499  L 2.2666666796875 11.533333320312499  C 1.1999999999999993 12.599999999999998  0.6000000000000014 14.066666640625002  0.6000000000000014 15.6  C 0.6000000000000014 18.799999999999997  3.200000000000003 21.4  6.400000000000001 21.4  C 7.933333320312499 21.466666679687503  9.400000000000002 20.8  10.5333333203125 19.733333320312504  L 12.9333333203125 17.333333320312498  L 12.333333320312498 16.7333333203125  L 9.9333333203125 19.133333320312495  C 9 20.066666640624994  7.7333333203125 20.599999999999994  6.400000000000001 20.599999999999994  C 5.066666679687501 20.599999999999994  3.8000000000000007 20.066666679687497  2.8666666796875013 19.133333320312495  C 1.933333359375002 18.199999999999996  1.4000000000000004 16.933333320312496  1.4000000000000004 15.599999999999996  C 1.4000000000000004 14.266666679687496  1.9333333203124992 12.999999999999993  2.8666666796875013 12.066666679687494  L 5.2666666796875 9.666666679687495  Z " stroke-width="0" stroke-dasharray="0" stroke="rgba(255, 255, 255, 0)" fill="none" transform="matrix(1 0 0 1 488 1426 )" class="stroke" mask="url(#Clip6032)" />
    <path d="M 19.3333333203125 17.799999999999997  L 18 19.133333320312495  L 12.266666679687505 13.399999999999999  L 13.600000000000001 12.066666679687495  L 19.3333333203125 17.799999999999997  Z " stroke-width="0" stroke-dasharray="0" stroke="rgba(255, 255, 255, 0)" fill="none" transform="matrix(1 0 0 1 488 1426 )" class="stroke" mask="url(#Clip6032)" />
    <path d="M 13.600000000000001 12.800000000000002  L 13 13.400000000000004  L 18 18.400000000000002  L 18.6 17.8  L 13.600000000000001 12.800000000000002  Z " stroke-width="0" stroke-dasharray="0" stroke="rgba(255, 255, 255, 0)" fill="none" transform="matrix(1 0 0 1 488 1426 )" class="stroke" mask="url(#Clip6032)" />
    <path d="M 20.2 10.666666679687502  L 17.466666679687503 13.466666679687503  L 16.133333320312502 12.1333333203125  L 18.9333333203125 9.400000000000002  C 20.666666640625003 7.666666679687502  20.6 4.866666679687503  18.866666679687498 3.1333333203125022  C 17.133333359375 1.466666640625002  14.333333359375 1.466666640625002  12.666666679687497 3.1333333203125022  L 9.866666679687498 5.866666679687501  L 8.533333320312497 4.533333320312501  L 11.266666679687496 1.8000000000000007  C 13.799999999999995 -0.5999999999999996  17.799999999999997 -0.4666666796874992  20.2 2.0666666796875006  C 22.466666679687496 4.466666679687499  22.466666679687496 8.2666666796875  20.2 10.666666679687502  Z " stroke-width="0" stroke-dasharray="0" stroke="rgba(255, 255, 255, 0)" fill="none" transform="matrix(1 0 0 1 488 1426 )" class="stroke" mask="url(#Clip6032)" />
    <path d="M 19.46666667968751 9.866666679687505  L 16.933333320312503 12.1333333203125  L 17.533333320312504 12.733333320312502  L 19.933333320312506 10.333333320312505  C 22.000000000000004 8.133333320312506  22.000000000000004 4.666666640625005  19.933333320312506 2.4666666796875045  C 17.733333320312504 0.1333333593750048  14.06666664062501 0  11.800000000000004 2.2000000000000064  L 9.400000000000006 4.600000000000005  L 10.000000000000007 5.200000000000006  L 12.400000000000006 2.866666679687505  C 14.333333320312505 1.0000000000000036  17.466666679687506 1.0000000000000036  19.400000000000006 2.866666679687505  C 21.33333332031251 4.800000000000006  21.40000000000001 7.933333359375006  19.46666667968751 9.866666679687505  Z " stroke-width="0" stroke-dasharray="0" stroke="rgba(255, 255, 255, 0)" fill="none" transform="matrix(1 0 0 1 488 1426 )" class="stroke" mask="url(#Clip6032)" />
    <path d="M 9.933333320312503 8.400000000000002  L 8.600000000000001 9.733333320312504  L 2.866666679687503 4.0000000000000036  L 4.200000000000003 2.666666679687502  L 9.933333320312503 8.400000000000002  Z " stroke-width="0" stroke-dasharray="0" stroke="rgba(255, 255, 255, 0)" fill="none" transform="matrix(1 0 0 1 488 1426 )" class="stroke" mask="url(#Clip6032)" />
    <path d="M 4.200000000000003 3.400000000000002  L 3.6000000000000014 4.0000000000000036  L 8.600000000000001 9.000000000000004  L 9.200000000000003 8.400000000000002  L 4.200000000000003 3.400000000000002  Z " stroke-width="0" stroke-dasharray="0" stroke="rgba(255, 255, 255, 0)" fill="none" transform="matrix(1 0 0 1 488 1426 )" class="stroke" mask="url(#Clip6032)" />
  </g>
</svg>