<?xml version="1.0" encoding="utf-8"?>
<svg version="1.1" xmlns:xlink="http://www.w3.org/1999/xlink" width="144px" height="30px" xmlns="http://www.w3.org/2000/svg">
  <defs>
    <linearGradient gradientUnits="userSpaceOnUse" x1="0" y1="0" x2="144" y2="30" id="LinearGradient783">
      <stop id="Stop784" stop-color="#d9001b" offset="0" />
      <stop id="Stop785" stop-color="#02a7f0" offset="1" />
    </linearGradient>
    <pattern id="BGPattern" patternUnits="userSpaceOnUse" alignment="0 0" imageRepeat="None" />
    <mask fill="white" id="Clip786">
      <path d="M 15 30  C 6.6 30  0 23.400000000000002  0 15  C 0 6.6  6.6 0  15 0  L 129 0  C 137.4 0  144 6.6  144 15  C 144 23.400000000000002  137.4 30  129 30  L 15 30  Z " fill-rule="evenodd" />
    </mask>
  </defs>
  <g transform="matrix(1 0 0 1 -528 -3193 )">
    <path d="M 15 30  C 6.6 30  0 23.400000000000002  0 15  C 0 6.6  6.6 0  15 0  L 129 0  C 137.4 0  144 6.6  144 15  C 144 23.400000000000002  137.4 30  129 30  L 15 30  Z " fill-rule="nonzero" fill="url(#LinearGradient783)" stroke="none" transform="matrix(1 0 0 1 528 3193 )" class="fill" />
    <path d="M 15 30  C 6.6 30  0 23.400000000000002  0 15  C 0 6.6  6.6 0  15 0  L 129 0  C 137.4 0  144 6.6  144 15  C 144 23.400000000000002  137.4 30  129 30  L 15 30  Z " stroke-width="0" stroke-dasharray="0" stroke="rgba(121, 121, 121, 1)" fill="none" transform="matrix(1 0 0 1 528 3193 )" class="stroke" mask="url(#Clip786)" />
  </g>
</svg>