<?xml version="1.0" encoding="utf-8"?>
<svg version="1.1" xmlns:xlink="http://www.w3.org/1999/xlink" width="12px" height="12px" xmlns="http://www.w3.org/2000/svg">
  <defs>
    <pattern id="BGPattern" patternUnits="userSpaceOnUse" alignment="0 0" imageRepeat="None" />
    <mask fill="white" id="Clip4630">
      <path d="M 11.965909090909092 6  C 11.965909090909092 2.7187500000000004  9.28125 0.03409090909090909  6 0.03409090909090909  C 2.7187500000000004 0.03409090909090909  0.03409090909090909 2.7187500000000004  0.03409090909090909 6  C 0.03409090909090909 9.28125  2.7187500000000004 11.965909090909092  6 11.965909090909092  C 9.28125 11.965909090909092  11.965909090909092 9.28125  11.965909090909092 6  Z M 9.409090909090908 6  C 9.409090909090908 6.468750000000002  9.025568181818182 6.8522727272727275  8.556818181818182 6.8522727272727275  L 6.8522727272727275 6.8522727272727275  L 6.8522727272727275 8.556818181818182  C 6.8522727272727275 9.025568181818182  6.468750000000002 9.409090909090908  6 9.409090909090908  C 5.531249999999999 9.409090909090908  5.1477272727272725 9.025568181818182  5.1477272727272725 8.556818181818182  L 5.1477272727272725 6.8522727272727275  L 3.4431818181818183 6.8522727272727275  C 2.9744318181818183 6.8522727272727275  2.590909090909091 6.468750000000002  2.590909090909091 6  C 2.590909090909091 5.531249999999999  2.9744318181818183 5.1477272727272725  3.4431818181818183 5.1477272727272725  L 5.1477272727272725 5.1477272727272725  L 5.1477272727272725 3.4431818181818183  C 5.1477272727272725 2.9744318181818183  5.53125 2.590909090909091  6 2.590909090909091  C 6.468750000000002 2.590909090909091  6.8522727272727275 2.9744318181818183  6.8522727272727275 3.4431818181818183  L 6.8522727272727275 5.1477272727272725  L 8.556818181818182 5.1477272727272725  C 9.025568181818182 5.1477272727272725  9.409090909090908 5.53125  9.409090909090908 6  Z " fill-rule="evenodd" />
    </mask>
  </defs>
  <g transform="matrix(1 0 0 1 -804 -2901 )">
    <path d="M 11.965909090909092 6  C 11.965909090909092 2.7187500000000004  9.28125 0.03409090909090909  6 0.03409090909090909  C 2.7187500000000004 0.03409090909090909  0.03409090909090909 2.7187500000000004  0.03409090909090909 6  C 0.03409090909090909 9.28125  2.7187500000000004 11.965909090909092  6 11.965909090909092  C 9.28125 11.965909090909092  11.965909090909092 9.28125  11.965909090909092 6  Z M 9.409090909090908 6  C 9.409090909090908 6.468750000000002  9.025568181818182 6.8522727272727275  8.556818181818182 6.8522727272727275  L 6.8522727272727275 6.8522727272727275  L 6.8522727272727275 8.556818181818182  C 6.8522727272727275 9.025568181818182  6.468750000000002 9.409090909090908  6 9.409090909090908  C 5.531249999999999 9.409090909090908  5.1477272727272725 9.025568181818182  5.1477272727272725 8.556818181818182  L 5.1477272727272725 6.8522727272727275  L 3.4431818181818183 6.8522727272727275  C 2.9744318181818183 6.8522727272727275  2.590909090909091 6.468750000000002  2.590909090909091 6  C 2.590909090909091 5.531249999999999  2.9744318181818183 5.1477272727272725  3.4431818181818183 5.1477272727272725  L 5.1477272727272725 5.1477272727272725  L 5.1477272727272725 3.4431818181818183  C 5.1477272727272725 2.9744318181818183  5.53125 2.590909090909091  6 2.590909090909091  C 6.468750000000002 2.590909090909091  6.8522727272727275 2.9744318181818183  6.8522727272727275 3.4431818181818183  L 6.8522727272727275 5.1477272727272725  L 8.556818181818182 5.1477272727272725  C 9.025568181818182 5.1477272727272725  9.409090909090908 5.53125  9.409090909090908 6  Z " fill-rule="nonzero" fill="rgba(255, 255, 255, 1)" stroke="none" transform="matrix(1 0 0 1 804 2901 )" class="fill" />
    <path d="M 11.965909090909092 6  C 11.965909090909092 2.7187500000000004  9.28125 0.03409090909090909  6 0.03409090909090909  C 2.7187500000000004 0.03409090909090909  0.03409090909090909 2.7187500000000004  0.03409090909090909 6  C 0.03409090909090909 9.28125  2.7187500000000004 11.965909090909092  6 11.965909090909092  C 9.28125 11.965909090909092  11.965909090909092 9.28125  11.965909090909092 6  Z " stroke-width="0" stroke-dasharray="0" stroke="rgba(255, 255, 255, 0)" fill="none" transform="matrix(1 0 0 1 804 2901 )" class="stroke" mask="url(#Clip4630)" />
    <path d="M 9.409090909090908 6  C 9.409090909090908 6.468750000000002  9.025568181818182 6.8522727272727275  8.556818181818182 6.8522727272727275  L 6.8522727272727275 6.8522727272727275  L 6.8522727272727275 8.556818181818182  C 6.8522727272727275 9.025568181818182  6.468750000000002 9.409090909090908  6 9.409090909090908  C 5.531249999999999 9.409090909090908  5.1477272727272725 9.025568181818182  5.1477272727272725 8.556818181818182  L 5.1477272727272725 6.8522727272727275  L 3.4431818181818183 6.8522727272727275  C 2.9744318181818183 6.8522727272727275  2.590909090909091 6.468750000000002  2.590909090909091 6  C 2.590909090909091 5.531249999999999  2.9744318181818183 5.1477272727272725  3.4431818181818183 5.1477272727272725  L 5.1477272727272725 5.1477272727272725  L 5.1477272727272725 3.4431818181818183  C 5.1477272727272725 2.9744318181818183  5.53125 2.590909090909091  6 2.590909090909091  C 6.468750000000002 2.590909090909091  6.8522727272727275 2.9744318181818183  6.8522727272727275 3.4431818181818183  L 6.8522727272727275 5.1477272727272725  L 8.556818181818182 5.1477272727272725  C 9.025568181818182 5.1477272727272725  9.409090909090908 5.53125  9.409090909090908 6  Z " stroke-width="0" stroke-dasharray="0" stroke="rgba(255, 255, 255, 0)" fill="none" transform="matrix(1 0 0 1 804 2901 )" class="stroke" mask="url(#Clip4630)" />
  </g>
</svg>