<?xml version="1.0" encoding="utf-8"?>
<svg version="1.1" xmlns:xlink="http://www.w3.org/1999/xlink" width="225px" height="15px" xmlns="http://www.w3.org/2000/svg">
  <defs>
    <linearGradient gradientUnits="userSpaceOnUse" x1="0" y1="7.5" x2="225" y2="7.5" id="LinearGradient939">
      <stop id="Stop940" stop-color="#ff4874" offset="0" />
      <stop id="Stop941" stop-color="#ff6da1" offset="1" />
    </linearGradient>
    <pattern id="BGPattern" patternUnits="userSpaceOnUse" alignment="0 0" imageRepeat="None" />
    <mask fill="white" id="Clip942">
      <path d="M 0 15  L 0 5  C 0 2.1999999999999997  2.2 0  5 0  L 225 0  L 225 15  L 0 15  Z " fill-rule="evenodd" />
    </mask>
  </defs>
  <g transform="matrix(1 0 0 1 -375 -2875 )">
    <path d="M 0 15  L 0 5  C 0 2.1999999999999997  2.2 0  5 0  L 225 0  L 225 15  L 0 15  Z " fill-rule="nonzero" fill="url(#LinearGradient939)" stroke="none" transform="matrix(1 0 0 1 375 2875 )" class="fill" />
    <path d="M 0 15  L 0 5  C 0 2.1999999999999997  2.2 0  5 0  L 225 0  L 225 15  L 0 15  Z " stroke-width="0" stroke-dasharray="0" stroke="rgba(121, 121, 121, 1)" fill="none" transform="matrix(1 0 0 1 375 2875 )" class="stroke" mask="url(#Clip942)" />
  </g>
</svg>