<?xml version="1.0" encoding="utf-8"?>
<svg version="1.1" xmlns:xlink="http://www.w3.org/1999/xlink" width="10px" height="11px" xmlns="http://www.w3.org/2000/svg">
  <defs>
    <pattern id="BGPattern" patternUnits="userSpaceOnUse" alignment="0 0" imageRepeat="None" />
    <mask fill="white" id="Clip1575">
      <path d="M 5.375 9.233125  L 5.375 10  L 6.875 10  C 7.082106781186548 10  7.25 10.167893218813452  7.25 10.375  C 7.25 10.582106781186548  7.082106781186548 10.75  6.875 10.75  L 3.125 10.75  C 2.9178932188134525 10.75  2.75 10.582106781186548  2.75 10.375  C 2.75 10.167893218813452  2.9178932188134525 10  3.125 10  L 4.625 10  L 4.625 9.233125  C 2.5223750000000003 9.04375  0.875 7.276749999999999  0.875 5.125  C 0.875 4.917893218813452  1.0428932188134525 4.75  1.25 4.75  C 1.4571067811865475 4.75  1.625 4.917893218813452  1.625 5.125  C 1.6249999999999996 6.9889610306789285  3.1360389693210715 8.5  5 8.5  C 6.863961030678928 8.5  8.375 6.9889610306789285  8.375 5.124999999999999  C 8.375 4.917893218813452  8.542893218813452 4.75  8.75 4.75  C 8.957106781186548 4.75  9.125 4.917893218813452  9.125 5.125  C 9.125 7.276749999999999  7.477625 9.04375  5.375 9.233125  Z M 2.375 2.875  C 2.375 1.4252525316941664  3.5502525316941673 0.25  5 0.25  C 6.449747468305832 0.25  7.625 1.4252525316941673  7.625 2.875  L 7.625 5.125  C 7.625 6.574747468305834  6.449747468305832 7.75  5 7.75  C 3.5502525316941673 7.75  2.375 6.574747468305834  2.375 5.125  L 2.375 2.875  Z M 6.874999999999998 2.874999999999999  C 6.874999999999998 1.8394660940672622  6.035533905932736 0.9999999999999998  4.999999999999999 0.9999999999999998  C 3.9644660940672622 0.9999999999999998  3.124999999999999 1.8394660940672622  3.125 2.875  L 3.124999999999999 5.124999999999998  C 3.124999999999999 6.160533905932736  3.9644660940672622 6.999999999999998  4.999999999999999 6.999999999999998  C 6.035533905932736 6.999999999999998  6.874999999999998 6.160533905932736  6.874999999999998 5.124999999999998  L 6.874999999999998 2.874999999999999  Z " fill-rule="evenodd" />
    </mask>
  </defs>
  <g transform="matrix(1 0 0 1 -695 -2901 )">
    <path d="M 5.375 9.233125  L 5.375 10  L 6.875 10  C 7.082106781186548 10  7.25 10.167893218813452  7.25 10.375  C 7.25 10.582106781186548  7.082106781186548 10.75  6.875 10.75  L 3.125 10.75  C 2.9178932188134525 10.75  2.75 10.582106781186548  2.75 10.375  C 2.75 10.167893218813452  2.9178932188134525 10  3.125 10  L 4.625 10  L 4.625 9.233125  C 2.5223750000000003 9.04375  0.875 7.276749999999999  0.875 5.125  C 0.875 4.917893218813452  1.0428932188134525 4.75  1.25 4.75  C 1.4571067811865475 4.75  1.625 4.917893218813452  1.625 5.125  C 1.6249999999999996 6.9889610306789285  3.1360389693210715 8.5  5 8.5  C 6.863961030678928 8.5  8.375 6.9889610306789285  8.375 5.124999999999999  C 8.375 4.917893218813452  8.542893218813452 4.75  8.75 4.75  C 8.957106781186548 4.75  9.125 4.917893218813452  9.125 5.125  C 9.125 7.276749999999999  7.477625 9.04375  5.375 9.233125  Z M 2.375 2.875  C 2.375 1.4252525316941664  3.5502525316941673 0.25  5 0.25  C 6.449747468305832 0.25  7.625 1.4252525316941673  7.625 2.875  L 7.625 5.125  C 7.625 6.574747468305834  6.449747468305832 7.75  5 7.75  C 3.5502525316941673 7.75  2.375 6.574747468305834  2.375 5.125  L 2.375 2.875  Z M 6.874999999999998 2.874999999999999  C 6.874999999999998 1.8394660940672622  6.035533905932736 0.9999999999999998  4.999999999999999 0.9999999999999998  C 3.9644660940672622 0.9999999999999998  3.124999999999999 1.8394660940672622  3.125 2.875  L 3.124999999999999 5.124999999999998  C 3.124999999999999 6.160533905932736  3.9644660940672622 6.999999999999998  4.999999999999999 6.999999999999998  C 6.035533905932736 6.999999999999998  6.874999999999998 6.160533905932736  6.874999999999998 5.124999999999998  L 6.874999999999998 2.874999999999999  Z " fill-rule="nonzero" fill="rgba(255, 255, 255, 1)" stroke="none" transform="matrix(1 0 0 1 695 2901 )" class="fill" />
    <path d="M 5.375 9.233125  L 5.375 10  L 6.875 10  C 7.082106781186548 10  7.25 10.167893218813452  7.25 10.375  C 7.25 10.582106781186548  7.082106781186548 10.75  6.875 10.75  L 3.125 10.75  C 2.9178932188134525 10.75  2.75 10.582106781186548  2.75 10.375  C 2.75 10.167893218813452  2.9178932188134525 10  3.125 10  L 4.625 10  L 4.625 9.233125  C 2.5223750000000003 9.04375  0.875 7.276749999999999  0.875 5.125  C 0.875 4.917893218813452  1.0428932188134525 4.75  1.25 4.75  C 1.4571067811865475 4.75  1.625 4.917893218813452  1.625 5.125  C 1.6249999999999996 6.9889610306789285  3.1360389693210715 8.5  5 8.5  C 6.863961030678928 8.5  8.375 6.9889610306789285  8.375 5.124999999999999  C 8.375 4.917893218813452  8.542893218813452 4.75  8.75 4.75  C 8.957106781186548 4.75  9.125 4.917893218813452  9.125 5.125  C 9.125 7.276749999999999  7.477625 9.04375  5.375 9.233125  Z " stroke-width="0" stroke-dasharray="0" stroke="rgba(255, 255, 255, 0)" fill="none" transform="matrix(1 0 0 1 695 2901 )" class="stroke" mask="url(#Clip1575)" />
    <path d="M 2.375 2.875  C 2.375 1.4252525316941664  3.5502525316941673 0.25  5 0.25  C 6.449747468305832 0.25  7.625 1.4252525316941673  7.625 2.875  L 7.625 5.125  C 7.625 6.574747468305834  6.449747468305832 7.75  5 7.75  C 3.5502525316941673 7.75  2.375 6.574747468305834  2.375 5.125  L 2.375 2.875  Z " stroke-width="0" stroke-dasharray="0" stroke="rgba(255, 255, 255, 0)" fill="none" transform="matrix(1 0 0 1 695 2901 )" class="stroke" mask="url(#Clip1575)" />
    <path d="M 6.874999999999998 2.874999999999999  C 6.874999999999998 1.8394660940672622  6.035533905932736 0.9999999999999998  4.999999999999999 0.9999999999999998  C 3.9644660940672622 0.9999999999999998  3.124999999999999 1.8394660940672622  3.125 2.875  L 3.124999999999999 5.124999999999998  C 3.124999999999999 6.160533905932736  3.9644660940672622 6.999999999999998  4.999999999999999 6.999999999999998  C 6.035533905932736 6.999999999999998  6.874999999999998 6.160533905932736  6.874999999999998 5.124999999999998  L 6.874999999999998 2.874999999999999  Z " stroke-width="0" stroke-dasharray="0" stroke="rgba(255, 255, 255, 0)" fill="none" transform="matrix(1 0 0 1 695 2901 )" class="stroke" mask="url(#Clip1575)" />
  </g>
</svg>