<?xml version="1.0" encoding="utf-8"?>
<svg version="1.1" xmlns:xlink="http://www.w3.org/1999/xlink" width="22px" height="22px" xmlns="http://www.w3.org/2000/svg">
  <defs>
    <pattern id="BGPattern" patternUnits="userSpaceOnUse" alignment="0 0" imageRepeat="None" />
    <mask fill="white" id="Clip2729">
      <path d="M 20.066666679687497 10.5333333203125  L 17.4666666796875 13.0666666796875  L 16.5333333203125 12.133333320312499  L 19.133333320312495 9.599999999999998  C 20.9333333203125 7.733333320312496  20.9333333203125 4.799999999999999  19.066666679687494 2.9333333203124994  C 17.266666679687493 1.1333333203125004  14.266666679687496 1.1333333203125004  12.466666679687492 2.9333333203124994  L 9.866666679687494 5.466666679687501  L 8.933333320312496 4.533333320312501  L 11.533333320312495 2  C 13.999999999999993 -0.2666666796874999  17.799999999999997 -0.13333332031249867  20.066666679687497 2.2666666796875  C 22.266666679687496 4.600000000000001  22.266666679687496 8.200000000000003  20.066666679687497 10.5333333203125  Z M 10.666666679687498 19.866666679687498  C 9.533333359375 21.066666679687497  8 21.6666666796875  6.400000000000001 21.666666679687502  C 3.066666679687501 21.666666679687502  0.33333332031249974 18.933333359375002  0.33333332031249974 15.6  C 0.33333332031249974 14  1 12.4666666796875  2.1333333203124987 11.333333320312498  L 4.7333333203125 8.7333333203125  L 5.6666666796874985 9.666666679687502  L 3.066666679687499 12.266666679687496  C 1.1999999999999975 14.133333359374998  1.1999999999999975 17.133333359375  3.066666679687499 18.933333320312496  C 4.933333359375 20.799999999999997  7.933333359374998 20.799999999999997  9.733333320312497 18.933333320312496  L 12.333333320312498 16.333333320312498  L 13.266666679687498 17.266666679687496  L 10.666666679687498 19.866666679687498  Z M 8.600000000000001 9.400000000000002  L 3.1999999999999993 4.0000000000000036  L 4.133333320312499 3.066666679687504  L 9.5333333203125 8.466666679687503  L 8.600000000000001 9.400000000000002  Z M 18 18.800000000000004  L 12.600000000000001 13.400000000000004  L 13.5333333203125 12.466666679687503  L 18.9333333203125 17.866666679687505  L 18 18.800000000000004  Z " fill-rule="evenodd" />
    </mask>
  </defs>
  <g transform="matrix(1 0 0 1 -488 -1426 )">
    <path d="M 20.066666679687497 10.5333333203125  L 17.4666666796875 13.0666666796875  L 16.5333333203125 12.133333320312499  L 19.133333320312495 9.599999999999998  C 20.9333333203125 7.733333320312496  20.9333333203125 4.799999999999999  19.066666679687494 2.9333333203124994  C 17.266666679687493 1.1333333203125004  14.266666679687496 1.1333333203125004  12.466666679687492 2.9333333203124994  L 9.866666679687494 5.466666679687501  L 8.933333320312496 4.533333320312501  L 11.533333320312495 2  C 13.999999999999993 -0.2666666796874999  17.799999999999997 -0.13333332031249867  20.066666679687497 2.2666666796875  C 22.266666679687496 4.600000000000001  22.266666679687496 8.200000000000003  20.066666679687497 10.5333333203125  Z M 10.666666679687498 19.866666679687498  C 9.533333359375 21.066666679687497  8 21.6666666796875  6.400000000000001 21.666666679687502  C 3.066666679687501 21.666666679687502  0.33333332031249974 18.933333359375002  0.33333332031249974 15.6  C 0.33333332031249974 14  1 12.4666666796875  2.1333333203124987 11.333333320312498  L 4.7333333203125 8.7333333203125  L 5.6666666796874985 9.666666679687502  L 3.066666679687499 12.266666679687496  C 1.1999999999999975 14.133333359374998  1.1999999999999975 17.133333359375  3.066666679687499 18.933333320312496  C 4.933333359375 20.799999999999997  7.933333359374998 20.799999999999997  9.733333320312497 18.933333320312496  L 12.333333320312498 16.333333320312498  L 13.266666679687498 17.266666679687496  L 10.666666679687498 19.866666679687498  Z M 8.600000000000001 9.400000000000002  L 3.1999999999999993 4.0000000000000036  L 4.133333320312499 3.066666679687504  L 9.5333333203125 8.466666679687503  L 8.600000000000001 9.400000000000002  Z M 18 18.800000000000004  L 12.600000000000001 13.400000000000004  L 13.5333333203125 12.466666679687503  L 18.9333333203125 17.866666679687505  L 18 18.800000000000004  Z " fill-rule="nonzero" fill="rgba(255, 255, 255, 1)" stroke="none" transform="matrix(1 0 0 1 488 1426 )" class="fill" />
    <path d="M 20.066666679687497 10.5333333203125  L 17.4666666796875 13.0666666796875  L 16.5333333203125 12.133333320312499  L 19.133333320312495 9.599999999999998  C 20.9333333203125 7.733333320312496  20.9333333203125 4.799999999999999  19.066666679687494 2.9333333203124994  C 17.266666679687493 1.1333333203125004  14.266666679687496 1.1333333203125004  12.466666679687492 2.9333333203124994  L 9.866666679687494 5.466666679687501  L 8.933333320312496 4.533333320312501  L 11.533333320312495 2  C 13.999999999999993 -0.2666666796874999  17.799999999999997 -0.13333332031249867  20.066666679687497 2.2666666796875  C 22.266666679687496 4.600000000000001  22.266666679687496 8.200000000000003  20.066666679687497 10.5333333203125  Z " stroke-width="0" stroke-dasharray="0" stroke="rgba(255, 255, 255, 0)" fill="none" transform="matrix(1 0 0 1 488 1426 )" class="stroke" mask="url(#Clip2729)" />
    <path d="M 10.666666679687498 19.866666679687498  C 9.533333359375 21.066666679687497  8 21.6666666796875  6.400000000000001 21.666666679687502  C 3.066666679687501 21.666666679687502  0.33333332031249974 18.933333359375002  0.33333332031249974 15.6  C 0.33333332031249974 14  1 12.4666666796875  2.1333333203124987 11.333333320312498  L 4.7333333203125 8.7333333203125  L 5.6666666796874985 9.666666679687502  L 3.066666679687499 12.266666679687496  C 1.1999999999999975 14.133333359374998  1.1999999999999975 17.133333359375  3.066666679687499 18.933333320312496  C 4.933333359375 20.799999999999997  7.933333359374998 20.799999999999997  9.733333320312497 18.933333320312496  L 12.333333320312498 16.333333320312498  L 13.266666679687498 17.266666679687496  L 10.666666679687498 19.866666679687498  Z " stroke-width="0" stroke-dasharray="0" stroke="rgba(255, 255, 255, 0)" fill="none" transform="matrix(1 0 0 1 488 1426 )" class="stroke" mask="url(#Clip2729)" />
    <path d="M 8.600000000000001 9.400000000000002  L 3.1999999999999993 4.0000000000000036  L 4.133333320312499 3.066666679687504  L 9.5333333203125 8.466666679687503  L 8.600000000000001 9.400000000000002  Z " stroke-width="0" stroke-dasharray="0" stroke="rgba(255, 255, 255, 0)" fill="none" transform="matrix(1 0 0 1 488 1426 )" class="stroke" mask="url(#Clip2729)" />
    <path d="M 18 18.800000000000004  L 12.600000000000001 13.400000000000004  L 13.5333333203125 12.466666679687503  L 18.9333333203125 17.866666679687505  L 18 18.800000000000004  Z " stroke-width="0" stroke-dasharray="0" stroke="rgba(255, 255, 255, 0)" fill="none" transform="matrix(1 0 0 1 488 1426 )" class="stroke" mask="url(#Clip2729)" />
  </g>
</svg>