<?xml version="1.0" encoding="utf-8"?>
<svg version="1.1" xmlns:xlink="http://www.w3.org/1999/xlink" width="18px" height="18px" xmlns="http://www.w3.org/2000/svg">
  <defs>
    <pattern id="BGPattern" patternUnits="userSpaceOnUse" alignment="0 0" imageRepeat="None" />
    <mask fill="white" id="Clip618">
      <path d="M 17.777189062499996 14.395401914062496  C 17.7771491015625 13.7879337890625  17.5181646875 13.205968359375  17.06655087890625 12.798704472656249  C 16.890630156249998 12.64007203125  16.613038359375 12.439907734374998  16.2414902734375 12.203847792968748  C 16.12692794921875 12.131077128906249  16.059493671875 12.006361679687501  16.0610526171875 11.870273964843747  L 16.061672187499997 11.820667597656248  C 16.073584101562496 10.809313300781248  16.09155193359375 9.280929531249999  15.823553632812494 7.728022402343749  C 15.497654589843748 5.8397426562499986  14.819214570312496 4.363043867187498  13.807100781249996 3.338958183593748  C 13.009641464843746 2.532025292968748  12.001744804687497 1.997667578124998  10.798020937499995 1.7409416406249978  C 10.738321406249996 1.3679944921874978  10.559782460937495 1.0311428906249978  10.280112070312496 0.7727780468749976  C 9.945438984374995 0.46362765624999747  9.495623945312495 0.2933630859374976  9.013570781249996 0.2933630859374976  C 8.531557578124996 0.2933630859374976  8.081742558593746 0.46364763671874765  7.747069472656246 0.7727780468749976  C 7.467479042968746 1.0310229492187477  7.288960078124996 1.3677746484374977  7.229200585937496 1.7406018554687477  C 6.031092910156246 1.995888769531248  5.030351406249997 2.526209218749998  4.241446289062496 3.326626523437498  C 1.9533576171874971 5.648232480468748  2.0109785546874965 9.616681874999998  2.041937558593747 11.748656386718746  L 2.043616425781247 11.865317285156246  C 2.0455551171874973 12.001325078124996  1.9750828906249973 12.130277636718745  1.8596811328124971 12.201869101562497  C 1.4806980859374974 12.436989687499995  1.1959311523437473 12.634515761718745  1.0132949804687472 12.788911093749995  C 0.5282638281249972 13.198953085937497  0.2500724414062472 13.797667148437498  0.2500724414062472 14.431537402343746  C 0.2500724414062472 14.985341914062497  0.7006069726562472 15.435876464843744  1.2544115039062476 15.435876464843744  L 6.669240253906247 15.435876464843744  C 6.679793105468748 16.719745996093746  7.727342851562497 17.760980039062495  9.013630761718748 17.760980039062495  C 10.299918671875002 17.760980039062495  11.347468417968749 16.719726015624996  11.358021269531248 15.435876464843744  L 16.73671451171875 15.435876464843744  C 17.31044552734375 15.435876464843744  17.777189062499996 14.969112929687498  17.777189062499996 14.395401914062496  Z M 8.08414095703125 1.60847146484375  C 8.2445122265625 1.2872292578125002  8.591516953125 1.074913203125  9.0135508203125 1.074913203125  C 9.29845765625 1.074913203125  9.559900390625002 1.17150771484375  9.74977166015625 1.34688880859375  C 9.83285533203125 1.42363677734375  9.898690683593749 1.5117170507812503  9.94645830078125 1.6089711132812496  C 9.64582212890625 1.5786916406249998  9.334872949218749 1.5633820312499997  9.01357080078125 1.5633820312499997  C 8.69334791015625 1.5633820312499997  8.383557949218751 1.5785317578124998  8.08414095703125 1.60847146484375  Z M 10.576191328124999 15.435856484375002  C 10.56563849609375 16.2887382421875  9.86891087890625 16.9794099609375  9.013590781249999 16.9794099609375  C 8.158270683593749 16.9794099609375  7.46154306640625 16.2887182421875  7.450990214843749 15.435856484375002  L 10.576191328124999 15.435856484375002  Z M 16.995598964843747 14.39538197265625  C 16.99561896484375 14.53814513671875  16.879437734375003 14.654306386718751  16.73667453125 14.654306386718751  L 1.2543515429687497 14.654306386718751  C 1.1315148242187498 14.654306386718751  1.03156259765625 14.554354160156247  1.03156259765625 14.43151744140625  C 1.03156259765625 14.02815091796875  1.20878244140625 13.646949375  1.5178129296874996 13.385746464843749  C 1.6692302734374995 13.257753242187498  1.9299135351562495 13.078015097656248  2.2717017968749995 12.86593888671875  C 2.6188264453125 12.65058490234375  2.8308426953124997 12.262907734375  2.8250466210937493 11.85424482421875  L 2.8233677539062496 11.7373241015625  C 2.7940676171874994 9.719612109375  2.7395245898437497 5.963898476562499  4.79806890625 3.875254589843749  C 5.7988503710937485 2.8598230468749994  7.217168749999999 2.3449321484374996  9.013550800781248 2.3449321484374996  C 10.813330546874997 2.3449321484374996  12.239083886718747 2.864200078124999  13.251197675781249 3.8883457226562497  C 14.148829082031249 4.79658994140625  14.755177968749997 6.133203710937499  15.05337580078125 7.860972285156251  C 15.309202343749998 9.34332724609375  15.291734199218748 10.828640214843752  15.280162031249997 11.811493828125  L 15.279582421874998 11.86114017578125  C 15.274765683593749 12.269783124999998  15.477688105468747 12.6444890625  15.822314453125 12.86352056640625  C 16.147633886718747 13.070240410156249  16.40366029296875 13.25333626953125  16.54314572265625 13.379110996093749  C 16.83069076171875 13.6384151953125  16.995598964843747 14.00884404296875  16.995598964843747 14.39538197265625  Z " fill-rule="evenodd" />
    </mask>
  </defs>
  <g transform="matrix(1 0 0 1 -754 -1042 )">
    <path d="M 17.777189062499996 14.395401914062496  C 17.7771491015625 13.7879337890625  17.5181646875 13.205968359375  17.06655087890625 12.798704472656249  C 16.890630156249998 12.64007203125  16.613038359375 12.439907734374998  16.2414902734375 12.203847792968748  C 16.12692794921875 12.131077128906249  16.059493671875 12.006361679687501  16.0610526171875 11.870273964843747  L 16.061672187499997 11.820667597656248  C 16.073584101562496 10.809313300781248  16.09155193359375 9.280929531249999  15.823553632812494 7.728022402343749  C 15.497654589843748 5.8397426562499986  14.819214570312496 4.363043867187498  13.807100781249996 3.338958183593748  C 13.009641464843746 2.532025292968748  12.001744804687497 1.997667578124998  10.798020937499995 1.7409416406249978  C 10.738321406249996 1.3679944921874978  10.559782460937495 1.0311428906249978  10.280112070312496 0.7727780468749976  C 9.945438984374995 0.46362765624999747  9.495623945312495 0.2933630859374976  9.013570781249996 0.2933630859374976  C 8.531557578124996 0.2933630859374976  8.081742558593746 0.46364763671874765  7.747069472656246 0.7727780468749976  C 7.467479042968746 1.0310229492187477  7.288960078124996 1.3677746484374977  7.229200585937496 1.7406018554687477  C 6.031092910156246 1.995888769531248  5.030351406249997 2.526209218749998  4.241446289062496 3.326626523437498  C 1.9533576171874971 5.648232480468748  2.0109785546874965 9.616681874999998  2.041937558593747 11.748656386718746  L 2.043616425781247 11.865317285156246  C 2.0455551171874973 12.001325078124996  1.9750828906249973 12.130277636718745  1.8596811328124971 12.201869101562497  C 1.4806980859374974 12.436989687499995  1.1959311523437473 12.634515761718745  1.0132949804687472 12.788911093749995  C 0.5282638281249972 13.198953085937497  0.2500724414062472 13.797667148437498  0.2500724414062472 14.431537402343746  C 0.2500724414062472 14.985341914062497  0.7006069726562472 15.435876464843744  1.2544115039062476 15.435876464843744  L 6.669240253906247 15.435876464843744  C 6.679793105468748 16.719745996093746  7.727342851562497 17.760980039062495  9.013630761718748 17.760980039062495  C 10.299918671875002 17.760980039062495  11.347468417968749 16.719726015624996  11.358021269531248 15.435876464843744  L 16.73671451171875 15.435876464843744  C 17.31044552734375 15.435876464843744  17.777189062499996 14.969112929687498  17.777189062499996 14.395401914062496  Z M 8.08414095703125 1.60847146484375  C 8.2445122265625 1.2872292578125002  8.591516953125 1.074913203125  9.0135508203125 1.074913203125  C 9.29845765625 1.074913203125  9.559900390625002 1.17150771484375  9.74977166015625 1.34688880859375  C 9.83285533203125 1.42363677734375  9.898690683593749 1.5117170507812503  9.94645830078125 1.6089711132812496  C 9.64582212890625 1.5786916406249998  9.334872949218749 1.5633820312499997  9.01357080078125 1.5633820312499997  C 8.69334791015625 1.5633820312499997  8.383557949218751 1.5785317578124998  8.08414095703125 1.60847146484375  Z M 10.576191328124999 15.435856484375002  C 10.56563849609375 16.2887382421875  9.86891087890625 16.9794099609375  9.013590781249999 16.9794099609375  C 8.158270683593749 16.9794099609375  7.46154306640625 16.2887182421875  7.450990214843749 15.435856484375002  L 10.576191328124999 15.435856484375002  Z M 16.995598964843747 14.39538197265625  C 16.99561896484375 14.53814513671875  16.879437734375003 14.654306386718751  16.73667453125 14.654306386718751  L 1.2543515429687497 14.654306386718751  C 1.1315148242187498 14.654306386718751  1.03156259765625 14.554354160156247  1.03156259765625 14.43151744140625  C 1.03156259765625 14.02815091796875  1.20878244140625 13.646949375  1.5178129296874996 13.385746464843749  C 1.6692302734374995 13.257753242187498  1.9299135351562495 13.078015097656248  2.2717017968749995 12.86593888671875  C 2.6188264453125 12.65058490234375  2.8308426953124997 12.262907734375  2.8250466210937493 11.85424482421875  L 2.8233677539062496 11.7373241015625  C 2.7940676171874994 9.719612109375  2.7395245898437497 5.963898476562499  4.79806890625 3.875254589843749  C 5.7988503710937485 2.8598230468749994  7.217168749999999 2.3449321484374996  9.013550800781248 2.3449321484374996  C 10.813330546874997 2.3449321484374996  12.239083886718747 2.864200078124999  13.251197675781249 3.8883457226562497  C 14.148829082031249 4.79658994140625  14.755177968749997 6.133203710937499  15.05337580078125 7.860972285156251  C 15.309202343749998 9.34332724609375  15.291734199218748 10.828640214843752  15.280162031249997 11.811493828125  L 15.279582421874998 11.86114017578125  C 15.274765683593749 12.269783124999998  15.477688105468747 12.6444890625  15.822314453125 12.86352056640625  C 16.147633886718747 13.070240410156249  16.40366029296875 13.25333626953125  16.54314572265625 13.379110996093749  C 16.83069076171875 13.6384151953125  16.995598964843747 14.00884404296875  16.995598964843747 14.39538197265625  Z " fill-rule="nonzero" fill="rgba(255, 255, 255, 1)" stroke="none" transform="matrix(1 0 0 1 754 1042 )" class="fill" />
    <path d="M 17.777189062499996 14.395401914062496  C 17.7771491015625 13.7879337890625  17.5181646875 13.205968359375  17.06655087890625 12.798704472656249  C 16.890630156249998 12.64007203125  16.613038359375 12.439907734374998  16.2414902734375 12.203847792968748  C 16.12692794921875 12.131077128906249  16.059493671875 12.006361679687501  16.0610526171875 11.870273964843747  L 16.061672187499997 11.820667597656248  C 16.073584101562496 10.809313300781248  16.09155193359375 9.280929531249999  15.823553632812494 7.728022402343749  C 15.497654589843748 5.8397426562499986  14.819214570312496 4.363043867187498  13.807100781249996 3.338958183593748  C 13.009641464843746 2.532025292968748  12.001744804687497 1.997667578124998  10.798020937499995 1.7409416406249978  C 10.738321406249996 1.3679944921874978  10.559782460937495 1.0311428906249978  10.280112070312496 0.7727780468749976  C 9.945438984374995 0.46362765624999747  9.495623945312495 0.2933630859374976  9.013570781249996 0.2933630859374976  C 8.531557578124996 0.2933630859374976  8.081742558593746 0.46364763671874765  7.747069472656246 0.7727780468749976  C 7.467479042968746 1.0310229492187477  7.288960078124996 1.3677746484374977  7.229200585937496 1.7406018554687477  C 6.031092910156246 1.995888769531248  5.030351406249997 2.526209218749998  4.241446289062496 3.326626523437498  C 1.9533576171874971 5.648232480468748  2.0109785546874965 9.616681874999998  2.041937558593747 11.748656386718746  L 2.043616425781247 11.865317285156246  C 2.0455551171874973 12.001325078124996  1.9750828906249973 12.130277636718745  1.8596811328124971 12.201869101562497  C 1.4806980859374974 12.436989687499995  1.1959311523437473 12.634515761718745  1.0132949804687472 12.788911093749995  C 0.5282638281249972 13.198953085937497  0.2500724414062472 13.797667148437498  0.2500724414062472 14.431537402343746  C 0.2500724414062472 14.985341914062497  0.7006069726562472 15.435876464843744  1.2544115039062476 15.435876464843744  L 6.669240253906247 15.435876464843744  C 6.679793105468748 16.719745996093746  7.727342851562497 17.760980039062495  9.013630761718748 17.760980039062495  C 10.299918671875002 17.760980039062495  11.347468417968749 16.719726015624996  11.358021269531248 15.435876464843744  L 16.73671451171875 15.435876464843744  C 17.31044552734375 15.435876464843744  17.777189062499996 14.969112929687498  17.777189062499996 14.395401914062496  Z " stroke-width="0" stroke-dasharray="0" stroke="rgba(255, 255, 255, 0)" fill="none" transform="matrix(1 0 0 1 754 1042 )" class="stroke" mask="url(#Clip618)" />
    <path d="M 8.08414095703125 1.60847146484375  C 8.2445122265625 1.2872292578125002  8.591516953125 1.074913203125  9.0135508203125 1.074913203125  C 9.29845765625 1.074913203125  9.559900390625002 1.17150771484375  9.74977166015625 1.34688880859375  C 9.83285533203125 1.42363677734375  9.898690683593749 1.5117170507812503  9.94645830078125 1.6089711132812496  C 9.64582212890625 1.5786916406249998  9.334872949218749 1.5633820312499997  9.01357080078125 1.5633820312499997  C 8.69334791015625 1.5633820312499997  8.383557949218751 1.5785317578124998  8.08414095703125 1.60847146484375  Z " stroke-width="0" stroke-dasharray="0" stroke="rgba(255, 255, 255, 0)" fill="none" transform="matrix(1 0 0 1 754 1042 )" class="stroke" mask="url(#Clip618)" />
    <path d="M 10.576191328124999 15.435856484375002  C 10.56563849609375 16.2887382421875  9.86891087890625 16.9794099609375  9.013590781249999 16.9794099609375  C 8.158270683593749 16.9794099609375  7.46154306640625 16.2887182421875  7.450990214843749 15.435856484375002  L 10.576191328124999 15.435856484375002  Z " stroke-width="0" stroke-dasharray="0" stroke="rgba(255, 255, 255, 0)" fill="none" transform="matrix(1 0 0 1 754 1042 )" class="stroke" mask="url(#Clip618)" />
    <path d="M 16.995598964843747 14.39538197265625  C 16.99561896484375 14.53814513671875  16.879437734375003 14.654306386718751  16.73667453125 14.654306386718751  L 1.2543515429687497 14.654306386718751  C 1.1315148242187498 14.654306386718751  1.03156259765625 14.554354160156247  1.03156259765625 14.43151744140625  C 1.03156259765625 14.02815091796875  1.20878244140625 13.646949375  1.5178129296874996 13.385746464843749  C 1.6692302734374995 13.257753242187498  1.9299135351562495 13.078015097656248  2.2717017968749995 12.86593888671875  C 2.6188264453125 12.65058490234375  2.8308426953124997 12.262907734375  2.8250466210937493 11.85424482421875  L 2.8233677539062496 11.7373241015625  C 2.7940676171874994 9.719612109375  2.7395245898437497 5.963898476562499  4.79806890625 3.875254589843749  C 5.7988503710937485 2.8598230468749994  7.217168749999999 2.3449321484374996  9.013550800781248 2.3449321484374996  C 10.813330546874997 2.3449321484374996  12.239083886718747 2.864200078124999  13.251197675781249 3.8883457226562497  C 14.148829082031249 4.79658994140625  14.755177968749997 6.133203710937499  15.05337580078125 7.860972285156251  C 15.309202343749998 9.34332724609375  15.291734199218748 10.828640214843752  15.280162031249997 11.811493828125  L 15.279582421874998 11.86114017578125  C 15.274765683593749 12.269783124999998  15.477688105468747 12.6444890625  15.822314453125 12.86352056640625  C 16.147633886718747 13.070240410156249  16.40366029296875 13.25333626953125  16.54314572265625 13.379110996093749  C 16.83069076171875 13.6384151953125  16.995598964843747 14.00884404296875  16.995598964843747 14.39538197265625  Z " stroke-width="0" stroke-dasharray="0" stroke="rgba(255, 255, 255, 0)" fill="none" transform="matrix(1 0 0 1 754 1042 )" class="stroke" mask="url(#Clip618)" />
  </g>
</svg>