<?xml version="1.0" encoding="utf-8"?>
<svg version="1.1" xmlns:xlink="http://www.w3.org/1999/xlink" width="14px" height="14px" xmlns="http://www.w3.org/2000/svg">
  <defs>
    <pattern id="BGPattern" patternUnits="userSpaceOnUse" alignment="0 0" imageRepeat="None" />
    <mask fill="white" id="Clip4918">
      <path d="M 7 5.815039062500006  L 11.73982421875 1.075214843750004  C 12.06705078125 0.748007812499992  12.597558593750001 0.748007812499992  12.92478515625 1.075214843750004  C 13.2519921875 1.4024414062500057  13.2519921875 1.9329492187499966  12.92478515625 2.2601757812499983  L 8.18494140625 7  L 12.92478515625 11.739824218750002  C 13.2519921875 12.067050781250003  13.2519921875 12.597558593749994  12.92478515625 12.924785156249996  C 12.597558593749998 13.251992187500008  12.06705078125 13.251992187500008  11.73982421875 12.924785156249996  L 7 8.184941406250005  L 2.26017578125 12.9248046875  C 1.932949218750001 13.252011718749998  1.4024414062500004 13.252011718749998  1.0752148437500004 12.9248046875  C 0.7480078125000005 12.597578124999998  0.7480078125000005 12.067070312499993  1.0752148437500004 11.739843750000006  L 5.815058593750001 7  L 1.0751953125 2.2601757812499983  C 0.7479882812499996 1.9329492187499966  0.7479882812499996 1.4024414062500057  1.0751953125 1.075214843750004  C 1.402421875 0.7480078125000063  1.9329296874999995 0.7480078125000063  2.2601562499999996 1.075214843750004  L 7 5.8150585937499955  Z " fill-rule="evenodd" />
    </mask>
  </defs>
  <g transform="matrix(1 0 0 1 -541 -383 )">
    <path d="M 7 5.815039062500006  L 11.73982421875 1.075214843750004  C 12.06705078125 0.748007812499992  12.597558593750001 0.748007812499992  12.92478515625 1.075214843750004  C 13.2519921875 1.4024414062500057  13.2519921875 1.9329492187499966  12.92478515625 2.2601757812499983  L 8.18494140625 7  L 12.92478515625 11.739824218750002  C 13.2519921875 12.067050781250003  13.2519921875 12.597558593749994  12.92478515625 12.924785156249996  C 12.597558593749998 13.251992187500008  12.06705078125 13.251992187500008  11.73982421875 12.924785156249996  L 7 8.184941406250005  L 2.26017578125 12.9248046875  C 1.932949218750001 13.252011718749998  1.4024414062500004 13.252011718749998  1.0752148437500004 12.9248046875  C 0.7480078125000005 12.597578124999998  0.7480078125000005 12.067070312499993  1.0752148437500004 11.739843750000006  L 5.815058593750001 7  L 1.0751953125 2.2601757812499983  C 0.7479882812499996 1.9329492187499966  0.7479882812499996 1.4024414062500057  1.0751953125 1.075214843750004  C 1.402421875 0.7480078125000063  1.9329296874999995 0.7480078125000063  2.2601562499999996 1.075214843750004  L 7 5.8150585937499955  Z " fill-rule="nonzero" fill="rgba(255, 255, 255, 1)" stroke="none" transform="matrix(1 0 0 1 541 383 )" class="fill" />
    <path d="M 7 5.815039062500006  L 11.73982421875 1.075214843750004  C 12.06705078125 0.748007812499992  12.597558593750001 0.748007812499992  12.92478515625 1.075214843750004  C 13.2519921875 1.4024414062500057  13.2519921875 1.9329492187499966  12.92478515625 2.2601757812499983  L 8.18494140625 7  L 12.92478515625 11.739824218750002  C 13.2519921875 12.067050781250003  13.2519921875 12.597558593749994  12.92478515625 12.924785156249996  C 12.597558593749998 13.251992187500008  12.06705078125 13.251992187500008  11.73982421875 12.924785156249996  L 7 8.184941406250005  L 2.26017578125 12.9248046875  C 1.932949218750001 13.252011718749998  1.4024414062500004 13.252011718749998  1.0752148437500004 12.9248046875  C 0.7480078125000005 12.597578124999998  0.7480078125000005 12.067070312499993  1.0752148437500004 11.739843750000006  L 5.815058593750001 7  L 1.0751953125 2.2601757812499983  C 0.7479882812499996 1.9329492187499966  0.7479882812499996 1.4024414062500057  1.0751953125 1.075214843750004  C 1.402421875 0.7480078125000063  1.9329296874999995 0.7480078125000063  2.2601562499999996 1.075214843750004  L 7 5.8150585937499955  Z " stroke-width="0" stroke-dasharray="0" stroke="rgba(255, 255, 255, 0)" fill="none" transform="matrix(1 0 0 1 541 383 )" class="stroke" mask="url(#Clip4918)" />
  </g>
</svg>