<?xml version="1.0" encoding="utf-8"?>
<svg version="1.1" xmlns:xlink="http://www.w3.org/1999/xlink" width="37px" height="35px" xmlns="http://www.w3.org/2000/svg">
  <defs>
    <pattern id="BGPattern" patternUnits="userSpaceOnUse" alignment="0 0" imageRepeat="None" />
    <mask fill="white" id="Clip6385">
      <path d="M 0 17.5  C 0 7.699999999999999  8.139999999999999 0  18.5 0  C 28.86 0  37 7.699999999999999  37 17.5  C 37 27.3  28.86 35  18.5 35  C 8.139999999999999 35  0 27.3  0 17.5  Z " fill-rule="evenodd" />
    </mask>
  </defs>
  <g transform="matrix(1 0 0 1 -51 -240 )">
    <path d="M 0 17.5  C 0 7.699999999999999  8.139999999999999 0  18.5 0  C 28.86 0  37 7.699999999999999  37 17.5  C 37 27.3  28.86 35  18.5 35  C 8.139999999999999 35  0 27.3  0 17.5  Z " fill-rule="nonzero" fill="rgba(22, 155, 213, 0)" stroke="none" transform="matrix(1 0 0 1 51 240 )" class="fill" />
    <path d="M 0 17.5  C 0 7.699999999999999  8.139999999999999 0  18.5 0  C 28.86 0  37 7.699999999999999  37 17.5  C 37 27.3  28.86 35  18.5 35  C 8.139999999999999 35  0 27.3  0 17.5  Z " stroke-width="0" stroke-dasharray="0" stroke="rgba(255, 255, 255, 1)" fill="none" transform="matrix(1 0 0 1 51 240 )" class="stroke" mask="url(#Clip6385)" />
  </g>
</svg>