<?xml version="1.0" encoding="utf-8"?>
<svg version="1.1" xmlns:xlink="http://www.w3.org/1999/xlink" width="44px" height="35px" xmlns="http://www.w3.org/2000/svg">
  <defs>
    <pattern id="BGPattern" patternUnits="userSpaceOnUse" alignment="0 0" imageRepeat="None" />
    <mask fill="white" id="Clip8645">
      <path d="M 0 17.5  C 0 7.699999999999999  9.68 0  22 0  C 34.32 0  44 7.699999999999999  44 17.5  C 44 27.3  34.32 35  22 35  C 9.68 35  0 27.3  0 17.5  Z " fill-rule="evenodd" />
    </mask>
  </defs>
  <g transform="matrix(1 0 0 1 -97 -240 )">
    <path d="M 0 17.5  C 0 7.699999999999999  9.68 0  22 0  C 34.32 0  44 7.699999999999999  44 17.5  C 44 27.3  34.32 35  22 35  C 9.68 35  0 27.3  0 17.5  Z " fill-rule="nonzero" fill="rgba(22, 155, 213, 0)" stroke="none" transform="matrix(1 0 0 1 97 240 )" class="fill" />
    <path d="M 0 17.5  C 0 7.699999999999999  9.68 0  22 0  C 34.32 0  44 7.699999999999999  44 17.5  C 44 27.3  34.32 35  22 35  C 9.68 35  0 27.3  0 17.5  Z " stroke-width="0" stroke-dasharray="0" stroke="rgba(255, 255, 255, 1)" fill="none" transform="matrix(1 0 0 1 97 240 )" class="stroke" mask="url(#Clip8645)" />
  </g>
</svg>