<?xml version="1.0" encoding="utf-8"?>
<svg version="1.1" xmlns:xlink="http://www.w3.org/1999/xlink" width="165px" height="205px" xmlns="http://www.w3.org/2000/svg">
  <defs>
    <linearGradient gradientUnits="userSpaceOnUse" x1="82.5" y1="0" x2="82.5" y2="205" id="LinearGradient8721">
      <stop id="Stop8722" stop-color="#000000" stop-opacity="0.8980392156862745" offset="0" />
      <stop id="Stop8723" stop-color="#333333" stop-opacity="0.8" offset="1" />
    </linearGradient>
    <pattern id="BGPattern" patternUnits="userSpaceOnUse" alignment="0 0" imageRepeat="None" />
    <mask fill="white" id="Clip8724">
      <path d="M 0 200  L 0 0  L 165 0  L 165 205  L 5 205  C 2.1999999999999997 205  0 202.8  0 200  Z " fill-rule="evenodd" />
    </mask>
  </defs>
  <g transform="matrix(1 0 0 1 -15 -264 )">
    <path d="M 0 200  L 0 0  L 165 0  L 165 205  L 5 205  C 2.1999999999999997 205  0 202.8  0 200  Z " fill-rule="nonzero" fill="url(#LinearGradient8721)" stroke="none" transform="matrix(1 0 0 1 15 264 )" class="fill" />
    <path d="M 0 200  L 0 0  L 165 0  L 165 205  L 5 205  C 2.1999999999999997 205  0 202.8  0 200  Z " stroke-width="0" stroke-dasharray="0" stroke="rgba(121, 121, 121, 1)" fill="none" transform="matrix(1 0 0 1 15 264 )" class="stroke" mask="url(#Clip8724)" />
  </g>
</svg>