<?xml version="1.0" encoding="utf-8"?>
<svg version="1.1" xmlns:xlink="http://www.w3.org/1999/xlink" width="330px" height="300px" xmlns="http://www.w3.org/2000/svg">
  <defs>
    <linearGradient gradientUnits="userSpaceOnUse" x1="165" y1="0" x2="165" y2="300" id="LinearGradient11770">
      <stop id="Stop11771" stop-color="#333333" offset="0" />
      <stop id="Stop11772" stop-color="#333333" stop-opacity="0" offset="1" />
    </linearGradient>
    <pattern id="BGPattern" patternUnits="userSpaceOnUse" alignment="0 0" imageRepeat="None" />
    <mask fill="white" id="Clip11773">
      <path d="M 0 295  L 0 5  C 0 2.1999999999999997  2.1999999999999997 0  5 0  L 325 0  C 327.8 0  330 2.1999999999999997  330 5  L 330 295  C 330 297.8  327.8 300  325 300  L 5 300  C 2.1999999999999997 300  0 297.8  0 295  Z " fill-rule="evenodd" />
    </mask>
  </defs>
  <g transform="matrix(1 0 0 1 -15 -215 )">
    <path d="M 0 295  L 0 5  C 0 2.1999999999999997  2.1999999999999997 0  5 0  L 325 0  C 327.8 0  330 2.1999999999999997  330 5  L 330 295  C 330 297.8  327.8 300  325 300  L 5 300  C 2.1999999999999997 300  0 297.8  0 295  Z " fill-rule="nonzero" fill="url(#LinearGradient11770)" stroke="none" transform="matrix(1 0 0 1 15 215 )" class="fill" />
    <path d="M 0 295  L 0 5  C 0 2.1999999999999997  2.1999999999999997 0  5 0  L 325 0  C 327.8 0  330 2.1999999999999997  330 5  L 330 295  C 330 297.8  327.8 300  325 300  L 5 300  C 2.1999999999999997 300  0 297.8  0 295  Z " stroke-width="0" stroke-dasharray="0" stroke="rgba(121, 121, 121, 1)" fill="none" transform="matrix(1 0 0 1 15 215 )" class="stroke" mask="url(#Clip11773)" />
  </g>
</svg>