<?xml version="1.0" encoding="utf-8"?>
<svg version="1.1" xmlns:xlink="http://www.w3.org/1999/xlink" width="348px" height="50px" xmlns="http://www.w3.org/2000/svg">
  <defs>
    <linearGradient gradientUnits="userSpaceOnUse" x1="0" y1="25" x2="348" y2="25" id="LinearGradient7104">
      <stop id="Stop7105" stop-color="#d9001b" offset="0" />
      <stop id="Stop7106" stop-color="#02a7f0" offset="1" />
    </linearGradient>
    <pattern id="BGPattern" patternUnits="userSpaceOnUse" alignment="0 0" imageRepeat="None" />
    <mask fill="white" id="Clip7107">
      <path d="M 0 45  L 0 5  C 0 2.1999999999999997  2.1999999999999997 0  5 0  L 343 0  C 345.8 0  348 2.1999999999999997  348 5  L 348 45  C 348 47.8  345.8 50  343 50  L 5 50  C 2.1999999999999997 50  0 47.8  0 45  Z " fill-rule="evenodd" />
    </mask>
  </defs>
  <g transform="matrix(1 0 0 1 -7 -83 )">
    <path d="M 0 45  L 0 5  C 0 2.1999999999999997  2.1999999999999997 0  5 0  L 343 0  C 345.8 0  348 2.1999999999999997  348 5  L 348 45  C 348 47.8  345.8 50  343 50  L 5 50  C 2.1999999999999997 50  0 47.8  0 45  Z " fill-rule="nonzero" fill="url(#LinearGradient7104)" stroke="none" transform="matrix(1 0 0 1 7 83 )" class="fill" />
    <path d="M 0 45  L 0 5  C 0 2.1999999999999997  2.1999999999999997 0  5 0  L 343 0  C 345.8 0  348 2.1999999999999997  348 5  L 348 45  C 348 47.8  345.8 50  343 50  L 5 50  C 2.1999999999999997 50  0 47.8  0 45  Z " stroke-width="0" stroke-dasharray="0" stroke="rgba(121, 121, 121, 1)" fill="none" transform="matrix(1 0 0 1 7 83 )" class="stroke" mask="url(#Clip7107)" />
  </g>
</svg>