<?xml version="1.0" encoding="utf-8"?>
<svg version="1.1" xmlns:xlink="http://www.w3.org/1999/xlink" width="42px" height="34px" xmlns="http://www.w3.org/2000/svg">
  <defs>
    <pattern id="BGPattern" patternUnits="userSpaceOnUse" alignment="0 0" imageRepeat="None" />
    <mask fill="white" id="Clip1492">
      <path d="M 13.370294047424366 30.915302481596655  C 13.446169829925813 30.915302481596655  13.520893919905717 30.933862152681556  13.587952019623877 30.969363499591168  C 18.368056091578087 33.5003351103843  24.13599254292723 33.44871110384301  28.907725134914145 30.694035453802115  C 33.64597190515127 27.95842812755518  36.56854184791496 23.03740444807849  36.80201259198692 17.671298119378577  C 36.81564858986243 17.42479830760989  37.01950707500358 17.23190528741948  37.26638376009161 17.23190528741948  C 37.523240983757674 17.23190528741948  37.73146490481769 17.440129208479505  37.73146490481769 17.696986432145565  C 37.73146490481769 17.701756838414568  37.73139150867118 17.70652696235348  37.73124474243663 17.7112951103843  C 37.48382155355683 23.392261390024515  34.389636663941126 28.60349566639411  29.372806279640226 31.499556009811926  C 24.321094816026168 34.415614816026164  18.212718986099752 34.47049439084219  13.152636075224853 31.791626950122648  C 13.00034887295839 31.711004313628635  12.905101304164125 31.55280715563765  12.905101304164125 31.3804952248569  C 12.905101304164125 31.123576367022324  13.113375189589783 30.915302481596655  13.370294047424366 30.915302481596655  Z M 26.57152032432493 27.176000608644145  C 26.598746295906725 27.176000608644145  26.625348095641566 27.184156137987472  26.64789582992641 27.199415666394103  L 27.445509991823382 27.739374881439076  C 27.480391071136548 27.762628945216676  27.530619852820926 27.769605167620597  27.56643110384301 27.753327326246932  L 28.452410695012265 27.407306950122646  C 28.557053965658223 27.365914734260002  28.659836892886343 27.463116696647575  28.629141520850368 27.56869010629599  L 28.361719869174166 28.47187771054783  C 28.35939447260834 28.519315977105478  28.366370695012264 28.560708225674574  28.395205723630415 28.59465913327881  L 28.995160392477512 29.335998495502864  C 29.064457497955846 29.42250358135732  29.00446201144726 29.553191398201136  28.89284255110384 29.553191398201136  L 27.938496026165165 29.58109625511038  C 27.89316824445207 29.582135383848907  27.8516968045168 29.60684177676619  27.82920196238757 29.646207620605068  L 27.312031725265737 30.448472608340154  C 27.252966410466065 30.539628520032707  27.112046835650037 30.52567607522485  27.070654587080945 30.4210328045789  L 26.746958103025342 29.527611905151275  C 26.733146346200066 29.48473162879526  26.697194099773174 29.45269497554618  26.65301170891251 29.443897301717087  L 25.73215103843009 29.200194799672943  C 25.622856974652493 29.172754995911703  25.597277514309077 29.031835421095664  25.683317514309074 28.963003401471795  L 26.436748977923138 28.381651970564192  C 26.470818592164598 28.35447475306279  26.489833852859107 28.312641177103515  26.487907898609972 28.269102338511857  L 26.435353753066227 27.317546295993466  C 26.435285619172333 27.31578815224283  26.435251542640543 27.314028853790887  26.435251542640543 27.312269390328524  C 26.435251542640543 27.237010220326226  26.496261154322617 27.176000608644145  26.57152032432493 27.176000608644145  Z M 20.95251205233033 28.42443944399018  C 21.005996369582984 28.33002796402289  21.14970645952575 28.336074014717894  21.19063358953393 28.439787113654944  L 21.553861978740798 29.31227934587079  C 21.570699158669193 29.352910162491384  21.606907815374203 29.382296902646573  21.65013376941946 29.39041298446442  L 22.577970662305802 29.58667721995093  C 22.685404415372034 29.607140801308248  22.720750580539654 29.74573497955845  22.636570891251015 29.82014796402288  L 21.91383479967293 30.45358848732623  C 21.88861594349284 30.489656136271435  21.87558001171524 30.532837642379633  21.876628291087485 30.576834995911682  L 21.9780159934587 31.524205298446432  C 21.978410587737194 31.528423969570582  21.978608206940635 31.532658749225405  21.978608206940635 31.536895834390748  C 21.978608206940635 31.612155004393045  21.917598595258568 31.673164616075127  21.842339425256252 31.673164616075127  C 21.818095575175374 31.673164616075127  21.794290664676947 31.666696688529996  21.773380278004897 31.654428029435806  L 20.963208928863445 31.155395944399004  C 20.924906037152894 31.132483719362057  20.878072775160316 31.128867915912906  20.836706852003264 31.145629239574802  L 19.96607493049877 31.533506917416176  C 19.948895120808434 31.541175445207998  19.930292529023127 31.545138793679186  19.911478912159538 31.545138793679186  C 19.837504023217846 31.545138793679186  19.777535527040975 31.48517029750232  19.777535527040975 31.41119540856063  C 19.777535527040975 31.400378616659452  19.778845798062072 31.389601649071793  19.78143771054783 31.379099983646753  L 20.002351267375303 30.449867833197047  C 20.011646709503456 30.40660295374191  19.99972300270687 30.36150023884224  19.970260670482414 30.328481668029426  L 19.333099493049872 29.620628160261646  C 19.258686508585438 29.536448470973  19.309845429272272 29.40483051512672  19.42053475061324 29.398319345870803  L 20.369300278004896 29.32158096484055  C 20.4134914440779 29.316226755323726  20.452851139135493 29.29107077520986  20.476268945216674 29.253214031071124  L 20.95251205233033 28.42443944399018  Z M 30.817813442354865 22.616971087489773  L 31.76192817661488 22.753239869174152  C 31.80513021624078 22.758519366421282  31.848274757074314 22.742987332206667  31.8781984627964 22.711382567457065  L 32.52512634505315 22.01376085036793  C 32.59953932951758 21.93237164349958  32.73766842191333 21.973763859362208  32.75673674570728 22.083523008994263  L 32.924165952575635 23.02438217497955  C 32.92649134914146 23.06158865085854  32.95625654946852 23.10158564186426  32.99625354047424 23.11646825838102  L 33.862234636140634 23.513647555192136  C 33.963622338511854 23.556900114472597  33.96501756336877 23.702935568274725  33.86688546197874 23.753164349959107  L 33.029739394930495 24.198246999182317  C 32.99113766148814 24.220570891251015  32.961372461161076 24.25684722812754  32.961372461161076 24.30149501226491  L 32.84510217497956 25.246539918233836  C 32.83207990188062 25.35629906786589  32.699066688470964 25.401411937857716  32.61814256745707 25.326998953393286  L 31.93354312346688 24.659607522485686  C 31.90260126897805 24.6268195613755  31.85584319824487 24.614230850510694  31.812622011447253 24.62705183973833  L 30.878273982011443 24.816339852820917  C 30.77130531479967 24.84005900245296  30.680614488961563 24.72704428454618  30.731308323793947 24.627981978740777  L 31.15127663123467 23.76758184791494  C 31.172707515983205 23.728245116357954  31.171823823938638 23.680526230677017  31.148951201962383 23.64200994276368  L 30.6838700572363 22.815560752248544  C 30.62899048242027 22.720219100572336  30.7085193458708 22.60394881439082  30.81781344235486 22.617436173344217  Z M 30.797814946852004 19.96135771054783  C 30.893475829611635 19.992581733486446  30.958199954221165 20.081792603642853  30.958199954221165 20.18242035378576  C 30.958199954221165 20.2070142840371  30.954298455963883 20.23145251661994  30.946640915780865 20.254823941128365  C 30.148057476652085 22.707006437047582  28.468838229859998 24.776121362239934  26.233508520032707 26.062292264922306  C 24.022235927847035 27.343257828522596  21.417450150833012 27.767292715417383  18.914061357318076 27.253830155355672  C 18.805766488202472 27.231729155631996  18.727982404506882 27.136467460951934  18.727982404506882 27.02594039247751  C 18.727982404506882 26.897486094983492  18.832115187379245 26.793353312111122  18.960569484873265 26.793353312111122  C 18.976190600354983 26.793353312111122  18.99177198024367 26.79492703034252  19.007077612428454 26.798050629599345  C 21.39911439169387 27.288818814237004  23.88809241853296 26.88364404173508  26.00096794766966 25.659531970564174  C 28.136835730924247 24.430683430232733  29.741335889211182 22.45368339982764  30.504348748977925 20.11064876533115  C 30.535572774941524 20.014987887505725  30.624783642665136 19.95026376764281  30.725411389056017 19.95026376764281  C 30.750005308878087 19.95026376764281  30.774443531230567 19.95416526259143  30.797814946852004 19.961822796402288  Z M 1.232141095666398 20.89524068683565  L 34.25941393295176 1.826913491414544  C 34.48185308961985 1.6984909262177297  34.76628246062569 1.7746996671361188  34.89471479967293 1.9971331807031873  L 40.940769779231395 12.468900376124282  C 41.06919233894366 12.691339541356712  40.99298358267364 12.975768915007535  40.770550057236306 13.104201242845448  L 7.743277187244484 32.17252843826655  C 7.520838029300836 32.300950975708446  7.236408680164616 32.22474222208341  7.107976353229766 32.00230871627146  L 1.061921373671304 21.530541520850363  C 0.9334988362294026 21.30810236290671  1.0097075898544476 21.02367301377049  1.232141095666398 20.89524068683565  Z M 39.902243565004085 12.531686345053132  L 34.32126973017171 2.8649746197874038  L 2.0995174161897014 21.468220637775943  L 7.680491251022081 31.134932363041685  L 39.902243565004085 12.531686345053132  Z M 27.27436013082584 9.2393768765331  L 27.948727816843828 8.850569026982825  C 28.19150017988553 9.271002387571542  28.472874276369584 9.775150351594434  28.79657076042518 10.352316042518382  C 28.81893167720601 10.392220690084514  28.848962807811542 10.42730971438995  28.88493615699101 10.455564088307426  L 30.8210690106296 9.33797406377758  L 31.21034191332788 10.012341749795581  L 29.39047937857727 11.06296006541291  C 30.70107807031889 12.529360948487323  32.16096778413737 13.416735764513476  33.74689452166803 13.719503581357316  L 33.57295417825021 14.505955813573166  C 32.02795460343418 14.141332199509392  30.69875267375307 13.361856189697448  29.570000686835648 12.177294488961564  C 29.744406116107935 12.898170269828285  29.828585805396568 13.612999999999985  29.82579532297629 14.311086802943578  C 30.274598626328704 14.418985641864253  30.798745085854456 14.590135502861813  31.40939666394113 14.827326901062946  L 31.214062567457074 15.57796788225673  C 30.74985631748742 15.366008208743153  30.27301788684832 15.182883604601443  29.786263450531486 15.029637187244475  C 29.71364409774754 15.689479360073364  29.558489522601295 16.33759733268994  29.324437841373673 16.958793818479137  L 28.56310001635323 16.712300801308245  C 29.23095653311529 14.838023777596064  29.214213638593616 13.117223515944389  28.52775385118561 11.561061978740796  L 26.66463875715454 12.636794668847088  L 26.275365821749794 11.962427015535553  L 28.1747572526574 10.865765658217484  C 27.79153036794767 10.168609026982821  27.496203859362225 9.62399898609975  27.27436013082584 9.2393768765331  Z M 17.724383777596078 17.265747375306617  C 18.044824693376945 16.346747015535556  18.090402649223225 15.421235519215031  17.854606508585444 14.493863712183156  L 18.54618217497956 14.200862567457065  C 18.613618937040066 14.452006377759602  18.66663820114473 14.711521668029434  18.69686845461979 14.964525821749788  L 22.00266528209321 13.055832804578898  C 23.58487136549469 15.79655604251839  24.516893998364676 17.5108451676206  24.81268559280458 18.190328699918226  C 25.09405968928864 18.878648798037602  24.908492297628783 19.41116673753065  24.241565952575634 19.79625390024529  C 24.045766802943582 19.909268618152083  23.703932134096483 20.08739470155355  23.23140968111202 20.34086394112836  L 22.716099787408016 19.81671748160261  C 23.075890018124532 19.63701879957047  23.431018414089962 19.448133909062307  23.7811356009812 19.25024863450531  C 24.136457596075225 19.045612919051507  24.222032542927227 18.724706917416185  24.04995251022077 18.2926465412919  C 23.87322168438267 17.85314485690924  23.09886155355683 16.444414031071133  21.74035950940311 14.058082681929676  L 18.746167064595262 15.786789304987735  C 18.729892541261137 16.392087326152094  18.626994724167538 16.991933079222576  18.440608765331156 17.568050106295985  L 17.724383777596078 17.265747375306617  Z M 27.285057007358947 17.662461586263277  C 27.273865937988745 16.577987455981614  27.1913685629129 15.495423082573353  27.03809890433361 14.421776124284534  L 27.77060173344235 14.31759793949304  C 27.947150758893606 15.395780424596708  28.05264150447588 16.484401464861833  28.086391823385117 17.57642158626328  L 27.285057007358947 17.662461586263277  Z M 18.938710678659035 22.433264039247746  C 18.90267133207011 21.355814225025995  18.793122600271317 20.282081309455975  18.61082845461979 19.219553295175785  L 19.339145543744888 19.10839888798037  C 19.529616886615845 20.17747575234327  19.655879985698075 21.257001957308375  19.71725651676206 22.341177955846277  L 18.938710678659035 22.433264039247746  Z M 13.026599084219136 17.89081645134914  L 14.784605821749796 20.935702730989362  L 10.289596500408834 23.53085556827473  L 11.440672346688473 25.52465844644317  C 11.599730106295995 25.800451578086665  11.817388094848734 25.85858672117743  12.092716107931317 25.69952896156991  L 15.71011731807032 23.61084951757971  C 15.84034004905969 23.535506361406377  15.93893723630417 23.42063133278822  15.990096156991008 23.275060932134096  C 16.04311542109567 23.09926024529844  15.86452425183974 22.622552085036787  15.468740212591989 21.836099852820922  L 16.268679771054785 21.66448490596892  C 16.709111627146363 22.62813304987735  16.899794897792315 23.24297033524121  16.84352006541292 23.49783479967293  C 16.761665772690108 23.75781517579722  16.579819067865905 23.978728699918236  16.29100366312347 24.16476117743254  L 12.288980376124288 26.475284317252658  C 11.672747865903517 26.831071398201132  11.18441265739984 26.687826394112832  10.81606835650041 26.049735077677838  L 8.6394885690924 22.279787244480772  L 9.335249975470159 21.877957154538024  L 9.908695044971385 22.8713704987735  L 13.70050165167621 20.68223349141455  L 12.704297825020443 18.95678243663123  L 7.919077874080135 21.719364480784947  L 7.538176418642685 21.05941432542926  L 13.026133998364681 17.89081645134914  Z M 18.924758233851183 17.63688212591987  C 19.08288582174979 17.02344009811938  19.120092330335236 16.450925200327063  19.035447555192153 15.920267604251833  L 19.686561144726085 15.708655666394108  C 19.712140605069504 15.886781749795574  19.730743843008995 16.0695586263287  19.74795185609158 16.233732297628777  L 21.69850220768602 15.107770825838102  L 22.037546361406378 15.694703254292719  L 20.892051512673753 16.356048634505314  L 21.243652853638594 16.965304955028614  L 22.599364415372037 16.182573376941946  L 22.938408569092395 16.769505772690096  L 21.582697007358952 17.552237350776778  L 22.29427116925593 18.78470240392477  L 22.86678606704824 18.454494783319703  L 22.360312706459524 17.576886672117737  L 22.947710188062146 17.23784248569092  L 23.780205461978746 18.680524219133275  L 20.764619264104663 20.42178806214227  L 19.931658937040066 18.979106328699913  L 20.526032641046605 18.635876434995907  L 21.032971087489784 19.51301949304988  L 21.6631560425184 19.148860964840566  L 20.951581880621422 17.91639591169256  L 19.443788781684383 18.78702780049059  L 19.104744627964024 18.200095404742427  L 20.612537726901063 17.329463483237944  L 20.260936385936223 16.720207195421096  L 19.739115322976286 17.02157975470155  C 19.71539617334423 17.24807427636958  19.675864300899427 17.46433700735895  19.63214665576451 17.67315846279641  L 18.924758233851183 17.63688212591987  Z M 16.54028716271464 18.462866263286998  L 16.75375941128373 17.71083002452984  C 17.37386218620338 17.768868150534843  17.98727609411071 17.88407787261349  18.586179165985286 18.054990089942763  L 18.383868847097304 18.809816778413733  C 17.894138381030256 18.647503450531474  17.279766181520852 18.538209386753877  16.54028716271464 18.462866263286998  Z M 24.80943002452985 13.659508127555185  L 25.022902273098943 12.907936974652486  C 25.699595355682757 12.990721406377759  26.30327067865904 13.115828258381029  26.827417138184796 13.286978119378574  L 26.625106852003274 14.041804840556011  C 26.149793916598533 13.871585151267368  25.546118593622246 13.746478299264098  24.80943002452985 13.659508127555185  Z M 24.033674668847098 11.79685811937857  L 24.24761200327065 11.04528696647587  C 24.862449288634508 11.10574750613246  25.4047339002453 11.208065380212588  25.893534194603436 11.351310384300888  L 25.691223908421915 12.106137072771872  C 25.25125713818479 11.963822240392474  24.697345478331975 11.85824883074406  24.033674668847098 11.79685811937857  Z M 15.557105609157807 16.642538642681927  L 15.770577857726899 15.890967489779229  C 16.437504235486507 15.940731185609152  17.03187793949305 16.03281723630417  17.539281471790677 16.17466698282911  L 17.33697118560916 16.929493704006532  C 16.871424955028615 16.792759836467695  16.284027473426 16.696953131643497  15.557105609157807 16.642538642681927  Z M 11.109069501226493 13.58602531479967  C 11.92806619971142 11.20139610999506  13.583699289369948 9.194477986866673  15.76918263286999 7.937149632052325  C 18.004545958452084 6.642223317769464  20.64109140974344 6.223405725765929  23.167693573180706 6.761889582992637  C 23.276787466512552 6.783287187100257  23.35547659273582 6.878909673114052  23.35547659273582 6.990082219292702  C 23.35547659273582 7.118510831125747  23.25136463220581 7.222622791655752  23.122936020372784 7.222622791655752  C 23.105443425730158 7.222622791655752  23.088006685156223 7.220649021334097  23.07095669664759 7.216738937040063  C 20.656779334729666 6.702177716512836  18.13753496928847 7.1024392427214025  16.001723205233034 8.339909926410456  C 13.913394994322413 9.541264408546894  12.331424980870157 11.458994093596601  11.549036271463613 13.737641766148812  C 11.516688069817963 13.8315110901857  11.4283396233488 13.894512668906827  11.329052886345053 13.894512668906827  C 11.200547752107816 13.894512668906827  11.096373757912469 13.790338674711478  11.096373757912469 13.661833540474248  C 11.096373757912469 13.636035045949555  11.100664200294839 13.610416158081293  11.109069501226493 13.58602531479967  Z M 12.62988484055601 2.500350973017163  C 17.71043133278822 -0.43338093213409934  23.859734325429265 -0.4705874080130883  28.934234766966476 2.2529278168438225  C 29.08755036758612 2.3331813239411474  29.183630299105683 2.49192174232401  29.183630299105683 2.6649717316183796  C 29.183630299105683 2.921828955284454  28.975406378045662 3.1300528763444646  28.718549154379602 3.1300528763444646  C 28.64012368330468 3.1300528763444646  28.562971739721025 3.1102207560319215  28.494267996729352 3.072400784955022  C 23.700676565821748 0.49957187244480394  17.894138413736712 0.5349180376124281  13.094966017988552 3.305406443172515  C 8.312536549468518 6.066593229762873  5.38159512673753 11.053658413736713  5.1950975633687655 16.471853834832373  C 5.186451427336787 16.72234118219106  4.980885484956019 16.920933975591936  4.73024896156991 16.920933975591936  C 4.473367274738081 16.920933975591936  4.265123522363897 16.712690223217763  4.265123522363897 16.45580853638593  C 4.265123522363897 16.450458909526787  4.265215815232535 16.445109680761163  4.265400359771055 16.439763237939488  C 4.4630598528209315 10.703917416189697  7.5665463614063775 5.423851087489766  12.62988484055601 2.499885887162705  Z M 20.67299826655765 1.8715612755519118  C 20.710204742436638 1.7692434341782501  20.852519574816032 1.7538957318070203  20.91484049059689 1.8492373834832279  L 21.424104333605882 2.6589436467702257  C 21.449218708094847 2.6961501226492146  21.48921569910057 2.720799443990188  21.53386348323794 2.7231248405559967  L 22.487279836467703 2.7617265739983594  C 22.597504071954212 2.764982142273098  22.656569386753883 2.898925527391654  22.584946884709733 2.9812449059689214  L 21.973365167620603 3.714677874080124  C 21.94342934547391 3.7482615727924298  21.93399961090761 3.795410270648034  21.948715878986096 3.8379243826655767  L 22.205905739983642 4.748088176614871  C 22.209584820421878 4.760516514773855  22.211453178978438 4.773410288465044  22.211453178978438 4.786371739860044  C 22.211453178978438 4.860860330388007  22.151068245385392 4.921245263981049  22.076579654857422 4.921245263981049  C 22.058366760424537 4.921245263981049  22.04034253672859 4.917556526714932  22.023593949304985 4.9104015044971305  L 21.147846148814388 4.551358855273904  C 21.107849157808666 4.532290531479958  21.058550580539652 4.541127064595244  21.02180915780867 4.565776385936218  L 20.22977592804579 5.091318070318877  C 20.134434276369582 5.152708781684382  20.013513197056422 5.083876762060498  20.02234976287817 4.972722387571537  L 20.083275388389207 4.029072739165983  C 20.0859855977608 3.9854118786002033  20.066593034631808 3.9433072955231268  20.03165138184792 3.9169881602616385  L 19.282870711365494 3.328195421095657  C 19.250175164256024 3.302823194666985  19.231044317583915 3.263761933612642  19.231044317583915 3.2223765657305563  C 19.231044317583915 3.1608632694697434  19.272942536267454 3.107257482300227  19.332634407195425 3.092399280457883  L 20.245123630417012 2.863114276369572  C 20.28791110384301 2.843580866721169  20.324187440719545 2.813350580539648  20.338139852820937 2.7682377105478224  L 20.67299826655765 1.8715612755519118  Z M 8.405087686017989 8.953351954210945  L 9.340830940310711 9.13333834832379  C 9.385013638593623 9.143570139002449  9.429196369582993 9.128687522485677  9.459426655764513 9.094736614881427  L 10.134724480784953 8.424554701553546  C 10.211927947669665 8.345955977105476  10.349591986917416 8.391533932951745  10.361219002452984 8.502688307440707  L 10.477489288634503 9.440291905151255  C 10.48446551103843 9.486800032706455  10.508649713818476 9.524006508585444  10.548181618969746 9.544005004088305  L 11.389978511856091 9.97932098119378  C 11.48857573180703 10.029549730171695  11.48997095666394 10.172794734260009  11.385792771872444 10.218837775960736  L 10.53004346688471 10.623458381030247  C 10.491010004953672 10.64266762580256  10.463399993413052 10.679250884722833  10.455630482420277 10.722055568274726  L 10.300293376941944 11.657333769419452  C 10.290404725249308 11.721793464686613  10.23495144232399 11.769388481295763  10.169737657383733 11.769388481295763  C 10.13296888532061 11.769388481295763  10.097864216381113 11.754061942550493  10.072868683565003 11.727095928045784  L 9.427336058871626 11.039240915780852  C 9.39292924362489 11.014764893617922  9.351401220807166 11.002339188628639  9.30920542927228 11.003894750613242  L 8.368811349141456 11.149930237121822  C 8.260447457072772 11.16853347506131  8.17719790678659 11.052263188879792  8.227426688470974 10.954131054783318  L 8.685066524938673 10.116984987735066  C 8.705074381119518 10.078417040529047  8.705420143220827 10.03260402409444  8.685996696647587 9.993738479149627  L 8.25812202780049 9.14450031071135  C 8.248958717759782 9.126011488548883  8.244191081510891 9.105655514306747  8.244191081510891 9.085020524705158  C 8.244191081510891 9.011045635763466  8.304159577687757 8.951077139586587  8.37813446662945 8.951077139586587  C 8.387188384041242 8.951077139586587  8.39621897247147 8.951995134324335  8.405087686017987 8.953817040065402  Z M 13.65585386753884 4.004888503679467  L 14.460444251839737 4.511826950122639  C 14.499045985282093 4.534150842191323  14.542763630417006 4.539731807031885  14.586946328699918 4.522988912510215  L 15.458043336058868 4.143017596075211  C 15.474719771010493 4.135766881535645  15.492709782871696 4.132025145707374  15.510894291224417 4.132025145707374  C 15.584098600691778 4.132025145707374  15.64344241877961 4.191368963795213  15.64344241877961 4.26457327326257  C 15.64344241877961 4.275492944890914  15.642093050372486 4.286370771854507  15.639424987735076 4.296959476696642  L 15.413860637775958 5.223401112019616  C 15.40269867538839 5.267118724448068  15.413860637775958 5.311766541291902  15.441765494685198 5.344322224039246  L 16.07520601798855 6.055896385936222  C 16.146828520032706 6.13821576451349  16.097529910057233 6.270298806214214  15.986840588716268 6.275879771054775  L 15.039005200327061 6.342386361406369  C 14.99556382562906 6.346381047969032  14.956661008922229 6.370933057897801  14.934361962387564 6.408427898609972  L 14.449282322158624 7.229761210138989  C 14.424728914497114 7.271105432943543  14.380203019591479 7.296448444965321  14.332117527110851 7.296448444965321  C 14.277274327192812 7.296448444965321  14.227775570682079 7.263570734305532  14.206509959116921 7.213018282910866  L 13.84839748160261 6.331224431725261  C 13.8302823908835 6.291698777477507  13.796342332456927 6.261642409750792  13.754916140637771 6.248439967293535  L 12.828474505314796 6.049850335241203  C 12.766430267112474 6.037305717709728  12.721821595103938 5.982775024684656  12.721821595103938 5.919475301753849  C 12.721821595103938 5.880763781462576  12.738686262372966 5.8439729046114905  12.768013965658213 5.8187049877350745  L 13.49586596892886 5.201077219950932  C 13.534002616516755 5.162475486508583  13.556326508585444 5.118292788225659  13.550745543744886 5.074575143090755  L 13.451683237939486 4.131855666394102  C 13.440521275551918 4.02163143090759  13.561907473425999 3.9444279640228928  13.655388781684378 4.004888503679467  Z " fill-rule="evenodd" />
    </mask>
  </defs>
  <g transform="matrix(1 0 0 1 -303 -629 )">
    <path d="M 13.370294047424366 30.915302481596655  C 13.446169829925813 30.915302481596655  13.520893919905717 30.933862152681556  13.587952019623877 30.969363499591168  C 18.368056091578087 33.5003351103843  24.13599254292723 33.44871110384301  28.907725134914145 30.694035453802115  C 33.64597190515127 27.95842812755518  36.56854184791496 23.03740444807849  36.80201259198692 17.671298119378577  C 36.81564858986243 17.42479830760989  37.01950707500358 17.23190528741948  37.26638376009161 17.23190528741948  C 37.523240983757674 17.23190528741948  37.73146490481769 17.440129208479505  37.73146490481769 17.696986432145565  C 37.73146490481769 17.701756838414568  37.73139150867118 17.70652696235348  37.73124474243663 17.7112951103843  C 37.48382155355683 23.392261390024515  34.389636663941126 28.60349566639411  29.372806279640226 31.499556009811926  C 24.321094816026168 34.415614816026164  18.212718986099752 34.47049439084219  13.152636075224853 31.791626950122648  C 13.00034887295839 31.711004313628635  12.905101304164125 31.55280715563765  12.905101304164125 31.3804952248569  C 12.905101304164125 31.123576367022324  13.113375189589783 30.915302481596655  13.370294047424366 30.915302481596655  Z M 26.57152032432493 27.176000608644145  C 26.598746295906725 27.176000608644145  26.625348095641566 27.184156137987472  26.64789582992641 27.199415666394103  L 27.445509991823382 27.739374881439076  C 27.480391071136548 27.762628945216676  27.530619852820926 27.769605167620597  27.56643110384301 27.753327326246932  L 28.452410695012265 27.407306950122646  C 28.557053965658223 27.365914734260002  28.659836892886343 27.463116696647575  28.629141520850368 27.56869010629599  L 28.361719869174166 28.47187771054783  C 28.35939447260834 28.519315977105478  28.366370695012264 28.560708225674574  28.395205723630415 28.59465913327881  L 28.995160392477512 29.335998495502864  C 29.064457497955846 29.42250358135732  29.00446201144726 29.553191398201136  28.89284255110384 29.553191398201136  L 27.938496026165165 29.58109625511038  C 27.89316824445207 29.582135383848907  27.8516968045168 29.60684177676619  27.82920196238757 29.646207620605068  L 27.312031725265737 30.448472608340154  C 27.252966410466065 30.539628520032707  27.112046835650037 30.52567607522485  27.070654587080945 30.4210328045789  L 26.746958103025342 29.527611905151275  C 26.733146346200066 29.48473162879526  26.697194099773174 29.45269497554618  26.65301170891251 29.443897301717087  L 25.73215103843009 29.200194799672943  C 25.622856974652493 29.172754995911703  25.597277514309077 29.031835421095664  25.683317514309074 28.963003401471795  L 26.436748977923138 28.381651970564192  C 26.470818592164598 28.35447475306279  26.489833852859107 28.312641177103515  26.487907898609972 28.269102338511857  L 26.435353753066227 27.317546295993466  C 26.435285619172333 27.31578815224283  26.435251542640543 27.314028853790887  26.435251542640543 27.312269390328524  C 26.435251542640543 27.237010220326226  26.496261154322617 27.176000608644145  26.57152032432493 27.176000608644145  Z M 20.95251205233033 28.42443944399018  C 21.005996369582984 28.33002796402289  21.14970645952575 28.336074014717894  21.19063358953393 28.439787113654944  L 21.553861978740798 29.31227934587079  C 21.570699158669193 29.352910162491384  21.606907815374203 29.382296902646573  21.65013376941946 29.39041298446442  L 22.577970662305802 29.58667721995093  C 22.685404415372034 29.607140801308248  22.720750580539654 29.74573497955845  22.636570891251015 29.82014796402288  L 21.91383479967293 30.45358848732623  C 21.88861594349284 30.489656136271435  21.87558001171524 30.532837642379633  21.876628291087485 30.576834995911682  L 21.9780159934587 31.524205298446432  C 21.978410587737194 31.528423969570582  21.978608206940635 31.532658749225405  21.978608206940635 31.536895834390748  C 21.978608206940635 31.612155004393045  21.917598595258568 31.673164616075127  21.842339425256252 31.673164616075127  C 21.818095575175374 31.673164616075127  21.794290664676947 31.666696688529996  21.773380278004897 31.654428029435806  L 20.963208928863445 31.155395944399004  C 20.924906037152894 31.132483719362057  20.878072775160316 31.128867915912906  20.836706852003264 31.145629239574802  L 19.96607493049877 31.533506917416176  C 19.948895120808434 31.541175445207998  19.930292529023127 31.545138793679186  19.911478912159538 31.545138793679186  C 19.837504023217846 31.545138793679186  19.777535527040975 31.48517029750232  19.777535527040975 31.41119540856063  C 19.777535527040975 31.400378616659452  19.778845798062072 31.389601649071793  19.78143771054783 31.379099983646753  L 20.002351267375303 30.449867833197047  C 20.011646709503456 30.40660295374191  19.99972300270687 30.36150023884224  19.970260670482414 30.328481668029426  L 19.333099493049872 29.620628160261646  C 19.258686508585438 29.536448470973  19.309845429272272 29.40483051512672  19.42053475061324 29.398319345870803  L 20.369300278004896 29.32158096484055  C 20.4134914440779 29.316226755323726  20.452851139135493 29.29107077520986  20.476268945216674 29.253214031071124  L 20.95251205233033 28.42443944399018  Z M 30.817813442354865 22.616971087489773  L 31.76192817661488 22.753239869174152  C 31.80513021624078 22.758519366421282  31.848274757074314 22.742987332206667  31.8781984627964 22.711382567457065  L 32.52512634505315 22.01376085036793  C 32.59953932951758 21.93237164349958  32.73766842191333 21.973763859362208  32.75673674570728 22.083523008994263  L 32.924165952575635 23.02438217497955  C 32.92649134914146 23.06158865085854  32.95625654946852 23.10158564186426  32.99625354047424 23.11646825838102  L 33.862234636140634 23.513647555192136  C 33.963622338511854 23.556900114472597  33.96501756336877 23.702935568274725  33.86688546197874 23.753164349959107  L 33.029739394930495 24.198246999182317  C 32.99113766148814 24.220570891251015  32.961372461161076 24.25684722812754  32.961372461161076 24.30149501226491  L 32.84510217497956 25.246539918233836  C 32.83207990188062 25.35629906786589  32.699066688470964 25.401411937857716  32.61814256745707 25.326998953393286  L 31.93354312346688 24.659607522485686  C 31.90260126897805 24.6268195613755  31.85584319824487 24.614230850510694  31.812622011447253 24.62705183973833  L 30.878273982011443 24.816339852820917  C 30.77130531479967 24.84005900245296  30.680614488961563 24.72704428454618  30.731308323793947 24.627981978740777  L 31.15127663123467 23.76758184791494  C 31.172707515983205 23.728245116357954  31.171823823938638 23.680526230677017  31.148951201962383 23.64200994276368  L 30.6838700572363 22.815560752248544  C 30.62899048242027 22.720219100572336  30.7085193458708 22.60394881439082  30.81781344235486 22.617436173344217  Z M 30.797814946852004 19.96135771054783  C 30.893475829611635 19.992581733486446  30.958199954221165 20.081792603642853  30.958199954221165 20.18242035378576  C 30.958199954221165 20.2070142840371  30.954298455963883 20.23145251661994  30.946640915780865 20.254823941128365  C 30.148057476652085 22.707006437047582  28.468838229859998 24.776121362239934  26.233508520032707 26.062292264922306  C 24.022235927847035 27.343257828522596  21.417450150833012 27.767292715417383  18.914061357318076 27.253830155355672  C 18.805766488202472 27.231729155631996  18.727982404506882 27.136467460951934  18.727982404506882 27.02594039247751  C 18.727982404506882 26.897486094983492  18.832115187379245 26.793353312111122  18.960569484873265 26.793353312111122  C 18.976190600354983 26.793353312111122  18.99177198024367 26.79492703034252  19.007077612428454 26.798050629599345  C 21.39911439169387 27.288818814237004  23.88809241853296 26.88364404173508  26.00096794766966 25.659531970564174  C 28.136835730924247 24.430683430232733  29.741335889211182 22.45368339982764  30.504348748977925 20.11064876533115  C 30.535572774941524 20.014987887505725  30.624783642665136 19.95026376764281  30.725411389056017 19.95026376764281  C 30.750005308878087 19.95026376764281  30.774443531230567 19.95416526259143  30.797814946852004 19.961822796402288  Z M 1.232141095666398 20.89524068683565  L 34.25941393295176 1.826913491414544  C 34.48185308961985 1.6984909262177297  34.76628246062569 1.7746996671361188  34.89471479967293 1.9971331807031873  L 40.940769779231395 12.468900376124282  C 41.06919233894366 12.691339541356712  40.99298358267364 12.975768915007535  40.770550057236306 13.104201242845448  L 7.743277187244484 32.17252843826655  C 7.520838029300836 32.300950975708446  7.236408680164616 32.22474222208341  7.107976353229766 32.00230871627146  L 1.061921373671304 21.530541520850363  C 0.9334988362294026 21.30810236290671  1.0097075898544476 21.02367301377049  1.232141095666398 20.89524068683565  Z M 39.902243565004085 12.531686345053132  L 34.32126973017171 2.8649746197874038  L 2.0995174161897014 21.468220637775943  L 7.680491251022081 31.134932363041685  L 39.902243565004085 12.531686345053132  Z M 27.27436013082584 9.2393768765331  L 27.948727816843828 8.850569026982825  C 28.19150017988553 9.271002387571542  28.472874276369584 9.775150351594434  28.79657076042518 10.352316042518382  C 28.81893167720601 10.392220690084514  28.848962807811542 10.42730971438995  28.88493615699101 10.455564088307426  L 30.8210690106296 9.33797406377758  L 31.21034191332788 10.012341749795581  L 29.39047937857727 11.06296006541291  C 30.70107807031889 12.529360948487323  32.16096778413737 13.416735764513476  33.74689452166803 13.719503581357316  L 33.57295417825021 14.505955813573166  C 32.02795460343418 14.141332199509392  30.69875267375307 13.361856189697448  29.570000686835648 12.177294488961564  C 29.744406116107935 12.898170269828285  29.828585805396568 13.612999999999985  29.82579532297629 14.311086802943578  C 30.274598626328704 14.418985641864253  30.798745085854456 14.590135502861813  31.40939666394113 14.827326901062946  L 31.214062567457074 15.57796788225673  C 30.74985631748742 15.366008208743153  30.27301788684832 15.182883604601443  29.786263450531486 15.029637187244475  C 29.71364409774754 15.689479360073364  29.558489522601295 16.33759733268994  29.324437841373673 16.958793818479137  L 28.56310001635323 16.712300801308245  C 29.23095653311529 14.838023777596064  29.214213638593616 13.117223515944389  28.52775385118561 11.561061978740796  L 26.66463875715454 12.636794668847088  L 26.275365821749794 11.962427015535553  L 28.1747572526574 10.865765658217484  C 27.79153036794767 10.168609026982821  27.496203859362225 9.62399898609975  27.27436013082584 9.2393768765331  Z M 17.724383777596078 17.265747375306617  C 18.044824693376945 16.346747015535556  18.090402649223225 15.421235519215031  17.854606508585444 14.493863712183156  L 18.54618217497956 14.200862567457065  C 18.613618937040066 14.452006377759602  18.66663820114473 14.711521668029434  18.69686845461979 14.964525821749788  L 22.00266528209321 13.055832804578898  C 23.58487136549469 15.79655604251839  24.516893998364676 17.5108451676206  24.81268559280458 18.190328699918226  C 25.09405968928864 18.878648798037602  24.908492297628783 19.41116673753065  24.241565952575634 19.79625390024529  C 24.045766802943582 19.909268618152083  23.703932134096483 20.08739470155355  23.23140968111202 20.34086394112836  L 22.716099787408016 19.81671748160261  C 23.075890018124532 19.63701879957047  23.431018414089962 19.448133909062307  23.7811356009812 19.25024863450531  C 24.136457596075225 19.045612919051507  24.222032542927227 18.724706917416185  24.04995251022077 18.2926465412919  C 23.87322168438267 17.85314485690924  23.09886155355683 16.444414031071133  21.74035950940311 14.058082681929676  L 18.746167064595262 15.786789304987735  C 18.729892541261137 16.392087326152094  18.626994724167538 16.991933079222576  18.440608765331156 17.568050106295985  L 17.724383777596078 17.265747375306617  Z M 27.285057007358947 17.662461586263277  C 27.273865937988745 16.577987455981614  27.1913685629129 15.495423082573353  27.03809890433361 14.421776124284534  L 27.77060173344235 14.31759793949304  C 27.947150758893606 15.395780424596708  28.05264150447588 16.484401464861833  28.086391823385117 17.57642158626328  L 27.285057007358947 17.662461586263277  Z M 18.938710678659035 22.433264039247746  C 18.90267133207011 21.355814225025995  18.793122600271317 20.282081309455975  18.61082845461979 19.219553295175785  L 19.339145543744888 19.10839888798037  C 19.529616886615845 20.17747575234327  19.655879985698075 21.257001957308375  19.71725651676206 22.341177955846277  L 18.938710678659035 22.433264039247746  Z M 13.026599084219136 17.89081645134914  L 14.784605821749796 20.935702730989362  L 10.289596500408834 23.53085556827473  L 11.440672346688473 25.52465844644317  C 11.599730106295995 25.800451578086665  11.817388094848734 25.85858672117743  12.092716107931317 25.69952896156991  L 15.71011731807032 23.61084951757971  C 15.84034004905969 23.535506361406377  15.93893723630417 23.42063133278822  15.990096156991008 23.275060932134096  C 16.04311542109567 23.09926024529844  15.86452425183974 22.622552085036787  15.468740212591989 21.836099852820922  L 16.268679771054785 21.66448490596892  C 16.709111627146363 22.62813304987735  16.899794897792315 23.24297033524121  16.84352006541292 23.49783479967293  C 16.761665772690108 23.75781517579722  16.579819067865905 23.978728699918236  16.29100366312347 24.16476117743254  L 12.288980376124288 26.475284317252658  C 11.672747865903517 26.831071398201132  11.18441265739984 26.687826394112832  10.81606835650041 26.049735077677838  L 8.6394885690924 22.279787244480772  L 9.335249975470159 21.877957154538024  L 9.908695044971385 22.8713704987735  L 13.70050165167621 20.68223349141455  L 12.704297825020443 18.95678243663123  L 7.919077874080135 21.719364480784947  L 7.538176418642685 21.05941432542926  L 13.026133998364681 17.89081645134914  Z M 18.924758233851183 17.63688212591987  C 19.08288582174979 17.02344009811938  19.120092330335236 16.450925200327063  19.035447555192153 15.920267604251833  L 19.686561144726085 15.708655666394108  C 19.712140605069504 15.886781749795574  19.730743843008995 16.0695586263287  19.74795185609158 16.233732297628777  L 21.69850220768602 15.107770825838102  L 22.037546361406378 15.694703254292719  L 20.892051512673753 16.356048634505314  L 21.243652853638594 16.965304955028614  L 22.599364415372037 16.182573376941946  L 22.938408569092395 16.769505772690096  L 21.582697007358952 17.552237350776778  L 22.29427116925593 18.78470240392477  L 22.86678606704824 18.454494783319703  L 22.360312706459524 17.576886672117737  L 22.947710188062146 17.23784248569092  L 23.780205461978746 18.680524219133275  L 20.764619264104663 20.42178806214227  L 19.931658937040066 18.979106328699913  L 20.526032641046605 18.635876434995907  L 21.032971087489784 19.51301949304988  L 21.6631560425184 19.148860964840566  L 20.951581880621422 17.91639591169256  L 19.443788781684383 18.78702780049059  L 19.104744627964024 18.200095404742427  L 20.612537726901063 17.329463483237944  L 20.260936385936223 16.720207195421096  L 19.739115322976286 17.02157975470155  C 19.71539617334423 17.24807427636958  19.675864300899427 17.46433700735895  19.63214665576451 17.67315846279641  L 18.924758233851183 17.63688212591987  Z M 16.54028716271464 18.462866263286998  L 16.75375941128373 17.71083002452984  C 17.37386218620338 17.768868150534843  17.98727609411071 17.88407787261349  18.586179165985286 18.054990089942763  L 18.383868847097304 18.809816778413733  C 17.894138381030256 18.647503450531474  17.279766181520852 18.538209386753877  16.54028716271464 18.462866263286998  Z M 24.80943002452985 13.659508127555185  L 25.022902273098943 12.907936974652486  C 25.699595355682757 12.990721406377759  26.30327067865904 13.115828258381029  26.827417138184796 13.286978119378574  L 26.625106852003274 14.041804840556011  C 26.149793916598533 13.871585151267368  25.546118593622246 13.746478299264098  24.80943002452985 13.659508127555185  Z M 24.033674668847098 11.79685811937857  L 24.24761200327065 11.04528696647587  C 24.862449288634508 11.10574750613246  25.4047339002453 11.208065380212588  25.893534194603436 11.351310384300888  L 25.691223908421915 12.106137072771872  C 25.25125713818479 11.963822240392474  24.697345478331975 11.85824883074406  24.033674668847098 11.79685811937857  Z M 15.557105609157807 16.642538642681927  L 15.770577857726899 15.890967489779229  C 16.437504235486507 15.940731185609152  17.03187793949305 16.03281723630417  17.539281471790677 16.17466698282911  L 17.33697118560916 16.929493704006532  C 16.871424955028615 16.792759836467695  16.284027473426 16.696953131643497  15.557105609157807 16.642538642681927  Z M 11.109069501226493 13.58602531479967  C 11.92806619971142 11.20139610999506  13.583699289369948 9.194477986866673  15.76918263286999 7.937149632052325  C 18.004545958452084 6.642223317769464  20.64109140974344 6.223405725765929  23.167693573180706 6.761889582992637  C 23.276787466512552 6.783287187100257  23.35547659273582 6.878909673114052  23.35547659273582 6.990082219292702  C 23.35547659273582 7.118510831125747  23.25136463220581 7.222622791655752  23.122936020372784 7.222622791655752  C 23.105443425730158 7.222622791655752  23.088006685156223 7.220649021334097  23.07095669664759 7.216738937040063  C 20.656779334729666 6.702177716512836  18.13753496928847 7.1024392427214025  16.001723205233034 8.339909926410456  C 13.913394994322413 9.541264408546894  12.331424980870157 11.458994093596601  11.549036271463613 13.737641766148812  C 11.516688069817963 13.8315110901857  11.4283396233488 13.894512668906827  11.329052886345053 13.894512668906827  C 11.200547752107816 13.894512668906827  11.096373757912469 13.790338674711478  11.096373757912469 13.661833540474248  C 11.096373757912469 13.636035045949555  11.100664200294839 13.610416158081293  11.109069501226493 13.58602531479967  Z M 12.62988484055601 2.500350973017163  C 17.71043133278822 -0.43338093213409934  23.859734325429265 -0.4705874080130883  28.934234766966476 2.2529278168438225  C 29.08755036758612 2.3331813239411474  29.183630299105683 2.49192174232401  29.183630299105683 2.6649717316183796  C 29.183630299105683 2.921828955284454  28.975406378045662 3.1300528763444646  28.718549154379602 3.1300528763444646  C 28.64012368330468 3.1300528763444646  28.562971739721025 3.1102207560319215  28.494267996729352 3.072400784955022  C 23.700676565821748 0.49957187244480394  17.894138413736712 0.5349180376124281  13.094966017988552 3.305406443172515  C 8.312536549468518 6.066593229762873  5.38159512673753 11.053658413736713  5.1950975633687655 16.471853834832373  C 5.186451427336787 16.72234118219106  4.980885484956019 16.920933975591936  4.73024896156991 16.920933975591936  C 4.473367274738081 16.920933975591936  4.265123522363897 16.712690223217763  4.265123522363897 16.45580853638593  C 4.265123522363897 16.450458909526787  4.265215815232535 16.445109680761163  4.265400359771055 16.439763237939488  C 4.4630598528209315 10.703917416189697  7.5665463614063775 5.423851087489766  12.62988484055601 2.499885887162705  Z M 20.67299826655765 1.8715612755519118  C 20.710204742436638 1.7692434341782501  20.852519574816032 1.7538957318070203  20.91484049059689 1.8492373834832279  L 21.424104333605882 2.6589436467702257  C 21.449218708094847 2.6961501226492146  21.48921569910057 2.720799443990188  21.53386348323794 2.7231248405559967  L 22.487279836467703 2.7617265739983594  C 22.597504071954212 2.764982142273098  22.656569386753883 2.898925527391654  22.584946884709733 2.9812449059689214  L 21.973365167620603 3.714677874080124  C 21.94342934547391 3.7482615727924298  21.93399961090761 3.795410270648034  21.948715878986096 3.8379243826655767  L 22.205905739983642 4.748088176614871  C 22.209584820421878 4.760516514773855  22.211453178978438 4.773410288465044  22.211453178978438 4.786371739860044  C 22.211453178978438 4.860860330388007  22.151068245385392 4.921245263981049  22.076579654857422 4.921245263981049  C 22.058366760424537 4.921245263981049  22.04034253672859 4.917556526714932  22.023593949304985 4.9104015044971305  L 21.147846148814388 4.551358855273904  C 21.107849157808666 4.532290531479958  21.058550580539652 4.541127064595244  21.02180915780867 4.565776385936218  L 20.22977592804579 5.091318070318877  C 20.134434276369582 5.152708781684382  20.013513197056422 5.083876762060498  20.02234976287817 4.972722387571537  L 20.083275388389207 4.029072739165983  C 20.0859855977608 3.9854118786002033  20.066593034631808 3.9433072955231268  20.03165138184792 3.9169881602616385  L 19.282870711365494 3.328195421095657  C 19.250175164256024 3.302823194666985  19.231044317583915 3.263761933612642  19.231044317583915 3.2223765657305563  C 19.231044317583915 3.1608632694697434  19.272942536267454 3.107257482300227  19.332634407195425 3.092399280457883  L 20.245123630417012 2.863114276369572  C 20.28791110384301 2.843580866721169  20.324187440719545 2.813350580539648  20.338139852820937 2.7682377105478224  L 20.67299826655765 1.8715612755519118  Z M 8.405087686017989 8.953351954210945  L 9.340830940310711 9.13333834832379  C 9.385013638593623 9.143570139002449  9.429196369582993 9.128687522485677  9.459426655764513 9.094736614881427  L 10.134724480784953 8.424554701553546  C 10.211927947669665 8.345955977105476  10.349591986917416 8.391533932951745  10.361219002452984 8.502688307440707  L 10.477489288634503 9.440291905151255  C 10.48446551103843 9.486800032706455  10.508649713818476 9.524006508585444  10.548181618969746 9.544005004088305  L 11.389978511856091 9.97932098119378  C 11.48857573180703 10.029549730171695  11.48997095666394 10.172794734260009  11.385792771872444 10.218837775960736  L 10.53004346688471 10.623458381030247  C 10.491010004953672 10.64266762580256  10.463399993413052 10.679250884722833  10.455630482420277 10.722055568274726  L 10.300293376941944 11.657333769419452  C 10.290404725249308 11.721793464686613  10.23495144232399 11.769388481295763  10.169737657383733 11.769388481295763  C 10.13296888532061 11.769388481295763  10.097864216381113 11.754061942550493  10.072868683565003 11.727095928045784  L 9.427336058871626 11.039240915780852  C 9.39292924362489 11.014764893617922  9.351401220807166 11.002339188628639  9.30920542927228 11.003894750613242  L 8.368811349141456 11.149930237121822  C 8.260447457072772 11.16853347506131  8.17719790678659 11.052263188879792  8.227426688470974 10.954131054783318  L 8.685066524938673 10.116984987735066  C 8.705074381119518 10.078417040529047  8.705420143220827 10.03260402409444  8.685996696647587 9.993738479149627  L 8.25812202780049 9.14450031071135  C 8.248958717759782 9.126011488548883  8.244191081510891 9.105655514306747  8.244191081510891 9.085020524705158  C 8.244191081510891 9.011045635763466  8.304159577687757 8.951077139586587  8.37813446662945 8.951077139586587  C 8.387188384041242 8.951077139586587  8.39621897247147 8.951995134324335  8.405087686017987 8.953817040065402  Z M 13.65585386753884 4.004888503679467  L 14.460444251839737 4.511826950122639  C 14.499045985282093 4.534150842191323  14.542763630417006 4.539731807031885  14.586946328699918 4.522988912510215  L 15.458043336058868 4.143017596075211  C 15.474719771010493 4.135766881535645  15.492709782871696 4.132025145707374  15.510894291224417 4.132025145707374  C 15.584098600691778 4.132025145707374  15.64344241877961 4.191368963795213  15.64344241877961 4.26457327326257  C 15.64344241877961 4.275492944890914  15.642093050372486 4.286370771854507  15.639424987735076 4.296959476696642  L 15.413860637775958 5.223401112019616  C 15.40269867538839 5.267118724448068  15.413860637775958 5.311766541291902  15.441765494685198 5.344322224039246  L 16.07520601798855 6.055896385936222  C 16.146828520032706 6.13821576451349  16.097529910057233 6.270298806214214  15.986840588716268 6.275879771054775  L 15.039005200327061 6.342386361406369  C 14.99556382562906 6.346381047969032  14.956661008922229 6.370933057897801  14.934361962387564 6.408427898609972  L 14.449282322158624 7.229761210138989  C 14.424728914497114 7.271105432943543  14.380203019591479 7.296448444965321  14.332117527110851 7.296448444965321  C 14.277274327192812 7.296448444965321  14.227775570682079 7.263570734305532  14.206509959116921 7.213018282910866  L 13.84839748160261 6.331224431725261  C 13.8302823908835 6.291698777477507  13.796342332456927 6.261642409750792  13.754916140637771 6.248439967293535  L 12.828474505314796 6.049850335241203  C 12.766430267112474 6.037305717709728  12.721821595103938 5.982775024684656  12.721821595103938 5.919475301753849  C 12.721821595103938 5.880763781462576  12.738686262372966 5.8439729046114905  12.768013965658213 5.8187049877350745  L 13.49586596892886 5.201077219950932  C 13.534002616516755 5.162475486508583  13.556326508585444 5.118292788225659  13.550745543744886 5.074575143090755  L 13.451683237939486 4.131855666394102  C 13.440521275551918 4.02163143090759  13.561907473425999 3.9444279640228928  13.655388781684378 4.004888503679467  Z " fill-rule="nonzero" fill="rgba(191, 202, 224, 1)" stroke="none" transform="matrix(1 0 0 1 303 629 )" class="fill" />
    <path d="M 13.370294047424366 30.915302481596655  C 13.446169829925813 30.915302481596655  13.520893919905717 30.933862152681556  13.587952019623877 30.969363499591168  C 18.368056091578087 33.5003351103843  24.13599254292723 33.44871110384301  28.907725134914145 30.694035453802115  C 33.64597190515127 27.95842812755518  36.56854184791496 23.03740444807849  36.80201259198692 17.671298119378577  C 36.81564858986243 17.42479830760989  37.01950707500358 17.23190528741948  37.26638376009161 17.23190528741948  C 37.523240983757674 17.23190528741948  37.73146490481769 17.440129208479505  37.73146490481769 17.696986432145565  C 37.73146490481769 17.701756838414568  37.73139150867118 17.70652696235348  37.73124474243663 17.7112951103843  C 37.48382155355683 23.392261390024515  34.389636663941126 28.60349566639411  29.372806279640226 31.499556009811926  C 24.321094816026168 34.415614816026164  18.212718986099752 34.47049439084219  13.152636075224853 31.791626950122648  C 13.00034887295839 31.711004313628635  12.905101304164125 31.55280715563765  12.905101304164125 31.3804952248569  C 12.905101304164125 31.123576367022324  13.113375189589783 30.915302481596655  13.370294047424366 30.915302481596655  Z " stroke-width="0" stroke-dasharray="0" stroke="rgba(255, 255, 255, 0)" fill="none" transform="matrix(1 0 0 1 303 629 )" class="stroke" mask="url(#Clip1492)" />
    <path d="M 26.57152032432493 27.176000608644145  C 26.598746295906725 27.176000608644145  26.625348095641566 27.184156137987472  26.64789582992641 27.199415666394103  L 27.445509991823382 27.739374881439076  C 27.480391071136548 27.762628945216676  27.530619852820926 27.769605167620597  27.56643110384301 27.753327326246932  L 28.452410695012265 27.407306950122646  C 28.557053965658223 27.365914734260002  28.659836892886343 27.463116696647575  28.629141520850368 27.56869010629599  L 28.361719869174166 28.47187771054783  C 28.35939447260834 28.519315977105478  28.366370695012264 28.560708225674574  28.395205723630415 28.59465913327881  L 28.995160392477512 29.335998495502864  C 29.064457497955846 29.42250358135732  29.00446201144726 29.553191398201136  28.89284255110384 29.553191398201136  L 27.938496026165165 29.58109625511038  C 27.89316824445207 29.582135383848907  27.8516968045168 29.60684177676619  27.82920196238757 29.646207620605068  L 27.312031725265737 30.448472608340154  C 27.252966410466065 30.539628520032707  27.112046835650037 30.52567607522485  27.070654587080945 30.4210328045789  L 26.746958103025342 29.527611905151275  C 26.733146346200066 29.48473162879526  26.697194099773174 29.45269497554618  26.65301170891251 29.443897301717087  L 25.73215103843009 29.200194799672943  C 25.622856974652493 29.172754995911703  25.597277514309077 29.031835421095664  25.683317514309074 28.963003401471795  L 26.436748977923138 28.381651970564192  C 26.470818592164598 28.35447475306279  26.489833852859107 28.312641177103515  26.487907898609972 28.269102338511857  L 26.435353753066227 27.317546295993466  C 26.435285619172333 27.31578815224283  26.435251542640543 27.314028853790887  26.435251542640543 27.312269390328524  C 26.435251542640543 27.237010220326226  26.496261154322617 27.176000608644145  26.57152032432493 27.176000608644145  Z " stroke-width="0" stroke-dasharray="0" stroke="rgba(255, 255, 255, 0)" fill="none" transform="matrix(1 0 0 1 303 629 )" class="stroke" mask="url(#Clip1492)" />
    <path d="M 20.95251205233033 28.42443944399018  C 21.005996369582984 28.33002796402289  21.14970645952575 28.336074014717894  21.19063358953393 28.439787113654944  L 21.553861978740798 29.31227934587079  C 21.570699158669193 29.352910162491384  21.606907815374203 29.382296902646573  21.65013376941946 29.39041298446442  L 22.577970662305802 29.58667721995093  C 22.685404415372034 29.607140801308248  22.720750580539654 29.74573497955845  22.636570891251015 29.82014796402288  L 21.91383479967293 30.45358848732623  C 21.88861594349284 30.489656136271435  21.87558001171524 30.532837642379633  21.876628291087485 30.576834995911682  L 21.9780159934587 31.524205298446432  C 21.978410587737194 31.528423969570582  21.978608206940635 31.532658749225405  21.978608206940635 31.536895834390748  C 21.978608206940635 31.612155004393045  21.917598595258568 31.673164616075127  21.842339425256252 31.673164616075127  C 21.818095575175374 31.673164616075127  21.794290664676947 31.666696688529996  21.773380278004897 31.654428029435806  L 20.963208928863445 31.155395944399004  C 20.924906037152894 31.132483719362057  20.878072775160316 31.128867915912906  20.836706852003264 31.145629239574802  L 19.96607493049877 31.533506917416176  C 19.948895120808434 31.541175445207998  19.930292529023127 31.545138793679186  19.911478912159538 31.545138793679186  C 19.837504023217846 31.545138793679186  19.777535527040975 31.48517029750232  19.777535527040975 31.41119540856063  C 19.777535527040975 31.400378616659452  19.778845798062072 31.389601649071793  19.78143771054783 31.379099983646753  L 20.002351267375303 30.449867833197047  C 20.011646709503456 30.40660295374191  19.99972300270687 30.36150023884224  19.970260670482414 30.328481668029426  L 19.333099493049872 29.620628160261646  C 19.258686508585438 29.536448470973  19.309845429272272 29.40483051512672  19.42053475061324 29.398319345870803  L 20.369300278004896 29.32158096484055  C 20.4134914440779 29.316226755323726  20.452851139135493 29.29107077520986  20.476268945216674 29.253214031071124  L 20.95251205233033 28.42443944399018  Z " stroke-width="0" stroke-dasharray="0" stroke="rgba(255, 255, 255, 0)" fill="none" transform="matrix(1 0 0 1 303 629 )" class="stroke" mask="url(#Clip1492)" />
    <path d="M 30.817813442354865 22.616971087489773  L 31.76192817661488 22.753239869174152  C 31.80513021624078 22.758519366421282  31.848274757074314 22.742987332206667  31.8781984627964 22.711382567457065  L 32.52512634505315 22.01376085036793  C 32.59953932951758 21.93237164349958  32.73766842191333 21.973763859362208  32.75673674570728 22.083523008994263  L 32.924165952575635 23.02438217497955  C 32.92649134914146 23.06158865085854  32.95625654946852 23.10158564186426  32.99625354047424 23.11646825838102  L 33.862234636140634 23.513647555192136  C 33.963622338511854 23.556900114472597  33.96501756336877 23.702935568274725  33.86688546197874 23.753164349959107  L 33.029739394930495 24.198246999182317  C 32.99113766148814 24.220570891251015  32.961372461161076 24.25684722812754  32.961372461161076 24.30149501226491  L 32.84510217497956 25.246539918233836  C 32.83207990188062 25.35629906786589  32.699066688470964 25.401411937857716  32.61814256745707 25.326998953393286  L 31.93354312346688 24.659607522485686  C 31.90260126897805 24.6268195613755  31.85584319824487 24.614230850510694  31.812622011447253 24.62705183973833  L 30.878273982011443 24.816339852820917  C 30.77130531479967 24.84005900245296  30.680614488961563 24.72704428454618  30.731308323793947 24.627981978740777  L 31.15127663123467 23.76758184791494  C 31.172707515983205 23.728245116357954  31.171823823938638 23.680526230677017  31.148951201962383 23.64200994276368  L 30.6838700572363 22.815560752248544  C 30.62899048242027 22.720219100572336  30.7085193458708 22.60394881439082  30.81781344235486 22.617436173344217  Z " stroke-width="0" stroke-dasharray="0" stroke="rgba(255, 255, 255, 0)" fill="none" transform="matrix(1 0 0 1 303 629 )" class="stroke" mask="url(#Clip1492)" />
    <path d="M 30.797814946852004 19.96135771054783  C 30.893475829611635 19.992581733486446  30.958199954221165 20.081792603642853  30.958199954221165 20.18242035378576  C 30.958199954221165 20.2070142840371  30.954298455963883 20.23145251661994  30.946640915780865 20.254823941128365  C 30.148057476652085 22.707006437047582  28.468838229859998 24.776121362239934  26.233508520032707 26.062292264922306  C 24.022235927847035 27.343257828522596  21.417450150833012 27.767292715417383  18.914061357318076 27.253830155355672  C 18.805766488202472 27.231729155631996  18.727982404506882 27.136467460951934  18.727982404506882 27.02594039247751  C 18.727982404506882 26.897486094983492  18.832115187379245 26.793353312111122  18.960569484873265 26.793353312111122  C 18.976190600354983 26.793353312111122  18.99177198024367 26.79492703034252  19.007077612428454 26.798050629599345  C 21.39911439169387 27.288818814237004  23.88809241853296 26.88364404173508  26.00096794766966 25.659531970564174  C 28.136835730924247 24.430683430232733  29.741335889211182 22.45368339982764  30.504348748977925 20.11064876533115  C 30.535572774941524 20.014987887505725  30.624783642665136 19.95026376764281  30.725411389056017 19.95026376764281  C 30.750005308878087 19.95026376764281  30.774443531230567 19.95416526259143  30.797814946852004 19.961822796402288  Z " stroke-width="0" stroke-dasharray="0" stroke="rgba(255, 255, 255, 0)" fill="none" transform="matrix(1 0 0 1 303 629 )" class="stroke" mask="url(#Clip1492)" />
    <path d="M 1.232141095666398 20.89524068683565  L 34.25941393295176 1.826913491414544  C 34.48185308961985 1.6984909262177297  34.76628246062569 1.7746996671361188  34.89471479967293 1.9971331807031873  L 40.940769779231395 12.468900376124282  C 41.06919233894366 12.691339541356712  40.99298358267364 12.975768915007535  40.770550057236306 13.104201242845448  L 7.743277187244484 32.17252843826655  C 7.520838029300836 32.300950975708446  7.236408680164616 32.22474222208341  7.107976353229766 32.00230871627146  L 1.061921373671304 21.530541520850363  C 0.9334988362294026 21.30810236290671  1.0097075898544476 21.02367301377049  1.232141095666398 20.89524068683565  Z " stroke-width="0" stroke-dasharray="0" stroke="rgba(255, 255, 255, 0)" fill="none" transform="matrix(1 0 0 1 303 629 )" class="stroke" mask="url(#Clip1492)" />
    <path d="M 39.902243565004085 12.531686345053132  L 34.32126973017171 2.8649746197874038  L 2.0995174161897014 21.468220637775943  L 7.680491251022081 31.134932363041685  L 39.902243565004085 12.531686345053132  Z " stroke-width="0" stroke-dasharray="0" stroke="rgba(255, 255, 255, 0)" fill="none" transform="matrix(1 0 0 1 303 629 )" class="stroke" mask="url(#Clip1492)" />
    <path d="M 27.27436013082584 9.2393768765331  L 27.948727816843828 8.850569026982825  C 28.19150017988553 9.271002387571542  28.472874276369584 9.775150351594434  28.79657076042518 10.352316042518382  C 28.81893167720601 10.392220690084514  28.848962807811542 10.42730971438995  28.88493615699101 10.455564088307426  L 30.8210690106296 9.33797406377758  L 31.21034191332788 10.012341749795581  L 29.39047937857727 11.06296006541291  C 30.70107807031889 12.529360948487323  32.16096778413737 13.416735764513476  33.74689452166803 13.719503581357316  L 33.57295417825021 14.505955813573166  C 32.02795460343418 14.141332199509392  30.69875267375307 13.361856189697448  29.570000686835648 12.177294488961564  C 29.744406116107935 12.898170269828285  29.828585805396568 13.612999999999985  29.82579532297629 14.311086802943578  C 30.274598626328704 14.418985641864253  30.798745085854456 14.590135502861813  31.40939666394113 14.827326901062946  L 31.214062567457074 15.57796788225673  C 30.74985631748742 15.366008208743153  30.27301788684832 15.182883604601443  29.786263450531486 15.029637187244475  C 29.71364409774754 15.689479360073364  29.558489522601295 16.33759733268994  29.324437841373673 16.958793818479137  L 28.56310001635323 16.712300801308245  C 29.23095653311529 14.838023777596064  29.214213638593616 13.117223515944389  28.52775385118561 11.561061978740796  L 26.66463875715454 12.636794668847088  L 26.275365821749794 11.962427015535553  L 28.1747572526574 10.865765658217484  C 27.79153036794767 10.168609026982821  27.496203859362225 9.62399898609975  27.27436013082584 9.2393768765331  Z " stroke-width="0" stroke-dasharray="0" stroke="rgba(255, 255, 255, 0)" fill="none" transform="matrix(1 0 0 1 303 629 )" class="stroke" mask="url(#Clip1492)" />
    <path d="M 17.724383777596078 17.265747375306617  C 18.044824693376945 16.346747015535556  18.090402649223225 15.421235519215031  17.854606508585444 14.493863712183156  L 18.54618217497956 14.200862567457065  C 18.613618937040066 14.452006377759602  18.66663820114473 14.711521668029434  18.69686845461979 14.964525821749788  L 22.00266528209321 13.055832804578898  C 23.58487136549469 15.79655604251839  24.516893998364676 17.5108451676206  24.81268559280458 18.190328699918226  C 25.09405968928864 18.878648798037602  24.908492297628783 19.41116673753065  24.241565952575634 19.79625390024529  C 24.045766802943582 19.909268618152083  23.703932134096483 20.08739470155355  23.23140968111202 20.34086394112836  L 22.716099787408016 19.81671748160261  C 23.075890018124532 19.63701879957047  23.431018414089962 19.448133909062307  23.7811356009812 19.25024863450531  C 24.136457596075225 19.045612919051507  24.222032542927227 18.724706917416185  24.04995251022077 18.2926465412919  C 23.87322168438267 17.85314485690924  23.09886155355683 16.444414031071133  21.74035950940311 14.058082681929676  L 18.746167064595262 15.786789304987735  C 18.729892541261137 16.392087326152094  18.626994724167538 16.991933079222576  18.440608765331156 17.568050106295985  L 17.724383777596078 17.265747375306617  Z " stroke-width="0" stroke-dasharray="0" stroke="rgba(255, 255, 255, 0)" fill="none" transform="matrix(1 0 0 1 303 629 )" class="stroke" mask="url(#Clip1492)" />
    <path d="M 27.285057007358947 17.662461586263277  C 27.273865937988745 16.577987455981614  27.1913685629129 15.495423082573353  27.03809890433361 14.421776124284534  L 27.77060173344235 14.31759793949304  C 27.947150758893606 15.395780424596708  28.05264150447588 16.484401464861833  28.086391823385117 17.57642158626328  L 27.285057007358947 17.662461586263277  Z " stroke-width="0" stroke-dasharray="0" stroke="rgba(255, 255, 255, 0)" fill="none" transform="matrix(1 0 0 1 303 629 )" class="stroke" mask="url(#Clip1492)" />
    <path d="M 18.938710678659035 22.433264039247746  C 18.90267133207011 21.355814225025995  18.793122600271317 20.282081309455975  18.61082845461979 19.219553295175785  L 19.339145543744888 19.10839888798037  C 19.529616886615845 20.17747575234327  19.655879985698075 21.257001957308375  19.71725651676206 22.341177955846277  L 18.938710678659035 22.433264039247746  Z " stroke-width="0" stroke-dasharray="0" stroke="rgba(255, 255, 255, 0)" fill="none" transform="matrix(1 0 0 1 303 629 )" class="stroke" mask="url(#Clip1492)" />
    <path d="M 13.026599084219136 17.89081645134914  L 14.784605821749796 20.935702730989362  L 10.289596500408834 23.53085556827473  L 11.440672346688473 25.52465844644317  C 11.599730106295995 25.800451578086665  11.817388094848734 25.85858672117743  12.092716107931317 25.69952896156991  L 15.71011731807032 23.61084951757971  C 15.84034004905969 23.535506361406377  15.93893723630417 23.42063133278822  15.990096156991008 23.275060932134096  C 16.04311542109567 23.09926024529844  15.86452425183974 22.622552085036787  15.468740212591989 21.836099852820922  L 16.268679771054785 21.66448490596892  C 16.709111627146363 22.62813304987735  16.899794897792315 23.24297033524121  16.84352006541292 23.49783479967293  C 16.761665772690108 23.75781517579722  16.579819067865905 23.978728699918236  16.29100366312347 24.16476117743254  L 12.288980376124288 26.475284317252658  C 11.672747865903517 26.831071398201132  11.18441265739984 26.687826394112832  10.81606835650041 26.049735077677838  L 8.6394885690924 22.279787244480772  L 9.335249975470159 21.877957154538024  L 9.908695044971385 22.8713704987735  L 13.70050165167621 20.68223349141455  L 12.704297825020443 18.95678243663123  L 7.919077874080135 21.719364480784947  L 7.538176418642685 21.05941432542926  L 13.026133998364681 17.89081645134914  Z " stroke-width="0" stroke-dasharray="0" stroke="rgba(255, 255, 255, 0)" fill="none" transform="matrix(1 0 0 1 303 629 )" class="stroke" mask="url(#Clip1492)" />
    <path d="M 18.924758233851183 17.63688212591987  C 19.08288582174979 17.02344009811938  19.120092330335236 16.450925200327063  19.035447555192153 15.920267604251833  L 19.686561144726085 15.708655666394108  C 19.712140605069504 15.886781749795574  19.730743843008995 16.0695586263287  19.74795185609158 16.233732297628777  L 21.69850220768602 15.107770825838102  L 22.037546361406378 15.694703254292719  L 20.892051512673753 16.356048634505314  L 21.243652853638594 16.965304955028614  L 22.599364415372037 16.182573376941946  L 22.938408569092395 16.769505772690096  L 21.582697007358952 17.552237350776778  L 22.29427116925593 18.78470240392477  L 22.86678606704824 18.454494783319703  L 22.360312706459524 17.576886672117737  L 22.947710188062146 17.23784248569092  L 23.780205461978746 18.680524219133275  L 20.764619264104663 20.42178806214227  L 19.931658937040066 18.979106328699913  L 20.526032641046605 18.635876434995907  L 21.032971087489784 19.51301949304988  L 21.6631560425184 19.148860964840566  L 20.951581880621422 17.91639591169256  L 19.443788781684383 18.78702780049059  L 19.104744627964024 18.200095404742427  L 20.612537726901063 17.329463483237944  L 20.260936385936223 16.720207195421096  L 19.739115322976286 17.02157975470155  C 19.71539617334423 17.24807427636958  19.675864300899427 17.46433700735895  19.63214665576451 17.67315846279641  L 18.924758233851183 17.63688212591987  Z " stroke-width="0" stroke-dasharray="0" stroke="rgba(255, 255, 255, 0)" fill="none" transform="matrix(1 0 0 1 303 629 )" class="stroke" mask="url(#Clip1492)" />
    <path d="M 16.54028716271464 18.462866263286998  L 16.75375941128373 17.71083002452984  C 17.37386218620338 17.768868150534843  17.98727609411071 17.88407787261349  18.586179165985286 18.054990089942763  L 18.383868847097304 18.809816778413733  C 17.894138381030256 18.647503450531474  17.279766181520852 18.538209386753877  16.54028716271464 18.462866263286998  Z " stroke-width="0" stroke-dasharray="0" stroke="rgba(255, 255, 255, 0)" fill="none" transform="matrix(1 0 0 1 303 629 )" class="stroke" mask="url(#Clip1492)" />
    <path d="M 24.80943002452985 13.659508127555185  L 25.022902273098943 12.907936974652486  C 25.699595355682757 12.990721406377759  26.30327067865904 13.115828258381029  26.827417138184796 13.286978119378574  L 26.625106852003274 14.041804840556011  C 26.149793916598533 13.871585151267368  25.546118593622246 13.746478299264098  24.80943002452985 13.659508127555185  Z " stroke-width="0" stroke-dasharray="0" stroke="rgba(255, 255, 255, 0)" fill="none" transform="matrix(1 0 0 1 303 629 )" class="stroke" mask="url(#Clip1492)" />
    <path d="M 24.033674668847098 11.79685811937857  L 24.24761200327065 11.04528696647587  C 24.862449288634508 11.10574750613246  25.4047339002453 11.208065380212588  25.893534194603436 11.351310384300888  L 25.691223908421915 12.106137072771872  C 25.25125713818479 11.963822240392474  24.697345478331975 11.85824883074406  24.033674668847098 11.79685811937857  Z " stroke-width="0" stroke-dasharray="0" stroke="rgba(255, 255, 255, 0)" fill="none" transform="matrix(1 0 0 1 303 629 )" class="stroke" mask="url(#Clip1492)" />
    <path d="M 15.557105609157807 16.642538642681927  L 15.770577857726899 15.890967489779229  C 16.437504235486507 15.940731185609152  17.03187793949305 16.03281723630417  17.539281471790677 16.17466698282911  L 17.33697118560916 16.929493704006532  C 16.871424955028615 16.792759836467695  16.284027473426 16.696953131643497  15.557105609157807 16.642538642681927  Z " stroke-width="0" stroke-dasharray="0" stroke="rgba(255, 255, 255, 0)" fill="none" transform="matrix(1 0 0 1 303 629 )" class="stroke" mask="url(#Clip1492)" />
    <path d="M 11.109069501226493 13.58602531479967  C 11.92806619971142 11.20139610999506  13.583699289369948 9.194477986866673  15.76918263286999 7.937149632052325  C 18.004545958452084 6.642223317769464  20.64109140974344 6.223405725765929  23.167693573180706 6.761889582992637  C 23.276787466512552 6.783287187100257  23.35547659273582 6.878909673114052  23.35547659273582 6.990082219292702  C 23.35547659273582 7.118510831125747  23.25136463220581 7.222622791655752  23.122936020372784 7.222622791655752  C 23.105443425730158 7.222622791655752  23.088006685156223 7.220649021334097  23.07095669664759 7.216738937040063  C 20.656779334729666 6.702177716512836  18.13753496928847 7.1024392427214025  16.001723205233034 8.339909926410456  C 13.913394994322413 9.541264408546894  12.331424980870157 11.458994093596601  11.549036271463613 13.737641766148812  C 11.516688069817963 13.8315110901857  11.4283396233488 13.894512668906827  11.329052886345053 13.894512668906827  C 11.200547752107816 13.894512668906827  11.096373757912469 13.790338674711478  11.096373757912469 13.661833540474248  C 11.096373757912469 13.636035045949555  11.100664200294839 13.610416158081293  11.109069501226493 13.58602531479967  Z " stroke-width="0" stroke-dasharray="0" stroke="rgba(255, 255, 255, 0)" fill="none" transform="matrix(1 0 0 1 303 629 )" class="stroke" mask="url(#Clip1492)" />
    <path d="M 12.62988484055601 2.500350973017163  C 17.71043133278822 -0.43338093213409934  23.859734325429265 -0.4705874080130883  28.934234766966476 2.2529278168438225  C 29.08755036758612 2.3331813239411474  29.183630299105683 2.49192174232401  29.183630299105683 2.6649717316183796  C 29.183630299105683 2.921828955284454  28.975406378045662 3.1300528763444646  28.718549154379602 3.1300528763444646  C 28.64012368330468 3.1300528763444646  28.562971739721025 3.1102207560319215  28.494267996729352 3.072400784955022  C 23.700676565821748 0.49957187244480394  17.894138413736712 0.5349180376124281  13.094966017988552 3.305406443172515  C 8.312536549468518 6.066593229762873  5.38159512673753 11.053658413736713  5.1950975633687655 16.471853834832373  C 5.186451427336787 16.72234118219106  4.980885484956019 16.920933975591936  4.73024896156991 16.920933975591936  C 4.473367274738081 16.920933975591936  4.265123522363897 16.712690223217763  4.265123522363897 16.45580853638593  C 4.265123522363897 16.450458909526787  4.265215815232535 16.445109680761163  4.265400359771055 16.439763237939488  C 4.4630598528209315 10.703917416189697  7.5665463614063775 5.423851087489766  12.62988484055601 2.499885887162705  Z " stroke-width="0" stroke-dasharray="0" stroke="rgba(255, 255, 255, 0)" fill="none" transform="matrix(1 0 0 1 303 629 )" class="stroke" mask="url(#Clip1492)" />
    <path d="M 20.67299826655765 1.8715612755519118  C 20.710204742436638 1.7692434341782501  20.852519574816032 1.7538957318070203  20.91484049059689 1.8492373834832279  L 21.424104333605882 2.6589436467702257  C 21.449218708094847 2.6961501226492146  21.48921569910057 2.720799443990188  21.53386348323794 2.7231248405559967  L 22.487279836467703 2.7617265739983594  C 22.597504071954212 2.764982142273098  22.656569386753883 2.898925527391654  22.584946884709733 2.9812449059689214  L 21.973365167620603 3.714677874080124  C 21.94342934547391 3.7482615727924298  21.93399961090761 3.795410270648034  21.948715878986096 3.8379243826655767  L 22.205905739983642 4.748088176614871  C 22.209584820421878 4.760516514773855  22.211453178978438 4.773410288465044  22.211453178978438 4.786371739860044  C 22.211453178978438 4.860860330388007  22.151068245385392 4.921245263981049  22.076579654857422 4.921245263981049  C 22.058366760424537 4.921245263981049  22.04034253672859 4.917556526714932  22.023593949304985 4.9104015044971305  L 21.147846148814388 4.551358855273904  C 21.107849157808666 4.532290531479958  21.058550580539652 4.541127064595244  21.02180915780867 4.565776385936218  L 20.22977592804579 5.091318070318877  C 20.134434276369582 5.152708781684382  20.013513197056422 5.083876762060498  20.02234976287817 4.972722387571537  L 20.083275388389207 4.029072739165983  C 20.0859855977608 3.9854118786002033  20.066593034631808 3.9433072955231268  20.03165138184792 3.9169881602616385  L 19.282870711365494 3.328195421095657  C 19.250175164256024 3.302823194666985  19.231044317583915 3.263761933612642  19.231044317583915 3.2223765657305563  C 19.231044317583915 3.1608632694697434  19.272942536267454 3.107257482300227  19.332634407195425 3.092399280457883  L 20.245123630417012 2.863114276369572  C 20.28791110384301 2.843580866721169  20.324187440719545 2.813350580539648  20.338139852820937 2.7682377105478224  L 20.67299826655765 1.8715612755519118  Z " stroke-width="0" stroke-dasharray="0" stroke="rgba(255, 255, 255, 0)" fill="none" transform="matrix(1 0 0 1 303 629 )" class="stroke" mask="url(#Clip1492)" />
    <path d="M 8.405087686017989 8.953351954210945  L 9.340830940310711 9.13333834832379  C 9.385013638593623 9.143570139002449  9.429196369582993 9.128687522485677  9.459426655764513 9.094736614881427  L 10.134724480784953 8.424554701553546  C 10.211927947669665 8.345955977105476  10.349591986917416 8.391533932951745  10.361219002452984 8.502688307440707  L 10.477489288634503 9.440291905151255  C 10.48446551103843 9.486800032706455  10.508649713818476 9.524006508585444  10.548181618969746 9.544005004088305  L 11.389978511856091 9.97932098119378  C 11.48857573180703 10.029549730171695  11.48997095666394 10.172794734260009  11.385792771872444 10.218837775960736  L 10.53004346688471 10.623458381030247  C 10.491010004953672 10.64266762580256  10.463399993413052 10.679250884722833  10.455630482420277 10.722055568274726  L 10.300293376941944 11.657333769419452  C 10.290404725249308 11.721793464686613  10.23495144232399 11.769388481295763  10.169737657383733 11.769388481295763  C 10.13296888532061 11.769388481295763  10.097864216381113 11.754061942550493  10.072868683565003 11.727095928045784  L 9.427336058871626 11.039240915780852  C 9.39292924362489 11.014764893617922  9.351401220807166 11.002339188628639  9.30920542927228 11.003894750613242  L 8.368811349141456 11.149930237121822  C 8.260447457072772 11.16853347506131  8.17719790678659 11.052263188879792  8.227426688470974 10.954131054783318  L 8.685066524938673 10.116984987735066  C 8.705074381119518 10.078417040529047  8.705420143220827 10.03260402409444  8.685996696647587 9.993738479149627  L 8.25812202780049 9.14450031071135  C 8.248958717759782 9.126011488548883  8.244191081510891 9.105655514306747  8.244191081510891 9.085020524705158  C 8.244191081510891 9.011045635763466  8.304159577687757 8.951077139586587  8.37813446662945 8.951077139586587  C 8.387188384041242 8.951077139586587  8.39621897247147 8.951995134324335  8.405087686017987 8.953817040065402  Z " stroke-width="0" stroke-dasharray="0" stroke="rgba(255, 255, 255, 0)" fill="none" transform="matrix(1 0 0 1 303 629 )" class="stroke" mask="url(#Clip1492)" />
    <path d="M 13.65585386753884 4.004888503679467  L 14.460444251839737 4.511826950122639  C 14.499045985282093 4.534150842191323  14.542763630417006 4.539731807031885  14.586946328699918 4.522988912510215  L 15.458043336058868 4.143017596075211  C 15.474719771010493 4.135766881535645  15.492709782871696 4.132025145707374  15.510894291224417 4.132025145707374  C 15.584098600691778 4.132025145707374  15.64344241877961 4.191368963795213  15.64344241877961 4.26457327326257  C 15.64344241877961 4.275492944890914  15.642093050372486 4.286370771854507  15.639424987735076 4.296959476696642  L 15.413860637775958 5.223401112019616  C 15.40269867538839 5.267118724448068  15.413860637775958 5.311766541291902  15.441765494685198 5.344322224039246  L 16.07520601798855 6.055896385936222  C 16.146828520032706 6.13821576451349  16.097529910057233 6.270298806214214  15.986840588716268 6.275879771054775  L 15.039005200327061 6.342386361406369  C 14.99556382562906 6.346381047969032  14.956661008922229 6.370933057897801  14.934361962387564 6.408427898609972  L 14.449282322158624 7.229761210138989  C 14.424728914497114 7.271105432943543  14.380203019591479 7.296448444965321  14.332117527110851 7.296448444965321  C 14.277274327192812 7.296448444965321  14.227775570682079 7.263570734305532  14.206509959116921 7.213018282910866  L 13.84839748160261 6.331224431725261  C 13.8302823908835 6.291698777477507  13.796342332456927 6.261642409750792  13.754916140637771 6.248439967293535  L 12.828474505314796 6.049850335241203  C 12.766430267112474 6.037305717709728  12.721821595103938 5.982775024684656  12.721821595103938 5.919475301753849  C 12.721821595103938 5.880763781462576  12.738686262372966 5.8439729046114905  12.768013965658213 5.8187049877350745  L 13.49586596892886 5.201077219950932  C 13.534002616516755 5.162475486508583  13.556326508585444 5.118292788225659  13.550745543744886 5.074575143090755  L 13.451683237939486 4.131855666394102  C 13.440521275551918 4.02163143090759  13.561907473425999 3.9444279640228928  13.655388781684378 4.004888503679467  Z " stroke-width="0" stroke-dasharray="0" stroke="rgba(255, 255, 255, 0)" fill="none" transform="matrix(1 0 0 1 303 629 )" class="stroke" mask="url(#Clip1492)" />
  </g>
</svg>