<?xml version="1.0" encoding="utf-8"?>
<svg version="1.1" xmlns:xlink="http://www.w3.org/1999/xlink" width="20px" height="16px" xmlns="http://www.w3.org/2000/svg">
  <defs>
    <pattern id="BGPattern" patternUnits="userSpaceOnUse" alignment="0 0" imageRepeat="None" />
    <mask fill="white" id="Clip16105">
      <path d="M 0.27522937499999856 8.578687382812504  L 6.965419882812501 4.711362031250005  L 7.445306992187501 5.529992929687495  L 5.384615390624997 6.715596328125002  L 6.344389570312497 8.381086796874996  L 8.715596328124999 7.026111484375008  L 9.1954833984375 7.844742421874997  L 1.8842625390624974 12.079040234375  L 1.404375429687498 11.260409296874997  L 3.7755822265624985 9.877205351562509  L 2.8158080468749986 8.211714882812501  L 0.755116445312499 9.397318281249994  L 0.27522937499999856 8.578687382812504  Z M 1.9124911718749988 8.860973906249995  C 2.3641496093749996 9.115031757812503  2.8158080468749986 9.369089648437495  3.2392378125000008 9.7078334375  L 2.7028934375 10.441778398437506  C 2.2230063671875016 10.074805937500003  1.7713479296875008 9.792519414062497  1.2914608203124995 9.566690195312503  L 1.9124911718749988 8.860973906249995  Z M 8.574453085937503 8.804516601562511  L 10.719830625 12.502470000000002  L 9.872971054687504 12.982357109375002  L 9.675370507812502 12.643613281249998  L 5.808045156250001 14.901905429687503  L 6.005645742187504 15.240649257812493  L 5.158786171875002 15.720536328125007  L 3.013408593750002 12.022582929687502  L 8.574453085937503 8.804516601562511  Z M 5.525758632812501 8.889202539062495  L 4.5377558203124995 7.195483398437503  L 3.6344389453124997 7.703599140625002  L 4.594213125 9.36908960937501  L 5.525758632812501 8.889202539062495  Z M 4.6506704296875 12.869442499999991  L 8.489767109374998 10.611150312500001  L 8.151023281250001 10.01834863281249  L 4.283697968749999 12.248412148437495  L 4.6506704296875 12.869442499999991  Z M 5.384615390625001 14.196189140624995  L 9.251940703124998 11.937896953125005  L 8.9131969140625 11.345095273437494  L 5.0458715625 13.575158789062499  L 5.384615390625001 14.196189140624995  Z M 6.316160898437499 6.3203951953125  L 7.2194777734375 6.094565976562507  C 7.3323923828125 6.687367656250004  7.388849687499999 7.251940703125001  7.360621015625 7.7600564453125  L 6.457304179687501 7.901199726562496  C 6.485532812499997 7.449541289062495  6.429075546875001 6.913196914062496  6.316160898437499 6.3203951953125  Z M 9.336626679687498 2.9611855859375  L 10.381086796875 2.791813671875005  C 10.522230039062496 3.9491883984374994  10.550458710937498 4.965419882812498  10.49400140625 5.812279453125001  C 10.7480592578125 5.614678906249992  11.030345781249999 5.417078320312498  11.284403671874998 5.219477773437504  C 11.284403671874998 4.8807339453125  11.284403671874998 4.485532812499997  11.256174999999999 4.090331679687495  L 12.187720546875 3.9491884374999984  C 12.187720546875 5.558221601562508  12.1312632421875 6.772053632812501  11.961891328124995 7.618913203125004  C 12.413549765624996 7.2237120703125015  12.836979531249995 6.828510937499999  13.260409296874997 6.348623867187499  L 13.712067734374997 7.1390260937500045  C 12.949894140624995 7.9294283593750094  12.215949179687495 8.606916015625004  11.4537755859375 9.171489062500001  L 10.776287929687495 8.522230078125006  C 10.889202539062495 8.38108683593751  10.973888476562497 8.211714921875  11.030345820312494 8.042342968750006  C 11.143260429687494 7.675370507812502  11.227946367187496 7.082568789062492  11.256174999999992 6.263937890625002  C 10.917431171874995 6.546224414062493  10.522230039062492 6.828510937499999  10.155257578124992 7.110797460937505  L 9.477769921874998 6.461538476562495  C 9.590684531249998 6.348623867187499  9.647141835937497 6.151023320312504  9.647141835937497 5.953422734374996  C 9.647141835937497 4.993648554687496  9.534227226562496 4.005645742187497  9.336626679687498 2.9611855859375  Z M 13.8814396484375 8.07057164062499  L 14.276640781249998 8.804516601562497  C 14.304869414062502 7.195483437500002  13.712067734374997 5.275935078125002  12.4417783984375 3.045871562499997  L 12.244177851562497 2.7353564062500055  L 11.510232890624998 3.1587861718750077  L 11.030345820312494 2.340155273437503  L 14.869442500000002 0.13832039062499746  L 15.179957656250004 0.6746647656249962  C 15.434015507812504 1.4086097265625028  15.659844726562504 2.086097382812497  15.829216640625003 2.6506704296874943  L 16.845448125000004 2.0578687499999972  L 17.127734648437503 2.5377558203124977  C 17.607621718750007 3.7515878515624905  17.776993632812506 4.908962578124999  17.692307695312508 5.981651367187496  C 18.341566679687507 6.151023281249991  19.019054335937504 6.235709218750003  19.72477062500001 6.263937890625002  L 19.61185601562501 7.3083980078124995  C 18.877911054687505 7.251940703125001  18.172194765625008 7.1390260937500045  17.522935781250006 6.941425546874996  C 17.325335234375004 7.731827812500001  16.958362734375005 8.465772773437493  16.478475664062508 9.143260390624988  L 15.546930117187507 8.635144687500002  C 16.026817187500008 7.957657031249994  16.337332382812505 7.2519407421875  16.534932968750006 6.546224414062493  C 15.857445312500005 6.207480585937503  15.20818632812501 5.812279453125001  14.615384609375006 5.304163710937502  C 15.236414960937505 7.026111484374994  15.434015507812507 8.550458710937505  15.208186328125002 9.848976718749995  L 14.220183476562504 9.651376132812487  L 14.304869453125004 8.973888515624992  C 13.740296406250003 9.651376171875  13.091037421875 10.357092460937494  12.272406484375004 11.034580117187488  L 11.651376132812501 10.244177851562483  C 12.554693007812503 9.51023289062499  13.288637968750002 8.776287929687498  13.8814396484375 8.07057164062499  Z M 16.619618906250004 5.642907539062492  C 16.732533515625004 4.8807339453125  16.647847539062504 4.118560312499994  16.3937896875 3.3281580859375026  L 15.236414960937502 3.977417070312498  C 15.067043046875 3.384615390625001  14.812985195312503 2.5377558203124977  14.4177840625 1.4650670312500012  L 13.091037421875 2.2272406640625064  L 13.260409296875004 2.5377558203124977  C 13.486238515625004 2.9047282812500015  13.655610429687503 3.2717007812500043  13.824982343750001 3.6104446093750084  C 14.643613242187502 4.513761484374996  15.575158789062506 5.191249140625004  16.619618906250004 5.642907539062492  Z " fill-rule="evenodd" />
    </mask>
  </defs>
  <g transform="matrix(1 0 0 1 -315 -250 )">
    <path d="M 0.27522937499999856 8.578687382812504  L 6.965419882812501 4.711362031250005  L 7.445306992187501 5.529992929687495  L 5.384615390624997 6.715596328125002  L 6.344389570312497 8.381086796874996  L 8.715596328124999 7.026111484375008  L 9.1954833984375 7.844742421874997  L 1.8842625390624974 12.079040234375  L 1.404375429687498 11.260409296874997  L 3.7755822265624985 9.877205351562509  L 2.8158080468749986 8.211714882812501  L 0.755116445312499 9.397318281249994  L 0.27522937499999856 8.578687382812504  Z M 1.9124911718749988 8.860973906249995  C 2.3641496093749996 9.115031757812503  2.8158080468749986 9.369089648437495  3.2392378125000008 9.7078334375  L 2.7028934375 10.441778398437506  C 2.2230063671875016 10.074805937500003  1.7713479296875008 9.792519414062497  1.2914608203124995 9.566690195312503  L 1.9124911718749988 8.860973906249995  Z M 8.574453085937503 8.804516601562511  L 10.719830625 12.502470000000002  L 9.872971054687504 12.982357109375002  L 9.675370507812502 12.643613281249998  L 5.808045156250001 14.901905429687503  L 6.005645742187504 15.240649257812493  L 5.158786171875002 15.720536328125007  L 3.013408593750002 12.022582929687502  L 8.574453085937503 8.804516601562511  Z M 5.525758632812501 8.889202539062495  L 4.5377558203124995 7.195483398437503  L 3.6344389453124997 7.703599140625002  L 4.594213125 9.36908960937501  L 5.525758632812501 8.889202539062495  Z M 4.6506704296875 12.869442499999991  L 8.489767109374998 10.611150312500001  L 8.151023281250001 10.01834863281249  L 4.283697968749999 12.248412148437495  L 4.6506704296875 12.869442499999991  Z M 5.384615390625001 14.196189140624995  L 9.251940703124998 11.937896953125005  L 8.9131969140625 11.345095273437494  L 5.0458715625 13.575158789062499  L 5.384615390625001 14.196189140624995  Z M 6.316160898437499 6.3203951953125  L 7.2194777734375 6.094565976562507  C 7.3323923828125 6.687367656250004  7.388849687499999 7.251940703125001  7.360621015625 7.7600564453125  L 6.457304179687501 7.901199726562496  C 6.485532812499997 7.449541289062495  6.429075546875001 6.913196914062496  6.316160898437499 6.3203951953125  Z M 9.336626679687498 2.9611855859375  L 10.381086796875 2.791813671875005  C 10.522230039062496 3.9491883984374994  10.550458710937498 4.965419882812498  10.49400140625 5.812279453125001  C 10.7480592578125 5.614678906249992  11.030345781249999 5.417078320312498  11.284403671874998 5.219477773437504  C 11.284403671874998 4.8807339453125  11.284403671874998 4.485532812499997  11.256174999999999 4.090331679687495  L 12.187720546875 3.9491884374999984  C 12.187720546875 5.558221601562508  12.1312632421875 6.772053632812501  11.961891328124995 7.618913203125004  C 12.413549765624996 7.2237120703125015  12.836979531249995 6.828510937499999  13.260409296874997 6.348623867187499  L 13.712067734374997 7.1390260937500045  C 12.949894140624995 7.9294283593750094  12.215949179687495 8.606916015625004  11.4537755859375 9.171489062500001  L 10.776287929687495 8.522230078125006  C 10.889202539062495 8.38108683593751  10.973888476562497 8.211714921875  11.030345820312494 8.042342968750006  C 11.143260429687494 7.675370507812502  11.227946367187496 7.082568789062492  11.256174999999992 6.263937890625002  C 10.917431171874995 6.546224414062493  10.522230039062492 6.828510937499999  10.155257578124992 7.110797460937505  L 9.477769921874998 6.461538476562495  C 9.590684531249998 6.348623867187499  9.647141835937497 6.151023320312504  9.647141835937497 5.953422734374996  C 9.647141835937497 4.993648554687496  9.534227226562496 4.005645742187497  9.336626679687498 2.9611855859375  Z M 13.8814396484375 8.07057164062499  L 14.276640781249998 8.804516601562497  C 14.304869414062502 7.195483437500002  13.712067734374997 5.275935078125002  12.4417783984375 3.045871562499997  L 12.244177851562497 2.7353564062500055  L 11.510232890624998 3.1587861718750077  L 11.030345820312494 2.340155273437503  L 14.869442500000002 0.13832039062499746  L 15.179957656250004 0.6746647656249962  C 15.434015507812504 1.4086097265625028  15.659844726562504 2.086097382812497  15.829216640625003 2.6506704296874943  L 16.845448125000004 2.0578687499999972  L 17.127734648437503 2.5377558203124977  C 17.607621718750007 3.7515878515624905  17.776993632812506 4.908962578124999  17.692307695312508 5.981651367187496  C 18.341566679687507 6.151023281249991  19.019054335937504 6.235709218750003  19.72477062500001 6.263937890625002  L 19.61185601562501 7.3083980078124995  C 18.877911054687505 7.251940703125001  18.172194765625008 7.1390260937500045  17.522935781250006 6.941425546874996  C 17.325335234375004 7.731827812500001  16.958362734375005 8.465772773437493  16.478475664062508 9.143260390624988  L 15.546930117187507 8.635144687500002  C 16.026817187500008 7.957657031249994  16.337332382812505 7.2519407421875  16.534932968750006 6.546224414062493  C 15.857445312500005 6.207480585937503  15.20818632812501 5.812279453125001  14.615384609375006 5.304163710937502  C 15.236414960937505 7.026111484374994  15.434015507812507 8.550458710937505  15.208186328125002 9.848976718749995  L 14.220183476562504 9.651376132812487  L 14.304869453125004 8.973888515624992  C 13.740296406250003 9.651376171875  13.091037421875 10.357092460937494  12.272406484375004 11.034580117187488  L 11.651376132812501 10.244177851562483  C 12.554693007812503 9.51023289062499  13.288637968750002 8.776287929687498  13.8814396484375 8.07057164062499  Z M 16.619618906250004 5.642907539062492  C 16.732533515625004 4.8807339453125  16.647847539062504 4.118560312499994  16.3937896875 3.3281580859375026  L 15.236414960937502 3.977417070312498  C 15.067043046875 3.384615390625001  14.812985195312503 2.5377558203124977  14.4177840625 1.4650670312500012  L 13.091037421875 2.2272406640625064  L 13.260409296875004 2.5377558203124977  C 13.486238515625004 2.9047282812500015  13.655610429687503 3.2717007812500043  13.824982343750001 3.6104446093750084  C 14.643613242187502 4.513761484374996  15.575158789062506 5.191249140625004  16.619618906250004 5.642907539062492  Z " fill-rule="nonzero" fill="rgba(255, 74, 74, 1)" stroke="none" transform="matrix(1 0 0 1 315 250 )" class="fill" />
    <path d="M 0.27522937499999856 8.578687382812504  L 6.965419882812501 4.711362031250005  L 7.445306992187501 5.529992929687495  L 5.384615390624997 6.715596328125002  L 6.344389570312497 8.381086796874996  L 8.715596328124999 7.026111484375008  L 9.1954833984375 7.844742421874997  L 1.8842625390624974 12.079040234375  L 1.404375429687498 11.260409296874997  L 3.7755822265624985 9.877205351562509  L 2.8158080468749986 8.211714882812501  L 0.755116445312499 9.397318281249994  L 0.27522937499999856 8.578687382812504  Z " stroke-width="0" stroke-dasharray="0" stroke="rgba(255, 255, 255, 0)" fill="none" transform="matrix(1 0 0 1 315 250 )" class="stroke" mask="url(#Clip16105)" />
    <path d="M 1.9124911718749988 8.860973906249995  C 2.3641496093749996 9.115031757812503  2.8158080468749986 9.369089648437495  3.2392378125000008 9.7078334375  L 2.7028934375 10.441778398437506  C 2.2230063671875016 10.074805937500003  1.7713479296875008 9.792519414062497  1.2914608203124995 9.566690195312503  L 1.9124911718749988 8.860973906249995  Z " stroke-width="0" stroke-dasharray="0" stroke="rgba(255, 255, 255, 0)" fill="none" transform="matrix(1 0 0 1 315 250 )" class="stroke" mask="url(#Clip16105)" />
    <path d="M 8.574453085937503 8.804516601562511  L 10.719830625 12.502470000000002  L 9.872971054687504 12.982357109375002  L 9.675370507812502 12.643613281249998  L 5.808045156250001 14.901905429687503  L 6.005645742187504 15.240649257812493  L 5.158786171875002 15.720536328125007  L 3.013408593750002 12.022582929687502  L 8.574453085937503 8.804516601562511  Z " stroke-width="0" stroke-dasharray="0" stroke="rgba(255, 255, 255, 0)" fill="none" transform="matrix(1 0 0 1 315 250 )" class="stroke" mask="url(#Clip16105)" />
    <path d="M 5.525758632812501 8.889202539062495  L 4.5377558203124995 7.195483398437503  L 3.6344389453124997 7.703599140625002  L 4.594213125 9.36908960937501  L 5.525758632812501 8.889202539062495  Z " stroke-width="0" stroke-dasharray="0" stroke="rgba(255, 255, 255, 0)" fill="none" transform="matrix(1 0 0 1 315 250 )" class="stroke" mask="url(#Clip16105)" />
    <path d="M 4.6506704296875 12.869442499999991  L 8.489767109374998 10.611150312500001  L 8.151023281250001 10.01834863281249  L 4.283697968749999 12.248412148437495  L 4.6506704296875 12.869442499999991  Z " stroke-width="0" stroke-dasharray="0" stroke="rgba(255, 255, 255, 0)" fill="none" transform="matrix(1 0 0 1 315 250 )" class="stroke" mask="url(#Clip16105)" />
    <path d="M 5.384615390625001 14.196189140624995  L 9.251940703124998 11.937896953125005  L 8.9131969140625 11.345095273437494  L 5.0458715625 13.575158789062499  L 5.384615390625001 14.196189140624995  Z " stroke-width="0" stroke-dasharray="0" stroke="rgba(255, 255, 255, 0)" fill="none" transform="matrix(1 0 0 1 315 250 )" class="stroke" mask="url(#Clip16105)" />
    <path d="M 6.316160898437499 6.3203951953125  L 7.2194777734375 6.094565976562507  C 7.3323923828125 6.687367656250004  7.388849687499999 7.251940703125001  7.360621015625 7.7600564453125  L 6.457304179687501 7.901199726562496  C 6.485532812499997 7.449541289062495  6.429075546875001 6.913196914062496  6.316160898437499 6.3203951953125  Z " stroke-width="0" stroke-dasharray="0" stroke="rgba(255, 255, 255, 0)" fill="none" transform="matrix(1 0 0 1 315 250 )" class="stroke" mask="url(#Clip16105)" />
    <path d="M 9.336626679687498 2.9611855859375  L 10.381086796875 2.791813671875005  C 10.522230039062496 3.9491883984374994  10.550458710937498 4.965419882812498  10.49400140625 5.812279453125001  C 10.7480592578125 5.614678906249992  11.030345781249999 5.417078320312498  11.284403671874998 5.219477773437504  C 11.284403671874998 4.8807339453125  11.284403671874998 4.485532812499997  11.256174999999999 4.090331679687495  L 12.187720546875 3.9491884374999984  C 12.187720546875 5.558221601562508  12.1312632421875 6.772053632812501  11.961891328124995 7.618913203125004  C 12.413549765624996 7.2237120703125015  12.836979531249995 6.828510937499999  13.260409296874997 6.348623867187499  L 13.712067734374997 7.1390260937500045  C 12.949894140624995 7.9294283593750094  12.215949179687495 8.606916015625004  11.4537755859375 9.171489062500001  L 10.776287929687495 8.522230078125006  C 10.889202539062495 8.38108683593751  10.973888476562497 8.211714921875  11.030345820312494 8.042342968750006  C 11.143260429687494 7.675370507812502  11.227946367187496 7.082568789062492  11.256174999999992 6.263937890625002  C 10.917431171874995 6.546224414062493  10.522230039062492 6.828510937499999  10.155257578124992 7.110797460937505  L 9.477769921874998 6.461538476562495  C 9.590684531249998 6.348623867187499  9.647141835937497 6.151023320312504  9.647141835937497 5.953422734374996  C 9.647141835937497 4.993648554687496  9.534227226562496 4.005645742187497  9.336626679687498 2.9611855859375  Z " stroke-width="0" stroke-dasharray="0" stroke="rgba(255, 255, 255, 0)" fill="none" transform="matrix(1 0 0 1 315 250 )" class="stroke" mask="url(#Clip16105)" />
    <path d="M 13.8814396484375 8.07057164062499  L 14.276640781249998 8.804516601562497  C 14.304869414062502 7.195483437500002  13.712067734374997 5.275935078125002  12.4417783984375 3.045871562499997  L 12.244177851562497 2.7353564062500055  L 11.510232890624998 3.1587861718750077  L 11.030345820312494 2.340155273437503  L 14.869442500000002 0.13832039062499746  L 15.179957656250004 0.6746647656249962  C 15.434015507812504 1.4086097265625028  15.659844726562504 2.086097382812497  15.829216640625003 2.6506704296874943  L 16.845448125000004 2.0578687499999972  L 17.127734648437503 2.5377558203124977  C 17.607621718750007 3.7515878515624905  17.776993632812506 4.908962578124999  17.692307695312508 5.981651367187496  C 18.341566679687507 6.151023281249991  19.019054335937504 6.235709218750003  19.72477062500001 6.263937890625002  L 19.61185601562501 7.3083980078124995  C 18.877911054687505 7.251940703125001  18.172194765625008 7.1390260937500045  17.522935781250006 6.941425546874996  C 17.325335234375004 7.731827812500001  16.958362734375005 8.465772773437493  16.478475664062508 9.143260390624988  L 15.546930117187507 8.635144687500002  C 16.026817187500008 7.957657031249994  16.337332382812505 7.2519407421875  16.534932968750006 6.546224414062493  C 15.857445312500005 6.207480585937503  15.20818632812501 5.812279453125001  14.615384609375006 5.304163710937502  C 15.236414960937505 7.026111484374994  15.434015507812507 8.550458710937505  15.208186328125002 9.848976718749995  L 14.220183476562504 9.651376132812487  L 14.304869453125004 8.973888515624992  C 13.740296406250003 9.651376171875  13.091037421875 10.357092460937494  12.272406484375004 11.034580117187488  L 11.651376132812501 10.244177851562483  C 12.554693007812503 9.51023289062499  13.288637968750002 8.776287929687498  13.8814396484375 8.07057164062499  Z " stroke-width="0" stroke-dasharray="0" stroke="rgba(255, 255, 255, 0)" fill="none" transform="matrix(1 0 0 1 315 250 )" class="stroke" mask="url(#Clip16105)" />
    <path d="M 16.619618906250004 5.642907539062492  C 16.732533515625004 4.8807339453125  16.647847539062504 4.118560312499994  16.3937896875 3.3281580859375026  L 15.236414960937502 3.977417070312498  C 15.067043046875 3.384615390625001  14.812985195312503 2.5377558203124977  14.4177840625 1.4650670312500012  L 13.091037421875 2.2272406640625064  L 13.260409296875004 2.5377558203124977  C 13.486238515625004 2.9047282812500015  13.655610429687503 3.2717007812500043  13.824982343750001 3.6104446093750084  C 14.643613242187502 4.513761484374996  15.575158789062506 5.191249140625004  16.619618906250004 5.642907539062492  Z " stroke-width="0" stroke-dasharray="0" stroke="rgba(255, 255, 255, 0)" fill="none" transform="matrix(1 0 0 1 315 250 )" class="stroke" mask="url(#Clip16105)" />
  </g>
</svg>