<?xml version="1.0" encoding="utf-8"?>
<svg version="1.1" xmlns:xlink="http://www.w3.org/1999/xlink" width="40px" height="40px" xmlns="http://www.w3.org/2000/svg">
  <defs>
    <pattern id="BGPattern" patternUnits="userSpaceOnUse" alignment="0 0" imageRepeat="None" />
    <mask fill="white" id="Clip3588">
      <path d="M 26.7607621875 37.007762890625  C 27.353563867187496 36.44318984374999  28.002822890624998 35.93507410156249  28.7085391796875 35.51164433593749  C 29.442484140624998 35.11644320312499  30.204657734374997 34.805928046874996  30.99506 34.580098789062504  C 31.7290049609375 34.354269570312496  32.434721249999996 34.071983046875005  33.140437539062496 33.7050105859375  C 33.47918136718749 33.507410039062506  33.7896965234375 33.2533521484375  34.071983046875 32.971065624999994  C 34.834156640625 32.124206054687505  35.116443164062495 30.8821453515625  35.39872972656249 29.668313320312492  C 35.6245589453125 28.059280156249997  36.302046601562495 26.5631616015625  37.318278046874994 25.321100898437493  C 38.0522230078125 24.276640781249995  38.757939296874994 23.288637929687496  38.87085390625 22.159491875  C 38.983768515625 21.058574453125004  38.5038814453125 19.929428359374995  37.995765703125 18.7720536328125  C 37.657021875 18.038108671874994  37.3747353515625 17.275935078125002  37.1771348046875 16.485532812499997  C 37.0359915625 15.723359218750005  36.979534257812496 14.932956953125  37.007762890625 14.142554687499995  C 37.007762890625 12.900493984375004  36.979534257812496 11.630204648437498  36.3867325390625 10.6139731640625  C 35.793930820312504 9.597741679687502  34.6930133984375 8.948482695312492  33.6203246484375 8.327452382812496  C 32.9428369921875 7.960479921874992  32.293578007812506 7.508821484375005  31.6725476171875 7.000705703124993  C 31.079745937500004 6.436132656249995  30.5716301953125 5.8151023046875  30.091743125 5.137614687500005  C 29.329569531249998 4.121383203124992  28.595624570312495 3.1616090234374923  27.5793930859375 2.681721953124992  C 26.5913902734375 2.2018348828124914  25.405786875 2.3147494921875023  24.1072688671875 2.4558927343749986  C 22.526464335937497 2.7099505859374915  20.889202539062495 2.512350039062497  19.393083984375 1.9195483593749998  C 18.2074805859375 1.552575898437496  16.9936485546875 1.1856033984374932  15.8645024609375 1.4114326171875007  C 15.469301328125 1.4961185546874987  15.1023288671875 1.637261835937494  14.763585039062498 1.8630910546875015  C 14.1143260546875 2.2865208203125036  13.493295703125 2.7381792578125044  12.928722656249999 3.274523632812503  C 11.743119257812499 4.460127031249996  10.275229374999997 5.3069866015625  8.666196171874997 5.730416367187502  C 7.932251210937498 5.956245585937495  7.226534921874999 6.238532109375001  6.520818632812499 6.605504570312505  C 6.182074804687499 6.803105117187499  5.871559648437499 7.057163007812505  5.589273124999998 7.339449531249997  C 4.827099531249998 8.1863091015625  4.544813007812499 9.428369804687492  4.262526445312498 10.642201835937499  C 4.121383203124998 11.432604101562504  3.895553984374999 12.194777695312496  3.5850388281249983 12.928722656250002  C 3.2180663671874985 13.662667617187495  2.7946365624999987 14.340155273437503  2.3147494531249984 14.989414257812498  C 1.5808044921874986 16.033874374999996  0.8750882031249985 17.02187722656251  0.7621735937499985 18.151023281250005  C 0.6492589843749985 19.280169375  1.1291460546874985 20.381086796874996  1.6372618359374984 21.538461523437505  C 1.9760056640625001 22.272406484374997  2.2582921484375 23.034580117187502  2.455892734375 23.824982343749994  C 2.5970359765625 24.5871559375  2.6534932812500003 25.377558203125005  2.6252646484375 26.167960468749996  C 2.6252646484375 27.410021171875  2.6534932812500003 28.680310507812493  3.246295 29.69654199218749  C 3.8390967187500005 30.71277347656249  4.940014140624999 31.3620324609375  6.012702890625 31.983062812499995  C 6.690190546875 32.3500352734375  7.33944953125 32.8016937109375  7.9604798828125 33.309809453125  C 8.5532815625 33.874382499999996  9.0613973046875 34.49541285156249  9.541284414062499 35.1729005078125  C 10.3034580078125 36.1891319921875  11.037402968749998 37.1771348046875  12.053634453125 37.6287932421875  C 13.0980945703125 38.080451679687485  14.28369796875 37.96753707031249  15.5822159375 37.85462246093749  C 17.16302046875 37.600564609375  18.800282265625 37.769936523437494  20.3246294921875 38.36273816406249  C 21.510232890625 38.729710624999996  22.69583625 39.1249117578125  23.853211015625 38.87085390624999  C 24.248412148437502 38.78616796874999  24.615384609375003 38.64502468749998  24.9541284375 38.41919546874999  C 25.603387421875002 38.02399433593749  26.2244177734375 37.544107265625  26.7607621875 37.007762890625  Z M 34.43895554687499 33.30980945312501  C 34.128440390624995 33.592095976562504  33.76146789062499 33.87438250000001  33.3662667578125 34.10021171875  C 32.66055046875 34.46718417968751  31.9266055078125 34.777699375  31.164431914062497 35.00352859374999  C 29.611856054687497 35.39872972656249  28.2004234375 36.217360625  27.071277343749998 37.37473535156249  C 26.4784756640625 37.91107972656249  25.857445312499998 38.41919546874999  25.179957656249996 38.842625273437505  C 24.784756523437498 39.0684544921875  24.389555390625 39.23782640625001  23.937896953124998 39.322512343750006  C 22.69583625 39.5765701953125  21.4255469140625 39.181369101562495  20.183486249999998 38.78616796874999  C 19.4495412890625 38.5321101171875  18.715596328124995 38.334509531250006  17.953422734374996 38.24982355468751  C 17.191249140624997 38.19336625  16.400846874999996 38.22159492187501  15.638673242187497 38.334509531250006  C 14.368383906249997 38.447424140625  13.041637265624997 38.5885673828125  11.884262539062497 38.080451640625  C 10.755116445312499 37.5723358984375  9.964714179687498 36.499647109375005  9.202540585937498 35.483415664062505  C 8.750882148437498 34.83415667968751  8.242766406249997 34.241354960937514  7.678193359374998 33.705010585937515  C 7.1136203124999975 33.225123515625  6.464361328124997 32.80169371093751  5.815102343749997 32.43472125000001  C 4.685956249999998 31.785462265625  3.5285815234374973 31.107974609375006  2.879322499999997 29.97882851562501  C 2.2300634765624974 28.849682421875002  2.2300635156249973 27.4947071484375  2.2018348437499973 26.19618914062501  C 2.2300634765624974 25.434015546875003  2.173606210937497 24.70007058593751  2.0324629687499973 23.937896953125005  C 1.8348624218749974 23.175723359375013  1.5808045312499974 22.441778398437506  1.2420607031249973 21.736062109375013  C 0.7339449609374973 20.550458710937505  0.2258292187499973 19.336626679687512  0.3387438281249974 18.094565976562507  C 0.47988707031249744 16.8525052734375  1.2420607031249973 15.751587851562505  1.9760056640624972 14.707127734375007  C 2.455892734374997 14.086097382812511  2.8510938671874975 13.436838398437501  3.189837695312497 12.731122070312509  C 3.472124218749997 12.025405781250015  3.697953437499997 11.291460820312508  3.8108680468749974 10.529287226562502  C 4.093154570312497 9.258997890625011  4.3754410937499975 7.960479882812507  5.222300624999997 7.000705703125007  C 5.5328157812499965 6.661961875000003  5.871559609374996 6.40790402343751  6.266760781249997 6.1820748046875025  C 6.972477070312497 5.815102343750013  7.706422031249998 5.504587148437508  8.496824257812497 5.278757929687515  C 10.049400117187497 4.883556796875013  11.460832734374996 4.064925898437508  12.589978828124996 2.9075511718750136  C 13.182780507812497 2.371206796875015  13.803810859374996 1.8630910546875015  14.481298515624996 1.4396612500000003  C 14.876499648437495 1.213832031250007  15.271700781249997 1.044460117187512  15.723359218749998 0.9597741796875141  C 16.965419921874997 0.705716328125007  18.235709257812495 1.1009174218750104  19.477769921874998 1.4961185546875129  C 20.211714882812494 1.7501764062500058  20.945659843749993 1.9477769921875137  21.707833437499996 2.0606916015625103  C 22.47000703125 2.1171489062500086  23.260409296874997 2.08892023437501  24.022582929687495 1.9760056640625123  C 25.292872265624993 1.8630910546875015  26.619618906249993 1.7219478125000052  27.7769936328125 2.2300635156250053  C 28.9061397265625 2.7381792578125044  29.6965419921875 3.7826393750000022  30.458715585937494 4.8270994921875  C 30.910374023437495 5.47635847656251  31.418489765624994 6.069160195312506  31.983062812499995 6.605504570312505  C 32.57586449218749 7.085391640625005  33.196894843749995 7.508821445312506  33.84615382812499 7.875793945312509  C 34.97529992187499 8.525052929687504  36.132674648437494 9.202540585937513  36.781933671874995 10.359915312500007  C 37.43119265624999 11.489061406250002  37.459421328124996 12.844036679687505  37.459421328124996 14.14255468750001  C 37.4311926953125 14.904728281250016  37.487649960937496 15.638673242187508  37.6287932421875 16.400846875000013  C 37.82639378906249 17.163020468750005  38.08045167968749 17.896965429687512  38.41919546874999 18.602681718750006  C 38.92731121093749 19.788285117187513  39.435426953124995 21.002117148437506  39.32251234374999 22.24417785156251  C 39.181369101562495 23.486238554687503  38.41919546874999 24.587155976562514  37.685250546875 25.63161609375001  C 37.20536347656249 26.252646445312507  36.810162343749994 26.901905429687503  36.47141847656249 27.60762171875001  C 36.18913195312499 28.313338007812504  35.96330273437499 29.04728296875001  35.850388124999995 29.809456601562516  C 35.56810160156249 31.079745937500007  35.28581507812499 32.37826394531251  34.43895554687499 33.30980945312501  Z " fill-rule="evenodd" />
    </mask>
  </defs>
  <g transform="matrix(1 0 0 1 -305 -238 )">
    <path d="M 26.7607621875 37.007762890625  C 27.353563867187496 36.44318984374999  28.002822890624998 35.93507410156249  28.7085391796875 35.51164433593749  C 29.442484140624998 35.11644320312499  30.204657734374997 34.805928046874996  30.99506 34.580098789062504  C 31.7290049609375 34.354269570312496  32.434721249999996 34.071983046875005  33.140437539062496 33.7050105859375  C 33.47918136718749 33.507410039062506  33.7896965234375 33.2533521484375  34.071983046875 32.971065624999994  C 34.834156640625 32.124206054687505  35.116443164062495 30.8821453515625  35.39872972656249 29.668313320312492  C 35.6245589453125 28.059280156249997  36.302046601562495 26.5631616015625  37.318278046874994 25.321100898437493  C 38.0522230078125 24.276640781249995  38.757939296874994 23.288637929687496  38.87085390625 22.159491875  C 38.983768515625 21.058574453125004  38.5038814453125 19.929428359374995  37.995765703125 18.7720536328125  C 37.657021875 18.038108671874994  37.3747353515625 17.275935078125002  37.1771348046875 16.485532812499997  C 37.0359915625 15.723359218750005  36.979534257812496 14.932956953125  37.007762890625 14.142554687499995  C 37.007762890625 12.900493984375004  36.979534257812496 11.630204648437498  36.3867325390625 10.6139731640625  C 35.793930820312504 9.597741679687502  34.6930133984375 8.948482695312492  33.6203246484375 8.327452382812496  C 32.9428369921875 7.960479921874992  32.293578007812506 7.508821484375005  31.6725476171875 7.000705703124993  C 31.079745937500004 6.436132656249995  30.5716301953125 5.8151023046875  30.091743125 5.137614687500005  C 29.329569531249998 4.121383203124992  28.595624570312495 3.1616090234374923  27.5793930859375 2.681721953124992  C 26.5913902734375 2.2018348828124914  25.405786875 2.3147494921875023  24.1072688671875 2.4558927343749986  C 22.526464335937497 2.7099505859374915  20.889202539062495 2.512350039062497  19.393083984375 1.9195483593749998  C 18.2074805859375 1.552575898437496  16.9936485546875 1.1856033984374932  15.8645024609375 1.4114326171875007  C 15.469301328125 1.4961185546874987  15.1023288671875 1.637261835937494  14.763585039062498 1.8630910546875015  C 14.1143260546875 2.2865208203125036  13.493295703125 2.7381792578125044  12.928722656249999 3.274523632812503  C 11.743119257812499 4.460127031249996  10.275229374999997 5.3069866015625  8.666196171874997 5.730416367187502  C 7.932251210937498 5.956245585937495  7.226534921874999 6.238532109375001  6.520818632812499 6.605504570312505  C 6.182074804687499 6.803105117187499  5.871559648437499 7.057163007812505  5.589273124999998 7.339449531249997  C 4.827099531249998 8.1863091015625  4.544813007812499 9.428369804687492  4.262526445312498 10.642201835937499  C 4.121383203124998 11.432604101562504  3.895553984374999 12.194777695312496  3.5850388281249983 12.928722656250002  C 3.2180663671874985 13.662667617187495  2.7946365624999987 14.340155273437503  2.3147494531249984 14.989414257812498  C 1.5808044921874986 16.033874374999996  0.8750882031249985 17.02187722656251  0.7621735937499985 18.151023281250005  C 0.6492589843749985 19.280169375  1.1291460546874985 20.381086796874996  1.6372618359374984 21.538461523437505  C 1.9760056640625001 22.272406484374997  2.2582921484375 23.034580117187502  2.455892734375 23.824982343749994  C 2.5970359765625 24.5871559375  2.6534932812500003 25.377558203125005  2.6252646484375 26.167960468749996  C 2.6252646484375 27.410021171875  2.6534932812500003 28.680310507812493  3.246295 29.69654199218749  C 3.8390967187500005 30.71277347656249  4.940014140624999 31.3620324609375  6.012702890625 31.983062812499995  C 6.690190546875 32.3500352734375  7.33944953125 32.8016937109375  7.9604798828125 33.309809453125  C 8.5532815625 33.874382499999996  9.0613973046875 34.49541285156249  9.541284414062499 35.1729005078125  C 10.3034580078125 36.1891319921875  11.037402968749998 37.1771348046875  12.053634453125 37.6287932421875  C 13.0980945703125 38.080451679687485  14.28369796875 37.96753707031249  15.5822159375 37.85462246093749  C 17.16302046875 37.600564609375  18.800282265625 37.769936523437494  20.3246294921875 38.36273816406249  C 21.510232890625 38.729710624999996  22.69583625 39.1249117578125  23.853211015625 38.87085390624999  C 24.248412148437502 38.78616796874999  24.615384609375003 38.64502468749998  24.9541284375 38.41919546874999  C 25.603387421875002 38.02399433593749  26.2244177734375 37.544107265625  26.7607621875 37.007762890625  Z M 34.43895554687499 33.30980945312501  C 34.128440390624995 33.592095976562504  33.76146789062499 33.87438250000001  33.3662667578125 34.10021171875  C 32.66055046875 34.46718417968751  31.9266055078125 34.777699375  31.164431914062497 35.00352859374999  C 29.611856054687497 35.39872972656249  28.2004234375 36.217360625  27.071277343749998 37.37473535156249  C 26.4784756640625 37.91107972656249  25.857445312499998 38.41919546874999  25.179957656249996 38.842625273437505  C 24.784756523437498 39.0684544921875  24.389555390625 39.23782640625001  23.937896953124998 39.322512343750006  C 22.69583625 39.5765701953125  21.4255469140625 39.181369101562495  20.183486249999998 38.78616796874999  C 19.4495412890625 38.5321101171875  18.715596328124995 38.334509531250006  17.953422734374996 38.24982355468751  C 17.191249140624997 38.19336625  16.400846874999996 38.22159492187501  15.638673242187497 38.334509531250006  C 14.368383906249997 38.447424140625  13.041637265624997 38.5885673828125  11.884262539062497 38.080451640625  C 10.755116445312499 37.5723358984375  9.964714179687498 36.499647109375005  9.202540585937498 35.483415664062505  C 8.750882148437498 34.83415667968751  8.242766406249997 34.241354960937514  7.678193359374998 33.705010585937515  C 7.1136203124999975 33.225123515625  6.464361328124997 32.80169371093751  5.815102343749997 32.43472125000001  C 4.685956249999998 31.785462265625  3.5285815234374973 31.107974609375006  2.879322499999997 29.97882851562501  C 2.2300634765624974 28.849682421875002  2.2300635156249973 27.4947071484375  2.2018348437499973 26.19618914062501  C 2.2300634765624974 25.434015546875003  2.173606210937497 24.70007058593751  2.0324629687499973 23.937896953125005  C 1.8348624218749974 23.175723359375013  1.5808045312499974 22.441778398437506  1.2420607031249973 21.736062109375013  C 0.7339449609374973 20.550458710937505  0.2258292187499973 19.336626679687512  0.3387438281249974 18.094565976562507  C 0.47988707031249744 16.8525052734375  1.2420607031249973 15.751587851562505  1.9760056640624972 14.707127734375007  C 2.455892734374997 14.086097382812511  2.8510938671874975 13.436838398437501  3.189837695312497 12.731122070312509  C 3.472124218749997 12.025405781250015  3.697953437499997 11.291460820312508  3.8108680468749974 10.529287226562502  C 4.093154570312497 9.258997890625011  4.3754410937499975 7.960479882812507  5.222300624999997 7.000705703125007  C 5.5328157812499965 6.661961875000003  5.871559609374996 6.40790402343751  6.266760781249997 6.1820748046875025  C 6.972477070312497 5.815102343750013  7.706422031249998 5.504587148437508  8.496824257812497 5.278757929687515  C 10.049400117187497 4.883556796875013  11.460832734374996 4.064925898437508  12.589978828124996 2.9075511718750136  C 13.182780507812497 2.371206796875015  13.803810859374996 1.8630910546875015  14.481298515624996 1.4396612500000003  C 14.876499648437495 1.213832031250007  15.271700781249997 1.044460117187512  15.723359218749998 0.9597741796875141  C 16.965419921874997 0.705716328125007  18.235709257812495 1.1009174218750104  19.477769921874998 1.4961185546875129  C 20.211714882812494 1.7501764062500058  20.945659843749993 1.9477769921875137  21.707833437499996 2.0606916015625103  C 22.47000703125 2.1171489062500086  23.260409296874997 2.08892023437501  24.022582929687495 1.9760056640625123  C 25.292872265624993 1.8630910546875015  26.619618906249993 1.7219478125000052  27.7769936328125 2.2300635156250053  C 28.9061397265625 2.7381792578125044  29.6965419921875 3.7826393750000022  30.458715585937494 4.8270994921875  C 30.910374023437495 5.47635847656251  31.418489765624994 6.069160195312506  31.983062812499995 6.605504570312505  C 32.57586449218749 7.085391640625005  33.196894843749995 7.508821445312506  33.84615382812499 7.875793945312509  C 34.97529992187499 8.525052929687504  36.132674648437494 9.202540585937513  36.781933671874995 10.359915312500007  C 37.43119265624999 11.489061406250002  37.459421328124996 12.844036679687505  37.459421328124996 14.14255468750001  C 37.4311926953125 14.904728281250016  37.487649960937496 15.638673242187508  37.6287932421875 16.400846875000013  C 37.82639378906249 17.163020468750005  38.08045167968749 17.896965429687512  38.41919546874999 18.602681718750006  C 38.92731121093749 19.788285117187513  39.435426953124995 21.002117148437506  39.32251234374999 22.24417785156251  C 39.181369101562495 23.486238554687503  38.41919546874999 24.587155976562514  37.685250546875 25.63161609375001  C 37.20536347656249 26.252646445312507  36.810162343749994 26.901905429687503  36.47141847656249 27.60762171875001  C 36.18913195312499 28.313338007812504  35.96330273437499 29.04728296875001  35.850388124999995 29.809456601562516  C 35.56810160156249 31.079745937500007  35.28581507812499 32.37826394531251  34.43895554687499 33.30980945312501  Z " fill-rule="nonzero" fill="rgba(255, 74, 74, 1)" stroke="none" transform="matrix(1 0 0 1 305 238 )" class="fill" />
    <path d="M 26.7607621875 37.007762890625  C 27.353563867187496 36.44318984374999  28.002822890624998 35.93507410156249  28.7085391796875 35.51164433593749  C 29.442484140624998 35.11644320312499  30.204657734374997 34.805928046874996  30.99506 34.580098789062504  C 31.7290049609375 34.354269570312496  32.434721249999996 34.071983046875005  33.140437539062496 33.7050105859375  C 33.47918136718749 33.507410039062506  33.7896965234375 33.2533521484375  34.071983046875 32.971065624999994  C 34.834156640625 32.124206054687505  35.116443164062495 30.8821453515625  35.39872972656249 29.668313320312492  C 35.6245589453125 28.059280156249997  36.302046601562495 26.5631616015625  37.318278046874994 25.321100898437493  C 38.0522230078125 24.276640781249995  38.757939296874994 23.288637929687496  38.87085390625 22.159491875  C 38.983768515625 21.058574453125004  38.5038814453125 19.929428359374995  37.995765703125 18.7720536328125  C 37.657021875 18.038108671874994  37.3747353515625 17.275935078125002  37.1771348046875 16.485532812499997  C 37.0359915625 15.723359218750005  36.979534257812496 14.932956953125  37.007762890625 14.142554687499995  C 37.007762890625 12.900493984375004  36.979534257812496 11.630204648437498  36.3867325390625 10.6139731640625  C 35.793930820312504 9.597741679687502  34.6930133984375 8.948482695312492  33.6203246484375 8.327452382812496  C 32.9428369921875 7.960479921874992  32.293578007812506 7.508821484375005  31.6725476171875 7.000705703124993  C 31.079745937500004 6.436132656249995  30.5716301953125 5.8151023046875  30.091743125 5.137614687500005  C 29.329569531249998 4.121383203124992  28.595624570312495 3.1616090234374923  27.5793930859375 2.681721953124992  C 26.5913902734375 2.2018348828124914  25.405786875 2.3147494921875023  24.1072688671875 2.4558927343749986  C 22.526464335937497 2.7099505859374915  20.889202539062495 2.512350039062497  19.393083984375 1.9195483593749998  C 18.2074805859375 1.552575898437496  16.9936485546875 1.1856033984374932  15.8645024609375 1.4114326171875007  C 15.469301328125 1.4961185546874987  15.1023288671875 1.637261835937494  14.763585039062498 1.8630910546875015  C 14.1143260546875 2.2865208203125036  13.493295703125 2.7381792578125044  12.928722656249999 3.274523632812503  C 11.743119257812499 4.460127031249996  10.275229374999997 5.3069866015625  8.666196171874997 5.730416367187502  C 7.932251210937498 5.956245585937495  7.226534921874999 6.238532109375001  6.520818632812499 6.605504570312505  C 6.182074804687499 6.803105117187499  5.871559648437499 7.057163007812505  5.589273124999998 7.339449531249997  C 4.827099531249998 8.1863091015625  4.544813007812499 9.428369804687492  4.262526445312498 10.642201835937499  C 4.121383203124998 11.432604101562504  3.895553984374999 12.194777695312496  3.5850388281249983 12.928722656250002  C 3.2180663671874985 13.662667617187495  2.7946365624999987 14.340155273437503  2.3147494531249984 14.989414257812498  C 1.5808044921874986 16.033874374999996  0.8750882031249985 17.02187722656251  0.7621735937499985 18.151023281250005  C 0.6492589843749985 19.280169375  1.1291460546874985 20.381086796874996  1.6372618359374984 21.538461523437505  C 1.9760056640625001 22.272406484374997  2.2582921484375 23.034580117187502  2.455892734375 23.824982343749994  C 2.5970359765625 24.5871559375  2.6534932812500003 25.377558203125005  2.6252646484375 26.167960468749996  C 2.6252646484375 27.410021171875  2.6534932812500003 28.680310507812493  3.246295 29.69654199218749  C 3.8390967187500005 30.71277347656249  4.940014140624999 31.3620324609375  6.012702890625 31.983062812499995  C 6.690190546875 32.3500352734375  7.33944953125 32.8016937109375  7.9604798828125 33.309809453125  C 8.5532815625 33.874382499999996  9.0613973046875 34.49541285156249  9.541284414062499 35.1729005078125  C 10.3034580078125 36.1891319921875  11.037402968749998 37.1771348046875  12.053634453125 37.6287932421875  C 13.0980945703125 38.080451679687485  14.28369796875 37.96753707031249  15.5822159375 37.85462246093749  C 17.16302046875 37.600564609375  18.800282265625 37.769936523437494  20.3246294921875 38.36273816406249  C 21.510232890625 38.729710624999996  22.69583625 39.1249117578125  23.853211015625 38.87085390624999  C 24.248412148437502 38.78616796874999  24.615384609375003 38.64502468749998  24.9541284375 38.41919546874999  C 25.603387421875002 38.02399433593749  26.2244177734375 37.544107265625  26.7607621875 37.007762890625  Z " stroke-width="0" stroke-dasharray="0" stroke="rgba(255, 255, 255, 0)" fill="none" transform="matrix(1 0 0 1 305 238 )" class="stroke" mask="url(#Clip3588)" />
    <path d="M 34.43895554687499 33.30980945312501  C 34.128440390624995 33.592095976562504  33.76146789062499 33.87438250000001  33.3662667578125 34.10021171875  C 32.66055046875 34.46718417968751  31.9266055078125 34.777699375  31.164431914062497 35.00352859374999  C 29.611856054687497 35.39872972656249  28.2004234375 36.217360625  27.071277343749998 37.37473535156249  C 26.4784756640625 37.91107972656249  25.857445312499998 38.41919546874999  25.179957656249996 38.842625273437505  C 24.784756523437498 39.0684544921875  24.389555390625 39.23782640625001  23.937896953124998 39.322512343750006  C 22.69583625 39.5765701953125  21.4255469140625 39.181369101562495  20.183486249999998 38.78616796874999  C 19.4495412890625 38.5321101171875  18.715596328124995 38.334509531250006  17.953422734374996 38.24982355468751  C 17.191249140624997 38.19336625  16.400846874999996 38.22159492187501  15.638673242187497 38.334509531250006  C 14.368383906249997 38.447424140625  13.041637265624997 38.5885673828125  11.884262539062497 38.080451640625  C 10.755116445312499 37.5723358984375  9.964714179687498 36.499647109375005  9.202540585937498 35.483415664062505  C 8.750882148437498 34.83415667968751  8.242766406249997 34.241354960937514  7.678193359374998 33.705010585937515  C 7.1136203124999975 33.225123515625  6.464361328124997 32.80169371093751  5.815102343749997 32.43472125000001  C 4.685956249999998 31.785462265625  3.5285815234374973 31.107974609375006  2.879322499999997 29.97882851562501  C 2.2300634765624974 28.849682421875002  2.2300635156249973 27.4947071484375  2.2018348437499973 26.19618914062501  C 2.2300634765624974 25.434015546875003  2.173606210937497 24.70007058593751  2.0324629687499973 23.937896953125005  C 1.8348624218749974 23.175723359375013  1.5808045312499974 22.441778398437506  1.2420607031249973 21.736062109375013  C 0.7339449609374973 20.550458710937505  0.2258292187499973 19.336626679687512  0.3387438281249974 18.094565976562507  C 0.47988707031249744 16.8525052734375  1.2420607031249973 15.751587851562505  1.9760056640624972 14.707127734375007  C 2.455892734374997 14.086097382812511  2.8510938671874975 13.436838398437501  3.189837695312497 12.731122070312509  C 3.472124218749997 12.025405781250015  3.697953437499997 11.291460820312508  3.8108680468749974 10.529287226562502  C 4.093154570312497 9.258997890625011  4.3754410937499975 7.960479882812507  5.222300624999997 7.000705703125007  C 5.5328157812499965 6.661961875000003  5.871559609374996 6.40790402343751  6.266760781249997 6.1820748046875025  C 6.972477070312497 5.815102343750013  7.706422031249998 5.504587148437508  8.496824257812497 5.278757929687515  C 10.049400117187497 4.883556796875013  11.460832734374996 4.064925898437508  12.589978828124996 2.9075511718750136  C 13.182780507812497 2.371206796875015  13.803810859374996 1.8630910546875015  14.481298515624996 1.4396612500000003  C 14.876499648437495 1.213832031250007  15.271700781249997 1.044460117187512  15.723359218749998 0.9597741796875141  C 16.965419921874997 0.705716328125007  18.235709257812495 1.1009174218750104  19.477769921874998 1.4961185546875129  C 20.211714882812494 1.7501764062500058  20.945659843749993 1.9477769921875137  21.707833437499996 2.0606916015625103  C 22.47000703125 2.1171489062500086  23.260409296874997 2.08892023437501  24.022582929687495 1.9760056640625123  C 25.292872265624993 1.8630910546875015  26.619618906249993 1.7219478125000052  27.7769936328125 2.2300635156250053  C 28.9061397265625 2.7381792578125044  29.6965419921875 3.7826393750000022  30.458715585937494 4.8270994921875  C 30.910374023437495 5.47635847656251  31.418489765624994 6.069160195312506  31.983062812499995 6.605504570312505  C 32.57586449218749 7.085391640625005  33.196894843749995 7.508821445312506  33.84615382812499 7.875793945312509  C 34.97529992187499 8.525052929687504  36.132674648437494 9.202540585937513  36.781933671874995 10.359915312500007  C 37.43119265624999 11.489061406250002  37.459421328124996 12.844036679687505  37.459421328124996 14.14255468750001  C 37.4311926953125 14.904728281250016  37.487649960937496 15.638673242187508  37.6287932421875 16.400846875000013  C 37.82639378906249 17.163020468750005  38.08045167968749 17.896965429687512  38.41919546874999 18.602681718750006  C 38.92731121093749 19.788285117187513  39.435426953124995 21.002117148437506  39.32251234374999 22.24417785156251  C 39.181369101562495 23.486238554687503  38.41919546874999 24.587155976562514  37.685250546875 25.63161609375001  C 37.20536347656249 26.252646445312507  36.810162343749994 26.901905429687503  36.47141847656249 27.60762171875001  C 36.18913195312499 28.313338007812504  35.96330273437499 29.04728296875001  35.850388124999995 29.809456601562516  C 35.56810160156249 31.079745937500007  35.28581507812499 32.37826394531251  34.43895554687499 33.30980945312501  Z " stroke-width="0" stroke-dasharray="0" stroke="rgba(255, 255, 255, 0)" fill="none" transform="matrix(1 0 0 1 305 238 )" class="stroke" mask="url(#Clip3588)" />
  </g>
</svg>