<?xml version="1.0" encoding="utf-8"?>
<svg version="1.1" xmlns:xlink="http://www.w3.org/1999/xlink" width="32px" height="32px" xmlns="http://www.w3.org/2000/svg">
  <defs>
    <pattern id="BGPattern" patternUnits="userSpaceOnUse" alignment="0 0" imageRepeat="None" />
    <mask fill="white" id="Clip7114">
      <path d="M 29.168666210937502 8.448835585937502  C 24.906139765625 1.109386054687505  15.505998593749997 -1.4029639843750061  8.1665490625 2.831333789062498  C 0.8270995312500009 7.065631601562501  -1.713479179687499 16.465772734374994  2.549047265625001 23.833450937500004  C 6.811573710937502 31.201129140625  16.183486210937502 33.713479179687496  23.551164414062498 29.450952734374994  C 30.918842617187494 25.188426289062505  33.43119265625 15.816513789062498  29.168666210937502 8.448835585937502  Z M 29.563867343749997 8.251235000000008  C 33.939308398437504 15.816513749999999  31.342272421874995 25.470712773437498  23.776993632812502 29.874382499999996  C 18.2159491796875 33.092448828125  11.2999294140625 32.6125617578125  6.2187720703125 28.7170077734375  C 1.1376147265625 24.821453789062502  -1.0924488281249998 18.244177851562497  0.573041640625001 12.062103046874995  C 2.2103034765624994 5.851799570312494  7.4326041015625 1.278757929687501  13.784050820312501 0.4601270312499963  C 20.1354975390625 -0.38673253906250693  26.3740296484375 2.6901905468750016  29.563867343749997 8.251235000000008  Z " fill-rule="evenodd" />
    </mask>
  </defs>
  <g transform="matrix(1 0 0 1 -309 -242 )">
    <path d="M 29.168666210937502 8.448835585937502  C 24.906139765625 1.109386054687505  15.505998593749997 -1.4029639843750061  8.1665490625 2.831333789062498  C 0.8270995312500009 7.065631601562501  -1.713479179687499 16.465772734374994  2.549047265625001 23.833450937500004  C 6.811573710937502 31.201129140625  16.183486210937502 33.713479179687496  23.551164414062498 29.450952734374994  C 30.918842617187494 25.188426289062505  33.43119265625 15.816513789062498  29.168666210937502 8.448835585937502  Z M 29.563867343749997 8.251235000000008  C 33.939308398437504 15.816513749999999  31.342272421874995 25.470712773437498  23.776993632812502 29.874382499999996  C 18.2159491796875 33.092448828125  11.2999294140625 32.6125617578125  6.2187720703125 28.7170077734375  C 1.1376147265625 24.821453789062502  -1.0924488281249998 18.244177851562497  0.573041640625001 12.062103046874995  C 2.2103034765624994 5.851799570312494  7.4326041015625 1.278757929687501  13.784050820312501 0.4601270312499963  C 20.1354975390625 -0.38673253906250693  26.3740296484375 2.6901905468750016  29.563867343749997 8.251235000000008  Z " fill-rule="nonzero" fill="rgba(255, 74, 74, 1)" stroke="none" transform="matrix(1 0 0 1 309 242 )" class="fill" />
    <path d="M 29.168666210937502 8.448835585937502  C 24.906139765625 1.109386054687505  15.505998593749997 -1.4029639843750061  8.1665490625 2.831333789062498  C 0.8270995312500009 7.065631601562501  -1.713479179687499 16.465772734374994  2.549047265625001 23.833450937500004  C 6.811573710937502 31.201129140625  16.183486210937502 33.713479179687496  23.551164414062498 29.450952734374994  C 30.918842617187494 25.188426289062505  33.43119265625 15.816513789062498  29.168666210937502 8.448835585937502  Z " stroke-width="0" stroke-dasharray="0" stroke="rgba(255, 255, 255, 0)" fill="none" transform="matrix(1 0 0 1 309 242 )" class="stroke" mask="url(#Clip7114)" />
    <path d="M 29.563867343749997 8.251235000000008  C 33.939308398437504 15.816513749999999  31.342272421874995 25.470712773437498  23.776993632812502 29.874382499999996  C 18.2159491796875 33.092448828125  11.2999294140625 32.6125617578125  6.2187720703125 28.7170077734375  C 1.1376147265625 24.821453789062502  -1.0924488281249998 18.244177851562497  0.573041640625001 12.062103046874995  C 2.2103034765624994 5.851799570312494  7.4326041015625 1.278757929687501  13.784050820312501 0.4601270312499963  C 20.1354975390625 -0.38673253906250693  26.3740296484375 2.6901905468750016  29.563867343749997 8.251235000000008  Z " stroke-width="0" stroke-dasharray="0" stroke="rgba(255, 255, 255, 0)" fill="none" transform="matrix(1 0 0 1 309 242 )" class="stroke" mask="url(#Clip7114)" />
  </g>
</svg>