<?xml version="1.0" encoding="utf-8"?>
<svg version="1.1" xmlns:xlink="http://www.w3.org/1999/xlink" width="34px" height="34px" xmlns="http://www.w3.org/2000/svg">
  <defs>
    <pattern id="BGPattern" patternUnits="userSpaceOnUse" alignment="0 0" imageRepeat="None" />
    <mask fill="white" id="Clip17774">
      <path d="M 30.874382500000003 9.053634453125  C 26.41425546875 1.3189837890625  16.505998593750004 -1.3345095312500064  8.7431192578125 3.125617500000004  C 1.00846859375 7.5857445312500005  -1.6450247265625002 17.494001406249993  2.8151023437499996 25.25688074218749  C 7.303458007812498 32.991531406250004  17.183486249999998 35.673253359374996  24.946365546875 31.18489765625  C 32.70924484375 26.696541953125006  35.334509531250006 16.81651375  30.874382500000003 9.053634453125  Z M 31.269583632812505 8.799576562499993  C 35.870853906250005 16.7882851171875  33.1326746875 26.978828515624997  25.172194765625 31.580098789062504  C 17.211714882812505 36.181369062499996  7.021171484375003 33.44318984374999  2.4199012109375033 25.4827099609375  C -2.1813690624999964 17.494001406249993  0.5568101562500032 7.303458007812495  8.517290039062505 2.702187734375002  C 16.477769921875 -1.8990825390625048  26.668313320312507 0.8390966796875006  31.269583632812505 8.799576562499993  Z " fill-rule="evenodd" />
    </mask>
  </defs>
  <g transform="matrix(1 0 0 1 -308 -241 )">
    <path d="M 30.874382500000003 9.053634453125  C 26.41425546875 1.3189837890625  16.505998593750004 -1.3345095312500064  8.7431192578125 3.125617500000004  C 1.00846859375 7.5857445312500005  -1.6450247265625002 17.494001406249993  2.8151023437499996 25.25688074218749  C 7.303458007812498 32.991531406250004  17.183486249999998 35.673253359374996  24.946365546875 31.18489765625  C 32.70924484375 26.696541953125006  35.334509531250006 16.81651375  30.874382500000003 9.053634453125  Z M 31.269583632812505 8.799576562499993  C 35.870853906250005 16.7882851171875  33.1326746875 26.978828515624997  25.172194765625 31.580098789062504  C 17.211714882812505 36.181369062499996  7.021171484375003 33.44318984374999  2.4199012109375033 25.4827099609375  C -2.1813690624999964 17.494001406249993  0.5568101562500032 7.303458007812495  8.517290039062505 2.702187734375002  C 16.477769921875 -1.8990825390625048  26.668313320312507 0.8390966796875006  31.269583632812505 8.799576562499993  Z " fill-rule="nonzero" fill="rgba(255, 74, 74, 1)" stroke="none" transform="matrix(1 0 0 1 308 241 )" class="fill" />
    <path d="M 30.874382500000003 9.053634453125  C 26.41425546875 1.3189837890625  16.505998593750004 -1.3345095312500064  8.7431192578125 3.125617500000004  C 1.00846859375 7.5857445312500005  -1.6450247265625002 17.494001406249993  2.8151023437499996 25.25688074218749  C 7.303458007812498 32.991531406250004  17.183486249999998 35.673253359374996  24.946365546875 31.18489765625  C 32.70924484375 26.696541953125006  35.334509531250006 16.81651375  30.874382500000003 9.053634453125  Z " stroke-width="0" stroke-dasharray="0" stroke="rgba(255, 255, 255, 0)" fill="none" transform="matrix(1 0 0 1 308 241 )" class="stroke" mask="url(#Clip17774)" />
    <path d="M 31.269583632812505 8.799576562499993  C 35.870853906250005 16.7882851171875  33.1326746875 26.978828515624997  25.172194765625 31.580098789062504  C 17.211714882812505 36.181369062499996  7.021171484375003 33.44318984374999  2.4199012109375033 25.4827099609375  C -2.1813690624999964 17.494001406249993  0.5568101562500032 7.303458007812495  8.517290039062505 2.702187734375002  C 16.477769921875 -1.8990825390625048  26.668313320312507 0.8390966796875006  31.269583632812505 8.799576562499993  Z " stroke-width="0" stroke-dasharray="0" stroke="rgba(255, 255, 255, 0)" fill="none" transform="matrix(1 0 0 1 308 241 )" class="stroke" mask="url(#Clip17774)" />
  </g>
</svg>