<?xml version="1.0" encoding="utf-8"?>
<svg version="1.1" xmlns:xlink="http://www.w3.org/1999/xlink" width="25px" height="28px" xmlns="http://www.w3.org/2000/svg">
  <defs>
    <pattern id="BGPattern" patternUnits="userSpaceOnUse" alignment="0 0" imageRepeat="None" />
    <mask fill="white" id="Clip11801">
      <path d="M 7.173606210937502 23.941002109375006  L 6.947776992187499 23.549753007812498  L 23.717854609375 13.8673253515625  L 23.943683828125003 14.258574453124993  L 7.173606210937502 23.941002109375006  Z M 1.355963320312501 13.8255469140625  L 1.1298517968750001 13.434580117187494  L 17.8999294140625 3.7521524218749955  L 18.1257586328125 4.143119257812501  L 1.355963320312501 13.8255469140625  Z M 9.513761484375 2.8355680859374957  L 8.356386718749999 4.13408609375  L 6.2110091796874976 2.637967539062501  L 6.408609726562499 5.2632321874999946  L 4.714890624999999 5.630204648437498  L 6.126323203124999 7.041637265624999  L 10.050105859375002 4.783345078124995  L 9.513761484375 2.8355680859374957  Z M 17.5871559765625 23.55539871093751  L 17.502470000000002 22.172194765624994  L 18.631616093750004 22.96259703125  L 19.930134101562505 22.42625265625  L 19.563161601562506 23.781227929687503  L 20.4382498046875 24.85391671875  L 19.055045859375 24.882145390625  L 18.3211008984375 26.067748749999993  L 17.841213828125 24.769230781250002  L 16.486238515625 24.430486953124998  L 17.5871559765625 23.55539871093751  Z M 21.567395898437503 19.800988007812492  L 20.776993632812502 18.671841914062497  L 22.160197617187503 18.728299218749996  L 22.978828515625004 17.599153125  L 23.374029648437503 18.925899804687504  L 24.672547617187504 19.34932957031249  L 23.5434015625 20.139731835937496  L 23.5434015625 21.52293578125  L 22.442484140625 20.676076210937495  L 21.115737460937503 21.099506015624996  L 21.567395898437503 19.800988007812492  Z M 13.183486250000001 24.656316171875005  L 12.590684531249998 23.3860268359375  L 11.941425546875 24.599858867187493  L 10.558221601562497 24.769230781250002  L 11.517995781249997 25.75723359375  L 11.235709257812498 27.112208906250004  L 12.477769921874998 26.519407187500008  L 13.691601992187499 27.225123515625  L 13.522230078125002 25.84191953125  L 14.538461523437501 24.910374023437498  L 13.183486250000001 24.656316171875005  Z M 12.59068453125001 3.230769218749998  L 13.155257578125001 4.5010585937500025  L 13.8045166015625 3.258997890624997  L 15.187720546875003 3.1178546093750015  L 14.227946367187505 2.1016231640625023  L 14.510232890625005 0.7466478515624999  L 13.268172187500008 1.3676782031249957  L 12.054340156250007 0.6619618750000029  L 12.251940703125008 2.045165859375004  L 11.207480585937507 2.976711367187505  L 12.59068453125001 3.230769218749998  Z M 3.3034580078125 8.565984492187496  L 4.122088906250001 9.695130546874992  L 2.738884960937501 9.666901914062507  L 1.9202540624999997 10.767819335937503  L 1.5250529296875008 9.4410726953125  L 0.19830628906249895 9.017642890624998  L 1.3556810156249988 8.227240664062492  L 1.3556810156249988 6.844036679687491  L 2.4565984374999985 7.690896249999994  L 3.7833450781249987 7.267466484374992  L 3.3034580078125 8.565984492187496  Z " fill-rule="evenodd" />
    </mask>
  </defs>
  <g transform="matrix(1 0 0 1 -312 -244 )">
    <path d="M 7.173606210937502 23.941002109375006  L 6.947776992187499 23.549753007812498  L 23.717854609375 13.8673253515625  L 23.943683828125003 14.258574453124993  L 7.173606210937502 23.941002109375006  Z M 1.355963320312501 13.8255469140625  L 1.1298517968750001 13.434580117187494  L 17.8999294140625 3.7521524218749955  L 18.1257586328125 4.143119257812501  L 1.355963320312501 13.8255469140625  Z M 9.513761484375 2.8355680859374957  L 8.356386718749999 4.13408609375  L 6.2110091796874976 2.637967539062501  L 6.408609726562499 5.2632321874999946  L 4.714890624999999 5.630204648437498  L 6.126323203124999 7.041637265624999  L 10.050105859375002 4.783345078124995  L 9.513761484375 2.8355680859374957  Z M 17.5871559765625 23.55539871093751  L 17.502470000000002 22.172194765624994  L 18.631616093750004 22.96259703125  L 19.930134101562505 22.42625265625  L 19.563161601562506 23.781227929687503  L 20.4382498046875 24.85391671875  L 19.055045859375 24.882145390625  L 18.3211008984375 26.067748749999993  L 17.841213828125 24.769230781250002  L 16.486238515625 24.430486953124998  L 17.5871559765625 23.55539871093751  Z M 21.567395898437503 19.800988007812492  L 20.776993632812502 18.671841914062497  L 22.160197617187503 18.728299218749996  L 22.978828515625004 17.599153125  L 23.374029648437503 18.925899804687504  L 24.672547617187504 19.34932957031249  L 23.5434015625 20.139731835937496  L 23.5434015625 21.52293578125  L 22.442484140625 20.676076210937495  L 21.115737460937503 21.099506015624996  L 21.567395898437503 19.800988007812492  Z M 13.183486250000001 24.656316171875005  L 12.590684531249998 23.3860268359375  L 11.941425546875 24.599858867187493  L 10.558221601562497 24.769230781250002  L 11.517995781249997 25.75723359375  L 11.235709257812498 27.112208906250004  L 12.477769921874998 26.519407187500008  L 13.691601992187499 27.225123515625  L 13.522230078125002 25.84191953125  L 14.538461523437501 24.910374023437498  L 13.183486250000001 24.656316171875005  Z M 12.59068453125001 3.230769218749998  L 13.155257578125001 4.5010585937500025  L 13.8045166015625 3.258997890624997  L 15.187720546875003 3.1178546093750015  L 14.227946367187505 2.1016231640625023  L 14.510232890625005 0.7466478515624999  L 13.268172187500008 1.3676782031249957  L 12.054340156250007 0.6619618750000029  L 12.251940703125008 2.045165859375004  L 11.207480585937507 2.976711367187505  L 12.59068453125001 3.230769218749998  Z M 3.3034580078125 8.565984492187496  L 4.122088906250001 9.695130546874992  L 2.738884960937501 9.666901914062507  L 1.9202540624999997 10.767819335937503  L 1.5250529296875008 9.4410726953125  L 0.19830628906249895 9.017642890624998  L 1.3556810156249988 8.227240664062492  L 1.3556810156249988 6.844036679687491  L 2.4565984374999985 7.690896249999994  L 3.7833450781249987 7.267466484374992  L 3.3034580078125 8.565984492187496  Z " fill-rule="nonzero" fill="rgba(255, 74, 74, 1)" stroke="none" transform="matrix(1 0 0 1 312 244 )" class="fill" />
    <path d="M 7.173606210937502 23.941002109375006  L 6.947776992187499 23.549753007812498  L 23.717854609375 13.8673253515625  L 23.943683828125003 14.258574453124993  L 7.173606210937502 23.941002109375006  Z " stroke-width="0" stroke-dasharray="0" stroke="rgba(255, 255, 255, 0)" fill="none" transform="matrix(1 0 0 1 312 244 )" class="stroke" mask="url(#Clip11801)" />
    <path d="M 1.355963320312501 13.8255469140625  L 1.1298517968750001 13.434580117187494  L 17.8999294140625 3.7521524218749955  L 18.1257586328125 4.143119257812501  L 1.355963320312501 13.8255469140625  Z " stroke-width="0" stroke-dasharray="0" stroke="rgba(255, 255, 255, 0)" fill="none" transform="matrix(1 0 0 1 312 244 )" class="stroke" mask="url(#Clip11801)" />
    <path d="M 9.513761484375 2.8355680859374957  L 8.356386718749999 4.13408609375  L 6.2110091796874976 2.637967539062501  L 6.408609726562499 5.2632321874999946  L 4.714890624999999 5.630204648437498  L 6.126323203124999 7.041637265624999  L 10.050105859375002 4.783345078124995  L 9.513761484375 2.8355680859374957  Z " stroke-width="0" stroke-dasharray="0" stroke="rgba(255, 255, 255, 0)" fill="none" transform="matrix(1 0 0 1 312 244 )" class="stroke" mask="url(#Clip11801)" />
    <path d="M 17.5871559765625 23.55539871093751  L 17.502470000000002 22.172194765624994  L 18.631616093750004 22.96259703125  L 19.930134101562505 22.42625265625  L 19.563161601562506 23.781227929687503  L 20.4382498046875 24.85391671875  L 19.055045859375 24.882145390625  L 18.3211008984375 26.067748749999993  L 17.841213828125 24.769230781250002  L 16.486238515625 24.430486953124998  L 17.5871559765625 23.55539871093751  Z " stroke-width="0" stroke-dasharray="0" stroke="rgba(255, 255, 255, 0)" fill="none" transform="matrix(1 0 0 1 312 244 )" class="stroke" mask="url(#Clip11801)" />
    <path d="M 21.567395898437503 19.800988007812492  L 20.776993632812502 18.671841914062497  L 22.160197617187503 18.728299218749996  L 22.978828515625004 17.599153125  L 23.374029648437503 18.925899804687504  L 24.672547617187504 19.34932957031249  L 23.5434015625 20.139731835937496  L 23.5434015625 21.52293578125  L 22.442484140625 20.676076210937495  L 21.115737460937503 21.099506015624996  L 21.567395898437503 19.800988007812492  Z " stroke-width="0" stroke-dasharray="0" stroke="rgba(255, 255, 255, 0)" fill="none" transform="matrix(1 0 0 1 312 244 )" class="stroke" mask="url(#Clip11801)" />
    <path d="M 13.183486250000001 24.656316171875005  L 12.590684531249998 23.3860268359375  L 11.941425546875 24.599858867187493  L 10.558221601562497 24.769230781250002  L 11.517995781249997 25.75723359375  L 11.235709257812498 27.112208906250004  L 12.477769921874998 26.519407187500008  L 13.691601992187499 27.225123515625  L 13.522230078125002 25.84191953125  L 14.538461523437501 24.910374023437498  L 13.183486250000001 24.656316171875005  Z " stroke-width="0" stroke-dasharray="0" stroke="rgba(255, 255, 255, 0)" fill="none" transform="matrix(1 0 0 1 312 244 )" class="stroke" mask="url(#Clip11801)" />
    <path d="M 12.59068453125001 3.230769218749998  L 13.155257578125001 4.5010585937500025  L 13.8045166015625 3.258997890624997  L 15.187720546875003 3.1178546093750015  L 14.227946367187505 2.1016231640625023  L 14.510232890625005 0.7466478515624999  L 13.268172187500008 1.3676782031249957  L 12.054340156250007 0.6619618750000029  L 12.251940703125008 2.045165859375004  L 11.207480585937507 2.976711367187505  L 12.59068453125001 3.230769218749998  Z " stroke-width="0" stroke-dasharray="0" stroke="rgba(255, 255, 255, 0)" fill="none" transform="matrix(1 0 0 1 312 244 )" class="stroke" mask="url(#Clip11801)" />
    <path d="M 3.3034580078125 8.565984492187496  L 4.122088906250001 9.695130546874992  L 2.738884960937501 9.666901914062507  L 1.9202540624999997 10.767819335937503  L 1.5250529296875008 9.4410726953125  L 0.19830628906249895 9.017642890624998  L 1.3556810156249988 8.227240664062492  L 1.3556810156249988 6.844036679687491  L 2.4565984374999985 7.690896249999994  L 3.7833450781249987 7.267466484374992  L 3.3034580078125 8.565984492187496  Z " stroke-width="0" stroke-dasharray="0" stroke="rgba(255, 255, 255, 0)" fill="none" transform="matrix(1 0 0 1 312 244 )" class="stroke" mask="url(#Clip11801)" />
  </g>
</svg>