<?xml version="1.0" encoding="utf-8"?>
<svg version="1.1" xmlns:xlink="http://www.w3.org/1999/xlink" width="330px" height="228px" xmlns="http://www.w3.org/2000/svg">
  <defs>
    <linearGradient gradientUnits="userSpaceOnUse" x1="165" y1="0" x2="165" y2="228" id="LinearGradient8704">
      <stop id="Stop8705" stop-color="#333333" offset="0" />
      <stop id="Stop8706" stop-color="#333333" stop-opacity="0" offset="1" />
    </linearGradient>
    <pattern id="BGPattern" patternUnits="userSpaceOnUse" alignment="0 0" imageRepeat="None" />
    <mask fill="white" id="Clip8707">
      <path d="M 0 223  L 0 5  C 0 2.1999999999999997  2.1999999999999997 0  5 0  L 325 0  C 327.8 0  330 2.1999999999999997  330 5  L 330 223  C 330 225.79999999999998  327.8 228  325 228  L 5 228  C 2.1999999999999997 228  0 225.79999999999998  0 223  Z " fill-rule="evenodd" />
    </mask>
  </defs>
  <g transform="matrix(1 0 0 1 -15 -200 )">
    <path d="M 0 223  L 0 5  C 0 2.1999999999999997  2.1999999999999997 0  5 0  L 325 0  C 327.8 0  330 2.1999999999999997  330 5  L 330 223  C 330 225.79999999999998  327.8 228  325 228  L 5 228  C 2.1999999999999997 228  0 225.79999999999998  0 223  Z " fill-rule="nonzero" fill="url(#LinearGradient8704)" stroke="none" transform="matrix(1 0 0 1 15 200 )" class="fill" />
    <path d="M 0 223  L 0 5  C 0 2.1999999999999997  2.1999999999999997 0  5 0  L 325 0  C 327.8 0  330 2.1999999999999997  330 5  L 330 223  C 330 225.79999999999998  327.8 228  325 228  L 5 228  C 2.1999999999999997 228  0 225.79999999999998  0 223  Z " stroke-width="0" stroke-dasharray="0" stroke="rgba(121, 121, 121, 1)" fill="none" transform="matrix(1 0 0 1 15 200 )" class="stroke" mask="url(#Clip8707)" />
  </g>
</svg>