<?xml version="1.0" encoding="utf-8"?>
<svg version="1.1" xmlns:xlink="http://www.w3.org/1999/xlink" width="330px" height="200px" xmlns="http://www.w3.org/2000/svg">
  <defs>
    <linearGradient gradientUnits="userSpaceOnUse" x1="165" y1="0" x2="165" y2="200" id="LinearGradient7922">
      <stop id="Stop7923" stop-color="#333333" offset="0" />
      <stop id="Stop7924" stop-color="#333333" stop-opacity="0" offset="1" />
    </linearGradient>
    <pattern id="BGPattern" patternUnits="userSpaceOnUse" alignment="0 0" imageRepeat="None" />
    <mask fill="white" id="Clip7925">
      <path d="M 0 195  L 0 5  C 0 2.1999999999999997  2.1999999999999997 0  5 0  L 325 0  C 327.8 0  330 2.1999999999999997  330 5  L 330 195  C 330 197.8  327.8 200  325 200  L 5 200  C 2.1999999999999997 200  0 197.8  0 195  Z " fill-rule="evenodd" />
    </mask>
  </defs>
  <g transform="matrix(1 0 0 1 -15 -300 )">
    <path d="M 0 195  L 0 5  C 0 2.1999999999999997  2.1999999999999997 0  5 0  L 325 0  C 327.8 0  330 2.1999999999999997  330 5  L 330 195  C 330 197.8  327.8 200  325 200  L 5 200  C 2.1999999999999997 200  0 197.8  0 195  Z " fill-rule="nonzero" fill="url(#LinearGradient7922)" stroke="none" transform="matrix(1 0 0 1 15 300 )" class="fill" />
    <path d="M 0 195  L 0 5  C 0 2.1999999999999997  2.1999999999999997 0  5 0  L 325 0  C 327.8 0  330 2.1999999999999997  330 5  L 330 195  C 330 197.8  327.8 200  325 200  L 5 200  C 2.1999999999999997 200  0 197.8  0 195  Z " stroke-width="0" stroke-dasharray="0" stroke="rgba(121, 121, 121, 1)" fill="none" transform="matrix(1 0 0 1 15 300 )" class="stroke" mask="url(#Clip7925)" />
  </g>
</svg>