<?xml version="1.0" encoding="utf-8"?>
<svg version="1.1" xmlns:xlink="http://www.w3.org/1999/xlink" width="165px" height="550px" xmlns="http://www.w3.org/2000/svg">
  <defs>
    <linearGradient gradientUnits="userSpaceOnUse" x1="82.5" y1="0" x2="82.5" y2="550" id="LinearGradient3920">
      <stop id="Stop3921" stop-color="#000000" stop-opacity="0.8980392156862745" offset="0" />
      <stop id="Stop3922" stop-color="#333333" stop-opacity="0.8" offset="1" />
    </linearGradient>
    <pattern id="BGPattern" patternUnits="userSpaceOnUse" alignment="0 0" imageRepeat="None" />
    <mask fill="white" id="Clip3923">
      <path d="M 0 545  L 0 0  L 165 0  L 165 550  L 5 550  C 2.1999999999999997 550  0 547.8  0 545  Z " fill-rule="evenodd" />
    </mask>
  </defs>
  <g transform="matrix(1 0 0 1 -15 -495 )">
    <path d="M 0 545  L 0 0  L 165 0  L 165 550  L 5 550  C 2.1999999999999997 550  0 547.8  0 545  Z " fill-rule="nonzero" fill="url(#LinearGradient3920)" stroke="none" transform="matrix(1 0 0 1 15 495 )" class="fill" />
    <path d="M 0 545  L 0 0  L 165 0  L 165 550  L 5 550  C 2.1999999999999997 550  0 547.8  0 545  Z " stroke-width="0" stroke-dasharray="0" stroke="rgba(121, 121, 121, 1)" fill="none" transform="matrix(1 0 0 1 15 495 )" class="stroke" mask="url(#Clip3923)" />
  </g>
</svg>