<?xml version="1.0" encoding="utf-8"?>
<svg version="1.1" xmlns:xlink="http://www.w3.org/1999/xlink" width="5px" height="5px" xmlns="http://www.w3.org/2000/svg">
  <defs>
    <pattern id="BGPattern" patternUnits="userSpaceOnUse" alignment="0 0" imageRepeat="None" />
    <mask fill="white" id="Clip6327">
      <path d="M 3.7487500000000002 3.0444444433593745  C 3.67064961648906 3.1226254904800683  3.564674339132059 3.166553932657628  3.454166665039063 3.166553932657628  C 3.3436589909460657 3.166553932657628  3.2376837135890657 3.1226254904800683  3.1595833300781253 3.0444444433593745  L 0.955555556640625 0.8402777734374984  C 0.8773745125096457 0.7621773903214333  0.83344607223023 0.656202115058159  0.83344607223023 0.5456944433593742  C 0.83344607223023 0.4351867716605904  0.8773745125096453 0.3292114963973143  0.955555556640625 0.25111111328125  C 1.0336559401515653 0.17293006616055795  1.1396312175085659 0.1290016239829992  1.2501388916015623 0.1290016239829992  C 1.3606465656945588 0.1290016239829992  1.4666218430515592 0.17293006616055795  1.5447222265625 0.25111111328125  L 3.74888888671875 2.4552777734375013  C 3.8270699338394425 2.533378156948441  3.870998376017001 2.6393534343054412  3.870998376017001 2.749861108398438  C 3.870998376017001 2.8603687824914346  3.8270699338394425 2.966344059848435  3.74888888671875 3.0444444433593745  Z " fill-rule="evenodd" />
    </mask>
  </defs>
  <g transform="matrix(1 0 0 1 -2116 -1375 )">
    <path d="M 3.7487500000000002 3.0444444433593745  C 3.67064961648906 3.1226254904800683  3.564674339132059 3.166553932657628  3.454166665039063 3.166553932657628  C 3.3436589909460657 3.166553932657628  3.2376837135890657 3.1226254904800683  3.1595833300781253 3.0444444433593745  L 0.955555556640625 0.8402777734374984  C 0.8773745125096457 0.7621773903214333  0.83344607223023 0.656202115058159  0.83344607223023 0.5456944433593742  C 0.83344607223023 0.4351867716605904  0.8773745125096453 0.3292114963973143  0.955555556640625 0.25111111328125  C 1.0336559401515653 0.17293006616055795  1.1396312175085659 0.1290016239829992  1.2501388916015623 0.1290016239829992  C 1.3606465656945588 0.1290016239829992  1.4666218430515592 0.17293006616055795  1.5447222265625 0.25111111328125  L 3.74888888671875 2.4552777734375013  C 3.8270699338394425 2.533378156948441  3.870998376017001 2.6393534343054412  3.870998376017001 2.749861108398438  C 3.870998376017001 2.8603687824914346  3.8270699338394425 2.966344059848435  3.74888888671875 3.0444444433593745  Z " fill-rule="nonzero" fill="rgba(255, 255, 255, 1)" stroke="none" transform="matrix(1 0 0 1 2116 1375 )" class="fill" />
    <path d="M 3.7487500000000002 3.0444444433593745  C 3.67064961648906 3.1226254904800683  3.564674339132059 3.166553932657628  3.454166665039063 3.166553932657628  C 3.3436589909460657 3.166553932657628  3.2376837135890657 3.1226254904800683  3.1595833300781253 3.0444444433593745  L 0.955555556640625 0.8402777734374984  C 0.8773745125096457 0.7621773903214333  0.83344607223023 0.656202115058159  0.83344607223023 0.5456944433593742  C 0.83344607223023 0.4351867716605904  0.8773745125096453 0.3292114963973143  0.955555556640625 0.25111111328125  C 1.0336559401515653 0.17293006616055795  1.1396312175085659 0.1290016239829992  1.2501388916015623 0.1290016239829992  C 1.3606465656945588 0.1290016239829992  1.4666218430515592 0.17293006616055795  1.5447222265625 0.25111111328125  L 3.74888888671875 2.4552777734375013  C 3.8270699338394425 2.533378156948441  3.870998376017001 2.6393534343054412  3.870998376017001 2.749861108398438  C 3.870998376017001 2.8603687824914346  3.8270699338394425 2.966344059848435  3.74888888671875 3.0444444433593745  Z " stroke-width="0" stroke-dasharray="0" stroke="rgba(255, 255, 255, 0)" fill="none" transform="matrix(1 0 0 1 2116 1375 )" class="stroke" mask="url(#Clip6327)" />
  </g>
</svg>