<?xml version="1.0" encoding="utf-8"?>
<svg version="1.1" xmlns:xlink="http://www.w3.org/1999/xlink" width="8px" height="8px" xmlns="http://www.w3.org/2000/svg">
  <defs>
    <pattern id="BGPattern" patternUnits="userSpaceOnUse" alignment="0 0" imageRepeat="None" />
    <mask fill="white" id="Clip9592">
      <path d="M 6.202857142857141 0.667692307692306  C 6.50285714285714 0.3446153846153827  6.991428571428571 0.3446153846153827  7.29142857142857 0.6676923076923071  C 7.59142857142857 0.9907692307692304  7.59142857142857 1.5169230769230757  7.29142857142857 1.839999999999999  L 1.7971428571428558 7.756923076923075  C 1.4971428571428558 8.079999999999997  1.0085714285714278 8.079999999999997  0.7085714285714276 7.756923076923075  C 0.4085714285714275 7.433846153846153  0.4085714285714275 6.907692307692306  0.7085714285714276 6.584615384615384  L 6.202857142857141 0.667692307692306  Z " fill-rule="evenodd" />
    </mask>
  </defs>
  <g transform="matrix(1 0 0 1 -1530 -3423 )">
    <path d="M 6.202857142857141 0.667692307692306  C 6.50285714285714 0.3446153846153827  6.991428571428571 0.3446153846153827  7.29142857142857 0.6676923076923071  C 7.59142857142857 0.9907692307692304  7.59142857142857 1.5169230769230757  7.29142857142857 1.839999999999999  L 1.7971428571428558 7.756923076923075  C 1.4971428571428558 8.079999999999997  1.0085714285714278 8.079999999999997  0.7085714285714276 7.756923076923075  C 0.4085714285714275 7.433846153846153  0.4085714285714275 6.907692307692306  0.7085714285714276 6.584615384615384  L 6.202857142857141 0.667692307692306  Z " fill-rule="nonzero" fill="rgba(51, 51, 51, 1)" stroke="none" transform="matrix(1 0 0 1 1530 3423 )" class="fill" />
    <path d="M 6.202857142857141 0.667692307692306  C 6.50285714285714 0.3446153846153827  6.991428571428571 0.3446153846153827  7.29142857142857 0.6676923076923071  C 7.59142857142857 0.9907692307692304  7.59142857142857 1.5169230769230757  7.29142857142857 1.839999999999999  L 1.7971428571428558 7.756923076923075  C 1.4971428571428558 8.079999999999997  1.0085714285714278 8.079999999999997  0.7085714285714276 7.756923076923075  C 0.4085714285714275 7.433846153846153  0.4085714285714275 6.907692307692306  0.7085714285714276 6.584615384615384  L 6.202857142857141 0.667692307692306  Z " stroke-width="0" stroke-dasharray="0" stroke="rgba(255, 255, 255, 0)" fill="none" transform="matrix(1 0 0 1 1530 3423 )" class="stroke" mask="url(#Clip9592)" />
  </g>
</svg>