<?xml version="1.0" encoding="utf-8"?>
<svg version="1.1" xmlns:xlink="http://www.w3.org/1999/xlink" width="38px" height="36px" xmlns="http://www.w3.org/2000/svg">
  <defs>
    <pattern id="BGPattern" patternUnits="userSpaceOnUse" alignment="0 0" imageRepeat="None" />
    <mask fill="white" id="Clip3070">
      <path d="M 15.637500000000001 7.607749994140626  C 16.354499994140625 7.1697500000000005  17.249999994140627 7.7165  17.249999994140627 8.590250005859374  L 17.249999994140627 13.205000005859375  C 17.249999994140627 14.080250005859376  16.352249994140625 14.627000005859374  15.63525 14.188999994140625  L 14.297250005859373 13.374499994140624  L 14.297250005859373 13.903249994140625  C 14.297250005859373 14.780749994140624  13.616999999999999 15.499999988281253  12.783749994140624 15.500000005859373  L 2.2635 15.500000005859373  C 1.4324999941406251 15.500000005859373  0.750000005859375 14.782250005859375  0.750000005859375 13.902500005859375  L 0.750000005859375 7.347499999999998  C 0.750000005859375 6.47  1.430249994140625 5.75  2.2635 6  L 12.785999994140626 6  C 13.617 5.75  14.298750000000002 6.46775  14.298750000000002 7.3475  L 14.298750000000002 8.422249994140625  L 15.636749994140626 7.607749994140626  Z M 9.484500005859376 10.043750005859376  L 6.7995 8.090750005859377  C 6.445499994140626 7.832750011718751  6.002249994140626 8.155250000000002  5.999999994140626 8.671250005859376  L 5.999999994140626 12.576500000000001  C 5.999999994140626 13.094750005859376  6.445499994140626 13.416500005859376  6.7995 13.159250000000002  L 9.484500005859376 11.20625  C 9.838500011718752 10.948250005859377  9.838500011718752 10.301750000000002  9.484500005859376 10.043750005859376  Z M 5.999999994140624 3.5000000316101367  C 5.999999994140624 4.328427153120282  5.3284271215101455 5.0000000257507615  4.499999999999999 5.0000000257507615  C 3.6715728784898523 5.0000000257507615  3.0000000058593743 4.328427153120282  3.0000000058593743 3.5000000316101367  C 3.0000000233171704 2.6715728908343794  3.671572890834379 2.0000000374695115  4.499999999999999 2.0000000374695115  C 5.3284271215101455 2.0000000374695115  5.999999994140624 2.67157291009999  5.999999994140624 3.5000000316101367  Z M 8.291450925329025 2.750381844253045  C 8.291450925329025 3.9768647321712933  9.273725254057325 4.97740494623358  10.499999994140627 4.999999994140625  C 10.513815505556849 5.000254555481657  10.527633068868337 5.000381844253045  10.541450925329025 5.000381844253045  C 11.78409161244831 5.000381844253045  12.791450925329025 3.99302253137233  12.791450925329025 2.750381844253045  C 12.791450925329025 1.50774115713376  11.78409161244831 0.5003818442530454  10.541450925329025 0.5003818442530454  C 10.527883117702615 0.5003818442530454  10.514315587596922 0.5005045678555191  10.500750000000002 0.5007499999999996  C 9.274175996953803 0.5229414963713008  8.291450925329025 1.5236071104653095  8.291450925329025 2.750381844253045  Z " fill-rule="evenodd" />
    </mask>
  </defs>
  <g transform="matrix(1 0 0 1 -115 -2 )">
    <path d="M 15.637500000000001 7.607749994140626  C 16.354499994140625 7.1697500000000005  17.249999994140627 7.7165  17.249999994140627 8.590250005859374  L 17.249999994140627 13.205000005859375  C 17.249999994140627 14.080250005859376  16.352249994140625 14.627000005859374  15.63525 14.188999994140625  L 14.297250005859373 13.374499994140624  L 14.297250005859373 13.903249994140625  C 14.297250005859373 14.780749994140624  13.616999999999999 15.499999988281253  12.783749994140624 15.500000005859373  L 2.2635 15.500000005859373  C 1.4324999941406251 15.500000005859373  0.750000005859375 14.782250005859375  0.750000005859375 13.902500005859375  L 0.750000005859375 7.347499999999998  C 0.750000005859375 6.47  1.430249994140625 5.75  2.2635 6  L 12.785999994140626 6  C 13.617 5.75  14.298750000000002 6.46775  14.298750000000002 7.3475  L 14.298750000000002 8.422249994140625  L 15.636749994140626 7.607749994140626  Z M 9.484500005859376 10.043750005859376  L 6.7995 8.090750005859377  C 6.445499994140626 7.832750011718751  6.002249994140626 8.155250000000002  5.999999994140626 8.671250005859376  L 5.999999994140626 12.576500000000001  C 5.999999994140626 13.094750005859376  6.445499994140626 13.416500005859376  6.7995 13.159250000000002  L 9.484500005859376 11.20625  C 9.838500011718752 10.948250005859377  9.838500011718752 10.301750000000002  9.484500005859376 10.043750005859376  Z M 5.999999994140624 3.5000000316101367  C 5.999999994140624 4.328427153120282  5.3284271215101455 5.0000000257507615  4.499999999999999 5.0000000257507615  C 3.6715728784898523 5.0000000257507615  3.0000000058593743 4.328427153120282  3.0000000058593743 3.5000000316101367  C 3.0000000233171704 2.6715728908343794  3.671572890834379 2.0000000374695115  4.499999999999999 2.0000000374695115  C 5.3284271215101455 2.0000000374695115  5.999999994140624 2.67157291009999  5.999999994140624 3.5000000316101367  Z M 8.291450925329025 2.750381844253045  C 8.291450925329025 3.9768647321712933  9.273725254057325 4.97740494623358  10.499999994140627 4.999999994140625  C 10.513815505556849 5.000254555481657  10.527633068868337 5.000381844253045  10.541450925329025 5.000381844253045  C 11.78409161244831 5.000381844253045  12.791450925329025 3.99302253137233  12.791450925329025 2.750381844253045  C 12.791450925329025 1.50774115713376  11.78409161244831 0.5003818442530454  10.541450925329025 0.5003818442530454  C 10.527883117702615 0.5003818442530454  10.514315587596922 0.5005045678555191  10.500750000000002 0.5007499999999996  C 9.274175996953803 0.5229414963713008  8.291450925329025 1.5236071104653095  8.291450925329025 2.750381844253045  Z " fill-rule="nonzero" fill="rgba(255, 64, 37, 1)" stroke="none" transform="matrix(1 0 0 1 125 12 )" class="fill" />
    <path d="M 15.637500000000001 7.607749994140626  C 16.354499994140625 7.1697500000000005  17.249999994140627 7.7165  17.249999994140627 8.590250005859374  L 17.249999994140627 13.205000005859375  C 17.249999994140627 14.080250005859376  16.352249994140625 14.627000005859374  15.63525 14.188999994140625  L 14.297250005859373 13.374499994140624  L 14.297250005859373 13.903249994140625  C 14.297250005859373 14.780749994140624  13.616999999999999 15.499999988281253  12.783749994140624 15.500000005859373  L 2.2635 15.500000005859373  C 1.4324999941406251 15.500000005859373  0.750000005859375 14.782250005859375  0.750000005859375 13.902500005859375  L 0.750000005859375 7.347499999999998  C 0.750000005859375 6.47  1.430249994140625 5.75  2.2635 6  L 12.785999994140626 6  C 13.617 5.75  14.298750000000002 6.46775  14.298750000000002 7.3475  L 14.298750000000002 8.422249994140625  L 15.636749994140626 7.607749994140626  Z " stroke-width="0" stroke-dasharray="0" stroke="rgba(255, 255, 255, 0)" fill="none" transform="matrix(1 0 0 1 125 12 )" class="stroke" mask="url(#Clip3070)" />
    <path d="M 9.484500005859376 10.043750005859376  L 6.7995 8.090750005859377  C 6.445499994140626 7.832750011718751  6.002249994140626 8.155250000000002  5.999999994140626 8.671250005859376  L 5.999999994140626 12.576500000000001  C 5.999999994140626 13.094750005859376  6.445499994140626 13.416500005859376  6.7995 13.159250000000002  L 9.484500005859376 11.20625  C 9.838500011718752 10.948250005859377  9.838500011718752 10.301750000000002  9.484500005859376 10.043750005859376  Z " stroke-width="0" stroke-dasharray="0" stroke="rgba(255, 255, 255, 0)" fill="none" transform="matrix(1 0 0 1 125 12 )" class="stroke" mask="url(#Clip3070)" />
    <path d="M 5.999999994140624 3.5000000316101367  C 5.999999994140624 4.328427153120282  5.3284271215101455 5.0000000257507615  4.499999999999999 5.0000000257507615  C 3.6715728784898523 5.0000000257507615  3.0000000058593743 4.328427153120282  3.0000000058593743 3.5000000316101367  C 3.0000000233171704 2.6715728908343794  3.671572890834379 2.0000000374695115  4.499999999999999 2.0000000374695115  C 5.3284271215101455 2.0000000374695115  5.999999994140624 2.67157291009999  5.999999994140624 3.5000000316101367  Z " stroke-width="0" stroke-dasharray="0" stroke="rgba(255, 255, 255, 0)" fill="none" transform="matrix(1 0 0 1 125 12 )" class="stroke" mask="url(#Clip3070)" />
    <path d="M 8.291450925329025 2.750381844253045  C 8.291450925329025 3.9768647321712933  9.273725254057325 4.97740494623358  10.499999994140627 4.999999994140625  C 10.513815505556849 5.000254555481657  10.527633068868337 5.000381844253045  10.541450925329025 5.000381844253045  C 11.78409161244831 5.000381844253045  12.791450925329025 3.99302253137233  12.791450925329025 2.750381844253045  C 12.791450925329025 1.50774115713376  11.78409161244831 0.5003818442530454  10.541450925329025 0.5003818442530454  C 10.527883117702615 0.5003818442530454  10.514315587596922 0.5005045678555191  10.500750000000002 0.5007499999999996  C 9.274175996953803 0.5229414963713008  8.291450925329025 1.5236071104653095  8.291450925329025 2.750381844253045  Z " stroke-width="0" stroke-dasharray="0" stroke="rgba(255, 255, 255, 0)" fill="none" transform="matrix(1 0 0 1 125 12 )" class="stroke" mask="url(#Clip3070)" />
  </g>
  <style>svg { filter: drop-shadow(0px 0px 5px rgba(0, 0, 0, 0.3137254901960784)); }</style>
</svg>