<?xml version="1.0" encoding="utf-8"?>
<svg version="1.1" xmlns:xlink="http://www.w3.org/1999/xlink" width="8px" height="8px" xmlns="http://www.w3.org/2000/svg">
  <defs>
    <pattern id="BGPattern" patternUnits="userSpaceOnUse" alignment="0 0" imageRepeat="None" />
    <mask fill="white" id="Clip4752">
      <path d="M 7.1666666699218755 4.305416669921875  C 7.1666666699218755 2.3877777832031253  5.612083339843751 0.8331944433593752  3.6944444433593757 0.8331944433593751  C 1.7768055566406256 0.8331944433593751  0.22222221679687504 2.3877777734375  0.22222222656250024 4.305416669921875  C 0.22222222656250024 6.223194443359375  1.7768055566406256 7.777638896484376  3.6944444433593757 7.7776388867187505  C 5.612083330078125 7.777638876953126  7.1666666699218755 6.223194443359375  7.1666666699218755 4.305416669921875  Z M 1.0555555566406256 4.3054166699218746  C 1.0555555566406256 2.8502777832031247  2.239305556640626 1.6665277832031244  3.6944444433593757 1.6665277734375001  C 5.1495833300781255 1.6665277734375001  6.333333330078126 2.8502777734375  6.333333330078126 4.3054166699218746  C 6.333333330078126 5.760555566406249  5.1495833300781255 6.944305556640624  3.6944444433593757 6.944305556640624  C 2.239305556640626 6.944305556640624  1.0555555566406256 5.760555556640624  1.0555555566406256 4.3054166699218746  Z " fill-rule="evenodd" />
    </mask>
  </defs>
  <g transform="matrix(1 0 0 1 -217 -2151 )">
    <path d="M 7.1666666699218755 4.305416669921875  C 7.1666666699218755 2.3877777832031253  5.612083339843751 0.8331944433593752  3.6944444433593757 0.8331944433593751  C 1.7768055566406256 0.8331944433593751  0.22222221679687504 2.3877777734375  0.22222222656250024 4.305416669921875  C 0.22222222656250024 6.223194443359375  1.7768055566406256 7.777638896484376  3.6944444433593757 7.7776388867187505  C 5.612083330078125 7.777638876953126  7.1666666699218755 6.223194443359375  7.1666666699218755 4.305416669921875  Z M 1.0555555566406256 4.3054166699218746  C 1.0555555566406256 2.8502777832031247  2.239305556640626 1.6665277832031244  3.6944444433593757 1.6665277734375001  C 5.1495833300781255 1.6665277734375001  6.333333330078126 2.8502777734375  6.333333330078126 4.3054166699218746  C 6.333333330078126 5.760555566406249  5.1495833300781255 6.944305556640624  3.6944444433593757 6.944305556640624  C 2.239305556640626 6.944305556640624  1.0555555566406256 5.760555556640624  1.0555555566406256 4.3054166699218746  Z " fill-rule="nonzero" fill="rgba(255, 255, 255, 1)" stroke="none" transform="matrix(1 0 0 1 217 2151 )" class="fill" />
    <path d="M 7.1666666699218755 4.305416669921875  C 7.1666666699218755 2.3877777832031253  5.612083339843751 0.8331944433593752  3.6944444433593757 0.8331944433593751  C 1.7768055566406256 0.8331944433593751  0.22222221679687504 2.3877777734375  0.22222222656250024 4.305416669921875  C 0.22222222656250024 6.223194443359375  1.7768055566406256 7.777638896484376  3.6944444433593757 7.7776388867187505  C 5.612083330078125 7.777638876953126  7.1666666699218755 6.223194443359375  7.1666666699218755 4.305416669921875  Z " stroke-width="0" stroke-dasharray="0" stroke="rgba(255, 255, 255, 0)" fill="none" transform="matrix(1 0 0 1 217 2151 )" class="stroke" mask="url(#Clip4752)" />
    <path d="M 1.0555555566406256 4.3054166699218746  C 1.0555555566406256 2.8502777832031247  2.239305556640626 1.6665277832031244  3.6944444433593757 1.6665277734375001  C 5.1495833300781255 1.6665277734375001  6.333333330078126 2.8502777734375  6.333333330078126 4.3054166699218746  C 6.333333330078126 5.760555566406249  5.1495833300781255 6.944305556640624  3.6944444433593757 6.944305556640624  C 2.239305556640626 6.944305556640624  1.0555555566406256 5.760555556640624  1.0555555566406256 4.3054166699218746  Z " stroke-width="0" stroke-dasharray="0" stroke="rgba(255, 255, 255, 0)" fill="none" transform="matrix(1 0 0 1 217 2151 )" class="stroke" mask="url(#Clip4752)" />
  </g>
</svg>