<?xml version="1.0" encoding="utf-8"?>
<svg version="1.1" xmlns:xlink="http://www.w3.org/1999/xlink" width="12px" height="13px" xmlns="http://www.w3.org/2000/svg">
  <defs>
    <pattern id="BGPattern" patternUnits="userSpaceOnUse" alignment="0 0" imageRepeat="None" />
    <mask fill="white" id="Clip4792">
      <path d="M 11.973436627604165 7.175889531243527  C 11.973436627604165 5.7191104213793835  11.418869544270834 4.324705641530682  10.412054752604169 3.2496875781578893  C 10.196817981770835 3.0197291565139848  9.831088893229168 3.0035719465692843  9.595426783854165 3.2136156631550774  C 9.359764674479168 3.4234715145066836  9.343000494791667 3.7800573754764595  9.5584299609375 4.0098279318861785  C 10.370240625000001 4.876681019882227  10.817285664062501 6.001110090041303  10.817285664062501 7.175889531243527  C 10.817285664062501 8.430515645217072  10.316286914062498 9.60999195848489  9.406396106770833 10.497135494702738  C 8.496505299479168 11.384279030920585  7.286786002604167 11.872752811679694  5.999989986979166 11.872752811679694  C 4.713193971354168 11.872752811679694  3.5034746744791674 11.384279030920583  2.5935838671875 10.497135494702738  C 1.6836930598958335 9.609991958484892  1.1826943098958336 8.430515645217074  1.1826943098958336 7.175889531243527  C 1.1826943098958336 5.921263417269981  1.6836930598958335 4.741787104002163  2.5935838671875 3.8546435677843176  C 3.2909355859375 3.1747256426863464  4.1644076432291675 2.729275120673061  5.113607578125001 2.558121424555999  L 5.113607578125001 3.467809906063688  C 5.113607578125001 3.7907662270281977  5.503615833333334 3.963235043261126  5.7527663671875 3.7505610737482886  L 7.563491471354167 2.20472943760645  C 7.738841028645835 2.0549934318975516  7.738841028645835 1.7889630952508346  7.563491471354167 1.6394149674714342  L 5.7527663671875 0.0937711965637828  C 5.503615833333334 -0.11890277294905434  5.113607578125001 0.05356604328387421  5.113607578125001 0.3765223642483838  L 5.113607578125001 1.4150927821499917  C 3.8545591796874996 1.5965795739597952  2.6926274609375 2.164148541162858  1.7761851302083336 3.0576798000305336  C 0.6479744921874999 4.157685183690715  0.026543346354166587 5.620288407806821  0.026543346354166587 7.175889531243527  C 0.026543346354166587 8.731490654680236  0.6479744921874999 10.19409387879634  1.7761851302083336 11.29409924976121  C 2.904395768229167 12.394104620726079  4.404501653645833 13  5.999989986979166 13  C 7.5954783203125 13  9.095584192708333 12.394104633421389  10.22379484375 11.29409924976121  C 11.352005494791666 10.194093866101028  11.973436640624998 8.731490641984925  11.973436627604165 7.175889531243527  Z " fill-rule="evenodd" />
    </mask>
  </defs>
  <g transform="matrix(1 0 0 1 -124 -535 )">
    <path d="M 11.973436627604165 7.175889531243527  C 11.973436627604165 5.7191104213793835  11.418869544270834 4.324705641530682  10.412054752604169 3.2496875781578893  C 10.196817981770835 3.0197291565139848  9.831088893229168 3.0035719465692843  9.595426783854165 3.2136156631550774  C 9.359764674479168 3.4234715145066836  9.343000494791667 3.7800573754764595  9.5584299609375 4.0098279318861785  C 10.370240625000001 4.876681019882227  10.817285664062501 6.001110090041303  10.817285664062501 7.175889531243527  C 10.817285664062501 8.430515645217072  10.316286914062498 9.60999195848489  9.406396106770833 10.497135494702738  C 8.496505299479168 11.384279030920585  7.286786002604167 11.872752811679694  5.999989986979166 11.872752811679694  C 4.713193971354168 11.872752811679694  3.5034746744791674 11.384279030920583  2.5935838671875 10.497135494702738  C 1.6836930598958335 9.609991958484892  1.1826943098958336 8.430515645217074  1.1826943098958336 7.175889531243527  C 1.1826943098958336 5.921263417269981  1.6836930598958335 4.741787104002163  2.5935838671875 3.8546435677843176  C 3.2909355859375 3.1747256426863464  4.1644076432291675 2.729275120673061  5.113607578125001 2.558121424555999  L 5.113607578125001 3.467809906063688  C 5.113607578125001 3.7907662270281977  5.503615833333334 3.963235043261126  5.7527663671875 3.7505610737482886  L 7.563491471354167 2.20472943760645  C 7.738841028645835 2.0549934318975516  7.738841028645835 1.7889630952508346  7.563491471354167 1.6394149674714342  L 5.7527663671875 0.0937711965637828  C 5.503615833333334 -0.11890277294905434  5.113607578125001 0.05356604328387421  5.113607578125001 0.3765223642483838  L 5.113607578125001 1.4150927821499917  C 3.8545591796874996 1.5965795739597952  2.6926274609375 2.164148541162858  1.7761851302083336 3.0576798000305336  C 0.6479744921874999 4.157685183690715  0.026543346354166587 5.620288407806821  0.026543346354166587 7.175889531243527  C 0.026543346354166587 8.731490654680236  0.6479744921874999 10.19409387879634  1.7761851302083336 11.29409924976121  C 2.904395768229167 12.394104620726079  4.404501653645833 13  5.999989986979166 13  C 7.5954783203125 13  9.095584192708333 12.394104633421389  10.22379484375 11.29409924976121  C 11.352005494791666 10.194093866101028  11.973436640624998 8.731490641984925  11.973436627604165 7.175889531243527  Z " fill-rule="nonzero" fill="rgba(255, 255, 255, 1)" stroke="none" transform="matrix(1 0 0 1 124 535 )" class="fill" />
    <path d="M 11.973436627604165 7.175889531243527  C 11.973436627604165 5.7191104213793835  11.418869544270834 4.324705641530682  10.412054752604169 3.2496875781578893  C 10.196817981770835 3.0197291565139848  9.831088893229168 3.0035719465692843  9.595426783854165 3.2136156631550774  C 9.359764674479168 3.4234715145066836  9.343000494791667 3.7800573754764595  9.5584299609375 4.0098279318861785  C 10.370240625000001 4.876681019882227  10.817285664062501 6.001110090041303  10.817285664062501 7.175889531243527  C 10.817285664062501 8.430515645217072  10.316286914062498 9.60999195848489  9.406396106770833 10.497135494702738  C 8.496505299479168 11.384279030920585  7.286786002604167 11.872752811679694  5.999989986979166 11.872752811679694  C 4.713193971354168 11.872752811679694  3.5034746744791674 11.384279030920583  2.5935838671875 10.497135494702738  C 1.6836930598958335 9.609991958484892  1.1826943098958336 8.430515645217074  1.1826943098958336 7.175889531243527  C 1.1826943098958336 5.921263417269981  1.6836930598958335 4.741787104002163  2.5935838671875 3.8546435677843176  C 3.2909355859375 3.1747256426863464  4.1644076432291675 2.729275120673061  5.113607578125001 2.558121424555999  L 5.113607578125001 3.467809906063688  C 5.113607578125001 3.7907662270281977  5.503615833333334 3.963235043261126  5.7527663671875 3.7505610737482886  L 7.563491471354167 2.20472943760645  C 7.738841028645835 2.0549934318975516  7.738841028645835 1.7889630952508346  7.563491471354167 1.6394149674714342  L 5.7527663671875 0.0937711965637828  C 5.503615833333334 -0.11890277294905434  5.113607578125001 0.05356604328387421  5.113607578125001 0.3765223642483838  L 5.113607578125001 1.4150927821499917  C 3.8545591796874996 1.5965795739597952  2.6926274609375 2.164148541162858  1.7761851302083336 3.0576798000305336  C 0.6479744921874999 4.157685183690715  0.026543346354166587 5.620288407806821  0.026543346354166587 7.175889531243527  C 0.026543346354166587 8.731490654680236  0.6479744921874999 10.19409387879634  1.7761851302083336 11.29409924976121  C 2.904395768229167 12.394104620726079  4.404501653645833 13  5.999989986979166 13  C 7.5954783203125 13  9.095584192708333 12.394104633421389  10.22379484375 11.29409924976121  C 11.352005494791666 10.194093866101028  11.973436640624998 8.731490641984925  11.973436627604165 7.175889531243527  Z " stroke-width="0" stroke-dasharray="0" stroke="rgba(255, 255, 255, 0)" fill="none" transform="matrix(1 0 0 1 124 535 )" class="stroke" mask="url(#Clip4792)" />
  </g>
</svg>