<?xml version="1.0" encoding="utf-8"?>
<svg version="1.1" xmlns:xlink="http://www.w3.org/1999/xlink" width="7px" height="7px" xmlns="http://www.w3.org/2000/svg">
  <defs>
    <pattern id="BGPattern" patternUnits="userSpaceOnUse" alignment="0 0" imageRepeat="None" />
    <mask fill="white" id="Clip6081">
      <path d="M 6.379999999999999 5.005  C 6.642499999999998 5.2675  6.642499999999998 5.695  6.379999999999999 5.9575  C 6.1175 6.219999999999999  5.689999999999998 6.219999999999999  5.427499999999998 5.9575  L 0.6200000000000001 1.15  C 0.35749999999999993 0.8875000000000002  0.35749999999999993 0.4599999999999995  0.6200000000000001 0.1974999999999998  C 0.8825000000000003 -0.06499999999999995  1.3099999999999996 -0.06499999999999995  1.5724999999999998 0.1974999999999998  L 6.379999999999999 5.005  Z " fill-rule="evenodd" />
    </mask>
  </defs>
  <g transform="matrix(1 0 0 1 -228 -481 )">
    <path d="M 6.379999999999999 5.005  C 6.642499999999998 5.2675  6.642499999999998 5.695  6.379999999999999 5.9575  C 6.1175 6.219999999999999  5.689999999999998 6.219999999999999  5.427499999999998 5.9575  L 0.6200000000000001 1.15  C 0.35749999999999993 0.8875000000000002  0.35749999999999993 0.4599999999999995  0.6200000000000001 0.1974999999999998  C 0.8825000000000003 -0.06499999999999995  1.3099999999999996 -0.06499999999999995  1.5724999999999998 0.1974999999999998  L 6.379999999999999 5.005  Z " fill-rule="nonzero" fill="rgba(102, 102, 102, 1)" stroke="none" transform="matrix(1 0 0 1 228 481 )" class="fill" />
    <path d="M 6.379999999999999 5.005  C 6.642499999999998 5.2675  6.642499999999998 5.695  6.379999999999999 5.9575  C 6.1175 6.219999999999999  5.689999999999998 6.219999999999999  5.427499999999998 5.9575  L 0.6200000000000001 1.15  C 0.35749999999999993 0.8875000000000002  0.35749999999999993 0.4599999999999995  0.6200000000000001 0.1974999999999998  C 0.8825000000000003 -0.06499999999999995  1.3099999999999996 -0.06499999999999995  1.5724999999999998 0.1974999999999998  L 6.379999999999999 5.005  Z " stroke-width="0" stroke-dasharray="0" stroke="rgba(255, 255, 255, 0)" fill="none" transform="matrix(1 0 0 1 228 481 )" class="stroke" mask="url(#Clip6081)" />
  </g>
</svg>