<?xml version="1.0" encoding="utf-8"?>
<svg version="1.1" xmlns:xlink="http://www.w3.org/1999/xlink" width="18px" height="19px" xmlns="http://www.w3.org/2000/svg">
  <defs>
    <pattern id="BGPattern" patternUnits="userSpaceOnUse" alignment="0 0" imageRepeat="None" />
    <mask fill="white" id="Clip8555">
      <path d="M 1.2741210937499998 10.595976562500002  C 0.6190429687500001 12.138242187500001  0.5126953125 13.609589843750001  1.03859375 13.884453125  C 1.401328125 14.073828125000002  1.9699609375000002 13.642617187500003  2.5021875000000007 12.851074218750002  C 2.7129492187500004 13.713515625000003  3.2344726562500004 14.494375000000002  3.9793945312499996 15.12080078125  C 3.1980664062499997 15.409238281250001  2.6876953125 15.880292968750002  2.6876953125 16.41439453125  C 2.6876953125 17.292402343750002  4.06873046875 18.00232421875  5.773203125 18.00232421875  C 7.310625 18.00232421875  8.583886718750001 17.425410156250003  8.81890625 16.666953125000003  C 8.88203125 16.665996093750003  9.12482421875 16.665996093750003  9.186015625 16.666953125000003  C 9.42201171875 17.424453125000003  10.69625 18.00232421875  12.23267578125 18.00232421875  C 13.937109374999999 18.00232421875  15.31818359375 17.291425781250002  15.31818359375 16.41439453125  C 15.31818359375 15.881250000000001  14.8083203125 15.409238281250001  14.026484374999999 15.12080078125  C 14.770410156249998 14.493398437500002  15.293847656250001 13.713515625000003  15.503652343749998 12.851074218750002  C 16.0358984375 13.642617187500003  16.603066406249997 14.073828125000002  16.9662890625 13.884453125  C 17.492656250000003 13.609589843750001  17.38876953125 12.137265625000001  16.7312890625 10.595976562500002  C 16.216542968749998 9.38390625  15.518203125 8.49140625  14.98408203125 8.294257812500001  C 14.99185546875 8.217519531250002  14.995722656249999 8.138828125  14.995722656249999 8.06115234375  C 14.995722656249999 7.59302734375  14.865625000000001 7.159863281250001  14.643203125 6.807324218750001  C 14.647089843749999 6.780117187500001  14.647089843749999 6.751972656250001  14.647089843749999 6.724765625000001  C 14.647089843749999 6.5091796875000005  14.59560546875 6.307167968750001  14.508144531249998 6.1323437499999995  C 14.373203125 2.981777343750001  12.322011718749998 0.47996093750000113  9.002949218749999 0.47996093750000113  C 5.681933593749999 0.47996093750000113  3.6297851562499996 2.981777343750001  3.49625 6.1323437499999995  C 3.407871093749999 6.308144531250001  3.356894531249999 6.510136718750001  3.356894531249999 6.724765625000001  C 3.356894531249999 6.751972656250001  3.3588281249999996 6.780136718750001  3.35982421875 6.807324218750001  C 3.13935546875 7.159863281250001  3.0092187499999996 7.592050781250001  3.0092187499999996 8.06115234375  C 3.0092187499999996 8.13884765625  3.0121484374999996 8.216523437500001  3.0189453124999996 8.294257812500001  C 2.488652343749999 8.49140625  1.7879296874999997 9.38490234375  1.2741601562499998 10.595976562500002  Z " fill-rule="evenodd" />
    </mask>
  </defs>
  <g transform="matrix(1 0 0 1 -168 -548 )">
    <path d="M 1.2741210937499998 10.595976562500002  C 0.6190429687500001 12.138242187500001  0.5126953125 13.609589843750001  1.03859375 13.884453125  C 1.401328125 14.073828125000002  1.9699609375000002 13.642617187500003  2.5021875000000007 12.851074218750002  C 2.7129492187500004 13.713515625000003  3.2344726562500004 14.494375000000002  3.9793945312499996 15.12080078125  C 3.1980664062499997 15.409238281250001  2.6876953125 15.880292968750002  2.6876953125 16.41439453125  C 2.6876953125 17.292402343750002  4.06873046875 18.00232421875  5.773203125 18.00232421875  C 7.310625 18.00232421875  8.583886718750001 17.425410156250003  8.81890625 16.666953125000003  C 8.88203125 16.665996093750003  9.12482421875 16.665996093750003  9.186015625 16.666953125000003  C 9.42201171875 17.424453125000003  10.69625 18.00232421875  12.23267578125 18.00232421875  C 13.937109374999999 18.00232421875  15.31818359375 17.291425781250002  15.31818359375 16.41439453125  C 15.31818359375 15.881250000000001  14.8083203125 15.409238281250001  14.026484374999999 15.12080078125  C 14.770410156249998 14.493398437500002  15.293847656250001 13.713515625000003  15.503652343749998 12.851074218750002  C 16.0358984375 13.642617187500003  16.603066406249997 14.073828125000002  16.9662890625 13.884453125  C 17.492656250000003 13.609589843750001  17.38876953125 12.137265625000001  16.7312890625 10.595976562500002  C 16.216542968749998 9.38390625  15.518203125 8.49140625  14.98408203125 8.294257812500001  C 14.99185546875 8.217519531250002  14.995722656249999 8.138828125  14.995722656249999 8.06115234375  C 14.995722656249999 7.59302734375  14.865625000000001 7.159863281250001  14.643203125 6.807324218750001  C 14.647089843749999 6.780117187500001  14.647089843749999 6.751972656250001  14.647089843749999 6.724765625000001  C 14.647089843749999 6.5091796875000005  14.59560546875 6.307167968750001  14.508144531249998 6.1323437499999995  C 14.373203125 2.981777343750001  12.322011718749998 0.47996093750000113  9.002949218749999 0.47996093750000113  C 5.681933593749999 0.47996093750000113  3.6297851562499996 2.981777343750001  3.49625 6.1323437499999995  C 3.407871093749999 6.308144531250001  3.356894531249999 6.510136718750001  3.356894531249999 6.724765625000001  C 3.356894531249999 6.751972656250001  3.3588281249999996 6.780136718750001  3.35982421875 6.807324218750001  C 3.13935546875 7.159863281250001  3.0092187499999996 7.592050781250001  3.0092187499999996 8.06115234375  C 3.0092187499999996 8.13884765625  3.0121484374999996 8.216523437500001  3.0189453124999996 8.294257812500001  C 2.488652343749999 8.49140625  1.7879296874999997 9.38490234375  1.2741601562499998 10.595976562500002  Z " fill-rule="nonzero" fill="rgba(255, 255, 255, 1)" stroke="none" transform="matrix(1 0 0 1 168 548 )" class="fill" />
    <path d="M 1.2741210937499998 10.595976562500002  C 0.6190429687500001 12.138242187500001  0.5126953125 13.609589843750001  1.03859375 13.884453125  C 1.401328125 14.073828125000002  1.9699609375000002 13.642617187500003  2.5021875000000007 12.851074218750002  C 2.7129492187500004 13.713515625000003  3.2344726562500004 14.494375000000002  3.9793945312499996 15.12080078125  C 3.1980664062499997 15.409238281250001  2.6876953125 15.880292968750002  2.6876953125 16.41439453125  C 2.6876953125 17.292402343750002  4.06873046875 18.00232421875  5.773203125 18.00232421875  C 7.310625 18.00232421875  8.583886718750001 17.425410156250003  8.81890625 16.666953125000003  C 8.88203125 16.665996093750003  9.12482421875 16.665996093750003  9.186015625 16.666953125000003  C 9.42201171875 17.424453125000003  10.69625 18.00232421875  12.23267578125 18.00232421875  C 13.937109374999999 18.00232421875  15.31818359375 17.291425781250002  15.31818359375 16.41439453125  C 15.31818359375 15.881250000000001  14.8083203125 15.409238281250001  14.026484374999999 15.12080078125  C 14.770410156249998 14.493398437500002  15.293847656250001 13.713515625000003  15.503652343749998 12.851074218750002  C 16.0358984375 13.642617187500003  16.603066406249997 14.073828125000002  16.9662890625 13.884453125  C 17.492656250000003 13.609589843750001  17.38876953125 12.137265625000001  16.7312890625 10.595976562500002  C 16.216542968749998 9.38390625  15.518203125 8.49140625  14.98408203125 8.294257812500001  C 14.99185546875 8.217519531250002  14.995722656249999 8.138828125  14.995722656249999 8.06115234375  C 14.995722656249999 7.59302734375  14.865625000000001 7.159863281250001  14.643203125 6.807324218750001  C 14.647089843749999 6.780117187500001  14.647089843749999 6.751972656250001  14.647089843749999 6.724765625000001  C 14.647089843749999 6.5091796875000005  14.59560546875 6.307167968750001  14.508144531249998 6.1323437499999995  C 14.373203125 2.981777343750001  12.322011718749998 0.47996093750000113  9.002949218749999 0.47996093750000113  C 5.681933593749999 0.47996093750000113  3.6297851562499996 2.981777343750001  3.49625 6.1323437499999995  C 3.407871093749999 6.308144531250001  3.356894531249999 6.510136718750001  3.356894531249999 6.724765625000001  C 3.356894531249999 6.751972656250001  3.3588281249999996 6.780136718750001  3.35982421875 6.807324218750001  C 3.13935546875 7.159863281250001  3.0092187499999996 7.592050781250001  3.0092187499999996 8.06115234375  C 3.0092187499999996 8.13884765625  3.0121484374999996 8.216523437500001  3.0189453124999996 8.294257812500001  C 2.488652343749999 8.49140625  1.7879296874999997 9.38490234375  1.2741601562499998 10.595976562500002  Z " stroke-width="0" stroke-dasharray="0" stroke="rgba(255, 255, 255, 0)" fill="none" transform="matrix(1 0 0 1 168 548 )" class="stroke" mask="url(#Clip8555)" />
  </g>
</svg>