<?xml version="1.0" encoding="utf-8"?>
<svg version="1.1" xmlns:xlink="http://www.w3.org/1999/xlink" width="7px" height="7px" xmlns="http://www.w3.org/2000/svg">
  <defs>
    <pattern id="BGPattern" patternUnits="userSpaceOnUse" alignment="0 0" imageRepeat="None" />
    <mask fill="white" id="Clip3434">
      <path d="M 5.427499999999998 1.0424999999999986  C 5.689999999999998 0.7799999999999985  6.1175 0.7799999999999985  6.379999999999999 1.0424999999999995  C 6.642499999999998 1.3049999999999997  6.642499999999998 1.732499999999999  6.379999999999999 1.994999999999999  L 1.572499999999999 6.802499999999998  C 1.3099999999999987 7.064999999999998  0.8824999999999993 7.064999999999998  0.6199999999999992 6.802499999999998  C 0.35749999999999904 6.539999999999999  0.35749999999999904 6.112499999999999  0.6199999999999992 5.85  L 5.427499999999998 1.0424999999999986  Z " fill-rule="evenodd" />
    </mask>
  </defs>
  <g transform="matrix(1 0 0 1 -228 -485 )">
    <path d="M 5.427499999999998 1.0424999999999986  C 5.689999999999998 0.7799999999999985  6.1175 0.7799999999999985  6.379999999999999 1.0424999999999995  C 6.642499999999998 1.3049999999999997  6.642499999999998 1.732499999999999  6.379999999999999 1.994999999999999  L 1.572499999999999 6.802499999999998  C 1.3099999999999987 7.064999999999998  0.8824999999999993 7.064999999999998  0.6199999999999992 6.802499999999998  C 0.35749999999999904 6.539999999999999  0.35749999999999904 6.112499999999999  0.6199999999999992 5.85  L 5.427499999999998 1.0424999999999986  Z " fill-rule="nonzero" fill="rgba(102, 102, 102, 1)" stroke="none" transform="matrix(1 0 0 1 228 485 )" class="fill" />
    <path d="M 5.427499999999998 1.0424999999999986  C 5.689999999999998 0.7799999999999985  6.1175 0.7799999999999985  6.379999999999999 1.0424999999999995  C 6.642499999999998 1.3049999999999997  6.642499999999998 1.732499999999999  6.379999999999999 1.994999999999999  L 1.572499999999999 6.802499999999998  C 1.3099999999999987 7.064999999999998  0.8824999999999993 7.064999999999998  0.6199999999999992 6.802499999999998  C 0.35749999999999904 6.539999999999999  0.35749999999999904 6.112499999999999  0.6199999999999992 5.85  L 5.427499999999998 1.0424999999999986  Z " stroke-width="0" stroke-dasharray="0" stroke="rgba(255, 255, 255, 0)" fill="none" transform="matrix(1 0 0 1 228 485 )" class="stroke" mask="url(#Clip3434)" />
  </g>
</svg>