<?xml version="1.0" encoding="utf-8"?>
<svg version="1.1" xmlns:xlink="http://www.w3.org/1999/xlink" width="20px" height="20px" xmlns="http://www.w3.org/2000/svg">
  <defs>
    <pattern id="BGPattern" patternUnits="userSpaceOnUse" alignment="0 0" imageRepeat="None" />
    <mask fill="white" id="Clip9761">
      <path d="M 14.37428429830598 19.029045643153495  L 13.181818183593748 15.818181816406195  L 11.608695652173907 15.818181816406195  L 1.90909091796874 15.818181816406195  C 1 15.818181816406195  1.2727272851562361 10.090909082031203  1.272727265625008 9.181818183593805  L 3.272727265625008 3.363636367187496  C 3.272727265625008 3  3.454545449218756 2.727272734374992  3.727272734374992 2.454545449218699  C 3.90909091796874 2.272727265625008  4.181818183593748 2.181818183593805  4.454545449218756 2.181818183593805  C 4.818181816406252 2.181818183593805  5.09090908203126 2.363636367187496  5.363636367187496 2.545454550781301  L 6.727272734374992 4.272727265625008  C 7.272727285156236 4.909090898437512  8.090909101562488 5.272727265625008  8.90909091796874 5.272727265625008  L 11 5.272727265625008  C 11.818181816406252 5.272727265625008  12.636363632812504 4.909090898437512  13.181818183593748 4.272727265625008  L 14.636363632812504 2.545454550781301  C 15.09090908203126 2.090909101562488  15.818181816406252 2  16.272727265625008 2.363636367187496  C 16.545454531249987 2.545454550781301  16.727272714843764 2.909090917968797  16.727272734374992 3.272727265625008  L 18.727272734374992 9.181818183593805  C 18.727272734374992 10.090909101562488  19 15.818181816406195  18.09090908203126 15.818181816406195  L 15.528927942023415 15.818053857774089  L 16.316271998999838 17.181818183593805  L 18 17.181818183593805  C 19.636363632812504 17.181818183593805  20 10.818181816406195  20 9.181818183593805  L 18 3.363636367187496  C 18 2.636363632812504  17.727272734374992 1.909090917968797  17.09090908203126 1.454545449218699  C 16.09090908203126 0.636363632812504  14.545454531250016 0.727272714843707  13.636363632812504 1.727272734374992  L 12.181818183593748 3.454545449218699  C 11.90909091796874 3.818181816406195  11.454545449218756 4  11 4  L 9 4  C 8.545454550781244 4  8.09090908203126 3.818181816406195  7.818181816406252 3.454545449218699  L 6.272727265625008 1.727272734374992  C 5.454545449218756 0.7272727343749921  3.90909091796874 0.636363632812504  2.90909091796874 1.454545449218699  C 2.272727265625008 1.909090917968797  2 2.636363632812504  2 3.363636367187496  L 0 9.181818183593805  C 0 10.818181816406195  0.36363636718749603 17.181818183593805  1.90909091796874 17  L 12.074534161490675 17  L 13.181818183593748 19.029045643153495  L 14.37428429830598 19.029045643153495  Z " fill-rule="evenodd" />
    </mask>
  </defs>
  <g transform="matrix(1 0 0 1 -236 -548 )">
    <path d="M 14.37428429830598 19.029045643153495  L 13.181818183593748 15.818181816406195  L 11.608695652173907 15.818181816406195  L 1.90909091796874 15.818181816406195  C 1 15.818181816406195  1.2727272851562361 10.090909082031203  1.272727265625008 9.181818183593805  L 3.272727265625008 3.363636367187496  C 3.272727265625008 3  3.454545449218756 2.727272734374992  3.727272734374992 2.454545449218699  C 3.90909091796874 2.272727265625008  4.181818183593748 2.181818183593805  4.454545449218756 2.181818183593805  C 4.818181816406252 2.181818183593805  5.09090908203126 2.363636367187496  5.363636367187496 2.545454550781301  L 6.727272734374992 4.272727265625008  C 7.272727285156236 4.909090898437512  8.090909101562488 5.272727265625008  8.90909091796874 5.272727265625008  L 11 5.272727265625008  C 11.818181816406252 5.272727265625008  12.636363632812504 4.909090898437512  13.181818183593748 4.272727265625008  L 14.636363632812504 2.545454550781301  C 15.09090908203126 2.090909101562488  15.818181816406252 2  16.272727265625008 2.363636367187496  C 16.545454531249987 2.545454550781301  16.727272714843764 2.909090917968797  16.727272734374992 3.272727265625008  L 18.727272734374992 9.181818183593805  C 18.727272734374992 10.090909101562488  19 15.818181816406195  18.09090908203126 15.818181816406195  L 15.528927942023415 15.818053857774089  L 16.316271998999838 17.181818183593805  L 18 17.181818183593805  C 19.636363632812504 17.181818183593805  20 10.818181816406195  20 9.181818183593805  L 18 3.363636367187496  C 18 2.636363632812504  17.727272734374992 1.909090917968797  17.09090908203126 1.454545449218699  C 16.09090908203126 0.636363632812504  14.545454531250016 0.727272714843707  13.636363632812504 1.727272734374992  L 12.181818183593748 3.454545449218699  C 11.90909091796874 3.818181816406195  11.454545449218756 4  11 4  L 9 4  C 8.545454550781244 4  8.09090908203126 3.818181816406195  7.818181816406252 3.454545449218699  L 6.272727265625008 1.727272734374992  C 5.454545449218756 0.7272727343749921  3.90909091796874 0.636363632812504  2.90909091796874 1.454545449218699  C 2.272727265625008 1.909090917968797  2 2.636363632812504  2 3.363636367187496  L 0 9.181818183593805  C 0 10.818181816406195  0.36363636718749603 17.181818183593805  1.90909091796874 17  L 12.074534161490675 17  L 13.181818183593748 19.029045643153495  L 14.37428429830598 19.029045643153495  Z " fill-rule="nonzero" fill="rgba(255, 255, 255, 1)" stroke="none" transform="matrix(1 0 0 1 236 548 )" class="fill" />
    <path d="M 14.37428429830598 19.029045643153495  L 13.181818183593748 15.818181816406195  L 11.608695652173907 15.818181816406195  L 1.90909091796874 15.818181816406195  C 1 15.818181816406195  1.2727272851562361 10.090909082031203  1.272727265625008 9.181818183593805  L 3.272727265625008 3.363636367187496  C 3.272727265625008 3  3.454545449218756 2.727272734374992  3.727272734374992 2.454545449218699  C 3.90909091796874 2.272727265625008  4.181818183593748 2.181818183593805  4.454545449218756 2.181818183593805  C 4.818181816406252 2.181818183593805  5.09090908203126 2.363636367187496  5.363636367187496 2.545454550781301  L 6.727272734374992 4.272727265625008  C 7.272727285156236 4.909090898437512  8.090909101562488 5.272727265625008  8.90909091796874 5.272727265625008  L 11 5.272727265625008  C 11.818181816406252 5.272727265625008  12.636363632812504 4.909090898437512  13.181818183593748 4.272727265625008  L 14.636363632812504 2.545454550781301  C 15.09090908203126 2.090909101562488  15.818181816406252 2  16.272727265625008 2.363636367187496  C 16.545454531249987 2.545454550781301  16.727272714843764 2.909090917968797  16.727272734374992 3.272727265625008  L 18.727272734374992 9.181818183593805  C 18.727272734374992 10.090909101562488  19 15.818181816406195  18.09090908203126 15.818181816406195  L 15.528927942023415 15.818053857774089  L 16.316271998999838 17.181818183593805  L 18 17.181818183593805  C 19.636363632812504 17.181818183593805  20 10.818181816406195  20 9.181818183593805  L 18 3.363636367187496  C 18 2.636363632812504  17.727272734374992 1.909090917968797  17.09090908203126 1.454545449218699  C 16.09090908203126 0.636363632812504  14.545454531250016 0.727272714843707  13.636363632812504 1.727272734374992  L 12.181818183593748 3.454545449218699  C 11.90909091796874 3.818181816406195  11.454545449218756 4  11 4  L 9 4  C 8.545454550781244 4  8.09090908203126 3.818181816406195  7.818181816406252 3.454545449218699  L 6.272727265625008 1.727272734374992  C 5.454545449218756 0.7272727343749921  3.90909091796874 0.636363632812504  2.90909091796874 1.454545449218699  C 2.272727265625008 1.909090917968797  2 2.636363632812504  2 3.363636367187496  L 0 9.181818183593805  C 0 10.818181816406195  0.36363636718749603 17.181818183593805  1.90909091796874 17  L 12.074534161490675 17  L 13.181818183593748 19.029045643153495  L 14.37428429830598 19.029045643153495  Z " stroke-width="0" stroke-dasharray="0" stroke="rgba(255, 255, 255, 0)" fill="none" transform="matrix(1 0 0 1 236 548 )" class="stroke" mask="url(#Clip9761)" />
  </g>
</svg>