<?xml version="1.0" encoding="utf-8"?>
<svg version="1.1" xmlns:xlink="http://www.w3.org/1999/xlink" width="5px" height="4px" xmlns="http://www.w3.org/2000/svg">
  <defs>
    <pattern id="BGPattern" patternUnits="userSpaceOnUse" alignment="0 0" imageRepeat="None" />
    <mask fill="white" id="Clip1873">
      <path d="M 1.8724999999999996 3.427500000000002  C 1.8149999999999995 3.482500000000001  1.7374999999999998 3.512500000000001  1.6600000000000001 3.5125  C 1.5899999999999999 3.5125  1.5175 3.4875000000000007  1.4625000000000004 3.4375  L 0.11250000000000027 2.245000000000001  C -0.012499999999999734 2.1350000000000007  -0.022499999999999964 1.9450000000000003  0.08500000000000041 1.8225000000000007  C 0.19500000000000073 1.6975000000000007  0.38500000000000023 1.6875000000000009  0.5075000000000007 1.7950000000000008  L 1.6450000000000005 2.8000000000000007  L 3.51 0.9025000000000007  C 3.625 0.785000000000001  3.8149999999999995 0.7825000000000006  3.9350000000000005 0.9000000000000012  C 4.0525 1.0150000000000015  4.055 1.205000000000001  3.9375 1.325000000000001  L 1.8724999999999996 3.427500000000002  Z " fill-rule="evenodd" />
    </mask>
  </defs>
  <g transform="matrix(1 0 0 1 -1081 -199 )">
    <path d="M 1.8724999999999996 3.427500000000002  C 1.8149999999999995 3.482500000000001  1.7374999999999998 3.512500000000001  1.6600000000000001 3.5125  C 1.5899999999999999 3.5125  1.5175 3.4875000000000007  1.4625000000000004 3.4375  L 0.11250000000000027 2.245000000000001  C -0.012499999999999734 2.1350000000000007  -0.022499999999999964 1.9450000000000003  0.08500000000000041 1.8225000000000007  C 0.19500000000000073 1.6975000000000007  0.38500000000000023 1.6875000000000009  0.5075000000000007 1.7950000000000008  L 1.6450000000000005 2.8000000000000007  L 3.51 0.9025000000000007  C 3.625 0.785000000000001  3.8149999999999995 0.7825000000000006  3.9350000000000005 0.9000000000000012  C 4.0525 1.0150000000000015  4.055 1.205000000000001  3.9375 1.325000000000001  L 1.8724999999999996 3.427500000000002  Z " fill-rule="nonzero" fill="rgba(52, 140, 255, 1)" stroke="none" transform="matrix(1 0 0 1 1081 199 )" class="fill" />
    <path d="M 1.8724999999999996 3.427500000000002  C 1.8149999999999995 3.482500000000001  1.7374999999999998 3.512500000000001  1.6600000000000001 3.5125  C 1.5899999999999999 3.5125  1.5175 3.4875000000000007  1.4625000000000004 3.4375  L 0.11250000000000027 2.245000000000001  C -0.012499999999999734 2.1350000000000007  -0.022499999999999964 1.9450000000000003  0.08500000000000041 1.8225000000000007  C 0.19500000000000073 1.6975000000000007  0.38500000000000023 1.6875000000000009  0.5075000000000007 1.7950000000000008  L 1.6450000000000005 2.8000000000000007  L 3.51 0.9025000000000007  C 3.625 0.785000000000001  3.8149999999999995 0.7825000000000006  3.9350000000000005 0.9000000000000012  C 4.0525 1.0150000000000015  4.055 1.205000000000001  3.9375 1.325000000000001  L 1.8724999999999996 3.427500000000002  Z " stroke-width="0" stroke-dasharray="0" stroke="rgba(255, 255, 255, 0)" fill="none" transform="matrix(1 0 0 1 1081 199 )" class="stroke" mask="url(#Clip1873)" />
  </g>
</svg>