<?xml version="1.0" encoding="utf-8"?>
<svg version="1.1" xmlns:xlink="http://www.w3.org/1999/xlink" width="10px" height="10px" xmlns="http://www.w3.org/2000/svg">
  <defs>
    <pattern id="BGPattern" patternUnits="userSpaceOnUse" alignment="0 0" imageRepeat="None" />
    <mask fill="white" id="Clip11095">
      <path d="M 5.5550000000000015 9.38  C 5.445000000000001 9.5525  5.252500000000001 9.6575  5.045 9.6575  C 4.8374999999999995 9.6575  4.645 9.555  4.529999999999999 9.3825  L 3.9199999999999995 8.465  C 3.8125 8.3025  3.6174999999999997 8.2225  3.425 8.260000000000002  L 2.3449999999999998 8.477500000000001  C 2.1425 8.517500000000002  1.9324999999999997 8.455000000000002  1.785 8.31  C 1.6375000000000002 8.1625  1.575 7.955000000000001  1.6175000000000002 7.75  L 1.835 6.67  C 1.8725 6.477500000000001  1.7925 6.285  1.6300000000000001 6.175000000000001  L 0.7125000000000001 5.5649999999999995  C 0.54 5.45  0.4375000000000001 5.257499999999999  0.4375000000000001 5.05  C 0.4375000000000001 4.842500000000001  0.5400000000000001 4.65  0.7125000000000001 4.535  L 1.6300000000000001 3.9250000000000003  C 1.7925000000000002 3.8175000000000003  1.8725 3.6225  1.835 3.43  L 1.6175000000000002 2.3499999999999996  C 1.5775000000000001 2.1475  1.6400000000000001 1.9374999999999998  1.785 1.7925  C 1.9324999999999997 1.6449999999999998  2.14 1.5825  2.3449999999999998 1.6249999999999998  L 3.425 1.8424999999999998  C 3.6174999999999997 1.8824999999999998  3.8099999999999996 1.7999999999999996  3.9199999999999995 1.6374999999999997  L 4.53 0.725  C 4.6450000000000005 0.5525  4.8375 0.44999999999999996  5.045000000000001 0.44999999999999996  C 5.252500000000001 0.44999999999999996  5.445000000000001 0.5525  5.5600000000000005 0.725  L 6.17 1.6425  C 6.2775 1.805  6.4725 1.885  6.665 1.8475  L 7.744999999999999 1.6300000000000001  C 7.9475 1.59  8.157499999999999 1.6525  8.305 1.7975000000000003  C 8.4525 1.9425000000000003  8.515 2.1525000000000003  8.4725 2.355  L 8.255 3.4350000000000005  C 8.2175 3.6275000000000004  8.2975 3.8200000000000003  8.459999999999999 3.93  L 9.3775 4.54  C 9.549999999999999 4.655  9.6525 4.8475  9.6525 5.055000000000001  C 9.6525 5.262500000000001  9.549999999999999 5.455000000000001  9.3775 5.57  L 8.455 6.175000000000001  C 8.2925 6.282500000000001  8.2125 6.477500000000001  8.25 6.67  L 8.467500000000001 7.7475000000000005  C 8.5075 7.95  8.445000000000002 8.16  8.3 8.307500000000001  C 8.1525 8.455000000000002  7.945000000000001 8.517500000000002  7.74 8.475000000000001  L 6.66 8.2575  C 6.4675 8.22  6.275 8.3  6.165000000000001 8.4625  L 5.5550000000000015 9.38  Z M 3.3075 7.669999999999998  C 3.38 7.657499999999998  3.4525 7.649999999999998  3.525 7.65  C 3.8825 7.65  4.22 7.827500000000001  4.422499999999999 8.1325  L 5.0325 9.05  C 5.034999999999999 9.0525  5.0375 9.057500000000001  5.047499999999999 9.057500000000001  C 5.057499999999999 9.057500000000001  5.059999999999999 9.052500000000002  5.062499999999998 9.05  L 5.672499999999998 8.1325  C 5.917499999999998 7.765000000000001  6.352499999999999 7.585000000000001  6.7849999999999975 7.672499999999999  L 7.8649999999999975 7.890000000000001  C 7.867499999999997 7.890000000000001  7.874999999999997 7.8925  7.879999999999997 7.885000000000001  C 7.8874999999999975 7.8775  7.884999999999996 7.872500000000001  7.884999999999996 7.870000000000001  L 7.667499999999996 6.790000000000002  C 7.579999999999996 6.357500000000002  7.762499999999996 5.920000000000002  8.127499999999996 5.677500000000002  L 9.044999999999996 5.067500000000003  C 9.047499999999996 5.065000000000003  9.052499999999997 5.0625000000000036  9.052499999999997 5.052500000000003  C 9.052499999999997 5.042500000000003  9.047499999999998 5.040000000000004  9.044999999999996 5.037500000000003  L 8.127499999999996 4.427500000000004  C 7.759999999999997 4.182500000000004  7.5799999999999965 3.7475000000000036  7.667499999999996 3.3150000000000035  L 7.884999999999996 2.235000000000004  C 7.884999999999996 2.2325000000000035  7.887499999999996 2.2250000000000036  7.879999999999997 2.2200000000000037  C 7.872499999999997 2.2125000000000035  7.867499999999997 2.2150000000000034  7.8649999999999975 2.2150000000000034  L 6.7849999999999975 2.4325000000000037  C 6.352499999999997 2.520000000000003  5.914999999999998 2.3375000000000035  5.672499999999998 1.9725000000000037  L 5.062499999999998 1.0550000000000037  C 5.059999999999999 1.0525000000000038  5.057499999999999 1.0475000000000037  5.047499999999999 1.0475000000000037  C 5.0375 1.0475000000000037  5.034999999999999 1.0525000000000038  5.0325 1.0550000000000037  L 4.422499999999999 1.9725000000000037  C 4.177499999999999 2.340000000000004  3.7424999999999997 2.520000000000004  3.3099999999999996 2.4325000000000037  L 2.2299999999999995 2.2150000000000034  C 2.2274999999999996 2.2150000000000034  2.2199999999999998 2.2125000000000035  2.215 2.2200000000000037  C 2.2074999999999996 2.2275000000000036  2.21 2.2325000000000035  2.21 2.235000000000004  L 2.4274999999999998 3.3150000000000035  C 2.5149999999999997 3.7475000000000036  2.3324999999999996 4.185000000000003  1.9674999999999998 4.427500000000004  L 1.05 5.0375000000000005  C 1.0474999999999999 5.04  1.0425 5.0424999999999995  1.0425 5.0525  C 1.0425 5.0625  1.0474999999999999 5.0649999999999995  1.05 5.067499999999999  L 1.965 5.675  C 2.3325 5.92  2.5125 6.3549999999999995  2.425 6.7875  L 2.2075 7.8675  C 2.2075 7.869999999999999  2.205 7.8774999999999995  2.2125 7.8824999999999985  C 2.22 7.889999999999999  2.225 7.887499999999998  2.2275 7.887499999999998  L 3.3075 7.669999999999998  Z " fill-rule="evenodd" />
    </mask>
  </defs>
  <g transform="matrix(1 0 0 1 -1078 -196 )">
    <path d="M 5.5550000000000015 9.38  C 5.445000000000001 9.5525  5.252500000000001 9.6575  5.045 9.6575  C 4.8374999999999995 9.6575  4.645 9.555  4.529999999999999 9.3825  L 3.9199999999999995 8.465  C 3.8125 8.3025  3.6174999999999997 8.2225  3.425 8.260000000000002  L 2.3449999999999998 8.477500000000001  C 2.1425 8.517500000000002  1.9324999999999997 8.455000000000002  1.785 8.31  C 1.6375000000000002 8.1625  1.575 7.955000000000001  1.6175000000000002 7.75  L 1.835 6.67  C 1.8725 6.477500000000001  1.7925 6.285  1.6300000000000001 6.175000000000001  L 0.7125000000000001 5.5649999999999995  C 0.54 5.45  0.4375000000000001 5.257499999999999  0.4375000000000001 5.05  C 0.4375000000000001 4.842500000000001  0.5400000000000001 4.65  0.7125000000000001 4.535  L 1.6300000000000001 3.9250000000000003  C 1.7925000000000002 3.8175000000000003  1.8725 3.6225  1.835 3.43  L 1.6175000000000002 2.3499999999999996  C 1.5775000000000001 2.1475  1.6400000000000001 1.9374999999999998  1.785 1.7925  C 1.9324999999999997 1.6449999999999998  2.14 1.5825  2.3449999999999998 1.6249999999999998  L 3.425 1.8424999999999998  C 3.6174999999999997 1.8824999999999998  3.8099999999999996 1.7999999999999996  3.9199999999999995 1.6374999999999997  L 4.53 0.725  C 4.6450000000000005 0.5525  4.8375 0.44999999999999996  5.045000000000001 0.44999999999999996  C 5.252500000000001 0.44999999999999996  5.445000000000001 0.5525  5.5600000000000005 0.725  L 6.17 1.6425  C 6.2775 1.805  6.4725 1.885  6.665 1.8475  L 7.744999999999999 1.6300000000000001  C 7.9475 1.59  8.157499999999999 1.6525  8.305 1.7975000000000003  C 8.4525 1.9425000000000003  8.515 2.1525000000000003  8.4725 2.355  L 8.255 3.4350000000000005  C 8.2175 3.6275000000000004  8.2975 3.8200000000000003  8.459999999999999 3.93  L 9.3775 4.54  C 9.549999999999999 4.655  9.6525 4.8475  9.6525 5.055000000000001  C 9.6525 5.262500000000001  9.549999999999999 5.455000000000001  9.3775 5.57  L 8.455 6.175000000000001  C 8.2925 6.282500000000001  8.2125 6.477500000000001  8.25 6.67  L 8.467500000000001 7.7475000000000005  C 8.5075 7.95  8.445000000000002 8.16  8.3 8.307500000000001  C 8.1525 8.455000000000002  7.945000000000001 8.517500000000002  7.74 8.475000000000001  L 6.66 8.2575  C 6.4675 8.22  6.275 8.3  6.165000000000001 8.4625  L 5.5550000000000015 9.38  Z M 3.3075 7.669999999999998  C 3.38 7.657499999999998  3.4525 7.649999999999998  3.525 7.65  C 3.8825 7.65  4.22 7.827500000000001  4.422499999999999 8.1325  L 5.0325 9.05  C 5.034999999999999 9.0525  5.0375 9.057500000000001  5.047499999999999 9.057500000000001  C 5.057499999999999 9.057500000000001  5.059999999999999 9.052500000000002  5.062499999999998 9.05  L 5.672499999999998 8.1325  C 5.917499999999998 7.765000000000001  6.352499999999999 7.585000000000001  6.7849999999999975 7.672499999999999  L 7.8649999999999975 7.890000000000001  C 7.867499999999997 7.890000000000001  7.874999999999997 7.8925  7.879999999999997 7.885000000000001  C 7.8874999999999975 7.8775  7.884999999999996 7.872500000000001  7.884999999999996 7.870000000000001  L 7.667499999999996 6.790000000000002  C 7.579999999999996 6.357500000000002  7.762499999999996 5.920000000000002  8.127499999999996 5.677500000000002  L 9.044999999999996 5.067500000000003  C 9.047499999999996 5.065000000000003  9.052499999999997 5.0625000000000036  9.052499999999997 5.052500000000003  C 9.052499999999997 5.042500000000003  9.047499999999998 5.040000000000004  9.044999999999996 5.037500000000003  L 8.127499999999996 4.427500000000004  C 7.759999999999997 4.182500000000004  7.5799999999999965 3.7475000000000036  7.667499999999996 3.3150000000000035  L 7.884999999999996 2.235000000000004  C 7.884999999999996 2.2325000000000035  7.887499999999996 2.2250000000000036  7.879999999999997 2.2200000000000037  C 7.872499999999997 2.2125000000000035  7.867499999999997 2.2150000000000034  7.8649999999999975 2.2150000000000034  L 6.7849999999999975 2.4325000000000037  C 6.352499999999997 2.520000000000003  5.914999999999998 2.3375000000000035  5.672499999999998 1.9725000000000037  L 5.062499999999998 1.0550000000000037  C 5.059999999999999 1.0525000000000038  5.057499999999999 1.0475000000000037  5.047499999999999 1.0475000000000037  C 5.0375 1.0475000000000037  5.034999999999999 1.0525000000000038  5.0325 1.0550000000000037  L 4.422499999999999 1.9725000000000037  C 4.177499999999999 2.340000000000004  3.7424999999999997 2.520000000000004  3.3099999999999996 2.4325000000000037  L 2.2299999999999995 2.2150000000000034  C 2.2274999999999996 2.2150000000000034  2.2199999999999998 2.2125000000000035  2.215 2.2200000000000037  C 2.2074999999999996 2.2275000000000036  2.21 2.2325000000000035  2.21 2.235000000000004  L 2.4274999999999998 3.3150000000000035  C 2.5149999999999997 3.7475000000000036  2.3324999999999996 4.185000000000003  1.9674999999999998 4.427500000000004  L 1.05 5.0375000000000005  C 1.0474999999999999 5.04  1.0425 5.0424999999999995  1.0425 5.0525  C 1.0425 5.0625  1.0474999999999999 5.0649999999999995  1.05 5.067499999999999  L 1.965 5.675  C 2.3325 5.92  2.5125 6.3549999999999995  2.425 6.7875  L 2.2075 7.8675  C 2.2075 7.869999999999999  2.205 7.8774999999999995  2.2125 7.8824999999999985  C 2.22 7.889999999999999  2.225 7.887499999999998  2.2275 7.887499999999998  L 3.3075 7.669999999999998  Z " fill-rule="nonzero" fill="rgba(52, 140, 255, 1)" stroke="none" transform="matrix(1 0 0 1 1078 196 )" class="fill" />
    <path d="M 5.5550000000000015 9.38  C 5.445000000000001 9.5525  5.252500000000001 9.6575  5.045 9.6575  C 4.8374999999999995 9.6575  4.645 9.555  4.529999999999999 9.3825  L 3.9199999999999995 8.465  C 3.8125 8.3025  3.6174999999999997 8.2225  3.425 8.260000000000002  L 2.3449999999999998 8.477500000000001  C 2.1425 8.517500000000002  1.9324999999999997 8.455000000000002  1.785 8.31  C 1.6375000000000002 8.1625  1.575 7.955000000000001  1.6175000000000002 7.75  L 1.835 6.67  C 1.8725 6.477500000000001  1.7925 6.285  1.6300000000000001 6.175000000000001  L 0.7125000000000001 5.5649999999999995  C 0.54 5.45  0.4375000000000001 5.257499999999999  0.4375000000000001 5.05  C 0.4375000000000001 4.842500000000001  0.5400000000000001 4.65  0.7125000000000001 4.535  L 1.6300000000000001 3.9250000000000003  C 1.7925000000000002 3.8175000000000003  1.8725 3.6225  1.835 3.43  L 1.6175000000000002 2.3499999999999996  C 1.5775000000000001 2.1475  1.6400000000000001 1.9374999999999998  1.785 1.7925  C 1.9324999999999997 1.6449999999999998  2.14 1.5825  2.3449999999999998 1.6249999999999998  L 3.425 1.8424999999999998  C 3.6174999999999997 1.8824999999999998  3.8099999999999996 1.7999999999999996  3.9199999999999995 1.6374999999999997  L 4.53 0.725  C 4.6450000000000005 0.5525  4.8375 0.44999999999999996  5.045000000000001 0.44999999999999996  C 5.252500000000001 0.44999999999999996  5.445000000000001 0.5525  5.5600000000000005 0.725  L 6.17 1.6425  C 6.2775 1.805  6.4725 1.885  6.665 1.8475  L 7.744999999999999 1.6300000000000001  C 7.9475 1.59  8.157499999999999 1.6525  8.305 1.7975000000000003  C 8.4525 1.9425000000000003  8.515 2.1525000000000003  8.4725 2.355  L 8.255 3.4350000000000005  C 8.2175 3.6275000000000004  8.2975 3.8200000000000003  8.459999999999999 3.93  L 9.3775 4.54  C 9.549999999999999 4.655  9.6525 4.8475  9.6525 5.055000000000001  C 9.6525 5.262500000000001  9.549999999999999 5.455000000000001  9.3775 5.57  L 8.455 6.175000000000001  C 8.2925 6.282500000000001  8.2125 6.477500000000001  8.25 6.67  L 8.467500000000001 7.7475000000000005  C 8.5075 7.95  8.445000000000002 8.16  8.3 8.307500000000001  C 8.1525 8.455000000000002  7.945000000000001 8.517500000000002  7.74 8.475000000000001  L 6.66 8.2575  C 6.4675 8.22  6.275 8.3  6.165000000000001 8.4625  L 5.5550000000000015 9.38  Z " stroke-width="0" stroke-dasharray="0" stroke="rgba(255, 255, 255, 0)" fill="none" transform="matrix(1 0 0 1 1078 196 )" class="stroke" mask="url(#Clip11095)" />
    <path d="M 3.3075 7.669999999999998  C 3.38 7.657499999999998  3.4525 7.649999999999998  3.525 7.65  C 3.8825 7.65  4.22 7.827500000000001  4.422499999999999 8.1325  L 5.0325 9.05  C 5.034999999999999 9.0525  5.0375 9.057500000000001  5.047499999999999 9.057500000000001  C 5.057499999999999 9.057500000000001  5.059999999999999 9.052500000000002  5.062499999999998 9.05  L 5.672499999999998 8.1325  C 5.917499999999998 7.765000000000001  6.352499999999999 7.585000000000001  6.7849999999999975 7.672499999999999  L 7.8649999999999975 7.890000000000001  C 7.867499999999997 7.890000000000001  7.874999999999997 7.8925  7.879999999999997 7.885000000000001  C 7.8874999999999975 7.8775  7.884999999999996 7.872500000000001  7.884999999999996 7.870000000000001  L 7.667499999999996 6.790000000000002  C 7.579999999999996 6.357500000000002  7.762499999999996 5.920000000000002  8.127499999999996 5.677500000000002  L 9.044999999999996 5.067500000000003  C 9.047499999999996 5.065000000000003  9.052499999999997 5.0625000000000036  9.052499999999997 5.052500000000003  C 9.052499999999997 5.042500000000003  9.047499999999998 5.040000000000004  9.044999999999996 5.037500000000003  L 8.127499999999996 4.427500000000004  C 7.759999999999997 4.182500000000004  7.5799999999999965 3.7475000000000036  7.667499999999996 3.3150000000000035  L 7.884999999999996 2.235000000000004  C 7.884999999999996 2.2325000000000035  7.887499999999996 2.2250000000000036  7.879999999999997 2.2200000000000037  C 7.872499999999997 2.2125000000000035  7.867499999999997 2.2150000000000034  7.8649999999999975 2.2150000000000034  L 6.7849999999999975 2.4325000000000037  C 6.352499999999997 2.520000000000003  5.914999999999998 2.3375000000000035  5.672499999999998 1.9725000000000037  L 5.062499999999998 1.0550000000000037  C 5.059999999999999 1.0525000000000038  5.057499999999999 1.0475000000000037  5.047499999999999 1.0475000000000037  C 5.0375 1.0475000000000037  5.034999999999999 1.0525000000000038  5.0325 1.0550000000000037  L 4.422499999999999 1.9725000000000037  C 4.177499999999999 2.340000000000004  3.7424999999999997 2.520000000000004  3.3099999999999996 2.4325000000000037  L 2.2299999999999995 2.2150000000000034  C 2.2274999999999996 2.2150000000000034  2.2199999999999998 2.2125000000000035  2.215 2.2200000000000037  C 2.2074999999999996 2.2275000000000036  2.21 2.2325000000000035  2.21 2.235000000000004  L 2.4274999999999998 3.3150000000000035  C 2.5149999999999997 3.7475000000000036  2.3324999999999996 4.185000000000003  1.9674999999999998 4.427500000000004  L 1.05 5.0375000000000005  C 1.0474999999999999 5.04  1.0425 5.0424999999999995  1.0425 5.0525  C 1.0425 5.0625  1.0474999999999999 5.0649999999999995  1.05 5.067499999999999  L 1.965 5.675  C 2.3325 5.92  2.5125 6.3549999999999995  2.425 6.7875  L 2.2075 7.8675  C 2.2075 7.869999999999999  2.205 7.8774999999999995  2.2125 7.8824999999999985  C 2.22 7.889999999999999  2.225 7.887499999999998  2.2275 7.887499999999998  L 3.3075 7.669999999999998  Z " stroke-width="0" stroke-dasharray="0" stroke="rgba(255, 255, 255, 0)" fill="none" transform="matrix(1 0 0 1 1078 196 )" class="stroke" mask="url(#Clip11095)" />
  </g>
</svg>