<?xml version="1.0" encoding="utf-8"?>
<svg version="1.1" xmlns:xlink="http://www.w3.org/1999/xlink" width="18px" height="18px" xmlns="http://www.w3.org/2000/svg">
  <defs>
    <pattern id="BGPattern" patternUnits="userSpaceOnUse" alignment="0 0" imageRepeat="None" />
    <mask fill="white" id="Clip11404">
      <path d="M 0 6  C 0 2.6399999999999997  2.6399999999999997 0  6 0  C 9.36 0  12 2.6399999999999997  12 6  C 12 9.36  9.36 12  6 12  C 2.6399999999999997 12  0 9.36  0 6  Z " fill-rule="evenodd" />
    </mask>
  </defs>
  <g transform="matrix(1 0 0 1 -7 1 )">
    <path d="M 0 6  C 0 2.6399999999999997  2.6399999999999997 0  6 0  C 9.36 0  12 2.6399999999999997  12 6  C 12 9.36  9.36 12  6 12  C 2.6399999999999997 12  0 9.36  0 6  Z " fill-rule="nonzero" fill="rgba(30, 152, 215, 1)" stroke="none" transform="matrix(1 0 0 1 10 1 )" class="fill" />
    <path d="M 0 6  C 0 2.6399999999999997  2.6399999999999997 0  6 0  C 9.36 0  12 2.6399999999999997  12 6  C 12 9.36  9.36 12  6 12  C 2.6399999999999997 12  0 9.36  0 6  Z " stroke-width="2" stroke-dasharray="0" stroke="rgba(30, 152, 215, 1)" fill="none" transform="matrix(1 0 0 1 10 1 )" class="stroke" mask="url(#Clip11404)" />
  </g>
  <style>svg { filter: drop-shadow(0px 1px 1.5px rgba(0, 0, 0, 0.34901960784313724)); }</style>
</svg>