<?xml version="1.0" encoding="utf-8"?>
<svg version="1.1" xmlns:xlink="http://www.w3.org/1999/xlink" width="6px" height="16px" xmlns="http://www.w3.org/2000/svg">
  <defs>
    <pattern id="BGPattern" patternUnits="userSpaceOnUse" alignment="0 0" imageRepeat="None" />
    <mask fill="white" id="Clip6619">
      <path d="M 1.75 3.953125  C 1.671875 4.09375  1.515625 4.171875  1.359375 4.171875  C 1.265625 4.171875  1.1875 4.140625  1.109375 4.09375  C 0.890625 3.953125  0.828125 3.671875  0.96875 3.453125  L 2.609375 0.875  C 2.75 0.65625  3.03125 0.5937499999999996  3.25 0.734375  C 3.46875 0.875  3.5312499999999982 1.15625  3.390625 1.375  L 1.75 3.953125  Z M 3.421875 15.09375  C 3.34375 15.234375  3.1875 15.3125  3.03125 15.3125  C 2.9375 15.3125  2.859375 15.28125  2.78125 15.234375  C 2.5625 15.09375  2.5 14.8125  2.640625 14.59375  L 4.28125 12.015625  C 4.421875000000002 11.796875  4.703125 11.734375  4.921875 11.875  C 5.140625 12.015625  5.203125 12.296875  5.0625 12.515624999999998  L 3.421875 15.09375  Z " fill-rule="evenodd" />
    </mask>
  </defs>
  <g transform="matrix(1 0 0 1 -320 -39 )">
    <path d="M 1.75 3.953125  C 1.671875 4.09375  1.515625 4.171875  1.359375 4.171875  C 1.265625 4.171875  1.1875 4.140625  1.109375 4.09375  C 0.890625 3.953125  0.828125 3.671875  0.96875 3.453125  L 2.609375 0.875  C 2.75 0.65625  3.03125 0.5937499999999996  3.25 0.734375  C 3.46875 0.875  3.5312499999999982 1.15625  3.390625 1.375  L 1.75 3.953125  Z M 3.421875 15.09375  C 3.34375 15.234375  3.1875 15.3125  3.03125 15.3125  C 2.9375 15.3125  2.859375 15.28125  2.78125 15.234375  C 2.5625 15.09375  2.5 14.8125  2.640625 14.59375  L 4.28125 12.015625  C 4.421875000000002 11.796875  4.703125 11.734375  4.921875 11.875  C 5.140625 12.015625  5.203125 12.296875  5.0625 12.515624999999998  L 3.421875 15.09375  Z " fill-rule="nonzero" fill="rgba(153, 153, 153, 1)" stroke="none" transform="matrix(1 0 0 1 320 39 )" class="fill" />
    <path d="M 1.75 3.953125  C 1.671875 4.09375  1.515625 4.171875  1.359375 4.171875  C 1.265625 4.171875  1.1875 4.140625  1.109375 4.09375  C 0.890625 3.953125  0.828125 3.671875  0.96875 3.453125  L 2.609375 0.875  C 2.75 0.65625  3.03125 0.5937499999999996  3.25 0.734375  C 3.46875 0.875  3.5312499999999982 1.15625  3.390625 1.375  L 1.75 3.953125  Z " stroke-width="0" stroke-dasharray="0" stroke="rgba(255, 255, 255, 0)" fill="none" transform="matrix(1 0 0 1 320 39 )" class="stroke" mask="url(#Clip6619)" />
    <path d="M 3.421875 15.09375  C 3.34375 15.234375  3.1875 15.3125  3.03125 15.3125  C 2.9375 15.3125  2.859375 15.28125  2.78125 15.234375  C 2.5625 15.09375  2.5 14.8125  2.640625 14.59375  L 4.28125 12.015625  C 4.421875000000002 11.796875  4.703125 11.734375  4.921875 11.875  C 5.140625 12.015625  5.203125 12.296875  5.0625 12.515624999999998  L 3.421875 15.09375  Z " stroke-width="0" stroke-dasharray="0" stroke="rgba(255, 255, 255, 0)" fill="none" transform="matrix(1 0 0 1 320 39 )" class="stroke" mask="url(#Clip6619)" />
  </g>
</svg>