<?xml version="1.0" encoding="utf-8"?>
<svg version="1.1" xmlns:xlink="http://www.w3.org/1999/xlink" width="99px" height="105px" xmlns="http://www.w3.org/2000/svg">
  <defs>
    <linearGradient gradientUnits="userSpaceOnUse" x1="49.5" y1="0" x2="49.5" y2="105" id="LinearGradient1676">
      <stop id="Stop1677" stop-color="#000000" offset="0" />
      <stop id="Stop1678" stop-color="#333333" stop-opacity="0" offset="1" />
    </linearGradient>
    <pattern id="BGPattern" patternUnits="userSpaceOnUse" alignment="0 0" imageRepeat="None" />
    <mask fill="white" id="Clip1679">
      <path d="M 0 100  L 0 5  C 0 2.1999999999999997  2.1999999999999997 0  5 0  L 94 0  C 96.8 0  99 2.1999999999999997  99 5  L 99 100  C 99 102.8  96.8 105  94 105  L 5 105  C 2.1999999999999997 105  0 102.8  0 100  Z " fill-rule="evenodd" />
    </mask>
  </defs>
  <g transform="matrix(1 0 0 1 -25 -476 )">
    <path d="M 0 100  L 0 5  C 0 2.1999999999999997  2.1999999999999997 0  5 0  L 94 0  C 96.8 0  99 2.1999999999999997  99 5  L 99 100  C 99 102.8  96.8 105  94 105  L 5 105  C 2.1999999999999997 105  0 102.8  0 100  Z " fill-rule="nonzero" fill="url(#LinearGradient1676)" stroke="none" transform="matrix(1 0 0 1 25 476 )" class="fill" />
    <path d="M 0 100  L 0 5  C 0 2.1999999999999997  2.1999999999999997 0  5 0  L 94 0  C 96.8 0  99 2.1999999999999997  99 5  L 99 100  C 99 102.8  96.8 105  94 105  L 5 105  C 2.1999999999999997 105  0 102.8  0 100  Z " stroke-width="0" stroke-dasharray="0" stroke="rgba(121, 121, 121, 1)" fill="none" transform="matrix(1 0 0 1 25 476 )" class="stroke" mask="url(#Clip1679)" />
  </g>
</svg>