<?xml version="1.0" encoding="utf-8"?>
<svg version="1.1" xmlns:xlink="http://www.w3.org/1999/xlink" width="18px" height="18px" xmlns="http://www.w3.org/2000/svg">
  <defs>
    <pattern id="BGPattern" patternUnits="userSpaceOnUse" alignment="0 0" imageRepeat="None" />
    <mask fill="white" id="Clip15657">
      <path d="M 17.75 9  C 17.75 4.16796875  13.83203125 0.25  9 0.25  C 4.16796875 0.25  0.25 4.16796875  0.25 9  C 0.25 13.83203125  4.16796875 17.75  9 17.75  C 13.83203125 17.75  17.75 13.83203125  17.75 9  Z M 12.75 8.53125  L 12.75 9.46875  C 12.75 9.5546875  12.6796875 9.625  12.59375 9.625  L 9.625 9.625  L 9.625 12.59375  C 9.625 12.6796875  9.5546875 12.75  9.46875 12.75  L 8.53125 12.75  C 8.4453125 12.75  8.375 12.6796875  8.375 12.59375  L 8.375 9.625  L 5.40625 9.625  C 5.3203125 9.625  5.25 9.5546875  5.25 9.46875  L 5.25 8.53125  C 5.25 8.4453125  5.3203125 8.375  5.40625 8.375  L 8.375 8.375  L 8.375 5.40625  C 8.375 5.3203125  8.4453125 5.25  8.53125 5.25  L 9.46875 5.25  C 9.5546875 5.25  9.625 5.3203125  9.625 5.40625  L 9.625 8.375  L 12.59375 8.375  C 12.6796875 8.375  12.75 8.4453125  12.75 8.53125  Z " fill-rule="evenodd" />
    </mask>
  </defs>
  <g transform="matrix(1 0 0 1 -322 -546 )">
    <path d="M 17.75 9  C 17.75 4.16796875  13.83203125 0.25  9 0.25  C 4.16796875 0.25  0.25 4.16796875  0.25 9  C 0.25 13.83203125  4.16796875 17.75  9 17.75  C 13.83203125 17.75  17.75 13.83203125  17.75 9  Z M 12.75 8.53125  L 12.75 9.46875  C 12.75 9.5546875  12.6796875 9.625  12.59375 9.625  L 9.625 9.625  L 9.625 12.59375  C 9.625 12.6796875  9.5546875 12.75  9.46875 12.75  L 8.53125 12.75  C 8.4453125 12.75  8.375 12.6796875  8.375 12.59375  L 8.375 9.625  L 5.40625 9.625  C 5.3203125 9.625  5.25 9.5546875  5.25 9.46875  L 5.25 8.53125  C 5.25 8.4453125  5.3203125 8.375  5.40625 8.375  L 8.375 8.375  L 8.375 5.40625  C 8.375 5.3203125  8.4453125 5.25  8.53125 5.25  L 9.46875 5.25  C 9.5546875 5.25  9.625 5.3203125  9.625 5.40625  L 9.625 8.375  L 12.59375 8.375  C 12.6796875 8.375  12.75 8.4453125  12.75 8.53125  Z " fill-rule="nonzero" fill="rgba(163, 103, 23, 1)" stroke="none" transform="matrix(1 0 0 1 322 546 )" class="fill" />
    <path d="M 17.75 9  C 17.75 4.16796875  13.83203125 0.25  9 0.25  C 4.16796875 0.25  0.25 4.16796875  0.25 9  C 0.25 13.83203125  4.16796875 17.75  9 17.75  C 13.83203125 17.75  17.75 13.83203125  17.75 9  Z " stroke-width="0" stroke-dasharray="0" stroke="rgba(255, 255, 255, 0)" fill="none" transform="matrix(1 0 0 1 322 546 )" class="stroke" mask="url(#Clip15657)" />
    <path d="M 12.75 8.53125  L 12.75 9.46875  C 12.75 9.5546875  12.6796875 9.625  12.59375 9.625  L 9.625 9.625  L 9.625 12.59375  C 9.625 12.6796875  9.5546875 12.75  9.46875 12.75  L 8.53125 12.75  C 8.4453125 12.75  8.375 12.6796875  8.375 12.59375  L 8.375 9.625  L 5.40625 9.625  C 5.3203125 9.625  5.25 9.5546875  5.25 9.46875  L 5.25 8.53125  C 5.25 8.4453125  5.3203125 8.375  5.40625 8.375  L 8.375 8.375  L 8.375 5.40625  C 8.375 5.3203125  8.4453125 5.25  8.53125 5.25  L 9.46875 5.25  C 9.5546875 5.25  9.625 5.3203125  9.625 5.40625  L 9.625 8.375  L 12.59375 8.375  C 12.6796875 8.375  12.75 8.4453125  12.75 8.53125  Z " stroke-width="0" stroke-dasharray="0" stroke="rgba(255, 255, 255, 0)" fill="none" transform="matrix(1 0 0 1 322 546 )" class="stroke" mask="url(#Clip15657)" />
  </g>
</svg>