<?xml version="1.0" encoding="utf-8"?>
<svg version="1.1" xmlns:xlink="http://www.w3.org/1999/xlink" width="11px" height="10px" xmlns="http://www.w3.org/2000/svg">
  <defs>
    <pattern id="BGPattern" patternUnits="userSpaceOnUse" alignment="0 0" imageRepeat="None" />
    <mask fill="white" id="Clip15663">
      <path d="M 10.2578125 5  C 10.2578125 2.3720703125  8.1279296875 0.2421875  5.5 0.2421875  C 2.8720703125 0.2421875  0.7421875 2.3720703125  0.7421875 5  C 0.7421875 7.6279296875  2.8720703125 9.7578125  5.5 9.7578125  C 8.1279296875 9.7578125  10.2578125 7.6279296875  10.2578125 5  Z M 9.80810546875 5  C 9.80810546875 7.37890625  7.87890625 9.30810546875  5.5 9.30810546875  C 3.12109375 9.30810546875  1.1918945312499996 7.37890625  1.1918945312499996 5  C 1.1918945312499996 2.62109375  3.12109375 0.69189453125  5.5 0.69189453125  C 7.87890625 0.69189453125  9.80810546875 2.62109375  9.80810546875 5  Z " fill-rule="evenodd" />
    </mask>
  </defs>
  <g transform="matrix(1 0 0 1 -7 -9 )">
    <path d="M 10.2578125 5  C 10.2578125 2.3720703125  8.1279296875 0.2421875  5.5 0.2421875  C 2.8720703125 0.2421875  0.7421875 2.3720703125  0.7421875 5  C 0.7421875 7.6279296875  2.8720703125 9.7578125  5.5 9.7578125  C 8.1279296875 9.7578125  10.2578125 7.6279296875  10.2578125 5  Z M 9.80810546875 5  C 9.80810546875 7.37890625  7.87890625 9.30810546875  5.5 9.30810546875  C 3.12109375 9.30810546875  1.1918945312499996 7.37890625  1.1918945312499996 5  C 1.1918945312499996 2.62109375  3.12109375 0.69189453125  5.5 0.69189453125  C 7.87890625 0.69189453125  9.80810546875 2.62109375  9.80810546875 5  Z " fill-rule="nonzero" fill="rgba(253, 216, 83, 1)" stroke="none" transform="matrix(1 0 0 1 7 9 )" class="fill" />
    <path d="M 10.2578125 5  C 10.2578125 2.3720703125  8.1279296875 0.2421875  5.5 0.2421875  C 2.8720703125 0.2421875  0.7421875 2.3720703125  0.7421875 5  C 0.7421875 7.6279296875  2.8720703125 9.7578125  5.5 9.7578125  C 8.1279296875 9.7578125  10.2578125 7.6279296875  10.2578125 5  Z " stroke-width="0" stroke-dasharray="0" stroke="rgba(255, 255, 255, 0)" fill="none" transform="matrix(1 0 0 1 7 9 )" class="stroke" mask="url(#Clip15663)" />
    <path d="M 9.80810546875 5  C 9.80810546875 7.37890625  7.87890625 9.30810546875  5.5 9.30810546875  C 3.12109375 9.30810546875  1.1918945312499996 7.37890625  1.1918945312499996 5  C 1.1918945312499996 2.62109375  3.12109375 0.69189453125  5.5 0.69189453125  C 7.87890625 0.69189453125  9.80810546875 2.62109375  9.80810546875 5  Z " stroke-width="0" stroke-dasharray="0" stroke="rgba(255, 255, 255, 0)" fill="none" transform="matrix(1 0 0 1 7 9 )" class="stroke" mask="url(#Clip15663)" />
  </g>
</svg>