<?xml version="1.0" encoding="utf-8"?>
<svg version="1.1" xmlns:xlink="http://www.w3.org/1999/xlink" width="9px" height="10px" xmlns="http://www.w3.org/2000/svg">
  <defs>
    <pattern id="BGPattern" patternUnits="userSpaceOnUse" alignment="0 0" imageRepeat="None" />
    <mask fill="white" id="Clip11547">
      <path d="M 8.80810546875 5  C 8.80810546875 2.62109375  6.87890625 0.69189453125  4.5 0.69189453125  C 2.12109375 0.69189453125  0.19189453124999956 2.62109375  0.19189453124999956 5  C 0.19189453124999956 7.37890625  2.12109375 9.30810546875  4.5 9.30810546875  C 6.87890625 9.30810546875  8.80810546875 7.37890625  8.80810546875 5  Z M 4.75634765625 4.83447265625  C 5.11376953125 3.83984375  5.5634765625 2.32080078125  6.02783203125 2.00732421875  C 6.50390625 1.68505859375  7.820800781249998 2.8466796875  7.552734375 3.330078125  C 7.27001953125 3.8427734375  5.28955078125 4.583984375  4.75634765625 4.83447265625  Z M 4.494140624999998 4.73046875  C 4.072265624999998 3.7607421875  3.3574218749999982 2.34716796875  3.48046875 1.80078125  C 3.6064453125 1.23974609375  5.361328125 1.1826171875  5.497558593749998 1.71728515625  C 5.642578124999998 2.2841796875  4.709472656249999 4.18115234375  4.494140624999998 4.73046875  Z M 1.43994140625 3.55126953125  C 1.1191406250000009 3.0751953125  2.28076171875 1.76123046875  2.76416015625 2.02783203125  C 3.27685546875 2.310546875  4.01513671875 4.291015625  4.26708984375 4.82421875  C 3.27099609375 4.466796875  1.75341796875 4.015625  1.43994140625 3.55126953125  Z M 4.21435546875 5.03076171875  C 3.2490234375 5.46728515625  1.845703125 6.201171875  1.2978515625 6.08544921875  C 0.7353515624999996 5.966796875  0.6547851562499996 4.21337890625  1.18798828125 4.068359375  C 1.75341796875 3.91455078125  3.662109374999999 4.82275390625  4.21435546875 5.03076171875  Z M 4.328613281249999 5.228515625  C 3.938964843749999 6.212890625  3.437988281249999 7.71435546875  2.963378906249999 8.01171875  C 2.475585937499999 8.31640625  1.2011718749999991 7.11083984375  1.4838867187499991 6.6376953125  C 1.7841796874999991 6.13525390625  3.7880859375 5.46142578125  4.328613281249999 5.228515625  Z M 4.5146484375 5.37646484375  C 4.936523437499998 6.34619140625  5.6484375 7.76123046875  5.52392578125 8.3076171875  C 5.396484374999998 8.86865234375  3.6416015625 8.92138671875  3.505371093749999 8.38671875  C 3.361816406249999 7.81982421875  4.2978515625 5.92431640625  4.5146484375 5.37646484375  Z M 7.56884765625 6.32275390625  C 7.92041015625 6.7783203125  6.8466796875 8.16552734375  6.34716796875 7.93115234375  C 5.81689453125 7.68212890625  4.949707031250001 5.75439453125  4.664062500000001 5.23876953125  C 5.6806640625 5.5302734375  7.22607421875 5.88037109375  7.56884765625 6.32275390625  Z M 7.7578125 3.91748046875  C 8.32177734375 4.02880859375  8.42724609375 5.78076171875  7.89697265625 5.93310546875  C 7.33447265625 6.09423828125  5.41259765625 5.21533203125  4.857421875 5.0146484375  C 5.8154296875 4.56494140625  7.20849609375 3.810546875  7.7578125 3.91748046875  Z " fill-rule="evenodd" />
    </mask>
  </defs>
  <g transform="matrix(1 0 0 1 -8 -9 )">
    <path d="M 8.80810546875 5  C 8.80810546875 2.62109375  6.87890625 0.69189453125  4.5 0.69189453125  C 2.12109375 0.69189453125  0.19189453124999956 2.62109375  0.19189453124999956 5  C 0.19189453124999956 7.37890625  2.12109375 9.30810546875  4.5 9.30810546875  C 6.87890625 9.30810546875  8.80810546875 7.37890625  8.80810546875 5  Z M 4.75634765625 4.83447265625  C 5.11376953125 3.83984375  5.5634765625 2.32080078125  6.02783203125 2.00732421875  C 6.50390625 1.68505859375  7.820800781249998 2.8466796875  7.552734375 3.330078125  C 7.27001953125 3.8427734375  5.28955078125 4.583984375  4.75634765625 4.83447265625  Z M 4.494140624999998 4.73046875  C 4.072265624999998 3.7607421875  3.3574218749999982 2.34716796875  3.48046875 1.80078125  C 3.6064453125 1.23974609375  5.361328125 1.1826171875  5.497558593749998 1.71728515625  C 5.642578124999998 2.2841796875  4.709472656249999 4.18115234375  4.494140624999998 4.73046875  Z M 1.43994140625 3.55126953125  C 1.1191406250000009 3.0751953125  2.28076171875 1.76123046875  2.76416015625 2.02783203125  C 3.27685546875 2.310546875  4.01513671875 4.291015625  4.26708984375 4.82421875  C 3.27099609375 4.466796875  1.75341796875 4.015625  1.43994140625 3.55126953125  Z M 4.21435546875 5.03076171875  C 3.2490234375 5.46728515625  1.845703125 6.201171875  1.2978515625 6.08544921875  C 0.7353515624999996 5.966796875  0.6547851562499996 4.21337890625  1.18798828125 4.068359375  C 1.75341796875 3.91455078125  3.662109374999999 4.82275390625  4.21435546875 5.03076171875  Z M 4.328613281249999 5.228515625  C 3.938964843749999 6.212890625  3.437988281249999 7.71435546875  2.963378906249999 8.01171875  C 2.475585937499999 8.31640625  1.2011718749999991 7.11083984375  1.4838867187499991 6.6376953125  C 1.7841796874999991 6.13525390625  3.7880859375 5.46142578125  4.328613281249999 5.228515625  Z M 4.5146484375 5.37646484375  C 4.936523437499998 6.34619140625  5.6484375 7.76123046875  5.52392578125 8.3076171875  C 5.396484374999998 8.86865234375  3.6416015625 8.92138671875  3.505371093749999 8.38671875  C 3.361816406249999 7.81982421875  4.2978515625 5.92431640625  4.5146484375 5.37646484375  Z M 7.56884765625 6.32275390625  C 7.92041015625 6.7783203125  6.8466796875 8.16552734375  6.34716796875 7.93115234375  C 5.81689453125 7.68212890625  4.949707031250001 5.75439453125  4.664062500000001 5.23876953125  C 5.6806640625 5.5302734375  7.22607421875 5.88037109375  7.56884765625 6.32275390625  Z M 7.7578125 3.91748046875  C 8.32177734375 4.02880859375  8.42724609375 5.78076171875  7.89697265625 5.93310546875  C 7.33447265625 6.09423828125  5.41259765625 5.21533203125  4.857421875 5.0146484375  C 5.8154296875 4.56494140625  7.20849609375 3.810546875  7.7578125 3.91748046875  Z " fill-rule="nonzero" fill="rgba(255, 245, 233, 1)" stroke="none" transform="matrix(1 0 0 1 8 9 )" class="fill" />
    <path d="M 8.80810546875 5  C 8.80810546875 2.62109375  6.87890625 0.69189453125  4.5 0.69189453125  C 2.12109375 0.69189453125  0.19189453124999956 2.62109375  0.19189453124999956 5  C 0.19189453124999956 7.37890625  2.12109375 9.30810546875  4.5 9.30810546875  C 6.87890625 9.30810546875  8.80810546875 7.37890625  8.80810546875 5  Z " stroke-width="0" stroke-dasharray="0" stroke="rgba(255, 255, 255, 0)" fill="none" transform="matrix(1 0 0 1 8 9 )" class="stroke" mask="url(#Clip11547)" />
    <path d="M 4.75634765625 4.83447265625  C 5.11376953125 3.83984375  5.5634765625 2.32080078125  6.02783203125 2.00732421875  C 6.50390625 1.68505859375  7.820800781249998 2.8466796875  7.552734375 3.330078125  C 7.27001953125 3.8427734375  5.28955078125 4.583984375  4.75634765625 4.83447265625  Z " stroke-width="0" stroke-dasharray="0" stroke="rgba(255, 255, 255, 0)" fill="none" transform="matrix(1 0 0 1 8 9 )" class="stroke" mask="url(#Clip11547)" />
    <path d="M 4.494140624999998 4.73046875  C 4.072265624999998 3.7607421875  3.3574218749999982 2.34716796875  3.48046875 1.80078125  C 3.6064453125 1.23974609375  5.361328125 1.1826171875  5.497558593749998 1.71728515625  C 5.642578124999998 2.2841796875  4.709472656249999 4.18115234375  4.494140624999998 4.73046875  Z " stroke-width="0" stroke-dasharray="0" stroke="rgba(255, 255, 255, 0)" fill="none" transform="matrix(1 0 0 1 8 9 )" class="stroke" mask="url(#Clip11547)" />
    <path d="M 1.43994140625 3.55126953125  C 1.1191406250000009 3.0751953125  2.28076171875 1.76123046875  2.76416015625 2.02783203125  C 3.27685546875 2.310546875  4.01513671875 4.291015625  4.26708984375 4.82421875  C 3.27099609375 4.466796875  1.75341796875 4.015625  1.43994140625 3.55126953125  Z " stroke-width="0" stroke-dasharray="0" stroke="rgba(255, 255, 255, 0)" fill="none" transform="matrix(1 0 0 1 8 9 )" class="stroke" mask="url(#Clip11547)" />
    <path d="M 4.21435546875 5.03076171875  C 3.2490234375 5.46728515625  1.845703125 6.201171875  1.2978515625 6.08544921875  C 0.7353515624999996 5.966796875  0.6547851562499996 4.21337890625  1.18798828125 4.068359375  C 1.75341796875 3.91455078125  3.662109374999999 4.82275390625  4.21435546875 5.03076171875  Z " stroke-width="0" stroke-dasharray="0" stroke="rgba(255, 255, 255, 0)" fill="none" transform="matrix(1 0 0 1 8 9 )" class="stroke" mask="url(#Clip11547)" />
    <path d="M 4.328613281249999 5.228515625  C 3.938964843749999 6.212890625  3.437988281249999 7.71435546875  2.963378906249999 8.01171875  C 2.475585937499999 8.31640625  1.2011718749999991 7.11083984375  1.4838867187499991 6.6376953125  C 1.7841796874999991 6.13525390625  3.7880859375 5.46142578125  4.328613281249999 5.228515625  Z " stroke-width="0" stroke-dasharray="0" stroke="rgba(255, 255, 255, 0)" fill="none" transform="matrix(1 0 0 1 8 9 )" class="stroke" mask="url(#Clip11547)" />
    <path d="M 4.5146484375 5.37646484375  C 4.936523437499998 6.34619140625  5.6484375 7.76123046875  5.52392578125 8.3076171875  C 5.396484374999998 8.86865234375  3.6416015625 8.92138671875  3.505371093749999 8.38671875  C 3.361816406249999 7.81982421875  4.2978515625 5.92431640625  4.5146484375 5.37646484375  Z " stroke-width="0" stroke-dasharray="0" stroke="rgba(255, 255, 255, 0)" fill="none" transform="matrix(1 0 0 1 8 9 )" class="stroke" mask="url(#Clip11547)" />
    <path d="M 7.56884765625 6.32275390625  C 7.92041015625 6.7783203125  6.8466796875 8.16552734375  6.34716796875 7.93115234375  C 5.81689453125 7.68212890625  4.949707031250001 5.75439453125  4.664062500000001 5.23876953125  C 5.6806640625 5.5302734375  7.22607421875 5.88037109375  7.56884765625 6.32275390625  Z " stroke-width="0" stroke-dasharray="0" stroke="rgba(255, 255, 255, 0)" fill="none" transform="matrix(1 0 0 1 8 9 )" class="stroke" mask="url(#Clip11547)" />
    <path d="M 7.7578125 3.91748046875  C 8.32177734375 4.02880859375  8.42724609375 5.78076171875  7.89697265625 5.93310546875  C 7.33447265625 6.09423828125  5.41259765625 5.21533203125  4.857421875 5.0146484375  C 5.8154296875 4.56494140625  7.20849609375 3.810546875  7.7578125 3.91748046875  Z " stroke-width="0" stroke-dasharray="0" stroke="rgba(255, 255, 255, 0)" fill="none" transform="matrix(1 0 0 1 8 9 )" class="stroke" mask="url(#Clip11547)" />
  </g>
</svg>