<?xml version="1.0" encoding="utf-8"?>
<svg version="1.1" xmlns:xlink="http://www.w3.org/1999/xlink" width="9px" height="8px" xmlns="http://www.w3.org/2000/svg">
  <defs>
    <pattern id="BGPattern" patternUnits="userSpaceOnUse" alignment="0 0" imageRepeat="None" />
    <mask fill="white" id="Clip15665">
      <path d="M 4.497070312500001 3.73193359375  C 4.710937500000002 3.1826171875  5.64404296875 1.28564453125  5.4990234375 0.71875  C 5.361328125000002 0.18408203125  3.60791015625 0.23974609375  3.481933593750001 0.80224609375  C 3.358886718750001 1.3486328125  4.073730468750001 2.76220703125  4.497070312500001 3.73193359375  Z M 7.8955078125 4.9345703125  C 8.427246093749998 4.78076171875  8.32177734375 3.02880859375  7.75634765625 2.9189453125  C 7.20703125 2.81201171875  5.813964843749998 3.56494140625  4.855957031249999 4.01611328125  C 5.411132812499998 4.21533203125  7.3330078125 5.095703125  7.8955078125 4.9345703125  Z M 4.757812499999998 3.8359375  C 5.291015625 3.583984375  7.27001953125 2.8427734375  7.552734375 2.330078125  C 7.8193359375 1.8466796875  6.50390625 0.68505859375  6.02783203125 1.00732421875  C 5.563476562499998 1.32080078125  5.115234375 2.83984375  4.757812499999998 3.8359375  Z M 4.21142578125 4.0322265625  C 3.66064453125 3.82275390625  1.751953125 2.916015625  1.1865234375 3.06982421875  C 0.6533203125 3.21484375  0.73388671875 4.966796875  1.29638671875 5.0869140625  C 1.84423828125 5.20263671875  3.24755859375 4.46875  4.21142578125 4.0322265625  Z M 1.43994140625 2.552734375  C 1.75341796875 3.01708984375  3.27099609375 3.466796875  4.26708984375 3.82421875  C 4.015136718750001 3.291015625  3.27685546875 1.310546875  2.76416015625 1.02783203125  C 2.28076171875 0.76123046875  1.11767578125 2.0751953125  1.43994140625 2.552734375  Z M 4.32861328125 4.228515625  C 3.788085937500001 4.462890625  1.7841796875 5.13525390625  1.48388671875 5.6376953125  C 1.201171875 6.11083984375  2.4755859375 7.31787109375  2.96337890625 7.01171875  C 3.43798828125 6.71435546875  3.938964843750001 5.21142578125  4.32861328125 4.228515625  Z M 7.5673828125 5.32275390625  C 7.224609375 4.88037109375  5.680664062499998 4.5302734375  4.66259765625 4.23876953125  C 4.9482421875 4.75439453125  5.81689453125 6.68212890625  6.345703125 6.93115234375  C 6.84521484375 7.16552734375  7.9189453125 5.7783203125  7.5673828125 5.32275390625  Z M 4.516113281250002 4.375  C 4.299316406250002 4.92431640625  3.3618164062500018 6.818359375  3.50537109375 7.38525390625  C 3.641601562500001 7.919921875  5.39501953125 7.8671875  5.523925781250002 7.30615234375  C 5.648437500000002 6.759765625  4.936523437500001 5.3447265625  4.516113281250002 4.375  Z " fill-rule="evenodd" />
    </mask>
  </defs>
  <g transform="matrix(1 0 0 1 -8 -10 )">
    <path d="M 4.497070312500001 3.73193359375  C 4.710937500000002 3.1826171875  5.64404296875 1.28564453125  5.4990234375 0.71875  C 5.361328125000002 0.18408203125  3.60791015625 0.23974609375  3.481933593750001 0.80224609375  C 3.358886718750001 1.3486328125  4.073730468750001 2.76220703125  4.497070312500001 3.73193359375  Z M 7.8955078125 4.9345703125  C 8.427246093749998 4.78076171875  8.32177734375 3.02880859375  7.75634765625 2.9189453125  C 7.20703125 2.81201171875  5.813964843749998 3.56494140625  4.855957031249999 4.01611328125  C 5.411132812499998 4.21533203125  7.3330078125 5.095703125  7.8955078125 4.9345703125  Z M 4.757812499999998 3.8359375  C 5.291015625 3.583984375  7.27001953125 2.8427734375  7.552734375 2.330078125  C 7.8193359375 1.8466796875  6.50390625 0.68505859375  6.02783203125 1.00732421875  C 5.563476562499998 1.32080078125  5.115234375 2.83984375  4.757812499999998 3.8359375  Z M 4.21142578125 4.0322265625  C 3.66064453125 3.82275390625  1.751953125 2.916015625  1.1865234375 3.06982421875  C 0.6533203125 3.21484375  0.73388671875 4.966796875  1.29638671875 5.0869140625  C 1.84423828125 5.20263671875  3.24755859375 4.46875  4.21142578125 4.0322265625  Z M 1.43994140625 2.552734375  C 1.75341796875 3.01708984375  3.27099609375 3.466796875  4.26708984375 3.82421875  C 4.015136718750001 3.291015625  3.27685546875 1.310546875  2.76416015625 1.02783203125  C 2.28076171875 0.76123046875  1.11767578125 2.0751953125  1.43994140625 2.552734375  Z M 4.32861328125 4.228515625  C 3.788085937500001 4.462890625  1.7841796875 5.13525390625  1.48388671875 5.6376953125  C 1.201171875 6.11083984375  2.4755859375 7.31787109375  2.96337890625 7.01171875  C 3.43798828125 6.71435546875  3.938964843750001 5.21142578125  4.32861328125 4.228515625  Z M 7.5673828125 5.32275390625  C 7.224609375 4.88037109375  5.680664062499998 4.5302734375  4.66259765625 4.23876953125  C 4.9482421875 4.75439453125  5.81689453125 6.68212890625  6.345703125 6.93115234375  C 6.84521484375 7.16552734375  7.9189453125 5.7783203125  7.5673828125 5.32275390625  Z M 4.516113281250002 4.375  C 4.299316406250002 4.92431640625  3.3618164062500018 6.818359375  3.50537109375 7.38525390625  C 3.641601562500001 7.919921875  5.39501953125 7.8671875  5.523925781250002 7.30615234375  C 5.648437500000002 6.759765625  4.936523437500001 5.3447265625  4.516113281250002 4.375  Z " fill-rule="nonzero" fill="rgba(255, 229, 93, 1)" stroke="none" transform="matrix(1 0 0 1 8 10 )" class="fill" />
    <path d="M 4.497070312500001 3.73193359375  C 4.710937500000002 3.1826171875  5.64404296875 1.28564453125  5.4990234375 0.71875  C 5.361328125000002 0.18408203125  3.60791015625 0.23974609375  3.481933593750001 0.80224609375  C 3.358886718750001 1.3486328125  4.073730468750001 2.76220703125  4.497070312500001 3.73193359375  Z " stroke-width="0" stroke-dasharray="0" stroke="rgba(255, 255, 255, 0)" fill="none" transform="matrix(1 0 0 1 8 10 )" class="stroke" mask="url(#Clip15665)" />
    <path d="M 7.8955078125 4.9345703125  C 8.427246093749998 4.78076171875  8.32177734375 3.02880859375  7.75634765625 2.9189453125  C 7.20703125 2.81201171875  5.813964843749998 3.56494140625  4.855957031249999 4.01611328125  C 5.411132812499998 4.21533203125  7.3330078125 5.095703125  7.8955078125 4.9345703125  Z " stroke-width="0" stroke-dasharray="0" stroke="rgba(255, 255, 255, 0)" fill="none" transform="matrix(1 0 0 1 8 10 )" class="stroke" mask="url(#Clip15665)" />
    <path d="M 4.757812499999998 3.8359375  C 5.291015625 3.583984375  7.27001953125 2.8427734375  7.552734375 2.330078125  C 7.8193359375 1.8466796875  6.50390625 0.68505859375  6.02783203125 1.00732421875  C 5.563476562499998 1.32080078125  5.115234375 2.83984375  4.757812499999998 3.8359375  Z " stroke-width="0" stroke-dasharray="0" stroke="rgba(255, 255, 255, 0)" fill="none" transform="matrix(1 0 0 1 8 10 )" class="stroke" mask="url(#Clip15665)" />
    <path d="M 4.21142578125 4.0322265625  C 3.66064453125 3.82275390625  1.751953125 2.916015625  1.1865234375 3.06982421875  C 0.6533203125 3.21484375  0.73388671875 4.966796875  1.29638671875 5.0869140625  C 1.84423828125 5.20263671875  3.24755859375 4.46875  4.21142578125 4.0322265625  Z " stroke-width="0" stroke-dasharray="0" stroke="rgba(255, 255, 255, 0)" fill="none" transform="matrix(1 0 0 1 8 10 )" class="stroke" mask="url(#Clip15665)" />
    <path d="M 1.43994140625 2.552734375  C 1.75341796875 3.01708984375  3.27099609375 3.466796875  4.26708984375 3.82421875  C 4.015136718750001 3.291015625  3.27685546875 1.310546875  2.76416015625 1.02783203125  C 2.28076171875 0.76123046875  1.11767578125 2.0751953125  1.43994140625 2.552734375  Z " stroke-width="0" stroke-dasharray="0" stroke="rgba(255, 255, 255, 0)" fill="none" transform="matrix(1 0 0 1 8 10 )" class="stroke" mask="url(#Clip15665)" />
    <path d="M 4.32861328125 4.228515625  C 3.788085937500001 4.462890625  1.7841796875 5.13525390625  1.48388671875 5.6376953125  C 1.201171875 6.11083984375  2.4755859375 7.31787109375  2.96337890625 7.01171875  C 3.43798828125 6.71435546875  3.938964843750001 5.21142578125  4.32861328125 4.228515625  Z " stroke-width="0" stroke-dasharray="0" stroke="rgba(255, 255, 255, 0)" fill="none" transform="matrix(1 0 0 1 8 10 )" class="stroke" mask="url(#Clip15665)" />
    <path d="M 7.5673828125 5.32275390625  C 7.224609375 4.88037109375  5.680664062499998 4.5302734375  4.66259765625 4.23876953125  C 4.9482421875 4.75439453125  5.81689453125 6.68212890625  6.345703125 6.93115234375  C 6.84521484375 7.16552734375  7.9189453125 5.7783203125  7.5673828125 5.32275390625  Z " stroke-width="0" stroke-dasharray="0" stroke="rgba(255, 255, 255, 0)" fill="none" transform="matrix(1 0 0 1 8 10 )" class="stroke" mask="url(#Clip15665)" />
    <path d="M 4.516113281250002 4.375  C 4.299316406250002 4.92431640625  3.3618164062500018 6.818359375  3.50537109375 7.38525390625  C 3.641601562500001 7.919921875  5.39501953125 7.8671875  5.523925781250002 7.30615234375  C 5.648437500000002 6.759765625  4.936523437500001 5.3447265625  4.516113281250002 4.375  Z " stroke-width="0" stroke-dasharray="0" stroke="rgba(255, 255, 255, 0)" fill="none" transform="matrix(1 0 0 1 8 10 )" class="stroke" mask="url(#Clip15665)" />
  </g>
</svg>