<?xml version="1.0" encoding="utf-8"?>
<svg version="1.1" xmlns:xlink="http://www.w3.org/1999/xlink" width="97px" height="30px" xmlns="http://www.w3.org/2000/svg">
  <defs>
    <linearGradient gradientUnits="userSpaceOnUse" x1="48.5" y1="0" x2="48.5" y2="30" id="LinearGradient6233">
      <stop id="Stop6234" stop-color="#00463d" offset="0" />
      <stop id="Stop6235" stop-color="#00332e" offset="1" />
    </linearGradient>
    <pattern id="BGPattern" patternUnits="userSpaceOnUse" alignment="0 0" imageRepeat="None" />
    <mask fill="white" id="Clip6236">
      <path d="M 15 30  C 6.6 30  0 23.400000000000002  0 15  C 0 6.6  6.6 0  15 0  L 82 0  C 90.4 0  97 6.6  97 15  C 97 23.400000000000002  90.4 30  82 30  L 15 30  Z " fill-rule="evenodd" />
    </mask>
  </defs>
  <g transform="matrix(1 0 0 1 -133 -540 )">
    <path d="M 15 30  C 6.6 30  0 23.400000000000002  0 15  C 0 6.6  6.6 0  15 0  L 82 0  C 90.4 0  97 6.6  97 15  C 97 23.400000000000002  90.4 30  82 30  L 15 30  Z " fill-rule="nonzero" fill="url(#LinearGradient6233)" stroke="none" transform="matrix(1 0 0 1 133 540 )" class="fill" />
    <path d="M 15 30  C 6.6 30  0 23.400000000000002  0 15  C 0 6.6  6.6 0  15 0  L 82 0  C 90.4 0  97 6.6  97 15  C 97 23.400000000000002  90.4 30  82 30  L 15 30  Z " stroke-width="2" stroke-dasharray="0" stroke="rgba(255, 255, 255, 1)" fill="none" transform="matrix(1 0 0 1 133 540 )" class="stroke" mask="url(#Clip6236)" />
  </g>
</svg>