<?xml version="1.0" encoding="utf-8"?>
<svg version="1.1" xmlns:xlink="http://www.w3.org/1999/xlink" width="13px" height="14px" xmlns="http://www.w3.org/2000/svg">
  <defs>
    <pattern id="BGPattern" patternUnits="userSpaceOnUse" alignment="0 0" imageRepeat="None" />
    <mask fill="white" id="Clip7912">
      <path d="M 12.39892578125 6.9970703125  C 12.39892578125 3.6455078125000004  9.6669921875 0.65869140625  6.23193359375 0.8212890625  C 3.013671875 0.9736328124999999  0.60107421875 3.84619140625  0.60107421875 6.9970703125  C 0.60107421875 10.240234375  3.1689453125 13.1845703125  6.5 13.1845703125  C 9.82958984375 13.1845703125  12.39892578125 10.240234375  12.39892578125 6.9970703125  Z M 11.2578125 7  C 11.2578125 9.6279296875  9.1279296875 11.7578125  6.5 11.7578125  C 3.8720703125 11.7578125  1.7421875 9.6279296875  1.7421875 7  C 1.7421875 4.3720703125  3.8720703125 2.2421875  6.5 2.2421875  C 9.1279296875 2.2421875  11.2578125 4.3720703125  11.2578125 7  Z " fill-rule="evenodd" />
    </mask>
  </defs>
  <g transform="matrix(1 0 0 1 -6 -7 )">
    <path d="M 12.39892578125 6.9970703125  C 12.39892578125 3.6455078125000004  9.6669921875 0.65869140625  6.23193359375 0.8212890625  C 3.013671875 0.9736328124999999  0.60107421875 3.84619140625  0.60107421875 6.9970703125  C 0.60107421875 10.240234375  3.1689453125 13.1845703125  6.5 13.1845703125  C 9.82958984375 13.1845703125  12.39892578125 10.240234375  12.39892578125 6.9970703125  Z M 11.2578125 7  C 11.2578125 9.6279296875  9.1279296875 11.7578125  6.5 11.7578125  C 3.8720703125 11.7578125  1.7421875 9.6279296875  1.7421875 7  C 1.7421875 4.3720703125  3.8720703125 2.2421875  6.5 2.2421875  C 9.1279296875 2.2421875  11.2578125 4.3720703125  11.2578125 7  Z " fill-rule="nonzero" fill="rgba(255, 245, 233, 1)" stroke="none" transform="matrix(1 0 0 1 6 7 )" class="fill" />
    <path d="M 12.39892578125 6.9970703125  C 12.39892578125 3.6455078125000004  9.6669921875 0.65869140625  6.23193359375 0.8212890625  C 3.013671875 0.9736328124999999  0.60107421875 3.84619140625  0.60107421875 6.9970703125  C 0.60107421875 10.240234375  3.1689453125 13.1845703125  6.5 13.1845703125  C 9.82958984375 13.1845703125  12.39892578125 10.240234375  12.39892578125 6.9970703125  Z " stroke-width="0" stroke-dasharray="0" stroke="rgba(255, 255, 255, 0)" fill="none" transform="matrix(1 0 0 1 6 7 )" class="stroke" mask="url(#Clip7912)" />
    <path d="M 11.2578125 7  C 11.2578125 9.6279296875  9.1279296875 11.7578125  6.5 11.7578125  C 3.8720703125 11.7578125  1.7421875 9.6279296875  1.7421875 7  C 1.7421875 4.3720703125  3.8720703125 2.2421875  6.5 2.2421875  C 9.1279296875 2.2421875  11.2578125 4.3720703125  11.2578125 7  Z " stroke-width="0" stroke-dasharray="0" stroke="rgba(255, 255, 255, 0)" fill="none" transform="matrix(1 0 0 1 6 7 )" class="stroke" mask="url(#Clip7912)" />
  </g>
</svg>