<?xml version="1.0" encoding="utf-8"?>
<svg version="1.1" xmlns:xlink="http://www.w3.org/1999/xlink" width="172px" height="129px" xmlns="http://www.w3.org/2000/svg">
  <defs>
    <pattern id="BGPattern" patternUnits="userSpaceOnUse" alignment="0 0" imageRepeat="None" />
    <mask fill="white" id="Clip13949">
      <path d="M 128.7125 85.72750000000002  C 152.29999999999998 85.72750000000002  170.81000000000003 67.195  171.39499999999998 44.125  C 170.80999999999997 90.78250000000003  132.8075 128.425  86.0075 128.425  C 39.20749999999997 128.425  1.2049999999999983 90.78250000000003  0.6200000000000045 44.125  C 0.6124999999999972 43.75749999999999  0.605000000000004 43.390000000000015  0.605000000000004 43.02250000000001  C 0.605000000000004 19.44250000000001  19.72250000000001 0.3175000000000239  43.30250000000001 0.3175000000000239  C 66.8825 0.3175000000000239  86.00750000000002 19.44250000000001  86.00750000000002 43.02250000000001  C 86.00750000000002 66.60250000000002  105.12500000000003 85.72750000000002  128.7125 85.72750000000002  Z " fill-rule="evenodd" />
    </mask>
  </defs>
  <g transform="matrix(1 0 0 1 -64 -107 )">
    <path d="M 128.7125 85.72750000000002  C 152.29999999999998 85.72750000000002  170.81000000000003 67.195  171.39499999999998 44.125  C 170.80999999999997 90.78250000000003  132.8075 128.425  86.0075 128.425  C 39.20749999999997 128.425  1.2049999999999983 90.78250000000003  0.6200000000000045 44.125  C 0.6124999999999972 43.75749999999999  0.605000000000004 43.390000000000015  0.605000000000004 43.02250000000001  C 0.605000000000004 19.44250000000001  19.72250000000001 0.3175000000000239  43.30250000000001 0.3175000000000239  C 66.8825 0.3175000000000239  86.00750000000002 19.44250000000001  86.00750000000002 43.02250000000001  C 86.00750000000002 66.60250000000002  105.12500000000003 85.72750000000002  128.7125 85.72750000000002  Z " fill-rule="nonzero" fill="rgba(0, 0, 0, 1)" stroke="none" transform="matrix(1 0 0 1 64 107 )" class="fill" />
    <path d="M 128.7125 85.72750000000002  C 152.29999999999998 85.72750000000002  170.81000000000003 67.195  171.39499999999998 44.125  C 170.80999999999997 90.78250000000003  132.8075 128.425  86.0075 128.425  C 39.20749999999997 128.425  1.2049999999999983 90.78250000000003  0.6200000000000045 44.125  C 0.6124999999999972 43.75749999999999  0.605000000000004 43.390000000000015  0.605000000000004 43.02250000000001  C 0.605000000000004 19.44250000000001  19.72250000000001 0.3175000000000239  43.30250000000001 0.3175000000000239  C 66.8825 0.3175000000000239  86.00750000000002 19.44250000000001  86.00750000000002 43.02250000000001  C 86.00750000000002 66.60250000000002  105.12500000000003 85.72750000000002  128.7125 85.72750000000002  Z " stroke-width="0" stroke-dasharray="0" stroke="rgba(255, 255, 255, 0)" fill="none" transform="matrix(1 0 0 1 64 107 )" class="stroke" mask="url(#Clip13949)" />
  </g>
</svg>