<?xml version="1.0" encoding="utf-8"?>
<svg version="1.1" xmlns:xlink="http://www.w3.org/1999/xlink" width="27px" height="26px" xmlns="http://www.w3.org/2000/svg">
  <defs>
    <pattern id="BGPattern" patternUnits="userSpaceOnUse" alignment="0 0" imageRepeat="None" />
    <mask fill="white" id="Clip11556">
      <path d="M 0.46999999999999886 13.030000000000001  C 0.46999999999999886 20.117194052203672  6.215305947796352 25.86250000000001  13.302500000000023 25.86250000000001  C 20.38969405220368 25.86250000000001  26.135000000000005 20.117194052203644  26.135000000000005 13.030000000000001  C 26.135000000000005 5.94280594779633  20.38969405220368 0.1974999999999909  13.302500000000023 0.1974999999999909  C 6.215305947796367 0.1974999999999909  0.47000000000002734 5.94280594779633  0.47000000000002734 13.030000000000001  Z " fill-rule="evenodd" />
    </mask>
  </defs>
  <g transform="matrix(1 0 0 1 -94 -137 )">
    <path d="M 0.46999999999999886 13.030000000000001  C 0.46999999999999886 20.117194052203672  6.215305947796352 25.86250000000001  13.302500000000023 25.86250000000001  C 20.38969405220368 25.86250000000001  26.135000000000005 20.117194052203644  26.135000000000005 13.030000000000001  C 26.135000000000005 5.94280594779633  20.38969405220368 0.1974999999999909  13.302500000000023 0.1974999999999909  C 6.215305947796367 0.1974999999999909  0.47000000000002734 5.94280594779633  0.47000000000002734 13.030000000000001  Z " fill-rule="nonzero" fill="rgba(255, 255, 255, 1)" stroke="none" transform="matrix(1 0 0 1 94 137 )" class="fill" />
    <path d="M 0.46999999999999886 13.030000000000001  C 0.46999999999999886 20.117194052203672  6.215305947796352 25.86250000000001  13.302500000000023 25.86250000000001  C 20.38969405220368 25.86250000000001  26.135000000000005 20.117194052203644  26.135000000000005 13.030000000000001  C 26.135000000000005 5.94280594779633  20.38969405220368 0.1974999999999909  13.302500000000023 0.1974999999999909  C 6.215305947796367 0.1974999999999909  0.47000000000002734 5.94280594779633  0.47000000000002734 13.030000000000001  Z " stroke-width="0" stroke-dasharray="0" stroke="rgba(255, 255, 255, 0)" fill="none" transform="matrix(1 0 0 1 94 137 )" class="stroke" mask="url(#Clip11556)" />
  </g>
</svg>