<?xml version="1.0" encoding="utf-8"?>
<svg version="1.1" xmlns:xlink="http://www.w3.org/1999/xlink" width="27px" height="26px" xmlns="http://www.w3.org/2000/svg">
  <defs>
    <pattern id="BGPattern" patternUnits="userSpaceOnUse" alignment="0 0" imageRepeat="None" />
    <mask fill="white" id="Clip17523">
      <path d="M 0.865000000000009 12.969999999999999  C 0.865000000000009 20.05719405220367  6.610305947796348 25.802500000000038  13.69750000000002 25.802500000000038  C 20.78469405220372 25.802500000000038  26.53 20.05719405220367  26.53 12.969999999999999  C 26.53 5.882805947796356  20.78469405220369 0.13749999999998863  13.69750000000002 0.13749999999998863  C 6.610305947796348 0.13749999999998863  0.8650000000000375 5.882805947796328  0.8650000000000375 12.969999999999999  Z " fill-rule="evenodd" />
    </mask>
  </defs>
  <g transform="matrix(1 0 0 1 -179 -137 )">
    <path d="M 0.865000000000009 12.969999999999999  C 0.865000000000009 20.05719405220367  6.610305947796348 25.802500000000038  13.69750000000002 25.802500000000038  C 20.78469405220372 25.802500000000038  26.53 20.05719405220367  26.53 12.969999999999999  C 26.53 5.882805947796356  20.78469405220369 0.13749999999998863  13.69750000000002 0.13749999999998863  C 6.610305947796348 0.13749999999998863  0.8650000000000375 5.882805947796328  0.8650000000000375 12.969999999999999  Z " fill-rule="nonzero" fill="rgba(0, 0, 0, 1)" stroke="none" transform="matrix(1 0 0 1 179 137 )" class="fill" />
    <path d="M 0.865000000000009 12.969999999999999  C 0.865000000000009 20.05719405220367  6.610305947796348 25.802500000000038  13.69750000000002 25.802500000000038  C 20.78469405220372 25.802500000000038  26.53 20.05719405220367  26.53 12.969999999999999  C 26.53 5.882805947796356  20.78469405220369 0.13749999999998863  13.69750000000002 0.13749999999998863  C 6.610305947796348 0.13749999999998863  0.8650000000000375 5.882805947796328  0.8650000000000375 12.969999999999999  Z " stroke-width="0" stroke-dasharray="0" stroke="rgba(255, 255, 255, 0)" fill="none" transform="matrix(1 0 0 1 179 137 )" class="stroke" mask="url(#Clip17523)" />
  </g>
</svg>