<?xml version="1.0" encoding="utf-8"?>
<svg version="1.1" xmlns:xlink="http://www.w3.org/1999/xlink" width="40px" height="40px" xmlns="http://www.w3.org/2000/svg">
  <defs>
    <pattern id="BGPattern" patternUnits="userSpaceOnUse" alignment="0 0" imageRepeat="None" />
    <mask fill="white" id="Clip17526">
      <path d="M 15.243499999999997 20.4615  L 0.7129999999999939 5.930250000000001  L 5.857999999999997 0.7860000000000014  L 20.388499999999993 15.31725000000003  L 15.243499999999997 20.4615  Z M 34.56800000000001 39.79125000000002  L 20.1695 25.391999999999996  L 25.31450000000001 20.247749999999996  L 39.71225 34.64625000000001  L 34.56800000000001 39.79125000000002  Z " fill-rule="evenodd" />
    </mask>
  </defs>
  <g transform="matrix(1 0 0 1 -46 -213 )">
    <path d="M 15.243499999999997 20.4615  L 0.7129999999999939 5.930250000000001  L 5.857999999999997 0.7860000000000014  L 20.388499999999993 15.31725000000003  L 15.243499999999997 20.4615  Z M 34.56800000000001 39.79125000000002  L 20.1695 25.391999999999996  L 25.31450000000001 20.247749999999996  L 39.71225 34.64625000000001  L 34.56800000000001 39.79125000000002  Z " fill-rule="nonzero" fill="rgba(255, 255, 255, 1)" stroke="none" transform="matrix(1 0 0 1 46 213 )" class="fill" />
    <path d="M 15.243499999999997 20.4615  L 0.7129999999999939 5.930250000000001  L 5.857999999999997 0.7860000000000014  L 20.388499999999993 15.31725000000003  L 15.243499999999997 20.4615  Z " stroke-width="0" stroke-dasharray="0" stroke="rgba(255, 255, 255, 0)" fill="none" transform="matrix(1 0 0 1 46 213 )" class="stroke" mask="url(#Clip17526)" />
    <path d="M 34.56800000000001 39.79125000000002  L 20.1695 25.391999999999996  L 25.31450000000001 20.247749999999996  L 39.71225 34.64625000000001  L 34.56800000000001 39.79125000000002  Z " stroke-width="0" stroke-dasharray="0" stroke="rgba(255, 255, 255, 0)" fill="none" transform="matrix(1 0 0 1 46 213 )" class="stroke" mask="url(#Clip17526)" />
  </g>
</svg>