<?xml version="1.0" encoding="utf-8"?>
<svg version="1.1" xmlns:xlink="http://www.w3.org/1999/xlink" width="49px" height="9px" xmlns="http://www.w3.org/2000/svg">
  <defs>
    <pattern id="BGPattern" patternUnits="userSpaceOnUse" alignment="0 0" imageRepeat="None" />
    <mask fill="white" id="Clip13957">
      <path d="M 0.6924999999999955 8  L 0.6924999999999955 1  L 21.242500000000007 1  L 21.242500000000007 8  L 0.6924999999999955 8  Z M 28.210000000000008 8  L 28.210000000000008 1  L 48.57250000000002 1  L 48.57250000000002 8  L 28.210000000000008 8  Z " fill-rule="evenodd" />
    </mask>
  </defs>
  <g transform="matrix(1 0 0 1 -125 -251 )">
    <path d="M 0.6924999999999955 8  L 0.6924999999999955 1  L 21.242500000000007 1  L 21.242500000000007 8  L 0.6924999999999955 8  Z M 28.210000000000008 8  L 28.210000000000008 1  L 48.57250000000002 1  L 48.57250000000002 8  L 28.210000000000008 8  Z " fill-rule="nonzero" fill="rgba(255, 255, 255, 1)" stroke="none" transform="matrix(1 0 0 1 125 251 )" class="fill" />
    <path d="M 0.6924999999999955 8  L 0.6924999999999955 1  L 21.242500000000007 1  L 21.242500000000007 8  L 0.6924999999999955 8  Z " stroke-width="0" stroke-dasharray="0" stroke="rgba(255, 255, 255, 0)" fill="none" transform="matrix(1 0 0 1 125 251 )" class="stroke" mask="url(#Clip13957)" />
    <path d="M 28.210000000000008 8  L 28.210000000000008 1  L 48.57250000000002 1  L 48.57250000000002 8  L 28.210000000000008 8  Z " stroke-width="0" stroke-dasharray="0" stroke="rgba(255, 255, 255, 0)" fill="none" transform="matrix(1 0 0 1 125 251 )" class="stroke" mask="url(#Clip13957)" />
  </g>
</svg>