<?xml version="1.0" encoding="utf-8"?>
<svg version="1.1" xmlns:xlink="http://www.w3.org/1999/xlink" width="40px" height="40px" xmlns="http://www.w3.org/2000/svg">
  <defs>
    <pattern id="BGPattern" patternUnits="userSpaceOnUse" alignment="0 0" imageRepeat="None" />
    <mask fill="white" id="Clip17530">
      <path d="M 5.980500000000006 39.378499999999974  L 0.8362500000000068 34.234999999999985  L 15.367500000000007 19.702999999999975  L 20.510999999999996 24.847999999999985  L 5.980500000000006 39.378499999999974  Z M 25.434750000000008 19.92950000000002  L 20.29050000000001 14.785250000000019  L 34.68900000000002 0.38675000000000637  L 39.83325000000002 5.531000000000006  L 25.434750000000008 19.92950000000002  Z " fill-rule="evenodd" />
    </mask>
  </defs>
  <g transform="matrix(1 0 0 1 -204 -205 )">
    <path d="M 5.980500000000006 39.378499999999974  L 0.8362500000000068 34.234999999999985  L 15.367500000000007 19.702999999999975  L 20.510999999999996 24.847999999999985  L 5.980500000000006 39.378499999999974  Z M 25.434750000000008 19.92950000000002  L 20.29050000000001 14.785250000000019  L 34.68900000000002 0.38675000000000637  L 39.83325000000002 5.531000000000006  L 25.434750000000008 19.92950000000002  Z " fill-rule="nonzero" fill="rgba(255, 255, 255, 1)" stroke="none" transform="matrix(1 0 0 1 204 205 )" class="fill" />
    <path d="M 5.980500000000006 39.378499999999974  L 0.8362500000000068 34.234999999999985  L 15.367500000000007 19.702999999999975  L 20.510999999999996 24.847999999999985  L 5.980500000000006 39.378499999999974  Z " stroke-width="0" stroke-dasharray="0" stroke="rgba(255, 255, 255, 0)" fill="none" transform="matrix(1 0 0 1 204 205 )" class="stroke" mask="url(#Clip17530)" />
    <path d="M 25.434750000000008 19.92950000000002  L 20.29050000000001 14.785250000000019  L 34.68900000000002 0.38675000000000637  L 39.83325000000002 5.531000000000006  L 25.434750000000008 19.92950000000002  Z " stroke-width="0" stroke-dasharray="0" stroke="rgba(255, 255, 255, 0)" fill="none" transform="matrix(1 0 0 1 204 205 )" class="stroke" mask="url(#Clip17530)" />
  </g>
</svg>