<?xml version="1.0" encoding="utf-8"?>
<svg version="1.1" xmlns:xlink="http://www.w3.org/1999/xlink" width="46px" height="46px" xmlns="http://www.w3.org/2000/svg">
  <defs>
    <pattern id="BGPattern" patternUnits="userSpaceOnUse" alignment="0 0" imageRepeat="None" />
    <mask fill="white" id="Clip9730">
      <path d="M 13.000224853515627 25.182780068359374  C 19.717140771484374 25.182780068359374  25.183004921875 19.717725390625  25.183004921875 12.999940029296875  C 25.183004921875 6.281704990234374  19.717170771484376 0.8171299609374993  13.000224853515627 0.8171299609374993  C 6.281600078125001 0.8171299609374993  0.8170250488281261 6.281704990234374  0.8170250488281261 12.999940029296875  C 0.8170250488281261 19.717725361328124  6.281600078125001 25.182780068359374  13.000224853515627 25.182780068359374  Z M 23.434140654296872 12.999940029296877  C 23.434140654296876 18.75228994140625  18.752514794921872 23.434725244140626  13.000224853515626 23.434725244140626  C 7.247035527343748 23.434725244140626  2.5654696093749987 18.75228994140625  2.5654696093749987 12.999940029296877  C 2.5654696093749987 7.246780673828128  7.247035498046873 2.5656344921875016  13.000224853515626 2.5656344921875016  C 18.752514794921872 2.5656344921875016  23.434140654296872 7.246780673828128  23.434140654296872 12.999940029296877  Z " fill-rule="evenodd" />
    </mask>
  </defs>
  <g transform="matrix(1 0 0 1 -537 -461 )">
    <path d="M 13.000224853515627 25.182780068359374  C 19.717140771484374 25.182780068359374  25.183004921875 19.717725390625  25.183004921875 12.999940029296875  C 25.183004921875 6.281704990234374  19.717170771484376 0.8171299609374993  13.000224853515627 0.8171299609374993  C 6.281600078125001 0.8171299609374993  0.8170250488281261 6.281704990234374  0.8170250488281261 12.999940029296875  C 0.8170250488281261 19.717725361328124  6.281600078125001 25.182780068359374  13.000224853515627 25.182780068359374  Z M 23.434140654296872 12.999940029296877  C 23.434140654296876 18.75228994140625  18.752514794921872 23.434725244140626  13.000224853515626 23.434725244140626  C 7.247035527343748 23.434725244140626  2.5654696093749987 18.75228994140625  2.5654696093749987 12.999940029296877  C 2.5654696093749987 7.246780673828128  7.247035498046873 2.5656344921875016  13.000224853515626 2.5656344921875016  C 18.752514794921872 2.5656344921875016  23.434140654296872 7.246780673828128  23.434140654296872 12.999940029296877  Z " fill-rule="nonzero" fill="rgba(255, 255, 255, 1)" stroke="none" transform="matrix(1 0 0 1 547 471 )" class="fill" />
    <path d="M 13.000224853515627 25.182780068359374  C 19.717140771484374 25.182780068359374  25.183004921875 19.717725390625  25.183004921875 12.999940029296875  C 25.183004921875 6.281704990234374  19.717170771484376 0.8171299609374993  13.000224853515627 0.8171299609374993  C 6.281600078125001 0.8171299609374993  0.8170250488281261 6.281704990234374  0.8170250488281261 12.999940029296875  C 0.8170250488281261 19.717725361328124  6.281600078125001 25.182780068359374  13.000224853515627 25.182780068359374  Z " stroke-width="0" stroke-dasharray="0" stroke="rgba(255, 255, 255, 0)" fill="none" transform="matrix(1 0 0 1 547 471 )" class="stroke" mask="url(#Clip9730)" />
    <path d="M 23.434140654296872 12.999940029296877  C 23.434140654296876 18.75228994140625  18.752514794921872 23.434725244140626  13.000224853515626 23.434725244140626  C 7.247035527343748 23.434725244140626  2.5654696093749987 18.75228994140625  2.5654696093749987 12.999940029296877  C 2.5654696093749987 7.246780673828128  7.247035498046873 2.5656344921875016  13.000224853515626 2.5656344921875016  C 18.752514794921872 2.5656344921875016  23.434140654296872 7.246780673828128  23.434140654296872 12.999940029296877  Z " stroke-width="0" stroke-dasharray="0" stroke="rgba(255, 255, 255, 0)" fill="none" transform="matrix(1 0 0 1 547 471 )" class="stroke" mask="url(#Clip9730)" />
  </g>
  <style>svg { filter: drop-shadow(0px 0px 5px rgba(0, 0, 0, 0.3137254901960784)); }</style>
</svg>