<?xml version="1.0" encoding="utf-8"?>
<svg version="1.1" xmlns:xlink="http://www.w3.org/1999/xlink" width="330px" height="330px" xmlns="http://www.w3.org/2000/svg">
  <defs>
    <pattern id="BGPattern" patternUnits="userSpaceOnUse" alignment="0 0" imageRepeat="None" />
    <mask fill="white" id="Clip15647">
      <path d="M 0 165  C 0 72.6  72.6 0  165 0  C 257.40000000000003 0  330 72.6  330 165  C 330 257.40000000000003  257.40000000000003 330  165 330  C 72.6 330  0 257.40000000000003  0 165  Z " fill-rule="evenodd" />
    </mask>
  </defs>
  <g transform="matrix(1 0 0 1 -14 -225 )">
    <path d="M 0 165  C 0 72.6  72.6 0  165 0  C 257.40000000000003 0  330 72.6  330 165  C 330 257.40000000000003  257.40000000000003 330  165 330  C 72.6 330  0 257.40000000000003  0 165  Z " fill-rule="nonzero" fill="rgba(255, 255, 255, 1)" stroke="none" transform="matrix(1 0 0 1 14 225 )" class="fill" />
    <path d="M 0 165  C 0 72.6  72.6 0  165 0  C 257.40000000000003 0  330 72.6  330 165  C 330 257.40000000000003  257.40000000000003 330  165 330  C 72.6 330  0 257.40000000000003  0 165  Z " stroke-width="0" stroke-dasharray="0" stroke="rgba(121, 121, 121, 1)" fill="none" transform="matrix(1 0 0 1 14 225 )" class="stroke" mask="url(#Clip15647)" />
  </g>
</svg>