<?xml version="1.0" encoding="utf-8"?>
<svg version="1.1" xmlns:xlink="http://www.w3.org/1999/xlink" width="172px" height="129px" xmlns="http://www.w3.org/2000/svg">
  <defs>
    <pattern id="BGPattern" patternUnits="userSpaceOnUse" alignment="0 0" imageRepeat="None" />
    <mask fill="white" id="Clip7891">
      <path d="M 43.28750000000002 43.27250000000002  C 19.700000000000045 43.27250000000002  1.1900000000000261 61.805000000000035  0.605000000000004 84.875  C 1.190000000000012 38.217500000000015  39.19250000000001 0.5750000000000028  85.9925 0.5750000000000028  C 132.79250000000002 0.5750000000000028  170.79500000000002 38.2175  171.38000000000002 84.875  C 171.38750000000005 85.2425  171.395 85.61000000000001  171.395 85.97749999999999  C 171.395 109.55749999999998  152.2775 128.6825  128.69750000000002 128.6825  C 105.1175 128.6825  85.9925 109.55750000000003  85.9925 85.97750000000002  C 85.9925 62.39750000000002  66.875 43.27250000000002  43.28750000000002 43.27250000000002  Z " fill-rule="evenodd" />
    </mask>
  </defs>
  <g transform="matrix(1 0 0 1 -64 -64 )">
    <path d="M 43.28750000000002 43.27250000000002  C 19.700000000000045 43.27250000000002  1.1900000000000261 61.805000000000035  0.605000000000004 84.875  C 1.190000000000012 38.217500000000015  39.19250000000001 0.5750000000000028  85.9925 0.5750000000000028  C 132.79250000000002 0.5750000000000028  170.79500000000002 38.2175  171.38000000000002 84.875  C 171.38750000000005 85.2425  171.395 85.61000000000001  171.395 85.97749999999999  C 171.395 109.55749999999998  152.2775 128.6825  128.69750000000002 128.6825  C 105.1175 128.6825  85.9925 109.55750000000003  85.9925 85.97750000000002  C 85.9925 62.39750000000002  66.875 43.27250000000002  43.28750000000002 43.27250000000002  Z " fill-rule="nonzero" fill="rgba(255, 255, 255, 1)" stroke="none" transform="matrix(1 0 0 1 64 64 )" class="fill" />
    <path d="M 43.28750000000002 43.27250000000002  C 19.700000000000045 43.27250000000002  1.1900000000000261 61.805000000000035  0.605000000000004 84.875  C 1.190000000000012 38.217500000000015  39.19250000000001 0.5750000000000028  85.9925 0.5750000000000028  C 132.79250000000002 0.5750000000000028  170.79500000000002 38.2175  171.38000000000002 84.875  C 171.38750000000005 85.2425  171.395 85.61000000000001  171.395 85.97749999999999  C 171.395 109.55749999999998  152.2775 128.6825  128.69750000000002 128.6825  C 105.1175 128.6825  85.9925 109.55750000000003  85.9925 85.97750000000002  C 85.9925 62.39750000000002  66.875 43.27250000000002  43.28750000000002 43.27250000000002  Z " stroke-width="0" stroke-dasharray="0" stroke="rgba(255, 255, 255, 0)" fill="none" transform="matrix(1 0 0 1 64 64 )" class="stroke" mask="url(#Clip7891)" />
  </g>
</svg>