<?xml version="1.0" encoding="utf-8"?>
<svg version="1.1" xmlns:xlink="http://www.w3.org/1999/xlink" width="26px" height="26px" xmlns="http://www.w3.org/2000/svg">
  <defs>
    <pattern id="BGPattern" patternUnits="userSpaceOnUse" alignment="0 0" imageRepeat="None" />
    <mask fill="white" id="Clip13930">
      <path d="M 25.03606555719866 13.229469514508928  L 15.17327784012277 13.229469514508928  L 15.17327784012277 11.686836397321427  L 24.26474899860491 11.686836397321427  L 24.26474899860491 9.817166375279015  C 24.26474899860491 9.04584981668527  23.63536633482143 8.416467152901788  22.864049776227677 8.416467152901788  L 3.1123269313616064 8.416467152901788  C 2.3410103727678564 8.416467152901788  1.7116277089843748 9.045882167968752  1.7116277089843748 9.817166375279015  L 1.7116277089843748 12  L 15.17327784012277 12  L 15.17327784012277 13  L 0.9403111503906249 13  C 0.5145418172433035 13.229469514508928  0.16899459179687507 12.8839222890625  0.16899459179687507 12.458152955915178  L 0.16899459179687507 9.817198726562502  C 0.16899459179687507 8.194375885602676  1.4894717064732144 6.873866419642856  3.1123269313616064 7  L 22.864049776227677 7  C 24.486872617187505 6.873866419642856  25.807382083147324 8.194343534319195  25.807382115792414 9.817198726562502  L 25.807382115792414 12.458152955915178  C 25.807382115792414 12.8839222890625  25.461834890345983 13.229469514508928  25.03606555719866 13.229469514508928  Z M 19.032190578404016 25.826507273995535  L 6.944186129185269 25.826507273995535  C 4.713565198381698 25.826507273995535  2.8994260728236623 24.0123681484375  2.8994260728236623 21.781747184988838  L 2.8994260728236623 12.914438396205357  C 2.8994260728236623 12.488669063058035  4.442059190011164 12.488669063058035  4.442059190011164 12.914438396205357  L 4.442059190011164 21.778672931640624  C 4.442059190011164 23.157787580078125  5.5650715133928585 24.280799870814732  6.944186129185269 24  L 19.032158194475443 24  C 20.411272842912943 24.280799903459823  21.53428513364955 23.15775522879464  21.53428516629464 21.778672931640624  L 21.53428516629464 12.458152955915178  C 21.53428516629464 12.032383622767856  23.076918283482144 12.032383622767856  23.076918283482144 12.458152955915178  L 23.076918283482144 21.778672931640624  C 23.076950634765623 24.009293862444196  21.262811509207587 25.826507241350445  19.032190578404016 25.826507273995535  Z M 13.173970969308035 8.006166238281251  C 13.041324569754464 8.259129574776788  12.779073705357142 8.41339289955357  12.49523826702009 8.41339289955357  L 7.506388039341516 8.41339289955357  C 7.339795317243304 8.41339289955357  7.176276848493303 8.357862003069195  7.043598130301338 8.259129574776786  C 6.7503049225679925 8.03943848021487  6.4729680739211 7.799215416153197  6.213676389229911 7.540269659319196  C 5.238746499999999 6.565339770089285  4.569236623046875 5.389838452287946  4.325496046595982 4.226731299665178  C 4.05706429157366 2.9463490468750004  4.328570299944196 1.8233367561383929  5.087557461216518 1.0643495948660717  C 5.846544589843751 0.3053624662388398  6.969556913225445 0.03388880915178655  8.249939166015626 0.30228821289062585  C 9.413078702566963 0.5460287893415179  10.588547669084823 1.2155063150111611  11.563477525669644 2.1904685228794647  C 13.374510013950893 4.001501011160714  14.03783903292411 6.392566157366073  13.173970969308035 8.006166238281251  Z M 7.308923248046875 6.448097086495533  C 7.45085714285714 6.5992537739955335  7.608194720982141 6.738113415457588  7.771713189732144 6.87075978236607  L 11.964555647600447 6.87075978236607  C 12.186679266183036 5.864990175223214  11.603572387555804 4.41183430970982  10.474379206194197 3.282608777064731  C 9.721572968191966 2.529802539062499  8.79599308482143 1.9960780175781245  7.9383059118303585 1.8140168769531235  C 7.503281434709822 1.7214653719308028  6.694944267578126 1.6474241548549091  6.1828043200334815 2.1564898490513373  C 5.67066437248884 2.668629796595981  5.747779842912947 3.4769669637276768  5.840331347935269 3.9119914408482126  C 6.019285851283483 4.769678613839285  6.556116977399553 5.69525849720982  7.308923248046875 6.448097086495533  Z M 18.6325363046875 8.259097223493304  C 18.499889905133927 8.36093625641741  18.336371469029018 8.41339289955357  18.169746363002233 8.41339289955357  L 13.180928486607144 8.41339289955357  C 12.897093048270088 8.41339289955357  12.634842183872767 8.25605532142857  12.502163465680802 8.00613385435268  C 11.63829540206473 6.395640410714286  12.301624388392854 4.004575297154019  14.112656909319199 2.1904361715959824  C 15.087586798549108 1.215506282366072  16.263088116350445 0.5459964054129471  17.426195268973213 0.30225582896205433  C 18.706577521763393 0.03382407393973271  19.8295898125 0.3053300823102683  20.588576973772323 1.0643495948660717  C 21.347564102399552 1.8233043722098214  21.619037759486606 2.9463166955915185  21.35063835574777 4.226698948381697  C 21.106897779296872 5.389838484933036  20.43742025362723 6.565307451450895  19.46245801311384 7.540237308035714  C 19.20315907959564 7.799175259840062  18.92582281299313 8.03939782919692  18.6325363046875 8.259097223493304  Z M 15.107715107700896 3.285715381696429  C 13.975480024274557 4.4118666609933035  13.392340761718755 5.864990175223214  13.614496764229912 6.87075978236607  L 17.807339222098214 6.87075978236607  C 17.970857690848213 6.738081031529017  18.128195268973215 6.596179488002233  18.273203417131697 6.45117133984375  C 19.026009655133933 5.698365101841518  19.559734176618303 4.772785218470982  19.741762965959825 3.915098045479911  C 19.834314470982147 3.4800735683593746  19.908355688058037 2.6717364012276787  19.399289993861608 2.1595964536830357  C 18.88715004631696 1.6474565061383923  18.078812879185268 1.7245719765625005  17.643788402064732 1.8171234815848214  C 16.786101229073658 1.9960779849330361  15.860521345703127 2.5329414949776785  15.107715107700896 3.285715381696429  Z " fill-rule="evenodd" />
    </mask>
  </defs>
  <g transform="matrix(1 0 0 1 -135 -336 )">
    <path d="M 25.03606555719866 13.229469514508928  L 15.17327784012277 13.229469514508928  L 15.17327784012277 11.686836397321427  L 24.26474899860491 11.686836397321427  L 24.26474899860491 9.817166375279015  C 24.26474899860491 9.04584981668527  23.63536633482143 8.416467152901788  22.864049776227677 8.416467152901788  L 3.1123269313616064 8.416467152901788  C 2.3410103727678564 8.416467152901788  1.7116277089843748 9.045882167968752  1.7116277089843748 9.817166375279015  L 1.7116277089843748 12  L 15.17327784012277 12  L 15.17327784012277 13  L 0.9403111503906249 13  C 0.5145418172433035 13.229469514508928  0.16899459179687507 12.8839222890625  0.16899459179687507 12.458152955915178  L 0.16899459179687507 9.817198726562502  C 0.16899459179687507 8.194375885602676  1.4894717064732144 6.873866419642856  3.1123269313616064 7  L 22.864049776227677 7  C 24.486872617187505 6.873866419642856  25.807382083147324 8.194343534319195  25.807382115792414 9.817198726562502  L 25.807382115792414 12.458152955915178  C 25.807382115792414 12.8839222890625  25.461834890345983 13.229469514508928  25.03606555719866 13.229469514508928  Z M 19.032190578404016 25.826507273995535  L 6.944186129185269 25.826507273995535  C 4.713565198381698 25.826507273995535  2.8994260728236623 24.0123681484375  2.8994260728236623 21.781747184988838  L 2.8994260728236623 12.914438396205357  C 2.8994260728236623 12.488669063058035  4.442059190011164 12.488669063058035  4.442059190011164 12.914438396205357  L 4.442059190011164 21.778672931640624  C 4.442059190011164 23.157787580078125  5.5650715133928585 24.280799870814732  6.944186129185269 24  L 19.032158194475443 24  C 20.411272842912943 24.280799903459823  21.53428513364955 23.15775522879464  21.53428516629464 21.778672931640624  L 21.53428516629464 12.458152955915178  C 21.53428516629464 12.032383622767856  23.076918283482144 12.032383622767856  23.076918283482144 12.458152955915178  L 23.076918283482144 21.778672931640624  C 23.076950634765623 24.009293862444196  21.262811509207587 25.826507241350445  19.032190578404016 25.826507273995535  Z M 13.173970969308035 8.006166238281251  C 13.041324569754464 8.259129574776788  12.779073705357142 8.41339289955357  12.49523826702009 8.41339289955357  L 7.506388039341516 8.41339289955357  C 7.339795317243304 8.41339289955357  7.176276848493303 8.357862003069195  7.043598130301338 8.259129574776786  C 6.7503049225679925 8.03943848021487  6.4729680739211 7.799215416153197  6.213676389229911 7.540269659319196  C 5.238746499999999 6.565339770089285  4.569236623046875 5.389838452287946  4.325496046595982 4.226731299665178  C 4.05706429157366 2.9463490468750004  4.328570299944196 1.8233367561383929  5.087557461216518 1.0643495948660717  C 5.846544589843751 0.3053624662388398  6.969556913225445 0.03388880915178655  8.249939166015626 0.30228821289062585  C 9.413078702566963 0.5460287893415179  10.588547669084823 1.2155063150111611  11.563477525669644 2.1904685228794647  C 13.374510013950893 4.001501011160714  14.03783903292411 6.392566157366073  13.173970969308035 8.006166238281251  Z M 7.308923248046875 6.448097086495533  C 7.45085714285714 6.5992537739955335  7.608194720982141 6.738113415457588  7.771713189732144 6.87075978236607  L 11.964555647600447 6.87075978236607  C 12.186679266183036 5.864990175223214  11.603572387555804 4.41183430970982  10.474379206194197 3.282608777064731  C 9.721572968191966 2.529802539062499  8.79599308482143 1.9960780175781245  7.9383059118303585 1.8140168769531235  C 7.503281434709822 1.7214653719308028  6.694944267578126 1.6474241548549091  6.1828043200334815 2.1564898490513373  C 5.67066437248884 2.668629796595981  5.747779842912947 3.4769669637276768  5.840331347935269 3.9119914408482126  C 6.019285851283483 4.769678613839285  6.556116977399553 5.69525849720982  7.308923248046875 6.448097086495533  Z M 18.6325363046875 8.259097223493304  C 18.499889905133927 8.36093625641741  18.336371469029018 8.41339289955357  18.169746363002233 8.41339289955357  L 13.180928486607144 8.41339289955357  C 12.897093048270088 8.41339289955357  12.634842183872767 8.25605532142857  12.502163465680802 8.00613385435268  C 11.63829540206473 6.395640410714286  12.301624388392854 4.004575297154019  14.112656909319199 2.1904361715959824  C 15.087586798549108 1.215506282366072  16.263088116350445 0.5459964054129471  17.426195268973213 0.30225582896205433  C 18.706577521763393 0.03382407393973271  19.8295898125 0.3053300823102683  20.588576973772323 1.0643495948660717  C 21.347564102399552 1.8233043722098214  21.619037759486606 2.9463166955915185  21.35063835574777 4.226698948381697  C 21.106897779296872 5.389838484933036  20.43742025362723 6.565307451450895  19.46245801311384 7.540237308035714  C 19.20315907959564 7.799175259840062  18.92582281299313 8.03939782919692  18.6325363046875 8.259097223493304  Z M 15.107715107700896 3.285715381696429  C 13.975480024274557 4.4118666609933035  13.392340761718755 5.864990175223214  13.614496764229912 6.87075978236607  L 17.807339222098214 6.87075978236607  C 17.970857690848213 6.738081031529017  18.128195268973215 6.596179488002233  18.273203417131697 6.45117133984375  C 19.026009655133933 5.698365101841518  19.559734176618303 4.772785218470982  19.741762965959825 3.915098045479911  C 19.834314470982147 3.4800735683593746  19.908355688058037 2.6717364012276787  19.399289993861608 2.1595964536830357  C 18.88715004631696 1.6474565061383923  18.078812879185268 1.7245719765625005  17.643788402064732 1.8171234815848214  C 16.786101229073658 1.9960779849330361  15.860521345703127 2.5329414949776785  15.107715107700896 3.285715381696429  Z " fill-rule="nonzero" fill="rgba(255, 255, 255, 1)" stroke="none" transform="matrix(1 0 0 1 135 336 )" class="fill" />
    <path d="M 25.03606555719866 13.229469514508928  L 15.17327784012277 13.229469514508928  L 15.17327784012277 11.686836397321427  L 24.26474899860491 11.686836397321427  L 24.26474899860491 9.817166375279015  C 24.26474899860491 9.04584981668527  23.63536633482143 8.416467152901788  22.864049776227677 8.416467152901788  L 3.1123269313616064 8.416467152901788  C 2.3410103727678564 8.416467152901788  1.7116277089843748 9.045882167968752  1.7116277089843748 9.817166375279015  L 1.7116277089843748 12  L 15.17327784012277 12  L 15.17327784012277 13  L 0.9403111503906249 13  C 0.5145418172433035 13.229469514508928  0.16899459179687507 12.8839222890625  0.16899459179687507 12.458152955915178  L 0.16899459179687507 9.817198726562502  C 0.16899459179687507 8.194375885602676  1.4894717064732144 6.873866419642856  3.1123269313616064 7  L 22.864049776227677 7  C 24.486872617187505 6.873866419642856  25.807382083147324 8.194343534319195  25.807382115792414 9.817198726562502  L 25.807382115792414 12.458152955915178  C 25.807382115792414 12.8839222890625  25.461834890345983 13.229469514508928  25.03606555719866 13.229469514508928  Z " stroke-width="0" stroke-dasharray="0" stroke="rgba(255, 255, 255, 0)" fill="none" transform="matrix(1 0 0 1 135 336 )" class="stroke" mask="url(#Clip13930)" />
    <path d="M 19.032190578404016 25.826507273995535  L 6.944186129185269 25.826507273995535  C 4.713565198381698 25.826507273995535  2.8994260728236623 24.0123681484375  2.8994260728236623 21.781747184988838  L 2.8994260728236623 12.914438396205357  C 2.8994260728236623 12.488669063058035  4.442059190011164 12.488669063058035  4.442059190011164 12.914438396205357  L 4.442059190011164 21.778672931640624  C 4.442059190011164 23.157787580078125  5.5650715133928585 24.280799870814732  6.944186129185269 24  L 19.032158194475443 24  C 20.411272842912943 24.280799903459823  21.53428513364955 23.15775522879464  21.53428516629464 21.778672931640624  L 21.53428516629464 12.458152955915178  C 21.53428516629464 12.032383622767856  23.076918283482144 12.032383622767856  23.076918283482144 12.458152955915178  L 23.076918283482144 21.778672931640624  C 23.076950634765623 24.009293862444196  21.262811509207587 25.826507241350445  19.032190578404016 25.826507273995535  Z " stroke-width="0" stroke-dasharray="0" stroke="rgba(255, 255, 255, 0)" fill="none" transform="matrix(1 0 0 1 135 336 )" class="stroke" mask="url(#Clip13930)" />
    <path d="M 13.173970969308035 8.006166238281251  C 13.041324569754464 8.259129574776788  12.779073705357142 8.41339289955357  12.49523826702009 8.41339289955357  L 7.506388039341516 8.41339289955357  C 7.339795317243304 8.41339289955357  7.176276848493303 8.357862003069195  7.043598130301338 8.259129574776786  C 6.7503049225679925 8.03943848021487  6.4729680739211 7.799215416153197  6.213676389229911 7.540269659319196  C 5.238746499999999 6.565339770089285  4.569236623046875 5.389838452287946  4.325496046595982 4.226731299665178  C 4.05706429157366 2.9463490468750004  4.328570299944196 1.8233367561383929  5.087557461216518 1.0643495948660717  C 5.846544589843751 0.3053624662388398  6.969556913225445 0.03388880915178655  8.249939166015626 0.30228821289062585  C 9.413078702566963 0.5460287893415179  10.588547669084823 1.2155063150111611  11.563477525669644 2.1904685228794647  C 13.374510013950893 4.001501011160714  14.03783903292411 6.392566157366073  13.173970969308035 8.006166238281251  Z " stroke-width="0" stroke-dasharray="0" stroke="rgba(255, 255, 255, 0)" fill="none" transform="matrix(1 0 0 1 135 336 )" class="stroke" mask="url(#Clip13930)" />
    <path d="M 7.308923248046875 6.448097086495533  C 7.45085714285714 6.5992537739955335  7.608194720982141 6.738113415457588  7.771713189732144 6.87075978236607  L 11.964555647600447 6.87075978236607  C 12.186679266183036 5.864990175223214  11.603572387555804 4.41183430970982  10.474379206194197 3.282608777064731  C 9.721572968191966 2.529802539062499  8.79599308482143 1.9960780175781245  7.9383059118303585 1.8140168769531235  C 7.503281434709822 1.7214653719308028  6.694944267578126 1.6474241548549091  6.1828043200334815 2.1564898490513373  C 5.67066437248884 2.668629796595981  5.747779842912947 3.4769669637276768  5.840331347935269 3.9119914408482126  C 6.019285851283483 4.769678613839285  6.556116977399553 5.69525849720982  7.308923248046875 6.448097086495533  Z " stroke-width="0" stroke-dasharray="0" stroke="rgba(255, 255, 255, 0)" fill="none" transform="matrix(1 0 0 1 135 336 )" class="stroke" mask="url(#Clip13930)" />
    <path d="M 18.6325363046875 8.259097223493304  C 18.499889905133927 8.36093625641741  18.336371469029018 8.41339289955357  18.169746363002233 8.41339289955357  L 13.180928486607144 8.41339289955357  C 12.897093048270088 8.41339289955357  12.634842183872767 8.25605532142857  12.502163465680802 8.00613385435268  C 11.63829540206473 6.395640410714286  12.301624388392854 4.004575297154019  14.112656909319199 2.1904361715959824  C 15.087586798549108 1.215506282366072  16.263088116350445 0.5459964054129471  17.426195268973213 0.30225582896205433  C 18.706577521763393 0.03382407393973271  19.8295898125 0.3053300823102683  20.588576973772323 1.0643495948660717  C 21.347564102399552 1.8233043722098214  21.619037759486606 2.9463166955915185  21.35063835574777 4.226698948381697  C 21.106897779296872 5.389838484933036  20.43742025362723 6.565307451450895  19.46245801311384 7.540237308035714  C 19.20315907959564 7.799175259840062  18.92582281299313 8.03939782919692  18.6325363046875 8.259097223493304  Z " stroke-width="0" stroke-dasharray="0" stroke="rgba(255, 255, 255, 0)" fill="none" transform="matrix(1 0 0 1 135 336 )" class="stroke" mask="url(#Clip13930)" />
    <path d="M 15.107715107700896 3.285715381696429  C 13.975480024274557 4.4118666609933035  13.392340761718755 5.864990175223214  13.614496764229912 6.87075978236607  L 17.807339222098214 6.87075978236607  C 17.970857690848213 6.738081031529017  18.128195268973215 6.596179488002233  18.273203417131697 6.45117133984375  C 19.026009655133933 5.698365101841518  19.559734176618303 4.772785218470982  19.741762965959825 3.915098045479911  C 19.834314470982147 3.4800735683593746  19.908355688058037 2.6717364012276787  19.399289993861608 2.1595964536830357  C 18.88715004631696 1.6474565061383923  18.078812879185268 1.7245719765625005  17.643788402064732 1.8171234815848214  C 16.786101229073658 1.9960779849330361  15.860521345703127 2.5329414949776785  15.107715107700896 3.285715381696429  Z " stroke-width="0" stroke-dasharray="0" stroke="rgba(255, 255, 255, 0)" fill="none" transform="matrix(1 0 0 1 135 336 )" class="stroke" mask="url(#Clip13930)" />
  </g>
</svg>