<?xml version="1.0" encoding="utf-8"?>
<svg version="1.1" xmlns:xlink="http://www.w3.org/1999/xlink" width="160px" height="159px" xmlns="http://www.w3.org/2000/svg">
  <defs>
    <pattern id="BGPattern" patternUnits="userSpaceOnUse" alignment="0 0" imageRepeat="None" />
    <mask fill="white" id="Clip9701">
      <path d="M 111.44999999999999 8  L 111.44999999999999 1  L 159.3225 1  L 159.3225 8  L 111.44999999999999 8  Z M 111.44999999999999 21  L 111.44999999999999 14  L 159.3225 14  L 159.3225 21  L 111.44999999999999 21  Z M 111.44999999999999 34  L 111.44999999999999 26  L 159.3225 26  L 159.3225 34  L 111.44999999999999 34  Z M 37.39125 70.72725  L 32.24775 65.58225  L 66.0975 31.7325  L 71.24249999999999 36.87675  L 37.39125 70.72725  Z M 46.326750000000004 79.66650000000001  L 41.1825 74.52225  L 75.03375 40.67174999999999  L 80.178 45.815999999999995  L 46.326750000000004 79.66650000000001  Z M 47.76375 42.4725  L 42.6195 37.329  L 57.14999999999999 22.79775  L 62.29350000000001 27.942750000000007  L 47.76375 42.4725  Z M 28.45275 61.797000000000004  L 23.308500000000002 56.65274999999999  L 37.707 42.254999999999995  L 42.85125000000001 47.3985  L 28.45275 61.797000000000004  Z M 8 158.58749999999998  L 1 158.58749999999998  L 1 110.71499999999997  L 8 110.71499999999997  L 8 158.58749999999998  Z M 34 158.58749999999998  L 26 158.58749999999998  L 26 110.71499999999997  L 34 110.71499999999997  L 34 158.58749999999998  Z M 14 131.265  L 14 110.71499999999999  L 21 110.71499999999999  L 21 131.265  L 14 131.265  Z M 14 158.5875  L 14 138.22500000000002  L 21 138.22500000000002  L 21 158.5875  L 14 158.5875  Z " fill-rule="evenodd" />
    </mask>
  </defs>
  <g transform="matrix(1 0 0 1 -15 -15 )">
    <path d="M 111.44999999999999 8  L 111.44999999999999 1  L 159.3225 1  L 159.3225 8  L 111.44999999999999 8  Z M 111.44999999999999 21  L 111.44999999999999 14  L 159.3225 14  L 159.3225 21  L 111.44999999999999 21  Z M 111.44999999999999 34  L 111.44999999999999 26  L 159.3225 26  L 159.3225 34  L 111.44999999999999 34  Z M 37.39125 70.72725  L 32.24775 65.58225  L 66.0975 31.7325  L 71.24249999999999 36.87675  L 37.39125 70.72725  Z M 46.326750000000004 79.66650000000001  L 41.1825 74.52225  L 75.03375 40.67174999999999  L 80.178 45.815999999999995  L 46.326750000000004 79.66650000000001  Z M 47.76375 42.4725  L 42.6195 37.329  L 57.14999999999999 22.79775  L 62.29350000000001 27.942750000000007  L 47.76375 42.4725  Z M 28.45275 61.797000000000004  L 23.308500000000002 56.65274999999999  L 37.707 42.254999999999995  L 42.85125000000001 47.3985  L 28.45275 61.797000000000004  Z M 8 158.58749999999998  L 1 158.58749999999998  L 1 110.71499999999997  L 8 110.71499999999997  L 8 158.58749999999998  Z M 34 158.58749999999998  L 26 158.58749999999998  L 26 110.71499999999997  L 34 110.71499999999997  L 34 158.58749999999998  Z M 14 131.265  L 14 110.71499999999999  L 21 110.71499999999999  L 21 131.265  L 14 131.265  Z M 14 158.5875  L 14 138.22500000000002  L 21 138.22500000000002  L 21 158.5875  L 14 158.5875  Z " fill-rule="nonzero" fill="rgba(255, 255, 255, 1)" stroke="none" transform="matrix(1 0 0 1 15 15 )" class="fill" />
    <path d="M 111.44999999999999 8  L 111.44999999999999 1  L 159.3225 1  L 159.3225 8  L 111.44999999999999 8  Z " stroke-width="0" stroke-dasharray="0" stroke="rgba(255, 255, 255, 0)" fill="none" transform="matrix(1 0 0 1 15 15 )" class="stroke" mask="url(#Clip9701)" />
    <path d="M 111.44999999999999 21  L 111.44999999999999 14  L 159.3225 14  L 159.3225 21  L 111.44999999999999 21  Z " stroke-width="0" stroke-dasharray="0" stroke="rgba(255, 255, 255, 0)" fill="none" transform="matrix(1 0 0 1 15 15 )" class="stroke" mask="url(#Clip9701)" />
    <path d="M 111.44999999999999 34  L 111.44999999999999 26  L 159.3225 26  L 159.3225 34  L 111.44999999999999 34  Z " stroke-width="0" stroke-dasharray="0" stroke="rgba(255, 255, 255, 0)" fill="none" transform="matrix(1 0 0 1 15 15 )" class="stroke" mask="url(#Clip9701)" />
    <path d="M 37.39125 70.72725  L 32.24775 65.58225  L 66.0975 31.7325  L 71.24249999999999 36.87675  L 37.39125 70.72725  Z " stroke-width="0" stroke-dasharray="0" stroke="rgba(255, 255, 255, 0)" fill="none" transform="matrix(1 0 0 1 15 15 )" class="stroke" mask="url(#Clip9701)" />
    <path d="M 46.326750000000004 79.66650000000001  L 41.1825 74.52225  L 75.03375 40.67174999999999  L 80.178 45.815999999999995  L 46.326750000000004 79.66650000000001  Z " stroke-width="0" stroke-dasharray="0" stroke="rgba(255, 255, 255, 0)" fill="none" transform="matrix(1 0 0 1 15 15 )" class="stroke" mask="url(#Clip9701)" />
    <path d="M 47.76375 42.4725  L 42.6195 37.329  L 57.14999999999999 22.79775  L 62.29350000000001 27.942750000000007  L 47.76375 42.4725  Z " stroke-width="0" stroke-dasharray="0" stroke="rgba(255, 255, 255, 0)" fill="none" transform="matrix(1 0 0 1 15 15 )" class="stroke" mask="url(#Clip9701)" />
    <path d="M 28.45275 61.797000000000004  L 23.308500000000002 56.65274999999999  L 37.707 42.254999999999995  L 42.85125000000001 47.3985  L 28.45275 61.797000000000004  Z " stroke-width="0" stroke-dasharray="0" stroke="rgba(255, 255, 255, 0)" fill="none" transform="matrix(1 0 0 1 15 15 )" class="stroke" mask="url(#Clip9701)" />
    <path d="M 8 158.58749999999998  L 1 158.58749999999998  L 1 110.71499999999997  L 8 110.71499999999997  L 8 158.58749999999998  Z " stroke-width="0" stroke-dasharray="0" stroke="rgba(255, 255, 255, 0)" fill="none" transform="matrix(1 0 0 1 15 15 )" class="stroke" mask="url(#Clip9701)" />
    <path d="M 34 158.58749999999998  L 26 158.58749999999998  L 26 110.71499999999997  L 34 110.71499999999997  L 34 158.58749999999998  Z " stroke-width="0" stroke-dasharray="0" stroke="rgba(255, 255, 255, 0)" fill="none" transform="matrix(1 0 0 1 15 15 )" class="stroke" mask="url(#Clip9701)" />
    <path d="M 14 131.265  L 14 110.71499999999999  L 21 110.71499999999999  L 21 131.265  L 14 131.265  Z " stroke-width="0" stroke-dasharray="0" stroke="rgba(255, 255, 255, 0)" fill="none" transform="matrix(1 0 0 1 15 15 )" class="stroke" mask="url(#Clip9701)" />
    <path d="M 14 158.5875  L 14 138.22500000000002  L 21 138.22500000000002  L 21 158.5875  L 14 158.5875  Z " stroke-width="0" stroke-dasharray="0" stroke="rgba(255, 255, 255, 0)" fill="none" transform="matrix(1 0 0 1 15 15 )" class="stroke" mask="url(#Clip9701)" />
  </g>
</svg>