<?xml version="1.0" encoding="utf-8"?>
<svg version="1.1" xmlns:xlink="http://www.w3.org/1999/xlink" width="49px" height="21px" xmlns="http://www.w3.org/2000/svg">
  <defs>
    <pattern id="BGPattern" patternUnits="userSpaceOnUse" alignment="0 0" imageRepeat="None" />
    <mask fill="white" id="Clip7896">
      <path d="M 0.6924999999999955 20.430000000000007  L 0.6924999999999955 13  L 21.242500000000007 13  L 21.242500000000007 20.430000000000007  L 0.6924999999999955 20.430000000000007  Z M 28.210000000000008 20.430000000000007  L 28.210000000000008 13  L 48.57250000000002 13  L 48.57250000000002 20.430000000000007  L 28.210000000000008 20.430000000000007  Z M 0.6924999999999955 8  L 0.6924999999999955 0.5174999999999841  L 21.242500000000007 0.5174999999999841  L 21.242500000000007 8  L 0.6924999999999955 8  Z M 28.210000000000008 8  L 28.210000000000008 0.5174999999999841  L 48.57250000000002 0.5174999999999841  L 48.57250000000002 8  L 28.210000000000008 8  Z " fill-rule="evenodd" />
    </mask>
  </defs>
  <g transform="matrix(1 0 0 1 -125 -264 )">
    <path d="M 0.6924999999999955 20.430000000000007  L 0.6924999999999955 13  L 21.242500000000007 13  L 21.242500000000007 20.430000000000007  L 0.6924999999999955 20.430000000000007  Z M 28.210000000000008 20.430000000000007  L 28.210000000000008 13  L 48.57250000000002 13  L 48.57250000000002 20.430000000000007  L 28.210000000000008 20.430000000000007  Z M 0.6924999999999955 8  L 0.6924999999999955 0.5174999999999841  L 21.242500000000007 0.5174999999999841  L 21.242500000000007 8  L 0.6924999999999955 8  Z M 28.210000000000008 8  L 28.210000000000008 0.5174999999999841  L 48.57250000000002 0.5174999999999841  L 48.57250000000002 8  L 28.210000000000008 8  Z " fill-rule="nonzero" fill="rgba(255, 255, 255, 1)" stroke="none" transform="matrix(1 0 0 1 125 264 )" class="fill" />
    <path d="M 0.6924999999999955 20.430000000000007  L 0.6924999999999955 13  L 21.242500000000007 13  L 21.242500000000007 20.430000000000007  L 0.6924999999999955 20.430000000000007  Z " stroke-width="0" stroke-dasharray="0" stroke="rgba(255, 255, 255, 0)" fill="none" transform="matrix(1 0 0 1 125 264 )" class="stroke" mask="url(#Clip7896)" />
    <path d="M 28.210000000000008 20.430000000000007  L 28.210000000000008 13  L 48.57250000000002 13  L 48.57250000000002 20.430000000000007  L 28.210000000000008 20.430000000000007  Z " stroke-width="0" stroke-dasharray="0" stroke="rgba(255, 255, 255, 0)" fill="none" transform="matrix(1 0 0 1 125 264 )" class="stroke" mask="url(#Clip7896)" />
    <path d="M 0.6924999999999955 8  L 0.6924999999999955 0.5174999999999841  L 21.242500000000007 0.5174999999999841  L 21.242500000000007 8  L 0.6924999999999955 8  Z " stroke-width="0" stroke-dasharray="0" stroke="rgba(255, 255, 255, 0)" fill="none" transform="matrix(1 0 0 1 125 264 )" class="stroke" mask="url(#Clip7896)" />
    <path d="M 28.210000000000008 8  L 28.210000000000008 0.5174999999999841  L 48.57250000000002 0.5174999999999841  L 48.57250000000002 8  L 28.210000000000008 8  Z " stroke-width="0" stroke-dasharray="0" stroke="rgba(255, 255, 255, 0)" fill="none" transform="matrix(1 0 0 1 125 264 )" class="stroke" mask="url(#Clip7896)" />
  </g>
</svg>