<?xml version="1.0" encoding="utf-8"?>
<svg version="1.1" xmlns:xlink="http://www.w3.org/1999/xlink" width="49px" height="49px" xmlns="http://www.w3.org/2000/svg">
  <defs>
    <pattern id="BGPattern" patternUnits="userSpaceOnUse" alignment="0 0" imageRepeat="None" />
    <mask fill="white" id="Clip7898">
      <path d="M 43.561500000000024 9.260750000000002  L 48.704999999999984 14.405000000000001  L 14.854499999999973 48.255499999999984  L 9.710249999999974 43.111249999999984  L 43.561500000000024 9.260750000000002  Z M 25.369499999999988 19.861999999999995  L 20.22524999999999 14.717749999999995  L 34.62375 0.3192500000000109  L 39.768 5.4635000000000105  L 25.369499999999988 19.861999999999995  Z M 5.9182500000000005 39.3185  L 0.7740000000000009 34.17500000000001  L 15.305250000000001 19.643  L 20.4495 24.788000000000014  L 5.9182500000000005 39.3185  Z " fill-rule="evenodd" />
    </mask>
  </defs>
  <g transform="matrix(1 0 0 1 -213 -214 )">
    <path d="M 43.561500000000024 9.260750000000002  L 48.704999999999984 14.405000000000001  L 14.854499999999973 48.255499999999984  L 9.710249999999974 43.111249999999984  L 43.561500000000024 9.260750000000002  Z M 25.369499999999988 19.861999999999995  L 20.22524999999999 14.717749999999995  L 34.62375 0.3192500000000109  L 39.768 5.4635000000000105  L 25.369499999999988 19.861999999999995  Z M 5.9182500000000005 39.3185  L 0.7740000000000009 34.17500000000001  L 15.305250000000001 19.643  L 20.4495 24.788000000000014  L 5.9182500000000005 39.3185  Z " fill-rule="nonzero" fill="rgba(255, 255, 255, 1)" stroke="none" transform="matrix(1 0 0 1 213 214 )" class="fill" />
    <path d="M 43.561500000000024 9.260750000000002  L 48.704999999999984 14.405000000000001  L 14.854499999999973 48.255499999999984  L 9.710249999999974 43.111249999999984  L 43.561500000000024 9.260750000000002  Z " stroke-width="0" stroke-dasharray="0" stroke="rgba(255, 255, 255, 0)" fill="none" transform="matrix(1 0 0 1 213 214 )" class="stroke" mask="url(#Clip7898)" />
    <path d="M 25.369499999999988 19.861999999999995  L 20.22524999999999 14.717749999999995  L 34.62375 0.3192500000000109  L 39.768 5.4635000000000105  L 25.369499999999988 19.861999999999995  Z " stroke-width="0" stroke-dasharray="0" stroke="rgba(255, 255, 255, 0)" fill="none" transform="matrix(1 0 0 1 213 214 )" class="stroke" mask="url(#Clip7898)" />
    <path d="M 5.9182500000000005 39.3185  L 0.7740000000000009 34.17500000000001  L 15.305250000000001 19.643  L 20.4495 24.788000000000014  L 5.9182500000000005 39.3185  Z " stroke-width="0" stroke-dasharray="0" stroke="rgba(255, 255, 255, 0)" fill="none" transform="matrix(1 0 0 1 213 214 )" class="stroke" mask="url(#Clip7898)" />
  </g>
</svg>