<?xml version="1.0" encoding="utf-8"?>
<svg version="1.1" xmlns:xlink="http://www.w3.org/1999/xlink" width="21px" height="49px" xmlns="http://www.w3.org/2000/svg">
  <defs>
    <pattern id="BGPattern" patternUnits="userSpaceOnUse" alignment="0 0" imageRepeat="None" />
    <mask fill="white" id="Clip6225">
      <path d="M 0.5024999999999977 0.46499999999998914  L 8 0.46499999999998914  L 8 48.337500000000006  L 0.5024999999999977 48.337500000000006  L 0.5024999999999977 0.46499999999998914  Z M 13 20.827499999999986  L 13 0.46499999999998914  L 20 0.46499999999998914  L 20 20.827499999999986  L 13 20.827499999999986  Z M 13 48.337500000000006  L 13 27.787499999999994  L 20 27.787499999999994  L 20 48.337500000000006  L 13 48.337500000000006  Z " fill-rule="evenodd" />
    </mask>
  </defs>
  <g transform="matrix(1 0 0 1 -264 -126 )">
    <path d="M 0.5024999999999977 0.46499999999998914  L 8 0.46499999999998914  L 8 48.337500000000006  L 0.5024999999999977 48.337500000000006  L 0.5024999999999977 0.46499999999998914  Z M 13 20.827499999999986  L 13 0.46499999999998914  L 20 0.46499999999998914  L 20 20.827499999999986  L 13 20.827499999999986  Z M 13 48.337500000000006  L 13 27.787499999999994  L 20 27.787499999999994  L 20 48.337500000000006  L 13 48.337500000000006  Z " fill-rule="nonzero" fill="rgba(255, 255, 255, 1)" stroke="none" transform="matrix(1 0 0 1 264 126 )" class="fill" />
    <path d="M 0.5024999999999977 0.46499999999998914  L 8 0.46499999999998914  L 8 48.337500000000006  L 0.5024999999999977 48.337500000000006  L 0.5024999999999977 0.46499999999998914  Z " stroke-width="0" stroke-dasharray="0" stroke="rgba(255, 255, 255, 0)" fill="none" transform="matrix(1 0 0 1 264 126 )" class="stroke" mask="url(#Clip6225)" />
    <path d="M 13 20.827499999999986  L 13 0.46499999999998914  L 20 0.46499999999998914  L 20 20.827499999999986  L 13 20.827499999999986  Z " stroke-width="0" stroke-dasharray="0" stroke="rgba(255, 255, 255, 0)" fill="none" transform="matrix(1 0 0 1 264 126 )" class="stroke" mask="url(#Clip6225)" />
    <path d="M 13 48.337500000000006  L 13 27.787499999999994  L 20 27.787499999999994  L 20 48.337500000000006  L 13 48.337500000000006  Z " stroke-width="0" stroke-dasharray="0" stroke="rgba(255, 255, 255, 0)" fill="none" transform="matrix(1 0 0 1 264 126 )" class="stroke" mask="url(#Clip6225)" />
  </g>
</svg>