<?xml version="1.0" encoding="utf-8"?>
<svg version="1.1" xmlns:xlink="http://www.w3.org/1999/xlink" width="58px" height="58px" xmlns="http://www.w3.org/2000/svg">
  <defs>
    <pattern id="BGPattern" patternUnits="userSpaceOnUse" alignment="0 0" imageRepeat="None" />
    <mask fill="white" id="Clip6227">
      <path d="M 18.240499999999997 5.476750000000003  L 23.384749999999997 0.3325000000000031  L 57.23525000000001 34.18299999999999  L 52.09174999999999 39.328  L 18.240499999999997 5.476750000000003  Z M 9.302750000000003 14.40925  L 14.446249999999992 9.265  L 48.297499999999985 43.1155  L 43.153250000000014 48.26049999999999  L 9.302750000000003 14.40925  Z M 14.767249999999988 37.747  L 0.36949999999998795 23.3485  L 5.5137499999999875 18.203500000000005  L 19.91225 32.60275  L 14.767249999999988 37.747  Z M 34.21700000000001 57.198250000000016  L 19.685750000000013 42.667  L 24.830749999999995 37.522000000000006  L 39.36125000000001 52.053250000000006  L 34.21700000000001 57.198250000000016  Z " fill-rule="evenodd" />
    </mask>
  </defs>
  <g transform="matrix(1 0 0 1 -205 -38 )">
    <path d="M 18.240499999999997 5.476750000000003  L 23.384749999999997 0.3325000000000031  L 57.23525000000001 34.18299999999999  L 52.09174999999999 39.328  L 18.240499999999997 5.476750000000003  Z M 9.302750000000003 14.40925  L 14.446249999999992 9.265  L 48.297499999999985 43.1155  L 43.153250000000014 48.26049999999999  L 9.302750000000003 14.40925  Z M 14.767249999999988 37.747  L 0.36949999999998795 23.3485  L 5.5137499999999875 18.203500000000005  L 19.91225 32.60275  L 14.767249999999988 37.747  Z M 34.21700000000001 57.198250000000016  L 19.685750000000013 42.667  L 24.830749999999995 37.522000000000006  L 39.36125000000001 52.053250000000006  L 34.21700000000001 57.198250000000016  Z " fill-rule="nonzero" fill="rgba(255, 255, 255, 1)" stroke="none" transform="matrix(1 0 0 1 205 38 )" class="fill" />
    <path d="M 18.240499999999997 5.476750000000003  L 23.384749999999997 0.3325000000000031  L 57.23525000000001 34.18299999999999  L 52.09174999999999 39.328  L 18.240499999999997 5.476750000000003  Z " stroke-width="0" stroke-dasharray="0" stroke="rgba(255, 255, 255, 0)" fill="none" transform="matrix(1 0 0 1 205 38 )" class="stroke" mask="url(#Clip6227)" />
    <path d="M 9.302750000000003 14.40925  L 14.446249999999992 9.265  L 48.297499999999985 43.1155  L 43.153250000000014 48.26049999999999  L 9.302750000000003 14.40925  Z " stroke-width="0" stroke-dasharray="0" stroke="rgba(255, 255, 255, 0)" fill="none" transform="matrix(1 0 0 1 205 38 )" class="stroke" mask="url(#Clip6227)" />
    <path d="M 14.767249999999988 37.747  L 0.36949999999998795 23.3485  L 5.5137499999999875 18.203500000000005  L 19.91225 32.60275  L 14.767249999999988 37.747  Z " stroke-width="0" stroke-dasharray="0" stroke="rgba(255, 255, 255, 0)" fill="none" transform="matrix(1 0 0 1 205 38 )" class="stroke" mask="url(#Clip6227)" />
    <path d="M 34.21700000000001 57.198250000000016  L 19.685750000000013 42.667  L 24.830749999999995 37.522000000000006  L 39.36125000000001 52.053250000000006  L 34.21700000000001 57.198250000000016  Z " stroke-width="0" stroke-dasharray="0" stroke="rgba(255, 255, 255, 0)" fill="none" transform="matrix(1 0 0 1 205 38 )" class="stroke" mask="url(#Clip6227)" />
  </g>
</svg>