<?xml version="1.0" encoding="utf-8"?>
<svg version="1.1" xmlns:xlink="http://www.w3.org/1999/xlink" width="42px" height="42px" xmlns="http://www.w3.org/2000/svg">
  <defs>
    <pattern id="BGPattern" patternUnits="userSpaceOnUse" alignment="0 0" imageRepeat="None" />
    <mask fill="white" id="Clip8669">
      <path d="M 41.1675 21.029999999999998  C 41.1551000478134 32.171346692949996  32.126346692949994 41.200100047813386  20.984999999999996 41.21249999999999  C 9.838513036540009 41.21249999999999  0.802499999999998 32.17648696345998  0.802499999999998 21.029999999999987  C 0.802499999999998 9.883513036540002  9.838513036540009 0.8474999999999921  20.984999999999996 0.8474999999999921  C 32.13148696345999 0.8474999999999921  41.1675 9.883513036540002  41.1675 21.029999999999987  Z M 38.667500000000004 21.03  C 38.6564781618864 11.268793951082078  30.746206048917927 3.3585218381136013  20.985 3.3474999999999997  C 11.219224911116992 3.3474999999999997  3.302499999999998 11.264224911116994  3.302499999999998 21.03  C 3.302499999999998 30.795775088883005  11.219224911116992 38.712500000000006  20.985 38.712500000000006  C 30.750775088883003 38.712500000000006  38.667500000000004 30.795775088883005  38.667500000000004 21.03  Z " fill-rule="evenodd" />
    </mask>
  </defs>
  <g transform="matrix(1 0 0 1 -157 -4055 )">
    <path d="M 41.1675 21.029999999999998  C 41.1551000478134 32.171346692949996  32.126346692949994 41.200100047813386  20.984999999999996 41.21249999999999  C 9.838513036540009 41.21249999999999  0.802499999999998 32.17648696345998  0.802499999999998 21.029999999999987  C 0.802499999999998 9.883513036540002  9.838513036540009 0.8474999999999921  20.984999999999996 0.8474999999999921  C 32.13148696345999 0.8474999999999921  41.1675 9.883513036540002  41.1675 21.029999999999987  Z M 38.667500000000004 21.03  C 38.6564781618864 11.268793951082078  30.746206048917927 3.3585218381136013  20.985 3.3474999999999997  C 11.219224911116992 3.3474999999999997  3.302499999999998 11.264224911116994  3.302499999999998 21.03  C 3.302499999999998 30.795775088883005  11.219224911116992 38.712500000000006  20.985 38.712500000000006  C 30.750775088883003 38.712500000000006  38.667500000000004 30.795775088883005  38.667500000000004 21.03  Z " fill-rule="nonzero" fill="rgba(51, 51, 51, 1)" stroke="none" transform="matrix(1 0 0 1 157 4055 )" class="fill" />
    <path d="M 41.1675 21.029999999999998  C 41.1551000478134 32.171346692949996  32.126346692949994 41.200100047813386  20.984999999999996 41.21249999999999  C 9.838513036540009 41.21249999999999  0.802499999999998 32.17648696345998  0.802499999999998 21.029999999999987  C 0.802499999999998 9.883513036540002  9.838513036540009 0.8474999999999921  20.984999999999996 0.8474999999999921  C 32.13148696345999 0.8474999999999921  41.1675 9.883513036540002  41.1675 21.029999999999987  Z " stroke-width="0" stroke-dasharray="0" stroke="rgba(255, 255, 255, 0)" fill="none" transform="matrix(1 0 0 1 157 4055 )" class="stroke" mask="url(#Clip8669)" />
    <path d="M 38.667500000000004 21.03  C 38.6564781618864 11.268793951082078  30.746206048917927 3.3585218381136013  20.985 3.3474999999999997  C 11.219224911116992 3.3474999999999997  3.302499999999998 11.264224911116994  3.302499999999998 21.03  C 3.302499999999998 30.795775088883005  11.219224911116992 38.712500000000006  20.985 38.712500000000006  C 30.750775088883003 38.712500000000006  38.667500000000004 30.795775088883005  38.667500000000004 21.03  Z " stroke-width="0" stroke-dasharray="0" stroke="rgba(255, 255, 255, 0)" fill="none" transform="matrix(1 0 0 1 157 4055 )" class="stroke" mask="url(#Clip8669)" />
  </g>
</svg>