<?xml version="1.0" encoding="utf-8"?>
<svg version="1.1" xmlns:xlink="http://www.w3.org/1999/xlink" width="41px" height="40px" xmlns="http://www.w3.org/2000/svg">
  <defs>
    <pattern id="BGPattern" patternUnits="userSpaceOnUse" alignment="0 0" imageRepeat="None" />
    <mask fill="white" id="Clip20410">
      <path d="M 0.7000000000000011 19.855  C 0.7000000000000011 30.795760894148017  9.569239105851981 39.665000000000006  20.51 39.665000000000006  C 31.45076089414802 39.665000000000006  40.32 30.795760894148017  40.32 19.855  C 40.32 8.914239105851982  31.45076089414802 0.04499999999999993  20.51 0.04499999999999993  C 9.569239105851981 0.04499999999999993  0.7000000000000011 8.914239105851982  0.7000000000000011 19.855  Z " fill-rule="evenodd" />
    </mask>
  </defs>
  <g transform="matrix(1 0 0 1 -922 -4060 )">
    <path d="M 0.7000000000000011 19.855  C 0.7000000000000011 30.795760894148017  9.569239105851981 39.665000000000006  20.51 39.665000000000006  C 31.45076089414802 39.665000000000006  40.32 30.795760894148017  40.32 19.855  C 40.32 8.914239105851982  31.45076089414802 0.04499999999999993  20.51 0.04499999999999993  C 9.569239105851981 0.04499999999999993  0.7000000000000011 8.914239105851982  0.7000000000000011 19.855  Z " fill-rule="nonzero" fill="rgba(255, 243, 174, 1)" stroke="none" transform="matrix(1 0 0 1 922 4060 )" class="fill" />
    <path d="M 0.7000000000000011 19.855  C 0.7000000000000011 30.795760894148017  9.569239105851981 39.665000000000006  20.51 39.665000000000006  C 31.45076089414802 39.665000000000006  40.32 30.795760894148017  40.32 19.855  C 40.32 8.914239105851982  31.45076089414802 0.04499999999999993  20.51 0.04499999999999993  C 9.569239105851981 0.04499999999999993  0.7000000000000011 8.914239105851982  0.7000000000000011 19.855  Z " stroke-width="0" stroke-dasharray="0" stroke="rgba(255, 255, 255, 0)" fill="none" transform="matrix(1 0 0 1 922 4060 )" class="stroke" mask="url(#Clip20410)" />
  </g>
</svg>