<?xml version="1.0" encoding="utf-8"?>
<svg version="1.1" xmlns:xlink="http://www.w3.org/1999/xlink" width="11px" height="7px" xmlns="http://www.w3.org/2000/svg">
  <defs>
    <pattern id="BGPattern" patternUnits="userSpaceOnUse" alignment="0 0" imageRepeat="None" />
    <mask fill="white" id="Clip301">
      <path d="M 1.609999999999996 6.917499999999997  L 1.5500000000000007 6.922499999999999  C 1.538754001895839 6.922879552436015  1.5275024012286487 6.9230693691593785  1.5162499999999994 6.9230693691593785  C 0.9636507962654584 6.9230693691593785  0.5156806308406203 6.475099203734544  0.5156806308406203 5.922499999999999  C 0.5156806308406203 5.3830379074152575  0.9433448857094575 4.940696485107306  1.4825000000000017 4.922499999999999  C 5.7575 4.632499999999997  7.27 3.479999999999997  7.789999999999999 2.8199999999999967  C 8.02829936808254 2.550105373666625  8.16760921919279 2.207120993401496  8.184999999999999 1.8474999999999966  C 8.174833092556835 1.7900096011734876  8.169720343333193 1.7317392877370636  8.169720343333193 1.6733568249234025  C 8.169720343333193 1.1210720750926058  8.6174355935024 0.6733568249234025  9.169720343333193 0.6733568249234025  C 9.66183446057855 0.6733568249234025  10.080800656186153 1.0313996862264894  10.157499999999999 1.5174999999999947  C 10.177499999999998 1.6449999999999996  10.34 2.8174999999999955  9.36 4.059999999999992  C 8.07 5.694999999999993  5.465 6.654999999999987  1.609999999999996 6.917499999999997  Z " fill-rule="evenodd" />
    </mask>
  </defs>
  <g transform="matrix(1 0 0 1 -930 -4080 )">
    <path d="M 1.609999999999996 6.917499999999997  L 1.5500000000000007 6.922499999999999  C 1.538754001895839 6.922879552436015  1.5275024012286487 6.9230693691593785  1.5162499999999994 6.9230693691593785  C 0.9636507962654584 6.9230693691593785  0.5156806308406203 6.475099203734544  0.5156806308406203 5.922499999999999  C 0.5156806308406203 5.3830379074152575  0.9433448857094575 4.940696485107306  1.4825000000000017 4.922499999999999  C 5.7575 4.632499999999997  7.27 3.479999999999997  7.789999999999999 2.8199999999999967  C 8.02829936808254 2.550105373666625  8.16760921919279 2.207120993401496  8.184999999999999 1.8474999999999966  C 8.174833092556835 1.7900096011734876  8.169720343333193 1.7317392877370636  8.169720343333193 1.6733568249234025  C 8.169720343333193 1.1210720750926058  8.6174355935024 0.6733568249234025  9.169720343333193 0.6733568249234025  C 9.66183446057855 0.6733568249234025  10.080800656186153 1.0313996862264894  10.157499999999999 1.5174999999999947  C 10.177499999999998 1.6449999999999996  10.34 2.8174999999999955  9.36 4.059999999999992  C 8.07 5.694999999999993  5.465 6.654999999999987  1.609999999999996 6.917499999999997  Z " fill-rule="nonzero" fill="rgba(51, 51, 51, 1)" stroke="none" transform="matrix(1 0 0 1 930 4080 )" class="fill" />
    <path d="M 1.609999999999996 6.917499999999997  L 1.5500000000000007 6.922499999999999  C 1.538754001895839 6.922879552436015  1.5275024012286487 6.9230693691593785  1.5162499999999994 6.9230693691593785  C 0.9636507962654584 6.9230693691593785  0.5156806308406203 6.475099203734544  0.5156806308406203 5.922499999999999  C 0.5156806308406203 5.3830379074152575  0.9433448857094575 4.940696485107306  1.4825000000000017 4.922499999999999  C 5.7575 4.632499999999997  7.27 3.479999999999997  7.789999999999999 2.8199999999999967  C 8.02829936808254 2.550105373666625  8.16760921919279 2.207120993401496  8.184999999999999 1.8474999999999966  C 8.174833092556835 1.7900096011734876  8.169720343333193 1.7317392877370636  8.169720343333193 1.6733568249234025  C 8.169720343333193 1.1210720750926058  8.6174355935024 0.6733568249234025  9.169720343333193 0.6733568249234025  C 9.66183446057855 0.6733568249234025  10.080800656186153 1.0313996862264894  10.157499999999999 1.5174999999999947  C 10.177499999999998 1.6449999999999996  10.34 2.8174999999999955  9.36 4.059999999999992  C 8.07 5.694999999999993  5.465 6.654999999999987  1.609999999999996 6.917499999999997  Z " stroke-width="0" stroke-dasharray="0" stroke="rgba(255, 255, 255, 0)" fill="none" transform="matrix(1 0 0 1 930 4080 )" class="stroke" mask="url(#Clip301)" />
  </g>
</svg>