<?xml version="1.0" encoding="utf-8"?>
<svg version="1.1" xmlns:xlink="http://www.w3.org/1999/xlink" width="43px" height="43px" xmlns="http://www.w3.org/2000/svg">
  <defs>
    <pattern id="BGPattern" patternUnits="userSpaceOnUse" alignment="0 0" imageRepeat="None" />
    <mask fill="white" id="Clip13998">
      <path d="M 42.15 21.409999999999997  C 42.13622417566638 33.03540591697214  32.71540591697214 42.456224175666385  21.089999999999996 42.47  C 9.458883168563494 42.47  0.03000000000000469 33.04111683143651  0.03000000000000469 21.41  C 0.03000000000000469 9.77888316856349  9.458883168563494 0.3500000000000023  21.090000000000003 0.3500000000000023  C 32.72111683143651 0.3500000000000023  42.15 9.77888316856349  42.15 21.41  Z M 39.650000000000006 21.41  C 39.638977036564214 11.164164377523038  31.335835622476964 2.861022963435788  21.089999999999996 2.8499999999999996  C 10.839595043140479 2.849999999999998  2.5300000000000047 11.159595043140472  2.5300000000000047 21.409999999999997  C 2.5300000000000047 31.660404956859523  10.839595043140479 39.96999999999999  21.090000000000003 39.96999999999999  C 31.340404956859533 39.96999999999999  39.65 31.660404956859523  39.65 21.409999999999997  Z " fill-rule="evenodd" />
    </mask>
  </defs>
  <g transform="matrix(1 0 0 1 -918 -4056 )">
    <path d="M 42.15 21.409999999999997  C 42.13622417566638 33.03540591697214  32.71540591697214 42.456224175666385  21.089999999999996 42.47  C 9.458883168563494 42.47  0.03000000000000469 33.04111683143651  0.03000000000000469 21.41  C 0.03000000000000469 9.77888316856349  9.458883168563494 0.3500000000000023  21.090000000000003 0.3500000000000023  C 32.72111683143651 0.3500000000000023  42.15 9.77888316856349  42.15 21.41  Z M 39.650000000000006 21.41  C 39.638977036564214 11.164164377523038  31.335835622476964 2.861022963435788  21.089999999999996 2.8499999999999996  C 10.839595043140479 2.849999999999998  2.5300000000000047 11.159595043140472  2.5300000000000047 21.409999999999997  C 2.5300000000000047 31.660404956859523  10.839595043140479 39.96999999999999  21.090000000000003 39.96999999999999  C 31.340404956859533 39.96999999999999  39.65 31.660404956859523  39.65 21.409999999999997  Z " fill-rule="nonzero" fill="rgba(51, 51, 51, 1)" stroke="none" transform="matrix(1 0 0 1 918 4056 )" class="fill" />
    <path d="M 42.15 21.409999999999997  C 42.13622417566638 33.03540591697214  32.71540591697214 42.456224175666385  21.089999999999996 42.47  C 9.458883168563494 42.47  0.03000000000000469 33.04111683143651  0.03000000000000469 21.41  C 0.03000000000000469 9.77888316856349  9.458883168563494 0.3500000000000023  21.090000000000003 0.3500000000000023  C 32.72111683143651 0.3500000000000023  42.15 9.77888316856349  42.15 21.41  Z " stroke-width="0" stroke-dasharray="0" stroke="rgba(255, 255, 255, 0)" fill="none" transform="matrix(1 0 0 1 918 4056 )" class="stroke" mask="url(#Clip13998)" />
    <path d="M 39.650000000000006 21.41  C 39.638977036564214 11.164164377523038  31.335835622476964 2.861022963435788  21.089999999999996 2.8499999999999996  C 10.839595043140479 2.849999999999998  2.5300000000000047 11.159595043140472  2.5300000000000047 21.409999999999997  C 2.5300000000000047 31.660404956859523  10.839595043140479 39.96999999999999  21.090000000000003 39.96999999999999  C 31.340404956859533 39.96999999999999  39.65 31.660404956859523  39.65 21.409999999999997  Z " stroke-width="0" stroke-dasharray="0" stroke="rgba(255, 255, 255, 0)" fill="none" transform="matrix(1 0 0 1 918 4056 )" class="stroke" mask="url(#Clip13998)" />
  </g>
</svg>