<?xml version="1.0" encoding="utf-8"?>
<svg version="1.1" xmlns:xlink="http://www.w3.org/1999/xlink" width="110px" height="55px" xmlns="http://www.w3.org/2000/svg">
  <defs>
    <pattern id="BGPattern" patternUnits="userSpaceOnUse" alignment="0 0" imageRepeat="None" />
    <mask fill="white" id="Clip169">
      <path d="M 0 22.5  C 0 9.899999999999999  21.999999999999996 0  50 0  C 78 0  100 9.899999999999999  100 22.5  C 100 35.1  78 45  50 45  C 21.999999999999996 45  0 35.1  0 22.5  Z " fill-rule="evenodd" />
    </mask>
  </defs>
  <g transform="matrix(1 0 0 1 -26 -204 )">
    <path d="M 0 22.5  C 0 9.899999999999999  21.999999999999996 0  50 0  C 78 0  100 9.899999999999999  100 22.5  C 100 35.1  78 45  50 45  C 21.999999999999996 45  0 35.1  0 22.5  Z " fill-rule="nonzero" fill="rgba(0, 0, 0, 0)" stroke="none" transform="matrix(1 0 0 1 30 208 )" class="fill" />
    <path d="M 0 22.5  C 0 9.899999999999999  21.999999999999996 0  50 0  C 78 0  100 9.899999999999999  100 22.5  C 100 35.1  78 45  50 45  C 21.999999999999996 45  0 35.1  0 22.5  Z " stroke-width="6" stroke-dasharray="0" stroke="rgba(255, 255, 255, 0)" fill="none" transform="matrix(1 0 0 1 30 208 )" class="stroke" mask="url(#Clip169)" />
  </g>
  <style>svg { filter: drop-shadow(1px 1px 2.5px rgba(0, 0, 0, 0.34901960784313724)); }</style>
</svg>