<?xml version="1.0" encoding="utf-8"?>
<svg version="1.1" xmlns:xlink="http://www.w3.org/1999/xlink" width="24px" height="24px" xmlns="http://www.w3.org/2000/svg">
  <defs>
    <pattern id="BGPattern" patternUnits="userSpaceOnUse" alignment="0 0" imageRepeat="None" />
    <mask fill="white" id="Clip10357">
      <path d="M 7.652499999999996 23  C 7.255574104164314 23.20610595049056  6.814746209154457 23.31331117787623  6.3675 23.3125  C 4.844754731887829 23.30641955277209  3.613540784630324 22.070279451220145  3.613540784630324 20.547522043293156  C 3.613540784630324 20.39252859203358  3.6265730966460623 20.237809573050352  3.652499999999998 20.085  L 4.452499999999999 15.422500000000003  C 4.468448937488292 15.33928048381657  4.441159033252475 15.253646646386926  4.379999999999999 15.195  L 1 11.895  C 0.4627778394909541 11.376727755896631  0.159324411150223 10.662331277700265  0.159324411150223 9.915863750777664  C 0.159324411150223 8.544607339144413  1.1695254529223824 7.382892426148302  2.5275 7.192499999999999  L 7.199999999999999 6.512499999999999  C 7.284618710124342 6.502133809300801  7.358122017419223 6.449362204063448  7.395 6.372499999999999  L 9.4875 2.1224999999999987  C 9.94805712721067 1.17659158361238  10.907927949417218 0.5763454012039873  11.96 0.5763454012039873  C 13.012072050582791 0.5763454012039873  13.971942872789331 1.1765915836123817  14.432500000000001 2.1224999999999987  L 16.525 6.372499999999999  C 16.561408675324863 6.44867904856676  16.633809151128286 6.501333940060164  16.7175 6.512499999999999  L 21.4 7.192499999999999  C 22.757974547077616 7.382892426148302  23.76817558884978 8.544607339144413  23.76817558884978 9.915863750777664  C 23.76817558884978 10.662331277700268  23.46472216050904 11.376727755896631  22.927500000000002 11.895  L 19.539999999999996 15.194999999999997  C 19.480196416050127 15.254561980302089  19.45234322615351 15.339049989655155  19.465000000000003 15.422500000000003  L 20.265000000000004 20.085  C 20.29309109956861 20.243462181879277  20.307217978050712 20.404084388433162  20.307217978050712 20.565017209700034  C 20.307217978050712 22.083800271734717  19.076001040085394 23.31501720970003  17.55721797805071 23.31501720970003  C 17.106559043384383 23.31501720970003  16.6628061120718 23.204263482670918  16.265000000000008 22.992500000000007  L 12.080000000000005 20.790000000000006  C 12.00264973081038 20.745341801261485  11.907350269189632 20.745341801261485  11.830000000000005 20.790000000000006  L 7.652499999999996 23  Z M 10.687499999999996 18.577499999999997  C 11.079189023823876 18.36767001018849  11.515679743034163 18.255331534321005  11.96 18.25  C 12.410329042383516 18.25189639898716  12.853301528192048 18.364356468058705  13.25 18.5775  L 17.4375 20.78  C 17.47654937562548 20.803641077943638  17.521326278520252 20.81613936696835  17.566974436238585 20.81613936696835  C 17.70504562369628 20.81613936696835  17.816974436238578 20.704210554426044  17.816974436238578 20.56613936696835  C 17.816974436238578 20.54638601668468  17.81463329582455 20.52670227635547  17.809999999999995 20.507500000000004  L 17.000000000000004 15.845000000000002  C 16.84536219493709 14.950724299028455  17.1418959454045 14.037737105160364  17.792500000000004 13.405000000000001  L 21.18 10.102500000000003  C 21.234464344544364 10.055022343649604  21.265724220821582 9.986302802175285  21.265724220821582 9.914049825218115  C 21.265724220821582 9.784418513259741  21.16663862234411 9.67629129129526  21.0375 9.665000000000003  L 16.355 8.985000000000003  C 15.458558096026792 8.857121290427866  14.682523536038364 8.29613245188201  14.280000000000001 7.485000000000003  L 12.187500000000007 3.235000000000001  C 12.145382301716953 3.146532685621086  12.055467129663814 3.0908243725012046  11.957500000000003 3.0924999999999994  C 11.858436048861385 3.0866736903064815  11.766389453523633 3.1437025591570507  11.727500000000003 3.235000000000001  L 9.632500000000004 7.484999999999999  C 9.229976463961645 8.29613245188201  8.453941903973213 8.857121290427866  7.5575000000000045 8.985000000000003  L 2.877500000000003 9.665000000000003  C 2.780879162629981 9.678347845337807  2.700843915333877 9.746670617419849  2.6725000000000048 9.840000000000003  C 2.642317369344486 9.928837044051157  2.6678694757120613 10.027114376234149  2.737500000000006 10.090000000000003  L 6.125 13.404999999999998  C 6.775604054595508 14.037737105160357  7.0721378050629085 14.950724299028451  6.9175 15.844999999999995  L 6.1175 20.5  C 6.109693939634276 20.524521308855796  6.105720704111743 20.550100849454672  6.105720704111743 20.57583466313307  C 6.105720704111743 20.713905850590766  6.2176495166540455 20.82583466313307  6.355720704111743 20.82583466313307  C 6.407394971336391 20.82583466313307  6.457799623298911 20.80982210756286  6.5 20.78  L 10.687499999999996 18.577499999999997  Z " fill-rule="evenodd" />
    </mask>
  </defs>
  <g transform="matrix(1 0 0 1 -166 -4064 )">
    <path d="M 7.652499999999996 23  C 7.255574104164314 23.20610595049056  6.814746209154457 23.31331117787623  6.3675 23.3125  C 4.844754731887829 23.30641955277209  3.613540784630324 22.070279451220145  3.613540784630324 20.547522043293156  C 3.613540784630324 20.39252859203358  3.6265730966460623 20.237809573050352  3.652499999999998 20.085  L 4.452499999999999 15.422500000000003  C 4.468448937488292 15.33928048381657  4.441159033252475 15.253646646386926  4.379999999999999 15.195  L 1 11.895  C 0.4627778394909541 11.376727755896631  0.159324411150223 10.662331277700265  0.159324411150223 9.915863750777664  C 0.159324411150223 8.544607339144413  1.1695254529223824 7.382892426148302  2.5275 7.192499999999999  L 7.199999999999999 6.512499999999999  C 7.284618710124342 6.502133809300801  7.358122017419223 6.449362204063448  7.395 6.372499999999999  L 9.4875 2.1224999999999987  C 9.94805712721067 1.17659158361238  10.907927949417218 0.5763454012039873  11.96 0.5763454012039873  C 13.012072050582791 0.5763454012039873  13.971942872789331 1.1765915836123817  14.432500000000001 2.1224999999999987  L 16.525 6.372499999999999  C 16.561408675324863 6.44867904856676  16.633809151128286 6.501333940060164  16.7175 6.512499999999999  L 21.4 7.192499999999999  C 22.757974547077616 7.382892426148302  23.76817558884978 8.544607339144413  23.76817558884978 9.915863750777664  C 23.76817558884978 10.662331277700268  23.46472216050904 11.376727755896631  22.927500000000002 11.895  L 19.539999999999996 15.194999999999997  C 19.480196416050127 15.254561980302089  19.45234322615351 15.339049989655155  19.465000000000003 15.422500000000003  L 20.265000000000004 20.085  C 20.29309109956861 20.243462181879277  20.307217978050712 20.404084388433162  20.307217978050712 20.565017209700034  C 20.307217978050712 22.083800271734717  19.076001040085394 23.31501720970003  17.55721797805071 23.31501720970003  C 17.106559043384383 23.31501720970003  16.6628061120718 23.204263482670918  16.265000000000008 22.992500000000007  L 12.080000000000005 20.790000000000006  C 12.00264973081038 20.745341801261485  11.907350269189632 20.745341801261485  11.830000000000005 20.790000000000006  L 7.652499999999996 23  Z M 10.687499999999996 18.577499999999997  C 11.079189023823876 18.36767001018849  11.515679743034163 18.255331534321005  11.96 18.25  C 12.410329042383516 18.25189639898716  12.853301528192048 18.364356468058705  13.25 18.5775  L 17.4375 20.78  C 17.47654937562548 20.803641077943638  17.521326278520252 20.81613936696835  17.566974436238585 20.81613936696835  C 17.70504562369628 20.81613936696835  17.816974436238578 20.704210554426044  17.816974436238578 20.56613936696835  C 17.816974436238578 20.54638601668468  17.81463329582455 20.52670227635547  17.809999999999995 20.507500000000004  L 17.000000000000004 15.845000000000002  C 16.84536219493709 14.950724299028455  17.1418959454045 14.037737105160364  17.792500000000004 13.405000000000001  L 21.18 10.102500000000003  C 21.234464344544364 10.055022343649604  21.265724220821582 9.986302802175285  21.265724220821582 9.914049825218115  C 21.265724220821582 9.784418513259741  21.16663862234411 9.67629129129526  21.0375 9.665000000000003  L 16.355 8.985000000000003  C 15.458558096026792 8.857121290427866  14.682523536038364 8.29613245188201  14.280000000000001 7.485000000000003  L 12.187500000000007 3.235000000000001  C 12.145382301716953 3.146532685621086  12.055467129663814 3.0908243725012046  11.957500000000003 3.0924999999999994  C 11.858436048861385 3.0866736903064815  11.766389453523633 3.1437025591570507  11.727500000000003 3.235000000000001  L 9.632500000000004 7.484999999999999  C 9.229976463961645 8.29613245188201  8.453941903973213 8.857121290427866  7.5575000000000045 8.985000000000003  L 2.877500000000003 9.665000000000003  C 2.780879162629981 9.678347845337807  2.700843915333877 9.746670617419849  2.6725000000000048 9.840000000000003  C 2.642317369344486 9.928837044051157  2.6678694757120613 10.027114376234149  2.737500000000006 10.090000000000003  L 6.125 13.404999999999998  C 6.775604054595508 14.037737105160357  7.0721378050629085 14.950724299028451  6.9175 15.844999999999995  L 6.1175 20.5  C 6.109693939634276 20.524521308855796  6.105720704111743 20.550100849454672  6.105720704111743 20.57583466313307  C 6.105720704111743 20.713905850590766  6.2176495166540455 20.82583466313307  6.355720704111743 20.82583466313307  C 6.407394971336391 20.82583466313307  6.457799623298911 20.80982210756286  6.5 20.78  L 10.687499999999996 18.577499999999997  Z " fill-rule="nonzero" fill="rgba(51, 51, 51, 1)" stroke="none" transform="matrix(1 0 0 1 166 4064 )" class="fill" />
    <path d="M 7.652499999999996 23  C 7.255574104164314 23.20610595049056  6.814746209154457 23.31331117787623  6.3675 23.3125  C 4.844754731887829 23.30641955277209  3.613540784630324 22.070279451220145  3.613540784630324 20.547522043293156  C 3.613540784630324 20.39252859203358  3.6265730966460623 20.237809573050352  3.652499999999998 20.085  L 4.452499999999999 15.422500000000003  C 4.468448937488292 15.33928048381657  4.441159033252475 15.253646646386926  4.379999999999999 15.195  L 1 11.895  C 0.4627778394909541 11.376727755896631  0.159324411150223 10.662331277700265  0.159324411150223 9.915863750777664  C 0.159324411150223 8.544607339144413  1.1695254529223824 7.382892426148302  2.5275 7.192499999999999  L 7.199999999999999 6.512499999999999  C 7.284618710124342 6.502133809300801  7.358122017419223 6.449362204063448  7.395 6.372499999999999  L 9.4875 2.1224999999999987  C 9.94805712721067 1.17659158361238  10.907927949417218 0.5763454012039873  11.96 0.5763454012039873  C 13.012072050582791 0.5763454012039873  13.971942872789331 1.1765915836123817  14.432500000000001 2.1224999999999987  L 16.525 6.372499999999999  C 16.561408675324863 6.44867904856676  16.633809151128286 6.501333940060164  16.7175 6.512499999999999  L 21.4 7.192499999999999  C 22.757974547077616 7.382892426148302  23.76817558884978 8.544607339144413  23.76817558884978 9.915863750777664  C 23.76817558884978 10.662331277700268  23.46472216050904 11.376727755896631  22.927500000000002 11.895  L 19.539999999999996 15.194999999999997  C 19.480196416050127 15.254561980302089  19.45234322615351 15.339049989655155  19.465000000000003 15.422500000000003  L 20.265000000000004 20.085  C 20.29309109956861 20.243462181879277  20.307217978050712 20.404084388433162  20.307217978050712 20.565017209700034  C 20.307217978050712 22.083800271734717  19.076001040085394 23.31501720970003  17.55721797805071 23.31501720970003  C 17.106559043384383 23.31501720970003  16.6628061120718 23.204263482670918  16.265000000000008 22.992500000000007  L 12.080000000000005 20.790000000000006  C 12.00264973081038 20.745341801261485  11.907350269189632 20.745341801261485  11.830000000000005 20.790000000000006  L 7.652499999999996 23  Z " stroke-width="0" stroke-dasharray="0" stroke="rgba(255, 255, 255, 0)" fill="none" transform="matrix(1 0 0 1 166 4064 )" class="stroke" mask="url(#Clip10357)" />
    <path d="M 10.687499999999996 18.577499999999997  C 11.079189023823876 18.36767001018849  11.515679743034163 18.255331534321005  11.96 18.25  C 12.410329042383516 18.25189639898716  12.853301528192048 18.364356468058705  13.25 18.5775  L 17.4375 20.78  C 17.47654937562548 20.803641077943638  17.521326278520252 20.81613936696835  17.566974436238585 20.81613936696835  C 17.70504562369628 20.81613936696835  17.816974436238578 20.704210554426044  17.816974436238578 20.56613936696835  C 17.816974436238578 20.54638601668468  17.81463329582455 20.52670227635547  17.809999999999995 20.507500000000004  L 17.000000000000004 15.845000000000002  C 16.84536219493709 14.950724299028455  17.1418959454045 14.037737105160364  17.792500000000004 13.405000000000001  L 21.18 10.102500000000003  C 21.234464344544364 10.055022343649604  21.265724220821582 9.986302802175285  21.265724220821582 9.914049825218115  C 21.265724220821582 9.784418513259741  21.16663862234411 9.67629129129526  21.0375 9.665000000000003  L 16.355 8.985000000000003  C 15.458558096026792 8.857121290427866  14.682523536038364 8.29613245188201  14.280000000000001 7.485000000000003  L 12.187500000000007 3.235000000000001  C 12.145382301716953 3.146532685621086  12.055467129663814 3.0908243725012046  11.957500000000003 3.0924999999999994  C 11.858436048861385 3.0866736903064815  11.766389453523633 3.1437025591570507  11.727500000000003 3.235000000000001  L 9.632500000000004 7.484999999999999  C 9.229976463961645 8.29613245188201  8.453941903973213 8.857121290427866  7.5575000000000045 8.985000000000003  L 2.877500000000003 9.665000000000003  C 2.780879162629981 9.678347845337807  2.700843915333877 9.746670617419849  2.6725000000000048 9.840000000000003  C 2.642317369344486 9.928837044051157  2.6678694757120613 10.027114376234149  2.737500000000006 10.090000000000003  L 6.125 13.404999999999998  C 6.775604054595508 14.037737105160357  7.0721378050629085 14.950724299028451  6.9175 15.844999999999995  L 6.1175 20.5  C 6.109693939634276 20.524521308855796  6.105720704111743 20.550100849454672  6.105720704111743 20.57583466313307  C 6.105720704111743 20.713905850590766  6.2176495166540455 20.82583466313307  6.355720704111743 20.82583466313307  C 6.407394971336391 20.82583466313307  6.457799623298911 20.80982210756286  6.5 20.78  L 10.687499999999996 18.577499999999997  Z " stroke-width="0" stroke-dasharray="0" stroke="rgba(255, 255, 255, 0)" fill="none" transform="matrix(1 0 0 1 166 4064 )" class="stroke" mask="url(#Clip10357)" />
  </g>
</svg>