<?xml version="1.0" encoding="utf-8"?>
<svg version="1.1" xmlns:xlink="http://www.w3.org/1999/xlink" width="330px" height="351px" xmlns="http://www.w3.org/2000/svg">
  <defs>
    <linearGradient gradientUnits="userSpaceOnUse" x1="165" y1="0" x2="165" y2="351" id="LinearGradient3874">
      <stop id="Stop3875" stop-color="#333333" offset="0" />
      <stop id="Stop3876" stop-color="#333333" stop-opacity="0" offset="1" />
    </linearGradient>
    <pattern id="BGPattern" patternUnits="userSpaceOnUse" alignment="0 0" imageRepeat="None" />
    <mask fill="white" id="Clip3877">
      <path d="M 0 346  L 0 5  C 0 2.1999999999999997  2.1999999999999997 0  5 0  L 325 0  C 327.8 0  330 2.1999999999999997  330 5  L 330 346  C 330 348.79999999999995  327.8 351  325 351  L 5 351  C 2.1999999999999997 351  0 348.79999999999995  0 346  Z " fill-rule="evenodd" />
    </mask>
  </defs>
  <g transform="matrix(1 0 0 1 -15 -100 )">
    <path d="M 0 346  L 0 5  C 0 2.1999999999999997  2.1999999999999997 0  5 0  L 325 0  C 327.8 0  330 2.1999999999999997  330 5  L 330 346  C 330 348.79999999999995  327.8 351  325 351  L 5 351  C 2.1999999999999997 351  0 348.79999999999995  0 346  Z " fill-rule="nonzero" fill="url(#LinearGradient3874)" stroke="none" transform="matrix(1 0 0 1 15 100 )" class="fill" />
    <path d="M 0 346  L 0 5  C 0 2.1999999999999997  2.1999999999999997 0  5 0  L 325 0  C 327.8 0  330 2.1999999999999997  330 5  L 330 346  C 330 348.79999999999995  327.8 351  325 351  L 5 351  C 2.1999999999999997 351  0 348.79999999999995  0 346  Z " stroke-width="0" stroke-dasharray="0" stroke="rgba(121, 121, 121, 1)" fill="none" transform="matrix(1 0 0 1 15 100 )" class="stroke" mask="url(#Clip3877)" />
  </g>
</svg>