<?xml version="1.0" encoding="utf-8"?>
<svg version="1.1" xmlns:xlink="http://www.w3.org/1999/xlink" width="100px" height="50px" xmlns="http://www.w3.org/2000/svg">
  <defs>
    <linearGradient gradientUnits="userSpaceOnUse" x1="0.819492619484663" y1="0.8194930851459503" x2="0.819492619484663" y2="50" id="LinearGradient8077">
      <stop id="Stop8078" stop-color="#ff8fbb" offset="0" />
      <stop id="Stop8079" stop-color="#ffd6d7" offset="0.78" />
      <stop id="Stop8080" stop-color="#ffd6d7" offset="1" />
    </linearGradient>
    <pattern id="BGPattern" patternUnits="userSpaceOnUse" alignment="0 0" imageRepeat="None" />
    <mask fill="white" id="Clip8081">
      <path d="M 0 46  L 0 4  C 0 1.7599999999999998  1.7599999999999998 0  4 0  L 96 0  C 98.24000000000001 0  100 1.7599999999999998  100 4  L 100 46  C 100 48.24  98.24000000000001 50  96 50  L 4 50  C 1.7599999999999998 50  0 48.24  0 46  Z " fill-rule="evenodd" />
    </mask>
  </defs>
  <g transform="matrix(1 0 0 1 -5 -82 )">
    <path d="M 0 46  L 0 4  C 0 1.7599999999999998  1.7599999999999998 0  4 0  L 96 0  C 98.24000000000001 0  100 1.7599999999999998  100 4  L 100 46  C 100 48.24  98.24000000000001 50  96 50  L 4 50  C 1.7599999999999998 50  0 48.24  0 46  Z " fill-rule="nonzero" fill="url(#LinearGradient8077)" stroke="none" transform="matrix(1 0 0 1 5 82 )" class="fill" />
    <path d="M 0 46  L 0 4  C 0 1.7599999999999998  1.7599999999999998 0  4 0  L 96 0  C 98.24000000000001 0  100 1.7599999999999998  100 4  L 100 46  C 100 48.24  98.24000000000001 50  96 50  L 4 50  C 1.7599999999999998 50  0 48.24  0 46  Z " stroke-width="0" stroke-dasharray="0" stroke="rgba(255, 255, 255, 0)" fill="none" transform="matrix(1 0 0 1 5 82 )" class="stroke" mask="url(#Clip8081)" />
  </g>
</svg>