<?xml version="1.0" encoding="utf-8"?>
<svg version="1.1" xmlns:xlink="http://www.w3.org/1999/xlink" width="39px" height="39px" xmlns="http://www.w3.org/2000/svg">
  <defs>
    <pattern id="BGPattern" patternUnits="userSpaceOnUse" alignment="0 0" imageRepeat="None" />
    <mask fill="white" id="Clip17704">
      <path d="M 0.7999999999999989 19.2275  C 0.7999999999999989 29.683631026171497  9.276368973828504 38.160000000000004  19.7325 38.160000000000004  C 30.1886310261715 38.160000000000004  38.665000000000006 29.683631026171497  38.665000000000006 19.2275  C 38.665000000000006 8.771368973828501  30.1886310261715 0.29499999999999993  19.732500000000005 0.29499999999999993  C 9.276368973828511 0.29499999999999993  0.800000000000006 8.771368973828501  0.800000000000006 19.2275  Z " fill-rule="evenodd" />
    </mask>
  </defs>
  <g transform="matrix(1 0 0 1 -163 -4061 )">
    <path d="M 0.7999999999999989 19.2275  C 0.7999999999999989 29.683631026171497  9.276368973828504 38.160000000000004  19.7325 38.160000000000004  C 30.1886310261715 38.160000000000004  38.665000000000006 29.683631026171497  38.665000000000006 19.2275  C 38.665000000000006 8.771368973828501  30.1886310261715 0.29499999999999993  19.732500000000005 0.29499999999999993  C 9.276368973828511 0.29499999999999993  0.800000000000006 8.771368973828501  0.800000000000006 19.2275  Z " fill-rule="nonzero" fill="rgba(255, 243, 174, 1)" stroke="none" transform="matrix(1 0 0 1 163 4061 )" class="fill" />
    <path d="M 0.7999999999999989 19.2275  C 0.7999999999999989 29.683631026171497  9.276368973828504 38.160000000000004  19.7325 38.160000000000004  C 30.1886310261715 38.160000000000004  38.665000000000006 29.683631026171497  38.665000000000006 19.2275  C 38.665000000000006 8.771368973828501  30.1886310261715 0.29499999999999993  19.732500000000005 0.29499999999999993  C 9.276368973828511 0.29499999999999993  0.800000000000006 8.771368973828501  0.800000000000006 19.2275  Z " stroke-width="0" stroke-dasharray="0" stroke="rgba(255, 255, 255, 0)" fill="none" transform="matrix(1 0 0 1 163 4061 )" class="stroke" mask="url(#Clip17704)" />
  </g>
</svg>