<?xml version="1.0" encoding="utf-8"?>
<svg version="1.1" xmlns:xlink="http://www.w3.org/1999/xlink" width="330px" height="260px" xmlns="http://www.w3.org/2000/svg">
  <defs>
    <linearGradient gradientUnits="userSpaceOnUse" x1="165" y1="0" x2="165" y2="260" id="LinearGradient4220">
      <stop id="Stop4221" stop-color="#f0d99a" offset="0" />
      <stop id="Stop4222" stop-color="#f0d99a" stop-opacity="0" offset="1" />
    </linearGradient>
    <pattern id="BGPattern" patternUnits="userSpaceOnUse" alignment="0 0" imageRepeat="None" />
    <mask fill="white" id="Clip4223">
      <path d="M 0 255  L 0 5  C 0 2.1999999999999997  2.1999999999999997 0  5 0  L 325 0  C 327.8 0  330 2.1999999999999997  330 5  L 330 255  C 330 257.8  327.8 260  325 260  L 5 260  C 2.1999999999999997 260  0 257.8  0 255  Z " fill-rule="evenodd" />
    </mask>
  </defs>
  <g transform="matrix(1 0 0 1 -15 -108 )">
    <path d="M 0 255  L 0 5  C 0 2.1999999999999997  2.1999999999999997 0  5 0  L 325 0  C 327.8 0  330 2.1999999999999997  330 5  L 330 255  C 330 257.8  327.8 260  325 260  L 5 260  C 2.1999999999999997 260  0 257.8  0 255  Z " fill-rule="nonzero" fill="url(#LinearGradient4220)" stroke="none" transform="matrix(1 0 0 1 15 108 )" class="fill" />
    <path d="M 0 255  L 0 5  C 0 2.1999999999999997  2.1999999999999997 0  5 0  L 325 0  C 327.8 0  330 2.1999999999999997  330 5  L 330 255  C 330 257.8  327.8 260  325 260  L 5 260  C 2.1999999999999997 260  0 257.8  0 255  Z " stroke-width="0" stroke-dasharray="0" stroke="rgba(121, 121, 121, 1)" fill="none" transform="matrix(1 0 0 1 15 108 )" class="stroke" mask="url(#Clip4223)" />
  </g>
</svg>