<?xml version="1.0" encoding="utf-8"?>
<svg version="1.1" xmlns:xlink="http://www.w3.org/1999/xlink" width="44px" height="28px" xmlns="http://www.w3.org/2000/svg">
  <defs>
    <pattern id="BGPattern" patternUnits="userSpaceOnUse" alignment="0 0" imageRepeat="None" />
    <mask fill="white" id="Clip5864">
      <path d="M 40.51183968798821 27.999997158691336  C 40.49004314957161 27.999997158691336  40.46824716734689 27.99977695197873  40.446455078125005 28  L 3.925904052734375 28  C 2.1385984733761756 27.999336572265626  0.689701025390625 26.550439124280075  1 24.763133544921878  L 1 1.2844807128906233  C 0.6794505828220441 0.9624851268602335  0.9194693771409463 0.6871694272151636  1.2398555175781247 1  L 43.1486845703125 1  C 43.475750816219566 0.6619205815366733  43.738882641119574 0.9250524064366914  43 1.25211865234375  L 43 24.698409521484372  C 43.74782250861936 24.720201610706305  43.74804271533196 24.741997592930936  43.74804271533196 24.76379413134758  C 43.74804271533196 26.551099710705778  42.29914526734641 27.999997158691336  40.51183968798821 27.999997158691336  Z M 42 2  L 2 2  L 2 24.698409521484372  C 1.8385530761718742 25.851221606417234  2.773091918973397 26.78576044921875  3.9259040039062496 26.78576044921875  L 40.446455078125005 26.78576044921875  C 41.59926716305785 26.78576044921875  42.533806005859375 25.851221606417234  42 24.698409521484372  L 42 2  Z " fill-rule="evenodd" />
    </mask>
  </defs>
  <g transform="matrix(1 0 0 1 -33 -759 )">
    <path d="M 40.51183968798821 27.999997158691336  C 40.49004314957161 27.999997158691336  40.46824716734689 27.99977695197873  40.446455078125005 28  L 3.925904052734375 28  C 2.1385984733761756 27.999336572265626  0.689701025390625 26.550439124280075  1 24.763133544921878  L 1 1.2844807128906233  C 0.6794505828220441 0.9624851268602335  0.9194693771409463 0.6871694272151636  1.2398555175781247 1  L 43.1486845703125 1  C 43.475750816219566 0.6619205815366733  43.738882641119574 0.9250524064366914  43 1.25211865234375  L 43 24.698409521484372  C 43.74782250861936 24.720201610706305  43.74804271533196 24.741997592930936  43.74804271533196 24.76379413134758  C 43.74804271533196 26.551099710705778  42.29914526734641 27.999997158691336  40.51183968798821 27.999997158691336  Z M 42 2  L 2 2  L 2 24.698409521484372  C 1.8385530761718742 25.851221606417234  2.773091918973397 26.78576044921875  3.9259040039062496 26.78576044921875  L 40.446455078125005 26.78576044921875  C 41.59926716305785 26.78576044921875  42.533806005859375 25.851221606417234  42 24.698409521484372  L 42 2  Z " fill-rule="nonzero" fill="rgba(255, 255, 255, 1)" stroke="none" transform="matrix(1 0 0 1 33 759 )" class="fill" />
    <path d="M 40.51183968798821 27.999997158691336  C 40.49004314957161 27.999997158691336  40.46824716734689 27.99977695197873  40.446455078125005 28  L 3.925904052734375 28  C 2.1385984733761756 27.999336572265626  0.689701025390625 26.550439124280075  1 24.763133544921878  L 1 1.2844807128906233  C 0.6794505828220441 0.9624851268602335  0.9194693771409463 0.6871694272151636  1.2398555175781247 1  L 43.1486845703125 1  C 43.475750816219566 0.6619205815366733  43.738882641119574 0.9250524064366914  43 1.25211865234375  L 43 24.698409521484372  C 43.74782250861936 24.720201610706305  43.74804271533196 24.741997592930936  43.74804271533196 24.76379413134758  C 43.74804271533196 26.551099710705778  42.29914526734641 27.999997158691336  40.51183968798821 27.999997158691336  Z " stroke-width="0" stroke-dasharray="0" stroke="rgba(255, 255, 255, 0)" fill="none" transform="matrix(1 0 0 1 33 759 )" class="stroke" mask="url(#Clip5864)" />
    <path d="M 42 2  L 2 2  L 2 24.698409521484372  C 1.8385530761718742 25.851221606417234  2.773091918973397 26.78576044921875  3.9259040039062496 26.78576044921875  L 40.446455078125005 26.78576044921875  C 41.59926716305785 26.78576044921875  42.533806005859375 25.851221606417234  42 24.698409521484372  L 42 2  Z " stroke-width="0" stroke-dasharray="0" stroke="rgba(255, 255, 255, 0)" fill="none" transform="matrix(1 0 0 1 33 759 )" class="stroke" mask="url(#Clip5864)" />
  </g>
</svg>