<?xml version="1.0" encoding="utf-8"?>
<svg version="1.1" xmlns:xlink="http://www.w3.org/1999/xlink" width="28px" height="2px" xmlns="http://www.w3.org/2000/svg">
  <defs>
    <pattern id="BGPattern" patternUnits="userSpaceOnUse" alignment="0 0" imageRepeat="None" />
    <mask fill="white" id="Clip5999">
      <path d="M 6.975139287824607 0.6548667236328143  C 6.975139287824607 0.9560827466593622  6.756931172130667 1.2129521083483183  6.459678515624997 1.261654785156253  L 1.2332106445312476 1.261654785156253  C 1.2003451688670879 1.2670395533135022  1.1670965340372454 1.269745288085936  1.1337928522777325 1.269745288085936  C 0.794204798132423 1.269745288085936  0.5189142878246074 0.9944547777781239  0.5189142878246074 0.6548667236328143  C 0.5189142878246074 0.3152786694874905  0.794204798132423 0.03998815917968557  1.1337928522777325 0.03998815917968557  C 1.1670965340372454 0.03998815917968557  1.2003451688670879 0.04269389395211931  1.2332106445312512 0.048078662109375614  L 6.459678515624997 0.048078662109375614  C 6.756931172130667 0.09678133891730312  6.975139287824607 0.35365070060625214  6.975139287824607 0.6548667236328143  Z M 27.737713330078122 1.3425598632812452  C 27.737713330078122 1.6732113946535065  27.469667302856628 1.9412574218749938  27.139015771484374 1.941257421875001  L 15.229788671875 1.9412574218749938  C 15.224396221536296 1.9414032173114393  15.219002046980641 1.9414761250170613  15.213607626069688 1.9414761250170613  C 14.882956094697423 1.9414761250170613  14.614910067475932 1.673430097795567  14.614910067475932 1.3427785664233056  C 14.614910107421874 1.0029718091359285  14.890200617729688 0.7276812988281236  15.229788671875 0.7276812988281236  L 27.139015771484374 0.7276812988281236  C 27.47226838428478 0.7364541177571837  27.737828781570407 1.0091918189800424  27.737713330078122 1.3425598632812452  Z " fill-rule="evenodd" />
    </mask>
  </defs>
  <g transform="matrix(1 0 0 1 -46 -772 )">
    <path d="M 6.975139287824607 0.6548667236328143  C 6.975139287824607 0.9560827466593622  6.756931172130667 1.2129521083483183  6.459678515624997 1.261654785156253  L 1.2332106445312476 1.261654785156253  C 1.2003451688670879 1.2670395533135022  1.1670965340372454 1.269745288085936  1.1337928522777325 1.269745288085936  C 0.794204798132423 1.269745288085936  0.5189142878246074 0.9944547777781239  0.5189142878246074 0.6548667236328143  C 0.5189142878246074 0.3152786694874905  0.794204798132423 0.03998815917968557  1.1337928522777325 0.03998815917968557  C 1.1670965340372454 0.03998815917968557  1.2003451688670879 0.04269389395211931  1.2332106445312512 0.048078662109375614  L 6.459678515624997 0.048078662109375614  C 6.756931172130667 0.09678133891730312  6.975139287824607 0.35365070060625214  6.975139287824607 0.6548667236328143  Z M 27.737713330078122 1.3425598632812452  C 27.737713330078122 1.6732113946535065  27.469667302856628 1.9412574218749938  27.139015771484374 1.941257421875001  L 15.229788671875 1.9412574218749938  C 15.224396221536296 1.9414032173114393  15.219002046980641 1.9414761250170613  15.213607626069688 1.9414761250170613  C 14.882956094697423 1.9414761250170613  14.614910067475932 1.673430097795567  14.614910067475932 1.3427785664233056  C 14.614910107421874 1.0029718091359285  14.890200617729688 0.7276812988281236  15.229788671875 0.7276812988281236  L 27.139015771484374 0.7276812988281236  C 27.47226838428478 0.7364541177571837  27.737828781570407 1.0091918189800424  27.737713330078122 1.3425598632812452  Z " fill-rule="nonzero" fill="rgba(255, 255, 255, 1)" stroke="none" transform="matrix(1 0 0 1 46 772 )" class="fill" />
    <path d="M 6.975139287824607 0.6548667236328143  C 6.975139287824607 0.9560827466593622  6.756931172130667 1.2129521083483183  6.459678515624997 1.261654785156253  L 1.2332106445312476 1.261654785156253  C 1.2003451688670879 1.2670395533135022  1.1670965340372454 1.269745288085936  1.1337928522777325 1.269745288085936  C 0.794204798132423 1.269745288085936  0.5189142878246074 0.9944547777781239  0.5189142878246074 0.6548667236328143  C 0.5189142878246074 0.3152786694874905  0.794204798132423 0.03998815917968557  1.1337928522777325 0.03998815917968557  C 1.1670965340372454 0.03998815917968557  1.2003451688670879 0.04269389395211931  1.2332106445312512 0.048078662109375614  L 6.459678515624997 0.048078662109375614  C 6.756931172130667 0.09678133891730312  6.975139287824607 0.35365070060625214  6.975139287824607 0.6548667236328143  Z " stroke-width="0" stroke-dasharray="0" stroke="rgba(255, 255, 255, 0)" fill="none" transform="matrix(1 0 0 1 46 772 )" class="stroke" mask="url(#Clip5999)" />
    <path d="M 27.737713330078122 1.3425598632812452  C 27.737713330078122 1.6732113946535065  27.469667302856628 1.9412574218749938  27.139015771484374 1.941257421875001  L 15.229788671875 1.9412574218749938  C 15.224396221536296 1.9414032173114393  15.219002046980641 1.9414761250170613  15.213607626069688 1.9414761250170613  C 14.882956094697423 1.9414761250170613  14.614910067475932 1.673430097795567  14.614910067475932 1.3427785664233056  C 14.614910107421874 1.0029718091359285  14.890200617729688 0.7276812988281236  15.229788671875 0.7276812988281236  L 27.139015771484374 0.7276812988281236  C 27.47226838428478 0.7364541177571837  27.737828781570407 1.0091918189800424  27.737713330078122 1.3425598632812452  Z " stroke-width="0" stroke-dasharray="0" stroke="rgba(255, 255, 255, 0)" fill="none" transform="matrix(1 0 0 1 46 772 )" class="stroke" mask="url(#Clip5999)" />
  </g>
</svg>