<?xml version="1.0" encoding="utf-8"?>
<svg version="1.1" xmlns:xlink="http://www.w3.org/1999/xlink" width="29px" height="42px" xmlns="http://www.w3.org/2000/svg">
  <defs>
    <pattern id="BGPattern" patternUnits="userSpaceOnUse" alignment="0 0" imageRepeat="None" />
    <mask fill="white" id="Clip5130">
      <path d="M 6.030761621093751 41.43389541015625  C 5.926267228523425 41.51080129477277  5.799366360676183 41.55117885377252  5.669643896484374 41.54879653320313  C 5.560570546295036 41.54711952135935  5.453539631652969 41.51895349030844  5.357769482421874 41.46672431640625  L 1.2213299804687487 38.9717291015625  C 0.9963846453502878 38.84320128595723  0.8777363982840569 38.5861300709084  0.9258700195312494 38.331565820312505  L 8.295954638671876 0.5783484375000061  C 8.335021941354928 0.30552396706949914  8.56232900227058 0.09888117696798249  8.837631250000001 0.08591513671875628  C 9.103387416475666 0.0508810928587744  9.359435595197496 0.19911952477808237  9.461380078125003 0.44703291015625674  L 18.440080029296876 21.949952343750006  C 18.46970090362617 22.022946640530012  18.484930497966886 22.10097914156606  18.484930497966886 22.17975454101563  C 18.484930497966886 22.5172826673845  18.21130988906418 22.79090327628721  17.873781762695312 22.79090327628721  C 17.624991409097763 22.79090327628721  17.401032850965283 22.640089074942104  17.307483496093752 22.40955673828126  L 9.1002623046875 2.7942981445312567  L 2.222610986328128 38.13459252929688  L 5.636814990234377 40.20281225585938  L 26.614472314453124 25.265669726562503  L 22.8063216796875 16.549600830078123  C 22.772098152106913 16.472027497954443  22.754422362524775 16.388171418331236  22.754422362524775 16.303384204101558  C 22.754422362524775 15.966495832275175  23.027524347900176 15.693393846899774  23.36441271972656 15.693393846899774  C 23.60607850053753 15.693393846899774  23.824957737172376 15.836063251864267  23.922503759765625 16.057167578125  L 28.009699902343755 25.2328408203125  C 28.12902183148563 25.499595455839383  28.047151364958772 25.813432274634884  27.81272661132813 25.987905175781243  L 6.030761621093751 41.43389541015625  Z " fill-rule="evenodd" />
    </mask>
  </defs>
  <g transform="matrix(1 0 0 1 -41 -922 )">
    <path d="M 6.030761621093751 41.43389541015625  C 5.926267228523425 41.51080129477277  5.799366360676183 41.55117885377252  5.669643896484374 41.54879653320313  C 5.560570546295036 41.54711952135935  5.453539631652969 41.51895349030844  5.357769482421874 41.46672431640625  L 1.2213299804687487 38.9717291015625  C 0.9963846453502878 38.84320128595723  0.8777363982840569 38.5861300709084  0.9258700195312494 38.331565820312505  L 8.295954638671876 0.5783484375000061  C 8.335021941354928 0.30552396706949914  8.56232900227058 0.09888117696798249  8.837631250000001 0.08591513671875628  C 9.103387416475666 0.0508810928587744  9.359435595197496 0.19911952477808237  9.461380078125003 0.44703291015625674  L 18.440080029296876 21.949952343750006  C 18.46970090362617 22.022946640530012  18.484930497966886 22.10097914156606  18.484930497966886 22.17975454101563  C 18.484930497966886 22.5172826673845  18.21130988906418 22.79090327628721  17.873781762695312 22.79090327628721  C 17.624991409097763 22.79090327628721  17.401032850965283 22.640089074942104  17.307483496093752 22.40955673828126  L 9.1002623046875 2.7942981445312567  L 2.222610986328128 38.13459252929688  L 5.636814990234377 40.20281225585938  L 26.614472314453124 25.265669726562503  L 22.8063216796875 16.549600830078123  C 22.772098152106913 16.472027497954443  22.754422362524775 16.388171418331236  22.754422362524775 16.303384204101558  C 22.754422362524775 15.966495832275175  23.027524347900176 15.693393846899774  23.36441271972656 15.693393846899774  C 23.60607850053753 15.693393846899774  23.824957737172376 15.836063251864267  23.922503759765625 16.057167578125  L 28.009699902343755 25.2328408203125  C 28.12902183148563 25.499595455839383  28.047151364958772 25.813432274634884  27.81272661132813 25.987905175781243  L 6.030761621093751 41.43389541015625  Z " fill-rule="nonzero" fill="rgba(255, 255, 255, 1)" stroke="none" transform="matrix(1 0 0 1 41 922 )" class="fill" />
    <path d="M 6.030761621093751 41.43389541015625  C 5.926267228523425 41.51080129477277  5.799366360676183 41.55117885377252  5.669643896484374 41.54879653320313  C 5.560570546295036 41.54711952135935  5.453539631652969 41.51895349030844  5.357769482421874 41.46672431640625  L 1.2213299804687487 38.9717291015625  C 0.9963846453502878 38.84320128595723  0.8777363982840569 38.5861300709084  0.9258700195312494 38.331565820312505  L 8.295954638671876 0.5783484375000061  C 8.335021941354928 0.30552396706949914  8.56232900227058 0.09888117696798249  8.837631250000001 0.08591513671875628  C 9.103387416475666 0.0508810928587744  9.359435595197496 0.19911952477808237  9.461380078125003 0.44703291015625674  L 18.440080029296876 21.949952343750006  C 18.46970090362617 22.022946640530012  18.484930497966886 22.10097914156606  18.484930497966886 22.17975454101563  C 18.484930497966886 22.5172826673845  18.21130988906418 22.79090327628721  17.873781762695312 22.79090327628721  C 17.624991409097763 22.79090327628721  17.401032850965283 22.640089074942104  17.307483496093752 22.40955673828126  L 9.1002623046875 2.7942981445312567  L 2.222610986328128 38.13459252929688  L 5.636814990234377 40.20281225585938  L 26.614472314453124 25.265669726562503  L 22.8063216796875 16.549600830078123  C 22.772098152106913 16.472027497954443  22.754422362524775 16.388171418331236  22.754422362524775 16.303384204101558  C 22.754422362524775 15.966495832275175  23.027524347900176 15.693393846899774  23.36441271972656 15.693393846899774  C 23.60607850053753 15.693393846899774  23.824957737172376 15.836063251864267  23.922503759765625 16.057167578125  L 28.009699902343755 25.2328408203125  C 28.12902183148563 25.499595455839383  28.047151364958772 25.813432274634884  27.81272661132813 25.987905175781243  L 6.030761621093751 41.43389541015625  Z " stroke-width="0" stroke-dasharray="0" stroke="rgba(255, 255, 255, 0)" fill="none" transform="matrix(1 0 0 1 41 922 )" class="stroke" mask="url(#Clip5130)" />
  </g>
</svg>