<?xml version="1.0" encoding="utf-8"?>
<svg version="1.1" xmlns:xlink="http://www.w3.org/1999/xlink" width="46px" height="41px" xmlns="http://www.w3.org/2000/svg">
  <defs>
    <pattern id="BGPattern" patternUnits="userSpaceOnUse" alignment="0 0" imageRepeat="None" />
  </defs>
  <g transform="matrix(1 0 0 1 -31 -833 )">
    <path d="M 19.970123063712283 39.283789790134804  L 19.974206075734106 39.28172606464461  C 19.583911300381562 39.282892593867984  19.20815058751634 39.13213342713772  18.924872592268315 38.860722388174025  L 4.715998977134965 25.345266582414226  C -0.6508359584693187 20.276710824682617  -1.3010675486795191 11.90445557828613  3.2175344364560856 6.051329159007358  L 3.8463179468615305 5.22789552696079  C 6.247895436723622 2.067140171922216  10.002552757979663 0.261449239777551  13.9436008048222 0.3719072074142157  C 17.219904801791554 0.45770550801139576  20.330426778258175 1.8467318727774913  22.599581290409485 4.237298674938726  C 24.862508668226557 1.8496257534060851  27.965336117195548 0.46001827424665354  31.235146678003773 0.3698434436274509  C 35.17448753907807 0.26207714050902764  38.92676067717517 2.0673514578790995  41.328346561826514 5.225831763174019  L 41.961213046369885 6.045137944240196  C 44.64805221849145 9.533344969158087  45.59131216660669 14.080153750368732  44.51717709455818 18.3656862745098  C 44.3516897685978 19.055170302663345  43.740983006418645 19.540651313080083  43.03913968633289 19.540651313080083  C 42.91174441849991 19.540651313080083  42.784853881174435 19.524470894449376  42.66144921033137 19.492490196078432  C 41.97939249853237 19.321493635226926  41.50043380070141 18.70257122034426  41.50043380070141 17.99219703030368  C 41.50043380070141 17.864842965465137  41.51600305383566 17.73797701571333  41.546787572400326 17.614483647365198  C 42.388018744480405 14.252160894406094  41.648336702017474 10.685549682942359  39.54202984408674 7.947909390318628  L 38.90916335954337 7.126539483762255  C 37.06772599845096 4.726405867034314  34.291279452619875 3.4283112362132364  31.314765393487335 3.4695861289828445  C 28.303545788995145 3.552135876225492  25.604676395810877 5.009138748468138  23.91022739173625 7.473248391544118  L 22.630203861631188 9.33474498314951  L 21.315474748282597 7.543415670955883  C 19.62933295032243 5.0474141533528725  16.85329891991094 3.529719643309337  13.86398212722252 3.4695861289828445  C 10.871136057886584 3.438629978553922  8.106938510237061 4.728469630821079  6.269584161166486 7.1224119944852955  L 5.6367176766231095 7.947909390318628  C 2.0890705876403834 12.542792162956939  2.5984074212958306 19.115413330297272  6.810582932044713 23.095786228553923  L 21.019456547178063 36.607114545036765  C 21.328008238973837 36.89970695196257  21.503051570963983 37.308315253934026  21.503051570963983 37.73598326151051  C 21.503051570963983 38.5908137935798  20.817541930273908 39.28379085954972  19.971922934110538 39.28379085954972  C 19.97132297715471 39.28379085954972  19.97072302025358 39.28379050307802  19.970123063712283 39.283789790134804  Z " fill-rule="nonzero" fill="rgba(255, 255, 255, 1)" stroke="none" transform="matrix(1 0 0 1 31 833 )" class="fill" />
    <path d="M 19.974206075734106 39.28172606464461  C 19.583911300381562 39.282892593867984  19.20815058751634 39.13213342713772  18.924872592268315 38.860722388174025  L 4.715998977134965 25.345266582414226  C -0.6508359584693187 20.276710824682617  -1.3010675486795191 11.90445557828613  3.2175344364560856 6.051329159007358  L 3.8463179468615305 5.22789552696079  C 6.247895436723622 2.067140171922216  10.002552757979663 0.261449239777551  13.9436008048222 0.3719072074142157  C 17.219904801791554 0.45770550801139576  20.330426778258175 1.8467318727774913  22.599581290409485 4.237298674938726  C 24.862508668226557 1.8496257534060851  27.965336117195548 0.46001827424665354  31.235146678003773 0.3698434436274509  C 35.17448753907807 0.26207714050902764  38.92676067717517 2.0673514578790995  41.328346561826514 5.225831763174019  L 41.961213046369885 6.045137944240196  C 44.64805221849145 9.533344969158087  45.59131216660669 14.080153750368732  44.51717709455818 18.3656862745098  C 44.3516897685978 19.055170302663345  43.740983006418645 19.540651313080083  43.03913968633289 19.540651313080083  C 42.91174441849991 19.540651313080083  42.784853881174435 19.524470894449376  42.66144921033137 19.492490196078432  C 41.97939249853237 19.321493635226926  41.50043380070141 18.70257122034426  41.50043380070141 17.99219703030368  C 41.50043380070141 17.864842965465137  41.51600305383566 17.73797701571333  41.546787572400326 17.614483647365198  C 42.388018744480405 14.252160894406094  41.648336702017474 10.685549682942359  39.54202984408674 7.947909390318628  L 38.90916335954337 7.126539483762255  C 37.06772599845096 4.726405867034314  34.291279452619875 3.4283112362132364  31.314765393487335 3.4695861289828445  C 28.303545788995145 3.552135876225492  25.604676395810877 5.009138748468138  23.91022739173625 7.473248391544118  L 22.630203861631188 9.33474498314951  L 21.315474748282597 7.543415670955883  C 19.62933295032243 5.0474141533528725  16.85329891991094 3.529719643309337  13.86398212722252 3.4695861289828445  C 10.871136057886584 3.438629978553922  8.106938510237061 4.728469630821079  6.269584161166486 7.1224119944852955  L 5.6367176766231095 7.947909390318628  C 2.0890705876403834 12.542792162956939  2.5984074212958306 19.115413330297272  6.810582932044713 23.095786228553923  L 21.019456547178063 36.607114545036765  C 21.328008238973837 36.89970695196257  21.503051570963983 37.308315253934026  21.503051570963983 37.73598326151051  C 21.503051570963983 38.5908137935798  20.817541930273908 39.28379085954972  19.971922934110538 39.28379085954972  C 19.97132297715471 39.28379085954972  19.97072302025358 39.28379050307802  19.970123063712283 39.283789790134804  " stroke-width="0" stroke-dasharray="0" stroke="rgba(255, 255, 255, 0)" fill="none" transform="matrix(1 0 0 1 31 833 )" class="stroke" />
  </g>
</svg>