<?xml version="1.0" encoding="utf-8"?>
<svg version="1.1" xmlns:xlink="http://www.w3.org/1999/xlink" width="37px" height="37px" xmlns="http://www.w3.org/2000/svg">
  <defs>
    <pattern id="BGPattern" patternUnits="userSpaceOnUse" alignment="0 0" imageRepeat="None" />
    <mask fill="white" id="Clip8782">
      <path d="M 0.0035861816406255187 18.743994970703127  C 0.0035861816406255187 28.690350480189977  8.0667004475444 36.75346474609375  18.01305595703125 36.75346474609375  C 27.959411466518095 36.75346474609375  36.022525732421876 28.690350480189977  36.022525732421876 18.743994970703127  C 36.022525732421876 8.797639461216278  27.959411466518095 0.7345251953125009  18.01305595703125 0.7345251953125009  C 8.0667004475444 0.7345251953125009  0.0035861816406255187 8.797639461216278  0.0035861816406255187 18.743994970703127  Z " fill-rule="evenodd" />
    </mask>
  </defs>
  <g transform="matrix(1 0 0 1 -37 -927 )">
    <path d="M 0.0035861816406255187 18.743994970703127  C 0.0035861816406255187 28.690350480189977  8.0667004475444 36.75346474609375  18.01305595703125 36.75346474609375  C 27.959411466518095 36.75346474609375  36.022525732421876 28.690350480189977  36.022525732421876 18.743994970703127  C 36.022525732421876 8.797639461216278  27.959411466518095 0.7345251953125009  18.01305595703125 0.7345251953125009  C 8.0667004475444 0.7345251953125009  0.0035861816406255187 8.797639461216278  0.0035861816406255187 18.743994970703127  Z " fill-rule="nonzero" fill="rgba(85, 85, 85, 1)" stroke="none" transform="matrix(1 0 0 1 37 927 )" class="fill" />
    <path d="M 0.0035861816406255187 18.743994970703127  C 0.0035861816406255187 28.690350480189977  8.0667004475444 36.75346474609375  18.01305595703125 36.75346474609375  C 27.959411466518095 36.75346474609375  36.022525732421876 28.690350480189977  36.022525732421876 18.743994970703127  C 36.022525732421876 8.797639461216278  27.959411466518095 0.7345251953125009  18.01305595703125 0.7345251953125009  C 8.0667004475444 0.7345251953125009  0.0035861816406255187 8.797639461216278  0.0035861816406255187 18.743994970703127  Z " stroke-width="0" stroke-dasharray="0" stroke="rgba(255, 255, 255, 0)" fill="none" transform="matrix(1 0 0 1 37 927 )" class="stroke" mask="url(#Clip8782)" />
  </g>
</svg>