<?xml version="1.0" encoding="utf-8"?>
<svg version="1.1" xmlns:xlink="http://www.w3.org/1999/xlink" width="40px" height="40px" xmlns="http://www.w3.org/2000/svg">
  <defs>
    <pattern id="BGPattern" patternUnits="userSpaceOnUse" alignment="0 0" imageRepeat="None" />
    <mask fill="white" id="Clip19461">
      <path d="M 0.3005971923828188 19.711642522234257  C 0.3005971923828188 30.530683956507943  9.071163179984127 39.30124994410926  19.89020461425782 39.30124994410926  C 30.709246048531504 39.30124994410926  39.47981203613282 30.530683956507943  39.47981203613282 19.711642522234257  C 39.47981203613282 8.890645047398305  30.709246048531504 0.12007905979699451  19.89020461425782 0.12007905979699451  C 9.071163179984127 0.12007905979699451  0.3005971923828188 8.890645047398305  0.3005971923828188 19.709686481671994  Z " fill-rule="evenodd" />
    </mask>
  </defs>
  <g transform="matrix(1 0 0 1 -34 -835 )">
    <path d="M 0.3005971923828188 19.711642522234257  C 0.3005971923828188 30.530683956507943  9.071163179984127 39.30124994410926  19.89020461425782 39.30124994410926  C 30.709246048531504 39.30124994410926  39.47981203613282 30.530683956507943  39.47981203613282 19.711642522234257  C 39.47981203613282 8.890645047398305  30.709246048531504 0.12007905979699451  19.89020461425782 0.12007905979699451  C 9.071163179984127 0.12007905979699451  0.3005971923828188 8.890645047398305  0.3005971923828188 19.709686481671994  Z " fill-rule="nonzero" fill="rgba(85, 85, 85, 1)" stroke="none" transform="matrix(1 0 0 1 34 835 )" class="fill" />
    <path d="M 0.3005971923828188 19.711642522234257  C 0.3005971923828188 30.530683956507943  9.071163179984127 39.30124994410926  19.89020461425782 39.30124994410926  C 30.709246048531504 39.30124994410926  39.47981203613282 30.530683956507943  39.47981203613282 19.711642522234257  C 39.47981203613282 8.890645047398305  30.709246048531504 0.12007905979699451  19.89020461425782 0.12007905979699451  C 9.071163179984127 0.12007905979699451  0.3005971923828188 8.890645047398305  0.3005971923828188 19.709686481671994  Z " stroke-width="0" stroke-dasharray="0" stroke="rgba(255, 255, 255, 0)" fill="none" transform="matrix(1 0 0 1 34 835 )" class="stroke" mask="url(#Clip19461)" />
  </g>
</svg>