<?xml version="1.0" encoding="utf-8"?>
<svg version="1.1" xmlns:xlink="http://www.w3.org/1999/xlink" width="40px" height="50px" xmlns="http://www.w3.org/2000/svg">
  <defs>
    <pattern id="BGPattern" patternUnits="userSpaceOnUse" alignment="0 0" imageRepeat="None" />
    <mask fill="white" id="Clip10347">
      <path d="M 8.914579541015625 49.9983873921254  C 8.813584478220086 50.00556931825481  8.712326168284841 49.988692923464455  8.619119580078126 49.9491440367039  C 8.543457817134476 49.966105845358015  8.46497914575615 49.966105845358015  8.3893173828125 49.9491440367039  L 5.2213299804687505 48.65240322284409  C 4.991350700739098 48.554405716958726  4.842096262391269 48.32856635949362  4.842096262391269 48.07857841624016  C 4.842096262391269 47.99366969240043  4.859431906984469 47.909654944259614  4.893041162109375 47.83168116959519  C 4.98613405886797 47.602848383179456  5.208561017681442 47.45320692814439  5.455605021805944 47.45320692814439  C 5.5387724692206035 47.45320692814439  5.6210536938445035 47.4702883015377  5.697348828125001 47.503392328764406  L 8.159515185546876 48.5210876572149  L 8.9802373046875 44.31899077778372  L 5.582447753906251 42.18511345886785  L 1.6265671386718754 45.369515009848534  C 1.5191763641616172 45.454750908897715  1.3861045750642544 45.50114216874606  1.248999002226375 45.50114216874606  C 1.0635241325468483 45.50114216874606  0.8882161292250972 45.416389553856284  0.7730161132812503 45.27102834783368  C 0.5393815668217572 45.03447432834383  0.5393815668217572 44.65403145928841  0.7730161132812503 44.417477439798574  L 5.1392578125 41.036102564788166  C 5.351907364831771 40.8901867377623  5.632429256261981 40.8901867377623  5.845078808593751 41.036102564788166  L 9.981518261718751 43.514683176342  C 10.209128400256082 43.64887297448416  10.32749652247394 43.91191322278767  10.27697822265625 44.17126080917548  L 9.226453955078124 49.57161188927974  C 9.190891478666627 49.753064605436116  9.076655831392209 49.90938706604896  8.914579541015625 49.9983873921254  Z M 24.393398681640626 13.837373791409066  C 24.299782113789064 13.89482563816696  24.191293745769514 13.923375207300278  24.08152426757812 13.919446001616764  C 23.844104058650903 13.923525910857837  23.626081496491338 13.788864921222732  23.523433203125 13.574742708978798  C 23.474616333228006 13.486924827940195  23.44899742202912 13.388109841661713  23.44899742202912 13.287635632861654  C 23.44899742202912 13.0596316067243  23.58017112513615 12.85196880809482  23.786064306640622 12.754020655729912  C 25.68685688101133 11.751097148587338  26.87639847244703 9.778483943192136  26.87639847244703 7.6293289018281945  C 26.87639847244703 5.097782316190343  25.23293523056406 2.859298913505541  22.81761220703125 2.101048464129652  C 21.350178604105132 1.6413913158328495  19.759722193508797 1.7892032289478894  18.402127197265624 2.511409466340036  C 18.098261379544997 2.66807517232808  17.724909049988167 2.550945051081668  17.564990625 2.2487784327378897  C 17.417487988124154 1.9441801745017688  17.5325576390839 1.57739572226825  17.827621728515627 1.4116419276818373  C 18.839319099753936 0.8770594749247048  19.9662593516138 0.59762675151917  21.110510205078125 0.59762675151917  C 24.991349791488645 0.59762675151917  28.137391877258125 3.743668584708429  28.137391877258125 7.624507859545451  C 28.137391877258125 10.229324897966745  26.696466015104452 12.620429457076202  24.393398681640626 13.837373791409066  Z M 34.15999184570313 26.62422335075331  C 34.07586612226484 26.67576465041882  33.97958077290602 26.70408387151809  33.88094633789063 26.706295560961006  C 33.65412567025467 26.70350216527313  33.44670203891739 26.577790879113532  33.3392697265625 26.37800672013021  C 33.28989614922695 26.288298638462138  33.26400589510909 26.187563227709287  33.26400589510909 26.08516552429732  C 33.26400589510909 25.854251400355526  33.394954706410694 25.64331357216244  33.60190083007812 25.540870215074158  C 35.504307972803396 24.540887048785613  36.69564484214311 22.56877812499543  36.69564484214311 20.41956462037922  C 36.69564484214311 17.22420405939723  34.1052930929124 14.633852518133104  30.909932275390624 14.633852518133104  C 29.972020750710385 14.633852518133104  29.048169485142914 14.861868849075597  28.217963720703132 15.29825902568428  C 28.129485422807022 15.345179331226374  28.030860497681175 15.369711830646219  27.93071098632813 15.369711830646219  C 27.592088970353753 15.369711830646219  27.317581588715537 15.09520447104685  27.317581588715537 14.756582482258763  C 27.317581588715537 14.529626582637633  27.442951299529284 14.32123537435299  27.64345825195313 14.214905938833244  C 28.652470618562482 13.681829526498776  29.776384774569692 13.403187481787807  30.91755805807545 13.403187481787807  C 34.78850358599395 13.403187481787807  37.9265249526067 16.541208596464273  37.9265249526067 20.412153813603624  C 37.9265249526067 21.12165371113775  37.81879716760814 21.82704092771399  37.607024755859385 22.504198632701712  C 37.05898627529467 24.285299943209544  35.81642119675984 25.770460941315363  34.15999184570313 26.62422335075331  Z M 35.34183168945312 13.230039465168952  C 35.24208058390606 13.28604190469187  35.127160216221455 13.309025976383513  35.01354287109374 13.295697223569485  C 34.78351940081418 13.304672437898157  34.57034773599452 13.17547751445249  34.471866259765626 12.967408431566806  C 34.42075804904822 12.878064996274027  34.393872891129504 12.776921478284825  34.393872891129504 12.673992870924025  C 34.393872891129504 12.451153470426494  34.51923247846714 12.247264261474871  34.71808291015624 12.146686378317918  C 36.6363673682763 11.154228918671985  37.840964857076244 9.174743827141072  37.840964857076244 7.0149321500258335  C 37.840964857076244 4.479870880282027  36.18849419815581 2.2408939980569937  33.76604526367188 1.4937141378895382  C 32.30400290380308 1.0349268819007267  30.71893546324886 1.1827876300069362  29.366974707031247 1.9040751400999218  C 29.06237643682836 2.051577773159396  28.69559195916147 1.936508154090939  28.52983813476562 1.6414441064977758  C 28.382335489863884 1.3368458607495863  28.497405118170718 0.9700614125300088  28.792469189453122 0.8043076014417233  C 30.441105648983978 -0.0623454380034802  32.36784934336668 -0.2337428589861742  34.14357739257812 0.3282888408308037  C 35.93581298122443 0.8613366798741227  37.434656673577926 2.099511777001421  38.29643134765625 3.7589069736064724  C 38.825038521797346 4.764604918296242  39.10123761722346 5.883731869616554  39.10123761722346 7.01988936558235  C 39.10123761722346 9.628194214542452  37.65286660546481 12.020753452817084  35.34183168945312 13.230039465168952  Z M 12.607829052734374 37.91735877220801  C 12.497224621372528 37.99445971754436  12.365100738818981 38.03467132257266  12.230296875 38.03225983720192  C 12.041148373735677 38.02828023192637  11.862410550263808 37.94486926733308  11.737863623046874 37.8024577072141  C 11.540123374152282 37.52770148416544  11.590472120674558 37.14648948817574  11.852764697265625 36.93249229854372  L 23.19514438476563 28.11793748864285  C 23.300501234507067 28.032274217454457  23.4321460161147 27.985509200702385  23.567933581806226 27.985509200702385  C 23.758717470748067 27.985509200702385  23.93776401728092 28.07762023861215  24.048695361328125 28.232838553636746  C 24.133931279047943 28.340229323414047  24.180322549647407 28.473301111294525  24.180322549647407 28.610406683523852  C 24.180322549647407 28.79588152489517  24.095569940157322 28.971189502984764  23.950208740234373 29.086389510499966  L 12.607829052734374 37.91735877220801  Z M 7.47010859375 9.405474733161947  C 7.47010859375 11.3182837132068  5.9194704129117515 12.868921769551944  4.006661279296875 12.868921769551944  C 2.093852145681998 12.868921769551944  0.5432139648437513 11.318283713206798  0.5432139648437513 9.405474733161947  C 0.5432139648437513 7.492665753117094  2.093852145681998 5.942027696771948  4.006661279296875 5.942027696771948  C 5.9194704129117515 5.942027696771948  7.47010859375 7.492665753117094  7.47010859375 9.405474733161947  Z M 6.239025439453124 9.405474733161947  C 6.239025439453124 8.172574150422346  5.239561961019998 7.17311075223122  4.006661279296875 7.17311075223122  C 2.7737605975737507 7.17311075223122  1.7742971191406243 8.172574150422346  1.7742971191406243 9.405474733161947  C 1.7742971191406243 10.638375315901545  2.7737605975737507 11.637838714092672  4.006661279296875 11.637838714092672  C 5.239561961019998 11.637838714092672  6.239025439453124 10.638375315901545  6.239025439453124 9.405474733161947  Z M 4.269346736536768 22.45500968014843  C 4.263857073129985 22.45500968014843  4.258367424672574 22.45499156203639  4.252877880859375 22.454955326108333  C 2.8658646694907466 22.454955326108333  1.74146826171875 21.330559008608592  1.74146826171875 19.943545859768303  C 1.74146826171875 18.55653271092801  2.865864669490744 17.432136393428266  4.2528779296875 17.432136393428266  C 5.639891189884258 17.432136393428266  6.764287597656251 18.55653271092801  6.764287597656251 19.943545859768303  C 6.764323833373751 19.949035386971943  6.764341951380519 19.954525018819396  6.764341951380519 19.96001466561556  C 6.764341951380519 21.33796236304592  5.647294544595775 22.45500968014843  4.269346736536768 22.45500968014843  Z M 5.53320439453125 19.943545859768292  C 5.53320439453125 19.236441108233258  4.959982689164377 18.66321944888753  4.252877880859376 18.66321944888753  C 3.545773072554372 18.66321944888753  2.9725513671875 19.236441108233258  2.9725513671875 19.943545859768292  C 2.9725513671875 20.65065061130333  3.545773072554372 21.223872270649064  4.252877880859376 21.223872270649064  C 4.959982689164381 21.223872270649064  5.53320439453125 20.65065061130334  5.53320439453125 19.943545859768292  Z M 31.51726665039063 42.03738349025962  C 31.51726665039063 43.424396639099925  30.392870242618642 44.548792956599655  29.005856982421882 44.548792956599655  C 27.618843722225126 44.548792956599655  26.494447314453133 43.424396639099925  26.494447314453133 42.03738349025962  C 26.494447314453133 40.65037034141933  27.618843722225126 39.52597402391959  29.005856982421882 39.52597402391959  C 30.392870242618642 39.52597402391959  31.51726665039063 40.65037034141933  31.51726665039063 42.03738349025962  Z M 30.28618344726563 42.03738349025962  C 30.28618344726563 41.330278757793145  29.712961771658314 40.75705710634588  29.005856982421875 40.75705707937886  C 28.29875212528875 40.75705707937886  27.72553041992188 41.33027873872458  27.72553041992188 42.03738349025962  C 27.72553041992188 42.74448824179466  28.29875212528875 43.31770990114039  29.005856933593755 43.31770990114039  C 29.71296174189876 43.31770990114039  30.28618344726563 42.74448824179466  30.28618344726563 42.03738349025962  Z M 37.62343920898437 41.57777913262774  C 37.52099695008499 41.714940319215934  37.36668275772103 41.80396771104738  37.196663671875 41.823995714422715  C 36.99963394884757 41.8215187598205  36.816051376635315 41.72360806735566  36.70423041992188 41.56136468082058  L 35.35824614257813 39.67370394369969  C 35.20230303020102 39.464270686444635  35.20230303020102 39.177316261527906  35.35824614257813 38.96788300427284  L 36.65498710937501 37.06380786417292  C 36.76988818359376 36.89966344375752  36.9832759765625 36.86683458897131  37.14742036132813 36.80117678174265  C 37.34957335709084 36.8010909804948  37.53923213498802 36.89897938528557  37.656268066406255 37.06380786417292  L 39.00225234375001 38.95146855246568  C 39.151022247142784 39.16923037209949  39.151022247142784 39.45594212406589  39.00225234375 39.67370394369971  L 37.62343920898437 41.57777913262774  Z M 37.213078125 38.557521953234335  L 36.654987109375 39.39465845829039  L 37.24590703125 40.21538051153928  L 37.803998046875 39.39465845829039  L 37.213078125 38.557521953234335  Z " fill-rule="evenodd" />
    </mask>
  </defs>
  <g transform="matrix(1 0 0 1 -37 -919 )">
    <path d="M 8.914579541015625 49.9983873921254  C 8.813584478220086 50.00556931825481  8.712326168284841 49.988692923464455  8.619119580078126 49.9491440367039  C 8.543457817134476 49.966105845358015  8.46497914575615 49.966105845358015  8.3893173828125 49.9491440367039  L 5.2213299804687505 48.65240322284409  C 4.991350700739098 48.554405716958726  4.842096262391269 48.32856635949362  4.842096262391269 48.07857841624016  C 4.842096262391269 47.99366969240043  4.859431906984469 47.909654944259614  4.893041162109375 47.83168116959519  C 4.98613405886797 47.602848383179456  5.208561017681442 47.45320692814439  5.455605021805944 47.45320692814439  C 5.5387724692206035 47.45320692814439  5.6210536938445035 47.4702883015377  5.697348828125001 47.503392328764406  L 8.159515185546876 48.5210876572149  L 8.9802373046875 44.31899077778372  L 5.582447753906251 42.18511345886785  L 1.6265671386718754 45.369515009848534  C 1.5191763641616172 45.454750908897715  1.3861045750642544 45.50114216874606  1.248999002226375 45.50114216874606  C 1.0635241325468483 45.50114216874606  0.8882161292250972 45.416389553856284  0.7730161132812503 45.27102834783368  C 0.5393815668217572 45.03447432834383  0.5393815668217572 44.65403145928841  0.7730161132812503 44.417477439798574  L 5.1392578125 41.036102564788166  C 5.351907364831771 40.8901867377623  5.632429256261981 40.8901867377623  5.845078808593751 41.036102564788166  L 9.981518261718751 43.514683176342  C 10.209128400256082 43.64887297448416  10.32749652247394 43.91191322278767  10.27697822265625 44.17126080917548  L 9.226453955078124 49.57161188927974  C 9.190891478666627 49.753064605436116  9.076655831392209 49.90938706604896  8.914579541015625 49.9983873921254  Z M 24.393398681640626 13.837373791409066  C 24.299782113789064 13.89482563816696  24.191293745769514 13.923375207300278  24.08152426757812 13.919446001616764  C 23.844104058650903 13.923525910857837  23.626081496491338 13.788864921222732  23.523433203125 13.574742708978798  C 23.474616333228006 13.486924827940195  23.44899742202912 13.388109841661713  23.44899742202912 13.287635632861654  C 23.44899742202912 13.0596316067243  23.58017112513615 12.85196880809482  23.786064306640622 12.754020655729912  C 25.68685688101133 11.751097148587338  26.87639847244703 9.778483943192136  26.87639847244703 7.6293289018281945  C 26.87639847244703 5.097782316190343  25.23293523056406 2.859298913505541  22.81761220703125 2.101048464129652  C 21.350178604105132 1.6413913158328495  19.759722193508797 1.7892032289478894  18.402127197265624 2.511409466340036  C 18.098261379544997 2.66807517232808  17.724909049988167 2.550945051081668  17.564990625 2.2487784327378897  C 17.417487988124154 1.9441801745017688  17.5325576390839 1.57739572226825  17.827621728515627 1.4116419276818373  C 18.839319099753936 0.8770594749247048  19.9662593516138 0.59762675151917  21.110510205078125 0.59762675151917  C 24.991349791488645 0.59762675151917  28.137391877258125 3.743668584708429  28.137391877258125 7.624507859545451  C 28.137391877258125 10.229324897966745  26.696466015104452 12.620429457076202  24.393398681640626 13.837373791409066  Z M 34.15999184570313 26.62422335075331  C 34.07586612226484 26.67576465041882  33.97958077290602 26.70408387151809  33.88094633789063 26.706295560961006  C 33.65412567025467 26.70350216527313  33.44670203891739 26.577790879113532  33.3392697265625 26.37800672013021  C 33.28989614922695 26.288298638462138  33.26400589510909 26.187563227709287  33.26400589510909 26.08516552429732  C 33.26400589510909 25.854251400355526  33.394954706410694 25.64331357216244  33.60190083007812 25.540870215074158  C 35.504307972803396 24.540887048785613  36.69564484214311 22.56877812499543  36.69564484214311 20.41956462037922  C 36.69564484214311 17.22420405939723  34.1052930929124 14.633852518133104  30.909932275390624 14.633852518133104  C 29.972020750710385 14.633852518133104  29.048169485142914 14.861868849075597  28.217963720703132 15.29825902568428  C 28.129485422807022 15.345179331226374  28.030860497681175 15.369711830646219  27.93071098632813 15.369711830646219  C 27.592088970353753 15.369711830646219  27.317581588715537 15.09520447104685  27.317581588715537 14.756582482258763  C 27.317581588715537 14.529626582637633  27.442951299529284 14.32123537435299  27.64345825195313 14.214905938833244  C 28.652470618562482 13.681829526498776  29.776384774569692 13.403187481787807  30.91755805807545 13.403187481787807  C 34.78850358599395 13.403187481787807  37.9265249526067 16.541208596464273  37.9265249526067 20.412153813603624  C 37.9265249526067 21.12165371113775  37.81879716760814 21.82704092771399  37.607024755859385 22.504198632701712  C 37.05898627529467 24.285299943209544  35.81642119675984 25.770460941315363  34.15999184570313 26.62422335075331  Z M 35.34183168945312 13.230039465168952  C 35.24208058390606 13.28604190469187  35.127160216221455 13.309025976383513  35.01354287109374 13.295697223569485  C 34.78351940081418 13.304672437898157  34.57034773599452 13.17547751445249  34.471866259765626 12.967408431566806  C 34.42075804904822 12.878064996274027  34.393872891129504 12.776921478284825  34.393872891129504 12.673992870924025  C 34.393872891129504 12.451153470426494  34.51923247846714 12.247264261474871  34.71808291015624 12.146686378317918  C 36.6363673682763 11.154228918671985  37.840964857076244 9.174743827141072  37.840964857076244 7.0149321500258335  C 37.840964857076244 4.479870880282027  36.18849419815581 2.2408939980569937  33.76604526367188 1.4937141378895382  C 32.30400290380308 1.0349268819007267  30.71893546324886 1.1827876300069362  29.366974707031247 1.9040751400999218  C 29.06237643682836 2.051577773159396  28.69559195916147 1.936508154090939  28.52983813476562 1.6414441064977758  C 28.382335489863884 1.3368458607495863  28.497405118170718 0.9700614125300088  28.792469189453122 0.8043076014417233  C 30.441105648983978 -0.0623454380034802  32.36784934336668 -0.2337428589861742  34.14357739257812 0.3282888408308037  C 35.93581298122443 0.8613366798741227  37.434656673577926 2.099511777001421  38.29643134765625 3.7589069736064724  C 38.825038521797346 4.764604918296242  39.10123761722346 5.883731869616554  39.10123761722346 7.01988936558235  C 39.10123761722346 9.628194214542452  37.65286660546481 12.020753452817084  35.34183168945312 13.230039465168952  Z M 12.607829052734374 37.91735877220801  C 12.497224621372528 37.99445971754436  12.365100738818981 38.03467132257266  12.230296875 38.03225983720192  C 12.041148373735677 38.02828023192637  11.862410550263808 37.94486926733308  11.737863623046874 37.8024577072141  C 11.540123374152282 37.52770148416544  11.590472120674558 37.14648948817574  11.852764697265625 36.93249229854372  L 23.19514438476563 28.11793748864285  C 23.300501234507067 28.032274217454457  23.4321460161147 27.985509200702385  23.567933581806226 27.985509200702385  C 23.758717470748067 27.985509200702385  23.93776401728092 28.07762023861215  24.048695361328125 28.232838553636746  C 24.133931279047943 28.340229323414047  24.180322549647407 28.473301111294525  24.180322549647407 28.610406683523852  C 24.180322549647407 28.79588152489517  24.095569940157322 28.971189502984764  23.950208740234373 29.086389510499966  L 12.607829052734374 37.91735877220801  Z M 7.47010859375 9.405474733161947  C 7.47010859375 11.3182837132068  5.9194704129117515 12.868921769551944  4.006661279296875 12.868921769551944  C 2.093852145681998 12.868921769551944  0.5432139648437513 11.318283713206798  0.5432139648437513 9.405474733161947  C 0.5432139648437513 7.492665753117094  2.093852145681998 5.942027696771948  4.006661279296875 5.942027696771948  C 5.9194704129117515 5.942027696771948  7.47010859375 7.492665753117094  7.47010859375 9.405474733161947  Z M 6.239025439453124 9.405474733161947  C 6.239025439453124 8.172574150422346  5.239561961019998 7.17311075223122  4.006661279296875 7.17311075223122  C 2.7737605975737507 7.17311075223122  1.7742971191406243 8.172574150422346  1.7742971191406243 9.405474733161947  C 1.7742971191406243 10.638375315901545  2.7737605975737507 11.637838714092672  4.006661279296875 11.637838714092672  C 5.239561961019998 11.637838714092672  6.239025439453124 10.638375315901545  6.239025439453124 9.405474733161947  Z M 4.269346736536768 22.45500968014843  C 4.263857073129985 22.45500968014843  4.258367424672574 22.45499156203639  4.252877880859375 22.454955326108333  C 2.8658646694907466 22.454955326108333  1.74146826171875 21.330559008608592  1.74146826171875 19.943545859768303  C 1.74146826171875 18.55653271092801  2.865864669490744 17.432136393428266  4.2528779296875 17.432136393428266  C 5.639891189884258 17.432136393428266  6.764287597656251 18.55653271092801  6.764287597656251 19.943545859768303  C 6.764323833373751 19.949035386971943  6.764341951380519 19.954525018819396  6.764341951380519 19.96001466561556  C 6.764341951380519 21.33796236304592  5.647294544595775 22.45500968014843  4.269346736536768 22.45500968014843  Z M 5.53320439453125 19.943545859768292  C 5.53320439453125 19.236441108233258  4.959982689164377 18.66321944888753  4.252877880859376 18.66321944888753  C 3.545773072554372 18.66321944888753  2.9725513671875 19.236441108233258  2.9725513671875 19.943545859768292  C 2.9725513671875 20.65065061130333  3.545773072554372 21.223872270649064  4.252877880859376 21.223872270649064  C 4.959982689164381 21.223872270649064  5.53320439453125 20.65065061130334  5.53320439453125 19.943545859768292  Z M 31.51726665039063 42.03738349025962  C 31.51726665039063 43.424396639099925  30.392870242618642 44.548792956599655  29.005856982421882 44.548792956599655  C 27.618843722225126 44.548792956599655  26.494447314453133 43.424396639099925  26.494447314453133 42.03738349025962  C 26.494447314453133 40.65037034141933  27.618843722225126 39.52597402391959  29.005856982421882 39.52597402391959  C 30.392870242618642 39.52597402391959  31.51726665039063 40.65037034141933  31.51726665039063 42.03738349025962  Z M 30.28618344726563 42.03738349025962  C 30.28618344726563 41.330278757793145  29.712961771658314 40.75705710634588  29.005856982421875 40.75705707937886  C 28.29875212528875 40.75705707937886  27.72553041992188 41.33027873872458  27.72553041992188 42.03738349025962  C 27.72553041992188 42.74448824179466  28.29875212528875 43.31770990114039  29.005856933593755 43.31770990114039  C 29.71296174189876 43.31770990114039  30.28618344726563 42.74448824179466  30.28618344726563 42.03738349025962  Z M 37.62343920898437 41.57777913262774  C 37.52099695008499 41.714940319215934  37.36668275772103 41.80396771104738  37.196663671875 41.823995714422715  C 36.99963394884757 41.8215187598205  36.816051376635315 41.72360806735566  36.70423041992188 41.56136468082058  L 35.35824614257813 39.67370394369969  C 35.20230303020102 39.464270686444635  35.20230303020102 39.177316261527906  35.35824614257813 38.96788300427284  L 36.65498710937501 37.06380786417292  C 36.76988818359376 36.89966344375752  36.9832759765625 36.86683458897131  37.14742036132813 36.80117678174265  C 37.34957335709084 36.8010909804948  37.53923213498802 36.89897938528557  37.656268066406255 37.06380786417292  L 39.00225234375001 38.95146855246568  C 39.151022247142784 39.16923037209949  39.151022247142784 39.45594212406589  39.00225234375 39.67370394369971  L 37.62343920898437 41.57777913262774  Z M 37.213078125 38.557521953234335  L 36.654987109375 39.39465845829039  L 37.24590703125 40.21538051153928  L 37.803998046875 39.39465845829039  L 37.213078125 38.557521953234335  Z " fill-rule="nonzero" fill="rgba(255, 255, 255, 1)" stroke="none" transform="matrix(1 0 0 1 37 919 )" class="fill" />
    <path d="M 8.914579541015625 49.9983873921254  C 8.813584478220086 50.00556931825481  8.712326168284841 49.988692923464455  8.619119580078126 49.9491440367039  C 8.543457817134476 49.966105845358015  8.46497914575615 49.966105845358015  8.3893173828125 49.9491440367039  L 5.2213299804687505 48.65240322284409  C 4.991350700739098 48.554405716958726  4.842096262391269 48.32856635949362  4.842096262391269 48.07857841624016  C 4.842096262391269 47.99366969240043  4.859431906984469 47.909654944259614  4.893041162109375 47.83168116959519  C 4.98613405886797 47.602848383179456  5.208561017681442 47.45320692814439  5.455605021805944 47.45320692814439  C 5.5387724692206035 47.45320692814439  5.6210536938445035 47.4702883015377  5.697348828125001 47.503392328764406  L 8.159515185546876 48.5210876572149  L 8.9802373046875 44.31899077778372  L 5.582447753906251 42.18511345886785  L 1.6265671386718754 45.369515009848534  C 1.5191763641616172 45.454750908897715  1.3861045750642544 45.50114216874606  1.248999002226375 45.50114216874606  C 1.0635241325468483 45.50114216874606  0.8882161292250972 45.416389553856284  0.7730161132812503 45.27102834783368  C 0.5393815668217572 45.03447432834383  0.5393815668217572 44.65403145928841  0.7730161132812503 44.417477439798574  L 5.1392578125 41.036102564788166  C 5.351907364831771 40.8901867377623  5.632429256261981 40.8901867377623  5.845078808593751 41.036102564788166  L 9.981518261718751 43.514683176342  C 10.209128400256082 43.64887297448416  10.32749652247394 43.91191322278767  10.27697822265625 44.17126080917548  L 9.226453955078124 49.57161188927974  C 9.190891478666627 49.753064605436116  9.076655831392209 49.90938706604896  8.914579541015625 49.9983873921254  Z " stroke-width="0" stroke-dasharray="0" stroke="rgba(255, 255, 255, 0)" fill="none" transform="matrix(1 0 0 1 37 919 )" class="stroke" mask="url(#Clip10347)" />
    <path d="M 24.393398681640626 13.837373791409066  C 24.299782113789064 13.89482563816696  24.191293745769514 13.923375207300278  24.08152426757812 13.919446001616764  C 23.844104058650903 13.923525910857837  23.626081496491338 13.788864921222732  23.523433203125 13.574742708978798  C 23.474616333228006 13.486924827940195  23.44899742202912 13.388109841661713  23.44899742202912 13.287635632861654  C 23.44899742202912 13.0596316067243  23.58017112513615 12.85196880809482  23.786064306640622 12.754020655729912  C 25.68685688101133 11.751097148587338  26.87639847244703 9.778483943192136  26.87639847244703 7.6293289018281945  C 26.87639847244703 5.097782316190343  25.23293523056406 2.859298913505541  22.81761220703125 2.101048464129652  C 21.350178604105132 1.6413913158328495  19.759722193508797 1.7892032289478894  18.402127197265624 2.511409466340036  C 18.098261379544997 2.66807517232808  17.724909049988167 2.550945051081668  17.564990625 2.2487784327378897  C 17.417487988124154 1.9441801745017688  17.5325576390839 1.57739572226825  17.827621728515627 1.4116419276818373  C 18.839319099753936 0.8770594749247048  19.9662593516138 0.59762675151917  21.110510205078125 0.59762675151917  C 24.991349791488645 0.59762675151917  28.137391877258125 3.743668584708429  28.137391877258125 7.624507859545451  C 28.137391877258125 10.229324897966745  26.696466015104452 12.620429457076202  24.393398681640626 13.837373791409066  Z " stroke-width="0" stroke-dasharray="0" stroke="rgba(255, 255, 255, 0)" fill="none" transform="matrix(1 0 0 1 37 919 )" class="stroke" mask="url(#Clip10347)" />
    <path d="M 34.15999184570313 26.62422335075331  C 34.07586612226484 26.67576465041882  33.97958077290602 26.70408387151809  33.88094633789063 26.706295560961006  C 33.65412567025467 26.70350216527313  33.44670203891739 26.577790879113532  33.3392697265625 26.37800672013021  C 33.28989614922695 26.288298638462138  33.26400589510909 26.187563227709287  33.26400589510909 26.08516552429732  C 33.26400589510909 25.854251400355526  33.394954706410694 25.64331357216244  33.60190083007812 25.540870215074158  C 35.504307972803396 24.540887048785613  36.69564484214311 22.56877812499543  36.69564484214311 20.41956462037922  C 36.69564484214311 17.22420405939723  34.1052930929124 14.633852518133104  30.909932275390624 14.633852518133104  C 29.972020750710385 14.633852518133104  29.048169485142914 14.861868849075597  28.217963720703132 15.29825902568428  C 28.129485422807022 15.345179331226374  28.030860497681175 15.369711830646219  27.93071098632813 15.369711830646219  C 27.592088970353753 15.369711830646219  27.317581588715537 15.09520447104685  27.317581588715537 14.756582482258763  C 27.317581588715537 14.529626582637633  27.442951299529284 14.32123537435299  27.64345825195313 14.214905938833244  C 28.652470618562482 13.681829526498776  29.776384774569692 13.403187481787807  30.91755805807545 13.403187481787807  C 34.78850358599395 13.403187481787807  37.9265249526067 16.541208596464273  37.9265249526067 20.412153813603624  C 37.9265249526067 21.12165371113775  37.81879716760814 21.82704092771399  37.607024755859385 22.504198632701712  C 37.05898627529467 24.285299943209544  35.81642119675984 25.770460941315363  34.15999184570313 26.62422335075331  Z " stroke-width="0" stroke-dasharray="0" stroke="rgba(255, 255, 255, 0)" fill="none" transform="matrix(1 0 0 1 37 919 )" class="stroke" mask="url(#Clip10347)" />
    <path d="M 35.34183168945312 13.230039465168952  C 35.24208058390606 13.28604190469187  35.127160216221455 13.309025976383513  35.01354287109374 13.295697223569485  C 34.78351940081418 13.304672437898157  34.57034773599452 13.17547751445249  34.471866259765626 12.967408431566806  C 34.42075804904822 12.878064996274027  34.393872891129504 12.776921478284825  34.393872891129504 12.673992870924025  C 34.393872891129504 12.451153470426494  34.51923247846714 12.247264261474871  34.71808291015624 12.146686378317918  C 36.6363673682763 11.154228918671985  37.840964857076244 9.174743827141072  37.840964857076244 7.0149321500258335  C 37.840964857076244 4.479870880282027  36.18849419815581 2.2408939980569937  33.76604526367188 1.4937141378895382  C 32.30400290380308 1.0349268819007267  30.71893546324886 1.1827876300069362  29.366974707031247 1.9040751400999218  C 29.06237643682836 2.051577773159396  28.69559195916147 1.936508154090939  28.52983813476562 1.6414441064977758  C 28.382335489863884 1.3368458607495863  28.497405118170718 0.9700614125300088  28.792469189453122 0.8043076014417233  C 30.441105648983978 -0.0623454380034802  32.36784934336668 -0.2337428589861742  34.14357739257812 0.3282888408308037  C 35.93581298122443 0.8613366798741227  37.434656673577926 2.099511777001421  38.29643134765625 3.7589069736064724  C 38.825038521797346 4.764604918296242  39.10123761722346 5.883731869616554  39.10123761722346 7.01988936558235  C 39.10123761722346 9.628194214542452  37.65286660546481 12.020753452817084  35.34183168945312 13.230039465168952  Z " stroke-width="0" stroke-dasharray="0" stroke="rgba(255, 255, 255, 0)" fill="none" transform="matrix(1 0 0 1 37 919 )" class="stroke" mask="url(#Clip10347)" />
    <path d="M 12.607829052734374 37.91735877220801  C 12.497224621372528 37.99445971754436  12.365100738818981 38.03467132257266  12.230296875 38.03225983720192  C 12.041148373735677 38.02828023192637  11.862410550263808 37.94486926733308  11.737863623046874 37.8024577072141  C 11.540123374152282 37.52770148416544  11.590472120674558 37.14648948817574  11.852764697265625 36.93249229854372  L 23.19514438476563 28.11793748864285  C 23.300501234507067 28.032274217454457  23.4321460161147 27.985509200702385  23.567933581806226 27.985509200702385  C 23.758717470748067 27.985509200702385  23.93776401728092 28.07762023861215  24.048695361328125 28.232838553636746  C 24.133931279047943 28.340229323414047  24.180322549647407 28.473301111294525  24.180322549647407 28.610406683523852  C 24.180322549647407 28.79588152489517  24.095569940157322 28.971189502984764  23.950208740234373 29.086389510499966  L 12.607829052734374 37.91735877220801  Z " stroke-width="0" stroke-dasharray="0" stroke="rgba(255, 255, 255, 0)" fill="none" transform="matrix(1 0 0 1 37 919 )" class="stroke" mask="url(#Clip10347)" />
    <path d="M 7.47010859375 9.405474733161947  C 7.47010859375 11.3182837132068  5.9194704129117515 12.868921769551944  4.006661279296875 12.868921769551944  C 2.093852145681998 12.868921769551944  0.5432139648437513 11.318283713206798  0.5432139648437513 9.405474733161947  C 0.5432139648437513 7.492665753117094  2.093852145681998 5.942027696771948  4.006661279296875 5.942027696771948  C 5.9194704129117515 5.942027696771948  7.47010859375 7.492665753117094  7.47010859375 9.405474733161947  Z " stroke-width="0" stroke-dasharray="0" stroke="rgba(255, 255, 255, 0)" fill="none" transform="matrix(1 0 0 1 37 919 )" class="stroke" mask="url(#Clip10347)" />
    <path d="M 6.239025439453124 9.405474733161947  C 6.239025439453124 8.172574150422346  5.239561961019998 7.17311075223122  4.006661279296875 7.17311075223122  C 2.7737605975737507 7.17311075223122  1.7742971191406243 8.172574150422346  1.7742971191406243 9.405474733161947  C 1.7742971191406243 10.638375315901545  2.7737605975737507 11.637838714092672  4.006661279296875 11.637838714092672  C 5.239561961019998 11.637838714092672  6.239025439453124 10.638375315901545  6.239025439453124 9.405474733161947  Z " stroke-width="0" stroke-dasharray="0" stroke="rgba(255, 255, 255, 0)" fill="none" transform="matrix(1 0 0 1 37 919 )" class="stroke" mask="url(#Clip10347)" />
    <path d="M 4.269346736536768 22.45500968014843  C 4.263857073129985 22.45500968014843  4.258367424672574 22.45499156203639  4.252877880859375 22.454955326108333  C 2.8658646694907466 22.454955326108333  1.74146826171875 21.330559008608592  1.74146826171875 19.943545859768303  C 1.74146826171875 18.55653271092801  2.865864669490744 17.432136393428266  4.2528779296875 17.432136393428266  C 5.639891189884258 17.432136393428266  6.764287597656251 18.55653271092801  6.764287597656251 19.943545859768303  C 6.764323833373751 19.949035386971943  6.764341951380519 19.954525018819396  6.764341951380519 19.96001466561556  C 6.764341951380519 21.33796236304592  5.647294544595775 22.45500968014843  4.269346736536768 22.45500968014843  Z " stroke-width="0" stroke-dasharray="0" stroke="rgba(255, 255, 255, 0)" fill="none" transform="matrix(1 0 0 1 37 919 )" class="stroke" mask="url(#Clip10347)" />
    <path d="M 5.53320439453125 19.943545859768292  C 5.53320439453125 19.236441108233258  4.959982689164377 18.66321944888753  4.252877880859376 18.66321944888753  C 3.545773072554372 18.66321944888753  2.9725513671875 19.236441108233258  2.9725513671875 19.943545859768292  C 2.9725513671875 20.65065061130333  3.545773072554372 21.223872270649064  4.252877880859376 21.223872270649064  C 4.959982689164381 21.223872270649064  5.53320439453125 20.65065061130334  5.53320439453125 19.943545859768292  Z " stroke-width="0" stroke-dasharray="0" stroke="rgba(255, 255, 255, 0)" fill="none" transform="matrix(1 0 0 1 37 919 )" class="stroke" mask="url(#Clip10347)" />
    <path d="M 31.51726665039063 42.03738349025962  C 31.51726665039063 43.424396639099925  30.392870242618642 44.548792956599655  29.005856982421882 44.548792956599655  C 27.618843722225126 44.548792956599655  26.494447314453133 43.424396639099925  26.494447314453133 42.03738349025962  C 26.494447314453133 40.65037034141933  27.618843722225126 39.52597402391959  29.005856982421882 39.52597402391959  C 30.392870242618642 39.52597402391959  31.51726665039063 40.65037034141933  31.51726665039063 42.03738349025962  Z " stroke-width="0" stroke-dasharray="0" stroke="rgba(255, 255, 255, 0)" fill="none" transform="matrix(1 0 0 1 37 919 )" class="stroke" mask="url(#Clip10347)" />
    <path d="M 30.28618344726563 42.03738349025962  C 30.28618344726563 41.330278757793145  29.712961771658314 40.75705710634588  29.005856982421875 40.75705707937886  C 28.29875212528875 40.75705707937886  27.72553041992188 41.33027873872458  27.72553041992188 42.03738349025962  C 27.72553041992188 42.74448824179466  28.29875212528875 43.31770990114039  29.005856933593755 43.31770990114039  C 29.71296174189876 43.31770990114039  30.28618344726563 42.74448824179466  30.28618344726563 42.03738349025962  Z " stroke-width="0" stroke-dasharray="0" stroke="rgba(255, 255, 255, 0)" fill="none" transform="matrix(1 0 0 1 37 919 )" class="stroke" mask="url(#Clip10347)" />
    <path d="M 37.62343920898437 41.57777913262774  C 37.52099695008499 41.714940319215934  37.36668275772103 41.80396771104738  37.196663671875 41.823995714422715  C 36.99963394884757 41.8215187598205  36.816051376635315 41.72360806735566  36.70423041992188 41.56136468082058  L 35.35824614257813 39.67370394369969  C 35.20230303020102 39.464270686444635  35.20230303020102 39.177316261527906  35.35824614257813 38.96788300427284  L 36.65498710937501 37.06380786417292  C 36.76988818359376 36.89966344375752  36.9832759765625 36.86683458897131  37.14742036132813 36.80117678174265  C 37.34957335709084 36.8010909804948  37.53923213498802 36.89897938528557  37.656268066406255 37.06380786417292  L 39.00225234375001 38.95146855246568  C 39.151022247142784 39.16923037209949  39.151022247142784 39.45594212406589  39.00225234375 39.67370394369971  L 37.62343920898437 41.57777913262774  Z " stroke-width="0" stroke-dasharray="0" stroke="rgba(255, 255, 255, 0)" fill="none" transform="matrix(1 0 0 1 37 919 )" class="stroke" mask="url(#Clip10347)" />
    <path d="M 37.213078125 38.557521953234335  L 36.654987109375 39.39465845829039  L 37.24590703125 40.21538051153928  L 37.803998046875 39.39465845829039  L 37.213078125 38.557521953234335  Z " stroke-width="0" stroke-dasharray="0" stroke="rgba(255, 255, 255, 0)" fill="none" transform="matrix(1 0 0 1 37 919 )" class="stroke" mask="url(#Clip10347)" />
  </g>
</svg>