<?xml version="1.0" encoding="utf-8"?>
<svg version="1.1" xmlns:xlink="http://www.w3.org/1999/xlink" width="38px" height="38px" xmlns="http://www.w3.org/2000/svg">
  <defs>
    <pattern id="BGPattern" patternUnits="userSpaceOnUse" alignment="0 0" imageRepeat="None" />
    <mask fill="white" id="Clip17886">
      <path d="M 0.8766267089843714 18.90327099609374  C 0.8766267089843714 28.993112605003816  9.056059440894604 37.172545336914055  19.14590104980468 37.172545336914055  C 29.235742658714756 37.172545336914055  37.41517539062499 28.993112605003816  37.41517539062499 18.90327099609374  C 37.41517539062499 8.813429387183671  29.235742658714756 0.6339966552734353  19.14590104980468 0.6339966552734353  C 9.056059440894604 0.6339966552734353  0.8766267089843714 8.813429387183671  0.8766267089843714 18.90327099609374  Z " fill-rule="evenodd" />
    </mask>
  </defs>
  <g transform="matrix(1 0 0 1 -39 -746 )">
    <path d="M 0.8766267089843714 18.90327099609374  C 0.8766267089843714 28.993112605003816  9.056059440894604 37.172545336914055  19.14590104980468 37.172545336914055  C 29.235742658714756 37.172545336914055  37.41517539062499 28.993112605003816  37.41517539062499 18.90327099609374  C 37.41517539062499 8.813429387183671  29.235742658714756 0.6339966552734353  19.14590104980468 0.6339966552734353  C 9.056059440894604 0.6339966552734353  0.8766267089843714 8.813429387183671  0.8766267089843714 18.90327099609374  Z " fill-rule="nonzero" fill="rgba(51, 51, 51, 1)" stroke="none" transform="matrix(1 0 0 1 39 746 )" class="fill" />
    <path d="M 0.8766267089843714 18.90327099609374  C 0.8766267089843714 28.993112605003816  9.056059440894604 37.172545336914055  19.14590104980468 37.172545336914055  C 29.235742658714756 37.172545336914055  37.41517539062499 28.993112605003816  37.41517539062499 18.90327099609374  C 37.41517539062499 8.813429387183671  29.235742658714756 0.6339966552734353  19.14590104980468 0.6339966552734353  C 9.056059440894604 0.6339966552734353  0.8766267089843714 8.813429387183671  0.8766267089843714 18.90327099609374  Z " stroke-width="0" stroke-dasharray="0" stroke="rgba(255, 255, 255, 0)" fill="none" transform="matrix(1 0 0 1 39 746 )" class="stroke" mask="url(#Clip17886)" />
  </g>
</svg>