<?xml version="1.0" encoding="utf-8"?>
<svg version="1.1" xmlns:xlink="http://www.w3.org/1999/xlink" width="38px" height="37px" xmlns="http://www.w3.org/2000/svg">
  <defs>
    <pattern id="BGPattern" patternUnits="userSpaceOnUse" alignment="0 0" imageRepeat="None" />
    <mask fill="white" id="Clip20866">
      <path d="M 0.5937382324218738 18.620382519531248  C 0.5937382324218738 28.710224128441332  8.773170964332108 36.88965686035155  18.863012573242184 36.88965686035155  C 28.952854182152258 36.88965686035155  37.1322869140625 28.710224128441325  37.1322869140625 18.620382519531248  C 37.1322869140625 8.530540910621172  28.952854182152258 0.3511081787109358  18.863012573242184 0.3511081787109358  C 8.773170964332113 0.3511081787109358  0.5937382324218756 8.530540910621172  0.5937382324218756 18.620382519531248  Z " fill-rule="evenodd" />
    </mask>
  </defs>
  <g transform="matrix(1 0 0 1 -36 -743 )">
    <path d="M 0.5937382324218738 18.620382519531248  C 0.5937382324218738 28.710224128441332  8.773170964332108 36.88965686035155  18.863012573242184 36.88965686035155  C 28.952854182152258 36.88965686035155  37.1322869140625 28.710224128441325  37.1322869140625 18.620382519531248  C 37.1322869140625 8.530540910621172  28.952854182152258 0.3511081787109358  18.863012573242184 0.3511081787109358  C 8.773170964332113 0.3511081787109358  0.5937382324218756 8.530540910621172  0.5937382324218756 18.620382519531248  Z " fill-rule="nonzero" fill="rgba(85, 85, 85, 1)" stroke="none" transform="matrix(1 0 0 1 36 743 )" class="fill" />
    <path d="M 0.5937382324218738 18.620382519531248  C 0.5937382324218738 28.710224128441332  8.773170964332108 36.88965686035155  18.863012573242184 36.88965686035155  C 28.952854182152258 36.88965686035155  37.1322869140625 28.710224128441325  37.1322869140625 18.620382519531248  C 37.1322869140625 8.530540910621172  28.952854182152258 0.3511081787109358  18.863012573242184 0.3511081787109358  C 8.773170964332113 0.3511081787109358  0.5937382324218756 8.530540910621172  0.5937382324218756 18.620382519531248  Z " stroke-width="0" stroke-dasharray="0" stroke="rgba(255, 255, 255, 0)" fill="none" transform="matrix(1 0 0 1 36 743 )" class="stroke" mask="url(#Clip20866)" />
  </g>
</svg>