<?xml version="1.0" encoding="utf-8"?>
<svg version="1.1" xmlns:xlink="http://www.w3.org/1999/xlink" width="38px" height="44px" xmlns="http://www.w3.org/2000/svg">
  <defs>
    <pattern id="BGPattern" patternUnits="userSpaceOnUse" alignment="0 0" imageRepeat="None" />
    <mask fill="white" id="Clip6281">
      <path d="M 1.7900100585937488 23.009403417968745  C 1.6903975497064812 23.224036959408615  1.4764600198247413 23.362467134738075  1.2398555175781247 23.365385791015623  C 1.1543540559235383 23.381975511216154  1.0664607389983374 23.381975511216154  0.9809592773437492 23.365385791015623  C 0.7664935741876572 23.268545621456475  0.6286453321759593 23.055051693294352  0.6286453321759593 22.819735828401054  C 0.6286453321759593 22.7284284762125  0.6495297720279254 22.63833075945397  0.689701025390625 22.556335009765625  L 6.142703076171875 10.776556054687497  C 6.2883806646105995 10.475690437738033  6.6477338291900825 10.346323289814293  6.951753857421872 10.485297753906249  C 7.166219560577966 10.582137923465398  7.304067802589661 10.79563185162752  7.304067802589661 11.03094771652082  C 7.304067802589661 11.122255068709375  7.283183362737697 11.212352785467896  7.243012109374998 11.294348535156248  L 1.7900100585937488 23.009403417968745  Z M 12.048773583984378 19.271588964843748  C 11.952365660862588 19.48898373365688  11.736429273814998 19.628707280471804  11.498619091796876 19.6275712890625  C 11.413712622611428 19.649494045138532  11.324629320747949 19.649494045138532  11.239722851562501 19.6275712890625  C 11.025257148406407 19.530731119503354  10.88740890639471 19.31723719134123  10.88740890639471 19.08192132644793  C 10.88740890639471 18.990613974259375  10.908293346246676 18.900516257500847  10.948464599609377 18.8185205078125  L 16.41764765625 7.103465624999999  C 16.562885957993895 6.811487890422878  16.910807821025134 6.68367985210889  17.21051743164063 6.8122073242187495  C 17.51092000650716 6.958067041292078  17.64568395952892 7.312709067988253  17.517956689453126 7.621258105468749  L 12.048773583984378 19.271588964843748  Z M 22.30753715820312 15.533774462890626  C 22.21112923508133 15.75116923170376  21.995192848033742 15.890892778518683  21.757382666015626 15.889756787109377  C 21.677983289065544 15.911831104420685  21.594066808590703 15.91183110442068  21.514667431640625 15.889756787109373  C 21.2142648641473 15.743897089196789  21.079500892622697 15.389255091537338  21.207228125000004 15.080706054687498  L 26.676411230468748 3.2362030273437514  C 26.82798713380037 2.9419744888100547  27.18112748525343 2.814843946089178  27.485461962890614 2.9449447265625004  C 27.699927687628637 3.0417848869473962  27.837775948041518 3.255278826443648  27.837775948041518 3.4905947072311068  C 27.837775948041518 3.581902052630551  27.816891511294234 3.671999762871948  27.77672026367187 3.7539955078125002  L 22.30753715820312 15.533774462890626  Z M 32.58248173828124 11.795960009765624  C 32.48286921526054 12.010593532167062  32.26893168830192 12.149023686617385  32.03232719726562 12.151942333984374  C 31.947735892539683 12.176219904403704  31.858022261757185 12.176219904403705  31.773430957031252 12.151942333984374  C 31.552612266593577 12.06331115977624  31.40789641455821 11.849288016561896  31.40789641455821 11.611346050763256  C 31.40789641455821 11.511675543720512  31.433470629812213 11.413672135170932  31.482172705078128 11.326710546875  L 36.48210634765625 0.5501544921875  C 36.627966064729584 0.24975191732096425  36.982608091425746 0.11498796429921106  37.29115712890624 0.24271523437499992  C 37.59202269994126 0.38839283967720717  37.72138981961512 0.7477459643408828  37.58241538085937 1.0517659667968748  L 32.58248173828124 11.795960009765624  Z M 28.472503906249997 43.17094819335938  L 28.294512744140626 43.18712924804687  L 27.9870734375 43.18712924804687  C 27.695815185546877 43.0900431640625  20.786521728515627 41.06741625976562  20.786521728515627 35.8247673828125  C 20.786521728515627 32.97690874023437  22.000097851562497 31.87659970703125  23.0356828125 31.4397123046875  C 24.83201308722441 30.909975875013206  26.773969589952905 31.297157230855348  28.229788671874992 32.475297265625  C 29.685607753797086 31.297157230855348  31.627564256525588 30.909975875013203  33.42389453125 31.4397123046875  C 34.44329848632812 31.87659970703125  35.67305561523437 32.97690874023437  35.67305561523437 35.8247673828125  C 35.67305561523437 40.98651118164063  28.76376215820312 43.0900431640625  28.472503906249997 43.17094819335938  Z M 27.728177197265623 33.64033032226562  C 26.8362898933853 32.852509979710945  25.697545034252865 32.400445432263375  24.508155224609375 32.36203012695312  C 24.15903792109188 32.36069373300837  23.81293143561852 32.42661878970189  23.488751269531253 32.556202343749995  C 22.50170932617188 32.960727734375  22.000097900390628 34.06103676757812  22.000097851562508 35.79240532226562  C 22.000097851562508 39.837659082031244  27.420737890625006 41.69847583007812  28.229788671875006 41.957372070312495  C 29.03883940429688 41.682294824218744  34.459479492187505 39.74057299804687  34.459479492187505 35.79240532226562  C 34.459479492187505 34.04485571289062  33.941687011718756 32.94454667968749  32.954645068359376 32.556202343749995  C 31.454132257945798 32.17502060699473  29.862775742876636 32.583529740065245  28.731400146484376 33.640330322265626  C 28.613348856721412 33.75251013592578  28.45734803061547 33.81606602739726  28.294512744140626 33.818321484375  C 28.091942232486772 33.81851127750002  27.89421858587026 33.75636956340142  27.728177197265623 33.64033032226562  Z " fill-rule="evenodd" />
    </mask>
  </defs>
  <g transform="matrix(1 0 0 1 -33 -737 )">
    <path d="M 1.7900100585937488 23.009403417968745  C 1.6903975497064812 23.224036959408615  1.4764600198247413 23.362467134738075  1.2398555175781247 23.365385791015623  C 1.1543540559235383 23.381975511216154  1.0664607389983374 23.381975511216154  0.9809592773437492 23.365385791015623  C 0.7664935741876572 23.268545621456475  0.6286453321759593 23.055051693294352  0.6286453321759593 22.819735828401054  C 0.6286453321759593 22.7284284762125  0.6495297720279254 22.63833075945397  0.689701025390625 22.556335009765625  L 6.142703076171875 10.776556054687497  C 6.2883806646105995 10.475690437738033  6.6477338291900825 10.346323289814293  6.951753857421872 10.485297753906249  C 7.166219560577966 10.582137923465398  7.304067802589661 10.79563185162752  7.304067802589661 11.03094771652082  C 7.304067802589661 11.122255068709375  7.283183362737697 11.212352785467896  7.243012109374998 11.294348535156248  L 1.7900100585937488 23.009403417968745  Z M 12.048773583984378 19.271588964843748  C 11.952365660862588 19.48898373365688  11.736429273814998 19.628707280471804  11.498619091796876 19.6275712890625  C 11.413712622611428 19.649494045138532  11.324629320747949 19.649494045138532  11.239722851562501 19.6275712890625  C 11.025257148406407 19.530731119503354  10.88740890639471 19.31723719134123  10.88740890639471 19.08192132644793  C 10.88740890639471 18.990613974259375  10.908293346246676 18.900516257500847  10.948464599609377 18.8185205078125  L 16.41764765625 7.103465624999999  C 16.562885957993895 6.811487890422878  16.910807821025134 6.68367985210889  17.21051743164063 6.8122073242187495  C 17.51092000650716 6.958067041292078  17.64568395952892 7.312709067988253  17.517956689453126 7.621258105468749  L 12.048773583984378 19.271588964843748  Z M 22.30753715820312 15.533774462890626  C 22.21112923508133 15.75116923170376  21.995192848033742 15.890892778518683  21.757382666015626 15.889756787109377  C 21.677983289065544 15.911831104420685  21.594066808590703 15.91183110442068  21.514667431640625 15.889756787109373  C 21.2142648641473 15.743897089196789  21.079500892622697 15.389255091537338  21.207228125000004 15.080706054687498  L 26.676411230468748 3.2362030273437514  C 26.82798713380037 2.9419744888100547  27.18112748525343 2.814843946089178  27.485461962890614 2.9449447265625004  C 27.699927687628637 3.0417848869473962  27.837775948041518 3.255278826443648  27.837775948041518 3.4905947072311068  C 27.837775948041518 3.581902052630551  27.816891511294234 3.671999762871948  27.77672026367187 3.7539955078125002  L 22.30753715820312 15.533774462890626  Z M 32.58248173828124 11.795960009765624  C 32.48286921526054 12.010593532167062  32.26893168830192 12.149023686617385  32.03232719726562 12.151942333984374  C 31.947735892539683 12.176219904403704  31.858022261757185 12.176219904403705  31.773430957031252 12.151942333984374  C 31.552612266593577 12.06331115977624  31.40789641455821 11.849288016561896  31.40789641455821 11.611346050763256  C 31.40789641455821 11.511675543720512  31.433470629812213 11.413672135170932  31.482172705078128 11.326710546875  L 36.48210634765625 0.5501544921875  C 36.627966064729584 0.24975191732096425  36.982608091425746 0.11498796429921106  37.29115712890624 0.24271523437499992  C 37.59202269994126 0.38839283967720717  37.72138981961512 0.7477459643408828  37.58241538085937 1.0517659667968748  L 32.58248173828124 11.795960009765624  Z M 28.472503906249997 43.17094819335938  L 28.294512744140626 43.18712924804687  L 27.9870734375 43.18712924804687  C 27.695815185546877 43.0900431640625  20.786521728515627 41.06741625976562  20.786521728515627 35.8247673828125  C 20.786521728515627 32.97690874023437  22.000097851562497 31.87659970703125  23.0356828125 31.4397123046875  C 24.83201308722441 30.909975875013206  26.773969589952905 31.297157230855348  28.229788671874992 32.475297265625  C 29.685607753797086 31.297157230855348  31.627564256525588 30.909975875013203  33.42389453125 31.4397123046875  C 34.44329848632812 31.87659970703125  35.67305561523437 32.97690874023437  35.67305561523437 35.8247673828125  C 35.67305561523437 40.98651118164063  28.76376215820312 43.0900431640625  28.472503906249997 43.17094819335938  Z M 27.728177197265623 33.64033032226562  C 26.8362898933853 32.852509979710945  25.697545034252865 32.400445432263375  24.508155224609375 32.36203012695312  C 24.15903792109188 32.36069373300837  23.81293143561852 32.42661878970189  23.488751269531253 32.556202343749995  C 22.50170932617188 32.960727734375  22.000097900390628 34.06103676757812  22.000097851562508 35.79240532226562  C 22.000097851562508 39.837659082031244  27.420737890625006 41.69847583007812  28.229788671875006 41.957372070312495  C 29.03883940429688 41.682294824218744  34.459479492187505 39.74057299804687  34.459479492187505 35.79240532226562  C 34.459479492187505 34.04485571289062  33.941687011718756 32.94454667968749  32.954645068359376 32.556202343749995  C 31.454132257945798 32.17502060699473  29.862775742876636 32.583529740065245  28.731400146484376 33.640330322265626  C 28.613348856721412 33.75251013592578  28.45734803061547 33.81606602739726  28.294512744140626 33.818321484375  C 28.091942232486772 33.81851127750002  27.89421858587026 33.75636956340142  27.728177197265623 33.64033032226562  Z " fill-rule="nonzero" fill="rgba(255, 255, 255, 1)" stroke="none" transform="matrix(1 0 0 1 33 737 )" class="fill" />
    <path d="M 1.7900100585937488 23.009403417968745  C 1.6903975497064812 23.224036959408615  1.4764600198247413 23.362467134738075  1.2398555175781247 23.365385791015623  C 1.1543540559235383 23.381975511216154  1.0664607389983374 23.381975511216154  0.9809592773437492 23.365385791015623  C 0.7664935741876572 23.268545621456475  0.6286453321759593 23.055051693294352  0.6286453321759593 22.819735828401054  C 0.6286453321759593 22.7284284762125  0.6495297720279254 22.63833075945397  0.689701025390625 22.556335009765625  L 6.142703076171875 10.776556054687497  C 6.2883806646105995 10.475690437738033  6.6477338291900825 10.346323289814293  6.951753857421872 10.485297753906249  C 7.166219560577966 10.582137923465398  7.304067802589661 10.79563185162752  7.304067802589661 11.03094771652082  C 7.304067802589661 11.122255068709375  7.283183362737697 11.212352785467896  7.243012109374998 11.294348535156248  L 1.7900100585937488 23.009403417968745  Z " stroke-width="0" stroke-dasharray="0" stroke="rgba(255, 255, 255, 0)" fill="none" transform="matrix(1 0 0 1 33 737 )" class="stroke" mask="url(#Clip6281)" />
    <path d="M 12.048773583984378 19.271588964843748  C 11.952365660862588 19.48898373365688  11.736429273814998 19.628707280471804  11.498619091796876 19.6275712890625  C 11.413712622611428 19.649494045138532  11.324629320747949 19.649494045138532  11.239722851562501 19.6275712890625  C 11.025257148406407 19.530731119503354  10.88740890639471 19.31723719134123  10.88740890639471 19.08192132644793  C 10.88740890639471 18.990613974259375  10.908293346246676 18.900516257500847  10.948464599609377 18.8185205078125  L 16.41764765625 7.103465624999999  C 16.562885957993895 6.811487890422878  16.910807821025134 6.68367985210889  17.21051743164063 6.8122073242187495  C 17.51092000650716 6.958067041292078  17.64568395952892 7.312709067988253  17.517956689453126 7.621258105468749  L 12.048773583984378 19.271588964843748  Z " stroke-width="0" stroke-dasharray="0" stroke="rgba(255, 255, 255, 0)" fill="none" transform="matrix(1 0 0 1 33 737 )" class="stroke" mask="url(#Clip6281)" />
    <path d="M 22.30753715820312 15.533774462890626  C 22.21112923508133 15.75116923170376  21.995192848033742 15.890892778518683  21.757382666015626 15.889756787109377  C 21.677983289065544 15.911831104420685  21.594066808590703 15.91183110442068  21.514667431640625 15.889756787109373  C 21.2142648641473 15.743897089196789  21.079500892622697 15.389255091537338  21.207228125000004 15.080706054687498  L 26.676411230468748 3.2362030273437514  C 26.82798713380037 2.9419744888100547  27.18112748525343 2.814843946089178  27.485461962890614 2.9449447265625004  C 27.699927687628637 3.0417848869473962  27.837775948041518 3.255278826443648  27.837775948041518 3.4905947072311068  C 27.837775948041518 3.581902052630551  27.816891511294234 3.671999762871948  27.77672026367187 3.7539955078125002  L 22.30753715820312 15.533774462890626  Z " stroke-width="0" stroke-dasharray="0" stroke="rgba(255, 255, 255, 0)" fill="none" transform="matrix(1 0 0 1 33 737 )" class="stroke" mask="url(#Clip6281)" />
    <path d="M 32.58248173828124 11.795960009765624  C 32.48286921526054 12.010593532167062  32.26893168830192 12.149023686617385  32.03232719726562 12.151942333984374  C 31.947735892539683 12.176219904403704  31.858022261757185 12.176219904403705  31.773430957031252 12.151942333984374  C 31.552612266593577 12.06331115977624  31.40789641455821 11.849288016561896  31.40789641455821 11.611346050763256  C 31.40789641455821 11.511675543720512  31.433470629812213 11.413672135170932  31.482172705078128 11.326710546875  L 36.48210634765625 0.5501544921875  C 36.627966064729584 0.24975191732096425  36.982608091425746 0.11498796429921106  37.29115712890624 0.24271523437499992  C 37.59202269994126 0.38839283967720717  37.72138981961512 0.7477459643408828  37.58241538085937 1.0517659667968748  L 32.58248173828124 11.795960009765624  Z " stroke-width="0" stroke-dasharray="0" stroke="rgba(255, 255, 255, 0)" fill="none" transform="matrix(1 0 0 1 33 737 )" class="stroke" mask="url(#Clip6281)" />
    <path d="M 28.472503906249997 43.17094819335938  L 28.294512744140626 43.18712924804687  L 27.9870734375 43.18712924804687  C 27.695815185546877 43.0900431640625  20.786521728515627 41.06741625976562  20.786521728515627 35.8247673828125  C 20.786521728515627 32.97690874023437  22.000097851562497 31.87659970703125  23.0356828125 31.4397123046875  C 24.83201308722441 30.909975875013206  26.773969589952905 31.297157230855348  28.229788671874992 32.475297265625  C 29.685607753797086 31.297157230855348  31.627564256525588 30.909975875013203  33.42389453125 31.4397123046875  C 34.44329848632812 31.87659970703125  35.67305561523437 32.97690874023437  35.67305561523437 35.8247673828125  C 35.67305561523437 40.98651118164063  28.76376215820312 43.0900431640625  28.472503906249997 43.17094819335938  Z " stroke-width="0" stroke-dasharray="0" stroke="rgba(255, 255, 255, 0)" fill="none" transform="matrix(1 0 0 1 33 737 )" class="stroke" mask="url(#Clip6281)" />
    <path d="M 27.728177197265623 33.64033032226562  C 26.8362898933853 32.852509979710945  25.697545034252865 32.400445432263375  24.508155224609375 32.36203012695312  C 24.15903792109188 32.36069373300837  23.81293143561852 32.42661878970189  23.488751269531253 32.556202343749995  C 22.50170932617188 32.960727734375  22.000097900390628 34.06103676757812  22.000097851562508 35.79240532226562  C 22.000097851562508 39.837659082031244  27.420737890625006 41.69847583007812  28.229788671875006 41.957372070312495  C 29.03883940429688 41.682294824218744  34.459479492187505 39.74057299804687  34.459479492187505 35.79240532226562  C 34.459479492187505 34.04485571289062  33.941687011718756 32.94454667968749  32.954645068359376 32.556202343749995  C 31.454132257945798 32.17502060699473  29.862775742876636 32.583529740065245  28.731400146484376 33.640330322265626  C 28.613348856721412 33.75251013592578  28.45734803061547 33.81606602739726  28.294512744140626 33.818321484375  C 28.091942232486772 33.81851127750002  27.89421858587026 33.75636956340142  27.728177197265623 33.64033032226562  Z " stroke-width="0" stroke-dasharray="0" stroke="rgba(255, 255, 255, 0)" fill="none" transform="matrix(1 0 0 1 33 737 )" class="stroke" mask="url(#Clip6281)" />
  </g>
</svg>