<?xml version="1.0" encoding="utf-8"?>
<svg version="1.1" xmlns:xlink="http://www.w3.org/1999/xlink" width="330px" height="143px" xmlns="http://www.w3.org/2000/svg">
  <defs>
    <linearGradient gradientUnits="userSpaceOnUse" x1="165" y1="0" x2="165" y2="143" id="LinearGradient427">
      <stop id="Stop428" stop-color="#333333" offset="0" />
      <stop id="Stop429" stop-color="#333333" stop-opacity="0" offset="1" />
    </linearGradient>
    <pattern id="BGPattern" patternUnits="userSpaceOnUse" alignment="0 0" imageRepeat="None" />
    <mask fill="white" id="Clip430">
      <path d="M 0 138  L 0 5  C 0 2.1999999999999997  2.1999999999999997 0  5 0  L 325 0  C 327.8 0  330 2.1999999999999997  330 5  L 330 138  C 330 140.8  327.8 143  325 143  L 5 143  C 2.1999999999999997 143  0 140.8  0 138  Z " fill-rule="evenodd" />
    </mask>
  </defs>
  <g transform="matrix(1 0 0 1 -15 -10 )">
    <path d="M 0 138  L 0 5  C 0 2.1999999999999997  2.1999999999999997 0  5 0  L 325 0  C 327.8 0  330 2.1999999999999997  330 5  L 330 138  C 330 140.8  327.8 143  325 143  L 5 143  C 2.1999999999999997 143  0 140.8  0 138  Z " fill-rule="nonzero" fill="url(#LinearGradient427)" stroke="none" transform="matrix(1 0 0 1 15 10 )" class="fill" />
    <path d="M 0 138  L 0 5  C 0 2.1999999999999997  2.1999999999999997 0  5 0  L 325 0  C 327.8 0  330 2.1999999999999997  330 5  L 330 138  C 330 140.8  327.8 143  325 143  L 5 143  C 2.1999999999999997 143  0 140.8  0 138  Z " stroke-width="0" stroke-dasharray="0" stroke="rgba(121, 121, 121, 1)" fill="none" transform="matrix(1 0 0 1 15 10 )" class="stroke" mask="url(#Clip430)" />
  </g>
</svg>