<?xml version="1.0" encoding="utf-8"?>
<svg version="1.1" xmlns:xlink="http://www.w3.org/1999/xlink" width="11px" height="11px" xmlns="http://www.w3.org/2000/svg">
  <defs>
    <pattern id="BGPattern" patternUnits="userSpaceOnUse" alignment="0 0" imageRepeat="None" />
    <mask fill="white" id="Clip452">
      <path d="M 8.528928571428569 0.9180769230769208  C 8.941428571428567 0.47384615384615125  9.613214285714285 0.47384615384615125  10.025714285714283 0.9180769230769223  C 10.438214285714283 1.3623076923076918  10.438214285714283 2.085769230769229  10.025714285714283 2.5299999999999985  L 2.4710714285714266 10.665769230769227  C 2.0585714285714265 11.109999999999996  1.3867857142857132 11.109999999999996  0.974285714285713 10.665769230769227  C 0.5617857142857128 10.22153846153846  0.5617857142857128 9.49807692307692  0.974285714285713 9.053846153846154  L 8.528928571428569 0.9180769230769208  Z " fill-rule="evenodd" />
    </mask>
  </defs>
  <g transform="matrix(1 0 0 1 -400 -171 )">
    <path d="M 8.528928571428569 0.9180769230769208  C 8.941428571428567 0.47384615384615125  9.613214285714285 0.47384615384615125  10.025714285714283 0.9180769230769223  C 10.438214285714283 1.3623076923076918  10.438214285714283 2.085769230769229  10.025714285714283 2.5299999999999985  L 2.4710714285714266 10.665769230769227  C 2.0585714285714265 11.109999999999996  1.3867857142857132 11.109999999999996  0.974285714285713 10.665769230769227  C 0.5617857142857128 10.22153846153846  0.5617857142857128 9.49807692307692  0.974285714285713 9.053846153846154  L 8.528928571428569 0.9180769230769208  Z " fill-rule="nonzero" fill="rgba(255, 255, 255, 1)" stroke="none" transform="matrix(1 0 0 1 400 171 )" class="fill" />
    <path d="M 8.528928571428569 0.9180769230769208  C 8.941428571428567 0.47384615384615125  9.613214285714285 0.47384615384615125  10.025714285714283 0.9180769230769223  C 10.438214285714283 1.3623076923076918  10.438214285714283 2.085769230769229  10.025714285714283 2.5299999999999985  L 2.4710714285714266 10.665769230769227  C 2.0585714285714265 11.109999999999996  1.3867857142857132 11.109999999999996  0.974285714285713 10.665769230769227  C 0.5617857142857128 10.22153846153846  0.5617857142857128 9.49807692307692  0.974285714285713 9.053846153846154  L 8.528928571428569 0.9180769230769208  Z " stroke-width="0" stroke-dasharray="0" stroke="rgba(255, 255, 255, 0)" fill="none" transform="matrix(1 0 0 1 400 171 )" class="stroke" mask="url(#Clip452)" />
  </g>
</svg>