<?xml version="1.0" encoding="utf-8"?>
<svg version="1.1" xmlns:xlink="http://www.w3.org/1999/xlink" width="330px" height="746px" xmlns="http://www.w3.org/2000/svg">
  <defs>
    <linearGradient gradientUnits="userSpaceOnUse" x1="165" y1="0" x2="165" y2="746" id="LinearGradient8917">
      <stop id="Stop8918" stop-color="#333333" offset="0" />
      <stop id="Stop8919" stop-color="#000000" stop-opacity="0.4980392156862745" offset="1" />
    </linearGradient>
    <pattern id="BGPattern" patternUnits="userSpaceOnUse" alignment="0 0" imageRepeat="None" />
    <mask fill="white" id="Clip8920">
      <path d="M 0 741  L 0 5  C 0 2.1999999999999997  2.1999999999999997 0  5 0  L 325 0  C 327.8 0  330 2.1999999999999997  330 5  L 330 741  C 330 743.8  327.8 746  325 746  L 5 746  C 2.1999999999999997 746  0 743.8  0 741  Z " fill-rule="evenodd" />
    </mask>
  </defs>
  <g transform="matrix(1 0 0 1 -15 -1157 )">
    <path d="M 0 741  L 0 5  C 0 2.1999999999999997  2.1999999999999997 0  5 0  L 325 0  C 327.8 0  330 2.1999999999999997  330 5  L 330 741  C 330 743.8  327.8 746  325 746  L 5 746  C 2.1999999999999997 746  0 743.8  0 741  Z " fill-rule="nonzero" fill="url(#LinearGradient8917)" stroke="none" transform="matrix(1 0 0 1 15 1157 )" class="fill" />
    <path d="M 0 741  L 0 5  C 0 2.1999999999999997  2.1999999999999997 0  5 0  L 325 0  C 327.8 0  330 2.1999999999999997  330 5  L 330 741  C 330 743.8  327.8 746  325 746  L 5 746  C 2.1999999999999997 746  0 743.8  0 741  Z " stroke-width="0" stroke-dasharray="0" stroke="rgba(121, 121, 121, 1)" fill="none" transform="matrix(1 0 0 1 15 1157 )" class="stroke" mask="url(#Clip8920)" />
  </g>
</svg>