<?xml version="1.0" encoding="utf-8"?>
<svg version="1.1" xmlns:xlink="http://www.w3.org/1999/xlink" width="44px" height="24px" xmlns="http://www.w3.org/2000/svg">
  <defs>
    <pattern id="BGPattern" patternUnits="userSpaceOnUse" alignment="0 0" imageRepeat="None" />
    <mask fill="white" id="Clip1084">
      <path d="M 3.6281999023437503 23.834635205078126  L 3.4178466796875 23.866997216796875  C 3.3329402105020525 23.88891997287291  3.243856908638574 23.88891997287291  3.1589504394531254 23.866997216796875  C 3.0106079271238766 23.805694531374396  2.8977108448830293 23.68091353347151  2.8515111816406247 23.5271958984375  L 0.4890829589843748 17.054789892578125  C 0.33202212531376274 16.660456726097124  0.25134414977913044 16.239864161854896  0.25134414977913044 15.81540361991932  C 0.25134414977913044 14.391595019301832  1.1514747838759738 13.123393758552243  2.495528857421874 12.65355380859375  L 36.686013671875 0.21035317382812502  C 37.05711690648736 0.07429681523025901  37.44928535196225 0.004672983507211309  37.84454342392874 0.004672983507211309  C 39.258519894126806 0.004672983507211309  40.521726090632185 0.88846393534316  41.0063447265625 2.216799072265625  L 43.368772900390624 8.689205078125  C 43.47873255496596 9.001726189333494  43.321316814991164 9.345178718803545  43.012790576171874 9.465893798828127  L 3.6281999023437503 23.834635205078126  Z M 39.857492626953125 2.63750546875  C 39.55469284765033 1.7810333549350563  38.74328083275856 1.2097992806239317  37.834865771484374 1.2135761230468751  C 37.586753005202844 1.217124768626734  37.34085321846353 1.2608402928651163  37.10672006835937 1.343024267578125  L 2.9162352539062493 13.78622485351562  C 2.3775949319679883 13.979332675238886  1.9399064709727565 14.382006045266216  1.7026590820312508 14.902714892578128  C 1.467626291690071 15.411366757745213  1.4386317891924263 15.991256790199248  1.6217540039062501 16.52081640625  L 3.79001005859375 22.443067919921873  L 42.02574868164063 8.559756982421876  L 39.857492626953125 2.63750546875  Z " fill-rule="evenodd" />
    </mask>
  </defs>
  <g transform="matrix(1 0 0 1 -31 -737 )">
    <path d="M 3.6281999023437503 23.834635205078126  L 3.4178466796875 23.866997216796875  C 3.3329402105020525 23.88891997287291  3.243856908638574 23.88891997287291  3.1589504394531254 23.866997216796875  C 3.0106079271238766 23.805694531374396  2.8977108448830293 23.68091353347151  2.8515111816406247 23.5271958984375  L 0.4890829589843748 17.054789892578125  C 0.33202212531376274 16.660456726097124  0.25134414977913044 16.239864161854896  0.25134414977913044 15.81540361991932  C 0.25134414977913044 14.391595019301832  1.1514747838759738 13.123393758552243  2.495528857421874 12.65355380859375  L 36.686013671875 0.21035317382812502  C 37.05711690648736 0.07429681523025901  37.44928535196225 0.004672983507211309  37.84454342392874 0.004672983507211309  C 39.258519894126806 0.004672983507211309  40.521726090632185 0.88846393534316  41.0063447265625 2.216799072265625  L 43.368772900390624 8.689205078125  C 43.47873255496596 9.001726189333494  43.321316814991164 9.345178718803545  43.012790576171874 9.465893798828127  L 3.6281999023437503 23.834635205078126  Z M 39.857492626953125 2.63750546875  C 39.55469284765033 1.7810333549350563  38.74328083275856 1.2097992806239317  37.834865771484374 1.2135761230468751  C 37.586753005202844 1.217124768626734  37.34085321846353 1.2608402928651163  37.10672006835937 1.343024267578125  L 2.9162352539062493 13.78622485351562  C 2.3775949319679883 13.979332675238886  1.9399064709727565 14.382006045266216  1.7026590820312508 14.902714892578128  C 1.467626291690071 15.411366757745213  1.4386317891924263 15.991256790199248  1.6217540039062501 16.52081640625  L 3.79001005859375 22.443067919921873  L 42.02574868164063 8.559756982421876  L 39.857492626953125 2.63750546875  Z " fill-rule="nonzero" fill="rgba(255, 255, 255, 1)" stroke="none" transform="matrix(1 0 0 1 31 737 )" class="fill" />
    <path d="M 3.6281999023437503 23.834635205078126  L 3.4178466796875 23.866997216796875  C 3.3329402105020525 23.88891997287291  3.243856908638574 23.88891997287291  3.1589504394531254 23.866997216796875  C 3.0106079271238766 23.805694531374396  2.8977108448830293 23.68091353347151  2.8515111816406247 23.5271958984375  L 0.4890829589843748 17.054789892578125  C 0.33202212531376274 16.660456726097124  0.25134414977913044 16.239864161854896  0.25134414977913044 15.81540361991932  C 0.25134414977913044 14.391595019301832  1.1514747838759738 13.123393758552243  2.495528857421874 12.65355380859375  L 36.686013671875 0.21035317382812502  C 37.05711690648736 0.07429681523025901  37.44928535196225 0.004672983507211309  37.84454342392874 0.004672983507211309  C 39.258519894126806 0.004672983507211309  40.521726090632185 0.88846393534316  41.0063447265625 2.216799072265625  L 43.368772900390624 8.689205078125  C 43.47873255496596 9.001726189333494  43.321316814991164 9.345178718803545  43.012790576171874 9.465893798828127  L 3.6281999023437503 23.834635205078126  Z " stroke-width="0" stroke-dasharray="0" stroke="rgba(255, 255, 255, 0)" fill="none" transform="matrix(1 0 0 1 31 737 )" class="stroke" mask="url(#Clip1084)" />
    <path d="M 39.857492626953125 2.63750546875  C 39.55469284765033 1.7810333549350563  38.74328083275856 1.2097992806239317  37.834865771484374 1.2135761230468751  C 37.586753005202844 1.217124768626734  37.34085321846353 1.2608402928651163  37.10672006835937 1.343024267578125  L 2.9162352539062493 13.78622485351562  C 2.3775949319679883 13.979332675238886  1.9399064709727565 14.382006045266216  1.7026590820312508 14.902714892578128  C 1.467626291690071 15.411366757745213  1.4386317891924263 15.991256790199248  1.6217540039062501 16.52081640625  L 3.79001005859375 22.443067919921873  L 42.02574868164063 8.559756982421876  L 39.857492626953125 2.63750546875  Z " stroke-width="0" stroke-dasharray="0" stroke="rgba(255, 255, 255, 0)" fill="none" transform="matrix(1 0 0 1 31 737 )" class="stroke" mask="url(#Clip1084)" />
  </g>
</svg>