<?xml version="1.0" encoding="utf-8"?>
<svg version="1.1" xmlns:xlink="http://www.w3.org/1999/xlink" width="37px" height="37px" xmlns="http://www.w3.org/2000/svg">
  <defs>
    <pattern id="BGPattern" patternUnits="userSpaceOnUse" alignment="0 0" imageRepeat="None" />
    <mask fill="white" id="Clip1667">
      <path d="M 0.23978920898437295 18.980197998046876  C 0.23978920898437295 28.926553507533725  8.302903474888161 36.989667773437496  18.249258984375004 36.989667773437496  C 28.195614493861846 36.989667773437496  36.258728759765624 28.926553507533725  36.258728759765624 18.980197998046876  C 36.258728759765624 9.03384248856003  28.195614493861846 0.9707282226562501  18.249258984375004 0.9707282226562501  C 8.302903474888154 0.9707282226562501  0.23978920898437828 9.03384248856003  0.23978920898437828 18.980197998046876  Z " fill-rule="evenodd" />
    </mask>
  </defs>
  <g transform="matrix(1 0 0 1 -40 -930 )">
    <path d="M 0.23978920898437295 18.980197998046876  C 0.23978920898437295 28.926553507533725  8.302903474888161 36.989667773437496  18.249258984375004 36.989667773437496  C 28.195614493861846 36.989667773437496  36.258728759765624 28.926553507533725  36.258728759765624 18.980197998046876  C 36.258728759765624 9.03384248856003  28.195614493861846 0.9707282226562501  18.249258984375004 0.9707282226562501  C 8.302903474888154 0.9707282226562501  0.23978920898437828 9.03384248856003  0.23978920898437828 18.980197998046876  Z " fill-rule="nonzero" fill="rgba(51, 51, 51, 1)" stroke="none" transform="matrix(1 0 0 1 40 930 )" class="fill" />
    <path d="M 0.23978920898437295 18.980197998046876  C 0.23978920898437295 28.926553507533725  8.302903474888161 36.989667773437496  18.249258984375004 36.989667773437496  C 28.195614493861846 36.989667773437496  36.258728759765624 28.926553507533725  36.258728759765624 18.980197998046876  C 36.258728759765624 9.03384248856003  28.195614493861846 0.9707282226562501  18.249258984375004 0.9707282226562501  C 8.302903474888154 0.9707282226562501  0.23978920898437828 9.03384248856003  0.23978920898437828 18.980197998046876  Z " stroke-width="0" stroke-dasharray="0" stroke="rgba(255, 255, 255, 0)" fill="none" transform="matrix(1 0 0 1 40 930 )" class="stroke" mask="url(#Clip1667)" />
  </g>
</svg>