<?xml version="1.0" encoding="utf-8"?>
<svg version="1.1" xmlns:xlink="http://www.w3.org/1999/xlink" width="25px" height="24px" xmlns="http://www.w3.org/2000/svg">
  <defs>
    <pattern id="BGPattern" patternUnits="userSpaceOnUse" alignment="0 0" imageRepeat="None" />
    <mask fill="white" id="Clip6243">
      <path d="M 6.66811316406537 8.003004866467172  C 6.66811316406537 8.233375785584249  6.6830360642152575 8.463504783629755  6.712788132841327 8.69194640590406  C 9.048859267833922 8.490497882041883  11.340024025768217 9.420501023935126  12.87479021402214 11.193155136531367  C 13.036379449937204 11.375976572294688  13.125568569537228 11.611559103334772  13.125568569537228 11.855556559342364  C 13.125568569537228 12.40796102249705  12.677756272544311 12.855773319489966  12.125351809389626 12.855773319489966  C 11.832574707476892 12.855773319489966  11.554497347160344 12.727495308130091  11.364462907749076 12.504772738007382  C 10.351255714833858 11.337052351103337  8.8812822894561 10.666333521253542  7.335268150527718 10.666333521253542  C 4.38911098924732 10.666333521253542  2.0007787187934016 13.054665791707457  2.0007787187934016 16.000822952987857  C 2.0007787187934016 18.946980114268257  4.38911098924732 21.335312384722176  7.335268150527718 21.335312384722176  C 8.536621090299914 21.335312384722176  9.702803411441662 20.92979882749907  10.644973638376381 20.1844370701107  C 9.79023136163009 18.956969644971878  9.333083251877246 17.49660953286733  9.335356494464945 16.000863741697415  C 9.335356494464945 15.402067306273063  9.407372103321032 14.811939409594096  9.548736066420664 14.240482228782287  C 9.666882018186943 13.804574803931324  10.0624881107912 13.501918538035348  10.514122641090822 13.501918538035348  C 11.066527104245507 13.501918538035348  11.514339401238423 13.949730835028266  11.514339401238423 14.502135298182953  C 11.514339401238423 14.575161364508432  11.5063419966995 14.647967818556964  11.490490206642066 14.719252649446496  C 11.387735769464262 15.136585807973393  11.335793686661777 15.5648077392047  11.335793686661777 15.994604714026261  C 11.335793686661777 18.94076187530666  13.724125957115696 21.32909414576058  16.670283118396092 21.32909414576058  C 19.613996273645444 21.32909414576058  22.00131498028214 18.944574870693785  22.004768878228784 16.000863741697415  C 22.004468713043096 13.827170795793092  20.686412979661785 11.870657095012936  18.672046605166052 11.05379160885609  C 17.828128336959182 12.895904761349842  16.260221324507224 14.307190003276867  14.339774391143912 14.953303372693728  C 14.24411560792372 14.982867014835005  14.144560085569779 14.997900201486935  14.04443710247486 14.997900201486935  C 13.492032639320175 14.997900201486935  13.04422034232726 14.55008790449402  13.04422034232726 13.997683441339333  C 13.04422034232726 13.576949469386392  13.307513219057347 13.201195002952243  13.702969704797047 13.057559202952028  C 15.874629591536904 12.326380352328574  17.337209431870484 10.290576552058909  17.337090619926197 7.99912959409594  C 17.334951465421476 5.054486484125346  14.9472464827713 2.668515434732855  12.002602595799686 2.668515434732855  C 9.05644543451929 2.668515434732855  6.66811316406537 5.056847705186772  6.66811316406537 8.003004866467172  Z M 4.7543636900369 9.132708597785978  L 4.755030509225091 9.132041800738007  C 4.6968555415583015 8.757208816641516  4.667651663835811 8.378450160534967  4.667678236162361 7.99912959409594  C 4.667678236162361 3.9482516900369005  7.9517233062730615 0.6642066420664214  12.002601210332102 0.6642066420664214  C 16.05347911439114 0.6642066420664214  19.33752416236162 3.9482516900369005  19.33752416236162 7.99912959409594  C 19.33752416236162 8.383212841328413  19.30751765313653 8.761961579335795  19.25017188929889 9.132708597785976  C 22.11061875278578 10.208713637007408  24.00484640966971 12.944731713048483  24.005202398523984 16.000863741697415  C 24.005202398523984 20.051741645756458  20.721157350553508 23.335786693726934  16.670279446494465 23.335786693726934  C 14.896561704797048 23.335786693726934  13.270876051660519 22.706316952029518  12.002601210332104 21.6594233800738  C 10.68956022744172 22.745005856934743  9.038613456843992 23.33793159985658  7.33492295202952 23.335786693726934  C 3.284045047970479 23.335786693726934  0 20.051741645756458  0 16.000863741697415  C 0 12.85818265682657  1.977095136531365 10.176934915129152  4.7543636900369 9.132708597785978  Z " fill-rule="evenodd" />
    </mask>
  </defs>
  <g transform="matrix(1 0 0 1 -237 -453 )">
    <path d="M 6.66811316406537 8.003004866467172  C 6.66811316406537 8.233375785584249  6.6830360642152575 8.463504783629755  6.712788132841327 8.69194640590406  C 9.048859267833922 8.490497882041883  11.340024025768217 9.420501023935126  12.87479021402214 11.193155136531367  C 13.036379449937204 11.375976572294688  13.125568569537228 11.611559103334772  13.125568569537228 11.855556559342364  C 13.125568569537228 12.40796102249705  12.677756272544311 12.855773319489966  12.125351809389626 12.855773319489966  C 11.832574707476892 12.855773319489966  11.554497347160344 12.727495308130091  11.364462907749076 12.504772738007382  C 10.351255714833858 11.337052351103337  8.8812822894561 10.666333521253542  7.335268150527718 10.666333521253542  C 4.38911098924732 10.666333521253542  2.0007787187934016 13.054665791707457  2.0007787187934016 16.000822952987857  C 2.0007787187934016 18.946980114268257  4.38911098924732 21.335312384722176  7.335268150527718 21.335312384722176  C 8.536621090299914 21.335312384722176  9.702803411441662 20.92979882749907  10.644973638376381 20.1844370701107  C 9.79023136163009 18.956969644971878  9.333083251877246 17.49660953286733  9.335356494464945 16.000863741697415  C 9.335356494464945 15.402067306273063  9.407372103321032 14.811939409594096  9.548736066420664 14.240482228782287  C 9.666882018186943 13.804574803931324  10.0624881107912 13.501918538035348  10.514122641090822 13.501918538035348  C 11.066527104245507 13.501918538035348  11.514339401238423 13.949730835028266  11.514339401238423 14.502135298182953  C 11.514339401238423 14.575161364508432  11.5063419966995 14.647967818556964  11.490490206642066 14.719252649446496  C 11.387735769464262 15.136585807973393  11.335793686661777 15.5648077392047  11.335793686661777 15.994604714026261  C 11.335793686661777 18.94076187530666  13.724125957115696 21.32909414576058  16.670283118396092 21.32909414576058  C 19.613996273645444 21.32909414576058  22.00131498028214 18.944574870693785  22.004768878228784 16.000863741697415  C 22.004468713043096 13.827170795793092  20.686412979661785 11.870657095012936  18.672046605166052 11.05379160885609  C 17.828128336959182 12.895904761349842  16.260221324507224 14.307190003276867  14.339774391143912 14.953303372693728  C 14.24411560792372 14.982867014835005  14.144560085569779 14.997900201486935  14.04443710247486 14.997900201486935  C 13.492032639320175 14.997900201486935  13.04422034232726 14.55008790449402  13.04422034232726 13.997683441339333  C 13.04422034232726 13.576949469386392  13.307513219057347 13.201195002952243  13.702969704797047 13.057559202952028  C 15.874629591536904 12.326380352328574  17.337209431870484 10.290576552058909  17.337090619926197 7.99912959409594  C 17.334951465421476 5.054486484125346  14.9472464827713 2.668515434732855  12.002602595799686 2.668515434732855  C 9.05644543451929 2.668515434732855  6.66811316406537 5.056847705186772  6.66811316406537 8.003004866467172  Z M 4.7543636900369 9.132708597785978  L 4.755030509225091 9.132041800738007  C 4.6968555415583015 8.757208816641516  4.667651663835811 8.378450160534967  4.667678236162361 7.99912959409594  C 4.667678236162361 3.9482516900369005  7.9517233062730615 0.6642066420664214  12.002601210332102 0.6642066420664214  C 16.05347911439114 0.6642066420664214  19.33752416236162 3.9482516900369005  19.33752416236162 7.99912959409594  C 19.33752416236162 8.383212841328413  19.30751765313653 8.761961579335795  19.25017188929889 9.132708597785976  C 22.11061875278578 10.208713637007408  24.00484640966971 12.944731713048483  24.005202398523984 16.000863741697415  C 24.005202398523984 20.051741645756458  20.721157350553508 23.335786693726934  16.670279446494465 23.335786693726934  C 14.896561704797048 23.335786693726934  13.270876051660519 22.706316952029518  12.002601210332104 21.6594233800738  C 10.68956022744172 22.745005856934743  9.038613456843992 23.33793159985658  7.33492295202952 23.335786693726934  C 3.284045047970479 23.335786693726934  0 20.051741645756458  0 16.000863741697415  C 0 12.85818265682657  1.977095136531365 10.176934915129152  4.7543636900369 9.132708597785978  Z " fill-rule="nonzero" fill="rgba(255, 255, 255, 1)" stroke="none" transform="matrix(1 0 0 1 237 453 )" class="fill" />
    <path d="M 6.66811316406537 8.003004866467172  C 6.66811316406537 8.233375785584249  6.6830360642152575 8.463504783629755  6.712788132841327 8.69194640590406  C 9.048859267833922 8.490497882041883  11.340024025768217 9.420501023935126  12.87479021402214 11.193155136531367  C 13.036379449937204 11.375976572294688  13.125568569537228 11.611559103334772  13.125568569537228 11.855556559342364  C 13.125568569537228 12.40796102249705  12.677756272544311 12.855773319489966  12.125351809389626 12.855773319489966  C 11.832574707476892 12.855773319489966  11.554497347160344 12.727495308130091  11.364462907749076 12.504772738007382  C 10.351255714833858 11.337052351103337  8.8812822894561 10.666333521253542  7.335268150527718 10.666333521253542  C 4.38911098924732 10.666333521253542  2.0007787187934016 13.054665791707457  2.0007787187934016 16.000822952987857  C 2.0007787187934016 18.946980114268257  4.38911098924732 21.335312384722176  7.335268150527718 21.335312384722176  C 8.536621090299914 21.335312384722176  9.702803411441662 20.92979882749907  10.644973638376381 20.1844370701107  C 9.79023136163009 18.956969644971878  9.333083251877246 17.49660953286733  9.335356494464945 16.000863741697415  C 9.335356494464945 15.402067306273063  9.407372103321032 14.811939409594096  9.548736066420664 14.240482228782287  C 9.666882018186943 13.804574803931324  10.0624881107912 13.501918538035348  10.514122641090822 13.501918538035348  C 11.066527104245507 13.501918538035348  11.514339401238423 13.949730835028266  11.514339401238423 14.502135298182953  C 11.514339401238423 14.575161364508432  11.5063419966995 14.647967818556964  11.490490206642066 14.719252649446496  C 11.387735769464262 15.136585807973393  11.335793686661777 15.5648077392047  11.335793686661777 15.994604714026261  C 11.335793686661777 18.94076187530666  13.724125957115696 21.32909414576058  16.670283118396092 21.32909414576058  C 19.613996273645444 21.32909414576058  22.00131498028214 18.944574870693785  22.004768878228784 16.000863741697415  C 22.004468713043096 13.827170795793092  20.686412979661785 11.870657095012936  18.672046605166052 11.05379160885609  C 17.828128336959182 12.895904761349842  16.260221324507224 14.307190003276867  14.339774391143912 14.953303372693728  C 14.24411560792372 14.982867014835005  14.144560085569779 14.997900201486935  14.04443710247486 14.997900201486935  C 13.492032639320175 14.997900201486935  13.04422034232726 14.55008790449402  13.04422034232726 13.997683441339333  C 13.04422034232726 13.576949469386392  13.307513219057347 13.201195002952243  13.702969704797047 13.057559202952028  C 15.874629591536904 12.326380352328574  17.337209431870484 10.290576552058909  17.337090619926197 7.99912959409594  C 17.334951465421476 5.054486484125346  14.9472464827713 2.668515434732855  12.002602595799686 2.668515434732855  C 9.05644543451929 2.668515434732855  6.66811316406537 5.056847705186772  6.66811316406537 8.003004866467172  Z " stroke-width="0" stroke-dasharray="0" stroke="rgba(255, 255, 255, 0)" fill="none" transform="matrix(1 0 0 1 237 453 )" class="stroke" mask="url(#Clip6243)" />
    <path d="M 4.7543636900369 9.132708597785978  L 4.755030509225091 9.132041800738007  C 4.6968555415583015 8.757208816641516  4.667651663835811 8.378450160534967  4.667678236162361 7.99912959409594  C 4.667678236162361 3.9482516900369005  7.9517233062730615 0.6642066420664214  12.002601210332102 0.6642066420664214  C 16.05347911439114 0.6642066420664214  19.33752416236162 3.9482516900369005  19.33752416236162 7.99912959409594  C 19.33752416236162 8.383212841328413  19.30751765313653 8.761961579335795  19.25017188929889 9.132708597785976  C 22.11061875278578 10.208713637007408  24.00484640966971 12.944731713048483  24.005202398523984 16.000863741697415  C 24.005202398523984 20.051741645756458  20.721157350553508 23.335786693726934  16.670279446494465 23.335786693726934  C 14.896561704797048 23.335786693726934  13.270876051660519 22.706316952029518  12.002601210332104 21.6594233800738  C 10.68956022744172 22.745005856934743  9.038613456843992 23.33793159985658  7.33492295202952 23.335786693726934  C 3.284045047970479 23.335786693726934  0 20.051741645756458  0 16.000863741697415  C 0 12.85818265682657  1.977095136531365 10.176934915129152  4.7543636900369 9.132708597785978  Z " stroke-width="0" stroke-dasharray="0" stroke="rgba(255, 255, 255, 0)" fill="none" transform="matrix(1 0 0 1 237 453 )" class="stroke" mask="url(#Clip6243)" />
  </g>
</svg>