<?xml version="1.0" encoding="utf-8"?>
<svg version="1.1" xmlns:xlink="http://www.w3.org/1999/xlink" width="9px" height="9px" xmlns="http://www.w3.org/2000/svg">
  <defs>
    <pattern id="BGPattern" patternUnits="userSpaceOnUse" alignment="0 0" imageRepeat="None" />
    <mask fill="white" id="Clip6371">
      <path d="M 3.7811250000000003 8.37375000292969  C 4.185219419410263 8.753319822581524  4.814780580589738 8.753319822581524  5.218875000000001 8.373750002929688  C 7.182 6.528750002929688  8.174999997070312 5.000625  8.174999997070312 3.7500000029296876  C 8.174999997070312 1.7205000029296875  6.5295000000000005 0.07500000585937522  4.5 0.07499999707031274  C 2.4705000000000004 0.0749999970703125  0.8250000029296876 1.7205000029296875  0.8250000029296876 3.7500000029296876  C 0.8250000029296876 5.000625  1.818 6.528750002929688  3.7811250000000003 8.37375000292969  Z M 7.575000002929688 3.7500000029296876  C 7.575000002929688 4.788  6.66 6.1961250058593755  4.80825 7.936499997070314  C 4.635022496343194 8.099374157065402  4.364977503656806 8.099374157065402  4.19175 7.936499997070313  C 2.34 6.196124997070312  1.4249999970703124 4.788  1.4249999970703124 3.7500000029296876  C 1.4249999970703124 2.0517243955819757  2.801724392652288 0.6749999999999998  4.5 0.6749999999999998  C 6.1982756073477105 0.6749999999999998  7.575000002929688 2.0517243955819757  7.575000002929688 3.7500000029296876  Z " fill-rule="evenodd" />
    </mask>
  </defs>
  <g transform="matrix(1 0 0 1 -128 -96 )">
    <path d="M 3.7811250000000003 8.37375000292969  C 4.185219419410263 8.753319822581524  4.814780580589738 8.753319822581524  5.218875000000001 8.373750002929688  C 7.182 6.528750002929688  8.174999997070312 5.000625  8.174999997070312 3.7500000029296876  C 8.174999997070312 1.7205000029296875  6.5295000000000005 0.07500000585937522  4.5 0.07499999707031274  C 2.4705000000000004 0.0749999970703125  0.8250000029296876 1.7205000029296875  0.8250000029296876 3.7500000029296876  C 0.8250000029296876 5.000625  1.818 6.528750002929688  3.7811250000000003 8.37375000292969  Z M 7.575000002929688 3.7500000029296876  C 7.575000002929688 4.788  6.66 6.1961250058593755  4.80825 7.936499997070314  C 4.635022496343194 8.099374157065402  4.364977503656806 8.099374157065402  4.19175 7.936499997070313  C 2.34 6.196124997070312  1.4249999970703124 4.788  1.4249999970703124 3.7500000029296876  C 1.4249999970703124 2.0517243955819757  2.801724392652288 0.6749999999999998  4.5 0.6749999999999998  C 6.1982756073477105 0.6749999999999998  7.575000002929688 2.0517243955819757  7.575000002929688 3.7500000029296876  Z " fill-rule="nonzero" fill="rgba(255, 255, 255, 1)" stroke="none" transform="matrix(1 0 0 1 128 96 )" class="fill" />
    <path d="M 3.7811250000000003 8.37375000292969  C 4.185219419410263 8.753319822581524  4.814780580589738 8.753319822581524  5.218875000000001 8.373750002929688  C 7.182 6.528750002929688  8.174999997070312 5.000625  8.174999997070312 3.7500000029296876  C 8.174999997070312 1.7205000029296875  6.5295000000000005 0.07500000585937522  4.5 0.07499999707031274  C 2.4705000000000004 0.0749999970703125  0.8250000029296876 1.7205000029296875  0.8250000029296876 3.7500000029296876  C 0.8250000029296876 5.000625  1.818 6.528750002929688  3.7811250000000003 8.37375000292969  Z " stroke-width="0" stroke-dasharray="0" stroke="rgba(255, 255, 255, 0)" fill="none" transform="matrix(1 0 0 1 128 96 )" class="stroke" mask="url(#Clip6371)" />
    <path d="M 7.575000002929688 3.7500000029296876  C 7.575000002929688 4.788  6.66 6.1961250058593755  4.80825 7.936499997070314  C 4.635022496343194 8.099374157065402  4.364977503656806 8.099374157065402  4.19175 7.936499997070313  C 2.34 6.196124997070312  1.4249999970703124 4.788  1.4249999970703124 3.7500000029296876  C 1.4249999970703124 2.0517243955819757  2.801724392652288 0.6749999999999998  4.5 0.6749999999999998  C 6.1982756073477105 0.6749999999999998  7.575000002929688 2.0517243955819757  7.575000002929688 3.7500000029296876  Z " stroke-width="0" stroke-dasharray="0" stroke="rgba(255, 255, 255, 0)" fill="none" transform="matrix(1 0 0 1 128 96 )" class="stroke" mask="url(#Clip6371)" />
  </g>
</svg>