<?xml version="1.0" encoding="utf-8"?>
<svg version="1.1" xmlns:xlink="http://www.w3.org/1999/xlink" width="100px" height="30px" xmlns="http://www.w3.org/2000/svg">
  <defs>
    <linearGradient gradientUnits="userSpaceOnUse" x1="0" y1="0" x2="100" y2="30" id="LinearGradient11070">
      <stop id="Stop11071" stop-color="#c961ff" offset="0" />
      <stop id="Stop11072" stop-color="#8355ff" offset="1" />
    </linearGradient>
    <pattern id="BGPattern" patternUnits="userSpaceOnUse" alignment="0 0" imageRepeat="None" />
    <mask fill="white" id="Clip11073">
      <path d="M 15 30  C 6.599999999999999 30  0 23.400000000000002  0 15  C 0 6.6  6.599999999999999 0  15 0  L 85 0  C 93.4 0  100 6.6  100 15  C 100 23.400000000000002  93.4 30  85 30  L 15 30  Z " fill-rule="evenodd" />
    </mask>
  </defs>
  <g transform="matrix(1 0 0 1 -533 -2092 )">
    <path d="M 15 30  C 6.599999999999999 30  0 23.400000000000002  0 15  C 0 6.6  6.599999999999999 0  15 0  L 85 0  C 93.4 0  100 6.6  100 15  C 100 23.400000000000002  93.4 30  85 30  L 15 30  Z " fill-rule="nonzero" fill="url(#LinearGradient11070)" stroke="none" transform="matrix(1 0 0 1 533 2092 )" class="fill" />
    <path d="M 15 30  C 6.599999999999999 30  0 23.400000000000002  0 15  C 0 6.6  6.599999999999999 0  15 0  L 85 0  C 93.4 0  100 6.6  100 15  C 100 23.400000000000002  93.4 30  85 30  L 15 30  Z " stroke-width="0" stroke-dasharray="0" stroke="rgba(121, 121, 121, 1)" fill="none" transform="matrix(1 0 0 1 533 2092 )" class="stroke" mask="url(#Clip11073)" />
  </g>
</svg>