<?xml version="1.0" encoding="utf-8"?>
<svg version="1.1" xmlns:xlink="http://www.w3.org/1999/xlink" width="5px" height="5px" xmlns="http://www.w3.org/2000/svg">
  <defs>
    <pattern id="BGPattern" patternUnits="userSpaceOnUse" alignment="0 0" imageRepeat="None" />
    <mask fill="white" id="Clip6848">
      <path d="M 2.5 4.550000002929689  C 3.494112549695428 4.550000002929689  4.300000000000001 3.7441125526251158  4.300000000000001 2.7500000029296876  C 4.300000000000001 1.7558874532342599  3.494112549695428 0.950000002929688  2.5 0.950000002929688  C 1.5058874503045718 0.950000002929688  0.7000000000000002 1.7558874532342599  0.7000000000000002 2.7500000029296876  C 0.7000000000000002 3.7441125526251158  1.5058874503045718 4.550000002929689  2.5 4.550000002929689  Z M 2.5 3.95  C 1.837258299394037 3.95  1.2999999985351565 3.4127416991411197  1.2999999985351565 2.749999998535157  C 1.2999999985351565 2.0872582979291936  1.837258299394037 1.549999997070313  2.5 1.549999997070313  C 3.162741700605963 1.549999997070313  3.7000000014648435 2.0872582979291936  3.7000000014648435 2.749999998535157  C 3.7000000014648435 3.4127416991411197  3.162741700605963 3.95  2.5 3.95  Z " fill-rule="evenodd" />
    </mask>
  </defs>
  <g transform="matrix(1 0 0 1 -130 -97 )">
    <path d="M 2.5 4.550000002929689  C 3.494112549695428 4.550000002929689  4.300000000000001 3.7441125526251158  4.300000000000001 2.7500000029296876  C 4.300000000000001 1.7558874532342599  3.494112549695428 0.950000002929688  2.5 0.950000002929688  C 1.5058874503045718 0.950000002929688  0.7000000000000002 1.7558874532342599  0.7000000000000002 2.7500000029296876  C 0.7000000000000002 3.7441125526251158  1.5058874503045718 4.550000002929689  2.5 4.550000002929689  Z M 2.5 3.95  C 1.837258299394037 3.95  1.2999999985351565 3.4127416991411197  1.2999999985351565 2.749999998535157  C 1.2999999985351565 2.0872582979291936  1.837258299394037 1.549999997070313  2.5 1.549999997070313  C 3.162741700605963 1.549999997070313  3.7000000014648435 2.0872582979291936  3.7000000014648435 2.749999998535157  C 3.7000000014648435 3.4127416991411197  3.162741700605963 3.95  2.5 3.95  Z " fill-rule="nonzero" fill="rgba(255, 255, 255, 1)" stroke="none" transform="matrix(1 0 0 1 130 97 )" class="fill" />
    <path d="M 2.5 4.550000002929689  C 3.494112549695428 4.550000002929689  4.300000000000001 3.7441125526251158  4.300000000000001 2.7500000029296876  C 4.300000000000001 1.7558874532342599  3.494112549695428 0.950000002929688  2.5 0.950000002929688  C 1.5058874503045718 0.950000002929688  0.7000000000000002 1.7558874532342599  0.7000000000000002 2.7500000029296876  C 0.7000000000000002 3.7441125526251158  1.5058874503045718 4.550000002929689  2.5 4.550000002929689  Z " stroke-width="0" stroke-dasharray="0" stroke="rgba(255, 255, 255, 0)" fill="none" transform="matrix(1 0 0 1 130 97 )" class="stroke" mask="url(#Clip6848)" />
    <path d="M 2.5 3.95  C 1.837258299394037 3.95  1.2999999985351565 3.4127416991411197  1.2999999985351565 2.749999998535157  C 1.2999999985351565 2.0872582979291936  1.837258299394037 1.549999997070313  2.5 1.549999997070313  C 3.162741700605963 1.549999997070313  3.7000000014648435 2.0872582979291936  3.7000000014648435 2.749999998535157  C 3.7000000014648435 3.4127416991411197  3.162741700605963 3.95  2.5 3.95  Z " stroke-width="0" stroke-dasharray="0" stroke="rgba(255, 255, 255, 0)" fill="none" transform="matrix(1 0 0 1 130 97 )" class="stroke" mask="url(#Clip6848)" />
  </g>
</svg>