<?xml version="1.0" encoding="utf-8"?>
<svg version="1.1" xmlns:xlink="http://www.w3.org/1999/xlink" width="24px" height="24px" xmlns="http://www.w3.org/2000/svg">
  <defs>
    <pattern id="BGPattern" patternUnits="userSpaceOnUse" alignment="0 0" imageRepeat="None" />
    <mask fill="white" id="Clip6850">
      <path d="M 9.639 15.707999999999998  C 11.124 17.151  12.611999999999998 17.006999999999998  12.611999999999998 17.007  C 14.879999999999999 17.007  15.587999999999997 15.561  15.587999999999997 15.561  C 16.083 14.331  14.738999999999997 14.693999999999999  14.738999999999997 14.693999999999999  C 14.030999999999999 15.924  12.552 15.924  12.552 15.924  C 11.205 15.924  10.325999999999999 14.664000000000001  10.325999999999999 14.664000000000001  C 8.909999999999998 14.229  9.639 15.707999999999998  9.639 15.707999999999998  Z M 9.492000000000003 10.206  C 9.495000000000003 9.246  8.955000000000002 8.469  8.289000000000001 8.469  C 7.623000000000001 8.469  7.086000000000002 9.245999999999999  7.086000000000002 10.206  C 7.086000000000002 11.166  7.626000000000001 11.943  8.289000000000001 11.943  C 8.955000000000002 11.943  9.492000000000003 11.166  9.492000000000003 10.206  Z M 15.870000000000001 4.418999999999999  C 15.870000000000001 4.418999999999999  19.341 4.781999999999999  19.908 8.036999999999999  C 19.908 8.036999999999999  20.688000000000002 4.637999999999998  23.592000000000002 4.418999999999999  C 23.592000000000002 4.418999999999999  20.262000000000004 3.6239999999999988  19.908 0.44099999999999895  C 19.908 0.44099999999999895  19.554000000000002 3.986999999999999  15.870000000000001 4.418999999999999  Z M 4.182 21.845999999999997  C 4.179 21.843  2.553 21.455999999999996  2.3819999999999997 19.901999999999997  C 2.3819999999999997 19.901999999999997  2.208 21.633  0.4110000000000005 21.845999999999997  C 0.4110000000000005 21.845999999999997  2.1060000000000008 22.023  2.3819999999999997 23.612999999999996  C 2.3819999999999997 23.612999999999996  2.763 21.953999999999997  4.182 21.845999999999997  Z M 22.113000000000003 6.680999999999999  L 21.141 7.517999999999999  C 21.608999999999998 8.645999999999999  21.866999999999997 9.885  21.866999999999997 11.181  C 21.866999999999997 16.464  17.583 20.747999999999998  12.3 20.747999999999998  C 7.017000000000003 20.747999999999998  2.7329999999999997 16.467000000000002  2.7329999999999997 11.184  C 2.7329999999999997 5.901  7.0169999999999995 1.6139999999999999  12.3 1.6139999999999999  C 13.896 1.6139999999999999  15.402000000000001 2.0040000000000004  16.727999999999998 2.696999999999999  L 17.345999999999997 1.634999999999999  C 15.84 0.8399999999999999  14.123999999999999 0.3900000000000001  12.3 0.3900000000000001  C 6.339 0.3900000000000001  1.5060000000000002 5.223000000000001  1.5060000000000002 11.184  C 1.5060000000000002 17.145  6.339 21.975  12.3 21.975  C 18.261 21.975  23.094 17.142  23.094 11.181000000000001  C 23.094 9.576  22.743 8.049000000000001  22.113000000000003 6.680999999999999  Z M 15.584999999999997 10.202999999999998  C 15.584999999999997 11.16  16.125 11.937  16.790999999999997 11.937  C 17.456999999999997 11.937  17.997 11.16  17.997 10.202999999999998  C 17.997 9.245999999999997  17.456999999999997 8.468999999999998  16.790999999999997 8.468999999999998  C 16.125 8.468999999999998  15.584999999999997 9.245999999999997  15.584999999999997 10.202999999999998  Z " fill-rule="evenodd" />
    </mask>
  </defs>
  <g transform="matrix(1 0 0 1 -100 -453 )">
    <path d="M 9.639 15.707999999999998  C 11.124 17.151  12.611999999999998 17.006999999999998  12.611999999999998 17.007  C 14.879999999999999 17.007  15.587999999999997 15.561  15.587999999999997 15.561  C 16.083 14.331  14.738999999999997 14.693999999999999  14.738999999999997 14.693999999999999  C 14.030999999999999 15.924  12.552 15.924  12.552 15.924  C 11.205 15.924  10.325999999999999 14.664000000000001  10.325999999999999 14.664000000000001  C 8.909999999999998 14.229  9.639 15.707999999999998  9.639 15.707999999999998  Z M 9.492000000000003 10.206  C 9.495000000000003 9.246  8.955000000000002 8.469  8.289000000000001 8.469  C 7.623000000000001 8.469  7.086000000000002 9.245999999999999  7.086000000000002 10.206  C 7.086000000000002 11.166  7.626000000000001 11.943  8.289000000000001 11.943  C 8.955000000000002 11.943  9.492000000000003 11.166  9.492000000000003 10.206  Z M 15.870000000000001 4.418999999999999  C 15.870000000000001 4.418999999999999  19.341 4.781999999999999  19.908 8.036999999999999  C 19.908 8.036999999999999  20.688000000000002 4.637999999999998  23.592000000000002 4.418999999999999  C 23.592000000000002 4.418999999999999  20.262000000000004 3.6239999999999988  19.908 0.44099999999999895  C 19.908 0.44099999999999895  19.554000000000002 3.986999999999999  15.870000000000001 4.418999999999999  Z M 4.182 21.845999999999997  C 4.179 21.843  2.553 21.455999999999996  2.3819999999999997 19.901999999999997  C 2.3819999999999997 19.901999999999997  2.208 21.633  0.4110000000000005 21.845999999999997  C 0.4110000000000005 21.845999999999997  2.1060000000000008 22.023  2.3819999999999997 23.612999999999996  C 2.3819999999999997 23.612999999999996  2.763 21.953999999999997  4.182 21.845999999999997  Z M 22.113000000000003 6.680999999999999  L 21.141 7.517999999999999  C 21.608999999999998 8.645999999999999  21.866999999999997 9.885  21.866999999999997 11.181  C 21.866999999999997 16.464  17.583 20.747999999999998  12.3 20.747999999999998  C 7.017000000000003 20.747999999999998  2.7329999999999997 16.467000000000002  2.7329999999999997 11.184  C 2.7329999999999997 5.901  7.0169999999999995 1.6139999999999999  12.3 1.6139999999999999  C 13.896 1.6139999999999999  15.402000000000001 2.0040000000000004  16.727999999999998 2.696999999999999  L 17.345999999999997 1.634999999999999  C 15.84 0.8399999999999999  14.123999999999999 0.3900000000000001  12.3 0.3900000000000001  C 6.339 0.3900000000000001  1.5060000000000002 5.223000000000001  1.5060000000000002 11.184  C 1.5060000000000002 17.145  6.339 21.975  12.3 21.975  C 18.261 21.975  23.094 17.142  23.094 11.181000000000001  C 23.094 9.576  22.743 8.049000000000001  22.113000000000003 6.680999999999999  Z M 15.584999999999997 10.202999999999998  C 15.584999999999997 11.16  16.125 11.937  16.790999999999997 11.937  C 17.456999999999997 11.937  17.997 11.16  17.997 10.202999999999998  C 17.997 9.245999999999997  17.456999999999997 8.468999999999998  16.790999999999997 8.468999999999998  C 16.125 8.468999999999998  15.584999999999997 9.245999999999997  15.584999999999997 10.202999999999998  Z " fill-rule="nonzero" fill="rgba(255, 255, 255, 1)" stroke="none" transform="matrix(1 0 0 1 100 453 )" class="fill" />
    <path d="M 9.639 15.707999999999998  C 11.124 17.151  12.611999999999998 17.006999999999998  12.611999999999998 17.007  C 14.879999999999999 17.007  15.587999999999997 15.561  15.587999999999997 15.561  C 16.083 14.331  14.738999999999997 14.693999999999999  14.738999999999997 14.693999999999999  C 14.030999999999999 15.924  12.552 15.924  12.552 15.924  C 11.205 15.924  10.325999999999999 14.664000000000001  10.325999999999999 14.664000000000001  C 8.909999999999998 14.229  9.639 15.707999999999998  9.639 15.707999999999998  Z " stroke-width="0" stroke-dasharray="0" stroke="rgba(255, 255, 255, 0)" fill="none" transform="matrix(1 0 0 1 100 453 )" class="stroke" mask="url(#Clip6850)" />
    <path d="M 9.492000000000003 10.206  C 9.495000000000003 9.246  8.955000000000002 8.469  8.289000000000001 8.469  C 7.623000000000001 8.469  7.086000000000002 9.245999999999999  7.086000000000002 10.206  C 7.086000000000002 11.166  7.626000000000001 11.943  8.289000000000001 11.943  C 8.955000000000002 11.943  9.492000000000003 11.166  9.492000000000003 10.206  Z " stroke-width="0" stroke-dasharray="0" stroke="rgba(255, 255, 255, 0)" fill="none" transform="matrix(1 0 0 1 100 453 )" class="stroke" mask="url(#Clip6850)" />
    <path d="M 15.870000000000001 4.418999999999999  C 15.870000000000001 4.418999999999999  19.341 4.781999999999999  19.908 8.036999999999999  C 19.908 8.036999999999999  20.688000000000002 4.637999999999998  23.592000000000002 4.418999999999999  C 23.592000000000002 4.418999999999999  20.262000000000004 3.6239999999999988  19.908 0.44099999999999895  C 19.908 0.44099999999999895  19.554000000000002 3.986999999999999  15.870000000000001 4.418999999999999  Z " stroke-width="0" stroke-dasharray="0" stroke="rgba(255, 255, 255, 0)" fill="none" transform="matrix(1 0 0 1 100 453 )" class="stroke" mask="url(#Clip6850)" />
    <path d="M 4.182 21.845999999999997  C 4.179 21.843  2.553 21.455999999999996  2.3819999999999997 19.901999999999997  C 2.3819999999999997 19.901999999999997  2.208 21.633  0.4110000000000005 21.845999999999997  C 0.4110000000000005 21.845999999999997  2.1060000000000008 22.023  2.3819999999999997 23.612999999999996  C 2.3819999999999997 23.612999999999996  2.763 21.953999999999997  4.182 21.845999999999997  Z " stroke-width="0" stroke-dasharray="0" stroke="rgba(255, 255, 255, 0)" fill="none" transform="matrix(1 0 0 1 100 453 )" class="stroke" mask="url(#Clip6850)" />
    <path d="M 22.113000000000003 6.680999999999999  L 21.141 7.517999999999999  C 21.608999999999998 8.645999999999999  21.866999999999997 9.885  21.866999999999997 11.181  C 21.866999999999997 16.464  17.583 20.747999999999998  12.3 20.747999999999998  C 7.017000000000003 20.747999999999998  2.7329999999999997 16.467000000000002  2.7329999999999997 11.184  C 2.7329999999999997 5.901  7.0169999999999995 1.6139999999999999  12.3 1.6139999999999999  C 13.896 1.6139999999999999  15.402000000000001 2.0040000000000004  16.727999999999998 2.696999999999999  L 17.345999999999997 1.634999999999999  C 15.84 0.8399999999999999  14.123999999999999 0.3900000000000001  12.3 0.3900000000000001  C 6.339 0.3900000000000001  1.5060000000000002 5.223000000000001  1.5060000000000002 11.184  C 1.5060000000000002 17.145  6.339 21.975  12.3 21.975  C 18.261 21.975  23.094 17.142  23.094 11.181000000000001  C 23.094 9.576  22.743 8.049000000000001  22.113000000000003 6.680999999999999  Z " stroke-width="0" stroke-dasharray="0" stroke="rgba(255, 255, 255, 0)" fill="none" transform="matrix(1 0 0 1 100 453 )" class="stroke" mask="url(#Clip6850)" />
    <path d="M 15.584999999999997 10.202999999999998  C 15.584999999999997 11.16  16.125 11.937  16.790999999999997 11.937  C 17.456999999999997 11.937  17.997 11.16  17.997 10.202999999999998  C 17.997 9.245999999999997  17.456999999999997 8.468999999999998  16.790999999999997 8.468999999999998  C 16.125 8.468999999999998  15.584999999999997 9.245999999999997  15.584999999999997 10.202999999999998  Z " stroke-width="0" stroke-dasharray="0" stroke="rgba(255, 255, 255, 0)" fill="none" transform="matrix(1 0 0 1 100 453 )" class="stroke" mask="url(#Clip6850)" />
  </g>
</svg>