<?xml version="1.0" encoding="utf-8"?>
<svg version="1.1" xmlns:xlink="http://www.w3.org/1999/xlink" width="300px" height="35px" xmlns="http://www.w3.org/2000/svg">
  <defs>
    <linearGradient gradientUnits="userSpaceOnUse" x1="0" y1="0" x2="300" y2="35" id="LinearGradient11041">
      <stop id="Stop11042" stop-color="#c961ff" offset="0" />
      <stop id="Stop11043" stop-color="#8355ff" offset="1" />
    </linearGradient>
    <pattern id="BGPattern" patternUnits="userSpaceOnUse" alignment="0 0" imageRepeat="None" />
    <mask fill="white" id="Clip11044">
      <path d="M 17.5 35  C 7.699999999999999 35  0 27.3  0 17.5  C 0 7.699999999999999  7.699999999999999 0  17.5 0  L 282.5 0  C 292.3 0  300 7.699999999999999  300 17.5  C 300 27.3  292.3 35  282.5 35  L 17.5 35  Z " fill-rule="evenodd" />
    </mask>
  </defs>
  <g transform="matrix(1 0 0 1 -440 -3095 )">
    <path d="M 17.5 35  C 7.699999999999999 35  0 27.3  0 17.5  C 0 7.699999999999999  7.699999999999999 0  17.5 0  L 282.5 0  C 292.3 0  300 7.699999999999999  300 17.5  C 300 27.3  292.3 35  282.5 35  L 17.5 35  Z " fill-rule="nonzero" fill="url(#LinearGradient11041)" stroke="none" transform="matrix(1 0 0 1 440 3095 )" class="fill" />
    <path d="M 17.5 35  C 7.699999999999999 35  0 27.3  0 17.5  C 0 7.699999999999999  7.699999999999999 0  17.5 0  L 282.5 0  C 292.3 0  300 7.699999999999999  300 17.5  C 300 27.3  292.3 35  282.5 35  L 17.5 35  Z " stroke-width="0" stroke-dasharray="0" stroke="rgba(121, 121, 121, 1)" fill="none" transform="matrix(1 0 0 1 440 3095 )" class="stroke" mask="url(#Clip11044)" />
  </g>
</svg>