<?xml version="1.0" encoding="utf-8"?>
<svg version="1.1" xmlns:xlink="http://www.w3.org/1999/xlink" width="96px" height="59px" xmlns="http://www.w3.org/2000/svg">
  <defs>
    <pattern id="BGPattern" patternUnits="userSpaceOnUse" alignment="0 0" imageRepeat="None" />
    <mask fill="white" id="Clip7989">
      <path d="M 9.900754980468765 41.8223359375  C 9.900754980468765 25.792604492187497  26.963607031250014 9.386555371093745  48 9.38655537109375  C 69.03639296875 9.38655537109375  86.09924501953125 25.792604492187504  86.09924501953125 41.8223359375  C 86.09924501953125 48.042096093750004  74.62973613281251 48.7362970703125  60.58911250000001 48.73629716796875  C 56.53610078125001 48.73629716796875  52.26805039062501 48.68020009765625  48.000000000000014 48.68020009765625  C 43.73194960937501 48.68020009765625  39.46389921875001 48.73629716796875  35.410887500000015 48.73629716796875  C 21.372601269531263 48.73629716796875  9.900754980468765 48.03508408203125  9.900754980468765 41.8223359375  Z M 81.13933105468752 12.605123535156245  C 71.98964480290239 4.523798912735648  60.20754798157462 0.05544410738683414  48.00000000000002 0.03704746093749556  C 35.793972687453675 0.052216663276899666  24.012059666652355 4.51634675377756  14.8606689453125 12.593436621093751  C 5.7682724609375 20.645700390625  0.5512469726562501 31.299464746093754  0.5512469726562501 41.8223359375  C 0.5512469726562501 46.342823046875  2.6361872070312504 50.3444125  6.4204005859375 53.09083046875  C 8.7577775390625 54.7877662109375  11.73092109375 55.99151533203124  15.505784960937497 56.76986181640625  C 21.131851367187497 57.93855029296874  28.3987564453125 58.085805078125  35.4108875 58.085805078125  C 37.44440546875 58.085805078125  39.56206904296875 58.071780859375004  41.60727392578126 58.05775654296875  C 43.71091318359375 58.04373232421875  45.87064960937501 58.02970800781249  48 58.02970810546875  C 50.12935039062499 58.02970820312501  52.29609892578125 58.04373232421875  54.39272607421874 58.05775654296875  C 56.44026835937498 58.07178076171874  58.55559453125001 58.085805078125  60.5891125 58.085805078125  C 67.60124345703125 58.085805078125  74.86814853515625 57.9268634765625  80.4942150390625 56.76986181640625  C 84.27141630859376 55.991515234374994  87.2422224609375 54.79010351562499  89.5795994140625 53.09083046875  C 93.36381279296876 50.3444125  95.44875302734376 46.342823046875  95.44875302734376 41.8223359375  C 95.44875302734376 31.304139453125  90.23172753906252 20.645700390625  81.13933105468752 12.605123535156245  Z " fill-rule="evenodd" />
    </mask>
  </defs>
  <g transform="matrix(1 0 0 1 -512 -2742 )">
    <path d="M 9.900754980468765 41.8223359375  C 9.900754980468765 25.792604492187497  26.963607031250014 9.386555371093745  48 9.38655537109375  C 69.03639296875 9.38655537109375  86.09924501953125 25.792604492187504  86.09924501953125 41.8223359375  C 86.09924501953125 48.042096093750004  74.62973613281251 48.7362970703125  60.58911250000001 48.73629716796875  C 56.53610078125001 48.73629716796875  52.26805039062501 48.68020009765625  48.000000000000014 48.68020009765625  C 43.73194960937501 48.68020009765625  39.46389921875001 48.73629716796875  35.410887500000015 48.73629716796875  C 21.372601269531263 48.73629716796875  9.900754980468765 48.03508408203125  9.900754980468765 41.8223359375  Z M 81.13933105468752 12.605123535156245  C 71.98964480290239 4.523798912735648  60.20754798157462 0.05544410738683414  48.00000000000002 0.03704746093749556  C 35.793972687453675 0.052216663276899666  24.012059666652355 4.51634675377756  14.8606689453125 12.593436621093751  C 5.7682724609375 20.645700390625  0.5512469726562501 31.299464746093754  0.5512469726562501 41.8223359375  C 0.5512469726562501 46.342823046875  2.6361872070312504 50.3444125  6.4204005859375 53.09083046875  C 8.7577775390625 54.7877662109375  11.73092109375 55.99151533203124  15.505784960937497 56.76986181640625  C 21.131851367187497 57.93855029296874  28.3987564453125 58.085805078125  35.4108875 58.085805078125  C 37.44440546875 58.085805078125  39.56206904296875 58.071780859375004  41.60727392578126 58.05775654296875  C 43.71091318359375 58.04373232421875  45.87064960937501 58.02970800781249  48 58.02970810546875  C 50.12935039062499 58.02970820312501  52.29609892578125 58.04373232421875  54.39272607421874 58.05775654296875  C 56.44026835937498 58.07178076171874  58.55559453125001 58.085805078125  60.5891125 58.085805078125  C 67.60124345703125 58.085805078125  74.86814853515625 57.9268634765625  80.4942150390625 56.76986181640625  C 84.27141630859376 55.991515234374994  87.2422224609375 54.79010351562499  89.5795994140625 53.09083046875  C 93.36381279296876 50.3444125  95.44875302734376 46.342823046875  95.44875302734376 41.8223359375  C 95.44875302734376 31.304139453125  90.23172753906252 20.645700390625  81.13933105468752 12.605123535156245  Z " fill-rule="nonzero" fill="rgba(255, 255, 255, 1)" stroke="none" transform="matrix(1 0 0 1 512 2742 )" class="fill" />
    <path d="M 9.900754980468765 41.8223359375  C 9.900754980468765 25.792604492187497  26.963607031250014 9.386555371093745  48 9.38655537109375  C 69.03639296875 9.38655537109375  86.09924501953125 25.792604492187504  86.09924501953125 41.8223359375  C 86.09924501953125 48.042096093750004  74.62973613281251 48.7362970703125  60.58911250000001 48.73629716796875  C 56.53610078125001 48.73629716796875  52.26805039062501 48.68020009765625  48.000000000000014 48.68020009765625  C 43.73194960937501 48.68020009765625  39.46389921875001 48.73629716796875  35.410887500000015 48.73629716796875  C 21.372601269531263 48.73629716796875  9.900754980468765 48.03508408203125  9.900754980468765 41.8223359375  Z " stroke-width="0" stroke-dasharray="0" stroke="rgba(255, 255, 255, 0)" fill="none" transform="matrix(1 0 0 1 512 2742 )" class="stroke" mask="url(#Clip7989)" />
    <path d="M 81.13933105468752 12.605123535156245  C 71.98964480290239 4.523798912735648  60.20754798157462 0.05544410738683414  48.00000000000002 0.03704746093749556  C 35.793972687453675 0.052216663276899666  24.012059666652355 4.51634675377756  14.8606689453125 12.593436621093751  C 5.7682724609375 20.645700390625  0.5512469726562501 31.299464746093754  0.5512469726562501 41.8223359375  C 0.5512469726562501 46.342823046875  2.6361872070312504 50.3444125  6.4204005859375 53.09083046875  C 8.7577775390625 54.7877662109375  11.73092109375 55.99151533203124  15.505784960937497 56.76986181640625  C 21.131851367187497 57.93855029296874  28.3987564453125 58.085805078125  35.4108875 58.085805078125  C 37.44440546875 58.085805078125  39.56206904296875 58.071780859375004  41.60727392578126 58.05775654296875  C 43.71091318359375 58.04373232421875  45.87064960937501 58.02970800781249  48 58.02970810546875  C 50.12935039062499 58.02970820312501  52.29609892578125 58.04373232421875  54.39272607421874 58.05775654296875  C 56.44026835937498 58.07178076171874  58.55559453125001 58.085805078125  60.5891125 58.085805078125  C 67.60124345703125 58.085805078125  74.86814853515625 57.9268634765625  80.4942150390625 56.76986181640625  C 84.27141630859376 55.991515234374994  87.2422224609375 54.79010351562499  89.5795994140625 53.09083046875  C 93.36381279296876 50.3444125  95.44875302734376 46.342823046875  95.44875302734376 41.8223359375  C 95.44875302734376 31.304139453125  90.23172753906252 20.645700390625  81.13933105468752 12.605123535156245  Z " stroke-width="0" stroke-dasharray="0" stroke="rgba(255, 255, 255, 0)" fill="none" transform="matrix(1 0 0 1 512 2742 )" class="stroke" mask="url(#Clip7989)" />
  </g>
</svg>