<?xml version="1.0" encoding="utf-8"?>
<svg version="1.1" xmlns:xlink="http://www.w3.org/1999/xlink" width="6px" height="6px" xmlns="http://www.w3.org/2000/svg">
  <defs>
    <pattern id="BGPattern" patternUnits="userSpaceOnUse" alignment="0 0" imageRepeat="None" />
    <mask fill="white" id="Clip7999">
      <path d="M 5.770053348214286 5.770404517299108  C 5.919780385044643 5.620660337611607  5.919823217075892 5.377156858258928  5.770207516741071 5.227541157924106  L 3.54281197265625 3.000111353236606  L 5.770198945312499 0.7724588420758929  C 5.8428182812500005 0.6998480691964286  5.882759773995535 0.603304955357143  5.882691244419643 0.5006031612723215  C 5.882622723214285 0.39820972935267873  5.8427411886160705 0.3020948939732144  5.770404517299106 0.22996379464285738  C 5.697956492745535 0.15732732421875018  5.601738875558035 0.11737726841517888  5.499328309151784 0.11731731026785715  C 5.3964808928571415 0.11731731026785715  5.300040569196428 0.15725880301339304  5.2274983258928565 0.22977534877232145  L 3.0001627483258932 2.457119497767857  L 0.7724502790178571 0.22977535714285735  C 0.6999337332589286 0.15725881138392872  0.603570493861607 0.11731731863839283  0.5011085323660713 0.11731731863839283  C 0.3986551422991071 0.11731731863839283  0.3022919029017857 0.15725023995535725  0.22978392020089272 0.22975822265625  C 0.15729307198660702 0.30205206194196443  0.11737727678571419 0.39820972935267845  0.11730874720982117 0.5006031612723215  C 0.1172402260044642 0.603304955357143  0.15718171037946405 0.6998480691964286  0.22978392020089272 0.7724502790178571  L 2.4574792550223217 3.0001027901785715  L 0.22977535714285735 5.227549720982143  C 0.15725023995535725 5.300066266741071  0.11730875558035703 5.396412371651785  0.11730875558035703 5.498882896205357  C 0.11730875558035703 5.601336286272321  0.15725881138392836 5.697708088727678  0.22978392857142863 5.770233205915178  C 0.3022919112723214 5.842749751674107  0.3986465792410715 5.882674109933036  0.5010999776785712 5.882674109933036  C 0.6035619391741073 5.882674109933036  0.6999337416294641 5.8427411886160705  0.7724417243303572 5.770233205915178  L 3.00012849609375 3.542829098772321  L 5.2275411662946425 5.770233205915178  C 5.3000577120535715 5.842749751674107  5.3965066071428565 5.882674109933036  5.499105619419642 5.882674109933036  C 5.601773152901785 5.882605588727678  5.697896551339285 5.842732617187501  5.770053348214286 5.770404517299108  Z " fill-rule="evenodd" />
    </mask>
  </defs>
  <g transform="matrix(1 0 0 1 -1469 -1868 )">
    <path d="M 5.770053348214286 5.770404517299108  C 5.919780385044643 5.620660337611607  5.919823217075892 5.377156858258928  5.770207516741071 5.227541157924106  L 3.54281197265625 3.000111353236606  L 5.770198945312499 0.7724588420758929  C 5.8428182812500005 0.6998480691964286  5.882759773995535 0.603304955357143  5.882691244419643 0.5006031612723215  C 5.882622723214285 0.39820972935267873  5.8427411886160705 0.3020948939732144  5.770404517299106 0.22996379464285738  C 5.697956492745535 0.15732732421875018  5.601738875558035 0.11737726841517888  5.499328309151784 0.11731731026785715  C 5.3964808928571415 0.11731731026785715  5.300040569196428 0.15725880301339304  5.2274983258928565 0.22977534877232145  L 3.0001627483258932 2.457119497767857  L 0.7724502790178571 0.22977535714285735  C 0.6999337332589286 0.15725881138392872  0.603570493861607 0.11731731863839283  0.5011085323660713 0.11731731863839283  C 0.3986551422991071 0.11731731863839283  0.3022919029017857 0.15725023995535725  0.22978392020089272 0.22975822265625  C 0.15729307198660702 0.30205206194196443  0.11737727678571419 0.39820972935267845  0.11730874720982117 0.5006031612723215  C 0.1172402260044642 0.603304955357143  0.15718171037946405 0.6998480691964286  0.22978392020089272 0.7724502790178571  L 2.4574792550223217 3.0001027901785715  L 0.22977535714285735 5.227549720982143  C 0.15725023995535725 5.300066266741071  0.11730875558035703 5.396412371651785  0.11730875558035703 5.498882896205357  C 0.11730875558035703 5.601336286272321  0.15725881138392836 5.697708088727678  0.22978392857142863 5.770233205915178  C 0.3022919112723214 5.842749751674107  0.3986465792410715 5.882674109933036  0.5010999776785712 5.882674109933036  C 0.6035619391741073 5.882674109933036  0.6999337416294641 5.8427411886160705  0.7724417243303572 5.770233205915178  L 3.00012849609375 3.542829098772321  L 5.2275411662946425 5.770233205915178  C 5.3000577120535715 5.842749751674107  5.3965066071428565 5.882674109933036  5.499105619419642 5.882674109933036  C 5.601773152901785 5.882605588727678  5.697896551339285 5.842732617187501  5.770053348214286 5.770404517299108  Z " fill-rule="nonzero" fill="rgba(255, 255, 255, 1)" stroke="none" transform="matrix(1 0 0 1 1469 1868 )" class="fill" />
    <path d="M 5.770053348214286 5.770404517299108  C 5.919780385044643 5.620660337611607  5.919823217075892 5.377156858258928  5.770207516741071 5.227541157924106  L 3.54281197265625 3.000111353236606  L 5.770198945312499 0.7724588420758929  C 5.8428182812500005 0.6998480691964286  5.882759773995535 0.603304955357143  5.882691244419643 0.5006031612723215  C 5.882622723214285 0.39820972935267873  5.8427411886160705 0.3020948939732144  5.770404517299106 0.22996379464285738  C 5.697956492745535 0.15732732421875018  5.601738875558035 0.11737726841517888  5.499328309151784 0.11731731026785715  C 5.3964808928571415 0.11731731026785715  5.300040569196428 0.15725880301339304  5.2274983258928565 0.22977534877232145  L 3.0001627483258932 2.457119497767857  L 0.7724502790178571 0.22977535714285735  C 0.6999337332589286 0.15725881138392872  0.603570493861607 0.11731731863839283  0.5011085323660713 0.11731731863839283  C 0.3986551422991071 0.11731731863839283  0.3022919029017857 0.15725023995535725  0.22978392020089272 0.22975822265625  C 0.15729307198660702 0.30205206194196443  0.11737727678571419 0.39820972935267845  0.11730874720982117 0.5006031612723215  C 0.1172402260044642 0.603304955357143  0.15718171037946405 0.6998480691964286  0.22978392020089272 0.7724502790178571  L 2.4574792550223217 3.0001027901785715  L 0.22977535714285735 5.227549720982143  C 0.15725023995535725 5.300066266741071  0.11730875558035703 5.396412371651785  0.11730875558035703 5.498882896205357  C 0.11730875558035703 5.601336286272321  0.15725881138392836 5.697708088727678  0.22978392857142863 5.770233205915178  C 0.3022919112723214 5.842749751674107  0.3986465792410715 5.882674109933036  0.5010999776785712 5.882674109933036  C 0.6035619391741073 5.882674109933036  0.6999337416294641 5.8427411886160705  0.7724417243303572 5.770233205915178  L 3.00012849609375 3.542829098772321  L 5.2275411662946425 5.770233205915178  C 5.3000577120535715 5.842749751674107  5.3965066071428565 5.882674109933036  5.499105619419642 5.882674109933036  C 5.601773152901785 5.882605588727678  5.697896551339285 5.842732617187501  5.770053348214286 5.770404517299108  Z " stroke-width="0" stroke-dasharray="0" stroke="rgba(255, 255, 255, 0)" fill="none" transform="matrix(1 0 0 1 1469 1868 )" class="stroke" mask="url(#Clip7999)" />
  </g>
</svg>