<?xml version="1.0" encoding="utf-8"?>
<svg version="1.1" xmlns:xlink="http://www.w3.org/1999/xlink" width="5px" height="6px" xmlns="http://www.w3.org/2000/svg">
  <defs>
    <pattern id="BGPattern" patternUnits="userSpaceOnUse" alignment="0 0" imageRepeat="None" />
    <mask fill="white" id="Clip1233">
      <path d="M 4.8369949470288836 3.4125308666087966  C 4.782047315619817 3.4926588905173714  4.711620834998828 3.561520338235673  4.629671719637783 3.6152469111689816  L 1.1921085833925191 5.8687654296875  C 0.8445707046046403 6.0965432074652774  0.37392676521070084 6.0058024667245355  0.14097221975615545 5.666049385127315  C 0.05729810266305392 5.544026383008131  0.012622911349465367 5.400430930882026  0.012626265092329395 5.2535185185185185  L 0.012626265092329395 0.7464814814814815  C 0.012626265092329395 0.3374074074074075  0.35183081054687504 0.005740740740740782  0.7702020226680878 0.005740740740740782  C 0.9204533517406284 0.005737465099885399  1.0673123341491122 0.04941987685903712  1.1921085833925196 0.13123457031249988  L 4.629608583392519 2.3847530888310184  C 4.977146462180398 2.6125308666087963  5.070012621330493 3.0727160517939813  4.8369949470288836 3.4125308666087966  Z " fill-rule="evenodd" />
    </mask>
  </defs>
  <g transform="matrix(1 0 0 1 -155 -352 )">
    <path d="M 4.8369949470288836 3.4125308666087966  C 4.782047315619817 3.4926588905173714  4.711620834998828 3.561520338235673  4.629671719637783 3.6152469111689816  L 1.1921085833925191 5.8687654296875  C 0.8445707046046403 6.0965432074652774  0.37392676521070084 6.0058024667245355  0.14097221975615545 5.666049385127315  C 0.05729810266305392 5.544026383008131  0.012622911349465367 5.400430930882026  0.012626265092329395 5.2535185185185185  L 0.012626265092329395 0.7464814814814815  C 0.012626265092329395 0.3374074074074075  0.35183081054687504 0.005740740740740782  0.7702020226680878 0.005740740740740782  C 0.9204533517406284 0.005737465099885399  1.0673123341491122 0.04941987685903712  1.1921085833925196 0.13123457031249988  L 4.629608583392519 2.3847530888310184  C 4.977146462180398 2.6125308666087963  5.070012621330493 3.0727160517939813  4.8369949470288836 3.4125308666087966  Z " fill-rule="nonzero" fill="rgba(255, 255, 255, 1)" stroke="none" transform="matrix(1 0 0 1 155 352 )" class="fill" />
    <path d="M 4.8369949470288836 3.4125308666087966  C 4.782047315619817 3.4926588905173714  4.711620834998828 3.561520338235673  4.629671719637783 3.6152469111689816  L 1.1921085833925191 5.8687654296875  C 0.8445707046046403 6.0965432074652774  0.37392676521070084 6.0058024667245355  0.14097221975615545 5.666049385127315  C 0.05729810266305392 5.544026383008131  0.012622911349465367 5.400430930882026  0.012626265092329395 5.2535185185185185  L 0.012626265092329395 0.7464814814814815  C 0.012626265092329395 0.3374074074074075  0.35183081054687504 0.005740740740740782  0.7702020226680878 0.005740740740740782  C 0.9204533517406284 0.005737465099885399  1.0673123341491122 0.04941987685903712  1.1921085833925196 0.13123457031249988  L 4.629608583392519 2.3847530888310184  C 4.977146462180398 2.6125308666087963  5.070012621330493 3.0727160517939813  4.8369949470288836 3.4125308666087966  Z " stroke-width="0" stroke-dasharray="0" stroke="rgba(255, 255, 255, 0)" fill="none" transform="matrix(1 0 0 1 155 352 )" class="stroke" mask="url(#Clip1233)" />
  </g>
</svg>