<?xml version="1.0" encoding="utf-8"?>
<svg version="1.1" xmlns:xlink="http://www.w3.org/1999/xlink" width="28px" height="19px" xmlns="http://www.w3.org/2000/svg">
  <defs>
    <pattern id="BGPattern" patternUnits="userSpaceOnUse" alignment="0 0" imageRepeat="None" />
    <mask fill="white" id="Clip4456">
      <path d="M 27.58125888671875 5.235186914062496  C 27.567109535472866 12.831414693103923  21.41267357982268 18.98585064875411  13.816445800781246 19  C 6.22113081124251 18.98456503529806  0.06811516827281494 12.830504415208466  0.053970019531249136 5.235186914062496  C 0.053970019531249136 2.653391568494627  2.1469286778696386 0.5604329101562371  4.7287240234375005 0.5604329101562371  C 7.310519369005362 0.5604329101562371  9.403478027343752 2.653391568494627  9.403478027343752 5.235186914062496  C 9.402698919009808 5.269042103334584  9.402309326171881 5.302905135654157  9.402309326171881 5.3367692885365585  C 9.402309326171881 7.775275002969522  11.379108787520181 9.752074464317815  13.81761450195313 9.752074464317815  C 16.256120216386087 9.752074464317815  18.232919677734387 7.775275002969522  18.232919677734387 5.3367692885365585  C 18.232919677734387 5.302905135654157  18.232530084896453 5.269042103334584  18.231750976562502 5.235186914062496  C 18.23212409615759 2.653655453873256  20.324973444487135 0.5611085719987443  22.906504931640633 0.5611085719987443  C 25.488036418794124 0.5611085719987443  27.580885767123668 2.65365545387327  27.58125888671875 5.235186914062496  Z " fill-rule="evenodd" />
    </mask>
  </defs>
  <g transform="matrix(1 0 0 1 -537 -2818 )">
    <path d="M 27.58125888671875 5.235186914062496  C 27.567109535472866 12.831414693103923  21.41267357982268 18.98585064875411  13.816445800781246 19  C 6.22113081124251 18.98456503529806  0.06811516827281494 12.830504415208466  0.053970019531249136 5.235186914062496  C 0.053970019531249136 2.653391568494627  2.1469286778696386 0.5604329101562371  4.7287240234375005 0.5604329101562371  C 7.310519369005362 0.5604329101562371  9.403478027343752 2.653391568494627  9.403478027343752 5.235186914062496  C 9.402698919009808 5.269042103334584  9.402309326171881 5.302905135654157  9.402309326171881 5.3367692885365585  C 9.402309326171881 7.775275002969522  11.379108787520181 9.752074464317815  13.81761450195313 9.752074464317815  C 16.256120216386087 9.752074464317815  18.232919677734387 7.775275002969522  18.232919677734387 5.3367692885365585  C 18.232919677734387 5.302905135654157  18.232530084896453 5.269042103334584  18.231750976562502 5.235186914062496  C 18.23212409615759 2.653655453873256  20.324973444487135 0.5611085719987443  22.906504931640633 0.5611085719987443  C 25.488036418794124 0.5611085719987443  27.580885767123668 2.65365545387327  27.58125888671875 5.235186914062496  Z " fill-rule="nonzero" fill="rgba(255, 255, 255, 1)" stroke="none" transform="matrix(1 0 0 1 537 2818 )" class="fill" />
    <path d="M 27.58125888671875 5.235186914062496  C 27.567109535472866 12.831414693103923  21.41267357982268 18.98585064875411  13.816445800781246 19  C 6.22113081124251 18.98456503529806  0.06811516827281494 12.830504415208466  0.053970019531249136 5.235186914062496  C 0.053970019531249136 2.653391568494627  2.1469286778696386 0.5604329101562371  4.7287240234375005 0.5604329101562371  C 7.310519369005362 0.5604329101562371  9.403478027343752 2.653391568494627  9.403478027343752 5.235186914062496  C 9.402698919009808 5.269042103334584  9.402309326171881 5.302905135654157  9.402309326171881 5.3367692885365585  C 9.402309326171881 7.775275002969522  11.379108787520181 9.752074464317815  13.81761450195313 9.752074464317815  C 16.256120216386087 9.752074464317815  18.232919677734387 7.775275002969522  18.232919677734387 5.3367692885365585  C 18.232919677734387 5.302905135654157  18.232530084896453 5.269042103334584  18.231750976562502 5.235186914062496  C 18.23212409615759 2.653655453873256  20.324973444487135 0.5611085719987443  22.906504931640633 0.5611085719987443  C 25.488036418794124 0.5611085719987443  27.580885767123668 2.65365545387327  27.58125888671875 5.235186914062496  Z " stroke-width="0" stroke-dasharray="0" stroke="rgba(255, 255, 255, 0)" fill="none" transform="matrix(1 0 0 1 537 2818 )" class="stroke" mask="url(#Clip4456)" />
  </g>
</svg>