<svg t="1764321557717" class="icon" viewBox="0 0 1675 1024" version="1.1" xmlns="http://www.w3.org/2000/svg" p-id="68354" width="200" height="200"><path d="M93.090909 814.545455a744.727273 162.909091 0 1 0 1489.454546 0 744.727273 162.909091 0 1 0-1489.454546 0Z" fill="#F5F5F5" p-id="68355"></path><path d="M1373.090909 343.505455L1136.965818 75.822545C1125.632 57.576727 1109.085091 46.545455 1091.653818 46.545455H583.982545c-17.431273 0-33.978182 11.031273-45.312 29.253818L302.545455 343.528727V558.545455h1070.545454v-215.04z" fill="#FFFFFF" p-id="68356"></path><path d="M1091.653818 46.545455c16.197818 0 31.604364 9.518545 42.821818 25.483636l2.490182 3.793454L1373.090909 343.505455V558.545455H302.545455v-215.016728L538.670545 75.799273c10.519273-16.919273 25.553455-27.648 41.588364-29.090909l3.723636-0.162909h507.671273z m0 23.272727H583.982545c-7.656727 0-16.151273 5.026909-23.249454 14.824727l-2.304 3.444364-2.304 3.095272L325.818182 352.279273V535.272727h1024v-182.970182L1119.511273 91.229091l-2.327273-3.118546c-6.749091-10.868364-15.127273-16.989091-22.946909-18.106181L1091.653818 69.818182z" fill="#DDDDDD" p-id="68357"></path><path d="M1061.538909 417.303273c0-37.352727 23.133091-68.189091 51.828364-68.212364H1373.090909v422.097455C1373.090909 820.596364 1342.370909 861.090909 1304.436364 861.090909h-933.236364C333.265455 861.090909 302.545455 820.573091 302.545455 771.188364V349.090909h259.723636c28.695273 0 51.828364 30.789818 51.828364 68.142546v0.512c0 37.352727 23.389091 67.514182 52.06109 67.514181h343.319273c28.672 0 52.061091-30.440727 52.061091-67.793454v-0.162909z" fill="#FAFAFA" p-id="68358"></path><path d="M562.269091 349.090909c27.601455 0 50.036364 28.462545 51.735273 63.860364l0.093091 4.794182c0 37.352727 23.389091 67.514182 52.06109 67.514181h343.319273c27.578182 0 50.269091-28.16 51.968-63.534545l0.093091-4.421818c0-37.352727 23.133091-68.189091 51.828364-68.212364H1373.090909v422.097455C1373.090909 820.596364 1342.370909 861.090909 1304.436364 861.090909h-933.236364C333.265455 861.090909 302.545455 820.573091 302.545455 771.188364V349.090909h259.723636zM325.818182 771.188364c0 36.305455 20.247273 64.302545 42.589091 66.490181l2.792727 0.139637h933.236364c22.481455 0 43.613091-26.554182 45.288727-62.138182l0.093091-4.491636V372.363636H1113.367273c-13.312 0-26.949818 17.058909-28.416 40.704l-0.139637 4.235637c0 47.639273-30.208 88.506182-71.214545 91.089454l-4.119273 0.139637H666.158545c-41.681455 0-73.239273-39.098182-75.240727-86.062546l-0.093091-5.236363c0-24.389818-12.869818-42.728727-26.205091-44.683637L562.269091 372.363636H325.818182v398.824728z" fill="#DDDDDD" p-id="68359"></path></svg>