<?xml version="1.0" encoding="utf-8"?>
<svg version="1.1" xmlns:xlink="http://www.w3.org/1999/xlink" width="70px" height="70px" xmlns="http://www.w3.org/2000/svg">
  <defs>
    <linearGradient gradientUnits="userSpaceOnUse" x1="35" y1="0" x2="35" y2="56.7" id="LinearGradient12665">
      <stop id="Stop12666" stop-color="#000000" stop-opacity="0" offset="0" />
      <stop id="Stop12667" stop-color="#000000" stop-opacity="0" offset="0.96" />
      <stop id="Stop12668" stop-color="#000000" stop-opacity="0.8" offset="1" />
    </linearGradient>
    <pattern id="BGPattern" patternUnits="userSpaceOnUse" alignment="0 0" imageRepeat="None" />
    <mask fill="white" id="Clip12669">
      <path d="M 35 70  C 15.399999999999999 70  0 54.6  0 35  C 0 15.399999999999999  15.399999999999999 0  35 0  C 54.6 0  70 15.399999999999999  70 35  C 70 54.6  54.6 70  35 70  Z " fill-rule="evenodd" />
    </mask>
  </defs>
  <g transform="matrix(1 0 0 1 -145 -1830 )">
    <path d="M 35 70  C 15.399999999999999 70  0 54.6  0 35  C 0 15.399999999999999  15.399999999999999 0  35 0  C 54.6 0  70 15.399999999999999  70 35  C 70 54.6  54.6 70  35 70  Z " fill-rule="nonzero" fill="url(#LinearGradient12665)" stroke="none" transform="matrix(1 0 0 1 145 1830 )" class="fill" />
    <path d="M 35 70  C 15.399999999999999 70  0 54.6  0 35  C 0 15.399999999999999  15.399999999999999 0  35 0  C 54.6 0  70 15.399999999999999  70 35  C 70 54.6  54.6 70  35 70  Z " stroke-width="0" stroke-dasharray="0" stroke="rgba(121, 121, 121, 1)" fill="none" transform="matrix(1 0 0 1 145 1830 )" class="stroke" mask="url(#Clip12669)" />
  </g>
</svg>