<?xml version="1.0" encoding="utf-8"?>
<svg version="1.1" xmlns:xlink="http://www.w3.org/1999/xlink" width="33px" height="22px" xmlns="http://www.w3.org/2000/svg">
  <defs>
    <pattern id="BGPattern" patternUnits="userSpaceOnUse" alignment="0 0" imageRepeat="None" />
    <mask fill="white" id="Clip7350">
      <path d="M 27.773064062499998 21.840240234375003  L 27.775401464843753 21.8449150390625  C 26.10448015557212 21.845707943541278  24.56018772646169 20.95459864895585  23.724727148437495 19.507538085937504  C 22.728447561347252 17.840062817053415  21.4740624374177 16.341112062212233  20.008297656250008 15.066521777343759  C 15.853399578195692 11.42630704204277  10.523925743029622 9.408560441523747  5 9.384358300781251  C 2.418204654432138 9.384358300781244  0.3252459960937486 7.291399642442862  0.3252459960937486 4.709604296875  C 0.3252459960937486 2.1278089513071343  2.418204654432138 0.03485029296874842  5 0.03485029296874842  C 12.806015685986225 0.07024454288094262  20.336759895157968 2.9230129637186444  26.207021484375005 8.068415039062508  C 28.42725198570288 10.006306768458181  30.321342086792882 12.288685330874273  31.816726269531244 14.828109277343751  C 32.22702252359906 15.53876225962199  32.44302593952328 16.34489702373058  32.44302593952328 17.165488686692754  C 32.44302593952328 19.745412788573823  30.352986808829186 21.837595534004826  27.773064062499998 21.840240234375003  Z " fill-rule="evenodd" />
    </mask>
  </defs>
  <g transform="matrix(1 0 0 1 -555 -2760 )">
    <path d="M 27.773064062499998 21.840240234375003  L 27.775401464843753 21.8449150390625  C 26.10448015557212 21.845707943541278  24.56018772646169 20.95459864895585  23.724727148437495 19.507538085937504  C 22.728447561347252 17.840062817053415  21.4740624374177 16.341112062212233  20.008297656250008 15.066521777343759  C 15.853399578195692 11.42630704204277  10.523925743029622 9.408560441523747  5 9.384358300781251  C 2.418204654432138 9.384358300781244  0.3252459960937486 7.291399642442862  0.3252459960937486 4.709604296875  C 0.3252459960937486 2.1278089513071343  2.418204654432138 0.03485029296874842  5 0.03485029296874842  C 12.806015685986225 0.07024454288094262  20.336759895157968 2.9230129637186444  26.207021484375005 8.068415039062508  C 28.42725198570288 10.006306768458181  30.321342086792882 12.288685330874273  31.816726269531244 14.828109277343751  C 32.22702252359906 15.53876225962199  32.44302593952328 16.34489702373058  32.44302593952328 17.165488686692754  C 32.44302593952328 19.745412788573823  30.352986808829186 21.837595534004826  27.773064062499998 21.840240234375003  Z " fill-rule="nonzero" fill="rgba(255, 100, 100, 1)" stroke="none" transform="matrix(1 0 0 1 555 2760 )" class="fill" />
    <path d="M 27.773064062499998 21.840240234375003  L 27.775401464843753 21.8449150390625  C 26.10448015557212 21.845707943541278  24.56018772646169 20.95459864895585  23.724727148437495 19.507538085937504  C 22.728447561347252 17.840062817053415  21.4740624374177 16.341112062212233  20.008297656250008 15.066521777343759  C 15.853399578195692 11.42630704204277  10.523925743029622 9.408560441523747  5 9.384358300781251  C 2.418204654432138 9.384358300781244  0.3252459960937486 7.291399642442862  0.3252459960937486 4.709604296875  C 0.3252459960937486 2.1278089513071343  2.418204654432138 0.03485029296874842  5 0.03485029296874842  C 12.806015685986225 0.07024454288094262  20.336759895157968 2.9230129637186444  26.207021484375005 8.068415039062508  C 28.42725198570288 10.006306768458181  30.321342086792882 12.288685330874273  31.816726269531244 14.828109277343751  C 32.22702252359906 15.53876225962199  32.44302593952328 16.34489702373058  32.44302593952328 17.165488686692754  C 32.44302593952328 19.745412788573823  30.352986808829186 21.837595534004826  27.773064062499998 21.840240234375003  Z " stroke-width="0" stroke-dasharray="0" stroke="rgba(255, 255, 255, 0)" fill="none" transform="matrix(1 0 0 1 555 2760 )" class="stroke" mask="url(#Clip7350)" />
  </g>
</svg>