<?xml version="1.0" encoding="utf-8"?>
<svg version="1.1" xmlns:xlink="http://www.w3.org/1999/xlink" width="10px" height="91px" xmlns="http://www.w3.org/2000/svg">
  <defs>
    <pattern id="BGPattern" patternUnits="userSpaceOnUse" alignment="0 0" imageRepeat="None" />
    <mask fill="white" id="Clip18672">
      <path d="M 9.58125888671875 85.7817357421875  C 9.58125888671875 88.36353108775538  7.488300228380368 90.45648974609375  4.906504882812499 90.45648974609375  C 2.3247095753817675 90.45648969215969  0.23175097656250188 88.36353104961822  0.23175097656250188 85.78173574218751  L 0.23175097656250188 60.05422714843749  C 0.2321240961575768 57.472695688248265  2.324973444487121 55.38014880637373  4.906504931640633 55.38014880637373  C 7.488036418794124 55.38014880637373  9.580885767123675 57.472695688248265  9.58125888671875 60.05422714843749  L 9.58125888671875 85.7817357421875  Z M 9.58125888671875 8.900731640625  C 9.581258832784698 11.482526948055728  7.488300190243223 13.575485546875003  4.906504882812499 13.575485546874999  C 2.3247096135189125 13.575485492940938  0.23175103049655377 11.482526909918583  0.23175097656250188 8.900731640624999  L 0.23175097656250188 4.67475400390625  C 0.2321240961575768 2.0932225437170175  2.324973444487135 0.0006756618424856832  4.906504931640633 0.0006756618424856832  C 7.488036418794124 0.0006756618424856832  9.580885767123675 2.093222543717022  9.58125888671875 4.67475400390625  L 9.58125888671875 8.900731640625  Z " fill-rule="evenodd" />
    </mask>
  </defs>
  <g transform="matrix(1 0 0 1 -555 -2737 )">
    <path d="M 9.58125888671875 85.7817357421875  C 9.58125888671875 88.36353108775538  7.488300228380368 90.45648974609375  4.906504882812499 90.45648974609375  C 2.3247095753817675 90.45648969215969  0.23175097656250188 88.36353104961822  0.23175097656250188 85.78173574218751  L 0.23175097656250188 60.05422714843749  C 0.2321240961575768 57.472695688248265  2.324973444487121 55.38014880637373  4.906504931640633 55.38014880637373  C 7.488036418794124 55.38014880637373  9.580885767123675 57.472695688248265  9.58125888671875 60.05422714843749  L 9.58125888671875 85.7817357421875  Z M 9.58125888671875 8.900731640625  C 9.581258832784698 11.482526948055728  7.488300190243223 13.575485546875003  4.906504882812499 13.575485546874999  C 2.3247096135189125 13.575485492940938  0.23175103049655377 11.482526909918583  0.23175097656250188 8.900731640624999  L 0.23175097656250188 4.67475400390625  C 0.2321240961575768 2.0932225437170175  2.324973444487135 0.0006756618424856832  4.906504931640633 0.0006756618424856832  C 7.488036418794124 0.0006756618424856832  9.580885767123675 2.093222543717022  9.58125888671875 4.67475400390625  L 9.58125888671875 8.900731640625  Z " fill-rule="nonzero" fill="rgba(255, 255, 255, 1)" stroke="none" transform="matrix(1 0 0 1 555 2737 )" class="fill" />
    <path d="M 9.58125888671875 85.7817357421875  C 9.58125888671875 88.36353108775538  7.488300228380368 90.45648974609375  4.906504882812499 90.45648974609375  C 2.3247095753817675 90.45648969215969  0.23175097656250188 88.36353104961822  0.23175097656250188 85.78173574218751  L 0.23175097656250188 60.05422714843749  C 0.2321240961575768 57.472695688248265  2.324973444487121 55.38014880637373  4.906504931640633 55.38014880637373  C 7.488036418794124 55.38014880637373  9.580885767123675 57.472695688248265  9.58125888671875 60.05422714843749  L 9.58125888671875 85.7817357421875  Z " stroke-width="0" stroke-dasharray="0" stroke="rgba(255, 255, 255, 0)" fill="none" transform="matrix(1 0 0 1 555 2737 )" class="stroke" mask="url(#Clip18672)" />
    <path d="M 9.58125888671875 8.900731640625  C 9.581258832784698 11.482526948055728  7.488300190243223 13.575485546875003  4.906504882812499 13.575485546874999  C 2.3247096135189125 13.575485492940938  0.23175103049655377 11.482526909918583  0.23175097656250188 8.900731640624999  L 0.23175097656250188 4.67475400390625  C 0.2321240961575768 2.0932225437170175  2.324973444487135 0.0006756618424856832  4.906504931640633 0.0006756618424856832  C 7.488036418794124 0.0006756618424856832  9.580885767123675 2.093222543717022  9.58125888671875 4.67475400390625  L 9.58125888671875 8.900731640625  Z " stroke-width="0" stroke-dasharray="0" stroke="rgba(255, 255, 255, 0)" fill="none" transform="matrix(1 0 0 1 555 2737 )" class="stroke" mask="url(#Clip18672)" />
  </g>
</svg>