<?xml version="1.0" encoding="utf-8"?>
<svg version="1.1" xmlns:xlink="http://www.w3.org/1999/xlink" width="10px" height="10px" xmlns="http://www.w3.org/2000/svg">
  <defs>
    <pattern id="BGPattern" patternUnits="userSpaceOnUse" alignment="0 0" imageRepeat="None" />
    <linearGradient gradientUnits="userSpaceOnUse" x1="10" y1="9.999999999999996" x2="0" y2="-4.440892098500626E-15" id="LinearGradient9029">
      <stop id="Stop9030" stop-color="#333333" stop-opacity="0.2980392156862745" offset="0" />
      <stop id="Stop9031" stop-color="#ffffff" stop-opacity="0.09803921568627451" offset="0.53" />
      <stop id="Stop9032" stop-color="#000000" stop-opacity="0.2980392156862745" offset="1" />
    </linearGradient>
    <mask fill="white" id="Clip9033">
      <path d="M 5 10  C 2.1999999999999997 10  0 7.800000000000001  0 5  C 0 2.1999999999999997  2.1999999999999997 0  5 0  C 7.800000000000001 0  10 2.1999999999999997  10 5  C 10 7.800000000000001  7.800000000000001 10  5 10  Z " fill-rule="evenodd" />
    </mask>
  </defs>
  <g transform="matrix(1 0 0 1 -1467 -1866 )">
    <path d="M 5 10  C 2.1999999999999997 10  0 7.800000000000001  0 5  C 0 2.1999999999999997  2.1999999999999997 0  5 0  C 7.800000000000001 0  10 2.1999999999999997  10 5  C 10 7.800000000000001  7.800000000000001 10  5 10  Z " fill-rule="nonzero" fill="rgba(0, 0, 0, 0.23529411764705882)" stroke="none" transform="matrix(1 0 0 1 1467 1866 )" class="fill" />
    <path d="M 5 10  C 2.1999999999999997 10  0 7.800000000000001  0 5  C 0 2.1999999999999997  2.1999999999999997 0  5 0  C 7.800000000000001 0  10 2.1999999999999997  10 5  C 10 7.800000000000001  7.800000000000001 10  5 10  Z " stroke-width="0" stroke-dasharray="0" stroke="url(#LinearGradient9029)" fill="none" transform="matrix(1 0 0 1 1467 1866 )" class="stroke" mask="url(#Clip9033)" />
  </g>
</svg>