<?xml version="1.0" encoding="utf-8"?>
<svg version="1.1" xmlns:xlink="http://www.w3.org/1999/xlink" width="360px" height="640px" xmlns="http://www.w3.org/2000/svg">
  <defs>
    <pattern id="BGPattern" patternUnits="userSpaceOnUse" alignment="0 0" imageRepeat="None" />
    <mask fill="white" id="Clip10831">
      <path d="M 360 0  L 360 640  L 0 640  L 0 0  L 360 0  Z M 180 437  C 245.51999999999998 437  297 385.52  297 320  C 297 254.48000000000002  245.51999999999998 203  180 203  C 114.48000000000002 203  62.99999999999999 254.48000000000002  62.99999999999999 320  C 62.99999999999999 385.52  114.48000000000002 437  180 437  Z " fill-rule="evenodd" />
    </mask>
  </defs>
  <g transform="matrix(1 0 0 1 -760 -1764 )">
    <path d="M 360 0  L 360 640  L 0 640  L 0 0  L 360 0  Z M 180 437  C 245.51999999999998 437  297 385.52  297 320  C 297 254.48000000000002  245.51999999999998 203  180 203  C 114.48000000000002 203  62.99999999999999 254.48000000000002  62.99999999999999 320  C 62.99999999999999 385.52  114.48000000000002 437  180 437  Z " fill-rule="nonzero" fill="rgba(0, 0, 0, 0.8)" stroke="none" transform="matrix(1 0 0 1 760 1764 )" class="fill" />
    <path d="M 360 0  L 360 640  L 0 640  L 0 0  L 360 0  Z " stroke-width="2" stroke-dasharray="0" stroke="rgba(255, 255, 255, 1)" fill="none" transform="matrix(1 0 0 1 760 1764 )" class="stroke" mask="url(#Clip10831)" />
    <path d="M 180 437  C 245.51999999999998 437  297 385.52  297 320  C 297 254.48000000000002  245.51999999999998 203  180 203  C 114.48000000000002 203  62.99999999999999 254.48000000000002  62.99999999999999 320  C 62.99999999999999 385.52  114.48000000000002 437  180 437  Z " stroke-width="2" stroke-dasharray="0" stroke="rgba(255, 255, 255, 1)" fill="none" transform="matrix(1 0 0 1 760 1764 )" class="stroke" mask="url(#Clip10831)" />
  </g>
</svg>