<?xml version="1.0" encoding="utf-8"?>
<svg version="1.1" xmlns:xlink="http://www.w3.org/1999/xlink" width="152px" height="31px" xmlns="http://www.w3.org/2000/svg">
  <defs>
    <pattern id="BGPattern" patternUnits="userSpaceOnUse" alignment="0 0" imageRepeat="None" />
    <mask fill="white" id="Clip1227">
      <path d="M 0 19  L 0 5  C 0 2.2000000000000455  2.810084033613428 0  6.386554621848755 0  L 145.61344537815125 0  C 149.18991596638656 0  152 2.2000000000000455  152 5  L 152 19  C 152 21.799999999999955  149.18991596638656 24  145.61344537815125 24  L 81.51893177245294 24  L 22.723519037241648 24  L 18.386969602653025 30.654320987652  L 14.838883701625893 24  L 6.386554621848755 24  C 2.810084033613428 24  0 21.799999999999955  0 19  Z " fill-rule="evenodd" />
    </mask>
  </defs>
  <g transform="matrix(1 0 0 1 -44 -1416 )">
    <path d="M 0 19  L 0 5  C 0 2.2000000000000455  2.810084033613428 0  6.386554621848755 0  L 145.61344537815125 0  C 149.18991596638656 0  152 2.2000000000000455  152 5  L 152 19  C 152 21.799999999999955  149.18991596638656 24  145.61344537815125 24  L 81.51893177245294 24  L 22.723519037241648 24  L 18.386969602653025 30.654320987652  L 14.838883701625893 24  L 6.386554621848755 24  C 2.810084033613428 24  0 21.799999999999955  0 19  Z " fill-rule="nonzero" fill="rgba(255, 64, 37, 1)" stroke="none" transform="matrix(1 0 0 1 44 1416 )" class="fill" />
    <path d="M 0 19  L 0 5  C 0 2.2000000000000455  2.810084033613428 0  6.386554621848755 0  L 145.61344537815125 0  C 149.18991596638656 0  152 2.2000000000000455  152 5  L 152 19  C 152 21.799999999999955  149.18991596638656 24  145.61344537815125 24  L 81.51893177245294 24  L 22.723519037241648 24  L 18.386969602653025 30.654320987652  L 14.838883701625893 24  L 6.386554621848755 24  C 2.810084033613428 24  0 21.799999999999955  0 19  Z " stroke-width="0" stroke-dasharray="0" stroke="rgba(121, 121, 121, 1)" fill="none" transform="matrix(1 0 0 1 44 1416 )" class="stroke" mask="url(#Clip1227)" />
  </g>
</svg>