<?xml version="1.0" encoding="utf-8"?>
<svg version="1.1" xmlns:xlink="http://www.w3.org/1999/xlink" width="12px" height="12px" xmlns="http://www.w3.org/2000/svg">
  <defs>
    <pattern id="BGPattern" patternUnits="userSpaceOnUse" alignment="0 0" imageRepeat="None" />
  </defs>
  <g transform="matrix(1 0 0 1 -435 -1451 )">
    <path d="M 0 6.000000000000002  A 6 6 0 0 1 5.999999999999998 0 A 6 6 0 0 1 12 6 A 6 6 0 0 1 6 12 A 6 6 0 0 1 0 6.000000000000002 Z " fill-rule="nonzero" fill="rgba(240, 240, 240, 1)" stroke="none" transform="matrix(1 0 0 1 435 1451 )" class="fill" />
    <path d="M 0.5 6.000000000000001  A 5.5 5.5 0 0 1 5.999999999999999 0.5 A 5.5 5.5 0 0 1 11.5 6 A 5.5 5.5 0 0 1 6 11.5 A 5.5 5.5 0 0 1 0.5 6.000000000000001 Z " stroke-width="1" stroke-dasharray="0" stroke="rgba(255, 255, 255, 1)" fill="none" transform="matrix(1 0 0 1 435 1451 )" class="stroke" stroke-dashoffset="0.5" />
  </g>
</svg>