<?xml version="1.0" encoding="utf-8"?>
<svg version="1.1" xmlns:xlink="http://www.w3.org/1999/xlink" width="13px" height="15px" xmlns="http://www.w3.org/2000/svg">
  <defs>
    <pattern id="BGPattern" patternUnits="userSpaceOnUse" alignment="0 0" imageRepeat="None" />
    <mask fill="white" id="Clip4888">
      <path d="M 7.625000000000002 15  C 7.625000000000002 15  16.625 12.75  10.25 4.875  L 9.125 6  C 9.125 6  9.125 1.5000000000000004  5.375000000000001 0  C 5.375000000000001 0  5 4.125  3.125 5.625  C 1.2500000000000004 7.125  -2.4999999999999996 11.625  5 15  C 5 15  1.2500000000000004 10.875  6.125000000000001 7.875  C 6.125000000000001 7.875  5.75 9.375  7.625000000000002 10.875000000000002  C 9.500000000000004 12.375000000000004  7.625000000000002 15  7.625000000000002 15  Z " fill-rule="evenodd" />
    </mask>
  </defs>
  <g transform="matrix(1 0 0 1 -61 -351 )">
    <path d="M 7.625000000000002 15  C 7.625000000000002 15  16.625 12.75  10.25 4.875  L 9.125 6  C 9.125 6  9.125 1.5000000000000004  5.375000000000001 0  C 5.375000000000001 0  5 4.125  3.125 5.625  C 1.2500000000000004 7.125  -2.4999999999999996 11.625  5 15  C 5 15  1.2500000000000004 10.875  6.125000000000001 7.875  C 6.125000000000001 7.875  5.75 9.375  7.625000000000002 10.875000000000002  C 9.500000000000004 12.375000000000004  7.625000000000002 15  7.625000000000002 15  Z " fill-rule="nonzero" fill="rgba(255, 255, 255, 1)" stroke="none" transform="matrix(1 0 0 1 61 351 )" class="fill" />
    <path d="M 7.625000000000002 15  C 7.625000000000002 15  16.625 12.75  10.25 4.875  L 9.125 6  C 9.125 6  9.125 1.5000000000000004  5.375000000000001 0  C 5.375000000000001 0  5 4.125  3.125 5.625  C 1.2500000000000004 7.125  -2.4999999999999996 11.625  5 15  C 5 15  1.2500000000000004 10.875  6.125000000000001 7.875  C 6.125000000000001 7.875  5.75 9.375  7.625000000000002 10.875000000000002  C 9.500000000000004 12.375000000000004  7.625000000000002 15  7.625000000000002 15  Z " stroke-width="0" stroke-dasharray="0" stroke="rgba(255, 255, 255, 0)" fill="none" transform="matrix(1 0 0 1 61 351 )" class="stroke" mask="url(#Clip4888)" />
  </g>
</svg>