<?xml version="1.0" encoding="utf-8"?>
<svg version="1.1" xmlns:xlink="http://www.w3.org/1999/xlink" width="12px" height="10px" xmlns="http://www.w3.org/2000/svg">
  <defs>
    <pattern id="BGPattern" patternUnits="userSpaceOnUse" alignment="0 0" imageRepeat="None" />
    <mask fill="white" id="Clip3628">
      <path d="M 1.8750000000000013 4.3125  C 1.3125000000000016 5.25  0.9375000000000017 6.5625  0.37499999999999994 8.25  L 0 9.375  L 1.3125000000000016 9.375  C 8.062499999999996 9.375  11.625 8.25  11.625 5.25  C 11.625 1.6874999999999998  10.124999999999996 0  7.124999999999997 0  C 4.687499999999997 0  2.999999999999998 1.6875  1.8750000000000013 4.3125  Z M 2.6249999999999982 7.5  C 2.812499999999998 6.5625  3.1875000000000013 5.625  3.5624999999999982 5.0625  C 4.499999999999997 3.1875000000000004  5.624999999999997 1.8750000000000004  7.124999999999997 1.8750000000000004  C 8.999999999999996 1.8750000000000004  9.75 2.625000000000001  9.75 5.250000000000002  C 9.75 6.5625  7.5 7.312500000000001  2.6249999999999982 7.5  Z " fill-rule="evenodd" />
    </mask>
  </defs>
  <g transform="matrix(1 0 0 1 -331 -1402 )">
    <path d="M 1.8750000000000013 4.3125  C 1.3125000000000016 5.25  0.9375000000000017 6.5625  0.37499999999999994 8.25  L 0 9.375  L 1.3125000000000016 9.375  C 8.062499999999996 9.375  11.625 8.25  11.625 5.25  C 11.625 1.6874999999999998  10.124999999999996 0  7.124999999999997 0  C 4.687499999999997 0  2.999999999999998 1.6875  1.8750000000000013 4.3125  Z M 2.6249999999999982 7.5  C 2.812499999999998 6.5625  3.1875000000000013 5.625  3.5624999999999982 5.0625  C 4.499999999999997 3.1875000000000004  5.624999999999997 1.8750000000000004  7.124999999999997 1.8750000000000004  C 8.999999999999996 1.8750000000000004  9.75 2.625000000000001  9.75 5.250000000000002  C 9.75 6.5625  7.5 7.312500000000001  2.6249999999999982 7.5  Z " fill-rule="nonzero" fill="rgba(255, 180, 0, 1)" stroke="none" transform="matrix(1 0 0 1 331 1402 )" class="fill" />
    <path d="M 1.8750000000000013 4.3125  C 1.3125000000000016 5.25  0.9375000000000017 6.5625  0.37499999999999994 8.25  L 0 9.375  L 1.3125000000000016 9.375  C 8.062499999999996 9.375  11.625 8.25  11.625 5.25  C 11.625 1.6874999999999998  10.124999999999996 0  7.124999999999997 0  C 4.687499999999997 0  2.999999999999998 1.6875  1.8750000000000013 4.3125  Z " stroke-width="0" stroke-dasharray="0" stroke="rgba(255, 255, 255, 0)" fill="none" transform="matrix(1 0 0 1 331 1402 )" class="stroke" mask="url(#Clip3628)" />
    <path d="M 2.6249999999999982 7.5  C 2.812499999999998 6.5625  3.1875000000000013 5.625  3.5624999999999982 5.0625  C 4.499999999999997 3.1875000000000004  5.624999999999997 1.8750000000000004  7.124999999999997 1.8750000000000004  C 8.999999999999996 1.8750000000000004  9.75 2.625000000000001  9.75 5.250000000000002  C 9.75 6.5625  7.5 7.312500000000001  2.6249999999999982 7.5  Z " stroke-width="0" stroke-dasharray="0" stroke="rgba(255, 255, 255, 0)" fill="none" transform="matrix(1 0 0 1 331 1402 )" class="stroke" mask="url(#Clip3628)" />
  </g>
</svg>