<?xml version="1.0" encoding="utf-8"?>
<svg version="1.1" xmlns:xlink="http://www.w3.org/1999/xlink" width="20px" height="3px" xmlns="http://www.w3.org/2000/svg">
  <defs>
    <pattern id="BGPattern" patternUnits="userSpaceOnUse" alignment="0 0" imageRepeat="None" />
    <mask fill="white" id="Clip4899">
      <path d="M 0.062499999999999986 1.9499217499999997  C 0.062499999999999986 1.2905581562500004  0.39218179687500054 0.960876364583334  1.0515453906249999 1  L 18.954518781250002 1  C 19.613882375000003 0.9608763750000007  19.94356416666667 1.290558166666667  19.94356415625 1.9499217499999997  C 19.94356415625 2.609285343749999  19.613882364583336 2.9389671406249995  18.954518781250002 2.9389671406249995  L 1.0515453906250016 2.9389671406249995  C 0.39218179687500054 2.9389671406249995  0.062499999999999986 2.609285343749999  0.062499999999999986 1.9499217499999997  Z " fill-rule="evenodd" />
    </mask>
  </defs>
  <g transform="matrix(1 0 0 1 1700 -2313 )">
    <path d="M 0.062499999999999986 1.9499217499999997  C 0.062499999999999986 1.2905581562500004  0.39218179687500054 0.960876364583334  1.0515453906249999 1  L 18.954518781250002 1  C 19.613882375000003 0.9608763750000007  19.94356416666667 1.290558166666667  19.94356415625 1.9499217499999997  C 19.94356415625 2.609285343749999  19.613882364583336 2.9389671406249995  18.954518781250002 2.9389671406249995  L 1.0515453906250016 2.9389671406249995  C 0.39218179687500054 2.9389671406249995  0.062499999999999986 2.609285343749999  0.062499999999999986 1.9499217499999997  Z " fill-rule="nonzero" fill="rgba(51, 51, 51, 1)" stroke="none" transform="matrix(1 0 0 1 -1700 2313 )" class="fill" />
    <path d="M 0.062499999999999986 1.9499217499999997  C 0.062499999999999986 1.2905581562500004  0.39218179687500054 0.960876364583334  1.0515453906249999 1  L 18.954518781250002 1  C 19.613882375000003 0.9608763750000007  19.94356416666667 1.290558166666667  19.94356415625 1.9499217499999997  C 19.94356415625 2.609285343749999  19.613882364583336 2.9389671406249995  18.954518781250002 2.9389671406249995  L 1.0515453906250016 2.9389671406249995  C 0.39218179687500054 2.9389671406249995  0.062499999999999986 2.609285343749999  0.062499999999999986 1.9499217499999997  Z " stroke-width="0" stroke-dasharray="0" stroke="rgba(255, 255, 255, 0)" fill="none" transform="matrix(1 0 0 1 -1700 2313 )" class="stroke" mask="url(#Clip4899)" />
  </g>
</svg>