<?xml version="1.0" encoding="utf-8"?>
<svg version="1.1" xmlns:xlink="http://www.w3.org/1999/xlink" width="20px" height="20px" xmlns="http://www.w3.org/2000/svg">
  <defs>
    <pattern id="BGPattern" patternUnits="userSpaceOnUse" alignment="0 0" imageRepeat="None" />
    <mask fill="white" id="Clip10512">
      <path d="M 11.022022217285157 1.32367409765625  C 10.468888300173912 0.8219260127504635  9.625257236203042 0.8219260127504641  9.072123319091796 1.32367409765625  L 1.1874346435546874 8.810507357177734  C 1.03752142695074 8.948252684564423  0.9521985397605137 9.142521591141243  0.9521985397605137 9.346108790467254  C 0.9521985397605137 9.747821273187727  1.2778508500087904 10.073473583436003  1.6795633327292636 10.073473583436003  C 1.8570977286341384 10.073473583436003  2.028502438344958 10.008543318818468  2.161478847412109 9.890917911865236  L 2.2868553549804687 9.771878123291016  L 2.286855354980468 17.58595764624023  C 2.2868546038948576 17.58656114301862  2.286854228351944 17.587164640205835  2.286854228351944 17.587768137451608  C 2.286854228351944 18.391193103431892  2.9381588492857205 19.042497724365667  3.741583815266006 19.042497724365667  L 7.974965721191407 19.042497724365234  L 7.974965721191407 14.662919789794921  C 7.974965121072202 14.662467133773273  7.974964821012498 14.662014477402954  7.974964821012498 14.661561820983495  C 7.974964821012498 14.095864652896935  8.433552984468907 13.637276489440524  8.999250152555467 13.637276489440524  L 10.991696491943358 13.637276589843752  C 11.557847182523279 13.637276489440742  12.016435345979687 14.09586465289715  12.016435345979687 14.661561820983708  C 12.016435345979687 14.662014477403694  12.016435045919987 14.662467133772745  12.01643444580078 14.662919789794921  L 12.01643444580078 19.042497724365234  L 16.350297480957032 19.042497724365234  C 17.154176196212504 19.042497795130416  17.80548081714628 18.39119317419664  17.80548081714628 17.587768208216353  C 17.80548081714628 17.58716468738256  17.805480441574005 17.586561166606586  17.805479690429685 17.58595764624023  L 17.805479690429685 9.867381528076171  C 18.12865234912109 10.159775838134767  18.58715921630859 10.137597322509764  18.856017142333982 9.837961048095705  C 18.976725843462017 9.704289161055605  19.043547969594698 9.530586558880596  19.043547969594698 9.350478913532383  C 19.043547969594698 9.144631765655774  18.956327012947774 8.948423619874175  18.803512901123042 8.810507357177732  L 11.022022217285157 1.3241267204589842  Z " fill-rule="evenodd" />
    </mask>
  </defs>
  <g transform="matrix(1 0 0 1 -83 -3858 )">
    <path d="M 11.022022217285157 1.32367409765625  C 10.468888300173912 0.8219260127504635  9.625257236203042 0.8219260127504641  9.072123319091796 1.32367409765625  L 1.1874346435546874 8.810507357177734  C 1.03752142695074 8.948252684564423  0.9521985397605137 9.142521591141243  0.9521985397605137 9.346108790467254  C 0.9521985397605137 9.747821273187727  1.2778508500087904 10.073473583436003  1.6795633327292636 10.073473583436003  C 1.8570977286341384 10.073473583436003  2.028502438344958 10.008543318818468  2.161478847412109 9.890917911865236  L 2.2868553549804687 9.771878123291016  L 2.286855354980468 17.58595764624023  C 2.2868546038948576 17.58656114301862  2.286854228351944 17.587164640205835  2.286854228351944 17.587768137451608  C 2.286854228351944 18.391193103431892  2.9381588492857205 19.042497724365667  3.741583815266006 19.042497724365667  L 7.974965721191407 19.042497724365234  L 7.974965721191407 14.662919789794921  C 7.974965121072202 14.662467133773273  7.974964821012498 14.662014477402954  7.974964821012498 14.661561820983495  C 7.974964821012498 14.095864652896935  8.433552984468907 13.637276489440524  8.999250152555467 13.637276489440524  L 10.991696491943358 13.637276589843752  C 11.557847182523279 13.637276489440742  12.016435345979687 14.09586465289715  12.016435345979687 14.661561820983708  C 12.016435345979687 14.662014477403694  12.016435045919987 14.662467133772745  12.01643444580078 14.662919789794921  L 12.01643444580078 19.042497724365234  L 16.350297480957032 19.042497724365234  C 17.154176196212504 19.042497795130416  17.80548081714628 18.39119317419664  17.80548081714628 17.587768208216353  C 17.80548081714628 17.58716468738256  17.805480441574005 17.586561166606586  17.805479690429685 17.58595764624023  L 17.805479690429685 9.867381528076171  C 18.12865234912109 10.159775838134767  18.58715921630859 10.137597322509764  18.856017142333982 9.837961048095705  C 18.976725843462017 9.704289161055605  19.043547969594698 9.530586558880596  19.043547969594698 9.350478913532383  C 19.043547969594698 9.144631765655774  18.956327012947774 8.948423619874175  18.803512901123042 8.810507357177732  L 11.022022217285157 1.3241267204589842  Z " fill-rule="nonzero" fill="rgba(255, 64, 37, 1)" stroke="none" transform="matrix(1 0 0 1 83 3858 )" class="fill" />
    <path d="M 11.022022217285157 1.32367409765625  C 10.468888300173912 0.8219260127504635  9.625257236203042 0.8219260127504641  9.072123319091796 1.32367409765625  L 1.1874346435546874 8.810507357177734  C 1.03752142695074 8.948252684564423  0.9521985397605137 9.142521591141243  0.9521985397605137 9.346108790467254  C 0.9521985397605137 9.747821273187727  1.2778508500087904 10.073473583436003  1.6795633327292636 10.073473583436003  C 1.8570977286341384 10.073473583436003  2.028502438344958 10.008543318818468  2.161478847412109 9.890917911865236  L 2.2868553549804687 9.771878123291016  L 2.286855354980468 17.58595764624023  C 2.2868546038948576 17.58656114301862  2.286854228351944 17.587164640205835  2.286854228351944 17.587768137451608  C 2.286854228351944 18.391193103431892  2.9381588492857205 19.042497724365667  3.741583815266006 19.042497724365667  L 7.974965721191407 19.042497724365234  L 7.974965721191407 14.662919789794921  C 7.974965121072202 14.662467133773273  7.974964821012498 14.662014477402954  7.974964821012498 14.661561820983495  C 7.974964821012498 14.095864652896935  8.433552984468907 13.637276489440524  8.999250152555467 13.637276489440524  L 10.991696491943358 13.637276589843752  C 11.557847182523279 13.637276489440742  12.016435345979687 14.09586465289715  12.016435345979687 14.661561820983708  C 12.016435345979687 14.662014477403694  12.016435045919987 14.662467133772745  12.01643444580078 14.662919789794921  L 12.01643444580078 19.042497724365234  L 16.350297480957032 19.042497724365234  C 17.154176196212504 19.042497795130416  17.80548081714628 18.39119317419664  17.80548081714628 17.587768208216353  C 17.80548081714628 17.58716468738256  17.805480441574005 17.586561166606586  17.805479690429685 17.58595764624023  L 17.805479690429685 9.867381528076171  C 18.12865234912109 10.159775838134767  18.58715921630859 10.137597322509764  18.856017142333982 9.837961048095705  C 18.976725843462017 9.704289161055605  19.043547969594698 9.530586558880596  19.043547969594698 9.350478913532383  C 19.043547969594698 9.144631765655774  18.956327012947774 8.948423619874175  18.803512901123042 8.810507357177732  L 11.022022217285157 1.3241267204589842  Z " stroke-width="0" stroke-dasharray="0" stroke="rgba(255, 255, 255, 0)" fill="none" transform="matrix(1 0 0 1 83 3858 )" class="stroke" mask="url(#Clip10512)" />
  </g>
</svg>