<?xml version="1.0" encoding="utf-8"?>
<svg version="1.1" xmlns:xlink="http://www.w3.org/1999/xlink" width="20px" height="20px" xmlns="http://www.w3.org/2000/svg">
  <defs>
    <pattern id="BGPattern" patternUnits="userSpaceOnUse" alignment="0 0" imageRepeat="None" />
    <mask fill="white" id="Clip10514">
      <path d="M 18.024641906452022 3.1512988874479553  C 15.924482190391684 0.8058043819534498  12.424195715553303 0.8895884239983614  10.24625681328432 3.0675366869155685  C 8.06829762961085 0.8896102655108863  4.5680314361769545 0.8058262234659745  2.4678717201166167 3.1512988874479553  C -2.4325009506908373 8.51238550269606  4.879168462416021 16.55405910859327  9.623962479401696 19.65343526039178  C 9.857320319432118 19.73719746092417  10.012878691849407 19.820981502969083  10.24623653187983 19.820981502969083  C 10.479594371910252 19.820981502969083  10.635152744327543 19.737219302436696  10.79073139814932 19.65343526039178  C 15.613345164152614 16.55405910859327  22.925014577259475 8.512407344208587  18.02462162504753 3.1512988874479566  Z M 13.357586512866016 4.659105863081018  C 13.357586512866016 4.240273018906559  13.668703257700596 4.07272677632926  13.97986056534415 3.9889645757968735  C 15.61332488274813 3.8214183332195755  16.935631892508557 5.329225308852638  17.16898973253898 6.837054125998225  C 17.246768918747627 7.255886970172685  17.0134110787172 7.50719541328237  16.70227405247813 7.590957613814756  C 16.468916212447713 7.590957613814756  16.157779186208646 7.423411371237459  16.080000000000002 7.088340727595385  C 15.691083787552284 5.999366596136783  15.068809735074154 5.245463108320251  13.902040816326531 5.245463108320251  C 13.59092407149195 5.245463108320251  13.357545950057045 4.910414306190703  13.357545950057045 4.659084021568493  Z " fill-rule="evenodd" />
    </mask>
  </defs>
  <g transform="matrix(1 0 0 1 -266 -3858 )">
    <path d="M 18.024641906452022 3.1512988874479553  C 15.924482190391684 0.8058043819534498  12.424195715553303 0.8895884239983614  10.24625681328432 3.0675366869155685  C 8.06829762961085 0.8896102655108863  4.5680314361769545 0.8058262234659745  2.4678717201166167 3.1512988874479553  C -2.4325009506908373 8.51238550269606  4.879168462416021 16.55405910859327  9.623962479401696 19.65343526039178  C 9.857320319432118 19.73719746092417  10.012878691849407 19.820981502969083  10.24623653187983 19.820981502969083  C 10.479594371910252 19.820981502969083  10.635152744327543 19.737219302436696  10.79073139814932 19.65343526039178  C 15.613345164152614 16.55405910859327  22.925014577259475 8.512407344208587  18.02462162504753 3.1512988874479566  Z M 13.357586512866016 4.659105863081018  C 13.357586512866016 4.240273018906559  13.668703257700596 4.07272677632926  13.97986056534415 3.9889645757968735  C 15.61332488274813 3.8214183332195755  16.935631892508557 5.329225308852638  17.16898973253898 6.837054125998225  C 17.246768918747627 7.255886970172685  17.0134110787172 7.50719541328237  16.70227405247813 7.590957613814756  C 16.468916212447713 7.590957613814756  16.157779186208646 7.423411371237459  16.080000000000002 7.088340727595385  C 15.691083787552284 5.999366596136783  15.068809735074154 5.245463108320251  13.902040816326531 5.245463108320251  C 13.59092407149195 5.245463108320251  13.357545950057045 4.910414306190703  13.357545950057045 4.659084021568493  Z " fill-rule="nonzero" fill="rgba(255, 255, 255, 1)" stroke="none" transform="matrix(1 0 0 1 266 3858 )" class="fill" />
    <path d="M 18.024641906452022 3.1512988874479553  C 15.924482190391684 0.8058043819534498  12.424195715553303 0.8895884239983614  10.24625681328432 3.0675366869155685  C 8.06829762961085 0.8896102655108863  4.5680314361769545 0.8058262234659745  2.4678717201166167 3.1512988874479553  C -2.4325009506908373 8.51238550269606  4.879168462416021 16.55405910859327  9.623962479401696 19.65343526039178  C 9.857320319432118 19.73719746092417  10.012878691849407 19.820981502969083  10.24623653187983 19.820981502969083  C 10.479594371910252 19.820981502969083  10.635152744327543 19.737219302436696  10.79073139814932 19.65343526039178  C 15.613345164152614 16.55405910859327  22.925014577259475 8.512407344208587  18.02462162504753 3.1512988874479566  Z " stroke-width="0" stroke-dasharray="0" stroke="rgba(255, 255, 255, 0)" fill="none" transform="matrix(1 0 0 1 266 3858 )" class="stroke" mask="url(#Clip10514)" />
    <path d="M 13.357586512866016 4.659105863081018  C 13.357586512866016 4.240273018906559  13.668703257700596 4.07272677632926  13.97986056534415 3.9889645757968735  C 15.61332488274813 3.8214183332195755  16.935631892508557 5.329225308852638  17.16898973253898 6.837054125998225  C 17.246768918747627 7.255886970172685  17.0134110787172 7.50719541328237  16.70227405247813 7.590957613814756  C 16.468916212447713 7.590957613814756  16.157779186208646 7.423411371237459  16.080000000000002 7.088340727595385  C 15.691083787552284 5.999366596136783  15.068809735074154 5.245463108320251  13.902040816326531 5.245463108320251  C 13.59092407149195 5.245463108320251  13.357545950057045 4.910414306190703  13.357545950057045 4.659084021568493  Z " stroke-width="0" stroke-dasharray="0" stroke="rgba(255, 255, 255, 0)" fill="none" transform="matrix(1 0 0 1 266 3858 )" class="stroke" mask="url(#Clip10514)" />
  </g>
</svg>