<?xml version="1.0" encoding="utf-8"?>
<svg version="1.1" xmlns:xlink="http://www.w3.org/1999/xlink" width="20px" height="19px" xmlns="http://www.w3.org/2000/svg">
  <defs>
    <pattern id="BGPattern" patternUnits="userSpaceOnUse" alignment="0 0" imageRepeat="None" />
    <mask fill="white" id="Clip10509">
      <path d="M 5 1  L 15 1  C 15.46 0.8337499999999999  15.83375 1.20625  15.83375 1.6662500000000002  L 15.8325 3.75  L 18.3325 3.75  C 18.751250000000002 3.75  19.0975 4.05875  19.1575 4.46  L 19.16625 4.58375  C 19.16625 7.390000000000001  17.56875 9.33625  15.42125 9.56125  C 14.66375 11.5175  12.92875 12.967500000000001  10.82875 13.27375  L 10.83375 13.333750000000002  L 10.8325 14.166250000000002  L 12.1 14.166250000000002  C 12.34 14.166250000000002  12.566249999999998 14.270000000000003  12.722499999999998 14.446250000000003  L 12.794999999999998 14.541250000000005  L 14.444999999999999 17.041250000000005  C 14.534730217246734 17.177423434142685  14.582555548007987 17.336921991081283  14.582555548007987 17.500000855601975  C 14.582555548007987 17.960001872266716  14.210000544607437 18.333090990547905  13.75 18.33375  L 6.25 18.33375  C 5.789731941739462 18.33346829985353  5.416760284059292 17.96026830062153  5.416760284059292 17.50000015615583  C 5.416760284059292 17.345992134378854  5.459417063209049 17.194993518201102  5.540000000000001 17.06375  L 7.077500000000001 14.563750000000002  C 7.229053972888607 14.316917394903548  7.4978538189662025 14.166427340233342  7.7875000000000005 14.16625  L 9.16625 14.16625  L 9.16625 13.333750000000002  L 9.17 13.27375  C 7.07 12.967500000000001  5.33625 11.51625  4.577500000000001 9.56125  C 2.43125 9.3375  0.83375 7.39  0.83375 4.58375  C 0.83375 4.1225000000000005  1.20625 3.75  1.6662500000000002 3.75  L 4.16625 3.75  L 4.16625 1.66625  C 4.16625 1.2487499999999998  4.475 0.9025  4.876250000000001 0.84125  L 5 1  Z M 11.652500000000002 15.8325  L 11.65125 15.83375  L 8.252500000000001 15.83375  L 7.74 16.66625  L 12.2025 16.66625  L 11.652500000000002 15.8325  Z M 14.16625 7.353749999999999  L 14.16625 2.5  L 5.8325000000000005 2.5  L 5.8325000000000005 7.352499999999999  C 5.8325000000000005 9.66875  7.592499999999999 11.55  9.7925 11.66125  L 10 11.66625  C 12.29625 11.66625  14.16625 9.741249999999999  14.16625 7.353749999999999  Z M 4.16625 7.75625  L 4.16625 5.41625  L 2.5625 5.41625  L 2.60625 5.64875  C 2.8337499999999998 6.716250000000001  3.40875 7.443749999999999  4.151249999999999 7.751250000000001  L 4.16625 7.75625  Z M 17.43625 5.4175  L 17.43625 5.41625  L 15.8325 5.41625  L 15.8325 7.75625  L 15.995000000000001 7.68375  C 16.715000000000003 7.32125  17.25375 6.54375  17.435000000000002 5.430000000000001  L 17.43625 5.4175  Z " fill-rule="evenodd" />
    </mask>
  </defs>
  <g transform="matrix(1 0 0 1 -170 -80 )">
    <path d="M 5 1  L 15 1  C 15.46 0.8337499999999999  15.83375 1.20625  15.83375 1.6662500000000002  L 15.8325 3.75  L 18.3325 3.75  C 18.751250000000002 3.75  19.0975 4.05875  19.1575 4.46  L 19.16625 4.58375  C 19.16625 7.390000000000001  17.56875 9.33625  15.42125 9.56125  C 14.66375 11.5175  12.92875 12.967500000000001  10.82875 13.27375  L 10.83375 13.333750000000002  L 10.8325 14.166250000000002  L 12.1 14.166250000000002  C 12.34 14.166250000000002  12.566249999999998 14.270000000000003  12.722499999999998 14.446250000000003  L 12.794999999999998 14.541250000000005  L 14.444999999999999 17.041250000000005  C 14.534730217246734 17.177423434142685  14.582555548007987 17.336921991081283  14.582555548007987 17.500000855601975  C 14.582555548007987 17.960001872266716  14.210000544607437 18.333090990547905  13.75 18.33375  L 6.25 18.33375  C 5.789731941739462 18.33346829985353  5.416760284059292 17.96026830062153  5.416760284059292 17.50000015615583  C 5.416760284059292 17.345992134378854  5.459417063209049 17.194993518201102  5.540000000000001 17.06375  L 7.077500000000001 14.563750000000002  C 7.229053972888607 14.316917394903548  7.4978538189662025 14.166427340233342  7.7875000000000005 14.16625  L 9.16625 14.16625  L 9.16625 13.333750000000002  L 9.17 13.27375  C 7.07 12.967500000000001  5.33625 11.51625  4.577500000000001 9.56125  C 2.43125 9.3375  0.83375 7.39  0.83375 4.58375  C 0.83375 4.1225000000000005  1.20625 3.75  1.6662500000000002 3.75  L 4.16625 3.75  L 4.16625 1.66625  C 4.16625 1.2487499999999998  4.475 0.9025  4.876250000000001 0.84125  L 5 1  Z M 11.652500000000002 15.8325  L 11.65125 15.83375  L 8.252500000000001 15.83375  L 7.74 16.66625  L 12.2025 16.66625  L 11.652500000000002 15.8325  Z M 14.16625 7.353749999999999  L 14.16625 2.5  L 5.8325000000000005 2.5  L 5.8325000000000005 7.352499999999999  C 5.8325000000000005 9.66875  7.592499999999999 11.55  9.7925 11.66125  L 10 11.66625  C 12.29625 11.66625  14.16625 9.741249999999999  14.16625 7.353749999999999  Z M 4.16625 7.75625  L 4.16625 5.41625  L 2.5625 5.41625  L 2.60625 5.64875  C 2.8337499999999998 6.716250000000001  3.40875 7.443749999999999  4.151249999999999 7.751250000000001  L 4.16625 7.75625  Z M 17.43625 5.4175  L 17.43625 5.41625  L 15.8325 5.41625  L 15.8325 7.75625  L 15.995000000000001 7.68375  C 16.715000000000003 7.32125  17.25375 6.54375  17.435000000000002 5.430000000000001  L 17.43625 5.4175  Z " fill-rule="nonzero" fill="rgba(234, 67, 53, 1)" stroke="none" transform="matrix(1 0 0 1 170 80 )" class="fill" />
    <path d="M 5 1  L 15 1  C 15.46 0.8337499999999999  15.83375 1.20625  15.83375 1.6662500000000002  L 15.8325 3.75  L 18.3325 3.75  C 18.751250000000002 3.75  19.0975 4.05875  19.1575 4.46  L 19.16625 4.58375  C 19.16625 7.390000000000001  17.56875 9.33625  15.42125 9.56125  C 14.66375 11.5175  12.92875 12.967500000000001  10.82875 13.27375  L 10.83375 13.333750000000002  L 10.8325 14.166250000000002  L 12.1 14.166250000000002  C 12.34 14.166250000000002  12.566249999999998 14.270000000000003  12.722499999999998 14.446250000000003  L 12.794999999999998 14.541250000000005  L 14.444999999999999 17.041250000000005  C 14.534730217246734 17.177423434142685  14.582555548007987 17.336921991081283  14.582555548007987 17.500000855601975  C 14.582555548007987 17.960001872266716  14.210000544607437 18.333090990547905  13.75 18.33375  L 6.25 18.33375  C 5.789731941739462 18.33346829985353  5.416760284059292 17.96026830062153  5.416760284059292 17.50000015615583  C 5.416760284059292 17.345992134378854  5.459417063209049 17.194993518201102  5.540000000000001 17.06375  L 7.077500000000001 14.563750000000002  C 7.229053972888607 14.316917394903548  7.4978538189662025 14.166427340233342  7.7875000000000005 14.16625  L 9.16625 14.16625  L 9.16625 13.333750000000002  L 9.17 13.27375  C 7.07 12.967500000000001  5.33625 11.51625  4.577500000000001 9.56125  C 2.43125 9.3375  0.83375 7.39  0.83375 4.58375  C 0.83375 4.1225000000000005  1.20625 3.75  1.6662500000000002 3.75  L 4.16625 3.75  L 4.16625 1.66625  C 4.16625 1.2487499999999998  4.475 0.9025  4.876250000000001 0.84125  L 5 1  Z " stroke-width="0" stroke-dasharray="0" stroke="rgba(255, 255, 255, 0)" fill="none" transform="matrix(1 0 0 1 170 80 )" class="stroke" mask="url(#Clip10509)" />
    <path d="M 11.652500000000002 15.8325  L 11.65125 15.83375  L 8.252500000000001 15.83375  L 7.74 16.66625  L 12.2025 16.66625  L 11.652500000000002 15.8325  Z " stroke-width="0" stroke-dasharray="0" stroke="rgba(255, 255, 255, 0)" fill="none" transform="matrix(1 0 0 1 170 80 )" class="stroke" mask="url(#Clip10509)" />
    <path d="M 14.16625 7.353749999999999  L 14.16625 2.5  L 5.8325000000000005 2.5  L 5.8325000000000005 7.352499999999999  C 5.8325000000000005 9.66875  7.592499999999999 11.55  9.7925 11.66125  L 10 11.66625  C 12.29625 11.66625  14.16625 9.741249999999999  14.16625 7.353749999999999  Z " stroke-width="0" stroke-dasharray="0" stroke="rgba(255, 255, 255, 0)" fill="none" transform="matrix(1 0 0 1 170 80 )" class="stroke" mask="url(#Clip10509)" />
    <path d="M 4.16625 7.75625  L 4.16625 5.41625  L 2.5625 5.41625  L 2.60625 5.64875  C 2.8337499999999998 6.716250000000001  3.40875 7.443749999999999  4.151249999999999 7.751250000000001  L 4.16625 7.75625  Z " stroke-width="0" stroke-dasharray="0" stroke="rgba(255, 255, 255, 0)" fill="none" transform="matrix(1 0 0 1 170 80 )" class="stroke" mask="url(#Clip10509)" />
    <path d="M 17.43625 5.4175  L 17.43625 5.41625  L 15.8325 5.41625  L 15.8325 7.75625  L 15.995000000000001 7.68375  C 16.715000000000003 7.32125  17.25375 6.54375  17.435000000000002 5.430000000000001  L 17.43625 5.4175  Z " stroke-width="0" stroke-dasharray="0" stroke="rgba(255, 255, 255, 0)" fill="none" transform="matrix(1 0 0 1 170 80 )" class="stroke" mask="url(#Clip10509)" />
  </g>
</svg>