<?xml version="1.0" encoding="utf-8"?>
<svg version="1.1" xmlns:xlink="http://www.w3.org/1999/xlink" width="13px" height="13px" xmlns="http://www.w3.org/2000/svg">
  <defs>
    <pattern id="BGPattern" patternUnits="userSpaceOnUse" alignment="0 0" imageRepeat="None" />
    <mask fill="white" id="Clip10507">
      <path d="M 0.2499999999999991 6.249999999999999  C 0.2499999999999991 9.701779686442457  3.0482203135575396 12.499999999999996  6.499999999999998 12.499999999999996  C 9.951779686442455 12.499999999999996  12.749999999999996 9.701779686442457  12.749999999999996 6.249999999999999  C 12.749999999999996 2.7982203135575405  9.951779686442455 0  6.499999999999998 0  C 3.0482203135575396 0  0.2499999999999991 2.7982203135575405  0.2499999999999991 6.249999999999999  Z " fill-rule="evenodd" />
    </mask>
  </defs>
  <g transform="matrix(1 0 0 1 -176 -85 )">
    <path d="M 0.2499999999999991 6.249999999999999  C 0.2499999999999991 9.701779686442457  3.0482203135575396 12.499999999999996  6.499999999999998 12.499999999999996  C 9.951779686442455 12.499999999999996  12.749999999999996 9.701779686442457  12.749999999999996 6.249999999999999  C 12.749999999999996 2.7982203135575405  9.951779686442455 0  6.499999999999998 0  C 3.0482203135575396 0  0.2499999999999991 2.7982203135575405  0.2499999999999991 6.249999999999999  Z " fill-rule="nonzero" fill="rgba(255, 212, 208, 1)" stroke="none" transform="matrix(1 0 0 1 176 85 )" class="fill" />
    <path d="M 0.2499999999999991 6.249999999999999  C 0.2499999999999991 9.701779686442457  3.0482203135575396 12.499999999999996  6.499999999999998 12.499999999999996  C 9.951779686442455 12.499999999999996  12.749999999999996 9.701779686442457  12.749999999999996 6.249999999999999  C 12.749999999999996 2.7982203135575405  9.951779686442455 0  6.499999999999998 0  C 3.0482203135575396 0  0.2499999999999991 2.7982203135575405  0.2499999999999991 6.249999999999999  Z " stroke-width="0" stroke-dasharray="0" stroke="rgba(255, 255, 255, 0)" fill="none" transform="matrix(1 0 0 1 176 85 )" class="stroke" mask="url(#Clip10507)" />
  </g>
</svg>