<?xml version="1.0" encoding="utf-8"?>
<svg version="1.1" xmlns:xlink="http://www.w3.org/1999/xlink" width="370px" height="650px" xmlns="http://www.w3.org/2000/svg">
  <defs>
    <linearGradient gradientUnits="userSpaceOnUse" x1="180" y1="0" x2="180" y2="640" id="LinearGradient15287">
      <stop id="Stop15288" stop-color="#ffffff" offset="0" />
      <stop id="Stop15289" stop-color="#f2f2f2" offset="1" />
    </linearGradient>
    <pattern id="BGPattern" patternUnits="userSpaceOnUse" alignment="0 0" imageRepeat="None" />
    <mask fill="white" id="Clip15290">
      <path d="M 0 635  L 0 5  C 0 2.1999999999999997  2.1999999999999993 0  5 0  L 355 0  C 357.8 0  360 2.1999999999999997  360 5  L 360 635  C 360 637.8  357.8 640  355 640  L 5 640  C 2.1999999999999993 640  0 637.8  0 635  Z " fill-rule="evenodd" />
    </mask>
  </defs>
  <g transform="matrix(1 0 0 1 2955 -3105 )">
    <path d="M 0 635  L 0 5  C 0 2.1999999999999997  2.1999999999999993 0  5 0  L 355 0  C 357.8 0  360 2.1999999999999997  360 5  L 360 635  C 360 637.8  357.8 640  355 640  L 5 640  C 2.1999999999999993 640  0 637.8  0 635  Z " fill-rule="nonzero" fill="url(#LinearGradient15287)" stroke="none" transform="matrix(1 0 0 1 -2950 3110 )" class="fill" />
    <path d="M 0 635  L 0 5  C 0 2.1999999999999997  2.1999999999999993 0  5 0  L 355 0  C 357.8 0  360 2.1999999999999997  360 5  L 360 635  C 360 637.8  357.8 640  355 640  L 5 640  C 2.1999999999999993 640  0 637.8  0 635  Z " stroke-width="2" stroke-dasharray="0" stroke="rgba(215, 215, 215, 1)" fill="none" transform="matrix(1 0 0 1 -2950 3110 )" class="stroke" mask="url(#Clip15290)" />
  </g>
  <style>svg { filter: drop-shadow(0px 0px 2.5px rgba(0, 0, 0, 0.34901960784313724)); }</style>
</svg>