<?xml version="1.0" encoding="utf-8"?>
<svg version="1.1" xmlns:xlink="http://www.w3.org/1999/xlink" width="15px" height="14px" xmlns="http://www.w3.org/2000/svg">
  <defs>
    <pattern id="BGPattern" patternUnits="userSpaceOnUse" alignment="0 0" imageRepeat="None" />
    <mask fill="white" id="Clip19653">
      <path d="M 13.21743 6.1798955555555555  C 13.42722 6.1798955555555555  13.63674 6.198002222222222  13.846530000000001 6.216062222222222  C 13.269764999999998 3.4250222222222213  10.45614 1.3589488888888877  7.240395000000001 1.3589488888888877  C 3.6401700000000003 1.3589488888888877  0.686595000000001 3.950815555555554  0.686595000000001 7.249495555555555  C 0.686595000000001 9.134502222222222  1.6653000000000011 10.693028888888886  3.308070000000001 11.907435555555555  L 2.6614200000000015 13.991662222222221  L 4.933470000000002 12.777255555555552  C 5.754720000000002 12.940215555555554  6.418785000000002 13.121935555555552  7.240395000000001 13.121935555555552  C 7.432455000000002 13.121935555555552  7.642290000000002 13.121935555555552  7.852080000000003 13.103782222222222  C 7.712130000000002 12.632355555555556  7.642290000000002 12.142868888888888  7.642290000000002 11.653382222222223  C 7.642335000000001 8.62690888888889  10.10667 6.1798955555555555  13.21743 6.1798955555555555  Z M 9.687 4.295448888888888  C 10.176465 4.295448888888888  10.508565 4.6394755555555545  10.508565 5.165268888888889  C 10.508565 5.690968888888888  10.176465 6.03504222222222  9.687000000000001 6.03504222222222  C 9.197805000000002 6.03504222222222  8.708295000000001 5.6909222222222215  8.708295000000001 5.165268888888889  C 8.70834 4.639475555555556  9.197805 4.295448888888888  9.687 4.295448888888888  Z M 5.10807 6.035042222222222  C 4.618875 6.035042222222222  4.129365000000001 5.690922222222223  4.129365000000001 5.165268888888891  C 4.129365000000001 4.639475555555556  4.618875 4.29544888888889  5.10807 4.29544888888889  C 5.59758 4.29544888888889  5.929634999999999 4.639475555555556  5.929634999999999 5.165268888888891  C 5.92968 5.690968888888889  5.59758 6.035042222222222  5.10807 6.035042222222222  Z " fill-rule="evenodd" />
    </mask>
  </defs>
  <g transform="matrix(1 0 0 1 2852 -3659 )">
    <path d="M 13.21743 6.1798955555555555  C 13.42722 6.1798955555555555  13.63674 6.198002222222222  13.846530000000001 6.216062222222222  C 13.269764999999998 3.4250222222222213  10.45614 1.3589488888888877  7.240395000000001 1.3589488888888877  C 3.6401700000000003 1.3589488888888877  0.686595000000001 3.950815555555554  0.686595000000001 7.249495555555555  C 0.686595000000001 9.134502222222222  1.6653000000000011 10.693028888888886  3.308070000000001 11.907435555555555  L 2.6614200000000015 13.991662222222221  L 4.933470000000002 12.777255555555552  C 5.754720000000002 12.940215555555554  6.418785000000002 13.121935555555552  7.240395000000001 13.121935555555552  C 7.432455000000002 13.121935555555552  7.642290000000002 13.121935555555552  7.852080000000003 13.103782222222222  C 7.712130000000002 12.632355555555556  7.642290000000002 12.142868888888888  7.642290000000002 11.653382222222223  C 7.642335000000001 8.62690888888889  10.10667 6.1798955555555555  13.21743 6.1798955555555555  Z M 9.687 4.295448888888888  C 10.176465 4.295448888888888  10.508565 4.6394755555555545  10.508565 5.165268888888889  C 10.508565 5.690968888888888  10.176465 6.03504222222222  9.687000000000001 6.03504222222222  C 9.197805000000002 6.03504222222222  8.708295000000001 5.6909222222222215  8.708295000000001 5.165268888888889  C 8.70834 4.639475555555556  9.197805 4.295448888888888  9.687 4.295448888888888  Z M 5.10807 6.035042222222222  C 4.618875 6.035042222222222  4.129365000000001 5.690922222222223  4.129365000000001 5.165268888888891  C 4.129365000000001 4.639475555555556  4.618875 4.29544888888889  5.10807 4.29544888888889  C 5.59758 4.29544888888889  5.929634999999999 4.639475555555556  5.929634999999999 5.165268888888891  C 5.92968 5.690968888888889  5.59758 6.035042222222222  5.10807 6.035042222222222  Z " fill-rule="nonzero" fill="rgba(255, 255, 255, 1)" stroke="none" transform="matrix(1 0 0 1 -2852 3659 )" class="fill" />
    <path d="M 13.21743 6.1798955555555555  C 13.42722 6.1798955555555555  13.63674 6.198002222222222  13.846530000000001 6.216062222222222  C 13.269764999999998 3.4250222222222213  10.45614 1.3589488888888877  7.240395000000001 1.3589488888888877  C 3.6401700000000003 1.3589488888888877  0.686595000000001 3.950815555555554  0.686595000000001 7.249495555555555  C 0.686595000000001 9.134502222222222  1.6653000000000011 10.693028888888886  3.308070000000001 11.907435555555555  L 2.6614200000000015 13.991662222222221  L 4.933470000000002 12.777255555555552  C 5.754720000000002 12.940215555555554  6.418785000000002 13.121935555555552  7.240395000000001 13.121935555555552  C 7.432455000000002 13.121935555555552  7.642290000000002 13.121935555555552  7.852080000000003 13.103782222222222  C 7.712130000000002 12.632355555555556  7.642290000000002 12.142868888888888  7.642290000000002 11.653382222222223  C 7.642335000000001 8.62690888888889  10.10667 6.1798955555555555  13.21743 6.1798955555555555  Z " stroke-width="0" stroke-dasharray="0" stroke="rgba(255, 255, 255, 0)" fill="none" transform="matrix(1 0 0 1 -2852 3659 )" class="stroke" mask="url(#Clip19653)" />
    <path d="M 9.687 4.295448888888888  C 10.176465 4.295448888888888  10.508565 4.6394755555555545  10.508565 5.165268888888889  C 10.508565 5.690968888888888  10.176465 6.03504222222222  9.687000000000001 6.03504222222222  C 9.197805000000002 6.03504222222222  8.708295000000001 5.6909222222222215  8.708295000000001 5.165268888888889  C 8.70834 4.639475555555556  9.197805 4.295448888888888  9.687 4.295448888888888  Z " stroke-width="0" stroke-dasharray="0" stroke="rgba(255, 255, 255, 0)" fill="none" transform="matrix(1 0 0 1 -2852 3659 )" class="stroke" mask="url(#Clip19653)" />
    <path d="M 5.10807 6.035042222222222  C 4.618875 6.035042222222222  4.129365000000001 5.690922222222223  4.129365000000001 5.165268888888891  C 4.129365000000001 4.639475555555556  4.618875 4.29544888888889  5.10807 4.29544888888889  C 5.59758 4.29544888888889  5.929634999999999 4.639475555555556  5.929634999999999 5.165268888888891  C 5.92968 5.690968888888889  5.59758 6.035042222222222  5.10807 6.035042222222222  Z " stroke-width="0" stroke-dasharray="0" stroke="rgba(255, 255, 255, 0)" fill="none" transform="matrix(1 0 0 1 -2852 3659 )" class="stroke" mask="url(#Clip19653)" />
  </g>
</svg>