<?xml version="1.0" encoding="utf-8"?>
<svg version="1.1" xmlns:xlink="http://www.w3.org/1999/xlink" width="18px" height="17px" xmlns="http://www.w3.org/2000/svg">
  <defs>
    <pattern id="BGPattern" patternUnits="userSpaceOnUse" alignment="0 0" imageRepeat="None" />
    <mask fill="white" id="Clip16729">
      <path d="M 0.5564385775862072 8.528459821428571  C 0.5564385775862072 13.089932743004681  4.336749792141262 16.78773716517857  9.000000000000002 16.78773716517857  C 13.663250207858743 16.78773716517857  17.443561422413794 13.089932743004681  17.443561422413794 8.528459821428571  C 17.443561422413794 3.966986899852462  13.663250207858743 0.26918247767857145  9.000000000000002 0.26918247767857145  C 4.336749792141261 0.26918247767857145  0.5564385775862091 3.966986899852462  0.5564385775862091 8.528459821428571  Z " fill-rule="evenodd" />
    </mask>
  </defs>
  <g transform="matrix(1 0 0 1 -27 -223 )">
    <path d="M 0.5564385775862072 8.528459821428571  C 0.5564385775862072 13.089932743004681  4.336749792141262 16.78773716517857  9.000000000000002 16.78773716517857  C 13.663250207858743 16.78773716517857  17.443561422413794 13.089932743004681  17.443561422413794 8.528459821428571  C 17.443561422413794 3.966986899852462  13.663250207858743 0.26918247767857145  9.000000000000002 0.26918247767857145  C 4.336749792141261 0.26918247767857145  0.5564385775862091 3.966986899852462  0.5564385775862091 8.528459821428571  Z " fill-rule="nonzero" fill="rgba(242, 129, 78, 1)" stroke="none" transform="matrix(1 0 0 1 27 223 )" class="fill" />
    <path d="M 0.5564385775862072 8.528459821428571  C 0.5564385775862072 13.089932743004681  4.336749792141262 16.78773716517857  9.000000000000002 16.78773716517857  C 13.663250207858743 16.78773716517857  17.443561422413794 13.089932743004681  17.443561422413794 8.528459821428571  C 17.443561422413794 3.966986899852462  13.663250207858743 0.26918247767857145  9.000000000000002 0.26918247767857145  C 4.336749792141261 0.26918247767857145  0.5564385775862091 3.966986899852462  0.5564385775862091 8.528459821428571  Z " stroke-width="0" stroke-dasharray="0" stroke="rgba(255, 255, 255, 0)" fill="none" transform="matrix(1 0 0 1 27 223 )" class="stroke" mask="url(#Clip16729)" />
  </g>
</svg>