<?xml version="1.0" encoding="utf-8"?>
<svg version="1.1" xmlns:xlink="http://www.w3.org/1999/xlink" width="330px" height="100px" xmlns="http://www.w3.org/2000/svg">
  <defs>
    <linearGradient gradientUnits="userSpaceOnUse" x1="165.83333333333366" y1="7.105427357601002E-13" x2="165.83333333333394" y2="98.92473118279597" id="LinearGradient4975">
      <stop id="Stop4976" stop-color="#555555" stop-opacity="0" offset="0" />
      <stop id="Stop4977" stop-color="#333333" offset="1" />
    </linearGradient>
    <pattern id="BGPattern" patternUnits="userSpaceOnUse" alignment="0 0" imageRepeat="None" />
    <mask fill="white" id="Clip4978">
      <path d="M 0 95  L 0 5  C 0 2.1999999999999997  2.1999999999999997 0  5 0  L 325 0  C 327.8 0  330 2.1999999999999997  330 5  L 330 95  C 330 97.8  327.8 100  325 100  L 5 100  C 2.1999999999999997 100  0 97.8  0 95  Z " fill-rule="evenodd" />
    </mask>
  </defs>
  <g transform="matrix(1 0 0 1 -15 -90 )">
    <path d="M 0 95  L 0 5  C 0 2.1999999999999997  2.1999999999999997 0  5 0  L 325 0  C 327.8 0  330 2.1999999999999997  330 5  L 330 95  C 330 97.8  327.8 100  325 100  L 5 100  C 2.1999999999999997 100  0 97.8  0 95  Z " fill-rule="nonzero" fill="url(#LinearGradient4975)" stroke="none" transform="matrix(1 0 0 1 15 90 )" class="fill" />
    <path d="M 0 95  L 0 5  C 0 2.1999999999999997  2.1999999999999997 0  5 0  L 325 0  C 327.8 0  330 2.1999999999999997  330 5  L 330 95  C 330 97.8  327.8 100  325 100  L 5 100  C 2.1999999999999997 100  0 97.8  0 95  Z " stroke-width="0" stroke-dasharray="0" stroke="rgba(121, 121, 121, 1)" fill="none" transform="matrix(1 0 0 1 15 90 )" class="stroke" mask="url(#Clip4978)" />
  </g>
</svg>