<?xml version="1.0" encoding="utf-8"?>
<svg version="1.1" xmlns:xlink="http://www.w3.org/1999/xlink" width="8px" height="8px" xmlns="http://www.w3.org/2000/svg">
  <defs>
    <pattern id="BGPattern" patternUnits="userSpaceOnUse" alignment="0 0" imageRepeat="None" />
    <mask fill="white" id="Clip3724">
      <path d="M 2.5620552884615386 2.261129807692308  L 3.6637980769230776 0.7242427884615392  C 3.741472276838712 0.6158449142217535  3.8666456582175215 0.5515477895594435  4 0.5515477895594435  C 4.13335434178248 0.5515477895594435  4.25852772316129 0.6158449142217524  4.336201923076924 0.7242427884615392  L 5.437944711538463 2.261129807692308  C 5.4899038307705945 2.3335970835099924  5.563887230193718 2.3873361223410683  5.648870192307693 2.4143389423076917  L 7.450949519230772 2.987211538461538  C 7.622631533681381 3.0419273081104157  7.7391959538610795 3.2014180104109284  7.7391959538610795 3.3816082696762066  C 7.7391959538610795 3.469822443664399  7.71101480910334 3.5557297782885033  7.658762019230772 3.6268028846153846  L 6.537500000000003 5.149471153846155  C 6.484641142027569 5.221282157898788  6.456399440187325 5.308250073597013  6.456983173076926 5.397415865384617  L 6.469014423076927 7.288341346153848  C 6.469020555543212 7.289260826399931  6.469023621801925 7.290180324539313  6.469023621801925 7.291099825235388  C 6.469023621801925 7.519527984023575  6.283846011359344 7.704705594466158  6.055417852571154 7.704705594466158  C 6.011095506173415 7.704705594466158  5.96706127115995 7.6975814573573125  5.9250000000000025 7.6836057692307715  L 4.130324519230772 7.087764423076924  C 4.045714172822388 7.059660608031877  3.9542858271776185 7.059660608031877  3.8696754807692346 7.0877644230769254  L 2.0750000000000037 7.683605769230774  C 2.0329635914461477 7.697559949609353  1.9889590186969206 7.704672879804998  1.9446670465784341 7.704672879804998  C 1.7161924215252378 7.704672879804998  1.5309771427322807 7.5194576010120455  1.5309771427322807 7.290982975958844  C 1.5309771427322807 7.290102425958356  1.5309799541435445 7.289221878201938  1.5309855769230798 7.288341346153848  L 1.5430168269230802 5.397415865384617  C 1.5436005598126816 5.308250073597013  1.5153588579724366 5.221282157898788  1.4625000000000035 5.149471153846155  L 0.3412379807692317 3.6268028846153846  C 0.2889851908966622 3.555729778288501  0.2608040461389217 3.4698224436644014  0.2608040461389217 3.3816082696762066  C 0.2608040461389217 3.2014180104109284  0.3773684663186211 3.0419273081104157  0.5490504807692312 2.987211538461538  L 2.3511298076923093 2.4143389423076917  C 2.436112769806286 2.3873361223410683  2.510096169229408 2.3335970835099933  2.5620552884615386 2.261129807692308  Z " fill-rule="evenodd" />
    </mask>
  </defs>
  <g transform="matrix(1 0 0 1 -32 -226 )">
    <path d="M 2.5620552884615386 2.261129807692308  L 3.6637980769230776 0.7242427884615392  C 3.741472276838712 0.6158449142217535  3.8666456582175215 0.5515477895594435  4 0.5515477895594435  C 4.13335434178248 0.5515477895594435  4.25852772316129 0.6158449142217524  4.336201923076924 0.7242427884615392  L 5.437944711538463 2.261129807692308  C 5.4899038307705945 2.3335970835099924  5.563887230193718 2.3873361223410683  5.648870192307693 2.4143389423076917  L 7.450949519230772 2.987211538461538  C 7.622631533681381 3.0419273081104157  7.7391959538610795 3.2014180104109284  7.7391959538610795 3.3816082696762066  C 7.7391959538610795 3.469822443664399  7.71101480910334 3.5557297782885033  7.658762019230772 3.6268028846153846  L 6.537500000000003 5.149471153846155  C 6.484641142027569 5.221282157898788  6.456399440187325 5.308250073597013  6.456983173076926 5.397415865384617  L 6.469014423076927 7.288341346153848  C 6.469020555543212 7.289260826399931  6.469023621801925 7.290180324539313  6.469023621801925 7.291099825235388  C 6.469023621801925 7.519527984023575  6.283846011359344 7.704705594466158  6.055417852571154 7.704705594466158  C 6.011095506173415 7.704705594466158  5.96706127115995 7.6975814573573125  5.9250000000000025 7.6836057692307715  L 4.130324519230772 7.087764423076924  C 4.045714172822388 7.059660608031877  3.9542858271776185 7.059660608031877  3.8696754807692346 7.0877644230769254  L 2.0750000000000037 7.683605769230774  C 2.0329635914461477 7.697559949609353  1.9889590186969206 7.704672879804998  1.9446670465784341 7.704672879804998  C 1.7161924215252378 7.704672879804998  1.5309771427322807 7.5194576010120455  1.5309771427322807 7.290982975958844  C 1.5309771427322807 7.290102425958356  1.5309799541435445 7.289221878201938  1.5309855769230798 7.288341346153848  L 1.5430168269230802 5.397415865384617  C 1.5436005598126816 5.308250073597013  1.5153588579724366 5.221282157898788  1.4625000000000035 5.149471153846155  L 0.3412379807692317 3.6268028846153846  C 0.2889851908966622 3.555729778288501  0.2608040461389217 3.4698224436644014  0.2608040461389217 3.3816082696762066  C 0.2608040461389217 3.2014180104109284  0.3773684663186211 3.0419273081104157  0.5490504807692312 2.987211538461538  L 2.3511298076923093 2.4143389423076917  C 2.436112769806286 2.3873361223410683  2.510096169229408 2.3335970835099933  2.5620552884615386 2.261129807692308  Z " fill-rule="nonzero" fill="rgba(255, 188, 84, 1)" stroke="none" transform="matrix(1 0 0 1 32 226 )" class="fill" />
    <path d="M 2.5620552884615386 2.261129807692308  L 3.6637980769230776 0.7242427884615392  C 3.741472276838712 0.6158449142217535  3.8666456582175215 0.5515477895594435  4 0.5515477895594435  C 4.13335434178248 0.5515477895594435  4.25852772316129 0.6158449142217524  4.336201923076924 0.7242427884615392  L 5.437944711538463 2.261129807692308  C 5.4899038307705945 2.3335970835099924  5.563887230193718 2.3873361223410683  5.648870192307693 2.4143389423076917  L 7.450949519230772 2.987211538461538  C 7.622631533681381 3.0419273081104157  7.7391959538610795 3.2014180104109284  7.7391959538610795 3.3816082696762066  C 7.7391959538610795 3.469822443664399  7.71101480910334 3.5557297782885033  7.658762019230772 3.6268028846153846  L 6.537500000000003 5.149471153846155  C 6.484641142027569 5.221282157898788  6.456399440187325 5.308250073597013  6.456983173076926 5.397415865384617  L 6.469014423076927 7.288341346153848  C 6.469020555543212 7.289260826399931  6.469023621801925 7.290180324539313  6.469023621801925 7.291099825235388  C 6.469023621801925 7.519527984023575  6.283846011359344 7.704705594466158  6.055417852571154 7.704705594466158  C 6.011095506173415 7.704705594466158  5.96706127115995 7.6975814573573125  5.9250000000000025 7.6836057692307715  L 4.130324519230772 7.087764423076924  C 4.045714172822388 7.059660608031877  3.9542858271776185 7.059660608031877  3.8696754807692346 7.0877644230769254  L 2.0750000000000037 7.683605769230774  C 2.0329635914461477 7.697559949609353  1.9889590186969206 7.704672879804998  1.9446670465784341 7.704672879804998  C 1.7161924215252378 7.704672879804998  1.5309771427322807 7.5194576010120455  1.5309771427322807 7.290982975958844  C 1.5309771427322807 7.290102425958356  1.5309799541435445 7.289221878201938  1.5309855769230798 7.288341346153848  L 1.5430168269230802 5.397415865384617  C 1.5436005598126816 5.308250073597013  1.5153588579724366 5.221282157898788  1.4625000000000035 5.149471153846155  L 0.3412379807692317 3.6268028846153846  C 0.2889851908966622 3.555729778288501  0.2608040461389217 3.4698224436644014  0.2608040461389217 3.3816082696762066  C 0.2608040461389217 3.2014180104109284  0.3773684663186211 3.0419273081104157  0.5490504807692312 2.987211538461538  L 2.3511298076923093 2.4143389423076917  C 2.436112769806286 2.3873361223410683  2.510096169229408 2.3335970835099933  2.5620552884615386 2.261129807692308  Z " stroke-width="0" stroke-dasharray="0" stroke="rgba(255, 255, 255, 0)" fill="none" transform="matrix(1 0 0 1 32 226 )" class="stroke" mask="url(#Clip3724)" />
  </g>
</svg>