<?xml version="1.0" encoding="utf-8"?>
<svg version="1.1" xmlns:xlink="http://www.w3.org/1999/xlink" width="8px" height="8px" xmlns="http://www.w3.org/2000/svg">
  <defs>
    <pattern id="BGPattern" patternUnits="userSpaceOnUse" alignment="0 0" imageRepeat="None" />
    <mask fill="white" id="Clip16741">
      <path d="M 0.6465000039062496 3.1464999999999996  L 3.64650000390625 0.14650000000000007  C 3.8417499296475848 -0.04869096180342147  4.158250070352416 -0.04869096180342103  4.353499996093751 0.14650000000000007  L 7.353499996093753 3.1465000000000005  C 7.451051419393645 3.240718200903677  7.5061443219465644 3.370522236257103  7.5061443219465644 3.506144319891594  C 7.5061443219465644 3.782286696964353  7.282286695113074 4.0061443237978445  7.006144318040315 4.0061443237978445  C 6.870522237282707 4.0061443237978445  6.740718204428271 3.95105142357514  6.646500003906251 3.85350000390625  L 4 1.2069999999999999  L 1.35349999609375 3.853500003906251  C 1.259281795571729 3.9510514235751364  1.1294777627172992 4.006144323797839  0.9938556819596926 4.006144323797839  C 0.7177133048869342 4.006144323797839  0.49385567805344266 3.7822866969643476  0.49385567805344266 3.5061443198915887  C 0.49385567805344266 3.3705222362571003  0.5489485806063596 3.240718200903677  0.6465000039062496 3.1464999999999996  Z M 6.646500003906249 6.85350000390625  L 4 4.207  L 1.35349999609375 6.85350000390625  C 1.2592817955717286 6.951051423575137  1.1294777627172996 7.006144323797837  0.9938556819596926 7.006144323797837  C 0.7177133048869342 7.006144323797837  0.49385567805344266 6.782286696964347  0.49385567805344266 6.506144319891588  C 0.49385567805344266 6.370522236257099  0.5489485806063596 6.240718200903679  0.6465000039062496 6.1465  L 3.646500003906249 3.1465000000000005  C 3.841749929647584 2.9513090381965803  4.158250070352414 2.9513090381965803  4.353499996093749 3.1464999999999996  L 7.353499996093749 6.1465  C 7.451051419393645 6.240718200903679  7.506144321946563 6.370522236257102  7.506144321946563 6.506144319891595  C 7.506144321946563 6.782286696964352  7.282286695113072 7.0061443237978445  7.006144318040313 7.0061443237978445  C 6.870522237282705 7.0061443237978445  6.740718204428271 6.951051423575141  6.646500003906249 6.85350000390625  Z " fill-rule="evenodd" />
    </mask>
  </defs>
  <g transform="matrix(1 0 0 1 2340 -2889 )">
    <path d="M 0.6465000039062496 3.1464999999999996  L 3.64650000390625 0.14650000000000007  C 3.8417499296475848 -0.04869096180342147  4.158250070352416 -0.04869096180342103  4.353499996093751 0.14650000000000007  L 7.353499996093753 3.1465000000000005  C 7.451051419393645 3.240718200903677  7.5061443219465644 3.370522236257103  7.5061443219465644 3.506144319891594  C 7.5061443219465644 3.782286696964353  7.282286695113074 4.0061443237978445  7.006144318040315 4.0061443237978445  C 6.870522237282707 4.0061443237978445  6.740718204428271 3.95105142357514  6.646500003906251 3.85350000390625  L 4 1.2069999999999999  L 1.35349999609375 3.853500003906251  C 1.259281795571729 3.9510514235751364  1.1294777627172992 4.006144323797839  0.9938556819596926 4.006144323797839  C 0.7177133048869342 4.006144323797839  0.49385567805344266 3.7822866969643476  0.49385567805344266 3.5061443198915887  C 0.49385567805344266 3.3705222362571003  0.5489485806063596 3.240718200903677  0.6465000039062496 3.1464999999999996  Z M 6.646500003906249 6.85350000390625  L 4 4.207  L 1.35349999609375 6.85350000390625  C 1.2592817955717286 6.951051423575137  1.1294777627172996 7.006144323797837  0.9938556819596926 7.006144323797837  C 0.7177133048869342 7.006144323797837  0.49385567805344266 6.782286696964347  0.49385567805344266 6.506144319891588  C 0.49385567805344266 6.370522236257099  0.5489485806063596 6.240718200903679  0.6465000039062496 6.1465  L 3.646500003906249 3.1465000000000005  C 3.841749929647584 2.9513090381965803  4.158250070352414 2.9513090381965803  4.353499996093749 3.1464999999999996  L 7.353499996093749 6.1465  C 7.451051419393645 6.240718200903679  7.506144321946563 6.370522236257102  7.506144321946563 6.506144319891595  C 7.506144321946563 6.782286696964352  7.282286695113072 7.0061443237978445  7.006144318040313 7.0061443237978445  C 6.870522237282705 7.0061443237978445  6.740718204428271 6.951051423575141  6.646500003906249 6.85350000390625  Z " fill-rule="nonzero" fill="rgba(255, 255, 255, 1)" stroke="none" transform="matrix(1 0 0 1 -2340 2889 )" class="fill" />
    <path d="M 0.6465000039062496 3.1464999999999996  L 3.64650000390625 0.14650000000000007  C 3.8417499296475848 -0.04869096180342147  4.158250070352416 -0.04869096180342103  4.353499996093751 0.14650000000000007  L 7.353499996093753 3.1465000000000005  C 7.451051419393645 3.240718200903677  7.5061443219465644 3.370522236257103  7.5061443219465644 3.506144319891594  C 7.5061443219465644 3.782286696964353  7.282286695113074 4.0061443237978445  7.006144318040315 4.0061443237978445  C 6.870522237282707 4.0061443237978445  6.740718204428271 3.95105142357514  6.646500003906251 3.85350000390625  L 4 1.2069999999999999  L 1.35349999609375 3.853500003906251  C 1.259281795571729 3.9510514235751364  1.1294777627172992 4.006144323797839  0.9938556819596926 4.006144323797839  C 0.7177133048869342 4.006144323797839  0.49385567805344266 3.7822866969643476  0.49385567805344266 3.5061443198915887  C 0.49385567805344266 3.3705222362571003  0.5489485806063596 3.240718200903677  0.6465000039062496 3.1464999999999996  Z " stroke-width="0" stroke-dasharray="0" stroke="rgba(255, 255, 255, 0)" fill="none" transform="matrix(1 0 0 1 -2340 2889 )" class="stroke" mask="url(#Clip16741)" />
    <path d="M 6.646500003906249 6.85350000390625  L 4 4.207  L 1.35349999609375 6.85350000390625  C 1.2592817955717286 6.951051423575137  1.1294777627172996 7.006144323797837  0.9938556819596926 7.006144323797837  C 0.7177133048869342 7.006144323797837  0.49385567805344266 6.782286696964347  0.49385567805344266 6.506144319891588  C 0.49385567805344266 6.370522236257099  0.5489485806063596 6.240718200903679  0.6465000039062496 6.1465  L 3.646500003906249 3.1465000000000005  C 3.841749929647584 2.9513090381965803  4.158250070352414 2.9513090381965803  4.353499996093749 3.1464999999999996  L 7.353499996093749 6.1465  C 7.451051419393645 6.240718200903679  7.506144321946563 6.370522236257102  7.506144321946563 6.506144319891595  C 7.506144321946563 6.782286696964352  7.282286695113072 7.0061443237978445  7.006144318040313 7.0061443237978445  C 6.870522237282705 7.0061443237978445  6.740718204428271 6.951051423575141  6.646500003906249 6.85350000390625  Z " stroke-width="0" stroke-dasharray="0" stroke="rgba(255, 255, 255, 0)" fill="none" transform="matrix(1 0 0 1 -2340 2889 )" class="stroke" mask="url(#Clip16741)" />
  </g>
</svg>