<?xml version="1.0" encoding="utf-8"?>
<svg version="1.1" xmlns:xlink="http://www.w3.org/1999/xlink" width="11px" height="2px" xmlns="http://www.w3.org/2000/svg">
  <defs>
    <pattern id="BGPattern" patternUnits="userSpaceOnUse" alignment="0 0" imageRepeat="None" />
    <mask fill="white" id="Clip10859">
      <path d="M 0.062499999999999986 1.0109546093750001  C 0.062499999999999986 0.35159101562500084  0.3921817968750002 0.021909223958333612  1.0515453906249999 0.021909234375000253  L 9.013986703125001 0.021909234375000253  C 9.673350296875 0.021909234375000253  10.003032088541667 0.3515910260416675  10.003032078125 1.0109546093750001  C 10.003032078125 1.6703182031250012  9.673350286458334 2  9.013986703125001 2  L 1.0515453906250007 2  C 0.3921817968750002 2  0.062499999999999986 1.6703182031250012  0.062499999999999986 1.0109546093750001  Z " fill-rule="evenodd" />
    </mask>
  </defs>
  <g transform="matrix(1 0 0 1 1700 -2321 )">
    <path d="M 0.062499999999999986 1.0109546093750001  C 0.062499999999999986 0.35159101562500084  0.3921817968750002 0.021909223958333612  1.0515453906249999 0.021909234375000253  L 9.013986703125001 0.021909234375000253  C 9.673350296875 0.021909234375000253  10.003032088541667 0.3515910260416675  10.003032078125 1.0109546093750001  C 10.003032078125 1.6703182031250012  9.673350286458334 2  9.013986703125001 2  L 1.0515453906250007 2  C 0.3921817968750002 2  0.062499999999999986 1.6703182031250012  0.062499999999999986 1.0109546093750001  Z " fill-rule="nonzero" fill="rgba(51, 51, 51, 1)" stroke="none" transform="matrix(1 0 0 1 -1700 2321 )" class="fill" />
    <path d="M 0.062499999999999986 1.0109546093750001  C 0.062499999999999986 0.35159101562500084  0.3921817968750002 0.021909223958333612  1.0515453906249999 0.021909234375000253  L 9.013986703125001 0.021909234375000253  C 9.673350296875 0.021909234375000253  10.003032088541667 0.3515910260416675  10.003032078125 1.0109546093750001  C 10.003032078125 1.6703182031250012  9.673350286458334 2  9.013986703125001 2  L 1.0515453906250007 2  C 0.3921817968750002 2  0.062499999999999986 1.6703182031250012  0.062499999999999986 1.0109546093750001  Z " stroke-width="0" stroke-dasharray="0" stroke="rgba(255, 255, 255, 0)" fill="none" transform="matrix(1 0 0 1 -1700 2321 )" class="stroke" mask="url(#Clip10859)" />
  </g>
</svg>