<?xml version="1.0" encoding="utf-8"?>
<svg version="1.1" xmlns:xlink="http://www.w3.org/1999/xlink" width="22px" height="20px" xmlns="http://www.w3.org/2000/svg">
  <defs>
    <pattern id="BGPattern" patternUnits="userSpaceOnUse" alignment="0 0" imageRepeat="None" />
    <mask fill="white" id="Clip5007">
      <path d="M 21.26796875 8.331249999999997  C 21.27265625 7.9140625  20.965625000000003 7.5625  20.553125 7.506249999999994  L 19.2125 7.318749999999994  C 18.91484375 7.276562499999997  18.6734375 7.075000000000003  18.55625 6.80078125  C 18.29140625 6.174999999999997  17.95390625 5.589062499999997  17.55078125 5.0546875  C 17.370312499999997 4.815624999999997  17.31640625 4.50390625  17.428906249999997 4.227343750000003  L 17.9375 2.973437500000003  C 18.094531250000003 2.589062499999997  17.942187500000003 2.1460937500000057  17.581249999999997 1.9398437499999943  L 14.682031250000001 0.2640624999999943  C 14.321093750000001 0.05546875000000284  13.864062500000001 0.14453125  13.60859375 0.47265625  L 12.778906250000002 1.5343749999999972  C 12.593750000000004 1.7734375  12.293750000000001 1.8835937500000028  11.993750000000002 1.8460937499999943  C 11.665625000000002 1.8039062499999972  11.330468750000001 1.7804687499999972  10.990625000000001 1.7804687499999972  C 10.650781250000001 1.7804687499999972  10.315625 1.8039062499999972  9.9875 1.8460937499999943  C 9.687500000000002 1.8835937500000028  9.387500000000001 1.7734375  9.20234375 1.5343749999999972  L 8.372656250000002 0.47265625  C 8.117187500000004 0.14453125  7.6601562500000036 0.05546875000000284  7.299218750000001 0.2640624999999943  L 4.4 1.9375  C 4.0390625 2.1460937500000057  3.8890624999999996 2.586718750000003  4.04375 2.9710937499999943  L 4.55234375 4.224999999999994  C 4.66484375 4.50390625  4.6109375 4.813281250000003  4.43046875 5.052343750000006  C 4.027343750000001 5.586718750000003  3.687500000000001 6.172656250000003  3.425000000000001 6.798437500000006  C 3.3078125000000007 7.075000000000003  3.06640625 7.276562499999997  2.76875 7.31640625  L 1.4281250000000003 7.50390625  C 1.015625 7.5625  0.7085937500000002 7.9140625  0.7085937500000002 8.331249999999997  L 0.7085937500000002 11.680468750000003  C 0.7085937500000002 12.095312500000006  1.015625 12.446875000000006  1.42578125 12.505468750000006  L 2.7664062499999997 12.692968750000006  C 3.0640624999999995 12.735156250000003  3.3054687499999993 12.936718749999997  3.4226562499999993 13.2109375  C 3.6875 13.836718750000003  4.0249999999999995 14.422656250000003  4.428125 14.95703125  C 4.60859375 15.196093750000003  4.6625 15.5078125  4.55 15.784374999999997  L 4.04140625 17.038281249999997  C 3.8843750000000004 17.422656250000003  4.03671875 17.865624999999994  4.39765625 18.071875000000006  L 7.296875 19.745312499999997  C 7.657812499999999 19.953906250000003  8.114843749999999 19.864843750000006  8.3703125 19.536718750000006  L 9.2 18.474999999999994  C 9.38515625 18.235937500000006  9.685156249999999 18.125781250000003  9.98515625 18.163281249999997  C 10.31328125 18.205468749999994  10.6484375 18.228906249999994  10.98828125 18.228906249999994  C 11.328125 18.228906249999994  11.66328125 18.205468749999994  11.991406249999999 18.163281249999997  C 12.291406249999998 18.125781250000003  12.591406249999999 18.235937500000006  12.776562499999999 18.474999999999994  L 13.60625 19.536718750000006  C 13.861718749999998 19.864843750000006  14.318749999999998 19.953906250000003  14.679687499999996 19.745312499999997  L 17.57890625 18.071875000000006  C 17.939843749999998 17.86328125  18.089843749999996 17.422656250000003  17.93515625 17.038281249999997  L 17.4265625 15.784374999999997  C 17.3140625 15.5078125  17.36796875 15.196093750000003  17.5484375 14.95703125  C 17.9515625 14.422656250000003  18.29140625 13.836718750000003  18.553906249999997 13.2109375  C 18.671093749999997 12.934375000000003  18.912499999999998 12.732812499999994  19.210156249999997 12.692968750000006  L 20.55078125 12.505468750000006  C 20.96328125 12.446875000000006  21.26796875 12.095312500000006  21.26796875 11.680468750000003  L 21.26796875 8.331249999999997  Z M 14.24609375 10.004687500000003  C 14.24609375 11.802343750000006  12.788281249999997 13.260156249999994  10.990625000000001 13.260156249999994  C 9.19296875 13.260156249999994  7.73515625 11.802343750000006  7.73515625 10.004687500000003  C 7.73515625 8.20703125  9.19296875 6.749218749999997  10.990625000000001 6.749218749999997  C 12.788281249999997 6.749218749999997  14.24609375 8.20703125  14.24609375 10.004687500000003  Z " fill-rule="evenodd" />
    </mask>
  </defs>
  <g transform="matrix(1 0 0 1 2193 -2305 )">
    <path d="M 21.26796875 8.331249999999997  C 21.27265625 7.9140625  20.965625000000003 7.5625  20.553125 7.506249999999994  L 19.2125 7.318749999999994  C 18.91484375 7.276562499999997  18.6734375 7.075000000000003  18.55625 6.80078125  C 18.29140625 6.174999999999997  17.95390625 5.589062499999997  17.55078125 5.0546875  C 17.370312499999997 4.815624999999997  17.31640625 4.50390625  17.428906249999997 4.227343750000003  L 17.9375 2.973437500000003  C 18.094531250000003 2.589062499999997  17.942187500000003 2.1460937500000057  17.581249999999997 1.9398437499999943  L 14.682031250000001 0.2640624999999943  C 14.321093750000001 0.05546875000000284  13.864062500000001 0.14453125  13.60859375 0.47265625  L 12.778906250000002 1.5343749999999972  C 12.593750000000004 1.7734375  12.293750000000001 1.8835937500000028  11.993750000000002 1.8460937499999943  C 11.665625000000002 1.8039062499999972  11.330468750000001 1.7804687499999972  10.990625000000001 1.7804687499999972  C 10.650781250000001 1.7804687499999972  10.315625 1.8039062499999972  9.9875 1.8460937499999943  C 9.687500000000002 1.8835937500000028  9.387500000000001 1.7734375  9.20234375 1.5343749999999972  L 8.372656250000002 0.47265625  C 8.117187500000004 0.14453125  7.6601562500000036 0.05546875000000284  7.299218750000001 0.2640624999999943  L 4.4 1.9375  C 4.0390625 2.1460937500000057  3.8890624999999996 2.586718750000003  4.04375 2.9710937499999943  L 4.55234375 4.224999999999994  C 4.66484375 4.50390625  4.6109375 4.813281250000003  4.43046875 5.052343750000006  C 4.027343750000001 5.586718750000003  3.687500000000001 6.172656250000003  3.425000000000001 6.798437500000006  C 3.3078125000000007 7.075000000000003  3.06640625 7.276562499999997  2.76875 7.31640625  L 1.4281250000000003 7.50390625  C 1.015625 7.5625  0.7085937500000002 7.9140625  0.7085937500000002 8.331249999999997  L 0.7085937500000002 11.680468750000003  C 0.7085937500000002 12.095312500000006  1.015625 12.446875000000006  1.42578125 12.505468750000006  L 2.7664062499999997 12.692968750000006  C 3.0640624999999995 12.735156250000003  3.3054687499999993 12.936718749999997  3.4226562499999993 13.2109375  C 3.6875 13.836718750000003  4.0249999999999995 14.422656250000003  4.428125 14.95703125  C 4.60859375 15.196093750000003  4.6625 15.5078125  4.55 15.784374999999997  L 4.04140625 17.038281249999997  C 3.8843750000000004 17.422656250000003  4.03671875 17.865624999999994  4.39765625 18.071875000000006  L 7.296875 19.745312499999997  C 7.657812499999999 19.953906250000003  8.114843749999999 19.864843750000006  8.3703125 19.536718750000006  L 9.2 18.474999999999994  C 9.38515625 18.235937500000006  9.685156249999999 18.125781250000003  9.98515625 18.163281249999997  C 10.31328125 18.205468749999994  10.6484375 18.228906249999994  10.98828125 18.228906249999994  C 11.328125 18.228906249999994  11.66328125 18.205468749999994  11.991406249999999 18.163281249999997  C 12.291406249999998 18.125781250000003  12.591406249999999 18.235937500000006  12.776562499999999 18.474999999999994  L 13.60625 19.536718750000006  C 13.861718749999998 19.864843750000006  14.318749999999998 19.953906250000003  14.679687499999996 19.745312499999997  L 17.57890625 18.071875000000006  C 17.939843749999998 17.86328125  18.089843749999996 17.422656250000003  17.93515625 17.038281249999997  L 17.4265625 15.784374999999997  C 17.3140625 15.5078125  17.36796875 15.196093750000003  17.5484375 14.95703125  C 17.9515625 14.422656250000003  18.29140625 13.836718750000003  18.553906249999997 13.2109375  C 18.671093749999997 12.934375000000003  18.912499999999998 12.732812499999994  19.210156249999997 12.692968750000006  L 20.55078125 12.505468750000006  C 20.96328125 12.446875000000006  21.26796875 12.095312500000006  21.26796875 11.680468750000003  L 21.26796875 8.331249999999997  Z M 14.24609375 10.004687500000003  C 14.24609375 11.802343750000006  12.788281249999997 13.260156249999994  10.990625000000001 13.260156249999994  C 9.19296875 13.260156249999994  7.73515625 11.802343750000006  7.73515625 10.004687500000003  C 7.73515625 8.20703125  9.19296875 6.749218749999997  10.990625000000001 6.749218749999997  C 12.788281249999997 6.749218749999997  14.24609375 8.20703125  14.24609375 10.004687500000003  Z " fill-rule="nonzero" fill="rgba(255, 255, 255, 1)" stroke="none" transform="matrix(1 0 0 1 -2193 2305 )" class="fill" />
    <path d="M 21.26796875 8.331249999999997  C 21.27265625 7.9140625  20.965625000000003 7.5625  20.553125 7.506249999999994  L 19.2125 7.318749999999994  C 18.91484375 7.276562499999997  18.6734375 7.075000000000003  18.55625 6.80078125  C 18.29140625 6.174999999999997  17.95390625 5.589062499999997  17.55078125 5.0546875  C 17.370312499999997 4.815624999999997  17.31640625 4.50390625  17.428906249999997 4.227343750000003  L 17.9375 2.973437500000003  C 18.094531250000003 2.589062499999997  17.942187500000003 2.1460937500000057  17.581249999999997 1.9398437499999943  L 14.682031250000001 0.2640624999999943  C 14.321093750000001 0.05546875000000284  13.864062500000001 0.14453125  13.60859375 0.47265625  L 12.778906250000002 1.5343749999999972  C 12.593750000000004 1.7734375  12.293750000000001 1.8835937500000028  11.993750000000002 1.8460937499999943  C 11.665625000000002 1.8039062499999972  11.330468750000001 1.7804687499999972  10.990625000000001 1.7804687499999972  C 10.650781250000001 1.7804687499999972  10.315625 1.8039062499999972  9.9875 1.8460937499999943  C 9.687500000000002 1.8835937500000028  9.387500000000001 1.7734375  9.20234375 1.5343749999999972  L 8.372656250000002 0.47265625  C 8.117187500000004 0.14453125  7.6601562500000036 0.05546875000000284  7.299218750000001 0.2640624999999943  L 4.4 1.9375  C 4.0390625 2.1460937500000057  3.8890624999999996 2.586718750000003  4.04375 2.9710937499999943  L 4.55234375 4.224999999999994  C 4.66484375 4.50390625  4.6109375 4.813281250000003  4.43046875 5.052343750000006  C 4.027343750000001 5.586718750000003  3.687500000000001 6.172656250000003  3.425000000000001 6.798437500000006  C 3.3078125000000007 7.075000000000003  3.06640625 7.276562499999997  2.76875 7.31640625  L 1.4281250000000003 7.50390625  C 1.015625 7.5625  0.7085937500000002 7.9140625  0.7085937500000002 8.331249999999997  L 0.7085937500000002 11.680468750000003  C 0.7085937500000002 12.095312500000006  1.015625 12.446875000000006  1.42578125 12.505468750000006  L 2.7664062499999997 12.692968750000006  C 3.0640624999999995 12.735156250000003  3.3054687499999993 12.936718749999997  3.4226562499999993 13.2109375  C 3.6875 13.836718750000003  4.0249999999999995 14.422656250000003  4.428125 14.95703125  C 4.60859375 15.196093750000003  4.6625 15.5078125  4.55 15.784374999999997  L 4.04140625 17.038281249999997  C 3.8843750000000004 17.422656250000003  4.03671875 17.865624999999994  4.39765625 18.071875000000006  L 7.296875 19.745312499999997  C 7.657812499999999 19.953906250000003  8.114843749999999 19.864843750000006  8.3703125 19.536718750000006  L 9.2 18.474999999999994  C 9.38515625 18.235937500000006  9.685156249999999 18.125781250000003  9.98515625 18.163281249999997  C 10.31328125 18.205468749999994  10.6484375 18.228906249999994  10.98828125 18.228906249999994  C 11.328125 18.228906249999994  11.66328125 18.205468749999994  11.991406249999999 18.163281249999997  C 12.291406249999998 18.125781250000003  12.591406249999999 18.235937500000006  12.776562499999999 18.474999999999994  L 13.60625 19.536718750000006  C 13.861718749999998 19.864843750000006  14.318749999999998 19.953906250000003  14.679687499999996 19.745312499999997  L 17.57890625 18.071875000000006  C 17.939843749999998 17.86328125  18.089843749999996 17.422656250000003  17.93515625 17.038281249999997  L 17.4265625 15.784374999999997  C 17.3140625 15.5078125  17.36796875 15.196093750000003  17.5484375 14.95703125  C 17.9515625 14.422656250000003  18.29140625 13.836718750000003  18.553906249999997 13.2109375  C 18.671093749999997 12.934375000000003  18.912499999999998 12.732812499999994  19.210156249999997 12.692968750000006  L 20.55078125 12.505468750000006  C 20.96328125 12.446875000000006  21.26796875 12.095312500000006  21.26796875 11.680468750000003  L 21.26796875 8.331249999999997  Z " stroke-width="0" stroke-dasharray="0" stroke="rgba(255, 255, 255, 0)" fill="none" transform="matrix(1 0 0 1 -2193 2305 )" class="stroke" mask="url(#Clip5007)" />
    <path d="M 14.24609375 10.004687500000003  C 14.24609375 11.802343750000006  12.788281249999997 13.260156249999994  10.990625000000001 13.260156249999994  C 9.19296875 13.260156249999994  7.73515625 11.802343750000006  7.73515625 10.004687500000003  C 7.73515625 8.20703125  9.19296875 6.749218749999997  10.990625000000001 6.749218749999997  C 12.788281249999997 6.749218749999997  14.24609375 8.20703125  14.24609375 10.004687500000003  Z " stroke-width="0" stroke-dasharray="0" stroke="rgba(255, 255, 255, 0)" fill="none" transform="matrix(1 0 0 1 -2193 2305 )" class="stroke" mask="url(#Clip5007)" />
  </g>
</svg>