<?xml version="1.0" encoding="utf-8"?>
<svg version="1.1" xmlns:xlink="http://www.w3.org/1999/xlink" width="20px" height="2px" xmlns="http://www.w3.org/2000/svg">
  <defs>
    <pattern id="BGPattern" patternUnits="userSpaceOnUse" alignment="0 0" imageRepeat="None" />
    <mask fill="white" id="Clip9266">
      <path d="M 0.062499999999999986 0.989045390625  C 0.062499999999999986 0.329681796875  0.39218179687500054 0  1.0515453906249999 0  L 18.954518781250002 0  C 19.613882375000003 0  19.94356416666667 0.329681796875  19.94356415625 0.989045390625  C 19.94356415625 1.648408984375  19.613882364583336 1.9780907760416668  18.954518781250002 2  L 1.0515453906250016 2  C 0.39218179687500054 1.9780907656250002  0.062499999999999986 1.6484089739583334  0.062499999999999986 0.989045390625  Z " fill-rule="evenodd" />
    </mask>
  </defs>
  <g transform="matrix(1 0 0 1 1700 -2307 )">
    <path d="M 0.062499999999999986 0.989045390625  C 0.062499999999999986 0.329681796875  0.39218179687500054 0  1.0515453906249999 0  L 18.954518781250002 0  C 19.613882375000003 0  19.94356416666667 0.329681796875  19.94356415625 0.989045390625  C 19.94356415625 1.648408984375  19.613882364583336 1.9780907760416668  18.954518781250002 2  L 1.0515453906250016 2  C 0.39218179687500054 1.9780907656250002  0.062499999999999986 1.6484089739583334  0.062499999999999986 0.989045390625  Z " fill-rule="nonzero" fill="rgba(51, 51, 51, 1)" stroke="none" transform="matrix(1 0 0 1 -1700 2307 )" class="fill" />
    <path d="M 0.062499999999999986 0.989045390625  C 0.062499999999999986 0.329681796875  0.39218179687500054 0  1.0515453906249999 0  L 18.954518781250002 0  C 19.613882375000003 0  19.94356416666667 0.329681796875  19.94356415625 0.989045390625  C 19.94356415625 1.648408984375  19.613882364583336 1.9780907760416668  18.954518781250002 2  L 1.0515453906250016 2  C 0.39218179687500054 1.9780907656250002  0.062499999999999986 1.6484089739583334  0.062499999999999986 0.989045390625  Z " stroke-width="0" stroke-dasharray="0" stroke="rgba(255, 255, 255, 0)" fill="none" transform="matrix(1 0 0 1 -1700 2307 )" class="stroke" mask="url(#Clip9266)" />
  </g>
</svg>