<?xml version="1.0" encoding="utf-8"?>
<svg version="1.1" xmlns:xlink="http://www.w3.org/1999/xlink" width="12px" height="10px" xmlns="http://www.w3.org/2000/svg">
  <defs>
    <pattern id="BGPattern" patternUnits="userSpaceOnUse" alignment="0 0" imageRepeat="None" />
    <mask fill="white" id="Clip905">
      <path d="M 1.8750000000000013 4.3125  C 1.3125000000000016 5.25  0.7500000000000017 6.5625  0.37499999999999994 8.25  L 0 9.375  L 1.3125000000000016 9.375  C 8.062499999999996 9.375  11.625 8.25  11.625 5.25  C 11.625 1.6874999999999998  10.124999999999996 0  7.124999999999997 0  C 4.687499999999997 0  2.999999999999998 1.6875  1.8750000000000013 4.3125  Z M 2.4375000000000013 7.5  C 2.8125000000000013 6.75  3.1875000000000044 6.375  3.3749999999999982 5.8125  C 4.312500000000002 4.5  5.625000000000001 3.75  6.937500000000002 3.75  C 8.8125 3.75  9.5625 4.3125  9.5625 6  C 9.5625 6.75  7.312500000000002 7.5  2.4375000000000013 7.5  Z " fill-rule="evenodd" />
    </mask>
  </defs>
  <g transform="matrix(1 0 0 1 -331 -1402 )">
    <path d="M 1.8750000000000013 4.3125  C 1.3125000000000016 5.25  0.7500000000000017 6.5625  0.37499999999999994 8.25  L 0 9.375  L 1.3125000000000016 9.375  C 8.062499999999996 9.375  11.625 8.25  11.625 5.25  C 11.625 1.6874999999999998  10.124999999999996 0  7.124999999999997 0  C 4.687499999999997 0  2.999999999999998 1.6875  1.8750000000000013 4.3125  Z M 2.4375000000000013 7.5  C 2.8125000000000013 6.75  3.1875000000000044 6.375  3.3749999999999982 5.8125  C 4.312500000000002 4.5  5.625000000000001 3.75  6.937500000000002 3.75  C 8.8125 3.75  9.5625 4.3125  9.5625 6  C 9.5625 6.75  7.312500000000002 7.5  2.4375000000000013 7.5  Z " fill-rule="nonzero" fill="rgba(254, 213, 70, 1)" stroke="none" transform="matrix(1 0 0 1 331 1402 )" class="fill" />
    <path d="M 1.8750000000000013 4.3125  C 1.3125000000000016 5.25  0.7500000000000017 6.5625  0.37499999999999994 8.25  L 0 9.375  L 1.3125000000000016 9.375  C 8.062499999999996 9.375  11.625 8.25  11.625 5.25  C 11.625 1.6874999999999998  10.124999999999996 0  7.124999999999997 0  C 4.687499999999997 0  2.999999999999998 1.6875  1.8750000000000013 4.3125  Z " stroke-width="0" stroke-dasharray="0" stroke="rgba(255, 255, 255, 0)" fill="none" transform="matrix(1 0 0 1 331 1402 )" class="stroke" mask="url(#Clip905)" />
    <path d="M 2.4375000000000013 7.5  C 2.8125000000000013 6.75  3.1875000000000044 6.375  3.3749999999999982 5.8125  C 4.312500000000002 4.5  5.625000000000001 3.75  6.937500000000002 3.75  C 8.8125 3.75  9.5625 4.3125  9.5625 6  C 9.5625 6.75  7.312500000000002 7.5  2.4375000000000013 7.5  Z " stroke-width="0" stroke-dasharray="0" stroke="rgba(255, 255, 255, 0)" fill="none" transform="matrix(1 0 0 1 331 1402 )" class="stroke" mask="url(#Clip905)" />
  </g>
</svg>