<?xml version="1.0" encoding="utf-8"?>
<svg version="1.1" xmlns:xlink="http://www.w3.org/1999/xlink" width="13px" height="10px" xmlns="http://www.w3.org/2000/svg">
  <defs>
    <pattern id="BGPattern" patternUnits="userSpaceOnUse" alignment="0 0" imageRepeat="None" />
    <mask fill="white" id="Clip14601">
      <path d="M 10.5 4.3125  C 11.0625 5.25  11.4375 6.5625  12 8.25  L 12.374999999999998 9.375  L 11.062499999999998 9.375  C 4.3125 9.375  0.75 8.25  0.75 5.25  C 0.75 1.6875  2.25 0  5.25 0  C 7.6875 0  9.375000000000002 1.6875  10.5 4.3125  Z M 9.750000000000002 7.5  C 9.562500000000002 6.5625  9.187500000000002 5.625  8.8125 5.0625  C 7.874999999999999 3.1875  6.750000000000001 1.875  5.25 1.875  C 3.375000000000001 1.875  2.625000000000001 2.625  2.625000000000001 5.25  C 2.625000000000001 6.5625  4.875 7.3125  9.750000000000002 7.5  Z " fill-rule="evenodd" />
    </mask>
  </defs>
  <g transform="matrix(1 0 0 1 -319 -1402 )">
    <path d="M 10.5 4.3125  C 11.0625 5.25  11.4375 6.5625  12 8.25  L 12.374999999999998 9.375  L 11.062499999999998 9.375  C 4.3125 9.375  0.75 8.25  0.75 5.25  C 0.75 1.6875  2.25 0  5.25 0  C 7.6875 0  9.375000000000002 1.6875  10.5 4.3125  Z M 9.750000000000002 7.5  C 9.562500000000002 6.5625  9.187500000000002 5.625  8.8125 5.0625  C 7.874999999999999 3.1875  6.750000000000001 1.875  5.25 1.875  C 3.375000000000001 1.875  2.625000000000001 2.625  2.625000000000001 5.25  C 2.625000000000001 6.5625  4.875 7.3125  9.750000000000002 7.5  Z " fill-rule="nonzero" fill="rgba(255, 180, 0, 1)" stroke="none" transform="matrix(1 0 0 1 319 1402 )" class="fill" />
    <path d="M 10.5 4.3125  C 11.0625 5.25  11.4375 6.5625  12 8.25  L 12.374999999999998 9.375  L 11.062499999999998 9.375  C 4.3125 9.375  0.75 8.25  0.75 5.25  C 0.75 1.6875  2.25 0  5.25 0  C 7.6875 0  9.375000000000002 1.6875  10.5 4.3125  Z " stroke-width="0" stroke-dasharray="0" stroke="rgba(255, 255, 255, 0)" fill="none" transform="matrix(1 0 0 1 319 1402 )" class="stroke" mask="url(#Clip14601)" />
    <path d="M 9.750000000000002 7.5  C 9.562500000000002 6.5625  9.187500000000002 5.625  8.8125 5.0625  C 7.874999999999999 3.1875  6.750000000000001 1.875  5.25 1.875  C 3.375000000000001 1.875  2.625000000000001 2.625  2.625000000000001 5.25  C 2.625000000000001 6.5625  4.875 7.3125  9.750000000000002 7.5  Z " stroke-width="0" stroke-dasharray="0" stroke="rgba(255, 255, 255, 0)" fill="none" transform="matrix(1 0 0 1 319 1402 )" class="stroke" mask="url(#Clip14601)" />
  </g>
</svg>