<?xml version="1.0" encoding="utf-8"?>
<svg version="1.1" xmlns:xlink="http://www.w3.org/1999/xlink" width="30px" height="8px" xmlns="http://www.w3.org/2000/svg">
  <defs>
    <pattern id="BGPattern" patternUnits="userSpaceOnUse" alignment="0 0" imageRepeat="None" />
    <mask fill="white" id="Clip7654">
      <path d="M 0 4.25  C 0 2.1875  1.6875 0.5  3.75 0.5  L 26.25 0.5  C 28.3125 0.5  30 2.1875  30 4.25  C 30 6.3125  28.3125 8  26.25 8  L 3.75 8  C 1.6874999999999998 8  0 6.3125  0 4.25  Z " fill-rule="evenodd" />
    </mask>
  </defs>
  <g transform="matrix(1 0 0 1 -316 -1409 )">
    <path d="M 0 4.25  C 0 2.1875  1.6875 0.5  3.75 0.5  L 26.25 0.5  C 28.3125 0.5  30 2.1875  30 4.25  C 30 6.3125  28.3125 8  26.25 8  L 3.75 8  C 1.6874999999999998 8  0 6.3125  0 4.25  Z " fill-rule="nonzero" fill="rgba(255, 99, 74, 1)" stroke="none" transform="matrix(1 0 0 1 316 1409 )" class="fill" />
    <path d="M 0 4.25  C 0 2.1875  1.6875 0.5  3.75 0.5  L 26.25 0.5  C 28.3125 0.5  30 2.1875  30 4.25  C 30 6.3125  28.3125 8  26.25 8  L 3.75 8  C 1.6874999999999998 8  0 6.3125  0 4.25  Z " stroke-width="0" stroke-dasharray="0" stroke="rgba(255, 255, 255, 0)" fill="none" transform="matrix(1 0 0 1 316 1409 )" class="stroke" mask="url(#Clip7654)" />
  </g>
</svg>