<?xml version="1.0" encoding="utf-8"?>
<svg version="1.1" xmlns:xlink="http://www.w3.org/1999/xlink" width="12px" height="12px" xmlns="http://www.w3.org/2000/svg">
  <defs>
    <pattern id="BGPattern" patternUnits="userSpaceOnUse" alignment="0 0" imageRepeat="None" />
    <mask fill="white" id="Clip14620">
      <path d="M 11.126199999999995 9.924100000000003  C 11.127699999999995 9.375400000000003  10.724199999999996 8.875600000000004  10.2097 8.691699999999999  L 7.7668 7.7401  C 7.7668 7.7401  7.3003 7.559200000000001  7.119999999999999 7.382200000000001  C 7.0039 7.2669999999999995  7.0120000000000005 6.9985  7.1149000000000004 6.653500000000001  C 7.217799999999999 6.3088000000000015  8.4697 4.908400000000001  8.4697 3.6361000000000008  C 8.4697 1.672000000000001  7.177299999999999 0.07900000000000107  5.584599999999998 0.07900000000000107  C 3.9915999999999974 0.07900000000000107  2.7006999999999985 1.672000000000001  2.7006999999999985 3.6361000000000008  C 2.7006999999999985 4.855000000000001  3.816699999999998 6.307600000000001  3.9540999999999977 6.570700000000002  C 4.091799999999998 6.835300000000002  4.058499999999998 7.2379000000000016  3.950199999999998 7.3591000000000015  C 3.786999999999998 7.542400000000002  3.1896999999999975 7.725400000000002  3.1896999999999975 7.725400000000002  L 0.9873999999999974 8.706400000000002  C 0.47289999999999743 8.890600000000003  0.06939999999999769 9.375700000000002  0.06939999999999769 9.924100000000003  L 0.06939999999999769 10.183300000000003  C 0.06939999999999769 10.780600000000002  0.5544999999999978 11.146600000000001  1.1505999999999976 11.146600000000001  L 10.044099999999997 11.146600000000001  C 10.640199999999997 11.146600000000001  11.126199999999995 10.780600000000002  11.126199999999995 10.183300000000003  L 11.126199999999995 9.924100000000003  Z " fill-rule="evenodd" />
    </mask>
  </defs>
  <g transform="matrix(1 0 0 1 -60 -545 )">
    <path d="M 11.126199999999995 9.924100000000003  C 11.127699999999995 9.375400000000003  10.724199999999996 8.875600000000004  10.2097 8.691699999999999  L 7.7668 7.7401  C 7.7668 7.7401  7.3003 7.559200000000001  7.119999999999999 7.382200000000001  C 7.0039 7.2669999999999995  7.0120000000000005 6.9985  7.1149000000000004 6.653500000000001  C 7.217799999999999 6.3088000000000015  8.4697 4.908400000000001  8.4697 3.6361000000000008  C 8.4697 1.672000000000001  7.177299999999999 0.07900000000000107  5.584599999999998 0.07900000000000107  C 3.9915999999999974 0.07900000000000107  2.7006999999999985 1.672000000000001  2.7006999999999985 3.6361000000000008  C 2.7006999999999985 4.855000000000001  3.816699999999998 6.307600000000001  3.9540999999999977 6.570700000000002  C 4.091799999999998 6.835300000000002  4.058499999999998 7.2379000000000016  3.950199999999998 7.3591000000000015  C 3.786999999999998 7.542400000000002  3.1896999999999975 7.725400000000002  3.1896999999999975 7.725400000000002  L 0.9873999999999974 8.706400000000002  C 0.47289999999999743 8.890600000000003  0.06939999999999769 9.375700000000002  0.06939999999999769 9.924100000000003  L 0.06939999999999769 10.183300000000003  C 0.06939999999999769 10.780600000000002  0.5544999999999978 11.146600000000001  1.1505999999999976 11.146600000000001  L 10.044099999999997 11.146600000000001  C 10.640199999999997 11.146600000000001  11.126199999999995 10.780600000000002  11.126199999999995 10.183300000000003  L 11.126199999999995 9.924100000000003  Z " fill-rule="nonzero" fill="rgba(255, 255, 255, 1)" stroke="none" transform="matrix(1 0 0 1 60 545 )" class="fill" />
    <path d="M 11.126199999999995 9.924100000000003  C 11.127699999999995 9.375400000000003  10.724199999999996 8.875600000000004  10.2097 8.691699999999999  L 7.7668 7.7401  C 7.7668 7.7401  7.3003 7.559200000000001  7.119999999999999 7.382200000000001  C 7.0039 7.2669999999999995  7.0120000000000005 6.9985  7.1149000000000004 6.653500000000001  C 7.217799999999999 6.3088000000000015  8.4697 4.908400000000001  8.4697 3.6361000000000008  C 8.4697 1.672000000000001  7.177299999999999 0.07900000000000107  5.584599999999998 0.07900000000000107  C 3.9915999999999974 0.07900000000000107  2.7006999999999985 1.672000000000001  2.7006999999999985 3.6361000000000008  C 2.7006999999999985 4.855000000000001  3.816699999999998 6.307600000000001  3.9540999999999977 6.570700000000002  C 4.091799999999998 6.835300000000002  4.058499999999998 7.2379000000000016  3.950199999999998 7.3591000000000015  C 3.786999999999998 7.542400000000002  3.1896999999999975 7.725400000000002  3.1896999999999975 7.725400000000002  L 0.9873999999999974 8.706400000000002  C 0.47289999999999743 8.890600000000003  0.06939999999999769 9.375700000000002  0.06939999999999769 9.924100000000003  L 0.06939999999999769 10.183300000000003  C 0.06939999999999769 10.780600000000002  0.5544999999999978 11.146600000000001  1.1505999999999976 11.146600000000001  L 10.044099999999997 11.146600000000001  C 10.640199999999997 11.146600000000001  11.126199999999995 10.780600000000002  11.126199999999995 10.183300000000003  L 11.126199999999995 9.924100000000003  Z " stroke-width="0" stroke-dasharray="0" stroke="rgba(255, 255, 255, 0)" fill="none" transform="matrix(1 0 0 1 60 545 )" class="stroke" mask="url(#Clip14620)" />
  </g>
</svg>