<?xml version="1.0" encoding="utf-8"?>
<svg version="1.1" xmlns:xlink="http://www.w3.org/1999/xlink" width="18px" height="17px" xmlns="http://www.w3.org/2000/svg">
  <defs>
    <pattern id="BGPattern" patternUnits="userSpaceOnUse" alignment="0 0" imageRepeat="None" />
    <mask fill="white" id="Clip6517">
      <path d="M 0.5564385775862072 8.471540178571429  C 0.5564385775862072 13.033013100147539  4.336749792141262 16.73081752232143  9.000000000000002 16.73081752232143  C 13.663250207858743 16.73081752232143  17.443561422413794 13.033013100147539  17.443561422413794 8.471540178571429  C 17.443561422413794 3.91006725699532  13.663250207858743 0.2122628348214291  9.000000000000002 0.2122628348214291  C 4.336749792141261 0.2122628348214291  0.5564385775862091 3.91006725699532  0.5564385775862091 8.471540178571429  Z " fill-rule="evenodd" />
    </mask>
  </defs>
  <g transform="matrix(1 0 0 1 -27 -222 )">
    <path d="M 0.5564385775862072 8.471540178571429  C 0.5564385775862072 13.033013100147539  4.336749792141262 16.73081752232143  9.000000000000002 16.73081752232143  C 13.663250207858743 16.73081752232143  17.443561422413794 13.033013100147539  17.443561422413794 8.471540178571429  C 17.443561422413794 3.91006725699532  13.663250207858743 0.2122628348214291  9.000000000000002 0.2122628348214291  C 4.336749792141261 0.2122628348214291  0.5564385775862091 3.91006725699532  0.5564385775862091 8.471540178571429  Z " fill-rule="nonzero" fill="rgba(255, 220, 136, 1)" stroke="none" transform="matrix(1 0 0 1 27 222 )" class="fill" />
    <path d="M 0.5564385775862072 8.471540178571429  C 0.5564385775862072 13.033013100147539  4.336749792141262 16.73081752232143  9.000000000000002 16.73081752232143  C 13.663250207858743 16.73081752232143  17.443561422413794 13.033013100147539  17.443561422413794 8.471540178571429  C 17.443561422413794 3.91006725699532  13.663250207858743 0.2122628348214291  9.000000000000002 0.2122628348214291  C 4.336749792141261 0.2122628348214291  0.5564385775862091 3.91006725699532  0.5564385775862091 8.471540178571429  Z " stroke-width="0" stroke-dasharray="0" stroke="rgba(255, 255, 255, 0)" fill="none" transform="matrix(1 0 0 1 27 222 )" class="stroke" mask="url(#Clip6517)" />
  </g>
</svg>