<?xml version="1.0" encoding="utf-8"?>
<svg version="1.1" xmlns:xlink="http://www.w3.org/1999/xlink" width="20px" height="20px" xmlns="http://www.w3.org/2000/svg">
  <defs>
    <pattern id="BGPattern" patternUnits="userSpaceOnUse" alignment="0 0" imageRepeat="None" />
    <mask fill="white" id="Clip7681">
      <path d="M 3.92333984375 5.679253472222222  C 3.92333984375 2.6953124999999996  6.64306640625 0.2777777777777778  10 0.2777777777777778  L 16.07666015625 0.2777777777777778  L 16.07666015625 5.679253472222222  C 16.07666015625 8.663194444444445  13.35693359375 11.080729166666668  10 11.080729166666668  C 6.64306640625 11.080729166666668  3.92333984375 8.663194444444445  3.92333984375 5.679253472222222  Z M 0.2783203125 15.941840277777779  C 0.27587890625000056 13.854166666666668  2.1801757812500004 12.161458333333337  4.53125 12  L 15.46875 12  C 17.8173828125 12.161458333333332  19.7216796875 13.854166666666668  19.7216796875 15.941840277777777  L 19.7216796875 16.48220486111111  C 19.7216796875 18.272569444444443  18.08837890625 19.72222222222222  16.076660156250004 19.72222222222222  L 3.92333984375 19.72222222222222  C 1.9091796875000004 19.72222222222222  0.2783203125 18.270399305555557  0.2783203125 16.48220486111111  L 0.2783203125 15.941840277777779  Z " fill-rule="evenodd" />
    </mask>
  </defs>
  <g transform="matrix(1 0 0 1 2643 -2068 )">
    <path d="M 3.92333984375 5.679253472222222  C 3.92333984375 2.6953124999999996  6.64306640625 0.2777777777777778  10 0.2777777777777778  L 16.07666015625 0.2777777777777778  L 16.07666015625 5.679253472222222  C 16.07666015625 8.663194444444445  13.35693359375 11.080729166666668  10 11.080729166666668  C 6.64306640625 11.080729166666668  3.92333984375 8.663194444444445  3.92333984375 5.679253472222222  Z M 0.2783203125 15.941840277777779  C 0.27587890625000056 13.854166666666668  2.1801757812500004 12.161458333333337  4.53125 12  L 15.46875 12  C 17.8173828125 12.161458333333332  19.7216796875 13.854166666666668  19.7216796875 15.941840277777777  L 19.7216796875 16.48220486111111  C 19.7216796875 18.272569444444443  18.08837890625 19.72222222222222  16.076660156250004 19.72222222222222  L 3.92333984375 19.72222222222222  C 1.9091796875000004 19.72222222222222  0.2783203125 18.270399305555557  0.2783203125 16.48220486111111  L 0.2783203125 15.941840277777779  Z " fill-rule="nonzero" fill="rgba(255, 255, 255, 1)" stroke="none" transform="matrix(1 0 0 1 -2643 2068 )" class="fill" />
    <path d="M 3.92333984375 5.679253472222222  C 3.92333984375 2.6953124999999996  6.64306640625 0.2777777777777778  10 0.2777777777777778  L 16.07666015625 0.2777777777777778  L 16.07666015625 5.679253472222222  C 16.07666015625 8.663194444444445  13.35693359375 11.080729166666668  10 11.080729166666668  C 6.64306640625 11.080729166666668  3.92333984375 8.663194444444445  3.92333984375 5.679253472222222  Z " stroke-width="0" stroke-dasharray="0" stroke="rgba(255, 255, 255, 0)" fill="none" transform="matrix(1 0 0 1 -2643 2068 )" class="stroke" mask="url(#Clip7681)" />
    <path d="M 0.2783203125 15.941840277777779  C 0.27587890625000056 13.854166666666668  2.1801757812500004 12.161458333333337  4.53125 12  L 15.46875 12  C 17.8173828125 12.161458333333332  19.7216796875 13.854166666666668  19.7216796875 15.941840277777777  L 19.7216796875 16.48220486111111  C 19.7216796875 18.272569444444443  18.08837890625 19.72222222222222  16.076660156250004 19.72222222222222  L 3.92333984375 19.72222222222222  C 1.9091796875000004 19.72222222222222  0.2783203125 18.270399305555557  0.2783203125 16.48220486111111  L 0.2783203125 15.941840277777779  Z " stroke-width="0" stroke-dasharray="0" stroke="rgba(255, 255, 255, 0)" fill="none" transform="matrix(1 0 0 1 -2643 2068 )" class="stroke" mask="url(#Clip7681)" />
  </g>
</svg>