<?xml version="1.0" encoding="utf-8"?>
<svg version="1.1" xmlns:xlink="http://www.w3.org/1999/xlink" width="30px" height="30px" xmlns="http://www.w3.org/2000/svg">
  <defs>
    <pattern id="BGPattern" patternUnits="userSpaceOnUse" alignment="0 0" imageRepeat="None" />
    <mask fill="white" id="Clip9313">
      <path d="M 29.009999999999998 13.055625000000006  C 29.009999999999998 16.60875  27.43125 19.83  24.871875000000003 22.185000000000002  C 23.330625 23.602500000000006  14.505 29.979375000000005  14.505 29.979375000000005  L 14.505 26.109375  C 6.495 26.109375  0 20.263125000000002  0 13.055625000000006  C 0 5.844374999999999  6.495 0  14.504999999999999 0  C 22.516875 0  29.009999999999998 5.844374999999999  29.009999999999998 13.055625000000006  Z M 8.6435233772012 13.5384375  C 8.6435233772012 12.493215151681014  7.8134659421424795 11.63690740936076  6.768749999999999 11.604375000000005  C 6.748680539174216 11.603750037855846  6.728602566316282 11.603437499999998  6.708523377201199 11.603437499999998  C 5.639852386278613 11.603437499999998  4.773523377201199 12.469766509077417  4.773523377201199 13.5384375  C 4.773523377201199 14.607108490922585  5.639852386278613 15.473437500000003  6.708523377201199 15.473437500000003  C 6.728602566316282 15.473437500000003  6.748680539174216 15.473124962144153  6.768749999999999 15.472499999999998  C 7.8134659421424795 15.439967590639226  8.6435233772012 14.583659848318987  8.6435233772012 13.5384375  Z M 16.379773377201197 13.5384375  C 16.379773377201197 12.493215151681014  15.54971594214248 11.63690740936076  14.504999999999999 11.604375000000005  C 14.484930539174215 11.603750037855846  14.464852566316283 11.603437499999998  14.4447733772012 11.603437499999998  C 13.376102386278614 11.603437499999998  12.5097733772012 12.469766509077417  12.5097733772012 13.5384375  C 12.5097733772012 14.607108490922585  13.376102386278614 15.473437500000003  14.4447733772012 15.473437500000003  C 14.464852566316283 15.473437500000003  14.484930539174215 15.473124962144153  14.504999999999999 15.472499999999998  C 15.54971594214248 15.439967590639226  16.379773377201197 14.583659848318987  16.379773377201197 13.5384375  Z M 24.116023377201202 13.5384375  C 24.116023377201202 12.493215151681014  23.285965942142482 11.63690740936076  22.241250000000004 11.604375000000005  C 22.22118053917422 11.603750037855846  22.201102566316287 11.603437499999998  22.181023377201203 11.603437499999998  C 21.112352386278616 11.603437499999998  20.246023377201205 12.469766509077417  20.246023377201205 13.5384375  C 20.246023377201205 14.607108490922585  21.112352386278616 15.473437500000003  22.181023377201203 15.473437500000003  C 22.201102566316287 15.473437500000003  22.22118053917422 15.473124962144153  22.241250000000004 15.472499999999998  C 23.285965942142482 15.439967590639226  24.116023377201202 14.583659848318987  24.116023377201202 13.5384375  Z " fill-rule="evenodd" />
    </mask>
  </defs>
  <g transform="matrix(1 0 0 1 -270 -597 )">
    <path d="M 29.009999999999998 13.055625000000006  C 29.009999999999998 16.60875  27.43125 19.83  24.871875000000003 22.185000000000002  C 23.330625 23.602500000000006  14.505 29.979375000000005  14.505 29.979375000000005  L 14.505 26.109375  C 6.495 26.109375  0 20.263125000000002  0 13.055625000000006  C 0 5.844374999999999  6.495 0  14.504999999999999 0  C 22.516875 0  29.009999999999998 5.844374999999999  29.009999999999998 13.055625000000006  Z M 8.6435233772012 13.5384375  C 8.6435233772012 12.493215151681014  7.8134659421424795 11.63690740936076  6.768749999999999 11.604375000000005  C 6.748680539174216 11.603750037855846  6.728602566316282 11.603437499999998  6.708523377201199 11.603437499999998  C 5.639852386278613 11.603437499999998  4.773523377201199 12.469766509077417  4.773523377201199 13.5384375  C 4.773523377201199 14.607108490922585  5.639852386278613 15.473437500000003  6.708523377201199 15.473437500000003  C 6.728602566316282 15.473437500000003  6.748680539174216 15.473124962144153  6.768749999999999 15.472499999999998  C 7.8134659421424795 15.439967590639226  8.6435233772012 14.583659848318987  8.6435233772012 13.5384375  Z M 16.379773377201197 13.5384375  C 16.379773377201197 12.493215151681014  15.54971594214248 11.63690740936076  14.504999999999999 11.604375000000005  C 14.484930539174215 11.603750037855846  14.464852566316283 11.603437499999998  14.4447733772012 11.603437499999998  C 13.376102386278614 11.603437499999998  12.5097733772012 12.469766509077417  12.5097733772012 13.5384375  C 12.5097733772012 14.607108490922585  13.376102386278614 15.473437500000003  14.4447733772012 15.473437500000003  C 14.464852566316283 15.473437500000003  14.484930539174215 15.473124962144153  14.504999999999999 15.472499999999998  C 15.54971594214248 15.439967590639226  16.379773377201197 14.583659848318987  16.379773377201197 13.5384375  Z M 24.116023377201202 13.5384375  C 24.116023377201202 12.493215151681014  23.285965942142482 11.63690740936076  22.241250000000004 11.604375000000005  C 22.22118053917422 11.603750037855846  22.201102566316287 11.603437499999998  22.181023377201203 11.603437499999998  C 21.112352386278616 11.603437499999998  20.246023377201205 12.469766509077417  20.246023377201205 13.5384375  C 20.246023377201205 14.607108490922585  21.112352386278616 15.473437500000003  22.181023377201203 15.473437500000003  C 22.201102566316287 15.473437500000003  22.22118053917422 15.473124962144153  22.241250000000004 15.472499999999998  C 23.285965942142482 15.439967590639226  24.116023377201202 14.583659848318987  24.116023377201202 13.5384375  Z " fill-rule="nonzero" fill="rgba(255, 255, 255, 1)" stroke="none" transform="matrix(1 0 0 1 270 597 )" class="fill" />
    <path d="M 29.009999999999998 13.055625000000006  C 29.009999999999998 16.60875  27.43125 19.83  24.871875000000003 22.185000000000002  C 23.330625 23.602500000000006  14.505 29.979375000000005  14.505 29.979375000000005  L 14.505 26.109375  C 6.495 26.109375  0 20.263125000000002  0 13.055625000000006  C 0 5.844374999999999  6.495 0  14.504999999999999 0  C 22.516875 0  29.009999999999998 5.844374999999999  29.009999999999998 13.055625000000006  Z " stroke-width="0" stroke-dasharray="0" stroke="rgba(255, 255, 255, 0)" fill="none" transform="matrix(1 0 0 1 270 597 )" class="stroke" mask="url(#Clip9313)" />
    <path d="M 8.6435233772012 13.5384375  C 8.6435233772012 12.493215151681014  7.8134659421424795 11.63690740936076  6.768749999999999 11.604375000000005  C 6.748680539174216 11.603750037855846  6.728602566316282 11.603437499999998  6.708523377201199 11.603437499999998  C 5.639852386278613 11.603437499999998  4.773523377201199 12.469766509077417  4.773523377201199 13.5384375  C 4.773523377201199 14.607108490922585  5.639852386278613 15.473437500000003  6.708523377201199 15.473437500000003  C 6.728602566316282 15.473437500000003  6.748680539174216 15.473124962144153  6.768749999999999 15.472499999999998  C 7.8134659421424795 15.439967590639226  8.6435233772012 14.583659848318987  8.6435233772012 13.5384375  Z " stroke-width="0" stroke-dasharray="0" stroke="rgba(255, 255, 255, 0)" fill="none" transform="matrix(1 0 0 1 270 597 )" class="stroke" mask="url(#Clip9313)" />
    <path d="M 16.379773377201197 13.5384375  C 16.379773377201197 12.493215151681014  15.54971594214248 11.63690740936076  14.504999999999999 11.604375000000005  C 14.484930539174215 11.603750037855846  14.464852566316283 11.603437499999998  14.4447733772012 11.603437499999998  C 13.376102386278614 11.603437499999998  12.5097733772012 12.469766509077417  12.5097733772012 13.5384375  C 12.5097733772012 14.607108490922585  13.376102386278614 15.473437500000003  14.4447733772012 15.473437500000003  C 14.464852566316283 15.473437500000003  14.484930539174215 15.473124962144153  14.504999999999999 15.472499999999998  C 15.54971594214248 15.439967590639226  16.379773377201197 14.583659848318987  16.379773377201197 13.5384375  Z " stroke-width="0" stroke-dasharray="0" stroke="rgba(255, 255, 255, 0)" fill="none" transform="matrix(1 0 0 1 270 597 )" class="stroke" mask="url(#Clip9313)" />
    <path d="M 24.116023377201202 13.5384375  C 24.116023377201202 12.493215151681014  23.285965942142482 11.63690740936076  22.241250000000004 11.604375000000005  C 22.22118053917422 11.603750037855846  22.201102566316287 11.603437499999998  22.181023377201203 11.603437499999998  C 21.112352386278616 11.603437499999998  20.246023377201205 12.469766509077417  20.246023377201205 13.5384375  C 20.246023377201205 14.607108490922585  21.112352386278616 15.473437500000003  22.181023377201203 15.473437500000003  C 22.201102566316287 15.473437500000003  22.22118053917422 15.473124962144153  22.241250000000004 15.472499999999998  C 23.285965942142482 15.439967590639226  24.116023377201202 14.583659848318987  24.116023377201202 13.5384375  Z " stroke-width="0" stroke-dasharray="0" stroke="rgba(255, 255, 255, 0)" fill="none" transform="matrix(1 0 0 1 270 597 )" class="stroke" mask="url(#Clip9313)" />
  </g>
</svg>