<?xml version="1.0" encoding="utf-8"?>
<svg version="1.1" xmlns:xlink="http://www.w3.org/1999/xlink" width="15px" height="16px" xmlns="http://www.w3.org/2000/svg">
  <defs>
    <pattern id="BGPattern" patternUnits="userSpaceOnUse" alignment="0 0" imageRepeat="None" />
    <mask fill="white" id="Clip10918">
      <path d="M 8.896254595588234 9.160937499999998  L 5.259823069852942 9.1609375  C 2.2532743566176467 9.1609375  0.008272058823529334 11.1234375  0.008272058823529334 13.973437499999998  L 0.008272058823529334 14.280555555555557  C 0.008272058823529334 15.770312499999998  2.414062499999999 15.770312499999998  5.460420496323529 15.770312499999998  L 8.695657169117647 15.770312499999998  C 11.62103630514706 15.770312499999998  14.147805606617649 15.770312499999998  14.147805606617649 14.280555555555557  L 14.147805606617649 13.973437499999998  C 14.147805606617649 11.1234375  11.902630974264707 9.160937499999998  8.896254595588234 9.160937499999998  Z M 2.5979434742647047 4.314756944444444  C 2.5979434742647047 6.573958333333333  4.535845588235292 8.4109375  6.915958180147058 8.4109375  C 9.297449448529413 8.4109375  11.235179227941178 6.573958333333333  11.235179227941178 4.314756944444444  C 11.235179227941178 2.0567708333333328  9.29744944852941 0.21996527777777686  6.915958180147058 0.21996527777777686  C 4.535845588235292 0.21996527777777686  2.5979434742647047 2.0569444444444436  2.5979434742647047 4.314756944444444  Z " fill-rule="evenodd" />
    </mask>
  </defs>
  <g transform="matrix(1 0 0 1 2712 -3659 )">
    <path d="M 8.896254595588234 9.160937499999998  L 5.259823069852942 9.1609375  C 2.2532743566176467 9.1609375  0.008272058823529334 11.1234375  0.008272058823529334 13.973437499999998  L 0.008272058823529334 14.280555555555557  C 0.008272058823529334 15.770312499999998  2.414062499999999 15.770312499999998  5.460420496323529 15.770312499999998  L 8.695657169117647 15.770312499999998  C 11.62103630514706 15.770312499999998  14.147805606617649 15.770312499999998  14.147805606617649 14.280555555555557  L 14.147805606617649 13.973437499999998  C 14.147805606617649 11.1234375  11.902630974264707 9.160937499999998  8.896254595588234 9.160937499999998  Z M 2.5979434742647047 4.314756944444444  C 2.5979434742647047 6.573958333333333  4.535845588235292 8.4109375  6.915958180147058 8.4109375  C 9.297449448529413 8.4109375  11.235179227941178 6.573958333333333  11.235179227941178 4.314756944444444  C 11.235179227941178 2.0567708333333328  9.29744944852941 0.21996527777777686  6.915958180147058 0.21996527777777686  C 4.535845588235292 0.21996527777777686  2.5979434742647047 2.0569444444444436  2.5979434742647047 4.314756944444444  Z " fill-rule="nonzero" fill="rgba(255, 255, 255, 1)" stroke="none" transform="matrix(1 0 0 1 -2712 3659 )" class="fill" />
    <path d="M 8.896254595588234 9.160937499999998  L 5.259823069852942 9.1609375  C 2.2532743566176467 9.1609375  0.008272058823529334 11.1234375  0.008272058823529334 13.973437499999998  L 0.008272058823529334 14.280555555555557  C 0.008272058823529334 15.770312499999998  2.414062499999999 15.770312499999998  5.460420496323529 15.770312499999998  L 8.695657169117647 15.770312499999998  C 11.62103630514706 15.770312499999998  14.147805606617649 15.770312499999998  14.147805606617649 14.280555555555557  L 14.147805606617649 13.973437499999998  C 14.147805606617649 11.1234375  11.902630974264707 9.160937499999998  8.896254595588234 9.160937499999998  Z " stroke-width="0" stroke-dasharray="0" stroke="rgba(255, 255, 255, 0)" fill="none" transform="matrix(1 0 0 1 -2712 3659 )" class="stroke" mask="url(#Clip10918)" />
    <path d="M 2.5979434742647047 4.314756944444444  C 2.5979434742647047 6.573958333333333  4.535845588235292 8.4109375  6.915958180147058 8.4109375  C 9.297449448529413 8.4109375  11.235179227941178 6.573958333333333  11.235179227941178 4.314756944444444  C 11.235179227941178 2.0567708333333328  9.29744944852941 0.21996527777777686  6.915958180147058 0.21996527777777686  C 4.535845588235292 0.21996527777777686  2.5979434742647047 2.0569444444444436  2.5979434742647047 4.314756944444444  Z " stroke-width="0" stroke-dasharray="0" stroke="rgba(255, 255, 255, 0)" fill="none" transform="matrix(1 0 0 1 -2712 3659 )" class="stroke" mask="url(#Clip10918)" />
  </g>
</svg>