<?xml version="1.0" encoding="utf-8"?>
<svg version="1.1" xmlns:xlink="http://www.w3.org/1999/xlink" width="4px" height="6px" xmlns="http://www.w3.org/2000/svg">
  <defs>
    <pattern id="BGPattern" patternUnits="userSpaceOnUse" alignment="0 0" imageRepeat="None" />
    <mask fill="white" id="Clip7749">
      <path d="M 0.2698995535714285 4.806927083333332  C 1.5406808035714274 3.9115104166666654  2.4770089285714283 2.4342187499999968  2.806852678571429 0.6924218749999985  C 2.8401114038791286 0.5103287796724938  2.977969078275996 0.3801556882257605  3.1375530546863337 0.3801556882257605  C 3.1710461873021103 0.3801556882257605  3.2043534596567076 0.38596145010494587  3.23638392857143 0.3973828125000006  C 3.2437276785714277 0.4002083333333341  3.2510714285714277 0.4027604166666663  3.2583370535714318 0.40549479166666913  C 3.3991774714725653 0.45728569443536554  3.4836558842788867 0.6249211391235198  3.4539620535714284 0.7936848958333348  C 3.09419642857143 2.7805729166666686  2.0294308035714272 4.465494791666666  0.5799776785714285 5.475481770833333  C 0.4405891216362607 5.571200339194716  0.2616226151571165 5.526902258409322  0.16755580357142769 5.373398437499999  C 0.1270684591119188 5.306403874386635  0.10513530295043592 5.226564808017048  0.10513530295043592 5.144678930540183  C 0.10513530295043592 5.006066350919322  0.16774928822811677 4.877713330717349  0.2698995535714285 4.806927083333332  Z " fill-rule="evenodd" />
    </mask>
  </defs>
  <g transform="matrix(1 0 0 1 -39 -231 )">
    <path d="M 0.2698995535714285 4.806927083333332  C 1.5406808035714274 3.9115104166666654  2.4770089285714283 2.4342187499999968  2.806852678571429 0.6924218749999985  C 2.8401114038791286 0.5103287796724938  2.977969078275996 0.3801556882257605  3.1375530546863337 0.3801556882257605  C 3.1710461873021103 0.3801556882257605  3.2043534596567076 0.38596145010494587  3.23638392857143 0.3973828125000006  C 3.2437276785714277 0.4002083333333341  3.2510714285714277 0.4027604166666663  3.2583370535714318 0.40549479166666913  C 3.3991774714725653 0.45728569443536554  3.4836558842788867 0.6249211391235198  3.4539620535714284 0.7936848958333348  C 3.09419642857143 2.7805729166666686  2.0294308035714272 4.465494791666666  0.5799776785714285 5.475481770833333  C 0.4405891216362607 5.571200339194716  0.2616226151571165 5.526902258409322  0.16755580357142769 5.373398437499999  C 0.1270684591119188 5.306403874386635  0.10513530295043592 5.226564808017048  0.10513530295043592 5.144678930540183  C 0.10513530295043592 5.006066350919322  0.16774928822811677 4.877713330717349  0.2698995535714285 4.806927083333332  Z " fill-rule="nonzero" fill="rgba(255, 237, 140, 1)" stroke="none" transform="matrix(1 0 0 1 39 231 )" class="fill" />
    <path d="M 0.2698995535714285 4.806927083333332  C 1.5406808035714274 3.9115104166666654  2.4770089285714283 2.4342187499999968  2.806852678571429 0.6924218749999985  C 2.8401114038791286 0.5103287796724938  2.977969078275996 0.3801556882257605  3.1375530546863337 0.3801556882257605  C 3.1710461873021103 0.3801556882257605  3.2043534596567076 0.38596145010494587  3.23638392857143 0.3973828125000006  C 3.2437276785714277 0.4002083333333341  3.2510714285714277 0.4027604166666663  3.2583370535714318 0.40549479166666913  C 3.3991774714725653 0.45728569443536554  3.4836558842788867 0.6249211391235198  3.4539620535714284 0.7936848958333348  C 3.09419642857143 2.7805729166666686  2.0294308035714272 4.465494791666666  0.5799776785714285 5.475481770833333  C 0.4405891216362607 5.571200339194716  0.2616226151571165 5.526902258409322  0.16755580357142769 5.373398437499999  C 0.1270684591119188 5.306403874386635  0.10513530295043592 5.226564808017048  0.10513530295043592 5.144678930540183  C 0.10513530295043592 5.006066350919322  0.16774928822811677 4.877713330717349  0.2698995535714285 4.806927083333332  Z " stroke-width="0" stroke-dasharray="0" stroke="rgba(255, 255, 255, 0)" fill="none" transform="matrix(1 0 0 1 39 231 )" class="stroke" mask="url(#Clip7749)" />
  </g>
</svg>