<?xml version="1.0" encoding="utf-8"?>
<svg version="1.1" xmlns:xlink="http://www.w3.org/1999/xlink" width="8px" height="8px" xmlns="http://www.w3.org/2000/svg">
  <defs>
    <pattern id="BGPattern" patternUnits="userSpaceOnUse" alignment="0 0" imageRepeat="None" />
    <mask fill="white" id="Clip4222">
      <path d="M 2.562055288461543 2.082824519230768  L 3.6637980769230776 0.5459375000000003  C 3.741472276838712 0.43753962576021455  3.8666456582175215 0.3732425010979035  4 0.3732425010979035  C 4.13335434178248 0.3732425010979035  4.25852772316129 0.4375396257602124  4.336201923076924 0.5459375000000003  L 5.437944711538463 2.082824519230769  C 5.4899038307705945 2.1552917950484534  5.563887230193718 2.2090308338795306  5.648870192307693 2.2360336538461527  L 7.450949519230772 2.8089062499999993  C 7.622671480830021 2.8634980226143196  7.739305189415872 3.022962496311504  7.739305189415872 3.203153211201777  C 7.739305189415872 3.2914049045305727  7.711082929645124 3.3773438920391774  7.658762019230772 3.4484134615384616  L 6.537500000000003 4.971165865384614  C 6.484641142027569 5.042976869437246  6.456399440187325 5.129944785135472  6.456983173076926 5.219110576923076  L 6.469014423076927 7.10995192307692  C 6.469020045856463 7.110832455125166  6.469022857267727 7.111713002881275  6.469022857267727 7.112593552881918  C 6.469022857267727 7.341068177935114  6.283807578474768 7.5262834567280725  6.055332953421573 7.5262834567280725  C 6.011040981303082 7.5262834567280725  5.967036408553862 7.51917052653243  5.9250000000000025 7.505216346153844  L 4.130324519230772 6.90945913461538  C 4.045714172822388 6.8813553195703365  3.9542858271776185 6.8813553195703365  3.8696754807692346 6.909459134615385  L 2.075000000000002 7.505216346153844  C 2.0329387288400533 7.519192034280385  1.988904493826591 7.526316171389232  1.944582147428851 7.526316171389232  C 1.7161539886406625 7.526316171389232  1.5309763781980819 7.341138560946652  1.5309763781980819 7.112710402158462  C 1.5309763781980819 7.111790901462664  1.5309794444567955 7.110871403322731  1.5309855769230798 7.10995192307692  L 1.5430168269230802 5.219110576923076  C 1.5436005598126816 5.129944785135472  1.5153588579724366 5.042976869437246  1.4625000000000035 4.971165865384614  L 0.34123798076923495 3.4484134615384594  C 0.28891707035488096 3.377343892039175  0.2606948105841346 3.291404904530575  0.2606948105841346 3.203153211201777  C 0.2606948105841346 3.022962496311504  0.3773285191699872 2.8634980226143205  0.5490504807692346 2.808906249999998  L 2.3511298076923115 2.236033653846152  C 2.436112769806288 2.2090308338795284  2.5100961692294113 2.1552917950484534  2.562055288461543 2.082824519230768  Z " fill-rule="evenodd" />
    </mask>
  </defs>
  <g transform="matrix(1 0 0 1 -32 -227 )">
    <path d="M 2.562055288461543 2.082824519230768  L 3.6637980769230776 0.5459375000000003  C 3.741472276838712 0.43753962576021455  3.8666456582175215 0.3732425010979035  4 0.3732425010979035  C 4.13335434178248 0.3732425010979035  4.25852772316129 0.4375396257602124  4.336201923076924 0.5459375000000003  L 5.437944711538463 2.082824519230769  C 5.4899038307705945 2.1552917950484534  5.563887230193718 2.2090308338795306  5.648870192307693 2.2360336538461527  L 7.450949519230772 2.8089062499999993  C 7.622671480830021 2.8634980226143196  7.739305189415872 3.022962496311504  7.739305189415872 3.203153211201777  C 7.739305189415872 3.2914049045305727  7.711082929645124 3.3773438920391774  7.658762019230772 3.4484134615384616  L 6.537500000000003 4.971165865384614  C 6.484641142027569 5.042976869437246  6.456399440187325 5.129944785135472  6.456983173076926 5.219110576923076  L 6.469014423076927 7.10995192307692  C 6.469020045856463 7.110832455125166  6.469022857267727 7.111713002881275  6.469022857267727 7.112593552881918  C 6.469022857267727 7.341068177935114  6.283807578474768 7.5262834567280725  6.055332953421573 7.5262834567280725  C 6.011040981303082 7.5262834567280725  5.967036408553862 7.51917052653243  5.9250000000000025 7.505216346153844  L 4.130324519230772 6.90945913461538  C 4.045714172822388 6.8813553195703365  3.9542858271776185 6.8813553195703365  3.8696754807692346 6.909459134615385  L 2.075000000000002 7.505216346153844  C 2.0329387288400533 7.519192034280385  1.988904493826591 7.526316171389232  1.944582147428851 7.526316171389232  C 1.7161539886406625 7.526316171389232  1.5309763781980819 7.341138560946652  1.5309763781980819 7.112710402158462  C 1.5309763781980819 7.111790901462664  1.5309794444567955 7.110871403322731  1.5309855769230798 7.10995192307692  L 1.5430168269230802 5.219110576923076  C 1.5436005598126816 5.129944785135472  1.5153588579724366 5.042976869437246  1.4625000000000035 4.971165865384614  L 0.34123798076923495 3.4484134615384594  C 0.28891707035488096 3.377343892039175  0.2606948105841346 3.291404904530575  0.2606948105841346 3.203153211201777  C 0.2606948105841346 3.022962496311504  0.3773285191699872 2.8634980226143205  0.5490504807692346 2.808906249999998  L 2.3511298076923115 2.236033653846152  C 2.436112769806288 2.2090308338795284  2.5100961692294113 2.1552917950484534  2.562055288461543 2.082824519230768  Z " fill-rule="nonzero" fill="rgba(250, 127, 75, 1)" stroke="none" transform="matrix(1 0 0 1 32 227 )" class="fill" />
    <path d="M 2.562055288461543 2.082824519230768  L 3.6637980769230776 0.5459375000000003  C 3.741472276838712 0.43753962576021455  3.8666456582175215 0.3732425010979035  4 0.3732425010979035  C 4.13335434178248 0.3732425010979035  4.25852772316129 0.4375396257602124  4.336201923076924 0.5459375000000003  L 5.437944711538463 2.082824519230769  C 5.4899038307705945 2.1552917950484534  5.563887230193718 2.2090308338795306  5.648870192307693 2.2360336538461527  L 7.450949519230772 2.8089062499999993  C 7.622671480830021 2.8634980226143196  7.739305189415872 3.022962496311504  7.739305189415872 3.203153211201777  C 7.739305189415872 3.2914049045305727  7.711082929645124 3.3773438920391774  7.658762019230772 3.4484134615384616  L 6.537500000000003 4.971165865384614  C 6.484641142027569 5.042976869437246  6.456399440187325 5.129944785135472  6.456983173076926 5.219110576923076  L 6.469014423076927 7.10995192307692  C 6.469020045856463 7.110832455125166  6.469022857267727 7.111713002881275  6.469022857267727 7.112593552881918  C 6.469022857267727 7.341068177935114  6.283807578474768 7.5262834567280725  6.055332953421573 7.5262834567280725  C 6.011040981303082 7.5262834567280725  5.967036408553862 7.51917052653243  5.9250000000000025 7.505216346153844  L 4.130324519230772 6.90945913461538  C 4.045714172822388 6.8813553195703365  3.9542858271776185 6.8813553195703365  3.8696754807692346 6.909459134615385  L 2.075000000000002 7.505216346153844  C 2.0329387288400533 7.519192034280385  1.988904493826591 7.526316171389232  1.944582147428851 7.526316171389232  C 1.7161539886406625 7.526316171389232  1.5309763781980819 7.341138560946652  1.5309763781980819 7.112710402158462  C 1.5309763781980819 7.111790901462664  1.5309794444567955 7.110871403322731  1.5309855769230798 7.10995192307692  L 1.5430168269230802 5.219110576923076  C 1.5436005598126816 5.129944785135472  1.5153588579724366 5.042976869437246  1.4625000000000035 4.971165865384614  L 0.34123798076923495 3.4484134615384594  C 0.28891707035488096 3.377343892039175  0.2606948105841346 3.291404904530575  0.2606948105841346 3.203153211201777  C 0.2606948105841346 3.022962496311504  0.3773285191699872 2.8634980226143205  0.5490504807692346 2.808906249999998  L 2.3511298076923115 2.236033653846152  C 2.436112769806288 2.2090308338795284  2.5100961692294113 2.1552917950484534  2.562055288461543 2.082824519230768  Z " stroke-width="0" stroke-dasharray="0" stroke="rgba(255, 255, 255, 0)" fill="none" transform="matrix(1 0 0 1 32 227 )" class="stroke" mask="url(#Clip4222)" />
  </g>
</svg>