<?xml version="1.0" encoding="utf-8"?>
<svg version="1.1" xmlns:xlink="http://www.w3.org/1999/xlink" width="12px" height="12px" xmlns="http://www.w3.org/2000/svg">
  <defs>
    <pattern id="BGPattern" patternUnits="userSpaceOnUse" alignment="0 0" imageRepeat="None" />
    <mask fill="white" id="Clip8846">
      <path d="M 10.824424342105264 5.371874999999999  C 10.824424342105264 3.8279648437499993  10.186221217105265 2.42457421875  9.14701480263158 1.3869609375  C 8.907405927879967 1.1499363106811673  8.90524232909105 0.7761385599153758  9.142092927631582 0.5366250000000001  C 9.168861019736843 0.5061093750000001  9.183799342105265 0.49101562499999996  9.183799342105265 0.49101562499999996  L 9.183799342105265 0.48806249999999946  C 9.18280004358191 0.48642300600914656  9.183202659674453 0.4843367226205011  9.184749177631582 0.48314062499999966  C 9.186266467879761 0.48191120779129837  9.188499157120242 0.4819112077912994  9.190016447368425 0.48314062499999966  C 10.63169407894737 1.6688203125000003  11.54396792763158 3.419941406249999  11.54396792763158 5.371874999999999  C 11.54396792763158 8.94097265625  8.493787006578948 11.83864453125  4.73684210526316 11.83864453125  C 3.1661595394736874 11.83864453125  1.7189555921052655 11.332183593749999  0.5666324013157922 10.481929687499996  C 0.4356579744617193 10.383294030592943  0.4055434105132085 10.206018881697531  0.49720805921052824 10.073249999999998  L 0.4964309210526333 10.07283984375  C 0.5689460130136696 9.967866200400728  0.692229005384305 9.90463935306029  0.8243969779206031 9.90463935306029  C 0.9106860162069111 9.90463935306029  0.99456761614324 9.93166789823995  1.0630509868421072 9.981539062500001  C 2.0840378289473684 10.718097656250002  3.3571628289473683 11.155078125  4.7368421052631575 11.155078125  C 8.096669407894735 11.155078125  10.824424342105264 8.563710937499998  10.824424342105264 5.371874999999999  Z " fill-rule="evenodd" />
    </mask>
  </defs>
  <g transform="matrix(1 0 0 1 -32 -225 )">
    <path d="M 10.824424342105264 5.371874999999999  C 10.824424342105264 3.8279648437499993  10.186221217105265 2.42457421875  9.14701480263158 1.3869609375  C 8.907405927879967 1.1499363106811673  8.90524232909105 0.7761385599153758  9.142092927631582 0.5366250000000001  C 9.168861019736843 0.5061093750000001  9.183799342105265 0.49101562499999996  9.183799342105265 0.49101562499999996  L 9.183799342105265 0.48806249999999946  C 9.18280004358191 0.48642300600914656  9.183202659674453 0.4843367226205011  9.184749177631582 0.48314062499999966  C 9.186266467879761 0.48191120779129837  9.188499157120242 0.4819112077912994  9.190016447368425 0.48314062499999966  C 10.63169407894737 1.6688203125000003  11.54396792763158 3.419941406249999  11.54396792763158 5.371874999999999  C 11.54396792763158 8.94097265625  8.493787006578948 11.83864453125  4.73684210526316 11.83864453125  C 3.1661595394736874 11.83864453125  1.7189555921052655 11.332183593749999  0.5666324013157922 10.481929687499996  C 0.4356579744617193 10.383294030592943  0.4055434105132085 10.206018881697531  0.49720805921052824 10.073249999999998  L 0.4964309210526333 10.07283984375  C 0.5689460130136696 9.967866200400728  0.692229005384305 9.90463935306029  0.8243969779206031 9.90463935306029  C 0.9106860162069111 9.90463935306029  0.99456761614324 9.93166789823995  1.0630509868421072 9.981539062500001  C 2.0840378289473684 10.718097656250002  3.3571628289473683 11.155078125  4.7368421052631575 11.155078125  C 8.096669407894735 11.155078125  10.824424342105264 8.563710937499998  10.824424342105264 5.371874999999999  Z " fill-rule="nonzero" fill="rgba(255, 186, 88, 1)" stroke="none" transform="matrix(1 0 0 1 32 225 )" class="fill" />
    <path d="M 10.824424342105264 5.371874999999999  C 10.824424342105264 3.8279648437499993  10.186221217105265 2.42457421875  9.14701480263158 1.3869609375  C 8.907405927879967 1.1499363106811673  8.90524232909105 0.7761385599153758  9.142092927631582 0.5366250000000001  C 9.168861019736843 0.5061093750000001  9.183799342105265 0.49101562499999996  9.183799342105265 0.49101562499999996  L 9.183799342105265 0.48806249999999946  C 9.18280004358191 0.48642300600914656  9.183202659674453 0.4843367226205011  9.184749177631582 0.48314062499999966  C 9.186266467879761 0.48191120779129837  9.188499157120242 0.4819112077912994  9.190016447368425 0.48314062499999966  C 10.63169407894737 1.6688203125000003  11.54396792763158 3.419941406249999  11.54396792763158 5.371874999999999  C 11.54396792763158 8.94097265625  8.493787006578948 11.83864453125  4.73684210526316 11.83864453125  C 3.1661595394736874 11.83864453125  1.7189555921052655 11.332183593749999  0.5666324013157922 10.481929687499996  C 0.4356579744617193 10.383294030592943  0.4055434105132085 10.206018881697531  0.49720805921052824 10.073249999999998  L 0.4964309210526333 10.07283984375  C 0.5689460130136696 9.967866200400728  0.692229005384305 9.90463935306029  0.8243969779206031 9.90463935306029  C 0.9106860162069111 9.90463935306029  0.99456761614324 9.93166789823995  1.0630509868421072 9.981539062500001  C 2.0840378289473684 10.718097656250002  3.3571628289473683 11.155078125  4.7368421052631575 11.155078125  C 8.096669407894735 11.155078125  10.824424342105264 8.563710937499998  10.824424342105264 5.371874999999999  Z " stroke-width="0" stroke-dasharray="0" stroke="rgba(255, 255, 255, 0)" fill="none" transform="matrix(1 0 0 1 32 225 )" class="stroke" mask="url(#Clip8846)" />
  </g>
</svg>