<?xml version="1.0" encoding="utf-8"?>
<svg version="1.1" xmlns:xlink="http://www.w3.org/1999/xlink" width="8px" height="4px" xmlns="http://www.w3.org/2000/svg">
  <defs>
    <pattern id="BGPattern" patternUnits="userSpaceOnUse" alignment="0 0" imageRepeat="None" />
    <mask fill="white" id="Clip8849">
      <path d="M 4.176514423076922 3.634518229166666  C 2.7813100961538453 3.634518229166666  1.4735216346153828 3.469908854166666  0.3494831730769236 3.182890625  C 0.29519644611100443 2.8916836368623904  0.45202823354457694 2.6029106869102825  0.7133653846153851 2.512877604166667  L 2.312091346153846 1.9623567708333323  C 2.422419018997339 1.9243184177970498  2.518466524458605 1.8487172771056362  2.5859495192307693 1.746796875  L 3.5633413461538472 0.269778645833334  C 3.6642268624222583 0.1172631986654018  3.8268010439898186 0.026798117613548555  4 0.026798117613548555  C 4.173198956010181 0.026798117613548555  4.335773137577742 0.11726319866540062  4.436658653846153 0.269778645833334  L 5.41405048076923 1.746796875  C 5.481533475541393 1.848717277105635  5.577580981002661 1.9243184177970498  5.687908653846152 1.9623567708333323  L 7.286634615384615 2.512877604166666  C 7.509644831814659 2.5897337954046833  7.661098923898687 2.814107034297841  7.661098923898687 3.067631646101527  C 7.661098923898687 3.137795870478578  7.649390502520863 3.207382196578481  7.62653846153846 3.2730338541666675  C 6.591093749999999 3.504088541666666  5.41842548076923 3.634518229166666  4.176514423076922 3.634518229166666  Z " fill-rule="evenodd" />
    </mask>
  </defs>
  <g transform="matrix(1 0 0 1 -32 -227 )">
    <path d="M 4.176514423076922 3.634518229166666  C 2.7813100961538453 3.634518229166666  1.4735216346153828 3.469908854166666  0.3494831730769236 3.182890625  C 0.29519644611100443 2.8916836368623904  0.45202823354457694 2.6029106869102825  0.7133653846153851 2.512877604166667  L 2.312091346153846 1.9623567708333323  C 2.422419018997339 1.9243184177970498  2.518466524458605 1.8487172771056362  2.5859495192307693 1.746796875  L 3.5633413461538472 0.269778645833334  C 3.6642268624222583 0.1172631986654018  3.8268010439898186 0.026798117613548555  4 0.026798117613548555  C 4.173198956010181 0.026798117613548555  4.335773137577742 0.11726319866540062  4.436658653846153 0.269778645833334  L 5.41405048076923 1.746796875  C 5.481533475541393 1.848717277105635  5.577580981002661 1.9243184177970498  5.687908653846152 1.9623567708333323  L 7.286634615384615 2.512877604166666  C 7.509644831814659 2.5897337954046833  7.661098923898687 2.814107034297841  7.661098923898687 3.067631646101527  C 7.661098923898687 3.137795870478578  7.649390502520863 3.207382196578481  7.62653846153846 3.2730338541666675  C 6.591093749999999 3.504088541666666  5.41842548076923 3.634518229166666  4.176514423076922 3.634518229166666  Z " fill-rule="nonzero" fill="rgba(255, 234, 141, 1)" stroke="none" transform="matrix(1 0 0 1 32 227 )" class="fill" />
    <path d="M 4.176514423076922 3.634518229166666  C 2.7813100961538453 3.634518229166666  1.4735216346153828 3.469908854166666  0.3494831730769236 3.182890625  C 0.29519644611100443 2.8916836368623904  0.45202823354457694 2.6029106869102825  0.7133653846153851 2.512877604166667  L 2.312091346153846 1.9623567708333323  C 2.422419018997339 1.9243184177970498  2.518466524458605 1.8487172771056362  2.5859495192307693 1.746796875  L 3.5633413461538472 0.269778645833334  C 3.6642268624222583 0.1172631986654018  3.8268010439898186 0.026798117613548555  4 0.026798117613548555  C 4.173198956010181 0.026798117613548555  4.335773137577742 0.11726319866540062  4.436658653846153 0.269778645833334  L 5.41405048076923 1.746796875  C 5.481533475541393 1.848717277105635  5.577580981002661 1.9243184177970498  5.687908653846152 1.9623567708333323  L 7.286634615384615 2.512877604166666  C 7.509644831814659 2.5897337954046833  7.661098923898687 2.814107034297841  7.661098923898687 3.067631646101527  C 7.661098923898687 3.137795870478578  7.649390502520863 3.207382196578481  7.62653846153846 3.2730338541666675  C 6.591093749999999 3.504088541666666  5.41842548076923 3.634518229166666  4.176514423076922 3.634518229166666  Z " stroke-width="0" stroke-dasharray="0" stroke="rgba(255, 255, 255, 0)" fill="none" transform="matrix(1 0 0 1 32 227 )" class="stroke" mask="url(#Clip8849)" />
  </g>
</svg>