<?xml version="1.0" encoding="utf-8"?>
<svg version="1.1" xmlns:xlink="http://www.w3.org/1999/xlink" width="4px" height="4px" xmlns="http://www.w3.org/2000/svg">
  <defs>
    <pattern id="BGPattern" patternUnits="userSpaceOnUse" alignment="0 0" imageRepeat="None" />
    <mask fill="white" id="Clip8697">
      <path d="M 0.33333333984374924 1.9999999999999982  C 0.33333333984374924 2.9204745794557176  1.0795254205442806 3.666666660156249  1.9999999999999982 3.666666660156249  C 2.9204745794557176 3.666666660156249  3.666666660156249 2.9204745794557176  3.666666660156249 1.9999999999999982  C 3.6666666601562508 1.0795253708737444  2.9204745794557194 0.3333332901732131  2 0.3333332901732131  C 1.0795254205442824 0.3333332901732131  0.333333339843751 1.0795253708737444  0.333333339843751 1.999999950329462  Z " fill-rule="evenodd" />
    </mask>
  </defs>
  <g transform="matrix(1 0 0 1 -331 -830 )">
    <path d="M 0.33333333984374924 1.9999999999999982  C 0.33333333984374924 2.9204745794557176  1.0795254205442806 3.666666660156249  1.9999999999999982 3.666666660156249  C 2.9204745794557176 3.666666660156249  3.666666660156249 2.9204745794557176  3.666666660156249 1.9999999999999982  C 3.6666666601562508 1.0795253708737444  2.9204745794557194 0.3333332901732131  2 0.3333332901732131  C 1.0795254205442824 0.3333332901732131  0.333333339843751 1.0795253708737444  0.333333339843751 1.999999950329462  Z " fill-rule="nonzero" fill="rgba(255, 255, 255, 1)" stroke="none" transform="matrix(1 0 0 1 331 830 )" class="fill" />
    <path d="M 0.33333333984374924 1.9999999999999982  C 0.33333333984374924 2.9204745794557176  1.0795254205442806 3.666666660156249  1.9999999999999982 3.666666660156249  C 2.9204745794557176 3.666666660156249  3.666666660156249 2.9204745794557176  3.666666660156249 1.9999999999999982  C 3.6666666601562508 1.0795253708737444  2.9204745794557194 0.3333332901732131  2 0.3333332901732131  C 1.0795254205442824 0.3333332901732131  0.333333339843751 1.0795253708737444  0.333333339843751 1.999999950329462  Z " stroke-width="0" stroke-dasharray="0" stroke="rgba(255, 255, 255, 0)" fill="none" transform="matrix(1 0 0 1 331 830 )" class="stroke" mask="url(#Clip8697)" />
  </g>
</svg>