<?xml version="1.0" encoding="utf-8"?>
<svg version="1.1" xmlns:xlink="http://www.w3.org/1999/xlink" width="20px" height="20px" xmlns="http://www.w3.org/2000/svg">
  <defs>
    <pattern id="BGPattern" patternUnits="userSpaceOnUse" alignment="0 0" imageRepeat="None" />
    <mask fill="white" id="Clip14759">
      <path d="M 19.99322265625 8.945859375  C 19.99322265625 4.031640625  15.544296875 0.04863281249999907  10.01611328125 0.048632812500000004  C 4.487890625 0.048632812500000004  0.0067773437499999995 4.031640625  0.0067773437499999995 8.945859375000001  C 0.0067773437499999995 11.8323828125  1.4162109374999998 14.3977734375  3.8120507812500004 16.02345703125  C 3.8262500000000004 16.0329296875  3.5654296875 19.95134765625  3.5654296875 19.95134765625  L 7.58923828125 17.60224609375  C 8.32720703125 17.75650390625  9.16029296875 17.843125  9.95091796875 17.843125  C 15.479101562499999 17.843125  19.99322265625 13.860117187499998  19.99322265625 8.945859375  Z M 6.3949218750000005 8.98515625  C 6.3949218750000005 9.67501953125  5.835703125 10.234296875  5.14576171875 10.234296875  C 4.4559765625 10.234296875  3.8966210937500003 9.674999999999999  3.8966210937500003 8.98515625  C 3.8966210937500003 8.29525390625  4.45599609375 7.73599609375  5.14576171875 7.73599609375  C 5.835703125 7.73599609375  6.3949218750000005 8.29525390625  6.3949218750000005 8.98515625  Z M 11.24916015625 8.98515625  C 11.24916015625 9.67501953125  10.68978515625 10.234296875  10 10.234296875  C 9.31005859375 10.234296875  8.75083984375 9.674999999999999  8.75083984375 8.98515625  C 8.75083984375 8.29525390625  9.31005859375 7.73599609375  10 7.73599609375  C 10.68978515625 7.73599609375  11.24916015625 8.29525390625  11.24916015625 8.98515625  Z M 16.10322265625 8.98515625  C 16.10322265625 9.67501953125  15.544003906250001 10.234296875  14.854062500000001 10.234296875  C 14.164140625000002 10.234296875  13.604921875 9.674999999999999  13.604921875 8.98515625  C 13.604921875 8.29525390625  14.164140624999998 7.73599609375  14.854062500000001 7.73599609375  C 15.543984375 7.73599609375  16.10322265625 8.29525390625  16.10322265625 8.98515625  Z " fill-rule="evenodd" />
    </mask>
  </defs>
  <g transform="matrix(1 0 0 1 2826 -2068 )">
    <path d="M 19.99322265625 8.945859375  C 19.99322265625 4.031640625  15.544296875 0.04863281249999907  10.01611328125 0.048632812500000004  C 4.487890625 0.048632812500000004  0.0067773437499999995 4.031640625  0.0067773437499999995 8.945859375000001  C 0.0067773437499999995 11.8323828125  1.4162109374999998 14.3977734375  3.8120507812500004 16.02345703125  C 3.8262500000000004 16.0329296875  3.5654296875 19.95134765625  3.5654296875 19.95134765625  L 7.58923828125 17.60224609375  C 8.32720703125 17.75650390625  9.16029296875 17.843125  9.95091796875 17.843125  C 15.479101562499999 17.843125  19.99322265625 13.860117187499998  19.99322265625 8.945859375  Z M 6.3949218750000005 8.98515625  C 6.3949218750000005 9.67501953125  5.835703125 10.234296875  5.14576171875 10.234296875  C 4.4559765625 10.234296875  3.8966210937500003 9.674999999999999  3.8966210937500003 8.98515625  C 3.8966210937500003 8.29525390625  4.45599609375 7.73599609375  5.14576171875 7.73599609375  C 5.835703125 7.73599609375  6.3949218750000005 8.29525390625  6.3949218750000005 8.98515625  Z M 11.24916015625 8.98515625  C 11.24916015625 9.67501953125  10.68978515625 10.234296875  10 10.234296875  C 9.31005859375 10.234296875  8.75083984375 9.674999999999999  8.75083984375 8.98515625  C 8.75083984375 8.29525390625  9.31005859375 7.73599609375  10 7.73599609375  C 10.68978515625 7.73599609375  11.24916015625 8.29525390625  11.24916015625 8.98515625  Z M 16.10322265625 8.98515625  C 16.10322265625 9.67501953125  15.544003906250001 10.234296875  14.854062500000001 10.234296875  C 14.164140625000002 10.234296875  13.604921875 9.674999999999999  13.604921875 8.98515625  C 13.604921875 8.29525390625  14.164140624999998 7.73599609375  14.854062500000001 7.73599609375  C 15.543984375 7.73599609375  16.10322265625 8.29525390625  16.10322265625 8.98515625  Z " fill-rule="nonzero" fill="rgba(255, 255, 255, 1)" stroke="none" transform="matrix(1 0 0 1 -2826 2068 )" class="fill" />
    <path d="M 19.99322265625 8.945859375  C 19.99322265625 4.031640625  15.544296875 0.04863281249999907  10.01611328125 0.048632812500000004  C 4.487890625 0.048632812500000004  0.0067773437499999995 4.031640625  0.0067773437499999995 8.945859375000001  C 0.0067773437499999995 11.8323828125  1.4162109374999998 14.3977734375  3.8120507812500004 16.02345703125  C 3.8262500000000004 16.0329296875  3.5654296875 19.95134765625  3.5654296875 19.95134765625  L 7.58923828125 17.60224609375  C 8.32720703125 17.75650390625  9.16029296875 17.843125  9.95091796875 17.843125  C 15.479101562499999 17.843125  19.99322265625 13.860117187499998  19.99322265625 8.945859375  Z " stroke-width="0" stroke-dasharray="0" stroke="rgba(255, 255, 255, 0)" fill="none" transform="matrix(1 0 0 1 -2826 2068 )" class="stroke" mask="url(#Clip14759)" />
    <path d="M 6.3949218750000005 8.98515625  C 6.3949218750000005 9.67501953125  5.835703125 10.234296875  5.14576171875 10.234296875  C 4.4559765625 10.234296875  3.8966210937500003 9.674999999999999  3.8966210937500003 8.98515625  C 3.8966210937500003 8.29525390625  4.45599609375 7.73599609375  5.14576171875 7.73599609375  C 5.835703125 7.73599609375  6.3949218750000005 8.29525390625  6.3949218750000005 8.98515625  Z " stroke-width="0" stroke-dasharray="0" stroke="rgba(255, 255, 255, 0)" fill="none" transform="matrix(1 0 0 1 -2826 2068 )" class="stroke" mask="url(#Clip14759)" />
    <path d="M 11.24916015625 8.98515625  C 11.24916015625 9.67501953125  10.68978515625 10.234296875  10 10.234296875  C 9.31005859375 10.234296875  8.75083984375 9.674999999999999  8.75083984375 8.98515625  C 8.75083984375 8.29525390625  9.31005859375 7.73599609375  10 7.73599609375  C 10.68978515625 7.73599609375  11.24916015625 8.29525390625  11.24916015625 8.98515625  Z " stroke-width="0" stroke-dasharray="0" stroke="rgba(255, 255, 255, 0)" fill="none" transform="matrix(1 0 0 1 -2826 2068 )" class="stroke" mask="url(#Clip14759)" />
    <path d="M 16.10322265625 8.98515625  C 16.10322265625 9.67501953125  15.544003906250001 10.234296875  14.854062500000001 10.234296875  C 14.164140625000002 10.234296875  13.604921875 9.674999999999999  13.604921875 8.98515625  C 13.604921875 8.29525390625  14.164140624999998 7.73599609375  14.854062500000001 7.73599609375  C 15.543984375 7.73599609375  16.10322265625 8.29525390625  16.10322265625 8.98515625  Z " stroke-width="0" stroke-dasharray="0" stroke="rgba(255, 255, 255, 0)" fill="none" transform="matrix(1 0 0 1 -2826 2068 )" class="stroke" mask="url(#Clip14759)" />
  </g>
</svg>