<?xml version="1.0" encoding="utf-8"?>
<svg version="1.1" xmlns:xlink="http://www.w3.org/1999/xlink" width="8px" height="10px" xmlns="http://www.w3.org/2000/svg">
  <defs>
    <pattern id="BGPattern" patternUnits="userSpaceOnUse" alignment="0 0" imageRepeat="None" />
    <mask fill="white" id="Clip12338">
      <path d="M 0.25 10  L 0.25 2.5  C 0.8125 1  2.125 0.25  4 0.25  C 5.875 0.25  7.1875 0.9999999999999991  7.75 2.5  L 7.75 10  L 0.25 10  Z " fill-rule="evenodd" />
    </mask>
  </defs>
  <g transform="matrix(1 0 0 1 -327 -1407 )">
    <path d="M 0.25 10  L 0.25 2.5  C 0.8125 1  2.125 0.25  4 0.25  C 5.875 0.25  7.1875 0.9999999999999991  7.75 2.5  L 7.75 10  L 0.25 10  Z " fill-rule="nonzero" fill="rgba(254, 213, 70, 1)" stroke="none" transform="matrix(1 0 0 1 327 1407 )" class="fill" />
    <path d="M 0.25 10  L 0.25 2.5  C 0.8125 1  2.125 0.25  4 0.25  C 5.875 0.25  7.1875 0.9999999999999991  7.75 2.5  L 7.75 10  L 0.25 10  Z " stroke-width="0" stroke-dasharray="0" stroke="rgba(255, 255, 255, 0)" fill="none" transform="matrix(1 0 0 1 327 1407 )" class="stroke" mask="url(#Clip12338)" />
  </g>
</svg>