<?xml version="1.0" encoding="utf-8"?>
<svg version="1.1" xmlns:xlink="http://www.w3.org/1999/xlink" width="20px" height="20px" xmlns="http://www.w3.org/2000/svg">
  <defs>
    <pattern id="BGPattern" patternUnits="userSpaceOnUse" alignment="0 0" imageRepeat="None" />
    <mask fill="white" id="Clip12323">
      <path d="M 15.280991725852273 2.6921487482244326  C 13.612822897875125 1.0187761828861044  11.346298544693695 0.0795963156735075  8.983471067116476 0.08264463778409059  C 4.068139038075794 0.08329320201441737  0.0838190501458026 4.068138944439244  0.0838190501458026 8.983471016268041  C 0.0838190501458026 13.899261728788481  4.068854793591271 17.884297472233953  8.984645506111711 17.884297472233953  C 13.900436218632153 17.884297472233953  17.88547196207762 13.899261728788481  17.88547196207762 8.983471016268041  C 17.88547196207762 6.624056051822541  16.94868404395404 4.361172806347538  15.280991725852273 2.6921487482244326  Z M 16.365702476917615 8.983471067116476  C 16.36941457017808 13.078289641166078  13.077974599842157 16.413947104657296  8.983471067116476 16.464876020951703  C 8.950415044171717 16.465314250145695  8.917356479617137 16.465533371962593  8.884297551961339 16.465533371962593  C 4.752431688649594 16.465533371962593  1.4028925981261144 13.115994281439114  1.4028925981261144 8.984128418127366  C 1.4028925981261144 4.852262554815617  4.752431688649594 1.5027234642921383  8.884297551961339 1.5027234642921383  C 13.015906706070473 1.5027234642921383  16.365339454534677 4.851861928955762  16.365702476917615 8.983471067116476  Z M 19.917355362215904 18.84504131747159  C 19.923036408447135 18.54943053295902  19.806409410991638 18.264591521796  19.59504131747159 18.057851251775567  L 17.65495868252841 16.198347114701704  C 17.223992461564738 15.777892071029697  16.536338131475034 15.777892071029697  16.10537191051136 16.198347114701704  C 15.900227422300565 16.3990998120859  15.784129367037762 16.673716342081498  15.78305783913352 16.960743794389202  C 15.784818299735955 17.24762983918894  15.90080887035005 17.52199213625669  16.10537191051136 17.723140500710223  L 18.057851251775567 19.60123965731534  C 18.488817472739235 20.021694700987346  19.176471802828946 20.02169470098735  19.60743802379261 19.601239657315347  C 19.808266085648725 19.401129601693185  19.91998491786235 19.12853563880288  19.917355362215904 18.84504131747159  Z " fill-rule="evenodd" />
    </mask>
  </defs>
  <g transform="matrix(1 0 0 1 2017 -2305 )">
    <path d="M 15.280991725852273 2.6921487482244326  C 13.612822897875125 1.0187761828861044  11.346298544693695 0.0795963156735075  8.983471067116476 0.08264463778409059  C 4.068139038075794 0.08329320201441737  0.0838190501458026 4.068138944439244  0.0838190501458026 8.983471016268041  C 0.0838190501458026 13.899261728788481  4.068854793591271 17.884297472233953  8.984645506111711 17.884297472233953  C 13.900436218632153 17.884297472233953  17.88547196207762 13.899261728788481  17.88547196207762 8.983471016268041  C 17.88547196207762 6.624056051822541  16.94868404395404 4.361172806347538  15.280991725852273 2.6921487482244326  Z M 16.365702476917615 8.983471067116476  C 16.36941457017808 13.078289641166078  13.077974599842157 16.413947104657296  8.983471067116476 16.464876020951703  C 8.950415044171717 16.465314250145695  8.917356479617137 16.465533371962593  8.884297551961339 16.465533371962593  C 4.752431688649594 16.465533371962593  1.4028925981261144 13.115994281439114  1.4028925981261144 8.984128418127366  C 1.4028925981261144 4.852262554815617  4.752431688649594 1.5027234642921383  8.884297551961339 1.5027234642921383  C 13.015906706070473 1.5027234642921383  16.365339454534677 4.851861928955762  16.365702476917615 8.983471067116476  Z M 19.917355362215904 18.84504131747159  C 19.923036408447135 18.54943053295902  19.806409410991638 18.264591521796  19.59504131747159 18.057851251775567  L 17.65495868252841 16.198347114701704  C 17.223992461564738 15.777892071029697  16.536338131475034 15.777892071029697  16.10537191051136 16.198347114701704  C 15.900227422300565 16.3990998120859  15.784129367037762 16.673716342081498  15.78305783913352 16.960743794389202  C 15.784818299735955 17.24762983918894  15.90080887035005 17.52199213625669  16.10537191051136 17.723140500710223  L 18.057851251775567 19.60123965731534  C 18.488817472739235 20.021694700987346  19.176471802828946 20.02169470098735  19.60743802379261 19.601239657315347  C 19.808266085648725 19.401129601693185  19.91998491786235 19.12853563880288  19.917355362215904 18.84504131747159  Z " fill-rule="nonzero" fill="rgba(51, 51, 51, 1)" stroke="none" transform="matrix(1 0 0 1 -2017 2305 )" class="fill" />
    <path d="M 15.280991725852273 2.6921487482244326  C 13.612822897875125 1.0187761828861044  11.346298544693695 0.0795963156735075  8.983471067116476 0.08264463778409059  C 4.068139038075794 0.08329320201441737  0.0838190501458026 4.068138944439244  0.0838190501458026 8.983471016268041  C 0.0838190501458026 13.899261728788481  4.068854793591271 17.884297472233953  8.984645506111711 17.884297472233953  C 13.900436218632153 17.884297472233953  17.88547196207762 13.899261728788481  17.88547196207762 8.983471016268041  C 17.88547196207762 6.624056051822541  16.94868404395404 4.361172806347538  15.280991725852273 2.6921487482244326  Z " stroke-width="0" stroke-dasharray="0" stroke="rgba(255, 255, 255, 0)" fill="none" transform="matrix(1 0 0 1 -2017 2305 )" class="stroke" mask="url(#Clip12323)" />
    <path d="M 16.365702476917615 8.983471067116476  C 16.36941457017808 13.078289641166078  13.077974599842157 16.413947104657296  8.983471067116476 16.464876020951703  C 8.950415044171717 16.465314250145695  8.917356479617137 16.465533371962593  8.884297551961339 16.465533371962593  C 4.752431688649594 16.465533371962593  1.4028925981261144 13.115994281439114  1.4028925981261144 8.984128418127366  C 1.4028925981261144 4.852262554815617  4.752431688649594 1.5027234642921383  8.884297551961339 1.5027234642921383  C 13.015906706070473 1.5027234642921383  16.365339454534677 4.851861928955762  16.365702476917615 8.983471067116476  Z " stroke-width="0" stroke-dasharray="0" stroke="rgba(255, 255, 255, 0)" fill="none" transform="matrix(1 0 0 1 -2017 2305 )" class="stroke" mask="url(#Clip12323)" />
    <path d="M 19.917355362215904 18.84504131747159  C 19.923036408447135 18.54943053295902  19.806409410991638 18.264591521796  19.59504131747159 18.057851251775567  L 17.65495868252841 16.198347114701704  C 17.223992461564738 15.777892071029697  16.536338131475034 15.777892071029697  16.10537191051136 16.198347114701704  C 15.900227422300565 16.3990998120859  15.784129367037762 16.673716342081498  15.78305783913352 16.960743794389202  C 15.784818299735955 17.24762983918894  15.90080887035005 17.52199213625669  16.10537191051136 17.723140500710223  L 18.057851251775567 19.60123965731534  C 18.488817472739235 20.021694700987346  19.176471802828946 20.02169470098735  19.60743802379261 19.601239657315347  C 19.808266085648725 19.401129601693185  19.91998491786235 19.12853563880288  19.917355362215904 18.84504131747159  Z " stroke-width="0" stroke-dasharray="0" stroke="rgba(255, 255, 255, 0)" fill="none" transform="matrix(1 0 0 1 -2017 2305 )" class="stroke" mask="url(#Clip12323)" />
  </g>
</svg>