<?xml version="1.0" encoding="utf-8"?>
<svg version="1.1" xmlns:xlink="http://www.w3.org/1999/xlink" width="15px" height="16px" xmlns="http://www.w3.org/2000/svg">
  <defs>
    <pattern id="BGPattern" patternUnits="userSpaceOnUse" alignment="0 0" imageRepeat="None" />
    <mask fill="white" id="Clip18401">
      <path d="M 5.9375 15.727163461538462  C 3.8696289062500004 15.727163461538462  1.9732543945312497 14.998725961538462  0.49865722656249994 13.788449519230769  C 0.8013183593749995 13.638605769230768  1.16353759765625 13.48514423076923  1.280517578125 13.03485576923077  C 1.7105834960937505 11.380012019230769  10.338134765625 2.3497596153846154  10.338134765625 2.3497596153846154  C 10.338134765625 2.3497596153846154  10.346081542968749 1.2424639423076924  10.97584228515625 0.6137259615384614  C 13.07618408203125 2.138581730769231  14.439697265625 4.5916105769230775  14.439697265625 7.355769230769231  C 14.439697265625 11.976105769230768  10.630029296875 15.727163461538462  5.9375 15.727163461538462  Z " fill-rule="evenodd" />
    </mask>
  </defs>
  <g transform="matrix(1 0 0 1 -30 -223 )">
    <path d="M 5.9375 15.727163461538462  C 3.8696289062500004 15.727163461538462  1.9732543945312497 14.998725961538462  0.49865722656249994 13.788449519230769  C 0.8013183593749995 13.638605769230768  1.16353759765625 13.48514423076923  1.280517578125 13.03485576923077  C 1.7105834960937505 11.380012019230769  10.338134765625 2.3497596153846154  10.338134765625 2.3497596153846154  C 10.338134765625 2.3497596153846154  10.346081542968749 1.2424639423076924  10.97584228515625 0.6137259615384614  C 13.07618408203125 2.138581730769231  14.439697265625 4.5916105769230775  14.439697265625 7.355769230769231  C 14.439697265625 11.976105769230768  10.630029296875 15.727163461538462  5.9375 15.727163461538462  Z " fill-rule="nonzero" fill="rgba(244, 122, 56, 0.4980392156862745)" stroke="none" transform="matrix(1 0 0 1 30 223 )" class="fill" />
    <path d="M 5.9375 15.727163461538462  C 3.8696289062500004 15.727163461538462  1.9732543945312497 14.998725961538462  0.49865722656249994 13.788449519230769  C 0.8013183593749995 13.638605769230768  1.16353759765625 13.48514423076923  1.280517578125 13.03485576923077  C 1.7105834960937505 11.380012019230769  10.338134765625 2.3497596153846154  10.338134765625 2.3497596153846154  C 10.338134765625 2.3497596153846154  10.346081542968749 1.2424639423076924  10.97584228515625 0.6137259615384614  C 13.07618408203125 2.138581730769231  14.439697265625 4.5916105769230775  14.439697265625 7.355769230769231  C 14.439697265625 11.976105769230768  10.630029296875 15.727163461538462  5.9375 15.727163461538462  Z " stroke-width="0" stroke-dasharray="0" stroke="rgba(255, 255, 255, 0)" fill="none" transform="matrix(1 0 0 1 30 223 )" class="stroke" mask="url(#Clip18401)" />
  </g>
</svg>