<?xml version="1.0" encoding="utf-8"?>
<svg version="1.1" xmlns:xlink="http://www.w3.org/1999/xlink" width="13px" height="12px" xmlns="http://www.w3.org/2000/svg">
  <defs>
    <pattern id="BGPattern" patternUnits="userSpaceOnUse" alignment="0 0" imageRepeat="None" />
    <mask fill="white" id="Clip16551">
      <path d="M 0.533203125 5.971874999999997  C 0.533203125 9.165849891111286  3.2046290805994646 11.755078125  6.5 11.755078125  C 9.795370919400535 11.755078125  12.466796875 9.165849891111286  12.466796875 5.971874999999997  C 12.466796875 2.777900108888712  9.795370919400535 0.1886718749999995  6.5 0.1886718749999995  C 3.2046290805994646 0.1886718749999995  0.533203125 2.777900108888712  0.533203125 5.971874999999997  Z " fill-rule="evenodd" />
    </mask>
  </defs>
  <g transform="matrix(1 0 0 1 -30 -224 )">
    <path d="M 0.533203125 5.971874999999997  C 0.533203125 9.165849891111286  3.2046290805994646 11.755078125  6.5 11.755078125  C 9.795370919400535 11.755078125  12.466796875 9.165849891111286  12.466796875 5.971874999999997  C 12.466796875 2.777900108888712  9.795370919400535 0.1886718749999995  6.5 0.1886718749999995  C 3.2046290805994646 0.1886718749999995  0.533203125 2.777900108888712  0.533203125 5.971874999999997  Z " fill-rule="nonzero" fill="rgba(255, 188, 84, 1)" stroke="none" transform="matrix(1 0 0 1 30 224 )" class="fill" />
    <path d="M 0.533203125 5.971874999999997  C 0.533203125 9.165849891111286  3.2046290805994646 11.755078125  6.5 11.755078125  C 9.795370919400535 11.755078125  12.466796875 9.165849891111286  12.466796875 5.971874999999997  C 12.466796875 2.777900108888712  9.795370919400535 0.1886718749999995  6.5 0.1886718749999995  C 3.2046290805994646 0.1886718749999995  0.533203125 2.777900108888712  0.533203125 5.971874999999997  Z " stroke-width="0" stroke-dasharray="0" stroke="rgba(255, 255, 255, 0)" fill="none" transform="matrix(1 0 0 1 30 224 )" class="stroke" mask="url(#Clip16551)" />
  </g>
</svg>