<?xml version="1.0" encoding="utf-8"?>
<svg version="1.1" xmlns:xlink="http://www.w3.org/1999/xlink" width="4px" height="4px" xmlns="http://www.w3.org/2000/svg">
  <defs>
    <pattern id="BGPattern" patternUnits="userSpaceOnUse" alignment="0 0" imageRepeat="None" />
    <mask fill="white" id="Clip10506">
      <path d="M 0 1.9999999999999982  C 0 2.9204745848491225  0.7461920850727491 3.6666666699218737  1.6666666699218748 3.6666666699218737  C 2.5871412547709984 3.6666666699218737  3.333333339843748 2.9204745848491225  3.333333339843748 1.9999999999999982  C 3.333333339843748 1.0795254151508757  2.5871412547709984 0.3333333300781245  1.6666666699218748 0.3333333300781245  C 0.7461920850727491 0.3333333300781245  0 1.0795254151508757  0 1.9999999999999982  Z " fill-rule="evenodd" />
    </mask>
  </defs>
  <g transform="matrix(1 0 0 1 -338 -830 )">
    <path d="M 0 1.9999999999999982  C 0 2.9204745848491225  0.7461920850727491 3.6666666699218737  1.6666666699218748 3.6666666699218737  C 2.5871412547709984 3.6666666699218737  3.333333339843748 2.9204745848491225  3.333333339843748 1.9999999999999982  C 3.333333339843748 1.0795254151508757  2.5871412547709984 0.3333333300781245  1.6666666699218748 0.3333333300781245  C 0.7461920850727491 0.3333333300781245  0 1.0795254151508757  0 1.9999999999999982  Z " fill-rule="nonzero" fill="rgba(255, 255, 255, 1)" stroke="none" transform="matrix(1 0 0 1 338 830 )" class="fill" />
    <path d="M 0 1.9999999999999982  C 0 2.9204745848491225  0.7461920850727491 3.6666666699218737  1.6666666699218748 3.6666666699218737  C 2.5871412547709984 3.6666666699218737  3.333333339843748 2.9204745848491225  3.333333339843748 1.9999999999999982  C 3.333333339843748 1.0795254151508757  2.5871412547709984 0.3333333300781245  1.6666666699218748 0.3333333300781245  C 0.7461920850727491 0.3333333300781245  0 1.0795254151508757  0 1.9999999999999982  Z " stroke-width="0" stroke-dasharray="0" stroke="rgba(255, 255, 255, 0)" fill="none" transform="matrix(1 0 0 1 338 830 )" class="stroke" mask="url(#Clip10506)" />
  </g>
</svg>