<?xml version="1.0" encoding="utf-8"?>
<svg version="1.1" xmlns:xlink="http://www.w3.org/1999/xlink" width="11px" height="15px" xmlns="http://www.w3.org/2000/svg">
  <defs>
    <pattern id="BGPattern" patternUnits="userSpaceOnUse" alignment="0 0" imageRepeat="None" />
    <mask fill="white" id="Clip10513">
      <path d="M 10.92853784555664 6.369313716943359  C 10.92853784555664 3.3526010513671873  8.498095989208984 0.908203125  5.5 0.908203125  C 2.501891136132813 0.908203125  0.07146215444335935 3.3526010513671873  0.07146215444335935 6.36931371694336  C 0.07146215444335935 7.876891136279297  0.6794524193359375 9.241779327392578  1.6612439155761716 10.230548858642578  L 5.5 14.091796875  L 9.338743209765623 10.230548858642576  C 10.35931921382668 9.20493588988544  10.931110577382126 7.816189911646627  10.92853784555664 6.369313716943359  Z M 5.5 8.79509496694336  C 4.166122480512441 8.791687897546952  3.0866045129027997 7.70940903934372  3.0866045129027997 6.375527168593481  C 3.0866045129027997 6.372936737349497  3.086608672930147 6.370346307775232  3.0866169929687493 6.367755889892578  C 3.086610270977056 6.365427867485673  3.0866069099759557 6.363099836587128  3.0866069099759557 6.360771804475616  C 3.0866069099759557 5.027015973952067  4.166247505740362 3.9449578448398834  5.5 3.941974639892578  C 6.833872476230942 3.9453887939261016  7.913382612691212 5.0276655596987325  7.913382612691212 6.361542405323631  C 7.913382612691212 6.364132847540616  7.913378452628621 6.366723288087875  7.913370132519532 6.369313716943359  C 7.913378423772546 6.3718992369993055  7.9133825694070445 6.374484768687599  7.9133825694070445 6.377070302037716  C 7.9133825694070445 7.7108220258976  6.833748374618146 8.792878446133455  5.5 8.795867443066406  Z " fill-rule="evenodd" />
    </mask>
  </defs>
  <g transform="matrix(1 0 0 1 -123 -543 )">
    <path d="M 10.92853784555664 6.369313716943359  C 10.92853784555664 3.3526010513671873  8.498095989208984 0.908203125  5.5 0.908203125  C 2.501891136132813 0.908203125  0.07146215444335935 3.3526010513671873  0.07146215444335935 6.36931371694336  C 0.07146215444335935 7.876891136279297  0.6794524193359375 9.241779327392578  1.6612439155761716 10.230548858642578  L 5.5 14.091796875  L 9.338743209765623 10.230548858642576  C 10.35931921382668 9.20493588988544  10.931110577382126 7.816189911646627  10.92853784555664 6.369313716943359  Z M 5.5 8.79509496694336  C 4.166122480512441 8.791687897546952  3.0866045129027997 7.70940903934372  3.0866045129027997 6.375527168593481  C 3.0866045129027997 6.372936737349497  3.086608672930147 6.370346307775232  3.0866169929687493 6.367755889892578  C 3.086610270977056 6.365427867485673  3.0866069099759557 6.363099836587128  3.0866069099759557 6.360771804475616  C 3.0866069099759557 5.027015973952067  4.166247505740362 3.9449578448398834  5.5 3.941974639892578  C 6.833872476230942 3.9453887939261016  7.913382612691212 5.0276655596987325  7.913382612691212 6.361542405323631  C 7.913382612691212 6.364132847540616  7.913378452628621 6.366723288087875  7.913370132519532 6.369313716943359  C 7.913378423772546 6.3718992369993055  7.9133825694070445 6.374484768687599  7.9133825694070445 6.377070302037716  C 7.9133825694070445 7.7108220258976  6.833748374618146 8.792878446133455  5.5 8.795867443066406  Z " fill-rule="nonzero" fill="rgba(255, 255, 255, 1)" stroke="none" transform="matrix(1 0 0 1 123 543 )" class="fill" />
    <path d="M 10.92853784555664 6.369313716943359  C 10.92853784555664 3.3526010513671873  8.498095989208984 0.908203125  5.5 0.908203125  C 2.501891136132813 0.908203125  0.07146215444335935 3.3526010513671873  0.07146215444335935 6.36931371694336  C 0.07146215444335935 7.876891136279297  0.6794524193359375 9.241779327392578  1.6612439155761716 10.230548858642578  L 5.5 14.091796875  L 9.338743209765623 10.230548858642576  C 10.35931921382668 9.20493588988544  10.931110577382126 7.816189911646627  10.92853784555664 6.369313716943359  Z " stroke-width="0" stroke-dasharray="0" stroke="rgba(255, 255, 255, 0)" fill="none" transform="matrix(1 0 0 1 123 543 )" class="stroke" mask="url(#Clip10513)" />
    <path d="M 5.5 8.79509496694336  C 4.166122480512441 8.791687897546952  3.0866045129027997 7.70940903934372  3.0866045129027997 6.375527168593481  C 3.0866045129027997 6.372936737349497  3.086608672930147 6.370346307775232  3.0866169929687493 6.367755889892578  C 3.086610270977056 6.365427867485673  3.0866069099759557 6.363099836587128  3.0866069099759557 6.360771804475616  C 3.0866069099759557 5.027015973952067  4.166247505740362 3.9449578448398834  5.5 3.941974639892578  C 6.833872476230942 3.9453887939261016  7.913382612691212 5.0276655596987325  7.913382612691212 6.361542405323631  C 7.913382612691212 6.364132847540616  7.913378452628621 6.366723288087875  7.913370132519532 6.369313716943359  C 7.913378423772546 6.3718992369993055  7.9133825694070445 6.374484768687599  7.9133825694070445 6.377070302037716  C 7.9133825694070445 7.7108220258976  6.833748374618146 8.792878446133455  5.5 8.795867443066406  Z " stroke-width="0" stroke-dasharray="0" stroke="rgba(255, 255, 255, 0)" fill="none" transform="matrix(1 0 0 1 123 543 )" class="stroke" mask="url(#Clip10513)" />
  </g>
</svg>