<?xml version="1.0" encoding="utf-8"?>
<svg version="1.1" xmlns:xlink="http://www.w3.org/1999/xlink" width="330px" height="131px" xmlns="http://www.w3.org/2000/svg">
  <defs>
    <linearGradient gradientUnits="userSpaceOnUse" x1="165.83333333333366" y1="9.308109838457312E-13" x2="165.83333333333394" y2="129.5913978494627" id="LinearGradient12435">
      <stop id="Stop12436" stop-color="#555555" stop-opacity="0" offset="0" />
      <stop id="Stop12437" stop-color="#333333" offset="1" />
    </linearGradient>
    <pattern id="BGPattern" patternUnits="userSpaceOnUse" alignment="0 0" imageRepeat="None" />
    <mask fill="white" id="Clip12438">
      <path d="M 0 126  L 0 5  C 0 2.1999999999999997  2.1999999999999997 0  5 0  L 325 0  C 327.8 0  330 2.1999999999999997  330 5  L 330 126  C 330 128.8  327.8 131  325 131  L 5 131  C 2.1999999999999997 131  0 128.8  0 126  Z " fill-rule="evenodd" />
    </mask>
  </defs>
  <g transform="matrix(1 0 0 1 -15 -90 )">
    <path d="M 0 126  L 0 5  C 0 2.1999999999999997  2.1999999999999997 0  5 0  L 325 0  C 327.8 0  330 2.1999999999999997  330 5  L 330 126  C 330 128.8  327.8 131  325 131  L 5 131  C 2.1999999999999997 131  0 128.8  0 126  Z " fill-rule="nonzero" fill="url(#LinearGradient12435)" stroke="none" transform="matrix(1 0 0 1 15 90 )" class="fill" />
    <path d="M 0 126  L 0 5  C 0 2.1999999999999997  2.1999999999999997 0  5 0  L 325 0  C 327.8 0  330 2.1999999999999997  330 5  L 330 126  C 330 128.8  327.8 131  325 131  L 5 131  C 2.1999999999999997 131  0 128.8  0 126  Z " stroke-width="0" stroke-dasharray="0" stroke="rgba(121, 121, 121, 1)" fill="none" transform="matrix(1 0 0 1 15 90 )" class="stroke" mask="url(#Clip12438)" />
  </g>
</svg>