<?xml version="1.0" encoding="utf-8"?>
<svg version="1.1" xmlns:xlink="http://www.w3.org/1999/xlink" width="15px" height="13px" xmlns="http://www.w3.org/2000/svg">
  <defs>
    <pattern id="BGPattern" patternUnits="userSpaceOnUse" alignment="0 0" imageRepeat="None" />
    <mask fill="white" id="Clip10586">
      <path d="M 0.4709026834239131 6.472301136363637  C 0.4709026834239131 2.9572807173295463  3.620546025815217 0.10351296164772733  7.5 0.10351296164772733  C 11.379453974184784 0.10351296164772733  14.529097316576086 2.9572807173295454  14.529097316576086 6.472301136363637  C 14.529097316576086 9.987321555397727  11.379453974184782 12.841089311079545  7.5 12.841089311079545  C 3.6205460258152184 12.841089311079545  0.4709026834239131 9.987321555397726  0.4709026834239131 6.472301136363637  Z M 13.786090353260871 6.472301136363637  C 13.786090353260871 3.328826349431819  10.969386888586955 0.7767223011363636  7.5 0.7767223011363636  C 4.030613111413043 0.7767223011363636  1.2139096467391304 3.328826349431819  1.2139096467391304 6.472301136363637  C 1.2139096467391304 9.615775923295454  4.030613111413043 12.16787997159091  7.5 12.16787997159091  C 10.969386888586955 12.16787997159091  13.786090353260871 9.615775923295454  13.786090353260871 6.472301136363637  Z " fill-rule="evenodd" />
    </mask>
  </defs>
  <g transform="matrix(1 0 0 1 -29 -224 )">
    <path d="M 0.4709026834239131 6.472301136363637  C 0.4709026834239131 2.9572807173295463  3.620546025815217 0.10351296164772733  7.5 0.10351296164772733  C 11.379453974184784 0.10351296164772733  14.529097316576086 2.9572807173295454  14.529097316576086 6.472301136363637  C 14.529097316576086 9.987321555397727  11.379453974184782 12.841089311079545  7.5 12.841089311079545  C 3.6205460258152184 12.841089311079545  0.4709026834239131 9.987321555397726  0.4709026834239131 6.472301136363637  Z M 13.786090353260871 6.472301136363637  C 13.786090353260871 3.328826349431819  10.969386888586955 0.7767223011363636  7.5 0.7767223011363636  C 4.030613111413043 0.7767223011363636  1.2139096467391304 3.328826349431819  1.2139096467391304 6.472301136363637  C 1.2139096467391304 9.615775923295454  4.030613111413043 12.16787997159091  7.5 12.16787997159091  C 10.969386888586955 12.16787997159091  13.786090353260871 9.615775923295454  13.786090353260871 6.472301136363637  Z " fill-rule="nonzero" fill="rgba(250, 123, 77, 1)" stroke="none" transform="matrix(1 0 0 1 29 224 )" class="fill" />
    <path d="M 0.4709026834239131 6.472301136363637  C 0.4709026834239131 2.9572807173295463  3.620546025815217 0.10351296164772733  7.5 0.10351296164772733  C 11.379453974184784 0.10351296164772733  14.529097316576086 2.9572807173295454  14.529097316576086 6.472301136363637  C 14.529097316576086 9.987321555397727  11.379453974184782 12.841089311079545  7.5 12.841089311079545  C 3.6205460258152184 12.841089311079545  0.4709026834239131 9.987321555397726  0.4709026834239131 6.472301136363637  Z " stroke-width="0" stroke-dasharray="0" stroke="rgba(255, 255, 255, 0)" fill="none" transform="matrix(1 0 0 1 29 224 )" class="stroke" mask="url(#Clip10586)" />
    <path d="M 13.786090353260871 6.472301136363637  C 13.786090353260871 3.328826349431819  10.969386888586955 0.7767223011363636  7.5 0.7767223011363636  C 4.030613111413043 0.7767223011363636  1.2139096467391304 3.328826349431819  1.2139096467391304 6.472301136363637  C 1.2139096467391304 9.615775923295454  4.030613111413043 12.16787997159091  7.5 12.16787997159091  C 10.969386888586955 12.16787997159091  13.786090353260871 9.615775923295454  13.786090353260871 6.472301136363637  Z " stroke-width="0" stroke-dasharray="0" stroke="rgba(255, 255, 255, 0)" fill="none" transform="matrix(1 0 0 1 29 224 )" class="stroke" mask="url(#Clip10586)" />
  </g>
</svg>