<?xml version="1.0" encoding="utf-8"?>
<svg version="1.1" xmlns:xlink="http://www.w3.org/1999/xlink" width="14px" height="14px" xmlns="http://www.w3.org/2000/svg">
  <defs>
    <pattern id="BGPattern" patternUnits="userSpaceOnUse" alignment="0 0" imageRepeat="None" />
    <mask fill="white" id="Clip7703">
      <path d="M 0.6363636349826389 7  C 0.6363636349826389 3.4855050477430547  3.4855050477430556 0.6363636349826389  7 0.6363636349826389  C 10.514494952256946 0.6363636349826389  13.36363636501736 3.4855050477430556  13.36363636501736 7  C 13.36363636501736 10.514494952256946  10.514494952256946 13.36363636501736  7 13.36363636501736  C 3.4855050477430547 13.36363636501736  0.6363636349826389 10.514494952256946  0.6363636349826389 7  Z M 5.363131317274306 3.631868682725695  C 5.188483016615965 3.8237216905289766  5.188789519429717 4.117047747803596  5.363838381076389 4.308535349392361  L 5.400959602864583 4.344949492187499  L 8.373131317274307 7  L 5.400959602864583 9.6550505078125  C 5.206890671067705 9.827541717022779  5.176238875497704 10.119500032619836  5.330252523871527 10.32853534939236  L 5.363131317274306 10.36848484157986  C 5.539191920572916 10.562929286024307  5.833333333333332 10.58979796875  6.041212126736109 10.43848484157986  L 6.081515158420139 10.405959602864584  L 9.194040397135417 7.626111111111111  C 9.37263094034151 7.4672486907167155  9.474799999732857 7.239624384940463  9.474799999732857 7.000601685733434  C 9.474799999732857 6.782478580914036  9.389668138310107 6.572968399162914  9.237525253906249 6.416666666666666  L 9.194040397135417 6.374595952690973  L 6.081515158420137 3.5947474761284717  C 5.872219516135228 3.4083382580392687  5.551895544467712 3.425048070841899  5.363131317274305 3.632222222222222  Z " fill-rule="evenodd" />
    </mask>
  </defs>
  <g transform="matrix(1 0 0 1 -255 -550 )">
    <path d="M 0.6363636349826389 7  C 0.6363636349826389 3.4855050477430547  3.4855050477430556 0.6363636349826389  7 0.6363636349826389  C 10.514494952256946 0.6363636349826389  13.36363636501736 3.4855050477430556  13.36363636501736 7  C 13.36363636501736 10.514494952256946  10.514494952256946 13.36363636501736  7 13.36363636501736  C 3.4855050477430547 13.36363636501736  0.6363636349826389 10.514494952256946  0.6363636349826389 7  Z M 5.363131317274306 3.631868682725695  C 5.188483016615965 3.8237216905289766  5.188789519429717 4.117047747803596  5.363838381076389 4.308535349392361  L 5.400959602864583 4.344949492187499  L 8.373131317274307 7  L 5.400959602864583 9.6550505078125  C 5.206890671067705 9.827541717022779  5.176238875497704 10.119500032619836  5.330252523871527 10.32853534939236  L 5.363131317274306 10.36848484157986  C 5.539191920572916 10.562929286024307  5.833333333333332 10.58979796875  6.041212126736109 10.43848484157986  L 6.081515158420139 10.405959602864584  L 9.194040397135417 7.626111111111111  C 9.37263094034151 7.4672486907167155  9.474799999732857 7.239624384940463  9.474799999732857 7.000601685733434  C 9.474799999732857 6.782478580914036  9.389668138310107 6.572968399162914  9.237525253906249 6.416666666666666  L 9.194040397135417 6.374595952690973  L 6.081515158420137 3.5947474761284717  C 5.872219516135228 3.4083382580392687  5.551895544467712 3.425048070841899  5.363131317274305 3.632222222222222  Z " fill-rule="nonzero" fill="rgba(255, 255, 255, 1)" stroke="none" transform="matrix(1 0 0 1 255 550 )" class="fill" />
    <path d="M 0.6363636349826389 7  C 0.6363636349826389 3.4855050477430547  3.4855050477430556 0.6363636349826389  7 0.6363636349826389  C 10.514494952256946 0.6363636349826389  13.36363636501736 3.4855050477430556  13.36363636501736 7  C 13.36363636501736 10.514494952256946  10.514494952256946 13.36363636501736  7 13.36363636501736  C 3.4855050477430547 13.36363636501736  0.6363636349826389 10.514494952256946  0.6363636349826389 7  Z " stroke-width="0" stroke-dasharray="0" stroke="rgba(255, 255, 255, 0)" fill="none" transform="matrix(1 0 0 1 255 550 )" class="stroke" mask="url(#Clip7703)" />
    <path d="M 5.363131317274306 3.631868682725695  C 5.188483016615965 3.8237216905289766  5.188789519429717 4.117047747803596  5.363838381076389 4.308535349392361  L 5.400959602864583 4.344949492187499  L 8.373131317274307 7  L 5.400959602864583 9.6550505078125  C 5.206890671067705 9.827541717022779  5.176238875497704 10.119500032619836  5.330252523871527 10.32853534939236  L 5.363131317274306 10.36848484157986  C 5.539191920572916 10.562929286024307  5.833333333333332 10.58979796875  6.041212126736109 10.43848484157986  L 6.081515158420139 10.405959602864584  L 9.194040397135417 7.626111111111111  C 9.37263094034151 7.4672486907167155  9.474799999732857 7.239624384940463  9.474799999732857 7.000601685733434  C 9.474799999732857 6.782478580914036  9.389668138310107 6.572968399162914  9.237525253906249 6.416666666666666  L 9.194040397135417 6.374595952690973  L 6.081515158420137 3.5947474761284717  C 5.872219516135228 3.4083382580392687  5.551895544467712 3.425048070841899  5.363131317274305 3.632222222222222  Z " stroke-width="0" stroke-dasharray="0" stroke="rgba(255, 255, 255, 0)" fill="none" transform="matrix(1 0 0 1 255 550 )" class="stroke" mask="url(#Clip7703)" />
  </g>
</svg>