<?xml version="1.0" encoding="utf-8"?>
<svg version="1.1" xmlns:xlink="http://www.w3.org/1999/xlink" width="12px" height="10px" xmlns="http://www.w3.org/2000/svg">
  <defs>
    <pattern id="BGPattern" patternUnits="userSpaceOnUse" alignment="0 0" imageRepeat="None" />
    <mask fill="white" id="Clip12058">
      <path d="M 6.836504847656251 0.9282686328125  C 6.836504847656251 0.5518558437499999  6.5330745703125 0.37953267968750004  6.15868841015625 0.54105116796875  L 3.4575797578125007 2.2757950156249995  L 2.1100533867187505 2.2757950156249995  C 1.3612810546875005 2.2757950156249995  0.7544325000000005 2.875208609375  0.7544325000000005 3.6260195585937494  L 0.7544325000000005 6.331865  C 0.7544325000000005 7.07793916015625  1.3538580937500007 7.68208954296875  2.1100533867187505 7.68208954296875  L 3.4575797578125007 7.68208954296875  L 6.15868841015625 9.4154783046875  C 6.540509531250001 9.581050050781249  6.836504847656251 9.40399009765625  6.836504847656251 9.028248851562498  L 6.836504847656251 0.9282686328125  Z M 8.82942165234375 3.3259709960937505  C 8.686814343750001 3.03739865234375  8.540837308593751 2.8339805703125007  8.43474523828125 2.7211370703124995  C 8.3076913828125 2.5846216249999996  8.093468625000002 2.5771866640624994  7.957648710937502 2.7049120742187496  C 7.821133265625001 2.8326374726562493  7.8143698593750015 3.0461886875  7.941423714843751 3.1826921328125  C 8.004273105468751 3.250266312499999  8.111720250000001 3.3996250507812498  8.222549109375 3.6253360273437494  C 8.41176882421875 4.0105388632812495  8.52597938671875 4.4626323359375  8.52597938671875 4.9789422734375  C 8.52597938671875 5.4952522109375  8.41176882421875 5.94801723828125  8.222549109375 6.3325485312500005  C 8.111720250000001 6.5582475078125  8.004273105468751 6.70760624609375  7.941423714843751 6.7751924140625  C 7.813698316406251 6.9116958593749995  7.821133277343751 7.125247074218752  7.957648710937502 7.252972484375  C 8.09415215625 7.380697882812502  8.307703371093751 7.373262921875  8.435428781250002 7.236747488281251  C 8.541532839843752 7.123220457031252  8.687497875000002 6.920485917968751  8.82942165234375 6.6305704765625  C 9.062567578125002 6.15616012109375  9.2017811953125 5.603370921875  9.2017811953125 4.978270730468751  C 9.2017811953125 4.35317055078125  9.062567578125002 3.8003693515625  8.82942165234375 3.3259709960937505  Z M 11.22844311328125 4.978930285156249  C 11.229126644531249 3.963914468749998  10.958134382812501 3.0684935585937483  10.506700453125 2.3028246874999994  C 10.233681562500001 1.8405860820312494  9.9579645 1.5202592656249996  9.7646915390625 1.3479361015624995  C 9.62546593359375 1.2236043945312498  9.411926718750001 1.2357641562499997  9.2875710234375 1.3756493046874994  C 9.16323931640625 1.5155344648437499  9.175387089843749 1.7284021367187496  9.31528423828125 1.8527458437499997  C 9.3470387109375 1.8811186015624997  9.4105716328125 1.9446515351562499  9.49571390625 2.0433086328124994  C 9.641678941406251 2.2122500937499994  9.787643976562501 2.4136415468749997  9.924842953125001 2.6461159296874994  C 10.31746875 3.3124441601562493  10.55332484765625 4.091615878906249  10.55332484765625 4.978930285156249  C 10.55332484765625 5.86624469140625  10.31746876171875 6.6454164101562485  9.92417141015625 7.312428171874998  C 9.786984421875 7.544890566406249  9.640335855468749 7.74628201953125  9.49504236328125 7.91522348046875  C 9.409900089843749 8.01388058984375  9.346367167968749 8.077413511718749  9.3146006953125 8.10578628125  C 9.175387078125 8.2301299765625  9.16323931640625 8.443681191406249  9.28689948046875 8.582906785156249  C 9.4105716328125 8.722120402343748  9.624794390625 8.734268164062499  9.7640080078125 8.61060801171875  C 9.95729295703125 8.438284847656249  10.23301001953125 8.11862957421875  10.50602891015625 7.65571942578125  C 10.95746283984375 6.890062542968749  11.22844311328125 5.994641632812499  11.22844311328125 4.978930285156249  Z " fill-rule="evenodd" />
    </mask>
  </defs>
  <g transform="matrix(1 0 0 1 -14 -536 )">
    <path d="M 6.836504847656251 0.9282686328125  C 6.836504847656251 0.5518558437499999  6.5330745703125 0.37953267968750004  6.15868841015625 0.54105116796875  L 3.4575797578125007 2.2757950156249995  L 2.1100533867187505 2.2757950156249995  C 1.3612810546875005 2.2757950156249995  0.7544325000000005 2.875208609375  0.7544325000000005 3.6260195585937494  L 0.7544325000000005 6.331865  C 0.7544325000000005 7.07793916015625  1.3538580937500007 7.68208954296875  2.1100533867187505 7.68208954296875  L 3.4575797578125007 7.68208954296875  L 6.15868841015625 9.4154783046875  C 6.540509531250001 9.581050050781249  6.836504847656251 9.40399009765625  6.836504847656251 9.028248851562498  L 6.836504847656251 0.9282686328125  Z M 8.82942165234375 3.3259709960937505  C 8.686814343750001 3.03739865234375  8.540837308593751 2.8339805703125007  8.43474523828125 2.7211370703124995  C 8.3076913828125 2.5846216249999996  8.093468625000002 2.5771866640624994  7.957648710937502 2.7049120742187496  C 7.821133265625001 2.8326374726562493  7.8143698593750015 3.0461886875  7.941423714843751 3.1826921328125  C 8.004273105468751 3.250266312499999  8.111720250000001 3.3996250507812498  8.222549109375 3.6253360273437494  C 8.41176882421875 4.0105388632812495  8.52597938671875 4.4626323359375  8.52597938671875 4.9789422734375  C 8.52597938671875 5.4952522109375  8.41176882421875 5.94801723828125  8.222549109375 6.3325485312500005  C 8.111720250000001 6.5582475078125  8.004273105468751 6.70760624609375  7.941423714843751 6.7751924140625  C 7.813698316406251 6.9116958593749995  7.821133277343751 7.125247074218752  7.957648710937502 7.252972484375  C 8.09415215625 7.380697882812502  8.307703371093751 7.373262921875  8.435428781250002 7.236747488281251  C 8.541532839843752 7.123220457031252  8.687497875000002 6.920485917968751  8.82942165234375 6.6305704765625  C 9.062567578125002 6.15616012109375  9.2017811953125 5.603370921875  9.2017811953125 4.978270730468751  C 9.2017811953125 4.35317055078125  9.062567578125002 3.8003693515625  8.82942165234375 3.3259709960937505  Z M 11.22844311328125 4.978930285156249  C 11.229126644531249 3.963914468749998  10.958134382812501 3.0684935585937483  10.506700453125 2.3028246874999994  C 10.233681562500001 1.8405860820312494  9.9579645 1.5202592656249996  9.7646915390625 1.3479361015624995  C 9.62546593359375 1.2236043945312498  9.411926718750001 1.2357641562499997  9.2875710234375 1.3756493046874994  C 9.16323931640625 1.5155344648437499  9.175387089843749 1.7284021367187496  9.31528423828125 1.8527458437499997  C 9.3470387109375 1.8811186015624997  9.4105716328125 1.9446515351562499  9.49571390625 2.0433086328124994  C 9.641678941406251 2.2122500937499994  9.787643976562501 2.4136415468749997  9.924842953125001 2.6461159296874994  C 10.31746875 3.3124441601562493  10.55332484765625 4.091615878906249  10.55332484765625 4.978930285156249  C 10.55332484765625 5.86624469140625  10.31746876171875 6.6454164101562485  9.92417141015625 7.312428171874998  C 9.786984421875 7.544890566406249  9.640335855468749 7.74628201953125  9.49504236328125 7.91522348046875  C 9.409900089843749 8.01388058984375  9.346367167968749 8.077413511718749  9.3146006953125 8.10578628125  C 9.175387078125 8.2301299765625  9.16323931640625 8.443681191406249  9.28689948046875 8.582906785156249  C 9.4105716328125 8.722120402343748  9.624794390625 8.734268164062499  9.7640080078125 8.61060801171875  C 9.95729295703125 8.438284847656249  10.23301001953125 8.11862957421875  10.50602891015625 7.65571942578125  C 10.95746283984375 6.890062542968749  11.22844311328125 5.994641632812499  11.22844311328125 4.978930285156249  Z " fill-rule="nonzero" fill="rgba(255, 255, 255, 1)" stroke="none" transform="matrix(1 0 0 1 14 536 )" class="fill" />
    <path d="M 6.836504847656251 0.9282686328125  C 6.836504847656251 0.5518558437499999  6.5330745703125 0.37953267968750004  6.15868841015625 0.54105116796875  L 3.4575797578125007 2.2757950156249995  L 2.1100533867187505 2.2757950156249995  C 1.3612810546875005 2.2757950156249995  0.7544325000000005 2.875208609375  0.7544325000000005 3.6260195585937494  L 0.7544325000000005 6.331865  C 0.7544325000000005 7.07793916015625  1.3538580937500007 7.68208954296875  2.1100533867187505 7.68208954296875  L 3.4575797578125007 7.68208954296875  L 6.15868841015625 9.4154783046875  C 6.540509531250001 9.581050050781249  6.836504847656251 9.40399009765625  6.836504847656251 9.028248851562498  L 6.836504847656251 0.9282686328125  Z " stroke-width="0" stroke-dasharray="0" stroke="rgba(255, 255, 255, 0)" fill="none" transform="matrix(1 0 0 1 14 536 )" class="stroke" mask="url(#Clip12058)" />
    <path d="M 8.82942165234375 3.3259709960937505  C 8.686814343750001 3.03739865234375  8.540837308593751 2.8339805703125007  8.43474523828125 2.7211370703124995  C 8.3076913828125 2.5846216249999996  8.093468625000002 2.5771866640624994  7.957648710937502 2.7049120742187496  C 7.821133265625001 2.8326374726562493  7.8143698593750015 3.0461886875  7.941423714843751 3.1826921328125  C 8.004273105468751 3.250266312499999  8.111720250000001 3.3996250507812498  8.222549109375 3.6253360273437494  C 8.41176882421875 4.0105388632812495  8.52597938671875 4.4626323359375  8.52597938671875 4.9789422734375  C 8.52597938671875 5.4952522109375  8.41176882421875 5.94801723828125  8.222549109375 6.3325485312500005  C 8.111720250000001 6.5582475078125  8.004273105468751 6.70760624609375  7.941423714843751 6.7751924140625  C 7.813698316406251 6.9116958593749995  7.821133277343751 7.125247074218752  7.957648710937502 7.252972484375  C 8.09415215625 7.380697882812502  8.307703371093751 7.373262921875  8.435428781250002 7.236747488281251  C 8.541532839843752 7.123220457031252  8.687497875000002 6.920485917968751  8.82942165234375 6.6305704765625  C 9.062567578125002 6.15616012109375  9.2017811953125 5.603370921875  9.2017811953125 4.978270730468751  C 9.2017811953125 4.35317055078125  9.062567578125002 3.8003693515625  8.82942165234375 3.3259709960937505  Z " stroke-width="0" stroke-dasharray="0" stroke="rgba(255, 255, 255, 0)" fill="none" transform="matrix(1 0 0 1 14 536 )" class="stroke" mask="url(#Clip12058)" />
    <path d="M 11.22844311328125 4.978930285156249  C 11.229126644531249 3.963914468749998  10.958134382812501 3.0684935585937483  10.506700453125 2.3028246874999994  C 10.233681562500001 1.8405860820312494  9.9579645 1.5202592656249996  9.7646915390625 1.3479361015624995  C 9.62546593359375 1.2236043945312498  9.411926718750001 1.2357641562499997  9.2875710234375 1.3756493046874994  C 9.16323931640625 1.5155344648437499  9.175387089843749 1.7284021367187496  9.31528423828125 1.8527458437499997  C 9.3470387109375 1.8811186015624997  9.4105716328125 1.9446515351562499  9.49571390625 2.0433086328124994  C 9.641678941406251 2.2122500937499994  9.787643976562501 2.4136415468749997  9.924842953125001 2.6461159296874994  C 10.31746875 3.3124441601562493  10.55332484765625 4.091615878906249  10.55332484765625 4.978930285156249  C 10.55332484765625 5.86624469140625  10.31746876171875 6.6454164101562485  9.92417141015625 7.312428171874998  C 9.786984421875 7.544890566406249  9.640335855468749 7.74628201953125  9.49504236328125 7.91522348046875  C 9.409900089843749 8.01388058984375  9.346367167968749 8.077413511718749  9.3146006953125 8.10578628125  C 9.175387078125 8.2301299765625  9.16323931640625 8.443681191406249  9.28689948046875 8.582906785156249  C 9.4105716328125 8.722120402343748  9.624794390625 8.734268164062499  9.7640080078125 8.61060801171875  C 9.95729295703125 8.438284847656249  10.23301001953125 8.11862957421875  10.50602891015625 7.65571942578125  C 10.95746283984375 6.890062542968749  11.22844311328125 5.994641632812499  11.22844311328125 4.978930285156249  Z " stroke-width="0" stroke-dasharray="0" stroke="rgba(255, 255, 255, 0)" fill="none" transform="matrix(1 0 0 1 14 536 )" class="stroke" mask="url(#Clip12058)" />
  </g>
</svg>