<?xml version="1.0" encoding="utf-8"?>
<svg version="1.1" xmlns:xlink="http://www.w3.org/1999/xlink" width="18px" height="18px" xmlns="http://www.w3.org/2000/svg">
  <defs>
    <pattern id="BGPattern" patternUnits="userSpaceOnUse" alignment="0 0" imageRepeat="None" />
    <mask fill="white" id="Clip13149">
      <path d="M 0 9  C 0 13.97056274847714  4.029437251522859 18  9 18  C 13.97056274847714 18  18 13.97056274847714  18 9  C 18 4.029437251522859  13.97056274847714 0  9 0  C 4.029437251522859 0  0 4.029437251522859  0 9  Z " fill-rule="evenodd" />
    </mask>
  </defs>
  <g transform="matrix(1 0 0 1 -740 -219 )">
    <path d="M 0 9  C 0 13.97056274847714  4.029437251522859 18  9 18  C 13.97056274847714 18  18 13.97056274847714  18 9  C 18 4.029437251522859  13.97056274847714 0  9 0  C 4.029437251522859 0  0 4.029437251522859  0 9  Z " fill-rule="nonzero" fill="rgba(251, 217, 113, 1)" stroke="none" transform="matrix(1 0 0 1 740 219 )" class="fill" />
    <path d="M 0 9  C 0 13.97056274847714  4.029437251522859 18  9 18  C 13.97056274847714 18  18 13.97056274847714  18 9  C 18 4.029437251522859  13.97056274847714 0  9 0  C 4.029437251522859 0  0 4.029437251522859  0 9  Z " stroke-width="0" stroke-dasharray="0" stroke="rgba(255, 255, 255, 0)" fill="none" transform="matrix(1 0 0 1 740 219 )" class="stroke" mask="url(#Clip13149)" />
  </g>
</svg>