<?xml version="1.0" encoding="utf-8"?>
<svg version="1.1" xmlns:xlink="http://www.w3.org/1999/xlink" width="12px" height="7px" xmlns="http://www.w3.org/2000/svg">
  <defs>
    <pattern id="BGPattern" patternUnits="userSpaceOnUse" alignment="0 0" imageRepeat="None" />
    <mask fill="white" id="Clip3295">
      <path d="M 11.142857150390624 1.2857142832031254  C 11.142857150390624 4.121571427734375  8.83585714453125 6.428571433593753  6 6.428571433593751  C 3.16414285546875 6.428571433593751  0.8571428496093745 4.121571427734375  0.8571428496093745 1.2857142832031254  C 0.8571428496093754 1.0490208178342009  1.0490208149045106 0.8571428525390647  1.2857142802734378 0.8571428525390647  C 1.5224077456423641 0.8571428525390647  1.7142857109374994 1.0490208178342009  1.7142857109374994 1.2857142832031254  C 1.7142857109374994 3.6488571328125  3.6368571328124997 5.571428572265626  6 5.571428572265626  C 8.363142867187502 5.571428572265626  10.2857142890625 3.6488571503906275  10.2857142890625 1.2857142832031254  C 10.285714289062499 1.0490208178341973  10.477592254357633 0.8571428525390647  10.714285719726561 0.8571428525390647  C 10.950979185095484 0.8571428525390647  11.142857150390622 1.0490208178342009  11.142857150390622 1.2857142832031254  Z " fill-rule="evenodd" />
    </mask>
  </defs>
  <g transform="matrix(1 0 0 1 -743 -228 )">
    <path d="M 11.142857150390624 1.2857142832031254  C 11.142857150390624 4.121571427734375  8.83585714453125 6.428571433593753  6 6.428571433593751  C 3.16414285546875 6.428571433593751  0.8571428496093745 4.121571427734375  0.8571428496093745 1.2857142832031254  C 0.8571428496093754 1.0490208178342009  1.0490208149045106 0.8571428525390647  1.2857142802734378 0.8571428525390647  C 1.5224077456423641 0.8571428525390647  1.7142857109374994 1.0490208178342009  1.7142857109374994 1.2857142832031254  C 1.7142857109374994 3.6488571328125  3.6368571328124997 5.571428572265626  6 5.571428572265626  C 8.363142867187502 5.571428572265626  10.2857142890625 3.6488571503906275  10.2857142890625 1.2857142832031254  C 10.285714289062499 1.0490208178341973  10.477592254357633 0.8571428525390647  10.714285719726561 0.8571428525390647  C 10.950979185095484 0.8571428525390647  11.142857150390622 1.0490208178342009  11.142857150390622 1.2857142832031254  Z " fill-rule="nonzero" fill="rgba(240, 196, 25, 1)" stroke="none" transform="matrix(1 0 0 1 743 228 )" class="fill" />
    <path d="M 11.142857150390624 1.2857142832031254  C 11.142857150390624 4.121571427734375  8.83585714453125 6.428571433593753  6 6.428571433593751  C 3.16414285546875 6.428571433593751  0.8571428496093745 4.121571427734375  0.8571428496093745 1.2857142832031254  C 0.8571428496093754 1.0490208178342009  1.0490208149045106 0.8571428525390647  1.2857142802734378 0.8571428525390647  C 1.5224077456423641 0.8571428525390647  1.7142857109374994 1.0490208178342009  1.7142857109374994 1.2857142832031254  C 1.7142857109374994 3.6488571328125  3.6368571328124997 5.571428572265626  6 5.571428572265626  C 8.363142867187502 5.571428572265626  10.2857142890625 3.6488571503906275  10.2857142890625 1.2857142832031254  C 10.285714289062499 1.0490208178341973  10.477592254357633 0.8571428525390647  10.714285719726561 0.8571428525390647  C 10.950979185095484 0.8571428525390647  11.142857150390622 1.0490208178342009  11.142857150390622 1.2857142832031254  Z " stroke-width="0" stroke-dasharray="0" stroke="rgba(255, 255, 255, 0)" fill="none" transform="matrix(1 0 0 1 743 228 )" class="stroke" mask="url(#Clip3295)" />
  </g>
</svg>