<?xml version="1.0" encoding="utf-8"?>
<svg version="1.1" xmlns:xlink="http://www.w3.org/1999/xlink" width="12px" height="4px" xmlns="http://www.w3.org/2000/svg">
  <defs>
    <pattern id="BGPattern" patternUnits="userSpaceOnUse" alignment="0 0" imageRepeat="None" />
    <mask fill="white" id="Clip3837">
      <path d="M 4.28571427734375 2.857142855468749  C 4.28571427734375 3.0938363159836113  4.093836315983612 3.2857142773437493  3.857142855468749 3.2857142773437493  C 3.6204493949538863 3.2857142773437493  3.42857143359375 3.0938363159836113  3.42857143359375 2.8571428554687497  C 3.42857143359375 2.1482857167968747  2.8517142890625005 1.5714285722656252  2.1428571503906255 1.5714285722656252  C 1.4340000117187506 1.5714285722656252  0.8571428671875005 2.1482857167968747  0.8571428496093754 2.857142855468749  C 0.8571428496093754 3.0938363159836113  0.6652648882492369 3.2857142773437493  0.4285714277343753 3.2857142773437493  C 0.19187796721951322 3.2857142773437493  0 3.0938363159836113  0 2.8571428554687497  C 0 1.6755714218749995  0.9612857167968754 0.7142857109374994  2.1428571503906255 0.7142857109374994  C 3.324428583984375 0.7142857109374994  4.285714294921876 1.6755714218749995  4.28571427734375 2.857142855468749  Z M 11.999999994140623 2.857142855468749  C 11.999999994140623 3.0938363159836113  11.808122032780487 3.2857142773437493  11.571428572265622 3.2857142773437493  C 11.33473511175076 3.2857142773437493  11.142857150390622 3.0938363159836113  11.142857150390624 2.8571428554687497  C 11.142857150390624 2.1482857167968747  10.566000005859374 1.5714285722656252  9.857142849609374 1.5714285722656252  C 9.148285693359373 1.5714285722656252  8.571428566406247 2.1482857167968747  8.571428566406247 2.857142855468749  C 8.571428566406247 3.0938363159836113  8.37955060504611 3.2857142773437493  8.142857144531249 3.2857142773437493  C 7.906163684016386 3.2857142773437493  7.714285722656248 3.0938363159836113  7.714285722656248 2.8571428554687497  C 7.714285722656248 1.6755714218749995  8.675571433593747 0.7142857109374994  9.857142849609374 0.7142857109374994  C 11.038714265625 0.7142857109374994  11.999999994140623 1.6755714218749995  11.999999994140623 2.857142855468749  Z " fill-rule="evenodd" />
    </mask>
  </defs>
  <g transform="matrix(1 0 0 1 -743 -223 )">
    <path d="M 4.28571427734375 2.857142855468749  C 4.28571427734375 3.0938363159836113  4.093836315983612 3.2857142773437493  3.857142855468749 3.2857142773437493  C 3.6204493949538863 3.2857142773437493  3.42857143359375 3.0938363159836113  3.42857143359375 2.8571428554687497  C 3.42857143359375 2.1482857167968747  2.8517142890625005 1.5714285722656252  2.1428571503906255 1.5714285722656252  C 1.4340000117187506 1.5714285722656252  0.8571428671875005 2.1482857167968747  0.8571428496093754 2.857142855468749  C 0.8571428496093754 3.0938363159836113  0.6652648882492369 3.2857142773437493  0.4285714277343753 3.2857142773437493  C 0.19187796721951322 3.2857142773437493  0 3.0938363159836113  0 2.8571428554687497  C 0 1.6755714218749995  0.9612857167968754 0.7142857109374994  2.1428571503906255 0.7142857109374994  C 3.324428583984375 0.7142857109374994  4.285714294921876 1.6755714218749995  4.28571427734375 2.857142855468749  Z M 11.999999994140623 2.857142855468749  C 11.999999994140623 3.0938363159836113  11.808122032780487 3.2857142773437493  11.571428572265622 3.2857142773437493  C 11.33473511175076 3.2857142773437493  11.142857150390622 3.0938363159836113  11.142857150390624 2.8571428554687497  C 11.142857150390624 2.1482857167968747  10.566000005859374 1.5714285722656252  9.857142849609374 1.5714285722656252  C 9.148285693359373 1.5714285722656252  8.571428566406247 2.1482857167968747  8.571428566406247 2.857142855468749  C 8.571428566406247 3.0938363159836113  8.37955060504611 3.2857142773437493  8.142857144531249 3.2857142773437493  C 7.906163684016386 3.2857142773437493  7.714285722656248 3.0938363159836113  7.714285722656248 2.8571428554687497  C 7.714285722656248 1.6755714218749995  8.675571433593747 0.7142857109374994  9.857142849609374 0.7142857109374994  C 11.038714265625 0.7142857109374994  11.999999994140623 1.6755714218749995  11.999999994140623 2.857142855468749  Z " fill-rule="nonzero" fill="rgba(242, 156, 31, 1)" stroke="none" transform="matrix(1 0 0 1 743 223 )" class="fill" />
    <path d="M 4.28571427734375 2.857142855468749  C 4.28571427734375 3.0938363159836113  4.093836315983612 3.2857142773437493  3.857142855468749 3.2857142773437493  C 3.6204493949538863 3.2857142773437493  3.42857143359375 3.0938363159836113  3.42857143359375 2.8571428554687497  C 3.42857143359375 2.1482857167968747  2.8517142890625005 1.5714285722656252  2.1428571503906255 1.5714285722656252  C 1.4340000117187506 1.5714285722656252  0.8571428671875005 2.1482857167968747  0.8571428496093754 2.857142855468749  C 0.8571428496093754 3.0938363159836113  0.6652648882492369 3.2857142773437493  0.4285714277343753 3.2857142773437493  C 0.19187796721951322 3.2857142773437493  0 3.0938363159836113  0 2.8571428554687497  C 0 1.6755714218749995  0.9612857167968754 0.7142857109374994  2.1428571503906255 0.7142857109374994  C 3.324428583984375 0.7142857109374994  4.285714294921876 1.6755714218749995  4.28571427734375 2.857142855468749  Z " stroke-width="0" stroke-dasharray="0" stroke="rgba(255, 255, 255, 0)" fill="none" transform="matrix(1 0 0 1 743 223 )" class="stroke" mask="url(#Clip3837)" />
    <path d="M 11.999999994140623 2.857142855468749  C 11.999999994140623 3.0938363159836113  11.808122032780487 3.2857142773437493  11.571428572265622 3.2857142773437493  C 11.33473511175076 3.2857142773437493  11.142857150390622 3.0938363159836113  11.142857150390624 2.8571428554687497  C 11.142857150390624 2.1482857167968747  10.566000005859374 1.5714285722656252  9.857142849609374 1.5714285722656252  C 9.148285693359373 1.5714285722656252  8.571428566406247 2.1482857167968747  8.571428566406247 2.857142855468749  C 8.571428566406247 3.0938363159836113  8.37955060504611 3.2857142773437493  8.142857144531249 3.2857142773437493  C 7.906163684016386 3.2857142773437493  7.714285722656248 3.0938363159836113  7.714285722656248 2.8571428554687497  C 7.714285722656248 1.6755714218749995  8.675571433593747 0.7142857109374994  9.857142849609374 0.7142857109374994  C 11.038714265625 0.7142857109374994  11.999999994140623 1.6755714218749995  11.999999994140623 2.857142855468749  Z " stroke-width="0" stroke-dasharray="0" stroke="rgba(255, 255, 255, 0)" fill="none" transform="matrix(1 0 0 1 743 223 )" class="stroke" mask="url(#Clip3837)" />
  </g>
</svg>