<?xml version="1.0" encoding="utf-8"?>
<svg version="1.1" xmlns:xlink="http://www.w3.org/1999/xlink" width="16px" height="16px" xmlns="http://www.w3.org/2000/svg">
  <defs>
    <pattern id="BGPattern" patternUnits="userSpaceOnUse" alignment="0 0" imageRepeat="None" />
    <mask fill="white" id="Clip3919">
      <path d="M 3.138671875 4.543402777777778  C 3.138671875 2.1562499999999996  5.314453125 0.2222222222222222  8 0.2222222222222222  L 12.861328125 0.2222222222222222  L 12.861328125 4.543402777777778  C 12.861328125 6.930555555555555  10.685546875 8.864583333333334  8 8.864583333333334  C 5.314453125 8.864583333333334  3.138671875 6.930555555555555  3.138671875 4.543402777777778  Z M 0.22265625 12.753472222222223  C 0.22070312500000044 11.083333333333334  1.7441406250000004 9.72916666666667  3.625 9.729166666666666  L 12.375 9.729166666666666  C 14.25390625 9.729166666666666  15.77734375 11.083333333333334  15.77734375 12.753472222222221  L 15.77734375 13.185763888888888  C 15.77734375 14.618055555555555  14.470703125 15.777777777777779  12.861328125000002 15.777777777777779  L 3.138671875 15.777777777777779  C 1.5273437500000004 15.777777777777779  0.22265625 14.616319444444445  0.22265625 13.18576388888889  L 0.22265625 12.753472222222223  Z " fill-rule="evenodd" />
    </mask>
  </defs>
  <g transform="matrix(1 0 0 1 -309 -596 )">
    <path d="M 3.138671875 4.543402777777778  C 3.138671875 2.1562499999999996  5.314453125 0.2222222222222222  8 0.2222222222222222  L 12.861328125 0.2222222222222222  L 12.861328125 4.543402777777778  C 12.861328125 6.930555555555555  10.685546875 8.864583333333334  8 8.864583333333334  C 5.314453125 8.864583333333334  3.138671875 6.930555555555555  3.138671875 4.543402777777778  Z M 0.22265625 12.753472222222223  C 0.22070312500000044 11.083333333333334  1.7441406250000004 9.72916666666667  3.625 9.729166666666666  L 12.375 9.729166666666666  C 14.25390625 9.729166666666666  15.77734375 11.083333333333334  15.77734375 12.753472222222221  L 15.77734375 13.185763888888888  C 15.77734375 14.618055555555555  14.470703125 15.777777777777779  12.861328125000002 15.777777777777779  L 3.138671875 15.777777777777779  C 1.5273437500000004 15.777777777777779  0.22265625 14.616319444444445  0.22265625 13.18576388888889  L 0.22265625 12.753472222222223  Z " fill-rule="nonzero" fill="rgba(153, 153, 153, 1)" stroke="none" transform="matrix(1 0 0 1 309 596 )" class="fill" />
    <path d="M 3.138671875 4.543402777777778  C 3.138671875 2.1562499999999996  5.314453125 0.2222222222222222  8 0.2222222222222222  L 12.861328125 0.2222222222222222  L 12.861328125 4.543402777777778  C 12.861328125 6.930555555555555  10.685546875 8.864583333333334  8 8.864583333333334  C 5.314453125 8.864583333333334  3.138671875 6.930555555555555  3.138671875 4.543402777777778  Z " stroke-width="0" stroke-dasharray="0" stroke="rgba(255, 255, 255, 0)" fill="none" transform="matrix(1 0 0 1 309 596 )" class="stroke" mask="url(#Clip3919)" />
    <path d="M 0.22265625 12.753472222222223  C 0.22070312500000044 11.083333333333334  1.7441406250000004 9.72916666666667  3.625 9.729166666666666  L 12.375 9.729166666666666  C 14.25390625 9.729166666666666  15.77734375 11.083333333333334  15.77734375 12.753472222222221  L 15.77734375 13.185763888888888  C 15.77734375 14.618055555555555  14.470703125 15.777777777777779  12.861328125000002 15.777777777777779  L 3.138671875 15.777777777777779  C 1.5273437500000004 15.777777777777779  0.22265625 14.616319444444445  0.22265625 13.18576388888889  L 0.22265625 12.753472222222223  Z " stroke-width="0" stroke-dasharray="0" stroke="rgba(255, 255, 255, 0)" fill="none" transform="matrix(1 0 0 1 309 596 )" class="stroke" mask="url(#Clip3919)" />
  </g>
</svg>