<?xml version="1.0" encoding="utf-8"?>
<svg version="1.1" xmlns:xlink="http://www.w3.org/1999/xlink" width="6px" height="6px" xmlns="http://www.w3.org/2000/svg">
  <defs>
    <pattern id="BGPattern" patternUnits="userSpaceOnUse" alignment="0 0" imageRepeat="None" />
    <mask fill="white" id="Clip2454">
      <path d="M 5.996625 5.995312500000001  L 0.521109375 4.204968749999999  C 0.57640265069165 4.050226143988159  0.7061664722376211 3.9339183968971447  0.8660156250000001 3.8958281250000004  L 3.9220781249999996 3.1673437499999997  C 3.9328969926688218 3.1647135245359923  3.9422438773477735 3.1579265073727174  3.948093750000001 3.1484531249999996  L 5.585296875000001 0.4670624999999994  C 5.672913572737358 0.32355839090187216  5.828491900863116 0.23554804095130066  5.996625 0.234375  L 5.996625 5.995312500000001  Z " fill-rule="evenodd" />
    </mask>
  </defs>
  <g transform="matrix(1 0 0 1 875 -308 )">
    <path d="M 5.996625 5.995312500000001  L 0.521109375 4.204968749999999  C 0.57640265069165 4.050226143988159  0.7061664722376211 3.9339183968971447  0.8660156250000001 3.8958281250000004  L 3.9220781249999996 3.1673437499999997  C 3.9328969926688218 3.1647135245359923  3.9422438773477735 3.1579265073727174  3.948093750000001 3.1484531249999996  L 5.585296875000001 0.4670624999999994  C 5.672913572737358 0.32355839090187216  5.828491900863116 0.23554804095130066  5.996625 0.234375  L 5.996625 5.995312500000001  Z " fill-rule="nonzero" fill="rgba(255, 249, 235, 1)" stroke="none" transform="matrix(1 0 0 1 -875 308 )" class="fill" />
    <path d="M 5.996625 5.995312500000001  L 0.521109375 4.204968749999999  C 0.57640265069165 4.050226143988159  0.7061664722376211 3.9339183968971447  0.8660156250000001 3.8958281250000004  L 3.9220781249999996 3.1673437499999997  C 3.9328969926688218 3.1647135245359923  3.9422438773477735 3.1579265073727174  3.948093750000001 3.1484531249999996  L 5.585296875000001 0.4670624999999994  C 5.672913572737358 0.32355839090187216  5.828491900863116 0.23554804095130066  5.996625 0.234375  L 5.996625 5.995312500000001  Z " stroke-width="0" stroke-dasharray="0" stroke="rgba(255, 255, 255, 0)" fill="none" transform="matrix(1 0 0 1 -875 308 )" class="stroke" mask="url(#Clip2454)" />
  </g>
</svg>