<?xml version="1.0" encoding="utf-8"?>
<svg version="1.1" xmlns:xlink="http://www.w3.org/1999/xlink" width="7px" height="7px" xmlns="http://www.w3.org/2000/svg">
  <defs>
    <pattern id="BGPattern" patternUnits="userSpaceOnUse" alignment="0 0" imageRepeat="None" />
    <mask fill="white" id="Clip7315">
      <path d="M 4.587671875 6.232484375  C 4.601441704246286 6.404083864777551  4.523395466900034 6.57016169311728  4.3825 6.669078125  L 0.9945156249999999 2.0017812500000005  L 6.481375 0.21214062499999997  L 6.483437500000001 0.2183281250000011  C 6.535747941501716 0.37936242906535256  6.500460056023147 0.5560149690026002  6.390296875000001 0.6845937500000012  L 4.346078124999998 3.0702968750000013  C 4.33879381428363 3.0787353832257  4.335212220156331 3.089750474598339  4.336140624999999 3.1008593750000006  L 4.587671875 6.232484375  Z " fill-rule="evenodd" />
    </mask>
  </defs>
  <g transform="matrix(1 0 0 1 870 -312 )">
    <path d="M 4.587671875 6.232484375  C 4.601441704246286 6.404083864777551  4.523395466900034 6.57016169311728  4.3825 6.669078125  L 0.9945156249999999 2.0017812500000005  L 6.481375 0.21214062499999997  L 6.483437500000001 0.2183281250000011  C 6.535747941501716 0.37936242906535256  6.500460056023147 0.5560149690026002  6.390296875000001 0.6845937500000012  L 4.346078124999998 3.0702968750000013  C 4.33879381428363 3.0787353832257  4.335212220156331 3.089750474598339  4.336140624999999 3.1008593750000006  L 4.587671875 6.232484375  Z " fill-rule="nonzero" fill="rgba(255, 185, 85, 1)" stroke="none" transform="matrix(1 0 0 1 -870 312 )" class="fill" />
    <path d="M 4.587671875 6.232484375  C 4.601441704246286 6.404083864777551  4.523395466900034 6.57016169311728  4.3825 6.669078125  L 0.9945156249999999 2.0017812500000005  L 6.481375 0.21214062499999997  L 6.483437500000001 0.2183281250000011  C 6.535747941501716 0.37936242906535256  6.500460056023147 0.5560149690026002  6.390296875000001 0.6845937500000012  L 4.346078124999998 3.0702968750000013  C 4.33879381428363 3.0787353832257  4.335212220156331 3.089750474598339  4.336140624999999 3.1008593750000006  L 4.587671875 6.232484375  Z " stroke-width="0" stroke-dasharray="0" stroke="rgba(255, 255, 255, 0)" fill="none" transform="matrix(1 0 0 1 -870 312 )" class="stroke" mask="url(#Clip7315)" />
  </g>
</svg>