<?xml version="1.0" encoding="utf-8"?>
<svg version="1.1" xmlns:xlink="http://www.w3.org/1999/xlink" width="12px" height="11px" xmlns="http://www.w3.org/2000/svg">
  <defs>
    <pattern id="BGPattern" patternUnits="userSpaceOnUse" alignment="0 0" imageRepeat="None" />
    <mask fill="white" id="Clip5288">
      <path d="M 3.948093750000001 3.1484531249999996  L 5.585296875000001 0.46706250000000005  C 5.673562687655483 0.3225658215081078  5.830677397318251 0.23443082654427783  6.000000000000002 0.23443082654427783  C 6.169322602681751 0.23443082654427783  6.3264373123445194 0.32256582150810825  6.414703125000001 0.46706250000000005  L 8.05190625 3.1484531249999996  C 8.057756122652226 3.157926507372718  8.067103007331179 3.164713524535993  8.077921875000001 3.167343750000001  L 11.133984375 3.8958281249999995  C 11.35280501087902 3.947972266266941  11.507218831958575 4.143505995420331  11.507218831958575 4.368453727471504  C 11.507218831958575 4.484409793799368  11.465747417497418 4.596542486777503  11.390296875 4.68459375  L 9.346078124999998 7.070296875000001  C 9.33879381428363 7.078735383225698  9.335212220156329 7.08975047459834  9.336140624999999 7.100859374999999  L 9.587671875 10.232484375  C 9.588705044137239 10.245387487402015  9.589222247483107 10.258326728949617  9.589222247483107 10.271271138867615  C 9.589222247483107 10.539655638937731  9.371653622553223 10.757224263867615  9.103269122483107 10.757224263867615  C 9.039234280027403 10.757224263867615  8.975830806056742 10.744568483305555  8.916703125 10.719984375000001  L 6.016078125 9.513046875  C 6.005782760618036 9.50878628133558  5.994217239381962 9.50878628133558  5.983921874999999 9.513046875  L 3.0832968750000003 10.719984375000001  C 3.024154932697373 10.744585367946984  2.9607325152882127 10.757250137245588  2.8966780213529333 10.757250137245588  C 2.6283194096304645 10.757250137245588  2.4107717713529335 10.539702498968056  2.4107717713529335 10.271343887245589  C 2.4107717713529335 10.258375137367565  2.4112909716505726 10.245411586080838  2.4123281249999993 10.232484375  L 2.663859374999999 7.100859374999999  C 2.664771755113659 7.089752339419575  2.661192128668022 7.078743299596197  2.653921874999999 7.070296875000001  L 0.6097031249999992 4.684593750000001  C 0.534276397321933 4.596542127705931  0.4928198345826229 4.484422369090686  0.4928198345826229 4.368481524532615  C 0.4928198345826229 4.143540764301889  0.6472100117433209 3.9480052197882864  0.8660156249999993 3.895828125000001  L 3.9220781249999996 3.1673437499999997  C 3.9328969926688218 3.1647135245359923  3.9422438773477735 3.157926507372718  3.948093750000001 3.1484531249999996  Z " fill-rule="evenodd" />
    </mask>
  </defs>
  <g transform="matrix(1 0 0 1 875 -308 )">
    <path d="M 3.948093750000001 3.1484531249999996  L 5.585296875000001 0.46706250000000005  C 5.673562687655483 0.3225658215081078  5.830677397318251 0.23443082654427783  6.000000000000002 0.23443082654427783  C 6.169322602681751 0.23443082654427783  6.3264373123445194 0.32256582150810825  6.414703125000001 0.46706250000000005  L 8.05190625 3.1484531249999996  C 8.057756122652226 3.157926507372718  8.067103007331179 3.164713524535993  8.077921875000001 3.167343750000001  L 11.133984375 3.8958281249999995  C 11.35280501087902 3.947972266266941  11.507218831958575 4.143505995420331  11.507218831958575 4.368453727471504  C 11.507218831958575 4.484409793799368  11.465747417497418 4.596542486777503  11.390296875 4.68459375  L 9.346078124999998 7.070296875000001  C 9.33879381428363 7.078735383225698  9.335212220156329 7.08975047459834  9.336140624999999 7.100859374999999  L 9.587671875 10.232484375  C 9.588705044137239 10.245387487402015  9.589222247483107 10.258326728949617  9.589222247483107 10.271271138867615  C 9.589222247483107 10.539655638937731  9.371653622553223 10.757224263867615  9.103269122483107 10.757224263867615  C 9.039234280027403 10.757224263867615  8.975830806056742 10.744568483305555  8.916703125 10.719984375000001  L 6.016078125 9.513046875  C 6.005782760618036 9.50878628133558  5.994217239381962 9.50878628133558  5.983921874999999 9.513046875  L 3.0832968750000003 10.719984375000001  C 3.024154932697373 10.744585367946984  2.9607325152882127 10.757250137245588  2.8966780213529333 10.757250137245588  C 2.6283194096304645 10.757250137245588  2.4107717713529335 10.539702498968056  2.4107717713529335 10.271343887245589  C 2.4107717713529335 10.258375137367565  2.4112909716505726 10.245411586080838  2.4123281249999993 10.232484375  L 2.663859374999999 7.100859374999999  C 2.664771755113659 7.089752339419575  2.661192128668022 7.078743299596197  2.653921874999999 7.070296875000001  L 0.6097031249999992 4.684593750000001  C 0.534276397321933 4.596542127705931  0.4928198345826229 4.484422369090686  0.4928198345826229 4.368481524532615  C 0.4928198345826229 4.143540764301889  0.6472100117433209 3.9480052197882864  0.8660156249999993 3.895828125000001  L 3.9220781249999996 3.1673437499999997  C 3.9328969926688218 3.1647135245359923  3.9422438773477735 3.157926507372718  3.948093750000001 3.1484531249999996  Z " fill-rule="nonzero" fill="rgba(255, 214, 119, 1)" stroke="none" transform="matrix(1 0 0 1 -875 308 )" class="fill" />
    <path d="M 3.948093750000001 3.1484531249999996  L 5.585296875000001 0.46706250000000005  C 5.673562687655483 0.3225658215081078  5.830677397318251 0.23443082654427783  6.000000000000002 0.23443082654427783  C 6.169322602681751 0.23443082654427783  6.3264373123445194 0.32256582150810825  6.414703125000001 0.46706250000000005  L 8.05190625 3.1484531249999996  C 8.057756122652226 3.157926507372718  8.067103007331179 3.164713524535993  8.077921875000001 3.167343750000001  L 11.133984375 3.8958281249999995  C 11.35280501087902 3.947972266266941  11.507218831958575 4.143505995420331  11.507218831958575 4.368453727471504  C 11.507218831958575 4.484409793799368  11.465747417497418 4.596542486777503  11.390296875 4.68459375  L 9.346078124999998 7.070296875000001  C 9.33879381428363 7.078735383225698  9.335212220156329 7.08975047459834  9.336140624999999 7.100859374999999  L 9.587671875 10.232484375  C 9.588705044137239 10.245387487402015  9.589222247483107 10.258326728949617  9.589222247483107 10.271271138867615  C 9.589222247483107 10.539655638937731  9.371653622553223 10.757224263867615  9.103269122483107 10.757224263867615  C 9.039234280027403 10.757224263867615  8.975830806056742 10.744568483305555  8.916703125 10.719984375000001  L 6.016078125 9.513046875  C 6.005782760618036 9.50878628133558  5.994217239381962 9.50878628133558  5.983921874999999 9.513046875  L 3.0832968750000003 10.719984375000001  C 3.024154932697373 10.744585367946984  2.9607325152882127 10.757250137245588  2.8966780213529333 10.757250137245588  C 2.6283194096304645 10.757250137245588  2.4107717713529335 10.539702498968056  2.4107717713529335 10.271343887245589  C 2.4107717713529335 10.258375137367565  2.4112909716505726 10.245411586080838  2.4123281249999993 10.232484375  L 2.663859374999999 7.100859374999999  C 2.664771755113659 7.089752339419575  2.661192128668022 7.078743299596197  2.653921874999999 7.070296875000001  L 0.6097031249999992 4.684593750000001  C 0.534276397321933 4.596542127705931  0.4928198345826229 4.484422369090686  0.4928198345826229 4.368481524532615  C 0.4928198345826229 4.143540764301889  0.6472100117433209 3.9480052197882864  0.8660156249999993 3.895828125000001  L 3.9220781249999996 3.1673437499999997  C 3.9328969926688218 3.1647135245359923  3.9422438773477735 3.157926507372718  3.948093750000001 3.1484531249999996  Z " stroke-width="0" stroke-dasharray="0" stroke="rgba(255, 255, 255, 0)" fill="none" transform="matrix(1 0 0 1 -875 308 )" class="stroke" mask="url(#Clip5288)" />
  </g>
</svg>