<?xml version="1.0" encoding="utf-8"?>
<svg version="1.1" xmlns:xlink="http://www.w3.org/1999/xlink" width="7px" height="7px" xmlns="http://www.w3.org/2000/svg">
  <defs>
    <pattern id="BGPattern" patternUnits="userSpaceOnUse" alignment="0 0" imageRepeat="None" />
    <mask fill="white" id="Clip12837">
      <path d="M 6.133984375000001 3.895828124999999  C 6.291299787061529 3.9333185854245434  6.419649543412795 4.0466262564202955  6.476359375000001 4.198078125  L 0.9945156249999999 6.0017812500000005  L 0.9945156249999999 0.234421875  L 1 0.234375  C 1.1693125000000002 0.234375  1.3264375 0.322546875  1.4147031250000008 0.46706250000000005  L 3.05190625 3.1484531249999996  C 3.0577561226522256 3.157926507372718  3.0671030073311787 3.164713524535993  3.0779218750000013 3.1673437500000006  L 6.133984375000001 3.895828124999999  Z " fill-rule="evenodd" />
    </mask>
  </defs>
  <g transform="matrix(1 0 0 1 870 -308 )">
    <path d="M 6.133984375000001 3.895828124999999  C 6.291299787061529 3.9333185854245434  6.419649543412795 4.0466262564202955  6.476359375000001 4.198078125  L 0.9945156249999999 6.0017812500000005  L 0.9945156249999999 0.234421875  L 1 0.234375  C 1.1693125000000002 0.234375  1.3264375 0.322546875  1.4147031250000008 0.46706250000000005  L 3.05190625 3.1484531249999996  C 3.0577561226522256 3.157926507372718  3.0671030073311787 3.164713524535993  3.0779218750000013 3.1673437500000006  L 6.133984375000001 3.895828124999999  Z " fill-rule="nonzero" fill="rgba(255, 214, 119, 1)" stroke="none" transform="matrix(1 0 0 1 -870 308 )" class="fill" />
    <path d="M 6.133984375000001 3.895828124999999  C 6.291299787061529 3.9333185854245434  6.419649543412795 4.0466262564202955  6.476359375000001 4.198078125  L 0.9945156249999999 6.0017812500000005  L 0.9945156249999999 0.234421875  L 1 0.234375  C 1.1693125000000002 0.234375  1.3264375 0.322546875  1.4147031250000008 0.46706250000000005  L 3.05190625 3.1484531249999996  C 3.0577561226522256 3.157926507372718  3.0671030073311787 3.164713524535993  3.0779218750000013 3.1673437500000006  L 6.133984375000001 3.895828124999999  Z " stroke-width="0" stroke-dasharray="0" stroke="rgba(255, 255, 255, 0)" fill="none" transform="matrix(1 0 0 1 -870 308 )" class="stroke" mask="url(#Clip12837)" />
  </g>
</svg>