<?xml version="1.0" encoding="utf-8"?>
<svg version="1.1" xmlns:xlink="http://www.w3.org/1999/xlink" width="224px" height="220px" xmlns="http://www.w3.org/2000/svg">
  <defs>
    <linearGradient gradientUnits="userSpaceOnUse" x1="0" y1="0" x2="224" y2="220" id="LinearGradient2494">
      <stop id="Stop2495" stop-color="#d9001b" stop-opacity="0.4980392156862745" offset="0" />
      <stop id="Stop2496" stop-color="#704a10" offset="1" />
    </linearGradient>
    <pattern id="BGPattern" patternUnits="userSpaceOnUse" alignment="0 0" imageRepeat="None" />
    <mask fill="white" id="Clip2497">
      <path d="M 0 215  L 0 5  C 0 2.1999999999999997  2.2 0  5 0  L 219 0  C 221.8 0  224 2.1999999999999997  224 5  L 224 215  C 224 217.8  221.8 220  219 220  L 5 220  C 2.2 220  0 217.8  0 215  Z " fill-rule="evenodd" />
    </mask>
  </defs>
  <g>
    <path d="M 0 215  L 0 5  C 0 2.1999999999999997  2.2 0  5 0  L 219 0  C 221.8 0  224 2.1999999999999997  224 5  L 224 215  C 224 217.8  221.8 220  219 220  L 5 220  C 2.2 220  0 217.8  0 215  Z " fill-rule="nonzero" fill="url(#LinearGradient2494)" stroke="none" class="fill" />
    <path d="M 0 215  L 0 5  C 0 2.1999999999999997  2.2 0  5 0  L 219 0  C 221.8 0  224 2.1999999999999997  224 5  L 224 215  C 224 217.8  221.8 220  219 220  L 5 220  C 2.2 220  0 217.8  0 215  Z " stroke-width="0" stroke-dasharray="0" stroke="rgba(121, 121, 121, 1)" fill="none" class="stroke" mask="url(#Clip2497)" />
  </g>
</svg>