<?xml version="1.0" encoding="utf-8"?>
<svg version="1.1" xmlns:xlink="http://www.w3.org/1999/xlink" width="60px" height="60px" xmlns="http://www.w3.org/2000/svg">
  <defs>
    <pattern id="BGPattern" patternUnits="userSpaceOnUse" alignment="0 0" imageRepeat="None" />
    <mask fill="white" id="Clip9601">
      <path d="M 0 30  C 0 46.568542494923804  13.431457505076196 60  30 60  C 46.568542494923804 60  60 46.568542494923804  60 30  C 60 13.431457505076196  46.568542494923804 0  30 0  C 13.431457505076196 0  0 13.431457505076196  0 30  Z " fill-rule="evenodd" />
    </mask>
  </defs>
  <g transform="matrix(1 0 0 1 -81 -70 )">
    <path d="M 0 30  C 0 46.568542494923804  13.431457505076196 60  30 60  C 46.568542494923804 60  60 46.568542494923804  60 30  C 60 13.431457505076196  46.568542494923804 0  30 0  C 13.431457505076196 0  0 13.431457505076196  0 30  Z " fill-rule="nonzero" fill="rgba(255, 249, 250, 0.4980392156862745)" stroke="none" transform="matrix(1 0 0 1 81 70 )" class="fill" />
    <path d="M 0 30  C 0 46.568542494923804  13.431457505076196 60  30 60  C 46.568542494923804 60  60 46.568542494923804  60 30  C 60 13.431457505076196  46.568542494923804 0  30 0  C 13.431457505076196 0  0 13.431457505076196  0 30  Z " stroke-width="0" stroke-dasharray="0" stroke="rgba(255, 255, 255, 0)" fill="none" transform="matrix(1 0 0 1 81 70 )" class="stroke" mask="url(#Clip9601)" />
  </g>
</svg>