<?xml version="1.0" encoding="utf-8"?>
<svg version="1.1" xmlns:xlink="http://www.w3.org/1999/xlink" width="75px" height="35px" xmlns="http://www.w3.org/2000/svg">
  <defs>
    <linearGradient gradientUnits="userSpaceOnUse" x1="0" y1="0" x2="75" y2="35" id="LinearGradient13668">
      <stop id="Stop13669" stop-color="#f59a23" stop-opacity="0.4980392156862745" offset="0" />
      <stop id="Stop13670" stop-color="#ffff00" stop-opacity="0.4980392156862745" offset="1" />
    </linearGradient>
    <pattern id="BGPattern" patternUnits="userSpaceOnUse" alignment="0 0" imageRepeat="None" />
    <mask fill="white" id="Clip13671">
      <path d="M 0 30  L 0 5  C 0 2.2000000000000455  2.1999999999999886 0  5 0  L 75 0  L 65 35  L 5 35  C 2.1999999999999886 35  0 32.799999999999955  0 30  Z " fill-rule="evenodd" />
    </mask>
  </defs>
  <g transform="matrix(1 0 0 1 -386 -121 )">
    <path d="M 0 30  L 0 5  C 0 2.2000000000000455  2.1999999999999886 0  5 0  L 75 0  L 65 35  L 5 35  C 2.1999999999999886 35  0 32.799999999999955  0 30  Z " fill-rule="nonzero" fill="url(#LinearGradient13668)" stroke="none" transform="matrix(1 0 0 1 386 121 )" class="fill" />
    <path d="M 0 30  L 0 5  C 0 2.2000000000000455  2.1999999999999886 0  5 0  L 75 0  L 65 35  L 5 35  C 2.1999999999999886 35  0 32.799999999999955  0 30  Z " stroke-width="0" stroke-dasharray="0" stroke="rgba(121, 121, 121, 1)" fill="none" transform="matrix(1 0 0 1 386 121 )" class="stroke" mask="url(#Clip13671)" />
  </g>
</svg>