<?xml version="1.0" encoding="utf-8"?>
<svg version="1.1" xmlns:xlink="http://www.w3.org/1999/xlink" width="104px" height="35px" xmlns="http://www.w3.org/2000/svg">
  <defs>
    <linearGradient gradientUnits="userSpaceOnUse" x1="0" y1="0" x2="104" y2="35" id="LinearGradient9967">
      <stop id="Stop9968" stop-color="#8400ff" stop-opacity="0.4980392156862745" offset="0" />
      <stop id="Stop9969" stop-color="#02a7f0" stop-opacity="0.4980392156862745" offset="1" />
    </linearGradient>
    <pattern id="BGPattern" patternUnits="userSpaceOnUse" alignment="0 0" imageRepeat="None" />
    <mask fill="white" id="Clip9970">
      <path d="M 0 30.000000000000004  L 0 5  C 0 2.1999999999999997  2.1999999999999997 0  5 0  L 99 0  C 101.8 0  104 2.1999999999999997  104 5  L 104 30.000000000000004  C 104 32.800000000000004  101.8 35  99 35  L 5 35  C 2.1999999999999997 35  0 32.800000000000004  0 30.000000000000004  Z " fill-rule="evenodd" />
    </mask>
  </defs>
  <g transform="matrix(1 0 0 1 -629 -121 )">
    <path d="M 0 30.000000000000004  L 0 5  C 0 2.1999999999999997  2.1999999999999997 0  5 0  L 99 0  C 101.8 0  104 2.1999999999999997  104 5  L 104 30.000000000000004  C 104 32.800000000000004  101.8 35  99 35  L 5 35  C 2.1999999999999997 35  0 32.800000000000004  0 30.000000000000004  Z " fill-rule="nonzero" fill="url(#LinearGradient9967)" stroke="none" transform="matrix(1 0 0 1 629 121 )" class="fill" />
    <path d="M 0 30.000000000000004  L 0 5  C 0 2.1999999999999997  2.1999999999999997 0  5 0  L 99 0  C 101.8 0  104 2.1999999999999997  104 5  L 104 30.000000000000004  C 104 32.800000000000004  101.8 35  99 35  L 5 35  C 2.1999999999999997 35  0 32.800000000000004  0 30.000000000000004  Z " stroke-width="0" stroke-dasharray="0" stroke="rgba(121, 121, 121, 1)" fill="none" transform="matrix(1 0 0 1 629 121 )" class="stroke" mask="url(#Clip9970)" />
  </g>
</svg>