<?xml version="1.0" encoding="utf-8"?>
<svg version="1.1" xmlns:xlink="http://www.w3.org/1999/xlink" width="44px" height="44px" xmlns="http://www.w3.org/2000/svg">
  <defs>
    <pattern id="BGPattern" patternUnits="userSpaceOnUse" alignment="0 0" imageRepeat="None" />
    <mask fill="white" id="Clip1028">
      <path d="M 0.3796257706925659 21.826195412795602  C 0.49876697331155845 9.947788143678922  10.162159500602076 0.3813152133077523  22.041164236697636 0.3819126953124996  C 33.96539254808562 0.40501127039677126  43.61965744129876 10.07799567688431  43.61965744129876 22.002246360523834  C 43.61965744129876 33.94284933300502  33.93988618447252 43.62262058983127  21.999283211991326 43.62262058983127  C 10.058680239510137 43.62262058983127  0.37890898268389483 33.94284933300502  0.37890898268389483 22.002246360523834  C 0.37890898268389483 21.943561981685594  0.37914791400046177 21.88487784604962  0.3796257706925659 21.826195412795602  Z " fill-rule="evenodd" />
    </mask>
  </defs>
  <g transform="matrix(1 0 0 1 -89 -78 )">
    <path d="M 0.3796257706925659 21.826195412795602  C 0.49876697331155845 9.947788143678922  10.162159500602076 0.3813152133077523  22.041164236697636 0.3819126953124996  C 33.96539254808562 0.40501127039677126  43.61965744129876 10.07799567688431  43.61965744129876 22.002246360523834  C 43.61965744129876 33.94284933300502  33.93988618447252 43.62262058983127  21.999283211991326 43.62262058983127  C 10.058680239510137 43.62262058983127  0.37890898268389483 33.94284933300502  0.37890898268389483 22.002246360523834  C 0.37890898268389483 21.943561981685594  0.37914791400046177 21.88487784604962  0.3796257706925659 21.826195412795602  Z " fill-rule="nonzero" fill="rgba(253, 67, 101, 1)" stroke="none" transform="matrix(1 0 0 1 89 78 )" class="fill" />
    <path d="M 0.3796257706925659 21.826195412795602  C 0.49876697331155845 9.947788143678922  10.162159500602076 0.3813152133077523  22.041164236697636 0.3819126953124996  C 33.96539254808562 0.40501127039677126  43.61965744129876 10.07799567688431  43.61965744129876 22.002246360523834  C 43.61965744129876 33.94284933300502  33.93988618447252 43.62262058983127  21.999283211991326 43.62262058983127  C 10.058680239510137 43.62262058983127  0.37890898268389483 33.94284933300502  0.37890898268389483 22.002246360523834  C 0.37890898268389483 21.943561981685594  0.37914791400046177 21.88487784604962  0.3796257706925659 21.826195412795602  Z " stroke-width="0" stroke-dasharray="0" stroke="rgba(255, 255, 255, 0)" fill="none" transform="matrix(1 0 0 1 89 78 )" class="stroke" mask="url(#Clip1028)" />
  </g>
</svg>