<?xml version="1.0" encoding="utf-8"?>
<svg version="1.1" xmlns:xlink="http://www.w3.org/1999/xlink" width="25px" height="23px" xmlns="http://www.w3.org/2000/svg">
  <defs>
    <pattern id="BGPattern" patternUnits="userSpaceOnUse" alignment="0 0" imageRepeat="None" />
    <mask fill="white" id="Clip9299">
      <path d="M 24.67490844726562 10.948279343133224  C 24.6474359421503 9.67955466951069  23.477564115978414 9.28613361687911  22.225274716331846 9.800607301089638  L 22.225274716331846 5.4147773052014845  C 22.225274716331846 2.6957489514802644  20.240384579613092 0.48886638312089037  17.790750906808032 0.48886638312089037  L 7.181776529947914 0.48886638312089037  C 4.732142857142855 0.48886638312089037  2.744963320777528 2.6957489514802644  2.744963378906246 5.4147773052014845  L 2.744963378906246 9.861133616879112  C 1.6025641159784227 9.465384606291117  0.32509161086309196 9.768016185238487  0.32509155273437107 10.918016185238486  L 0.32509155273437107 17.599190265213814  C 0.32509155273437107 20.290283359888978  2.229853457496277 22.497165987356087  4.569597051711304 22.497165987356087  L 20.430402948288684 22.497165987356087  C 22.770146542503714 22.497165987356087  24.67490844726562 20.2902834189967  24.67490844726562 17.599190265213814  L 24.67490844726562 10.948279343133224  Z M 21.24771060035342 10.403542501027966  L 21.24771060035342 10.405870458984374  L 12.976190476190483 16.54230769685445  C 12.682711924990189 16.7538878414142  12.289815569894495 16.7538878414142  11.996337018694197 16.542307696854444  L 3.7248168364025314 10.403542501027962  L 3.7248168364025314 5.4147773052014845  C 3.7248168364025314 3.298684210526318  5.277014625186012 1.5760121093750001  7.181776529947919 2  L 17.790750906808032 2  C 19.695512811569944 1.5760121684827335  21.24771060035342 3.298684210526318  21.24771060035342 5.417105263157901  L 21.24771060035342 10.403542501027966  Z " fill-rule="evenodd" />
    </mask>
  </defs>
  <g transform="matrix(1 0 0 1 -98 -89 )">
    <path d="M 24.67490844726562 10.948279343133224  C 24.6474359421503 9.67955466951069  23.477564115978414 9.28613361687911  22.225274716331846 9.800607301089638  L 22.225274716331846 5.4147773052014845  C 22.225274716331846 2.6957489514802644  20.240384579613092 0.48886638312089037  17.790750906808032 0.48886638312089037  L 7.181776529947914 0.48886638312089037  C 4.732142857142855 0.48886638312089037  2.744963320777528 2.6957489514802644  2.744963378906246 5.4147773052014845  L 2.744963378906246 9.861133616879112  C 1.6025641159784227 9.465384606291117  0.32509161086309196 9.768016185238487  0.32509155273437107 10.918016185238486  L 0.32509155273437107 17.599190265213814  C 0.32509155273437107 20.290283359888978  2.229853457496277 22.497165987356087  4.569597051711304 22.497165987356087  L 20.430402948288684 22.497165987356087  C 22.770146542503714 22.497165987356087  24.67490844726562 20.2902834189967  24.67490844726562 17.599190265213814  L 24.67490844726562 10.948279343133224  Z M 21.24771060035342 10.403542501027966  L 21.24771060035342 10.405870458984374  L 12.976190476190483 16.54230769685445  C 12.682711924990189 16.7538878414142  12.289815569894495 16.7538878414142  11.996337018694197 16.542307696854444  L 3.7248168364025314 10.403542501027962  L 3.7248168364025314 5.4147773052014845  C 3.7248168364025314 3.298684210526318  5.277014625186012 1.5760121093750001  7.181776529947919 2  L 17.790750906808032 2  C 19.695512811569944 1.5760121684827335  21.24771060035342 3.298684210526318  21.24771060035342 5.417105263157901  L 21.24771060035342 10.403542501027966  Z " fill-rule="nonzero" fill="rgba(255, 249, 250, 1)" stroke="none" transform="matrix(1 0 0 1 98 89 )" class="fill" />
    <path d="M 24.67490844726562 10.948279343133224  C 24.6474359421503 9.67955466951069  23.477564115978414 9.28613361687911  22.225274716331846 9.800607301089638  L 22.225274716331846 5.4147773052014845  C 22.225274716331846 2.6957489514802644  20.240384579613092 0.48886638312089037  17.790750906808032 0.48886638312089037  L 7.181776529947914 0.48886638312089037  C 4.732142857142855 0.48886638312089037  2.744963320777528 2.6957489514802644  2.744963378906246 5.4147773052014845  L 2.744963378906246 9.861133616879112  C 1.6025641159784227 9.465384606291117  0.32509161086309196 9.768016185238487  0.32509155273437107 10.918016185238486  L 0.32509155273437107 17.599190265213814  C 0.32509155273437107 20.290283359888978  2.229853457496277 22.497165987356087  4.569597051711304 22.497165987356087  L 20.430402948288684 22.497165987356087  C 22.770146542503714 22.497165987356087  24.67490844726562 20.2902834189967  24.67490844726562 17.599190265213814  L 24.67490844726562 10.948279343133224  Z " stroke-width="0" stroke-dasharray="0" stroke="rgba(255, 255, 255, 0)" fill="none" transform="matrix(1 0 0 1 98 89 )" class="stroke" mask="url(#Clip9299)" />
    <path d="M 21.24771060035342 10.403542501027966  L 21.24771060035342 10.405870458984374  L 12.976190476190483 16.54230769685445  C 12.682711924990189 16.7538878414142  12.289815569894495 16.7538878414142  11.996337018694197 16.542307696854444  L 3.7248168364025314 10.403542501027962  L 3.7248168364025314 5.4147773052014845  C 3.7248168364025314 3.298684210526318  5.277014625186012 1.5760121093750001  7.181776529947919 2  L 17.790750906808032 2  C 19.695512811569944 1.5760121684827335  21.24771060035342 3.298684210526318  21.24771060035342 5.417105263157901  L 21.24771060035342 10.403542501027966  Z " stroke-width="0" stroke-dasharray="0" stroke="rgba(255, 255, 255, 0)" fill="none" transform="matrix(1 0 0 1 98 89 )" class="stroke" mask="url(#Clip9299)" />
  </g>
</svg>