<?xml version="1.0" encoding="utf-8"?>
<svg version="1.1" xmlns:xlink="http://www.w3.org/1999/xlink" width="9px" height="9px" xmlns="http://www.w3.org/2000/svg">
  <defs>
    <pattern id="BGPattern" patternUnits="userSpaceOnUse" alignment="0 0" imageRepeat="None" />
    <mask fill="white" id="Clip1916">
      <path d="M 8.983183503196026 3.9972937834821423  L 4.087713068107684E-05 3.9972937834821423  L 4.087713068107684E-05 4.250896255580358  C 4.087713068107684E-05 6.849693816964288  2.01094179066051 8.97141739955357  4.4916121901633534 8.97141739955357  C 6.972282589666196 8.97141739955357  8.983183503196026 6.849693791852678  8.983183503196026 4.250896255580358  L 8.983183503196026 3.9972937834821423  Z M 5.817033177379261 1.157448348214286  C 5.81942995472301 1.727426157924107  6.260438040660512 2.1894346289062487  6.802110990767045 2.1894346289062487  C 7.34378394087358 2.1894346289062487  7.787188804154831 1.7274261830357136  7.787188804154831 1.157448348214286  C 7.787188804154831 0.5899814481026782  7.346180742187501 0.12546206752232184  6.802110990767045 0.12546206752232184  C 6.260438040660512 0.12546206752232184  5.817033177379261 0.5874705133928586  5.817033177379261 1.157448348214286  Z M 1.2391776882102268 1.157448348214286  C 1.241574465553977 1.727426157924107  1.6825825514914776 2.1894346289062487  2.224255501598011 2.1894346289062487  C 2.765928451704546 2.1894346289062487  3.209333314985795 1.7274261830357136  3.209333291015624 1.157448348214286  C 3.209333291015624 0.5899814481026782  2.768325229048295 0.12546206752232184  2.224255501598011 0.12546206752232184  C 1.682582551491476 0.12546206752232184  1.2391776882102268 0.5874705133928586  1.2391776882102268 1.157448348214286  Z " fill-rule="evenodd" />
    </mask>
  </defs>
  <g transform="matrix(1 0 0 1 -1872 -109 )">
    <path d="M 8.983183503196026 3.9972937834821423  L 4.087713068107684E-05 3.9972937834821423  L 4.087713068107684E-05 4.250896255580358  C 4.087713068107684E-05 6.849693816964288  2.01094179066051 8.97141739955357  4.4916121901633534 8.97141739955357  C 6.972282589666196 8.97141739955357  8.983183503196026 6.849693791852678  8.983183503196026 4.250896255580358  L 8.983183503196026 3.9972937834821423  Z M 5.817033177379261 1.157448348214286  C 5.81942995472301 1.727426157924107  6.260438040660512 2.1894346289062487  6.802110990767045 2.1894346289062487  C 7.34378394087358 2.1894346289062487  7.787188804154831 1.7274261830357136  7.787188804154831 1.157448348214286  C 7.787188804154831 0.5899814481026782  7.346180742187501 0.12546206752232184  6.802110990767045 0.12546206752232184  C 6.260438040660512 0.12546206752232184  5.817033177379261 0.5874705133928586  5.817033177379261 1.157448348214286  Z M 1.2391776882102268 1.157448348214286  C 1.241574465553977 1.727426157924107  1.6825825514914776 2.1894346289062487  2.224255501598011 2.1894346289062487  C 2.765928451704546 2.1894346289062487  3.209333314985795 1.7274261830357136  3.209333291015624 1.157448348214286  C 3.209333291015624 0.5899814481026782  2.768325229048295 0.12546206752232184  2.224255501598011 0.12546206752232184  C 1.682582551491476 0.12546206752232184  1.2391776882102268 0.5874705133928586  1.2391776882102268 1.157448348214286  Z " fill-rule="nonzero" fill="rgba(204, 204, 204, 1)" stroke="none" transform="matrix(1 0 0 1 1872 109 )" class="fill" />
    <path d="M 8.983183503196026 3.9972937834821423  L 4.087713068107684E-05 3.9972937834821423  L 4.087713068107684E-05 4.250896255580358  C 4.087713068107684E-05 6.849693816964288  2.01094179066051 8.97141739955357  4.4916121901633534 8.97141739955357  C 6.972282589666196 8.97141739955357  8.983183503196026 6.849693791852678  8.983183503196026 4.250896255580358  L 8.983183503196026 3.9972937834821423  Z " stroke-width="0" stroke-dasharray="0" stroke="rgba(255, 255, 255, 0)" fill="none" transform="matrix(1 0 0 1 1872 109 )" class="stroke" mask="url(#Clip1916)" />
    <path d="M 5.817033177379261 1.157448348214286  C 5.81942995472301 1.727426157924107  6.260438040660512 2.1894346289062487  6.802110990767045 2.1894346289062487  C 7.34378394087358 2.1894346289062487  7.787188804154831 1.7274261830357136  7.787188804154831 1.157448348214286  C 7.787188804154831 0.5899814481026782  7.346180742187501 0.12546206752232184  6.802110990767045 0.12546206752232184  C 6.260438040660512 0.12546206752232184  5.817033177379261 0.5874705133928586  5.817033177379261 1.157448348214286  Z " stroke-width="0" stroke-dasharray="0" stroke="rgba(255, 255, 255, 0)" fill="none" transform="matrix(1 0 0 1 1872 109 )" class="stroke" mask="url(#Clip1916)" />
    <path d="M 1.2391776882102268 1.157448348214286  C 1.241574465553977 1.727426157924107  1.6825825514914776 2.1894346289062487  2.224255501598011 2.1894346289062487  C 2.765928451704546 2.1894346289062487  3.209333314985795 1.7274261830357136  3.209333291015624 1.157448348214286  C 3.209333291015624 0.5899814481026782  2.768325229048295 0.12546206752232184  2.224255501598011 0.12546206752232184  C 1.682582551491476 0.12546206752232184  1.2391776882102268 0.5874705133928586  1.2391776882102268 1.157448348214286  Z " stroke-width="0" stroke-dasharray="0" stroke="rgba(255, 255, 255, 0)" fill="none" transform="matrix(1 0 0 1 1872 109 )" class="stroke" mask="url(#Clip1916)" />
  </g>
</svg>