<?xml version="1.0" encoding="utf-8"?>
<svg version="1.1" xmlns:xlink="http://www.w3.org/1999/xlink" width="25px" height="25px" xmlns="http://www.w3.org/2000/svg">
  <defs>
    <pattern id="BGPattern" patternUnits="userSpaceOnUse" alignment="0 0" imageRepeat="None" />
    <mask fill="white" id="Clip710">
      <path d="M 0 12.501220674168756  C 0 19.40410588732576  5.595895106511266 25  12.498780371093748 25  C 19.40166563567623 25  24.99755979003906 19.40410588732576  24.99755979003906 12.501220674168756  C 24.99755979003906 5.598335088519104  19.40166563567623 0.0024409758448621353  12.498780371093748 0.0024409758448621353  C 5.595895106511266 0.0024409758448621353  0 5.598335088519104  0 12.501220301676105  Z " fill-rule="evenodd" />
    </mask>
  </defs>
  <g transform="matrix(1 0 0 1 -1516 -7 )">
    <path d="M 0 12.501220674168756  C 0 19.40410588732576  5.595895106511266 25  12.498780371093748 25  C 19.40166563567623 25  24.99755979003906 19.40410588732576  24.99755979003906 12.501220674168756  C 24.99755979003906 5.598335088519104  19.40166563567623 0.0024409758448621353  12.498780371093748 0.0024409758448621353  C 5.595895106511266 0.0024409758448621353  0 5.598335088519104  0 12.501220301676105  Z " fill-rule="nonzero" fill="rgba(255, 255, 255, 1)" stroke="none" transform="matrix(1 0 0 1 1516 7 )" class="fill" />
    <path d="M 0 12.501220674168756  C 0 19.40410588732576  5.595895106511266 25  12.498780371093748 25  C 19.40166563567623 25  24.99755979003906 19.40410588732576  24.99755979003906 12.501220674168756  C 24.99755979003906 5.598335088519104  19.40166563567623 0.0024409758448621353  12.498780371093748 0.0024409758448621353  C 5.595895106511266 0.0024409758448621353  0 5.598335088519104  0 12.501220301676105  Z " stroke-width="0" stroke-dasharray="0" stroke="rgba(255, 255, 255, 0)" fill="none" transform="matrix(1 0 0 1 1516 7 )" class="stroke" mask="url(#Clip710)" />
  </g>
</svg>