<?xml version="1.0" encoding="utf-8"?>
<svg version="1.1" xmlns:xlink="http://www.w3.org/1999/xlink" width="25px" height="22px" xmlns="http://www.w3.org/2000/svg">
  <defs>
    <pattern id="BGPattern" patternUnits="userSpaceOnUse" alignment="0 0" imageRepeat="None" />
    <mask fill="white" id="Clip2570">
      <path d="M 20.483839649541263 21.63981380859375  C 23.257006218727305 19.396109314236114  25 16.016231052517362  25 12.23773721137153  C 25 5.492302172309028  19.407284661245995 0.009547680121527777  12.493897546619136 0.009547680121527777  C 5.578069294389939 0.009547680121527777  0 5.492302172309028  0 12.23773721137153  C 0 16.01623107638889  1.7576417299335672 19.396109338107642  4.503955468111071 21.63981380859375  L 4.503955468111071 13.003938415798611  C 4.503955468111071 8.671679199218751  8.077825082973458 5.1629072677951395  12.493897546619136 5.1629072677951395  C 16.909970010264814 5.1629072677951395  20.4838396251272 8.671679199218751  20.483839649541263 13.003938415798611  L 20.483839649541263 21.63981380859375  Z " fill-rule="evenodd" />
    </mask>
  </defs>
  <g transform="matrix(1 0 0 1 -1516 -7 )">
    <path d="M 20.483839649541263 21.63981380859375  C 23.257006218727305 19.396109314236114  25 16.016231052517362  25 12.23773721137153  C 25 5.492302172309028  19.407284661245995 0.009547680121527777  12.493897546619136 0.009547680121527777  C 5.578069294389939 0.009547680121527777  0 5.492302172309028  0 12.23773721137153  C 0 16.01623107638889  1.7576417299335672 19.396109338107642  4.503955468111071 21.63981380859375  L 4.503955468111071 13.003938415798611  C 4.503955468111071 8.671679199218751  8.077825082973458 5.1629072677951395  12.493897546619136 5.1629072677951395  C 16.909970010264814 5.1629072677951395  20.4838396251272 8.671679199218751  20.483839649541263 13.003938415798611  L 20.483839649541263 21.63981380859375  Z " fill-rule="nonzero" fill="rgba(204, 204, 204, 1)" stroke="none" transform="matrix(1 0 0 1 1516 7 )" class="fill" />
    <path d="M 20.483839649541263 21.63981380859375  C 23.257006218727305 19.396109314236114  25 16.016231052517362  25 12.23773721137153  C 25 5.492302172309028  19.407284661245995 0.009547680121527777  12.493897546619136 0.009547680121527777  C 5.578069294389939 0.009547680121527777  0 5.492302172309028  0 12.23773721137153  C 0 16.01623107638889  1.7576417299335672 19.396109338107642  4.503955468111071 21.63981380859375  L 4.503955468111071 13.003938415798611  C 4.503955468111071 8.671679199218751  8.077825082973458 5.1629072677951395  12.493897546619136 5.1629072677951395  C 16.909970010264814 5.1629072677951395  20.4838396251272 8.671679199218751  20.483839649541263 13.003938415798611  L 20.483839649541263 21.63981380859375  Z " stroke-width="0" stroke-dasharray="0" stroke="rgba(255, 255, 255, 0)" fill="none" transform="matrix(1 0 0 1 1516 7 )" class="stroke" mask="url(#Clip2570)" />
  </g>
</svg>