<?xml version="1.0" encoding="utf-8"?>
<svg version="1.1" xmlns:xlink="http://www.w3.org/1999/xlink" width="37px" height="40px" xmlns="http://www.w3.org/2000/svg">
  <defs>
    <pattern id="BGPattern" patternUnits="userSpaceOnUse" alignment="0 0" imageRepeat="None" />
    <mask fill="white" id="Clip3903">
      <path d="M 13.893698859375 28.024558546875  C 13.925690343749999 28.1365288125  13.909694625 28.248499078125  14.005669124999999 28.344473578124997  C 14.373571453124999 27.4807029375  14.7574695 26.6329280625  15.12537178125 25.7851531875  C 17.988611484375 19.194903140625  20.8518511875 12.620648812499999  23.699095171875005 6.03039871875  C 24.5148785625 4.158895687499999  25.330661953125002 2.27139684375  26.146445343750003 0.39989381249999956  C 26.226424125 0.22394053124999957  26.29040709375 0.09597449999999957  26.514347671875 0.09597449999999957  L 36.255760968749996 0  C 36.319743984374995 0  36.383727 0.01599576562499958  36.447710015625 0.01599576562499958  C 36.479701500000004 0.1599575156249996  36.399722765625 0.25593206249999956  36.351735515625 0.3519065624999995  C 34.7361645 3.7110146249999993  33.10459771875 7.070122640625  31.489026703125 10.445226421875  C 31.377056437500002 10.68516271875  31.233094640624998 10.78113721875  31.009154109374997 10.829124515625  C 28.641782718749997 11.340988593750001  26.386381593749995 12.172767750000002  24.354921046875 13.644376968750002  C 21.155770546875004 15.979756828125002  19.460220749999998 19.322869125000004  19.044331171874997 23.481764812500003  C 18.740411859375 26.424983296875006  19.508207999999996 29.06428246875  21.059796 31.431653859375004  C 21.171766265625 31.591611375  21.203757749999998 31.703581640624996  21.10778325 31.8955306875  C 19.86116585083522 34.450193888234  18.624152258445836 37.00953236278967  17.396768671874995 39.57349190625  C 17.284798406249998 39.82942396875  17.156832374999993 39.925398468750004  16.884904593749997 39.925398468750004  C 13.605775312499997 39.909402703125004  10.326646031249998 39.909402703125004  7.047516749999998 39.925398468750004  C 6.727601718749998 39.925398468750004  6.615631453124998 39.813428203125  6.551648390624997 39.47751740625  C 5.064043406249997 31.831547671875  3.5604426562499967 24.169582171875  2.0728376718749972 16.5236124375  C 1.3690245937499999 13.100521359374998  0.71319871875 9.677430328124998  0.025381359375000075 6.254339250000001  C -0.038601656250000005 5.966415703125  0.009385593750000032 5.886436921875  0.28131337499999987 6  L 10.694548312499998 6  C 10.91848884375 5.9824114687500005  10.982471859375 6.07838596875  11.014463390625 6.3023265  C 11.750268000000002 11.868848390625  12.502068375 17.435370328125  13.237872984375 23.00189221875  C 13.461813515625 24.68144625  13.685754046875001 26.36100028125  13.893698859375 28.024558546875  Z " fill-rule="evenodd" />
    </mask>
  </defs>
  <g transform="matrix(1 0 0 1 -151 -63 )">
    <path d="M 13.893698859375 28.024558546875  C 13.925690343749999 28.1365288125  13.909694625 28.248499078125  14.005669124999999 28.344473578124997  C 14.373571453124999 27.4807029375  14.7574695 26.6329280625  15.12537178125 25.7851531875  C 17.988611484375 19.194903140625  20.8518511875 12.620648812499999  23.699095171875005 6.03039871875  C 24.5148785625 4.158895687499999  25.330661953125002 2.27139684375  26.146445343750003 0.39989381249999956  C 26.226424125 0.22394053124999957  26.29040709375 0.09597449999999957  26.514347671875 0.09597449999999957  L 36.255760968749996 0  C 36.319743984374995 0  36.383727 0.01599576562499958  36.447710015625 0.01599576562499958  C 36.479701500000004 0.1599575156249996  36.399722765625 0.25593206249999956  36.351735515625 0.3519065624999995  C 34.7361645 3.7110146249999993  33.10459771875 7.070122640625  31.489026703125 10.445226421875  C 31.377056437500002 10.68516271875  31.233094640624998 10.78113721875  31.009154109374997 10.829124515625  C 28.641782718749997 11.340988593750001  26.386381593749995 12.172767750000002  24.354921046875 13.644376968750002  C 21.155770546875004 15.979756828125002  19.460220749999998 19.322869125000004  19.044331171874997 23.481764812500003  C 18.740411859375 26.424983296875006  19.508207999999996 29.06428246875  21.059796 31.431653859375004  C 21.171766265625 31.591611375  21.203757749999998 31.703581640624996  21.10778325 31.8955306875  C 19.86116585083522 34.450193888234  18.624152258445836 37.00953236278967  17.396768671874995 39.57349190625  C 17.284798406249998 39.82942396875  17.156832374999993 39.925398468750004  16.884904593749997 39.925398468750004  C 13.605775312499997 39.909402703125004  10.326646031249998 39.909402703125004  7.047516749999998 39.925398468750004  C 6.727601718749998 39.925398468750004  6.615631453124998 39.813428203125  6.551648390624997 39.47751740625  C 5.064043406249997 31.831547671875  3.5604426562499967 24.169582171875  2.0728376718749972 16.5236124375  C 1.3690245937499999 13.100521359374998  0.71319871875 9.677430328124998  0.025381359375000075 6.254339250000001  C -0.038601656250000005 5.966415703125  0.009385593750000032 5.886436921875  0.28131337499999987 6  L 10.694548312499998 6  C 10.91848884375 5.9824114687500005  10.982471859375 6.07838596875  11.014463390625 6.3023265  C 11.750268000000002 11.868848390625  12.502068375 17.435370328125  13.237872984375 23.00189221875  C 13.461813515625 24.68144625  13.685754046875001 26.36100028125  13.893698859375 28.024558546875  Z " fill-rule="nonzero" fill="rgba(0, 0, 0, 1)" stroke="none" transform="matrix(1 0 0 1 151 63 )" class="fill" />
    <path d="M 13.893698859375 28.024558546875  C 13.925690343749999 28.1365288125  13.909694625 28.248499078125  14.005669124999999 28.344473578124997  C 14.373571453124999 27.4807029375  14.7574695 26.6329280625  15.12537178125 25.7851531875  C 17.988611484375 19.194903140625  20.8518511875 12.620648812499999  23.699095171875005 6.03039871875  C 24.5148785625 4.158895687499999  25.330661953125002 2.27139684375  26.146445343750003 0.39989381249999956  C 26.226424125 0.22394053124999957  26.29040709375 0.09597449999999957  26.514347671875 0.09597449999999957  L 36.255760968749996 0  C 36.319743984374995 0  36.383727 0.01599576562499958  36.447710015625 0.01599576562499958  C 36.479701500000004 0.1599575156249996  36.399722765625 0.25593206249999956  36.351735515625 0.3519065624999995  C 34.7361645 3.7110146249999993  33.10459771875 7.070122640625  31.489026703125 10.445226421875  C 31.377056437500002 10.68516271875  31.233094640624998 10.78113721875  31.009154109374997 10.829124515625  C 28.641782718749997 11.340988593750001  26.386381593749995 12.172767750000002  24.354921046875 13.644376968750002  C 21.155770546875004 15.979756828125002  19.460220749999998 19.322869125000004  19.044331171874997 23.481764812500003  C 18.740411859375 26.424983296875006  19.508207999999996 29.06428246875  21.059796 31.431653859375004  C 21.171766265625 31.591611375  21.203757749999998 31.703581640624996  21.10778325 31.8955306875  C 19.86116585083522 34.450193888234  18.624152258445836 37.00953236278967  17.396768671874995 39.57349190625  C 17.284798406249998 39.82942396875  17.156832374999993 39.925398468750004  16.884904593749997 39.925398468750004  C 13.605775312499997 39.909402703125004  10.326646031249998 39.909402703125004  7.047516749999998 39.925398468750004  C 6.727601718749998 39.925398468750004  6.615631453124998 39.813428203125  6.551648390624997 39.47751740625  C 5.064043406249997 31.831547671875  3.5604426562499967 24.169582171875  2.0728376718749972 16.5236124375  C 1.3690245937499999 13.100521359374998  0.71319871875 9.677430328124998  0.025381359375000075 6.254339250000001  C -0.038601656250000005 5.966415703125  0.009385593750000032 5.886436921875  0.28131337499999987 6  L 10.694548312499998 6  C 10.91848884375 5.9824114687500005  10.982471859375 6.07838596875  11.014463390625 6.3023265  C 11.750268000000002 11.868848390625  12.502068375 17.435370328125  13.237872984375 23.00189221875  C 13.461813515625 24.68144625  13.685754046875001 26.36100028125  13.893698859375 28.024558546875  Z " stroke-width="0" stroke-dasharray="0" stroke="rgba(255, 255, 255, 0)" fill="none" transform="matrix(1 0 0 1 151 63 )" class="stroke" mask="url(#Clip3903)" />
  </g>
</svg>