<?xml version="1.0" encoding="utf-8"?>
<svg version="1.1" xmlns:xlink="http://www.w3.org/1999/xlink" width="31px" height="36px" xmlns="http://www.w3.org/2000/svg">
  <defs>
    <pattern id="BGPattern" patternUnits="userSpaceOnUse" alignment="0 0" imageRepeat="None" />
    <mask fill="white" id="Clip5835">
      <path d="M 12.841464203125 1.1165171249999837  C 14.457035218749994 0.7166233124999835  16.040614703125 0.5566657968749844  17.896122015624996 0.5086785468750001  C 21.815081406250002 0.5086785468750001  25.7980238125 1.5164109375  29.541029875 3.5478715312499993  C 29.972915171875 3.7878078281250005  30.388804750000006 4.059735609375  30.804694374999997 4.299671906250001  C 31.028634906249998 4.427637937500002  31.028634906249998 4.5396082031250025  30.900668875 4.763548734375  C 29.668995906249997 7.050941343749997  28.437322984375 9.354329718750002  27.221645781250004 11.641722328124999  C 27.061688265625 11.929645874999999  26.885734984375 12.217569421874998  26.757768953125 12.537484499999998  C 26.629802921874997 12.841403812499998  26.48584117187501 12.809412281249998  26.26190059375 12.68144625  C 24.566350796875 11.721701109374997  22.806818031250003 10.921913484374997  21.01529378125001 10.250091843749999  C 19.671650546875 9.738227765624998  18.296015828125007 9.354329718749998  16.872393859375002 9.194372203124999  C 16.232563749999997 9.114393421875  15.608729406250006 9.178376437499999  15.0328823125 9.482295749999999  C 14.089132890624995 9.9781640625  13.913179609375 11.017887984374998  14.600996968749996 11.881658625  C 14.968899296874994 12.345535453124995  15.432776125000004 12.665450484375  15.960635921874996 12.857399531249996  C 17.176313124999993 13.321276359374995  18.407986046874996 13.673182921874997  19.623663296874994 14.137059749999992  C 21.303217328124994 14.792885624999993  22.950779828124993 15.544685999999992  24.566350843749994 16.376465109374998  C 26.88573498437499 17.560150781249998  28.101412187499996 19.607607140624992  28.501305999999992 22.310889328124993  C 28.997174312499993 25.68599310937499  28.32535271874999 28.725186140625  26.325883609374998 31.348489546874994  C 24.966244656249998 33.12401807812499  23.20671184375 34.259716499999996  21.207242781249995 34.899546609374994  C 18.104066781249998 35.907278999999996  14.936907765624994 36.2111983125  11.721761499999992 35.85929175  C 8.650576984374993 35.523380953125  5.7393500312499945 34.563635812499996  3.004076359374995 32.964060562499995  C 2.188292968749991 32.48418796874999  1.4204968749999942 31.940332406249993  0.6686964531249942 31.332493781249994  C 0.5247347031249916 31.204527749999997  0.49274317187499506 31.10855325  0.5887177187499937 30.916604203124997  C 1.7084204218749974 28.565228578125  2.812127312499996 26.213852953125  3.9158342499999956 23.862477328124996  C 4.091787531249995 23.494574999999998  4.267740812499994 23.126672718749994  4.427698328124997 22.758770390624996  C 4.523672828124994 22.534829859374994  4.603651609374996 22.502838328124994  4.795600656249995 22.66279589062499  C 6.3471886562499975 23.958451828124993  8.010746921874993 25.046163046874995  9.770279687499993 25.941925171874992  C 11.305871921874996 26.72571703125  12.905447218749991 27.30156412499999  14.616992734374996 27.41353439062499  C 15.464767609374995 27.477517406249987  16.312542531249996 27.41353439062499  17.112330109374994 27.06162782812499  C 18.05607953125 26.645738249999994  18.359998796874997 25.797963374999995  18.024088046874994 24.758239453124993  C 17.880126296874998 24.32635415624999  17.56021121875 24.08641785937499  17.224300421875 23.878473046874987  C 16.200572265625 23.25463870312499  15.096865328124998 22.90273214062499  13.977162624999995 22.598812874999993  C 12.233625578124993 22.11894028124999  10.506084296874995 21.63906773437499  8.858521796874996 20.80728857812499  C 7.4668913124999925 20.103475453124986  6.187231093749993 19.20771332812499  5.211490187499994 17.864070093749987  C 4.059795999999995 16.248499078124986  3.5959191718749963 14.361000281249986  3.6279107031249964 12.313543921874984  C 3.691893718749995 9.066406124999986  4.939562406249994 6.427106953124984  7.082993265624996 4.2836761406249835  C 8.730555765624999 2.6361136406249823  10.698033343749998 1.676368453124983  12.841464203125 1.1165171249999837  Z " fill-rule="evenodd" />
    </mask>
  </defs>
  <g transform="matrix(1 0 0 1 -168 -75 )">
    <path d="M 12.841464203125 1.1165171249999837  C 14.457035218749994 0.7166233124999835  16.040614703125 0.5566657968749844  17.896122015624996 0.5086785468750001  C 21.815081406250002 0.5086785468750001  25.7980238125 1.5164109375  29.541029875 3.5478715312499993  C 29.972915171875 3.7878078281250005  30.388804750000006 4.059735609375  30.804694374999997 4.299671906250001  C 31.028634906249998 4.427637937500002  31.028634906249998 4.5396082031250025  30.900668875 4.763548734375  C 29.668995906249997 7.050941343749997  28.437322984375 9.354329718750002  27.221645781250004 11.641722328124999  C 27.061688265625 11.929645874999999  26.885734984375 12.217569421874998  26.757768953125 12.537484499999998  C 26.629802921874997 12.841403812499998  26.48584117187501 12.809412281249998  26.26190059375 12.68144625  C 24.566350796875 11.721701109374997  22.806818031250003 10.921913484374997  21.01529378125001 10.250091843749999  C 19.671650546875 9.738227765624998  18.296015828125007 9.354329718749998  16.872393859375002 9.194372203124999  C 16.232563749999997 9.114393421875  15.608729406250006 9.178376437499999  15.0328823125 9.482295749999999  C 14.089132890624995 9.9781640625  13.913179609375 11.017887984374998  14.600996968749996 11.881658625  C 14.968899296874994 12.345535453124995  15.432776125000004 12.665450484375  15.960635921874996 12.857399531249996  C 17.176313124999993 13.321276359374995  18.407986046874996 13.673182921874997  19.623663296874994 14.137059749999992  C 21.303217328124994 14.792885624999993  22.950779828124993 15.544685999999992  24.566350843749994 16.376465109374998  C 26.88573498437499 17.560150781249998  28.101412187499996 19.607607140624992  28.501305999999992 22.310889328124993  C 28.997174312499993 25.68599310937499  28.32535271874999 28.725186140625  26.325883609374998 31.348489546874994  C 24.966244656249998 33.12401807812499  23.20671184375 34.259716499999996  21.207242781249995 34.899546609374994  C 18.104066781249998 35.907278999999996  14.936907765624994 36.2111983125  11.721761499999992 35.85929175  C 8.650576984374993 35.523380953125  5.7393500312499945 34.563635812499996  3.004076359374995 32.964060562499995  C 2.188292968749991 32.48418796874999  1.4204968749999942 31.940332406249993  0.6686964531249942 31.332493781249994  C 0.5247347031249916 31.204527749999997  0.49274317187499506 31.10855325  0.5887177187499937 30.916604203124997  C 1.7084204218749974 28.565228578125  2.812127312499996 26.213852953125  3.9158342499999956 23.862477328124996  C 4.091787531249995 23.494574999999998  4.267740812499994 23.126672718749994  4.427698328124997 22.758770390624996  C 4.523672828124994 22.534829859374994  4.603651609374996 22.502838328124994  4.795600656249995 22.66279589062499  C 6.3471886562499975 23.958451828124993  8.010746921874993 25.046163046874995  9.770279687499993 25.941925171874992  C 11.305871921874996 26.72571703125  12.905447218749991 27.30156412499999  14.616992734374996 27.41353439062499  C 15.464767609374995 27.477517406249987  16.312542531249996 27.41353439062499  17.112330109374994 27.06162782812499  C 18.05607953125 26.645738249999994  18.359998796874997 25.797963374999995  18.024088046874994 24.758239453124993  C 17.880126296874998 24.32635415624999  17.56021121875 24.08641785937499  17.224300421875 23.878473046874987  C 16.200572265625 23.25463870312499  15.096865328124998 22.90273214062499  13.977162624999995 22.598812874999993  C 12.233625578124993 22.11894028124999  10.506084296874995 21.63906773437499  8.858521796874996 20.80728857812499  C 7.4668913124999925 20.103475453124986  6.187231093749993 19.20771332812499  5.211490187499994 17.864070093749987  C 4.059795999999995 16.248499078124986  3.5959191718749963 14.361000281249986  3.6279107031249964 12.313543921874984  C 3.691893718749995 9.066406124999986  4.939562406249994 6.427106953124984  7.082993265624996 4.2836761406249835  C 8.730555765624999 2.6361136406249823  10.698033343749998 1.676368453124983  12.841464203125 1.1165171249999837  Z " fill-rule="nonzero" fill="rgba(0, 0, 0, 1)" stroke="none" transform="matrix(1 0 0 1 168 75 )" class="fill" />
    <path d="M 12.841464203125 1.1165171249999837  C 14.457035218749994 0.7166233124999835  16.040614703125 0.5566657968749844  17.896122015624996 0.5086785468750001  C 21.815081406250002 0.5086785468750001  25.7980238125 1.5164109375  29.541029875 3.5478715312499993  C 29.972915171875 3.7878078281250005  30.388804750000006 4.059735609375  30.804694374999997 4.299671906250001  C 31.028634906249998 4.427637937500002  31.028634906249998 4.5396082031250025  30.900668875 4.763548734375  C 29.668995906249997 7.050941343749997  28.437322984375 9.354329718750002  27.221645781250004 11.641722328124999  C 27.061688265625 11.929645874999999  26.885734984375 12.217569421874998  26.757768953125 12.537484499999998  C 26.629802921874997 12.841403812499998  26.48584117187501 12.809412281249998  26.26190059375 12.68144625  C 24.566350796875 11.721701109374997  22.806818031250003 10.921913484374997  21.01529378125001 10.250091843749999  C 19.671650546875 9.738227765624998  18.296015828125007 9.354329718749998  16.872393859375002 9.194372203124999  C 16.232563749999997 9.114393421875  15.608729406250006 9.178376437499999  15.0328823125 9.482295749999999  C 14.089132890624995 9.9781640625  13.913179609375 11.017887984374998  14.600996968749996 11.881658625  C 14.968899296874994 12.345535453124995  15.432776125000004 12.665450484375  15.960635921874996 12.857399531249996  C 17.176313124999993 13.321276359374995  18.407986046874996 13.673182921874997  19.623663296874994 14.137059749999992  C 21.303217328124994 14.792885624999993  22.950779828124993 15.544685999999992  24.566350843749994 16.376465109374998  C 26.88573498437499 17.560150781249998  28.101412187499996 19.607607140624992  28.501305999999992 22.310889328124993  C 28.997174312499993 25.68599310937499  28.32535271874999 28.725186140625  26.325883609374998 31.348489546874994  C 24.966244656249998 33.12401807812499  23.20671184375 34.259716499999996  21.207242781249995 34.899546609374994  C 18.104066781249998 35.907278999999996  14.936907765624994 36.2111983125  11.721761499999992 35.85929175  C 8.650576984374993 35.523380953125  5.7393500312499945 34.563635812499996  3.004076359374995 32.964060562499995  C 2.188292968749991 32.48418796874999  1.4204968749999942 31.940332406249993  0.6686964531249942 31.332493781249994  C 0.5247347031249916 31.204527749999997  0.49274317187499506 31.10855325  0.5887177187499937 30.916604203124997  C 1.7084204218749974 28.565228578125  2.812127312499996 26.213852953125  3.9158342499999956 23.862477328124996  C 4.091787531249995 23.494574999999998  4.267740812499994 23.126672718749994  4.427698328124997 22.758770390624996  C 4.523672828124994 22.534829859374994  4.603651609374996 22.502838328124994  4.795600656249995 22.66279589062499  C 6.3471886562499975 23.958451828124993  8.010746921874993 25.046163046874995  9.770279687499993 25.941925171874992  C 11.305871921874996 26.72571703125  12.905447218749991 27.30156412499999  14.616992734374996 27.41353439062499  C 15.464767609374995 27.477517406249987  16.312542531249996 27.41353439062499  17.112330109374994 27.06162782812499  C 18.05607953125 26.645738249999994  18.359998796874997 25.797963374999995  18.024088046874994 24.758239453124993  C 17.880126296874998 24.32635415624999  17.56021121875 24.08641785937499  17.224300421875 23.878473046874987  C 16.200572265625 23.25463870312499  15.096865328124998 22.90273214062499  13.977162624999995 22.598812874999993  C 12.233625578124993 22.11894028124999  10.506084296874995 21.63906773437499  8.858521796874996 20.80728857812499  C 7.4668913124999925 20.103475453124986  6.187231093749993 19.20771332812499  5.211490187499994 17.864070093749987  C 4.059795999999995 16.248499078124986  3.5959191718749963 14.361000281249986  3.6279107031249964 12.313543921874984  C 3.691893718749995 9.066406124999986  4.939562406249994 6.427106953124984  7.082993265624996 4.2836761406249835  C 8.730555765624999 2.6361136406249823  10.698033343749998 1.676368453124983  12.841464203125 1.1165171249999837  Z " stroke-width="0" stroke-dasharray="0" stroke="rgba(255, 255, 255, 0)" fill="none" transform="matrix(1 0 0 1 168 75 )" class="stroke" mask="url(#Clip5835)" />
  </g>
</svg>